<?xml version="1.0" encoding="UTF-8" standalone="no"?>
<!DOCTYPE svg PUBLIC "-//W3C//DTD SVG 1.1//EN"
 "http://www.w3.org/Graphics/SVG/1.1/DTD/svg11.dtd">
<!-- Generated by graphviz version 2.43.0 (0)
 -->
<!-- Title: src/backends/aclCommon/ArmComputeSubgraphUtils.hpp Pages: 1 -->
<svg width="436pt" height="162pt"
 viewBox="0.00 0.00 436.00 162.00" xmlns="http://www.w3.org/2000/svg" xmlns:xlink="http://www.w3.org/1999/xlink">
<g id="graph0" class="graph" transform="scale(1 1) rotate(0) translate(4 158)">
<title>src/backends/aclCommon/ArmComputeSubgraphUtils.hpp</title>
<polygon fill="white" stroke="transparent" points="-4,4 -4,-158 432,-158 432,4 -4,4"/>
<!-- Node1 -->
<g id="node1" class="node">
<title>Node1</title>
<g id="a_node1"><a xlink:title=" ">
<polygon fill="#bfbfbf" stroke="black" points="185,-123.5 185,-153.5 358,-153.5 358,-123.5 185,-123.5"/>
<text text-anchor="start" x="193" y="-141.5" font-family="Helvetica,sans-Serif" font-size="10.00">src/backends/aclCommon</text>
<text text-anchor="middle" x="271.5" y="-130.5" font-family="Helvetica,sans-Serif" font-size="10.00">/ArmComputeSubgraphUtils.hpp</text>
</a>
</g>
</g>
<!-- Node2 -->
<g id="node2" class="node">
<title>Node2</title>
<g id="a_node2"><a xlink:href="_cl_backend_8cpp.html" target="_top" xlink:title=" ">
<polygon fill="white" stroke="black" points="0,-62 0,-81 165,-81 165,-62 0,-62"/>
<text text-anchor="middle" x="82.5" y="-69" font-family="Helvetica,sans-Serif" font-size="10.00">src/backends/cl/ClBackend.cpp</text>
</a>
</g>
</g>
<!-- Node1&#45;&gt;Node2 -->
<g id="edge1" class="edge">
<title>Node1&#45;&gt;Node2</title>
<path fill="none" stroke="midnightblue" d="M220.93,-120.11C184.16,-107.46 135.98,-90.89 107.24,-81.01"/>
<polygon fill="midnightblue" stroke="midnightblue" points="219.9,-123.45 230.49,-123.4 222.17,-116.83 219.9,-123.45"/>
</g>
<!-- Node3 -->
<g id="node3" class="node">
<title>Node3</title>
<g id="a_node3"><a xlink:href="_neon_backend_optimization_utils_8hpp.html" target="_top" xlink:title=" ">
<polygon fill="white" stroke="black" points="183.5,-56.5 183.5,-86.5 359.5,-86.5 359.5,-56.5 183.5,-56.5"/>
<text text-anchor="start" x="191.5" y="-74.5" font-family="Helvetica,sans-Serif" font-size="10.00">src/backends/neon/NeonBackend</text>
<text text-anchor="middle" x="271.5" y="-63.5" font-family="Helvetica,sans-Serif" font-size="10.00">OptimizationUtils.hpp</text>
</a>
</g>
</g>
<!-- Node1&#45;&gt;Node3 -->
<g id="edge2" class="edge">
<title>Node1&#45;&gt;Node3</title>
<path fill="none" stroke="midnightblue" d="M271.5,-113.11C271.5,-104.15 271.5,-94.32 271.5,-86.58"/>
<polygon fill="midnightblue" stroke="midnightblue" points="268,-113.4 271.5,-123.4 275,-113.4 268,-113.4"/>
</g>
<!-- Node4 -->
<g id="node4" class="node">
<title>Node4</title>
<g id="a_node4"><a xlink:href="_neon_backend_8cpp.html" target="_top" xlink:title=" ">
<polygon fill="white" stroke="black" points="231,-0.5 231,-19.5 428,-19.5 428,-0.5 231,-0.5"/>
<text text-anchor="middle" x="329.5" y="-7.5" font-family="Helvetica,sans-Serif" font-size="10.00">src/backends/neon/NeonBackend.cpp</text>
</a>
</g>
</g>
<!-- Node1&#45;&gt;Node4 -->
<g id="edge4" class="edge">
<title>Node1&#45;&gt;Node4</title>
<path fill="none" stroke="midnightblue" d="M331.12,-119.09C345.87,-111.56 359.9,-101.18 368.5,-87 382.81,-63.42 355.74,-33.98 339.86,-19.65"/>
<polygon fill="midnightblue" stroke="midnightblue" points="329.45,-116 321.88,-123.42 332.42,-122.34 329.45,-116"/>
</g>
<!-- Node3&#45;&gt;Node4 -->
<g id="edge3" class="edge">
<title>Node3&#45;&gt;Node4</title>
<path fill="none" stroke="midnightblue" d="M292.46,-49C302.34,-38.86 313.58,-27.33 321.06,-19.66"/>
<polygon fill="midnightblue" stroke="midnightblue" points="289.72,-46.8 285.25,-56.4 294.73,-51.68 289.72,-46.8"/>
</g>
</g>
</svg>
