<?xml version="1.0" encoding="UTF-8" standalone="no"?>
<!DOCTYPE svg PUBLIC "-//W3C//DTD SVG 1.1//EN"
 "http://www.w3.org/Graphics/SVG/1.1/DTD/svg11.dtd">
<!-- Generated by graphviz version 2.43.0 (0)
 -->
<!-- Title: src/armnn/ArmNNProfilingServiceInitialiser.hpp Pages: 1 -->
<svg width="300pt" height="106pt"
 viewBox="0.00 0.00 299.50 106.00" xmlns="http://www.w3.org/2000/svg" xmlns:xlink="http://www.w3.org/1999/xlink">
<g id="graph0" class="graph" transform="scale(1 1) rotate(0) translate(4 102)">
<title>src/armnn/ArmNNProfilingServiceInitialiser.hpp</title>
<polygon fill="white" stroke="transparent" points="-4,4 -4,-102 295.5,-102 295.5,4 -4,4"/>
<!-- Node1 -->
<g id="node1" class="node">
<title>Node1</title>
<g id="a_node1"><a xlink:title=" ">
<polygon fill="#bfbfbf" stroke="black" points="77,-67.5 77,-97.5 220,-97.5 220,-67.5 77,-67.5"/>
<text text-anchor="start" x="85" y="-85.5" font-family="Helvetica,sans-Serif" font-size="10.00">src/armnn/ArmNNProfiling</text>
<text text-anchor="middle" x="148.5" y="-74.5" font-family="Helvetica,sans-Serif" font-size="10.00">ServiceInitialiser.hpp</text>
</a>
</g>
</g>
<!-- Node2 -->
<g id="node2" class="node">
<title>Node2</title>
<g id="a_node2"><a xlink:href="_arm_n_n_profiling_service_initialiser_8cpp.html" target="_top" xlink:title=" ">
<polygon fill="white" stroke="black" points="0,-0.5 0,-30.5 143,-30.5 143,-0.5 0,-0.5"/>
<text text-anchor="start" x="8" y="-18.5" font-family="Helvetica,sans-Serif" font-size="10.00">src/armnn/ArmNNProfiling</text>
<text text-anchor="middle" x="71.5" y="-7.5" font-family="Helvetica,sans-Serif" font-size="10.00">ServiceInitialiser.cpp</text>
</a>
</g>
</g>
<!-- Node1&#45;&gt;Node2 -->
<g id="edge1" class="edge">
<title>Node1&#45;&gt;Node2</title>
<path fill="none" stroke="midnightblue" d="M124.08,-60.88C112.38,-51.01 98.66,-39.43 88.18,-30.58"/>
<polygon fill="midnightblue" stroke="midnightblue" points="121.89,-63.62 131.79,-67.4 126.41,-58.27 121.89,-63.62"/>
</g>
<!-- Node3 -->
<g id="node3" class="node">
<title>Node3</title>
<g id="a_node3"><a xlink:href="_runtime_8cpp.html" target="_top" xlink:title=" ">
<polygon fill="white" stroke="black" points="161.5,-6 161.5,-25 291.5,-25 291.5,-6 161.5,-6"/>
<text text-anchor="middle" x="226.5" y="-13" font-family="Helvetica,sans-Serif" font-size="10.00">src/armnn/Runtime.cpp</text>
</a>
</g>
</g>
<!-- Node1&#45;&gt;Node3 -->
<g id="edge2" class="edge">
<title>Node1&#45;&gt;Node3</title>
<path fill="none" stroke="midnightblue" d="M173.49,-60.67C187.9,-48.67 205.24,-34.22 216.07,-25.19"/>
<polygon fill="midnightblue" stroke="midnightblue" points="170.87,-58.31 165.42,-67.4 175.35,-63.68 170.87,-58.31"/>
</g>
</g>
</svg>
