<?xml version="1.0" encoding="UTF-8" standalone="no"?>
<!DOCTYPE svg PUBLIC "-//W3C//DTD SVG 1.1//EN"
 "http://www.w3.org/Graphics/SVG/1.1/DTD/svg11.dtd">
<!-- Generated by graphviz version 2.43.0 (0)
 -->
<!-- Title: src/backends/cl/ClImportTensorHandleFactory.hpp Pages: 1 -->
<svg width="1133pt" height="386pt"
 viewBox="0.00 0.00 1132.50 386.00" xmlns="http://www.w3.org/2000/svg" xmlns:xlink="http://www.w3.org/1999/xlink">
<g id="graph0" class="graph" transform="scale(1 1) rotate(0) translate(4 382)">
<title>src/backends/cl/ClImportTensorHandleFactory.hpp</title>
<polygon fill="white" stroke="transparent" points="-4,4 -4,-382 1128.5,-382 1128.5,4 -4,4"/>
<!-- Node1 -->
<g id="node1" class="node">
<title>Node1</title>
<g id="a_node1"><a xlink:title=" ">
<polygon fill="#bfbfbf" stroke="black" points="434,-347.5 434,-377.5 571,-377.5 571,-347.5 434,-347.5"/>
<text text-anchor="start" x="442" y="-365.5" font-family="Helvetica,sans-Serif" font-size="10.00">src/backends/cl/ClImport</text>
<text text-anchor="middle" x="502.5" y="-354.5" font-family="Helvetica,sans-Serif" font-size="10.00">TensorHandleFactory.hpp</text>
</a>
</g>
</g>
<!-- Node2 -->
<g id="node2" class="node">
<title>Node2</title>
<g id="a_node2"><a xlink:href="_memory_sources_8hpp.html" target="_top" xlink:title=" ">
<polygon fill="white" stroke="black" points="33,-168.5 33,-187.5 184,-187.5 184,-168.5 33,-168.5"/>
<text text-anchor="middle" x="108.5" y="-175.5" font-family="Helvetica,sans-Serif" font-size="10.00">armnn/MemorySources.hpp</text>
</a>
</g>
</g>
<!-- Node1&#45;&gt;Node2 -->
<g id="edge1" class="edge">
<title>Node1&#45;&gt;Node2</title>
<path fill="none" stroke="midnightblue" d="M470.21,-347.35C420.75,-325.6 323.37,-282.42 241.5,-244 204.2,-226.5 161.46,-205.42 134.72,-192.12"/>
<polygon fill="midnightblue" stroke="midnightblue" points="136.14,-188.92 125.63,-187.59 133.02,-195.18 136.14,-188.92"/>
</g>
<!-- Node20 -->
<g id="node20" class="node">
<title>Node20</title>
<g id="a_node20"><a xlink:href="_i_memory_manager_8hpp.html" target="_top" xlink:title=" ">
<polygon fill="white" stroke="black" points="918.5,-224.5 918.5,-243.5 1124.5,-243.5 1124.5,-224.5 918.5,-224.5"/>
<text text-anchor="middle" x="1021.5" y="-231.5" font-family="Helvetica,sans-Serif" font-size="10.00">armnn/backends/IMemoryManager.hpp</text>
</a>
</g>
</g>
<!-- Node1&#45;&gt;Node20 -->
<g id="edge20" class="edge">
<title>Node1&#45;&gt;Node20</title>
<path fill="none" stroke="midnightblue" d="M560.03,-347.48C664.3,-322.06 882.45,-268.89 976.63,-245.94"/>
<polygon fill="midnightblue" stroke="midnightblue" points="977.53,-249.32 986.41,-243.55 975.87,-242.52 977.53,-249.32"/>
</g>
<!-- Node21 -->
<g id="node21" class="node">
<title>Node21</title>
<g id="a_node21"><a xlink:href="_i_tensor_handle_factory_8hpp.html" target="_top" xlink:title=" ">
<polygon fill="white" stroke="black" points="418,-280.5 418,-310.5 587,-310.5 587,-280.5 418,-280.5"/>
<text text-anchor="start" x="426" y="-298.5" font-family="Helvetica,sans-Serif" font-size="10.00">armnn/backends/ITensorHandle</text>
<text text-anchor="middle" x="502.5" y="-287.5" font-family="Helvetica,sans-Serif" font-size="10.00">Factory.hpp</text>
</a>
</g>
</g>
<!-- Node1&#45;&gt;Node21 -->
<g id="edge22" class="edge">
<title>Node1&#45;&gt;Node21</title>
<path fill="none" stroke="midnightblue" d="M502.5,-347.4C502.5,-339.64 502.5,-329.81 502.5,-320.86"/>
<polygon fill="midnightblue" stroke="midnightblue" points="506,-320.58 502.5,-310.58 499,-320.58 506,-320.58"/>
</g>
<!-- Node3 -->
<g id="node3" class="node">
<title>Node3</title>
<g id="a_node3"><a xlink:href="_types_8hpp.html" target="_top" xlink:title=" ">
<polygon fill="white" stroke="black" points="470.5,-112.5 470.5,-131.5 570.5,-131.5 570.5,-112.5 470.5,-112.5"/>
<text text-anchor="middle" x="520.5" y="-119.5" font-family="Helvetica,sans-Serif" font-size="10.00">armnn/Types.hpp</text>
</a>
</g>
</g>
<!-- Node2&#45;&gt;Node3 -->
<g id="edge2" class="edge">
<title>Node2&#45;&gt;Node3</title>
<path fill="none" stroke="midnightblue" d="M173.78,-168.44C252.61,-158.11 384.09,-140.88 460.48,-130.87"/>
<polygon fill="midnightblue" stroke="midnightblue" points="460.97,-134.33 470.43,-129.56 460.06,-127.39 460.97,-134.33"/>
</g>
<!-- Node19 -->
<g id="node19" class="node">
<title>Node19</title>
<g id="a_node19"><a xlink:title=" ">
<polygon fill="white" stroke="#bfbfbf" points="0,-56.5 0,-75.5 69,-75.5 69,-56.5 0,-56.5"/>
<text text-anchor="middle" x="34.5" y="-63.5" font-family="Helvetica,sans-Serif" font-size="10.00">type_traits</text>
</a>
</g>
</g>
<!-- Node2&#45;&gt;Node19 -->
<g id="edge19" class="edge">
<title>Node2&#45;&gt;Node19</title>
<path fill="none" stroke="midnightblue" d="M102.25,-168.45C95.72,-159.46 85.22,-144.85 76.5,-132 65.7,-116.07 53.84,-97.62 45.48,-84.45"/>
<polygon fill="midnightblue" stroke="midnightblue" points="48.38,-82.5 40.08,-75.91 42.47,-86.24 48.38,-82.5"/>
</g>
<!-- Node4 -->
<g id="node4" class="node">
<title>Node4</title>
<g id="a_node4"><a xlink:title=" ">
<polygon fill="white" stroke="#bfbfbf" points="265.5,-56.5 265.5,-75.5 307.5,-75.5 307.5,-56.5 265.5,-56.5"/>
<text text-anchor="middle" x="286.5" y="-63.5" font-family="Helvetica,sans-Serif" font-size="10.00">array</text>
</a>
</g>
</g>
<!-- Node3&#45;&gt;Node4 -->
<g id="edge3" class="edge">
<title>Node3&#45;&gt;Node4</title>
<path fill="none" stroke="midnightblue" d="M478.32,-112.48C437.13,-103.96 372.76,-90.13 317.5,-76 317.4,-75.97 317.3,-75.95 317.2,-75.92"/>
<polygon fill="midnightblue" stroke="midnightblue" points="318.36,-72.61 307.8,-73.38 316.53,-79.37 318.36,-72.61"/>
</g>
<!-- Node5 -->
<g id="node5" class="node">
<title>Node5</title>
<g id="a_node5"><a xlink:title=" ">
<polygon fill="white" stroke="#bfbfbf" points="397,-56.5 397,-75.5 462,-75.5 462,-56.5 397,-56.5"/>
<text text-anchor="middle" x="429.5" y="-63.5" font-family="Helvetica,sans-Serif" font-size="10.00">functional</text>
</a>
</g>
</g>
<!-- Node3&#45;&gt;Node5 -->
<g id="edge4" class="edge">
<title>Node3&#45;&gt;Node5</title>
<path fill="none" stroke="midnightblue" d="M505.88,-112.32C491.55,-103.82 469.49,-90.73 452.75,-80.8"/>
<polygon fill="midnightblue" stroke="midnightblue" points="454.47,-77.75 444.08,-75.65 450.9,-83.77 454.47,-77.75"/>
</g>
<!-- Node6 -->
<g id="node6" class="node">
<title>Node6</title>
<g id="a_node6"><a xlink:title=" ">
<polygon fill="white" stroke="#bfbfbf" points="326,-56.5 326,-75.5 379,-75.5 379,-56.5 326,-56.5"/>
<text text-anchor="middle" x="352.5" y="-63.5" font-family="Helvetica,sans-Serif" font-size="10.00">stdint.h</text>
</a>
</g>
</g>
<!-- Node3&#45;&gt;Node6 -->
<g id="edge5" class="edge">
<title>Node3&#45;&gt;Node6</title>
<path fill="none" stroke="midnightblue" d="M493.88,-112.44C465.49,-103.32 420.36,-88.81 388.75,-78.65"/>
<polygon fill="midnightblue" stroke="midnightblue" points="389.59,-75.24 379,-75.52 387.44,-81.91 389.59,-75.24"/>
</g>
<!-- Node7 -->
<g id="node7" class="node">
<title>Node7</title>
<g id="a_node7"><a xlink:title=" ">
<polygon fill="white" stroke="#bfbfbf" points="480.5,-56.5 480.5,-75.5 530.5,-75.5 530.5,-56.5 480.5,-56.5"/>
<text text-anchor="middle" x="505.5" y="-63.5" font-family="Helvetica,sans-Serif" font-size="10.00">chrono</text>
</a>
</g>
</g>
<!-- Node3&#45;&gt;Node7 -->
<g id="edge6" class="edge">
<title>Node3&#45;&gt;Node7</title>
<path fill="none" stroke="midnightblue" d="M518.02,-112.08C516.01,-104.85 513.11,-94.41 510.61,-85.4"/>
<polygon fill="midnightblue" stroke="midnightblue" points="513.98,-84.45 507.93,-75.75 507.24,-86.32 513.98,-84.45"/>
</g>
<!-- Node8 -->
<g id="node8" class="node">
<title>Node8</title>
<g id="a_node8"><a xlink:href="_backend_id_8hpp.html" target="_top" xlink:title=" ">
<polygon fill="white" stroke="black" points="698.5,-56.5 698.5,-75.5 786.5,-75.5 786.5,-56.5 698.5,-56.5"/>
<text text-anchor="middle" x="742.5" y="-63.5" font-family="Helvetica,sans-Serif" font-size="10.00">BackendId.hpp</text>
</a>
</g>
</g>
<!-- Node3&#45;&gt;Node8 -->
<g id="edge7" class="edge">
<title>Node3&#45;&gt;Node8</title>
<path fill="none" stroke="midnightblue" d="M555.68,-112.44C594.08,-103.1 655.68,-88.12 697.56,-77.93"/>
<polygon fill="midnightblue" stroke="midnightblue" points="698.6,-81.28 707.49,-75.52 696.94,-74.48 698.6,-81.28"/>
</g>
<!-- Node15 -->
<g id="node15" class="node">
<title>Node15</title>
<g id="a_node15"><a xlink:href="_exceptions_8hpp.html" target="_top" xlink:title=" ">
<polygon fill="white" stroke="black" points="156,-56.5 156,-75.5 247,-75.5 247,-56.5 156,-56.5"/>
<text text-anchor="middle" x="201.5" y="-63.5" font-family="Helvetica,sans-Serif" font-size="10.00">Exceptions.hpp</text>
</a>
</g>
</g>
<!-- Node3&#45;&gt;Node15 -->
<g id="edge14" class="edge">
<title>Node3&#45;&gt;Node15</title>
<path fill="none" stroke="midnightblue" d="M470.31,-112.5C412.34,-102.69 317.25,-86.59 257.09,-76.41"/>
<polygon fill="midnightblue" stroke="midnightblue" points="257.46,-72.92 247.01,-74.7 256.29,-79.82 257.46,-72.92"/>
</g>
<!-- Node18 -->
<g id="node18" class="node">
<title>Node18</title>
<g id="a_node18"><a xlink:href="_deprecated_8hpp.html" target="_top" xlink:title=" ">
<polygon fill="white" stroke="black" points="548.5,-56.5 548.5,-75.5 642.5,-75.5 642.5,-56.5 548.5,-56.5"/>
<text text-anchor="middle" x="595.5" y="-63.5" font-family="Helvetica,sans-Serif" font-size="10.00">Deprecated.hpp</text>
</a>
</g>
</g>
<!-- Node3&#45;&gt;Node18 -->
<g id="edge18" class="edge">
<title>Node3&#45;&gt;Node18</title>
<path fill="none" stroke="midnightblue" d="M532.55,-112.32C543.96,-104.11 561.33,-91.6 574.93,-81.81"/>
<polygon fill="midnightblue" stroke="midnightblue" points="577.16,-84.52 583.23,-75.83 573.07,-78.84 577.16,-84.52"/>
</g>
<!-- Node9 -->
<g id="node9" class="node">
<title>Node9</title>
<g id="a_node9"><a xlink:title=" ">
<polygon fill="white" stroke="#bfbfbf" points="877.5,-0.5 877.5,-19.5 935.5,-19.5 935.5,-0.5 877.5,-0.5"/>
<text text-anchor="middle" x="906.5" y="-7.5" font-family="Helvetica,sans-Serif" font-size="10.00">memory</text>
</a>
</g>
</g>
<!-- Node8&#45;&gt;Node9 -->
<g id="edge8" class="edge">
<title>Node8&#45;&gt;Node9</title>
<path fill="none" stroke="midnightblue" d="M768.49,-56.44C796.2,-47.32 840.25,-32.81 871.12,-22.65"/>
<polygon fill="midnightblue" stroke="midnightblue" points="872.23,-25.97 880.64,-19.52 870.04,-19.32 872.23,-25.97"/>
</g>
<!-- Node10 -->
<g id="node10" class="node">
<title>Node10</title>
<g id="a_node10"><a xlink:title=" ">
<polygon fill="white" stroke="#bfbfbf" points="737,-0.5 737,-19.5 794,-19.5 794,-0.5 737,-0.5"/>
<text text-anchor="middle" x="765.5" y="-7.5" font-family="Helvetica,sans-Serif" font-size="10.00">ostream</text>
</a>
</g>
</g>
<!-- Node8&#45;&gt;Node10 -->
<g id="edge9" class="edge">
<title>Node8&#45;&gt;Node10</title>
<path fill="none" stroke="midnightblue" d="M746.3,-56.08C749.41,-48.77 753.92,-38.18 757.79,-29.1"/>
<polygon fill="midnightblue" stroke="midnightblue" points="761.07,-30.32 761.77,-19.75 754.63,-27.58 761.07,-30.32"/>
</g>
<!-- Node11 -->
<g id="node11" class="node">
<title>Node11</title>
<g id="a_node11"><a xlink:title=" ">
<polygon fill="white" stroke="#bfbfbf" points="686.5,-0.5 686.5,-19.5 718.5,-19.5 718.5,-0.5 686.5,-0.5"/>
<text text-anchor="middle" x="702.5" y="-7.5" font-family="Helvetica,sans-Serif" font-size="10.00">set</text>
</a>
</g>
</g>
<!-- Node8&#45;&gt;Node11 -->
<g id="edge10" class="edge">
<title>Node8&#45;&gt;Node11</title>
<path fill="none" stroke="midnightblue" d="M735.89,-56.08C730.24,-48.46 721.96,-37.26 715.05,-27.94"/>
<polygon fill="midnightblue" stroke="midnightblue" points="717.75,-25.7 708.98,-19.75 712.12,-29.87 717.75,-25.7"/>
</g>
<!-- Node12 -->
<g id="node12" class="node">
<title>Node12</title>
<g id="a_node12"><a xlink:title=" ">
<polygon fill="white" stroke="#bfbfbf" points="520.5,-0.5 520.5,-19.5 564.5,-19.5 564.5,-0.5 520.5,-0.5"/>
<text text-anchor="middle" x="542.5" y="-7.5" font-family="Helvetica,sans-Serif" font-size="10.00">string</text>
</a>
</g>
</g>
<!-- Node8&#45;&gt;Node12 -->
<g id="edge11" class="edge">
<title>Node8&#45;&gt;Node12</title>
<path fill="none" stroke="midnightblue" d="M709.41,-56.42C677.3,-48.05 626.93,-34.78 574.62,-20.27"/>
<polygon fill="midnightblue" stroke="midnightblue" points="575.41,-16.86 564.83,-17.55 573.53,-23.6 575.41,-16.86"/>
</g>
<!-- Node13 -->
<g id="node13" class="node">
<title>Node13</title>
<g id="a_node13"><a xlink:title=" ">
<polygon fill="white" stroke="#bfbfbf" points="582.5,-0.5 582.5,-19.5 668.5,-19.5 668.5,-0.5 582.5,-0.5"/>
<text text-anchor="middle" x="625.5" y="-7.5" font-family="Helvetica,sans-Serif" font-size="10.00">unordered_set</text>
</a>
</g>
</g>
<!-- Node8&#45;&gt;Node13 -->
<g id="edge12" class="edge">
<title>Node8&#45;&gt;Node13</title>
<path fill="none" stroke="midnightblue" d="M723.96,-56.44C704.88,-47.64 674.93,-33.81 653.06,-23.72"/>
<polygon fill="midnightblue" stroke="midnightblue" points="654.5,-20.53 643.95,-19.52 651.57,-26.88 654.5,-20.53"/>
</g>
<!-- Node14 -->
<g id="node14" class="node">
<title>Node14</title>
<g id="a_node14"><a xlink:title=" ">
<polygon fill="white" stroke="#bfbfbf" points="812,-0.5 812,-19.5 859,-19.5 859,-0.5 812,-0.5"/>
<text text-anchor="middle" x="835.5" y="-7.5" font-family="Helvetica,sans-Serif" font-size="10.00">vector</text>
</a>
</g>
</g>
<!-- Node8&#45;&gt;Node14 -->
<g id="edge13" class="edge">
<title>Node8&#45;&gt;Node14</title>
<path fill="none" stroke="midnightblue" d="M757.44,-56.32C772.09,-47.82 794.63,-34.73 811.74,-24.8"/>
<polygon fill="midnightblue" stroke="midnightblue" points="813.7,-27.7 820.6,-19.65 810.19,-21.65 813.7,-27.7"/>
</g>
<!-- Node15&#45;&gt;Node12 -->
<g id="edge17" class="edge">
<title>Node15&#45;&gt;Node12</title>
<path fill="none" stroke="midnightblue" d="M247.11,-57.51C250.29,-57 253.44,-56.49 256.5,-56 348.43,-41.25 457.07,-24.28 510.1,-16.03"/>
<polygon fill="midnightblue" stroke="midnightblue" points="510.9,-19.45 520.24,-14.45 509.82,-12.53 510.9,-19.45"/>
</g>
<!-- Node16 -->
<g id="node16" class="node">
<title>Node16</title>
<g id="a_node16"><a xlink:title=" ">
<polygon fill="white" stroke="#bfbfbf" points="133.5,-0.5 133.5,-19.5 189.5,-19.5 189.5,-0.5 133.5,-0.5"/>
<text text-anchor="middle" x="161.5" y="-7.5" font-family="Helvetica,sans-Serif" font-size="10.00">sstream</text>
</a>
</g>
</g>
<!-- Node15&#45;&gt;Node16 -->
<g id="edge15" class="edge">
<title>Node15&#45;&gt;Node16</title>
<path fill="none" stroke="midnightblue" d="M194.89,-56.08C189.24,-48.46 180.96,-37.26 174.05,-27.94"/>
<polygon fill="midnightblue" stroke="midnightblue" points="176.75,-25.7 167.98,-19.75 171.12,-29.87 176.75,-25.7"/>
</g>
<!-- Node17 -->
<g id="node17" class="node">
<title>Node17</title>
<g id="a_node17"><a xlink:title=" ">
<polygon fill="white" stroke="#bfbfbf" points="208,-0.5 208,-19.5 273,-19.5 273,-0.5 208,-0.5"/>
<text text-anchor="middle" x="240.5" y="-7.5" font-family="Helvetica,sans-Serif" font-size="10.00">stdexcept</text>
</a>
</g>
</g>
<!-- Node15&#45;&gt;Node17 -->
<g id="edge16" class="edge">
<title>Node15&#45;&gt;Node17</title>
<path fill="none" stroke="midnightblue" d="M207.94,-56.08C213.45,-48.46 221.53,-37.26 228.26,-27.94"/>
<polygon fill="midnightblue" stroke="midnightblue" points="231.16,-29.91 234.18,-19.75 225.49,-25.81 231.16,-29.91"/>
</g>
<!-- Node20&#45;&gt;Node9 -->
<g id="edge21" class="edge">
<title>Node20&#45;&gt;Node9</title>
<path fill="none" stroke="midnightblue" d="M1016.99,-224.3C999.93,-191.36 939.08,-73.9 915.72,-28.81"/>
<polygon fill="midnightblue" stroke="midnightblue" points="918.81,-27.15 911.1,-19.88 912.59,-30.37 918.81,-27.15"/>
</g>
<!-- Node21&#45;&gt;Node2 -->
<g id="edge38" class="edge">
<title>Node21&#45;&gt;Node2</title>
<path fill="none" stroke="midnightblue" d="M442.85,-280.45C403.4,-270.87 350.63,-257.51 304.5,-244 247.02,-227.16 181.09,-204.62 142.21,-190.99"/>
<polygon fill="midnightblue" stroke="midnightblue" points="143.06,-187.57 132.47,-187.56 140.74,-194.18 143.06,-187.57"/>
</g>
<!-- Node21&#45;&gt;Node3 -->
<g id="edge40" class="edge">
<title>Node21&#45;&gt;Node3</title>
<path fill="none" stroke="midnightblue" d="M503.97,-280.47C507.2,-249.7 514.9,-176.33 518.54,-141.7"/>
<polygon fill="midnightblue" stroke="midnightblue" points="522.04,-141.87 519.6,-131.56 515.08,-141.14 522.04,-141.87"/>
</g>
<!-- Node21&#45;&gt;Node9 -->
<g id="edge42" class="edge">
<title>Node21&#45;&gt;Node9</title>
<path fill="none" stroke="midnightblue" d="M587.17,-286.46C701.33,-273.22 890.5,-241.81 890.5,-179 890.5,-179 890.5,-179 890.5,-121 890.5,-88.63 897.37,-51.44 902.11,-29.66"/>
<polygon fill="midnightblue" stroke="midnightblue" points="905.55,-30.3 904.34,-19.78 898.72,-28.76 905.55,-30.3"/>
</g>
<!-- Node21&#45;&gt;Node12 -->
<g id="edge43" class="edge">
<title>Node21&#45;&gt;Node12</title>
<path fill="none" stroke="midnightblue" d="M560.32,-280.37C608.91,-264.63 670.5,-233.86 670.5,-179 670.5,-179 670.5,-179 670.5,-121 670.5,-90.9 671.61,-78.39 651.5,-56 640.84,-44.13 602.76,-30.03 574.59,-20.82"/>
<polygon fill="midnightblue" stroke="midnightblue" points="575.33,-17.38 564.74,-17.66 573.19,-24.05 575.33,-17.38"/>
</g>
<!-- Node21&#45;&gt;Node14 -->
<g id="edge44" class="edge">
<title>Node21&#45;&gt;Node14</title>
<path fill="none" stroke="midnightblue" d="M587.23,-283.68C690.81,-268.02 852.5,-234.67 852.5,-179 852.5,-179 852.5,-179 852.5,-121 852.5,-88.58 845.2,-51.42 840.17,-29.64"/>
<polygon fill="midnightblue" stroke="midnightblue" points="843.53,-28.67 837.79,-19.77 836.73,-30.31 843.53,-28.67"/>
</g>
<!-- Node22 -->
<g id="node22" class="node">
<title>Node22</title>
<g id="a_node22"><a xlink:href="_i_tensor_handle_8hpp.html" target="_top" xlink:title=" ">
<polygon fill="white" stroke="black" points="336,-224.5 336,-243.5 443,-243.5 443,-224.5 336,-224.5"/>
<text text-anchor="middle" x="389.5" y="-231.5" font-family="Helvetica,sans-Serif" font-size="10.00">ITensorHandle.hpp</text>
</a>
</g>
</g>
<!-- Node21&#45;&gt;Node22 -->
<g id="edge23" class="edge">
<title>Node21&#45;&gt;Node22</title>
<path fill="none" stroke="midnightblue" d="M475.72,-280.4C457.44,-270.77 433.35,-258.09 415.29,-248.58"/>
<polygon fill="midnightblue" stroke="midnightblue" points="416.42,-245.22 405.94,-243.66 413.16,-251.41 416.42,-245.22"/>
</g>
<!-- Node23 -->
<g id="node23" class="node">
<title>Node23</title>
<g id="a_node23"><a xlink:href="_ignore_unused_8hpp.html" target="_top" xlink:title=" ">
<polygon fill="white" stroke="black" points="202,-168.5 202,-187.5 373,-187.5 373,-168.5 202,-168.5"/>
<text text-anchor="middle" x="287.5" y="-175.5" font-family="Helvetica,sans-Serif" font-size="10.00">armnn/utility/IgnoreUnused.hpp</text>
</a>
</g>
</g>
<!-- Node21&#45;&gt;Node23 -->
<g id="edge41" class="edge">
<title>Node21&#45;&gt;Node23</title>
<path fill="none" stroke="midnightblue" d="M417.92,-283.18C387.15,-275.85 353.55,-263.81 327.5,-244 311.71,-232 300.71,-211.81 294.3,-197.11"/>
<polygon fill="midnightblue" stroke="midnightblue" points="297.43,-195.53 290.44,-187.58 290.95,-198.16 297.43,-195.53"/>
</g>
<!-- Node24 -->
<g id="node24" class="node">
<title>Node24</title>
<g id="a_node24"><a xlink:href="_tensor_8hpp.html" target="_top" xlink:title=" ">
<polygon fill="white" stroke="black" points="391,-168.5 391,-187.5 494,-187.5 494,-168.5 391,-168.5"/>
<text text-anchor="middle" x="442.5" y="-175.5" font-family="Helvetica,sans-Serif" font-size="10.00">armnn/Tensor.hpp</text>
</a>
</g>
</g>
<!-- Node21&#45;&gt;Node24 -->
<g id="edge39" class="edge">
<title>Node21&#45;&gt;Node24</title>
<path fill="none" stroke="midnightblue" d="M495.14,-280.34C484.18,-259.24 463.59,-219.6 451.67,-196.65"/>
<polygon fill="midnightblue" stroke="midnightblue" points="454.72,-194.93 447,-187.67 448.51,-198.16 454.72,-194.93"/>
</g>
<!-- Node22&#45;&gt;Node2 -->
<g id="edge24" class="edge">
<title>Node22&#45;&gt;Node2</title>
<path fill="none" stroke="midnightblue" d="M344.97,-224.44C295.54,-214.94 215.75,-199.61 162.72,-189.42"/>
<polygon fill="midnightblue" stroke="midnightblue" points="163.3,-185.97 152.82,-187.52 161.98,-192.84 163.3,-185.97"/>
</g>
<!-- Node22&#45;&gt;Node23 -->
<g id="edge25" class="edge">
<title>Node22&#45;&gt;Node23</title>
<path fill="none" stroke="midnightblue" d="M373.11,-224.32C356.83,-215.7 331.63,-202.36 312.78,-192.39"/>
<polygon fill="midnightblue" stroke="midnightblue" points="314.32,-189.24 303.85,-187.65 311.05,-195.43 314.32,-189.24"/>
</g>
<!-- Node22&#45;&gt;Node24 -->
<g id="edge26" class="edge">
<title>Node22&#45;&gt;Node24</title>
<path fill="none" stroke="midnightblue" d="M398.25,-224.08C405.97,-216.22 417.4,-204.57 426.72,-195.08"/>
<polygon fill="midnightblue" stroke="midnightblue" points="429.4,-197.34 433.91,-187.75 424.41,-192.44 429.4,-197.34"/>
</g>
<!-- Node24&#45;&gt;Node3 -->
<g id="edge32" class="edge">
<title>Node24&#45;&gt;Node3</title>
<path fill="none" stroke="midnightblue" d="M455.03,-168.32C467.09,-159.98 485.53,-147.21 499.77,-137.35"/>
<polygon fill="midnightblue" stroke="midnightblue" points="501.77,-140.22 508,-131.65 497.78,-134.47 501.77,-140.22"/>
</g>
<!-- Node24&#45;&gt;Node4 -->
<g id="edge34" class="edge">
<title>Node24&#45;&gt;Node4</title>
<path fill="none" stroke="midnightblue" d="M394.78,-168.47C343.15,-158.75 267,-142.83 258.5,-132 247.07,-117.43 258.8,-97.49 270.39,-83.55"/>
<polygon fill="midnightblue" stroke="midnightblue" points="273.31,-85.53 277.37,-75.74 268.09,-80.86 273.31,-85.53"/>
</g>
<!-- Node24&#45;&gt;Node6 -->
<g id="edge33" class="edge">
<title>Node24&#45;&gt;Node6</title>
<path fill="none" stroke="midnightblue" d="M441.88,-168.13C440.54,-154.74 436.37,-129.1 423.5,-112 413.06,-98.13 397,-87.43 382.79,-79.96"/>
<polygon fill="midnightblue" stroke="midnightblue" points="384.31,-76.81 373.79,-75.51 381.2,-83.08 384.31,-76.81"/>
</g>
<!-- Node24&#45;&gt;Node14 -->
<g id="edge36" class="edge">
<title>Node24&#45;&gt;Node14</title>
<path fill="none" stroke="midnightblue" d="M494.11,-173.83C567.85,-166.92 704.46,-145.05 795.5,-76 811.3,-64.02 822.3,-43.83 828.71,-29.12"/>
<polygon fill="midnightblue" stroke="midnightblue" points="832.06,-30.16 832.57,-19.58 825.57,-27.54 832.06,-30.16"/>
</g>
<!-- Node24&#45;&gt;Node15 -->
<g id="edge27" class="edge">
<title>Node24&#45;&gt;Node15</title>
<path fill="none" stroke="midnightblue" d="M390.97,-168.99C342.28,-160.71 273.38,-146.91 250.5,-132 232.61,-120.34 218.76,-99.79 210.42,-84.92"/>
<polygon fill="midnightblue" stroke="midnightblue" points="213.32,-82.9 205.55,-75.7 207.13,-86.18 213.32,-82.9"/>
</g>
<!-- Node25 -->
<g id="node25" class="node">
<title>Node25</title>
<g id="a_node25"><a xlink:href="_optional_8hpp.html" target="_top" xlink:title=" ">
<polygon fill="white" stroke="black" points="86,-112.5 86,-131.5 165,-131.5 165,-112.5 86,-112.5"/>
<text text-anchor="middle" x="125.5" y="-119.5" font-family="Helvetica,sans-Serif" font-size="10.00">Optional.hpp</text>
</a>
</g>
</g>
<!-- Node24&#45;&gt;Node25 -->
<g id="edge28" class="edge">
<title>Node24&#45;&gt;Node25</title>
<path fill="none" stroke="midnightblue" d="M392.27,-168.44C332.86,-158.32 234.57,-141.58 175.33,-131.49"/>
<polygon fill="midnightblue" stroke="midnightblue" points="175.9,-128.04 165.46,-129.81 174.73,-134.94 175.9,-128.04"/>
</g>
<!-- Node27 -->
<g id="node27" class="node">
<title>Node27</title>
<g id="a_node27"><a xlink:title=" ">
<polygon fill="white" stroke="#bfbfbf" points="268,-112.5 268,-131.5 351,-131.5 351,-112.5 268,-112.5"/>
<text text-anchor="middle" x="309.5" y="-119.5" font-family="Helvetica,sans-Serif" font-size="10.00">initializer_list</text>
</a>
</g>
</g>
<!-- Node24&#45;&gt;Node27 -->
<g id="edge35" class="edge">
<title>Node24&#45;&gt;Node27</title>
<path fill="none" stroke="midnightblue" d="M421.43,-168.44C399.44,-159.52 364.77,-145.44 339.84,-135.32"/>
<polygon fill="midnightblue" stroke="midnightblue" points="341.06,-132.04 330.48,-131.52 338.42,-138.52 341.06,-132.04"/>
</g>
<!-- Node28 -->
<g id="node28" class="node">
<title>Node28</title>
<g id="a_node28"><a xlink:title=" ">
<polygon fill="white" stroke="#bfbfbf" points="369,-112.5 369,-131.5 414,-131.5 414,-112.5 369,-112.5"/>
<text text-anchor="middle" x="391.5" y="-119.5" font-family="Helvetica,sans-Serif" font-size="10.00">utility</text>
</a>
</g>
</g>
<!-- Node24&#45;&gt;Node28 -->
<g id="edge37" class="edge">
<title>Node24&#45;&gt;Node28</title>
<path fill="none" stroke="midnightblue" d="M434.08,-168.08C426.65,-160.22 415.65,-148.57 406.69,-139.08"/>
<polygon fill="midnightblue" stroke="midnightblue" points="409.18,-136.62 399.76,-131.75 404.09,-141.42 409.18,-136.62"/>
</g>
<!-- Node25&#45;&gt;Node15 -->
<g id="edge29" class="edge">
<title>Node25&#45;&gt;Node15</title>
<path fill="none" stroke="midnightblue" d="M137.71,-112.32C149.28,-104.11 166.88,-91.6 180.66,-81.81"/>
<polygon fill="midnightblue" stroke="midnightblue" points="182.94,-84.48 189.07,-75.83 178.89,-78.77 182.94,-84.48"/>
</g>
<!-- Node25&#45;&gt;Node19 -->
<g id="edge31" class="edge">
<title>Node25&#45;&gt;Node19</title>
<path fill="none" stroke="midnightblue" d="M110.88,-112.32C96.55,-103.82 74.49,-90.73 57.75,-80.8"/>
<polygon fill="midnightblue" stroke="midnightblue" points="59.47,-77.75 49.08,-75.65 55.9,-83.77 59.47,-77.75"/>
</g>
<!-- Node26 -->
<g id="node26" class="node">
<title>Node26</title>
<g id="a_node26"><a xlink:title=" ">
<polygon fill="white" stroke="#bfbfbf" points="87.5,-56.5 87.5,-75.5 137.5,-75.5 137.5,-56.5 87.5,-56.5"/>
<text text-anchor="middle" x="112.5" y="-63.5" font-family="Helvetica,sans-Serif" font-size="10.00">cstring</text>
</a>
</g>
</g>
<!-- Node25&#45;&gt;Node26 -->
<g id="edge30" class="edge">
<title>Node25&#45;&gt;Node26</title>
<path fill="none" stroke="midnightblue" d="M123.35,-112.08C121.63,-104.93 119.15,-94.64 117,-85.69"/>
<polygon fill="midnightblue" stroke="midnightblue" points="120.35,-84.65 114.61,-75.75 113.54,-86.29 120.35,-84.65"/>
</g>
</g>
</svg>
