<?xml version="1.0" encoding="UTF-8" standalone="no"?>
<!DOCTYPE svg PUBLIC "-//W3C//DTD SVG 1.1//EN"
 "http://www.w3.org/Graphics/SVG/1.1/DTD/svg11.dtd">
<!-- Generated by graphviz version 2.43.0 (0)
 -->
<!-- Title: src/backends/cl/workloads/ClSubtractionWorkload.hpp Pages: 1 -->
<svg width="714pt" height="173pt"
 viewBox="0.00 0.00 714.00 173.00" xmlns="http://www.w3.org/2000/svg" xmlns:xlink="http://www.w3.org/1999/xlink">
<g id="graph0" class="graph" transform="scale(1 1) rotate(0) translate(4 169)">
<title>src/backends/cl/workloads/ClSubtractionWorkload.hpp</title>
<polygon fill="white" stroke="transparent" points="-4,4 -4,-169 710,-169 710,4 -4,4"/>
<!-- Node1 -->
<g id="node1" class="node">
<title>Node1</title>
<g id="a_node1"><a xlink:title=" ">
<polygon fill="#bfbfbf" stroke="black" points="295.5,-134.5 295.5,-164.5 447.5,-164.5 447.5,-134.5 295.5,-134.5"/>
<text text-anchor="start" x="303.5" y="-152.5" font-family="Helvetica,sans-Serif" font-size="10.00">src/backends/cl/workloads</text>
<text text-anchor="middle" x="371.5" y="-141.5" font-family="Helvetica,sans-Serif" font-size="10.00">/ClSubtractionWorkload.hpp</text>
</a>
</g>
</g>
<!-- Node2 -->
<g id="node2" class="node">
<title>Node2</title>
<g id="a_node2"><a xlink:href="_cl_backend_8cpp.html" target="_top" xlink:title=" ">
<polygon fill="white" stroke="black" points="0,-73 0,-92 165,-92 165,-73 0,-73"/>
<text text-anchor="middle" x="82.5" y="-80" font-family="Helvetica,sans-Serif" font-size="10.00">src/backends/cl/ClBackend.cpp</text>
</a>
</g>
</g>
<!-- Node1&#45;&gt;Node2 -->
<g id="edge1" class="edge">
<title>Node1&#45;&gt;Node2</title>
<path fill="none" stroke="midnightblue" d="M299.15,-132.23C242.41,-119.47 165.69,-102.21 120.42,-92.03"/>
<polygon fill="midnightblue" stroke="midnightblue" points="298.62,-135.7 309.15,-134.48 300.16,-128.87 298.62,-135.7"/>
</g>
<!-- Node3 -->
<g id="node3" class="node">
<title>Node3</title>
<g id="a_node3"><a xlink:href="_cl_layer_support_8cpp.html" target="_top" xlink:title=" ">
<polygon fill="white" stroke="black" points="183.5,-73 183.5,-92 371.5,-92 371.5,-73 183.5,-73"/>
<text text-anchor="middle" x="277.5" y="-80" font-family="Helvetica,sans-Serif" font-size="10.00">src/backends/cl/ClLayerSupport.cpp</text>
</a>
</g>
</g>
<!-- Node1&#45;&gt;Node3 -->
<g id="edge2" class="edge">
<title>Node1&#45;&gt;Node3</title>
<path fill="none" stroke="midnightblue" d="M342.78,-128.64C325.04,-116.37 303.19,-101.26 289.8,-92.01"/>
<polygon fill="midnightblue" stroke="midnightblue" points="340.89,-131.59 351.1,-134.4 344.87,-125.83 340.89,-131.59"/>
</g>
<!-- Node4 -->
<g id="node4" class="node">
<title>Node4</title>
<g id="a_node4"><a xlink:href="_cl_subtraction_workload_8cpp.html" target="_top" xlink:title=" ">
<polygon fill="white" stroke="black" points="390,-67.5 390,-97.5 541,-97.5 541,-67.5 390,-67.5"/>
<text text-anchor="start" x="398" y="-85.5" font-family="Helvetica,sans-Serif" font-size="10.00">src/backends/cl/workloads</text>
<text text-anchor="middle" x="465.5" y="-74.5" font-family="Helvetica,sans-Serif" font-size="10.00">/ClSubtractionWorkload.cpp</text>
</a>
</g>
</g>
<!-- Node1&#45;&gt;Node4 -->
<g id="edge3" class="edge">
<title>Node1&#45;&gt;Node4</title>
<path fill="none" stroke="midnightblue" d="M400.49,-128.45C414.95,-118.45 432.09,-106.6 445.14,-97.58"/>
<polygon fill="midnightblue" stroke="midnightblue" points="398.13,-125.83 391.9,-134.4 402.11,-131.59 398.13,-125.83"/>
</g>
<!-- Node5 -->
<g id="node5" class="node">
<title>Node5</title>
<g id="a_node5"><a xlink:href="_cl_workloads_8hpp.html" target="_top" xlink:title=" ">
<polygon fill="white" stroke="black" points="559.5,-67.5 559.5,-97.5 703.5,-97.5 703.5,-67.5 559.5,-67.5"/>
<text text-anchor="start" x="567.5" y="-85.5" font-family="Helvetica,sans-Serif" font-size="10.00">src/backends/cl/workloads</text>
<text text-anchor="middle" x="631.5" y="-74.5" font-family="Helvetica,sans-Serif" font-size="10.00">/ClWorkloads.hpp</text>
</a>
</g>
</g>
<!-- Node1&#45;&gt;Node5 -->
<g id="edge4" class="edge">
<title>Node1&#45;&gt;Node5</title>
<path fill="none" stroke="midnightblue" d="M437.56,-131.98C480.03,-121.37 534.62,-107.72 575.06,-97.61"/>
<polygon fill="midnightblue" stroke="midnightblue" points="436.45,-128.66 427.6,-134.48 438.15,-135.45 436.45,-128.66"/>
</g>
<!-- Node6 -->
<g id="node6" class="node">
<title>Node6</title>
<g id="a_node6"><a xlink:href="_cl_workload_factory_8cpp.html" target="_top" xlink:title=" ">
<polygon fill="white" stroke="black" points="557,-0.5 557,-30.5 706,-30.5 706,-0.5 557,-0.5"/>
<text text-anchor="start" x="565" y="-18.5" font-family="Helvetica,sans-Serif" font-size="10.00">src/backends/cl/ClWorkload</text>
<text text-anchor="middle" x="631.5" y="-7.5" font-family="Helvetica,sans-Serif" font-size="10.00">Factory.cpp</text>
</a>
</g>
</g>
<!-- Node5&#45;&gt;Node6 -->
<g id="edge5" class="edge">
<title>Node5&#45;&gt;Node6</title>
<path fill="none" stroke="midnightblue" d="M631.5,-57.11C631.5,-48.15 631.5,-38.32 631.5,-30.58"/>
<polygon fill="midnightblue" stroke="midnightblue" points="628,-57.4 631.5,-67.4 635,-57.4 628,-57.4"/>
</g>
</g>
</svg>
