<?xml version="1.0" encoding="UTF-8" standalone="no"?>
<!DOCTYPE svg PUBLIC "-//W3C//DTD SVG 1.1//EN"
 "http://www.w3.org/Graphics/SVG/1.1/DTD/svg11.dtd">
<!-- Generated by graphviz version 2.43.0 (0)
 -->
<!-- Title: src/backends/tosaCommon/operatorMappings/FullyConnectedOperator.hpp Pages: 1 -->
<svg width="548pt" height="262pt"
 viewBox="0.00 0.00 547.50 262.00" xmlns="http://www.w3.org/2000/svg" xmlns:xlink="http://www.w3.org/1999/xlink">
<g id="graph0" class="graph" transform="scale(1 1) rotate(0) translate(4 258)">
<title>src/backends/tosaCommon/operatorMappings/FullyConnectedOperator.hpp</title>
<polygon fill="white" stroke="transparent" points="-4,4 -4,-258 543.5,-258 543.5,4 -4,4"/>
<!-- Node1 -->
<g id="node1" class="node">
<title>Node1</title>
<g id="a_node1"><a xlink:title=" ">
<polygon fill="#bfbfbf" stroke="black" points="99,-212.5 99,-253.5 285,-253.5 285,-212.5 99,-212.5"/>
<text text-anchor="start" x="107" y="-241.5" font-family="Helvetica,sans-Serif" font-size="10.00">src/backends/tosaCommon</text>
<text text-anchor="start" x="107" y="-230.5" font-family="Helvetica,sans-Serif" font-size="10.00">/operatorMappings/FullyConnected</text>
<text text-anchor="middle" x="192" y="-219.5" font-family="Helvetica,sans-Serif" font-size="10.00">Operator.hpp</text>
</a>
</g>
</g>
<!-- Node2 -->
<g id="node2" class="node">
<title>Node2</title>
<g id="a_node2"><a xlink:href="_fully_connected_operator_8cpp.html" target="_top" xlink:title=" ">
<polygon fill="white" stroke="black" points="0,-134.5 0,-175.5 186,-175.5 186,-134.5 0,-134.5"/>
<text text-anchor="start" x="8" y="-163.5" font-family="Helvetica,sans-Serif" font-size="10.00">src/backends/tosaCommon</text>
<text text-anchor="start" x="8" y="-152.5" font-family="Helvetica,sans-Serif" font-size="10.00">/operatorMappings/FullyConnected</text>
<text text-anchor="middle" x="93" y="-141.5" font-family="Helvetica,sans-Serif" font-size="10.00">Operator.cpp</text>
</a>
</g>
</g>
<!-- Node1&#45;&gt;Node2 -->
<g id="edge1" class="edge">
<title>Node1&#45;&gt;Node2</title>
<path fill="none" stroke="midnightblue" d="M158.22,-206.06C145.18,-196.06 130.52,-184.8 118.41,-175.51"/>
<polygon fill="midnightblue" stroke="midnightblue" points="156.44,-209.11 166.51,-212.43 160.7,-203.56 156.44,-209.11"/>
</g>
<!-- Node3 -->
<g id="node3" class="node">
<title>Node3</title>
<g id="a_node3"><a xlink:href="_tosa_common_operators_8hpp.html" target="_top" xlink:title=" ">
<polygon fill="white" stroke="black" points="203.5,-134.5 203.5,-175.5 380.5,-175.5 380.5,-134.5 203.5,-134.5"/>
<text text-anchor="start" x="211.5" y="-163.5" font-family="Helvetica,sans-Serif" font-size="10.00">src/backends/tosaCommon</text>
<text text-anchor="start" x="211.5" y="-152.5" font-family="Helvetica,sans-Serif" font-size="10.00">/operatorMappings/TosaCommon</text>
<text text-anchor="middle" x="292" y="-141.5" font-family="Helvetica,sans-Serif" font-size="10.00">Operators.hpp</text>
</a>
</g>
</g>
<!-- Node1&#45;&gt;Node3 -->
<g id="edge2" class="edge">
<title>Node1&#45;&gt;Node3</title>
<path fill="none" stroke="midnightblue" d="M225.75,-206.35C239.01,-196.27 253.98,-184.89 266.33,-175.51"/>
<polygon fill="midnightblue" stroke="midnightblue" points="223.6,-203.59 217.75,-212.43 227.83,-209.16 223.6,-203.59"/>
</g>
<!-- Node4 -->
<g id="node4" class="node">
<title>Node4</title>
<g id="a_node4"><a xlink:href="_tosa_mappings_8hpp.html" target="_top" xlink:title=" ">
<polygon fill="white" stroke="black" points="218,-67.5 218,-97.5 366,-97.5 366,-67.5 218,-67.5"/>
<text text-anchor="start" x="226" y="-85.5" font-family="Helvetica,sans-Serif" font-size="10.00">src/backends/tosaCommon</text>
<text text-anchor="middle" x="292" y="-74.5" font-family="Helvetica,sans-Serif" font-size="10.00">/TosaMappings.hpp</text>
</a>
</g>
</g>
<!-- Node3&#45;&gt;Node4 -->
<g id="edge3" class="edge">
<title>Node3&#45;&gt;Node4</title>
<path fill="none" stroke="midnightblue" d="M292,-124.08C292,-115.01 292,-105.45 292,-97.89"/>
<polygon fill="midnightblue" stroke="midnightblue" points="288.5,-124.36 292,-134.36 295.5,-124.36 288.5,-124.36"/>
</g>
<!-- Node5 -->
<g id="node5" class="node">
<title>Node5</title>
<g id="a_node5"><a xlink:href="_tosa_mappings_8cpp.html" target="_top" xlink:title=" ">
<polygon fill="white" stroke="black" points="49,-0.5 49,-30.5 197,-30.5 197,-0.5 49,-0.5"/>
<text text-anchor="start" x="57" y="-18.5" font-family="Helvetica,sans-Serif" font-size="10.00">src/backends/tosaCommon</text>
<text text-anchor="middle" x="123" y="-7.5" font-family="Helvetica,sans-Serif" font-size="10.00">/TosaMappings.cpp</text>
</a>
</g>
</g>
<!-- Node4&#45;&gt;Node5 -->
<g id="edge4" class="edge">
<title>Node4&#45;&gt;Node5</title>
<path fill="none" stroke="midnightblue" d="M245.67,-63.68C218.57,-53.26 184.83,-40.28 159.6,-30.58"/>
<polygon fill="midnightblue" stroke="midnightblue" points="244.74,-67.07 255.33,-67.4 247.25,-60.54 244.74,-67.07"/>
</g>
<!-- Node6 -->
<g id="node6" class="node">
<title>Node6</title>
<g id="a_node6"><a xlink:href="_tosa_ref_backend_8cpp.html" target="_top" xlink:title=" ">
<polygon fill="white" stroke="black" points="215.5,-0.5 215.5,-30.5 368.5,-30.5 368.5,-0.5 215.5,-0.5"/>
<text text-anchor="start" x="223.5" y="-18.5" font-family="Helvetica,sans-Serif" font-size="10.00">src/backends/tosaReference</text>
<text text-anchor="middle" x="292" y="-7.5" font-family="Helvetica,sans-Serif" font-size="10.00">/TosaRefBackend.cpp</text>
</a>
</g>
</g>
<!-- Node4&#45;&gt;Node6 -->
<g id="edge5" class="edge">
<title>Node4&#45;&gt;Node6</title>
<path fill="none" stroke="midnightblue" d="M292,-57.11C292,-48.15 292,-38.32 292,-30.58"/>
<polygon fill="midnightblue" stroke="midnightblue" points="288.5,-57.4 292,-67.4 295.5,-57.4 288.5,-57.4"/>
</g>
<!-- Node7 -->
<g id="node7" class="node">
<title>Node7</title>
<g id="a_node7"><a xlink:href="_tosa_ref_layer_support_8cpp.html" target="_top" xlink:title=" ">
<polygon fill="white" stroke="black" points="386.5,-0.5 386.5,-30.5 539.5,-30.5 539.5,-0.5 386.5,-0.5"/>
<text text-anchor="start" x="394.5" y="-18.5" font-family="Helvetica,sans-Serif" font-size="10.00">src/backends/tosaReference</text>
<text text-anchor="middle" x="463" y="-7.5" font-family="Helvetica,sans-Serif" font-size="10.00">/TosaRefLayerSupport.cpp</text>
</a>
</g>
</g>
<!-- Node4&#45;&gt;Node7 -->
<g id="edge6" class="edge">
<title>Node4&#45;&gt;Node7</title>
<path fill="none" stroke="midnightblue" d="M338.52,-63.82C366,-53.37 400.33,-40.32 425.97,-30.58"/>
<polygon fill="midnightblue" stroke="midnightblue" points="337.21,-60.57 329.1,-67.4 339.7,-67.11 337.21,-60.57"/>
</g>
</g>
</svg>
