<?xml version="1.0" encoding="UTF-8" standalone="no"?>
<!DOCTYPE svg PUBLIC "-//W3C//DTD SVG 1.1//EN"
 "http://www.w3.org/Graphics/SVG/1.1/DTD/svg11.dtd">
<!-- Generated by graphviz version 2.43.0 (0)
 -->
<!-- Title: src/armnn/NetworkUtils.hpp Pages: 1 -->
<svg width="1154pt" height="296pt"
 viewBox="0.00 0.00 1153.50 296.00" xmlns="http://www.w3.org/2000/svg" xmlns:xlink="http://www.w3.org/1999/xlink">
<g id="graph0" class="graph" transform="scale(1 1) rotate(0) translate(4 292)">
<title>src/armnn/NetworkUtils.hpp</title>
<polygon fill="white" stroke="transparent" points="-4,4 -4,-292 1149.5,-292 1149.5,4 -4,4"/>
<!-- Node1 -->
<g id="node1" class="node">
<title>Node1</title>
<g id="a_node1"><a xlink:title=" ">
<polygon fill="#bfbfbf" stroke="black" points="514,-268.5 514,-287.5 667,-287.5 667,-268.5 514,-268.5"/>
<text text-anchor="middle" x="590.5" y="-275.5" font-family="Helvetica,sans-Serif" font-size="10.00">src/armnn/NetworkUtils.hpp</text>
</a>
</g>
</g>
<!-- Node2 -->
<g id="node2" class="node">
<title>Node2</title>
<g id="a_node2"><a xlink:href="_add_debug_8hpp.html" target="_top" xlink:title=" ">
<polygon fill="white" stroke="black" points="432,-196 432,-226 567,-226 567,-196 432,-196"/>
<text text-anchor="start" x="440" y="-214" font-family="Helvetica,sans-Serif" font-size="10.00">src/armnn/optimizations</text>
<text text-anchor="middle" x="499.5" y="-203" font-family="Helvetica,sans-Serif" font-size="10.00">/AddDebug.hpp</text>
</a>
</g>
</g>
<!-- Node1&#45;&gt;Node2 -->
<g id="edge1" class="edge">
<title>Node1&#45;&gt;Node2</title>
<path fill="none" stroke="midnightblue" d="M569.99,-262.35C554.8,-251.5 534.22,-236.8 519.22,-226.09"/>
<polygon fill="midnightblue" stroke="midnightblue" points="568.06,-265.27 578.23,-268.23 572.12,-259.57 568.06,-265.27"/>
</g>
<!-- Node10 -->
<g id="node10" class="node">
<title>Node10</title>
<g id="a_node10"><a xlink:href="_convert_const_dequantisation_layers_to_const_layers_8hpp.html" target="_top" xlink:title=" ">
<polygon fill="white" stroke="black" points="585.5,-190.5 585.5,-231.5 777.5,-231.5 777.5,-190.5 585.5,-190.5"/>
<text text-anchor="start" x="593.5" y="-219.5" font-family="Helvetica,sans-Serif" font-size="10.00">src/armnn/optimizations</text>
<text text-anchor="start" x="593.5" y="-208.5" font-family="Helvetica,sans-Serif" font-size="10.00">/ConvertConstDequantisationLayers</text>
<text text-anchor="middle" x="681.5" y="-197.5" font-family="Helvetica,sans-Serif" font-size="10.00">ToConstLayers.hpp</text>
</a>
</g>
</g>
<!-- Node1&#45;&gt;Node10 -->
<g id="edge11" class="edge">
<title>Node1&#45;&gt;Node10</title>
<path fill="none" stroke="midnightblue" d="M610.91,-262.42C623.67,-253.31 640.25,-241.46 654.14,-231.54"/>
<polygon fill="midnightblue" stroke="midnightblue" points="608.88,-259.57 602.77,-268.23 612.94,-265.27 608.88,-259.57"/>
</g>
<!-- Node11 -->
<g id="node11" class="node">
<title>Node11</title>
<g id="a_node11"><a xlink:href="_convert_fp32_network_to_fp16_8hpp.html" target="_top" xlink:title=" ">
<polygon fill="white" stroke="black" points="796,-196 796,-226 975,-226 975,-196 796,-196"/>
<text text-anchor="start" x="804" y="-214" font-family="Helvetica,sans-Serif" font-size="10.00">src/armnn/optimizations</text>
<text text-anchor="middle" x="885.5" y="-203" font-family="Helvetica,sans-Serif" font-size="10.00">/ConvertFp32NetworkToFp16.hpp</text>
</a>
</g>
</g>
<!-- Node1&#45;&gt;Node11 -->
<g id="edge13" class="edge">
<title>Node1&#45;&gt;Node11</title>
<path fill="none" stroke="midnightblue" d="M639.27,-266.25C689.16,-255.26 766.93,-238.13 821.69,-226.06"/>
<polygon fill="midnightblue" stroke="midnightblue" points="638.38,-262.87 629.37,-268.44 639.89,-269.7 638.38,-262.87"/>
</g>
<!-- Node12 -->
<g id="node12" class="node">
<title>Node12</title>
<g id="a_node12"><a xlink:href="_permute_depthwise_conv2d_weights_8hpp.html" target="_top" xlink:title=" ">
<polygon fill="white" stroke="black" points="0,-196 0,-226 209,-226 209,-196 0,-196"/>
<text text-anchor="start" x="8" y="-214" font-family="Helvetica,sans-Serif" font-size="10.00">src/armnn/optimizations</text>
<text text-anchor="middle" x="104.5" y="-203" font-family="Helvetica,sans-Serif" font-size="10.00">/PermuteDepthwiseConv2dWeights.hpp</text>
</a>
</g>
</g>
<!-- Node1&#45;&gt;Node12 -->
<g id="edge15" class="edge">
<title>Node1&#45;&gt;Node12</title>
<path fill="none" stroke="midnightblue" d="M503.81,-267.84C428.3,-259.54 315.96,-246.43 218.5,-232 206.37,-230.2 193.56,-228.13 181.06,-226.01"/>
<polygon fill="midnightblue" stroke="midnightblue" points="503.43,-271.32 513.75,-268.92 504.19,-264.36 503.43,-271.32"/>
</g>
<!-- Node13 -->
<g id="node13" class="node">
<title>Node13</title>
<g id="a_node13"><a xlink:href="_turbo_convert_const_dequantisation_layers_to_const_layers_8hpp.html" target="_top" xlink:title=" ">
<polygon fill="white" stroke="black" points="227.5,-190.5 227.5,-231.5 413.5,-231.5 413.5,-190.5 227.5,-190.5"/>
<text text-anchor="start" x="235.5" y="-219.5" font-family="Helvetica,sans-Serif" font-size="10.00">src/armnn/optimizations</text>
<text text-anchor="start" x="235.5" y="-208.5" font-family="Helvetica,sans-Serif" font-size="10.00">/TurboConvertConstDequantisation</text>
<text text-anchor="middle" x="320.5" y="-197.5" font-family="Helvetica,sans-Serif" font-size="10.00">LayersToConstLayers.hpp</text>
</a>
</g>
</g>
<!-- Node1&#45;&gt;Node13 -->
<g id="edge17" class="edge">
<title>Node1&#45;&gt;Node13</title>
<path fill="none" stroke="midnightblue" d="M545.15,-266.08C506.04,-256.67 448.63,-242.85 401.63,-231.53"/>
<polygon fill="midnightblue" stroke="midnightblue" points="544.38,-269.5 554.92,-268.44 546.02,-262.69 544.38,-269.5"/>
</g>
<!-- Node14 -->
<g id="node14" class="node">
<title>Node14</title>
<g id="a_node14"><a xlink:href="_network_utils_8cpp.html" target="_top" xlink:title=" ">
<polygon fill="white" stroke="black" points="993.5,-201.5 993.5,-220.5 1145.5,-220.5 1145.5,-201.5 993.5,-201.5"/>
<text text-anchor="middle" x="1069.5" y="-208.5" font-family="Helvetica,sans-Serif" font-size="10.00">src/armnn/NetworkUtils.cpp</text>
</a>
</g>
</g>
<!-- Node1&#45;&gt;Node14 -->
<g id="edge19" class="edge">
<title>Node1&#45;&gt;Node14</title>
<path fill="none" stroke="midnightblue" d="M677.19,-270.05C757.3,-262.92 879.45,-250.29 984.5,-232 1001.97,-228.96 1021.23,-224.52 1036.99,-220.59"/>
<polygon fill="midnightblue" stroke="midnightblue" points="676.8,-266.57 667.15,-270.93 677.42,-273.54 676.8,-266.57"/>
</g>
<!-- Node3 -->
<g id="node3" class="node">
<title>Node3</title>
<g id="a_node3"><a xlink:href="_all_8hpp.html" target="_top" xlink:title=" ">
<polygon fill="white" stroke="black" points="432,-123.5 432,-153.5 567,-153.5 567,-123.5 432,-123.5"/>
<text text-anchor="start" x="440" y="-141.5" font-family="Helvetica,sans-Serif" font-size="10.00">src/armnn/optimizations</text>
<text text-anchor="middle" x="499.5" y="-130.5" font-family="Helvetica,sans-Serif" font-size="10.00">/All.hpp</text>
</a>
</g>
</g>
<!-- Node2&#45;&gt;Node3 -->
<g id="edge2" class="edge">
<title>Node2&#45;&gt;Node3</title>
<path fill="none" stroke="midnightblue" d="M499.5,-185.73C499.5,-175.07 499.5,-162.91 499.5,-153.75"/>
<polygon fill="midnightblue" stroke="midnightblue" points="496,-185.73 499.5,-195.73 503,-185.73 496,-185.73"/>
</g>
<!-- Node4 -->
<g id="node4" class="node">
<title>Node4</title>
<g id="a_node4"><a xlink:href="_optimizer_8hpp.html" target="_top" xlink:title=" ">
<polygon fill="white" stroke="black" points="564,-67.5 564,-86.5 701,-86.5 701,-67.5 564,-67.5"/>
<text text-anchor="middle" x="632.5" y="-74.5" font-family="Helvetica,sans-Serif" font-size="10.00">src/armnn/Optimizer.hpp</text>
</a>
</g>
</g>
<!-- Node3&#45;&gt;Node4 -->
<g id="edge3" class="edge">
<title>Node3&#45;&gt;Node4</title>
<path fill="none" stroke="midnightblue" d="M540.34,-119.23C564.56,-108.39 594.14,-95.16 613.15,-86.66"/>
<polygon fill="midnightblue" stroke="midnightblue" points="538.72,-116.12 531.02,-123.4 541.58,-122.51 538.72,-116.12"/>
</g>
<!-- Node5 -->
<g id="node5" class="node">
<title>Node5</title>
<g id="a_node5"><a xlink:href="_network_8cpp.html" target="_top" xlink:title=" ">
<polygon fill="white" stroke="black" points="283.5,-6 283.5,-25 413.5,-25 413.5,-6 283.5,-6"/>
<text text-anchor="middle" x="348.5" y="-13" font-family="Helvetica,sans-Serif" font-size="10.00">src/armnn/Network.cpp</text>
</a>
</g>
</g>
<!-- Node3&#45;&gt;Node5 -->
<g id="edge9" class="edge">
<title>Node3&#45;&gt;Node5</title>
<path fill="none" stroke="midnightblue" d="M473.9,-116.98C440.33,-90.08 382.92,-44.09 359.22,-25.09"/>
<polygon fill="midnightblue" stroke="midnightblue" points="471.89,-119.86 481.88,-123.38 476.27,-114.4 471.89,-119.86"/>
</g>
<!-- Node6 -->
<g id="node6" class="node">
<title>Node6</title>
<g id="a_node6"><a xlink:href="_optimizer_8cpp.html" target="_top" xlink:title=" ">
<polygon fill="white" stroke="black" points="431.5,-6 431.5,-25 567.5,-25 567.5,-6 431.5,-6"/>
<text text-anchor="middle" x="499.5" y="-13" font-family="Helvetica,sans-Serif" font-size="10.00">src/armnn/Optimizer.cpp</text>
</a>
</g>
</g>
<!-- Node3&#45;&gt;Node6 -->
<g id="edge10" class="edge">
<title>Node3&#45;&gt;Node6</title>
<path fill="none" stroke="midnightblue" d="M499.5,-112.84C499.5,-85.56 499.5,-43.08 499.5,-25.05"/>
<polygon fill="midnightblue" stroke="midnightblue" points="496,-113.14 499.5,-123.14 503,-113.14 496,-113.14"/>
</g>
<!-- Node4&#45;&gt;Node5 -->
<g id="edge4" class="edge">
<title>Node4&#45;&gt;Node5</title>
<path fill="none" stroke="midnightblue" d="M581.92,-65.4C526.86,-53.87 439.9,-35.65 389.11,-25.01"/>
<polygon fill="midnightblue" stroke="midnightblue" points="581.3,-68.85 591.81,-67.48 582.74,-62 581.3,-68.85"/>
</g>
<!-- Node4&#45;&gt;Node6 -->
<g id="edge5" class="edge">
<title>Node4&#45;&gt;Node6</title>
<path fill="none" stroke="midnightblue" d="M604.17,-63.33C578.35,-51.78 540.92,-35.03 518.52,-25.01"/>
<polygon fill="midnightblue" stroke="midnightblue" points="602.89,-66.59 613.44,-67.48 605.75,-60.2 602.89,-66.59"/>
</g>
<!-- Node7 -->
<g id="node7" class="node">
<title>Node7</title>
<g id="a_node7"><a xlink:href="_cl_backend_8cpp.html" target="_top" xlink:title=" ">
<polygon fill="white" stroke="black" points="586,-6 586,-25 751,-25 751,-6 586,-6"/>
<text text-anchor="middle" x="668.5" y="-13" font-family="Helvetica,sans-Serif" font-size="10.00">src/backends/cl/ClBackend.cpp</text>
</a>
</g>
</g>
<!-- Node4&#45;&gt;Node7 -->
<g id="edge6" class="edge">
<title>Node4&#45;&gt;Node7</title>
<path fill="none" stroke="midnightblue" d="M642.98,-58.67C649.68,-47.61 658.06,-33.75 663.35,-25.01"/>
<polygon fill="midnightblue" stroke="midnightblue" points="639.84,-57.11 637.66,-67.48 645.83,-60.73 639.84,-57.11"/>
</g>
<!-- Node8 -->
<g id="node8" class="node">
<title>Node8</title>
<g id="a_node8"><a xlink:href="_neon_backend_8cpp.html" target="_top" xlink:title=" ">
<polygon fill="white" stroke="black" points="769,-6 769,-25 966,-25 966,-6 769,-6"/>
<text text-anchor="middle" x="867.5" y="-13" font-family="Helvetica,sans-Serif" font-size="10.00">src/backends/neon/NeonBackend.cpp</text>
</a>
</g>
</g>
<!-- Node4&#45;&gt;Node8 -->
<g id="edge7" class="edge">
<title>Node4&#45;&gt;Node8</title>
<path fill="none" stroke="midnightblue" d="M676.07,-64.97C721.7,-53.41 792.39,-35.52 833.89,-25.01"/>
<polygon fill="midnightblue" stroke="midnightblue" points="675,-61.63 666.17,-67.48 676.72,-68.41 675,-61.63"/>
</g>
<!-- Node9 -->
<g id="node9" class="node">
<title>Node9</title>
<g id="a_node9"><a xlink:href="_tosa_ref_backend_8cpp.html" target="_top" xlink:title=" ">
<polygon fill="white" stroke="black" points="984,-0.5 984,-30.5 1137,-30.5 1137,-0.5 984,-0.5"/>
<text text-anchor="start" x="992" y="-18.5" font-family="Helvetica,sans-Serif" font-size="10.00">src/backends/tosaReference</text>
<text text-anchor="middle" x="1060.5" y="-7.5" font-family="Helvetica,sans-Serif" font-size="10.00">/TosaRefBackend.cpp</text>
</a>
</g>
</g>
<!-- Node4&#45;&gt;Node9 -->
<g id="edge8" class="edge">
<title>Node4&#45;&gt;Node9</title>
<path fill="none" stroke="midnightblue" d="M711.28,-66.54C780.88,-57.97 885.08,-44.64 975.5,-31 978.16,-30.6 980.87,-30.18 983.61,-29.75"/>
<polygon fill="midnightblue" stroke="midnightblue" points="710.77,-63.08 701.27,-67.77 711.62,-70.02 710.77,-63.08"/>
</g>
<!-- Node10&#45;&gt;Node3 -->
<g id="edge12" class="edge">
<title>Node10&#45;&gt;Node3</title>
<path fill="none" stroke="midnightblue" d="M621.39,-186.72C593.09,-175.75 560.25,-163.03 535.8,-153.56"/>
<polygon fill="midnightblue" stroke="midnightblue" points="620.21,-190.01 630.8,-190.36 622.74,-183.49 620.21,-190.01"/>
</g>
<!-- Node11&#45;&gt;Node3 -->
<g id="edge14" class="edge">
<title>Node11&#45;&gt;Node3</title>
<path fill="none" stroke="midnightblue" d="M806.98,-193.95C800.06,-192.59 793.16,-191.26 786.5,-190 711.56,-175.84 625.36,-160.84 567.14,-150.91"/>
<polygon fill="midnightblue" stroke="midnightblue" points="806.62,-197.45 817.11,-195.95 807.98,-190.58 806.62,-197.45"/>
</g>
<!-- Node12&#45;&gt;Node3 -->
<g id="edge16" class="edge">
<title>Node12&#45;&gt;Node3</title>
<path fill="none" stroke="midnightblue" d="M193.02,-194.2C265.35,-181.29 366.05,-163.32 431.99,-151.55"/>
<polygon fill="midnightblue" stroke="midnightblue" points="192.24,-190.78 183.01,-195.99 193.47,-197.68 192.24,-190.78"/>
</g>
<!-- Node13&#45;&gt;Node3 -->
<g id="edge18" class="edge">
<title>Node13&#45;&gt;Node3</title>
<path fill="none" stroke="midnightblue" d="M379.98,-186.57C407.74,-175.64 439.86,-162.99 463.8,-153.56"/>
<polygon fill="midnightblue" stroke="midnightblue" points="378.38,-183.44 370.36,-190.36 380.95,-189.95 378.38,-183.44"/>
</g>
</g>
</svg>
