<?xml version="1.0" encoding="UTF-8" standalone="no"?>
<!DOCTYPE svg PUBLIC "-//W3C//DTD SVG 1.1//EN"
 "http://www.w3.org/Graphics/SVG/1.1/DTD/svg11.dtd">
<!-- Generated by graphviz version 2.43.0 (0)
 -->
<!-- Title: src/armnn/optimizations/Optimization.hpp Pages: 1 -->
<svg width="3741pt" height="374pt"
 viewBox="0.00 0.00 3741.00 374.00" xmlns="http://www.w3.org/2000/svg" xmlns:xlink="http://www.w3.org/1999/xlink">
<g id="graph0" class="graph" transform="scale(1 1) rotate(0) translate(4 370)">
<title>src/armnn/optimizations/Optimization.hpp</title>
<polygon fill="white" stroke="transparent" points="-4,4 -4,-370 3737,-370 3737,4 -4,4"/>
<!-- Node1 -->
<g id="node1" class="node">
<title>Node1</title>
<g id="a_node1"><a xlink:title=" ">
<polygon fill="#bfbfbf" stroke="black" points="1814.5,-335.5 1814.5,-365.5 1949.5,-365.5 1949.5,-335.5 1814.5,-335.5"/>
<text text-anchor="start" x="1822.5" y="-353.5" font-family="Helvetica,sans-Serif" font-size="10.00">src/armnn/optimizations</text>
<text text-anchor="middle" x="1882" y="-342.5" font-family="Helvetica,sans-Serif" font-size="10.00">/Optimization.hpp</text>
</a>
</g>
</g>
<!-- Node2 -->
<g id="node2" class="node">
<title>Node2</title>
<g id="a_node2"><a xlink:href="_add_broadcast_reshape_layer_8hpp.html" target="_top" xlink:title=" ">
<polygon fill="white" stroke="black" points="3096,-263 3096,-293 3272,-293 3272,-263 3096,-263"/>
<text text-anchor="start" x="3104" y="-281" font-family="Helvetica,sans-Serif" font-size="10.00">src/armnn/optimizations</text>
<text text-anchor="middle" x="3184" y="-270" font-family="Helvetica,sans-Serif" font-size="10.00">/AddBroadcastReshapeLayer.hpp</text>
</a>
</g>
</g>
<!-- Node1&#45;&gt;Node2 -->
<g id="edge1" class="edge">
<title>Node1&#45;&gt;Node2</title>
<path fill="none" stroke="midnightblue" d="M1959.86,-347.88C2190.49,-342.83 2867.62,-326.03 3087,-299 3098.95,-297.53 3111.61,-295.37 3123.71,-293"/>
<polygon fill="midnightblue" stroke="midnightblue" points="1959.47,-344.39 1949.55,-348.11 1959.62,-351.39 1959.47,-344.39"/>
</g>
<!-- Node10 -->
<g id="node10" class="node">
<title>Node10</title>
<g id="a_node10"><a xlink:href="_add_debug_8hpp.html" target="_top" xlink:title=" ">
<polygon fill="white" stroke="black" points="3290.5,-263 3290.5,-293 3425.5,-293 3425.5,-263 3290.5,-263"/>
<text text-anchor="start" x="3298.5" y="-281" font-family="Helvetica,sans-Serif" font-size="10.00">src/armnn/optimizations</text>
<text text-anchor="middle" x="3358" y="-270" font-family="Helvetica,sans-Serif" font-size="10.00">/AddDebug.hpp</text>
</a>
</g>
</g>
<!-- Node1&#45;&gt;Node10 -->
<g id="edge11" class="edge">
<title>Node1&#45;&gt;Node10</title>
<path fill="none" stroke="midnightblue" d="M1959.95,-348.92C2215,-346.68 3023.05,-336.69 3281,-299 3290.7,-297.58 3300.95,-295.41 3310.69,-293.02"/>
<polygon fill="midnightblue" stroke="midnightblue" points="1959.63,-345.42 1949.66,-349.01 1959.69,-352.42 1959.63,-345.42"/>
</g>
<!-- Node11 -->
<g id="node11" class="node">
<title>Node11</title>
<g id="a_node11"><a xlink:href="_convert_constants_8hpp.html" target="_top" xlink:title=" ">
<polygon fill="white" stroke="black" points="3443.5,-263 3443.5,-293 3578.5,-293 3578.5,-263 3443.5,-263"/>
<text text-anchor="start" x="3451.5" y="-281" font-family="Helvetica,sans-Serif" font-size="10.00">src/armnn/optimizations</text>
<text text-anchor="middle" x="3511" y="-270" font-family="Helvetica,sans-Serif" font-size="10.00">/ConvertConstants.hpp</text>
</a>
</g>
</g>
<!-- Node1&#45;&gt;Node11 -->
<g id="edge13" class="edge">
<title>Node1&#45;&gt;Node11</title>
<path fill="none" stroke="midnightblue" d="M1960.06,-349.28C2233.31,-348.15 3145.76,-341.21 3435,-299 3444.59,-297.6 3454.7,-295.44 3464.31,-293.05"/>
<polygon fill="midnightblue" stroke="midnightblue" points="1959.83,-345.78 1949.84,-349.32 1959.86,-352.78 1959.83,-345.78"/>
</g>
<!-- Node12 -->
<g id="node12" class="node">
<title>Node12</title>
<g id="a_node12"><a xlink:href="_convert_const_dequantisation_layers_to_const_layers_8hpp.html" target="_top" xlink:title=" ">
<polygon fill="white" stroke="black" points="0,-257.5 0,-298.5 192,-298.5 192,-257.5 0,-257.5"/>
<text text-anchor="start" x="8" y="-286.5" font-family="Helvetica,sans-Serif" font-size="10.00">src/armnn/optimizations</text>
<text text-anchor="start" x="8" y="-275.5" font-family="Helvetica,sans-Serif" font-size="10.00">/ConvertConstDequantisationLayers</text>
<text text-anchor="middle" x="96" y="-264.5" font-family="Helvetica,sans-Serif" font-size="10.00">ToConstLayers.hpp</text>
</a>
</g>
</g>
<!-- Node1&#45;&gt;Node12 -->
<g id="edge15" class="edge">
<title>Node1&#45;&gt;Node12</title>
<path fill="none" stroke="midnightblue" d="M1803.99,-348.8C1516.67,-345.94 517.79,-333.71 201,-299 198.05,-298.68 195.06,-298.32 192.04,-297.92"/>
<polygon fill="midnightblue" stroke="midnightblue" points="1804.28,-352.3 1814.31,-348.9 1804.35,-345.3 1804.28,-352.3"/>
</g>
<!-- Node13 -->
<g id="node13" class="node">
<title>Node13</title>
<g id="a_node13"><a xlink:href="_convert_const_permute_layers_to_const_layers_8hpp.html" target="_top" xlink:title=" ">
<polygon fill="white" stroke="black" points="210,-257.5 210,-298.5 380,-298.5 380,-257.5 210,-257.5"/>
<text text-anchor="start" x="218" y="-286.5" font-family="Helvetica,sans-Serif" font-size="10.00">src/armnn/optimizations</text>
<text text-anchor="start" x="218" y="-275.5" font-family="Helvetica,sans-Serif" font-size="10.00">/ConvertConstPermuteLayersTo</text>
<text text-anchor="middle" x="295" y="-264.5" font-family="Helvetica,sans-Serif" font-size="10.00">ConstLayers.hpp</text>
</a>
</g>
</g>
<!-- Node1&#45;&gt;Node13 -->
<g id="edge17" class="edge">
<title>Node1&#45;&gt;Node13</title>
<path fill="none" stroke="midnightblue" d="M1803.91,-348.67C1537.69,-345.56 666.85,-332.99 389,-299 386.1,-298.65 383.16,-298.25 380.2,-297.81"/>
<polygon fill="midnightblue" stroke="midnightblue" points="1804.21,-352.18 1814.25,-348.79 1804.29,-345.18 1804.21,-352.18"/>
</g>
<!-- Node14 -->
<g id="node14" class="node">
<title>Node14</title>
<g id="a_node14"><a xlink:href="_convert_fp32_network_to_fp16_8hpp.html" target="_top" xlink:title=" ">
<polygon fill="white" stroke="black" points="398.5,-263 398.5,-293 577.5,-293 577.5,-263 398.5,-263"/>
<text text-anchor="start" x="406.5" y="-281" font-family="Helvetica,sans-Serif" font-size="10.00">src/armnn/optimizations</text>
<text text-anchor="middle" x="488" y="-270" font-family="Helvetica,sans-Serif" font-size="10.00">/ConvertFp32NetworkToFp16.hpp</text>
</a>
</g>
</g>
<!-- Node1&#45;&gt;Node14 -->
<g id="edge19" class="edge">
<title>Node1&#45;&gt;Node14</title>
<path fill="none" stroke="midnightblue" d="M1804.12,-348.13C1561.91,-343.59 823.88,-327.71 586,-299 573.93,-297.54 561.14,-295.39 548.91,-293.02"/>
<polygon fill="midnightblue" stroke="midnightblue" points="1804.18,-351.63 1814.25,-348.31 1804.31,-344.63 1804.18,-351.63"/>
</g>
<!-- Node15 -->
<g id="node15" class="node">
<title>Node15</title>
<g id="a_node15"><a xlink:href="_delete_broadcast_to_8hpp.html" target="_top" xlink:title=" ">
<polygon fill="white" stroke="black" points="595.5,-263 595.5,-293 730.5,-293 730.5,-263 595.5,-263"/>
<text text-anchor="start" x="603.5" y="-281" font-family="Helvetica,sans-Serif" font-size="10.00">src/armnn/optimizations</text>
<text text-anchor="middle" x="663" y="-270" font-family="Helvetica,sans-Serif" font-size="10.00">/DeleteBroadcastTo.hpp</text>
</a>
</g>
</g>
<!-- Node1&#45;&gt;Node15 -->
<g id="edge21" class="edge">
<title>Node1&#45;&gt;Node15</title>
<path fill="none" stroke="midnightblue" d="M1803.87,-348.22C1581,-344.21 945,-330.29 739,-299 729.56,-297.57 719.6,-295.42 710.11,-293.06"/>
<polygon fill="midnightblue" stroke="midnightblue" points="1804.11,-351.72 1814.17,-348.4 1804.23,-344.72 1804.11,-351.72"/>
</g>
<!-- Node16 -->
<g id="node16" class="node">
<title>Node16</title>
<g id="a_node16"><a xlink:href="_fold_pad_into_layer2d_8hpp.html" target="_top" xlink:title=" ">
<polygon fill="white" stroke="black" points="3597,-263 3597,-293 3733,-293 3733,-263 3597,-263"/>
<text text-anchor="start" x="3605" y="-281" font-family="Helvetica,sans-Serif" font-size="10.00">src/armnn/optimizations</text>
<text text-anchor="middle" x="3665" y="-270" font-family="Helvetica,sans-Serif" font-size="10.00">/FoldPadIntoLayer2d.hpp</text>
</a>
</g>
</g>
<!-- Node1&#45;&gt;Node16 -->
<g id="edge23" class="edge">
<title>Node1&#45;&gt;Node16</title>
<path fill="none" stroke="midnightblue" d="M1959.84,-349.51C2249.85,-349.2 3267.3,-344.8 3588,-299 3597.71,-297.61 3607.95,-295.46 3617.69,-293.07"/>
<polygon fill="midnightblue" stroke="midnightblue" points="1959.83,-346.01 1949.83,-349.52 1959.84,-353.01 1959.83,-346.01"/>
</g>
<!-- Node21 -->
<g id="node21" class="node">
<title>Node21</title>
<g id="a_node21"><a xlink:href="_fuse_batch_norm_8hpp.html" target="_top" xlink:title=" ">
<polygon fill="white" stroke="black" points="748.5,-263 748.5,-293 883.5,-293 883.5,-263 748.5,-263"/>
<text text-anchor="start" x="756.5" y="-281" font-family="Helvetica,sans-Serif" font-size="10.00">src/armnn/optimizations</text>
<text text-anchor="middle" x="816" y="-270" font-family="Helvetica,sans-Serif" font-size="10.00">/FuseBatchNorm.hpp</text>
</a>
</g>
</g>
<!-- Node1&#45;&gt;Node21 -->
<g id="edge33" class="edge">
<title>Node1&#45;&gt;Node21</title>
<path fill="none" stroke="midnightblue" d="M1803.99,-347.6C1602.33,-342.36 1067.3,-326.24 892,-299 882.56,-297.53 872.6,-295.37 863.11,-293.01"/>
<polygon fill="midnightblue" stroke="midnightblue" points="1804.11,-351.1 1814.2,-347.86 1804.29,-344.11 1804.11,-351.1"/>
</g>
<!-- Node22 -->
<g id="node22" class="node">
<title>Node22</title>
<g id="a_node22"><a xlink:href="_max_min_into_bounded_relu_8hpp.html" target="_top" xlink:title=" ">
<polygon fill="white" stroke="black" points="901.5,-263 901.5,-293 1064.5,-293 1064.5,-263 901.5,-263"/>
<text text-anchor="start" x="909.5" y="-281" font-family="Helvetica,sans-Serif" font-size="10.00">src/armnn/optimizations</text>
<text text-anchor="middle" x="983" y="-270" font-family="Helvetica,sans-Serif" font-size="10.00">/MaxMinIntoBoundedRelu.hpp</text>
</a>
</g>
</g>
<!-- Node1&#45;&gt;Node22 -->
<g id="edge35" class="edge">
<title>Node1&#45;&gt;Node22</title>
<path fill="none" stroke="midnightblue" d="M1804.14,-348.68C1659.43,-346.25 1339.53,-336.7 1073,-299 1062.22,-297.48 1050.82,-295.35 1039.89,-293.05"/>
<polygon fill="midnightblue" stroke="midnightblue" points="1804.2,-352.18 1814.25,-348.84 1804.31,-345.18 1804.2,-352.18"/>
</g>
<!-- Node23 -->
<g id="node23" class="node">
<title>Node23</title>
<g id="a_node23"><a xlink:href="_move_permute_up_8hpp.html" target="_top" xlink:title=" ">
<polygon fill="white" stroke="black" points="1082.5,-263 1082.5,-293 1217.5,-293 1217.5,-263 1082.5,-263"/>
<text text-anchor="start" x="1090.5" y="-281" font-family="Helvetica,sans-Serif" font-size="10.00">src/armnn/optimizations</text>
<text text-anchor="middle" x="1150" y="-270" font-family="Helvetica,sans-Serif" font-size="10.00">/MovePermuteUp.hpp</text>
</a>
</g>
</g>
<!-- Node1&#45;&gt;Node23 -->
<g id="edge37" class="edge">
<title>Node1&#45;&gt;Node23</title>
<path fill="none" stroke="midnightblue" d="M1804.36,-348.05C1681.01,-344.73 1433.06,-333.92 1226,-299 1216.85,-297.46 1207.2,-295.32 1197.96,-293.02"/>
<polygon fill="midnightblue" stroke="midnightblue" points="1804.38,-351.55 1814.46,-348.31 1804.56,-344.55 1804.38,-351.55"/>
</g>
<!-- Node24 -->
<g id="node24" class="node">
<title>Node24</title>
<g id="a_node24"><a xlink:href="_move_transpose_up_8hpp.html" target="_top" xlink:title=" ">
<polygon fill="white" stroke="black" points="1235.5,-263 1235.5,-293 1370.5,-293 1370.5,-263 1235.5,-263"/>
<text text-anchor="start" x="1243.5" y="-281" font-family="Helvetica,sans-Serif" font-size="10.00">src/armnn/optimizations</text>
<text text-anchor="middle" x="1303" y="-270" font-family="Helvetica,sans-Serif" font-size="10.00">/MoveTransposeUp.hpp</text>
</a>
</g>
</g>
<!-- Node1&#45;&gt;Node24 -->
<g id="edge39" class="edge">
<title>Node1&#45;&gt;Node24</title>
<path fill="none" stroke="midnightblue" d="M1803.91,-345.38C1704.75,-339.29 1528.64,-325.62 1380,-299 1371.03,-297.39 1361.56,-295.29 1352.46,-293.04"/>
<polygon fill="midnightblue" stroke="midnightblue" points="1803.96,-348.89 1814.15,-345.99 1804.38,-341.9 1803.96,-348.89"/>
</g>
<!-- Node25 -->
<g id="node25" class="node">
<title>Node25</title>
<g id="a_node25"><a xlink:href="_optimize_consecutive_reshapes_8hpp.html" target="_top" xlink:title=" ">
<polygon fill="white" stroke="black" points="1389,-263 1389,-293 1581,-293 1581,-263 1389,-263"/>
<text text-anchor="start" x="1397" y="-281" font-family="Helvetica,sans-Serif" font-size="10.00">src/armnn/optimizations</text>
<text text-anchor="middle" x="1485" y="-270" font-family="Helvetica,sans-Serif" font-size="10.00">/OptimizeConsecutiveReshapes.hpp</text>
</a>
</g>
</g>
<!-- Node1&#45;&gt;Node25 -->
<g id="edge41" class="edge">
<title>Node1&#45;&gt;Node25</title>
<path fill="none" stroke="midnightblue" d="M1804.41,-336.45C1745.53,-326.46 1662.61,-312.19 1590,-299 1579.59,-297.11 1568.61,-295.07 1557.84,-293.04"/>
<polygon fill="midnightblue" stroke="midnightblue" points="1803.94,-339.92 1814.38,-338.14 1805.11,-333.02 1803.94,-339.92"/>
</g>
<!-- Node26 -->
<g id="node26" class="node">
<title>Node26</title>
<g id="a_node26"><a xlink:href="_optimize_inverse_conversions_8hpp.html" target="_top" xlink:title=" ">
<polygon fill="white" stroke="black" points="1599.5,-263 1599.5,-293 1780.5,-293 1780.5,-263 1599.5,-263"/>
<text text-anchor="start" x="1607.5" y="-281" font-family="Helvetica,sans-Serif" font-size="10.00">src/armnn/optimizations</text>
<text text-anchor="middle" x="1690" y="-270" font-family="Helvetica,sans-Serif" font-size="10.00">/OptimizeInverseConversions.hpp</text>
</a>
</g>
</g>
<!-- Node1&#45;&gt;Node26 -->
<g id="edge43" class="edge">
<title>Node1&#45;&gt;Node26</title>
<path fill="none" stroke="midnightblue" d="M1833.82,-331.81C1801.19,-319.83 1758.66,-304.21 1728.33,-293.07"/>
<polygon fill="midnightblue" stroke="midnightblue" points="1833.01,-335.24 1843.61,-335.4 1835.43,-328.67 1833.01,-335.24"/>
</g>
<!-- Node27 -->
<g id="node27" class="node">
<title>Node27</title>
<g id="a_node27"><a xlink:href="_optimize_inverse_permutes_8hpp.html" target="_top" xlink:title=" ">
<polygon fill="white" stroke="black" points="1798.5,-263 1798.5,-293 1965.5,-293 1965.5,-263 1798.5,-263"/>
<text text-anchor="start" x="1806.5" y="-281" font-family="Helvetica,sans-Serif" font-size="10.00">src/armnn/optimizations</text>
<text text-anchor="middle" x="1882" y="-270" font-family="Helvetica,sans-Serif" font-size="10.00">/OptimizeInversePermutes.hpp</text>
</a>
</g>
</g>
<!-- Node1&#45;&gt;Node27 -->
<g id="edge45" class="edge">
<title>Node1&#45;&gt;Node27</title>
<path fill="none" stroke="midnightblue" d="M1882,-325.23C1882,-314.57 1882,-302.41 1882,-293.25"/>
<polygon fill="midnightblue" stroke="midnightblue" points="1878.5,-325.23 1882,-335.23 1885.5,-325.23 1878.5,-325.23"/>
</g>
<!-- Node28 -->
<g id="node28" class="node">
<title>Node28</title>
<g id="a_node28"><a xlink:href="_permute_as_reshape_8hpp.html" target="_top" xlink:title=" ">
<polygon fill="white" stroke="black" points="1984,-263 1984,-293 2120,-293 2120,-263 1984,-263"/>
<text text-anchor="start" x="1992" y="-281" font-family="Helvetica,sans-Serif" font-size="10.00">src/armnn/optimizations</text>
<text text-anchor="middle" x="2052" y="-270" font-family="Helvetica,sans-Serif" font-size="10.00">/PermuteAsReshape.hpp</text>
</a>
</g>
</g>
<!-- Node1&#45;&gt;Node28 -->
<g id="edge47" class="edge">
<title>Node1&#45;&gt;Node28</title>
<path fill="none" stroke="midnightblue" d="M1925.41,-331.5C1954.2,-319.56 1991.44,-304.11 2018.07,-293.07"/>
<polygon fill="midnightblue" stroke="midnightblue" points="1923.89,-328.34 1915.99,-335.4 1926.57,-334.8 1923.89,-328.34"/>
</g>
<!-- Node29 -->
<g id="node29" class="node">
<title>Node29</title>
<g id="a_node29"><a xlink:href="_permute_and_batch_to_space_as_depth_to_space_8hpp.html" target="_top" xlink:title=" ">
<polygon fill="white" stroke="black" points="2138,-257.5 2138,-298.5 2326,-298.5 2326,-257.5 2138,-257.5"/>
<text text-anchor="start" x="2146" y="-286.5" font-family="Helvetica,sans-Serif" font-size="10.00">src/armnn/optimizations</text>
<text text-anchor="start" x="2146" y="-275.5" font-family="Helvetica,sans-Serif" font-size="10.00">/PermuteAndBatchToSpaceAsDepth</text>
<text text-anchor="middle" x="2232" y="-264.5" font-family="Helvetica,sans-Serif" font-size="10.00">ToSpace.hpp</text>
</a>
</g>
</g>
<!-- Node1&#45;&gt;Node29 -->
<g id="edge49" class="edge">
<title>Node1&#45;&gt;Node29</title>
<path fill="none" stroke="midnightblue" d="M1959.84,-333.82C2012.42,-323.23 2082.12,-309.19 2137.82,-297.97"/>
<polygon fill="midnightblue" stroke="midnightblue" points="1959.01,-330.42 1949.9,-335.82 1960.39,-337.28 1959.01,-330.42"/>
</g>
<!-- Node30 -->
<g id="node30" class="node">
<title>Node30</title>
<g id="a_node30"><a xlink:href="_permute_depthwise_conv2d_weights_8hpp.html" target="_top" xlink:title=" ">
<polygon fill="white" stroke="black" points="2344.5,-263 2344.5,-293 2553.5,-293 2553.5,-263 2344.5,-263"/>
<text text-anchor="start" x="2352.5" y="-281" font-family="Helvetica,sans-Serif" font-size="10.00">src/armnn/optimizations</text>
<text text-anchor="middle" x="2449" y="-270" font-family="Helvetica,sans-Serif" font-size="10.00">/PermuteDepthwiseConv2dWeights.hpp</text>
</a>
</g>
</g>
<!-- Node1&#45;&gt;Node30 -->
<g id="edge51" class="edge">
<title>Node1&#45;&gt;Node30</title>
<path fill="none" stroke="midnightblue" d="M1959.87,-342.32C2050.27,-333.63 2203.76,-317.81 2335,-299 2347.33,-297.23 2360.38,-295.15 2373.07,-293"/>
<polygon fill="midnightblue" stroke="midnightblue" points="1959.33,-338.85 1949.71,-343.29 1959.99,-345.82 1959.33,-338.85"/>
</g>
<!-- Node31 -->
<g id="node31" class="node">
<title>Node31</title>
<g id="a_node31"><a xlink:href="_squash_equal_siblings_8hpp.html" target="_top" xlink:title=" ">
<polygon fill="white" stroke="black" points="2571.5,-263 2571.5,-293 2712.5,-293 2712.5,-263 2571.5,-263"/>
<text text-anchor="start" x="2579.5" y="-281" font-family="Helvetica,sans-Serif" font-size="10.00">src/armnn/optimizations</text>
<text text-anchor="middle" x="2642" y="-270" font-family="Helvetica,sans-Serif" font-size="10.00">/SquashEqualSiblings.hpp</text>
</a>
</g>
</g>
<!-- Node1&#45;&gt;Node31 -->
<g id="edge53" class="edge">
<title>Node1&#45;&gt;Node31</title>
<path fill="none" stroke="midnightblue" d="M1959.65,-348.13C2086.62,-344.9 2346.24,-334.2 2563,-299 2572.5,-297.46 2582.52,-295.32 2592.12,-293.02"/>
<polygon fill="midnightblue" stroke="midnightblue" points="1959.54,-344.63 1949.63,-348.37 1959.72,-351.63 1959.54,-344.63"/>
</g>
<!-- Node32 -->
<g id="node32" class="node">
<title>Node32</title>
<g id="a_node32"><a xlink:href="_transpose_as_reshape_8hpp.html" target="_top" xlink:title=" ">
<polygon fill="white" stroke="black" points="2730.5,-263 2730.5,-293 2873.5,-293 2873.5,-263 2730.5,-263"/>
<text text-anchor="start" x="2738.5" y="-281" font-family="Helvetica,sans-Serif" font-size="10.00">src/armnn/optimizations</text>
<text text-anchor="middle" x="2802" y="-270" font-family="Helvetica,sans-Serif" font-size="10.00">/TransposeAsReshape.hpp</text>
</a>
</g>
</g>
<!-- Node1&#45;&gt;Node32 -->
<g id="edge55" class="edge">
<title>Node1&#45;&gt;Node32</title>
<path fill="none" stroke="midnightblue" d="M1960.09,-349.61C2109.12,-348.75 2444.02,-341.73 2722,-299 2731.76,-297.5 2742.08,-295.35 2751.93,-293.02"/>
<polygon fill="midnightblue" stroke="midnightblue" points="1959.67,-346.11 1949.68,-349.66 1959.7,-353.11 1959.67,-346.11"/>
</g>
<!-- Node33 -->
<g id="node33" class="node">
<title>Node33</title>
<g id="a_node33"><a xlink:href="_turbo_convert_const_dequantisation_layers_to_const_layers_8hpp.html" target="_top" xlink:title=" ">
<polygon fill="white" stroke="black" points="2892,-257.5 2892,-298.5 3078,-298.5 3078,-257.5 2892,-257.5"/>
<text text-anchor="start" x="2900" y="-286.5" font-family="Helvetica,sans-Serif" font-size="10.00">src/armnn/optimizations</text>
<text text-anchor="start" x="2900" y="-275.5" font-family="Helvetica,sans-Serif" font-size="10.00">/TurboConvertConstDequantisation</text>
<text text-anchor="middle" x="2985" y="-264.5" font-family="Helvetica,sans-Serif" font-size="10.00">LayersToConstLayers.hpp</text>
</a>
</g>
</g>
<!-- Node1&#45;&gt;Node33 -->
<g id="edge57" class="edge">
<title>Node1&#45;&gt;Node33</title>
<path fill="none" stroke="midnightblue" d="M1959.69,-349.36C2128.4,-348.23 2540.68,-340.98 2883,-299 2885.96,-298.64 2888.95,-298.24 2891.98,-297.81"/>
<polygon fill="midnightblue" stroke="midnightblue" points="1959.63,-345.86 1949.66,-349.42 1959.68,-352.86 1959.63,-345.86"/>
</g>
<!-- Node3 -->
<g id="node3" class="node">
<title>Node3</title>
<g id="a_node3"><a xlink:href="_all_8hpp.html" target="_top" xlink:title=" ">
<polygon fill="white" stroke="black" points="1899.5,-190.5 1899.5,-220.5 2034.5,-220.5 2034.5,-190.5 1899.5,-190.5"/>
<text text-anchor="start" x="1907.5" y="-208.5" font-family="Helvetica,sans-Serif" font-size="10.00">src/armnn/optimizations</text>
<text text-anchor="middle" x="1967" y="-197.5" font-family="Helvetica,sans-Serif" font-size="10.00">/All.hpp</text>
</a>
</g>
</g>
<!-- Node2&#45;&gt;Node3 -->
<g id="edge2" class="edge">
<title>Node2&#45;&gt;Node3</title>
<path fill="none" stroke="midnightblue" d="M3113.49,-261.11C3104.61,-259.5 3095.62,-258.08 3087,-257 2881.54,-231.35 2244.05,-213.46 2034.51,-208.14"/>
<polygon fill="midnightblue" stroke="midnightblue" points="3112.97,-264.57 3123.45,-262.98 3114.27,-257.69 3112.97,-264.57"/>
</g>
<!-- Node4 -->
<g id="node4" class="node">
<title>Node4</title>
<g id="a_node4"><a xlink:href="_optimizer_8hpp.html" target="_top" xlink:title=" ">
<polygon fill="white" stroke="black" points="2042.5,-129 2042.5,-148 2179.5,-148 2179.5,-129 2042.5,-129"/>
<text text-anchor="middle" x="2111" y="-136" font-family="Helvetica,sans-Serif" font-size="10.00">src/armnn/Optimizer.hpp</text>
</a>
</g>
</g>
<!-- Node3&#45;&gt;Node4 -->
<g id="edge3" class="edge">
<title>Node3&#45;&gt;Node4</title>
<path fill="none" stroke="midnightblue" d="M2007.69,-186.13C2035.41,-173.62 2070.81,-157.64 2092.15,-148.01"/>
<polygon fill="midnightblue" stroke="midnightblue" points="2005.92,-183.09 1998.25,-190.4 2008.8,-189.47 2005.92,-183.09"/>
</g>
<!-- Node5 -->
<g id="node5" class="node">
<title>Node5</title>
<g id="a_node5"><a xlink:href="_network_8cpp.html" target="_top" xlink:title=" ">
<polygon fill="white" stroke="black" points="1813,-62 1813,-81 1943,-81 1943,-62 1813,-62"/>
<text text-anchor="middle" x="1878" y="-69" font-family="Helvetica,sans-Serif" font-size="10.00">src/armnn/Network.cpp</text>
</a>
</g>
</g>
<!-- Node3&#45;&gt;Node5 -->
<g id="edge9" class="edge">
<title>Node3&#45;&gt;Node5</title>
<path fill="none" stroke="midnightblue" d="M1951.75,-181.87C1931.68,-152.12 1897.39,-101.26 1883.8,-81.1"/>
<polygon fill="midnightblue" stroke="midnightblue" points="1948.98,-184.04 1957.48,-190.37 1954.79,-180.13 1948.98,-184.04"/>
</g>
<!-- Node6 -->
<g id="node6" class="node">
<title>Node6</title>
<g id="a_node6"><a xlink:href="_optimizer_8cpp.html" target="_top" xlink:title=" ">
<polygon fill="white" stroke="black" points="1961,-62 1961,-81 2097,-81 2097,-62 1961,-62"/>
<text text-anchor="middle" x="2029" y="-69" font-family="Helvetica,sans-Serif" font-size="10.00">src/armnn/Optimizer.cpp</text>
</a>
</g>
</g>
<!-- Node3&#45;&gt;Node6 -->
<g id="edge10" class="edge">
<title>Node3&#45;&gt;Node6</title>
<path fill="none" stroke="midnightblue" d="M1977.99,-181.1C1992.01,-151.25 2015.57,-101.08 2024.96,-81.1"/>
<polygon fill="midnightblue" stroke="midnightblue" points="1974.72,-179.83 1973.64,-190.37 1981.05,-182.81 1974.72,-179.83"/>
</g>
<!-- Node4&#45;&gt;Node5 -->
<g id="edge4" class="edge">
<title>Node4&#45;&gt;Node5</title>
<path fill="none" stroke="midnightblue" d="M2070.39,-126.17C2024.32,-113.32 1950.2,-92.64 1908.7,-81.06"/>
<polygon fill="midnightblue" stroke="midnightblue" points="2069.49,-129.55 2080.06,-128.87 2071.37,-122.81 2069.49,-129.55"/>
</g>
<!-- Node4&#45;&gt;Node6 -->
<g id="edge5" class="edge">
<title>Node4&#45;&gt;Node6</title>
<path fill="none" stroke="midnightblue" d="M2091.72,-122.21C2075.56,-109.41 2053.08,-91.59 2039.88,-81.13"/>
<polygon fill="midnightblue" stroke="midnightblue" points="2089.93,-125.26 2099.94,-128.73 2094.28,-119.78 2089.93,-125.26"/>
</g>
<!-- Node7 -->
<g id="node7" class="node">
<title>Node7</title>
<g id="a_node7"><a xlink:href="_cl_backend_8cpp.html" target="_top" xlink:title=" ">
<polygon fill="white" stroke="black" points="2324.5,-62 2324.5,-81 2489.5,-81 2489.5,-62 2324.5,-62"/>
<text text-anchor="middle" x="2407" y="-69" font-family="Helvetica,sans-Serif" font-size="10.00">src/backends/cl/ClBackend.cpp</text>
</a>
</g>
</g>
<!-- Node4&#45;&gt;Node7 -->
<g id="edge6" class="edge">
<title>Node4&#45;&gt;Node7</title>
<path fill="none" stroke="midnightblue" d="M2160.07,-126.72C2218.36,-113.92 2314.4,-92.83 2367.91,-81.08"/>
<polygon fill="midnightblue" stroke="midnightblue" points="2159.02,-123.37 2150,-128.94 2160.52,-130.21 2159.02,-123.37"/>
</g>
<!-- Node8 -->
<g id="node8" class="node">
<title>Node8</title>
<g id="a_node8"><a xlink:href="_neon_backend_8cpp.html" target="_top" xlink:title=" ">
<polygon fill="white" stroke="black" points="2497.5,-0.5 2497.5,-19.5 2694.5,-19.5 2694.5,-0.5 2497.5,-0.5"/>
<text text-anchor="middle" x="2596" y="-7.5" font-family="Helvetica,sans-Serif" font-size="10.00">src/backends/neon/NeonBackend.cpp</text>
</a>
</g>
</g>
<!-- Node4&#45;&gt;Node8 -->
<g id="edge7" class="edge">
<title>Node4&#45;&gt;Node8</title>
<path fill="none" stroke="midnightblue" d="M2113.25,-118.94C2116.62,-99.85 2124.92,-70.87 2145,-56 2172.66,-35.51 2373.26,-22.01 2497.43,-15.51"/>
<polygon fill="midnightblue" stroke="midnightblue" points="2109.78,-118.45 2111.78,-128.85 2116.71,-119.48 2109.78,-118.45"/>
</g>
<!-- Node9 -->
<g id="node9" class="node">
<title>Node9</title>
<g id="a_node9"><a xlink:href="_tosa_ref_backend_8cpp.html" target="_top" xlink:title=" ">
<polygon fill="white" stroke="black" points="2153.5,-56.5 2153.5,-86.5 2306.5,-86.5 2306.5,-56.5 2153.5,-56.5"/>
<text text-anchor="start" x="2161.5" y="-74.5" font-family="Helvetica,sans-Serif" font-size="10.00">src/backends/tosaReference</text>
<text text-anchor="middle" x="2230" y="-63.5" font-family="Helvetica,sans-Serif" font-size="10.00">/TosaRefBackend.cpp</text>
</a>
</g>
</g>
<!-- Node4&#45;&gt;Node9 -->
<g id="edge8" class="edge">
<title>Node4&#45;&gt;Node9</title>
<path fill="none" stroke="midnightblue" d="M2135.9,-123.9C2155.92,-112.97 2183.95,-97.65 2204.21,-86.59"/>
<polygon fill="midnightblue" stroke="midnightblue" points="2134.15,-120.87 2127.05,-128.73 2137.5,-127.01 2134.15,-120.87"/>
</g>
<!-- Node10&#45;&gt;Node3 -->
<g id="edge12" class="edge">
<title>Node10&#45;&gt;Node3</title>
<path fill="none" stroke="midnightblue" d="M3300.23,-260.57C3293.78,-259.16 3287.28,-257.92 3281,-257 3157.49,-238.8 2285.63,-214.83 2034.52,-208.24"/>
<polygon fill="midnightblue" stroke="midnightblue" points="3299.74,-264.05 3310.27,-262.9 3301.32,-257.23 3299.74,-264.05"/>
</g>
<!-- Node11&#45;&gt;Node3 -->
<g id="edge14" class="edge">
<title>Node11&#45;&gt;Node3</title>
<path fill="none" stroke="midnightblue" d="M3454.26,-260.6C3447.81,-259.17 3441.29,-257.92 3435,-257 3295.76,-236.55 2305.09,-213.82 2034.91,-207.95"/>
<polygon fill="midnightblue" stroke="midnightblue" points="3453.77,-264.08 3464.31,-262.97 3455.38,-257.27 3453.77,-264.08"/>
</g>
<!-- Node12&#45;&gt;Node3 -->
<g id="edge16" class="edge">
<title>Node12&#45;&gt;Node3</title>
<path fill="none" stroke="midnightblue" d="M202.15,-257C559.74,-219.98 1620.43,-209.23 1899.26,-206.99"/>
<polygon fill="midnightblue" stroke="midnightblue" points="201.61,-253.53 192.04,-258.07 202.35,-260.5 201.61,-253.53"/>
</g>
<!-- Node13&#45;&gt;Node3 -->
<g id="edge18" class="edge">
<title>Node13&#45;&gt;Node3</title>
<path fill="none" stroke="midnightblue" d="M390.34,-256.98C708.46,-220.44 1640.31,-209.47 1899.47,-207.06"/>
<polygon fill="midnightblue" stroke="midnightblue" points="389.71,-253.53 380.19,-258.18 390.54,-260.49 389.71,-253.53"/>
</g>
<!-- Node14&#45;&gt;Node3 -->
<g id="edge20" class="edge">
<title>Node14&#45;&gt;Node3</title>
<path fill="none" stroke="midnightblue" d="M558.75,-261.12C567.88,-259.5 577.14,-258.06 586,-257 844.77,-226.08 1658.9,-211.27 1899.44,-207.5"/>
<polygon fill="midnightblue" stroke="midnightblue" points="558.1,-257.68 548.91,-262.95 559.38,-264.57 558.1,-257.68"/>
</g>
<!-- Node15&#45;&gt;Node3 -->
<g id="edge22" class="edge">
<title>Node15&#45;&gt;Node3</title>
<path fill="none" stroke="midnightblue" d="M720.02,-260.58C726.38,-259.17 732.8,-257.93 739,-257 965.57,-222.94 1676.16,-210.49 1899.27,-207.36"/>
<polygon fill="midnightblue" stroke="midnightblue" points="719.04,-257.22 710.1,-262.92 720.64,-264.03 719.04,-257.22"/>
</g>
<!-- Node16&#45;&gt;Node3 -->
<g id="edge24" class="edge">
<title>Node16&#45;&gt;Node3</title>
<path fill="none" stroke="midnightblue" d="M3607.51,-260.58C3600.97,-259.16 3594.37,-257.91 3588,-257 3510.14,-245.82 2332.69,-215.67 2034.98,-208.19"/>
<polygon fill="midnightblue" stroke="midnightblue" points="3607.16,-264.09 3617.69,-262.95 3608.74,-257.28 3607.16,-264.09"/>
</g>
<!-- Node17 -->
<g id="node17" class="node">
<title>Node17</title>
<g id="a_node17"><a xlink:href="_subgraph_utils_8hpp.html" target="_top" xlink:title=" ">
<polygon fill="white" stroke="black" points="2593.5,-190.5 2593.5,-220.5 2766.5,-220.5 2766.5,-190.5 2593.5,-190.5"/>
<text text-anchor="start" x="2601.5" y="-208.5" font-family="Helvetica,sans-Serif" font-size="10.00">src/backends/backendsCommon</text>
<text text-anchor="middle" x="2680" y="-197.5" font-family="Helvetica,sans-Serif" font-size="10.00">/SubgraphUtils.hpp</text>
</a>
</g>
</g>
<!-- Node16&#45;&gt;Node17 -->
<g id="edge25" class="edge">
<title>Node16&#45;&gt;Node17</title>
<path fill="none" stroke="midnightblue" d="M3606.93,-260.62C3600.58,-259.21 3594.18,-257.96 3588,-257 3289.08,-210.34 2928.91,-205.24 2766.67,-205.62"/>
<polygon fill="midnightblue" stroke="midnightblue" points="3606.3,-264.06 3616.84,-262.93 3607.9,-257.25 3606.3,-264.06"/>
</g>
<!-- Node17&#45;&gt;Node9 -->
<g id="edge32" class="edge">
<title>Node17&#45;&gt;Node9</title>
<path fill="none" stroke="midnightblue" d="M2619.41,-187.69C2584.71,-177.98 2540.36,-165.47 2501,-154 2421.76,-130.91 2329.81,-103.03 2275.96,-86.58"/>
<polygon fill="midnightblue" stroke="midnightblue" points="2618.82,-191.15 2629.4,-190.47 2620.71,-184.41 2618.82,-191.15"/>
</g>
<!-- Node18 -->
<g id="node18" class="node">
<title>Node18</title>
<g id="a_node18"><a xlink:href="_arm_compute_subgraph_utils_8hpp.html" target="_top" xlink:title=" ">
<polygon fill="white" stroke="black" points="2509.5,-123.5 2509.5,-153.5 2682.5,-153.5 2682.5,-123.5 2509.5,-123.5"/>
<text text-anchor="start" x="2517.5" y="-141.5" font-family="Helvetica,sans-Serif" font-size="10.00">src/backends/aclCommon</text>
<text text-anchor="middle" x="2596" y="-130.5" font-family="Helvetica,sans-Serif" font-size="10.00">/ArmComputeSubgraphUtils.hpp</text>
</a>
</g>
</g>
<!-- Node17&#45;&gt;Node18 -->
<g id="edge26" class="edge">
<title>Node17&#45;&gt;Node18</title>
<path fill="none" stroke="midnightblue" d="M2653.72,-184.17C2640.88,-174.23 2625.74,-162.51 2614.19,-153.58"/>
<polygon fill="midnightblue" stroke="midnightblue" points="2651.72,-187.04 2661.77,-190.4 2656.01,-181.51 2651.72,-187.04"/>
</g>
<!-- Node20 -->
<g id="node20" class="node">
<title>Node20</title>
<g id="a_node20"><a xlink:href="_ref_backend_8cpp.html" target="_top" xlink:title=" ">
<polygon fill="white" stroke="black" points="2700.5,-123.5 2700.5,-153.5 2829.5,-153.5 2829.5,-123.5 2700.5,-123.5"/>
<text text-anchor="start" x="2708.5" y="-141.5" font-family="Helvetica,sans-Serif" font-size="10.00">src/backends/reference</text>
<text text-anchor="middle" x="2765" y="-130.5" font-family="Helvetica,sans-Serif" font-size="10.00">/RefBackend.cpp</text>
</a>
</g>
</g>
<!-- Node17&#45;&gt;Node20 -->
<g id="edge31" class="edge">
<title>Node17&#45;&gt;Node20</title>
<path fill="none" stroke="midnightblue" d="M2706.59,-184.17C2719.59,-174.23 2734.9,-162.51 2746.59,-153.58"/>
<polygon fill="midnightblue" stroke="midnightblue" points="2704.26,-181.54 2698.44,-190.4 2708.51,-187.1 2704.26,-181.54"/>
</g>
<!-- Node18&#45;&gt;Node7 -->
<g id="edge27" class="edge">
<title>Node18&#45;&gt;Node7</title>
<path fill="none" stroke="midnightblue" d="M2545.43,-120.11C2508.66,-107.46 2460.48,-90.89 2431.74,-81.01"/>
<polygon fill="midnightblue" stroke="midnightblue" points="2544.4,-123.45 2554.99,-123.4 2546.67,-116.83 2544.4,-123.45"/>
</g>
<!-- Node18&#45;&gt;Node8 -->
<g id="edge30" class="edge">
<title>Node18&#45;&gt;Node8</title>
<path fill="none" stroke="midnightblue" d="M2655.62,-119.09C2670.37,-111.56 2684.4,-101.18 2693,-87 2700.15,-75.22 2700.41,-67.61 2693,-56 2680.91,-37.07 2658.58,-25.98 2638.39,-19.55"/>
<polygon fill="midnightblue" stroke="midnightblue" points="2653.95,-116 2646.38,-123.42 2656.92,-122.34 2653.95,-116"/>
</g>
<!-- Node19 -->
<g id="node19" class="node">
<title>Node19</title>
<g id="a_node19"><a xlink:href="_neon_backend_optimization_utils_8hpp.html" target="_top" xlink:title=" ">
<polygon fill="white" stroke="black" points="2508,-56.5 2508,-86.5 2684,-86.5 2684,-56.5 2508,-56.5"/>
<text text-anchor="start" x="2516" y="-74.5" font-family="Helvetica,sans-Serif" font-size="10.00">src/backends/neon/NeonBackend</text>
<text text-anchor="middle" x="2596" y="-63.5" font-family="Helvetica,sans-Serif" font-size="10.00">OptimizationUtils.hpp</text>
</a>
</g>
</g>
<!-- Node18&#45;&gt;Node19 -->
<g id="edge28" class="edge">
<title>Node18&#45;&gt;Node19</title>
<path fill="none" stroke="midnightblue" d="M2596,-113.11C2596,-104.15 2596,-94.32 2596,-86.58"/>
<polygon fill="midnightblue" stroke="midnightblue" points="2592.5,-113.4 2596,-123.4 2599.5,-113.4 2592.5,-113.4"/>
</g>
<!-- Node19&#45;&gt;Node8 -->
<g id="edge29" class="edge">
<title>Node19&#45;&gt;Node8</title>
<path fill="none" stroke="midnightblue" d="M2596,-46.29C2596,-36.86 2596,-26.65 2596,-19.66"/>
<polygon fill="midnightblue" stroke="midnightblue" points="2592.5,-46.4 2596,-56.4 2599.5,-46.4 2592.5,-46.4"/>
</g>
<!-- Node21&#45;&gt;Node3 -->
<g id="edge34" class="edge">
<title>Node21&#45;&gt;Node3</title>
<path fill="none" stroke="midnightblue" d="M873.02,-260.62C879.39,-259.2 885.8,-257.95 892,-257 1087.53,-227.02 1695.08,-212.09 1899.27,-207.82"/>
<polygon fill="midnightblue" stroke="midnightblue" points="872.04,-257.26 863.11,-262.96 873.65,-264.07 872.04,-257.26"/>
</g>
<!-- Node22&#45;&gt;Node3 -->
<g id="edge36" class="edge">
<title>Node22&#45;&gt;Node3</title>
<path fill="none" stroke="midnightblue" d="M1049.37,-260.98C1057.3,-259.44 1065.31,-258.06 1073,-257 1379.44,-214.58 1749.67,-207.6 1899.35,-206.59"/>
<polygon fill="midnightblue" stroke="midnightblue" points="1048.5,-257.58 1039.4,-263 1049.89,-264.45 1048.5,-257.58"/>
</g>
<!-- Node23&#45;&gt;Node3 -->
<g id="edge38" class="edge">
<title>Node23&#45;&gt;Node3</title>
<path fill="none" stroke="midnightblue" d="M1208.03,-260.53C1214.07,-259.18 1220.13,-257.96 1226,-257 1471.74,-216.67 1768.42,-208.45 1899.33,-206.84"/>
<polygon fill="midnightblue" stroke="midnightblue" points="1206.87,-257.21 1197.95,-262.91 1208.49,-264.02 1206.87,-257.21"/>
</g>
<!-- Node24&#45;&gt;Node3 -->
<g id="edge40" class="edge">
<title>Node24&#45;&gt;Node3</title>
<path fill="none" stroke="midnightblue" d="M1362.09,-260.58C1368.11,-259.23 1374.16,-258 1380,-257 1566.25,-225.03 1789.4,-212.91 1899.18,-208.63"/>
<polygon fill="midnightblue" stroke="midnightblue" points="1360.96,-257.25 1352.02,-262.95 1362.56,-264.07 1360.96,-257.25"/>
</g>
<!-- Node25&#45;&gt;Node3 -->
<g id="edge42" class="edge">
<title>Node25&#45;&gt;Node3</title>
<path fill="none" stroke="midnightblue" d="M1565.74,-261.16C1573.93,-259.69 1582.12,-258.28 1590,-257 1697.88,-239.51 1823.84,-223.53 1899.41,-214.42"/>
<polygon fill="midnightblue" stroke="midnightblue" points="1565,-257.73 1555.79,-262.97 1566.25,-264.62 1565,-257.73"/>
</g>
<!-- Node26&#45;&gt;Node3 -->
<g id="edge44" class="edge">
<title>Node26&#45;&gt;Node3</title>
<path fill="none" stroke="midnightblue" d="M1754.95,-260.47C1802.52,-248.36 1866.4,-232.1 1911.57,-220.61"/>
<polygon fill="midnightblue" stroke="midnightblue" points="1753.89,-257.13 1745.06,-262.99 1755.61,-263.91 1753.89,-257.13"/>
</g>
<!-- Node27&#45;&gt;Node3 -->
<g id="edge46" class="edge">
<title>Node27&#45;&gt;Node3</title>
<path fill="none" stroke="midnightblue" d="M1906.97,-256.29C1920.86,-244.77 1937.78,-230.73 1950.11,-220.5"/>
<polygon fill="midnightblue" stroke="midnightblue" points="1904.66,-253.66 1899.2,-262.73 1909.13,-259.04 1904.66,-253.66"/>
</g>
<!-- Node28&#45;&gt;Node3 -->
<g id="edge48" class="edge">
<title>Node28&#45;&gt;Node3</title>
<path fill="none" stroke="midnightblue" d="M2027.03,-256.29C2013.14,-244.77 1996.22,-230.73 1983.89,-220.5"/>
<polygon fill="midnightblue" stroke="midnightblue" points="2024.87,-259.04 2034.8,-262.73 2029.34,-253.66 2024.87,-259.04"/>
</g>
<!-- Node29&#45;&gt;Node3 -->
<g id="edge50" class="edge">
<title>Node29&#45;&gt;Node3</title>
<path fill="none" stroke="midnightblue" d="M2148.84,-254.88C2106.72,-243.67 2056.84,-230.4 2019.99,-220.6"/>
<polygon fill="midnightblue" stroke="midnightblue" points="2147.97,-258.27 2158.53,-257.46 2149.77,-251.5 2147.97,-258.27"/>
</g>
<!-- Node30&#45;&gt;Node3 -->
<g id="edge52" class="edge">
<title>Node30&#45;&gt;Node3</title>
<path fill="none" stroke="midnightblue" d="M2361.22,-261.26C2352.37,-259.78 2343.51,-258.33 2335,-257 2230.35,-240.65 2108.5,-224.49 2034.6,-215.01"/>
<polygon fill="midnightblue" stroke="midnightblue" points="2360.74,-264.73 2371.18,-262.95 2361.91,-257.83 2360.74,-264.73"/>
</g>
<!-- Node31&#45;&gt;Node3 -->
<g id="edge54" class="edge">
<title>Node31&#45;&gt;Node3</title>
<path fill="none" stroke="midnightblue" d="M2581.82,-260.69C2575.49,-259.3 2569.13,-258.03 2563,-257 2373.28,-225.17 2146.04,-212.96 2034.93,-208.65"/>
<polygon fill="midnightblue" stroke="midnightblue" points="2581.16,-264.13 2591.69,-262.96 2582.73,-257.3 2581.16,-264.13"/>
</g>
<!-- Node32&#45;&gt;Node3 -->
<g id="edge56" class="edge">
<title>Node32&#45;&gt;Node3</title>
<path fill="none" stroke="midnightblue" d="M2741.35,-260.64C2734.85,-259.25 2728.31,-257.99 2722,-257 2470.56,-217.48 2167.25,-208.86 2034.61,-207"/>
<polygon fill="midnightblue" stroke="midnightblue" points="2740.97,-264.14 2751.49,-262.93 2742.51,-257.31 2740.97,-264.14"/>
</g>
<!-- Node33&#45;&gt;Node3 -->
<g id="edge58" class="edge">
<title>Node33&#45;&gt;Node3</title>
<path fill="none" stroke="midnightblue" d="M2881.97,-256.97C2559.53,-217.37 2185.03,-208.89 2034.51,-207.03"/>
<polygon fill="midnightblue" stroke="midnightblue" points="2881.62,-260.45 2891.97,-258.21 2882.48,-253.5 2881.62,-260.45"/>
</g>
</g>
</svg>
