<?xml version="1.0" encoding="UTF-8" standalone="no"?>
<!DOCTYPE svg PUBLIC "-//W3C//DTD SVG 1.1//EN"
 "http://www.w3.org/Graphics/SVG/1.1/DTD/svg11.dtd">
<!-- Generated by graphviz version 2.43.0 (0)
 -->
<!-- Title: src/backends/reference/workloads/TransposeConvolution2d.cpp Pages: 1 -->
<svg width="1617pt" height="554pt"
 viewBox="0.00 0.00 1616.50 554.00" xmlns="http://www.w3.org/2000/svg" xmlns:xlink="http://www.w3.org/1999/xlink">
<g id="graph0" class="graph" transform="scale(1 1) rotate(0) translate(4 550)">
<title>src/backends/reference/workloads/TransposeConvolution2d.cpp</title>
<polygon fill="white" stroke="transparent" points="-4,4 -4,-550 1612.5,-550 1612.5,4 -4,4"/>
<!-- Node1 -->
<g id="node1" class="node">
<title>Node1</title>
<g id="a_node1"><a xlink:title=" ">
<polygon fill="#bfbfbf" stroke="black" points="745.5,-515.5 745.5,-545.5 957.5,-545.5 957.5,-515.5 745.5,-515.5"/>
<text text-anchor="start" x="753.5" y="-533.5" font-family="Helvetica,sans-Serif" font-size="10.00">src/backends/reference</text>
<text text-anchor="middle" x="851.5" y="-522.5" font-family="Helvetica,sans-Serif" font-size="10.00">/workloads/TransposeConvolution2d.cpp</text>
</a>
</g>
</g>
<!-- Node2 -->
<g id="node2" class="node">
<title>Node2</title>
<g id="a_node2"><a xlink:href="_transpose_convolution2d_8hpp.html" target="_top" xlink:title=" ">
<polygon fill="white" stroke="black" points="829,-459.5 829,-478.5 986,-478.5 986,-459.5 829,-459.5"/>
<text text-anchor="middle" x="907.5" y="-466.5" font-family="Helvetica,sans-Serif" font-size="10.00">TransposeConvolution2d.hpp</text>
</a>
</g>
</g>
<!-- Node1&#45;&gt;Node2 -->
<g id="edge1" class="edge">
<title>Node1&#45;&gt;Node2</title>
<path fill="none" stroke="midnightblue" d="M864.77,-515.4C873.08,-506.58 883.8,-495.18 892.42,-486.02"/>
<polygon fill="midnightblue" stroke="midnightblue" points="895.05,-488.34 899.35,-478.66 889.95,-483.54 895.05,-488.34"/>
</g>
<!-- Node45 -->
<g id="node45" class="node">
<title>Node45</title>
<g id="a_node45"><a xlink:href="_data_layout_indexed_8hpp.html" target="_top" xlink:title=" ">
<polygon fill="white" stroke="black" points="703,-224.5 703,-243.5 892,-243.5 892,-224.5 703,-224.5"/>
<text text-anchor="middle" x="797.5" y="-231.5" font-family="Helvetica,sans-Serif" font-size="10.00">armnnUtils/DataLayoutIndexed.hpp</text>
</a>
</g>
</g>
<!-- Node1&#45;&gt;Node45 -->
<g id="edge81" class="edge">
<title>Node1&#45;&gt;Node45</title>
<path fill="none" stroke="midnightblue" d="M840,-515.16C824.41,-494.23 798.5,-453.49 798.5,-414 798.5,-414 798.5,-414 798.5,-356 798.5,-319.71 798.04,-277.31 797.75,-253.56"/>
<polygon fill="midnightblue" stroke="midnightblue" points="801.25,-253.46 797.62,-243.51 794.25,-253.55 801.25,-253.46"/>
</g>
<!-- Node3 -->
<g id="node3" class="node">
<title>Node3</title>
<g id="a_node3"><a xlink:href="_decoders_8hpp.html" target="_top" xlink:title=" ">
<polygon fill="white" stroke="black" points="627,-403.5 627,-422.5 710,-422.5 710,-403.5 627,-403.5"/>
<text text-anchor="middle" x="668.5" y="-410.5" font-family="Helvetica,sans-Serif" font-size="10.00">Decoders.hpp</text>
</a>
</g>
</g>
<!-- Node2&#45;&gt;Node3 -->
<g id="edge2" class="edge">
<title>Node2&#45;&gt;Node3</title>
<path fill="none" stroke="midnightblue" d="M869.63,-459.44C828.02,-450.04 761.13,-434.93 716.03,-424.74"/>
<polygon fill="midnightblue" stroke="midnightblue" points="716.72,-421.31 706.19,-422.52 715.18,-428.13 716.72,-421.31"/>
</g>
<!-- Node16 -->
<g id="node16" class="node">
<title>Node16</title>
<g id="a_node16"><a xlink:href="_tensor_8hpp.html" target="_top" xlink:title=" ">
<polygon fill="white" stroke="black" points="949,-168.5 949,-187.5 1052,-187.5 1052,-168.5 949,-168.5"/>
<text text-anchor="middle" x="1000.5" y="-175.5" font-family="Helvetica,sans-Serif" font-size="10.00">armnn/Tensor.hpp</text>
</a>
</g>
</g>
<!-- Node2&#45;&gt;Node16 -->
<g id="edge80" class="edge">
<title>Node2&#45;&gt;Node16</title>
<path fill="none" stroke="midnightblue" d="M986.29,-465.1C1059.23,-457.68 1156.5,-433.62 1156.5,-358 1156.5,-358 1156.5,-358 1156.5,-294.5 1156.5,-238.15 1089.93,-206.13 1043.76,-190.7"/>
<polygon fill="midnightblue" stroke="midnightblue" points="1044.56,-187.28 1033.97,-187.57 1042.43,-193.95 1044.56,-187.28"/>
</g>
<!-- Node40 -->
<g id="node40" class="node">
<title>Node40</title>
<g id="a_node40"><a xlink:href="_encoders_8hpp.html" target="_top" xlink:title=" ">
<polygon fill="white" stroke="black" points="866.5,-403.5 866.5,-422.5 948.5,-422.5 948.5,-403.5 866.5,-403.5"/>
<text text-anchor="middle" x="907.5" y="-410.5" font-family="Helvetica,sans-Serif" font-size="10.00">Encoders.hpp</text>
</a>
</g>
</g>
<!-- Node2&#45;&gt;Node40 -->
<g id="edge67" class="edge">
<title>Node2&#45;&gt;Node40</title>
<path fill="none" stroke="midnightblue" d="M907.5,-459.08C907.5,-452.01 907.5,-441.86 907.5,-432.99"/>
<polygon fill="midnightblue" stroke="midnightblue" points="911,-432.75 907.5,-422.75 904,-432.75 911,-432.75"/>
</g>
<!-- Node41 -->
<g id="node41" class="node">
<title>Node41</title>
<g id="a_node41"><a xlink:href="_descriptors_8hpp.html" target="_top" xlink:title=" ">
<polygon fill="white" stroke="black" points="1190.5,-224.5 1190.5,-243.5 1318.5,-243.5 1318.5,-224.5 1190.5,-224.5"/>
<text text-anchor="middle" x="1254.5" y="-231.5" font-family="Helvetica,sans-Serif" font-size="10.00">armnn/Descriptors.hpp</text>
</a>
</g>
</g>
<!-- Node2&#45;&gt;Node41 -->
<g id="edge70" class="edge">
<title>Node2&#45;&gt;Node41</title>
<path fill="none" stroke="midnightblue" d="M986.06,-462.68C1052.87,-456.71 1142.32,-444.87 1170.5,-423 1225.78,-380.09 1245.63,-292.88 1251.92,-254.21"/>
<polygon fill="midnightblue" stroke="midnightblue" points="1255.45,-254.27 1253.46,-243.87 1248.52,-253.24 1255.45,-254.27"/>
</g>
<!-- Node4 -->
<g id="node4" class="node">
<title>Node4</title>
<g id="a_node4"><a xlink:href="_base_iterator_8hpp.html" target="_top" xlink:title=" ">
<polygon fill="white" stroke="black" points="575,-347.5 575,-366.5 672,-366.5 672,-347.5 575,-347.5"/>
<text text-anchor="middle" x="623.5" y="-354.5" font-family="Helvetica,sans-Serif" font-size="10.00">BaseIterator.hpp</text>
</a>
</g>
</g>
<!-- Node3&#45;&gt;Node4 -->
<g id="edge3" class="edge">
<title>Node3&#45;&gt;Node4</title>
<path fill="none" stroke="midnightblue" d="M661.07,-403.08C654.65,-395.38 645.19,-384.03 637.38,-374.65"/>
<polygon fill="midnightblue" stroke="midnightblue" points="639.88,-372.19 630.79,-366.75 634.51,-376.67 639.88,-372.19"/>
</g>
<!-- Node33 -->
<g id="node33" class="node">
<title>Node33</title>
<g id="a_node33"><a xlink:href="_floating_point_converter_8hpp.html" target="_top" xlink:title=" ">
<polygon fill="white" stroke="black" points="330.5,-280.5 330.5,-310.5 468.5,-310.5 468.5,-280.5 330.5,-280.5"/>
<text text-anchor="start" x="338.5" y="-298.5" font-family="Helvetica,sans-Serif" font-size="10.00">armnnUtils/FloatingPoint</text>
<text text-anchor="middle" x="399.5" y="-287.5" font-family="Helvetica,sans-Serif" font-size="10.00">Converter.hpp</text>
</a>
</g>
</g>
<!-- Node3&#45;&gt;Node33 -->
<g id="edge65" class="edge">
<title>Node3&#45;&gt;Node33</title>
<path fill="none" stroke="midnightblue" d="M648.28,-403.32C604.53,-384.53 500.3,-339.78 441.58,-314.57"/>
<polygon fill="midnightblue" stroke="midnightblue" points="442.78,-311.27 432.21,-310.55 440.02,-317.71 442.78,-311.27"/>
</g>
<!-- Node35 -->
<g id="node35" class="node">
<title>Node35</title>
<g id="a_node35"><a xlink:href="_tensor_utils_8hpp.html" target="_top" xlink:title=" ">
<polygon fill="white" stroke="black" points="842,-286 842,-305 991,-305 991,-286 842,-286"/>
<text text-anchor="middle" x="916.5" y="-293" font-family="Helvetica,sans-Serif" font-size="10.00">armnnUtils/TensorUtils.hpp</text>
</a>
</g>
</g>
<!-- Node3&#45;&gt;Node35 -->
<g id="edge66" class="edge">
<title>Node3&#45;&gt;Node35</title>
<path fill="none" stroke="midnightblue" d="M687.14,-403.32C730.42,-383.16 837.92,-333.1 888.87,-309.37"/>
<polygon fill="midnightblue" stroke="midnightblue" points="890.39,-312.52 897.98,-305.12 887.44,-306.17 890.39,-312.52"/>
</g>
<!-- Node5 -->
<g id="node5" class="node">
<title>Node5</title>
<g id="a_node5"><a xlink:href="_types_utils_8hpp.html" target="_top" xlink:title=" ">
<polygon fill="white" stroke="black" points="562.5,-224.5 562.5,-243.5 684.5,-243.5 684.5,-224.5 562.5,-224.5"/>
<text text-anchor="middle" x="623.5" y="-231.5" font-family="Helvetica,sans-Serif" font-size="10.00">armnn/TypesUtils.hpp</text>
</a>
</g>
</g>
<!-- Node4&#45;&gt;Node5 -->
<g id="edge4" class="edge">
<title>Node4&#45;&gt;Node5</title>
<path fill="none" stroke="midnightblue" d="M623.5,-347.3C623.5,-327.85 623.5,-280.49 623.5,-253.9"/>
<polygon fill="midnightblue" stroke="midnightblue" points="627,-253.62 623.5,-243.62 620,-253.62 627,-253.62"/>
</g>
<!-- Node29 -->
<g id="node29" class="node">
<title>Node29</title>
<g id="a_node29"><a xlink:href="_numeric_cast_8hpp.html" target="_top" xlink:title=" ">
<polygon fill="white" stroke="black" points="71,-224.5 71,-243.5 238,-243.5 238,-224.5 71,-224.5"/>
<text text-anchor="middle" x="154.5" y="-231.5" font-family="Helvetica,sans-Serif" font-size="10.00">armnn/utility/NumericCast.hpp</text>
</a>
</g>
</g>
<!-- Node4&#45;&gt;Node29 -->
<g id="edge41" class="edge">
<title>Node4&#45;&gt;Node29</title>
<path fill="none" stroke="midnightblue" d="M599.91,-347.35C578.58,-339.15 546.61,-325.89 520.5,-311 500.03,-299.33 499.37,-288.77 477.5,-280 404.03,-250.52 314.46,-239.82 248.29,-236.18"/>
<polygon fill="midnightblue" stroke="midnightblue" points="248.46,-232.68 238.29,-235.67 248.1,-239.67 248.46,-232.68"/>
</g>
<!-- Node4&#45;&gt;Node33 -->
<g id="edge46" class="edge">
<title>Node4&#45;&gt;Node33</title>
<path fill="none" stroke="midnightblue" d="M591.41,-347.48C557.81,-338.55 504.19,-324.31 462.16,-313.14"/>
<polygon fill="midnightblue" stroke="midnightblue" points="462.86,-309.71 452.29,-310.52 461.06,-316.47 462.86,-309.71"/>
</g>
<!-- Node4&#45;&gt;Node35 -->
<g id="edge48" class="edge">
<title>Node4&#45;&gt;Node35</title>
<path fill="none" stroke="midnightblue" d="M665.48,-347.48C718.02,-336.8 808,-318.53 864.75,-307.01"/>
<polygon fill="midnightblue" stroke="midnightblue" points="865.49,-310.43 874.6,-305.01 864.1,-303.57 865.49,-310.43"/>
</g>
<!-- Node36 -->
<g id="node36" class="node">
<title>Node36</title>
<g id="a_node36"><a xlink:href="_resolve_type_8hpp.html" target="_top" xlink:title=" ">
<polygon fill="white" stroke="black" points="356,-168.5 356,-187.5 455,-187.5 455,-168.5 356,-168.5"/>
<text text-anchor="middle" x="405.5" y="-175.5" font-family="Helvetica,sans-Serif" font-size="10.00">ResolveType.hpp</text>
</a>
</g>
</g>
<!-- Node4&#45;&gt;Node36 -->
<g id="edge55" class="edge">
<title>Node4&#45;&gt;Node36</title>
<path fill="none" stroke="midnightblue" d="M612.99,-347.46C578.46,-319.43 468.25,-229.95 424.08,-194.08"/>
<polygon fill="midnightblue" stroke="midnightblue" points="426.13,-191.24 416.16,-187.66 421.72,-196.68 426.13,-191.24"/>
</g>
<!-- Node6 -->
<g id="node6" class="node">
<title>Node6</title>
<g id="a_node6"><a xlink:href="_backend_id_8hpp.html" target="_top" xlink:title=" ">
<polygon fill="white" stroke="black" points="708.5,-56.5 708.5,-75.5 830.5,-75.5 830.5,-56.5 708.5,-56.5"/>
<text text-anchor="middle" x="769.5" y="-63.5" font-family="Helvetica,sans-Serif" font-size="10.00">armnn/BackendId.hpp</text>
</a>
</g>
</g>
<!-- Node5&#45;&gt;Node6 -->
<g id="edge5" class="edge">
<title>Node5&#45;&gt;Node6</title>
<path fill="none" stroke="midnightblue" d="M633.55,-224.43C652.82,-207.76 695.74,-169.28 726.5,-132 738.97,-116.88 751.1,-98.06 759.27,-84.57"/>
<polygon fill="midnightblue" stroke="midnightblue" points="762.38,-86.2 764.48,-75.82 756.36,-82.62 762.38,-86.2"/>
</g>
<!-- Node8 -->
<g id="node8" class="node">
<title>Node8</title>
<g id="a_node8"><a xlink:title=" ">
<polygon fill="white" stroke="#bfbfbf" points="512,-0.5 512,-19.5 569,-19.5 569,-0.5 512,-0.5"/>
<text text-anchor="middle" x="540.5" y="-7.5" font-family="Helvetica,sans-Serif" font-size="10.00">ostream</text>
</a>
</g>
</g>
<!-- Node5&#45;&gt;Node8 -->
<g id="edge38" class="edge">
<title>Node5&#45;&gt;Node8</title>
<path fill="none" stroke="midnightblue" d="M562.3,-230.25C487.01,-225.77 364.69,-214.54 328.5,-188 283.78,-155.2 286.05,-130.02 273.5,-76 271.49,-67.34 267.76,-62.79 273.5,-56 302.24,-22.01 434.56,-13.68 501.49,-11.65"/>
<polygon fill="midnightblue" stroke="midnightblue" points="501.75,-15.15 511.65,-11.38 501.56,-8.15 501.75,-15.15"/>
</g>
<!-- Node9 -->
<g id="node9" class="node">
<title>Node9</title>
<g id="a_node9"><a xlink:title=" ">
<polygon fill="white" stroke="#bfbfbf" points="331.5,-0.5 331.5,-19.5 363.5,-19.5 363.5,-0.5 331.5,-0.5"/>
<text text-anchor="middle" x="347.5" y="-7.5" font-family="Helvetica,sans-Serif" font-size="10.00">set</text>
</a>
</g>
</g>
<!-- Node5&#45;&gt;Node9 -->
<g id="edge39" class="edge">
<title>Node5&#45;&gt;Node9</title>
<path fill="none" stroke="midnightblue" d="M562.28,-231.24C481.09,-227.76 343.39,-217.57 303.5,-188 254.55,-151.72 235.6,-108.51 266.5,-56 278.33,-35.9 302.73,-24.14 321.67,-17.71"/>
<polygon fill="midnightblue" stroke="midnightblue" points="322.74,-21.05 331.25,-14.75 320.67,-14.36 322.74,-21.05"/>
</g>
<!-- Node13 -->
<g id="node13" class="node">
<title>Node13</title>
<g id="a_node13"><a xlink:href="_exceptions_8hpp.html" target="_top" xlink:title=" ">
<polygon fill="white" stroke="black" points="1001,-56.5 1001,-75.5 1126,-75.5 1126,-56.5 1001,-56.5"/>
<text text-anchor="middle" x="1063.5" y="-63.5" font-family="Helvetica,sans-Serif" font-size="10.00">armnn/Exceptions.hpp</text>
</a>
</g>
</g>
<!-- Node5&#45;&gt;Node13 -->
<g id="edge12" class="edge">
<title>Node5&#45;&gt;Node13</title>
<path fill="none" stroke="midnightblue" d="M637.66,-224.39C678.91,-199.41 798.76,-127.77 841.5,-112 870.42,-101.33 947.15,-86.86 1002.3,-77.24"/>
<polygon fill="midnightblue" stroke="midnightblue" points="1003.08,-80.66 1012.33,-75.5 1001.88,-73.76 1003.08,-80.66"/>
</g>
<!-- Node5&#45;&gt;Node16 -->
<g id="edge16" class="edge">
<title>Node5&#45;&gt;Node16</title>
<path fill="none" stroke="midnightblue" d="M683.24,-224.44C753.09,-214.44 868.14,-197.96 938.82,-187.83"/>
<polygon fill="midnightblue" stroke="midnightblue" points="939.52,-191.27 948.92,-186.39 938.52,-184.34 939.52,-191.27"/>
</g>
<!-- Node19 -->
<g id="node19" class="node">
<title>Node19</title>
<g id="a_node19"><a xlink:title=" ">
<polygon fill="white" stroke="#bfbfbf" points="283,-56.5 283,-75.5 352,-75.5 352,-56.5 283,-56.5"/>
<text text-anchor="middle" x="317.5" y="-63.5" font-family="Helvetica,sans-Serif" font-size="10.00">type_traits</text>
</a>
</g>
</g>
<!-- Node5&#45;&gt;Node19 -->
<g id="edge40" class="edge">
<title>Node5&#45;&gt;Node19</title>
<path fill="none" stroke="midnightblue" d="M562.26,-230.79C490.36,-226.9 377.03,-216.34 346.5,-188 318.09,-161.63 315.26,-112.77 316.11,-85.91"/>
<polygon fill="midnightblue" stroke="midnightblue" points="319.62,-85.75 316.65,-75.58 312.63,-85.38 319.62,-85.75"/>
</g>
<!-- Node20 -->
<g id="node20" class="node">
<title>Node20</title>
<g id="a_node20"><a xlink:href="_types_8hpp.html" target="_top" xlink:title=" ">
<polygon fill="white" stroke="black" points="850,-112.5 850,-131.5 915,-131.5 915,-112.5 850,-112.5"/>
<text text-anchor="middle" x="882.5" y="-119.5" font-family="Helvetica,sans-Serif" font-size="10.00">Types.hpp</text>
</a>
</g>
</g>
<!-- Node5&#45;&gt;Node20 -->
<g id="edge35" class="edge">
<title>Node5&#45;&gt;Node20</title>
<path fill="none" stroke="midnightblue" d="M676.47,-224.45C726.13,-215.8 796.25,-201.78 820.5,-188 841.38,-176.13 859.58,-155.01 870.77,-140.07"/>
<polygon fill="midnightblue" stroke="midnightblue" points="873.79,-141.87 876.78,-131.71 868.1,-137.78 873.79,-141.87"/>
</g>
<!-- Node23 -->
<g id="node23" class="node">
<title>Node23</title>
<g id="a_node23"><a xlink:title=" ">
<polygon fill="white" stroke="#bfbfbf" points="637,-56.5 637,-75.5 690,-75.5 690,-56.5 637,-56.5"/>
<text text-anchor="middle" x="663.5" y="-63.5" font-family="Helvetica,sans-Serif" font-size="10.00">stdint.h</text>
</a>
</g>
</g>
<!-- Node5&#45;&gt;Node23 -->
<g id="edge36" class="edge">
<title>Node5&#45;&gt;Node23</title>
<path fill="none" stroke="midnightblue" d="M622.25,-224.45C619.65,-204.18 615,-151.94 629.5,-112 633.37,-101.34 640.69,-91.12 647.56,-83.12"/>
<polygon fill="midnightblue" stroke="midnightblue" points="650.21,-85.4 654.38,-75.66 645.04,-80.68 650.21,-85.4"/>
</g>
<!-- Node28 -->
<g id="node28" class="node">
<title>Node28</title>
<g id="a_node28"><a xlink:title=" ">
<polygon fill="white" stroke="#bfbfbf" points="465,-56.5 465,-75.5 512,-75.5 512,-56.5 465,-56.5"/>
<text text-anchor="middle" x="488.5" y="-63.5" font-family="Helvetica,sans-Serif" font-size="10.00">cmath</text>
</a>
</g>
</g>
<!-- Node5&#45;&gt;Node28 -->
<g id="edge37" class="edge">
<title>Node5&#45;&gt;Node28</title>
<path fill="none" stroke="midnightblue" d="M602.9,-224.43C572.02,-210.34 514.75,-179.03 490.5,-132 483.14,-117.73 483.34,-99.26 484.97,-85.66"/>
<polygon fill="midnightblue" stroke="midnightblue" points="488.46,-86 486.54,-75.58 481.55,-84.92 488.46,-86"/>
</g>
<!-- Node7 -->
<g id="node7" class="node">
<title>Node7</title>
<g id="a_node7"><a xlink:title=" ">
<polygon fill="white" stroke="#bfbfbf" points="759.5,-0.5 759.5,-19.5 817.5,-19.5 817.5,-0.5 759.5,-0.5"/>
<text text-anchor="middle" x="788.5" y="-7.5" font-family="Helvetica,sans-Serif" font-size="10.00">memory</text>
</a>
</g>
</g>
<!-- Node6&#45;&gt;Node7 -->
<g id="edge6" class="edge">
<title>Node6&#45;&gt;Node7</title>
<path fill="none" stroke="midnightblue" d="M772.64,-56.08C775.18,-48.85 778.86,-38.41 782.03,-29.4"/>
<polygon fill="midnightblue" stroke="midnightblue" points="785.4,-30.35 785.42,-19.75 778.8,-28.02 785.4,-30.35"/>
</g>
<!-- Node6&#45;&gt;Node8 -->
<g id="edge7" class="edge">
<title>Node6&#45;&gt;Node8</title>
<path fill="none" stroke="midnightblue" d="M733.21,-56.44C691.07,-46.5 621.83,-30.18 578.83,-20.04"/>
<polygon fill="midnightblue" stroke="midnightblue" points="579.56,-16.61 569.02,-17.73 577.95,-23.43 579.56,-16.61"/>
</g>
<!-- Node6&#45;&gt;Node9 -->
<g id="edge8" class="edge">
<title>Node6&#45;&gt;Node9</title>
<path fill="none" stroke="midnightblue" d="M708.42,-57.14C705.4,-56.76 702.42,-56.37 699.5,-56 577.79,-40.4 432.41,-21.83 373.85,-14.36"/>
<polygon fill="midnightblue" stroke="midnightblue" points="374,-10.85 363.64,-13.06 373.12,-17.8 374,-10.85"/>
</g>
<!-- Node10 -->
<g id="node10" class="node">
<title>Node10</title>
<g id="a_node10"><a xlink:title=" ">
<polygon fill="white" stroke="#bfbfbf" points="894.5,-0.5 894.5,-19.5 938.5,-19.5 938.5,-0.5 894.5,-0.5"/>
<text text-anchor="middle" x="916.5" y="-7.5" font-family="Helvetica,sans-Serif" font-size="10.00">string</text>
</a>
</g>
</g>
<!-- Node6&#45;&gt;Node10 -->
<g id="edge9" class="edge">
<title>Node6&#45;&gt;Node10</title>
<path fill="none" stroke="midnightblue" d="M792.79,-56.44C817.6,-47.33 857.01,-32.85 884.67,-22.69"/>
<polygon fill="midnightblue" stroke="midnightblue" points="886.1,-25.9 894.28,-19.16 883.69,-19.33 886.1,-25.9"/>
</g>
<!-- Node11 -->
<g id="node11" class="node">
<title>Node11</title>
<g id="a_node11"><a xlink:title=" ">
<polygon fill="white" stroke="#bfbfbf" points="655.5,-0.5 655.5,-19.5 741.5,-19.5 741.5,-0.5 655.5,-0.5"/>
<text text-anchor="middle" x="698.5" y="-7.5" font-family="Helvetica,sans-Serif" font-size="10.00">unordered_set</text>
</a>
</g>
</g>
<!-- Node6&#45;&gt;Node11 -->
<g id="edge10" class="edge">
<title>Node6&#45;&gt;Node11</title>
<path fill="none" stroke="midnightblue" d="M758.09,-56.32C747.39,-48.18 731.16,-35.84 718.34,-26.09"/>
<polygon fill="midnightblue" stroke="midnightblue" points="720.19,-23.1 710.11,-19.83 715.96,-28.67 720.19,-23.1"/>
</g>
<!-- Node12 -->
<g id="node12" class="node">
<title>Node12</title>
<g id="a_node12"><a xlink:title=" ">
<polygon fill="white" stroke="#bfbfbf" points="1359,-0.5 1359,-19.5 1406,-19.5 1406,-0.5 1359,-0.5"/>
<text text-anchor="middle" x="1382.5" y="-7.5" font-family="Helvetica,sans-Serif" font-size="10.00">vector</text>
</a>
</g>
</g>
<!-- Node6&#45;&gt;Node12 -->
<g id="edge11" class="edge">
<title>Node6&#45;&gt;Node12</title>
<path fill="none" stroke="midnightblue" d="M830.67,-57.08C833.99,-56.7 837.29,-56.34 840.5,-56 1032.54,-35.87 1263.64,-19.18 1348.84,-13.29"/>
<polygon fill="midnightblue" stroke="midnightblue" points="1349.22,-16.77 1358.96,-12.59 1348.74,-9.78 1349.22,-16.77"/>
</g>
<!-- Node13&#45;&gt;Node10 -->
<g id="edge15" class="edge">
<title>Node13&#45;&gt;Node10</title>
<path fill="none" stroke="midnightblue" d="M1040.21,-56.44C1015.4,-47.33 975.99,-32.85 948.33,-22.69"/>
<polygon fill="midnightblue" stroke="midnightblue" points="949.31,-19.33 938.72,-19.16 946.9,-25.9 949.31,-19.33"/>
</g>
<!-- Node14 -->
<g id="node14" class="node">
<title>Node14</title>
<g id="a_node14"><a xlink:title=" ">
<polygon fill="white" stroke="#bfbfbf" points="995.5,-0.5 995.5,-19.5 1051.5,-19.5 1051.5,-0.5 995.5,-0.5"/>
<text text-anchor="middle" x="1023.5" y="-7.5" font-family="Helvetica,sans-Serif" font-size="10.00">sstream</text>
</a>
</g>
</g>
<!-- Node13&#45;&gt;Node14 -->
<g id="edge13" class="edge">
<title>Node13&#45;&gt;Node14</title>
<path fill="none" stroke="midnightblue" d="M1056.89,-56.08C1051.24,-48.46 1042.96,-37.26 1036.05,-27.94"/>
<polygon fill="midnightblue" stroke="midnightblue" points="1038.75,-25.7 1029.98,-19.75 1033.12,-29.87 1038.75,-25.7"/>
</g>
<!-- Node15 -->
<g id="node15" class="node">
<title>Node15</title>
<g id="a_node15"><a xlink:title=" ">
<polygon fill="white" stroke="#bfbfbf" points="1070,-0.5 1070,-19.5 1135,-19.5 1135,-0.5 1070,-0.5"/>
<text text-anchor="middle" x="1102.5" y="-7.5" font-family="Helvetica,sans-Serif" font-size="10.00">stdexcept</text>
</a>
</g>
</g>
<!-- Node13&#45;&gt;Node15 -->
<g id="edge14" class="edge">
<title>Node13&#45;&gt;Node15</title>
<path fill="none" stroke="midnightblue" d="M1069.94,-56.08C1075.45,-48.46 1083.53,-37.26 1090.26,-27.94"/>
<polygon fill="midnightblue" stroke="midnightblue" points="1093.16,-29.91 1096.18,-19.75 1087.49,-25.81 1093.16,-29.91"/>
</g>
<!-- Node16&#45;&gt;Node12 -->
<g id="edge33" class="edge">
<title>Node16&#45;&gt;Node12</title>
<path fill="none" stroke="midnightblue" d="M1018.88,-168.4C1056.15,-150.98 1137.37,-113.05 1140.5,-112 1212.49,-87.86 1239.57,-109.93 1307.5,-76 1331.69,-63.92 1354.41,-42.22 1368.37,-27.24"/>
<polygon fill="midnightblue" stroke="midnightblue" points="1371.06,-29.47 1375.17,-19.71 1365.87,-24.78 1371.06,-29.47"/>
</g>
<!-- Node16&#45;&gt;Node13 -->
<g id="edge17" class="edge">
<title>Node16&#45;&gt;Node13</title>
<path fill="none" stroke="midnightblue" d="M1005.44,-168.37C1015.79,-150.3 1039.92,-108.18 1053.59,-84.31"/>
<polygon fill="midnightblue" stroke="midnightblue" points="1056.65,-86.01 1058.58,-75.59 1050.57,-82.53 1056.65,-86.01"/>
</g>
<!-- Node17 -->
<g id="node17" class="node">
<title>Node17</title>
<g id="a_node17"><a xlink:href="_optional_8hpp.html" target="_top" xlink:title=" ">
<polygon fill="white" stroke="black" points="638,-112.5 638,-131.5 717,-131.5 717,-112.5 638,-112.5"/>
<text text-anchor="middle" x="677.5" y="-119.5" font-family="Helvetica,sans-Serif" font-size="10.00">Optional.hpp</text>
</a>
</g>
</g>
<!-- Node16&#45;&gt;Node17 -->
<g id="edge18" class="edge">
<title>Node16&#45;&gt;Node17</title>
<path fill="none" stroke="midnightblue" d="M949.32,-168.44C888.45,-158.27 787.52,-141.39 727.27,-131.32"/>
<polygon fill="midnightblue" stroke="midnightblue" points="727.68,-127.84 717.24,-129.64 726.53,-134.74 727.68,-127.84"/>
</g>
<!-- Node16&#45;&gt;Node20 -->
<g id="edge22" class="edge">
<title>Node16&#45;&gt;Node20</title>
<path fill="none" stroke="midnightblue" d="M981.8,-168.44C962.56,-159.64 932.35,-145.81 910.3,-135.72"/>
<polygon fill="midnightblue" stroke="midnightblue" points="911.66,-132.5 901.11,-131.52 908.75,-138.86 911.66,-132.5"/>
</g>
<!-- Node21 -->
<g id="node21" class="node">
<title>Node21</title>
<g id="a_node21"><a xlink:title=" ">
<polygon fill="white" stroke="#bfbfbf" points="1144.5,-56.5 1144.5,-75.5 1186.5,-75.5 1186.5,-56.5 1144.5,-56.5"/>
<text text-anchor="middle" x="1165.5" y="-63.5" font-family="Helvetica,sans-Serif" font-size="10.00">array</text>
</a>
</g>
</g>
<!-- Node16&#45;&gt;Node21 -->
<g id="edge31" class="edge">
<title>Node16&#45;&gt;Node21</title>
<path fill="none" stroke="midnightblue" d="M1013.45,-168.37C1041.76,-149.49 1109.42,-104.38 1144.14,-81.24"/>
<polygon fill="midnightblue" stroke="midnightblue" points="1146.23,-84.05 1152.61,-75.59 1142.35,-78.23 1146.23,-84.05"/>
</g>
<!-- Node16&#45;&gt;Node23 -->
<g id="edge30" class="edge">
<title>Node16&#45;&gt;Node23</title>
<path fill="none" stroke="midnightblue" d="M967.7,-168.48C935.4,-159.91 884.76,-146 841.5,-132 789.65,-115.22 730.37,-92.94 694.99,-79.3"/>
<polygon fill="midnightblue" stroke="midnightblue" points="695.83,-75.88 685.24,-75.53 693.3,-82.41 695.83,-75.88"/>
</g>
<!-- Node26 -->
<g id="node26" class="node">
<title>Node26</title>
<g id="a_node26"><a xlink:title=" ">
<polygon fill="white" stroke="#bfbfbf" points="933,-112.5 933,-131.5 1016,-131.5 1016,-112.5 933,-112.5"/>
<text text-anchor="middle" x="974.5" y="-119.5" font-family="Helvetica,sans-Serif" font-size="10.00">initializer_list</text>
</a>
</g>
</g>
<!-- Node16&#45;&gt;Node26 -->
<g id="edge32" class="edge">
<title>Node16&#45;&gt;Node26</title>
<path fill="none" stroke="midnightblue" d="M996.21,-168.08C992.65,-160.69 987.48,-149.95 983.08,-140.81"/>
<polygon fill="midnightblue" stroke="midnightblue" points="986.21,-139.24 978.71,-131.75 979.9,-142.28 986.21,-139.24"/>
</g>
<!-- Node27 -->
<g id="node27" class="node">
<title>Node27</title>
<g id="a_node27"><a xlink:title=" ">
<polygon fill="white" stroke="#bfbfbf" points="1149,-112.5 1149,-131.5 1194,-131.5 1194,-112.5 1149,-112.5"/>
<text text-anchor="middle" x="1171.5" y="-119.5" font-family="Helvetica,sans-Serif" font-size="10.00">utility</text>
</a>
</g>
</g>
<!-- Node16&#45;&gt;Node27 -->
<g id="edge34" class="edge">
<title>Node16&#45;&gt;Node27</title>
<path fill="none" stroke="midnightblue" d="M1027.6,-168.44C1057.85,-158.89 1106.79,-143.44 1139.05,-133.25"/>
<polygon fill="midnightblue" stroke="midnightblue" points="1140.42,-136.49 1148.9,-130.14 1138.31,-129.81 1140.42,-136.49"/>
</g>
<!-- Node17&#45;&gt;Node13 -->
<g id="edge19" class="edge">
<title>Node17&#45;&gt;Node13</title>
<path fill="none" stroke="midnightblue" d="M717.35,-115.42C782.19,-106.35 911.39,-88.28 992.29,-76.96"/>
<polygon fill="midnightblue" stroke="midnightblue" points="992.98,-80.4 1002.4,-75.55 992.01,-73.47 992.98,-80.4"/>
</g>
<!-- Node18 -->
<g id="node18" class="node">
<title>Node18</title>
<g id="a_node18"><a xlink:title=" ">
<polygon fill="white" stroke="#bfbfbf" points="568.5,-56.5 568.5,-75.5 618.5,-75.5 618.5,-56.5 568.5,-56.5"/>
<text text-anchor="middle" x="593.5" y="-63.5" font-family="Helvetica,sans-Serif" font-size="10.00">cstring</text>
</a>
</g>
</g>
<!-- Node17&#45;&gt;Node18 -->
<g id="edge20" class="edge">
<title>Node17&#45;&gt;Node18</title>
<path fill="none" stroke="midnightblue" d="M664,-112.32C650.9,-103.9 630.79,-90.97 615.39,-81.07"/>
<polygon fill="midnightblue" stroke="midnightblue" points="617.27,-78.12 606.96,-75.65 613.48,-84.01 617.27,-78.12"/>
</g>
<!-- Node17&#45;&gt;Node19 -->
<g id="edge21" class="edge">
<title>Node17&#45;&gt;Node19</title>
<path fill="none" stroke="midnightblue" d="M637.83,-116.21C579.56,-109 467.18,-94.38 362.32,-76.23"/>
<polygon fill="midnightblue" stroke="midnightblue" points="362.65,-72.74 352.2,-74.46 361.45,-79.63 362.65,-72.74"/>
</g>
<!-- Node20&#45;&gt;Node6 -->
<g id="edge27" class="edge">
<title>Node20&#45;&gt;Node6</title>
<path fill="none" stroke="midnightblue" d="M864.59,-112.44C846.25,-103.68 817.49,-89.94 796.41,-79.86"/>
<polygon fill="midnightblue" stroke="midnightblue" points="797.85,-76.67 787.32,-75.52 794.83,-82.99 797.85,-76.67"/>
</g>
<!-- Node20&#45;&gt;Node13 -->
<g id="edge28" class="edge">
<title>Node20&#45;&gt;Node13</title>
<path fill="none" stroke="midnightblue" d="M911.18,-112.44C942.03,-103.24 991.23,-88.56 1025.33,-78.39"/>
<polygon fill="midnightblue" stroke="midnightblue" points="1026.37,-81.73 1034.95,-75.52 1024.37,-75.02 1026.37,-81.73"/>
</g>
<!-- Node20&#45;&gt;Node21 -->
<g id="edge23" class="edge">
<title>Node20&#45;&gt;Node21</title>
<path fill="none" stroke="midnightblue" d="M915.03,-113.89C918.23,-113.23 921.42,-112.59 924.5,-112 1014.82,-94.63 1041.14,-97.49 1134.43,-76.02"/>
<polygon fill="midnightblue" stroke="midnightblue" points="1135.34,-79.4 1144.28,-73.72 1133.75,-72.58 1135.34,-79.4"/>
</g>
<!-- Node22 -->
<g id="node22" class="node">
<title>Node22</title>
<g id="a_node22"><a xlink:title=" ">
<polygon fill="white" stroke="#bfbfbf" points="849,-56.5 849,-75.5 914,-75.5 914,-56.5 849,-56.5"/>
<text text-anchor="middle" x="881.5" y="-63.5" font-family="Helvetica,sans-Serif" font-size="10.00">functional</text>
</a>
</g>
</g>
<!-- Node20&#45;&gt;Node22 -->
<g id="edge24" class="edge">
<title>Node20&#45;&gt;Node22</title>
<path fill="none" stroke="midnightblue" d="M882.33,-112.08C882.2,-105.01 882.02,-94.86 881.85,-85.99"/>
<polygon fill="midnightblue" stroke="midnightblue" points="885.35,-85.68 881.66,-75.75 878.35,-85.81 885.35,-85.68"/>
</g>
<!-- Node20&#45;&gt;Node23 -->
<g id="edge25" class="edge">
<title>Node20&#45;&gt;Node23</title>
<path fill="none" stroke="midnightblue" d="M849.76,-112.99C815.07,-104.49 758.43,-90.6 700,-76.12"/>
<polygon fill="midnightblue" stroke="midnightblue" points="700.78,-72.7 690.23,-73.7 699.1,-79.5 700.78,-72.7"/>
</g>
<!-- Node24 -->
<g id="node24" class="node">
<title>Node24</title>
<g id="a_node24"><a xlink:title=" ">
<polygon fill="white" stroke="#bfbfbf" points="932.5,-56.5 932.5,-75.5 982.5,-75.5 982.5,-56.5 932.5,-56.5"/>
<text text-anchor="middle" x="957.5" y="-63.5" font-family="Helvetica,sans-Serif" font-size="10.00">chrono</text>
</a>
</g>
</g>
<!-- Node20&#45;&gt;Node24 -->
<g id="edge26" class="edge">
<title>Node20&#45;&gt;Node24</title>
<path fill="none" stroke="midnightblue" d="M894.55,-112.32C905.96,-104.11 923.33,-91.6 936.93,-81.81"/>
<polygon fill="midnightblue" stroke="midnightblue" points="939.16,-84.52 945.23,-75.83 935.07,-78.84 939.16,-84.52"/>
</g>
<!-- Node25 -->
<g id="node25" class="node">
<title>Node25</title>
<g id="a_node25"><a xlink:href="_deprecated_8hpp.html" target="_top" xlink:title=" ">
<polygon fill="white" stroke="black" points="1204.5,-56.5 1204.5,-75.5 1298.5,-75.5 1298.5,-56.5 1204.5,-56.5"/>
<text text-anchor="middle" x="1251.5" y="-63.5" font-family="Helvetica,sans-Serif" font-size="10.00">Deprecated.hpp</text>
</a>
</g>
</g>
<!-- Node20&#45;&gt;Node25 -->
<g id="edge29" class="edge">
<title>Node20&#45;&gt;Node25</title>
<path fill="none" stroke="midnightblue" d="M915.01,-113.77C918.21,-113.14 921.41,-112.53 924.5,-112 1041.06,-91.8 1073.59,-93.53 1194.44,-76.11"/>
<polygon fill="midnightblue" stroke="midnightblue" points="1195.07,-79.56 1204.46,-74.66 1194.06,-72.63 1195.07,-79.56"/>
</g>
<!-- Node29&#45;&gt;Node19 -->
<g id="edge44" class="edge">
<title>Node29&#45;&gt;Node19</title>
<path fill="none" stroke="midnightblue" d="M142,-224.3C131.63,-216.25 117.61,-203.24 111.5,-188 103.99,-169.27 110.19,-122.11 119.5,-112 139.88,-89.88 221.05,-77.26 272.92,-71.3"/>
<polygon fill="midnightblue" stroke="midnightblue" points="273.33,-74.77 282.88,-70.19 272.56,-67.82 273.33,-74.77"/>
</g>
<!-- Node30 -->
<g id="node30" class="node">
<title>Node30</title>
<g id="a_node30"><a xlink:href="_assert_8hpp.html" target="_top" xlink:title=" ">
<polygon fill="white" stroke="black" points="120.5,-168.5 120.5,-187.5 188.5,-187.5 188.5,-168.5 120.5,-168.5"/>
<text text-anchor="middle" x="154.5" y="-175.5" font-family="Helvetica,sans-Serif" font-size="10.00">Assert.hpp</text>
</a>
</g>
</g>
<!-- Node29&#45;&gt;Node30 -->
<g id="edge42" class="edge">
<title>Node29&#45;&gt;Node30</title>
<path fill="none" stroke="midnightblue" d="M154.5,-224.08C154.5,-217.01 154.5,-206.86 154.5,-197.99"/>
<polygon fill="midnightblue" stroke="midnightblue" points="158,-197.75 154.5,-187.75 151,-197.75 158,-197.75"/>
</g>
<!-- Node32 -->
<g id="node32" class="node">
<title>Node32</title>
<g id="a_node32"><a xlink:title=" ">
<polygon fill="white" stroke="#bfbfbf" points="20.5,-168.5 20.5,-187.5 64.5,-187.5 64.5,-168.5 20.5,-168.5"/>
<text text-anchor="middle" x="42.5" y="-175.5" font-family="Helvetica,sans-Serif" font-size="10.00">limits</text>
</a>
</g>
</g>
<!-- Node29&#45;&gt;Node32 -->
<g id="edge45" class="edge">
<title>Node29&#45;&gt;Node32</title>
<path fill="none" stroke="midnightblue" d="M136.51,-224.32C118.46,-215.62 90.45,-202.12 69.7,-192.11"/>
<polygon fill="midnightblue" stroke="midnightblue" points="70.98,-188.84 60.45,-187.65 67.94,-195.15 70.98,-188.84"/>
</g>
<!-- Node31 -->
<g id="node31" class="node">
<title>Node31</title>
<g id="a_node31"><a xlink:title=" ">
<polygon fill="white" stroke="#bfbfbf" points="128.5,-112.5 128.5,-131.5 180.5,-131.5 180.5,-112.5 128.5,-112.5"/>
<text text-anchor="middle" x="154.5" y="-119.5" font-family="Helvetica,sans-Serif" font-size="10.00">cassert</text>
</a>
</g>
</g>
<!-- Node30&#45;&gt;Node31 -->
<g id="edge43" class="edge">
<title>Node30&#45;&gt;Node31</title>
<path fill="none" stroke="midnightblue" d="M154.5,-168.08C154.5,-161.01 154.5,-150.86 154.5,-141.99"/>
<polygon fill="midnightblue" stroke="midnightblue" points="158,-141.75 154.5,-131.75 151,-141.75 158,-141.75"/>
</g>
<!-- Node34 -->
<g id="node34" class="node">
<title>Node34</title>
<g id="a_node34"><a xlink:title=" ">
<polygon fill="white" stroke="#bfbfbf" points="0,-224.5 0,-243.5 53,-243.5 53,-224.5 0,-224.5"/>
<text text-anchor="middle" x="26.5" y="-231.5" font-family="Helvetica,sans-Serif" font-size="10.00">cstddef</text>
</a>
</g>
</g>
<!-- Node33&#45;&gt;Node34 -->
<g id="edge47" class="edge">
<title>Node33&#45;&gt;Node34</title>
<path fill="none" stroke="midnightblue" d="M330.19,-286.28C263.89,-277.92 160.93,-263.7 63.23,-244.19"/>
<polygon fill="midnightblue" stroke="midnightblue" points="63.68,-240.71 53.19,-242.17 62.3,-247.58 63.68,-240.71"/>
</g>
<!-- Node35&#45;&gt;Node5 -->
<g id="edge49" class="edge">
<title>Node35&#45;&gt;Node5</title>
<path fill="none" stroke="midnightblue" d="M874.52,-285.98C821.98,-275.3 732,-257.03 675.25,-245.51"/>
<polygon fill="midnightblue" stroke="midnightblue" points="675.9,-242.07 665.4,-243.51 674.51,-248.93 675.9,-242.07"/>
</g>
<!-- Node35&#45;&gt;Node12 -->
<g id="edge54" class="edge">
<title>Node35&#45;&gt;Node12</title>
<path fill="none" stroke="midnightblue" d="M991.21,-289.78C1170.15,-277.49 1608.5,-241.04 1608.5,-179 1608.5,-179 1608.5,-179 1608.5,-121 1608.5,-36.64 1479.63,-16.96 1416.51,-12.38"/>
<polygon fill="midnightblue" stroke="midnightblue" points="1416.46,-8.87 1406.26,-11.73 1416.02,-15.86 1416.46,-8.87"/>
</g>
<!-- Node35&#45;&gt;Node16 -->
<g id="edge50" class="edge">
<title>Node35&#45;&gt;Node16</title>
<path fill="none" stroke="midnightblue" d="M922.81,-285.82C936.68,-266.76 969.99,-220.95 988.17,-195.96"/>
<polygon fill="midnightblue" stroke="midnightblue" points="991.06,-197.93 994.11,-187.78 985.4,-193.81 991.06,-197.93"/>
</g>
<!-- Node35&#45;&gt;Node20 -->
<g id="edge51" class="edge">
<title>Node35&#45;&gt;Node20</title>
<path fill="none" stroke="midnightblue" d="M914.77,-285.76C909.47,-259.04 893.41,-178.02 886.14,-141.36"/>
<polygon fill="midnightblue" stroke="midnightblue" points="889.57,-140.65 884.19,-131.52 882.7,-142.01 889.57,-140.65"/>
</g>
<!-- Node35&#45;&gt;Node27 -->
<g id="edge53" class="edge">
<title>Node35&#45;&gt;Node27</title>
<path fill="none" stroke="midnightblue" d="M929.15,-286C970.1,-258.45 1099.4,-171.49 1150.46,-137.15"/>
<polygon fill="midnightblue" stroke="midnightblue" points="1152.43,-140.04 1158.78,-131.56 1148.53,-134.23 1152.43,-140.04"/>
</g>
<!-- Node35&#45;&gt;Node35 -->
<g id="edge52" class="edge">
<title>Node35&#45;&gt;Node35</title>
<path fill="none" stroke="midnightblue" d="M950.65,-305.03C979.19,-309.11 1009,-305.93 1009,-295.5 1009,-286.29 985.76,-282.74 960.69,-284.83"/>
<polygon fill="midnightblue" stroke="midnightblue" points="960.2,-281.37 950.65,-285.97 960.98,-288.32 960.2,-281.37"/>
</g>
<!-- Node36&#45;&gt;Node20 -->
<g id="edge56" class="edge">
<title>Node36&#45;&gt;Node20</title>
<path fill="none" stroke="midnightblue" d="M455.2,-171.37C549.19,-160.73 751.47,-137.83 839.79,-127.84"/>
<polygon fill="midnightblue" stroke="midnightblue" points="840.19,-131.31 849.73,-126.71 839.4,-124.36 840.19,-131.31"/>
</g>
<!-- Node37 -->
<g id="node37" class="node">
<title>Node37</title>
<g id="a_node37"><a xlink:href="_b_float16_8hpp.html" target="_top" xlink:title=" ">
<polygon fill="white" stroke="black" points="500,-112.5 500,-131.5 581,-131.5 581,-112.5 500,-112.5"/>
<text text-anchor="middle" x="540.5" y="-119.5" font-family="Helvetica,sans-Serif" font-size="10.00">BFloat16.hpp</text>
</a>
</g>
</g>
<!-- Node36&#45;&gt;Node37 -->
<g id="edge57" class="edge">
<title>Node36&#45;&gt;Node37</title>
<path fill="none" stroke="midnightblue" d="M426.89,-168.44C449.21,-159.52 484.4,-145.44 509.71,-135.32"/>
<polygon fill="midnightblue" stroke="midnightblue" points="511.22,-138.48 519.21,-131.52 508.62,-131.98 511.22,-138.48"/>
</g>
<!-- Node38 -->
<g id="node38" class="node">
<title>Node38</title>
<g id="a_node38"><a xlink:href="_half_8hpp.html" target="_top" xlink:title=" ">
<polygon fill="white" stroke="black" points="377,-112.5 377,-131.5 434,-131.5 434,-112.5 377,-112.5"/>
<text text-anchor="middle" x="405.5" y="-119.5" font-family="Helvetica,sans-Serif" font-size="10.00">Half.hpp</text>
</a>
</g>
</g>
<!-- Node36&#45;&gt;Node38 -->
<g id="edge62" class="edge">
<title>Node36&#45;&gt;Node38</title>
<path fill="none" stroke="midnightblue" d="M405.5,-168.08C405.5,-161.01 405.5,-150.86 405.5,-141.99"/>
<polygon fill="midnightblue" stroke="midnightblue" points="409,-141.75 405.5,-131.75 402,-141.75 409,-141.75"/>
</g>
<!-- Node37&#45;&gt;Node8 -->
<g id="edge58" class="edge">
<title>Node37&#45;&gt;Node8</title>
<path fill="none" stroke="midnightblue" d="M540.5,-112.37C540.5,-94.62 540.5,-53.67 540.5,-29.6"/>
<polygon fill="midnightblue" stroke="midnightblue" points="544,-29.59 540.5,-19.59 537,-29.59 544,-29.59"/>
</g>
<!-- Node37&#45;&gt;Node18 -->
<g id="edge60" class="edge">
<title>Node37&#45;&gt;Node18</title>
<path fill="none" stroke="midnightblue" d="M549.25,-112.08C556.97,-104.22 568.4,-92.57 577.72,-83.08"/>
<polygon fill="midnightblue" stroke="midnightblue" points="580.4,-85.34 584.91,-75.75 575.41,-80.44 580.4,-85.34"/>
</g>
<!-- Node37&#45;&gt;Node23 -->
<g id="edge61" class="edge">
<title>Node37&#45;&gt;Node23</title>
<path fill="none" stroke="midnightblue" d="M559.99,-112.44C580.14,-103.6 611.82,-89.69 634.83,-79.59"/>
<polygon fill="midnightblue" stroke="midnightblue" points="636.35,-82.74 644.1,-75.52 633.54,-76.33 636.35,-82.74"/>
</g>
<!-- Node37&#45;&gt;Node28 -->
<g id="edge59" class="edge">
<title>Node37&#45;&gt;Node28</title>
<path fill="none" stroke="midnightblue" d="M531.91,-112.08C524.34,-104.22 513.12,-92.57 503.99,-83.08"/>
<polygon fill="midnightblue" stroke="midnightblue" points="506.38,-80.53 496.93,-75.75 501.34,-85.38 506.38,-80.53"/>
</g>
<!-- Node38&#45;&gt;Node19 -->
<g id="edge63" class="edge">
<title>Node38&#45;&gt;Node19</title>
<path fill="none" stroke="midnightblue" d="M391.36,-112.32C377.63,-103.9 356.56,-90.97 340.44,-81.07"/>
<polygon fill="midnightblue" stroke="midnightblue" points="341.96,-77.9 331.6,-75.65 338.3,-83.87 341.96,-77.9"/>
</g>
<!-- Node39 -->
<g id="node39" class="node">
<title>Node39</title>
<g id="a_node39"><a xlink:title=" ">
<polygon fill="white" stroke="#bfbfbf" points="370,-56.5 370,-75.5 447,-75.5 447,-56.5 370,-56.5"/>
<text text-anchor="middle" x="408.5" y="-63.5" font-family="Helvetica,sans-Serif" font-size="10.00">half/half.hpp</text>
</a>
</g>
</g>
<!-- Node38&#45;&gt;Node39 -->
<g id="edge64" class="edge">
<title>Node38&#45;&gt;Node39</title>
<path fill="none" stroke="midnightblue" d="M406,-112.08C406.39,-105.01 406.95,-94.86 407.45,-85.99"/>
<polygon fill="midnightblue" stroke="midnightblue" points="410.95,-85.93 408.01,-75.75 403.96,-85.54 410.95,-85.93"/>
</g>
<!-- Node40&#45;&gt;Node4 -->
<g id="edge68" class="edge">
<title>Node40&#45;&gt;Node4</title>
<path fill="none" stroke="midnightblue" d="M866.2,-404.15C816.67,-394.73 733.46,-378.91 678.52,-368.46"/>
<polygon fill="midnightblue" stroke="midnightblue" points="679.08,-365.01 668.6,-366.58 677.77,-371.88 679.08,-365.01"/>
</g>
<!-- Node40&#45;&gt;Node35 -->
<g id="edge69" class="edge">
<title>Node40&#45;&gt;Node35</title>
<path fill="none" stroke="midnightblue" d="M908.18,-403.32C909.62,-384.76 913.05,-340.84 915.02,-315.47"/>
<polygon fill="midnightblue" stroke="midnightblue" points="918.53,-315.52 915.82,-305.28 911.55,-314.98 918.53,-315.52"/>
</g>
<!-- Node41&#45;&gt;Node12 -->
<g id="edge79" class="edge">
<title>Node41&#45;&gt;Node12</title>
<path fill="none" stroke="midnightblue" d="M1314.16,-224.45C1355.94,-217.1 1406.52,-204.99 1419.5,-188 1456.6,-139.43 1415.87,-62.36 1394.23,-28.23"/>
<polygon fill="midnightblue" stroke="midnightblue" points="1397.12,-26.26 1388.72,-19.81 1391.26,-30.09 1397.12,-26.26"/>
</g>
<!-- Node41&#45;&gt;Node13 -->
<g id="edge75" class="edge">
<title>Node41&#45;&gt;Node13</title>
<path fill="none" stroke="midnightblue" d="M1253.34,-224.26C1249.94,-202.17 1237.97,-143.56 1203.5,-112 1184.88,-94.95 1159.76,-84.36 1135.94,-77.78"/>
<polygon fill="midnightblue" stroke="midnightblue" points="1136.74,-74.37 1126.19,-75.28 1135,-81.15 1136.74,-74.37"/>
</g>
<!-- Node41&#45;&gt;Node16 -->
<g id="edge73" class="edge">
<title>Node41&#45;&gt;Node16</title>
<path fill="none" stroke="midnightblue" d="M1214.25,-224.44C1169.85,-215 1098.35,-199.8 1050.41,-189.61"/>
<polygon fill="midnightblue" stroke="midnightblue" points="1051.07,-186.17 1040.56,-187.52 1049.61,-193.02 1051.07,-186.17"/>
</g>
<!-- Node41&#45;&gt;Node20 -->
<g id="edge74" class="edge">
<title>Node41&#45;&gt;Node20</title>
<path fill="none" stroke="midnightblue" d="M1231.22,-224.5C1195.14,-211.47 1123.41,-186.18 1061.5,-168 1015.13,-154.39 961.27,-141.19 924.84,-132.65"/>
<polygon fill="midnightblue" stroke="midnightblue" points="925.58,-129.23 915.04,-130.37 923.99,-136.05 925.58,-129.23"/>
</g>
<!-- Node41&#45;&gt;Node25 -->
<g id="edge71" class="edge">
<title>Node41&#45;&gt;Node25</title>
<path fill="none" stroke="midnightblue" d="M1254.34,-224.08C1253.87,-197.95 1252.48,-121.21 1251.84,-85.58"/>
<polygon fill="midnightblue" stroke="midnightblue" points="1255.34,-85.5 1251.65,-75.57 1248.34,-85.63 1255.34,-85.5"/>
</g>
<!-- Node41&#45;&gt;Node27 -->
<g id="edge78" class="edge">
<title>Node41&#45;&gt;Node27</title>
<path fill="none" stroke="midnightblue" d="M1244.18,-224.41C1234.28,-215.84 1219.28,-201.98 1208.5,-188 1197.13,-173.25 1186.88,-154.62 1180.07,-141.09"/>
<polygon fill="midnightblue" stroke="midnightblue" points="1183.11,-139.34 1175.57,-131.89 1176.82,-142.41 1183.11,-139.34"/>
</g>
<!-- Node42 -->
<g id="node42" class="node">
<title>Node42</title>
<g id="a_node42"><a xlink:href="_descriptors_fwd_8hpp.html" target="_top" xlink:title=" ">
<polygon fill="white" stroke="black" points="1467,-168.5 1467,-187.5 1580,-187.5 1580,-168.5 1467,-168.5"/>
<text text-anchor="middle" x="1523.5" y="-175.5" font-family="Helvetica,sans-Serif" font-size="10.00">DescriptorsFwd.hpp</text>
</a>
</g>
</g>
<!-- Node41&#45;&gt;Node42 -->
<g id="edge72" class="edge">
<title>Node41&#45;&gt;Node42</title>
<path fill="none" stroke="midnightblue" d="M1297.12,-224.44C1344.25,-214.98 1420.19,-199.74 1470.96,-189.55"/>
<polygon fill="midnightblue" stroke="midnightblue" points="1471.96,-192.92 1481.08,-187.52 1470.58,-186.05 1471.96,-192.92"/>
</g>
<!-- Node43 -->
<g id="node43" class="node">
<title>Node43</title>
<g id="a_node43"><a xlink:title=" ">
<polygon fill="white" stroke="#bfbfbf" points="1288.5,-168.5 1288.5,-187.5 1338.5,-187.5 1338.5,-168.5 1288.5,-168.5"/>
<text text-anchor="middle" x="1313.5" y="-175.5" font-family="Helvetica,sans-Serif" font-size="10.00">cstdint</text>
</a>
</g>
</g>
<!-- Node41&#45;&gt;Node43 -->
<g id="edge76" class="edge">
<title>Node41&#45;&gt;Node43</title>
<path fill="none" stroke="midnightblue" d="M1263.98,-224.32C1272.7,-216.34 1285.84,-204.31 1296.4,-194.65"/>
<polygon fill="midnightblue" stroke="midnightblue" points="1298.83,-197.17 1303.85,-187.83 1294.11,-192 1298.83,-197.17"/>
</g>
<!-- Node44 -->
<g id="node44" class="node">
<title>Node44</title>
<g id="a_node44"><a xlink:title=" ">
<polygon fill="white" stroke="#bfbfbf" points="1357,-168.5 1357,-187.5 1410,-187.5 1410,-168.5 1357,-168.5"/>
<text text-anchor="middle" x="1383.5" y="-175.5" font-family="Helvetica,sans-Serif" font-size="10.00">iterator</text>
</a>
</g>
</g>
<!-- Node41&#45;&gt;Node44 -->
<g id="edge77" class="edge">
<title>Node41&#45;&gt;Node44</title>
<path fill="none" stroke="midnightblue" d="M1274.94,-224.44C1296.17,-215.56 1329.6,-201.56 1353.75,-191.45"/>
<polygon fill="midnightblue" stroke="midnightblue" points="1355.28,-194.61 1363.16,-187.52 1352.58,-188.15 1355.28,-194.61"/>
</g>
<!-- Node45&#45;&gt;Node16 -->
<g id="edge83" class="edge">
<title>Node45&#45;&gt;Node16</title>
<path fill="none" stroke="midnightblue" d="M829.67,-224.44C864.56,-215.16 920.39,-200.31 958.67,-190.13"/>
<polygon fill="midnightblue" stroke="midnightblue" points="959.72,-193.47 968.48,-187.52 957.92,-186.7 959.72,-193.47"/>
</g>
<!-- Node45&#45;&gt;Node20 -->
<g id="edge82" class="edge">
<title>Node45&#45;&gt;Node20</title>
<path fill="none" stroke="midnightblue" d="M814.11,-224.36C827.74,-216.52 846.64,-203.78 858.5,-188 868.88,-174.19 875.17,-155.42 878.69,-141.6"/>
<polygon fill="midnightblue" stroke="midnightblue" points="882.12,-142.3 880.94,-131.77 875.29,-140.73 882.12,-142.3"/>
</g>
<!-- Node45&#45;&gt;Node30 -->
<g id="edge84" class="edge">
<title>Node45&#45;&gt;Node30</title>
<path fill="none" stroke="midnightblue" d="M702.84,-224.8C699.69,-224.53 696.57,-224.26 693.5,-224 509.71,-208.38 290.63,-190.23 198.62,-182.64"/>
<polygon fill="midnightblue" stroke="midnightblue" points="198.81,-179.14 188.56,-181.81 198.23,-186.12 198.81,-179.14"/>
</g>
</g>
</svg>
