<?xml version="1.0" encoding="UTF-8" standalone="no"?>
<!DOCTYPE svg PUBLIC "-//W3C//DTD SVG 1.1//EN"
 "http://www.w3.org/Graphics/SVG/1.1/DTD/svg11.dtd">
<!-- Generated by graphviz version 2.43.0 (0)
 -->
<!-- Title: ClMinimumWorkload Pages: 1 -->
<svg width="1296pt" height="163pt"
 viewBox="0.00 0.00 1296.00 163.00" xmlns="http://www.w3.org/2000/svg" xmlns:xlink="http://www.w3.org/1999/xlink">
<g id="graph0" class="graph" transform="scale(1 1) rotate(0) translate(4 159)">
<title>ClMinimumWorkload</title>
<polygon fill="white" stroke="transparent" points="-4,4 -4,-159 1292,-159 1292,4 -4,4"/>
<!-- Node1 -->
<g id="node1" class="node">
<title>Node1</title>
<g id="a_node1"><a xlink:title=" ">
<polygon fill="#bfbfbf" stroke="black" points="1169,-36.5 1169,-55.5 1288,-55.5 1288,-36.5 1169,-36.5"/>
<text text-anchor="middle" x="1228.5" y="-43.5" font-family="Helvetica,sans-Serif" font-size="10.00">ClMinimumWorkload</text>
</a>
</g>
</g>
<!-- Node2 -->
<g id="node2" class="node">
<title>Node2</title>
<g id="a_node2"><a xlink:href="classarmnn_1_1_cl_base_workload.html" target="_top" xlink:title=" ">
<polygon fill="white" stroke="black" points="947,-31 947,-61 1132,-61 1132,-31 947,-31"/>
<text text-anchor="start" x="955" y="-49" font-family="Helvetica,sans-Serif" font-size="10.00">ClBaseWorkload&lt; MinimumQueue</text>
<text text-anchor="middle" x="1039.5" y="-38" font-family="Helvetica,sans-Serif" font-size="10.00">Descriptor &gt;</text>
</a>
</g>
</g>
<!-- Node2&#45;&gt;Node1 -->
<g id="edge1" class="edge">
<title>Node2&#45;&gt;Node1</title>
<path fill="none" stroke="midnightblue" d="M1142.32,-46C1151.37,-46 1160.31,-46 1168.81,-46"/>
<polygon fill="midnightblue" stroke="midnightblue" points="1142.08,-42.5 1132.08,-46 1142.08,-49.5 1142.08,-42.5"/>
</g>
<!-- Node3 -->
<g id="node3" class="node">
<title>Node3</title>
<g id="a_node3"><a xlink:href="classarmnn_1_1_base_workload.html" target="_top" xlink:title=" ">
<polygon fill="white" stroke="black" points="569,-56 569,-86 745,-86 745,-56 569,-56"/>
<text text-anchor="start" x="577" y="-74" font-family="Helvetica,sans-Serif" font-size="10.00">BaseWorkload&lt; MinimumQueue</text>
<text text-anchor="middle" x="657" y="-63" font-family="Helvetica,sans-Serif" font-size="10.00">Descriptor &gt;</text>
</a>
</g>
</g>
<!-- Node3&#45;&gt;Node2 -->
<g id="edge2" class="edge">
<title>Node3&#45;&gt;Node2</title>
<path fill="none" stroke="midnightblue" d="M755.36,-64.6C814.34,-60.73 889.09,-55.82 946.97,-52.01"/>
<polygon fill="midnightblue" stroke="midnightblue" points="755.04,-61.12 745.29,-65.26 755.5,-68.1 755.04,-61.12"/>
</g>
<!-- Node4 -->
<g id="node4" class="node">
<title>Node4</title>
<g id="a_node4"><a xlink:href="classarmnn_1_1_i_workload.html" target="_top" xlink:title="Workload interface to enqueue a layer computation.">
<polygon fill="white" stroke="black" points="16.5,-38.5 16.5,-57.5 81.5,-57.5 81.5,-38.5 16.5,-38.5"/>
<text text-anchor="middle" x="49" y="-45.5" font-family="Helvetica,sans-Serif" font-size="10.00">IWorkload</text>
</a>
</g>
</g>
<!-- Node4&#45;&gt;Node3 -->
<g id="edge3" class="edge">
<title>Node4&#45;&gt;Node3</title>
<path fill="none" stroke="midnightblue" d="M91.85,-49.59C189.95,-53.31 436.43,-62.67 568.78,-67.69"/>
<polygon fill="midnightblue" stroke="midnightblue" points="91.85,-46.09 81.73,-49.2 91.59,-53.08 91.85,-46.09"/>
</g>
<!-- Node7 -->
<g id="node7" class="node">
<title>Node7</title>
<g id="a_node7"><a xlink:href="classarmnn_1_1_base_workload.html" target="_top" xlink:title=" ">
<polygon fill="white" stroke="black" points="176,-76.5 176,-95.5 367,-95.5 367,-76.5 176,-76.5"/>
<text text-anchor="middle" x="271.5" y="-83.5" font-family="Helvetica,sans-Serif" font-size="10.00">BaseWorkload&lt; QueueDescriptor &gt;</text>
</a>
</g>
</g>
<!-- Node4&#45;&gt;Node7 -->
<g id="edge7" class="edge">
<title>Node4&#45;&gt;Node7</title>
<path fill="none" stroke="midnightblue" d="M91.47,-55.15C126.41,-61.17 176.71,-69.84 215.1,-76.45"/>
<polygon fill="midnightblue" stroke="midnightblue" points="92.04,-51.69 81.59,-53.44 90.85,-58.59 92.04,-51.69"/>
</g>
<!-- Node9 -->
<g id="node9" class="node">
<title>Node9</title>
<g id="a_node9"><a xlink:href="classarmnn_1_1_base_workload.html" target="_top" xlink:title=" ">
<polygon fill="white" stroke="black" points="176,-0.5 176,-19.5 367,-19.5 367,-0.5 176,-0.5"/>
<text text-anchor="middle" x="271.5" y="-7.5" font-family="Helvetica,sans-Serif" font-size="10.00">BaseWorkload&lt; QueueDescriptor &gt;</text>
</a>
</g>
</g>
<!-- Node4&#45;&gt;Node9 -->
<g id="edge11" class="edge">
<title>Node4&#45;&gt;Node9</title>
<path fill="none" stroke="midnightblue" d="M91.76,-38.78C99.79,-37.11 108.14,-35.44 116,-34 144.7,-28.73 176.54,-23.65 203.82,-19.54"/>
<polygon fill="midnightblue" stroke="midnightblue" points="90.88,-35.39 81.82,-40.88 92.33,-42.24 90.88,-35.39"/>
</g>
<!-- Node5 -->
<g id="node5" class="node">
<title>Node5</title>
<g id="a_node5"><a xlink:href="structarmnn_1_1_minimum_queue_descriptor.html" target="_top" xlink:title=" ">
<polygon fill="white" stroke="black" points="199,-135.5 199,-154.5 344,-154.5 344,-135.5 199,-135.5"/>
<text text-anchor="middle" x="271.5" y="-142.5" font-family="Helvetica,sans-Serif" font-size="10.00">MinimumQueueDescriptor</text>
</a>
</g>
</g>
<!-- Node5&#45;&gt;Node3 -->
<g id="edge4" class="edge">
<title>Node5&#45;&gt;Node3</title>
<path fill="none" stroke="#9a32cd" stroke-dasharray="5,2" d="M337.07,-133.66C391.1,-124.05 470.19,-109.68 539,-96 554.69,-92.88 571.52,-89.38 587.4,-86"/>
<polygon fill="#9a32cd" stroke="#9a32cd" points="336.18,-130.27 326.95,-135.46 337.4,-137.16 336.18,-130.27"/>
<text text-anchor="middle" x="462" y="-127" font-family="Helvetica,sans-Serif" font-size="10.00"> m_Data</text>
</g>
<!-- Node6 -->
<g id="node6" class="node">
<title>Node6</title>
<g id="a_node6"><a xlink:href="structarmnn_1_1_queue_descriptor.html" target="_top" xlink:title=" ">
<polygon fill="white" stroke="black" points="0,-130.5 0,-149.5 98,-149.5 98,-130.5 0,-130.5"/>
<text text-anchor="middle" x="49" y="-137.5" font-family="Helvetica,sans-Serif" font-size="10.00">QueueDescriptor</text>
</a>
</g>
</g>
<!-- Node6&#45;&gt;Node5 -->
<g id="edge5" class="edge">
<title>Node6&#45;&gt;Node5</title>
<path fill="none" stroke="midnightblue" d="M106.56,-150.97C109.75,-151.37 112.91,-151.72 116,-152 143.01,-154.44 172.76,-153.86 198.87,-152.27"/>
<polygon fill="midnightblue" stroke="midnightblue" points="106.77,-147.46 96.37,-149.51 105.78,-154.39 106.77,-147.46"/>
</g>
<!-- Node6&#45;&gt;Node7 -->
<g id="edge8" class="edge">
<title>Node6&#45;&gt;Node7</title>
<path fill="none" stroke="#9a32cd" stroke-dasharray="5,2" d="M107.94,-129.04C124.19,-125.74 141.83,-121.94 158,-118 185.62,-111.27 216.68,-102.33 239.15,-95.61"/>
<polygon fill="#9a32cd" stroke="#9a32cd" points="107.14,-125.63 98.02,-131.03 108.52,-132.5 107.14,-125.63"/>
<text text-anchor="middle" x="137" y="-130" font-family="Helvetica,sans-Serif" font-size="10.00"> m_Data</text>
</g>
<!-- Node6&#45;&gt;Node9 -->
<g id="edge12" class="edge">
<title>Node6&#45;&gt;Node9</title>
<path fill="none" stroke="#9a32cd" stroke-dasharray="5,2" d="M74.88,-125.33C120.44,-98.47 216.09,-42.08 254.26,-19.57"/>
<polygon fill="#9a32cd" stroke="#9a32cd" points="73.05,-122.35 66.21,-130.44 76.61,-128.38 73.05,-122.35"/>
<text text-anchor="middle" x="137" y="-100" font-family="Helvetica,sans-Serif" font-size="10.00"> m_Data</text>
</g>
<!-- Node7&#45;&gt;Node3 -->
<g id="edge6" class="edge">
<title>Node7&#45;&gt;Node3</title>
<path fill="none" stroke="orange" stroke-dasharray="5,2" d="M377.57,-81.89C437.63,-79.54 512.06,-76.63 568.85,-74.41"/>
<polygon fill="orange" stroke="orange" points="377.15,-78.4 367.3,-82.29 377.43,-85.4 377.15,-78.4"/>
<text text-anchor="middle" x="462" y="-84" font-family="Helvetica,sans-Serif" font-size="10.00"> &lt; MinimumQueueDescriptor &gt;</text>
</g>
<!-- Node8 -->
<g id="node8" class="node">
<title>Node8</title>
<g id="a_node8"><a xlink:href="classarmnn_1_1_cl_base_workload.html" target="_top" xlink:title=" ">
<polygon fill="white" stroke="black" points="557,-14.5 557,-33.5 757,-33.5 757,-14.5 557,-14.5"/>
<text text-anchor="middle" x="657" y="-21.5" font-family="Helvetica,sans-Serif" font-size="10.00">ClBaseWorkload&lt; QueueDescriptor &gt;</text>
</a>
</g>
</g>
<!-- Node8&#45;&gt;Node2 -->
<g id="edge9" class="edge">
<title>Node8&#45;&gt;Node2</title>
<path fill="none" stroke="orange" stroke-dasharray="5,2" d="M767.21,-29.11C816.63,-31.56 875.77,-34.68 929,-38 934.8,-38.36 940.78,-38.75 946.8,-39.16"/>
<polygon fill="orange" stroke="orange" points="767.3,-25.61 757.14,-28.61 766.95,-32.6 767.3,-25.61"/>
<text text-anchor="middle" x="852" y="-41" font-family="Helvetica,sans-Serif" font-size="10.00"> &lt; MinimumQueueDescriptor &gt;</text>
</g>
<!-- Node9&#45;&gt;Node8 -->
<g id="edge10" class="edge">
<title>Node9&#45;&gt;Node8</title>
<path fill="none" stroke="midnightblue" d="M377.59,-13.84C433.53,-15.88 501.94,-18.38 556.94,-20.38"/>
<polygon fill="midnightblue" stroke="midnightblue" points="377.42,-10.33 367.3,-13.46 377.16,-17.32 377.42,-10.33"/>
</g>
</g>
</svg>
