<?xml version="1.0" encoding="UTF-8" standalone="no"?>
<!DOCTYPE svg PUBLIC "-//W3C//DTD SVG 1.1//EN"
 "http://www.w3.org/Graphics/SVG/1.1/DTD/svg11.dtd">
<!-- Generated by graphviz version 2.43.0 (0)
 -->
<!-- Title: RefElementwiseBinaryWorkload Pages: 1 -->
<svg width="1249pt" height="90pt"
 viewBox="0.00 0.00 1249.00 90.02" xmlns="http://www.w3.org/2000/svg" xmlns:xlink="http://www.w3.org/1999/xlink">
<g id="graph0" class="graph" transform="scale(1 1) rotate(0) translate(4 86.02)">
<title>RefElementwiseBinaryWorkload</title>
<polygon fill="white" stroke="transparent" points="-4,4 -4,-86.02 1245,-86.02 1245,4 -4,4"/>
<!-- Node1 -->
<g id="node1" class="node">
<title>Node1</title>
<g id="a_node1"><a xlink:title=" ">
<polygon fill="#bfbfbf" stroke="black" points="1068,-22.5 1068,-41.5 1241,-41.5 1241,-22.5 1068,-22.5"/>
<text text-anchor="middle" x="1154.5" y="-29.5" font-family="Helvetica,sans-Serif" font-size="10.00">RefElementwiseBinaryWorkload</text>
</a>
</g>
</g>
<!-- Node2 -->
<g id="node2" class="node">
<title>Node2</title>
<g id="a_node2"><a xlink:href="classarmnn_1_1_ref_base_workload.html" target="_top" xlink:title=" ">
<polygon fill="white" stroke="black" points="854,-17 854,-47 1031,-47 1031,-17 854,-17"/>
<text text-anchor="start" x="862" y="-35" font-family="Helvetica,sans-Serif" font-size="10.00">RefBaseWorkload&lt; Elementwise</text>
<text text-anchor="middle" x="942.5" y="-24" font-family="Helvetica,sans-Serif" font-size="10.00">BinaryQueueDescriptor &gt;</text>
</a>
</g>
</g>
<!-- Node2&#45;&gt;Node1 -->
<g id="edge1" class="edge">
<title>Node2&#45;&gt;Node1</title>
<path fill="none" stroke="midnightblue" d="M1041.07,-32C1049.99,-32 1058.98,-32 1067.79,-32"/>
<polygon fill="midnightblue" stroke="midnightblue" points="1041.04,-28.5 1031.04,-32 1041.04,-35.5 1041.04,-28.5"/>
</g>
<!-- Node3 -->
<g id="node3" class="node">
<title>Node3</title>
<g id="a_node3"><a xlink:href="classarmnn_1_1_base_workload.html" target="_top" xlink:title=" ">
<polygon fill="white" stroke="black" points="493,-39 493,-69 654,-69 654,-39 493,-39"/>
<text text-anchor="start" x="501" y="-57" font-family="Helvetica,sans-Serif" font-size="10.00">BaseWorkload&lt; Elementwise</text>
<text text-anchor="middle" x="573.5" y="-46" font-family="Helvetica,sans-Serif" font-size="10.00">BinaryQueueDescriptor &gt;</text>
</a>
</g>
</g>
<!-- Node3&#45;&gt;Node2 -->
<g id="edge2" class="edge">
<title>Node3&#45;&gt;Node2</title>
<path fill="none" stroke="midnightblue" d="M664.34,-48.61C722.08,-45.15 796.72,-40.68 854,-37.25"/>
<polygon fill="midnightblue" stroke="midnightblue" points="663.91,-45.13 654.13,-49.23 664.33,-52.12 663.91,-45.13"/>
</g>
<!-- Node4 -->
<g id="node4" class="node">
<title>Node4</title>
<g id="a_node4"><a xlink:href="classarmnn_1_1_i_workload.html" target="_top" xlink:title="Workload interface to enqueue a layer computation.">
<polygon fill="white" stroke="black" points="0,-38.5 0,-57.5 65,-57.5 65,-38.5 0,-38.5"/>
<text text-anchor="middle" x="32.5" y="-45.5" font-family="Helvetica,sans-Serif" font-size="10.00">IWorkload</text>
</a>
</g>
</g>
<!-- Node4&#45;&gt;Node3 -->
<g id="edge3" class="edge">
<title>Node4&#45;&gt;Node3</title>
<path fill="none" stroke="midnightblue" d="M71.39,-60.4C81.25,-63.1 91.93,-65.57 102,-67 256.04,-88.8 296.86,-83.52 452,-72 465.29,-71.01 479.34,-69.42 492.96,-67.58"/>
<polygon fill="midnightblue" stroke="midnightblue" points="72.06,-56.95 61.48,-57.53 70.11,-63.67 72.06,-56.95"/>
</g>
<!-- Node5 -->
<g id="node5" class="node">
<title>Node5</title>
<g id="a_node5"><a xlink:href="classarmnn_1_1_base_workload.html" target="_top" xlink:title=" ">
<polygon fill="white" stroke="black" points="102,-38.5 102,-57.5 293,-57.5 293,-38.5 102,-38.5"/>
<text text-anchor="middle" x="197.5" y="-45.5" font-family="Helvetica,sans-Serif" font-size="10.00">BaseWorkload&lt; QueueDescriptor &gt;</text>
</a>
</g>
</g>
<!-- Node4&#45;&gt;Node5 -->
<g id="edge5" class="edge">
<title>Node4&#45;&gt;Node5</title>
<path fill="none" stroke="midnightblue" d="M75.34,-48C83.59,-48 92.56,-48 101.75,-48"/>
<polygon fill="midnightblue" stroke="midnightblue" points="75.32,-44.5 65.31,-48 75.31,-51.5 75.32,-44.5"/>
</g>
<!-- Node7 -->
<g id="node7" class="node">
<title>Node7</title>
<g id="a_node7"><a xlink:href="classarmnn_1_1_base_workload.html" target="_top" xlink:title=" ">
<polygon fill="white" stroke="black" points="102,-0.5 102,-19.5 293,-19.5 293,-0.5 102,-0.5"/>
<text text-anchor="middle" x="197.5" y="-7.5" font-family="Helvetica,sans-Serif" font-size="10.00">BaseWorkload&lt; QueueDescriptor &gt;</text>
</a>
</g>
</g>
<!-- Node4&#45;&gt;Node7 -->
<g id="edge8" class="edge">
<title>Node4&#45;&gt;Node7</title>
<path fill="none" stroke="midnightblue" d="M74.89,-36C83.8,-33.56 93.19,-31.1 102,-29 116,-25.66 131.26,-22.41 145.35,-19.58"/>
<polygon fill="midnightblue" stroke="midnightblue" points="73.79,-32.67 65.09,-38.72 75.66,-39.42 73.79,-32.67"/>
</g>
<!-- Node5&#45;&gt;Node3 -->
<g id="edge4" class="edge">
<title>Node5&#45;&gt;Node3</title>
<path fill="none" stroke="orange" stroke-dasharray="5,2" d="M303.22,-48.23C348.92,-48.49 403.11,-49 452,-50 465.18,-50.27 479.18,-50.65 492.78,-51.07"/>
<polygon fill="orange" stroke="orange" points="303.03,-44.73 293.01,-48.18 302.99,-51.73 303.03,-44.73"/>
<text text-anchor="start" x="311" y="-64" font-family="Helvetica,sans-Serif" font-size="10.00"> &lt; ElementwiseBinaryQueue</text>
<text text-anchor="middle" x="381.5" y="-53" font-family="Helvetica,sans-Serif" font-size="10.00">Descriptor &gt;</text>
</g>
<!-- Node6 -->
<g id="node6" class="node">
<title>Node6</title>
<g id="a_node6"><a xlink:href="classarmnn_1_1_ref_base_workload.html" target="_top" xlink:title=" ">
<polygon fill="white" stroke="black" points="470,-0.5 470,-19.5 677,-19.5 677,-0.5 470,-0.5"/>
<text text-anchor="middle" x="573.5" y="-7.5" font-family="Helvetica,sans-Serif" font-size="10.00">RefBaseWorkload&lt; QueueDescriptor &gt;</text>
</a>
</g>
</g>
<!-- Node6&#45;&gt;Node2 -->
<g id="edge6" class="edge">
<title>Node6&#45;&gt;Node2</title>
<path fill="none" stroke="orange" stroke-dasharray="5,2" d="M687.21,-7.19C733.41,-7.11 787.36,-8.37 836,-13 846,-13.95 856.48,-15.35 866.79,-16.96"/>
<polygon fill="orange" stroke="orange" points="687.15,-3.69 677.17,-7.23 687.18,-10.69 687.15,-3.69"/>
<text text-anchor="start" x="695" y="-27" font-family="Helvetica,sans-Serif" font-size="10.00"> &lt; ElementwiseBinaryQueue</text>
<text text-anchor="middle" x="765.5" y="-16" font-family="Helvetica,sans-Serif" font-size="10.00">Descriptor &gt;</text>
</g>
<!-- Node7&#45;&gt;Node6 -->
<g id="edge7" class="edge">
<title>Node7&#45;&gt;Node6</title>
<path fill="none" stroke="midnightblue" d="M303.62,-10C355.63,-10 418.18,-10 469.86,-10"/>
<polygon fill="midnightblue" stroke="midnightblue" points="303.36,-6.5 293.36,-10 303.36,-13.5 303.36,-6.5"/>
</g>
</g>
</svg>
