<?xml version="1.0" encoding="UTF-8" standalone="no"?>
<!DOCTYPE svg PUBLIC "-//W3C//DTD SVG 1.1//EN"
 "http://www.w3.org/Graphics/SVG/1.1/DTD/svg11.dtd">
<!-- Generated by graphviz version 2.43.0 (0)
 -->
<!-- Title: ClMeanWorkload Pages: 1 -->
<svg width="444pt" height="287pt"
 viewBox="0.00 0.00 444.00 287.00" xmlns="http://www.w3.org/2000/svg" xmlns:xlink="http://www.w3.org/1999/xlink">
<g id="graph0" class="graph" transform="scale(1 1) rotate(0) translate(4 283)">
<title>ClMeanWorkload</title>
<polygon fill="white" stroke="transparent" points="-4,4 -4,-283 440,-283 440,4 -4,4"/>
<!-- Node1 -->
<g id="node1" class="node">
<title>Node1</title>
<g id="a_node1"><a xlink:title=" ">
<polygon fill="#bfbfbf" stroke="black" points="172.5,-0.5 172.5,-19.5 271.5,-19.5 271.5,-0.5 172.5,-0.5"/>
<text text-anchor="middle" x="222" y="-7.5" font-family="Helvetica,sans-Serif" font-size="10.00">ClMeanWorkload</text>
</a>
</g>
</g>
<!-- Node2 -->
<g id="node2" class="node">
<title>Node2</title>
<g id="a_node2"><a xlink:href="classarmnn_1_1_cl_base_workload.html" target="_top" xlink:title=" ">
<polygon fill="white" stroke="black" points="139,-57.5 139,-87.5 305,-87.5 305,-57.5 139,-57.5"/>
<text text-anchor="start" x="147" y="-75.5" font-family="Helvetica,sans-Serif" font-size="10.00">ClBaseWorkload&lt; MeanQueue</text>
<text text-anchor="middle" x="222" y="-64.5" font-family="Helvetica,sans-Serif" font-size="10.00">Descriptor &gt;</text>
</a>
</g>
</g>
<!-- Node2&#45;&gt;Node1 -->
<g id="edge1" class="edge">
<title>Node2&#45;&gt;Node1</title>
<path fill="none" stroke="midnightblue" d="M222,-47.35C222,-37.51 222,-26.78 222,-19.54"/>
<polygon fill="midnightblue" stroke="midnightblue" points="218.5,-47.47 222,-57.47 225.5,-47.47 218.5,-47.47"/>
</g>
<!-- Node3 -->
<g id="node3" class="node">
<title>Node3</title>
<g id="a_node3"><a xlink:href="classarmnn_1_1_base_workload.html" target="_top" xlink:title=" ">
<polygon fill="white" stroke="black" points="0,-135.5 0,-154.5 218,-154.5 218,-135.5 0,-135.5"/>
<text text-anchor="middle" x="109" y="-142.5" font-family="Helvetica,sans-Serif" font-size="10.00">BaseWorkload&lt; MeanQueueDescriptor &gt;</text>
</a>
</g>
</g>
<!-- Node3&#45;&gt;Node2 -->
<g id="edge2" class="edge">
<title>Node3&#45;&gt;Node2</title>
<path fill="none" stroke="midnightblue" d="M131.49,-129.97C151.2,-117.67 179.71,-99.89 199.44,-87.58"/>
<polygon fill="midnightblue" stroke="midnightblue" points="129.49,-127.09 122.86,-135.36 133.19,-133.03 129.49,-127.09"/>
</g>
<!-- Node4 -->
<g id="node4" class="node">
<title>Node4</title>
<g id="a_node4"><a xlink:href="classarmnn_1_1_i_workload.html" target="_top" xlink:title="Workload interface to enqueue a layer computation.">
<polygon fill="white" stroke="black" points="94.5,-259.5 94.5,-278.5 159.5,-278.5 159.5,-259.5 94.5,-259.5"/>
<text text-anchor="middle" x="127" y="-266.5" font-family="Helvetica,sans-Serif" font-size="10.00">IWorkload</text>
</a>
</g>
</g>
<!-- Node4&#45;&gt;Node3 -->
<g id="edge3" class="edge">
<title>Node4&#45;&gt;Node3</title>
<path fill="none" stroke="midnightblue" d="M84.52,-260.87C61.85,-254.68 35.85,-243.19 22,-222 2.47,-192.12 52.16,-167.05 84.25,-154.54"/>
<polygon fill="midnightblue" stroke="midnightblue" points="83.76,-264.29 94.31,-263.29 85.44,-257.5 83.76,-264.29"/>
</g>
<!-- Node5 -->
<g id="node5" class="node">
<title>Node5</title>
<g id="a_node5"><a xlink:href="classarmnn_1_1_base_workload.html" target="_top" xlink:title=" ">
<polygon fill="white" stroke="black" points="31.5,-202.5 31.5,-221.5 222.5,-221.5 222.5,-202.5 31.5,-202.5"/>
<text text-anchor="middle" x="127" y="-209.5" font-family="Helvetica,sans-Serif" font-size="10.00">BaseWorkload&lt; QueueDescriptor &gt;</text>
</a>
</g>
</g>
<!-- Node4&#45;&gt;Node5 -->
<g id="edge5" class="edge">
<title>Node4&#45;&gt;Node5</title>
<path fill="none" stroke="midnightblue" d="M127,-249.12C127,-239.82 127,-229.06 127,-221.71"/>
<polygon fill="midnightblue" stroke="midnightblue" points="123.5,-249.41 127,-259.41 130.5,-249.41 123.5,-249.41"/>
</g>
<!-- Node7 -->
<g id="node7" class="node">
<title>Node7</title>
<g id="a_node7"><a xlink:href="classarmnn_1_1_base_workload.html" target="_top" xlink:title=" ">
<polygon fill="white" stroke="black" points="240.5,-202.5 240.5,-221.5 431.5,-221.5 431.5,-202.5 240.5,-202.5"/>
<text text-anchor="middle" x="336" y="-209.5" font-family="Helvetica,sans-Serif" font-size="10.00">BaseWorkload&lt; QueueDescriptor &gt;</text>
</a>
</g>
</g>
<!-- Node4&#45;&gt;Node7 -->
<g id="edge8" class="edge">
<title>Node4&#45;&gt;Node7</title>
<path fill="none" stroke="midnightblue" d="M169.57,-256.8C209.24,-246.36 267.55,-231.01 303.57,-221.53"/>
<polygon fill="midnightblue" stroke="midnightblue" points="168.44,-253.48 159.66,-259.41 170.22,-260.25 168.44,-253.48"/>
</g>
<!-- Node5&#45;&gt;Node3 -->
<g id="edge4" class="edge">
<title>Node5&#45;&gt;Node3</title>
<path fill="none" stroke="orange" stroke-dasharray="5,2" d="M121.85,-192.41C118.41,-179.99 114.04,-164.22 111.39,-154.63"/>
<polygon fill="orange" stroke="orange" points="118.53,-193.53 124.57,-202.23 125.28,-191.66 118.53,-193.53"/>
<text text-anchor="middle" x="187.5" y="-176" font-family="Helvetica,sans-Serif" font-size="10.00"> &lt; MeanQueueDescriptor &gt;</text>
</g>
<!-- Node6 -->
<g id="node6" class="node">
<title>Node6</title>
<g id="a_node6"><a xlink:href="classarmnn_1_1_cl_base_workload.html" target="_top" xlink:title=" ">
<polygon fill="white" stroke="black" points="236,-135.5 236,-154.5 436,-154.5 436,-135.5 236,-135.5"/>
<text text-anchor="middle" x="336" y="-142.5" font-family="Helvetica,sans-Serif" font-size="10.00">ClBaseWorkload&lt; QueueDescriptor &gt;</text>
</a>
</g>
</g>
<!-- Node6&#45;&gt;Node2 -->
<g id="edge6" class="edge">
<title>Node6&#45;&gt;Node2</title>
<path fill="none" stroke="orange" stroke-dasharray="5,2" d="M313.31,-129.97C293.43,-117.67 264.67,-99.89 244.76,-87.58"/>
<polygon fill="orange" stroke="orange" points="311.68,-133.07 322.02,-135.36 315.36,-127.12 311.68,-133.07"/>
<text text-anchor="middle" x="356.5" y="-109" font-family="Helvetica,sans-Serif" font-size="10.00"> &lt; MeanQueueDescriptor &gt;</text>
</g>
<!-- Node7&#45;&gt;Node6 -->
<g id="edge7" class="edge">
<title>Node7&#45;&gt;Node6</title>
<path fill="none" stroke="midnightblue" d="M336,-192.04C336,-179.67 336,-164.12 336,-154.63"/>
<polygon fill="midnightblue" stroke="midnightblue" points="332.5,-192.23 336,-202.23 339.5,-192.23 332.5,-192.23"/>
</g>
</g>
</svg>
