<?xml version="1.0" encoding="UTF-8" standalone="no"?>
<!DOCTYPE svg PUBLIC "-//W3C//DTD SVG 1.1//EN"
 "http://www.w3.org/Graphics/SVG/1.1/DTD/svg11.dtd">
<!-- Generated by graphviz version 2.43.0 (0)
 -->
<!-- Title: IWorkloadFactory Pages: 1 -->
<svg width="482pt" height="142pt"
 viewBox="0.00 0.00 482.00 142.00" xmlns="http://www.w3.org/2000/svg" xmlns:xlink="http://www.w3.org/1999/xlink">
<g id="graph0" class="graph" transform="scale(1 1) rotate(0) translate(4 138)">
<title>IWorkloadFactory</title>
<polygon fill="white" stroke="transparent" points="-4,4 -4,-138 478,-138 478,4 -4,4"/>
<!-- Node1 -->
<g id="node1" class="node">
<title>Node1</title>
<g id="a_node1"><a xlink:title=" ">
<polygon fill="#bfbfbf" stroke="black" points="0,-57.5 0,-76.5 101,-76.5 101,-57.5 0,-57.5"/>
<text text-anchor="middle" x="50.5" y="-64.5" font-family="Helvetica,sans-Serif" font-size="10.00">IWorkloadFactory</text>
</a>
</g>
</g>
<!-- Node2 -->
<g id="node2" class="node">
<title>Node2</title>
<g id="a_node2"><a xlink:href="classarmnn_1_1_ref_workload_factory.html" target="_top" xlink:title=" ">
<polygon fill="white" stroke="black" points="169,-114.5 169,-133.5 283,-133.5 283,-114.5 169,-114.5"/>
<text text-anchor="middle" x="226" y="-121.5" font-family="Helvetica,sans-Serif" font-size="10.00">RefWorkloadFactory</text>
</a>
</g>
</g>
<!-- Node1&#45;&gt;Node2 -->
<g id="edge1" class="edge">
<title>Node1&#45;&gt;Node2</title>
<path fill="none" stroke="midnightblue" d="M79.14,-81.03C95.61,-88.94 117.12,-98.51 137,-105 148.29,-108.69 160.64,-111.86 172.41,-114.5"/>
<polygon fill="midnightblue" stroke="midnightblue" points="80.6,-77.84 70.08,-76.59 77.52,-84.13 80.6,-77.84"/>
</g>
<!-- Node3 -->
<g id="node3" class="node">
<title>Node3</title>
<g id="a_node3"><a xlink:href="classarmnn_1_1_tosa_ref_workload_factory.html" target="_top" xlink:title=" ">
<polygon fill="white" stroke="black" points="158,-76.5 158,-95.5 294,-95.5 294,-76.5 158,-76.5"/>
<text text-anchor="middle" x="226" y="-83.5" font-family="Helvetica,sans-Serif" font-size="10.00">TosaRefWorkloadFactory</text>
</a>
</g>
</g>
<!-- Node1&#45;&gt;Node3 -->
<g id="edge2" class="edge">
<title>Node1&#45;&gt;Node3</title>
<path fill="none" stroke="midnightblue" d="M111.37,-73.56C126.35,-75.2 142.51,-76.97 157.81,-78.64"/>
<polygon fill="midnightblue" stroke="midnightblue" points="111.54,-70.05 101.22,-72.44 110.78,-77.01 111.54,-70.05"/>
</g>
<!-- Node4 -->
<g id="node4" class="node">
<title>Node4</title>
<g id="a_node4"><a xlink:href="classarmnn_1_1_workload_factory_base.html" target="_top" xlink:title=" ">
<polygon fill="white" stroke="black" points="165,-38.5 165,-57.5 287,-57.5 287,-38.5 165,-38.5"/>
<text text-anchor="middle" x="226" y="-45.5" font-family="Helvetica,sans-Serif" font-size="10.00">WorkloadFactoryBase</text>
</a>
</g>
</g>
<!-- Node1&#45;&gt;Node4 -->
<g id="edge3" class="edge">
<title>Node1&#45;&gt;Node4</title>
<path fill="none" stroke="midnightblue" d="M111.21,-60.46C128.53,-58.56 147.45,-56.49 164.81,-54.59"/>
<polygon fill="midnightblue" stroke="midnightblue" points="110.78,-56.99 101.22,-61.56 111.54,-63.95 110.78,-56.99"/>
</g>
<!-- Node7 -->
<g id="node7" class="node">
<title>Node7</title>
<g id="a_node7"><a xlink:href="classsdb_1_1_sample_dynamic_workload_factory.html" target="_top" xlink:title=" ">
<polygon fill="white" stroke="black" points="137,-0.5 137,-19.5 315,-19.5 315,-0.5 137,-0.5"/>
<text text-anchor="middle" x="226" y="-7.5" font-family="Helvetica,sans-Serif" font-size="10.00">SampleDynamicWorkloadFactory</text>
</a>
</g>
</g>
<!-- Node1&#45;&gt;Node7 -->
<g id="edge6" class="edge">
<title>Node1&#45;&gt;Node7</title>
<path fill="none" stroke="midnightblue" d="M79.14,-52.97C95.61,-45.06 117.12,-35.49 137,-29 148.29,-25.31 160.64,-22.14 172.41,-19.5"/>
<polygon fill="midnightblue" stroke="midnightblue" points="77.52,-49.87 70.08,-57.41 80.6,-56.16 77.52,-49.87"/>
</g>
<!-- Node5 -->
<g id="node5" class="node">
<title>Node5</title>
<g id="a_node5"><a xlink:href="classarmnn_1_1_cl_workload_factory.html" target="_top" xlink:title=" ">
<polygon fill="white" stroke="black" points="359,-57.5 359,-76.5 466,-76.5 466,-57.5 359,-57.5"/>
<text text-anchor="middle" x="412.5" y="-64.5" font-family="Helvetica,sans-Serif" font-size="10.00">ClWorkloadFactory</text>
</a>
</g>
</g>
<!-- Node4&#45;&gt;Node5 -->
<g id="edge4" class="edge">
<title>Node4&#45;&gt;Node5</title>
<path fill="none" stroke="midnightblue" d="M297.36,-55.25C317.79,-57.35 339.74,-59.61 358.87,-61.58"/>
<polygon fill="midnightblue" stroke="midnightblue" points="297.46,-51.74 287.16,-54.2 296.75,-58.7 297.46,-51.74"/>
</g>
<!-- Node6 -->
<g id="node6" class="node">
<title>Node6</title>
<g id="a_node6"><a xlink:href="classarmnn_1_1_neon_workload_factory.html" target="_top" xlink:title=" ">
<polygon fill="white" stroke="black" points="351,-19.5 351,-38.5 474,-38.5 474,-19.5 351,-19.5"/>
<text text-anchor="middle" x="412.5" y="-26.5" font-family="Helvetica,sans-Serif" font-size="10.00">NeonWorkloadFactory</text>
</a>
</g>
</g>
<!-- Node4&#45;&gt;Node6 -->
<g id="edge5" class="edge">
<title>Node4&#45;&gt;Node6</title>
<path fill="none" stroke="midnightblue" d="M297.37,-40.75C314.97,-38.94 333.7,-37.01 350.79,-35.25"/>
<polygon fill="midnightblue" stroke="midnightblue" points="296.75,-37.3 287.16,-41.8 297.46,-44.26 296.75,-37.3"/>
</g>
</g>
</svg>
