<?xml version="1.0" encoding="UTF-8" standalone="no"?>
<!DOCTYPE svg PUBLIC "-//W3C//DTD SVG 1.1//EN"
 "http://www.w3.org/Graphics/SVG/1.1/DTD/svg11.dtd">
<!-- Generated by graphviz version 2.43.0 (0)
 -->
<!-- Title: src Pages: 1 -->
<svg width="714pt" height="292pt"
 viewBox="0.00 0.00 714.46 292.00" xmlns="http://www.w3.org/2000/svg" xmlns:xlink="http://www.w3.org/1999/xlink">
<g id="graph0" class="graph" transform="scale(1 1) rotate(0) translate(4 288)">
<title>src</title>
<polygon fill="white" stroke="transparent" points="-4,4 -4,-288 710.46,-288 710.46,4 -4,4"/>
<g id="clust1" class="cluster">
<title>clusterdir_68267d1309a1af8e8297ef4c3efbcdba</title>
<g id="a_clust1"><a xlink:href="dir_68267d1309a1af8e8297ef4c3efbcdba.html" target="_top">
<polygon fill="#eeeeff" stroke="black" points="8,-8 8,-276 498,-276 498,-8 8,-8"/>
</a>
</g>
</g>
<!-- dir_68267d1309a1af8e8297ef4c3efbcdba -->
<g id="node1" class="node">
<title>dir_68267d1309a1af8e8297ef4c3efbcdba</title>
<text text-anchor="middle" x="463" y="-247.5" font-family="Helvetica,sans-Serif" font-size="10.00">src</text>
</g>
<!-- dir_e0a84d05c80a2ef4231141dcbbeac5c8 -->
<g id="node2" class="node">
<title>dir_e0a84d05c80a2ef4231141dcbbeac5c8</title>
<g id="a_node2"><a xlink:href="dir_e0a84d05c80a2ef4231141dcbbeac5c8.html" target="_top" xlink:title="armnn">
<polygon fill="white" stroke="red" points="251,-196 197,-196 197,-160 251,-160 251,-196"/>
<text text-anchor="middle" x="224" y="-175.5" font-family="Helvetica,sans-Serif" font-size="10.00">armnn</text>
</a>
</g>
</g>
<!-- dir_5d9c764a006d252ff232a5efbbd99a46 -->
<g id="node8" class="node">
<title>dir_5d9c764a006d252ff232a5efbbd99a46</title>
<g id="a_node8"><a xlink:href="dir_5d9c764a006d252ff232a5efbbd99a46.html" target="_top" xlink:title="armnnUtils">
<polygon fill="white" stroke="black" points="205.5,-52 134.5,-52 134.5,-16 205.5,-16 205.5,-52"/>
<text text-anchor="middle" x="170" y="-31.5" font-family="Helvetica,sans-Serif" font-size="10.00">armnnUtils</text>
</a>
</g>
</g>
<!-- dir_e0a84d05c80a2ef4231141dcbbeac5c8&#45;&gt;dir_5d9c764a006d252ff232a5efbbd99a46 -->
<g id="edge14" class="edge">
<title>dir_e0a84d05c80a2ef4231141dcbbeac5c8&#45;&gt;dir_5d9c764a006d252ff232a5efbbd99a46</title>
<path fill="none" stroke="black" d="M196.8,-173.68C149.6,-166.71 56.68,-149.09 38,-124 28.45,-111.17 29.21,-101.37 38,-88 56.66,-59.64 94.04,-46.39 124.39,-40.24"/>
<polygon fill="black" stroke="black" points="125.17,-43.66 134.38,-38.41 123.91,-36.77 125.17,-43.66"/>
<g id="a_edge14&#45;headlabel"><a xlink:href="dir_000027_000035.html" target="_top" xlink:title="6">
<text text-anchor="middle" x="122.14" y="-44.59" font-family="Helvetica,sans-Serif" font-size="10.00">6</text>
</a>
</g>
</g>
<!-- dir_0f3cdec46afbc61a1ded8e1687c9c9a0 -->
<g id="node9" class="node">
<title>dir_0f3cdec46afbc61a1ded8e1687c9c9a0</title>
<g id="a_node9"><a xlink:href="dir_0f3cdec46afbc61a1ded8e1687c9c9a0.html" target="_top" xlink:title="backends">
<polygon fill="white" stroke="red" points="366,-124 304,-124 304,-88 366,-88 366,-124"/>
<text text-anchor="middle" x="335" y="-103.5" font-family="Helvetica,sans-Serif" font-size="10.00">backends</text>
</a>
</g>
</g>
<!-- dir_e0a84d05c80a2ef4231141dcbbeac5c8&#45;&gt;dir_0f3cdec46afbc61a1ded8e1687c9c9a0 -->
<g id="edge15" class="edge">
<title>dir_e0a84d05c80a2ef4231141dcbbeac5c8&#45;&gt;dir_0f3cdec46afbc61a1ded8e1687c9c9a0</title>
<path fill="none" stroke="black" d="M245.26,-159.88C259.45,-150.29 278.4,-138.27 295.28,-128.11"/>
<polygon fill="black" stroke="black" points="297.07,-131.11 303.88,-122.99 293.49,-125.1 297.07,-131.11"/>
<g id="a_edge15&#45;headlabel"><a xlink:href="dir_000027_000021.html" target="_top" xlink:title="16">
<text text-anchor="middle" x="295.44" y="-132.89" font-family="Helvetica,sans-Serif" font-size="10.00">16</text>
</a>
</g>
</g>
<!-- dir_d44c64559bbebec7f509842c48db8b23 -->
<g id="node12" class="node">
<title>dir_d44c64559bbebec7f509842c48db8b23</title>
<g id="a_node12"><a xlink:href="dir_d44c64559bbebec7f509842c48db8b23.html" target="_top" xlink:title="include">
<polygon fill="white" stroke="red" points="560,-52 506,-52 506,-16 560,-16 560,-52"/>
<text text-anchor="middle" x="533" y="-31.5" font-family="Helvetica,sans-Serif" font-size="10.00">include</text>
</a>
</g>
</g>
<!-- dir_e0a84d05c80a2ef4231141dcbbeac5c8&#45;&gt;dir_d44c64559bbebec7f509842c48db8b23 -->
<g id="edge16" class="edge">
<title>dir_e0a84d05c80a2ef4231141dcbbeac5c8&#45;&gt;dir_d44c64559bbebec7f509842c48db8b23</title>
<path fill="none" stroke="black" d="M251.44,-175.06C313.39,-170.17 461.57,-155.41 499,-124 517.26,-108.68 525.73,-82.41 529.66,-62.37"/>
<polygon fill="black" stroke="black" points="533.15,-62.71 531.36,-52.26 526.25,-61.54 533.15,-62.71"/>
<g id="a_edge16&#45;headlabel"><a xlink:href="dir_000027_000008.html" target="_top" xlink:title="445">
<text text-anchor="middle" x="535.35" y="-64.22" font-family="Helvetica,sans-Serif" font-size="10.00">445</text>
</a>
</g>
</g>
<!-- dir_926e64104daaa2ed9ca6061297f76df9 -->
<g id="node3" class="node">
<title>dir_926e64104daaa2ed9ca6061297f76df9</title>
<g id="a_node3"><a xlink:href="dir_926e64104daaa2ed9ca6061297f76df9.html" target="_top" xlink:title="armnnDeserializer">
<polygon fill="white" stroke="black" points="285.5,-124 178.5,-124 178.5,-88 285.5,-88 285.5,-124"/>
<text text-anchor="middle" x="232" y="-103.5" font-family="Helvetica,sans-Serif" font-size="10.00">armnnDeserializer</text>
</a>
</g>
</g>
<!-- dir_926e64104daaa2ed9ca6061297f76df9&#45;&gt;dir_5d9c764a006d252ff232a5efbbd99a46 -->
<g id="edge12" class="edge">
<title>dir_926e64104daaa2ed9ca6061297f76df9&#45;&gt;dir_5d9c764a006d252ff232a5efbbd99a46</title>
<path fill="none" stroke="black" d="M216.67,-87.7C209.24,-79.3 200.18,-69.07 192.02,-59.86"/>
<polygon fill="black" stroke="black" points="194.4,-57.27 185.15,-52.1 189.16,-61.91 194.4,-57.27"/>
<g id="a_edge12&#45;headlabel"><a xlink:href="dir_000030_000035.html" target="_top" xlink:title="2">
<text text-anchor="middle" x="198.91" y="-55.58" font-family="Helvetica,sans-Serif" font-size="10.00">2</text>
</a>
</g>
</g>
<!-- dir_926e64104daaa2ed9ca6061297f76df9&#45;&gt;dir_d44c64559bbebec7f509842c48db8b23 -->
<g id="edge13" class="edge">
<title>dir_926e64104daaa2ed9ca6061297f76df9&#45;&gt;dir_d44c64559bbebec7f509842c48db8b23</title>
<path fill="none" stroke="black" d="M285.53,-90.2C288.73,-89.42 291.9,-88.69 295,-88 382.97,-68.52 411.84,-81.85 496.37,-53.76"/>
<polygon fill="black" stroke="black" points="497.51,-57.07 505.84,-50.53 495.25,-50.45 497.51,-57.07"/>
<g id="a_edge13&#45;headlabel"><a xlink:href="dir_000030_000008.html" target="_top" xlink:title="13">
<text text-anchor="middle" x="495.03" y="-58.42" font-family="Helvetica,sans-Serif" font-size="10.00">13</text>
</a>
</g>
</g>
<!-- dir_29e3193d5087607956cb928081b12830 -->
<g id="node4" class="node">
<title>dir_29e3193d5087607956cb928081b12830</title>
<g id="a_node4"><a xlink:href="dir_29e3193d5087607956cb928081b12830.html" target="_top" xlink:title="armnnOnnxParser">
<polygon fill="white" stroke="black" points="160,-124 56,-124 56,-88 160,-88 160,-124"/>
<text text-anchor="middle" x="108" y="-103.5" font-family="Helvetica,sans-Serif" font-size="10.00">armnnOnnxParser</text>
</a>
</g>
</g>
<!-- dir_29e3193d5087607956cb928081b12830&#45;&gt;dir_5d9c764a006d252ff232a5efbbd99a46 -->
<g id="edge10" class="edge">
<title>dir_29e3193d5087607956cb928081b12830&#45;&gt;dir_5d9c764a006d252ff232a5efbbd99a46</title>
<path fill="none" stroke="black" d="M123.33,-87.7C130.76,-79.3 139.82,-69.07 147.98,-59.86"/>
<polygon fill="black" stroke="black" points="150.84,-61.91 154.85,-52.1 145.6,-57.27 150.84,-61.91"/>
<g id="a_edge10&#45;headlabel"><a xlink:href="dir_000031_000035.html" target="_top" xlink:title="2">
<text text-anchor="middle" x="150.58" y="-63.98" font-family="Helvetica,sans-Serif" font-size="10.00">2</text>
</a>
</g>
</g>
<!-- dir_29e3193d5087607956cb928081b12830&#45;&gt;dir_d44c64559bbebec7f509842c48db8b23 -->
<g id="edge11" class="edge">
<title>dir_29e3193d5087607956cb928081b12830&#45;&gt;dir_d44c64559bbebec7f509842c48db8b23</title>
<path fill="none" stroke="black" d="M160.11,-89.87C163.11,-89.19 166.08,-88.56 169,-88 311.91,-60.55 357.93,-95.04 496.2,-53.61"/>
<polygon fill="black" stroke="black" points="497.35,-56.92 505.88,-50.63 495.29,-50.22 497.35,-56.92"/>
<g id="a_edge11&#45;headlabel"><a xlink:href="dir_000031_000008.html" target="_top" xlink:title="6">
<text text-anchor="middle" x="494.75" y="-58.19" font-family="Helvetica,sans-Serif" font-size="10.00">6</text>
</a>
</g>
</g>
<!-- dir_bff0d59bec81fb3d13742442d8f4421d -->
<g id="node5" class="node">
<title>dir_bff0d59bec81fb3d13742442d8f4421d</title>
<g id="a_node5"><a xlink:href="dir_bff0d59bec81fb3d13742442d8f4421d.html" target="_top" xlink:title="armnnSerializer">
<polygon fill="white" stroke="black" points="302,-268 208,-268 208,-232 302,-232 302,-268"/>
<text text-anchor="middle" x="255" y="-247.5" font-family="Helvetica,sans-Serif" font-size="10.00">armnnSerializer</text>
</a>
</g>
</g>
<!-- dir_bff0d59bec81fb3d13742442d8f4421d&#45;&gt;dir_d44c64559bbebec7f509842c48db8b23 -->
<g id="edge21" class="edge">
<title>dir_bff0d59bec81fb3d13742442d8f4421d&#45;&gt;dir_d44c64559bbebec7f509842c48db8b23</title>
<path fill="none" stroke="black" d="M302.2,-233.99C305.16,-233.26 308.11,-232.59 311,-232 384.37,-217.06 595.97,-251.7 646,-196 678.08,-160.29 671.75,-128.51 646,-88 629.43,-61.93 596.27,-48.46 570.13,-41.64"/>
<polygon fill="black" stroke="black" points="570.69,-38.17 560.15,-39.26 569.07,-44.98 570.69,-38.17"/>
<g id="a_edge21&#45;headlabel"><a xlink:href="dir_000032_000008.html" target="_top" xlink:title="9">
<text text-anchor="middle" x="574.85" y="-33.74" font-family="Helvetica,sans-Serif" font-size="10.00">9</text>
</a>
</g>
</g>
<!-- dir_f574f3650e467f7ec35d628d20229555 -->
<g id="node6" class="node">
<title>dir_f574f3650e467f7ec35d628d20229555</title>
<g id="a_node6"><a xlink:href="dir_f574f3650e467f7ec35d628d20229555.html" target="_top" xlink:title="armnnTestUtils">
<polygon fill="white" stroke="black" points="112,-268 22,-268 22,-232 112,-232 112,-268"/>
<text text-anchor="middle" x="67" y="-247.5" font-family="Helvetica,sans-Serif" font-size="10.00">armnnTestUtils</text>
</a>
</g>
</g>
<!-- dir_f574f3650e467f7ec35d628d20229555&#45;&gt;dir_e0a84d05c80a2ef4231141dcbbeac5c8 -->
<g id="edge24" class="edge">
<title>dir_f574f3650e467f7ec35d628d20229555&#45;&gt;dir_e0a84d05c80a2ef4231141dcbbeac5c8</title>
<path fill="none" stroke="black" d="M105.41,-231.88C130.41,-220.73 162.83,-206.27 187.46,-195.29"/>
<polygon fill="black" stroke="black" points="189.11,-198.39 196.82,-191.12 186.26,-192 189.11,-198.39"/>
<g id="a_edge24&#45;headlabel"><a xlink:href="dir_000033_000027.html" target="_top" xlink:title="12">
<text text-anchor="middle" x="186.98" y="-199.95" font-family="Helvetica,sans-Serif" font-size="10.00">12</text>
</a>
</g>
</g>
<!-- dir_f574f3650e467f7ec35d628d20229555&#45;&gt;dir_5d9c764a006d252ff232a5efbbd99a46 -->
<g id="edge22" class="edge">
<title>dir_f574f3650e467f7ec35d628d20229555&#45;&gt;dir_5d9c764a006d252ff232a5efbbd99a46</title>
<path fill="none" stroke="black" d="M56.29,-231.83C38.22,-200.45 6.53,-132.95 37,-88 56.42,-59.35 94.07,-46.19 124.37,-40.14"/>
<polygon fill="black" stroke="black" points="125.1,-43.56 134.32,-38.35 123.86,-36.67 125.1,-43.56"/>
<g id="a_edge22&#45;headlabel"><a xlink:href="dir_000033_000035.html" target="_top" xlink:title="1">
<text text-anchor="middle" x="122.07" y="-44.49" font-family="Helvetica,sans-Serif" font-size="10.00">1</text>
</a>
</g>
</g>
<!-- dir_f574f3650e467f7ec35d628d20229555&#45;&gt;dir_0f3cdec46afbc61a1ded8e1687c9c9a0 -->
<g id="edge23" class="edge">
<title>dir_f574f3650e467f7ec35d628d20229555&#45;&gt;dir_0f3cdec46afbc61a1ded8e1687c9c9a0</title>
<path fill="none" stroke="black" d="M86.29,-231.86C109.18,-212.26 149.16,-180.26 188,-160 232.11,-136.99 247.44,-141.54 294,-124 294.1,-123.96 294.2,-123.93 294.3,-123.89"/>
<polygon fill="black" stroke="black" points="295.7,-127.1 303.75,-120.21 293.16,-120.58 295.7,-127.1"/>
<g id="a_edge23&#45;headlabel"><a xlink:href="dir_000033_000021.html" target="_top" xlink:title="3">
<text text-anchor="middle" x="293.38" y="-128.55" font-family="Helvetica,sans-Serif" font-size="10.00">3</text>
</a>
</g>
</g>
<!-- dir_f574f3650e467f7ec35d628d20229555&#45;&gt;dir_d44c64559bbebec7f509842c48db8b23 -->
<g id="edge25" class="edge">
<title>dir_f574f3650e467f7ec35d628d20229555&#45;&gt;dir_d44c64559bbebec7f509842c48db8b23</title>
<path fill="none" stroke="black" d="M112.02,-234.62C115.06,-233.71 118.07,-232.83 121,-232 308.47,-178.72 426.36,-277.85 546,-124 559.63,-106.47 554.11,-80.95 546.5,-61.73"/>
<polygon fill="black" stroke="black" points="549.61,-60.11 542.43,-52.33 543.19,-62.89 549.61,-60.11"/>
<g id="a_edge25&#45;headlabel"><a xlink:href="dir_000033_000008.html" target="_top" xlink:title="21">
<text text-anchor="middle" x="553.65" y="-59.78" font-family="Helvetica,sans-Serif" font-size="10.00">21</text>
</a>
</g>
</g>
<!-- dir_510324e450b9df55f9aac2d01fae83d8 -->
<g id="node7" class="node">
<title>dir_510324e450b9df55f9aac2d01fae83d8</title>
<g id="a_node7"><a xlink:href="dir_510324e450b9df55f9aac2d01fae83d8.html" target="_top" xlink:title="armnnTfLiteParser">
<polygon fill="white" stroke="black" points="490,-124 384,-124 384,-88 490,-88 490,-124"/>
<text text-anchor="middle" x="437" y="-103.5" font-family="Helvetica,sans-Serif" font-size="10.00">armnnTfLiteParser</text>
</a>
</g>
</g>
<!-- dir_510324e450b9df55f9aac2d01fae83d8&#45;&gt;dir_5d9c764a006d252ff232a5efbbd99a46 -->
<g id="edge19" class="edge">
<title>dir_510324e450b9df55f9aac2d01fae83d8&#45;&gt;dir_5d9c764a006d252ff232a5efbbd99a46</title>
<path fill="none" stroke="black" d="M383.91,-90.39C380.9,-89.58 377.91,-88.78 375,-88 320.2,-73.4 256.99,-57.15 215.42,-46.54"/>
<polygon fill="black" stroke="black" points="216.15,-43.11 205.59,-44.03 214.42,-49.9 216.15,-43.11"/>
<g id="a_edge19&#45;headlabel"><a xlink:href="dir_000034_000035.html" target="_top" xlink:title="2">
<text text-anchor="middle" x="220.33" y="-38.75" font-family="Helvetica,sans-Serif" font-size="10.00">2</text>
</a>
</g>
</g>
<!-- dir_510324e450b9df55f9aac2d01fae83d8&#45;&gt;dir_d44c64559bbebec7f509842c48db8b23 -->
<g id="edge20" class="edge">
<title>dir_510324e450b9df55f9aac2d01fae83d8&#45;&gt;dir_d44c64559bbebec7f509842c48db8b23</title>
<path fill="none" stroke="black" d="M460.73,-87.7C472.94,-78.8 487.99,-67.82 501.18,-58.2"/>
<polygon fill="black" stroke="black" points="503.52,-60.82 509.54,-52.1 499.4,-55.17 503.52,-60.82"/>
<g id="a_edge20&#45;headlabel"><a xlink:href="dir_000034_000008.html" target="_top" xlink:title="18">
<text text-anchor="middle" x="502.29" y="-62.74" font-family="Helvetica,sans-Serif" font-size="10.00">18</text>
</a>
</g>
</g>
<!-- dir_5d9c764a006d252ff232a5efbbd99a46&#45;&gt;dir_e0a84d05c80a2ef4231141dcbbeac5c8 -->
<g id="edge5" class="edge">
<title>dir_5d9c764a006d252ff232a5efbbd99a46&#45;&gt;dir_e0a84d05c80a2ef4231141dcbbeac5c8</title>
<path fill="none" stroke="black" d="M134.24,-41.39C107.75,-47.98 73.57,-61.29 56,-88 47.21,-101.37 46.45,-111.17 56,-124 71.99,-145.48 142.44,-161.49 186.99,-170.03"/>
<polygon fill="black" stroke="black" points="186.42,-173.48 196.89,-171.88 187.71,-166.6 186.42,-173.48"/>
<g id="a_edge5&#45;headlabel"><a xlink:href="dir_000035_000027.html" target="_top" xlink:title="1">
<text text-anchor="middle" x="182.36" y="-173.11" font-family="Helvetica,sans-Serif" font-size="10.00">1</text>
</a>
</g>
</g>
<!-- dir_5d9c764a006d252ff232a5efbbd99a46&#45;&gt;dir_d44c64559bbebec7f509842c48db8b23 -->
<g id="edge6" class="edge">
<title>dir_5d9c764a006d252ff232a5efbbd99a46&#45;&gt;dir_d44c64559bbebec7f509842c48db8b23</title>
<path fill="none" stroke="black" d="M205.8,-34C302.4,-34 398.99,-34 495.58,-34"/>
<polygon fill="black" stroke="black" points="495.84,-37.5 505.84,-34 495.84,-30.5 495.84,-37.5"/>
<g id="a_edge6&#45;headlabel"><a xlink:href="dir_000035_000008.html" target="_top" xlink:title="34">
<text text-anchor="middle" x="492.25" y="-37.84" font-family="Helvetica,sans-Serif" font-size="10.00">34</text>
</a>
</g>
</g>
<!-- dir_0f3cdec46afbc61a1ded8e1687c9c9a0&#45;&gt;dir_e0a84d05c80a2ef4231141dcbbeac5c8 -->
<g id="edge8" class="edge">
<title>dir_0f3cdec46afbc61a1ded8e1687c9c9a0&#45;&gt;dir_e0a84d05c80a2ef4231141dcbbeac5c8</title>
<path fill="none" stroke="black" d="M313.78,-124.1C298.56,-134.37 277.86,-147.47 260.11,-158.06"/>
<polygon fill="black" stroke="black" points="257.99,-155.25 251.15,-163.34 261.54,-161.28 257.99,-155.25"/>
<g id="a_edge8&#45;headlabel"><a xlink:href="dir_000021_000027.html" target="_top" xlink:title="93">
<text text-anchor="middle" x="259.64" y="-148.48" font-family="Helvetica,sans-Serif" font-size="10.00">93</text>
</a>
</g>
</g>
<!-- dir_0f3cdec46afbc61a1ded8e1687c9c9a0&#45;&gt;dir_5d9c764a006d252ff232a5efbbd99a46 -->
<g id="edge7" class="edge">
<title>dir_0f3cdec46afbc61a1ded8e1687c9c9a0&#45;&gt;dir_5d9c764a006d252ff232a5efbbd99a46</title>
<path fill="none" stroke="black" d="M303.96,-91.83C278.89,-81.19 243.25,-66.07 215.03,-54.1"/>
<polygon fill="black" stroke="black" points="216.35,-50.86 205.77,-50.18 213.61,-57.3 216.35,-50.86"/>
<g id="a_edge7&#45;headlabel"><a xlink:href="dir_000021_000035.html" target="_top" xlink:title="23">
<text text-anchor="middle" x="220.76" y="-47.15" font-family="Helvetica,sans-Serif" font-size="10.00">23</text>
</a>
</g>
</g>
<!-- dir_0f3cdec46afbc61a1ded8e1687c9c9a0&#45;&gt;dir_d44c64559bbebec7f509842c48db8b23 -->
<g id="edge9" class="edge">
<title>dir_0f3cdec46afbc61a1ded8e1687c9c9a0&#45;&gt;dir_d44c64559bbebec7f509842c48db8b23</title>
<path fill="none" stroke="black" d="M366.3,-91.26C369.22,-90.11 372.15,-89 375,-88 427.19,-69.59 445.62,-73.67 496.29,-54.14"/>
<polygon fill="black" stroke="black" points="497.79,-57.32 505.78,-50.36 495.19,-50.81 497.79,-57.32"/>
<g id="a_edge9&#45;headlabel"><a xlink:href="dir_000021_000008.html" target="_top" xlink:title="678">
<text text-anchor="middle" x="495.5" y="-58.78" font-family="Helvetica,sans-Serif" font-size="10.00">678</text>
</a>
</g>
</g>
<!-- dir_101da30fc6c118b726c448f5a6ab9e53 -->
<g id="node10" class="node">
<title>dir_101da30fc6c118b726c448f5a6ab9e53</title>
<g id="a_node10"><a xlink:href="dir_101da30fc6c118b726c448f5a6ab9e53.html" target="_top" xlink:title="dynamic">
<polygon fill="white" stroke="red" points="189.5,-268 130.5,-268 130.5,-232 189.5,-232 189.5,-268"/>
<text text-anchor="middle" x="160" y="-247.5" font-family="Helvetica,sans-Serif" font-size="10.00">dynamic</text>
</a>
</g>
</g>
<!-- dir_101da30fc6c118b726c448f5a6ab9e53&#45;&gt;dir_e0a84d05c80a2ef4231141dcbbeac5c8 -->
<g id="edge2" class="edge">
<title>dir_101da30fc6c118b726c448f5a6ab9e53&#45;&gt;dir_e0a84d05c80a2ef4231141dcbbeac5c8</title>
<path fill="none" stroke="black" d="M175.82,-231.7C183.57,-223.22 193.04,-212.86 201.52,-203.58"/>
<polygon fill="black" stroke="black" points="204.2,-205.85 208.36,-196.1 199.03,-201.12 204.2,-205.85"/>
<g id="a_edge2&#45;headlabel"><a xlink:href="dir_000022_000027.html" target="_top" xlink:title="2">
<text text-anchor="middle" x="203.87" y="-207.92" font-family="Helvetica,sans-Serif" font-size="10.00">2</text>
</a>
</g>
</g>
<!-- dir_101da30fc6c118b726c448f5a6ab9e53&#45;&gt;dir_0f3cdec46afbc61a1ded8e1687c9c9a0 -->
<g id="edge1" class="edge">
<title>dir_101da30fc6c118b726c448f5a6ab9e53&#45;&gt;dir_0f3cdec46afbc61a1ded8e1687c9c9a0</title>
<path fill="none" stroke="black" d="M189.86,-234.75C214.87,-222.53 248.3,-205.44 260,-196 282.77,-177.62 303.78,-151.56 317.73,-132.38"/>
<polygon fill="black" stroke="black" points="320.68,-134.28 323.63,-124.11 314.98,-130.22 320.68,-134.28"/>
<g id="a_edge1&#45;headlabel"><a xlink:href="dir_000022_000021.html" target="_top" xlink:title="2">
<text text-anchor="middle" x="320.9" y="-136.36" font-family="Helvetica,sans-Serif" font-size="10.00">2</text>
</a>
</g>
</g>
<!-- dir_101da30fc6c118b726c448f5a6ab9e53&#45;&gt;dir_d44c64559bbebec7f509842c48db8b23 -->
<g id="edge3" class="edge">
<title>dir_101da30fc6c118b726c448f5a6ab9e53&#45;&gt;dir_d44c64559bbebec7f509842c48db8b23</title>
<path fill="none" stroke="black" d="M189.89,-234.83C192.92,-233.74 195.99,-232.77 199,-232 287.42,-209.48 546.38,-263.29 608,-196 640.42,-160.6 630.07,-130.62 608,-88 599.68,-71.94 584.01,-59.7 569.13,-51.06"/>
<polygon fill="black" stroke="black" points="570.5,-47.82 560.04,-46.14 567.17,-53.98 570.5,-47.82"/>
<g id="a_edge3&#45;headlabel"><a xlink:href="dir_000022_000008.html" target="_top" xlink:title="16">
<text text-anchor="middle" x="575.01" y="-44.53" font-family="Helvetica,sans-Serif" font-size="10.00">16</text>
</a>
</g>
</g>
<!-- dir_4d9706f59620ec516301c65441ed077a -->
<g id="node11" class="node">
<title>dir_4d9706f59620ec516301c65441ed077a</title>
<g id="a_node11"><a xlink:href="dir_4d9706f59620ec516301c65441ed077a.html" target="_top" xlink:title="timelineDecoder">
<polygon fill="white" stroke="red" points="418,-268 320,-268 320,-232 418,-232 418,-268"/>
<text text-anchor="middle" x="369" y="-247.5" font-family="Helvetica,sans-Serif" font-size="10.00">timelineDecoder</text>
</a>
</g>
</g>
<!-- dir_4d9706f59620ec516301c65441ed077a&#45;&gt;dir_d44c64559bbebec7f509842c48db8b23 -->
<g id="edge4" class="edge">
<title>dir_4d9706f59620ec516301c65441ed077a&#45;&gt;dir_d44c64559bbebec7f509842c48db8b23</title>
<path fill="none" stroke="black" d="M418.24,-234.04C421.19,-233.31 424.13,-232.62 427,-232 483.38,-219.86 646.16,-239.51 684,-196 715.5,-159.78 711.76,-127.16 684,-88 658.34,-51.79 605.91,-40.14 570.11,-36.49"/>
<polygon fill="black" stroke="black" points="570.3,-32.99 560.04,-35.63 569.7,-39.97 570.3,-32.99"/>
<g id="a_edge4&#45;headlabel"><a xlink:href="dir_000053_000008.html" target="_top" xlink:title="2">
<text text-anchor="middle" x="574.12" y="-27.97" font-family="Helvetica,sans-Serif" font-size="10.00">2</text>
</a>
</g>
</g>
<!-- dir_d44c64559bbebec7f509842c48db8b23&#45;&gt;dir_e0a84d05c80a2ef4231141dcbbeac5c8 -->
<g id="edge18" class="edge">
<title>dir_d44c64559bbebec7f509842c48db8b23&#45;&gt;dir_e0a84d05c80a2ef4231141dcbbeac5c8</title>
<path fill="none" stroke="black" d="M537,-52.16C540.54,-72.09 542.74,-104.69 525,-124 490.01,-162.08 333.81,-172.9 261.26,-175.89"/>
<polygon fill="black" stroke="black" points="261.04,-172.4 251.19,-176.28 261.31,-179.39 261.04,-172.4"/>
<g id="a_edge18&#45;headlabel"><a xlink:href="dir_000008_000027.html" target="_top" xlink:title="6">
<text text-anchor="middle" x="264.53" y="-166.92" font-family="Helvetica,sans-Serif" font-size="10.00">6</text>
</a>
</g>
</g>
<!-- dir_d44c64559bbebec7f509842c48db8b23&#45;&gt;dir_5d9c764a006d252ff232a5efbbd99a46 -->
<g id="edge17" class="edge">
<title>dir_d44c64559bbebec7f509842c48db8b23&#45;&gt;dir_5d9c764a006d252ff232a5efbbd99a46</title>
<path fill="none" stroke="black" d="M505.84,-34C409.25,-34 312.65,-34 216.06,-34"/>
<polygon fill="black" stroke="black" points="215.8,-30.5 205.8,-34 215.8,-37.5 215.8,-30.5"/>
<g id="a_edge17&#45;headlabel"><a xlink:href="dir_000008_000035.html" target="_top" xlink:title="2">
<text text-anchor="middle" x="219.4" y="-25.16" font-family="Helvetica,sans-Serif" font-size="10.00">2</text>
</a>
</g>
</g>
</g>
</svg>
