<?xml version="1.0" encoding="UTF-8" standalone="no"?>
<!DOCTYPE svg PUBLIC "-//W3C//DTD SVG 1.1//EN"
 "http://www.w3.org/Graphics/SVG/1.1/DTD/svg11.dtd">
<!-- Generated by graphviz version 2.43.0 (0)
 -->
<!-- Title: Graphical Class Hierarchy Pages: 1 -->
<svg width="593pt" height="598pt"
 viewBox="0.00 0.00 593.00 598.00" xmlns="http://www.w3.org/2000/svg" xmlns:xlink="http://www.w3.org/1999/xlink">
<g id="graph0" class="graph" transform="scale(1 1) rotate(0) translate(4 594)">
<title>Graphical Class Hierarchy</title>
<polygon fill="white" stroke="transparent" points="-4,4 -4,-594 589,-594 589,4 -4,4"/>
<!-- Node1190 -->
<g id="node1" class="node">
<title>Node1190</title>
<g id="a_node1"><a xlink:title=" ">
<polygon fill="white" stroke="#bfbfbf" points="0,-285.5 0,-304.5 65,-304.5 65,-285.5 0,-285.5"/>
<text text-anchor="middle" x="32.5" y="-292.5" font-family="Helvetica,sans-Serif" font-size="10.00">exception</text>
</a>
</g>
</g>
<!-- Node0 -->
<g id="node2" class="node">
<title>Node0</title>
<g id="a_node2"><a xlink:href="classarmnn_1_1_exception.html" target="_top" xlink:title="Base class for all ArmNN exceptions so that users can filter to just those.">
<polygon fill="white" stroke="black" points="101,-285.5 101,-304.5 166,-304.5 166,-285.5 101,-285.5"/>
<text text-anchor="middle" x="133.5" y="-292.5" font-family="Helvetica,sans-Serif" font-size="10.00">Exception</text>
</a>
</g>
</g>
<!-- Node1190&#45;&gt;Node0 -->
<g id="edge1" class="edge">
<title>Node1190&#45;&gt;Node0</title>
<path fill="none" stroke="midnightblue" d="M75.31,-295C83.86,-295 92.74,-295 100.86,-295"/>
<polygon fill="midnightblue" stroke="midnightblue" points="75.1,-291.5 65.1,-295 75.1,-298.5 75.1,-291.5"/>
</g>
<!-- Node1 -->
<g id="node3" class="node">
<title>Node1</title>
<g id="a_node3"><a xlink:href="classarmnn_1_1_backend_capability_exception.html" target="_top" xlink:title=" ">
<polygon fill="white" stroke="black" points="211,-570.5 211,-589.5 366,-589.5 366,-570.5 211,-570.5"/>
<text text-anchor="middle" x="288.5" y="-577.5" font-family="Helvetica,sans-Serif" font-size="10.00">BackendCapabilityException</text>
</a>
</g>
</g>
<!-- Node0&#45;&gt;Node1 -->
<g id="edge2" class="edge">
<title>Node0&#45;&gt;Node1</title>
<path fill="none" stroke="midnightblue" d="M136.82,-314.65C143.77,-370.14 166.18,-526.23 202,-561 205.93,-564.81 210.44,-567.93 215.3,-570.47"/>
<polygon fill="midnightblue" stroke="midnightblue" points="140.29,-314.19 135.61,-304.69 133.34,-315.04 140.29,-314.19"/>
</g>
<!-- Node2 -->
<g id="node4" class="node">
<title>Node2</title>
<g id="a_node4"><a xlink:href="classarmnn_1_1_backend_unavailable_exception.html" target="_top" xlink:title="Class for non&#45;fatal exceptions raised while initialising a backend.">
<polygon fill="white" stroke="black" points="206.5,-532.5 206.5,-551.5 370.5,-551.5 370.5,-532.5 206.5,-532.5"/>
<text text-anchor="middle" x="288.5" y="-539.5" font-family="Helvetica,sans-Serif" font-size="10.00">BackendUnavailableException</text>
</a>
</g>
</g>
<!-- Node0&#45;&gt;Node2 -->
<g id="edge3" class="edge">
<title>Node0&#45;&gt;Node2</title>
<path fill="none" stroke="midnightblue" d="M134.11,-314.79C134.38,-359.07 141.6,-466.64 202,-523 206,-526.73 210.57,-529.79 215.46,-532.3"/>
<polygon fill="midnightblue" stroke="midnightblue" points="137.61,-314.54 134.17,-304.52 130.61,-314.5 137.61,-314.54"/>
</g>
<!-- Node4 -->
<g id="node6" class="node">
<title>Node4</title>
<g id="a_node6"><a xlink:href="classarmnn_1_1_bad_optional_access_exception.html" target="_top" xlink:title=" ">
<polygon fill="white" stroke="black" points="209.5,-494.5 209.5,-513.5 367.5,-513.5 367.5,-494.5 209.5,-494.5"/>
<text text-anchor="middle" x="288.5" y="-501.5" font-family="Helvetica,sans-Serif" font-size="10.00">BadOptionalAccessException</text>
</a>
</g>
</g>
<!-- Node0&#45;&gt;Node4 -->
<g id="edge5" class="edge">
<title>Node0&#45;&gt;Node4</title>
<path fill="none" stroke="midnightblue" d="M135.47,-314.66C138.49,-353.41 150.92,-439.83 202,-485 206.33,-488.83 211.26,-491.94 216.51,-494.46"/>
<polygon fill="midnightblue" stroke="midnightblue" points="138.96,-314.41 134.82,-304.66 131.98,-314.86 138.96,-314.41"/>
</g>
<!-- Node5 -->
<g id="node7" class="node">
<title>Node5</title>
<g id="a_node7"><a xlink:href="classarmnn_1_1_file_not_found_exception.html" target="_top" xlink:title=" ">
<polygon fill="white" stroke="black" points="224.5,-456.5 224.5,-475.5 352.5,-475.5 352.5,-456.5 224.5,-456.5"/>
<text text-anchor="middle" x="288.5" y="-463.5" font-family="Helvetica,sans-Serif" font-size="10.00">FileNotFoundException</text>
</a>
</g>
</g>
<!-- Node0&#45;&gt;Node5 -->
<g id="edge6" class="edge">
<title>Node0&#45;&gt;Node5</title>
<path fill="none" stroke="midnightblue" d="M137.46,-314.75C143.46,-347.49 160.22,-412.81 202,-447 208.47,-452.3 216.11,-456.19 224.11,-459.05"/>
<polygon fill="midnightblue" stroke="midnightblue" points="140.87,-313.91 135.77,-304.62 133.97,-315.07 140.87,-313.91"/>
</g>
<!-- Node6 -->
<g id="node8" class="node">
<title>Node6</title>
<g id="a_node8"><a xlink:href="classarmnn_1_1_graph_validation_exception.html" target="_top" xlink:title=" ">
<polygon fill="white" stroke="black" points="217,-418.5 217,-437.5 360,-437.5 360,-418.5 217,-418.5"/>
<text text-anchor="middle" x="288.5" y="-425.5" font-family="Helvetica,sans-Serif" font-size="10.00">GraphValidationException</text>
</a>
</g>
</g>
<!-- Node0&#45;&gt;Node6 -->
<g id="edge7" class="edge">
<title>Node0&#45;&gt;Node6</title>
<path fill="none" stroke="midnightblue" d="M140.57,-314.53C149.64,-340.33 169.25,-385.25 202,-409 207.29,-412.84 213.22,-415.92 219.42,-418.4"/>
<polygon fill="midnightblue" stroke="midnightblue" points="143.8,-313.15 137.33,-304.77 137.16,-315.36 143.8,-313.15"/>
</g>
<!-- Node7 -->
<g id="node9" class="node">
<title>Node7</title>
<g id="a_node9"><a xlink:href="classarmnn_1_1_invalid_argument_exception.html" target="_top" xlink:title=" ">
<polygon fill="white" stroke="black" points="215.5,-380.5 215.5,-399.5 361.5,-399.5 361.5,-380.5 215.5,-380.5"/>
<text text-anchor="middle" x="288.5" y="-387.5" font-family="Helvetica,sans-Serif" font-size="10.00">InvalidArgumentException</text>
</a>
</g>
</g>
<!-- Node0&#45;&gt;Node7 -->
<g id="edge8" class="edge">
<title>Node0&#45;&gt;Node7</title>
<path fill="none" stroke="midnightblue" d="M145.9,-313.46C157.73,-331.03 177.87,-356.81 202,-371 208.55,-374.85 215.81,-377.93 223.24,-380.38"/>
<polygon fill="midnightblue" stroke="midnightblue" points="148.58,-311.17 140.2,-304.68 142.7,-314.97 148.58,-311.17"/>
</g>
<!-- Node8 -->
<g id="node10" class="node">
<title>Node8</title>
<g id="a_node10"><a xlink:href="classarmnn_1_1_layer_validation_exception.html" target="_top" xlink:title=" ">
<polygon fill="white" stroke="black" points="218.5,-342.5 218.5,-361.5 358.5,-361.5 358.5,-342.5 218.5,-342.5"/>
<text text-anchor="middle" x="288.5" y="-349.5" font-family="Helvetica,sans-Serif" font-size="10.00">LayerValidationException</text>
</a>
</g>
</g>
<!-- Node0&#45;&gt;Node8 -->
<g id="edge9" class="edge">
<title>Node0&#45;&gt;Node8</title>
<path fill="none" stroke="midnightblue" d="M157.19,-310C169.91,-317.83 186.34,-327 202,-333 211.8,-336.75 222.53,-339.86 232.97,-342.4"/>
<polygon fill="midnightblue" stroke="midnightblue" points="158.96,-306.98 148.64,-304.6 155.22,-312.9 158.96,-306.98"/>
</g>
<!-- Node9 -->
<g id="node11" class="node">
<title>Node9</title>
<g id="a_node11"><a xlink:href="classarmnn_1_1_memory_export_exception.html" target="_top" xlink:title=" ">
<polygon fill="white" stroke="black" points="220,-304.5 220,-323.5 357,-323.5 357,-304.5 220,-304.5"/>
<text text-anchor="middle" x="288.5" y="-311.5" font-family="Helvetica,sans-Serif" font-size="10.00">MemoryExportException</text>
</a>
</g>
</g>
<!-- Node0&#45;&gt;Node9 -->
<g id="edge10" class="edge">
<title>Node0&#45;&gt;Node9</title>
<path fill="none" stroke="midnightblue" d="M176.13,-300.17C189.64,-301.85 204.99,-303.75 219.88,-305.6"/>
<polygon fill="midnightblue" stroke="midnightblue" points="176.56,-296.7 166.2,-298.94 175.69,-303.64 176.56,-296.7"/>
</g>
<!-- Node10 -->
<g id="node12" class="node">
<title>Node10</title>
<g id="a_node12"><a xlink:href="classarmnn_1_1_memory_import_exception.html" target="_top" xlink:title=" ">
<polygon fill="white" stroke="black" points="220,-266.5 220,-285.5 357,-285.5 357,-266.5 220,-266.5"/>
<text text-anchor="middle" x="288.5" y="-273.5" font-family="Helvetica,sans-Serif" font-size="10.00">MemoryImportException</text>
</a>
</g>
</g>
<!-- Node0&#45;&gt;Node10 -->
<g id="edge11" class="edge">
<title>Node0&#45;&gt;Node10</title>
<path fill="none" stroke="midnightblue" d="M176.13,-289.83C189.64,-288.15 204.99,-286.25 219.88,-284.4"/>
<polygon fill="midnightblue" stroke="midnightblue" points="175.69,-286.36 166.2,-291.06 176.56,-293.3 175.69,-286.36"/>
</g>
<!-- Node11 -->
<g id="node13" class="node">
<title>Node11</title>
<g id="a_node13"><a xlink:href="classarmnn_1_1_memory_validation_exception.html" target="_top" xlink:title=" ">
<polygon fill="white" stroke="black" points="211.5,-228.5 211.5,-247.5 365.5,-247.5 365.5,-228.5 211.5,-228.5"/>
<text text-anchor="middle" x="288.5" y="-235.5" font-family="Helvetica,sans-Serif" font-size="10.00">MemoryValidationException</text>
</a>
</g>
</g>
<!-- Node0&#45;&gt;Node11 -->
<g id="edge12" class="edge">
<title>Node0&#45;&gt;Node11</title>
<path fill="none" stroke="midnightblue" d="M157.19,-280C169.91,-272.17 186.34,-263 202,-257 211.8,-253.25 222.53,-250.14 232.97,-247.6"/>
<polygon fill="midnightblue" stroke="midnightblue" points="155.22,-277.1 148.64,-285.4 158.96,-283.02 155.22,-277.1"/>
</g>
<!-- Node12 -->
<g id="node14" class="node">
<title>Node12</title>
<g id="a_node14"><a xlink:href="classarmnn_1_1_null_pointer_exception.html" target="_top" xlink:title=" ">
<polygon fill="white" stroke="black" points="229,-190.5 229,-209.5 348,-209.5 348,-190.5 229,-190.5"/>
<text text-anchor="middle" x="288.5" y="-197.5" font-family="Helvetica,sans-Serif" font-size="10.00">NullPointerException</text>
</a>
</g>
</g>
<!-- Node0&#45;&gt;Node12 -->
<g id="edge13" class="edge">
<title>Node0&#45;&gt;Node12</title>
<path fill="none" stroke="midnightblue" d="M145.9,-276.54C157.73,-258.97 177.87,-233.19 202,-219 210.13,-214.22 219.33,-210.64 228.62,-207.96"/>
<polygon fill="midnightblue" stroke="midnightblue" points="142.7,-275.03 140.2,-285.32 148.58,-278.83 142.7,-275.03"/>
</g>
<!-- Node13 -->
<g id="node15" class="node">
<title>Node13</title>
<g id="a_node15"><a xlink:href="classarmnn_1_1_parse_exception.html" target="_top" xlink:title=" ">
<polygon fill="white" stroke="black" points="243,-152.5 243,-171.5 334,-171.5 334,-152.5 243,-152.5"/>
<text text-anchor="middle" x="288.5" y="-159.5" font-family="Helvetica,sans-Serif" font-size="10.00">ParseException</text>
</a>
</g>
</g>
<!-- Node0&#45;&gt;Node13 -->
<g id="edge14" class="edge">
<title>Node0&#45;&gt;Node13</title>
<path fill="none" stroke="midnightblue" d="M140.57,-275.47C149.64,-249.67 169.25,-204.75 202,-181 213.82,-172.43 228.8,-167.62 242.9,-164.95"/>
<polygon fill="midnightblue" stroke="midnightblue" points="137.16,-274.64 137.33,-285.23 143.8,-276.85 137.16,-274.64"/>
</g>
<!-- Node14 -->
<g id="node16" class="node">
<title>Node14</title>
<g id="a_node16"><a xlink:href="classarmnn_1_1_polymorphic_downcast_exception.html" target="_top" xlink:title=" ">
<polygon fill="white" stroke="black" points="202,-114.5 202,-133.5 375,-133.5 375,-114.5 202,-114.5"/>
<text text-anchor="middle" x="288.5" y="-121.5" font-family="Helvetica,sans-Serif" font-size="10.00">PolymorphicDowncastException</text>
</a>
</g>
</g>
<!-- Node0&#45;&gt;Node14 -->
<g id="edge15" class="edge">
<title>Node0&#45;&gt;Node14</title>
<path fill="none" stroke="midnightblue" d="M137.46,-275.25C143.46,-242.51 160.22,-177.19 202,-143 206.71,-139.15 212.03,-136.04 217.66,-133.53"/>
<polygon fill="midnightblue" stroke="midnightblue" points="133.97,-274.93 135.77,-285.38 140.87,-276.09 133.97,-274.93"/>
</g>
<!-- Node15 -->
<g id="node17" class="node">
<title>Node15</title>
<g id="a_node17"><a xlink:href="classarmnn_1_1_runtime_exception.html" target="_top" xlink:title=" ">
<polygon fill="white" stroke="black" points="235.5,-76.5 235.5,-95.5 341.5,-95.5 341.5,-76.5 235.5,-76.5"/>
<text text-anchor="middle" x="288.5" y="-83.5" font-family="Helvetica,sans-Serif" font-size="10.00">RuntimeException</text>
</a>
</g>
</g>
<!-- Node0&#45;&gt;Node15 -->
<g id="edge16" class="edge">
<title>Node0&#45;&gt;Node15</title>
<path fill="none" stroke="midnightblue" d="M135.47,-275.34C138.49,-236.59 150.92,-150.17 202,-105 211.23,-96.84 223.17,-91.94 235.2,-89.06"/>
<polygon fill="midnightblue" stroke="midnightblue" points="131.98,-275.14 134.82,-285.34 138.96,-275.59 131.98,-275.14"/>
</g>
<!-- Node16 -->
<g id="node18" class="node">
<title>Node16</title>
<g id="a_node18"><a xlink:href="classarmnn_1_1_timeout_exception.html" target="_top" xlink:title=" ">
<polygon fill="white" stroke="black" points="236,-38.5 236,-57.5 341,-57.5 341,-38.5 236,-38.5"/>
<text text-anchor="middle" x="288.5" y="-45.5" font-family="Helvetica,sans-Serif" font-size="10.00">TimeoutException</text>
</a>
</g>
</g>
<!-- Node0&#45;&gt;Node16 -->
<g id="edge17" class="edge">
<title>Node0&#45;&gt;Node16</title>
<path fill="none" stroke="midnightblue" d="M134.11,-275.21C134.38,-230.93 141.6,-123.36 202,-67 211.23,-58.39 223.46,-53.37 235.78,-50.51"/>
<polygon fill="midnightblue" stroke="midnightblue" points="130.61,-275.5 134.17,-285.48 137.61,-275.46 130.61,-275.5"/>
</g>
<!-- Node17 -->
<g id="node19" class="node">
<title>Node17</title>
<g id="a_node19"><a xlink:href="classarmnn_1_1_unimplemented_exception.html" target="_top" xlink:title=" ">
<polygon fill="white" stroke="black" points="217,-0.5 217,-19.5 360,-19.5 360,-0.5 217,-0.5"/>
<text text-anchor="middle" x="288.5" y="-7.5" font-family="Helvetica,sans-Serif" font-size="10.00">UnimplementedException</text>
</a>
</g>
</g>
<!-- Node0&#45;&gt;Node17 -->
<g id="edge18" class="edge">
<title>Node0&#45;&gt;Node17</title>
<path fill="none" stroke="midnightblue" d="M136.82,-275.35C143.77,-219.86 166.18,-63.77 202,-29 206.36,-24.76 211.45,-21.39 216.93,-18.71"/>
<polygon fill="midnightblue" stroke="midnightblue" points="133.34,-274.96 135.61,-285.31 140.29,-275.81 133.34,-274.96"/>
</g>
<!-- Node3 -->
<g id="node5" class="node">
<title>Node3</title>
<g id="a_node5"><a xlink:href="classarmnn_1_1_cl_runtime_unavailable_exception.html" target="_top" xlink:title=" ">
<polygon fill="white" stroke="black" points="411,-532.5 411,-551.5 585,-551.5 585,-532.5 411,-532.5"/>
<text text-anchor="middle" x="498" y="-539.5" font-family="Helvetica,sans-Serif" font-size="10.00">ClRuntimeUnavailableException</text>
</a>
</g>
</g>
<!-- Node2&#45;&gt;Node3 -->
<g id="edge4" class="edge">
<title>Node2&#45;&gt;Node3</title>
<path fill="none" stroke="midnightblue" d="M380.9,-542C390.84,-542 400.93,-542 410.8,-542"/>
<polygon fill="midnightblue" stroke="midnightblue" points="380.62,-538.5 370.62,-542 380.62,-545.5 380.62,-538.5"/>
</g>
</g>
</svg>
