<?xml version="1.0" encoding="UTF-8" standalone="no"?>
<!DOCTYPE svg PUBLIC "-//W3C//DTD SVG 1.1//EN"
 "http://www.w3.org/Graphics/SVG/1.1/DTD/svg11.dtd">
<!-- Generated by graphviz version 2.43.0 (0)
 -->
<!-- Title: SpaceToDepthQueueDescriptor Pages: 1 -->
<svg width="880pt" height="103pt"
 viewBox="0.00 0.00 880.00 103.00" xmlns="http://www.w3.org/2000/svg" xmlns:xlink="http://www.w3.org/1999/xlink">
<g id="graph0" class="graph" transform="scale(1 1) rotate(0) translate(4 99)">
<title>SpaceToDepthQueueDescriptor</title>
<polygon fill="white" stroke="transparent" points="-4,4 -4,-99 876,-99 876,4 -4,4"/>
<!-- Node1 -->
<g id="node1" class="node">
<title>Node1</title>
<g id="a_node1"><a xlink:title=" ">
<polygon fill="#bfbfbf" stroke="black" points="705,-44.5 705,-63.5 872,-63.5 872,-44.5 705,-44.5"/>
<text text-anchor="middle" x="788.5" y="-51.5" font-family="Helvetica,sans-Serif" font-size="10.00">SpaceToDepthQueueDescriptor</text>
</a>
</g>
</g>
<!-- Node2 -->
<g id="node2" class="node">
<title>Node2</title>
<g id="a_node2"><a xlink:href="structarmnn_1_1_queue_descriptor_with_parameters.html" target="_top" xlink:title=" ">
<polygon fill="white" stroke="black" points="492,-39 492,-69 668,-69 668,-39 492,-39"/>
<text text-anchor="start" x="500" y="-57" font-family="Helvetica,sans-Serif" font-size="10.00">QueueDescriptorWithParameters</text>
<text text-anchor="middle" x="580" y="-46" font-family="Helvetica,sans-Serif" font-size="10.00">&lt; SpaceToDepthDescriptor &gt;</text>
</a>
</g>
</g>
<!-- Node2&#45;&gt;Node1 -->
<g id="edge1" class="edge">
<title>Node2&#45;&gt;Node1</title>
<path fill="none" stroke="midnightblue" d="M678.55,-54C687.33,-54 696.17,-54 704.81,-54"/>
<polygon fill="midnightblue" stroke="midnightblue" points="678.28,-50.5 668.28,-54 678.28,-57.5 678.28,-50.5"/>
</g>
<!-- Node3 -->
<g id="node3" class="node">
<title>Node3</title>
<g id="a_node3"><a xlink:href="structarmnn_1_1_queue_descriptor.html" target="_top" xlink:title=" ">
<polygon fill="white" stroke="black" points="0,-75.5 0,-94.5 98,-94.5 98,-75.5 0,-75.5"/>
<text text-anchor="middle" x="49" y="-82.5" font-family="Helvetica,sans-Serif" font-size="10.00">QueueDescriptor</text>
</a>
</g>
</g>
<!-- Node3&#45;&gt;Node2 -->
<g id="edge2" class="edge">
<title>Node3&#45;&gt;Node2</title>
<path fill="none" stroke="midnightblue" d="M108.25,-85.15C190.13,-84.83 343.81,-82.27 474,-69 479.86,-68.4 485.9,-67.72 491.98,-66.98"/>
<polygon fill="midnightblue" stroke="midnightblue" points="108.14,-81.65 98.15,-85.18 108.16,-88.65 108.14,-81.65"/>
</g>
<!-- Node6 -->
<g id="node6" class="node">
<title>Node6</title>
<g id="a_node6"><a xlink:href="structarmnn_1_1_queue_descriptor_with_parameters.html" target="_top" xlink:title=" ">
<polygon fill="white" stroke="black" points="135,-39 135,-69 311,-69 311,-39 135,-39"/>
<text text-anchor="start" x="143" y="-57" font-family="Helvetica,sans-Serif" font-size="10.00">QueueDescriptorWithParameters</text>
<text text-anchor="middle" x="223" y="-46" font-family="Helvetica,sans-Serif" font-size="10.00">&lt; LayerDescriptor &gt;</text>
</a>
</g>
</g>
<!-- Node3&#45;&gt;Node6 -->
<g id="edge6" class="edge">
<title>Node3&#45;&gt;Node6</title>
<path fill="none" stroke="midnightblue" d="M108.29,-74.49C118.02,-72.74 128.28,-70.89 138.49,-69.05"/>
<polygon fill="midnightblue" stroke="midnightblue" points="107.59,-71.06 98.37,-76.28 108.83,-77.95 107.59,-71.06"/>
</g>
<!-- Node4 -->
<g id="node4" class="node">
<title>Node4</title>
<g id="a_node4"><a xlink:href="structarmnn_1_1_space_to_depth_descriptor.html" target="_top" xlink:title="A SpaceToDepthDescriptor for the SpaceToDepthLayer.">
<polygon fill="white" stroke="black" points="155,-0.5 155,-19.5 291,-19.5 291,-0.5 155,-0.5"/>
<text text-anchor="middle" x="223" y="-7.5" font-family="Helvetica,sans-Serif" font-size="10.00">SpaceToDepthDescriptor</text>
</a>
</g>
</g>
<!-- Node4&#45;&gt;Node2 -->
<g id="edge3" class="edge">
<title>Node4&#45;&gt;Node2</title>
<path fill="none" stroke="#9a32cd" stroke-dasharray="5,2" d="M301.16,-18.42C350.6,-23.94 416.13,-31.51 474,-39 479.84,-39.76 485.87,-40.56 491.93,-41.38"/>
<polygon fill="#9a32cd" stroke="#9a32cd" points="301.5,-14.93 291.17,-17.31 300.72,-21.89 301.5,-14.93"/>
<text text-anchor="middle" x="401.5" y="-42" font-family="Helvetica,sans-Serif" font-size="10.00"> m_Parameters</text>
</g>
<!-- Node5 -->
<g id="node5" class="node">
<title>Node5</title>
<g id="a_node5"><a xlink:href="structarmnn_1_1_base_descriptor.html" target="_top" xlink:title="Base class for all descriptors.">
<polygon fill="white" stroke="black" points="3.5,-0.5 3.5,-19.5 94.5,-19.5 94.5,-0.5 3.5,-0.5"/>
<text text-anchor="middle" x="49" y="-7.5" font-family="Helvetica,sans-Serif" font-size="10.00">BaseDescriptor</text>
</a>
</g>
</g>
<!-- Node5&#45;&gt;Node4 -->
<g id="edge4" class="edge">
<title>Node5&#45;&gt;Node4</title>
<path fill="none" stroke="midnightblue" d="M104.9,-10C120.77,-10 138.26,-10 154.78,-10"/>
<polygon fill="midnightblue" stroke="midnightblue" points="104.74,-6.5 94.74,-10 104.74,-13.5 104.74,-6.5"/>
</g>
<!-- Node6&#45;&gt;Node2 -->
<g id="edge5" class="edge">
<title>Node6&#45;&gt;Node2</title>
<path fill="none" stroke="orange" stroke-dasharray="5,2" d="M321.44,-54C374.71,-54 440.15,-54 491.73,-54"/>
<polygon fill="orange" stroke="orange" points="321.3,-50.5 311.3,-54 321.3,-57.5 321.3,-50.5"/>
<text text-anchor="middle" x="401.5" y="-57" font-family="Helvetica,sans-Serif" font-size="10.00"> &lt; SpaceToDepthDescriptor &gt;</text>
</g>
</g>
</svg>
