<?xml version="1.0" encoding="UTF-8" standalone="no"?>
<!DOCTYPE svg PUBLIC "-//W3C//DTD SVG 1.1//EN"
 "http://www.w3.org/Graphics/SVG/1.1/DTD/svg11.dtd">
<!-- Generated by graphviz version 2.43.0 (0)
 -->
<!-- Title: include/armnnDeserializer/IDeserializer.hpp Pages: 1 -->
<svg width="1866pt" height="431pt"
 viewBox="0.00 0.00 1866.00 431.00" xmlns="http://www.w3.org/2000/svg" xmlns:xlink="http://www.w3.org/1999/xlink">
<g id="graph0" class="graph" transform="scale(1 1) rotate(0) translate(4 427)">
<title>include/armnnDeserializer/IDeserializer.hpp</title>
<polygon fill="white" stroke="transparent" points="-4,4 -4,-427 1862,-427 1862,4 -4,4"/>
<!-- Node1 -->
<g id="node1" class="node">
<title>Node1</title>
<g id="a_node1"><a xlink:title=" ">
<polygon fill="#bfbfbf" stroke="black" points="489.5,-392.5 489.5,-422.5 634.5,-422.5 634.5,-392.5 489.5,-392.5"/>
<text text-anchor="start" x="497.5" y="-410.5" font-family="Helvetica,sans-Serif" font-size="10.00">include/armnnDeserializer</text>
<text text-anchor="middle" x="562" y="-399.5" font-family="Helvetica,sans-Serif" font-size="10.00">/IDeserializer.hpp</text>
</a>
</g>
</g>
<!-- Node2 -->
<g id="node2" class="node">
<title>Node2</title>
<g id="a_node2"><a xlink:href="_types_8hpp.html" target="_top" xlink:title=" ">
<polygon fill="white" stroke="black" points="428,-112.5 428,-131.5 528,-131.5 528,-112.5 428,-112.5"/>
<text text-anchor="middle" x="478" y="-119.5" font-family="Helvetica,sans-Serif" font-size="10.00">armnn/Types.hpp</text>
</a>
</g>
</g>
<!-- Node1&#45;&gt;Node2 -->
<g id="edge1" class="edge">
<title>Node1&#45;&gt;Node2</title>
<path fill="none" stroke="midnightblue" d="M489.02,-402.71C362.08,-394.11 114,-367.51 114,-291 114,-291 114,-291 114,-233 114,-196.82 131.85,-186.39 163,-168 204.94,-143.24 338.55,-131.24 417.65,-126.17"/>
<polygon fill="midnightblue" stroke="midnightblue" points="418.2,-129.64 427.96,-125.53 417.77,-122.65 418.2,-129.64"/>
</g>
<!-- Node8 -->
<g id="node8" class="node">
<title>Node8</title>
<g id="a_node8"><a xlink:title=" ">
<polygon fill="white" stroke="#bfbfbf" points="1612,-0.5 1612,-19.5 1670,-19.5 1670,-0.5 1612,-0.5"/>
<text text-anchor="middle" x="1641" y="-7.5" font-family="Helvetica,sans-Serif" font-size="10.00">memory</text>
</a>
</g>
</g>
<!-- Node1&#45;&gt;Node8 -->
<g id="edge82" class="edge">
<title>Node1&#45;&gt;Node8</title>
<path fill="none" stroke="midnightblue" d="M634.8,-403.5C899.03,-392.16 1792,-349.48 1792,-291 1792,-291 1792,-291 1792,-121 1792,-65.52 1724.58,-35.07 1679.84,-20.97"/>
<polygon fill="midnightblue" stroke="midnightblue" points="1680.7,-17.57 1670.11,-18.05 1678.68,-24.28 1680.7,-17.57"/>
</g>
<!-- Node13 -->
<g id="node13" class="node">
<title>Node13</title>
<g id="a_node13"><a xlink:title=" ">
<polygon fill="white" stroke="#bfbfbf" points="806.5,-0.5 806.5,-19.5 853.5,-19.5 853.5,-0.5 806.5,-0.5"/>
<text text-anchor="middle" x="830" y="-7.5" font-family="Helvetica,sans-Serif" font-size="10.00">vector</text>
</a>
</g>
</g>
<!-- Node1&#45;&gt;Node13 -->
<g id="edge84" class="edge">
<title>Node1&#45;&gt;Node13</title>
<path fill="none" stroke="midnightblue" d="M489.39,-406.6C337.47,-404.83 0,-389.8 0,-291 0,-291 0,-291 0,-121 0,-80.77 26.43,-72.76 63,-56 130.21,-25.19 656.36,-13.99 796.05,-11.55"/>
<polygon fill="midnightblue" stroke="midnightblue" points="796.22,-15.04 806.16,-11.37 796.1,-8.05 796.22,-15.04"/>
</g>
<!-- Node18 -->
<g id="node18" class="node">
<title>Node18</title>
<g id="a_node18"><a xlink:href="_network_fwd_8hpp.html" target="_top" xlink:title=" ">
<polygon fill="white" stroke="black" points="142,-224.5 142,-243.5 276,-243.5 276,-224.5 142,-224.5"/>
<text text-anchor="middle" x="209" y="-231.5" font-family="Helvetica,sans-Serif" font-size="10.00">armnn/NetworkFwd.hpp</text>
</a>
</g>
</g>
<!-- Node1&#45;&gt;Node18 -->
<g id="edge18" class="edge">
<title>Node1&#45;&gt;Node18</title>
<path fill="none" stroke="midnightblue" d="M513.08,-392.49C456.79,-375.23 362.65,-342.87 289,-300 264.99,-286.02 240.68,-265.09 225.26,-250.78"/>
<polygon fill="midnightblue" stroke="midnightblue" points="227.34,-247.93 217.67,-243.6 222.53,-253.02 227.34,-247.93"/>
</g>
<!-- Node19 -->
<g id="node19" class="node">
<title>Node19</title>
<g id="a_node19"><a xlink:href="_tensor_8hpp.html" target="_top" xlink:title=" ">
<polygon fill="white" stroke="black" points="851.5,-168.5 851.5,-187.5 954.5,-187.5 954.5,-168.5 851.5,-168.5"/>
<text text-anchor="middle" x="903" y="-175.5" font-family="Helvetica,sans-Serif" font-size="10.00">armnn/Tensor.hpp</text>
</a>
</g>
</g>
<!-- Node1&#45;&gt;Node19 -->
<g id="edge19" class="edge">
<title>Node1&#45;&gt;Node19</title>
<path fill="none" stroke="midnightblue" d="M634.73,-402.63C707.79,-394.68 818.16,-370.83 880,-300 905.11,-271.24 906.38,-223.72 904.85,-197.62"/>
<polygon fill="midnightblue" stroke="midnightblue" points="908.34,-197.25 904.06,-187.56 901.36,-197.81 908.34,-197.25"/>
</g>
<!-- Node25 -->
<g id="node25" class="node">
<title>Node25</title>
<g id="a_node25"><a xlink:href="_i_network_8hpp.html" target="_top" xlink:title=" ">
<polygon fill="white" stroke="black" points="504,-336.5 504,-355.5 620,-355.5 620,-336.5 504,-336.5"/>
<text text-anchor="middle" x="562" y="-343.5" font-family="Helvetica,sans-Serif" font-size="10.00">armnn/INetwork.hpp</text>
</a>
</g>
</g>
<!-- Node1&#45;&gt;Node25 -->
<g id="edge31" class="edge">
<title>Node1&#45;&gt;Node25</title>
<path fill="none" stroke="midnightblue" d="M562,-392.4C562,-384.47 562,-374.46 562,-365.86"/>
<polygon fill="midnightblue" stroke="midnightblue" points="565.5,-365.66 562,-355.66 558.5,-365.66 565.5,-365.66"/>
</g>
<!-- Node44 -->
<g id="node44" class="node">
<title>Node44</title>
<g id="a_node44"><a xlink:title=" ">
<polygon fill="white" stroke="#bfbfbf" points="1820,-336.5 1820,-355.5 1858,-355.5 1858,-336.5 1820,-336.5"/>
<text text-anchor="middle" x="1839" y="-343.5" font-family="Helvetica,sans-Serif" font-size="10.00">map</text>
</a>
</g>
</g>
<!-- Node1&#45;&gt;Node44 -->
<g id="edge83" class="edge">
<title>Node1&#45;&gt;Node44</title>
<path fill="none" stroke="midnightblue" d="M634.62,-405.7C865.05,-402.83 1577.97,-391.26 1806,-356 1807.29,-355.8 1808.6,-355.57 1809.91,-355.31"/>
<polygon fill="midnightblue" stroke="midnightblue" points="1811.02,-358.65 1819.96,-352.98 1809.43,-351.83 1811.02,-358.65"/>
</g>
<!-- Node3 -->
<g id="node3" class="node">
<title>Node3</title>
<g id="a_node3"><a xlink:title=" ">
<polygon fill="white" stroke="#bfbfbf" points="521,-56.5 521,-75.5 563,-75.5 563,-56.5 521,-56.5"/>
<text text-anchor="middle" x="542" y="-63.5" font-family="Helvetica,sans-Serif" font-size="10.00">array</text>
</a>
</g>
</g>
<!-- Node2&#45;&gt;Node3 -->
<g id="edge2" class="edge">
<title>Node2&#45;&gt;Node3</title>
<path fill="none" stroke="midnightblue" d="M488.28,-112.32C497.84,-104.26 512.28,-92.08 523.78,-82.37"/>
<polygon fill="midnightblue" stroke="midnightblue" points="526.14,-84.96 531.53,-75.83 521.63,-79.61 526.14,-84.96"/>
</g>
<!-- Node4 -->
<g id="node4" class="node">
<title>Node4</title>
<g id="a_node4"><a xlink:title=" ">
<polygon fill="white" stroke="#bfbfbf" points="369.5,-56.5 369.5,-75.5 434.5,-75.5 434.5,-56.5 369.5,-56.5"/>
<text text-anchor="middle" x="402" y="-63.5" font-family="Helvetica,sans-Serif" font-size="10.00">functional</text>
</a>
</g>
</g>
<!-- Node2&#45;&gt;Node4 -->
<g id="edge3" class="edge">
<title>Node2&#45;&gt;Node4</title>
<path fill="none" stroke="midnightblue" d="M465.79,-112.32C454.22,-104.11 436.62,-91.6 422.84,-81.81"/>
<polygon fill="midnightblue" stroke="midnightblue" points="424.61,-78.77 414.43,-75.83 420.56,-84.48 424.61,-78.77"/>
</g>
<!-- Node5 -->
<g id="node5" class="node">
<title>Node5</title>
<g id="a_node5"><a xlink:title=" ">
<polygon fill="white" stroke="#bfbfbf" points="780.5,-56.5 780.5,-75.5 833.5,-75.5 833.5,-56.5 780.5,-56.5"/>
<text text-anchor="middle" x="807" y="-63.5" font-family="Helvetica,sans-Serif" font-size="10.00">stdint.h</text>
</a>
</g>
</g>
<!-- Node2&#45;&gt;Node5 -->
<g id="edge4" class="edge">
<title>Node2&#45;&gt;Node5</title>
<path fill="none" stroke="midnightblue" d="M528.33,-112.74C595.06,-101.79 711.27,-82.71 770.31,-73.02"/>
<polygon fill="midnightblue" stroke="midnightblue" points="771,-76.46 780.3,-71.38 769.87,-69.55 771,-76.46"/>
</g>
<!-- Node6 -->
<g id="node6" class="node">
<title>Node6</title>
<g id="a_node6"><a xlink:title=" ">
<polygon fill="white" stroke="#bfbfbf" points="453,-56.5 453,-75.5 503,-75.5 503,-56.5 453,-56.5"/>
<text text-anchor="middle" x="478" y="-63.5" font-family="Helvetica,sans-Serif" font-size="10.00">chrono</text>
</a>
</g>
</g>
<!-- Node2&#45;&gt;Node6 -->
<g id="edge5" class="edge">
<title>Node2&#45;&gt;Node6</title>
<path fill="none" stroke="midnightblue" d="M478,-112.08C478,-105.01 478,-94.86 478,-85.99"/>
<polygon fill="midnightblue" stroke="midnightblue" points="481.5,-85.75 478,-75.75 474.5,-85.75 481.5,-85.75"/>
</g>
<!-- Node7 -->
<g id="node7" class="node">
<title>Node7</title>
<g id="a_node7"><a xlink:href="_backend_id_8hpp.html" target="_top" xlink:title=" ">
<polygon fill="white" stroke="black" points="1076,-56.5 1076,-75.5 1164,-75.5 1164,-56.5 1076,-56.5"/>
<text text-anchor="middle" x="1120" y="-63.5" font-family="Helvetica,sans-Serif" font-size="10.00">BackendId.hpp</text>
</a>
</g>
</g>
<!-- Node2&#45;&gt;Node7 -->
<g id="edge6" class="edge">
<title>Node2&#45;&gt;Node7</title>
<path fill="none" stroke="midnightblue" d="M528.11,-116.79C646.54,-106.82 942.94,-81.89 1065.57,-71.58"/>
<polygon fill="midnightblue" stroke="midnightblue" points="1066.17,-75.04 1075.84,-70.71 1065.58,-68.06 1066.17,-75.04"/>
</g>
<!-- Node14 -->
<g id="node14" class="node">
<title>Node14</title>
<g id="a_node14"><a xlink:href="_exceptions_8hpp.html" target="_top" xlink:title=" ">
<polygon fill="white" stroke="black" points="890.5,-56.5 890.5,-75.5 981.5,-75.5 981.5,-56.5 890.5,-56.5"/>
<text text-anchor="middle" x="936" y="-63.5" font-family="Helvetica,sans-Serif" font-size="10.00">Exceptions.hpp</text>
</a>
</g>
</g>
<!-- Node2&#45;&gt;Node14 -->
<g id="edge13" class="edge">
<title>Node2&#45;&gt;Node14</title>
<path fill="none" stroke="midnightblue" d="M528.32,-115.07C614.69,-104.88 790.5,-84.15 880.38,-73.56"/>
<polygon fill="midnightblue" stroke="midnightblue" points="880.86,-77.03 890.38,-72.38 880.04,-70.07 880.86,-77.03"/>
</g>
<!-- Node17 -->
<g id="node17" class="node">
<title>Node17</title>
<g id="a_node17"><a xlink:href="_deprecated_8hpp.html" target="_top" xlink:title=" ">
<polygon fill="white" stroke="black" points="162,-56.5 162,-75.5 256,-75.5 256,-56.5 162,-56.5"/>
<text text-anchor="middle" x="209" y="-63.5" font-family="Helvetica,sans-Serif" font-size="10.00">Deprecated.hpp</text>
</a>
</g>
</g>
<!-- Node2&#45;&gt;Node17 -->
<g id="edge17" class="edge">
<title>Node2&#45;&gt;Node17</title>
<path fill="none" stroke="midnightblue" d="M435.38,-112.44C388.25,-102.98 312.31,-87.74 261.54,-77.55"/>
<polygon fill="midnightblue" stroke="midnightblue" points="261.92,-74.05 251.42,-75.52 260.54,-80.92 261.92,-74.05"/>
</g>
<!-- Node7&#45;&gt;Node8 -->
<g id="edge7" class="edge">
<title>Node7&#45;&gt;Node8</title>
<path fill="none" stroke="midnightblue" d="M1164.21,-57.25C1167.18,-56.8 1170.13,-56.38 1173,-56 1194.14,-53.19 1492.8,-24.97 1601.67,-14.7"/>
<polygon fill="midnightblue" stroke="midnightblue" points="1602.27,-18.16 1611.89,-13.74 1601.61,-11.19 1602.27,-18.16"/>
</g>
<!-- Node9 -->
<g id="node9" class="node">
<title>Node9</title>
<g id="a_node9"><a xlink:title=" ">
<polygon fill="white" stroke="#bfbfbf" points="1029.5,-0.5 1029.5,-19.5 1086.5,-19.5 1086.5,-0.5 1029.5,-0.5"/>
<text text-anchor="middle" x="1058" y="-7.5" font-family="Helvetica,sans-Serif" font-size="10.00">ostream</text>
</a>
</g>
</g>
<!-- Node7&#45;&gt;Node9 -->
<g id="edge8" class="edge">
<title>Node7&#45;&gt;Node9</title>
<path fill="none" stroke="midnightblue" d="M1110.04,-56.32C1100.87,-48.34 1087.06,-36.31 1075.97,-26.65"/>
<polygon fill="midnightblue" stroke="midnightblue" points="1077.98,-23.76 1068.14,-19.83 1073.38,-29.04 1077.98,-23.76"/>
</g>
<!-- Node10 -->
<g id="node10" class="node">
<title>Node10</title>
<g id="a_node10"><a xlink:title=" ">
<polygon fill="white" stroke="#bfbfbf" points="1220,-0.5 1220,-19.5 1252,-19.5 1252,-0.5 1220,-0.5"/>
<text text-anchor="middle" x="1236" y="-7.5" font-family="Helvetica,sans-Serif" font-size="10.00">set</text>
</a>
</g>
</g>
<!-- Node7&#45;&gt;Node10 -->
<g id="edge9" class="edge">
<title>Node7&#45;&gt;Node10</title>
<path fill="none" stroke="midnightblue" d="M1138.38,-56.44C1157.88,-47.37 1188.83,-32.96 1210.64,-22.8"/>
<polygon fill="midnightblue" stroke="midnightblue" points="1212.36,-25.87 1219.95,-18.47 1209.4,-19.52 1212.36,-25.87"/>
</g>
<!-- Node11 -->
<g id="node11" class="node">
<title>Node11</title>
<g id="a_node11"><a xlink:title=" ">
<polygon fill="white" stroke="#bfbfbf" points="1312,-0.5 1312,-19.5 1356,-19.5 1356,-0.5 1312,-0.5"/>
<text text-anchor="middle" x="1334" y="-7.5" font-family="Helvetica,sans-Serif" font-size="10.00">string</text>
</a>
</g>
</g>
<!-- Node7&#45;&gt;Node11 -->
<g id="edge10" class="edge">
<title>Node7&#45;&gt;Node11</title>
<path fill="none" stroke="midnightblue" d="M1153.91,-56.44C1194.57,-46.18 1262.19,-29.12 1301.99,-19.08"/>
<polygon fill="midnightblue" stroke="midnightblue" points="1302.87,-22.46 1311.71,-16.62 1301.16,-15.68 1302.87,-22.46"/>
</g>
<!-- Node12 -->
<g id="node12" class="node">
<title>Node12</title>
<g id="a_node12"><a xlink:title=" ">
<polygon fill="white" stroke="#bfbfbf" points="1105,-0.5 1105,-19.5 1191,-19.5 1191,-0.5 1105,-0.5"/>
<text text-anchor="middle" x="1148" y="-7.5" font-family="Helvetica,sans-Serif" font-size="10.00">unordered_set</text>
</a>
</g>
</g>
<!-- Node7&#45;&gt;Node12 -->
<g id="edge11" class="edge">
<title>Node7&#45;&gt;Node12</title>
<path fill="none" stroke="midnightblue" d="M1124.62,-56.08C1128.46,-48.69 1134.02,-37.95 1138.76,-28.81"/>
<polygon fill="midnightblue" stroke="midnightblue" points="1141.97,-30.24 1143.46,-19.75 1135.75,-27.02 1141.97,-30.24"/>
</g>
<!-- Node7&#45;&gt;Node13 -->
<g id="edge12" class="edge">
<title>Node7&#45;&gt;Node13</title>
<path fill="none" stroke="midnightblue" d="M1075.64,-58.52C1026.23,-51.01 943.8,-37.64 863.51,-19.93"/>
<polygon fill="midnightblue" stroke="midnightblue" points="864.25,-16.51 853.73,-17.75 862.73,-23.35 864.25,-16.51"/>
</g>
<!-- Node14&#45;&gt;Node11 -->
<g id="edge16" class="edge">
<title>Node14&#45;&gt;Node11</title>
<path fill="none" stroke="midnightblue" d="M981.66,-58.81C1063.03,-47.76 1231.21,-24.95 1301.75,-15.38"/>
<polygon fill="midnightblue" stroke="midnightblue" points="1302.38,-18.82 1311.82,-14.01 1301.44,-11.89 1302.38,-18.82"/>
</g>
<!-- Node15 -->
<g id="node15" class="node">
<title>Node15</title>
<g id="a_node15"><a xlink:title=" ">
<polygon fill="white" stroke="#bfbfbf" points="872,-0.5 872,-19.5 928,-19.5 928,-0.5 872,-0.5"/>
<text text-anchor="middle" x="900" y="-7.5" font-family="Helvetica,sans-Serif" font-size="10.00">sstream</text>
</a>
</g>
</g>
<!-- Node14&#45;&gt;Node15 -->
<g id="edge14" class="edge">
<title>Node14&#45;&gt;Node15</title>
<path fill="none" stroke="midnightblue" d="M930.06,-56.08C925.02,-48.53 917.66,-37.49 911.49,-28.23"/>
<polygon fill="midnightblue" stroke="midnightblue" points="914.29,-26.13 905.83,-19.75 908.47,-30.01 914.29,-26.13"/>
</g>
<!-- Node16 -->
<g id="node16" class="node">
<title>Node16</title>
<g id="a_node16"><a xlink:title=" ">
<polygon fill="white" stroke="#bfbfbf" points="946.5,-0.5 946.5,-19.5 1011.5,-19.5 1011.5,-0.5 946.5,-0.5"/>
<text text-anchor="middle" x="979" y="-7.5" font-family="Helvetica,sans-Serif" font-size="10.00">stdexcept</text>
</a>
</g>
</g>
<!-- Node14&#45;&gt;Node16 -->
<g id="edge15" class="edge">
<title>Node14&#45;&gt;Node16</title>
<path fill="none" stroke="midnightblue" d="M943.1,-56.08C949.24,-48.38 958.27,-37.03 965.74,-27.65"/>
<polygon fill="midnightblue" stroke="midnightblue" points="968.54,-29.75 972.03,-19.75 963.06,-25.39 968.54,-29.75"/>
</g>
<!-- Node19&#45;&gt;Node2 -->
<g id="edge25" class="edge">
<title>Node19&#45;&gt;Node2</title>
<path fill="none" stroke="midnightblue" d="M851.31,-170.43C772.31,-160.4 621.91,-141.28 538.14,-130.64"/>
<polygon fill="midnightblue" stroke="midnightblue" points="538.37,-127.14 528.01,-129.35 537.49,-134.09 538.37,-127.14"/>
</g>
<!-- Node19&#45;&gt;Node3 -->
<g id="edge27" class="edge">
<title>Node19&#45;&gt;Node3</title>
<path fill="none" stroke="midnightblue" d="M851.37,-173.25C799.4,-168.23 717.62,-156.86 651,-132 617.41,-119.46 582.47,-96.59 561.48,-81.6"/>
<polygon fill="midnightblue" stroke="midnightblue" points="563.53,-78.76 553.38,-75.71 559.41,-84.42 563.53,-78.76"/>
</g>
<!-- Node19&#45;&gt;Node5 -->
<g id="edge26" class="edge">
<title>Node19&#45;&gt;Node5</title>
<path fill="none" stroke="midnightblue" d="M896.16,-168.45C886.06,-155.9 866.45,-131.82 849,-112 840.44,-102.28 830.56,-91.67 822.54,-83.2"/>
<polygon fill="midnightblue" stroke="midnightblue" points="824.95,-80.65 815.52,-75.83 819.88,-85.48 824.95,-80.65"/>
</g>
<!-- Node19&#45;&gt;Node13 -->
<g id="edge29" class="edge">
<title>Node19&#45;&gt;Node13</title>
<path fill="none" stroke="midnightblue" d="M899.08,-168.08C887.53,-141.83 853.55,-64.55 837.97,-29.12"/>
<polygon fill="midnightblue" stroke="midnightblue" points="841,-27.31 833.77,-19.57 834.59,-30.13 841,-27.31"/>
</g>
<!-- Node19&#45;&gt;Node14 -->
<g id="edge20" class="edge">
<title>Node19&#45;&gt;Node14</title>
<path fill="none" stroke="midnightblue" d="M907,-168.18C910.95,-159.21 916.97,-144.85 921,-132 925.82,-116.61 929.83,-98.74 932.49,-85.63"/>
<polygon fill="midnightblue" stroke="midnightblue" points="935.99,-86.01 934.47,-75.53 929.12,-84.67 935.99,-86.01"/>
</g>
<!-- Node20 -->
<g id="node20" class="node">
<title>Node20</title>
<g id="a_node20"><a xlink:href="_optional_8hpp.html" target="_top" xlink:title=" ">
<polygon fill="white" stroke="black" points="660.5,-112.5 660.5,-131.5 739.5,-131.5 739.5,-112.5 660.5,-112.5"/>
<text text-anchor="middle" x="700" y="-119.5" font-family="Helvetica,sans-Serif" font-size="10.00">Optional.hpp</text>
</a>
</g>
</g>
<!-- Node19&#45;&gt;Node20 -->
<g id="edge21" class="edge">
<title>Node19&#45;&gt;Node20</title>
<path fill="none" stroke="midnightblue" d="M870.83,-168.44C835.94,-159.16 780.11,-144.31 741.83,-134.13"/>
<polygon fill="midnightblue" stroke="midnightblue" points="742.58,-130.7 732.02,-131.52 740.78,-137.47 742.58,-130.7"/>
</g>
<!-- Node23 -->
<g id="node23" class="node">
<title>Node23</title>
<g id="a_node23"><a xlink:title=" ">
<polygon fill="white" stroke="#bfbfbf" points="757.5,-112.5 757.5,-131.5 840.5,-131.5 840.5,-112.5 757.5,-112.5"/>
<text text-anchor="middle" x="799" y="-119.5" font-family="Helvetica,sans-Serif" font-size="10.00">initializer_list</text>
</a>
</g>
</g>
<!-- Node19&#45;&gt;Node23 -->
<g id="edge28" class="edge">
<title>Node19&#45;&gt;Node23</title>
<path fill="none" stroke="midnightblue" d="M886.29,-168.32C869.69,-159.7 844,-146.36 824.78,-136.39"/>
<polygon fill="midnightblue" stroke="midnightblue" points="826.16,-133.16 815.67,-131.65 822.93,-139.37 826.16,-133.16"/>
</g>
<!-- Node24 -->
<g id="node24" class="node">
<title>Node24</title>
<g id="a_node24"><a xlink:title=" ">
<polygon fill="white" stroke="#bfbfbf" points="1182.5,-56.5 1182.5,-75.5 1227.5,-75.5 1227.5,-56.5 1182.5,-56.5"/>
<text text-anchor="middle" x="1205" y="-63.5" font-family="Helvetica,sans-Serif" font-size="10.00">utility</text>
</a>
</g>
</g>
<!-- Node19&#45;&gt;Node24 -->
<g id="edge30" class="edge">
<title>Node19&#45;&gt;Node24</title>
<path fill="none" stroke="midnightblue" d="M926.7,-168.37C980.44,-148.79 1111.62,-101.01 1172.71,-78.76"/>
<polygon fill="midnightblue" stroke="midnightblue" points="1174.04,-82 1182.24,-75.29 1171.65,-75.42 1174.04,-82"/>
</g>
<!-- Node20&#45;&gt;Node14 -->
<g id="edge22" class="edge">
<title>Node20&#45;&gt;Node14</title>
<path fill="none" stroke="midnightblue" d="M737.39,-112.44C778.39,-103.06 844.25,-87.99 888.78,-77.8"/>
<polygon fill="midnightblue" stroke="midnightblue" points="889.81,-81.16 898.78,-75.52 888.25,-74.34 889.81,-81.16"/>
</g>
<!-- Node21 -->
<g id="node21" class="node">
<title>Node21</title>
<g id="a_node21"><a xlink:title=" ">
<polygon fill="white" stroke="#bfbfbf" points="675,-56.5 675,-75.5 725,-75.5 725,-56.5 675,-56.5"/>
<text text-anchor="middle" x="700" y="-63.5" font-family="Helvetica,sans-Serif" font-size="10.00">cstring</text>
</a>
</g>
</g>
<!-- Node20&#45;&gt;Node21 -->
<g id="edge23" class="edge">
<title>Node20&#45;&gt;Node21</title>
<path fill="none" stroke="midnightblue" d="M700,-112.08C700,-105.01 700,-94.86 700,-85.99"/>
<polygon fill="midnightblue" stroke="midnightblue" points="703.5,-85.75 700,-75.75 696.5,-85.75 703.5,-85.75"/>
</g>
<!-- Node22 -->
<g id="node22" class="node">
<title>Node22</title>
<g id="a_node22"><a xlink:title=" ">
<polygon fill="white" stroke="#bfbfbf" points="581.5,-56.5 581.5,-75.5 650.5,-75.5 650.5,-56.5 581.5,-56.5"/>
<text text-anchor="middle" x="616" y="-63.5" font-family="Helvetica,sans-Serif" font-size="10.00">type_traits</text>
</a>
</g>
</g>
<!-- Node20&#45;&gt;Node22 -->
<g id="edge24" class="edge">
<title>Node20&#45;&gt;Node22</title>
<path fill="none" stroke="midnightblue" d="M686.5,-112.32C673.4,-103.9 653.29,-90.97 637.89,-81.07"/>
<polygon fill="midnightblue" stroke="midnightblue" points="639.77,-78.12 629.46,-75.65 635.98,-84.01 639.77,-78.12"/>
</g>
<!-- Node25&#45;&gt;Node8 -->
<g id="edge80" class="edge">
<title>Node25&#45;&gt;Node8</title>
<path fill="none" stroke="midnightblue" d="M620.3,-342.71C859.62,-332.95 1754,-292.61 1754,-235 1754,-235 1754,-235 1754,-121 1754,-74.4 1704.05,-41.14 1670.57,-24.08"/>
<polygon fill="midnightblue" stroke="midnightblue" points="1671.72,-20.75 1661.2,-19.51 1668.65,-27.04 1671.72,-20.75"/>
</g>
<!-- Node25&#45;&gt;Node13 -->
<g id="edge81" class="edge">
<title>Node25&#45;&gt;Node13</title>
<path fill="none" stroke="midnightblue" d="M503.7,-342.13C412.15,-336.95 239.29,-324.25 183,-300 105.91,-266.79 38,-262.94 38,-179 38,-179 38,-179 38,-121 38,-62.29 96.75,-72.81 153,-56 275.44,-19.41 676.66,-12.52 796.14,-11.27"/>
<polygon fill="midnightblue" stroke="midnightblue" points="796.52,-14.76 806.49,-11.17 796.45,-7.76 796.52,-14.76"/>
</g>
<!-- Node25&#45;&gt;Node17 -->
<g id="edge36" class="edge">
<title>Node25&#45;&gt;Node17</title>
<path fill="none" stroke="midnightblue" d="M503.73,-340.56C396.59,-330.99 175.37,-304.23 133,-244 95.39,-190.54 159.5,-115.55 191.94,-83.06"/>
<polygon fill="midnightblue" stroke="midnightblue" points="194.71,-85.24 199.42,-75.75 189.82,-80.23 194.71,-85.24"/>
</g>
<!-- Node25&#45;&gt;Node18 -->
<g id="edge43" class="edge">
<title>Node25&#45;&gt;Node18</title>
<path fill="none" stroke="midnightblue" d="M503.69,-337.31C458.49,-330.35 394.73,-318.36 341,-300 301.35,-286.45 258.31,-263.58 232.51,-248.89"/>
<polygon fill="midnightblue" stroke="midnightblue" points="233.92,-245.66 223.51,-243.7 230.42,-251.73 233.92,-245.66"/>
</g>
<!-- Node25&#45;&gt;Node20 -->
<g id="edge44" class="edge">
<title>Node25&#45;&gt;Node20</title>
<path fill="none" stroke="midnightblue" d="M572.42,-336.23C596.65,-315.93 658.86,-264.35 713,-224 735.54,-207.2 751.95,-212.9 765,-188 776.15,-166.73 751.72,-148 729.7,-136.18"/>
<polygon fill="midnightblue" stroke="midnightblue" points="731.02,-132.93 720.52,-131.55 727.87,-139.18 731.02,-132.93"/>
</g>
<!-- Node26 -->
<g id="node26" class="node">
<title>Node26</title>
<g id="a_node26"><a xlink:href="_backend_options_8hpp.html" target="_top" xlink:title=" ">
<polygon fill="white" stroke="black" points="1067.5,-224.5 1067.5,-243.5 1218.5,-243.5 1218.5,-224.5 1067.5,-224.5"/>
<text text-anchor="middle" x="1143" y="-231.5" font-family="Helvetica,sans-Serif" font-size="10.00">armnn/BackendOptions.hpp</text>
</a>
</g>
</g>
<!-- Node25&#45;&gt;Node26 -->
<g id="edge32" class="edge">
<title>Node25&#45;&gt;Node26</title>
<path fill="none" stroke="midnightblue" d="M620.03,-338.59C684.01,-331.1 789.82,-317.48 880,-300 959.87,-284.52 1051.87,-260.29 1103.15,-246.19"/>
<polygon fill="midnightblue" stroke="midnightblue" points="1104.14,-249.55 1112.85,-243.52 1102.28,-242.8 1104.14,-249.55"/>
</g>
<!-- Node28 -->
<g id="node28" class="node">
<title>Node28</title>
<g id="a_node28"><a xlink:href="_descriptors_fwd_8hpp.html" target="_top" xlink:title=" ">
<polygon fill="white" stroke="black" points="334,-224.5 334,-243.5 482,-243.5 482,-224.5 334,-224.5"/>
<text text-anchor="middle" x="408" y="-231.5" font-family="Helvetica,sans-Serif" font-size="10.00">armnn/DescriptorsFwd.hpp</text>
</a>
</g>
</g>
<!-- Node25&#45;&gt;Node28 -->
<g id="edge37" class="edge">
<title>Node25&#45;&gt;Node28</title>
<path fill="none" stroke="midnightblue" d="M550.71,-336.45C534.06,-323.89 501.88,-299.79 474,-280 459.44,-269.66 442.83,-258.34 429.92,-249.64"/>
<polygon fill="midnightblue" stroke="midnightblue" points="431.5,-246.49 421.25,-243.82 427.6,-252.3 431.5,-246.49"/>
</g>
<!-- Node29 -->
<g id="node29" class="node">
<title>Node29</title>
<g id="a_node29"><a xlink:href="_i_strategy_8hpp.html" target="_top" xlink:title=" ">
<polygon fill="white" stroke="black" points="350.5,-280.5 350.5,-299.5 465.5,-299.5 465.5,-280.5 350.5,-280.5"/>
<text text-anchor="middle" x="408" y="-287.5" font-family="Helvetica,sans-Serif" font-size="10.00">armnn/IStrategy.hpp</text>
</a>
</g>
</g>
<!-- Node25&#45;&gt;Node29 -->
<g id="edge38" class="edge">
<title>Node25&#45;&gt;Node29</title>
<path fill="none" stroke="midnightblue" d="M537.6,-336.44C511.8,-327.4 470.92,-313.06 441.98,-302.92"/>
<polygon fill="midnightblue" stroke="midnightblue" points="442.88,-299.52 432.29,-299.52 440.57,-306.13 442.88,-299.52"/>
</g>
<!-- Node30 -->
<g id="node30" class="node">
<title>Node30</title>
<g id="a_node30"><a xlink:href="_tensor_fwd_8hpp.html" target="_top" xlink:title=" ">
<polygon fill="white" stroke="black" points="500,-224.5 500,-243.5 624,-243.5 624,-224.5 500,-224.5"/>
<text text-anchor="middle" x="562" y="-231.5" font-family="Helvetica,sans-Serif" font-size="10.00">armnn/TensorFwd.hpp</text>
</a>
</g>
</g>
<!-- Node25&#45;&gt;Node30 -->
<g id="edge45" class="edge">
<title>Node25&#45;&gt;Node30</title>
<path fill="none" stroke="midnightblue" d="M562,-336.37C562,-318.62 562,-277.67 562,-253.6"/>
<polygon fill="midnightblue" stroke="midnightblue" points="565.5,-253.59 562,-243.59 558.5,-253.59 565.5,-253.59"/>
</g>
<!-- Node31 -->
<g id="node31" class="node">
<title>Node31</title>
<g id="a_node31"><a xlink:href="_logging_8hpp.html" target="_top" xlink:title=" ">
<polygon fill="white" stroke="black" points="1397,-112.5 1397,-131.5 1507,-131.5 1507,-112.5 1397,-112.5"/>
<text text-anchor="middle" x="1452" y="-119.5" font-family="Helvetica,sans-Serif" font-size="10.00">armnn/Logging.hpp</text>
</a>
</g>
</g>
<!-- Node25&#45;&gt;Node31 -->
<g id="edge46" class="edge">
<title>Node25&#45;&gt;Node31</title>
<path fill="none" stroke="midnightblue" d="M620.01,-345.32C788.95,-345.16 1276.47,-336.5 1400,-244 1432.99,-219.3 1445.3,-169.39 1449.7,-142.02"/>
<polygon fill="midnightblue" stroke="midnightblue" points="1453.21,-142.2 1451.14,-131.81 1446.28,-141.23 1453.21,-142.2"/>
</g>
<!-- Node37 -->
<g id="node37" class="node">
<title>Node37</title>
<g id="a_node37"><a xlink:href="_tensor_handle_8hpp.html" target="_top" xlink:title=" ">
<polygon fill="white" stroke="black" points="684.5,-280.5 684.5,-299.5 871.5,-299.5 871.5,-280.5 684.5,-280.5"/>
<text text-anchor="middle" x="778" y="-287.5" font-family="Helvetica,sans-Serif" font-size="10.00">armnn/backends/TensorHandle.hpp</text>
</a>
</g>
</g>
<!-- Node25&#45;&gt;Node37 -->
<g id="edge58" class="edge">
<title>Node25&#45;&gt;Node37</title>
<path fill="none" stroke="midnightblue" d="M596.23,-336.44C633.51,-327.12 693.27,-312.18 734.01,-302"/>
<polygon fill="midnightblue" stroke="midnightblue" points="735.08,-305.34 743.93,-299.52 733.38,-298.55 735.08,-305.34"/>
</g>
<!-- Node26&#45;&gt;Node7 -->
<g id="edge33" class="edge">
<title>Node26&#45;&gt;Node7</title>
<path fill="none" stroke="midnightblue" d="M1155.78,-224.37C1166.39,-216.36 1180.73,-203.38 1187,-188 1199.75,-156.72 1202.89,-141.81 1187,-112 1179.45,-97.83 1165.24,-87.33 1151.84,-80.06"/>
<polygon fill="midnightblue" stroke="midnightblue" points="1153.3,-76.87 1142.79,-75.53 1150.17,-83.13 1153.3,-76.87"/>
</g>
<!-- Node26&#45;&gt;Node14 -->
<g id="edge34" class="edge">
<title>Node26&#45;&gt;Node14</title>
<path fill="none" stroke="midnightblue" d="M1135.23,-224.34C1116.14,-203.38 1064.88,-148.95 1015,-112 998.61,-99.86 978.65,-88.52 962.89,-80.25"/>
<polygon fill="midnightblue" stroke="midnightblue" points="964.18,-76.98 953.69,-75.53 960.98,-83.21 964.18,-76.98"/>
</g>
<!-- Node27 -->
<g id="node27" class="node">
<title>Node27</title>
<g id="a_node27"><a xlink:title=" ">
<polygon fill="white" stroke="#bfbfbf" points="1319,-168.5 1319,-187.5 1371,-187.5 1371,-168.5 1319,-168.5"/>
<text text-anchor="middle" x="1345" y="-175.5" font-family="Helvetica,sans-Serif" font-size="10.00">cassert</text>
</a>
</g>
</g>
<!-- Node26&#45;&gt;Node27 -->
<g id="edge35" class="edge">
<title>Node26&#45;&gt;Node27</title>
<path fill="none" stroke="midnightblue" d="M1175.01,-224.44C1211.41,-214.71 1270.72,-198.86 1308.79,-188.68"/>
<polygon fill="midnightblue" stroke="midnightblue" points="1310.17,-191.93 1318.92,-185.97 1308.36,-185.17 1310.17,-191.93"/>
</g>
<!-- Node29&#45;&gt;Node2 -->
<g id="edge40" class="edge">
<title>Node29&#45;&gt;Node2</title>
<path fill="none" stroke="midnightblue" d="M392.23,-280.46C361.54,-263.88 295.86,-228.54 285,-224 235.98,-203.5 202.41,-230.86 171,-188 165.75,-180.83 165.19,-174.73 171,-168 202.18,-131.92 337.07,-124.22 417.31,-122.9"/>
<polygon fill="midnightblue" stroke="midnightblue" points="417.82,-126.4 427.77,-122.76 417.73,-119.4 417.82,-126.4"/>
</g>
<!-- Node29&#45;&gt;Node18 -->
<g id="edge41" class="edge">
<title>Node29&#45;&gt;Node18</title>
<path fill="none" stroke="midnightblue" d="M376.47,-280.44C342.41,-271.2 287.99,-256.44 250.48,-246.26"/>
<polygon fill="midnightblue" stroke="midnightblue" points="250.95,-242.76 240.38,-243.52 249.12,-249.51 250.95,-242.76"/>
</g>
<!-- Node29&#45;&gt;Node28 -->
<g id="edge39" class="edge">
<title>Node29&#45;&gt;Node28</title>
<path fill="none" stroke="midnightblue" d="M408,-280.08C408,-273.01 408,-262.86 408,-253.99"/>
<polygon fill="midnightblue" stroke="midnightblue" points="411.5,-253.75 408,-243.75 404.5,-253.75 411.5,-253.75"/>
</g>
<!-- Node29&#45;&gt;Node30 -->
<g id="edge42" class="edge">
<title>Node29&#45;&gt;Node30</title>
<path fill="none" stroke="midnightblue" d="M432.4,-280.44C458.2,-271.4 499.08,-257.06 528.02,-246.92"/>
<polygon fill="midnightblue" stroke="midnightblue" points="529.43,-250.13 537.71,-243.52 527.12,-243.52 529.43,-250.13"/>
</g>
<!-- Node31&#45;&gt;Node8 -->
<g id="edge53" class="edge">
<title>Node31&#45;&gt;Node8</title>
<path fill="none" stroke="midnightblue" d="M1463.47,-112.43C1481.13,-99.43 1516.26,-74.29 1548,-56 1568.91,-43.95 1593.53,-32.13 1612.18,-23.64"/>
<polygon fill="midnightblue" stroke="midnightblue" points="1613.66,-26.81 1621.34,-19.51 1610.79,-20.43 1613.66,-26.81"/>
</g>
<!-- Node31&#45;&gt;Node11 -->
<g id="edge54" class="edge">
<title>Node31&#45;&gt;Node11</title>
<path fill="none" stroke="midnightblue" d="M1440.48,-112.46C1428.9,-103.7 1410.7,-89.5 1396,-76 1378.88,-60.27 1360.68,-40.82 1348.46,-27.32"/>
<polygon fill="midnightblue" stroke="midnightblue" points="1350.96,-24.87 1341.68,-19.76 1345.75,-29.55 1350.96,-24.87"/>
</g>
<!-- Node31&#45;&gt;Node13 -->
<g id="edge56" class="edge">
<title>Node31&#45;&gt;Node13</title>
<path fill="none" stroke="midnightblue" d="M1396.77,-117.18C1321.64,-111.4 1183.26,-98.6 1067,-76 1046.91,-72.09 923.77,-37.52 863.36,-20.45"/>
<polygon fill="midnightblue" stroke="midnightblue" points="864.11,-17.03 853.54,-17.67 862.21,-23.76 864.11,-17.03"/>
</g>
<!-- Node31&#45;&gt;Node14 -->
<g id="edge57" class="edge">
<title>Node31&#45;&gt;Node14</title>
<path fill="none" stroke="midnightblue" d="M1396.8,-116.46C1310.94,-109.19 1140.27,-93.93 996,-76 994.53,-75.82 993.04,-75.63 991.54,-75.43"/>
<polygon fill="midnightblue" stroke="midnightblue" points="991.88,-71.95 981.5,-74.07 990.94,-78.88 991.88,-71.95"/>
</g>
<!-- Node31&#45;&gt;Node24 -->
<g id="edge55" class="edge">
<title>Node31&#45;&gt;Node24</title>
<path fill="none" stroke="midnightblue" d="M1412.86,-112.44C1364.4,-101.85 1282.74,-84 1237.55,-74.12"/>
<polygon fill="midnightblue" stroke="midnightblue" points="1238.2,-70.68 1227.68,-71.96 1236.71,-77.51 1238.2,-70.68"/>
</g>
<!-- Node32 -->
<g id="node32" class="node">
<title>Node32</title>
<g id="a_node32"><a xlink:href="_utils_8hpp.html" target="_top" xlink:title=" ">
<polygon fill="white" stroke="black" points="1404.5,-56.5 1404.5,-75.5 1499.5,-75.5 1499.5,-56.5 1404.5,-56.5"/>
<text text-anchor="middle" x="1452" y="-63.5" font-family="Helvetica,sans-Serif" font-size="10.00">armnn/Utils.hpp</text>
</a>
</g>
</g>
<!-- Node31&#45;&gt;Node32 -->
<g id="edge47" class="edge">
<title>Node31&#45;&gt;Node32</title>
<path fill="none" stroke="midnightblue" d="M1452,-112.08C1452,-105.01 1452,-94.86 1452,-85.99"/>
<polygon fill="midnightblue" stroke="midnightblue" points="1455.5,-85.75 1452,-75.75 1448.5,-85.75 1455.5,-85.75"/>
</g>
<!-- Node34 -->
<g id="node34" class="node">
<title>Node34</title>
<g id="a_node34"><a xlink:title=" ">
<polygon fill="white" stroke="#bfbfbf" points="1556.5,-56.5 1556.5,-75.5 1609.5,-75.5 1609.5,-56.5 1556.5,-56.5"/>
<text text-anchor="middle" x="1583" y="-63.5" font-family="Helvetica,sans-Serif" font-size="10.00">ctype.h</text>
</a>
</g>
</g>
<!-- Node31&#45;&gt;Node34 -->
<g id="edge50" class="edge">
<title>Node31&#45;&gt;Node34</title>
<path fill="none" stroke="midnightblue" d="M1472.76,-112.44C1494.32,-103.56 1528.26,-89.56 1552.79,-79.45"/>
<polygon fill="midnightblue" stroke="midnightblue" points="1554.43,-82.56 1562.34,-75.52 1551.76,-76.09 1554.43,-82.56"/>
</g>
<!-- Node35 -->
<g id="node35" class="node">
<title>Node35</title>
<g id="a_node35"><a xlink:title=" ">
<polygon fill="white" stroke="#bfbfbf" points="1628,-56.5 1628,-75.5 1688,-75.5 1688,-56.5 1628,-56.5"/>
<text text-anchor="middle" x="1658" y="-63.5" font-family="Helvetica,sans-Serif" font-size="10.00">iostream</text>
</a>
</g>
</g>
<!-- Node31&#45;&gt;Node35 -->
<g id="edge51" class="edge">
<title>Node31&#45;&gt;Node35</title>
<path fill="none" stroke="midnightblue" d="M1484.64,-112.44C1520.78,-102.97 1579.05,-87.7 1617.93,-77.5"/>
<polygon fill="midnightblue" stroke="midnightblue" points="1619.07,-80.82 1627.86,-74.9 1617.3,-74.05 1619.07,-80.82"/>
</g>
<!-- Node36 -->
<g id="node36" class="node">
<title>Node36</title>
<g id="a_node36"><a xlink:title=" ">
<polygon fill="white" stroke="#bfbfbf" points="1284,-56.5 1284,-75.5 1348,-75.5 1348,-56.5 1284,-56.5"/>
<text text-anchor="middle" x="1316" y="-63.5" font-family="Helvetica,sans-Serif" font-size="10.00">algorithm</text>
</a>
</g>
</g>
<!-- Node31&#45;&gt;Node36 -->
<g id="edge52" class="edge">
<title>Node31&#45;&gt;Node36</title>
<path fill="none" stroke="midnightblue" d="M1430.45,-112.44C1407.97,-103.52 1372.51,-89.44 1347.02,-79.32"/>
<polygon fill="midnightblue" stroke="midnightblue" points="1348.03,-75.95 1337.45,-75.52 1345.45,-82.46 1348.03,-75.95"/>
</g>
<!-- Node32&#45;&gt;Node11 -->
<g id="edge48" class="edge">
<title>Node32&#45;&gt;Node11</title>
<path fill="none" stroke="midnightblue" d="M1433.3,-56.44C1414.06,-47.64 1383.85,-33.81 1361.8,-23.72"/>
<polygon fill="midnightblue" stroke="midnightblue" points="1363.16,-20.5 1352.61,-19.52 1360.25,-26.86 1363.16,-20.5"/>
</g>
<!-- Node33 -->
<g id="node33" class="node">
<title>Node33</title>
<g id="a_node33"><a xlink:title=" ">
<polygon fill="white" stroke="#bfbfbf" points="1487.5,-0.5 1487.5,-19.5 1534.5,-19.5 1534.5,-0.5 1487.5,-0.5"/>
<text text-anchor="middle" x="1511" y="-7.5" font-family="Helvetica,sans-Serif" font-size="10.00">cmath</text>
</a>
</g>
</g>
<!-- Node32&#45;&gt;Node33 -->
<g id="edge49" class="edge">
<title>Node32&#45;&gt;Node33</title>
<path fill="none" stroke="midnightblue" d="M1461.48,-56.32C1470.2,-48.34 1483.34,-36.31 1493.9,-26.65"/>
<polygon fill="midnightblue" stroke="midnightblue" points="1496.33,-29.17 1501.35,-19.83 1491.61,-24 1496.33,-29.17"/>
</g>
<!-- Node37&#45;&gt;Node36 -->
<g id="edge79" class="edge">
<title>Node37&#45;&gt;Node36</title>
<path fill="none" stroke="midnightblue" d="M871.61,-288.84C1032.17,-287.57 1346.2,-280.42 1380,-244 1423.85,-196.75 1362.11,-117.21 1331.48,-83.21"/>
<polygon fill="midnightblue" stroke="midnightblue" points="1333.8,-80.56 1324.44,-75.59 1328.66,-85.31 1333.8,-80.56"/>
</g>
<!-- Node38 -->
<g id="node38" class="node">
<title>Node38</title>
<g id="a_node38"><a xlink:href="_i_tensor_handle_8hpp.html" target="_top" xlink:title=" ">
<polygon fill="white" stroke="black" points="722.5,-224.5 722.5,-243.5 829.5,-243.5 829.5,-224.5 722.5,-224.5"/>
<text text-anchor="middle" x="776" y="-231.5" font-family="Helvetica,sans-Serif" font-size="10.00">ITensorHandle.hpp</text>
</a>
</g>
</g>
<!-- Node37&#45;&gt;Node38 -->
<g id="edge59" class="edge">
<title>Node37&#45;&gt;Node38</title>
<path fill="none" stroke="midnightblue" d="M777.67,-280.08C777.41,-273.01 777.03,-262.86 776.7,-253.99"/>
<polygon fill="midnightblue" stroke="midnightblue" points="780.19,-253.61 776.32,-243.75 773.2,-253.87 780.19,-253.61"/>
</g>
<!-- Node41 -->
<g id="node41" class="node">
<title>Node41</title>
<g id="a_node41"><a xlink:href="_types_utils_8hpp.html" target="_top" xlink:title=" ">
<polygon fill="white" stroke="black" points="927,-224.5 927,-243.5 1049,-243.5 1049,-224.5 927,-224.5"/>
<text text-anchor="middle" x="988" y="-231.5" font-family="Helvetica,sans-Serif" font-size="10.00">armnn/TypesUtils.hpp</text>
</a>
</g>
</g>
<!-- Node37&#45;&gt;Node41 -->
<g id="edge65" class="edge">
<title>Node37&#45;&gt;Node41</title>
<path fill="none" stroke="midnightblue" d="M811.28,-280.44C847.45,-271.14 905.38,-256.25 944.98,-246.06"/>
<polygon fill="midnightblue" stroke="midnightblue" points="946.07,-249.4 954.88,-243.52 944.32,-242.62 946.07,-249.4"/>
</g>
<!-- Node42 -->
<g id="node42" class="node">
<title>Node42</title>
<g id="a_node42"><a xlink:href="_assert_8hpp.html" target="_top" xlink:title=" ">
<polygon fill="white" stroke="black" points="1237,-224.5 1237,-243.5 1371,-243.5 1371,-224.5 1237,-224.5"/>
<text text-anchor="middle" x="1304" y="-231.5" font-family="Helvetica,sans-Serif" font-size="10.00">armnn/utility/Assert.hpp</text>
</a>
</g>
</g>
<!-- Node37&#45;&gt;Node42 -->
<g id="edge75" class="edge">
<title>Node37&#45;&gt;Node42</title>
<path fill="none" stroke="midnightblue" d="M867.49,-280.47C955.85,-271.94 1095.09,-258.24 1226.56,-244.03"/>
<polygon fill="midnightblue" stroke="midnightblue" points="1227.25,-247.48 1236.82,-242.92 1226.5,-240.52 1227.25,-247.48"/>
</g>
<!-- Node43 -->
<g id="node43" class="node">
<title>Node43</title>
<g id="a_node43"><a xlink:href="_compatible_types_8hpp.html" target="_top" xlink:title=" ">
<polygon fill="white" stroke="black" points="180.5,-168.5 180.5,-187.5 359.5,-187.5 359.5,-168.5 180.5,-168.5"/>
<text text-anchor="middle" x="270" y="-175.5" font-family="Helvetica,sans-Serif" font-size="10.00">armnnUtils/CompatibleTypes.hpp</text>
</a>
</g>
</g>
<!-- Node37&#45;&gt;Node43 -->
<g id="edge77" class="edge">
<title>Node37&#45;&gt;Node43</title>
<path fill="none" stroke="midnightblue" d="M762.91,-280.4C737.15,-266.16 682.69,-237.88 633,-224 607.2,-216.79 457.76,-199.54 358.84,-188.62"/>
<polygon fill="midnightblue" stroke="midnightblue" points="359.16,-185.13 348.83,-187.51 358.39,-192.09 359.16,-185.13"/>
</g>
<!-- Node38&#45;&gt;Node19 -->
<g id="edge64" class="edge">
<title>Node38&#45;&gt;Node19</title>
<path fill="none" stroke="midnightblue" d="M796.12,-224.44C817.02,-215.56 849.93,-201.56 873.72,-191.45"/>
<polygon fill="midnightblue" stroke="midnightblue" points="875.14,-194.65 882.97,-187.52 872.4,-188.21 875.14,-194.65"/>
</g>
<!-- Node39 -->
<g id="node39" class="node">
<title>Node39</title>
<g id="a_node39"><a xlink:href="_memory_sources_8hpp.html" target="_top" xlink:title=" ">
<polygon fill="white" stroke="black" points="605.5,-168.5 605.5,-187.5 756.5,-187.5 756.5,-168.5 605.5,-168.5"/>
<text text-anchor="middle" x="681" y="-175.5" font-family="Helvetica,sans-Serif" font-size="10.00">armnn/MemorySources.hpp</text>
</a>
</g>
</g>
<!-- Node38&#45;&gt;Node39 -->
<g id="edge60" class="edge">
<title>Node38&#45;&gt;Node39</title>
<path fill="none" stroke="midnightblue" d="M760.74,-224.32C745.78,-215.82 722.75,-202.73 705.27,-192.8"/>
<polygon fill="midnightblue" stroke="midnightblue" points="706.65,-189.55 696.23,-187.65 703.19,-195.64 706.65,-189.55"/>
</g>
<!-- Node40 -->
<g id="node40" class="node">
<title>Node40</title>
<g id="a_node40"><a xlink:href="_ignore_unused_8hpp.html" target="_top" xlink:title=" ">
<polygon fill="white" stroke="black" points="377.5,-168.5 377.5,-187.5 548.5,-187.5 548.5,-168.5 377.5,-168.5"/>
<text text-anchor="middle" x="463" y="-175.5" font-family="Helvetica,sans-Serif" font-size="10.00">armnn/utility/IgnoreUnused.hpp</text>
</a>
</g>
</g>
<!-- Node38&#45;&gt;Node40 -->
<g id="edge63" class="edge">
<title>Node38&#45;&gt;Node40</title>
<path fill="none" stroke="midnightblue" d="M726.4,-224.44C671,-214.89 581.36,-199.42 522.29,-189.23"/>
<polygon fill="midnightblue" stroke="midnightblue" points="522.81,-185.77 512.36,-187.52 521.62,-192.67 522.81,-185.77"/>
</g>
<!-- Node39&#45;&gt;Node2 -->
<g id="edge61" class="edge">
<title>Node39&#45;&gt;Node2</title>
<path fill="none" stroke="midnightblue" d="M648.83,-168.44C613.94,-159.16 558.11,-144.31 519.83,-134.13"/>
<polygon fill="midnightblue" stroke="midnightblue" points="520.58,-130.7 510.02,-131.52 518.78,-137.47 520.58,-130.7"/>
</g>
<!-- Node39&#45;&gt;Node22 -->
<g id="edge62" class="edge">
<title>Node39&#45;&gt;Node22</title>
<path fill="none" stroke="midnightblue" d="M635.35,-168.43C614.76,-162.04 592.33,-151 580,-132 569.43,-115.72 583.72,-96.12 597.3,-82.73"/>
<polygon fill="midnightblue" stroke="midnightblue" points="600.03,-84.98 605.02,-75.64 595.29,-79.83 600.03,-84.98"/>
</g>
<!-- Node41&#45;&gt;Node2 -->
<g id="edge69" class="edge">
<title>Node41&#45;&gt;Node2</title>
<path fill="none" stroke="midnightblue" d="M926.67,-228.87C832.28,-222.02 656.04,-207.16 596,-188 586.16,-184.86 533.67,-155.08 502.11,-136.94"/>
<polygon fill="midnightblue" stroke="midnightblue" points="503.47,-133.68 493.06,-131.72 499.97,-139.75 503.47,-133.68"/>
</g>
<!-- Node41&#45;&gt;Node5 -->
<g id="edge70" class="edge">
<title>Node41&#45;&gt;Node5</title>
<path fill="none" stroke="midnightblue" d="M986.42,-224.13C983.65,-210.73 976.87,-185.09 963,-168 928.81,-125.86 872.21,-95.5 837.4,-79.63"/>
<polygon fill="midnightblue" stroke="midnightblue" points="838.76,-76.4 828.2,-75.53 835.92,-82.79 838.76,-76.4"/>
</g>
<!-- Node41&#45;&gt;Node7 -->
<g id="edge66" class="edge">
<title>Node41&#45;&gt;Node7</title>
<path fill="none" stroke="midnightblue" d="M1049.27,-224.83C1072.21,-218.56 1096.26,-207.5 1111,-188 1133.57,-158.14 1129.14,-111.43 1124.32,-85.65"/>
<polygon fill="midnightblue" stroke="midnightblue" points="1127.72,-84.78 1122.24,-75.71 1120.86,-86.21 1127.72,-84.78"/>
</g>
<!-- Node41&#45;&gt;Node9 -->
<g id="edge72" class="edge">
<title>Node41&#45;&gt;Node9</title>
<path fill="none" stroke="midnightblue" d="M995.25,-224.26C1002.1,-215.58 1012.15,-201.63 1018,-188 1041.44,-133.35 1052.06,-63.07 1056.02,-29.91"/>
<polygon fill="midnightblue" stroke="midnightblue" points="1059.52,-30.15 1057.16,-19.82 1052.56,-29.37 1059.52,-30.15"/>
</g>
<!-- Node41&#45;&gt;Node10 -->
<g id="edge73" class="edge">
<title>Node41&#45;&gt;Node10</title>
<path fill="none" stroke="midnightblue" d="M1034.66,-224.47C1063.67,-217.7 1100.86,-206.27 1130,-188 1188.07,-151.6 1210.65,-139.67 1236,-76 1241.87,-61.26 1241.29,-43.1 1239.58,-29.72"/>
<polygon fill="midnightblue" stroke="midnightblue" points="1243.02,-29.12 1237.99,-19.8 1236.11,-30.22 1243.02,-29.12"/>
</g>
<!-- Node41&#45;&gt;Node14 -->
<g id="edge67" class="edge">
<title>Node41&#45;&gt;Node14</title>
<path fill="none" stroke="midnightblue" d="M991.48,-224.5C999.32,-203.89 1016.27,-150.17 997,-112 990.19,-98.52 977.23,-88.08 965,-80.67"/>
<polygon fill="midnightblue" stroke="midnightblue" points="966.34,-77.41 955.91,-75.59 962.93,-83.52 966.34,-77.41"/>
</g>
<!-- Node41&#45;&gt;Node19 -->
<g id="edge68" class="edge">
<title>Node41&#45;&gt;Node19</title>
<path fill="none" stroke="midnightblue" d="M974.34,-224.32C961.08,-215.9 940.73,-202.97 925.15,-193.07"/>
<polygon fill="midnightblue" stroke="midnightblue" points="926.94,-190.06 916.62,-187.65 923.19,-195.97 926.94,-190.06"/>
</g>
<!-- Node41&#45;&gt;Node22 -->
<g id="edge74" class="edge">
<title>Node41&#45;&gt;Node22</title>
<path fill="none" stroke="midnightblue" d="M958.43,-224.46C877.36,-201.02 657.18,-137.04 651,-132 636.13,-119.88 626.69,-99.71 621.4,-85.05"/>
<polygon fill="midnightblue" stroke="midnightblue" points="624.73,-83.95 618.28,-75.54 618.08,-86.14 624.73,-83.95"/>
</g>
<!-- Node41&#45;&gt;Node33 -->
<g id="edge71" class="edge">
<title>Node41&#45;&gt;Node33</title>
<path fill="none" stroke="midnightblue" d="M1028.6,-224.45C1089.6,-211.68 1208.56,-187.1 1310,-168 1401.34,-150.8 1425.64,-153.78 1516,-132 1597.86,-112.27 1647.03,-143.77 1697,-76 1702.28,-68.85 1702.5,-62.99 1697,-56 1678.39,-32.34 1592.93,-19.63 1544.59,-14.22"/>
<polygon fill="midnightblue" stroke="midnightblue" points="1544.9,-10.74 1534.59,-13.15 1544.16,-17.7 1544.9,-10.74"/>
</g>
<!-- Node42&#45;&gt;Node27 -->
<g id="edge76" class="edge">
<title>Node42&#45;&gt;Node27</title>
<path fill="none" stroke="midnightblue" d="M1310.77,-224.08C1316.56,-216.46 1325.06,-205.26 1332.14,-195.94"/>
<polygon fill="midnightblue" stroke="midnightblue" points="1335.1,-197.83 1338.36,-187.75 1329.52,-193.6 1335.1,-197.83"/>
</g>
<!-- Node43&#45;&gt;Node2 -->
<g id="edge78" class="edge">
<title>Node43&#45;&gt;Node2</title>
<path fill="none" stroke="midnightblue" d="M302.96,-168.44C338.79,-159.14 396.16,-144.25 435.39,-134.06"/>
<polygon fill="midnightblue" stroke="midnightblue" points="436.4,-137.42 445.2,-131.52 434.64,-130.64 436.4,-137.42"/>
</g>
</g>
</svg>
