<?xml version="1.0" encoding="UTF-8" standalone="no"?>
<!DOCTYPE svg PUBLIC "-//W3C//DTD SVG 1.1//EN"
 "http://www.w3.org/Graphics/SVG/1.1/DTD/svg11.dtd">
<!-- Generated by graphviz version 2.43.0 (0)
 -->
<!-- Title: include/armnnTfLiteParser/ITfLiteParser.hpp Pages: 1 -->
<svg width="1669pt" height="431pt"
 viewBox="0.00 0.00 1669.00 431.00" xmlns="http://www.w3.org/2000/svg" xmlns:xlink="http://www.w3.org/1999/xlink">
<g id="graph0" class="graph" transform="scale(1 1) rotate(0) translate(4 427)">
<title>include/armnnTfLiteParser/ITfLiteParser.hpp</title>
<polygon fill="white" stroke="transparent" points="-4,4 -4,-427 1665,-427 1665,4 -4,4"/>
<!-- Node1 -->
<g id="node1" class="node">
<title>Node1</title>
<g id="a_node1"><a xlink:title=" ">
<polygon fill="#bfbfbf" stroke="black" points="1120,-392.5 1120,-422.5 1264,-422.5 1264,-392.5 1120,-392.5"/>
<text text-anchor="start" x="1128" y="-410.5" font-family="Helvetica,sans-Serif" font-size="10.00">include/armnnTfLiteParser</text>
<text text-anchor="middle" x="1192" y="-399.5" font-family="Helvetica,sans-Serif" font-size="10.00">/ITfLiteParser.hpp</text>
</a>
</g>
</g>
<!-- Node2 -->
<g id="node2" class="node">
<title>Node2</title>
<g id="a_node2"><a xlink:href="_types_8hpp.html" target="_top" xlink:title=" ">
<polygon fill="white" stroke="black" points="1085,-112.5 1085,-131.5 1185,-131.5 1185,-112.5 1085,-112.5"/>
<text text-anchor="middle" x="1135" y="-119.5" font-family="Helvetica,sans-Serif" font-size="10.00">armnn/Types.hpp</text>
</a>
</g>
</g>
<!-- Node1&#45;&gt;Node2 -->
<g id="edge1" class="edge">
<title>Node1&#45;&gt;Node2</title>
<path fill="none" stroke="midnightblue" d="M1264.29,-395.28C1381.73,-373.99 1593.73,-320.93 1519,-224 1479.67,-172.99 1293.12,-142.63 1195.25,-129.96"/>
<polygon fill="midnightblue" stroke="midnightblue" points="1195.57,-126.47 1185.21,-128.68 1194.68,-133.41 1195.57,-126.47"/>
</g>
<!-- Node8 -->
<g id="node8" class="node">
<title>Node8</title>
<g id="a_node8"><a xlink:title=" ">
<polygon fill="white" stroke="#bfbfbf" points="28,-0.5 28,-19.5 86,-19.5 86,-0.5 28,-0.5"/>
<text text-anchor="middle" x="57" y="-7.5" font-family="Helvetica,sans-Serif" font-size="10.00">memory</text>
</a>
</g>
</g>
<!-- Node1&#45;&gt;Node8 -->
<g id="edge83" class="edge">
<title>Node1&#45;&gt;Node8</title>
<path fill="none" stroke="midnightblue" d="M1119.68,-407.12C861.42,-408.38 0,-404.12 0,-291 0,-291 0,-291 0,-121 0,-84.3 25.32,-47.66 42.21,-27.3"/>
<polygon fill="midnightblue" stroke="midnightblue" points="44.95,-29.48 48.83,-19.62 39.65,-24.9 44.95,-29.48"/>
</g>
<!-- Node13 -->
<g id="node13" class="node">
<title>Node13</title>
<g id="a_node13"><a xlink:title=" ">
<polygon fill="white" stroke="#bfbfbf" points="1029.5,-0.5 1029.5,-19.5 1076.5,-19.5 1076.5,-0.5 1029.5,-0.5"/>
<text text-anchor="middle" x="1053" y="-7.5" font-family="Helvetica,sans-Serif" font-size="10.00">vector</text>
</a>
</g>
</g>
<!-- Node1&#45;&gt;Node13 -->
<g id="edge85" class="edge">
<title>Node1&#45;&gt;Node13</title>
<path fill="none" stroke="midnightblue" d="M1264.05,-400.68C1379.97,-389.31 1595,-359.05 1595,-291 1595,-291 1595,-291 1595,-121 1595,-38.03 1500.61,-75.63 1420,-56 1299.47,-26.66 1151.79,-15.97 1086.62,-12.5"/>
<polygon fill="midnightblue" stroke="midnightblue" points="1086.69,-9 1076.53,-11.98 1086.33,-15.99 1086.69,-9"/>
</g>
<!-- Node18 -->
<g id="node18" class="node">
<title>Node18</title>
<g id="a_node18"><a xlink:href="_network_fwd_8hpp.html" target="_top" xlink:title=" ">
<polygon fill="white" stroke="black" points="1376,-224.5 1376,-243.5 1510,-243.5 1510,-224.5 1376,-224.5"/>
<text text-anchor="middle" x="1443" y="-231.5" font-family="Helvetica,sans-Serif" font-size="10.00">armnn/NetworkFwd.hpp</text>
</a>
</g>
</g>
<!-- Node1&#45;&gt;Node18 -->
<g id="edge18" class="edge">
<title>Node1&#45;&gt;Node18</title>
<path fill="none" stroke="midnightblue" d="M1216.04,-392.47C1249.3,-372.81 1310.91,-335.48 1361,-300 1383.85,-283.82 1408.91,-263.56 1425.24,-250"/>
<polygon fill="midnightblue" stroke="midnightblue" points="1427.49,-252.67 1432.92,-243.57 1423,-247.3 1427.49,-252.67"/>
</g>
<!-- Node19 -->
<g id="node19" class="node">
<title>Node19</title>
<g id="a_node19"><a xlink:href="_tensor_8hpp.html" target="_top" xlink:title=" ">
<polygon fill="white" stroke="black" points="450.5,-168.5 450.5,-187.5 553.5,-187.5 553.5,-168.5 450.5,-168.5"/>
<text text-anchor="middle" x="502" y="-175.5" font-family="Helvetica,sans-Serif" font-size="10.00">armnn/Tensor.hpp</text>
</a>
</g>
</g>
<!-- Node1&#45;&gt;Node19 -->
<g id="edge19" class="edge">
<title>Node1&#45;&gt;Node19</title>
<path fill="none" stroke="midnightblue" d="M1119.86,-393.74C1064.13,-383.77 985.1,-369.41 916,-356 707.31,-315.51 578.55,-414.06 451,-244 437.64,-226.19 459.23,-206.08 478.3,-193.01"/>
<polygon fill="midnightblue" stroke="midnightblue" points="480.27,-195.91 486.75,-187.53 476.46,-190.03 480.27,-195.91"/>
</g>
<!-- Node20 -->
<g id="node20" class="node">
<title>Node20</title>
<g id="a_node20"><a xlink:href="_optional_8hpp.html" target="_top" xlink:title=" ">
<polygon fill="white" stroke="black" points="435.5,-112.5 435.5,-131.5 514.5,-131.5 514.5,-112.5 435.5,-112.5"/>
<text text-anchor="middle" x="475" y="-119.5" font-family="Helvetica,sans-Serif" font-size="10.00">Optional.hpp</text>
</a>
</g>
</g>
<!-- Node1&#45;&gt;Node20 -->
<g id="edge82" class="edge">
<title>Node1&#45;&gt;Node20</title>
<path fill="none" stroke="midnightblue" d="M1120,-406.62C914.49,-405.2 333.29,-388.29 229,-244 214.99,-224.61 230.25,-182.24 246,-168 271.73,-144.74 365.48,-132.46 424.75,-126.88"/>
<polygon fill="midnightblue" stroke="midnightblue" points="425.39,-130.34 435.04,-125.95 424.76,-123.37 425.39,-130.34"/>
</g>
<!-- Node25 -->
<g id="node25" class="node">
<title>Node25</title>
<g id="a_node25"><a xlink:href="_i_network_8hpp.html" target="_top" xlink:title=" ">
<polygon fill="white" stroke="black" points="925,-336.5 925,-355.5 1041,-355.5 1041,-336.5 925,-336.5"/>
<text text-anchor="middle" x="983" y="-343.5" font-family="Helvetica,sans-Serif" font-size="10.00">armnn/INetwork.hpp</text>
</a>
</g>
</g>
<!-- Node1&#45;&gt;Node25 -->
<g id="edge31" class="edge">
<title>Node1&#45;&gt;Node25</title>
<path fill="none" stroke="midnightblue" d="M1142.73,-392.47C1106.05,-382.03 1056.62,-367.96 1022.51,-358.25"/>
<polygon fill="midnightblue" stroke="midnightblue" points="1023.46,-354.88 1012.88,-355.51 1021.54,-361.61 1023.46,-354.88"/>
</g>
<!-- Node44 -->
<g id="node44" class="node">
<title>Node44</title>
<g id="a_node44"><a xlink:title=" ">
<polygon fill="white" stroke="#bfbfbf" points="1623,-336.5 1623,-355.5 1661,-355.5 1661,-336.5 1623,-336.5"/>
<text text-anchor="middle" x="1642" y="-343.5" font-family="Helvetica,sans-Serif" font-size="10.00">map</text>
</a>
</g>
</g>
<!-- Node1&#45;&gt;Node44 -->
<g id="edge84" class="edge">
<title>Node1&#45;&gt;Node44</title>
<path fill="none" stroke="midnightblue" d="M1264.07,-400.98C1347.6,-393.85 1489.13,-379.47 1609,-356 1610.28,-355.75 1611.58,-355.48 1612.89,-355.19"/>
<polygon fill="midnightblue" stroke="midnightblue" points="1614.05,-358.51 1622.92,-352.71 1612.37,-351.71 1614.05,-358.51"/>
</g>
<!-- Node3 -->
<g id="node3" class="node">
<title>Node3</title>
<g id="a_node3"><a xlink:title=" ">
<polygon fill="white" stroke="#bfbfbf" points="1000,-56.5 1000,-75.5 1042,-75.5 1042,-56.5 1000,-56.5"/>
<text text-anchor="middle" x="1021" y="-63.5" font-family="Helvetica,sans-Serif" font-size="10.00">array</text>
</a>
</g>
</g>
<!-- Node2&#45;&gt;Node3 -->
<g id="edge2" class="edge">
<title>Node2&#45;&gt;Node3</title>
<path fill="none" stroke="midnightblue" d="M1116.94,-112.44C1098.43,-103.68 1069.42,-89.94 1048.14,-79.86"/>
<polygon fill="midnightblue" stroke="midnightblue" points="1049.51,-76.63 1038.98,-75.52 1046.52,-82.96 1049.51,-76.63"/>
</g>
<!-- Node4 -->
<g id="node4" class="node">
<title>Node4</title>
<g id="a_node4"><a xlink:title=" ">
<polygon fill="white" stroke="#bfbfbf" points="1131.5,-56.5 1131.5,-75.5 1196.5,-75.5 1196.5,-56.5 1131.5,-56.5"/>
<text text-anchor="middle" x="1164" y="-63.5" font-family="Helvetica,sans-Serif" font-size="10.00">functional</text>
</a>
</g>
</g>
<!-- Node2&#45;&gt;Node4 -->
<g id="edge3" class="edge">
<title>Node2&#45;&gt;Node4</title>
<path fill="none" stroke="midnightblue" d="M1139.79,-112.08C1143.76,-104.69 1149.53,-93.95 1154.43,-84.81"/>
<polygon fill="midnightblue" stroke="midnightblue" points="1157.65,-86.22 1159.3,-75.75 1151.49,-82.91 1157.65,-86.22"/>
</g>
<!-- Node5 -->
<g id="node5" class="node">
<title>Node5</title>
<g id="a_node5"><a xlink:title=" ">
<polygon fill="white" stroke="#bfbfbf" points="1060.5,-56.5 1060.5,-75.5 1113.5,-75.5 1113.5,-56.5 1060.5,-56.5"/>
<text text-anchor="middle" x="1087" y="-63.5" font-family="Helvetica,sans-Serif" font-size="10.00">stdint.h</text>
</a>
</g>
</g>
<!-- Node2&#45;&gt;Node5 -->
<g id="edge4" class="edge">
<title>Node2&#45;&gt;Node5</title>
<path fill="none" stroke="midnightblue" d="M1127.07,-112.08C1120.15,-104.3 1109.93,-92.8 1101.55,-83.37"/>
<polygon fill="midnightblue" stroke="midnightblue" points="1104.04,-80.9 1094.78,-75.75 1098.81,-85.55 1104.04,-80.9"/>
</g>
<!-- Node6 -->
<g id="node6" class="node">
<title>Node6</title>
<g id="a_node6"><a xlink:title=" ">
<polygon fill="white" stroke="#bfbfbf" points="1215,-56.5 1215,-75.5 1265,-75.5 1265,-56.5 1215,-56.5"/>
<text text-anchor="middle" x="1240" y="-63.5" font-family="Helvetica,sans-Serif" font-size="10.00">chrono</text>
</a>
</g>
</g>
<!-- Node2&#45;&gt;Node6 -->
<g id="edge5" class="edge">
<title>Node2&#45;&gt;Node6</title>
<path fill="none" stroke="midnightblue" d="M1151.87,-112.32C1168.71,-103.66 1194.81,-90.24 1214.24,-80.25"/>
<polygon fill="midnightblue" stroke="midnightblue" points="1215.88,-83.34 1223.17,-75.65 1212.68,-77.12 1215.88,-83.34"/>
</g>
<!-- Node7 -->
<g id="node7" class="node">
<title>Node7</title>
<g id="a_node7"><a xlink:href="_backend_id_8hpp.html" target="_top" xlink:title=" ">
<polygon fill="white" stroke="black" points="894,-56.5 894,-75.5 982,-75.5 982,-56.5 894,-56.5"/>
<text text-anchor="middle" x="938" y="-63.5" font-family="Helvetica,sans-Serif" font-size="10.00">BackendId.hpp</text>
</a>
</g>
</g>
<!-- Node2&#45;&gt;Node7 -->
<g id="edge6" class="edge">
<title>Node2&#45;&gt;Node7</title>
<path fill="none" stroke="midnightblue" d="M1103.78,-112.44C1070.07,-103.2 1016.2,-88.44 979.07,-78.26"/>
<polygon fill="midnightblue" stroke="midnightblue" points="979.64,-74.78 969.07,-75.52 977.79,-81.54 979.64,-74.78"/>
</g>
<!-- Node14 -->
<g id="node14" class="node">
<title>Node14</title>
<g id="a_node14"><a xlink:href="_exceptions_8hpp.html" target="_top" xlink:title=" ">
<polygon fill="white" stroke="black" points="658.5,-56.5 658.5,-75.5 749.5,-75.5 749.5,-56.5 658.5,-56.5"/>
<text text-anchor="middle" x="704" y="-63.5" font-family="Helvetica,sans-Serif" font-size="10.00">Exceptions.hpp</text>
</a>
</g>
</g>
<!-- Node2&#45;&gt;Node14 -->
<g id="edge13" class="edge">
<title>Node2&#45;&gt;Node14</title>
<path fill="none" stroke="midnightblue" d="M1084.72,-114.7C1003.61,-104.54 844.46,-84.6 759.9,-74"/>
<polygon fill="midnightblue" stroke="midnightblue" points="760.08,-70.5 749.72,-72.73 759.21,-77.44 760.08,-70.5"/>
</g>
<!-- Node17 -->
<g id="node17" class="node">
<title>Node17</title>
<g id="a_node17"><a xlink:href="_deprecated_8hpp.html" target="_top" xlink:title=" ">
<polygon fill="white" stroke="black" points="1283,-56.5 1283,-75.5 1377,-75.5 1377,-56.5 1283,-56.5"/>
<text text-anchor="middle" x="1330" y="-63.5" font-family="Helvetica,sans-Serif" font-size="10.00">Deprecated.hpp</text>
</a>
</g>
</g>
<!-- Node2&#45;&gt;Node17 -->
<g id="edge17" class="edge">
<title>Node2&#45;&gt;Node17</title>
<path fill="none" stroke="midnightblue" d="M1165.9,-112.44C1199.27,-103.2 1252.59,-88.44 1289.35,-78.26"/>
<polygon fill="midnightblue" stroke="midnightblue" points="1290.54,-81.56 1299.25,-75.52 1288.67,-74.81 1290.54,-81.56"/>
</g>
<!-- Node7&#45;&gt;Node8 -->
<g id="edge7" class="edge">
<title>Node7&#45;&gt;Node8</title>
<path fill="none" stroke="midnightblue" d="M893.81,-57.11C890.83,-56.7 887.88,-56.32 885,-56 729.19,-38.59 239.17,-18.23 96.4,-12.54"/>
<polygon fill="midnightblue" stroke="midnightblue" points="96.48,-9.04 86.34,-12.15 96.2,-16.04 96.48,-9.04"/>
</g>
<!-- Node9 -->
<g id="node9" class="node">
<title>Node9</title>
<g id="a_node9"><a xlink:title=" ">
<polygon fill="white" stroke="#bfbfbf" points="1290.5,-0.5 1290.5,-19.5 1347.5,-19.5 1347.5,-0.5 1290.5,-0.5"/>
<text text-anchor="middle" x="1319" y="-7.5" font-family="Helvetica,sans-Serif" font-size="10.00">ostream</text>
</a>
</g>
</g>
<!-- Node7&#45;&gt;Node9 -->
<g id="edge8" class="edge">
<title>Node7&#45;&gt;Node9</title>
<path fill="none" stroke="midnightblue" d="M982.23,-57.38C985.2,-56.9 988.14,-56.44 991,-56 1095.46,-39.97 1219.06,-23.75 1280.43,-15.89"/>
<polygon fill="midnightblue" stroke="midnightblue" points="1280.96,-19.35 1290.44,-14.61 1280.07,-12.4 1280.96,-19.35"/>
</g>
<!-- Node10 -->
<g id="node10" class="node">
<title>Node10</title>
<g id="a_node10"><a xlink:title=" ">
<polygon fill="white" stroke="#bfbfbf" points="1471,-0.5 1471,-19.5 1503,-19.5 1503,-0.5 1471,-0.5"/>
<text text-anchor="middle" x="1487" y="-7.5" font-family="Helvetica,sans-Serif" font-size="10.00">set</text>
</a>
</g>
</g>
<!-- Node7&#45;&gt;Node10 -->
<g id="edge9" class="edge">
<title>Node7&#45;&gt;Node10</title>
<path fill="none" stroke="midnightblue" d="M982.21,-57.23C985.18,-56.79 988.13,-56.37 991,-56 1169.61,-32.77 1385.95,-17.55 1460.37,-12.68"/>
<polygon fill="midnightblue" stroke="midnightblue" points="1460.93,-16.16 1470.68,-12.02 1460.47,-9.17 1460.93,-16.16"/>
</g>
<!-- Node11 -->
<g id="node11" class="node">
<title>Node11</title>
<g id="a_node11"><a xlink:title=" ">
<polygon fill="white" stroke="#bfbfbf" points="369,-0.5 369,-19.5 413,-19.5 413,-0.5 369,-0.5"/>
<text text-anchor="middle" x="391" y="-7.5" font-family="Helvetica,sans-Serif" font-size="10.00">string</text>
</a>
</g>
</g>
<!-- Node7&#45;&gt;Node11 -->
<g id="edge10" class="edge">
<title>Node7&#45;&gt;Node11</title>
<path fill="none" stroke="midnightblue" d="M893.79,-57.23C890.82,-56.79 887.87,-56.37 885,-56 711.68,-33.42 502.69,-18.36 423.52,-13.09"/>
<polygon fill="midnightblue" stroke="midnightblue" points="423.43,-9.57 413.22,-12.41 422.97,-16.56 423.43,-9.57"/>
</g>
<!-- Node12 -->
<g id="node12" class="node">
<title>Node12</title>
<g id="a_node12"><a xlink:title=" ">
<polygon fill="white" stroke="#bfbfbf" points="860,-0.5 860,-19.5 946,-19.5 946,-0.5 860,-0.5"/>
<text text-anchor="middle" x="903" y="-7.5" font-family="Helvetica,sans-Serif" font-size="10.00">unordered_set</text>
</a>
</g>
</g>
<!-- Node7&#45;&gt;Node12 -->
<g id="edge11" class="edge">
<title>Node7&#45;&gt;Node12</title>
<path fill="none" stroke="midnightblue" d="M932.22,-56.08C927.33,-48.53 920.17,-37.49 914.17,-28.23"/>
<polygon fill="midnightblue" stroke="midnightblue" points="917.05,-26.24 908.67,-19.75 911.17,-30.05 917.05,-26.24"/>
</g>
<!-- Node7&#45;&gt;Node13 -->
<g id="edge12" class="edge">
<title>Node7&#45;&gt;Node13</title>
<path fill="none" stroke="midnightblue" d="M956.22,-56.44C974.9,-47.68 1004.16,-33.94 1025.62,-23.86"/>
<polygon fill="midnightblue" stroke="midnightblue" points="1027.3,-26.93 1034.86,-19.52 1024.32,-20.6 1027.3,-26.93"/>
</g>
<!-- Node14&#45;&gt;Node11 -->
<g id="edge16" class="edge">
<title>Node14&#45;&gt;Node11</title>
<path fill="none" stroke="midnightblue" d="M658.49,-57.15C594.45,-46.1 479.35,-26.24 423.36,-16.58"/>
<polygon fill="midnightblue" stroke="midnightblue" points="423.75,-13.1 413.3,-14.85 422.56,-20 423.75,-13.1"/>
</g>
<!-- Node15 -->
<g id="node15" class="node">
<title>Node15</title>
<g id="a_node15"><a xlink:title=" ">
<polygon fill="white" stroke="#bfbfbf" points="632,-0.5 632,-19.5 688,-19.5 688,-0.5 632,-0.5"/>
<text text-anchor="middle" x="660" y="-7.5" font-family="Helvetica,sans-Serif" font-size="10.00">sstream</text>
</a>
</g>
</g>
<!-- Node14&#45;&gt;Node15 -->
<g id="edge14" class="edge">
<title>Node14&#45;&gt;Node15</title>
<path fill="none" stroke="midnightblue" d="M696.73,-56.08C690.46,-48.38 681.21,-37.03 673.57,-27.65"/>
<polygon fill="midnightblue" stroke="midnightblue" points="676.16,-25.29 667.13,-19.75 670.73,-29.71 676.16,-25.29"/>
</g>
<!-- Node16 -->
<g id="node16" class="node">
<title>Node16</title>
<g id="a_node16"><a xlink:title=" ">
<polygon fill="white" stroke="#bfbfbf" points="706.5,-0.5 706.5,-19.5 771.5,-19.5 771.5,-0.5 706.5,-0.5"/>
<text text-anchor="middle" x="739" y="-7.5" font-family="Helvetica,sans-Serif" font-size="10.00">stdexcept</text>
</a>
</g>
</g>
<!-- Node14&#45;&gt;Node16 -->
<g id="edge15" class="edge">
<title>Node14&#45;&gt;Node16</title>
<path fill="none" stroke="midnightblue" d="M709.78,-56.08C714.67,-48.53 721.83,-37.49 727.83,-28.23"/>
<polygon fill="midnightblue" stroke="midnightblue" points="730.83,-30.05 733.33,-19.75 724.95,-26.24 730.83,-30.05"/>
</g>
<!-- Node19&#45;&gt;Node2 -->
<g id="edge25" class="edge">
<title>Node19&#45;&gt;Node2</title>
<path fill="none" stroke="midnightblue" d="M553.55,-169.14C556.75,-168.73 559.92,-168.35 563,-168 660.84,-156.95 948.68,-136.13 1074.72,-127.22"/>
<polygon fill="midnightblue" stroke="midnightblue" points="1075.23,-130.69 1084.96,-126.5 1074.74,-123.71 1075.23,-130.69"/>
</g>
<!-- Node19&#45;&gt;Node3 -->
<g id="edge27" class="edge">
<title>Node19&#45;&gt;Node3</title>
<path fill="none" stroke="midnightblue" d="M553.77,-169.16C621.43,-158.82 736.21,-140.88 778,-132 870.66,-112.31 895.22,-103.11 990.01,-76.23"/>
<polygon fill="midnightblue" stroke="midnightblue" points="991.05,-79.57 999.72,-73.48 989.15,-72.84 991.05,-79.57"/>
</g>
<!-- Node19&#45;&gt;Node5 -->
<g id="edge26" class="edge">
<title>Node19&#45;&gt;Node5</title>
<path fill="none" stroke="midnightblue" d="M553.58,-169.34C556.77,-168.88 559.93,-168.43 563,-168 683.33,-151.13 714.72,-155.16 834,-132 911.93,-116.87 1001.58,-92.04 1050.48,-77.85"/>
<polygon fill="midnightblue" stroke="midnightblue" points="1051.66,-81.15 1060.28,-74.99 1049.7,-74.43 1051.66,-81.15"/>
</g>
<!-- Node19&#45;&gt;Node13 -->
<g id="edge29" class="edge">
<title>Node19&#45;&gt;Node13</title>
<path fill="none" stroke="midnightblue" d="M524.05,-168.39C547.21,-159.35 584.67,-144.7 617,-132 680.14,-107.19 697.19,-103.96 759,-76 776.75,-67.97 779.49,-62.07 798,-56 890.32,-25.72 920.99,-40.59 1019.26,-20.15"/>
<polygon fill="midnightblue" stroke="midnightblue" points="1020.27,-23.51 1029.31,-17.99 1018.8,-16.67 1020.27,-23.51"/>
</g>
<!-- Node19&#45;&gt;Node14 -->
<g id="edge20" class="edge">
<title>Node19&#45;&gt;Node14</title>
<path fill="none" stroke="midnightblue" d="M517.85,-168.37C552.88,-149.29 637.12,-103.42 679.2,-80.51"/>
<polygon fill="midnightblue" stroke="midnightblue" points="681.11,-83.45 688.22,-75.59 677.77,-77.3 681.11,-83.45"/>
</g>
<!-- Node19&#45;&gt;Node20 -->
<g id="edge21" class="edge">
<title>Node19&#45;&gt;Node20</title>
<path fill="none" stroke="midnightblue" d="M497.54,-168.08C493.85,-160.69 488.48,-149.95 483.91,-140.81"/>
<polygon fill="midnightblue" stroke="midnightblue" points="486.98,-139.13 479.38,-131.75 480.72,-142.26 486.98,-139.13"/>
</g>
<!-- Node23 -->
<g id="node23" class="node">
<title>Node23</title>
<g id="a_node23"><a xlink:title=" ">
<polygon fill="white" stroke="#bfbfbf" points="685.5,-112.5 685.5,-131.5 768.5,-131.5 768.5,-112.5 685.5,-112.5"/>
<text text-anchor="middle" x="727" y="-119.5" font-family="Helvetica,sans-Serif" font-size="10.00">initializer_list</text>
</a>
</g>
</g>
<!-- Node19&#45;&gt;Node23 -->
<g id="edge28" class="edge">
<title>Node19&#45;&gt;Node23</title>
<path fill="none" stroke="midnightblue" d="M537.65,-168.44C576.66,-159.08 639.27,-144.06 681.72,-133.87"/>
<polygon fill="midnightblue" stroke="midnightblue" points="682.61,-137.25 691.51,-131.52 680.97,-130.45 682.61,-137.25"/>
</g>
<!-- Node24 -->
<g id="node24" class="node">
<title>Node24</title>
<g id="a_node24"><a xlink:title=" ">
<polygon fill="white" stroke="#bfbfbf" points="526.5,-56.5 526.5,-75.5 571.5,-75.5 571.5,-56.5 526.5,-56.5"/>
<text text-anchor="middle" x="549" y="-63.5" font-family="Helvetica,sans-Serif" font-size="10.00">utility</text>
</a>
</g>
</g>
<!-- Node19&#45;&gt;Node24 -->
<g id="edge30" class="edge">
<title>Node19&#45;&gt;Node24</title>
<path fill="none" stroke="midnightblue" d="M477.6,-168.45C449.74,-157.3 410.05,-136.31 427,-112 432.38,-104.29 482.4,-87.56 516.7,-76.82"/>
<polygon fill="midnightblue" stroke="midnightblue" points="517.83,-80.13 526.34,-73.82 515.75,-73.45 517.83,-80.13"/>
</g>
<!-- Node20&#45;&gt;Node14 -->
<g id="edge22" class="edge">
<title>Node20&#45;&gt;Node14</title>
<path fill="none" stroke="midnightblue" d="M511.29,-112.44C550.98,-103.08 614.71,-88.06 657.91,-77.87"/>
<polygon fill="midnightblue" stroke="midnightblue" points="658.95,-81.22 667.88,-75.52 657.35,-74.41 658.95,-81.22"/>
</g>
<!-- Node21 -->
<g id="node21" class="node">
<title>Node21</title>
<g id="a_node21"><a xlink:title=" ">
<polygon fill="white" stroke="#bfbfbf" points="590,-56.5 590,-75.5 640,-75.5 640,-56.5 590,-56.5"/>
<text text-anchor="middle" x="615" y="-63.5" font-family="Helvetica,sans-Serif" font-size="10.00">cstring</text>
</a>
</g>
</g>
<!-- Node20&#45;&gt;Node21 -->
<g id="edge23" class="edge">
<title>Node20&#45;&gt;Node21</title>
<path fill="none" stroke="midnightblue" d="M497.18,-112.44C520.43,-103.48 557.15,-89.31 583.42,-79.18"/>
<polygon fill="midnightblue" stroke="midnightblue" points="584.85,-82.38 592.92,-75.52 582.33,-75.85 584.85,-82.38"/>
</g>
<!-- Node22 -->
<g id="node22" class="node">
<title>Node22</title>
<g id="a_node22"><a xlink:title=" ">
<polygon fill="white" stroke="#bfbfbf" points="806.5,-56.5 806.5,-75.5 875.5,-75.5 875.5,-56.5 806.5,-56.5"/>
<text text-anchor="middle" x="841" y="-63.5" font-family="Helvetica,sans-Serif" font-size="10.00">type_traits</text>
</a>
</g>
</g>
<!-- Node20&#45;&gt;Node22 -->
<g id="edge24" class="edge">
<title>Node20&#45;&gt;Node22</title>
<path fill="none" stroke="midnightblue" d="M514.52,-115.17C583.14,-105.05 723.89,-84.28 796.1,-73.62"/>
<polygon fill="midnightblue" stroke="midnightblue" points="796.86,-77.05 806.24,-72.13 795.84,-70.13 796.86,-77.05"/>
</g>
<!-- Node25&#45;&gt;Node8 -->
<g id="edge80" class="edge">
<title>Node25&#45;&gt;Node8</title>
<path fill="none" stroke="midnightblue" d="M924.98,-344.05C764.23,-341.05 321.1,-330.11 263,-300 147.59,-240.19 82.5,-82.69 63.17,-29.13"/>
<polygon fill="midnightblue" stroke="midnightblue" points="66.44,-27.88 59.82,-19.61 59.83,-30.2 66.44,-27.88"/>
</g>
<!-- Node25&#45;&gt;Node13 -->
<g id="edge81" class="edge">
<title>Node25&#45;&gt;Node13</title>
<path fill="none" stroke="midnightblue" d="M982.78,-336.26C982.73,-313.63 986.03,-252.88 1021,-224 1129.31,-134.55 1216.22,-262.99 1335,-188 1384.63,-156.66 1388.82,-132.43 1405,-76 1407.45,-67.46 1410.87,-62.67 1405,-56 1384.11,-32.27 1170.5,-17.67 1086.59,-12.81"/>
<polygon fill="midnightblue" stroke="midnightblue" points="1086.74,-9.31 1076.56,-12.24 1086.34,-16.3 1086.74,-9.31"/>
</g>
<!-- Node25&#45;&gt;Node17 -->
<g id="edge36" class="edge">
<title>Node25&#45;&gt;Node17</title>
<path fill="none" stroke="midnightblue" d="M980.05,-336.29C973.19,-314.25 958.87,-255.77 988,-224 1072.8,-131.52 1165.35,-260.14 1268,-188 1303.14,-163.31 1319.64,-112.6 1326.26,-85.32"/>
<polygon fill="midnightblue" stroke="midnightblue" points="1329.68,-86.04 1328.45,-75.51 1322.85,-84.51 1329.68,-86.04"/>
</g>
<!-- Node25&#45;&gt;Node18 -->
<g id="edge43" class="edge">
<title>Node25&#45;&gt;Node18</title>
<path fill="none" stroke="midnightblue" d="M1041.02,-343.89C1110.25,-341.09 1228.7,-331.61 1325,-300 1361.52,-288.01 1399.79,-264.62 1422.5,-249.42"/>
<polygon fill="midnightblue" stroke="midnightblue" points="1424.67,-252.17 1430.96,-243.65 1420.73,-246.39 1424.67,-252.17"/>
</g>
<!-- Node25&#45;&gt;Node20 -->
<g id="edge44" class="edge">
<title>Node25&#45;&gt;Node20</title>
<path fill="none" stroke="midnightblue" d="M924.78,-341.51C757.95,-330.89 287.33,-296.49 244,-244 189.36,-177.8 342.35,-143.29 425.4,-129.84"/>
<polygon fill="midnightblue" stroke="midnightblue" points="426.07,-133.28 435.41,-128.26 424.99,-126.36 426.07,-133.28"/>
</g>
<!-- Node26 -->
<g id="node26" class="node">
<title>Node26</title>
<g id="a_node26"><a xlink:href="_backend_options_8hpp.html" target="_top" xlink:title=" ">
<polygon fill="white" stroke="black" points="252.5,-224.5 252.5,-243.5 403.5,-243.5 403.5,-224.5 252.5,-224.5"/>
<text text-anchor="middle" x="328" y="-231.5" font-family="Helvetica,sans-Serif" font-size="10.00">armnn/BackendOptions.hpp</text>
</a>
</g>
</g>
<!-- Node25&#45;&gt;Node26 -->
<g id="edge32" class="edge">
<title>Node25&#45;&gt;Node26</title>
<path fill="none" stroke="midnightblue" d="M924.75,-338.58C856.89,-330.81 741.48,-316.66 643,-300 547.3,-283.81 436.33,-259.64 374.95,-245.79"/>
<polygon fill="midnightblue" stroke="midnightblue" points="375.7,-242.37 365.17,-243.58 374.15,-249.2 375.7,-242.37"/>
</g>
<!-- Node28 -->
<g id="node28" class="node">
<title>Node28</title>
<g id="a_node28"><a xlink:href="_descriptors_fwd_8hpp.html" target="_top" xlink:title=" ">
<polygon fill="white" stroke="black" points="1030,-224.5 1030,-243.5 1178,-243.5 1178,-224.5 1030,-224.5"/>
<text text-anchor="middle" x="1104" y="-231.5" font-family="Helvetica,sans-Serif" font-size="10.00">armnn/DescriptorsFwd.hpp</text>
</a>
</g>
</g>
<!-- Node25&#45;&gt;Node28 -->
<g id="edge37" class="edge">
<title>Node25&#45;&gt;Node28</title>
<path fill="none" stroke="midnightblue" d="M992.49,-336.37C1012.9,-317.81 1061.2,-273.91 1087.02,-250.44"/>
<polygon fill="midnightblue" stroke="midnightblue" points="1089.5,-252.91 1094.55,-243.59 1084.8,-247.73 1089.5,-252.91"/>
</g>
<!-- Node29 -->
<g id="node29" class="node">
<title>Node29</title>
<g id="a_node29"><a xlink:href="_i_strategy_8hpp.html" target="_top" xlink:title=" ">
<polygon fill="white" stroke="black" points="1200.5,-280.5 1200.5,-299.5 1315.5,-299.5 1315.5,-280.5 1200.5,-280.5"/>
<text text-anchor="middle" x="1258" y="-287.5" font-family="Helvetica,sans-Serif" font-size="10.00">armnn/IStrategy.hpp</text>
</a>
</g>
</g>
<!-- Node25&#45;&gt;Node29 -->
<g id="edge38" class="edge">
<title>Node25&#45;&gt;Node29</title>
<path fill="none" stroke="midnightblue" d="M1026.57,-336.44C1074.85,-326.96 1152.71,-311.67 1204.61,-301.48"/>
<polygon fill="midnightblue" stroke="midnightblue" points="1205.49,-304.88 1214.63,-299.52 1204.14,-298.01 1205.49,-304.88"/>
</g>
<!-- Node30 -->
<g id="node30" class="node">
<title>Node30</title>
<g id="a_node30"><a xlink:href="_tensor_fwd_8hpp.html" target="_top" xlink:title=" ">
<polygon fill="white" stroke="black" points="1196,-224.5 1196,-243.5 1320,-243.5 1320,-224.5 1196,-224.5"/>
<text text-anchor="middle" x="1258" y="-231.5" font-family="Helvetica,sans-Serif" font-size="10.00">armnn/TensorFwd.hpp</text>
</a>
</g>
</g>
<!-- Node25&#45;&gt;Node30 -->
<g id="edge45" class="edge">
<title>Node25&#45;&gt;Node30</title>
<path fill="none" stroke="midnightblue" d="M1004.58,-336.37C1053.07,-316.97 1170.83,-269.87 1227.08,-247.37"/>
<polygon fill="midnightblue" stroke="midnightblue" points="1228.54,-250.56 1236.52,-243.59 1225.94,-244.06 1228.54,-250.56"/>
</g>
<!-- Node31 -->
<g id="node31" class="node">
<title>Node31</title>
<g id="a_node31"><a xlink:href="_logging_8hpp.html" target="_top" xlink:title=" ">
<polygon fill="white" stroke="black" points="231,-112.5 231,-131.5 341,-131.5 341,-112.5 231,-112.5"/>
<text text-anchor="middle" x="286" y="-119.5" font-family="Helvetica,sans-Serif" font-size="10.00">armnn/Logging.hpp</text>
</a>
</g>
</g>
<!-- Node25&#45;&gt;Node31 -->
<g id="edge46" class="edge">
<title>Node25&#45;&gt;Node31</title>
<path fill="none" stroke="midnightblue" d="M924.79,-343.7C788.78,-340.21 453.51,-328.88 345,-300 289.68,-285.28 259.43,-292.49 229,-244 206.6,-208.31 244.6,-162.41 268.63,-138.71"/>
<polygon fill="midnightblue" stroke="midnightblue" points="271.3,-141.01 276.13,-131.58 266.47,-135.93 271.3,-141.01"/>
</g>
<!-- Node37 -->
<g id="node37" class="node">
<title>Node37</title>
<g id="a_node37"><a xlink:href="_tensor_handle_8hpp.html" target="_top" xlink:title=" ">
<polygon fill="white" stroke="black" points="651.5,-280.5 651.5,-299.5 838.5,-299.5 838.5,-280.5 651.5,-280.5"/>
<text text-anchor="middle" x="745" y="-287.5" font-family="Helvetica,sans-Serif" font-size="10.00">armnn/backends/TensorHandle.hpp</text>
</a>
</g>
</g>
<!-- Node25&#45;&gt;Node37 -->
<g id="edge58" class="edge">
<title>Node25&#45;&gt;Node37</title>
<path fill="none" stroke="midnightblue" d="M945.29,-336.44C903.86,-327.04 837.24,-311.93 792.33,-301.74"/>
<polygon fill="midnightblue" stroke="midnightblue" points="793.06,-298.32 782.54,-299.52 791.51,-305.14 793.06,-298.32"/>
</g>
<!-- Node26&#45;&gt;Node7 -->
<g id="edge33" class="edge">
<title>Node26&#45;&gt;Node7</title>
<path fill="none" stroke="midnightblue" d="M325.61,-224.1C322.48,-210.19 318.88,-183.31 333,-168 367.47,-130.61 508.83,-140.3 559,-132 620.68,-121.8 794.95,-91.74 884.07,-76.33"/>
<polygon fill="midnightblue" stroke="midnightblue" points="884.72,-79.77 893.98,-74.62 883.53,-72.87 884.72,-79.77"/>
</g>
<!-- Node26&#45;&gt;Node14 -->
<g id="edge34" class="edge">
<title>Node26&#45;&gt;Node14</title>
<path fill="none" stroke="midnightblue" d="M318.7,-224.11C305.77,-210.69 285.5,-185.02 300,-168 332.7,-129.63 475.8,-146.77 524,-132 544.15,-125.82 547.4,-119.75 567,-112 599.56,-99.13 637.42,-86.9 665.08,-78.44"/>
<polygon fill="midnightblue" stroke="midnightblue" points="666.23,-81.75 674.78,-75.5 664.2,-75.05 666.23,-81.75"/>
</g>
<!-- Node27 -->
<g id="node27" class="node">
<title>Node27</title>
<g id="a_node27"><a xlink:title=" ">
<polygon fill="white" stroke="#bfbfbf" points="342,-168.5 342,-187.5 394,-187.5 394,-168.5 342,-168.5"/>
<text text-anchor="middle" x="368" y="-175.5" font-family="Helvetica,sans-Serif" font-size="10.00">cassert</text>
</a>
</g>
</g>
<!-- Node26&#45;&gt;Node27 -->
<g id="edge35" class="edge">
<title>Node26&#45;&gt;Node27</title>
<path fill="none" stroke="midnightblue" d="M334.61,-224.08C340.26,-216.46 348.54,-205.26 355.45,-195.94"/>
<polygon fill="midnightblue" stroke="midnightblue" points="358.38,-197.87 361.52,-187.75 352.75,-193.7 358.38,-197.87"/>
</g>
<!-- Node29&#45;&gt;Node2 -->
<g id="edge40" class="edge">
<title>Node29&#45;&gt;Node2</title>
<path fill="none" stroke="midnightblue" d="M1281.07,-280.47C1306.46,-269.62 1342.05,-249.24 1329,-224 1302.47,-172.67 1238.93,-146.67 1191.75,-134.03"/>
<polygon fill="midnightblue" stroke="midnightblue" points="1192.51,-130.61 1181.95,-131.53 1190.78,-137.4 1192.51,-130.61"/>
</g>
<!-- Node29&#45;&gt;Node18 -->
<g id="edge41" class="edge">
<title>Node29&#45;&gt;Node18</title>
<path fill="none" stroke="midnightblue" d="M1287.31,-280.44C1318.84,-271.24 1369.13,-256.56 1403.99,-246.39"/>
<polygon fill="midnightblue" stroke="midnightblue" points="1405.2,-249.68 1413.82,-243.52 1403.24,-242.96 1405.2,-249.68"/>
</g>
<!-- Node29&#45;&gt;Node28 -->
<g id="edge39" class="edge">
<title>Node29&#45;&gt;Node28</title>
<path fill="none" stroke="midnightblue" d="M1233.6,-280.44C1207.8,-271.4 1166.92,-257.06 1137.98,-246.92"/>
<polygon fill="midnightblue" stroke="midnightblue" points="1138.88,-243.52 1128.29,-243.52 1136.57,-250.13 1138.88,-243.52"/>
</g>
<!-- Node29&#45;&gt;Node30 -->
<g id="edge42" class="edge">
<title>Node29&#45;&gt;Node30</title>
<path fill="none" stroke="midnightblue" d="M1258,-280.08C1258,-273.01 1258,-262.86 1258,-253.99"/>
<polygon fill="midnightblue" stroke="midnightblue" points="1261.5,-253.75 1258,-243.75 1254.5,-253.75 1261.5,-253.75"/>
</g>
<!-- Node31&#45;&gt;Node8 -->
<g id="edge53" class="edge">
<title>Node31&#45;&gt;Node8</title>
<path fill="none" stroke="midnightblue" d="M230.8,-113.19C197.6,-106.77 155.44,-95.44 122,-76 100.75,-63.65 81.54,-42.63 69.61,-27.84"/>
<polygon fill="midnightblue" stroke="midnightblue" points="72.07,-25.31 63.17,-19.58 66.55,-29.61 72.07,-25.31"/>
</g>
<!-- Node31&#45;&gt;Node11 -->
<g id="edge54" class="edge">
<title>Node31&#45;&gt;Node11</title>
<path fill="none" stroke="midnightblue" d="M230.88,-116.11C175.43,-109.07 102.22,-92.62 133,-56 161.49,-22.11 295.92,-13.74 358.64,-11.68"/>
<polygon fill="midnightblue" stroke="midnightblue" points="358.88,-15.17 368.77,-11.38 358.67,-8.17 358.88,-15.17"/>
</g>
<!-- Node31&#45;&gt;Node13 -->
<g id="edge56" class="edge">
<title>Node31&#45;&gt;Node13</title>
<path fill="none" stroke="midnightblue" d="M309.25,-112.35C331.9,-103.74 367.2,-89.84 397,-76 414.31,-67.96 416.62,-61.14 435,-56 683.09,13.44 761.73,-61.62 1019.34,-19.92"/>
<polygon fill="midnightblue" stroke="midnightblue" points="1020.07,-23.35 1029.36,-18.25 1018.92,-16.44 1020.07,-23.35"/>
</g>
<!-- Node31&#45;&gt;Node14 -->
<g id="edge57" class="edge">
<title>Node31&#45;&gt;Node14</title>
<path fill="none" stroke="midnightblue" d="M341.13,-114.84C410.33,-106.96 532.91,-92.5 648.33,-76.05"/>
<polygon fill="midnightblue" stroke="midnightblue" points="649,-79.49 658.4,-74.6 648.01,-72.56 649,-79.49"/>
</g>
<!-- Node31&#45;&gt;Node24 -->
<g id="edge55" class="edge">
<title>Node31&#45;&gt;Node24</title>
<path fill="none" stroke="midnightblue" d="M336.27,-112.43C381.04,-104.52 448.5,-91.94 516.33,-76"/>
<polygon fill="midnightblue" stroke="midnightblue" points="517.41,-79.34 526.33,-73.62 515.8,-72.53 517.41,-79.34"/>
</g>
<!-- Node32 -->
<g id="node32" class="node">
<title>Node32</title>
<g id="a_node32"><a xlink:href="_utils_8hpp.html" target="_top" xlink:title=" ">
<polygon fill="white" stroke="black" points="142.5,-56.5 142.5,-75.5 237.5,-75.5 237.5,-56.5 142.5,-56.5"/>
<text text-anchor="middle" x="190" y="-63.5" font-family="Helvetica,sans-Serif" font-size="10.00">armnn/Utils.hpp</text>
</a>
</g>
</g>
<!-- Node31&#45;&gt;Node32 -->
<g id="edge47" class="edge">
<title>Node31&#45;&gt;Node32</title>
<path fill="none" stroke="midnightblue" d="M270.58,-112.32C255.46,-103.82 232.18,-90.73 214.53,-80.8"/>
<polygon fill="midnightblue" stroke="midnightblue" points="215.82,-77.51 205.39,-75.65 212.39,-83.61 215.82,-77.51"/>
</g>
<!-- Node34 -->
<g id="node34" class="node">
<title>Node34</title>
<g id="a_node34"><a xlink:title=" ">
<polygon fill="white" stroke="#bfbfbf" points="334.5,-56.5 334.5,-75.5 387.5,-75.5 387.5,-56.5 334.5,-56.5"/>
<text text-anchor="middle" x="361" y="-63.5" font-family="Helvetica,sans-Serif" font-size="10.00">ctype.h</text>
</a>
</g>
</g>
<!-- Node31&#45;&gt;Node34 -->
<g id="edge50" class="edge">
<title>Node31&#45;&gt;Node34</title>
<path fill="none" stroke="midnightblue" d="M298.05,-112.32C309.46,-104.11 326.83,-91.6 340.43,-81.81"/>
<polygon fill="midnightblue" stroke="midnightblue" points="342.66,-84.52 348.73,-75.83 338.57,-78.84 342.66,-84.52"/>
</g>
<!-- Node35 -->
<g id="node35" class="node">
<title>Node35</title>
<g id="a_node35"><a xlink:title=" ">
<polygon fill="white" stroke="#bfbfbf" points="256,-56.5 256,-75.5 316,-75.5 316,-56.5 256,-56.5"/>
<text text-anchor="middle" x="286" y="-63.5" font-family="Helvetica,sans-Serif" font-size="10.00">iostream</text>
</a>
</g>
</g>
<!-- Node31&#45;&gt;Node35 -->
<g id="edge51" class="edge">
<title>Node31&#45;&gt;Node35</title>
<path fill="none" stroke="midnightblue" d="M286,-112.08C286,-105.01 286,-94.86 286,-85.99"/>
<polygon fill="midnightblue" stroke="midnightblue" points="289.5,-85.75 286,-75.75 282.5,-85.75 289.5,-85.75"/>
</g>
<!-- Node36 -->
<g id="node36" class="node">
<title>Node36</title>
<g id="a_node36"><a xlink:title=" ">
<polygon fill="white" stroke="#bfbfbf" points="444,-56.5 444,-75.5 508,-75.5 508,-56.5 444,-56.5"/>
<text text-anchor="middle" x="476" y="-63.5" font-family="Helvetica,sans-Serif" font-size="10.00">algorithm</text>
</a>
</g>
</g>
<!-- Node31&#45;&gt;Node36 -->
<g id="edge52" class="edge">
<title>Node31&#45;&gt;Node36</title>
<path fill="none" stroke="midnightblue" d="M316.11,-112.44C348.63,-103.2 400.58,-88.44 436.39,-78.26"/>
<polygon fill="midnightblue" stroke="midnightblue" points="437.37,-81.62 446.03,-75.52 435.46,-74.88 437.37,-81.62"/>
</g>
<!-- Node32&#45;&gt;Node11 -->
<g id="edge48" class="edge">
<title>Node32&#45;&gt;Node11</title>
<path fill="none" stroke="midnightblue" d="M221.85,-56.44C259.39,-46.36 321.41,-29.7 359.01,-19.6"/>
<polygon fill="midnightblue" stroke="midnightblue" points="360.17,-22.91 368.92,-16.93 358.36,-16.15 360.17,-22.91"/>
</g>
<!-- Node33 -->
<g id="node33" class="node">
<title>Node33</title>
<g id="a_node33"><a xlink:title=" ">
<polygon fill="white" stroke="#bfbfbf" points="964.5,-0.5 964.5,-19.5 1011.5,-19.5 1011.5,-0.5 964.5,-0.5"/>
<text text-anchor="middle" x="988" y="-7.5" font-family="Helvetica,sans-Serif" font-size="10.00">cmath</text>
</a>
</g>
</g>
<!-- Node32&#45;&gt;Node33 -->
<g id="edge49" class="edge">
<title>Node32&#45;&gt;Node33</title>
<path fill="none" stroke="midnightblue" d="M237.54,-57.11C240.73,-56.7 243.91,-56.32 247,-56 557.01,-23.73 642.06,-68.75 954.09,-19.74"/>
<polygon fill="midnightblue" stroke="midnightblue" points="955.01,-23.14 964.34,-18.11 953.91,-16.22 955.01,-23.14"/>
</g>
<!-- Node37&#45;&gt;Node36 -->
<g id="edge79" class="edge">
<title>Node37&#45;&gt;Node36</title>
<path fill="none" stroke="midnightblue" d="M724.31,-280.41C703.39,-271.61 670.21,-257.38 642,-244 624.4,-235.65 621.32,-230.62 603,-224 534.05,-199.07 498.41,-234.84 442,-188 414.75,-165.37 402.42,-143.81 418,-112 424.52,-98.68 437.1,-88.18 448.87,-80.68"/>
<polygon fill="midnightblue" stroke="midnightblue" points="450.77,-83.62 457.61,-75.53 447.22,-77.59 450.77,-83.62"/>
</g>
<!-- Node38 -->
<g id="node38" class="node">
<title>Node38</title>
<g id="a_node38"><a xlink:href="_i_tensor_handle_8hpp.html" target="_top" xlink:title=" ">
<polygon fill="white" stroke="black" points="650.5,-224.5 650.5,-243.5 757.5,-243.5 757.5,-224.5 650.5,-224.5"/>
<text text-anchor="middle" x="704" y="-231.5" font-family="Helvetica,sans-Serif" font-size="10.00">ITensorHandle.hpp</text>
</a>
</g>
</g>
<!-- Node37&#45;&gt;Node38 -->
<g id="edge59" class="edge">
<title>Node37&#45;&gt;Node38</title>
<path fill="none" stroke="midnightblue" d="M738.23,-280.08C732.44,-272.46 723.94,-261.26 716.86,-251.94"/>
<polygon fill="midnightblue" stroke="midnightblue" points="719.48,-249.6 710.64,-243.75 713.9,-253.83 719.48,-249.6"/>
</g>
<!-- Node41 -->
<g id="node41" class="node">
<title>Node41</title>
<g id="a_node41"><a xlink:href="_types_utils_8hpp.html" target="_top" xlink:title=" ">
<polygon fill="white" stroke="black" points="814,-224.5 814,-243.5 936,-243.5 936,-224.5 814,-224.5"/>
<text text-anchor="middle" x="875" y="-231.5" font-family="Helvetica,sans-Serif" font-size="10.00">armnn/TypesUtils.hpp</text>
</a>
</g>
</g>
<!-- Node37&#45;&gt;Node41 -->
<g id="edge65" class="edge">
<title>Node37&#45;&gt;Node41</title>
<path fill="none" stroke="midnightblue" d="M765.6,-280.44C786.99,-271.56 820.68,-257.56 845.02,-247.45"/>
<polygon fill="midnightblue" stroke="midnightblue" points="846.61,-250.58 854.5,-243.52 843.92,-244.12 846.61,-250.58"/>
</g>
<!-- Node42 -->
<g id="node42" class="node">
<title>Node42</title>
<g id="a_node42"><a xlink:href="_assert_8hpp.html" target="_top" xlink:title=" ">
<polygon fill="white" stroke="black" points="460,-224.5 460,-243.5 594,-243.5 594,-224.5 460,-224.5"/>
<text text-anchor="middle" x="527" y="-231.5" font-family="Helvetica,sans-Serif" font-size="10.00">armnn/utility/Assert.hpp</text>
</a>
</g>
</g>
<!-- Node37&#45;&gt;Node42 -->
<g id="edge75" class="edge">
<title>Node37&#45;&gt;Node42</title>
<path fill="none" stroke="midnightblue" d="M710.46,-280.44C672.75,-271.1 612.26,-256.12 571.14,-245.93"/>
<polygon fill="midnightblue" stroke="midnightblue" points="571.93,-242.52 561.38,-243.52 570.25,-249.32 571.93,-242.52"/>
</g>
<!-- Node43 -->
<g id="node43" class="node">
<title>Node43</title>
<g id="a_node43"><a xlink:href="_compatible_types_8hpp.html" target="_top" xlink:title=" ">
<polygon fill="white" stroke="black" points="1045.5,-168.5 1045.5,-187.5 1224.5,-187.5 1224.5,-168.5 1045.5,-168.5"/>
<text text-anchor="middle" x="1135" y="-175.5" font-family="Helvetica,sans-Serif" font-size="10.00">armnnUtils/CompatibleTypes.hpp</text>
</a>
</g>
</g>
<!-- Node37&#45;&gt;Node43 -->
<g id="edge77" class="edge">
<title>Node37&#45;&gt;Node43</title>
<path fill="none" stroke="midnightblue" d="M750.32,-280.04C759.47,-265.53 779.67,-237.2 805,-224 843.95,-203.7 952.88,-191.65 1035.02,-185.2"/>
<polygon fill="midnightblue" stroke="midnightblue" points="1035.45,-188.68 1045.15,-184.42 1034.91,-181.7 1035.45,-188.68"/>
</g>
<!-- Node38&#45;&gt;Node19 -->
<g id="edge64" class="edge">
<title>Node38&#45;&gt;Node19</title>
<path fill="none" stroke="midnightblue" d="M671.99,-224.44C637.27,-215.16 581.71,-200.31 543.62,-190.13"/>
<polygon fill="midnightblue" stroke="midnightblue" points="544.42,-186.72 533.86,-187.52 542.61,-193.48 544.42,-186.72"/>
</g>
<!-- Node39 -->
<g id="node39" class="node">
<title>Node39</title>
<g id="a_node39"><a xlink:href="_memory_sources_8hpp.html" target="_top" xlink:title=" ">
<polygon fill="white" stroke="black" points="799.5,-168.5 799.5,-187.5 950.5,-187.5 950.5,-168.5 799.5,-168.5"/>
<text text-anchor="middle" x="875" y="-175.5" font-family="Helvetica,sans-Serif" font-size="10.00">armnn/MemorySources.hpp</text>
</a>
</g>
</g>
<!-- Node38&#45;&gt;Node39 -->
<g id="edge60" class="edge">
<title>Node38&#45;&gt;Node39</title>
<path fill="none" stroke="midnightblue" d="M731.1,-224.44C759.99,-215.32 805.92,-200.81 838.11,-190.65"/>
<polygon fill="midnightblue" stroke="midnightblue" points="839.55,-193.87 848.03,-187.52 837.44,-187.19 839.55,-193.87"/>
</g>
<!-- Node40 -->
<g id="node40" class="node">
<title>Node40</title>
<g id="a_node40"><a xlink:href="_ignore_unused_8hpp.html" target="_top" xlink:title=" ">
<polygon fill="white" stroke="black" points="571.5,-168.5 571.5,-187.5 742.5,-187.5 742.5,-168.5 571.5,-168.5"/>
<text text-anchor="middle" x="657" y="-175.5" font-family="Helvetica,sans-Serif" font-size="10.00">armnn/utility/IgnoreUnused.hpp</text>
</a>
</g>
</g>
<!-- Node38&#45;&gt;Node40 -->
<g id="edge63" class="edge">
<title>Node38&#45;&gt;Node40</title>
<path fill="none" stroke="midnightblue" d="M696.24,-224.08C689.46,-216.3 679.46,-204.8 671.24,-195.37"/>
<polygon fill="midnightblue" stroke="midnightblue" points="673.82,-193 664.62,-187.75 668.54,-197.59 673.82,-193"/>
</g>
<!-- Node39&#45;&gt;Node2 -->
<g id="edge61" class="edge">
<title>Node39&#45;&gt;Node2</title>
<path fill="none" stroke="midnightblue" d="M916.2,-168.44C961.65,-159 1034.84,-143.8 1083.91,-133.61"/>
<polygon fill="midnightblue" stroke="midnightblue" points="1084.92,-136.98 1093.99,-131.52 1083.49,-130.12 1084.92,-136.98"/>
</g>
<!-- Node39&#45;&gt;Node22 -->
<g id="edge62" class="edge">
<title>Node39&#45;&gt;Node22</title>
<path fill="none" stroke="midnightblue" d="M872.33,-168.37C866.82,-150.54 854.07,-109.3 846.65,-85.27"/>
<polygon fill="midnightblue" stroke="midnightblue" points="849.95,-84.11 843.66,-75.59 843.26,-86.18 849.95,-84.11"/>
</g>
<!-- Node41&#45;&gt;Node2 -->
<g id="edge69" class="edge">
<title>Node41&#45;&gt;Node2</title>
<path fill="none" stroke="midnightblue" d="M936.05,-225.6C1038.2,-213.19 1232.77,-189.39 1234,-188 1254.89,-164.33 1215.1,-145.67 1179.9,-134.52"/>
<polygon fill="midnightblue" stroke="midnightblue" points="1180.74,-131.12 1170.15,-131.58 1178.72,-137.82 1180.74,-131.12"/>
</g>
<!-- Node41&#45;&gt;Node5 -->
<g id="edge70" class="edge">
<title>Node41&#45;&gt;Node5</title>
<path fill="none" stroke="midnightblue" d="M936.08,-225.67C1042.35,-212.92 1250,-188 1250,-188 1294.31,-138.05 1183.77,-95.76 1123.3,-77.15"/>
<polygon fill="midnightblue" stroke="midnightblue" points="1124.29,-73.79 1113.7,-74.27 1122.27,-80.5 1124.29,-73.79"/>
</g>
<!-- Node41&#45;&gt;Node7 -->
<g id="edge66" class="edge">
<title>Node41&#45;&gt;Node7</title>
<path fill="none" stroke="midnightblue" d="M919.7,-224.48C940.23,-218.09 962.7,-207.02 975,-188 996.56,-154.65 969.22,-108.05 951.29,-83.56"/>
<polygon fill="midnightblue" stroke="midnightblue" points="954.06,-81.42 945.21,-75.6 948.5,-85.67 954.06,-81.42"/>
</g>
<!-- Node41&#45;&gt;Node9 -->
<g id="edge72" class="edge">
<title>Node41&#45;&gt;Node9</title>
<path fill="none" stroke="midnightblue" d="M936.23,-227.41C1050.07,-216.91 1284.32,-194.66 1301,-188 1364.09,-162.82 1388.01,-141.77 1405,-76 1407.22,-67.39 1409.6,-63.6 1405,-56 1394.54,-38.73 1375.04,-27.77 1357.24,-20.99"/>
<polygon fill="midnightblue" stroke="midnightblue" points="1358.2,-17.62 1347.6,-17.65 1355.9,-24.23 1358.2,-17.62"/>
</g>
<!-- Node41&#45;&gt;Node10 -->
<g id="edge73" class="edge">
<title>Node41&#45;&gt;Node10</title>
<path fill="none" stroke="midnightblue" d="M936.44,-227.97C1057.53,-217.91 1316.92,-195.66 1335,-188 1408.98,-156.67 1459.57,-67.63 1478.6,-29.12"/>
<polygon fill="midnightblue" stroke="midnightblue" points="1481.96,-30.22 1483.13,-19.69 1475.65,-27.19 1481.96,-30.22"/>
</g>
<!-- Node41&#45;&gt;Node14 -->
<g id="edge67" class="edge">
<title>Node41&#45;&gt;Node14</title>
<path fill="none" stroke="midnightblue" d="M845.19,-224.49C826.7,-217.65 804.05,-206.12 791,-188 770.97,-160.19 797.26,-140.34 778,-112 768.29,-97.72 752.4,-87.19 737.83,-79.93"/>
<polygon fill="midnightblue" stroke="midnightblue" points="739.07,-76.65 728.52,-75.62 736.13,-83 739.07,-76.65"/>
</g>
<!-- Node41&#45;&gt;Node19 -->
<g id="edge68" class="edge">
<title>Node41&#45;&gt;Node19</title>
<path fill="none" stroke="midnightblue" d="M815.47,-224.47C754.83,-215.77 657.78,-201.81 563.57,-188.08"/>
<polygon fill="midnightblue" stroke="midnightblue" points="563.98,-184.6 553.58,-186.62 562.97,-191.53 563.98,-184.6"/>
</g>
<!-- Node41&#45;&gt;Node22 -->
<g id="edge74" class="edge">
<title>Node41&#45;&gt;Node22</title>
<path fill="none" stroke="midnightblue" d="M905.27,-224.47C934.55,-214.43 972.76,-195.56 960,-168 941.1,-127.17 896.66,-96.82 867.76,-80.53"/>
<polygon fill="midnightblue" stroke="midnightblue" points="869.43,-77.45 858.97,-75.74 866.08,-83.6 869.43,-77.45"/>
</g>
<!-- Node41&#45;&gt;Node33 -->
<g id="edge71" class="edge">
<title>Node41&#45;&gt;Node33</title>
<path fill="none" stroke="midnightblue" d="M936.39,-225.6C941,-225.05 945.57,-224.52 950,-224 1091.28,-207.53 1139.07,-248.07 1268,-188 1333.54,-157.46 1357.46,-142.44 1386,-76 1423.93,12.3 1473.26,-101.8 1021.76,-19.82"/>
<polygon fill="midnightblue" stroke="midnightblue" points="1022.15,-16.33 1011.68,-17.97 1020.89,-23.22 1022.15,-16.33"/>
</g>
<!-- Node42&#45;&gt;Node27 -->
<g id="edge76" class="edge">
<title>Node42&#45;&gt;Node27</title>
<path fill="none" stroke="midnightblue" d="M501.81,-224.44C475.06,-215.36 432.6,-200.94 402.69,-190.78"/>
<polygon fill="midnightblue" stroke="midnightblue" points="403.67,-187.42 393.08,-187.52 401.42,-194.05 403.67,-187.42"/>
</g>
<!-- Node43&#45;&gt;Node2 -->
<g id="edge78" class="edge">
<title>Node43&#45;&gt;Node2</title>
<path fill="none" stroke="midnightblue" d="M1135,-168.08C1135,-161.01 1135,-150.86 1135,-141.99"/>
<polygon fill="midnightblue" stroke="midnightblue" points="1138.5,-141.75 1135,-131.75 1131.5,-141.75 1138.5,-141.75"/>
</g>
</g>
</svg>
