<?xml version="1.0" encoding="UTF-8" standalone="no"?>
<!DOCTYPE svg PUBLIC "-//W3C//DTD SVG 1.1//EN"
 "http://www.w3.org/Graphics/SVG/1.1/DTD/svg11.dtd">
<!-- Generated by graphviz version 2.43.0 (0)
 -->
<!-- Title: src/backends/neon/workloads/NeonFillWorkload.hpp Pages: 1 -->
<svg width="357pt" height="173pt"
 viewBox="0.00 0.00 356.50 173.00" xmlns="http://www.w3.org/2000/svg" xmlns:xlink="http://www.w3.org/1999/xlink">
<g id="graph0" class="graph" transform="scale(1 1) rotate(0) translate(4 169)">
<title>src/backends/neon/workloads/NeonFillWorkload.hpp</title>
<polygon fill="white" stroke="transparent" points="-4,4 -4,-169 352.5,-169 352.5,4 -4,4"/>
<!-- Node1 -->
<g id="node1" class="node">
<title>Node1</title>
<g id="a_node1"><a xlink:title=" ">
<polygon fill="#bfbfbf" stroke="black" points="89,-134.5 89,-164.5 249,-164.5 249,-134.5 89,-134.5"/>
<text text-anchor="start" x="97" y="-152.5" font-family="Helvetica,sans-Serif" font-size="10.00">src/backends/neon/workloads</text>
<text text-anchor="middle" x="169" y="-141.5" font-family="Helvetica,sans-Serif" font-size="10.00">/NeonFillWorkload.hpp</text>
</a>
</g>
</g>
<!-- Node2 -->
<g id="node2" class="node">
<title>Node2</title>
<g id="a_node2"><a xlink:href="_neon_fill_workload_8cpp.html" target="_top" xlink:title=" ">
<polygon fill="white" stroke="black" points="0,-67.5 0,-97.5 160,-97.5 160,-67.5 0,-67.5"/>
<text text-anchor="start" x="8" y="-85.5" font-family="Helvetica,sans-Serif" font-size="10.00">src/backends/neon/workloads</text>
<text text-anchor="middle" x="80" y="-74.5" font-family="Helvetica,sans-Serif" font-size="10.00">/NeonFillWorkload.cpp</text>
</a>
</g>
</g>
<!-- Node1&#45;&gt;Node2 -->
<g id="edge1" class="edge">
<title>Node1&#45;&gt;Node2</title>
<path fill="none" stroke="midnightblue" d="M141.55,-128.45C127.86,-118.45 111.63,-106.6 99.27,-97.58"/>
<polygon fill="midnightblue" stroke="midnightblue" points="139.55,-131.32 149.69,-134.4 143.68,-125.67 139.55,-131.32"/>
</g>
<!-- Node3 -->
<g id="node3" class="node">
<title>Node3</title>
<g id="a_node3"><a xlink:href="_neon_workloads_8hpp.html" target="_top" xlink:title=" ">
<polygon fill="white" stroke="black" points="178,-67.5 178,-97.5 338,-97.5 338,-67.5 178,-67.5"/>
<text text-anchor="start" x="186" y="-85.5" font-family="Helvetica,sans-Serif" font-size="10.00">src/backends/neon/workloads</text>
<text text-anchor="middle" x="258" y="-74.5" font-family="Helvetica,sans-Serif" font-size="10.00">/NeonWorkloads.hpp</text>
</a>
</g>
</g>
<!-- Node1&#45;&gt;Node3 -->
<g id="edge2" class="edge">
<title>Node1&#45;&gt;Node3</title>
<path fill="none" stroke="midnightblue" d="M196.45,-128.45C210.14,-118.45 226.37,-106.6 238.73,-97.58"/>
<polygon fill="midnightblue" stroke="midnightblue" points="194.32,-125.67 188.31,-134.4 198.45,-131.32 194.32,-125.67"/>
</g>
<!-- Node4 -->
<g id="node4" class="node">
<title>Node4</title>
<g id="a_node4"><a xlink:href="_neon_workload_factory_8cpp.html" target="_top" xlink:title=" ">
<polygon fill="white" stroke="black" points="167.5,-0.5 167.5,-30.5 348.5,-30.5 348.5,-0.5 167.5,-0.5"/>
<text text-anchor="start" x="175.5" y="-18.5" font-family="Helvetica,sans-Serif" font-size="10.00">src/backends/neon/NeonWorkload</text>
<text text-anchor="middle" x="258" y="-7.5" font-family="Helvetica,sans-Serif" font-size="10.00">Factory.cpp</text>
</a>
</g>
</g>
<!-- Node3&#45;&gt;Node4 -->
<g id="edge3" class="edge">
<title>Node3&#45;&gt;Node4</title>
<path fill="none" stroke="midnightblue" d="M258,-57.11C258,-48.15 258,-38.32 258,-30.58"/>
<polygon fill="midnightblue" stroke="midnightblue" points="254.5,-57.4 258,-67.4 261.5,-57.4 254.5,-57.4"/>
</g>
</g>
</svg>
