<?xml version="1.0" encoding="UTF-8" standalone="no"?>
<!DOCTYPE svg PUBLIC "-//W3C//DTD SVG 1.1//EN"
 "http://www.w3.org/Graphics/SVG/1.1/DTD/svg11.dtd">
<!-- Generated by graphviz version 2.43.0 (0)
 -->
<!-- Title: src/armnnUtils/ParserHelper.cpp Pages: 1 -->
<svg width="1108pt" height="308pt"
 viewBox="0.00 0.00 1108.49 308.00" xmlns="http://www.w3.org/2000/svg" xmlns:xlink="http://www.w3.org/1999/xlink">
<g id="graph0" class="graph" transform="scale(1 1) rotate(0) translate(4 304)">
<title>src/armnnUtils/ParserHelper.cpp</title>
<polygon fill="white" stroke="transparent" points="-4,4 -4,-304 1104.49,-304 1104.49,4 -4,4"/>
<!-- Node1 -->
<g id="node1" class="node">
<title>Node1</title>
<g id="a_node1"><a xlink:title=" ">
<polygon fill="#bfbfbf" stroke="black" points="337.99,-280.5 337.99,-299.5 510.99,-299.5 510.99,-280.5 337.99,-280.5"/>
<text text-anchor="middle" x="424.49" y="-287.5" font-family="Helvetica,sans-Serif" font-size="10.00">src/armnnUtils/ParserHelper.cpp</text>
</a>
</g>
</g>
<!-- Node2 -->
<g id="node2" class="node">
<title>Node2</title>
<g id="a_node2"><a xlink:href="_parser_helper_8hpp.html" target="_top" xlink:title=" ">
<polygon fill="white" stroke="black" points="76.99,-224.5 76.99,-243.5 175.99,-243.5 175.99,-224.5 76.99,-224.5"/>
<text text-anchor="middle" x="126.49" y="-231.5" font-family="Helvetica,sans-Serif" font-size="10.00">ParserHelper.hpp</text>
</a>
</g>
</g>
<!-- Node1&#45;&gt;Node2 -->
<g id="edge1" class="edge">
<title>Node1&#45;&gt;Node2</title>
<path fill="none" stroke="midnightblue" d="M377.27,-280.44C324.74,-270.92 239.88,-255.55 183.64,-245.36"/>
<polygon fill="midnightblue" stroke="midnightblue" points="183.95,-241.86 173.49,-243.52 182.7,-248.74 183.95,-241.86"/>
</g>
<!-- Node6 -->
<g id="node6" class="node">
<title>Node6</title>
<g id="a_node6"><a xlink:href="_descriptors_8hpp.html" target="_top" xlink:title=" ">
<polygon fill="white" stroke="black" points="479.49,-224.5 479.49,-243.5 607.49,-243.5 607.49,-224.5 479.49,-224.5"/>
<text text-anchor="middle" x="543.49" y="-231.5" font-family="Helvetica,sans-Serif" font-size="10.00">armnn/Descriptors.hpp</text>
</a>
</g>
</g>
<!-- Node1&#45;&gt;Node6 -->
<g id="edge5" class="edge">
<title>Node1&#45;&gt;Node6</title>
<path fill="none" stroke="midnightblue" d="M443.35,-280.44C462.76,-271.64 493.22,-257.81 515.46,-247.72"/>
<polygon fill="midnightblue" stroke="midnightblue" points="517.06,-250.84 524.72,-243.52 514.17,-244.46 517.06,-250.84"/>
</g>
<!-- Node30 -->
<g id="node30" class="node">
<title>Node30</title>
<g id="a_node30"><a xlink:href="_permute_8hpp.html" target="_top" xlink:title=" ">
<polygon fill="white" stroke="black" points="281.49,-224.5 281.49,-243.5 417.49,-243.5 417.49,-224.5 281.49,-224.5"/>
<text text-anchor="middle" x="349.49" y="-231.5" font-family="Helvetica,sans-Serif" font-size="10.00">armnnUtils/Permute.hpp</text>
</a>
</g>
</g>
<!-- Node1&#45;&gt;Node30 -->
<g id="edge42" class="edge">
<title>Node1&#45;&gt;Node30</title>
<path fill="none" stroke="midnightblue" d="M412.44,-280.32C401.03,-272.11 383.66,-259.6 370.06,-249.81"/>
<polygon fill="midnightblue" stroke="midnightblue" points="371.92,-246.84 361.76,-243.83 367.83,-252.52 371.92,-246.84"/>
</g>
<!-- Node32 -->
<g id="node32" class="node">
<title>Node32</title>
<g id="a_node32"><a xlink:title=" ">
<polygon fill="white" stroke="#bfbfbf" points="625.99,-224.5 625.99,-243.5 704.99,-243.5 704.99,-224.5 625.99,-224.5"/>
<text text-anchor="middle" x="665.49" y="-231.5" font-family="Helvetica,sans-Serif" font-size="10.00">fmt/format.h</text>
</a>
</g>
</g>
<!-- Node1&#45;&gt;Node32 -->
<g id="edge46" class="edge">
<title>Node1&#45;&gt;Node32</title>
<path fill="none" stroke="midnightblue" d="M462.68,-280.44C504.63,-271.04 572.08,-255.93 617.56,-245.74"/>
<polygon fill="midnightblue" stroke="midnightblue" points="618.49,-249.12 627.48,-243.52 616.96,-242.29 618.49,-249.12"/>
</g>
<!-- Node3 -->
<g id="node3" class="node">
<title>Node3</title>
<g id="a_node3"><a xlink:href="_descriptors_fwd_8hpp.html" target="_top" xlink:title=" ">
<polygon fill="white" stroke="black" points="236.49,-168.5 236.49,-187.5 384.49,-187.5 384.49,-168.5 236.49,-168.5"/>
<text text-anchor="middle" x="310.49" y="-175.5" font-family="Helvetica,sans-Serif" font-size="10.00">armnn/DescriptorsFwd.hpp</text>
</a>
</g>
</g>
<!-- Node2&#45;&gt;Node3 -->
<g id="edge2" class="edge">
<title>Node2&#45;&gt;Node3</title>
<path fill="none" stroke="midnightblue" d="M155.65,-224.44C187,-215.24 237.02,-200.56 271.69,-190.39"/>
<polygon fill="midnightblue" stroke="midnightblue" points="272.86,-193.69 281.47,-187.52 270.89,-186.97 272.86,-193.69"/>
</g>
<!-- Node4 -->
<g id="node4" class="node">
<title>Node4</title>
<g id="a_node4"><a xlink:href="_tensor_fwd_8hpp.html" target="_top" xlink:title=" ">
<polygon fill="white" stroke="black" points="20.49,-168.5 20.49,-187.5 144.49,-187.5 144.49,-168.5 20.49,-168.5"/>
<text text-anchor="middle" x="82.49" y="-175.5" font-family="Helvetica,sans-Serif" font-size="10.00">armnn/TensorFwd.hpp</text>
</a>
</g>
</g>
<!-- Node2&#45;&gt;Node4 -->
<g id="edge3" class="edge">
<title>Node2&#45;&gt;Node4</title>
<path fill="none" stroke="midnightblue" d="M119.23,-224.08C112.95,-216.38 103.7,-205.03 96.06,-195.65"/>
<polygon fill="midnightblue" stroke="midnightblue" points="98.65,-193.29 89.62,-187.75 93.22,-197.71 98.65,-193.29"/>
</g>
<!-- Node5 -->
<g id="node5" class="node">
<title>Node5</title>
<g id="a_node5"><a xlink:title=" ">
<polygon fill="white" stroke="#bfbfbf" points="71.49,-0.5 71.49,-19.5 103.49,-19.5 103.49,-0.5 71.49,-0.5"/>
<text text-anchor="middle" x="87.49" y="-7.5" font-family="Helvetica,sans-Serif" font-size="10.00">set</text>
</a>
</g>
</g>
<!-- Node2&#45;&gt;Node5 -->
<g id="edge4" class="edge">
<title>Node2&#45;&gt;Node5</title>
<path fill="none" stroke="midnightblue" d="M76.78,-226.6C52.83,-220.74 26.18,-209.52 11.49,-188 -25.35,-134.02 38.35,-59.3 70.56,-26.97"/>
<polygon fill="midnightblue" stroke="midnightblue" points="73.29,-29.19 77.99,-19.7 68.39,-24.19 73.29,-29.19"/>
</g>
<!-- Node6&#45;&gt;Node3 -->
<g id="edge7" class="edge">
<title>Node6&#45;&gt;Node3</title>
<path fill="none" stroke="midnightblue" d="M506.57,-224.44C466.1,-215.06 401.07,-199.99 357.11,-189.8"/>
<polygon fill="midnightblue" stroke="midnightblue" points="357.77,-186.36 347.24,-187.52 356.19,-193.18 357.77,-186.36"/>
</g>
<!-- Node7 -->
<g id="node7" class="node">
<title>Node7</title>
<g id="a_node7"><a xlink:href="_deprecated_8hpp.html" target="_top" xlink:title=" ">
<polygon fill="white" stroke="black" points="222.49,-56.5 222.49,-75.5 316.49,-75.5 316.49,-56.5 222.49,-56.5"/>
<text text-anchor="middle" x="269.49" y="-63.5" font-family="Helvetica,sans-Serif" font-size="10.00">Deprecated.hpp</text>
</a>
</g>
</g>
<!-- Node6&#45;&gt;Node7 -->
<g id="edge6" class="edge">
<title>Node6&#45;&gt;Node7</title>
<path fill="none" stroke="midnightblue" d="M518.51,-224.35C496.33,-216.24 463.36,-203.12 436.49,-188 378.56,-155.4 316.81,-106.44 287.26,-82"/>
<polygon fill="midnightblue" stroke="midnightblue" points="289.41,-79.23 279.48,-75.52 284.92,-84.61 289.41,-79.23"/>
</g>
<!-- Node8 -->
<g id="node8" class="node">
<title>Node8</title>
<g id="a_node8"><a xlink:href="_tensor_8hpp.html" target="_top" xlink:title=" ">
<polygon fill="white" stroke="black" points="683.49,-168.5 683.49,-187.5 751.49,-187.5 751.49,-168.5 683.49,-168.5"/>
<text text-anchor="middle" x="717.49" y="-175.5" font-family="Helvetica,sans-Serif" font-size="10.00">Tensor.hpp</text>
</a>
</g>
</g>
<!-- Node6&#45;&gt;Node8 -->
<g id="edge8" class="edge">
<title>Node6&#45;&gt;Node8</title>
<path fill="none" stroke="midnightblue" d="M571.06,-224.44C600.59,-215.28 647.61,-200.69 680.37,-190.52"/>
<polygon fill="midnightblue" stroke="midnightblue" points="681.54,-193.82 690.05,-187.52 679.46,-187.14 681.54,-193.82"/>
</g>
<!-- Node9 -->
<g id="node9" class="node">
<title>Node9</title>
<g id="a_node9"><a xlink:href="_exceptions_8hpp.html" target="_top" xlink:title=" ">
<polygon fill="white" stroke="black" points="849.99,-56.5 849.99,-75.5 940.99,-75.5 940.99,-56.5 849.99,-56.5"/>
<text text-anchor="middle" x="895.49" y="-63.5" font-family="Helvetica,sans-Serif" font-size="10.00">Exceptions.hpp</text>
</a>
</g>
</g>
<!-- Node6&#45;&gt;Node9 -->
<g id="edge37" class="edge">
<title>Node6&#45;&gt;Node9</title>
<path fill="none" stroke="midnightblue" d="M607.6,-224.53C700.32,-210.74 864.3,-180.06 896.49,-132 905.51,-118.53 904.1,-99.72 901.11,-85.8"/>
<polygon fill="midnightblue" stroke="midnightblue" points="904.44,-84.69 898.56,-75.88 897.66,-86.43 904.44,-84.69"/>
</g>
<!-- Node16 -->
<g id="node16" class="node">
<title>Node16</title>
<g id="a_node16"><a xlink:href="_types_8hpp.html" target="_top" xlink:title=" ">
<polygon fill="white" stroke="black" points="522.99,-112.5 522.99,-131.5 587.99,-131.5 587.99,-112.5 522.99,-112.5"/>
<text text-anchor="middle" x="555.49" y="-119.5" font-family="Helvetica,sans-Serif" font-size="10.00">Types.hpp</text>
</a>
</g>
</g>
<!-- Node6&#45;&gt;Node16 -->
<g id="edge36" class="edge">
<title>Node6&#45;&gt;Node16</title>
<path fill="none" stroke="midnightblue" d="M553.65,-224.19C562.4,-215.87 574.39,-202.54 579.49,-188 585.19,-171.74 577,-153.33 568.68,-140.26"/>
<polygon fill="midnightblue" stroke="midnightblue" points="571.38,-138.01 562.79,-131.8 565.63,-142.01 571.38,-138.01"/>
</g>
<!-- Node25 -->
<g id="node25" class="node">
<title>Node25</title>
<g id="a_node25"><a xlink:title=" ">
<polygon fill="white" stroke="#bfbfbf" points="471.99,-0.5 471.99,-19.5 518.99,-19.5 518.99,-0.5 471.99,-0.5"/>
<text text-anchor="middle" x="495.49" y="-7.5" font-family="Helvetica,sans-Serif" font-size="10.00">vector</text>
</a>
</g>
</g>
<!-- Node6&#45;&gt;Node25 -->
<g id="edge41" class="edge">
<title>Node6&#45;&gt;Node25</title>
<path fill="none" stroke="midnightblue" d="M535.29,-224.32C527.5,-215.68 515.91,-201.77 508.49,-188 483.56,-141.72 479.05,-127.86 470.49,-76 469.04,-67.23 468.26,-64.6 470.49,-56 473.04,-46.18 478.24,-36.21 483.25,-28.17"/>
<polygon fill="midnightblue" stroke="midnightblue" points="486.24,-29.99 488.86,-19.73 480.41,-26.11 486.24,-29.99"/>
</g>
<!-- Node27 -->
<g id="node27" class="node">
<title>Node27</title>
<g id="a_node27"><a xlink:title=" ">
<polygon fill="white" stroke="#bfbfbf" points="605.99,-112.5 605.99,-131.5 650.99,-131.5 650.99,-112.5 605.99,-112.5"/>
<text text-anchor="middle" x="628.49" y="-119.5" font-family="Helvetica,sans-Serif" font-size="10.00">utility</text>
</a>
</g>
</g>
<!-- Node6&#45;&gt;Node27 -->
<g id="edge40" class="edge">
<title>Node6&#45;&gt;Node27</title>
<path fill="none" stroke="midnightblue" d="M555.27,-224.32C566.13,-215.9 582.24,-202.33 593.49,-188 604.97,-173.38 614.68,-154.47 620.94,-140.81"/>
<polygon fill="midnightblue" stroke="midnightblue" points="624.19,-142.12 625.02,-131.56 617.78,-139.29 624.19,-142.12"/>
</g>
<!-- Node28 -->
<g id="node28" class="node">
<title>Node28</title>
<g id="a_node28"><a xlink:title=" ">
<polygon fill="white" stroke="#bfbfbf" points="961.49,-168.5 961.49,-187.5 1011.49,-187.5 1011.49,-168.5 961.49,-168.5"/>
<text text-anchor="middle" x="986.49" y="-175.5" font-family="Helvetica,sans-Serif" font-size="10.00">cstdint</text>
</a>
</g>
</g>
<!-- Node6&#45;&gt;Node28 -->
<g id="edge38" class="edge">
<title>Node6&#45;&gt;Node28</title>
<path fill="none" stroke="midnightblue" d="M607.66,-225.15C610.98,-224.75 614.28,-224.37 617.49,-224 764.06,-207.09 802.02,-212.63 947.49,-188 948.76,-187.78 950.06,-187.55 951.36,-187.31"/>
<polygon fill="midnightblue" stroke="midnightblue" points="952.31,-190.69 961.4,-185.25 950.9,-183.83 952.31,-190.69"/>
</g>
<!-- Node29 -->
<g id="node29" class="node">
<title>Node29</title>
<g id="a_node29"><a xlink:title=" ">
<polygon fill="white" stroke="#bfbfbf" points="516.99,-168.5 516.99,-187.5 569.99,-187.5 569.99,-168.5 516.99,-168.5"/>
<text text-anchor="middle" x="543.49" y="-175.5" font-family="Helvetica,sans-Serif" font-size="10.00">iterator</text>
</a>
</g>
</g>
<!-- Node6&#45;&gt;Node29 -->
<g id="edge39" class="edge">
<title>Node6&#45;&gt;Node29</title>
<path fill="none" stroke="midnightblue" d="M543.49,-224.08C543.49,-217.01 543.49,-206.86 543.49,-197.99"/>
<polygon fill="midnightblue" stroke="midnightblue" points="546.99,-197.75 543.49,-187.75 539.99,-197.75 546.99,-197.75"/>
</g>
<!-- Node8&#45;&gt;Node9 -->
<g id="edge9" class="edge">
<title>Node8&#45;&gt;Node9</title>
<path fill="none" stroke="midnightblue" d="M751.72,-176.56C787.56,-174.22 843.18,-165.02 876.49,-132 888.61,-119.98 893.1,-100.69 894.71,-86.24"/>
<polygon fill="midnightblue" stroke="midnightblue" points="898.22,-86.15 895.47,-75.92 891.24,-85.63 898.22,-86.15"/>
</g>
<!-- Node13 -->
<g id="node13" class="node">
<title>Node13</title>
<g id="a_node13"><a xlink:href="_optional_8hpp.html" target="_top" xlink:title=" ">
<polygon fill="white" stroke="black" points="961.99,-112.5 961.99,-131.5 1040.99,-131.5 1040.99,-112.5 961.99,-112.5"/>
<text text-anchor="middle" x="1001.49" y="-119.5" font-family="Helvetica,sans-Serif" font-size="10.00">Optional.hpp</text>
</a>
</g>
</g>
<!-- Node8&#45;&gt;Node13 -->
<g id="edge13" class="edge">
<title>Node8&#45;&gt;Node13</title>
<path fill="none" stroke="midnightblue" d="M751.75,-170.49C801.57,-161.01 894.33,-143.38 951.7,-132.47"/>
<polygon fill="midnightblue" stroke="midnightblue" points="952.46,-135.88 961.63,-130.58 951.16,-129.01 952.46,-135.88"/>
</g>
<!-- Node8&#45;&gt;Node16 -->
<g id="edge17" class="edge">
<title>Node8&#45;&gt;Node16</title>
<path fill="none" stroke="midnightblue" d="M691.82,-168.44C664.57,-159.36 621.31,-144.94 590.84,-134.78"/>
<polygon fill="midnightblue" stroke="midnightblue" points="591.63,-131.36 581.04,-131.52 589.42,-138 591.63,-131.36"/>
</g>
<!-- Node17 -->
<g id="node17" class="node">
<title>Node17</title>
<g id="a_node17"><a xlink:title=" ">
<polygon fill="white" stroke="#bfbfbf" points="630.49,-56.5 630.49,-75.5 672.49,-75.5 672.49,-56.5 630.49,-56.5"/>
<text text-anchor="middle" x="651.49" y="-63.5" font-family="Helvetica,sans-Serif" font-size="10.00">array</text>
</a>
</g>
</g>
<!-- Node8&#45;&gt;Node17 -->
<g id="edge32" class="edge">
<title>Node8&#45;&gt;Node17</title>
<path fill="none" stroke="midnightblue" d="M712.31,-168.37C701.47,-150.3 676.2,-108.18 661.88,-84.31"/>
<polygon fill="midnightblue" stroke="midnightblue" points="664.79,-82.37 656.65,-75.59 658.79,-85.97 664.79,-82.37"/>
</g>
<!-- Node19 -->
<g id="node19" class="node">
<title>Node19</title>
<g id="a_node19"><a xlink:title=" ">
<polygon fill="white" stroke="#bfbfbf" points="690.99,-56.5 690.99,-75.5 743.99,-75.5 743.99,-56.5 690.99,-56.5"/>
<text text-anchor="middle" x="717.49" y="-63.5" font-family="Helvetica,sans-Serif" font-size="10.00">stdint.h</text>
</a>
</g>
</g>
<!-- Node8&#45;&gt;Node19 -->
<g id="edge31" class="edge">
<title>Node8&#45;&gt;Node19</title>
<path fill="none" stroke="midnightblue" d="M717.49,-168.37C717.49,-150.62 717.49,-109.67 717.49,-85.6"/>
<polygon fill="midnightblue" stroke="midnightblue" points="720.99,-85.59 717.49,-75.59 713.99,-85.59 720.99,-85.59"/>
</g>
<!-- Node8&#45;&gt;Node25 -->
<g id="edge34" class="edge">
<title>Node8&#45;&gt;Node25</title>
<path fill="none" stroke="midnightblue" d="M724.9,-168.29C742.32,-146.74 782.26,-90.22 753.49,-56 725.28,-22.44 593.17,-13.91 529.7,-11.74"/>
<polygon fill="midnightblue" stroke="midnightblue" points="529.51,-8.23 519.41,-11.42 529.3,-15.23 529.51,-8.23"/>
</g>
<!-- Node26 -->
<g id="node26" class="node">
<title>Node26</title>
<g id="a_node26"><a xlink:title=" ">
<polygon fill="white" stroke="#bfbfbf" points="783.99,-112.5 783.99,-131.5 866.99,-131.5 866.99,-112.5 783.99,-112.5"/>
<text text-anchor="middle" x="825.49" y="-119.5" font-family="Helvetica,sans-Serif" font-size="10.00">initializer_list</text>
</a>
</g>
</g>
<!-- Node8&#45;&gt;Node26 -->
<g id="edge33" class="edge">
<title>Node8&#45;&gt;Node26</title>
<path fill="none" stroke="midnightblue" d="M734.84,-168.32C752.16,-159.66 779.01,-146.24 798.99,-136.25"/>
<polygon fill="midnightblue" stroke="midnightblue" points="800.8,-139.26 808.18,-131.65 797.67,-133 800.8,-139.26"/>
</g>
<!-- Node8&#45;&gt;Node27 -->
<g id="edge35" class="edge">
<title>Node8&#45;&gt;Node27</title>
<path fill="none" stroke="midnightblue" d="M703.19,-168.32C689.31,-159.9 668,-146.97 651.69,-137.07"/>
<polygon fill="midnightblue" stroke="midnightblue" points="653.12,-133.85 642.75,-131.65 649.49,-139.83 653.12,-133.85"/>
</g>
<!-- Node10 -->
<g id="node10" class="node">
<title>Node10</title>
<g id="a_node10"><a xlink:title=" ">
<polygon fill="white" stroke="#bfbfbf" points="906.49,-0.5 906.49,-19.5 962.49,-19.5 962.49,-0.5 906.49,-0.5"/>
<text text-anchor="middle" x="934.49" y="-7.5" font-family="Helvetica,sans-Serif" font-size="10.00">sstream</text>
</a>
</g>
</g>
<!-- Node9&#45;&gt;Node10 -->
<g id="edge10" class="edge">
<title>Node9&#45;&gt;Node10</title>
<path fill="none" stroke="midnightblue" d="M901.93,-56.08C907.44,-48.46 915.52,-37.26 922.26,-27.94"/>
<polygon fill="midnightblue" stroke="midnightblue" points="925.15,-29.91 928.17,-19.75 919.48,-25.81 925.15,-29.91"/>
</g>
<!-- Node11 -->
<g id="node11" class="node">
<title>Node11</title>
<g id="a_node11"><a xlink:title=" ">
<polygon fill="white" stroke="#bfbfbf" points="822.99,-0.5 822.99,-19.5 887.99,-19.5 887.99,-0.5 822.99,-0.5"/>
<text text-anchor="middle" x="855.49" y="-7.5" font-family="Helvetica,sans-Serif" font-size="10.00">stdexcept</text>
</a>
</g>
</g>
<!-- Node9&#45;&gt;Node11 -->
<g id="edge11" class="edge">
<title>Node9&#45;&gt;Node11</title>
<path fill="none" stroke="midnightblue" d="M888.89,-56.08C883.24,-48.46 874.95,-37.26 868.04,-27.94"/>
<polygon fill="midnightblue" stroke="midnightblue" points="870.74,-25.7 861.97,-19.75 865.11,-29.87 870.74,-25.7"/>
</g>
<!-- Node12 -->
<g id="node12" class="node">
<title>Node12</title>
<g id="a_node12"><a xlink:title=" ">
<polygon fill="white" stroke="#bfbfbf" points="668.49,-0.5 668.49,-19.5 712.49,-19.5 712.49,-0.5 668.49,-0.5"/>
<text text-anchor="middle" x="690.49" y="-7.5" font-family="Helvetica,sans-Serif" font-size="10.00">string</text>
</a>
</g>
</g>
<!-- Node9&#45;&gt;Node12 -->
<g id="edge12" class="edge">
<title>Node9&#45;&gt;Node12</title>
<path fill="none" stroke="midnightblue" d="M863.01,-56.44C824.62,-46.33 761.13,-29.61 722.81,-19.51"/>
<polygon fill="midnightblue" stroke="midnightblue" points="723.27,-16.02 712.71,-16.85 721.49,-22.79 723.27,-16.02"/>
</g>
<!-- Node13&#45;&gt;Node9 -->
<g id="edge14" class="edge">
<title>Node13&#45;&gt;Node9</title>
<path fill="none" stroke="midnightblue" d="M984.46,-112.32C967.46,-103.66 941.11,-90.24 921.5,-80.25"/>
<polygon fill="midnightblue" stroke="midnightblue" points="922.98,-77.08 912.48,-75.65 919.8,-83.31 922.98,-77.08"/>
</g>
<!-- Node14 -->
<g id="node14" class="node">
<title>Node14</title>
<g id="a_node14"><a xlink:title=" ">
<polygon fill="white" stroke="#bfbfbf" points="1050.49,-56.5 1050.49,-75.5 1100.49,-75.5 1100.49,-56.5 1050.49,-56.5"/>
<text text-anchor="middle" x="1075.49" y="-63.5" font-family="Helvetica,sans-Serif" font-size="10.00">cstring</text>
</a>
</g>
</g>
<!-- Node13&#45;&gt;Node14 -->
<g id="edge15" class="edge">
<title>Node13&#45;&gt;Node14</title>
<path fill="none" stroke="midnightblue" d="M1013.38,-112.32C1024.64,-104.11 1041.78,-91.6 1055.2,-81.81"/>
<polygon fill="midnightblue" stroke="midnightblue" points="1057.37,-84.56 1063.39,-75.83 1053.24,-78.9 1057.37,-84.56"/>
</g>
<!-- Node15 -->
<g id="node15" class="node">
<title>Node15</title>
<g id="a_node15"><a xlink:title=" ">
<polygon fill="white" stroke="#bfbfbf" points="962.99,-56.5 962.99,-75.5 1031.99,-75.5 1031.99,-56.5 962.99,-56.5"/>
<text text-anchor="middle" x="997.49" y="-63.5" font-family="Helvetica,sans-Serif" font-size="10.00">type_traits</text>
</a>
</g>
</g>
<!-- Node13&#45;&gt;Node15 -->
<g id="edge16" class="edge">
<title>Node13&#45;&gt;Node15</title>
<path fill="none" stroke="midnightblue" d="M1000.83,-112.08C1000.31,-105.01 999.55,-94.86 998.9,-85.99"/>
<polygon fill="midnightblue" stroke="midnightblue" points="1002.37,-85.47 998.14,-75.75 995.39,-85.98 1002.37,-85.47"/>
</g>
<!-- Node16&#45;&gt;Node7 -->
<g id="edge30" class="edge">
<title>Node16&#45;&gt;Node7</title>
<path fill="none" stroke="midnightblue" d="M522.96,-114.86C474.66,-105.74 383.36,-88.5 324.54,-77.39"/>
<polygon fill="midnightblue" stroke="midnightblue" points="325.14,-73.95 314.67,-75.53 323.84,-80.82 325.14,-73.95"/>
</g>
<!-- Node16&#45;&gt;Node9 -->
<g id="edge29" class="edge">
<title>Node16&#45;&gt;Node9</title>
<path fill="none" stroke="midnightblue" d="M588.01,-113.83C591.21,-113.18 594.41,-112.56 597.49,-112 681.67,-96.64 779.91,-82.54 839.89,-74.36"/>
<polygon fill="midnightblue" stroke="midnightblue" points="840.47,-77.81 849.91,-73 839.53,-70.88 840.47,-77.81"/>
</g>
<!-- Node16&#45;&gt;Node17 -->
<g id="edge18" class="edge">
<title>Node16&#45;&gt;Node17</title>
<path fill="none" stroke="midnightblue" d="M570.91,-112.32C586.03,-103.82 609.31,-90.73 626.96,-80.8"/>
<polygon fill="midnightblue" stroke="midnightblue" points="629.11,-83.61 636.11,-75.65 625.67,-77.51 629.11,-83.61"/>
</g>
<!-- Node18 -->
<g id="node18" class="node">
<title>Node18</title>
<g id="a_node18"><a xlink:title=" ">
<polygon fill="white" stroke="#bfbfbf" points="478.99,-56.5 478.99,-75.5 543.99,-75.5 543.99,-56.5 478.99,-56.5"/>
<text text-anchor="middle" x="511.49" y="-63.5" font-family="Helvetica,sans-Serif" font-size="10.00">functional</text>
</a>
</g>
</g>
<!-- Node16&#45;&gt;Node18 -->
<g id="edge19" class="edge">
<title>Node16&#45;&gt;Node18</title>
<path fill="none" stroke="midnightblue" d="M548.23,-112.08C541.95,-104.38 532.7,-93.03 525.06,-83.65"/>
<polygon fill="midnightblue" stroke="midnightblue" points="527.65,-81.29 518.62,-75.75 522.22,-85.71 527.65,-81.29"/>
</g>
<!-- Node16&#45;&gt;Node19 -->
<g id="edge20" class="edge">
<title>Node16&#45;&gt;Node19</title>
<path fill="none" stroke="midnightblue" d="M581.16,-112.44C608.41,-103.36 651.67,-88.94 682.14,-78.78"/>
<polygon fill="midnightblue" stroke="midnightblue" points="683.56,-82 691.94,-75.52 681.35,-75.36 683.56,-82"/>
</g>
<!-- Node20 -->
<g id="node20" class="node">
<title>Node20</title>
<g id="a_node20"><a xlink:title=" ">
<polygon fill="white" stroke="#bfbfbf" points="562.49,-56.5 562.49,-75.5 612.49,-75.5 612.49,-56.5 562.49,-56.5"/>
<text text-anchor="middle" x="587.49" y="-63.5" font-family="Helvetica,sans-Serif" font-size="10.00">chrono</text>
</a>
</g>
</g>
<!-- Node16&#45;&gt;Node20 -->
<g id="edge21" class="edge">
<title>Node16&#45;&gt;Node20</title>
<path fill="none" stroke="midnightblue" d="M560.78,-112.08C565.2,-104.61 571.65,-93.72 577.11,-84.52"/>
<polygon fill="midnightblue" stroke="midnightblue" points="580.22,-86.14 582.31,-75.75 574.2,-82.57 580.22,-86.14"/>
</g>
<!-- Node21 -->
<g id="node21" class="node">
<title>Node21</title>
<g id="a_node21"><a xlink:href="_backend_id_8hpp.html" target="_top" xlink:title=" ">
<polygon fill="white" stroke="black" points="334.49,-56.5 334.49,-75.5 422.49,-75.5 422.49,-56.5 334.49,-56.5"/>
<text text-anchor="middle" x="378.49" y="-63.5" font-family="Helvetica,sans-Serif" font-size="10.00">BackendId.hpp</text>
</a>
</g>
</g>
<!-- Node16&#45;&gt;Node21 -->
<g id="edge22" class="edge">
<title>Node16&#45;&gt;Node21</title>
<path fill="none" stroke="midnightblue" d="M527.44,-112.44C497.41,-103.28 449.58,-88.69 416.25,-78.52"/>
<polygon fill="midnightblue" stroke="midnightblue" points="416.99,-75.09 406.41,-75.52 414.95,-81.78 416.99,-75.09"/>
</g>
<!-- Node21&#45;&gt;Node5 -->
<g id="edge25" class="edge">
<title>Node21&#45;&gt;Node5</title>
<path fill="none" stroke="midnightblue" d="M334.29,-56.8C272.82,-45.39 163.45,-25.1 113.58,-15.84"/>
<polygon fill="midnightblue" stroke="midnightblue" points="114.08,-12.37 103.6,-13.99 112.8,-19.26 114.08,-12.37"/>
</g>
<!-- Node21&#45;&gt;Node12 -->
<g id="edge26" class="edge">
<title>Node21&#45;&gt;Node12</title>
<path fill="none" stroke="midnightblue" d="M422.53,-57.38C486.13,-46.37 602.19,-26.28 658.35,-16.56"/>
<polygon fill="midnightblue" stroke="midnightblue" points="659.18,-19.97 668.43,-14.82 657.98,-13.07 659.18,-19.97"/>
</g>
<!-- Node22 -->
<g id="node22" class="node">
<title>Node22</title>
<g id="a_node22"><a xlink:title=" ">
<polygon fill="white" stroke="#bfbfbf" points="395.49,-0.5 395.49,-19.5 453.49,-19.5 453.49,-0.5 395.49,-0.5"/>
<text text-anchor="middle" x="424.49" y="-7.5" font-family="Helvetica,sans-Serif" font-size="10.00">memory</text>
</a>
</g>
</g>
<!-- Node21&#45;&gt;Node22 -->
<g id="edge23" class="edge">
<title>Node21&#45;&gt;Node22</title>
<path fill="none" stroke="midnightblue" d="M386.09,-56.08C392.72,-48.3 402.51,-36.8 410.55,-27.37"/>
<polygon fill="midnightblue" stroke="midnightblue" points="413.22,-29.63 417.04,-19.75 407.89,-25.09 413.22,-29.63"/>
</g>
<!-- Node23 -->
<g id="node23" class="node">
<title>Node23</title>
<g id="a_node23"><a xlink:title=" ">
<polygon fill="white" stroke="#bfbfbf" points="215.99,-0.5 215.99,-19.5 272.99,-19.5 272.99,-0.5 215.99,-0.5"/>
<text text-anchor="middle" x="244.49" y="-7.5" font-family="Helvetica,sans-Serif" font-size="10.00">ostream</text>
</a>
</g>
</g>
<!-- Node21&#45;&gt;Node23 -->
<g id="edge24" class="edge">
<title>Node21&#45;&gt;Node23</title>
<path fill="none" stroke="midnightblue" d="M357.26,-56.44C335.11,-47.52 300.17,-33.44 275.05,-23.32"/>
<polygon fill="midnightblue" stroke="midnightblue" points="276.21,-20.01 265.62,-19.52 273.59,-26.5 276.21,-20.01"/>
</g>
<!-- Node24 -->
<g id="node24" class="node">
<title>Node24</title>
<g id="a_node24"><a xlink:title=" ">
<polygon fill="white" stroke="#bfbfbf" points="291.49,-0.5 291.49,-19.5 377.49,-19.5 377.49,-0.5 291.49,-0.5"/>
<text text-anchor="middle" x="334.49" y="-7.5" font-family="Helvetica,sans-Serif" font-size="10.00">unordered_set</text>
</a>
</g>
</g>
<!-- Node21&#45;&gt;Node24 -->
<g id="edge27" class="edge">
<title>Node21&#45;&gt;Node24</title>
<path fill="none" stroke="midnightblue" d="M371.23,-56.08C364.95,-48.38 355.7,-37.03 348.06,-27.65"/>
<polygon fill="midnightblue" stroke="midnightblue" points="350.65,-25.29 341.62,-19.75 345.22,-29.71 350.65,-25.29"/>
</g>
<!-- Node21&#45;&gt;Node25 -->
<g id="edge28" class="edge">
<title>Node21&#45;&gt;Node25</title>
<path fill="none" stroke="midnightblue" d="M397.03,-56.44C416.11,-47.64 446.07,-33.81 467.93,-23.72"/>
<polygon fill="midnightblue" stroke="midnightblue" points="469.43,-26.88 477.04,-19.52 466.49,-20.53 469.43,-26.88"/>
</g>
<!-- Node30&#45;&gt;Node4 -->
<g id="edge43" class="edge">
<title>Node30&#45;&gt;Node4</title>
<path fill="none" stroke="midnightblue" d="M307.18,-224.44C260.41,-214.98 185.03,-199.74 134.64,-189.55"/>
<polygon fill="midnightblue" stroke="midnightblue" points="135.1,-186.07 124.6,-187.52 133.71,-192.93 135.1,-186.07"/>
</g>
<!-- Node30&#45;&gt;Node16 -->
<g id="edge44" class="edge">
<title>Node30&#45;&gt;Node16</title>
<path fill="none" stroke="midnightblue" d="M365.66,-224.37C401.46,-205.25 487.64,-159.23 530.47,-136.36"/>
<polygon fill="midnightblue" stroke="midnightblue" points="532.23,-139.39 539.4,-131.59 528.93,-133.21 532.23,-139.39"/>
</g>
<!-- Node31 -->
<g id="node31" class="node">
<title>Node31</title>
<g id="a_node31"><a xlink:title=" ">
<polygon fill="white" stroke="#bfbfbf" points="162.49,-168.5 162.49,-187.5 218.49,-187.5 218.49,-168.5 162.49,-168.5"/>
<text text-anchor="middle" x="190.49" y="-175.5" font-family="Helvetica,sans-Serif" font-size="10.00">stddef.h</text>
</a>
</g>
</g>
<!-- Node30&#45;&gt;Node31 -->
<g id="edge45" class="edge">
<title>Node30&#45;&gt;Node31</title>
<path fill="none" stroke="midnightblue" d="M324.3,-224.44C297.55,-215.36 255.09,-200.94 225.19,-190.78"/>
<polygon fill="midnightblue" stroke="midnightblue" points="226.16,-187.42 215.57,-187.52 223.91,-194.05 226.16,-187.42"/>
</g>
</g>
</svg>
