<?xml version="1.0" encoding="UTF-8" standalone="no"?>
<!DOCTYPE svg PUBLIC "-//W3C//DTD SVG 1.1//EN"
 "http://www.w3.org/Graphics/SVG/1.1/DTD/svg11.dtd">
<!-- Generated by graphviz version 2.43.0 (0)
 -->
<!-- Title: src/backends/reference/workloads/Pooling3d.hpp Pages: 1 -->
<svg width="1490pt" height="442pt"
 viewBox="0.00 0.00 1489.91 442.00" xmlns="http://www.w3.org/2000/svg" xmlns:xlink="http://www.w3.org/1999/xlink">
<g id="graph0" class="graph" transform="scale(1 1) rotate(0) translate(4 438)">
<title>src/backends/reference/workloads/Pooling3d.hpp</title>
<polygon fill="white" stroke="transparent" points="-4,4 -4,-438 1485.91,-438 1485.91,4 -4,4"/>
<!-- Node1 -->
<g id="node1" class="node">
<title>Node1</title>
<g id="a_node1"><a xlink:title=" ">
<polygon fill="#bfbfbf" stroke="black" points="457,-403.5 457,-433.5 599,-433.5 599,-403.5 457,-403.5"/>
<text text-anchor="start" x="465" y="-421.5" font-family="Helvetica,sans-Serif" font-size="10.00">src/backends/reference</text>
<text text-anchor="middle" x="528" y="-410.5" font-family="Helvetica,sans-Serif" font-size="10.00">/workloads/Pooling3d.hpp</text>
</a>
</g>
</g>
<!-- Node2 -->
<g id="node2" class="node">
<title>Node2</title>
<g id="a_node2"><a xlink:href="_descriptors_8hpp.html" target="_top" xlink:title=" ">
<polygon fill="white" stroke="black" points="239,-224.5 239,-243.5 367,-243.5 367,-224.5 239,-224.5"/>
<text text-anchor="middle" x="303" y="-231.5" font-family="Helvetica,sans-Serif" font-size="10.00">armnn/Descriptors.hpp</text>
</a>
</g>
</g>
<!-- Node1&#45;&gt;Node2 -->
<g id="edge1" class="edge">
<title>Node1&#45;&gt;Node2</title>
<path fill="none" stroke="midnightblue" d="M510.72,-403.48C469.23,-369.83 364.26,-284.69 321.53,-250.03"/>
<polygon fill="midnightblue" stroke="midnightblue" points="323.59,-247.2 313.62,-243.62 319.18,-252.63 323.59,-247.2"/>
</g>
<!-- Node5 -->
<g id="node5" class="node">
<title>Node5</title>
<g id="a_node5"><a xlink:href="_tensor_8hpp.html" target="_top" xlink:title=" ">
<polygon fill="white" stroke="black" points="594,-168.5 594,-187.5 662,-187.5 662,-168.5 594,-168.5"/>
<text text-anchor="middle" x="628" y="-175.5" font-family="Helvetica,sans-Serif" font-size="10.00">Tensor.hpp</text>
</a>
</g>
</g>
<!-- Node1&#45;&gt;Node5 -->
<g id="edge38" class="edge">
<title>Node1&#45;&gt;Node5</title>
<path fill="none" stroke="midnightblue" d="M533.96,-403.29C551.2,-362.17 601.14,-243.05 620.35,-197.24"/>
<polygon fill="midnightblue" stroke="midnightblue" points="623.61,-198.52 624.25,-187.95 617.15,-195.81 623.61,-198.52"/>
</g>
<!-- Node28 -->
<g id="node28" class="node">
<title>Node28</title>
<g id="a_node28"><a xlink:href="_base_iterator_8hpp.html" target="_top" xlink:title=" ">
<polygon fill="white" stroke="black" points="930.5,-347.5 930.5,-366.5 1027.5,-366.5 1027.5,-347.5 930.5,-347.5"/>
<text text-anchor="middle" x="979" y="-354.5" font-family="Helvetica,sans-Serif" font-size="10.00">BaseIterator.hpp</text>
</a>
</g>
</g>
<!-- Node1&#45;&gt;Node28 -->
<g id="edge39" class="edge">
<title>Node1&#45;&gt;Node28</title>
<path fill="none" stroke="midnightblue" d="M599.46,-408.07C688.28,-396.35 838.16,-376.58 920.49,-365.72"/>
<polygon fill="midnightblue" stroke="midnightblue" points="920.98,-369.19 930.43,-364.41 920.06,-362.25 920.98,-369.19"/>
</g>
<!-- Node3 -->
<g id="node3" class="node">
<title>Node3</title>
<g id="a_node3"><a xlink:href="_deprecated_8hpp.html" target="_top" xlink:title=" ">
<polygon fill="white" stroke="black" points="390,-56.5 390,-75.5 484,-75.5 484,-56.5 390,-56.5"/>
<text text-anchor="middle" x="437" y="-63.5" font-family="Helvetica,sans-Serif" font-size="10.00">Deprecated.hpp</text>
</a>
</g>
</g>
<!-- Node2&#45;&gt;Node3 -->
<g id="edge2" class="edge">
<title>Node2&#45;&gt;Node3</title>
<path fill="none" stroke="midnightblue" d="M310.2,-224.08C331.66,-197.49 395.4,-118.54 423.47,-83.76"/>
<polygon fill="midnightblue" stroke="midnightblue" points="426.53,-85.55 430.08,-75.57 421.08,-81.15 426.53,-85.55"/>
</g>
<!-- Node4 -->
<g id="node4" class="node">
<title>Node4</title>
<g id="a_node4"><a xlink:href="_descriptors_fwd_8hpp.html" target="_top" xlink:title=" ">
<polygon fill="white" stroke="black" points="139.5,-168.5 139.5,-187.5 252.5,-187.5 252.5,-168.5 139.5,-168.5"/>
<text text-anchor="middle" x="196" y="-175.5" font-family="Helvetica,sans-Serif" font-size="10.00">DescriptorsFwd.hpp</text>
</a>
</g>
</g>
<!-- Node2&#45;&gt;Node4 -->
<g id="edge3" class="edge">
<title>Node2&#45;&gt;Node4</title>
<path fill="none" stroke="midnightblue" d="M285.81,-224.32C268.65,-215.66 242.05,-202.24 222.25,-192.25"/>
<polygon fill="midnightblue" stroke="midnightblue" points="223.65,-189.04 213.15,-187.65 220.5,-195.28 223.65,-189.04"/>
</g>
<!-- Node2&#45;&gt;Node5 -->
<g id="edge4" class="edge">
<title>Node2&#45;&gt;Node5</title>
<path fill="none" stroke="midnightblue" d="M354.5,-224.44C417.78,-213.93 524.08,-196.27 583.81,-186.34"/>
<polygon fill="midnightblue" stroke="midnightblue" points="584.4,-189.79 593.69,-184.7 583.25,-182.89 584.4,-189.79"/>
</g>
<!-- Node6 -->
<g id="node6" class="node">
<title>Node6</title>
<g id="a_node6"><a xlink:href="_exceptions_8hpp.html" target="_top" xlink:title=" ">
<polygon fill="white" stroke="black" points="540.5,-56.5 540.5,-75.5 631.5,-75.5 631.5,-56.5 540.5,-56.5"/>
<text text-anchor="middle" x="586" y="-63.5" font-family="Helvetica,sans-Serif" font-size="10.00">Exceptions.hpp</text>
</a>
</g>
</g>
<!-- Node2&#45;&gt;Node6 -->
<g id="edge33" class="edge">
<title>Node2&#45;&gt;Node6</title>
<path fill="none" stroke="midnightblue" d="M311.71,-224.18C324.61,-211.27 349.78,-186.76 373,-168 406.76,-140.72 414.28,-131.6 453,-112 481.54,-97.56 515.77,-86.09 542.36,-78.35"/>
<polygon fill="midnightblue" stroke="midnightblue" points="543.48,-81.67 552.15,-75.57 541.57,-74.94 543.48,-81.67"/>
</g>
<!-- Node13 -->
<g id="node13" class="node">
<title>Node13</title>
<g id="a_node13"><a xlink:href="_types_8hpp.html" target="_top" xlink:title=" ">
<polygon fill="white" stroke="black" points="779.5,-112.5 779.5,-131.5 844.5,-131.5 844.5,-112.5 779.5,-112.5"/>
<text text-anchor="middle" x="812" y="-119.5" font-family="Helvetica,sans-Serif" font-size="10.00">Types.hpp</text>
</a>
</g>
</g>
<!-- Node2&#45;&gt;Node13 -->
<g id="edge32" class="edge">
<title>Node2&#45;&gt;Node13</title>
<path fill="none" stroke="midnightblue" d="M367.02,-231.16C441.38,-227.67 567.14,-217.51 671,-188 714.37,-175.68 761.27,-151.71 788.56,-136.57"/>
<polygon fill="midnightblue" stroke="midnightblue" points="790.36,-139.57 797.36,-131.62 786.93,-133.47 790.36,-139.57"/>
</g>
<!-- Node23 -->
<g id="node23" class="node">
<title>Node23</title>
<g id="a_node23"><a xlink:title=" ">
<polygon fill="white" stroke="#bfbfbf" points="413.5,-0.5 413.5,-19.5 460.5,-19.5 460.5,-0.5 413.5,-0.5"/>
<text text-anchor="middle" x="437" y="-7.5" font-family="Helvetica,sans-Serif" font-size="10.00">vector</text>
</a>
</g>
</g>
<!-- Node2&#45;&gt;Node23 -->
<g id="edge37" class="edge">
<title>Node2&#45;&gt;Node23</title>
<path fill="none" stroke="midnightblue" d="M302.81,-224.16C302.66,-196.23 305.75,-108.69 348,-56 362.11,-38.4 384.91,-27.06 403.9,-20.16"/>
<polygon fill="midnightblue" stroke="midnightblue" points="405.06,-23.47 413.42,-16.95 402.82,-16.83 405.06,-23.47"/>
</g>
<!-- Node25 -->
<g id="node25" class="node">
<title>Node25</title>
<g id="a_node25"><a xlink:title=" ">
<polygon fill="white" stroke="#bfbfbf" points="461.5,-112.5 461.5,-131.5 506.5,-131.5 506.5,-112.5 461.5,-112.5"/>
<text text-anchor="middle" x="484" y="-119.5" font-family="Helvetica,sans-Serif" font-size="10.00">utility</text>
</a>
</g>
</g>
<!-- Node2&#45;&gt;Node25 -->
<g id="edge36" class="edge">
<title>Node2&#45;&gt;Node25</title>
<path fill="none" stroke="midnightblue" d="M317.2,-224.37C348.39,-205.41 423.12,-160 461.06,-136.94"/>
<polygon fill="midnightblue" stroke="midnightblue" points="463.14,-139.78 469.86,-131.59 459.5,-133.79 463.14,-139.78"/>
</g>
<!-- Node26 -->
<g id="node26" class="node">
<title>Node26</title>
<g id="a_node26"><a xlink:title=" ">
<polygon fill="white" stroke="#bfbfbf" points="0,-168.5 0,-187.5 50,-187.5 50,-168.5 0,-168.5"/>
<text text-anchor="middle" x="25" y="-175.5" font-family="Helvetica,sans-Serif" font-size="10.00">cstdint</text>
</a>
</g>
</g>
<!-- Node2&#45;&gt;Node26 -->
<g id="edge34" class="edge">
<title>Node2&#45;&gt;Node26</title>
<path fill="none" stroke="midnightblue" d="M250.41,-224.5C203.06,-216.57 131.37,-203.9 60.23,-188.14"/>
<polygon fill="midnightblue" stroke="midnightblue" points="60.72,-184.67 50.2,-185.9 59.19,-191.5 60.72,-184.67"/>
</g>
<!-- Node27 -->
<g id="node27" class="node">
<title>Node27</title>
<g id="a_node27"><a xlink:title=" ">
<polygon fill="white" stroke="#bfbfbf" points="68.5,-168.5 68.5,-187.5 121.5,-187.5 121.5,-168.5 68.5,-168.5"/>
<text text-anchor="middle" x="95" y="-175.5" font-family="Helvetica,sans-Serif" font-size="10.00">iterator</text>
</a>
</g>
</g>
<!-- Node2&#45;&gt;Node27 -->
<g id="edge35" class="edge">
<title>Node2&#45;&gt;Node27</title>
<path fill="none" stroke="midnightblue" d="M270.04,-224.44C232.29,-214.64 170.62,-198.63 131.46,-188.47"/>
<polygon fill="midnightblue" stroke="midnightblue" points="132.09,-185.01 121.53,-185.89 130.33,-191.79 132.09,-185.01"/>
</g>
<!-- Node5&#45;&gt;Node6 -->
<g id="edge5" class="edge">
<title>Node5&#45;&gt;Node6</title>
<path fill="none" stroke="midnightblue" d="M618.8,-168.32C610.52,-159.89 598.79,-146.31 593,-132 587.08,-117.35 585.53,-99.41 585.34,-86.09"/>
<polygon fill="midnightblue" stroke="midnightblue" points="588.85,-85.82 585.46,-75.78 581.85,-85.74 588.85,-85.82"/>
</g>
<!-- Node10 -->
<g id="node10" class="node">
<title>Node10</title>
<g id="a_node10"><a xlink:href="_optional_8hpp.html" target="_top" xlink:title=" ">
<polygon fill="white" stroke="black" points="978.5,-112.5 978.5,-131.5 1057.5,-131.5 1057.5,-112.5 978.5,-112.5"/>
<text text-anchor="middle" x="1018" y="-119.5" font-family="Helvetica,sans-Serif" font-size="10.00">Optional.hpp</text>
</a>
</g>
</g>
<!-- Node5&#45;&gt;Node10 -->
<g id="edge9" class="edge">
<title>Node5&#45;&gt;Node10</title>
<path fill="none" stroke="midnightblue" d="M662.27,-172.26C731.38,-162.69 887.71,-141.04 968.14,-129.9"/>
<polygon fill="midnightblue" stroke="midnightblue" points="969.07,-133.31 978.5,-128.47 968.11,-126.37 969.07,-133.31"/>
</g>
<!-- Node5&#45;&gt;Node13 -->
<g id="edge13" class="edge">
<title>Node5&#45;&gt;Node13</title>
<path fill="none" stroke="midnightblue" d="M657.16,-168.44C688.51,-159.24 738.53,-144.56 773.2,-134.39"/>
<polygon fill="midnightblue" stroke="midnightblue" points="774.37,-137.69 782.98,-131.52 772.4,-130.97 774.37,-137.69"/>
</g>
<!-- Node14 -->
<g id="node14" class="node">
<title>Node14</title>
<g id="a_node14"><a xlink:title=" ">
<polygon fill="white" stroke="#bfbfbf" points="650,-56.5 650,-75.5 692,-75.5 692,-56.5 650,-56.5"/>
<text text-anchor="middle" x="671" y="-63.5" font-family="Helvetica,sans-Serif" font-size="10.00">array</text>
</a>
</g>
</g>
<!-- Node5&#45;&gt;Node14 -->
<g id="edge28" class="edge">
<title>Node5&#45;&gt;Node14</title>
<path fill="none" stroke="midnightblue" d="M650.46,-168.38C665.77,-161.18 684.86,-149.29 694,-132 702.18,-116.52 693.51,-97.51 684.57,-84.06"/>
<polygon fill="midnightblue" stroke="midnightblue" points="687.24,-81.79 678.54,-75.75 681.58,-85.9 687.24,-81.79"/>
</g>
<!-- Node16 -->
<g id="node16" class="node">
<title>Node16</title>
<g id="a_node16"><a xlink:title=" ">
<polygon fill="white" stroke="#bfbfbf" points="967.5,-56.5 967.5,-75.5 1020.5,-75.5 1020.5,-56.5 967.5,-56.5"/>
<text text-anchor="middle" x="994" y="-63.5" font-family="Helvetica,sans-Serif" font-size="10.00">stdint.h</text>
</a>
</g>
</g>
<!-- Node5&#45;&gt;Node16 -->
<g id="edge27" class="edge">
<title>Node5&#45;&gt;Node16</title>
<path fill="none" stroke="midnightblue" d="M662.34,-172.76C707.2,-166.63 787.83,-153.61 854,-132 896.16,-118.24 942.31,-95.1 969.68,-80.47"/>
<polygon fill="midnightblue" stroke="midnightblue" points="971.41,-83.51 978.54,-75.68 968.08,-77.36 971.41,-83.51"/>
</g>
<!-- Node5&#45;&gt;Node23 -->
<g id="edge30" class="edge">
<title>Node5&#45;&gt;Node23</title>
<path fill="none" stroke="midnightblue" d="M618.66,-168.31C596.95,-148.18 541.23,-96.94 493,-56 481,-45.81 467.21,-34.73 456.32,-26.11"/>
<polygon fill="midnightblue" stroke="midnightblue" points="458.32,-23.23 448.3,-19.79 453.99,-28.73 458.32,-23.23"/>
</g>
<!-- Node24 -->
<g id="node24" class="node">
<title>Node24</title>
<g id="a_node24"><a xlink:title=" ">
<polygon fill="white" stroke="#bfbfbf" points="601.5,-112.5 601.5,-131.5 684.5,-131.5 684.5,-112.5 601.5,-112.5"/>
<text text-anchor="middle" x="643" y="-119.5" font-family="Helvetica,sans-Serif" font-size="10.00">initializer_list</text>
</a>
</g>
</g>
<!-- Node5&#45;&gt;Node24 -->
<g id="edge29" class="edge">
<title>Node5&#45;&gt;Node24</title>
<path fill="none" stroke="midnightblue" d="M630.48,-168.08C632.49,-160.85 635.39,-150.41 637.89,-141.4"/>
<polygon fill="midnightblue" stroke="midnightblue" points="641.26,-142.32 640.57,-131.75 634.52,-140.45 641.26,-142.32"/>
</g>
<!-- Node5&#45;&gt;Node25 -->
<g id="edge31" class="edge">
<title>Node5&#45;&gt;Node25</title>
<path fill="none" stroke="midnightblue" d="M605.18,-168.44C581.17,-159.44 543.17,-145.19 516.13,-135.05"/>
<polygon fill="midnightblue" stroke="midnightblue" points="517.3,-131.75 506.71,-131.52 514.84,-138.3 517.3,-131.75"/>
</g>
<!-- Node7 -->
<g id="node7" class="node">
<title>Node7</title>
<g id="a_node7"><a xlink:title=" ">
<polygon fill="white" stroke="#bfbfbf" points="556,-0.5 556,-19.5 612,-19.5 612,-0.5 556,-0.5"/>
<text text-anchor="middle" x="584" y="-7.5" font-family="Helvetica,sans-Serif" font-size="10.00">sstream</text>
</a>
</g>
</g>
<!-- Node6&#45;&gt;Node7 -->
<g id="edge6" class="edge">
<title>Node6&#45;&gt;Node7</title>
<path fill="none" stroke="midnightblue" d="M585.67,-56.08C585.41,-49.01 585.03,-38.86 584.7,-29.99"/>
<polygon fill="midnightblue" stroke="midnightblue" points="588.19,-29.61 584.32,-19.75 581.2,-29.87 588.19,-29.61"/>
</g>
<!-- Node8 -->
<g id="node8" class="node">
<title>Node8</title>
<g id="a_node8"><a xlink:title=" ">
<polygon fill="white" stroke="#bfbfbf" points="630.5,-0.5 630.5,-19.5 695.5,-19.5 695.5,-0.5 630.5,-0.5"/>
<text text-anchor="middle" x="663" y="-7.5" font-family="Helvetica,sans-Serif" font-size="10.00">stdexcept</text>
</a>
</g>
</g>
<!-- Node6&#45;&gt;Node8 -->
<g id="edge7" class="edge">
<title>Node6&#45;&gt;Node8</title>
<path fill="none" stroke="midnightblue" d="M598.37,-56.32C610.16,-48.06 628.13,-35.45 642.14,-25.63"/>
<polygon fill="midnightblue" stroke="midnightblue" points="644.48,-28.26 650.66,-19.65 640.46,-22.53 644.48,-28.26"/>
</g>
<!-- Node9 -->
<g id="node9" class="node">
<title>Node9</title>
<g id="a_node9"><a xlink:title=" ">
<polygon fill="white" stroke="#bfbfbf" points="740,-0.5 740,-19.5 784,-19.5 784,-0.5 740,-0.5"/>
<text text-anchor="middle" x="762" y="-7.5" font-family="Helvetica,sans-Serif" font-size="10.00">string</text>
</a>
</g>
</g>
<!-- Node6&#45;&gt;Node9 -->
<g id="edge8" class="edge">
<title>Node6&#45;&gt;Node9</title>
<path fill="none" stroke="midnightblue" d="M613.89,-56.44C645.51,-46.74 696.97,-30.95 730.15,-20.77"/>
<polygon fill="midnightblue" stroke="midnightblue" points="731.28,-24.09 739.82,-17.81 729.23,-17.39 731.28,-24.09"/>
</g>
<!-- Node10&#45;&gt;Node6 -->
<g id="edge10" class="edge">
<title>Node10&#45;&gt;Node6</title>
<path fill="none" stroke="midnightblue" d="M978.3,-116.83C911.25,-109.67 771.06,-94.17 641.68,-76.04"/>
<polygon fill="midnightblue" stroke="midnightblue" points="641.99,-72.55 631.6,-74.62 641.01,-79.48 641.99,-72.55"/>
</g>
<!-- Node11 -->
<g id="node11" class="node">
<title>Node11</title>
<g id="a_node11"><a xlink:title=" ">
<polygon fill="white" stroke="#bfbfbf" points="1039,-56.5 1039,-75.5 1089,-75.5 1089,-56.5 1039,-56.5"/>
<text text-anchor="middle" x="1064" y="-63.5" font-family="Helvetica,sans-Serif" font-size="10.00">cstring</text>
</a>
</g>
</g>
<!-- Node10&#45;&gt;Node11 -->
<g id="edge11" class="edge">
<title>Node10&#45;&gt;Node11</title>
<path fill="none" stroke="midnightblue" d="M1025.6,-112.08C1032.23,-104.3 1042.02,-92.8 1050.06,-83.37"/>
<polygon fill="midnightblue" stroke="midnightblue" points="1052.73,-85.63 1056.55,-75.75 1047.4,-81.09 1052.73,-85.63"/>
</g>
<!-- Node12 -->
<g id="node12" class="node">
<title>Node12</title>
<g id="a_node12"><a xlink:title=" ">
<polygon fill="white" stroke="#bfbfbf" points="1381.5,-56.5 1381.5,-75.5 1450.5,-75.5 1450.5,-56.5 1381.5,-56.5"/>
<text text-anchor="middle" x="1416" y="-63.5" font-family="Helvetica,sans-Serif" font-size="10.00">type_traits</text>
</a>
</g>
</g>
<!-- Node10&#45;&gt;Node12 -->
<g id="edge12" class="edge">
<title>Node10&#45;&gt;Node12</title>
<path fill="none" stroke="midnightblue" d="M1057.55,-117.03C1121.48,-110.4 1251.67,-95.94 1371.25,-76.19"/>
<polygon fill="midnightblue" stroke="midnightblue" points="1372.02,-79.61 1381.31,-74.51 1370.87,-72.7 1372.02,-79.61"/>
</g>
<!-- Node13&#45;&gt;Node3 -->
<g id="edge26" class="edge">
<title>Node13&#45;&gt;Node3</title>
<path fill="none" stroke="midnightblue" d="M779.38,-116.3C715.77,-107.14 574.43,-86.79 494.66,-75.3"/>
<polygon fill="midnightblue" stroke="midnightblue" points="494.7,-71.77 484.31,-73.81 493.7,-78.7 494.7,-71.77"/>
</g>
<!-- Node13&#45;&gt;Node6 -->
<g id="edge25" class="edge">
<title>Node13&#45;&gt;Node6</title>
<path fill="none" stroke="midnightblue" d="M779.14,-113.15C740.29,-103.87 675.42,-88.37 631.7,-77.92"/>
<polygon fill="midnightblue" stroke="midnightblue" points="632.43,-74.5 621.89,-75.58 630.8,-81.3 632.43,-74.5"/>
</g>
<!-- Node13&#45;&gt;Node14 -->
<g id="edge14" class="edge">
<title>Node13&#45;&gt;Node14</title>
<path fill="none" stroke="midnightblue" d="M789.66,-112.44C765.97,-103.37 728.39,-88.98 701.88,-78.83"/>
<polygon fill="midnightblue" stroke="midnightblue" points="702.9,-75.47 692.31,-75.16 700.4,-82.01 702.9,-75.47"/>
</g>
<!-- Node15 -->
<g id="node15" class="node">
<title>Node15</title>
<g id="a_node15"><a xlink:title=" ">
<polygon fill="white" stroke="#bfbfbf" points="778.5,-56.5 778.5,-75.5 843.5,-75.5 843.5,-56.5 778.5,-56.5"/>
<text text-anchor="middle" x="811" y="-63.5" font-family="Helvetica,sans-Serif" font-size="10.00">functional</text>
</a>
</g>
</g>
<!-- Node13&#45;&gt;Node15 -->
<g id="edge15" class="edge">
<title>Node13&#45;&gt;Node15</title>
<path fill="none" stroke="midnightblue" d="M811.83,-112.08C811.7,-105.01 811.52,-94.86 811.35,-85.99"/>
<polygon fill="midnightblue" stroke="midnightblue" points="814.85,-85.68 811.16,-75.75 807.85,-85.81 814.85,-85.68"/>
</g>
<!-- Node13&#45;&gt;Node16 -->
<g id="edge16" class="edge">
<title>Node13&#45;&gt;Node16</title>
<path fill="none" stroke="midnightblue" d="M840.84,-112.44C872.49,-103.05 923.37,-87.95 957.72,-77.77"/>
<polygon fill="midnightblue" stroke="midnightblue" points="958.78,-81.1 967.37,-74.9 956.79,-74.39 958.78,-81.1"/>
</g>
<!-- Node17 -->
<g id="node17" class="node">
<title>Node17</title>
<g id="a_node17"><a xlink:title=" ">
<polygon fill="white" stroke="#bfbfbf" points="710,-56.5 710,-75.5 760,-75.5 760,-56.5 710,-56.5"/>
<text text-anchor="middle" x="735" y="-63.5" font-family="Helvetica,sans-Serif" font-size="10.00">chrono</text>
</a>
</g>
</g>
<!-- Node13&#45;&gt;Node17 -->
<g id="edge17" class="edge">
<title>Node13&#45;&gt;Node17</title>
<path fill="none" stroke="midnightblue" d="M799.63,-112.32C787.84,-104.06 769.87,-91.45 755.86,-81.63"/>
<polygon fill="midnightblue" stroke="midnightblue" points="757.54,-78.53 747.34,-75.65 753.52,-84.26 757.54,-78.53"/>
</g>
<!-- Node18 -->
<g id="node18" class="node">
<title>Node18</title>
<g id="a_node18"><a xlink:href="_backend_id_8hpp.html" target="_top" xlink:title=" ">
<polygon fill="white" stroke="black" points="862,-56.5 862,-75.5 950,-75.5 950,-56.5 862,-56.5"/>
<text text-anchor="middle" x="906" y="-63.5" font-family="Helvetica,sans-Serif" font-size="10.00">BackendId.hpp</text>
</a>
</g>
</g>
<!-- Node13&#45;&gt;Node18 -->
<g id="edge18" class="edge">
<title>Node13&#45;&gt;Node18</title>
<path fill="none" stroke="midnightblue" d="M827.1,-112.32C841.9,-103.82 864.69,-90.73 881.98,-80.8"/>
<polygon fill="midnightblue" stroke="midnightblue" points="884.01,-83.67 890.93,-75.65 880.52,-77.6 884.01,-83.67"/>
</g>
<!-- Node18&#45;&gt;Node9 -->
<g id="edge22" class="edge">
<title>Node18&#45;&gt;Node9</title>
<path fill="none" stroke="midnightblue" d="M883.18,-56.44C859.03,-47.39 820.72,-33.02 793.65,-22.87"/>
<polygon fill="midnightblue" stroke="midnightblue" points="794.83,-19.57 784.24,-19.34 792.37,-26.13 794.83,-19.57"/>
</g>
<!-- Node19 -->
<g id="node19" class="node">
<title>Node19</title>
<g id="a_node19"><a xlink:title=" ">
<polygon fill="white" stroke="#bfbfbf" points="852,-0.5 852,-19.5 910,-19.5 910,-0.5 852,-0.5"/>
<text text-anchor="middle" x="881" y="-7.5" font-family="Helvetica,sans-Serif" font-size="10.00">memory</text>
</a>
</g>
</g>
<!-- Node18&#45;&gt;Node19 -->
<g id="edge19" class="edge">
<title>Node18&#45;&gt;Node19</title>
<path fill="none" stroke="midnightblue" d="M901.87,-56.08C898.49,-48.77 893.58,-38.18 889.38,-29.1"/>
<polygon fill="midnightblue" stroke="midnightblue" points="892.43,-27.36 885.05,-19.75 886.08,-30.3 892.43,-27.36"/>
</g>
<!-- Node20 -->
<g id="node20" class="node">
<title>Node20</title>
<g id="a_node20"><a xlink:title=" ">
<polygon fill="white" stroke="#bfbfbf" points="1126.5,-0.5 1126.5,-19.5 1183.5,-19.5 1183.5,-0.5 1126.5,-0.5"/>
<text text-anchor="middle" x="1155" y="-7.5" font-family="Helvetica,sans-Serif" font-size="10.00">ostream</text>
</a>
</g>
</g>
<!-- Node18&#45;&gt;Node20 -->
<g id="edge20" class="edge">
<title>Node18&#45;&gt;Node20</title>
<path fill="none" stroke="midnightblue" d="M945.45,-56.44C992.24,-46.3 1069.73,-29.49 1116.22,-19.41"/>
<polygon fill="midnightblue" stroke="midnightblue" points="1117.18,-22.78 1126.21,-17.24 1115.69,-15.94 1117.18,-22.78"/>
</g>
<!-- Node21 -->
<g id="node21" class="node">
<title>Node21</title>
<g id="a_node21"><a xlink:title=" ">
<polygon fill="white" stroke="#bfbfbf" points="1067,-0.5 1067,-19.5 1099,-19.5 1099,-0.5 1067,-0.5"/>
<text text-anchor="middle" x="1083" y="-7.5" font-family="Helvetica,sans-Serif" font-size="10.00">set</text>
</a>
</g>
</g>
<!-- Node18&#45;&gt;Node21 -->
<g id="edge21" class="edge">
<title>Node18&#45;&gt;Node21</title>
<path fill="none" stroke="midnightblue" d="M934.05,-56.44C967.82,-46.14 1024.1,-28.97 1056.96,-18.94"/>
<polygon fill="midnightblue" stroke="midnightblue" points="1058.2,-22.23 1066.74,-15.96 1056.16,-15.53 1058.2,-22.23"/>
</g>
<!-- Node22 -->
<g id="node22" class="node">
<title>Node22</title>
<g id="a_node22"><a xlink:title=" ">
<polygon fill="white" stroke="#bfbfbf" points="928,-0.5 928,-19.5 1014,-19.5 1014,-0.5 928,-0.5"/>
<text text-anchor="middle" x="971" y="-7.5" font-family="Helvetica,sans-Serif" font-size="10.00">unordered_set</text>
</a>
</g>
</g>
<!-- Node18&#45;&gt;Node22 -->
<g id="edge23" class="edge">
<title>Node18&#45;&gt;Node22</title>
<path fill="none" stroke="midnightblue" d="M916.44,-56.32C926.15,-48.26 940.82,-36.08 952.5,-26.37"/>
<polygon fill="midnightblue" stroke="midnightblue" points="954.91,-28.92 960.37,-19.83 950.44,-23.53 954.91,-28.92"/>
</g>
<!-- Node18&#45;&gt;Node23 -->
<g id="edge24" class="edge">
<title>Node18&#45;&gt;Node23</title>
<path fill="none" stroke="midnightblue" d="M861.78,-57.29C858.81,-56.83 855.87,-56.4 853,-56 711.33,-36.33 541.5,-20.3 470.63,-13.94"/>
<polygon fill="midnightblue" stroke="midnightblue" points="470.79,-10.44 460.52,-13.04 470.17,-17.42 470.79,-10.44"/>
</g>
<!-- Node29 -->
<g id="node29" class="node">
<title>Node29</title>
<g id="a_node29"><a xlink:href="_types_utils_8hpp.html" target="_top" xlink:title=" ">
<polygon fill="white" stroke="black" points="865,-224.5 865,-243.5 987,-243.5 987,-224.5 865,-224.5"/>
<text text-anchor="middle" x="926" y="-231.5" font-family="Helvetica,sans-Serif" font-size="10.00">armnn/TypesUtils.hpp</text>
</a>
</g>
</g>
<!-- Node28&#45;&gt;Node29 -->
<g id="edge40" class="edge">
<title>Node28&#45;&gt;Node29</title>
<path fill="none" stroke="midnightblue" d="M972.49,-347.44C966.07,-338.67 956.32,-324.46 950,-311 941.19,-292.26 934.48,-269.45 930.42,-253.74"/>
<polygon fill="midnightblue" stroke="midnightblue" points="933.74,-252.58 927.95,-243.71 926.95,-254.26 933.74,-252.58"/>
</g>
<!-- Node31 -->
<g id="node31" class="node">
<title>Node31</title>
<g id="a_node31"><a xlink:href="_numeric_cast_8hpp.html" target="_top" xlink:title=" ">
<polygon fill="white" stroke="black" points="1308.5,-286 1308.5,-305 1475.5,-305 1475.5,-286 1308.5,-286"/>
<text text-anchor="middle" x="1392" y="-293" font-family="Helvetica,sans-Serif" font-size="10.00">armnn/utility/NumericCast.hpp</text>
</a>
</g>
</g>
<!-- Node28&#45;&gt;Node31 -->
<g id="edge50" class="edge">
<title>Node28&#45;&gt;Node31</title>
<path fill="none" stroke="midnightblue" d="M1027.59,-349C1100.74,-338.46 1239.46,-318.48 1323.05,-306.43"/>
<polygon fill="midnightblue" stroke="midnightblue" points="1323.56,-309.9 1332.96,-305.01 1322.56,-302.97 1323.56,-309.9"/>
</g>
<!-- Node35 -->
<g id="node35" class="node">
<title>Node35</title>
<g id="a_node35"><a xlink:href="_floating_point_converter_8hpp.html" target="_top" xlink:title=" ">
<polygon fill="white" stroke="black" points="959,-280.5 959,-310.5 1097,-310.5 1097,-280.5 959,-280.5"/>
<text text-anchor="start" x="967" y="-298.5" font-family="Helvetica,sans-Serif" font-size="10.00">armnnUtils/FloatingPoint</text>
<text text-anchor="middle" x="1028" y="-287.5" font-family="Helvetica,sans-Serif" font-size="10.00">Converter.hpp</text>
</a>
</g>
</g>
<!-- Node28&#45;&gt;Node35 -->
<g id="edge55" class="edge">
<title>Node28&#45;&gt;Node35</title>
<path fill="none" stroke="midnightblue" d="M986.02,-347.48C992.28,-339.87 1001.73,-328.4 1010.08,-318.26"/>
<polygon fill="midnightblue" stroke="midnightblue" points="1012.8,-320.47 1016.45,-310.52 1007.39,-316.02 1012.8,-320.47"/>
</g>
<!-- Node37 -->
<g id="node37" class="node">
<title>Node37</title>
<g id="a_node37"><a xlink:href="_tensor_utils_8hpp.html" target="_top" xlink:title=" ">
<polygon fill="white" stroke="black" points="724.5,-286 724.5,-305 873.5,-305 873.5,-286 724.5,-286"/>
<text text-anchor="middle" x="799" y="-293" font-family="Helvetica,sans-Serif" font-size="10.00">armnnUtils/TensorUtils.hpp</text>
</a>
</g>
</g>
<!-- Node28&#45;&gt;Node37 -->
<g id="edge57" class="edge">
<title>Node28&#45;&gt;Node37</title>
<path fill="none" stroke="midnightblue" d="M953.21,-347.48C922.07,-337.18 869.52,-319.81 834.55,-308.25"/>
<polygon fill="midnightblue" stroke="midnightblue" points="835.34,-304.82 824.74,-305.01 833.14,-311.47 835.34,-304.82"/>
</g>
<!-- Node38 -->
<g id="node38" class="node">
<title>Node38</title>
<g id="a_node38"><a xlink:href="_resolve_type_8hpp.html" target="_top" xlink:title=" ">
<polygon fill="white" stroke="black" points="1143.5,-168.5 1143.5,-187.5 1242.5,-187.5 1242.5,-168.5 1143.5,-168.5"/>
<text text-anchor="middle" x="1193" y="-175.5" font-family="Helvetica,sans-Serif" font-size="10.00">ResolveType.hpp</text>
</a>
</g>
</g>
<!-- Node28&#45;&gt;Node38 -->
<g id="edge64" class="edge">
<title>Node28&#45;&gt;Node38</title>
<path fill="none" stroke="midnightblue" d="M1024.21,-347.5C1050.18,-340.88 1082.24,-329.6 1106,-311 1145.67,-279.94 1173.18,-225.56 1185.57,-197.27"/>
<polygon fill="midnightblue" stroke="midnightblue" points="1188.9,-198.38 1189.57,-187.81 1182.45,-195.65 1188.9,-198.38"/>
</g>
<!-- Node29&#45;&gt;Node5 -->
<g id="edge43" class="edge">
<title>Node29&#45;&gt;Node5</title>
<path fill="none" stroke="midnightblue" d="M878.78,-224.44C821.92,-214.14 727.19,-196.97 671.87,-186.95"/>
<polygon fill="midnightblue" stroke="midnightblue" points="672.48,-183.5 662.02,-185.16 671.24,-190.39 672.48,-183.5"/>
</g>
<!-- Node29&#45;&gt;Node6 -->
<g id="edge42" class="edge">
<title>Node29&#45;&gt;Node6</title>
<path fill="none" stroke="midnightblue" d="M910.75,-224.46C873.99,-204.01 777.31,-151 694,-112 668.63,-100.13 639.26,-87.99 617.56,-79.32"/>
<polygon fill="midnightblue" stroke="midnightblue" points="618.75,-76.03 608.17,-75.59 616.17,-82.53 618.75,-76.03"/>
</g>
<!-- Node29&#45;&gt;Node12 -->
<g id="edge49" class="edge">
<title>Node29&#45;&gt;Node12</title>
<path fill="none" stroke="midnightblue" d="M987.35,-225.16C1085.6,-212.58 1267.67,-189.16 1271,-188 1316.55,-172.1 1327.7,-163.78 1364,-132 1380.08,-117.92 1394.93,-98.42 1404.61,-84.46"/>
<polygon fill="midnightblue" stroke="midnightblue" points="1407.75,-86.06 1410.44,-75.81 1401.95,-82.15 1407.75,-86.06"/>
</g>
<!-- Node29&#45;&gt;Node13 -->
<g id="edge44" class="edge">
<title>Node29&#45;&gt;Node13</title>
<path fill="none" stroke="midnightblue" d="M917.05,-224.37C897.91,-205.89 852.72,-162.29 828.32,-138.74"/>
<polygon fill="midnightblue" stroke="midnightblue" points="830.53,-136.02 820.9,-131.59 825.67,-141.05 830.53,-136.02"/>
</g>
<!-- Node29&#45;&gt;Node16 -->
<g id="edge45" class="edge">
<title>Node29&#45;&gt;Node16</title>
<path fill="none" stroke="midnightblue" d="M928.69,-224.33C935.01,-204.23 951.71,-153.04 970,-112 974.1,-102.8 979.3,-92.89 983.8,-84.72"/>
<polygon fill="midnightblue" stroke="midnightblue" points="986.98,-86.21 988.84,-75.78 980.88,-82.77 986.98,-86.21"/>
</g>
<!-- Node29&#45;&gt;Node18 -->
<g id="edge41" class="edge">
<title>Node29&#45;&gt;Node18</title>
<path fill="none" stroke="midnightblue" d="M924.92,-224.08C921.78,-197.95 912.53,-121.21 908.24,-85.58"/>
<polygon fill="midnightblue" stroke="midnightblue" points="911.7,-85.08 907.03,-75.57 904.75,-85.92 911.7,-85.08"/>
</g>
<!-- Node29&#45;&gt;Node20 -->
<g id="edge47" class="edge">
<title>Node29&#45;&gt;Node20</title>
<path fill="none" stroke="midnightblue" d="M951.48,-224.42C972.86,-216.61 1003.7,-203.89 1028,-188 1058.8,-167.86 1066.33,-160.99 1089,-132 1115.06,-98.68 1136.59,-53.69 1147.43,-29.03"/>
<polygon fill="midnightblue" stroke="midnightblue" points="1150.67,-30.37 1151.4,-19.8 1144.24,-27.6 1150.67,-30.37"/>
</g>
<!-- Node29&#45;&gt;Node21 -->
<g id="edge48" class="edge">
<title>Node29&#45;&gt;Node21</title>
<path fill="none" stroke="midnightblue" d="M942.59,-224.36C970.96,-208.93 1029.36,-174.28 1067,-132 1091.26,-104.75 1103.84,-92.01 1098,-56 1096.53,-46.96 1093.51,-37.28 1090.56,-29.22"/>
<polygon fill="midnightblue" stroke="midnightblue" points="1093.76,-27.79 1086.86,-19.75 1087.24,-30.34 1093.76,-27.79"/>
</g>
<!-- Node30 -->
<g id="node30" class="node">
<title>Node30</title>
<g id="a_node30"><a xlink:title=" ">
<polygon fill="white" stroke="#bfbfbf" points="1221.5,-56.5 1221.5,-75.5 1268.5,-75.5 1268.5,-56.5 1221.5,-56.5"/>
<text text-anchor="middle" x="1245" y="-63.5" font-family="Helvetica,sans-Serif" font-size="10.00">cmath</text>
</a>
</g>
</g>
<!-- Node29&#45;&gt;Node30 -->
<g id="edge46" class="edge">
<title>Node29&#45;&gt;Node30</title>
<path fill="none" stroke="midnightblue" d="M987.2,-225.06C1081.01,-212.82 1249.83,-190.49 1252,-188 1276.91,-159.42 1263.29,-111.13 1253.03,-85.03"/>
<polygon fill="midnightblue" stroke="midnightblue" points="1256.18,-83.5 1249.1,-75.62 1249.73,-86.2 1256.18,-83.5"/>
</g>
<!-- Node31&#45;&gt;Node12 -->
<g id="edge53" class="edge">
<title>Node31&#45;&gt;Node12</title>
<path fill="none" stroke="midnightblue" d="M1417.98,-285.85C1436.7,-278.1 1460.58,-264.71 1472,-244 1502.15,-189.31 1454.57,-116 1429.66,-83.59"/>
<polygon fill="midnightblue" stroke="midnightblue" points="1432.27,-81.25 1423.32,-75.59 1426.78,-85.6 1432.27,-81.25"/>
</g>
<!-- Node32 -->
<g id="node32" class="node">
<title>Node32</title>
<g id="a_node32"><a xlink:href="_assert_8hpp.html" target="_top" xlink:title=" ">
<polygon fill="white" stroke="black" points="1395,-224.5 1395,-243.5 1463,-243.5 1463,-224.5 1395,-224.5"/>
<text text-anchor="middle" x="1429" y="-231.5" font-family="Helvetica,sans-Serif" font-size="10.00">Assert.hpp</text>
</a>
</g>
</g>
<!-- Node31&#45;&gt;Node32 -->
<g id="edge51" class="edge">
<title>Node31&#45;&gt;Node32</title>
<path fill="none" stroke="midnightblue" d="M1397.3,-285.98C1402.74,-277.23 1411.36,-263.37 1418.24,-252.31"/>
<polygon fill="midnightblue" stroke="midnightblue" points="1421.4,-253.85 1423.71,-243.51 1415.46,-250.15 1421.4,-253.85"/>
</g>
<!-- Node34 -->
<g id="node34" class="node">
<title>Node34</title>
<g id="a_node34"><a xlink:title=" ">
<polygon fill="white" stroke="#bfbfbf" points="1333,-224.5 1333,-243.5 1377,-243.5 1377,-224.5 1333,-224.5"/>
<text text-anchor="middle" x="1355" y="-231.5" font-family="Helvetica,sans-Serif" font-size="10.00">limits</text>
</a>
</g>
</g>
<!-- Node31&#45;&gt;Node34 -->
<g id="edge54" class="edge">
<title>Node31&#45;&gt;Node34</title>
<path fill="none" stroke="midnightblue" d="M1386.7,-285.98C1381.26,-277.23 1372.64,-263.37 1365.76,-252.31"/>
<polygon fill="midnightblue" stroke="midnightblue" points="1368.54,-250.15 1360.29,-243.51 1362.6,-253.85 1368.54,-250.15"/>
</g>
<!-- Node33 -->
<g id="node33" class="node">
<title>Node33</title>
<g id="a_node33"><a xlink:title=" ">
<polygon fill="white" stroke="#bfbfbf" points="1411,-168.5 1411,-187.5 1463,-187.5 1463,-168.5 1411,-168.5"/>
<text text-anchor="middle" x="1437" y="-175.5" font-family="Helvetica,sans-Serif" font-size="10.00">cassert</text>
</a>
</g>
</g>
<!-- Node32&#45;&gt;Node33 -->
<g id="edge52" class="edge">
<title>Node32&#45;&gt;Node33</title>
<path fill="none" stroke="midnightblue" d="M1430.32,-224.08C1431.38,-216.93 1432.91,-206.64 1434.23,-197.69"/>
<polygon fill="midnightblue" stroke="midnightblue" points="1437.7,-198.16 1435.7,-187.75 1430.78,-197.13 1437.7,-198.16"/>
</g>
<!-- Node36 -->
<g id="node36" class="node">
<title>Node36</title>
<g id="a_node36"><a xlink:title=" ">
<polygon fill="white" stroke="#bfbfbf" points="1005.5,-224.5 1005.5,-243.5 1058.5,-243.5 1058.5,-224.5 1005.5,-224.5"/>
<text text-anchor="middle" x="1032" y="-231.5" font-family="Helvetica,sans-Serif" font-size="10.00">cstddef</text>
</a>
</g>
</g>
<!-- Node35&#45;&gt;Node36 -->
<g id="edge56" class="edge">
<title>Node35&#45;&gt;Node36</title>
<path fill="none" stroke="midnightblue" d="M1028.95,-280.4C1029.48,-272.47 1030.15,-262.46 1030.73,-253.86"/>
<polygon fill="midnightblue" stroke="midnightblue" points="1034.24,-253.87 1031.42,-243.66 1027.26,-253.4 1034.24,-253.87"/>
</g>
<!-- Node37&#45;&gt;Node5 -->
<g id="edge59" class="edge">
<title>Node37&#45;&gt;Node5</title>
<path fill="none" stroke="midnightblue" d="M786.15,-285.82C756.93,-266.09 685.29,-217.7 649.33,-193.41"/>
<polygon fill="midnightblue" stroke="midnightblue" points="651.25,-190.48 641,-187.78 647.33,-196.28 651.25,-190.48"/>
</g>
<!-- Node37&#45;&gt;Node13 -->
<g id="edge60" class="edge">
<title>Node37&#45;&gt;Node13</title>
<path fill="none" stroke="midnightblue" d="M799.66,-285.76C801.68,-259.15 807.78,-178.71 810.57,-141.84"/>
<polygon fill="midnightblue" stroke="midnightblue" points="814.09,-141.76 811.35,-131.52 807.11,-141.23 814.09,-141.76"/>
</g>
<!-- Node37&#45;&gt;Node23 -->
<g id="edge63" class="edge">
<title>Node37&#45;&gt;Node23</title>
<path fill="none" stroke="midnightblue" d="M741.68,-285.93C643.91,-267.73 448.91,-214.84 381,-76 371.17,-55.9 392.16,-37.01 411.18,-24.83"/>
<polygon fill="midnightblue" stroke="midnightblue" points="413.17,-27.72 419.94,-19.57 409.56,-21.72 413.17,-27.72"/>
</g>
<!-- Node37&#45;&gt;Node25 -->
<g id="edge62" class="edge">
<title>Node37&#45;&gt;Node25</title>
<path fill="none" stroke="midnightblue" d="M780.72,-285.89C759.71,-275.95 724.25,-259.04 694,-244 645.23,-219.75 632.18,-215.21 585,-188 556.65,-171.65 525.1,-150.91 504.92,-137.32"/>
<polygon fill="midnightblue" stroke="midnightblue" points="506.75,-134.33 496.51,-131.61 502.82,-140.12 506.75,-134.33"/>
</g>
<!-- Node37&#45;&gt;Node29 -->
<g id="edge58" class="edge">
<title>Node37&#45;&gt;Node29</title>
<path fill="none" stroke="midnightblue" d="M817.2,-285.98C838.51,-275.99 874.03,-259.35 898.66,-247.81"/>
<polygon fill="midnightblue" stroke="midnightblue" points="900.27,-250.92 907.84,-243.51 897.3,-244.58 900.27,-250.92"/>
</g>
<!-- Node37&#45;&gt;Node37 -->
<g id="edge61" class="edge">
<title>Node37&#45;&gt;Node37</title>
<path fill="none" stroke="midnightblue" d="M833.15,-305.03C861.69,-309.11 891.5,-305.93 891.5,-295.5 891.5,-286.29 868.26,-282.74 843.19,-284.83"/>
<polygon fill="midnightblue" stroke="midnightblue" points="842.7,-281.37 833.15,-285.97 843.48,-288.32 842.7,-281.37"/>
</g>
<!-- Node38&#45;&gt;Node13 -->
<g id="edge65" class="edge">
<title>Node38&#45;&gt;Node13</title>
<path fill="none" stroke="midnightblue" d="M1143.19,-169.94C1067.64,-159.23 925.37,-139.07 854.44,-129.02"/>
<polygon fill="midnightblue" stroke="midnightblue" points="854.9,-125.55 844.51,-127.61 853.92,-132.48 854.9,-125.55"/>
</g>
<!-- Node39 -->
<g id="node39" class="node">
<title>Node39</title>
<g id="a_node39"><a xlink:href="_b_float16_8hpp.html" target="_top" xlink:title=" ">
<polygon fill="white" stroke="black" points="1152.5,-112.5 1152.5,-131.5 1233.5,-131.5 1233.5,-112.5 1152.5,-112.5"/>
<text text-anchor="middle" x="1193" y="-119.5" font-family="Helvetica,sans-Serif" font-size="10.00">BFloat16.hpp</text>
</a>
</g>
</g>
<!-- Node38&#45;&gt;Node39 -->
<g id="edge66" class="edge">
<title>Node38&#45;&gt;Node39</title>
<path fill="none" stroke="midnightblue" d="M1193,-168.08C1193,-161.01 1193,-150.86 1193,-141.99"/>
<polygon fill="midnightblue" stroke="midnightblue" points="1196.5,-141.75 1193,-131.75 1189.5,-141.75 1196.5,-141.75"/>
</g>
<!-- Node40 -->
<g id="node40" class="node">
<title>Node40</title>
<g id="a_node40"><a xlink:href="_half_8hpp.html" target="_top" xlink:title=" ">
<polygon fill="white" stroke="black" points="1297.5,-112.5 1297.5,-131.5 1354.5,-131.5 1354.5,-112.5 1297.5,-112.5"/>
<text text-anchor="middle" x="1326" y="-119.5" font-family="Helvetica,sans-Serif" font-size="10.00">Half.hpp</text>
</a>
</g>
</g>
<!-- Node38&#45;&gt;Node40 -->
<g id="edge71" class="edge">
<title>Node38&#45;&gt;Node40</title>
<path fill="none" stroke="midnightblue" d="M1214.07,-168.44C1236.06,-159.52 1270.73,-145.44 1295.66,-135.32"/>
<polygon fill="midnightblue" stroke="midnightblue" points="1297.08,-138.52 1305.02,-131.52 1294.44,-132.04 1297.08,-138.52"/>
</g>
<!-- Node39&#45;&gt;Node11 -->
<g id="edge69" class="edge">
<title>Node39&#45;&gt;Node11</title>
<path fill="none" stroke="midnightblue" d="M1172.56,-112.44C1151.33,-103.56 1117.9,-89.56 1093.75,-79.45"/>
<polygon fill="midnightblue" stroke="midnightblue" points="1094.92,-76.15 1084.34,-75.52 1092.22,-82.61 1094.92,-76.15"/>
</g>
<!-- Node39&#45;&gt;Node16 -->
<g id="edge70" class="edge">
<title>Node39&#45;&gt;Node16</title>
<path fill="none" stroke="midnightblue" d="M1161.47,-112.44C1125.91,-102.79 1068.15,-87.12 1030.62,-76.94"/>
<polygon fill="midnightblue" stroke="midnightblue" points="1031.18,-73.46 1020.61,-74.22 1029.34,-80.22 1031.18,-73.46"/>
</g>
<!-- Node39&#45;&gt;Node20 -->
<g id="edge67" class="edge">
<title>Node39&#45;&gt;Node20</title>
<path fill="none" stroke="midnightblue" d="M1190.02,-112.37C1183.86,-94.54 1169.61,-53.3 1161.31,-29.27"/>
<polygon fill="midnightblue" stroke="midnightblue" points="1164.54,-27.9 1157.97,-19.59 1157.93,-30.19 1164.54,-27.9"/>
</g>
<!-- Node39&#45;&gt;Node30 -->
<g id="edge68" class="edge">
<title>Node39&#45;&gt;Node30</title>
<path fill="none" stroke="midnightblue" d="M1201.59,-112.08C1209.16,-104.22 1220.38,-92.57 1229.51,-83.08"/>
<polygon fill="midnightblue" stroke="midnightblue" points="1232.16,-85.38 1236.57,-75.75 1227.12,-80.53 1232.16,-85.38"/>
</g>
<!-- Node40&#45;&gt;Node12 -->
<g id="edge72" class="edge">
<title>Node40&#45;&gt;Node12</title>
<path fill="none" stroke="midnightblue" d="M1340.46,-112.32C1354.5,-103.9 1376.05,-90.97 1392.54,-81.07"/>
<polygon fill="midnightblue" stroke="midnightblue" points="1394.8,-83.8 1401.58,-75.65 1391.2,-77.8 1394.8,-83.8"/>
</g>
<!-- Node41 -->
<g id="node41" class="node">
<title>Node41</title>
<g id="a_node41"><a xlink:title=" ">
<polygon fill="white" stroke="#bfbfbf" points="1286.5,-56.5 1286.5,-75.5 1363.5,-75.5 1363.5,-56.5 1286.5,-56.5"/>
<text text-anchor="middle" x="1325" y="-63.5" font-family="Helvetica,sans-Serif" font-size="10.00">half/half.hpp</text>
</a>
</g>
</g>
<!-- Node40&#45;&gt;Node41 -->
<g id="edge73" class="edge">
<title>Node40&#45;&gt;Node41</title>
<path fill="none" stroke="midnightblue" d="M1325.83,-112.08C1325.7,-105.01 1325.52,-94.86 1325.35,-85.99"/>
<polygon fill="midnightblue" stroke="midnightblue" points="1328.85,-85.68 1325.16,-75.75 1321.85,-85.81 1328.85,-85.68"/>
</g>
</g>
</svg>
