<?xml version="1.0" encoding="UTF-8" standalone="no"?>
<!DOCTYPE svg PUBLIC "-//W3C//DTD SVG 1.1//EN"
 "http://www.w3.org/Graphics/SVG/1.1/DTD/svg11.dtd">
<!-- Generated by graphviz version 2.43.0 (0)
 -->
<!-- Title: src/armnn/ProfilingEvent.hpp Pages: 1 -->
<svg width="1162pt" height="207pt"
 viewBox="0.00 0.00 1161.50 207.00" xmlns="http://www.w3.org/2000/svg" xmlns:xlink="http://www.w3.org/1999/xlink">
<g id="graph0" class="graph" transform="scale(1 1) rotate(0) translate(4 203)">
<title>src/armnn/ProfilingEvent.hpp</title>
<polygon fill="white" stroke="transparent" points="-4,4 -4,-203 1157.5,-203 1157.5,4 -4,4"/>
<!-- Node1 -->
<g id="node1" class="node">
<title>Node1</title>
<g id="a_node1"><a xlink:title=" ">
<polygon fill="#bfbfbf" stroke="black" points="320,-179.5 320,-198.5 477,-198.5 477,-179.5 320,-179.5"/>
<text text-anchor="middle" x="398.5" y="-186.5" font-family="Helvetica,sans-Serif" font-size="10.00">src/armnn/ProfilingEvent.hpp</text>
</a>
</g>
</g>
<!-- Node2 -->
<g id="node2" class="node">
<title>Node2</title>
<g id="a_node2"><a xlink:title=" ">
<polygon fill="white" stroke="#bfbfbf" points="0,-118 0,-137 43,-137 43,-118 0,-118"/>
<text text-anchor="middle" x="21.5" y="-125" font-family="Helvetica,sans-Serif" font-size="10.00">stack</text>
</a>
</g>
</g>
<!-- Node1&#45;&gt;Node2 -->
<g id="edge1" class="edge">
<title>Node1&#45;&gt;Node2</title>
<path fill="none" stroke="midnightblue" d="M319.89,-183.26C250.06,-177.73 145.72,-166.19 57.5,-143 54.99,-142.34 52.42,-141.55 49.87,-140.69"/>
<polygon fill="midnightblue" stroke="midnightblue" points="50.85,-137.32 40.25,-137.09 48.39,-143.87 50.85,-137.32"/>
</g>
<!-- Node3 -->
<g id="node3" class="node">
<title>Node3</title>
<g id="a_node3"><a xlink:title=" ">
<polygon fill="white" stroke="#bfbfbf" points="122,-0.5 122,-19.5 169,-19.5 169,-0.5 122,-0.5"/>
<text text-anchor="middle" x="145.5" y="-7.5" font-family="Helvetica,sans-Serif" font-size="10.00">vector</text>
</a>
</g>
</g>
<!-- Node1&#45;&gt;Node3 -->
<g id="edge2" class="edge">
<title>Node1&#45;&gt;Node3</title>
<path fill="none" stroke="midnightblue" d="M319.72,-185.65C244.59,-178.54 136.3,-154.35 90.5,-76 79.18,-56.63 100.61,-37.39 119.94,-24.92"/>
<polygon fill="midnightblue" stroke="midnightblue" points="121.81,-27.88 128.54,-19.7 118.18,-21.89 121.81,-27.88"/>
</g>
<!-- Node4 -->
<g id="node4" class="node">
<title>Node4</title>
<g id="a_node4"><a xlink:title=" ">
<polygon fill="white" stroke="#bfbfbf" points="474.5,-56.5 474.5,-75.5 524.5,-75.5 524.5,-56.5 474.5,-56.5"/>
<text text-anchor="middle" x="499.5" y="-63.5" font-family="Helvetica,sans-Serif" font-size="10.00">chrono</text>
</a>
</g>
</g>
<!-- Node1&#45;&gt;Node4 -->
<g id="edge3" class="edge">
<title>Node1&#45;&gt;Node4</title>
<path fill="none" stroke="midnightblue" d="M405.76,-179.3C422.51,-159.24 464.03,-109.49 485.76,-83.46"/>
<polygon fill="midnightblue" stroke="midnightblue" points="488.58,-85.54 492.3,-75.62 483.21,-81.06 488.58,-85.54"/>
</g>
<!-- Node5 -->
<g id="node5" class="node">
<title>Node5</title>
<g id="a_node5"><a xlink:title=" ">
<polygon fill="white" stroke="#bfbfbf" points="974.5,-0.5 974.5,-19.5 1032.5,-19.5 1032.5,-0.5 974.5,-0.5"/>
<text text-anchor="middle" x="1003.5" y="-7.5" font-family="Helvetica,sans-Serif" font-size="10.00">memory</text>
</a>
</g>
</g>
<!-- Node1&#45;&gt;Node5 -->
<g id="edge4" class="edge">
<title>Node1&#45;&gt;Node5</title>
<path fill="none" stroke="midnightblue" d="M477.2,-180.72C614.24,-166.71 889.48,-132.33 966.5,-76 982.19,-64.53 992.18,-44.25 997.77,-29.39"/>
<polygon fill="midnightblue" stroke="midnightblue" points="1001.15,-30.32 1001.09,-19.72 994.53,-28.05 1001.15,-30.32"/>
</g>
<!-- Node6 -->
<g id="node6" class="node">
<title>Node6</title>
<g id="a_node6"><a xlink:title=" ">
<polygon fill="white" stroke="#bfbfbf" points="1013.5,-112.5 1013.5,-142.5 1153.5,-142.5 1153.5,-112.5 1013.5,-112.5"/>
<text text-anchor="start" x="1021.5" y="-130.5" font-family="Helvetica,sans-Serif" font-size="10.00">common/include/Profiling</text>
<text text-anchor="middle" x="1083.5" y="-119.5" font-family="Helvetica,sans-Serif" font-size="10.00">Guid.hpp</text>
</a>
</g>
</g>
<!-- Node1&#45;&gt;Node6 -->
<g id="edge5" class="edge">
<title>Node1&#45;&gt;Node6</title>
<path fill="none" stroke="midnightblue" d="M477.01,-184.53C592.01,-178.91 812.84,-166.04 999.5,-143 1000.78,-142.84 1002.07,-142.68 1003.37,-142.51"/>
<polygon fill="midnightblue" stroke="midnightblue" points="1004.02,-145.95 1013.45,-141.11 1003.06,-139.02 1004.02,-145.95"/>
</g>
<!-- Node7 -->
<g id="node7" class="node">
<title>Node7</title>
<g id="a_node7"><a xlink:href="_optional_8hpp.html" target="_top" xlink:title=" ">
<polygon fill="white" stroke="black" points="278,-118 278,-137 391,-137 391,-118 278,-118"/>
<text text-anchor="middle" x="334.5" y="-125" font-family="Helvetica,sans-Serif" font-size="10.00">armnn/Optional.hpp</text>
</a>
</g>
</g>
<!-- Node1&#45;&gt;Node7 -->
<g id="edge6" class="edge">
<title>Node1&#45;&gt;Node7</title>
<path fill="none" stroke="midnightblue" d="M389.33,-179.48C379.35,-170.2 363.19,-155.17 350.99,-143.83"/>
<polygon fill="midnightblue" stroke="midnightblue" points="353.36,-141.25 343.65,-137.01 348.59,-146.38 353.36,-141.25"/>
</g>
<!-- Node14 -->
<g id="node14" class="node">
<title>Node14</title>
<g id="a_node14"><a xlink:href="_instrument_8hpp.html" target="_top" xlink:title=" ">
<polygon fill="white" stroke="black" points="100,-56.5 100,-75.5 191,-75.5 191,-56.5 100,-56.5"/>
<text text-anchor="middle" x="145.5" y="-63.5" font-family="Helvetica,sans-Serif" font-size="10.00">Instrument.hpp</text>
</a>
</g>
</g>
<!-- Node1&#45;&gt;Node14 -->
<g id="edge13" class="edge">
<title>Node1&#45;&gt;Node14</title>
<path fill="none" stroke="midnightblue" d="M367.8,-179.46C340.97,-171.52 301.29,-158.57 268.5,-143 230.5,-124.95 189.54,-97.96 165.78,-81.48"/>
<polygon fill="midnightblue" stroke="midnightblue" points="167.76,-78.59 157.56,-75.71 163.74,-84.32 167.76,-78.59"/>
</g>
<!-- Node15 -->
<g id="node15" class="node">
<title>Node15</title>
<g id="a_node15"><a xlink:href="_types_8hpp.html" target="_top" xlink:title=" ">
<polygon fill="white" stroke="black" points="542.5,-118 542.5,-137 642.5,-137 642.5,-118 542.5,-118"/>
<text text-anchor="middle" x="592.5" y="-125" font-family="Helvetica,sans-Serif" font-size="10.00">armnn/Types.hpp</text>
</a>
</g>
</g>
<!-- Node1&#45;&gt;Node15 -->
<g id="edge16" class="edge">
<title>Node1&#45;&gt;Node15</title>
<path fill="none" stroke="midnightblue" d="M426.3,-179.48C460.15,-169.09 517.47,-151.51 555.15,-139.95"/>
<polygon fill="midnightblue" stroke="midnightblue" points="556.22,-143.29 564.76,-137.01 554.17,-136.6 556.22,-143.29"/>
</g>
<!-- Node8 -->
<g id="node8" class="node">
<title>Node8</title>
<g id="a_node8"><a xlink:href="_exceptions_8hpp.html" target="_top" xlink:title=" ">
<polygon fill="white" stroke="black" points="365,-56.5 365,-75.5 456,-75.5 456,-56.5 365,-56.5"/>
<text text-anchor="middle" x="410.5" y="-63.5" font-family="Helvetica,sans-Serif" font-size="10.00">Exceptions.hpp</text>
</a>
</g>
</g>
<!-- Node7&#45;&gt;Node8 -->
<g id="edge7" class="edge">
<title>Node7&#45;&gt;Node8</title>
<path fill="none" stroke="midnightblue" d="M345.39,-117.98C357.47,-108.52 377.17,-93.1 391.74,-81.69"/>
<polygon fill="midnightblue" stroke="midnightblue" points="393.91,-84.43 399.63,-75.51 389.6,-78.92 393.91,-84.43"/>
</g>
<!-- Node12 -->
<g id="node12" class="node">
<title>Node12</title>
<g id="a_node12"><a xlink:title=" ">
<polygon fill="white" stroke="#bfbfbf" points="209.5,-56.5 209.5,-75.5 259.5,-75.5 259.5,-56.5 209.5,-56.5"/>
<text text-anchor="middle" x="234.5" y="-63.5" font-family="Helvetica,sans-Serif" font-size="10.00">cstring</text>
</a>
</g>
</g>
<!-- Node7&#45;&gt;Node12 -->
<g id="edge11" class="edge">
<title>Node7&#45;&gt;Node12</title>
<path fill="none" stroke="midnightblue" d="M320.17,-117.98C303.84,-108.25 276.9,-92.23 257.59,-80.74"/>
<polygon fill="midnightblue" stroke="midnightblue" points="259.18,-77.61 248.8,-75.51 255.61,-83.63 259.18,-77.61"/>
</g>
<!-- Node13 -->
<g id="node13" class="node">
<title>Node13</title>
<g id="a_node13"><a xlink:title=" ">
<polygon fill="white" stroke="#bfbfbf" points="278,-56.5 278,-75.5 347,-75.5 347,-56.5 278,-56.5"/>
<text text-anchor="middle" x="312.5" y="-63.5" font-family="Helvetica,sans-Serif" font-size="10.00">type_traits</text>
</a>
</g>
</g>
<!-- Node7&#45;&gt;Node13 -->
<g id="edge12" class="edge">
<title>Node7&#45;&gt;Node13</title>
<path fill="none" stroke="midnightblue" d="M331.35,-117.98C328.18,-109.4 323.2,-95.93 319.15,-84.98"/>
<polygon fill="midnightblue" stroke="midnightblue" points="322.4,-83.67 315.65,-75.51 315.83,-86.1 322.4,-83.67"/>
</g>
<!-- Node9 -->
<g id="node9" class="node">
<title>Node9</title>
<g id="a_node9"><a xlink:title=" ">
<polygon fill="white" stroke="#bfbfbf" points="382.5,-0.5 382.5,-19.5 438.5,-19.5 438.5,-0.5 382.5,-0.5"/>
<text text-anchor="middle" x="410.5" y="-7.5" font-family="Helvetica,sans-Serif" font-size="10.00">sstream</text>
</a>
</g>
</g>
<!-- Node8&#45;&gt;Node9 -->
<g id="edge8" class="edge">
<title>Node8&#45;&gt;Node9</title>
<path fill="none" stroke="midnightblue" d="M410.5,-56.08C410.5,-49.01 410.5,-38.86 410.5,-29.99"/>
<polygon fill="midnightblue" stroke="midnightblue" points="414,-29.75 410.5,-19.75 407,-29.75 414,-29.75"/>
</g>
<!-- Node10 -->
<g id="node10" class="node">
<title>Node10</title>
<g id="a_node10"><a xlink:title=" ">
<polygon fill="white" stroke="#bfbfbf" points="457,-0.5 457,-19.5 522,-19.5 522,-0.5 457,-0.5"/>
<text text-anchor="middle" x="489.5" y="-7.5" font-family="Helvetica,sans-Serif" font-size="10.00">stdexcept</text>
</a>
</g>
</g>
<!-- Node8&#45;&gt;Node10 -->
<g id="edge9" class="edge">
<title>Node8&#45;&gt;Node10</title>
<path fill="none" stroke="midnightblue" d="M423.19,-56.32C435.4,-47.98 454.08,-35.21 468.5,-25.35"/>
<polygon fill="midnightblue" stroke="midnightblue" points="470.56,-28.19 476.84,-19.65 466.61,-22.41 470.56,-28.19"/>
</g>
<!-- Node11 -->
<g id="node11" class="node">
<title>Node11</title>
<g id="a_node11"><a xlink:title=" ">
<polygon fill="white" stroke="#bfbfbf" points="320.5,-0.5 320.5,-19.5 364.5,-19.5 364.5,-0.5 320.5,-0.5"/>
<text text-anchor="middle" x="342.5" y="-7.5" font-family="Helvetica,sans-Serif" font-size="10.00">string</text>
</a>
</g>
</g>
<!-- Node8&#45;&gt;Node11 -->
<g id="edge10" class="edge">
<title>Node8&#45;&gt;Node11</title>
<path fill="none" stroke="midnightblue" d="M399.57,-56.32C389.33,-48.18 373.78,-35.84 361.5,-26.09"/>
<polygon fill="midnightblue" stroke="midnightblue" points="363.63,-23.31 353.62,-19.83 359.28,-28.79 363.63,-23.31"/>
</g>
<!-- Node14&#45;&gt;Node3 -->
<g id="edge15" class="edge">
<title>Node14&#45;&gt;Node3</title>
<path fill="none" stroke="midnightblue" d="M145.5,-56.08C145.5,-49.01 145.5,-38.86 145.5,-29.99"/>
<polygon fill="midnightblue" stroke="midnightblue" points="149,-29.75 145.5,-19.75 142,-29.75 149,-29.75"/>
</g>
<!-- Node14&#45;&gt;Node11 -->
<g id="edge14" class="edge">
<title>Node14&#45;&gt;Node11</title>
<path fill="none" stroke="midnightblue" d="M176.72,-56.44C213.31,-46.41 273.64,-29.88 310.55,-19.76"/>
<polygon fill="midnightblue" stroke="midnightblue" points="311.58,-23.11 320.3,-17.09 309.73,-16.35 311.58,-23.11"/>
</g>
<!-- Node15&#45;&gt;Node4 -->
<g id="edge20" class="edge">
<title>Node15&#45;&gt;Node4</title>
<path fill="none" stroke="midnightblue" d="M579.18,-117.98C564.12,-108.34 539.38,-92.52 521.46,-81.05"/>
<polygon fill="midnightblue" stroke="midnightblue" points="523.11,-77.95 512.8,-75.51 519.34,-83.85 523.11,-77.95"/>
</g>
<!-- Node15&#45;&gt;Node8 -->
<g id="edge28" class="edge">
<title>Node15&#45;&gt;Node8</title>
<path fill="none" stroke="midnightblue" d="M566.42,-117.98C534.93,-107.68 481.8,-90.31 446.44,-78.75"/>
<polygon fill="midnightblue" stroke="midnightblue" points="447.12,-75.29 436.53,-75.51 444.95,-81.94 447.12,-75.29"/>
</g>
<!-- Node16 -->
<g id="node16" class="node">
<title>Node16</title>
<g id="a_node16"><a xlink:title=" ">
<polygon fill="white" stroke="#bfbfbf" points="542.5,-56.5 542.5,-75.5 584.5,-75.5 584.5,-56.5 542.5,-56.5"/>
<text text-anchor="middle" x="563.5" y="-63.5" font-family="Helvetica,sans-Serif" font-size="10.00">array</text>
</a>
</g>
</g>
<!-- Node15&#45;&gt;Node16 -->
<g id="edge17" class="edge">
<title>Node15&#45;&gt;Node16</title>
<path fill="none" stroke="midnightblue" d="M588.35,-117.98C584.12,-109.32 577.46,-95.65 572.1,-84.65"/>
<polygon fill="midnightblue" stroke="midnightblue" points="575.17,-82.96 567.65,-75.51 568.88,-86.03 575.17,-82.96"/>
</g>
<!-- Node17 -->
<g id="node17" class="node">
<title>Node17</title>
<g id="a_node17"><a xlink:title=" ">
<polygon fill="white" stroke="#bfbfbf" points="603,-56.5 603,-75.5 668,-75.5 668,-56.5 603,-56.5"/>
<text text-anchor="middle" x="635.5" y="-63.5" font-family="Helvetica,sans-Serif" font-size="10.00">functional</text>
</a>
</g>
</g>
<!-- Node15&#45;&gt;Node17 -->
<g id="edge18" class="edge">
<title>Node15&#45;&gt;Node17</title>
<path fill="none" stroke="midnightblue" d="M598.66,-117.98C605.11,-109.05 615.4,-94.81 623.47,-83.64"/>
<polygon fill="midnightblue" stroke="midnightblue" points="626.33,-85.66 629.35,-75.51 620.66,-81.56 626.33,-85.66"/>
</g>
<!-- Node18 -->
<g id="node18" class="node">
<title>Node18</title>
<g id="a_node18"><a xlink:title=" ">
<polygon fill="white" stroke="#bfbfbf" points="686,-56.5 686,-75.5 739,-75.5 739,-56.5 686,-56.5"/>
<text text-anchor="middle" x="712.5" y="-63.5" font-family="Helvetica,sans-Serif" font-size="10.00">stdint.h</text>
</a>
</g>
</g>
<!-- Node15&#45;&gt;Node18 -->
<g id="edge19" class="edge">
<title>Node15&#45;&gt;Node18</title>
<path fill="none" stroke="midnightblue" d="M609.69,-117.98C629.74,-108.03 663.1,-91.49 686.36,-79.96"/>
<polygon fill="midnightblue" stroke="midnightblue" points="687.93,-83.09 695.34,-75.51 684.82,-76.82 687.93,-83.09"/>
</g>
<!-- Node19 -->
<g id="node19" class="node">
<title>Node19</title>
<g id="a_node19"><a xlink:href="_backend_id_8hpp.html" target="_top" xlink:title=" ">
<polygon fill="white" stroke="black" points="869.5,-56.5 869.5,-75.5 957.5,-75.5 957.5,-56.5 869.5,-56.5"/>
<text text-anchor="middle" x="913.5" y="-63.5" font-family="Helvetica,sans-Serif" font-size="10.00">BackendId.hpp</text>
</a>
</g>
</g>
<!-- Node15&#45;&gt;Node19 -->
<g id="edge21" class="edge">
<title>Node15&#45;&gt;Node19</title>
<path fill="none" stroke="midnightblue" d="M638.49,-117.98C696.87,-107.15 797.42,-88.52 859.42,-77.02"/>
<polygon fill="midnightblue" stroke="midnightblue" points="860.2,-80.44 869.4,-75.17 858.93,-73.56 860.2,-80.44"/>
</g>
<!-- Node23 -->
<g id="node23" class="node">
<title>Node23</title>
<g id="a_node23"><a xlink:href="_deprecated_8hpp.html" target="_top" xlink:title=" ">
<polygon fill="white" stroke="black" points="757.5,-56.5 757.5,-75.5 851.5,-75.5 851.5,-56.5 757.5,-56.5"/>
<text text-anchor="middle" x="804.5" y="-63.5" font-family="Helvetica,sans-Serif" font-size="10.00">Deprecated.hpp</text>
</a>
</g>
</g>
<!-- Node15&#45;&gt;Node23 -->
<g id="edge29" class="edge">
<title>Node15&#45;&gt;Node23</title>
<path fill="none" stroke="midnightblue" d="M622.87,-117.98C660.11,-107.53 723.31,-89.79 764.48,-78.23"/>
<polygon fill="midnightblue" stroke="midnightblue" points="765.5,-81.58 774.18,-75.51 763.61,-74.84 765.5,-81.58"/>
</g>
<!-- Node19&#45;&gt;Node3 -->
<g id="edge27" class="edge">
<title>Node19&#45;&gt;Node3</title>
<path fill="none" stroke="midnightblue" d="M869.3,-57.14C866.33,-56.72 863.37,-56.33 860.5,-56 792.45,-48.1 312.01,-20.47 179.35,-12.92"/>
<polygon fill="midnightblue" stroke="midnightblue" points="179.19,-9.41 169.01,-12.33 178.79,-16.39 179.19,-9.41"/>
</g>
<!-- Node19&#45;&gt;Node5 -->
<g id="edge22" class="edge">
<title>Node19&#45;&gt;Node5</title>
<path fill="none" stroke="midnightblue" d="M927.96,-56.32C942,-47.9 963.55,-34.97 980.04,-25.07"/>
<polygon fill="midnightblue" stroke="midnightblue" points="982.3,-27.8 989.08,-19.65 978.7,-21.8 982.3,-27.8"/>
</g>
<!-- Node19&#45;&gt;Node11 -->
<g id="edge25" class="edge">
<title>Node19&#45;&gt;Node11</title>
<path fill="none" stroke="midnightblue" d="M869.3,-57.17C866.33,-56.75 863.37,-56.35 860.5,-56 648.31,-30.2 588.89,-57.61 374.71,-19.84"/>
<polygon fill="midnightblue" stroke="midnightblue" points="375.18,-16.37 364.72,-18.05 373.95,-23.26 375.18,-16.37"/>
</g>
<!-- Node20 -->
<g id="node20" class="node">
<title>Node20</title>
<g id="a_node20"><a xlink:title=" ">
<polygon fill="white" stroke="#bfbfbf" points="745,-0.5 745,-19.5 802,-19.5 802,-0.5 745,-0.5"/>
<text text-anchor="middle" x="773.5" y="-7.5" font-family="Helvetica,sans-Serif" font-size="10.00">ostream</text>
</a>
</g>
</g>
<!-- Node19&#45;&gt;Node20 -->
<g id="edge23" class="edge">
<title>Node19&#45;&gt;Node20</title>
<path fill="none" stroke="midnightblue" d="M891.32,-56.44C868.07,-47.48 831.35,-33.31 805.08,-23.18"/>
<polygon fill="midnightblue" stroke="midnightblue" points="806.17,-19.85 795.58,-19.52 803.65,-26.38 806.17,-19.85"/>
</g>
<!-- Node21 -->
<g id="node21" class="node">
<title>Node21</title>
<g id="a_node21"><a xlink:title=" ">
<polygon fill="white" stroke="#bfbfbf" points="820.5,-0.5 820.5,-19.5 852.5,-19.5 852.5,-0.5 820.5,-0.5"/>
<text text-anchor="middle" x="836.5" y="-7.5" font-family="Helvetica,sans-Serif" font-size="10.00">set</text>
</a>
</g>
</g>
<!-- Node19&#45;&gt;Node21 -->
<g id="edge24" class="edge">
<title>Node19&#45;&gt;Node21</title>
<path fill="none" stroke="midnightblue" d="M901.13,-56.32C889.34,-48.06 871.37,-35.45 857.36,-25.63"/>
<polygon fill="midnightblue" stroke="midnightblue" points="859.04,-22.53 848.84,-19.65 855.02,-28.26 859.04,-22.53"/>
</g>
<!-- Node22 -->
<g id="node22" class="node">
<title>Node22</title>
<g id="a_node22"><a xlink:title=" ">
<polygon fill="white" stroke="#bfbfbf" points="870.5,-0.5 870.5,-19.5 956.5,-19.5 956.5,-0.5 870.5,-0.5"/>
<text text-anchor="middle" x="913.5" y="-7.5" font-family="Helvetica,sans-Serif" font-size="10.00">unordered_set</text>
</a>
</g>
</g>
<!-- Node19&#45;&gt;Node22 -->
<g id="edge26" class="edge">
<title>Node19&#45;&gt;Node22</title>
<path fill="none" stroke="midnightblue" d="M913.5,-56.08C913.5,-49.01 913.5,-38.86 913.5,-29.99"/>
<polygon fill="midnightblue" stroke="midnightblue" points="917,-29.75 913.5,-19.75 910,-29.75 917,-29.75"/>
</g>
</g>
</svg>
