<?xml version="1.0" encoding="UTF-8" standalone="no"?>
<!DOCTYPE svg PUBLIC "-//W3C//DTD SVG 1.1//EN"
 "http://www.w3.org/Graphics/SVG/1.1/DTD/svg11.dtd">
<!-- Generated by graphviz version 2.43.0 (0)
 -->
<!-- Title: src/backends/reference/RefLayerSupport.cpp Pages: 1 -->
<svg width="1929pt" height="520pt"
 viewBox="0.00 0.00 1929.00 520.00" xmlns="http://www.w3.org/2000/svg" xmlns:xlink="http://www.w3.org/1999/xlink">
<g id="graph0" class="graph" transform="scale(1 1) rotate(0) translate(4 516)">
<title>src/backends/reference/RefLayerSupport.cpp</title>
<polygon fill="white" stroke="transparent" points="-4,4 -4,-516 1925,-516 1925,4 -4,4"/>
<!-- Node1 -->
<g id="node1" class="node">
<title>Node1</title>
<g id="a_node1"><a xlink:title=" ">
<polygon fill="#bfbfbf" stroke="black" points="1179.5,-481.5 1179.5,-511.5 1308.5,-511.5 1308.5,-481.5 1179.5,-481.5"/>
<text text-anchor="start" x="1187.5" y="-499.5" font-family="Helvetica,sans-Serif" font-size="10.00">src/backends/reference</text>
<text text-anchor="middle" x="1244" y="-488.5" font-family="Helvetica,sans-Serif" font-size="10.00">/RefLayerSupport.cpp</text>
</a>
</g>
</g>
<!-- Node2 -->
<g id="node2" class="node">
<title>Node2</title>
<g id="a_node2"><a xlink:href="_ref_layer_support_8hpp.html" target="_top" xlink:title=" ">
<polygon fill="white" stroke="black" points="678.5,-420 678.5,-439 797.5,-439 797.5,-420 678.5,-420"/>
<text text-anchor="middle" x="738" y="-427" font-family="Helvetica,sans-Serif" font-size="10.00">RefLayerSupport.hpp</text>
</a>
</g>
</g>
<!-- Node1&#45;&gt;Node2 -->
<g id="edge1" class="edge">
<title>Node1&#45;&gt;Node2</title>
<path fill="none" stroke="midnightblue" d="M1179.4,-487.2C1083.93,-474.94 905.9,-452.07 807.63,-439.44"/>
<polygon fill="midnightblue" stroke="midnightblue" points="807.86,-435.95 797.5,-438.14 806.97,-442.89 807.86,-435.95"/>
</g>
<!-- Node16 -->
<g id="node16" class="node">
<title>Node16</title>
<g id="a_node16"><a xlink:href="_types_8hpp.html" target="_top" xlink:title=" ">
<polygon fill="white" stroke="black" points="776.5,-118 776.5,-137 841.5,-137 841.5,-118 776.5,-118"/>
<text text-anchor="middle" x="809" y="-125" font-family="Helvetica,sans-Serif" font-size="10.00">Types.hpp</text>
</a>
</g>
</g>
<!-- Node1&#45;&gt;Node16 -->
<g id="edge63" class="edge">
<title>Node1&#45;&gt;Node16</title>
<path fill="none" stroke="midnightblue" d="M1179.4,-483.09C1084.1,-462.9 917,-419.52 917,-363.5 917,-363.5 917,-363.5 917,-300 917,-242.18 863.61,-249.25 835,-199 825.54,-182.38 818.38,-161.67 814,-147.01"/>
<polygon fill="midnightblue" stroke="midnightblue" points="817.3,-145.8 811.19,-137.14 810.56,-147.72 817.3,-145.8"/>
</g>
<!-- Node17 -->
<g id="node17" class="node">
<title>Node17</title>
<g id="a_node17"><a xlink:title=" ">
<polygon fill="white" stroke="#bfbfbf" points="1020,-56.5 1020,-75.5 1062,-75.5 1062,-56.5 1020,-56.5"/>
<text text-anchor="middle" x="1041" y="-63.5" font-family="Helvetica,sans-Serif" font-size="10.00">array</text>
</a>
</g>
</g>
<!-- Node1&#45;&gt;Node17 -->
<g id="edge83" class="edge">
<title>Node1&#45;&gt;Node17</title>
<path fill="none" stroke="midnightblue" d="M1247.4,-481.34C1252.86,-457.27 1263,-406.8 1263,-363.5 1263,-363.5 1263,-363.5 1263,-244 1263,-184.96 1316.01,-157.19 1278,-112 1249.65,-78.29 1131.01,-85.69 1072.15,-75.71"/>
<polygon fill="midnightblue" stroke="midnightblue" points="1072.71,-72.25 1062.22,-73.71 1071.33,-79.11 1072.71,-72.25"/>
</g>
<!-- Node26 -->
<g id="node26" class="node">
<title>Node26</title>
<g id="a_node26"><a xlink:title=" ">
<polygon fill="white" stroke="#bfbfbf" points="198.5,-0.5 198.5,-19.5 245.5,-19.5 245.5,-0.5 198.5,-0.5"/>
<text text-anchor="middle" x="222" y="-7.5" font-family="Helvetica,sans-Serif" font-size="10.00">vector</text>
</a>
</g>
</g>
<!-- Node1&#45;&gt;Node26 -->
<g id="edge84" class="edge">
<title>Node1&#45;&gt;Node26</title>
<path fill="none" stroke="midnightblue" d="M1179.3,-495.5C923.95,-494.65 0,-483.29 0,-363.5 0,-363.5 0,-363.5 0,-126.5 0,-90.69 10.57,-77.76 39,-56 82.91,-22.39 148.6,-13.55 188.18,-11.41"/>
<polygon fill="midnightblue" stroke="midnightblue" points="188.52,-14.9 198.37,-10.98 188.23,-7.91 188.52,-14.9"/>
</g>
<!-- Node35 -->
<g id="node35" class="node">
<title>Node35</title>
<g id="a_node35"><a xlink:href="_types_utils_8hpp.html" target="_top" xlink:title=" ">
<polygon fill="white" stroke="black" points="1335,-235.5 1335,-254.5 1457,-254.5 1457,-235.5 1335,-235.5"/>
<text text-anchor="middle" x="1396" y="-242.5" font-family="Helvetica,sans-Serif" font-size="10.00">armnn/TypesUtils.hpp</text>
</a>
</g>
</g>
<!-- Node1&#45;&gt;Node35 -->
<g id="edge53" class="edge">
<title>Node1&#45;&gt;Node35</title>
<path fill="none" stroke="midnightblue" d="M1253.4,-481.45C1260.08,-471.37 1269.23,-457.43 1277,-445 1318.38,-378.83 1365.33,-298.76 1385.68,-263.79"/>
<polygon fill="midnightblue" stroke="midnightblue" points="1388.91,-265.21 1390.9,-254.8 1382.85,-261.69 1388.91,-265.21"/>
</g>
<!-- Node37 -->
<g id="node37" class="node">
<title>Node37</title>
<g id="a_node37"><a xlink:href="_ignore_unused_8hpp.html" target="_top" xlink:title=" ">
<polygon fill="white" stroke="black" points="1063.5,-179.5 1063.5,-198.5 1234.5,-198.5 1234.5,-179.5 1063.5,-179.5"/>
<text text-anchor="middle" x="1149" y="-186.5" font-family="Helvetica,sans-Serif" font-size="10.00">armnn/utility/IgnoreUnused.hpp</text>
</a>
</g>
</g>
<!-- Node1&#45;&gt;Node37 -->
<g id="edge64" class="edge">
<title>Node1&#45;&gt;Node37</title>
<path fill="none" stroke="midnightblue" d="M1240.6,-481.34C1235.14,-457.27 1225,-406.8 1225,-363.5 1225,-363.5 1225,-363.5 1225,-300 1225,-260.28 1191.04,-224.5 1168.52,-205.15"/>
<polygon fill="midnightblue" stroke="midnightblue" points="1170.48,-202.24 1160.54,-198.57 1166.02,-207.63 1170.48,-202.24"/>
</g>
<!-- Node38 -->
<g id="node38" class="node">
<title>Node38</title>
<g id="a_node38"><a xlink:href="_numeric_cast_8hpp.html" target="_top" xlink:title=" ">
<polygon fill="white" stroke="black" points="1718.5,-118 1718.5,-137 1885.5,-137 1885.5,-118 1718.5,-118"/>
<text text-anchor="middle" x="1802" y="-125" font-family="Helvetica,sans-Serif" font-size="10.00">armnn/utility/NumericCast.hpp</text>
</a>
</g>
</g>
<!-- Node1&#45;&gt;Node38 -->
<g id="edge65" class="edge">
<title>Node1&#45;&gt;Node38</title>
<path fill="none" stroke="midnightblue" d="M1308.81,-490.66C1399.58,-483.2 1559.45,-467.37 1613,-445 1667.83,-422.09 1719,-422.93 1719,-363.5 1719,-363.5 1719,-363.5 1719,-244 1719,-201.15 1757.14,-163.32 1781.71,-143.39"/>
<polygon fill="midnightblue" stroke="midnightblue" points="1784.03,-146.03 1789.75,-137.11 1779.72,-140.51 1784.03,-146.03"/>
</g>
<!-- Node42 -->
<g id="node42" class="node">
<title>Node42</title>
<g id="a_node42"><a xlink:href="_polymorphic_downcast_8hpp.html" target="_top" xlink:title=" ">
<polygon fill="white" stroke="black" points="1519.5,-112.5 1519.5,-142.5 1662.5,-142.5 1662.5,-112.5 1519.5,-112.5"/>
<text text-anchor="start" x="1527.5" y="-130.5" font-family="Helvetica,sans-Serif" font-size="10.00">armnn/utility/Polymorphic</text>
<text text-anchor="middle" x="1591" y="-119.5" font-family="Helvetica,sans-Serif" font-size="10.00">Downcast.hpp</text>
</a>
</g>
</g>
<!-- Node1&#45;&gt;Node42 -->
<g id="edge70" class="edge">
<title>Node1&#45;&gt;Node42</title>
<path fill="none" stroke="midnightblue" d="M1308.95,-489.5C1430.69,-476.45 1681,-440.28 1681,-363.5 1681,-363.5 1681,-363.5 1681,-244 1681,-203.86 1646.76,-169.29 1620.51,-148.7"/>
<polygon fill="midnightblue" stroke="midnightblue" points="1622.42,-145.75 1612.33,-142.51 1618.2,-151.33 1622.42,-145.75"/>
</g>
<!-- Node43 -->
<g id="node43" class="node">
<title>Node43</title>
<g id="a_node43"><a xlink:href="_layer_support_common_8hpp.html" target="_top" xlink:title=" ">
<polygon fill="white" stroke="black" points="951,-235.5 951,-254.5 1097,-254.5 1097,-235.5 951,-235.5"/>
<text text-anchor="middle" x="1024" y="-242.5" font-family="Helvetica,sans-Serif" font-size="10.00">LayerSupportCommon.hpp</text>
</a>
</g>
</g>
<!-- Node1&#45;&gt;Node43 -->
<g id="edge75" class="edge">
<title>Node1&#45;&gt;Node43</title>
<path fill="none" stroke="midnightblue" d="M1231.54,-481.37C1193.55,-438.28 1079.27,-308.68 1038.58,-262.54"/>
<polygon fill="midnightblue" stroke="midnightblue" points="1041.11,-260.12 1031.87,-254.93 1035.86,-264.75 1041.11,-260.12"/>
</g>
<!-- Node44 -->
<g id="node44" class="node">
<title>Node44</title>
<g id="a_node44"><a xlink:href="_layer_support_rules_8hpp.html" target="_top" xlink:title=" ">
<polygon fill="white" stroke="black" points="1747,-414.5 1747,-444.5 1921,-444.5 1921,-414.5 1747,-414.5"/>
<text text-anchor="start" x="1755" y="-432.5" font-family="Helvetica,sans-Serif" font-size="10.00">backendsCommon/LayerSupport</text>
<text text-anchor="middle" x="1834" y="-421.5" font-family="Helvetica,sans-Serif" font-size="10.00">Rules.hpp</text>
</a>
</g>
</g>
<!-- Node1&#45;&gt;Node44 -->
<g id="edge81" class="edge">
<title>Node1&#45;&gt;Node44</title>
<path fill="none" stroke="midnightblue" d="M1308.56,-489.66C1402.22,-480.99 1581.17,-463.73 1733,-445 1734.29,-444.84 1735.58,-444.68 1736.88,-444.52"/>
<polygon fill="midnightblue" stroke="midnightblue" points="1737.51,-447.96 1746.98,-443.22 1736.62,-441.02 1737.51,-447.96"/>
</g>
<!-- Node3 -->
<g id="node3" class="node">
<title>Node3</title>
<g id="a_node3"><a xlink:href="_layer_support_base_8hpp.html" target="_top" xlink:title=" ">
<polygon fill="white" stroke="black" points="561,-347.5 561,-377.5 735,-377.5 735,-347.5 561,-347.5"/>
<text text-anchor="start" x="569" y="-365.5" font-family="Helvetica,sans-Serif" font-size="10.00">backendsCommon/LayerSupport</text>
<text text-anchor="middle" x="648" y="-354.5" font-family="Helvetica,sans-Serif" font-size="10.00">Base.hpp</text>
</a>
</g>
</g>
<!-- Node2&#45;&gt;Node3 -->
<g id="edge2" class="edge">
<title>Node2&#45;&gt;Node3</title>
<path fill="none" stroke="midnightblue" d="M725.86,-419.73C713.11,-410.53 692.63,-395.73 675.87,-383.63"/>
<polygon fill="midnightblue" stroke="midnightblue" points="677.66,-380.61 667.51,-377.59 673.57,-386.28 677.66,-380.61"/>
</g>
<!-- Node4 -->
<g id="node4" class="node">
<title>Node4</title>
<g id="a_node4"><a xlink:href="_i_layer_support_8hpp.html" target="_top" xlink:title=" ">
<polygon fill="white" stroke="black" points="485,-291.5 485,-310.5 673,-310.5 673,-291.5 485,-291.5"/>
<text text-anchor="middle" x="579" y="-298.5" font-family="Helvetica,sans-Serif" font-size="10.00">armnn/backends/ILayerSupport.hpp</text>
</a>
</g>
</g>
<!-- Node3&#45;&gt;Node4 -->
<g id="edge3" class="edge">
<title>Node3&#45;&gt;Node4</title>
<path fill="none" stroke="midnightblue" d="M631.65,-347.4C621.1,-338.31 607.4,-326.49 596.62,-317.19"/>
<polygon fill="midnightblue" stroke="midnightblue" points="598.9,-314.54 589.04,-310.66 594.33,-319.84 598.9,-314.54"/>
</g>
<!-- Node5 -->
<g id="node5" class="node">
<title>Node5</title>
<g id="a_node5"><a xlink:href="_deprecated_8hpp.html" target="_top" xlink:title=" ">
<polygon fill="white" stroke="black" points="66,-56.5 66,-75.5 194,-75.5 194,-56.5 66,-56.5"/>
<text text-anchor="middle" x="130" y="-63.5" font-family="Helvetica,sans-Serif" font-size="10.00">armnn/Deprecated.hpp</text>
</a>
</g>
</g>
<!-- Node4&#45;&gt;Node5 -->
<g id="edge4" class="edge">
<title>Node4&#45;&gt;Node5</title>
<path fill="none" stroke="midnightblue" d="M484.68,-295.6C402.39,-290.22 290.47,-278.72 253,-255 187.91,-213.8 150.04,-124.27 136.14,-85.51"/>
<polygon fill="midnightblue" stroke="midnightblue" points="139.29,-83.92 132.71,-75.61 132.67,-86.2 139.29,-83.92"/>
</g>
<!-- Node6 -->
<g id="node6" class="node">
<title>Node6</title>
<g id="a_node6"><a xlink:href="_descriptors_8hpp.html" target="_top" xlink:title=" ">
<polygon fill="white" stroke="black" points="293,-235.5 293,-254.5 421,-254.5 421,-235.5 293,-235.5"/>
<text text-anchor="middle" x="357" y="-242.5" font-family="Helvetica,sans-Serif" font-size="10.00">armnn/Descriptors.hpp</text>
</a>
</g>
</g>
<!-- Node4&#45;&gt;Node6 -->
<g id="edge5" class="edge">
<title>Node4&#45;&gt;Node6</title>
<path fill="none" stroke="midnightblue" d="M543.82,-291.44C505.42,-282.1 443.82,-267.12 401.94,-256.93"/>
<polygon fill="midnightblue" stroke="midnightblue" points="402.56,-253.48 392.01,-254.52 400.9,-260.28 402.56,-253.48"/>
</g>
<!-- Node13 -->
<g id="node13" class="node">
<title>Node13</title>
<g id="a_node13"><a xlink:href="_optional_8hpp.html" target="_top" xlink:title=" ">
<polygon fill="white" stroke="black" points="1190.5,-118 1190.5,-137 1269.5,-137 1269.5,-118 1190.5,-118"/>
<text text-anchor="middle" x="1230" y="-125" font-family="Helvetica,sans-Serif" font-size="10.00">Optional.hpp</text>
</a>
</g>
</g>
<!-- Node4&#45;&gt;Node13 -->
<g id="edge45" class="edge">
<title>Node4&#45;&gt;Node13</title>
<path fill="none" stroke="midnightblue" d="M673.18,-300.48C779.68,-299.07 957.59,-290.78 1106,-255 1169.95,-239.58 1206.33,-253.61 1243,-199 1253.49,-183.39 1247.06,-161.64 1240.04,-146.44"/>
<polygon fill="midnightblue" stroke="midnightblue" points="1242.94,-144.44 1235.28,-137.12 1236.71,-147.62 1242.94,-144.44"/>
</g>
<!-- Node18 -->
<g id="node18" class="node">
<title>Node18</title>
<g id="a_node18"><a xlink:title=" ">
<polygon fill="white" stroke="#bfbfbf" points="470.5,-56.5 470.5,-75.5 535.5,-75.5 535.5,-56.5 470.5,-56.5"/>
<text text-anchor="middle" x="503" y="-63.5" font-family="Helvetica,sans-Serif" font-size="10.00">functional</text>
</a>
</g>
</g>
<!-- Node4&#45;&gt;Node18 -->
<g id="edge50" class="edge">
<title>Node4&#45;&gt;Node18</title>
<path fill="none" stroke="midnightblue" d="M484.69,-292.96C411.66,-286.16 317.49,-274.05 284,-255 256,-239.07 248.86,-229.32 238,-199 223.53,-158.58 244.68,-136.42 280,-112 308.67,-92.17 403.82,-78.29 460.15,-71.59"/>
<polygon fill="midnightblue" stroke="midnightblue" points="460.66,-75.05 470.19,-70.42 459.85,-68.1 460.66,-75.05"/>
</g>
<!-- Node22 -->
<g id="node22" class="node">
<title>Node22</title>
<g id="a_node22"><a xlink:title=" ">
<polygon fill="white" stroke="#bfbfbf" points="1318,-0.5 1318,-19.5 1376,-19.5 1376,-0.5 1318,-0.5"/>
<text text-anchor="middle" x="1347" y="-7.5" font-family="Helvetica,sans-Serif" font-size="10.00">memory</text>
</a>
</g>
</g>
<!-- Node4&#45;&gt;Node22 -->
<g id="edge51" class="edge">
<title>Node4&#45;&gt;Node22</title>
<path fill="none" stroke="midnightblue" d="M666.38,-291.49C720.85,-284.75 791.95,-273.35 853,-255 911.3,-237.48 923.61,-226.34 978,-199 1023.51,-176.12 1035.19,-170.61 1078,-143 1132.75,-107.68 1137.69,-85.07 1196,-56 1215.72,-46.17 1270.42,-30.89 1308.27,-20.91"/>
<polygon fill="midnightblue" stroke="midnightblue" points="1309.18,-24.29 1317.97,-18.37 1307.41,-17.52 1309.18,-24.29"/>
</g>
<!-- Node4&#45;&gt;Node26 -->
<g id="edge52" class="edge">
<title>Node4&#45;&gt;Node26</title>
<path fill="none" stroke="midnightblue" d="M484.76,-299.91C329.76,-297.19 38,-280.09 38,-190 38,-190 38,-190 38,-126.5 38,-94.05 34.09,-78.98 57,-56 91.82,-21.07 150.92,-12.53 188.13,-10.83"/>
<polygon fill="midnightblue" stroke="midnightblue" points="188.58,-14.32 198.47,-10.51 188.36,-7.32 188.58,-14.32"/>
</g>
<!-- Node31 -->
<g id="node31" class="node">
<title>Node31</title>
<g id="a_node31"><a xlink:href="_lstm_params_8hpp.html" target="_top" xlink:title=" ">
<polygon fill="white" stroke="black" points="445,-235.5 445,-254.5 577,-254.5 577,-235.5 445,-235.5"/>
<text text-anchor="middle" x="511" y="-242.5" font-family="Helvetica,sans-Serif" font-size="10.00">armnn/LstmParams.hpp</text>
</a>
</g>
</g>
<!-- Node4&#45;&gt;Node31 -->
<g id="edge42" class="edge">
<title>Node4&#45;&gt;Node31</title>
<path fill="none" stroke="midnightblue" d="M568.07,-291.32C557.83,-283.18 542.28,-270.84 530,-261.09"/>
<polygon fill="midnightblue" stroke="midnightblue" points="532.13,-258.31 522.12,-254.83 527.78,-263.79 532.13,-258.31"/>
</g>
<!-- Node33 -->
<g id="node33" class="node">
<title>Node33</title>
<g id="a_node33"><a xlink:href="_quantized_lstm_params_8hpp.html" target="_top" xlink:title=" ">
<polygon fill="white" stroke="black" points="595,-235.5 595,-254.5 777,-254.5 777,-235.5 595,-235.5"/>
<text text-anchor="middle" x="686" y="-242.5" font-family="Helvetica,sans-Serif" font-size="10.00">armnn/QuantizedLstmParams.hpp</text>
</a>
</g>
</g>
<!-- Node4&#45;&gt;Node33 -->
<g id="edge46" class="edge">
<title>Node4&#45;&gt;Node33</title>
<path fill="none" stroke="midnightblue" d="M596.19,-291.32C613.35,-282.66 639.95,-269.24 659.75,-259.25"/>
<polygon fill="midnightblue" stroke="midnightblue" points="661.5,-262.28 668.85,-254.65 658.35,-256.04 661.5,-262.28"/>
</g>
<!-- Node34 -->
<g id="node34" class="node">
<title>Node34</title>
<g id="a_node34"><a xlink:title=" ">
<polygon fill="white" stroke="#bfbfbf" points="795.5,-235.5 795.5,-254.5 844.5,-254.5 844.5,-235.5 795.5,-235.5"/>
<text text-anchor="middle" x="820" y="-242.5" font-family="Helvetica,sans-Serif" font-size="10.00">cctype</text>
</a>
</g>
</g>
<!-- Node4&#45;&gt;Node34 -->
<g id="edge49" class="edge">
<title>Node4&#45;&gt;Node34</title>
<path fill="none" stroke="midnightblue" d="M620.76,-291.49C660.52,-283.27 722.3,-270.16 785.07,-255.14"/>
<polygon fill="midnightblue" stroke="midnightblue" points="786.25,-258.46 795.15,-252.72 784.61,-251.65 786.25,-258.46"/>
</g>
<!-- Node6&#45;&gt;Node5 -->
<g id="edge6" class="edge">
<title>Node6&#45;&gt;Node5</title>
<path fill="none" stroke="midnightblue" d="M292.97,-242.83C254.71,-238.87 207.58,-227.81 176,-199 143.22,-169.1 133.8,-114.59 131.09,-85.87"/>
<polygon fill="midnightblue" stroke="midnightblue" points="134.56,-85.3 130.31,-75.59 127.58,-85.83 134.56,-85.3"/>
</g>
<!-- Node7 -->
<g id="node7" class="node">
<title>Node7</title>
<g id="a_node7"><a xlink:href="_descriptors_fwd_8hpp.html" target="_top" xlink:title=" ">
<polygon fill="white" stroke="black" points="510.5,-179.5 510.5,-198.5 623.5,-198.5 623.5,-179.5 510.5,-179.5"/>
<text text-anchor="middle" x="567" y="-186.5" font-family="Helvetica,sans-Serif" font-size="10.00">DescriptorsFwd.hpp</text>
</a>
</g>
</g>
<!-- Node6&#45;&gt;Node7 -->
<g id="edge7" class="edge">
<title>Node6&#45;&gt;Node7</title>
<path fill="none" stroke="midnightblue" d="M390.28,-235.44C426.45,-226.14 484.38,-211.25 523.98,-201.06"/>
<polygon fill="midnightblue" stroke="midnightblue" points="525.07,-204.4 533.88,-198.52 523.32,-197.62 525.07,-204.4"/>
</g>
<!-- Node8 -->
<g id="node8" class="node">
<title>Node8</title>
<g id="a_node8"><a xlink:href="_tensor_8hpp.html" target="_top" xlink:title=" ">
<polygon fill="white" stroke="black" points="901,-179.5 901,-198.5 969,-198.5 969,-179.5 901,-179.5"/>
<text text-anchor="middle" x="935" y="-186.5" font-family="Helvetica,sans-Serif" font-size="10.00">Tensor.hpp</text>
</a>
</g>
</g>
<!-- Node6&#45;&gt;Node8 -->
<g id="edge8" class="edge">
<title>Node6&#45;&gt;Node8</title>
<path fill="none" stroke="midnightblue" d="M421.23,-236.56C426.22,-236.02 431.19,-235.49 436,-235 603.76,-217.88 803.61,-200.88 890.73,-193.64"/>
<polygon fill="midnightblue" stroke="midnightblue" points="891.11,-197.12 900.79,-192.81 890.54,-190.14 891.11,-197.12"/>
</g>
<!-- Node9 -->
<g id="node9" class="node">
<title>Node9</title>
<g id="a_node9"><a xlink:href="_exceptions_8hpp.html" target="_top" xlink:title=" ">
<polygon fill="white" stroke="black" points="898.5,-56.5 898.5,-75.5 989.5,-75.5 989.5,-56.5 898.5,-56.5"/>
<text text-anchor="middle" x="944" y="-63.5" font-family="Helvetica,sans-Serif" font-size="10.00">Exceptions.hpp</text>
</a>
</g>
</g>
<!-- Node6&#45;&gt;Node9 -->
<g id="edge37" class="edge">
<title>Node6&#45;&gt;Node9</title>
<path fill="none" stroke="midnightblue" d="M314.05,-235.48C274.43,-225.66 224.86,-207.16 247,-179 325.02,-79.77 398.64,-133.64 523,-112 591.81,-100.02 790.43,-81.03 888.24,-72.04"/>
<polygon fill="midnightblue" stroke="midnightblue" points="888.59,-75.52 898.23,-71.12 887.95,-68.55 888.59,-75.52"/>
</g>
<!-- Node6&#45;&gt;Node16 -->
<g id="edge36" class="edge">
<title>Node6&#45;&gt;Node16</title>
<path fill="none" stroke="midnightblue" d="M372.46,-235.39C398.27,-221.38 452.16,-193.75 501,-179 593.24,-151.15 705.95,-137.62 766.18,-131.96"/>
<polygon fill="midnightblue" stroke="midnightblue" points="766.81,-135.42 776.45,-131.02 766.17,-128.45 766.81,-135.42"/>
</g>
<!-- Node6&#45;&gt;Node26 -->
<g id="edge41" class="edge">
<title>Node6&#45;&gt;Node26</title>
<path fill="none" stroke="midnightblue" d="M298.4,-235.44C276.02,-229.12 252.45,-218.12 238,-199 199.69,-148.3 210.26,-66.47 217.62,-29.82"/>
<polygon fill="midnightblue" stroke="midnightblue" points="221.14,-30.11 219.83,-19.6 214.3,-28.63 221.14,-30.11"/>
</g>
<!-- Node28 -->
<g id="node28" class="node">
<title>Node28</title>
<g id="a_node28"><a xlink:title=" ">
<polygon fill="white" stroke="#bfbfbf" points="597.5,-118 597.5,-137 642.5,-137 642.5,-118 597.5,-118"/>
<text text-anchor="middle" x="620" y="-125" font-family="Helvetica,sans-Serif" font-size="10.00">utility</text>
</a>
</g>
</g>
<!-- Node6&#45;&gt;Node28 -->
<g id="edge40" class="edge">
<title>Node6&#45;&gt;Node28</title>
<path fill="none" stroke="midnightblue" d="M364.15,-235.43C376.26,-221.49 402.2,-193.96 430,-179 481.07,-151.52 548.05,-138.27 587.32,-132.47"/>
<polygon fill="midnightblue" stroke="midnightblue" points="587.98,-135.91 597.39,-131.05 587,-128.98 587.98,-135.91"/>
</g>
<!-- Node29 -->
<g id="node29" class="node">
<title>Node29</title>
<g id="a_node29"><a xlink:title=" ">
<polygon fill="white" stroke="#bfbfbf" points="256,-179.5 256,-198.5 306,-198.5 306,-179.5 256,-179.5"/>
<text text-anchor="middle" x="281" y="-186.5" font-family="Helvetica,sans-Serif" font-size="10.00">cstdint</text>
</a>
</g>
</g>
<!-- Node6&#45;&gt;Node29 -->
<g id="edge38" class="edge">
<title>Node6&#45;&gt;Node29</title>
<path fill="none" stroke="midnightblue" d="M344.79,-235.32C333.22,-227.11 315.62,-214.6 301.84,-204.81"/>
<polygon fill="midnightblue" stroke="midnightblue" points="303.61,-201.77 293.43,-198.83 299.56,-207.48 303.61,-201.77"/>
</g>
<!-- Node30 -->
<g id="node30" class="node">
<title>Node30</title>
<g id="a_node30"><a xlink:title=" ">
<polygon fill="white" stroke="#bfbfbf" points="324.5,-179.5 324.5,-198.5 377.5,-198.5 377.5,-179.5 324.5,-179.5"/>
<text text-anchor="middle" x="351" y="-186.5" font-family="Helvetica,sans-Serif" font-size="10.00">iterator</text>
</a>
</g>
</g>
<!-- Node6&#45;&gt;Node30 -->
<g id="edge39" class="edge">
<title>Node6&#45;&gt;Node30</title>
<path fill="none" stroke="midnightblue" d="M356.01,-235.08C355.21,-227.93 354.07,-217.64 353.08,-208.69"/>
<polygon fill="midnightblue" stroke="midnightblue" points="356.56,-208.3 351.97,-198.75 349.6,-209.08 356.56,-208.3"/>
</g>
<!-- Node8&#45;&gt;Node9 -->
<g id="edge9" class="edge">
<title>Node8&#45;&gt;Node9</title>
<path fill="none" stroke="midnightblue" d="M932.42,-179.05C928.67,-164.77 922.62,-136.01 927,-112 928.69,-102.76 932.17,-92.95 935.55,-84.85"/>
<polygon fill="midnightblue" stroke="midnightblue" points="938.76,-86.25 939.63,-75.69 932.37,-83.4 938.76,-86.25"/>
</g>
<!-- Node8&#45;&gt;Node13 -->
<g id="edge13" class="edge">
<title>Node8&#45;&gt;Node13</title>
<path fill="none" stroke="midnightblue" d="M969.13,-181.12C1021.03,-170.65 1120.09,-150.67 1180.08,-138.57"/>
<polygon fill="midnightblue" stroke="midnightblue" points="1180.97,-141.96 1190.08,-136.55 1179.59,-135.1 1180.97,-141.96"/>
</g>
<!-- Node8&#45;&gt;Node16 -->
<g id="edge17" class="edge">
<title>Node8&#45;&gt;Node16</title>
<path fill="none" stroke="midnightblue" d="M916.95,-179.48C895.8,-169.49 860.56,-152.85 836.12,-141.31"/>
<polygon fill="midnightblue" stroke="midnightblue" points="837.56,-138.11 827.02,-137.01 834.57,-144.44 837.56,-138.11"/>
</g>
<!-- Node8&#45;&gt;Node17 -->
<g id="edge32" class="edge">
<title>Node8&#45;&gt;Node17</title>
<path fill="none" stroke="midnightblue" d="M969.31,-179.87C989.49,-173.3 1013.77,-161.92 1028,-143 1040.29,-126.66 1042.54,-102.76 1042.36,-86.14"/>
<polygon fill="midnightblue" stroke="midnightblue" points="1045.85,-85.83 1041.94,-75.98 1038.85,-86.12 1045.85,-85.83"/>
</g>
<!-- Node19 -->
<g id="node19" class="node">
<title>Node19</title>
<g id="a_node19"><a xlink:title=" ">
<polygon fill="white" stroke="#bfbfbf" points="1080.5,-56.5 1080.5,-75.5 1133.5,-75.5 1133.5,-56.5 1080.5,-56.5"/>
<text text-anchor="middle" x="1107" y="-63.5" font-family="Helvetica,sans-Serif" font-size="10.00">stdint.h</text>
</a>
</g>
</g>
<!-- Node8&#45;&gt;Node19 -->
<g id="edge31" class="edge">
<title>Node8&#45;&gt;Node19</title>
<path fill="none" stroke="midnightblue" d="M969.12,-179.8C993.15,-172.83 1025.15,-161.03 1049,-143 1070.03,-127.1 1087.29,-101.68 1097.36,-84.66"/>
<polygon fill="midnightblue" stroke="midnightblue" points="1100.53,-86.18 1102.44,-75.76 1094.45,-82.71 1100.53,-86.18"/>
</g>
<!-- Node8&#45;&gt;Node26 -->
<g id="edge34" class="edge">
<title>Node8&#45;&gt;Node26</title>
<path fill="none" stroke="midnightblue" d="M931.97,-179.2C922.95,-154.58 893.74,-84.87 843,-56 791.87,-26.91 378.69,-14.76 256.14,-11.77"/>
<polygon fill="midnightblue" stroke="midnightblue" points="255.94,-8.26 245.86,-11.52 255.77,-15.26 255.94,-8.26"/>
</g>
<!-- Node27 -->
<g id="node27" class="node">
<title>Node27</title>
<g id="a_node27"><a xlink:title=" ">
<polygon fill="white" stroke="#bfbfbf" points="936.5,-118 936.5,-137 1019.5,-137 1019.5,-118 936.5,-118"/>
<text text-anchor="middle" x="978" y="-125" font-family="Helvetica,sans-Serif" font-size="10.00">initializer_list</text>
</a>
</g>
</g>
<!-- Node8&#45;&gt;Node27 -->
<g id="edge33" class="edge">
<title>Node8&#45;&gt;Node27</title>
<path fill="none" stroke="midnightblue" d="M941.16,-179.48C947.61,-170.55 957.9,-156.31 965.97,-145.14"/>
<polygon fill="midnightblue" stroke="midnightblue" points="968.83,-147.16 971.85,-137.01 963.16,-143.06 968.83,-147.16"/>
</g>
<!-- Node8&#45;&gt;Node28 -->
<g id="edge35" class="edge">
<title>Node8&#45;&gt;Node28</title>
<path fill="none" stroke="midnightblue" d="M900.99,-181.58C840.06,-170.07 713.05,-146.08 652.92,-134.72"/>
<polygon fill="midnightblue" stroke="midnightblue" points="653.32,-131.23 642.84,-132.81 652.02,-138.11 653.32,-131.23"/>
</g>
<!-- Node10 -->
<g id="node10" class="node">
<title>Node10</title>
<g id="a_node10"><a xlink:title=" ">
<polygon fill="white" stroke="#bfbfbf" points="869,-0.5 869,-19.5 925,-19.5 925,-0.5 869,-0.5"/>
<text text-anchor="middle" x="897" y="-7.5" font-family="Helvetica,sans-Serif" font-size="10.00">sstream</text>
</a>
</g>
</g>
<!-- Node9&#45;&gt;Node10 -->
<g id="edge10" class="edge">
<title>Node9&#45;&gt;Node10</title>
<path fill="none" stroke="midnightblue" d="M936.24,-56.08C929.46,-48.3 919.46,-36.8 911.24,-27.37"/>
<polygon fill="midnightblue" stroke="midnightblue" points="913.82,-25 904.62,-19.75 908.54,-29.59 913.82,-25"/>
</g>
<!-- Node11 -->
<g id="node11" class="node">
<title>Node11</title>
<g id="a_node11"><a xlink:title=" ">
<polygon fill="white" stroke="#bfbfbf" points="943.5,-0.5 943.5,-19.5 1008.5,-19.5 1008.5,-0.5 943.5,-0.5"/>
<text text-anchor="middle" x="976" y="-7.5" font-family="Helvetica,sans-Serif" font-size="10.00">stdexcept</text>
</a>
</g>
</g>
<!-- Node9&#45;&gt;Node11 -->
<g id="edge11" class="edge">
<title>Node9&#45;&gt;Node11</title>
<path fill="none" stroke="midnightblue" d="M949.28,-56.08C953.71,-48.61 960.16,-37.72 965.62,-28.52"/>
<polygon fill="midnightblue" stroke="midnightblue" points="968.73,-30.14 970.81,-19.75 962.71,-26.57 968.73,-30.14"/>
</g>
<!-- Node12 -->
<g id="node12" class="node">
<title>Node12</title>
<g id="a_node12"><a xlink:title=" ">
<polygon fill="white" stroke="#bfbfbf" points="1064,-0.5 1064,-19.5 1108,-19.5 1108,-0.5 1064,-0.5"/>
<text text-anchor="middle" x="1086" y="-7.5" font-family="Helvetica,sans-Serif" font-size="10.00">string</text>
</a>
</g>
</g>
<!-- Node9&#45;&gt;Node12 -->
<g id="edge12" class="edge">
<title>Node9&#45;&gt;Node12</title>
<path fill="none" stroke="midnightblue" d="M966.5,-56.44C990.08,-47.48 1027.32,-33.31 1053.96,-23.18"/>
<polygon fill="midnightblue" stroke="midnightblue" points="1055.5,-26.34 1063.6,-19.52 1053.01,-19.8 1055.5,-26.34"/>
</g>
<!-- Node13&#45;&gt;Node9 -->
<g id="edge14" class="edge">
<title>Node13&#45;&gt;Node9</title>
<path fill="none" stroke="midnightblue" d="M1190.23,-118.23C1139.37,-107.65 1051.2,-89.3 995.32,-77.68"/>
<polygon fill="midnightblue" stroke="midnightblue" points="995.78,-74.2 985.28,-75.59 994.36,-81.05 995.78,-74.2"/>
</g>
<!-- Node14 -->
<g id="node14" class="node">
<title>Node14</title>
<g id="a_node14"><a xlink:title=" ">
<polygon fill="white" stroke="#bfbfbf" points="1205,-56.5 1205,-75.5 1255,-75.5 1255,-56.5 1205,-56.5"/>
<text text-anchor="middle" x="1230" y="-63.5" font-family="Helvetica,sans-Serif" font-size="10.00">cstring</text>
</a>
</g>
</g>
<!-- Node13&#45;&gt;Node14 -->
<g id="edge15" class="edge">
<title>Node13&#45;&gt;Node14</title>
<path fill="none" stroke="midnightblue" d="M1230,-117.98C1230,-109.58 1230,-96.48 1230,-85.66"/>
<polygon fill="midnightblue" stroke="midnightblue" points="1233.5,-85.51 1230,-75.51 1226.5,-85.51 1233.5,-85.51"/>
</g>
<!-- Node15 -->
<g id="node15" class="node">
<title>Node15</title>
<g id="a_node15"><a xlink:title=" ">
<polygon fill="white" stroke="#bfbfbf" points="1484.5,-56.5 1484.5,-75.5 1553.5,-75.5 1553.5,-56.5 1484.5,-56.5"/>
<text text-anchor="middle" x="1519" y="-63.5" font-family="Helvetica,sans-Serif" font-size="10.00">type_traits</text>
</a>
</g>
</g>
<!-- Node13&#45;&gt;Node15 -->
<g id="edge16" class="edge">
<title>Node13&#45;&gt;Node15</title>
<path fill="none" stroke="midnightblue" d="M1269.58,-118.35C1323.13,-107.33 1418.41,-87.71 1474.43,-76.18"/>
<polygon fill="midnightblue" stroke="midnightblue" points="1475.32,-79.57 1484.41,-74.12 1473.91,-72.71 1475.32,-79.57"/>
</g>
<!-- Node16&#45;&gt;Node5 -->
<g id="edge30" class="edge">
<title>Node16&#45;&gt;Node5</title>
<path fill="none" stroke="midnightblue" d="M776.32,-123.45C744.38,-120.48 694.35,-115.86 651,-112 491.88,-97.83 305.36,-81.88 204.28,-73.29"/>
<polygon fill="midnightblue" stroke="midnightblue" points="204.44,-69.79 194.18,-72.43 203.84,-76.77 204.44,-69.79"/>
</g>
<!-- Node16&#45;&gt;Node9 -->
<g id="edge29" class="edge">
<title>Node16&#45;&gt;Node9</title>
<path fill="none" stroke="midnightblue" d="M828.34,-117.98C851.1,-107.95 889.09,-91.2 915.29,-79.65"/>
<polygon fill="midnightblue" stroke="midnightblue" points="916.95,-82.74 924.69,-75.51 914.13,-76.34 916.95,-82.74"/>
</g>
<!-- Node16&#45;&gt;Node17 -->
<g id="edge18" class="edge">
<title>Node16&#45;&gt;Node17</title>
<path fill="none" stroke="midnightblue" d="M841.75,-118.1C886.5,-106.62 966.19,-86.19 1010,-74.95"/>
<polygon fill="midnightblue" stroke="midnightblue" points="1011,-78.31 1019.81,-72.43 1009.26,-71.53 1011,-78.31"/>
</g>
<!-- Node16&#45;&gt;Node18 -->
<g id="edge19" class="edge">
<title>Node16&#45;&gt;Node18</title>
<path fill="none" stroke="midnightblue" d="M776.25,-120.13C720.58,-109.31 607.51,-87.32 545.7,-75.3"/>
<polygon fill="midnightblue" stroke="midnightblue" points="546,-71.79 535.51,-73.32 544.66,-78.67 546,-71.79"/>
</g>
<!-- Node16&#45;&gt;Node19 -->
<g id="edge20" class="edge">
<title>Node16&#45;&gt;Node19</title>
<path fill="none" stroke="midnightblue" d="M841.79,-120.77C889.73,-112.27 981.93,-95.43 1070.37,-76.04"/>
<polygon fill="midnightblue" stroke="midnightblue" points="1071.29,-79.42 1080.3,-73.85 1069.78,-72.58 1071.29,-79.42"/>
</g>
<!-- Node20 -->
<g id="node20" class="node">
<title>Node20</title>
<g id="a_node20"><a xlink:title=" ">
<polygon fill="white" stroke="#bfbfbf" points="784,-56.5 784,-75.5 834,-75.5 834,-56.5 784,-56.5"/>
<text text-anchor="middle" x="809" y="-63.5" font-family="Helvetica,sans-Serif" font-size="10.00">chrono</text>
</a>
</g>
</g>
<!-- Node16&#45;&gt;Node20 -->
<g id="edge21" class="edge">
<title>Node16&#45;&gt;Node20</title>
<path fill="none" stroke="midnightblue" d="M809,-117.98C809,-109.58 809,-96.48 809,-85.66"/>
<polygon fill="midnightblue" stroke="midnightblue" points="812.5,-85.51 809,-75.51 805.5,-85.51 812.5,-85.51"/>
</g>
<!-- Node21 -->
<g id="node21" class="node">
<title>Node21</title>
<g id="a_node21"><a xlink:href="_backend_id_8hpp.html" target="_top" xlink:title=" ">
<polygon fill="white" stroke="black" points="1291,-56.5 1291,-75.5 1379,-75.5 1379,-56.5 1291,-56.5"/>
<text text-anchor="middle" x="1335" y="-63.5" font-family="Helvetica,sans-Serif" font-size="10.00">BackendId.hpp</text>
</a>
</g>
</g>
<!-- Node16&#45;&gt;Node21 -->
<g id="edge22" class="edge">
<title>Node16&#45;&gt;Node21</title>
<path fill="none" stroke="midnightblue" d="M841.54,-122.36C865.23,-119.38 898.09,-115.32 927,-112 1076.65,-94.81 1114.39,-93.47 1264,-76 1269.4,-75.37 1275.03,-74.69 1280.65,-74"/>
<polygon fill="midnightblue" stroke="midnightblue" points="1281.21,-77.46 1290.7,-72.75 1280.35,-70.51 1281.21,-77.46"/>
</g>
<!-- Node21&#45;&gt;Node12 -->
<g id="edge26" class="edge">
<title>Node21&#45;&gt;Node12</title>
<path fill="none" stroke="midnightblue" d="M1295.55,-56.44C1246.44,-45.79 1163.52,-27.81 1118.1,-17.96"/>
<polygon fill="midnightblue" stroke="midnightblue" points="1118.72,-14.52 1108.21,-15.82 1117.24,-21.36 1118.72,-14.52"/>
</g>
<!-- Node21&#45;&gt;Node22 -->
<g id="edge23" class="edge">
<title>Node21&#45;&gt;Node22</title>
<path fill="none" stroke="midnightblue" d="M1336.98,-56.08C1338.57,-48.93 1340.86,-38.64 1342.85,-29.69"/>
<polygon fill="midnightblue" stroke="midnightblue" points="1346.3,-30.27 1345.06,-19.75 1339.47,-28.75 1346.3,-30.27"/>
</g>
<!-- Node23 -->
<g id="node23" class="node">
<title>Node23</title>
<g id="a_node23"><a xlink:title=" ">
<polygon fill="white" stroke="#bfbfbf" points="1418.5,-0.5 1418.5,-19.5 1475.5,-19.5 1475.5,-0.5 1418.5,-0.5"/>
<text text-anchor="middle" x="1447" y="-7.5" font-family="Helvetica,sans-Serif" font-size="10.00">ostream</text>
</a>
</g>
</g>
<!-- Node21&#45;&gt;Node23 -->
<g id="edge24" class="edge">
<title>Node21&#45;&gt;Node23</title>
<path fill="none" stroke="midnightblue" d="M1352.99,-56.32C1371.04,-47.62 1399.05,-34.12 1419.8,-24.11"/>
<polygon fill="midnightblue" stroke="midnightblue" points="1421.56,-27.15 1429.05,-19.65 1418.52,-20.84 1421.56,-27.15"/>
</g>
<!-- Node24 -->
<g id="node24" class="node">
<title>Node24</title>
<g id="a_node24"><a xlink:title=" ">
<polygon fill="white" stroke="#bfbfbf" points="1588,-0.5 1588,-19.5 1620,-19.5 1620,-0.5 1588,-0.5"/>
<text text-anchor="middle" x="1604" y="-7.5" font-family="Helvetica,sans-Serif" font-size="10.00">set</text>
</a>
</g>
</g>
<!-- Node21&#45;&gt;Node24 -->
<g id="edge25" class="edge">
<title>Node21&#45;&gt;Node24</title>
<path fill="none" stroke="midnightblue" d="M1377.62,-56.44C1433.97,-45.13 1531.54,-25.55 1577.98,-16.22"/>
<polygon fill="midnightblue" stroke="midnightblue" points="1578.74,-19.64 1587.86,-14.24 1577.37,-12.78 1578.74,-19.64"/>
</g>
<!-- Node25 -->
<g id="node25" class="node">
<title>Node25</title>
<g id="a_node25"><a xlink:title=" ">
<polygon fill="white" stroke="#bfbfbf" points="1214,-0.5 1214,-19.5 1300,-19.5 1300,-0.5 1214,-0.5"/>
<text text-anchor="middle" x="1257" y="-7.5" font-family="Helvetica,sans-Serif" font-size="10.00">unordered_set</text>
</a>
</g>
</g>
<!-- Node21&#45;&gt;Node25 -->
<g id="edge27" class="edge">
<title>Node21&#45;&gt;Node25</title>
<path fill="none" stroke="midnightblue" d="M1322.47,-56.32C1310.41,-47.98 1291.97,-35.21 1277.73,-25.35"/>
<polygon fill="midnightblue" stroke="midnightblue" points="1279.72,-22.47 1269.5,-19.65 1275.73,-28.22 1279.72,-22.47"/>
</g>
<!-- Node21&#45;&gt;Node26 -->
<g id="edge28" class="edge">
<title>Node21&#45;&gt;Node26</title>
<path fill="none" stroke="midnightblue" d="M1290.75,-58.81C1281.9,-57.74 1272.67,-56.74 1264,-56 868.27,-22.43 385.75,-13.35 255.65,-11.44"/>
<polygon fill="midnightblue" stroke="midnightblue" points="255.57,-7.94 245.52,-11.29 255.47,-14.94 255.57,-7.94"/>
</g>
<!-- Node31&#45;&gt;Node9 -->
<g id="edge44" class="edge">
<title>Node31&#45;&gt;Node9</title>
<path fill="none" stroke="midnightblue" d="M506.48,-235.09C500.56,-222.08 491.93,-197.44 501,-179 522.55,-135.21 542.88,-130.6 588,-112 615.13,-100.82 795.21,-81.71 888.37,-72.41"/>
<polygon fill="midnightblue" stroke="midnightblue" points="888.86,-75.88 898.47,-71.41 888.17,-68.91 888.86,-75.88"/>
</g>
<!-- Node32 -->
<g id="node32" class="node">
<title>Node32</title>
<g id="a_node32"><a xlink:href="_tensor_fwd_8hpp.html" target="_top" xlink:title=" ">
<polygon fill="white" stroke="black" points="641.5,-179.5 641.5,-198.5 730.5,-198.5 730.5,-179.5 641.5,-179.5"/>
<text text-anchor="middle" x="686" y="-186.5" font-family="Helvetica,sans-Serif" font-size="10.00">TensorFwd.hpp</text>
</a>
</g>
</g>
<!-- Node31&#45;&gt;Node32 -->
<g id="edge43" class="edge">
<title>Node31&#45;&gt;Node32</title>
<path fill="none" stroke="midnightblue" d="M538.73,-235.44C568.43,-226.28 615.72,-211.69 648.67,-201.52"/>
<polygon fill="midnightblue" stroke="midnightblue" points="649.88,-204.81 658.4,-198.52 647.81,-198.12 649.88,-204.81"/>
</g>
<!-- Node33&#45;&gt;Node9 -->
<g id="edge48" class="edge">
<title>Node33&#45;&gt;Node9</title>
<path fill="none" stroke="midnightblue" d="M700.09,-235.31C712.03,-227.26 728.81,-214.25 739,-199 761.57,-165.23 737.4,-139.81 767,-112 784.51,-95.55 843.31,-82.81 888.38,-75.15"/>
<polygon fill="midnightblue" stroke="midnightblue" points="889.06,-78.58 898.35,-73.5 887.91,-71.68 889.06,-78.58"/>
</g>
<!-- Node33&#45;&gt;Node32 -->
<g id="edge47" class="edge">
<title>Node33&#45;&gt;Node32</title>
<path fill="none" stroke="midnightblue" d="M686,-235.08C686,-228.01 686,-217.86 686,-208.99"/>
<polygon fill="midnightblue" stroke="midnightblue" points="689.5,-208.75 686,-198.75 682.5,-208.75 689.5,-208.75"/>
</g>
<!-- Node35&#45;&gt;Node8 -->
<g id="edge56" class="edge">
<title>Node35&#45;&gt;Node8</title>
<path fill="none" stroke="midnightblue" d="M1334.78,-236.83C1240.48,-225.78 1061.92,-204.87 979.16,-195.17"/>
<polygon fill="midnightblue" stroke="midnightblue" points="979.42,-191.68 969.08,-193.99 978.61,-198.63 979.42,-191.68"/>
</g>
<!-- Node35&#45;&gt;Node9 -->
<g id="edge55" class="edge">
<title>Node35&#45;&gt;Node9</title>
<path fill="none" stroke="midnightblue" d="M1376.31,-235.31C1347.28,-222.58 1291.24,-198.27 1243,-179 1147.29,-140.77 1032.89,-98.99 977.43,-78.99"/>
<polygon fill="midnightblue" stroke="midnightblue" points="978.37,-75.61 967.78,-75.51 976,-82.19 978.37,-75.61"/>
</g>
<!-- Node35&#45;&gt;Node15 -->
<g id="edge62" class="edge">
<title>Node35&#45;&gt;Node15</title>
<path fill="none" stroke="midnightblue" d="M1457.05,-239.8C1484.96,-234.45 1515.6,-223.03 1533,-199 1548.78,-177.21 1517.55,-168.83 1510,-143 1504.42,-123.91 1508.44,-101.17 1512.75,-85.56"/>
<polygon fill="midnightblue" stroke="midnightblue" points="1516.21,-86.21 1515.79,-75.62 1509.52,-84.15 1516.21,-86.21"/>
</g>
<!-- Node35&#45;&gt;Node16 -->
<g id="edge57" class="edge">
<title>Node35&#45;&gt;Node16</title>
<path fill="none" stroke="midnightblue" d="M1334.56,-243.13C1218.23,-240.74 970.4,-231.83 892,-199 876.98,-192.71 844.59,-162.96 825.01,-144.17"/>
<polygon fill="midnightblue" stroke="midnightblue" points="827.34,-141.56 817.72,-137.12 822.48,-146.59 827.34,-141.56"/>
</g>
<!-- Node35&#45;&gt;Node19 -->
<g id="edge58" class="edge">
<title>Node35&#45;&gt;Node19</title>
<path fill="none" stroke="midnightblue" d="M1393.13,-235.23C1384.82,-211.28 1358.31,-144.37 1312,-112 1285.18,-93.25 1195.07,-78.66 1143.69,-71.62"/>
<polygon fill="midnightblue" stroke="midnightblue" points="1144.03,-68.13 1133.66,-70.27 1143.1,-75.07 1144.03,-68.13"/>
</g>
<!-- Node35&#45;&gt;Node21 -->
<g id="edge54" class="edge">
<title>Node35&#45;&gt;Node21</title>
<path fill="none" stroke="midnightblue" d="M1398,-235.37C1402.62,-213.38 1412.12,-154 1391,-112 1384.5,-99.07 1372.4,-88.62 1361.1,-81.06"/>
<polygon fill="midnightblue" stroke="midnightblue" points="1362.67,-77.92 1352.33,-75.62 1358.98,-83.87 1362.67,-77.92"/>
</g>
<!-- Node35&#45;&gt;Node23 -->
<g id="edge60" class="edge">
<title>Node35&#45;&gt;Node23</title>
<path fill="none" stroke="midnightblue" d="M1443.33,-235.42C1464.1,-229.05 1486.55,-218.02 1499,-199 1508.46,-184.54 1469.76,-73.57 1453.7,-29.22"/>
<polygon fill="midnightblue" stroke="midnightblue" points="1456.94,-27.9 1450.22,-19.7 1450.36,-30.3 1456.94,-27.9"/>
</g>
<!-- Node35&#45;&gt;Node24 -->
<g id="edge61" class="edge">
<title>Node35&#45;&gt;Node24</title>
<path fill="none" stroke="midnightblue" d="M1457.06,-241.77C1523.41,-235.61 1626.1,-214.34 1672,-143 1697.9,-102.75 1650.46,-51.45 1622.44,-26.3"/>
<polygon fill="midnightblue" stroke="midnightblue" points="1624.64,-23.58 1614.8,-19.65 1620.05,-28.86 1624.64,-23.58"/>
</g>
<!-- Node36 -->
<g id="node36" class="node">
<title>Node36</title>
<g id="a_node36"><a xlink:title=" ">
<polygon fill="white" stroke="#bfbfbf" points="1443.5,-179.5 1443.5,-198.5 1490.5,-198.5 1490.5,-179.5 1443.5,-179.5"/>
<text text-anchor="middle" x="1467" y="-186.5" font-family="Helvetica,sans-Serif" font-size="10.00">cmath</text>
</a>
</g>
</g>
<!-- Node35&#45;&gt;Node36 -->
<g id="edge59" class="edge">
<title>Node35&#45;&gt;Node36</title>
<path fill="none" stroke="midnightblue" d="M1407.41,-235.32C1418.11,-227.18 1434.34,-214.84 1447.16,-205.09"/>
<polygon fill="midnightblue" stroke="midnightblue" points="1449.54,-207.67 1455.39,-198.83 1445.31,-202.1 1449.54,-207.67"/>
</g>
<!-- Node38&#45;&gt;Node15 -->
<g id="edge68" class="edge">
<title>Node38&#45;&gt;Node15</title>
<path fill="none" stroke="midnightblue" d="M1761.45,-117.98C1709.05,-106.96 1618.09,-87.83 1563.72,-76.4"/>
<polygon fill="midnightblue" stroke="midnightblue" points="1564.19,-72.93 1553.69,-74.29 1562.75,-79.78 1564.19,-72.93"/>
</g>
<!-- Node39 -->
<g id="node39" class="node">
<title>Node39</title>
<g id="a_node39"><a xlink:href="_assert_8hpp.html" target="_top" xlink:title=" ">
<polygon fill="white" stroke="black" points="1719,-56.5 1719,-75.5 1787,-75.5 1787,-56.5 1719,-56.5"/>
<text text-anchor="middle" x="1753" y="-63.5" font-family="Helvetica,sans-Serif" font-size="10.00">Assert.hpp</text>
</a>
</g>
</g>
<!-- Node38&#45;&gt;Node39 -->
<g id="edge66" class="edge">
<title>Node38&#45;&gt;Node39</title>
<path fill="none" stroke="midnightblue" d="M1794.98,-117.98C1787.56,-108.96 1775.67,-94.52 1766.43,-83.31"/>
<polygon fill="midnightblue" stroke="midnightblue" points="1769.07,-81 1760.01,-75.51 1763.66,-85.45 1769.07,-81"/>
</g>
<!-- Node41 -->
<g id="node41" class="node">
<title>Node41</title>
<g id="a_node41"><a xlink:title=" ">
<polygon fill="white" stroke="#bfbfbf" points="1805,-56.5 1805,-75.5 1849,-75.5 1849,-56.5 1805,-56.5"/>
<text text-anchor="middle" x="1827" y="-63.5" font-family="Helvetica,sans-Serif" font-size="10.00">limits</text>
</a>
</g>
</g>
<!-- Node38&#45;&gt;Node41 -->
<g id="edge69" class="edge">
<title>Node38&#45;&gt;Node41</title>
<path fill="none" stroke="midnightblue" d="M1805.58,-117.98C1809.18,-109.4 1814.85,-95.93 1819.44,-84.98"/>
<polygon fill="midnightblue" stroke="midnightblue" points="1822.78,-86.08 1823.42,-75.51 1816.32,-83.37 1822.78,-86.08"/>
</g>
<!-- Node40 -->
<g id="node40" class="node">
<title>Node40</title>
<g id="a_node40"><a xlink:title=" ">
<polygon fill="white" stroke="#bfbfbf" points="1727,-0.5 1727,-19.5 1779,-19.5 1779,-0.5 1727,-0.5"/>
<text text-anchor="middle" x="1753" y="-7.5" font-family="Helvetica,sans-Serif" font-size="10.00">cassert</text>
</a>
</g>
</g>
<!-- Node39&#45;&gt;Node40 -->
<g id="edge67" class="edge">
<title>Node39&#45;&gt;Node40</title>
<path fill="none" stroke="midnightblue" d="M1753,-56.08C1753,-49.01 1753,-38.86 1753,-29.99"/>
<polygon fill="midnightblue" stroke="midnightblue" points="1756.5,-29.75 1753,-19.75 1749.5,-29.75 1756.5,-29.75"/>
</g>
<!-- Node42&#45;&gt;Node9 -->
<g id="edge72" class="edge">
<title>Node42&#45;&gt;Node9</title>
<path fill="none" stroke="midnightblue" d="M1519.46,-121.35C1409.86,-113.22 1193.84,-96.23 1011,-76 1007.34,-75.6 1003.58,-75.16 999.79,-74.69"/>
<polygon fill="midnightblue" stroke="midnightblue" points="1000.09,-71.21 989.74,-73.43 999.22,-78.15 1000.09,-71.21"/>
</g>
<!-- Node42&#45;&gt;Node15 -->
<g id="edge74" class="edge">
<title>Node42&#45;&gt;Node15</title>
<path fill="none" stroke="midnightblue" d="M1573.94,-112.4C1562.94,-103.31 1548.63,-91.49 1537.38,-82.19"/>
<polygon fill="midnightblue" stroke="midnightblue" points="1539.41,-79.33 1529.48,-75.66 1534.96,-84.73 1539.41,-79.33"/>
</g>
<!-- Node42&#45;&gt;Node22 -->
<g id="edge73" class="edge">
<title>Node42&#45;&gt;Node22</title>
<path fill="none" stroke="midnightblue" d="M1589.35,-112.28C1586.7,-96.15 1579.94,-70.24 1563,-56 1549.59,-44.72 1444.96,-26.57 1386.39,-17.14"/>
<polygon fill="midnightblue" stroke="midnightblue" points="1386.8,-13.66 1376.37,-15.54 1385.69,-20.57 1386.8,-13.66"/>
</g>
<!-- Node42&#45;&gt;Node39 -->
<g id="edge71" class="edge">
<title>Node42&#45;&gt;Node39</title>
<path fill="none" stroke="midnightblue" d="M1629.39,-112.4C1656.94,-102.28 1693.67,-88.79 1719.92,-79.15"/>
<polygon fill="midnightblue" stroke="midnightblue" points="1721.25,-82.39 1729.43,-75.66 1718.83,-75.82 1721.25,-82.39"/>
</g>
<!-- Node43&#45;&gt;Node7 -->
<g id="edge77" class="edge">
<title>Node43&#45;&gt;Node7</title>
<path fill="none" stroke="midnightblue" d="M950.97,-236.13C874.43,-227.77 750.39,-213.88 633.88,-199.22"/>
<polygon fill="midnightblue" stroke="midnightblue" points="634.07,-195.71 623.71,-197.93 633.19,-202.66 634.07,-195.71"/>
</g>
<!-- Node43&#45;&gt;Node8 -->
<g id="edge79" class="edge">
<title>Node43&#45;&gt;Node8</title>
<path fill="none" stroke="midnightblue" d="M1009.7,-235.32C995.82,-226.9 974.51,-213.97 958.2,-204.07"/>
<polygon fill="midnightblue" stroke="midnightblue" points="959.63,-200.85 949.26,-198.65 956,-206.83 959.63,-200.85"/>
</g>
<!-- Node43&#45;&gt;Node13 -->
<g id="edge80" class="edge">
<title>Node43&#45;&gt;Node13</title>
<path fill="none" stroke="midnightblue" d="M1025.57,-235.45C1028.57,-221.54 1036.45,-194.05 1054,-179 1056.64,-176.73 1138.21,-153.89 1189.36,-139.71"/>
<polygon fill="midnightblue" stroke="midnightblue" points="1190.45,-143.04 1199.15,-137 1188.58,-136.3 1190.45,-143.04"/>
</g>
<!-- Node43&#45;&gt;Node16 -->
<g id="edge78" class="edge">
<title>Node43&#45;&gt;Node16</title>
<path fill="none" stroke="midnightblue" d="M952.4,-235.47C921.56,-229.15 886.38,-218.14 859,-199 840.03,-185.74 825.77,-162.87 817.43,-146.78"/>
<polygon fill="midnightblue" stroke="midnightblue" points="820.36,-144.8 812.82,-137.36 814.07,-147.88 820.36,-144.8"/>
</g>
<!-- Node43&#45;&gt;Node37 -->
<g id="edge76" class="edge">
<title>Node43&#45;&gt;Node37</title>
<path fill="none" stroke="midnightblue" d="M1043.81,-235.44C1064.29,-226.6 1096.48,-212.69 1119.86,-202.59"/>
<polygon fill="midnightblue" stroke="midnightblue" points="1121.49,-205.7 1129.29,-198.52 1118.72,-199.27 1121.49,-205.7"/>
</g>
<!-- Node45 -->
<g id="node45" class="node">
<title>Node45</title>
<g id="a_node45"><a xlink:title=" ">
<polygon fill="white" stroke="#bfbfbf" points="1802,-353 1802,-372 1866,-372 1866,-353 1802,-353"/>
<text text-anchor="middle" x="1834" y="-360" font-family="Helvetica,sans-Serif" font-size="10.00">algorithm</text>
</a>
</g>
</g>
<!-- Node44&#45;&gt;Node45 -->
<g id="edge82" class="edge">
<title>Node44&#45;&gt;Node45</title>
<path fill="none" stroke="midnightblue" d="M1834,-414.4C1834,-405.06 1834,-392.71 1834,-382.52"/>
<polygon fill="midnightblue" stroke="midnightblue" points="1837.5,-382.19 1834,-372.19 1830.5,-382.19 1837.5,-382.19"/>
</g>
</g>
</svg>
