<?xml version="1.0" encoding="UTF-8" standalone="no"?>
<!DOCTYPE svg PUBLIC "-//W3C//DTD SVG 1.1//EN"
 "http://www.w3.org/Graphics/SVG/1.1/DTD/svg11.dtd">
<!-- Generated by graphviz version 2.43.0 (0)
 -->
<!-- Title: ClReverseV2Workload Pages: 1 -->
<svg width="382pt" height="230pt"
 viewBox="0.00 0.00 381.58 230.00" xmlns="http://www.w3.org/2000/svg" xmlns:xlink="http://www.w3.org/1999/xlink">
<g id="graph0" class="graph" transform="scale(1 1) rotate(0) translate(4 226)">
<title>ClReverseV2Workload</title>
<polygon fill="white" stroke="transparent" points="-4,4 -4,-226 377.58,-226 377.58,4 -4,4"/>
<!-- Node1 -->
<g id="node1" class="node">
<title>Node1</title>
<g id="a_node1"><a xlink:title=" ">
<polygon fill="#bfbfbf" stroke="black" points="46.58,-0.5 46.58,-19.5 171.58,-19.5 171.58,-0.5 46.58,-0.5"/>
<text text-anchor="middle" x="109.08" y="-7.5" font-family="Helvetica,sans-Serif" font-size="10.00">ClReverseV2Workload</text>
</a>
</g>
</g>
<!-- Node2 -->
<g id="node2" class="node">
<title>Node2</title>
<g id="a_node2"><a xlink:href="classarmnn_1_1_base_workload.html" target="_top" xlink:title=" ">
<polygon fill="white" stroke="black" points="18.08,-57.5 18.08,-87.5 200.08,-87.5 200.08,-57.5 18.08,-57.5"/>
<text text-anchor="start" x="26.08" y="-75.5" font-family="Helvetica,sans-Serif" font-size="10.00">BaseWorkload&lt; ReverseV2Queue</text>
<text text-anchor="middle" x="109.08" y="-64.5" font-family="Helvetica,sans-Serif" font-size="10.00">Descriptor &gt;</text>
</a>
</g>
</g>
<!-- Node2&#45;&gt;Node1 -->
<g id="edge1" class="edge">
<title>Node2&#45;&gt;Node1</title>
<path fill="none" stroke="midnightblue" d="M109.08,-47.35C109.08,-37.51 109.08,-26.78 109.08,-19.54"/>
<polygon fill="midnightblue" stroke="midnightblue" points="105.58,-47.47 109.08,-57.47 112.58,-47.47 105.58,-47.47"/>
</g>
<!-- Node3 -->
<g id="node3" class="node">
<title>Node3</title>
<g id="a_node3"><a xlink:href="classarmnn_1_1_i_workload.html" target="_top" xlink:title="Workload interface to enqueue a layer computation.">
<polygon fill="white" stroke="black" points="21.58,-202.5 21.58,-221.5 86.58,-221.5 86.58,-202.5 21.58,-202.5"/>
<text text-anchor="middle" x="54.08" y="-209.5" font-family="Helvetica,sans-Serif" font-size="10.00">IWorkload</text>
</a>
</g>
</g>
<!-- Node3&#45;&gt;Node2 -->
<g id="edge2" class="edge">
<title>Node3&#45;&gt;Node2</title>
<path fill="none" stroke="midnightblue" d="M32.8,-196.08C14.06,-181 -8.46,-156.86 4.08,-135 17.1,-112.27 42.14,-97.13 64.51,-87.56"/>
<polygon fill="midnightblue" stroke="midnightblue" points="30.93,-199.05 41.01,-202.33 35.17,-193.49 30.93,-199.05"/>
</g>
<!-- Node6 -->
<g id="node6" class="node">
<title>Node6</title>
<g id="a_node6"><a xlink:href="classarmnn_1_1_base_workload.html" target="_top" xlink:title=" ">
<polygon fill="white" stroke="black" points="13.58,-135.5 13.58,-154.5 204.58,-154.5 204.58,-135.5 13.58,-135.5"/>
<text text-anchor="middle" x="109.08" y="-142.5" font-family="Helvetica,sans-Serif" font-size="10.00">BaseWorkload&lt; QueueDescriptor &gt;</text>
</a>
</g>
</g>
<!-- Node3&#45;&gt;Node6 -->
<g id="edge6" class="edge">
<title>Node3&#45;&gt;Node6</title>
<path fill="none" stroke="midnightblue" d="M68.23,-194.27C78.95,-181.6 93.25,-164.7 101.78,-154.63"/>
<polygon fill="midnightblue" stroke="midnightblue" points="65.28,-192.34 61.49,-202.23 70.62,-196.86 65.28,-192.34"/>
</g>
<!-- Node4 -->
<g id="node4" class="node">
<title>Node4</title>
<g id="a_node4"><a xlink:href="structarmnn_1_1_reverse_v2_queue_descriptor.html" target="_top" xlink:title=" ">
<polygon fill="white" stroke="black" points="222.58,-135.5 222.58,-154.5 373.58,-154.5 373.58,-135.5 222.58,-135.5"/>
<text text-anchor="middle" x="298.08" y="-142.5" font-family="Helvetica,sans-Serif" font-size="10.00">ReverseV2QueueDescriptor</text>
</a>
</g>
</g>
<!-- Node4&#45;&gt;Node2 -->
<g id="edge3" class="edge">
<title>Node4&#45;&gt;Node2</title>
<path fill="none" stroke="#9a32cd" stroke-dasharray="5,2" d="M290.14,-126.02C286.05,-118.74 280.37,-110.91 273.08,-106 251.76,-91.66 225.59,-83.35 200.46,-78.62"/>
<polygon fill="#9a32cd" stroke="#9a32cd" points="287.15,-127.88 294.73,-135.28 293.43,-124.77 287.15,-127.88"/>
<text text-anchor="middle" x="305.08" y="-109" font-family="Helvetica,sans-Serif" font-size="10.00"> m_Data</text>
</g>
<!-- Node5 -->
<g id="node5" class="node">
<title>Node5</title>
<g id="a_node5"><a xlink:href="structarmnn_1_1_queue_descriptor.html" target="_top" xlink:title=" ">
<polygon fill="white" stroke="black" points="117.08,-202.5 117.08,-221.5 215.08,-221.5 215.08,-202.5 117.08,-202.5"/>
<text text-anchor="middle" x="166.08" y="-209.5" font-family="Helvetica,sans-Serif" font-size="10.00">QueueDescriptor</text>
</a>
</g>
</g>
<!-- Node5&#45;&gt;Node4 -->
<g id="edge4" class="edge">
<title>Node5&#45;&gt;Node4</title>
<path fill="none" stroke="midnightblue" d="M192.59,-197.94C218.74,-185.07 257.95,-165.76 280.47,-154.67"/>
<polygon fill="midnightblue" stroke="midnightblue" points="191.03,-194.81 183.6,-202.37 194.12,-201.09 191.03,-194.81"/>
</g>
<!-- Node5&#45;&gt;Node6 -->
<g id="edge7" class="edge">
<title>Node5&#45;&gt;Node6</title>
<path fill="none" stroke="#9a32cd" stroke-dasharray="5,2" d="M151.72,-194.63C140.58,-181.92 125.56,-164.8 116.64,-154.63"/>
<polygon fill="#9a32cd" stroke="#9a32cd" points="149.16,-197.02 158.39,-202.23 154.43,-192.41 149.16,-197.02"/>
<text text-anchor="middle" x="162.08" y="-176" font-family="Helvetica,sans-Serif" font-size="10.00"> m_Data</text>
</g>
<!-- Node6&#45;&gt;Node2 -->
<g id="edge5" class="edge">
<title>Node6&#45;&gt;Node2</title>
<path fill="none" stroke="orange" stroke-dasharray="5,2" d="M109.08,-125.24C109.08,-113.41 109.08,-98.38 109.08,-87.58"/>
<polygon fill="orange" stroke="orange" points="105.58,-125.36 109.08,-135.36 112.58,-125.36 105.58,-125.36"/>
<text text-anchor="middle" x="189.08" y="-109" font-family="Helvetica,sans-Serif" font-size="10.00"> &lt; ReverseV2QueueDescriptor &gt;</text>
</g>
</g>
</svg>
