<?xml version="1.0" encoding="UTF-8" standalone="no"?>
<!DOCTYPE svg PUBLIC "-//W3C//DTD SVG 1.1//EN"
 "http://www.w3.org/Graphics/SVG/1.1/DTD/svg11.dtd">
<!-- Generated by graphviz version 2.43.0 (0)
 -->
<!-- Title: NeonStridedSliceWorkload Pages: 1 -->
<svg width="1854pt" height="242pt"
 viewBox="0.00 0.00 1854.00 242.00" xmlns="http://www.w3.org/2000/svg" xmlns:xlink="http://www.w3.org/1999/xlink">
<g id="graph0" class="graph" transform="scale(1 1) rotate(0) translate(4 238)">
<title>NeonStridedSliceWorkload</title>
<polygon fill="white" stroke="transparent" points="-4,4 -4,-238 1850,-238 1850,4 -4,4"/>
<!-- Node1 -->
<g id="node1" class="node">
<title>Node1</title>
<g id="a_node1"><a xlink:title=" ">
<polygon fill="#bfbfbf" stroke="black" points="1700,-36.5 1700,-55.5 1846,-55.5 1846,-36.5 1700,-36.5"/>
<text text-anchor="middle" x="1773" y="-43.5" font-family="Helvetica,sans-Serif" font-size="10.00">NeonStridedSliceWorkload</text>
</a>
</g>
</g>
<!-- Node2 -->
<g id="node2" class="node">
<title>Node2</title>
<g id="a_node2"><a xlink:href="classarmnn_1_1_neon_base_workload.html" target="_top" xlink:title=" ">
<polygon fill="white" stroke="black" points="1505,-31 1505,-61 1663,-61 1663,-31 1505,-31"/>
<text text-anchor="start" x="1513" y="-49" font-family="Helvetica,sans-Serif" font-size="10.00">NeonBaseWorkload&lt; Strided</text>
<text text-anchor="middle" x="1584" y="-38" font-family="Helvetica,sans-Serif" font-size="10.00">SliceQueueDescriptor &gt;</text>
</a>
</g>
</g>
<!-- Node2&#45;&gt;Node1 -->
<g id="edge1" class="edge">
<title>Node2&#45;&gt;Node1</title>
<path fill="none" stroke="midnightblue" d="M1673.5,-46C1682.3,-46 1691.16,-46 1699.76,-46"/>
<polygon fill="midnightblue" stroke="midnightblue" points="1673.22,-42.5 1663.22,-46 1673.22,-49.5 1673.22,-42.5"/>
</g>
<!-- Node3 -->
<g id="node3" class="node">
<title>Node3</title>
<g id="a_node3"><a xlink:href="classarmnn_1_1_base_workload.html" target="_top" xlink:title=" ">
<polygon fill="white" stroke="black" points="1117.5,-56 1117.5,-86 1272.5,-86 1272.5,-56 1117.5,-56"/>
<text text-anchor="start" x="1125.5" y="-74" font-family="Helvetica,sans-Serif" font-size="10.00">BaseWorkload&lt; StridedSlice</text>
<text text-anchor="middle" x="1195" y="-63" font-family="Helvetica,sans-Serif" font-size="10.00">QueueDescriptor &gt;</text>
</a>
</g>
</g>
<!-- Node3&#45;&gt;Node2 -->
<g id="edge2" class="edge">
<title>Node3&#45;&gt;Node2</title>
<path fill="none" stroke="midnightblue" d="M1282.98,-65.38C1349.57,-61.08 1440.62,-55.2 1504.9,-51.05"/>
<polygon fill="midnightblue" stroke="midnightblue" points="1282.67,-61.89 1272.92,-66.03 1283.13,-68.88 1282.67,-61.89"/>
</g>
<!-- Node4 -->
<g id="node4" class="node">
<title>Node4</title>
<g id="a_node4"><a xlink:href="classarmnn_1_1_i_workload.html" target="_top" xlink:title="Workload interface to enqueue a layer computation.">
<polygon fill="white" stroke="black" points="536.5,-38.5 536.5,-57.5 601.5,-57.5 601.5,-38.5 536.5,-38.5"/>
<text text-anchor="middle" x="569" y="-45.5" font-family="Helvetica,sans-Serif" font-size="10.00">IWorkload</text>
</a>
</g>
</g>
<!-- Node4&#45;&gt;Node3 -->
<g id="edge3" class="edge">
<title>Node4&#45;&gt;Node3</title>
<path fill="none" stroke="midnightblue" d="M611.87,-49.54C715.39,-53.36 984.56,-63.28 1117.47,-68.18"/>
<polygon fill="midnightblue" stroke="midnightblue" points="611.92,-46.04 601.8,-49.17 611.67,-53.04 611.92,-46.04"/>
</g>
<!-- Node11 -->
<g id="node11" class="node">
<title>Node11</title>
<g id="a_node11"><a xlink:href="classarmnn_1_1_base_workload.html" target="_top" xlink:title=" ">
<polygon fill="white" stroke="black" points="694,-76.5 694,-95.5 885,-95.5 885,-76.5 694,-76.5"/>
<text text-anchor="middle" x="789.5" y="-83.5" font-family="Helvetica,sans-Serif" font-size="10.00">BaseWorkload&lt; QueueDescriptor &gt;</text>
</a>
</g>
</g>
<!-- Node4&#45;&gt;Node11 -->
<g id="edge12" class="edge">
<title>Node4&#45;&gt;Node11</title>
<path fill="none" stroke="midnightblue" d="M612.02,-55.31C646.68,-61.34 696.11,-69.93 733.84,-76.49"/>
<polygon fill="midnightblue" stroke="midnightblue" points="612.22,-51.79 601.77,-53.53 611.02,-58.69 612.22,-51.79"/>
</g>
<!-- Node13 -->
<g id="node13" class="node">
<title>Node13</title>
<g id="a_node13"><a xlink:href="classarmnn_1_1_base_workload.html" target="_top" xlink:title=" ">
<polygon fill="white" stroke="black" points="694,-0.5 694,-19.5 885,-19.5 885,-0.5 694,-0.5"/>
<text text-anchor="middle" x="789.5" y="-7.5" font-family="Helvetica,sans-Serif" font-size="10.00">BaseWorkload&lt; QueueDescriptor &gt;</text>
</a>
</g>
</g>
<!-- Node4&#45;&gt;Node13 -->
<g id="edge16" class="edge">
<title>Node4&#45;&gt;Node13</title>
<path fill="none" stroke="midnightblue" d="M612.02,-40.69C646.68,-34.66 696.11,-26.07 733.84,-19.51"/>
<polygon fill="midnightblue" stroke="midnightblue" points="611.02,-37.31 601.77,-42.47 612.22,-44.21 611.02,-37.31"/>
</g>
<!-- Node5 -->
<g id="node5" class="node">
<title>Node5</title>
<g id="a_node5"><a xlink:href="structarmnn_1_1_strided_slice_queue_descriptor.html" target="_top" xlink:title=" ">
<polygon fill="white" stroke="black" points="711.5,-145.5 711.5,-164.5 867.5,-164.5 867.5,-145.5 711.5,-145.5"/>
<text text-anchor="middle" x="789.5" y="-152.5" font-family="Helvetica,sans-Serif" font-size="10.00">StridedSliceQueueDescriptor</text>
</a>
</g>
</g>
<!-- Node5&#45;&gt;Node3 -->
<g id="edge4" class="edge">
<title>Node5&#45;&gt;Node3</title>
<path fill="none" stroke="#9a32cd" stroke-dasharray="5,2" d="M846.59,-143.32C918.35,-128.38 1042.78,-102.48 1121.62,-86.07"/>
<polygon fill="#9a32cd" stroke="#9a32cd" points="845.47,-139.98 836.39,-145.45 846.9,-146.83 845.47,-139.98"/>
<text text-anchor="middle" x="986" y="-133" font-family="Helvetica,sans-Serif" font-size="10.00"> m_Data</text>
</g>
<!-- Node6 -->
<g id="node6" class="node">
<title>Node6</title>
<g id="a_node6"><a xlink:href="structarmnn_1_1_queue_descriptor_with_parameters.html" target="_top" xlink:title=" ">
<polygon fill="white" stroke="black" points="481,-156 481,-186 657,-186 657,-156 481,-156"/>
<text text-anchor="start" x="489" y="-174" font-family="Helvetica,sans-Serif" font-size="10.00">QueueDescriptorWithParameters</text>
<text text-anchor="middle" x="569" y="-163" font-family="Helvetica,sans-Serif" font-size="10.00">&lt; StridedSliceDescriptor &gt;</text>
</a>
</g>
</g>
<!-- Node6&#45;&gt;Node5 -->
<g id="edge5" class="edge">
<title>Node6&#45;&gt;Node5</title>
<path fill="none" stroke="midnightblue" d="M667.4,-163.87C682.08,-162.79 697.05,-161.7 711.22,-160.66"/>
<polygon fill="midnightblue" stroke="midnightblue" points="667.02,-160.39 657.3,-164.61 667.53,-167.37 667.02,-160.39"/>
</g>
<!-- Node7 -->
<g id="node7" class="node">
<title>Node7</title>
<g id="a_node7"><a xlink:href="structarmnn_1_1_queue_descriptor.html" target="_top" xlink:title=" ">
<polygon fill="white" stroke="black" points="0,-101.5 0,-120.5 98,-120.5 98,-101.5 0,-101.5"/>
<text text-anchor="middle" x="49" y="-108.5" font-family="Helvetica,sans-Serif" font-size="10.00">QueueDescriptor</text>
</a>
</g>
</g>
<!-- Node7&#45;&gt;Node6 -->
<g id="edge6" class="edge">
<title>Node7&#45;&gt;Node6</title>
<path fill="none" stroke="midnightblue" d="M67.86,-127.12C84.07,-140.62 109.3,-158.93 135,-167 250.3,-203.19 391.53,-195.51 480.66,-184.78"/>
<polygon fill="midnightblue" stroke="midnightblue" points="70.12,-124.44 60.25,-120.58 65.55,-129.75 70.12,-124.44"/>
</g>
<!-- Node10 -->
<g id="node10" class="node">
<title>Node10</title>
<g id="a_node10"><a xlink:href="structarmnn_1_1_queue_descriptor_with_parameters.html" target="_top" xlink:title=" ">
<polygon fill="white" stroke="black" points="135,-127 135,-157 311,-157 311,-127 135,-127"/>
<text text-anchor="start" x="143" y="-145" font-family="Helvetica,sans-Serif" font-size="10.00">QueueDescriptorWithParameters</text>
<text text-anchor="middle" x="223" y="-134" font-family="Helvetica,sans-Serif" font-size="10.00">&lt; LayerDescriptor &gt;</text>
</a>
</g>
</g>
<!-- Node7&#45;&gt;Node10 -->
<g id="edge10" class="edge">
<title>Node7&#45;&gt;Node10</title>
<path fill="none" stroke="midnightblue" d="M108.29,-121.51C118.02,-123.26 128.28,-125.11 138.49,-126.95"/>
<polygon fill="midnightblue" stroke="midnightblue" points="108.83,-118.05 98.37,-119.72 107.59,-124.94 108.83,-118.05"/>
</g>
<!-- Node7&#45;&gt;Node11 -->
<g id="edge13" class="edge">
<title>Node7&#45;&gt;Node11</title>
<path fill="none" stroke="#9a32cd" stroke-dasharray="5,2" d="M108.48,-109.02C235.74,-104.71 538.8,-94.45 693.74,-89.21"/>
<polygon fill="#9a32cd" stroke="#9a32cd" points="108.05,-105.53 98.17,-109.37 108.28,-112.53 108.05,-105.53"/>
<text text-anchor="middle" x="396" y="-104" font-family="Helvetica,sans-Serif" font-size="10.00"> m_Data</text>
</g>
<!-- Node7&#45;&gt;Node13 -->
<g id="edge17" class="edge">
<title>Node7&#45;&gt;Node13</title>
<path fill="none" stroke="#9a32cd" stroke-dasharray="5,2" d="M100.57,-99.23C180.75,-81.05 342.21,-46.42 481,-29 551.98,-20.09 632.73,-15.3 693.66,-12.77"/>
<polygon fill="#9a32cd" stroke="#9a32cd" points="99.7,-95.83 90.73,-101.47 101.26,-102.66 99.7,-95.83"/>
<text text-anchor="middle" x="396" y="-56" font-family="Helvetica,sans-Serif" font-size="10.00"> m_Data</text>
</g>
<!-- Node8 -->
<g id="node8" class="node">
<title>Node8</title>
<g id="a_node8"><a xlink:href="structarmnn_1_1_strided_slice_descriptor.html" target="_top" xlink:title="A StridedSliceDescriptor for the StridedSliceLayer.">
<polygon fill="white" stroke="black" points="160.5,-214.5 160.5,-233.5 285.5,-233.5 285.5,-214.5 160.5,-214.5"/>
<text text-anchor="middle" x="223" y="-221.5" font-family="Helvetica,sans-Serif" font-size="10.00">StridedSliceDescriptor</text>
</a>
</g>
</g>
<!-- Node8&#45;&gt;Node6 -->
<g id="edge7" class="edge">
<title>Node8&#45;&gt;Node6</title>
<path fill="none" stroke="#9a32cd" stroke-dasharray="5,2" d="M295.76,-219.44C343.44,-215.68 407.29,-209.28 463,-199 481.09,-195.66 500.63,-190.81 517.89,-186.07"/>
<polygon fill="#9a32cd" stroke="#9a32cd" points="295.23,-215.97 285.53,-220.22 295.77,-222.95 295.23,-215.97"/>
<text text-anchor="middle" x="396" y="-219" font-family="Helvetica,sans-Serif" font-size="10.00"> m_Parameters</text>
</g>
<!-- Node9 -->
<g id="node9" class="node">
<title>Node9</title>
<g id="a_node9"><a xlink:href="structarmnn_1_1_base_descriptor.html" target="_top" xlink:title="Base class for all descriptors.">
<polygon fill="white" stroke="black" points="3.5,-214.5 3.5,-233.5 94.5,-233.5 94.5,-214.5 3.5,-214.5"/>
<text text-anchor="middle" x="49" y="-221.5" font-family="Helvetica,sans-Serif" font-size="10.00">BaseDescriptor</text>
</a>
</g>
</g>
<!-- Node9&#45;&gt;Node8 -->
<g id="edge8" class="edge">
<title>Node9&#45;&gt;Node8</title>
<path fill="none" stroke="midnightblue" d="M104.88,-224C122.53,-224 142.21,-224 160.33,-224"/>
<polygon fill="midnightblue" stroke="midnightblue" points="104.74,-220.5 94.74,-224 104.74,-227.5 104.74,-220.5"/>
</g>
<!-- Node10&#45;&gt;Node6 -->
<g id="edge9" class="edge">
<title>Node10&#45;&gt;Node6</title>
<path fill="none" stroke="orange" stroke-dasharray="5,2" d="M321.14,-149.38C364.56,-152.76 416.36,-156.93 463,-161 468.84,-161.51 474.86,-162.05 480.92,-162.6"/>
<polygon fill="orange" stroke="orange" points="321.4,-145.89 311.15,-148.6 320.85,-152.86 321.4,-145.89"/>
<text text-anchor="middle" x="396" y="-164" font-family="Helvetica,sans-Serif" font-size="10.00"> &lt; StridedSliceDescriptor &gt;</text>
</g>
<!-- Node11&#45;&gt;Node3 -->
<g id="edge11" class="edge">
<title>Node11&#45;&gt;Node3</title>
<path fill="none" stroke="orange" stroke-dasharray="5,2" d="M895.2,-82.11C964.68,-79.52 1054.31,-76.19 1117.22,-73.85"/>
<polygon fill="orange" stroke="orange" points="894.97,-78.61 885.1,-82.48 895.23,-85.61 894.97,-78.61"/>
<text text-anchor="middle" x="986" y="-84" font-family="Helvetica,sans-Serif" font-size="10.00"> &lt; StridedSliceQueueDescriptor &gt;</text>
</g>
<!-- Node12 -->
<g id="node12" class="node">
<title>Node12</title>
<g id="a_node12"><a xlink:href="classarmnn_1_1_neon_base_workload.html" target="_top" xlink:title=" ">
<polygon fill="white" stroke="black" points="1087,-14.5 1087,-33.5 1303,-33.5 1303,-14.5 1087,-14.5"/>
<text text-anchor="middle" x="1195" y="-21.5" font-family="Helvetica,sans-Serif" font-size="10.00">NeonBaseWorkload&lt; QueueDescriptor &gt;</text>
</a>
</g>
</g>
<!-- Node12&#45;&gt;Node2 -->
<g id="edge14" class="edge">
<title>Node12&#45;&gt;Node2</title>
<path fill="none" stroke="orange" stroke-dasharray="5,2" d="M1313.29,-28.7C1366.36,-31.07 1429.87,-34.25 1487,-38 1492.84,-38.38 1498.88,-38.81 1504.95,-39.27"/>
<polygon fill="orange" stroke="orange" points="1313.3,-25.2 1303.16,-28.26 1312.99,-32.2 1313.3,-25.2"/>
<text text-anchor="middle" x="1404" y="-41" font-family="Helvetica,sans-Serif" font-size="10.00"> &lt; StridedSliceQueueDescriptor &gt;</text>
</g>
<!-- Node13&#45;&gt;Node12 -->
<g id="edge15" class="edge">
<title>Node13&#45;&gt;Node12</title>
<path fill="none" stroke="midnightblue" d="M895.18,-13.63C954.09,-15.68 1027.5,-18.22 1086.82,-20.28"/>
<polygon fill="midnightblue" stroke="midnightblue" points="895.22,-10.13 885.1,-13.28 894.98,-17.13 895.22,-10.13"/>
</g>
</g>
</svg>
