<?xml version="1.0" encoding="UTF-8" standalone="no"?>
<!DOCTYPE svg PUBLIC "-//W3C//DTD SVG 1.1//EN"
 "http://www.w3.org/Graphics/SVG/1.1/DTD/svg11.dtd">
<!-- Generated by graphviz version 2.43.0 (0)
 -->
<!-- Title: ClQuantizeWorkload Pages: 1 -->
<svg width="1253pt" height="163pt"
 viewBox="0.00 0.00 1253.00 163.00" xmlns="http://www.w3.org/2000/svg" xmlns:xlink="http://www.w3.org/1999/xlink">
<g id="graph0" class="graph" transform="scale(1 1) rotate(0) translate(4 159)">
<title>ClQuantizeWorkload</title>
<polygon fill="white" stroke="transparent" points="-4,4 -4,-159 1249,-159 1249,4 -4,4"/>
<!-- Node1 -->
<g id="node1" class="node">
<title>Node1</title>
<g id="a_node1"><a xlink:title=" ">
<polygon fill="#bfbfbf" stroke="black" points="1129,-36.5 1129,-55.5 1245,-55.5 1245,-36.5 1129,-36.5"/>
<text text-anchor="middle" x="1187" y="-43.5" font-family="Helvetica,sans-Serif" font-size="10.00">ClQuantizeWorkload</text>
</a>
</g>
</g>
<!-- Node2 -->
<g id="node2" class="node">
<title>Node2</title>
<g id="a_node2"><a xlink:href="classarmnn_1_1_cl_base_workload.html" target="_top" xlink:title=" ">
<polygon fill="white" stroke="black" points="941,-31 941,-61 1092,-61 1092,-31 941,-31"/>
<text text-anchor="start" x="949" y="-49" font-family="Helvetica,sans-Serif" font-size="10.00">ClBaseWorkload&lt; Quantize</text>
<text text-anchor="middle" x="1016.5" y="-38" font-family="Helvetica,sans-Serif" font-size="10.00">QueueDescriptor &gt;</text>
</a>
</g>
</g>
<!-- Node2&#45;&gt;Node1 -->
<g id="edge1" class="edge">
<title>Node2&#45;&gt;Node1</title>
<path fill="none" stroke="midnightblue" d="M1102.45,-46C1111.37,-46 1120.29,-46 1128.79,-46"/>
<polygon fill="midnightblue" stroke="midnightblue" points="1102.39,-42.5 1092.39,-46 1102.39,-49.5 1102.39,-42.5"/>
</g>
<!-- Node3 -->
<g id="node3" class="node">
<title>Node3</title>
<g id="a_node3"><a xlink:href="classarmnn_1_1_base_workload.html" target="_top" xlink:title=" ">
<polygon fill="white" stroke="black" points="567.5,-56 567.5,-86 740.5,-86 740.5,-56 567.5,-56"/>
<text text-anchor="start" x="575.5" y="-74" font-family="Helvetica,sans-Serif" font-size="10.00">BaseWorkload&lt; QuantizeQueue</text>
<text text-anchor="middle" x="654" y="-63" font-family="Helvetica,sans-Serif" font-size="10.00">Descriptor &gt;</text>
</a>
</g>
</g>
<!-- Node3&#45;&gt;Node2 -->
<g id="edge2" class="edge">
<title>Node3&#45;&gt;Node2</title>
<path fill="none" stroke="midnightblue" d="M751.06,-64.34C810.59,-60.21 885.93,-54.99 940.95,-51.17"/>
<polygon fill="midnightblue" stroke="midnightblue" points="750.62,-60.86 740.89,-65.04 751.11,-67.84 750.62,-60.86"/>
</g>
<!-- Node4 -->
<g id="node4" class="node">
<title>Node4</title>
<g id="a_node4"><a xlink:href="classarmnn_1_1_i_workload.html" target="_top" xlink:title="Workload interface to enqueue a layer computation.">
<polygon fill="white" stroke="black" points="16.5,-38.5 16.5,-57.5 81.5,-57.5 81.5,-38.5 16.5,-38.5"/>
<text text-anchor="middle" x="49" y="-45.5" font-family="Helvetica,sans-Serif" font-size="10.00">IWorkload</text>
</a>
</g>
</g>
<!-- Node4&#45;&gt;Node3 -->
<g id="edge3" class="edge">
<title>Node4&#45;&gt;Node3</title>
<path fill="none" stroke="midnightblue" d="M91.67,-49.59C189.58,-53.32 435.91,-62.72 567.31,-67.73"/>
<polygon fill="midnightblue" stroke="midnightblue" points="91.7,-46.09 81.57,-49.2 91.43,-53.08 91.7,-46.09"/>
</g>
<!-- Node7 -->
<g id="node7" class="node">
<title>Node7</title>
<g id="a_node7"><a xlink:href="classarmnn_1_1_base_workload.html" target="_top" xlink:title=" ">
<polygon fill="white" stroke="black" points="176,-76.5 176,-95.5 367,-95.5 367,-76.5 176,-76.5"/>
<text text-anchor="middle" x="271.5" y="-83.5" font-family="Helvetica,sans-Serif" font-size="10.00">BaseWorkload&lt; QueueDescriptor &gt;</text>
</a>
</g>
</g>
<!-- Node4&#45;&gt;Node7 -->
<g id="edge7" class="edge">
<title>Node4&#45;&gt;Node7</title>
<path fill="none" stroke="midnightblue" d="M91.47,-55.15C126.41,-61.17 176.71,-69.84 215.1,-76.45"/>
<polygon fill="midnightblue" stroke="midnightblue" points="92.04,-51.69 81.59,-53.44 90.85,-58.59 92.04,-51.69"/>
</g>
<!-- Node9 -->
<g id="node9" class="node">
<title>Node9</title>
<g id="a_node9"><a xlink:href="classarmnn_1_1_base_workload.html" target="_top" xlink:title=" ">
<polygon fill="white" stroke="black" points="176,-0.5 176,-19.5 367,-19.5 367,-0.5 176,-0.5"/>
<text text-anchor="middle" x="271.5" y="-7.5" font-family="Helvetica,sans-Serif" font-size="10.00">BaseWorkload&lt; QueueDescriptor &gt;</text>
</a>
</g>
</g>
<!-- Node4&#45;&gt;Node9 -->
<g id="edge11" class="edge">
<title>Node4&#45;&gt;Node9</title>
<path fill="none" stroke="midnightblue" d="M91.76,-38.78C99.79,-37.11 108.14,-35.44 116,-34 144.7,-28.73 176.54,-23.65 203.82,-19.54"/>
<polygon fill="midnightblue" stroke="midnightblue" points="90.88,-35.39 81.82,-40.88 92.33,-42.24 90.88,-35.39"/>
</g>
<!-- Node5 -->
<g id="node5" class="node">
<title>Node5</title>
<g id="a_node5"><a xlink:href="structarmnn_1_1_quantize_queue_descriptor.html" target="_top" xlink:title=" ">
<polygon fill="white" stroke="black" points="200.5,-135.5 200.5,-154.5 342.5,-154.5 342.5,-135.5 200.5,-135.5"/>
<text text-anchor="middle" x="271.5" y="-142.5" font-family="Helvetica,sans-Serif" font-size="10.00">QuantizeQueueDescriptor</text>
</a>
</g>
</g>
<!-- Node5&#45;&gt;Node3 -->
<g id="edge4" class="edge">
<title>Node5&#45;&gt;Node3</title>
<path fill="none" stroke="#9a32cd" stroke-dasharray="5,2" d="M336.09,-133.67C389.51,-124.03 467.84,-109.62 536,-96 551.58,-92.89 568.3,-89.4 584.08,-86.05"/>
<polygon fill="#9a32cd" stroke="#9a32cd" points="335.3,-130.25 326.08,-135.47 336.54,-137.14 335.3,-130.25"/>
<text text-anchor="middle" x="460.5" y="-127" font-family="Helvetica,sans-Serif" font-size="10.00"> m_Data</text>
</g>
<!-- Node6 -->
<g id="node6" class="node">
<title>Node6</title>
<g id="a_node6"><a xlink:href="structarmnn_1_1_queue_descriptor.html" target="_top" xlink:title=" ">
<polygon fill="white" stroke="black" points="0,-130.5 0,-149.5 98,-149.5 98,-130.5 0,-130.5"/>
<text text-anchor="middle" x="49" y="-137.5" font-family="Helvetica,sans-Serif" font-size="10.00">QueueDescriptor</text>
</a>
</g>
</g>
<!-- Node6&#45;&gt;Node5 -->
<g id="edge5" class="edge">
<title>Node6&#45;&gt;Node5</title>
<path fill="none" stroke="midnightblue" d="M106.56,-150.97C109.75,-151.37 112.91,-151.72 116,-152 143.54,-154.48 173.93,-153.84 200.42,-152.17"/>
<polygon fill="midnightblue" stroke="midnightblue" points="106.77,-147.46 96.37,-149.51 105.78,-154.39 106.77,-147.46"/>
</g>
<!-- Node6&#45;&gt;Node7 -->
<g id="edge8" class="edge">
<title>Node6&#45;&gt;Node7</title>
<path fill="none" stroke="#9a32cd" stroke-dasharray="5,2" d="M107.94,-129.04C124.19,-125.74 141.83,-121.94 158,-118 185.62,-111.27 216.68,-102.33 239.15,-95.61"/>
<polygon fill="#9a32cd" stroke="#9a32cd" points="107.14,-125.63 98.02,-131.03 108.52,-132.5 107.14,-125.63"/>
<text text-anchor="middle" x="137" y="-130" font-family="Helvetica,sans-Serif" font-size="10.00"> m_Data</text>
</g>
<!-- Node6&#45;&gt;Node9 -->
<g id="edge12" class="edge">
<title>Node6&#45;&gt;Node9</title>
<path fill="none" stroke="#9a32cd" stroke-dasharray="5,2" d="M74.88,-125.33C120.44,-98.47 216.09,-42.08 254.26,-19.57"/>
<polygon fill="#9a32cd" stroke="#9a32cd" points="73.05,-122.35 66.21,-130.44 76.61,-128.38 73.05,-122.35"/>
<text text-anchor="middle" x="137" y="-100" font-family="Helvetica,sans-Serif" font-size="10.00"> m_Data</text>
</g>
<!-- Node7&#45;&gt;Node3 -->
<g id="edge6" class="edge">
<title>Node7&#45;&gt;Node3</title>
<path fill="none" stroke="orange" stroke-dasharray="5,2" d="M377.27,-81.87C437.08,-79.51 511.1,-76.59 567.39,-74.37"/>
<polygon fill="orange" stroke="orange" points="376.9,-78.38 367.05,-82.27 377.18,-85.38 376.9,-78.38"/>
<text text-anchor="middle" x="460.5" y="-84" font-family="Helvetica,sans-Serif" font-size="10.00"> &lt; QuantizeQueueDescriptor &gt;</text>
</g>
<!-- Node8 -->
<g id="node8" class="node">
<title>Node8</title>
<g id="a_node8"><a xlink:href="classarmnn_1_1_cl_base_workload.html" target="_top" xlink:title=" ">
<polygon fill="white" stroke="black" points="554,-14.5 554,-33.5 754,-33.5 754,-14.5 554,-14.5"/>
<text text-anchor="middle" x="654" y="-21.5" font-family="Helvetica,sans-Serif" font-size="10.00">ClBaseWorkload&lt; QueueDescriptor &gt;</text>
</a>
</g>
</g>
<!-- Node8&#45;&gt;Node2 -->
<g id="edge9" class="edge">
<title>Node8&#45;&gt;Node2</title>
<path fill="none" stroke="orange" stroke-dasharray="5,2" d="M764.24,-28.86C812.87,-31.24 870.82,-34.38 923,-38 928.79,-38.4 934.78,-38.85 940.8,-39.32"/>
<polygon fill="orange" stroke="orange" points="764.16,-25.35 754.01,-28.37 763.82,-32.35 764.16,-25.35"/>
<text text-anchor="middle" x="847.5" y="-41" font-family="Helvetica,sans-Serif" font-size="10.00"> &lt; QuantizeQueueDescriptor &gt;</text>
</g>
<!-- Node9&#45;&gt;Node8 -->
<g id="edge10" class="edge">
<title>Node9&#45;&gt;Node8</title>
<path fill="none" stroke="midnightblue" d="M377.2,-13.85C432.37,-15.88 499.66,-18.36 553.96,-20.36"/>
<polygon fill="midnightblue" stroke="midnightblue" points="377.17,-10.35 367.05,-13.48 376.91,-17.34 377.17,-10.35"/>
</g>
</g>
</svg>
