<?xml version="1.0" encoding="UTF-8" standalone="no"?>
<!DOCTYPE svg PUBLIC "-//W3C//DTD SVG 1.1//EN"
 "http://www.w3.org/Graphics/SVG/1.1/DTD/svg11.dtd">
<!-- Generated by graphviz version 2.43.0 (0)
 -->
<!-- Title: OptimizeForConnectionImpl&lt; BaseType, ChildType, Wrapped &gt; Pages: 1 -->
<svg width="160pt" height="106pt"
 viewBox="0.00 0.00 160.00 106.00" xmlns="http://www.w3.org/2000/svg" xmlns:xlink="http://www.w3.org/1999/xlink">
<g id="graph0" class="graph" transform="scale(1 1) rotate(0) translate(4 102)">
<title>OptimizeForConnectionImpl&lt; BaseType, ChildType, Wrapped &gt;</title>
<polygon fill="white" stroke="transparent" points="-4,4 -4,-102 156,-102 156,4 -4,4"/>
<!-- Node1 -->
<g id="node1" class="node">
<title>Node1</title>
<g id="a_node1"><a xlink:title="Wrapper Optimization class that calls Wrapped::Run for every connection BaseType &#45;&gt; ChildType.">
<polygon fill="#bfbfbf" stroke="black" points="0,-0.5 0,-41.5 152,-41.5 152,-0.5 0,-0.5"/>
<text text-anchor="start" x="8" y="-29.5" font-family="Helvetica,sans-Serif" font-size="10.00">OptimizeForConnectionImpl</text>
<text text-anchor="start" x="8" y="-18.5" font-family="Helvetica,sans-Serif" font-size="10.00">&lt; BaseType, ChildType,</text>
<text text-anchor="middle" x="76" y="-7.5" font-family="Helvetica,sans-Serif" font-size="10.00"> Wrapped &gt;</text>
</a>
</g>
</g>
<!-- Node2 -->
<g id="node2" class="node">
<title>Node2</title>
<g id="a_node2"><a xlink:title=" ">
<polygon fill="white" stroke="#bfbfbf" points="46,-78.5 46,-97.5 106,-97.5 106,-78.5 46,-78.5"/>
<text text-anchor="middle" x="76" y="-85.5" font-family="Helvetica,sans-Serif" font-size="10.00">Wrapped</text>
</a>
</g>
</g>
<!-- Node2&#45;&gt;Node1 -->
<g id="edge1" class="edge">
<title>Node2&#45;&gt;Node1</title>
<path fill="none" stroke="midnightblue" d="M76,-68.04C76,-59.71 76,-49.94 76,-41.54"/>
<polygon fill="midnightblue" stroke="midnightblue" points="72.5,-68.23 76,-78.23 79.5,-68.23 72.5,-68.23"/>
</g>
</g>
</svg>
