<?xml version="1.0" encoding="UTF-8" standalone="no"?>
<!DOCTYPE svg PUBLIC "-//W3C//DTD SVG 1.1//EN"
 "http://www.w3.org/Graphics/SVG/1.1/DTD/svg11.dtd">
<!-- Generated by graphviz version 2.43.0 (0)
 -->
<!-- Title: NeonInstanceNormalizationWorkload Pages: 1 -->
<svg width="1271pt" height="90pt"
 viewBox="0.00 0.00 1271.00 90.48" xmlns="http://www.w3.org/2000/svg" xmlns:xlink="http://www.w3.org/1999/xlink">
<g id="graph0" class="graph" transform="scale(1 1) rotate(0) translate(4 86.48)">
<title>NeonInstanceNormalizationWorkload</title>
<polygon fill="white" stroke="transparent" points="-4,4 -4,-86.48 1267,-86.48 1267,4 -4,4"/>
<!-- Node1 -->
<g id="node1" class="node">
<title>Node1</title>
<g id="a_node1"><a xlink:title=" ">
<polygon fill="#bfbfbf" stroke="black" points="1111,-17 1111,-47 1263,-47 1263,-17 1111,-17"/>
<text text-anchor="start" x="1119" y="-35" font-family="Helvetica,sans-Serif" font-size="10.00">NeonInstanceNormalization</text>
<text text-anchor="middle" x="1187" y="-24" font-family="Helvetica,sans-Serif" font-size="10.00">Workload</text>
</a>
</g>
</g>
<!-- Node2 -->
<g id="node2" class="node">
<title>Node2</title>
<g id="a_node2"><a xlink:href="classarmnn_1_1_neon_base_workload.html" target="_top" xlink:title=" ">
<polygon fill="white" stroke="black" points="895,-17 895,-47 1074,-47 1074,-17 895,-17"/>
<text text-anchor="start" x="903" y="-35" font-family="Helvetica,sans-Serif" font-size="10.00">NeonBaseWorkload&lt; Instance</text>
<text text-anchor="middle" x="984.5" y="-24" font-family="Helvetica,sans-Serif" font-size="10.00">NormalizationQueueDescriptor &gt;</text>
</a>
</g>
</g>
<!-- Node2&#45;&gt;Node1 -->
<g id="edge1" class="edge">
<title>Node2&#45;&gt;Node1</title>
<path fill="none" stroke="midnightblue" d="M1084.13,-32C1093.1,-32 1102.09,-32 1110.81,-32"/>
<polygon fill="midnightblue" stroke="midnightblue" points="1084.03,-28.5 1074.03,-32 1084.03,-35.5 1084.03,-28.5"/>
</g>
<!-- Node3 -->
<g id="node3" class="node">
<title>Node3</title>
<g id="a_node3"><a xlink:href="classarmnn_1_1_base_workload.html" target="_top" xlink:title=" ">
<polygon fill="white" stroke="black" points="490,-39 490,-69 698,-69 698,-39 490,-39"/>
<text text-anchor="start" x="498" y="-57" font-family="Helvetica,sans-Serif" font-size="10.00">BaseWorkload&lt; InstanceNormalization</text>
<text text-anchor="middle" x="594" y="-46" font-family="Helvetica,sans-Serif" font-size="10.00">QueueDescriptor &gt;</text>
</a>
</g>
</g>
<!-- Node3&#45;&gt;Node2 -->
<g id="edge2" class="edge">
<title>Node3&#45;&gt;Node2</title>
<path fill="none" stroke="midnightblue" d="M708.28,-47.59C767.7,-44.22 839.45,-40.16 894.78,-37.02"/>
<polygon fill="midnightblue" stroke="midnightblue" points="707.88,-44.1 698.09,-48.16 708.27,-51.09 707.88,-44.1"/>
</g>
<!-- Node4 -->
<g id="node4" class="node">
<title>Node4</title>
<g id="a_node4"><a xlink:href="classarmnn_1_1_i_workload.html" target="_top" xlink:title="Workload interface to enqueue a layer computation.">
<polygon fill="white" stroke="black" points="0,-38.5 0,-57.5 65,-57.5 65,-38.5 0,-38.5"/>
<text text-anchor="middle" x="32.5" y="-45.5" font-family="Helvetica,sans-Serif" font-size="10.00">IWorkload</text>
</a>
</g>
</g>
<!-- Node4&#45;&gt;Node3 -->
<g id="edge3" class="edge">
<title>Node4&#45;&gt;Node3</title>
<path fill="none" stroke="midnightblue" d="M71.39,-60.4C81.25,-63.1 91.93,-65.57 102,-67 263.08,-89.8 305.73,-83.62 468,-72 478.06,-71.28 488.54,-70.24 498.97,-69.01"/>
<polygon fill="midnightblue" stroke="midnightblue" points="72.06,-56.95 61.48,-57.53 70.11,-63.67 72.06,-56.95"/>
</g>
<!-- Node5 -->
<g id="node5" class="node">
<title>Node5</title>
<g id="a_node5"><a xlink:href="classarmnn_1_1_base_workload.html" target="_top" xlink:title=" ">
<polygon fill="white" stroke="black" points="102,-38.5 102,-57.5 293,-57.5 293,-38.5 102,-38.5"/>
<text text-anchor="middle" x="197.5" y="-45.5" font-family="Helvetica,sans-Serif" font-size="10.00">BaseWorkload&lt; QueueDescriptor &gt;</text>
</a>
</g>
</g>
<!-- Node4&#45;&gt;Node5 -->
<g id="edge5" class="edge">
<title>Node4&#45;&gt;Node5</title>
<path fill="none" stroke="midnightblue" d="M75.34,-48C83.59,-48 92.56,-48 101.75,-48"/>
<polygon fill="midnightblue" stroke="midnightblue" points="75.32,-44.5 65.31,-48 75.31,-51.5 75.32,-44.5"/>
</g>
<!-- Node7 -->
<g id="node7" class="node">
<title>Node7</title>
<g id="a_node7"><a xlink:href="classarmnn_1_1_base_workload.html" target="_top" xlink:title=" ">
<polygon fill="white" stroke="black" points="102,-0.5 102,-19.5 293,-19.5 293,-0.5 102,-0.5"/>
<text text-anchor="middle" x="197.5" y="-7.5" font-family="Helvetica,sans-Serif" font-size="10.00">BaseWorkload&lt; QueueDescriptor &gt;</text>
</a>
</g>
</g>
<!-- Node4&#45;&gt;Node7 -->
<g id="edge8" class="edge">
<title>Node4&#45;&gt;Node7</title>
<path fill="none" stroke="midnightblue" d="M74.89,-36C83.8,-33.56 93.19,-31.1 102,-29 116,-25.66 131.26,-22.41 145.35,-19.58"/>
<polygon fill="midnightblue" stroke="midnightblue" points="73.79,-32.67 65.09,-38.72 75.66,-39.42 73.79,-32.67"/>
</g>
<!-- Node5&#45;&gt;Node3 -->
<g id="edge4" class="edge">
<title>Node5&#45;&gt;Node3</title>
<path fill="none" stroke="orange" stroke-dasharray="5,2" d="M303.45,-48.18C353.3,-48.42 413.73,-48.93 468,-50 475.06,-50.14 482.33,-50.31 489.67,-50.49"/>
<polygon fill="orange" stroke="orange" points="303.31,-44.68 293.3,-48.14 303.28,-51.68 303.31,-44.68"/>
<text text-anchor="start" x="311" y="-64" font-family="Helvetica,sans-Serif" font-size="10.00"> &lt; InstanceNormalizationQueue</text>
<text text-anchor="middle" x="389.5" y="-53" font-family="Helvetica,sans-Serif" font-size="10.00">Descriptor &gt;</text>
</g>
<!-- Node6 -->
<g id="node6" class="node">
<title>Node6</title>
<g id="a_node6"><a xlink:href="classarmnn_1_1_neon_base_workload.html" target="_top" xlink:title=" ">
<polygon fill="white" stroke="black" points="486,-0.5 486,-19.5 702,-19.5 702,-0.5 486,-0.5"/>
<text text-anchor="middle" x="594" y="-7.5" font-family="Helvetica,sans-Serif" font-size="10.00">NeonBaseWorkload&lt; QueueDescriptor &gt;</text>
</a>
</g>
</g>
<!-- Node6&#45;&gt;Node2 -->
<g id="edge6" class="edge">
<title>Node6&#45;&gt;Node2</title>
<path fill="none" stroke="orange" stroke-dasharray="5,2" d="M712.04,-6.91C762.84,-6.69 822.96,-7.93 877,-13 887.19,-13.96 897.87,-15.37 908.37,-16.99"/>
<polygon fill="orange" stroke="orange" points="711.99,-3.41 702.01,-6.97 712.03,-10.41 711.99,-3.41"/>
<text text-anchor="start" x="720" y="-27" font-family="Helvetica,sans-Serif" font-size="10.00"> &lt; InstanceNormalizationQueue</text>
<text text-anchor="middle" x="798.5" y="-16" font-family="Helvetica,sans-Serif" font-size="10.00">Descriptor &gt;</text>
</g>
<!-- Node7&#45;&gt;Node6 -->
<g id="edge7" class="edge">
<title>Node7&#45;&gt;Node6</title>
<path fill="none" stroke="midnightblue" d="M303.25,-10C359.64,-10 429.07,-10 485.83,-10"/>
<polygon fill="midnightblue" stroke="midnightblue" points="303.24,-6.5 293.24,-10 303.24,-13.5 303.24,-6.5"/>
</g>
</g>
</svg>
