<?xml version="1.0" encoding="UTF-8" standalone="no"?>
<!DOCTYPE svg PUBLIC "-//W3C//DTD SVG 1.1//EN"
 "http://www.w3.org/Graphics/SVG/1.1/DTD/svg11.dtd">
<!-- Generated by graphviz version 2.43.0 (0)
 -->
<!-- Title: ClQuantizedLstmWorkload Pages: 1 -->
<svg width="1590pt" height="282pt"
 viewBox="0.00 0.00 1590.00 282.00" xmlns="http://www.w3.org/2000/svg" xmlns:xlink="http://www.w3.org/1999/xlink">
<g id="graph0" class="graph" transform="scale(1 1) rotate(0) translate(4 278)">
<title>ClQuantizedLstmWorkload</title>
<polygon fill="white" stroke="transparent" points="-4,4 -4,-278 1586,-278 1586,4 -4,4"/>
<!-- Node1 -->
<g id="node1" class="node">
<title>Node1</title>
<g id="a_node1"><a xlink:title=" ">
<polygon fill="#bfbfbf" stroke="black" points="1436,-46.5 1436,-65.5 1582,-65.5 1582,-46.5 1436,-46.5"/>
<text text-anchor="middle" x="1509" y="-53.5" font-family="Helvetica,sans-Serif" font-size="10.00">ClQuantizedLstmWorkload</text>
</a>
</g>
</g>
<!-- Node2 -->
<g id="node2" class="node">
<title>Node2</title>
<g id="a_node2"><a xlink:href="classarmnn_1_1_cl_base_workload.html" target="_top" xlink:title=" ">
<polygon fill="white" stroke="black" points="1242,-41 1242,-71 1399,-71 1399,-41 1242,-41"/>
<text text-anchor="start" x="1250" y="-59" font-family="Helvetica,sans-Serif" font-size="10.00">ClBaseWorkload&lt; Quantized</text>
<text text-anchor="middle" x="1320.5" y="-48" font-family="Helvetica,sans-Serif" font-size="10.00">LstmQueueDescriptor &gt;</text>
</a>
</g>
</g>
<!-- Node2&#45;&gt;Node1 -->
<g id="edge1" class="edge">
<title>Node2&#45;&gt;Node1</title>
<path fill="none" stroke="midnightblue" d="M1409.51,-56C1418.3,-56 1427.15,-56 1435.75,-56"/>
<polygon fill="midnightblue" stroke="midnightblue" points="1409.24,-52.5 1399.24,-56 1409.24,-59.5 1409.24,-52.5"/>
</g>
<!-- Node3 -->
<g id="node3" class="node">
<title>Node3</title>
<g id="a_node3"><a xlink:href="classarmnn_1_1_base_workload.html" target="_top" xlink:title=" ">
<polygon fill="white" stroke="black" points="839.5,-20 839.5,-50 1010.5,-50 1010.5,-20 839.5,-20"/>
<text text-anchor="start" x="847.5" y="-38" font-family="Helvetica,sans-Serif" font-size="10.00">BaseWorkload&lt; QuantizedLstm</text>
<text text-anchor="middle" x="925" y="-27" font-family="Helvetica,sans-Serif" font-size="10.00">QueueDescriptor &gt;</text>
</a>
</g>
</g>
<!-- Node3&#45;&gt;Node2 -->
<g id="edge2" class="edge">
<title>Node3&#45;&gt;Node2</title>
<path fill="none" stroke="midnightblue" d="M1021.13,-40.08C1088.75,-43.69 1178.43,-48.47 1241.77,-51.85"/>
<polygon fill="midnightblue" stroke="midnightblue" points="1021.07,-36.57 1010.9,-39.53 1020.7,-43.56 1021.07,-36.57"/>
</g>
<!-- Node4 -->
<g id="node4" class="node">
<title>Node4</title>
<g id="a_node4"><a xlink:href="classarmnn_1_1_i_workload.html" target="_top" xlink:title="Workload interface to enqueue a layer computation.">
<polygon fill="white" stroke="black" points="145.5,-0.5 145.5,-19.5 210.5,-19.5 210.5,-0.5 145.5,-0.5"/>
<text text-anchor="middle" x="178" y="-7.5" font-family="Helvetica,sans-Serif" font-size="10.00">IWorkload</text>
</a>
</g>
</g>
<!-- Node4&#45;&gt;Node3 -->
<g id="edge3" class="edge">
<title>Node4&#45;&gt;Node3</title>
<path fill="none" stroke="midnightblue" d="M220.79,-9.64C265.05,-9.35 336.95,-9.11 399,-10 491.92,-11.33 515.16,-11.88 608,-16 686.38,-19.48 775.6,-24.99 839.21,-29.18"/>
<polygon fill="midnightblue" stroke="midnightblue" points="220.67,-6.14 210.7,-9.71 220.72,-13.14 220.67,-6.14"/>
</g>
<!-- Node9 -->
<g id="node9" class="node">
<title>Node9</title>
<g id="a_node9"><a xlink:href="classarmnn_1_1_base_workload.html" target="_top" xlink:title=" ">
<polygon fill="white" stroke="black" points="417,-25.5 417,-44.5 608,-44.5 608,-25.5 417,-25.5"/>
<text text-anchor="middle" x="512.5" y="-32.5" font-family="Helvetica,sans-Serif" font-size="10.00">BaseWorkload&lt; QueueDescriptor &gt;</text>
</a>
</g>
</g>
<!-- Node4&#45;&gt;Node9 -->
<g id="edge9" class="edge">
<title>Node4&#45;&gt;Node9</title>
<path fill="none" stroke="midnightblue" d="M220.82,-12.24C265.1,-14.71 337.02,-19 399,-24 404.87,-24.47 410.91,-24.99 416.99,-25.52"/>
<polygon fill="midnightblue" stroke="midnightblue" points="220.9,-8.74 210.72,-11.68 220.51,-15.73 220.9,-8.74"/>
</g>
<!-- Node11 -->
<g id="node11" class="node">
<title>Node11</title>
<g id="a_node11"><a xlink:href="classarmnn_1_1_base_workload.html" target="_top" xlink:title=" ">
<polygon fill="white" stroke="black" points="417,-69.5 417,-88.5 608,-88.5 608,-69.5 417,-69.5"/>
<text text-anchor="middle" x="512.5" y="-76.5" font-family="Helvetica,sans-Serif" font-size="10.00">BaseWorkload&lt; QueueDescriptor &gt;</text>
</a>
</g>
</g>
<!-- Node4&#45;&gt;Node11 -->
<g id="edge13" class="edge">
<title>Node4&#45;&gt;Node11</title>
<path fill="none" stroke="midnightblue" d="M220.57,-16.88C274.55,-25.9 365.77,-41.46 399,-49 407.1,-50.84 408.99,-51.83 417,-54 436.16,-59.2 457.55,-64.86 475.12,-69.49"/>
<polygon fill="midnightblue" stroke="midnightblue" points="221.06,-13.42 210.62,-15.22 219.91,-20.32 221.06,-13.42"/>
</g>
<!-- Node5 -->
<g id="node5" class="node">
<title>Node5</title>
<g id="a_node5"><a xlink:href="structarmnn_1_1_quantized_lstm_queue_descriptor.html" target="_top" xlink:title=" ">
<polygon fill="white" stroke="black" points="426.5,-118.5 426.5,-137.5 598.5,-137.5 598.5,-118.5 426.5,-118.5"/>
<text text-anchor="middle" x="512.5" y="-125.5" font-family="Helvetica,sans-Serif" font-size="10.00">QuantizedLstmQueueDescriptor</text>
</a>
</g>
</g>
<!-- Node5&#45;&gt;Node3 -->
<g id="edge4" class="edge">
<title>Node5&#45;&gt;Node3</title>
<path fill="none" stroke="#9a32cd" stroke-dasharray="5,2" d="M565.56,-116.2C639.88,-99.37 776.37,-68.45 857.79,-50"/>
<polygon fill="#9a32cd" stroke="#9a32cd" points="564.48,-112.86 555.5,-118.48 566.03,-119.69 564.48,-112.86"/>
<text text-anchor="middle" x="716.5" y="-103" font-family="Helvetica,sans-Serif" font-size="10.00"> m_Data</text>
</g>
<!-- Node6 -->
<g id="node6" class="node">
<title>Node6</title>
<g id="a_node6"><a xlink:href="structarmnn_1_1_queue_descriptor.html" target="_top" xlink:title=" ">
<polygon fill="white" stroke="black" points="129,-92.5 129,-111.5 227,-111.5 227,-92.5 129,-92.5"/>
<text text-anchor="middle" x="178" y="-99.5" font-family="Helvetica,sans-Serif" font-size="10.00">QueueDescriptor</text>
</a>
</g>
</g>
<!-- Node6&#45;&gt;Node5 -->
<g id="edge5" class="edge">
<title>Node6&#45;&gt;Node5</title>
<path fill="none" stroke="midnightblue" d="M237.41,-109.6C242.01,-110.1 246.58,-110.58 251,-111 309.43,-116.55 375.4,-120.84 426.34,-123.72"/>
<polygon fill="midnightblue" stroke="midnightblue" points="237.7,-106.11 227.37,-108.44 236.9,-113.06 237.7,-106.11"/>
</g>
<!-- Node6&#45;&gt;Node9 -->
<g id="edge10" class="edge">
<title>Node6&#45;&gt;Node9</title>
<path fill="none" stroke="#9a32cd" stroke-dasharray="5,2" d="M207.43,-88.19C220.44,-82.39 236.22,-76.06 251,-72 304.96,-57.19 366.93,-48.08 416.88,-42.61"/>
<polygon fill="#9a32cd" stroke="#9a32cd" points="205.72,-85.13 198.09,-92.48 208.63,-91.49 205.72,-85.13"/>
<text text-anchor="middle" x="325" y="-75" font-family="Helvetica,sans-Serif" font-size="10.00"> m_Data</text>
</g>
<!-- Node6&#45;&gt;Node11 -->
<g id="edge14" class="edge">
<title>Node6&#45;&gt;Node11</title>
<path fill="none" stroke="#9a32cd" stroke-dasharray="5,2" d="M237.56,-97.95C287.09,-94.52 359,-89.55 416.71,-85.56"/>
<polygon fill="#9a32cd" stroke="#9a32cd" points="237.08,-94.47 227.35,-98.66 237.57,-101.46 237.08,-94.47"/>
<text text-anchor="middle" x="325" y="-99" font-family="Helvetica,sans-Serif" font-size="10.00"> m_Data</text>
</g>
<!-- Node7 -->
<g id="node7" class="node">
<title>Node7</title>
<g id="a_node7"><a xlink:href="classarmnn_1_1_const_tensor_handle.html" target="_top" xlink:title=" ">
<polygon fill="white" stroke="black" points="123,-151.5 123,-170.5 233,-170.5 233,-151.5 123,-151.5"/>
<text text-anchor="middle" x="178" y="-158.5" font-family="Helvetica,sans-Serif" font-size="10.00">ConstTensorHandle</text>
</a>
</g>
</g>
<!-- Node7&#45;&gt;Node5 -->
<g id="edge6" class="edge">
<title>Node7&#45;&gt;Node5</title>
<path fill="none" stroke="#9a32cd" stroke-dasharray="5,2" d="M243.29,-154.62C295.45,-149.44 369.43,-142.1 426.48,-136.44"/>
<polygon fill="#9a32cd" stroke="#9a32cd" points="242.77,-151.15 233.16,-155.62 243.46,-158.12 242.77,-151.15"/>
<text text-anchor="middle" x="325" y="-266" font-family="Helvetica,sans-Serif" font-size="10.00"> m_RecurrentToOutputWeights</text>
<text text-anchor="middle" x="325" y="-255" font-family="Helvetica,sans-Serif" font-size="10.00">m_CellBias</text>
<text text-anchor="middle" x="325" y="-244" font-family="Helvetica,sans-Serif" font-size="10.00">m_RecurrentToForgetWeights</text>
<text text-anchor="middle" x="325" y="-233" font-family="Helvetica,sans-Serif" font-size="10.00">m_RecurrentToInputWeights</text>
<text text-anchor="middle" x="325" y="-222" font-family="Helvetica,sans-Serif" font-size="10.00">m_InputToOutputWeights</text>
<text text-anchor="middle" x="325" y="-211" font-family="Helvetica,sans-Serif" font-size="10.00">m_RecurrentToCellWeights</text>
<text text-anchor="middle" x="325" y="-200" font-family="Helvetica,sans-Serif" font-size="10.00">m_InputToCellWeights</text>
<text text-anchor="middle" x="325" y="-189" font-family="Helvetica,sans-Serif" font-size="10.00">m_ForgetGateBias</text>
<text text-anchor="middle" x="325" y="-178" font-family="Helvetica,sans-Serif" font-size="10.00">m_OutputGateBias</text>
<text text-anchor="middle" x="325" y="-167" font-family="Helvetica,sans-Serif" font-size="10.00">m_InputToInputWeights</text>
<text text-anchor="middle" x="325" y="-156" font-family="Helvetica,sans-Serif" font-size="10.00">...</text>
</g>
<!-- Node8 -->
<g id="node8" class="node">
<title>Node8</title>
<g id="a_node8"><a xlink:href="classarmnn_1_1_i_tensor_handle.html" target="_top" xlink:title=" ">
<polygon fill="white" stroke="black" points="0,-151.5 0,-170.5 86,-170.5 86,-151.5 0,-151.5"/>
<text text-anchor="middle" x="43" y="-158.5" font-family="Helvetica,sans-Serif" font-size="10.00">ITensorHandle</text>
</a>
</g>
</g>
<!-- Node8&#45;&gt;Node7 -->
<g id="edge7" class="edge">
<title>Node8&#45;&gt;Node7</title>
<path fill="none" stroke="midnightblue" d="M96.21,-161C105.01,-161 114.16,-161 123,-161"/>
<polygon fill="midnightblue" stroke="midnightblue" points="96.08,-157.5 86.08,-161 96.08,-164.5 96.08,-157.5"/>
</g>
<!-- Node9&#45;&gt;Node3 -->
<g id="edge8" class="edge">
<title>Node9&#45;&gt;Node3</title>
<path fill="none" stroke="orange" stroke-dasharray="5,2" d="M618.57,-35C687.04,-35 775.21,-35 839.2,-35"/>
<polygon fill="orange" stroke="orange" points="618.19,-31.5 608.19,-35 618.19,-38.5 618.19,-31.5"/>
<text text-anchor="middle" x="716.5" y="-38" font-family="Helvetica,sans-Serif" font-size="10.00"> &lt; QuantizedLstmQueueDescriptor &gt;</text>
</g>
<!-- Node10 -->
<g id="node10" class="node">
<title>Node10</title>
<g id="a_node10"><a xlink:href="classarmnn_1_1_cl_base_workload.html" target="_top" xlink:title=" ">
<polygon fill="white" stroke="black" points="825,-69.5 825,-88.5 1025,-88.5 1025,-69.5 825,-69.5"/>
<text text-anchor="middle" x="925" y="-76.5" font-family="Helvetica,sans-Serif" font-size="10.00">ClBaseWorkload&lt; QueueDescriptor &gt;</text>
</a>
</g>
</g>
<!-- Node10&#45;&gt;Node2 -->
<g id="edge11" class="edge">
<title>Node10&#45;&gt;Node2</title>
<path fill="none" stroke="orange" stroke-dasharray="5,2" d="M1035.43,-72.6C1101.03,-68.77 1182.88,-63.99 1241.85,-60.54"/>
<polygon fill="orange" stroke="orange" points="1034.82,-69.13 1025.04,-73.21 1035.23,-76.12 1034.82,-69.13"/>
<text text-anchor="middle" x="1133.5" y="-74" font-family="Helvetica,sans-Serif" font-size="10.00"> &lt; QuantizedLstmQueueDescriptor &gt;</text>
</g>
<!-- Node11&#45;&gt;Node10 -->
<g id="edge12" class="edge">
<title>Node11&#45;&gt;Node10</title>
<path fill="none" stroke="midnightblue" d="M618.23,-79C681.74,-79 762.3,-79 824.78,-79"/>
<polygon fill="midnightblue" stroke="midnightblue" points="618.19,-75.5 608.19,-79 618.19,-82.5 618.19,-75.5"/>
</g>
</g>
</svg>
