<?xml version="1.0" encoding="UTF-8" standalone="no"?>
<!DOCTYPE svg PUBLIC "-//W3C//DTD SVG 1.1//EN"
 "http://www.w3.org/Graphics/SVG/1.1/DTD/svg11.dtd">
<!-- Generated by graphviz version 2.43.0 (0)
 -->
<!-- Title: BroadcastToLayer Pages: 1 -->
<svg width="373pt" height="298pt"
 viewBox="0.00 0.00 372.50 298.00" xmlns="http://www.w3.org/2000/svg" xmlns:xlink="http://www.w3.org/1999/xlink">
<g id="graph0" class="graph" transform="scale(1 1) rotate(0) translate(4 294)">
<title>BroadcastToLayer</title>
<polygon fill="white" stroke="transparent" points="-4,4 -4,-294 368.5,-294 368.5,4 -4,4"/>
<!-- Node1 -->
<g id="node1" class="node">
<title>Node1</title>
<g id="a_node1"><a xlink:title=" ">
<polygon fill="#bfbfbf" stroke="black" points="35,-0.5 35,-19.5 138,-19.5 138,-0.5 35,-0.5"/>
<text text-anchor="middle" x="86.5" y="-7.5" font-family="Helvetica,sans-Serif" font-size="10.00">BroadcastToLayer</text>
</a>
</g>
</g>
<!-- Node2 -->
<g id="node2" class="node">
<title>Node2</title>
<g id="a_node2"><a xlink:href="classarmnn_1_1_layer_with_parameters.html" target="_top" xlink:title=" ">
<polygon fill="white" stroke="black" points="12,-57.5 12,-87.5 161,-87.5 161,-57.5 12,-57.5"/>
<text text-anchor="start" x="20" y="-75.5" font-family="Helvetica,sans-Serif" font-size="10.00">LayerWithParameters</text>
<text text-anchor="middle" x="86.5" y="-64.5" font-family="Helvetica,sans-Serif" font-size="10.00">&lt; BroadcastToDescriptor &gt;</text>
</a>
</g>
</g>
<!-- Node2&#45;&gt;Node1 -->
<g id="edge1" class="edge">
<title>Node2&#45;&gt;Node1</title>
<path fill="none" stroke="midnightblue" d="M86.5,-47.35C86.5,-37.51 86.5,-26.78 86.5,-19.54"/>
<polygon fill="midnightblue" stroke="midnightblue" points="83,-47.47 86.5,-57.47 90,-47.47 83,-47.47"/>
</g>
<!-- Node3 -->
<g id="node3" class="node">
<title>Node3</title>
<g id="a_node3"><a xlink:href="classarmnn_1_1_layer.html" target="_top" xlink:title=" ">
<polygon fill="white" stroke="black" points="31.5,-213.5 31.5,-232.5 75.5,-232.5 75.5,-213.5 31.5,-213.5"/>
<text text-anchor="middle" x="53.5" y="-220.5" font-family="Helvetica,sans-Serif" font-size="10.00">Layer</text>
</a>
</g>
</g>
<!-- Node3&#45;&gt;Node2 -->
<g id="edge2" class="edge">
<title>Node3&#45;&gt;Node2</title>
<path fill="none" stroke="midnightblue" d="M40.81,-204.76C29.38,-187 15.76,-158.64 25.5,-135 33.57,-115.39 51.26,-98.73 65.52,-87.71"/>
<polygon fill="midnightblue" stroke="midnightblue" points="38.22,-207.18 46.77,-213.44 43.99,-203.22 38.22,-207.18"/>
</g>
<!-- Node8 -->
<g id="node8" class="node">
<title>Node8</title>
<g id="a_node8"><a xlink:href="classarmnn_1_1_layer_with_parameters.html" target="_top" xlink:title=" ">
<polygon fill="white" stroke="black" points="34.5,-135.5 34.5,-165.5 156.5,-165.5 156.5,-135.5 34.5,-135.5"/>
<text text-anchor="start" x="42.5" y="-153.5" font-family="Helvetica,sans-Serif" font-size="10.00">LayerWithParameters</text>
<text text-anchor="middle" x="95.5" y="-142.5" font-family="Helvetica,sans-Serif" font-size="10.00">&lt; Parameters &gt;</text>
</a>
</g>
</g>
<!-- Node3&#45;&gt;Node8 -->
<g id="edge8" class="edge">
<title>Node3&#45;&gt;Node8</title>
<path fill="none" stroke="midnightblue" d="M63.82,-204.68C70.98,-192.65 80.41,-176.83 87.11,-165.58"/>
<polygon fill="midnightblue" stroke="midnightblue" points="60.76,-202.97 58.65,-213.36 66.77,-206.56 60.76,-202.97"/>
</g>
<!-- Node4 -->
<g id="node4" class="node">
<title>Node4</title>
<g id="a_node4"><a xlink:href="classarmnn_1_1_i_connectable_layer.html" target="_top" xlink:title="Interface for a layer that is connectable to other layers via InputSlots and OutputSlots.">
<polygon fill="white" stroke="black" points="0,-270.5 0,-289.5 107,-289.5 107,-270.5 0,-270.5"/>
<text text-anchor="middle" x="53.5" y="-277.5" font-family="Helvetica,sans-Serif" font-size="10.00">IConnectableLayer</text>
</a>
</g>
</g>
<!-- Node4&#45;&gt;Node3 -->
<g id="edge3" class="edge">
<title>Node4&#45;&gt;Node3</title>
<path fill="none" stroke="midnightblue" d="M53.5,-260.12C53.5,-250.82 53.5,-240.06 53.5,-232.71"/>
<polygon fill="midnightblue" stroke="midnightblue" points="50,-260.41 53.5,-270.41 57,-260.41 50,-260.41"/>
</g>
<!-- Node5 -->
<g id="node5" class="node">
<title>Node5</title>
<g id="a_node5"><a xlink:href="structarmnn_1_1_broadcast_to_descriptor.html" target="_top" xlink:title=" ">
<polygon fill="white" stroke="black" points="182.5,-141 182.5,-160 308.5,-160 308.5,-141 182.5,-141"/>
<text text-anchor="middle" x="245.5" y="-148" font-family="Helvetica,sans-Serif" font-size="10.00">BroadcastToDescriptor</text>
</a>
</g>
</g>
<!-- Node5&#45;&gt;Node2 -->
<g id="edge4" class="edge">
<title>Node5&#45;&gt;Node2</title>
<path fill="none" stroke="#9a32cd" stroke-dasharray="5,2" d="M240.29,-131.2C236.87,-122.36 231.52,-112.33 223.5,-106 205.74,-92 182.93,-83.87 161.04,-79.2"/>
<polygon fill="#9a32cd" stroke="#9a32cd" points="236.98,-132.34 243.45,-140.73 243.62,-130.14 236.98,-132.34"/>
<text text-anchor="middle" x="258" y="-109" font-family="Helvetica,sans-Serif" font-size="10.00"> m_Param</text>
</g>
<!-- Node6 -->
<g id="node6" class="node">
<title>Node6</title>
<g id="a_node6"><a xlink:href="structarmnn_1_1_base_descriptor.html" target="_top" xlink:title="Base class for all descriptors.">
<polygon fill="white" stroke="black" points="115,-213.5 115,-232.5 206,-232.5 206,-213.5 115,-213.5"/>
<text text-anchor="middle" x="160.5" y="-220.5" font-family="Helvetica,sans-Serif" font-size="10.00">BaseDescriptor</text>
</a>
</g>
</g>
<!-- Node6&#45;&gt;Node5 -->
<g id="edge5" class="edge">
<title>Node6&#45;&gt;Node5</title>
<path fill="none" stroke="midnightblue" d="M179.09,-206.58C196.22,-192.37 221.06,-171.77 234.99,-160.22"/>
<polygon fill="midnightblue" stroke="midnightblue" points="176.39,-204.28 170.92,-213.36 180.85,-209.67 176.39,-204.28"/>
</g>
<!-- Node7 -->
<g id="node7" class="node">
<title>Node7</title>
<g id="a_node7"><a xlink:href="classarmnn_1_1_tensor_shape.html" target="_top" xlink:title=" ">
<polygon fill="white" stroke="black" points="224.5,-213.5 224.5,-232.5 302.5,-232.5 302.5,-213.5 224.5,-213.5"/>
<text text-anchor="middle" x="263.5" y="-220.5" font-family="Helvetica,sans-Serif" font-size="10.00">TensorShape</text>
</a>
</g>
</g>
<!-- Node7&#45;&gt;Node5 -->
<g id="edge6" class="edge">
<title>Node7&#45;&gt;Node5</title>
<path fill="none" stroke="#9a32cd" stroke-dasharray="5,2" d="M258.74,-203.36C255.18,-189.4 250.46,-170.93 247.73,-160.22"/>
<polygon fill="#9a32cd" stroke="#9a32cd" points="255.43,-204.53 261.29,-213.36 262.21,-202.8 255.43,-204.53"/>
<text text-anchor="middle" x="310.5" y="-187" font-family="Helvetica,sans-Serif" font-size="10.00"> m_BroadcastToShape</text>
</g>
<!-- Node8&#45;&gt;Node2 -->
<g id="edge7" class="edge">
<title>Node8&#45;&gt;Node2</title>
<path fill="none" stroke="orange" stroke-dasharray="5,2" d="M88.97,-125.48C88.38,-122.64 87.87,-119.77 87.5,-117 86.21,-107.27 85.97,-96.2 86.05,-87.67"/>
<polygon fill="orange" stroke="orange" points="85.6,-126.47 91.31,-135.39 92.42,-124.85 85.6,-126.47"/>
<text text-anchor="middle" x="155.5" y="-109" font-family="Helvetica,sans-Serif" font-size="10.00"> &lt; BroadcastToDescriptor &gt;</text>
</g>
</g>
</svg>
