<?xml version="1.0" encoding="UTF-8" standalone="no"?>
<!DOCTYPE svg PUBLIC "-//W3C//DTD SVG 1.1//EN"
 "http://www.w3.org/Graphics/SVG/1.1/DTD/svg11.dtd">
<!-- Generated by graphviz version 2.43.0 (0)
 -->
<!-- Title: src/backends/gpuFsa/layers Pages: 1 -->
<svg width="176pt" height="295pt"
 viewBox="0.00 0.00 176.19 295.00" xmlns="http://www.w3.org/2000/svg" xmlns:xlink="http://www.w3.org/1999/xlink">
<g id="graph0" class="graph" transform="scale(1 1) rotate(0) translate(4 291)">
<title>src/backends/gpuFsa/layers</title>
<polygon fill="white" stroke="transparent" points="-4,4 -4,-291 172.19,-291 172.19,4 -4,4"/>
<g id="clust1" class="cluster">
<title>clusterdir_dd5880bc3520e42c5318e86a9fdc97f6</title>
<g id="a_clust1"><a xlink:href="dir_dd5880bc3520e42c5318e86a9fdc97f6.html" target="_top" xlink:title="gpuFsa">
<polygon fill="#ddddee" stroke="black" points="78.5,-208 78.5,-279 148.5,-279 148.5,-208 78.5,-208"/>
<text text-anchor="middle" x="113.5" y="-267" font-family="Helvetica,sans-Serif" font-size="10.00">gpuFsa</text>
</a>
</g>
</g>
<!-- dir_6735d107a3ea44e973a098b746f1b3bd -->
<g id="node1" class="node">
<title>dir_6735d107a3ea44e973a098b746f1b3bd</title>
<g id="a_node1"><a xlink:href="dir_6735d107a3ea44e973a098b746f1b3bd.html" target="_top" xlink:title="layers">
<polygon fill="#eeeeff" stroke="black" points="140.5,-252 86.5,-252 86.5,-216 140.5,-216 140.5,-252"/>
<text text-anchor="middle" x="113.5" y="-231.5" font-family="Helvetica,sans-Serif" font-size="10.00">layers</text>
</a>
</g>
</g>
<!-- dir_c13beb47b846b3a63741c705c772cf8d -->
<g id="node2" class="node">
<title>dir_c13beb47b846b3a63741c705c772cf8d</title>
<g id="a_node2"><a xlink:href="dir_c13beb47b846b3a63741c705c772cf8d.html" target="_top" xlink:title="aclCommon">
<polygon fill="none" stroke="black" points="151,-180 76,-180 76,-144 151,-144 151,-180"/>
<text text-anchor="middle" x="113.5" y="-159.5" font-family="Helvetica,sans-Serif" font-size="10.00">aclCommon</text>
</a>
</g>
</g>
<!-- dir_6735d107a3ea44e973a098b746f1b3bd&#45;&gt;dir_c13beb47b846b3a63741c705c772cf8d -->
<g id="edge4" class="edge">
<title>dir_6735d107a3ea44e973a098b746f1b3bd&#45;&gt;dir_c13beb47b846b3a63741c705c772cf8d</title>
<path fill="none" stroke="black" d="M113.5,-215.7C113.5,-207.98 113.5,-198.71 113.5,-190.11"/>
<polygon fill="black" stroke="black" points="117,-190.1 113.5,-180.1 110,-190.1 117,-190.1"/>
<g id="a_edge4&#45;headlabel"><a xlink:href="dir_000046_000037.html" target="_top" xlink:title="13">
<text text-anchor="middle" x="119.84" y="-191.2" font-family="Helvetica,sans-Serif" font-size="10.00">13</text>
</a>
</g>
</g>
<!-- dir_797a213d7d01b98ef12d53b0820ea64e -->
<g id="node3" class="node">
<title>dir_797a213d7d01b98ef12d53b0820ea64e</title>
<g id="a_node3"><a xlink:href="dir_797a213d7d01b98ef12d53b0820ea64e.html" target="_top" xlink:title="backendsCommon">
<polygon fill="white" stroke="red" points="107,-108 0,-108 0,-72 107,-72 107,-108"/>
<text text-anchor="middle" x="53.5" y="-87.5" font-family="Helvetica,sans-Serif" font-size="10.00">backendsCommon</text>
</a>
</g>
</g>
<!-- dir_6735d107a3ea44e973a098b746f1b3bd&#45;&gt;dir_797a213d7d01b98ef12d53b0820ea64e -->
<g id="edge5" class="edge">
<title>dir_6735d107a3ea44e973a098b746f1b3bd&#45;&gt;dir_797a213d7d01b98ef12d53b0820ea64e</title>
<path fill="none" stroke="black" d="M94.04,-215.72C84.51,-206.15 73.77,-193.48 67.5,-180 58.5,-160.65 55.11,-136.64 53.92,-118.44"/>
<polygon fill="black" stroke="black" points="57.4,-118.03 53.43,-108.21 50.41,-118.36 57.4,-118.03"/>
<g id="a_edge5&#45;headlabel"><a xlink:href="dir_000046_000038.html" target="_top" xlink:title="1">
<text text-anchor="middle" x="60.41" y="-118.99" font-family="Helvetica,sans-Serif" font-size="10.00">1</text>
</a>
</g>
</g>
<!-- dir_d44c64559bbebec7f509842c48db8b23 -->
<g id="node4" class="node">
<title>dir_d44c64559bbebec7f509842c48db8b23</title>
<g id="a_node4"><a xlink:href="dir_d44c64559bbebec7f509842c48db8b23.html" target="_top" xlink:title="include">
<polygon fill="white" stroke="red" points="162.5,-36 108.5,-36 108.5,0 162.5,0 162.5,-36"/>
<text text-anchor="middle" x="135.5" y="-15.5" font-family="Helvetica,sans-Serif" font-size="10.00">include</text>
</a>
</g>
</g>
<!-- dir_6735d107a3ea44e973a098b746f1b3bd&#45;&gt;dir_d44c64559bbebec7f509842c48db8b23 -->
<g id="edge6" class="edge">
<title>dir_6735d107a3ea44e973a098b746f1b3bd&#45;&gt;dir_d44c64559bbebec7f509842c48db8b23</title>
<path fill="none" stroke="black" d="M134.77,-215.7C144.61,-206.31 155.26,-193.8 160.5,-180 177.69,-134.7 160.69,-77.95 147.55,-45.34"/>
<polygon fill="black" stroke="black" points="150.74,-43.9 143.64,-36.04 144.29,-46.62 150.74,-43.9"/>
<g id="a_edge6&#45;headlabel"><a xlink:href="dir_000046_000008.html" target="_top" xlink:title="11">
<text text-anchor="middle" x="154.75" y="-43.62" font-family="Helvetica,sans-Serif" font-size="10.00">11</text>
</a>
</g>
</g>
<!-- dir_c13beb47b846b3a63741c705c772cf8d&#45;&gt;dir_797a213d7d01b98ef12d53b0820ea64e -->
<g id="edge1" class="edge">
<title>dir_c13beb47b846b3a63741c705c772cf8d&#45;&gt;dir_797a213d7d01b98ef12d53b0820ea64e</title>
<path fill="none" stroke="black" d="M98.67,-143.7C91.48,-135.3 82.7,-125.07 74.81,-115.86"/>
<polygon fill="black" stroke="black" points="77.33,-113.42 68.16,-108.1 72.01,-117.97 77.33,-113.42"/>
<g id="a_edge1&#45;headlabel"><a xlink:href="dir_000037_000038.html" target="_top" xlink:title="1">
<text text-anchor="middle" x="81.82" y="-111.8" font-family="Helvetica,sans-Serif" font-size="10.00">1</text>
</a>
</g>
</g>
<!-- dir_c13beb47b846b3a63741c705c772cf8d&#45;&gt;dir_d44c64559bbebec7f509842c48db8b23 -->
<g id="edge2" class="edge">
<title>dir_c13beb47b846b3a63741c705c772cf8d&#45;&gt;dir_d44c64559bbebec7f509842c48db8b23</title>
<path fill="none" stroke="black" d="M116.15,-143.87C119.9,-119.67 126.79,-75.21 131.26,-46.39"/>
<polygon fill="black" stroke="black" points="134.76,-46.61 132.84,-36.19 127.85,-45.54 134.76,-46.61"/>
<g id="a_edge2&#45;headlabel"><a xlink:href="dir_000037_000008.html" target="_top" xlink:title="18">
<text text-anchor="middle" x="137.02" y="-48.09" font-family="Helvetica,sans-Serif" font-size="10.00">18</text>
</a>
</g>
</g>
<!-- dir_797a213d7d01b98ef12d53b0820ea64e&#45;&gt;dir_d44c64559bbebec7f509842c48db8b23 -->
<g id="edge3" class="edge">
<title>dir_797a213d7d01b98ef12d53b0820ea64e&#45;&gt;dir_d44c64559bbebec7f509842c48db8b23</title>
<path fill="none" stroke="black" d="M73.77,-71.7C84,-62.97 96.56,-52.24 107.68,-42.75"/>
<polygon fill="black" stroke="black" points="110.13,-45.26 115.46,-36.1 105.59,-39.94 110.13,-45.26"/>
<g id="a_edge3&#45;headlabel"><a xlink:href="dir_000038_000008.html" target="_top" xlink:title="77">
<text text-anchor="middle" x="109.24" y="-47.25" font-family="Helvetica,sans-Serif" font-size="10.00">77</text>
</a>
</g>
</g>
</g>
</svg>
