<?xml version="1.0" encoding="UTF-8" standalone="no"?>
<!DOCTYPE svg PUBLIC "-//W3C//DTD SVG 1.1//EN"
 "http://www.w3.org/Graphics/SVG/1.1/DTD/svg11.dtd">
<!-- Generated by graphviz version 2.43.0 (0)
 -->
<!-- Title: src/backends/backendsCommon/memoryOptimizerStrategyLibrary/strategies Pages: 1 -->
<svg width="205pt" height="151pt"
 viewBox="0.00 0.00 205.00 151.00" xmlns="http://www.w3.org/2000/svg" xmlns:xlink="http://www.w3.org/1999/xlink">
<g id="graph0" class="graph" transform="scale(1 1) rotate(0) translate(4 147)">
<title>src/backends/backendsCommon/memoryOptimizerStrategyLibrary/strategies</title>
<polygon fill="white" stroke="transparent" points="-4,4 -4,-147 201,-147 201,4 -4,4"/>
<g id="clust1" class="cluster">
<title>clusterdir_222b9efbf86b09050d83daeffd81e1d1</title>
<g id="a_clust1"><a xlink:href="dir_222b9efbf86b09050d83daeffd81e1d1.html" target="_top" xlink:title="memoryOptimizerStrategyLibrary">
<polygon fill="#ddddee" stroke="black" points="8,-64 8,-135 189,-135 189,-64 8,-64"/>
<text text-anchor="middle" x="98.5" y="-123" font-family="Helvetica,sans-Serif" font-size="10.00">memoryOptimizerStrategyLibrary</text>
</a>
</g>
</g>
<!-- dir_d49dbf30bb5f789805533dd1aa43d8d9 -->
<g id="node1" class="node">
<title>dir_d49dbf30bb5f789805533dd1aa43d8d9</title>
<g id="a_node1"><a xlink:href="dir_d49dbf30bb5f789805533dd1aa43d8d9.html" target="_top" xlink:title="strategies">
<polygon fill="#eeeeff" stroke="black" points="130.5,-108 65.5,-108 65.5,-72 130.5,-72 130.5,-108"/>
<text text-anchor="middle" x="98" y="-87.5" font-family="Helvetica,sans-Serif" font-size="10.00">strategies</text>
</a>
</g>
</g>
<!-- dir_d44c64559bbebec7f509842c48db8b23 -->
<g id="node2" class="node">
<title>dir_d44c64559bbebec7f509842c48db8b23</title>
<g id="a_node2"><a xlink:href="dir_d44c64559bbebec7f509842c48db8b23.html" target="_top" xlink:title="include">
<polygon fill="white" stroke="red" points="125,-36 71,-36 71,0 125,0 125,-36"/>
<text text-anchor="middle" x="98" y="-15.5" font-family="Helvetica,sans-Serif" font-size="10.00">include</text>
</a>
</g>
</g>
<!-- dir_d49dbf30bb5f789805533dd1aa43d8d9&#45;&gt;dir_d44c64559bbebec7f509842c48db8b23 -->
<g id="edge1" class="edge">
<title>dir_d49dbf30bb5f789805533dd1aa43d8d9&#45;&gt;dir_d44c64559bbebec7f509842c48db8b23</title>
<path fill="none" stroke="black" d="M98,-71.7C98,-63.98 98,-54.71 98,-46.11"/>
<polygon fill="black" stroke="black" points="101.5,-46.1 98,-36.1 94.5,-46.1 101.5,-46.1"/>
<g id="a_edge1&#45;headlabel"><a xlink:href="dir_000040_000008.html" target="_top" xlink:title="7">
<text text-anchor="middle" x="104.34" y="-47.2" font-family="Helvetica,sans-Serif" font-size="10.00">7</text>
</a>
</g>
</g>
</g>
</svg>
