<?xml version="1.0" encoding="UTF-8" standalone="no"?>
<!DOCTYPE svg PUBLIC "-//W3C//DTD SVG 1.1//EN"
 "http://www.w3.org/Graphics/SVG/1.1/DTD/svg11.dtd">
<!-- Generated by graphviz version 2.43.0 (0)
 -->
<!-- Title: Graphical Class Hierarchy Pages: 1 -->
<svg width="328pt" height="306pt"
 viewBox="0.00 0.00 328.00 305.50" xmlns="http://www.w3.org/2000/svg" xmlns:xlink="http://www.w3.org/1999/xlink">
<g id="graph0" class="graph" transform="scale(1 1) rotate(0) translate(4 301.5)">
<title>Graphical Class Hierarchy</title>
<polygon fill="white" stroke="transparent" points="-4,4 -4,-301.5 324,-301.5 324,4 -4,4"/>
<!-- Node0 -->
<g id="node1" class="node">
<title>Node0</title>
<g id="a_node1"><a xlink:href="classarmnn_1_1_i_tensor_handle_factory.html" target="_top" xlink:title=" ">
<polygon fill="white" stroke="black" points="0,-145 0,-164 121,-164 121,-145 0,-145"/>
<text text-anchor="middle" x="60.5" y="-152" font-family="Helvetica,sans-Serif" font-size="10.00">ITensorHandleFactory</text>
</a>
</g>
</g>
<!-- Node1 -->
<g id="node2" class="node">
<title>Node1</title>
<g id="a_node2"><a xlink:href="classarmnn_1_1_cl_import_tensor_handle_factory.html" target="_top" xlink:title="This factory creates ClImportTensorHandles that refer to imported memory tensors.">
<polygon fill="white" stroke="black" points="158.5,-278 158.5,-297 318.5,-297 318.5,-278 158.5,-278"/>
<text text-anchor="middle" x="238.5" y="-285" font-family="Helvetica,sans-Serif" font-size="10.00">ClImportTensorHandleFactory</text>
</a>
</g>
</g>
<!-- Node0&#45;&gt;Node1 -->
<g id="edge1" class="edge">
<title>Node0&#45;&gt;Node1</title>
<path fill="none" stroke="midnightblue" d="M71.74,-172.98C86.91,-198.57 117.83,-244.34 157,-268.5 163.23,-272.34 170.18,-275.41 177.3,-277.86"/>
<polygon fill="midnightblue" stroke="midnightblue" points="74.74,-171.17 66.71,-164.25 68.67,-174.67 74.74,-171.17"/>
</g>
<!-- Node2 -->
<g id="node3" class="node">
<title>Node2</title>
<g id="a_node3"><a xlink:href="classarmnn_1_1_cl_tensor_handle_factory.html" target="_top" xlink:title=" ">
<polygon fill="white" stroke="black" points="174.5,-240 174.5,-259 302.5,-259 302.5,-240 174.5,-240"/>
<text text-anchor="middle" x="238.5" y="-247" font-family="Helvetica,sans-Serif" font-size="10.00">ClTensorHandleFactory</text>
</a>
</g>
</g>
<!-- Node0&#45;&gt;Node2 -->
<g id="edge2" class="edge">
<title>Node0&#45;&gt;Node2</title>
<path fill="none" stroke="midnightblue" d="M77.84,-171.32C95.7,-188.72 125.92,-215.41 157,-230.5 164.88,-234.33 173.58,-237.41 182.25,-239.88"/>
<polygon fill="midnightblue" stroke="midnightblue" points="80.1,-168.63 70.55,-164.06 75.16,-173.59 80.1,-168.63"/>
</g>
<!-- Node3 -->
<g id="node4" class="node">
<title>Node3</title>
<g id="a_node4"><a xlink:href="classarmnn_1_1_gpu_fsa_tensor_handle_factory.html" target="_top" xlink:title=" ">
<polygon fill="white" stroke="black" points="161,-202 161,-221 316,-221 316,-202 161,-202"/>
<text text-anchor="middle" x="238.5" y="-209" font-family="Helvetica,sans-Serif" font-size="10.00">GpuFsaTensorHandleFactory</text>
</a>
</g>
</g>
<!-- Node0&#45;&gt;Node3 -->
<g id="edge3" class="edge">
<title>Node0&#45;&gt;Node3</title>
<path fill="none" stroke="midnightblue" d="M92.18,-168.04C110.71,-175.88 134.93,-185.55 157,-192.5 168.09,-196 180.23,-199.18 191.63,-201.9"/>
<polygon fill="midnightblue" stroke="midnightblue" points="93.36,-164.74 82.79,-164.02 90.61,-171.18 93.36,-164.74"/>
</g>
<!-- Node4 -->
<g id="node5" class="node">
<title>Node4</title>
<g id="a_node5"><a xlink:href="classarmnn_1_1_mock_tensor_handle_factory.html" target="_top" xlink:title=" ">
<polygon fill="white" stroke="black" points="166.5,-164 166.5,-183 310.5,-183 310.5,-164 166.5,-164"/>
<text text-anchor="middle" x="238.5" y="-171" font-family="Helvetica,sans-Serif" font-size="10.00">MockTensorHandleFactory</text>
</a>
</g>
</g>
<!-- Node0&#45;&gt;Node4 -->
<g id="edge4" class="edge">
<title>Node0&#45;&gt;Node4</title>
<path fill="none" stroke="midnightblue" d="M131.14,-162.02C142.73,-163.27 154.77,-164.57 166.41,-165.83"/>
<polygon fill="midnightblue" stroke="midnightblue" points="131.4,-158.53 121.09,-160.93 130.65,-165.49 131.4,-158.53"/>
</g>
<!-- Node5 -->
<g id="node6" class="node">
<title>Node5</title>
<g id="a_node6"><a xlink:href="classarmnn_1_1_neon_tensor_handle_factory.html" target="_top" xlink:title=" ">
<polygon fill="white" stroke="black" points="167,-126 167,-145 310,-145 310,-126 167,-126"/>
<text text-anchor="middle" x="238.5" y="-133" font-family="Helvetica,sans-Serif" font-size="10.00">NeonTensorHandleFactory</text>
</a>
</g>
</g>
<!-- Node0&#45;&gt;Node5 -->
<g id="edge5" class="edge">
<title>Node0&#45;&gt;Node5</title>
<path fill="none" stroke="midnightblue" d="M131.21,-146.97C142.89,-145.71 155.01,-144.41 166.71,-143.14"/>
<polygon fill="midnightblue" stroke="midnightblue" points="130.65,-143.51 121.09,-148.07 131.4,-150.47 130.65,-143.51"/>
</g>
<!-- Node6 -->
<g id="node7" class="node">
<title>Node6</title>
<g id="a_node7"><a xlink:href="classarmnn_1_1_ref_tensor_handle_factory.html" target="_top" xlink:title=" ">
<polygon fill="white" stroke="black" points="171.5,-88 171.5,-107 305.5,-107 305.5,-88 171.5,-88"/>
<text text-anchor="middle" x="238.5" y="-95" font-family="Helvetica,sans-Serif" font-size="10.00">RefTensorHandleFactory</text>
</a>
</g>
</g>
<!-- Node0&#45;&gt;Node6 -->
<g id="edge6" class="edge">
<title>Node0&#45;&gt;Node6</title>
<path fill="none" stroke="midnightblue" d="M92.18,-140.96C110.71,-133.12 134.93,-123.45 157,-116.5 168.09,-113 180.23,-109.82 191.63,-107.1"/>
<polygon fill="midnightblue" stroke="midnightblue" points="90.61,-137.82 82.79,-144.98 93.36,-144.26 90.61,-137.82"/>
</g>
<!-- Node7 -->
<g id="node8" class="node">
<title>Node7</title>
<g id="a_node8"><a xlink:href="classarmnn_1_1_tosa_ref_tensor_handle_factory.html" target="_top" xlink:title=" ">
<polygon fill="white" stroke="black" points="160.5,-50 160.5,-69 316.5,-69 316.5,-50 160.5,-50"/>
<text text-anchor="middle" x="238.5" y="-57" font-family="Helvetica,sans-Serif" font-size="10.00">TosaRefTensorHandleFactory</text>
</a>
</g>
</g>
<!-- Node0&#45;&gt;Node7 -->
<g id="edge7" class="edge">
<title>Node0&#45;&gt;Node7</title>
<path fill="none" stroke="midnightblue" d="M77.84,-137.68C95.7,-120.28 125.92,-93.59 157,-78.5 164.88,-74.67 173.58,-71.59 182.25,-69.12"/>
<polygon fill="midnightblue" stroke="midnightblue" points="75.16,-135.41 70.55,-144.94 80.1,-140.37 75.16,-135.41"/>
</g>
<!-- Node8 -->
<g id="node9" class="node">
<title>Node8</title>
<g id="a_node9"><a xlink:href="classsdb_1_1_sample_dynamic_tensor_handle_factory.html" target="_top" xlink:title=" ">
<polygon fill="white" stroke="black" points="157,-0.5 157,-30.5 320,-30.5 320,-0.5 157,-0.5"/>
<text text-anchor="start" x="165" y="-18.5" font-family="Helvetica,sans-Serif" font-size="10.00">SampleDynamicTensorHandle</text>
<text text-anchor="middle" x="238.5" y="-7.5" font-family="Helvetica,sans-Serif" font-size="10.00">Factory</text>
</a>
</g>
</g>
<!-- Node0&#45;&gt;Node8 -->
<g id="edge8" class="edge">
<title>Node0&#45;&gt;Node8</title>
<path fill="none" stroke="midnightblue" d="M72.19,-136.06C87.71,-110.85 118.86,-65.89 157,-40.5 162.73,-36.69 169.06,-33.43 175.59,-30.66"/>
<polygon fill="midnightblue" stroke="midnightblue" points="68.99,-134.58 66.85,-144.96 74.99,-138.18 68.99,-134.58"/>
</g>
</g>
</svg>
