<?xml version="1.0" encoding="UTF-8" standalone="no"?>
<!DOCTYPE svg PUBLIC "-//W3C//DTD SVG 1.1//EN"
 "http://www.w3.org/Graphics/SVG/1.1/DTD/svg11.dtd">
<!-- Generated by graphviz version 2.43.0 (0)
 -->
<!-- Title: delegate/opaque/include/armnn_delegate.hpp Pages: 1 -->
<svg width="845pt" height="117pt"
 viewBox="0.00 0.00 844.50 117.00" xmlns="http://www.w3.org/2000/svg" xmlns:xlink="http://www.w3.org/1999/xlink">
<g id="graph0" class="graph" transform="scale(1 1) rotate(0) translate(4 113)">
<title>delegate/opaque/include/armnn_delegate.hpp</title>
<polygon fill="white" stroke="transparent" points="-4,4 -4,-113 840.5,-113 840.5,4 -4,4"/>
<!-- Node1 -->
<g id="node1" class="node">
<title>Node1</title>
<g id="a_node1"><a xlink:title=" ">
<polygon fill="#bfbfbf" stroke="black" points="289,-78.5 289,-108.5 426,-108.5 426,-78.5 289,-78.5"/>
<text text-anchor="start" x="297" y="-96.5" font-family="Helvetica,sans-Serif" font-size="10.00">delegate/opaque/include</text>
<text text-anchor="middle" x="357.5" y="-85.5" font-family="Helvetica,sans-Serif" font-size="10.00">/armnn_delegate.hpp</text>
</a>
</g>
</g>
<!-- Node2 -->
<g id="node2" class="node">
<title>Node2</title>
<g id="a_node2"><a xlink:title=" ">
<polygon fill="white" stroke="#bfbfbf" points="0,-11.5 0,-30.5 119,-30.5 119,-11.5 0,-11.5"/>
<text text-anchor="middle" x="59.5" y="-18.5" font-family="Helvetica,sans-Serif" font-size="10.00">DelegateOptions.hpp</text>
</a>
</g>
</g>
<!-- Node1&#45;&gt;Node2 -->
<g id="edge1" class="edge">
<title>Node1&#45;&gt;Node2</title>
<path fill="none" stroke="midnightblue" d="M288.84,-78.58C243.2,-69.02 182.05,-55.65 128.5,-42 118.35,-39.41 107.43,-36.37 97.34,-33.45"/>
<polygon fill="midnightblue" stroke="midnightblue" points="98.17,-30.04 87.59,-30.59 96.2,-36.76 98.17,-30.04"/>
</g>
<!-- Node3 -->
<g id="node3" class="node">
<title>Node3</title>
<g id="a_node3"><a xlink:href="delegate_2opaque_2include_2_version_8hpp.html" target="_top" xlink:title=" ">
<polygon fill="white" stroke="black" points="137.5,-11.5 137.5,-30.5 211.5,-30.5 211.5,-11.5 137.5,-11.5"/>
<text text-anchor="middle" x="174.5" y="-18.5" font-family="Helvetica,sans-Serif" font-size="10.00">Version.hpp</text>
</a>
</g>
</g>
<!-- Node1&#45;&gt;Node3 -->
<g id="edge2" class="edge">
<title>Node1&#45;&gt;Node3</title>
<path fill="none" stroke="midnightblue" d="M317.4,-78.4C289.97,-68.59 252.85,-54.98 220.5,-42 214.8,-39.71 208.76,-37.17 202.99,-34.69"/>
<polygon fill="midnightblue" stroke="midnightblue" points="204.21,-31.4 193.65,-30.61 201.41,-37.82 204.21,-31.4"/>
</g>
<!-- Node4 -->
<g id="node4" class="node">
<title>Node4</title>
<g id="a_node4"><a xlink:title=" ">
<polygon fill="white" stroke="#bfbfbf" points="229.5,-6 229.5,-36 353.5,-36 353.5,-6 229.5,-6"/>
<text text-anchor="start" x="237.5" y="-24" font-family="Helvetica,sans-Serif" font-size="10.00">tensorflow/core/public</text>
<text text-anchor="middle" x="291.5" y="-13" font-family="Helvetica,sans-Serif" font-size="10.00">/version.h</text>
</a>
</g>
</g>
<!-- Node1&#45;&gt;Node4 -->
<g id="edge3" class="edge">
<title>Node1&#45;&gt;Node4</title>
<path fill="none" stroke="midnightblue" d="M344.14,-78.23C334.84,-68.3 322.26,-54.86 311.73,-43.61"/>
<polygon fill="midnightblue" stroke="midnightblue" points="314.23,-41.15 304.84,-36.25 309.12,-45.94 314.23,-41.15"/>
</g>
<!-- Node5 -->
<g id="node5" class="node">
<title>Node5</title>
<g id="a_node5"><a xlink:title=" ">
<polygon fill="white" stroke="#bfbfbf" points="372,-6 372,-36 475,-36 475,-6 372,-6"/>
<text text-anchor="start" x="380" y="-24" font-family="Helvetica,sans-Serif" font-size="10.00">tensorflow/lite/c/c</text>
<text text-anchor="middle" x="423.5" y="-13" font-family="Helvetica,sans-Serif" font-size="10.00">_api_opaque.h</text>
</a>
</g>
</g>
<!-- Node1&#45;&gt;Node5 -->
<g id="edge4" class="edge">
<title>Node1&#45;&gt;Node5</title>
<path fill="none" stroke="midnightblue" d="M370.86,-78.23C380.16,-68.3 392.74,-54.86 403.27,-43.61"/>
<polygon fill="midnightblue" stroke="midnightblue" points="405.88,-45.94 410.16,-36.25 400.77,-41.15 405.88,-45.94"/>
</g>
<!-- Node6 -->
<g id="node6" class="node">
<title>Node6</title>
<g id="a_node6"><a xlink:title=" ">
<polygon fill="white" stroke="#bfbfbf" points="493,-6 493,-36 672,-36 672,-6 493,-6"/>
<text text-anchor="start" x="501" y="-24" font-family="Helvetica,sans-Serif" font-size="10.00">tensorflow/lite/acceleration</text>
<text text-anchor="middle" x="582.5" y="-13" font-family="Helvetica,sans-Serif" font-size="10.00">/configuration/delegate_registry.h</text>
</a>
</g>
</g>
<!-- Node1&#45;&gt;Node6 -->
<g id="edge5" class="edge">
<title>Node1&#45;&gt;Node6</title>
<path fill="none" stroke="midnightblue" d="M402.22,-78.49C438.22,-67.21 488.98,-51.3 527.47,-39.24"/>
<polygon fill="midnightblue" stroke="midnightblue" points="528.98,-42.44 537.48,-36.11 526.89,-35.76 528.98,-42.44"/>
</g>
<!-- Node7 -->
<g id="node7" class="node">
<title>Node7</title>
<g id="a_node7"><a xlink:title=" ">
<polygon fill="white" stroke="#bfbfbf" points="690.5,-0.5 690.5,-41.5 836.5,-41.5 836.5,-0.5 690.5,-0.5"/>
<text text-anchor="start" x="698.5" y="-29.5" font-family="Helvetica,sans-Serif" font-size="10.00">tensorflow/lite/core</text>
<text text-anchor="start" x="698.5" y="-18.5" font-family="Helvetica,sans-Serif" font-size="10.00">/acceleration/configuration</text>
<text text-anchor="middle" x="763.5" y="-7.5" font-family="Helvetica,sans-Serif" font-size="10.00">/c/stable_delegate.h</text>
</a>
</g>
</g>
<!-- Node1&#45;&gt;Node7 -->
<g id="edge6" class="edge">
<title>Node1&#45;&gt;Node7</title>
<path fill="none" stroke="midnightblue" d="M426.06,-83.53C489.6,-74.83 586.92,-60.51 680.35,-42.15"/>
<polygon fill="midnightblue" stroke="midnightblue" points="681.12,-45.57 690.25,-40.19 679.76,-38.7 681.12,-45.57"/>
</g>
</g>
</svg>
