<?xml version="1.0" encoding="UTF-8" standalone="no"?>
<!DOCTYPE svg PUBLIC "-//W3C//DTD SVG 1.1//EN"
 "http://www.w3.org/Graphics/SVG/1.1/DTD/svg11.dtd">
<!-- Generated by graphviz version 2.43.0 (0)
 -->
<!-- Title: TransposeQueueDescriptor Pages: 1 -->
<svg width="934pt" height="110pt"
 viewBox="0.00 0.00 934.00 110.37" xmlns="http://www.w3.org/2000/svg" xmlns:xlink="http://www.w3.org/1999/xlink">
<g id="graph0" class="graph" transform="scale(1 1) rotate(0) translate(4 106.37)">
<title>TransposeQueueDescriptor</title>
<polygon fill="white" stroke="transparent" points="-4,4 -4,-106.37 930,-106.37 930,4 -4,4"/>
<!-- Node1 -->
<g id="node1" class="node">
<title>Node1</title>
<g id="a_node1"><a xlink:title=" ">
<polygon fill="#bfbfbf" stroke="black" points="779,-62.5 779,-81.5 926,-81.5 926,-62.5 779,-62.5"/>
<text text-anchor="middle" x="852.5" y="-69.5" font-family="Helvetica,sans-Serif" font-size="10.00">TransposeQueueDescriptor</text>
</a>
</g>
</g>
<!-- Node2 -->
<g id="node2" class="node">
<title>Node2</title>
<g id="a_node2"><a xlink:href="structarmnn_1_1_queue_descriptor_with_parameters.html" target="_top" xlink:title=" ">
<polygon fill="white" stroke="black" points="566,-57 566,-87 742,-87 742,-57 566,-57"/>
<text text-anchor="start" x="574" y="-75" font-family="Helvetica,sans-Serif" font-size="10.00">QueueDescriptorWithParameters</text>
<text text-anchor="middle" x="654" y="-64" font-family="Helvetica,sans-Serif" font-size="10.00">&lt; TransposeDescriptor &gt;</text>
</a>
</g>
</g>
<!-- Node2&#45;&gt;Node1 -->
<g id="edge1" class="edge">
<title>Node2&#45;&gt;Node1</title>
<path fill="none" stroke="midnightblue" d="M752.19,-72C761.19,-72 770.2,-72 778.93,-72"/>
<polygon fill="midnightblue" stroke="midnightblue" points="752.05,-68.5 742.05,-72 752.05,-75.5 752.05,-68.5"/>
</g>
<!-- Node3 -->
<g id="node3" class="node">
<title>Node3</title>
<g id="a_node3"><a xlink:href="structarmnn_1_1_queue_descriptor.html" target="_top" xlink:title=" ">
<polygon fill="white" stroke="black" points="4.5,-82.5 4.5,-101.5 102.5,-101.5 102.5,-82.5 4.5,-82.5"/>
<text text-anchor="middle" x="53.5" y="-89.5" font-family="Helvetica,sans-Serif" font-size="10.00">QueueDescriptor</text>
</a>
</g>
</g>
<!-- Node3&#45;&gt;Node2 -->
<g id="edge2" class="edge">
<title>Node3&#45;&gt;Node2</title>
<path fill="none" stroke="midnightblue" d="M112.86,-96.46C116.96,-96.68 121.04,-96.86 125,-97 312.93,-103.66 361,-106.87 548,-87 553.86,-86.38 559.89,-85.68 565.97,-84.93"/>
<polygon fill="midnightblue" stroke="midnightblue" points="112.82,-92.95 102.64,-95.87 112.42,-99.94 112.82,-92.95"/>
</g>
<!-- Node7 -->
<g id="node7" class="node">
<title>Node7</title>
<g id="a_node7"><a xlink:href="structarmnn_1_1_queue_descriptor_with_parameters.html" target="_top" xlink:title=" ">
<polygon fill="white" stroke="black" points="229,-57 229,-87 405,-87 405,-57 229,-57"/>
<text text-anchor="start" x="237" y="-75" font-family="Helvetica,sans-Serif" font-size="10.00">QueueDescriptorWithParameters</text>
<text text-anchor="middle" x="317" y="-64" font-family="Helvetica,sans-Serif" font-size="10.00">&lt; LayerDescriptor &gt;</text>
</a>
</g>
</g>
<!-- Node3&#45;&gt;Node7 -->
<g id="edge7" class="edge">
<title>Node3&#45;&gt;Node7</title>
<path fill="none" stroke="midnightblue" d="M113.03,-87.52C147.13,-84.92 190.78,-81.58 228.86,-78.66"/>
<polygon fill="midnightblue" stroke="midnightblue" points="112.47,-84.06 102.77,-88.31 113.01,-91.04 112.47,-84.06"/>
</g>
<!-- Node4 -->
<g id="node4" class="node">
<title>Node4</title>
<g id="a_node4"><a xlink:href="structarmnn_1_1_transpose_descriptor.html" target="_top" xlink:title="A TransposeDescriptor for the TransposeLayer.">
<polygon fill="white" stroke="black" points="259,-18.5 259,-37.5 375,-37.5 375,-18.5 259,-18.5"/>
<text text-anchor="middle" x="317" y="-25.5" font-family="Helvetica,sans-Serif" font-size="10.00">TransposeDescriptor</text>
</a>
</g>
</g>
<!-- Node4&#45;&gt;Node2 -->
<g id="edge3" class="edge">
<title>Node4&#45;&gt;Node2</title>
<path fill="none" stroke="#9a32cd" stroke-dasharray="5,2" d="M385.34,-36.19C431.21,-41.85 493.3,-49.65 548,-57 553.84,-57.79 559.86,-58.61 565.93,-59.45"/>
<polygon fill="#9a32cd" stroke="#9a32cd" points="385.57,-32.7 375.22,-34.95 384.72,-39.64 385.57,-32.7"/>
<text text-anchor="middle" x="485.5" y="-60" font-family="Helvetica,sans-Serif" font-size="10.00"> m_Parameters</text>
</g>
<!-- Node5 -->
<g id="node5" class="node">
<title>Node5</title>
<g id="a_node5"><a xlink:href="structarmnn_1_1_base_descriptor.html" target="_top" xlink:title="Base class for all descriptors.">
<polygon fill="white" stroke="black" points="8,-38.5 8,-57.5 99,-57.5 99,-38.5 8,-38.5"/>
<text text-anchor="middle" x="53.5" y="-45.5" font-family="Helvetica,sans-Serif" font-size="10.00">BaseDescriptor</text>
</a>
</g>
</g>
<!-- Node5&#45;&gt;Node4 -->
<g id="edge4" class="edge">
<title>Node5&#45;&gt;Node4</title>
<path fill="none" stroke="midnightblue" d="M109.34,-43.81C153.13,-40.46 214.3,-35.78 258.72,-32.38"/>
<polygon fill="midnightblue" stroke="midnightblue" points="108.86,-40.33 99.16,-44.58 109.39,-47.31 108.86,-40.33"/>
</g>
<!-- Node6 -->
<g id="node6" class="node">
<title>Node6</title>
<g id="a_node6"><a xlink:href="classarmnn_1_1_permutation_vector.html" target="_top" xlink:title=" ">
<polygon fill="white" stroke="black" points="0,-0.5 0,-19.5 107,-19.5 107,-0.5 0,-0.5"/>
<text text-anchor="middle" x="53.5" y="-7.5" font-family="Helvetica,sans-Serif" font-size="10.00">PermutationVector</text>
</a>
</g>
</g>
<!-- Node6&#45;&gt;Node4 -->
<g id="edge5" class="edge">
<title>Node6&#45;&gt;Node4</title>
<path fill="none" stroke="#9a32cd" stroke-dasharray="5,2" d="M117.19,-14.32C160.3,-17.28 217.1,-21.19 258.95,-24.07"/>
<polygon fill="#9a32cd" stroke="#9a32cd" points="117.32,-10.82 107.1,-13.62 116.84,-17.8 117.32,-10.82"/>
<text text-anchor="middle" x="168" y="-24" font-family="Helvetica,sans-Serif" font-size="10.00"> m_DimMappings</text>
</g>
<!-- Node7&#45;&gt;Node2 -->
<g id="edge6" class="edge">
<title>Node7&#45;&gt;Node2</title>
<path fill="none" stroke="orange" stroke-dasharray="5,2" d="M415.15,-72C462.72,-72 519.54,-72 565.71,-72"/>
<polygon fill="orange" stroke="orange" points="415.14,-68.5 405.14,-72 415.14,-75.5 415.14,-68.5"/>
<text text-anchor="middle" x="485.5" y="-75" font-family="Helvetica,sans-Serif" font-size="10.00"> &lt; TransposeDescriptor &gt;</text>
</g>
</g>
</svg>
