<?xml version="1.0" encoding="UTF-8" standalone="no"?>
<!DOCTYPE svg PUBLIC "-//W3C//DTD SVG 1.1//EN"
 "http://www.w3.org/Graphics/SVG/1.1/DTD/svg11.dtd">
<!-- Generated by graphviz version 14.1.1 (20251213.1925)
 -->
<!-- Title: src/backends/reference/workloads/Activation.cpp Pages: 1 -->
<svg width="1304pt" height="492pt"
 viewBox="0.00 0.00 1304.00 492.00" xmlns="http://www.w3.org/2000/svg" xmlns:xlink="http://www.w3.org/1999/xlink">
<g id="graph0" class="graph" transform="scale(1 1) rotate(0) translate(4 487.75)">
<title>src/backends/reference/workloads/Activation.cpp</title>
<!-- Node1 -->
<g id="Node000001" class="node">
<title>Node1</title>
<g id="a_Node000001"><a xlink:title=" ">
<polygon fill="#999999" stroke="#666666" points="880.25,-483.75 751.75,-483.75 751.75,-453.25 880.25,-453.25 880.25,-483.75"/>
<text xml:space="preserve" text-anchor="start" x="759.75" y="-470.25" font-family="Helvetica,sans-Serif" font-size="10.00">src/backends/reference</text>
<text xml:space="preserve" text-anchor="middle" x="816" y="-459" font-family="Helvetica,sans-Serif" font-size="10.00">/workloads/Activation.cpp</text>
</a>
</g>
</g>
<!-- Node2 -->
<g id="Node000002" class="node">
<title>Node2</title>
<g id="a_Node000002"><a xlink:href="_activation_8hpp.html" target="_top" xlink:title=" ">
<polygon fill="white" stroke="#666666" points="564.12,-417.25 485.88,-417.25 485.88,-398 564.12,-398 564.12,-417.25"/>
<text xml:space="preserve" text-anchor="middle" x="525" y="-403.75" font-family="Helvetica,sans-Serif" font-size="10.00">Activation.hpp</text>
</a>
</g>
</g>
<!-- Node1&#45;&gt;Node2 -->
<g id="edge1_Node000001_Node000002" class="edge">
<title>Node1&#45;&gt;Node2</title>
<g id="a_edge1_Node000001_Node000002"><a xlink:title=" ">
<path fill="none" stroke="#63b8ff" d="M751.42,-454.43C698.4,-443.71 624.37,-428.73 575.59,-418.86"/>
<polygon fill="#63b8ff" stroke="#63b8ff" points="576.35,-415.44 565.85,-416.89 574.96,-422.3 576.35,-415.44"/>
</a>
</g>
</g>
<!-- Node27 -->
<g id="Node000027" class="node">
<title>Node27</title>
<g id="a_Node000027"><a xlink:title=" ">
<polygon fill="#e0e0e0" stroke="#999999" points="1081.5,-74.5 1038.5,-74.5 1038.5,-55.25 1081.5,-55.25 1081.5,-74.5"/>
<text xml:space="preserve" text-anchor="middle" x="1060" y="-61" font-family="Helvetica,sans-Serif" font-size="10.00">cmath</text>
</a>
</g>
</g>
<!-- Node1&#45;&gt;Node27 -->
<g id="edge66_Node000001_Node000027" class="edge">
<title>Node1&#45;&gt;Node27</title>
<g id="a_edge66_Node000001_Node000027"><a xlink:title=" ">
<path fill="none" stroke="#63b8ff" d="M880.73,-465.55C1011.75,-459.85 1296,-437.75 1296,-353.38 1296,-353.38 1296,-353.38 1296,-174.38 1296,-86.07 1157.93,-69.38 1093,-66.4"/>
<polygon fill="#63b8ff" stroke="#63b8ff" points="1093.41,-62.92 1083.29,-66.05 1093.16,-69.91 1093.41,-62.92"/>
</a>
</g>
</g>
<!-- Node3 -->
<g id="Node000003" class="node">
<title>Node3</title>
<g id="a_Node000003"><a xlink:href="_base_iterator_8hpp.html" target="_top" xlink:title=" ">
<polygon fill="white" stroke="#666666" points="666.62,-362 579.38,-362 579.38,-342.75 666.62,-342.75 666.62,-362"/>
<text xml:space="preserve" text-anchor="middle" x="623" y="-348.5" font-family="Helvetica,sans-Serif" font-size="10.00">BaseIterator.hpp</text>
</a>
</g>
</g>
<!-- Node2&#45;&gt;Node3 -->
<g id="edge2_Node000002_Node000003" class="edge">
<title>Node2&#45;&gt;Node3</title>
<g id="a_edge2_Node000002_Node000003"><a xlink:title=" ">
<path fill="none" stroke="#63b8ff" d="M541.62,-397.59C556.69,-389.41 579.14,-377.21 596.65,-367.69"/>
<polygon fill="#63b8ff" stroke="#63b8ff" points="597.85,-371.02 604.96,-363.18 594.51,-364.87 597.85,-371.02"/>
</a>
</g>
</g>
<!-- Node15 -->
<g id="Node000015" class="node">
<title>Node15</title>
<g id="a_Node000015"><a xlink:href="_tensor_8hpp.html" target="_top" xlink:title=" ">
<polygon fill="white" stroke="#666666" points="313.62,-185 220.38,-185 220.38,-165.75 313.62,-165.75 313.62,-185"/>
<text xml:space="preserve" text-anchor="middle" x="267" y="-171.5" font-family="Helvetica,sans-Serif" font-size="10.00">armnn/Tensor.hpp</text>
</a>
</g>
</g>
<!-- Node2&#45;&gt;Node15 -->
<g id="edge64_Node000002_Node000015" class="edge">
<title>Node2&#45;&gt;Node15</title>
<g id="a_edge64_Node000002_Node000015"><a xlink:title=" ">
<path fill="none" stroke="#63b8ff" d="M485.66,-402.9C429.94,-395.33 329.34,-372.81 280,-306.75 255.8,-274.35 258.94,-224.08 263.12,-196.38"/>
<polygon fill="#63b8ff" stroke="#63b8ff" points="266.51,-197.33 264.76,-186.88 259.61,-196.14 266.51,-197.33"/>
</a>
</g>
</g>
<!-- Node19 -->
<g id="Node000019" class="node">
<title>Node19</title>
<g id="a_Node000019"><a xlink:href="_types_8hpp.html" target="_top" xlink:title=" ">
<polygon fill="white" stroke="#666666" points="515.5,-129.75 454.5,-129.75 454.5,-110.5 515.5,-110.5 515.5,-129.75"/>
<text xml:space="preserve" text-anchor="middle" x="485" y="-116.25" font-family="Helvetica,sans-Serif" font-size="10.00">Types.hpp</text>
</a>
</g>
</g>
<!-- Node2&#45;&gt;Node19 -->
<g id="edge65_Node000002_Node000019" class="edge">
<title>Node2&#45;&gt;Node19</title>
<g id="a_edge65_Node000002_Node000019"><a xlink:title=" ">
<path fill="none" stroke="#63b8ff" d="M518.74,-397.64C506.38,-378.97 480,-334.24 480,-292.5 480,-292.5 480,-292.5 480,-229.62 480,-198.87 482.03,-163.27 483.5,-141.48"/>
<polygon fill="#63b8ff" stroke="#63b8ff" points="486.98,-141.85 484.2,-131.63 480,-141.36 486.98,-141.85"/>
</a>
</g>
</g>
<!-- Node4 -->
<g id="Node000004" class="node">
<title>Node4</title>
<g id="a_Node000004"><a xlink:href="_types_utils_8hpp.html" target="_top" xlink:title=" ">
<polygon fill="white" stroke="#666666" points="731.62,-240.25 620.38,-240.25 620.38,-221 731.62,-221 731.62,-240.25"/>
<text xml:space="preserve" text-anchor="middle" x="676" y="-226.75" font-family="Helvetica,sans-Serif" font-size="10.00">armnn/TypesUtils.hpp</text>
</a>
</g>
</g>
<!-- Node3&#45;&gt;Node4 -->
<g id="edge3_Node000003_Node000004" class="edge">
<title>Node3&#45;&gt;Node4</title>
<g id="a_edge3_Node000003_Node000004"><a xlink:title=" ">
<path fill="none" stroke="#63b8ff" d="M626.98,-342.37C635.54,-323.04 655.84,-277.18 667.45,-250.94"/>
<polygon fill="#63b8ff" stroke="#63b8ff" points="670.51,-252.68 671.36,-242.11 664.11,-249.84 670.51,-252.68"/>
</a>
</g>
</g>
<!-- Node28 -->
<g id="Node000028" class="node">
<title>Node28</title>
<g id="a_Node000028"><a xlink:href="_numeric_cast_8hpp.html" target="_top" xlink:title=" ">
<polygon fill="white" stroke="#666666" points="1126.38,-301.12 977.62,-301.12 977.62,-281.88 1126.38,-281.88 1126.38,-301.12"/>
<text xml:space="preserve" text-anchor="middle" x="1052" y="-287.62" font-family="Helvetica,sans-Serif" font-size="10.00">armnn/utility/NumericCast.hpp</text>
</a>
</g>
</g>
<!-- Node3&#45;&gt;Node28 -->
<g id="edge40_Node000003_Node000028" class="edge">
<title>Node3&#45;&gt;Node28</title>
<g id="a_edge40_Node000003_Node000028"><a xlink:title=" ">
<path fill="none" stroke="#63b8ff" d="M666.89,-345.35C739.29,-335.42 884.64,-315.47 974.61,-303.12"/>
<polygon fill="#63b8ff" stroke="#63b8ff" points="974.9,-306.61 984.34,-301.79 973.95,-299.68 974.9,-306.61"/>
</a>
</g>
</g>
<!-- Node32 -->
<g id="Node000032" class="node">
<title>Node32</title>
<g id="a_Node000032"><a xlink:href="_floating_point_converter_8hpp.html" target="_top" xlink:title=" ">
<polygon fill="white" stroke="#666666" points="1267.62,-306.75 1144.38,-306.75 1144.38,-276.25 1267.62,-276.25 1267.62,-306.75"/>
<text xml:space="preserve" text-anchor="start" x="1152.38" y="-293.25" font-family="Helvetica,sans-Serif" font-size="10.00">armnnUtils/FloatingPoint</text>
<text xml:space="preserve" text-anchor="middle" x="1206" y="-282" font-family="Helvetica,sans-Serif" font-size="10.00">Converter.hpp</text>
</a>
</g>
</g>
<!-- Node3&#45;&gt;Node32 -->
<g id="edge45_Node000003_Node000032" class="edge">
<title>Node3&#45;&gt;Node32</title>
<g id="a_edge45_Node000003_Node000032"><a xlink:title=" ">
<path fill="none" stroke="#63b8ff" d="M667.02,-349.19C754.03,-344.52 954.34,-331.99 1132.93,-306.93"/>
<polygon fill="#63b8ff" stroke="#63b8ff" points="1133.21,-310.43 1142.62,-305.55 1132.22,-303.5 1133.21,-310.43"/>
</a>
</g>
</g>
<!-- Node34 -->
<g id="Node000034" class="node">
<title>Node34</title>
<g id="a_Node000034"><a xlink:href="_tensor_utils_8hpp.html" target="_top" xlink:title=" ">
<polygon fill="white" stroke="#666666" points="423.25,-301.12 288.75,-301.12 288.75,-281.88 423.25,-281.88 423.25,-301.12"/>
<text xml:space="preserve" text-anchor="middle" x="356" y="-287.62" font-family="Helvetica,sans-Serif" font-size="10.00">armnnUtils/TensorUtils.hpp</text>
</a>
</g>
</g>
<!-- Node3&#45;&gt;Node34 -->
<g id="edge47_Node000003_Node000034" class="edge">
<title>Node3&#45;&gt;Node34</title>
<g id="a_edge47_Node000003_Node000034"><a xlink:title=" ">
<path fill="none" stroke="#63b8ff" d="M581.87,-342.3C535.22,-332.02 459.06,-315.23 408.25,-304.02"/>
<polygon fill="#63b8ff" stroke="#63b8ff" points="409.18,-300.64 398.66,-301.91 407.67,-307.48 409.18,-300.64"/>
</a>
</g>
</g>
<!-- Node35 -->
<g id="Node000035" class="node">
<title>Node35</title>
<g id="a_Node000035"><a xlink:href="_resolve_type_8hpp.html" target="_top" xlink:title=" ">
<polygon fill="white" stroke="#666666" points="637.88,-185 546.12,-185 546.12,-165.75 637.88,-165.75 637.88,-185"/>
<text xml:space="preserve" text-anchor="middle" x="592" y="-171.5" font-family="Helvetica,sans-Serif" font-size="10.00">ResolveType.hpp</text>
</a>
</g>
</g>
<!-- Node3&#45;&gt;Node35 -->
<g id="edge54_Node000003_Node000035" class="edge">
<title>Node3&#45;&gt;Node35</title>
<g id="a_edge54_Node000003_Node000035"><a xlink:title=" ">
<path fill="none" stroke="#63b8ff" d="M621.42,-342.46C616.65,-315.55 602.33,-234.69 595.59,-196.62"/>
<polygon fill="#63b8ff" stroke="#63b8ff" points="599.07,-196.21 593.88,-186.98 592.18,-197.43 599.07,-196.21"/>
</a>
</g>
</g>
<!-- Node5 -->
<g id="Node000005" class="node">
<title>Node5</title>
<g id="a_Node000005"><a xlink:href="_backend_id_8hpp.html" target="_top" xlink:title=" ">
<polygon fill="white" stroke="#666666" points="737.62,-74.5 626.38,-74.5 626.38,-55.25 737.62,-55.25 737.62,-74.5"/>
<text xml:space="preserve" text-anchor="middle" x="682" y="-61" font-family="Helvetica,sans-Serif" font-size="10.00">armnn/BackendId.hpp</text>
</a>
</g>
</g>
<!-- Node4&#45;&gt;Node5 -->
<g id="edge4_Node000004_Node000005" class="edge">
<title>Node4&#45;&gt;Node5</title>
<g id="a_edge4_Node000004_Node000005"><a xlink:title=" ">
<path fill="none" stroke="#63b8ff" d="M682.26,-220.53C693.49,-203.59 716.66,-165.68 725,-129.75 726.93,-121.42 728.2,-118.43 725,-110.5 720.57,-99.51 711.99,-89.71 703.65,-82.12"/>
<polygon fill="#63b8ff" stroke="#63b8ff" points="705.98,-79.51 696.07,-75.77 701.48,-84.87 705.98,-79.51"/>
</a>
</g>
</g>
<!-- Node7 -->
<g id="Node000007" class="node">
<title>Node7</title>
<g id="a_Node000007"><a xlink:title=" ">
<polygon fill="#e0e0e0" stroke="#999999" points="791.62,-19.25 740.38,-19.25 740.38,0 791.62,0 791.62,-19.25"/>
<text xml:space="preserve" text-anchor="middle" x="766" y="-5.75" font-family="Helvetica,sans-Serif" font-size="10.00">ostream</text>
</a>
</g>
</g>
<!-- Node4&#45;&gt;Node7 -->
<g id="edge37_Node000004_Node000007" class="edge">
<title>Node4&#45;&gt;Node7</title>
<g id="a_edge37_Node000004_Node000007"><a xlink:title=" ">
<path fill="none" stroke="#63b8ff" d="M723.36,-220.56C790.8,-204.68 910.96,-164.52 953,-74.5 956.62,-66.75 958.3,-61.97 953,-55.25 934.71,-32.08 852.39,-19.62 803.28,-14.14"/>
<polygon fill="#63b8ff" stroke="#63b8ff" points="803.68,-10.66 793.36,-13.08 802.94,-17.62 803.68,-10.66"/>
</a>
</g>
</g>
<!-- Node8 -->
<g id="Node000008" class="node">
<title>Node8</title>
<g id="a_Node000008"><a xlink:title=" ">
<polygon fill="#e0e0e0" stroke="#999999" points="931.75,-19.25 902.25,-19.25 902.25,0 931.75,0 931.75,-19.25"/>
<text xml:space="preserve" text-anchor="middle" x="917" y="-5.75" font-family="Helvetica,sans-Serif" font-size="10.00">set</text>
</a>
</g>
</g>
<!-- Node4&#45;&gt;Node8 -->
<g id="edge38_Node000004_Node000008" class="edge">
<title>Node4&#45;&gt;Node8</title>
<g id="a_edge38_Node000004_Node000008"><a xlink:title=" ">
<path fill="none" stroke="#63b8ff" d="M731.86,-222C769.36,-215.48 819.19,-204.04 860,-185 897.52,-167.5 906.97,-160.22 935,-129.75 959.64,-102.97 984.2,-88.32 969,-55.25 963.22,-42.67 951.95,-32.31 941.37,-24.74"/>
<polygon fill="#63b8ff" stroke="#63b8ff" points="943.58,-22 933.3,-19.43 939.73,-27.85 943.58,-22"/>
</a>
</g>
</g>
<!-- Node12 -->
<g id="Node000012" class="node">
<title>Node12</title>
<g id="a_Node000012"><a xlink:href="_exceptions_8hpp.html" target="_top" xlink:title=" ">
<polygon fill="white" stroke="#666666" points="179.75,-74.5 66.25,-74.5 66.25,-55.25 179.75,-55.25 179.75,-74.5"/>
<text xml:space="preserve" text-anchor="middle" x="123" y="-61" font-family="Helvetica,sans-Serif" font-size="10.00">armnn/Exceptions.hpp</text>
</a>
</g>
</g>
<!-- Node4&#45;&gt;Node12 -->
<g id="edge11_Node000004_Node000012" class="edge">
<title>Node4&#45;&gt;Node12</title>
<g id="a_edge11_Node000004_Node000012"><a xlink:title=" ">
<path fill="none" stroke="#63b8ff" d="M625.56,-220.52C592.53,-213.44 548.97,-201.93 513,-185 460.9,-160.48 460.38,-132.09 407,-110.5 387.35,-102.55 268.7,-85.5 191.1,-74.93"/>
<polygon fill="#63b8ff" stroke="#63b8ff" points="191.85,-71.5 181.47,-73.62 190.91,-78.43 191.85,-71.5"/>
</a>
</g>
</g>
<!-- Node4&#45;&gt;Node15 -->
<g id="edge15_Node000004_Node000015" class="edge">
<title>Node4&#45;&gt;Node15</title>
<g id="a_edge15_Node000004_Node000015"><a xlink:title=" ">
<path fill="none" stroke="#63b8ff" d="M619.99,-222.33C542.63,-212.26 403.75,-194.18 325.23,-183.96"/>
<polygon fill="#63b8ff" stroke="#63b8ff" points="325.97,-180.52 315.6,-182.7 325.07,-187.46 325.97,-180.52"/>
</a>
</g>
</g>
<!-- Node18 -->
<g id="Node000018" class="node">
<title>Node18</title>
<g id="a_Node000018"><a xlink:title=" ">
<polygon fill="#e0e0e0" stroke="#999999" points="943.88,-74.5 882.12,-74.5 882.12,-55.25 943.88,-55.25 943.88,-74.5"/>
<text xml:space="preserve" text-anchor="middle" x="913" y="-61" font-family="Helvetica,sans-Serif" font-size="10.00">type_traits</text>
</a>
</g>
</g>
<!-- Node4&#45;&gt;Node18 -->
<g id="edge39_Node000004_Node000018" class="edge">
<title>Node4&#45;&gt;Node18</title>
<g id="a_edge39_Node000004_Node000018"><a xlink:title=" ">
<path fill="none" stroke="#63b8ff" d="M700.55,-220.55C738.49,-205.71 812.37,-173.44 864,-129.75 879.47,-116.65 893.14,-97.9 902.08,-84.09"/>
<polygon fill="#63b8ff" stroke="#63b8ff" points="904.83,-86.3 907.15,-75.97 898.89,-82.6 904.83,-86.3"/>
</a>
</g>
</g>
<!-- Node4&#45;&gt;Node19 -->
<g id="edge34_Node000004_Node000019" class="edge">
<title>Node4&#45;&gt;Node19</title>
<g id="a_edge34_Node000004_Node000019"><a xlink:title=" ">
<path fill="none" stroke="#63b8ff" d="M624.61,-220.56C596.92,-213.92 563.16,-202.86 537,-185 519.68,-173.18 505.15,-153.94 495.88,-139.67"/>
<polygon fill="#63b8ff" stroke="#63b8ff" points="498.89,-137.88 490.66,-131.21 492.94,-141.56 498.89,-137.88"/>
</a>
</g>
</g>
<!-- Node22 -->
<g id="Node000022" class="node">
<title>Node22</title>
<g id="a_Node000022"><a xlink:title=" ">
<polygon fill="#e0e0e0" stroke="#999999" points="608.12,-74.5 559.88,-74.5 559.88,-55.25 608.12,-55.25 608.12,-74.5"/>
<text xml:space="preserve" text-anchor="middle" x="584" y="-61" font-family="Helvetica,sans-Serif" font-size="10.00">stdint.h</text>
</a>
</g>
</g>
<!-- Node4&#45;&gt;Node22 -->
<g id="edge35_Node000004_Node000022" class="edge">
<title>Node4&#45;&gt;Node22</title>
<g id="a_edge35_Node000004_Node000022"><a xlink:title=" ">
<path fill="none" stroke="#63b8ff" d="M672.43,-220.76C667.29,-208.26 657.29,-184.83 647,-165.75 631.17,-136.38 610,-103.99 596.68,-84.29"/>
<polygon fill="#63b8ff" stroke="#63b8ff" points="599.72,-82.52 591.19,-76.23 593.94,-86.47 599.72,-82.52"/>
</a>
</g>
</g>
<!-- Node4&#45;&gt;Node27 -->
<g id="edge36_Node000004_Node000027" class="edge">
<title>Node4&#45;&gt;Node27</title>
<g id="a_edge36_Node000004_Node000027"><a xlink:title=" ">
<path fill="none" stroke="#63b8ff" d="M731.88,-229.63C818.85,-228.48 981.05,-221.35 1024,-185 1053.05,-160.41 1059.17,-113.25 1060.16,-86.23"/>
<polygon fill="#63b8ff" stroke="#63b8ff" points="1063.66,-86.33 1060.29,-76.28 1056.66,-86.23 1063.66,-86.33"/>
</a>
</g>
</g>
<!-- Node6 -->
<g id="Node000006" class="node">
<title>Node6</title>
<g id="a_Node000006"><a xlink:title=" ">
<polygon fill="#e0e0e0" stroke="#999999" points="626.62,-19.25 575.38,-19.25 575.38,0 626.62,0 626.62,-19.25"/>
<text xml:space="preserve" text-anchor="middle" x="601" y="-5.75" font-family="Helvetica,sans-Serif" font-size="10.00">memory</text>
</a>
</g>
</g>
<!-- Node5&#45;&gt;Node6 -->
<g id="edge5_Node000005_Node000006" class="edge">
<title>Node5&#45;&gt;Node6</title>
<g id="a_edge5_Node000005_Node000006"><a xlink:title=" ">
<path fill="none" stroke="#63b8ff" d="M668.26,-54.84C656.27,-46.96 638.63,-35.36 624.42,-26.02"/>
<polygon fill="#63b8ff" stroke="#63b8ff" points="626.35,-23.1 616.07,-20.53 622.51,-28.95 626.35,-23.1"/>
</a>
</g>
</g>
<!-- Node5&#45;&gt;Node7 -->
<g id="edge6_Node000005_Node000007" class="edge">
<title>Node5&#45;&gt;Node7</title>
<g id="a_edge6_Node000005_Node000007"><a xlink:title=" ">
<path fill="none" stroke="#63b8ff" d="M696.25,-54.84C708.8,-46.89 727.33,-35.14 742.14,-25.75"/>
<polygon fill="#63b8ff" stroke="#63b8ff" points="743.83,-28.82 750.4,-20.51 740.08,-22.91 743.83,-28.82"/>
</a>
</g>
</g>
<!-- Node5&#45;&gt;Node8 -->
<g id="edge7_Node000005_Node000008" class="edge">
<title>Node5&#45;&gt;Node8</title>
<g id="a_edge7_Node000005_Node000008"><a xlink:title=" ">
<path fill="none" stroke="#63b8ff" d="M722.13,-54.78C770.35,-43.86 849.86,-25.84 890.82,-16.56"/>
<polygon fill="#63b8ff" stroke="#63b8ff" points="891.53,-19.99 900.51,-14.36 889.98,-13.16 891.53,-19.99"/>
</a>
</g>
</g>
<!-- Node9 -->
<g id="Node000009" class="node">
<title>Node9</title>
<g id="a_Node000009"><a xlink:title=" ">
<polygon fill="#e0e0e0" stroke="#999999" points="414,-19.25 374,-19.25 374,0 414,0 414,-19.25"/>
<text xml:space="preserve" text-anchor="middle" x="394" y="-5.75" font-family="Helvetica,sans-Serif" font-size="10.00">string</text>
</a>
</g>
</g>
<!-- Node5&#45;&gt;Node9 -->
<g id="edge8_Node000005_Node000009" class="edge">
<title>Node5&#45;&gt;Node9</title>
<g id="a_edge8_Node000005_Node000009"><a xlink:title=" ">
<path fill="none" stroke="#63b8ff" d="M632.82,-54.78C573.47,-43.81 475.45,-25.69 425.45,-16.44"/>
<polygon fill="#63b8ff" stroke="#63b8ff" points="426.35,-13.05 415.88,-14.67 425.08,-19.93 426.35,-13.05"/>
</a>
</g>
</g>
<!-- Node10 -->
<g id="Node000010" class="node">
<title>Node10</title>
<g id="a_Node000010"><a xlink:title=" ">
<polygon fill="#e0e0e0" stroke="#999999" points="721.75,-19.25 644.25,-19.25 644.25,0 721.75,0 721.75,-19.25"/>
<text xml:space="preserve" text-anchor="middle" x="683" y="-5.75" font-family="Helvetica,sans-Serif" font-size="10.00">unordered_set</text>
</a>
</g>
</g>
<!-- Node5&#45;&gt;Node10 -->
<g id="edge9_Node000005_Node000010" class="edge">
<title>Node5&#45;&gt;Node10</title>
<g id="a_edge9_Node000005_Node000010"><a xlink:title=" ">
<path fill="none" stroke="#63b8ff" d="M682.17,-55.08C682.29,-48.57 682.46,-39.42 682.62,-31.12"/>
<polygon fill="#63b8ff" stroke="#63b8ff" points="686.11,-31.19 682.8,-21.12 679.12,-31.05 686.11,-31.19"/>
</a>
</g>
</g>
<!-- Node11 -->
<g id="Node000011" class="node">
<title>Node11</title>
<g id="a_Node000011"><a xlink:title=" ">
<polygon fill="#e0e0e0" stroke="#999999" points="59.5,-19.25 16.5,-19.25 16.5,0 59.5,0 59.5,-19.25"/>
<text xml:space="preserve" text-anchor="middle" x="38" y="-5.75" font-family="Helvetica,sans-Serif" font-size="10.00">vector</text>
</a>
</g>
</g>
<!-- Node5&#45;&gt;Node11 -->
<g id="edge10_Node000005_Node000011" class="edge">
<title>Node5&#45;&gt;Node11</title>
<g id="a_edge10_Node000005_Node000011"><a xlink:title=" ">
<path fill="none" stroke="#63b8ff" d="M626.01,-56.21C622.96,-55.87 619.95,-55.54 617,-55.25 378.09,-31.45 315.76,-52.64 78,-19.25 75.69,-18.93 73.32,-18.54 70.93,-18.12"/>
<polygon fill="#63b8ff" stroke="#63b8ff" points="71.88,-14.74 61.39,-16.24 70.52,-21.61 71.88,-14.74"/>
</a>
</g>
</g>
<!-- Node12&#45;&gt;Node9 -->
<g id="edge14_Node000012_Node000009" class="edge">
<title>Node12&#45;&gt;Node9</title>
<g id="a_edge14_Node000012_Node000009"><a xlink:title=" ">
<path fill="none" stroke="#63b8ff" d="M169.28,-54.78C224.33,-43.96 314.74,-26.2 362.37,-16.84"/>
<polygon fill="#63b8ff" stroke="#63b8ff" points="362.89,-20.3 372.03,-14.94 361.54,-13.44 362.89,-20.3"/>
</a>
</g>
</g>
<!-- Node13 -->
<g id="Node000013" class="node">
<title>Node13</title>
<g id="a_Node000013"><a xlink:title=" ">
<polygon fill="#e0e0e0" stroke="#999999" points="138.62,-19.25 87.38,-19.25 87.38,0 138.62,0 138.62,-19.25"/>
<text xml:space="preserve" text-anchor="middle" x="113" y="-5.75" font-family="Helvetica,sans-Serif" font-size="10.00">sstream</text>
</a>
</g>
</g>
<!-- Node12&#45;&gt;Node13 -->
<g id="edge12_Node000012_Node000013" class="edge">
<title>Node12&#45;&gt;Node13</title>
<g id="a_edge12_Node000012_Node000013"><a xlink:title=" ">
<path fill="none" stroke="#63b8ff" d="M121.35,-55.08C120.11,-48.49 118.37,-39.21 116.79,-30.82"/>
<polygon fill="#63b8ff" stroke="#63b8ff" points="120.25,-30.28 114.97,-21.1 113.37,-31.57 120.25,-30.28"/>
</a>
</g>
</g>
<!-- Node14 -->
<g id="Node000014" class="node">
<title>Node14</title>
<g id="a_Node000014"><a xlink:title=" ">
<polygon fill="#e0e0e0" stroke="#999999" points="215.38,-19.25 156.62,-19.25 156.62,0 215.38,0 215.38,-19.25"/>
<text xml:space="preserve" text-anchor="middle" x="186" y="-5.75" font-family="Helvetica,sans-Serif" font-size="10.00">stdexcept</text>
</a>
</g>
</g>
<!-- Node12&#45;&gt;Node14 -->
<g id="edge13_Node000012_Node000014" class="edge">
<title>Node12&#45;&gt;Node14</title>
<g id="a_edge13_Node000012_Node000014"><a xlink:title=" ">
<path fill="none" stroke="#63b8ff" d="M133.69,-54.84C142.7,-47.22 155.83,-36.12 166.68,-26.95"/>
<polygon fill="#63b8ff" stroke="#63b8ff" points="168.94,-29.63 174.31,-20.5 164.42,-24.28 168.94,-29.63"/>
</a>
</g>
</g>
<!-- Node15&#45;&gt;Node11 -->
<g id="edge32_Node000015_Node000011" class="edge">
<title>Node15&#45;&gt;Node11</title>
<g id="a_edge32_Node000015_Node000011"><a xlink:title=" ">
<path fill="none" stroke="#63b8ff" d="M251.36,-165.35C228.72,-152.43 185.31,-128.3 147,-110.5 107.93,-92.35 86.04,-106.32 57,-74.5 46.13,-62.59 41.47,-44.72 39.47,-30.91"/>
<polygon fill="#63b8ff" stroke="#63b8ff" points="42.97,-30.74 38.45,-21.16 36.01,-31.47 42.97,-30.74"/>
</a>
</g>
</g>
<!-- Node15&#45;&gt;Node12 -->
<g id="edge16_Node000015_Node000012" class="edge">
<title>Node15&#45;&gt;Node12</title>
<g id="a_edge16_Node000015_Node000012"><a xlink:title=" ">
<path fill="none" stroke="#63b8ff" d="M220.04,-171.12C164.53,-166.17 77.11,-154.59 57,-129.75 41.88,-111.08 67.43,-92.25 91.01,-79.93"/>
<polygon fill="#63b8ff" stroke="#63b8ff" points="92.43,-83.13 99.85,-75.57 89.34,-76.85 92.43,-83.13"/>
</a>
</g>
</g>
<!-- Node16 -->
<g id="Node000016" class="node">
<title>Node16</title>
<g id="a_Node000016"><a xlink:href="_optional_8hpp.html" target="_top" xlink:title=" ">
<polygon fill="white" stroke="#666666" points="302.38,-129.75 231.62,-129.75 231.62,-110.5 302.38,-110.5 302.38,-129.75"/>
<text xml:space="preserve" text-anchor="middle" x="267" y="-116.25" font-family="Helvetica,sans-Serif" font-size="10.00">Optional.hpp</text>
</a>
</g>
</g>
<!-- Node15&#45;&gt;Node16 -->
<g id="edge17_Node000015_Node000016" class="edge">
<title>Node15&#45;&gt;Node16</title>
<g id="a_edge17_Node000015_Node000016"><a xlink:title=" ">
<path fill="none" stroke="#63b8ff" d="M267,-165.58C267,-159.07 267,-149.92 267,-141.62"/>
<polygon fill="#63b8ff" stroke="#63b8ff" points="270.5,-141.62 267,-131.62 263.5,-141.62 270.5,-141.62"/>
</a>
</g>
</g>
<!-- Node15&#45;&gt;Node19 -->
<g id="edge21_Node000015_Node000019" class="edge">
<title>Node15&#45;&gt;Node19</title>
<g id="a_edge21_Node000015_Node000019"><a xlink:title=" ">
<path fill="none" stroke="#63b8ff" d="M303.98,-165.34C342.54,-155.92 402.86,-141.19 443.14,-131.35"/>
<polygon fill="#63b8ff" stroke="#63b8ff" points="443.84,-134.78 452.72,-129.01 442.18,-127.98 443.84,-134.78"/>
</a>
</g>
</g>
<!-- Node20 -->
<g id="Node000020" class="node">
<title>Node20</title>
<g id="a_Node000020"><a xlink:title=" ">
<polygon fill="#e0e0e0" stroke="#999999" points="235.88,-74.5 198.12,-74.5 198.12,-55.25 235.88,-55.25 235.88,-74.5"/>
<text xml:space="preserve" text-anchor="middle" x="217" y="-61" font-family="Helvetica,sans-Serif" font-size="10.00">array</text>
</a>
</g>
</g>
<!-- Node15&#45;&gt;Node20 -->
<g id="edge30_Node000015_Node000020" class="edge">
<title>Node15&#45;&gt;Node20</title>
<g id="a_edge30_Node000015_Node000020"><a xlink:title=" ">
<path fill="none" stroke="#63b8ff" d="M254.16,-165.37C243.81,-157.32 229.89,-144.54 223,-129.75 216.65,-116.12 215.33,-99.1 215.5,-86.06"/>
<polygon fill="#63b8ff" stroke="#63b8ff" points="218.99,-86.28 215.96,-76.13 212,-85.95 218.99,-86.28"/>
</a>
</g>
</g>
<!-- Node15&#45;&gt;Node22 -->
<g id="edge29_Node000015_Node000022" class="edge">
<title>Node15&#45;&gt;Node22</title>
<g id="a_edge29_Node000015_Node000022"><a xlink:title=" ">
<path fill="none" stroke="#63b8ff" d="M275.61,-165.27C289.58,-151.1 318.67,-124.01 349,-110.5 429.05,-74.84 459.53,-92.52 548.41,-74.84"/>
<polygon fill="#63b8ff" stroke="#63b8ff" points="549,-78.29 558.06,-72.81 547.56,-71.44 549,-78.29"/>
</a>
</g>
</g>
<!-- Node25 -->
<g id="Node000025" class="node">
<title>Node25</title>
<g id="a_Node000025"><a xlink:title=" ">
<polygon fill="#e0e0e0" stroke="#999999" points="138.12,-129.75 65.88,-129.75 65.88,-110.5 138.12,-110.5 138.12,-129.75"/>
<text xml:space="preserve" text-anchor="middle" x="102" y="-116.25" font-family="Helvetica,sans-Serif" font-size="10.00">initializer_list</text>
</a>
</g>
</g>
<!-- Node15&#45;&gt;Node25 -->
<g id="edge31_Node000015_Node000025" class="edge">
<title>Node15&#45;&gt;Node25</title>
<g id="a_edge31_Node000015_Node000025"><a xlink:title=" ">
<path fill="none" stroke="#63b8ff" d="M239.01,-165.34C211.99,-156.62 170.84,-143.34 140.69,-133.61"/>
<polygon fill="#63b8ff" stroke="#63b8ff" points="142.16,-130.41 131.57,-130.67 140.01,-137.07 142.16,-130.41"/>
</a>
</g>
</g>
<!-- Node26 -->
<g id="Node000026" class="node">
<title>Node26</title>
<g id="a_Node000026"><a xlink:title=" ">
<polygon fill="#e0e0e0" stroke="#999999" points="397.62,-129.75 358.38,-129.75 358.38,-110.5 397.62,-110.5 397.62,-129.75"/>
<text xml:space="preserve" text-anchor="middle" x="378" y="-116.25" font-family="Helvetica,sans-Serif" font-size="10.00">utility</text>
</a>
</g>
</g>
<!-- Node15&#45;&gt;Node26 -->
<g id="edge33_Node000015_Node000026" class="edge">
<title>Node15&#45;&gt;Node26</title>
<g id="a_edge33_Node000015_Node000026"><a xlink:title=" ">
<path fill="none" stroke="#63b8ff" d="M285.83,-165.34C303.05,-157.08 328.8,-144.73 348.71,-135.18"/>
<polygon fill="#63b8ff" stroke="#63b8ff" points="350.21,-138.34 357.71,-130.86 347.18,-132.03 350.21,-138.34"/>
</a>
</g>
</g>
<!-- Node16&#45;&gt;Node12 -->
<g id="edge18_Node000016_Node000012" class="edge">
<title>Node16&#45;&gt;Node12</title>
<g id="a_edge18_Node000016_Node000012"><a xlink:title=" ">
<path fill="none" stroke="#63b8ff" d="M242.57,-110.09C219.4,-101.52 184.34,-88.56 158.16,-78.88"/>
<polygon fill="#63b8ff" stroke="#63b8ff" points="159.56,-75.66 148.97,-75.48 157.13,-82.23 159.56,-75.66"/>
</a>
</g>
</g>
<!-- Node17 -->
<g id="Node000017" class="node">
<title>Node17</title>
<g id="a_Node000017"><a xlink:title=" ">
<polygon fill="#e0e0e0" stroke="#999999" points="541.62,-74.5 496.38,-74.5 496.38,-55.25 541.62,-55.25 541.62,-74.5"/>
<text xml:space="preserve" text-anchor="middle" x="519" y="-61" font-family="Helvetica,sans-Serif" font-size="10.00">cstring</text>
</a>
</g>
</g>
<!-- Node16&#45;&gt;Node17 -->
<g id="edge19_Node000016_Node000017" class="edge">
<title>Node16&#45;&gt;Node17</title>
<g id="a_edge19_Node000016_Node000017"><a xlink:title=" ">
<path fill="none" stroke="#63b8ff" d="M302.59,-112.62C344.08,-104.88 414.97,-91.18 485.17,-74.81"/>
<polygon fill="#63b8ff" stroke="#63b8ff" points="485.57,-78.31 494.5,-72.61 483.96,-71.5 485.57,-78.31"/>
</a>
</g>
</g>
<!-- Node16&#45;&gt;Node18 -->
<g id="edge20_Node000016_Node000018" class="edge">
<title>Node16&#45;&gt;Node18</title>
<g id="a_edge20_Node000016_Node000018"><a xlink:title=" ">
<path fill="none" stroke="#63b8ff" d="M302.49,-115.11C316.91,-113.55 333.74,-111.83 349,-110.5 577.93,-90.6 639.94,-106.67 870.52,-74.65"/>
<polygon fill="#63b8ff" stroke="#63b8ff" points="870.72,-78.15 880.13,-73.29 869.75,-71.22 870.72,-78.15"/>
</a>
</g>
</g>
<!-- Node19&#45;&gt;Node5 -->
<g id="edge26_Node000019_Node000005" class="edge">
<title>Node19&#45;&gt;Node5</title>
<g id="a_edge26_Node000019_Node000005"><a xlink:title=" ">
<path fill="none" stroke="#63b8ff" d="M515.78,-110.8C548.44,-101.98 600.34,-87.95 637.46,-77.91"/>
<polygon fill="#63b8ff" stroke="#63b8ff" points="638.27,-81.32 647.01,-75.33 636.44,-74.56 638.27,-81.32"/>
</a>
</g>
</g>
<!-- Node19&#45;&gt;Node12 -->
<g id="edge27_Node000019_Node000012" class="edge">
<title>Node19&#45;&gt;Node12</title>
<g id="a_edge27_Node000019_Node000012"><a xlink:title=" ">
<path fill="none" stroke="#63b8ff" d="M454.05,-112.98C449.35,-112.11 444.55,-111.26 440,-110.5 393.56,-102.79 269.75,-85.74 191.32,-75.09"/>
<polygon fill="#63b8ff" stroke="#63b8ff" points="191.97,-71.64 181.59,-73.77 191.03,-78.58 191.97,-71.64"/>
</a>
</g>
</g>
<!-- Node19&#45;&gt;Node20 -->
<g id="edge22_Node000019_Node000020" class="edge">
<title>Node19&#45;&gt;Node20</title>
<g id="a_edge22_Node000019_Node000020"><a xlink:title=" ">
<path fill="none" stroke="#63b8ff" d="M454.02,-113.16C449.32,-112.26 444.53,-111.35 440,-110.5 356.86,-94.86 332.52,-95.43 247.2,-74.8"/>
<polygon fill="#63b8ff" stroke="#63b8ff" points="248.21,-71.45 237.67,-72.47 246.55,-78.25 248.21,-71.45"/>
</a>
</g>
</g>
<!-- Node21 -->
<g id="Node000021" class="node">
<title>Node21</title>
<g id="a_Node000021"><a xlink:title=" ">
<polygon fill="#e0e0e0" stroke="#999999" points="312,-74.5 254,-74.5 254,-55.25 312,-55.25 312,-74.5"/>
<text xml:space="preserve" text-anchor="middle" x="283" y="-61" font-family="Helvetica,sans-Serif" font-size="10.00">functional</text>
</a>
</g>
</g>
<!-- Node19&#45;&gt;Node21 -->
<g id="edge23_Node000019_Node000021" class="edge">
<title>Node19&#45;&gt;Node21</title>
<g id="a_edge23_Node000019_Node000021"><a xlink:title=" ">
<path fill="none" stroke="#63b8ff" d="M454.32,-111.04C419.26,-101.8 361.76,-86.64 323.16,-76.46"/>
<polygon fill="#63b8ff" stroke="#63b8ff" points="324.35,-73.16 313.79,-73.99 322.56,-79.92 324.35,-73.16"/>
</a>
</g>
</g>
<!-- Node19&#45;&gt;Node22 -->
<g id="edge24_Node000019_Node000022" class="edge">
<title>Node19&#45;&gt;Node22</title>
<g id="a_edge24_Node000019_Node000022"><a xlink:title=" ">
<path fill="none" stroke="#63b8ff" d="M501.79,-110.09C517.01,-101.91 539.7,-89.71 557.38,-80.19"/>
<polygon fill="#63b8ff" stroke="#63b8ff" points="558.64,-83.49 565.79,-75.67 555.33,-77.32 558.64,-83.49"/>
</a>
</g>
</g>
<!-- Node23 -->
<g id="Node000023" class="node">
<title>Node23</title>
<g id="a_Node000023"><a xlink:title=" ">
<polygon fill="#e0e0e0" stroke="#999999" points="375.62,-74.5 330.38,-74.5 330.38,-55.25 375.62,-55.25 375.62,-74.5"/>
<text xml:space="preserve" text-anchor="middle" x="353" y="-61" font-family="Helvetica,sans-Serif" font-size="10.00">chrono</text>
</a>
</g>
</g>
<!-- Node19&#45;&gt;Node23 -->
<g id="edge25_Node000019_Node000023" class="edge">
<title>Node19&#45;&gt;Node23</title>
<g id="a_edge25_Node000019_Node000023"><a xlink:title=" ">
<path fill="none" stroke="#63b8ff" d="M462.61,-110.09C441.56,-101.6 409.8,-88.79 385.88,-79.14"/>
<polygon fill="#63b8ff" stroke="#63b8ff" points="387.49,-76.01 376.91,-75.52 384.87,-82.51 387.49,-76.01"/>
</a>
</g>
</g>
<!-- Node24 -->
<g id="Node000024" class="node">
<title>Node24</title>
<g id="a_Node000024"><a xlink:href="_deprecated_8hpp.html" target="_top" xlink:title=" ">
<polygon fill="white" stroke="#666666" points="478.5,-74.5 393.5,-74.5 393.5,-55.25 478.5,-55.25 478.5,-74.5"/>
<text xml:space="preserve" text-anchor="middle" x="436" y="-61" font-family="Helvetica,sans-Serif" font-size="10.00">Deprecated.hpp</text>
</a>
</g>
</g>
<!-- Node19&#45;&gt;Node24 -->
<g id="edge28_Node000019_Node000024" class="edge">
<title>Node19&#45;&gt;Node24</title>
<g id="a_edge28_Node000019_Node000024"><a xlink:title=" ">
<path fill="none" stroke="#63b8ff" d="M476.91,-110.33C470.14,-102.98 460.28,-92.26 451.94,-83.19"/>
<polygon fill="#63b8ff" stroke="#63b8ff" points="454.64,-80.96 445.29,-75.97 449.49,-85.7 454.64,-80.96"/>
</a>
</g>
</g>
<!-- Node28&#45;&gt;Node18 -->
<g id="edge43_Node000028_Node000018" class="edge">
<title>Node28&#45;&gt;Node18</title>
<g id="a_edge43_Node000028_Node000018"><a xlink:title=" ">
<path fill="none" stroke="#63b8ff" d="M1046.38,-281.42C1025.6,-247.83 952.84,-130.25 924.46,-84.39"/>
<polygon fill="#63b8ff" stroke="#63b8ff" points="927.57,-82.77 919.34,-76.11 921.62,-86.46 927.57,-82.77"/>
</a>
</g>
</g>
<!-- Node29 -->
<g id="Node000029" class="node">
<title>Node29</title>
<g id="a_Node000029"><a xlink:href="_assert_8hpp.html" target="_top" xlink:title=" ">
<polygon fill="white" stroke="#666666" points="1201.62,-240.25 1138.38,-240.25 1138.38,-221 1201.62,-221 1201.62,-240.25"/>
<text xml:space="preserve" text-anchor="middle" x="1170" y="-226.75" font-family="Helvetica,sans-Serif" font-size="10.00">Assert.hpp</text>
</a>
</g>
</g>
<!-- Node28&#45;&gt;Node29 -->
<g id="edge41_Node000028_Node000029" class="edge">
<title>Node28&#45;&gt;Node29</title>
<g id="a_edge41_Node000028_Node000029"><a xlink:title=" ">
<path fill="none" stroke="#63b8ff" d="M1070.18,-281.43C1089.29,-271.89 1119.61,-256.77 1141.82,-245.68"/>
<polygon fill="#63b8ff" stroke="#63b8ff" points="1143.25,-248.88 1150.64,-241.28 1140.13,-242.62 1143.25,-248.88"/>
</a>
</g>
</g>
<!-- Node31 -->
<g id="Node000031" class="node">
<title>Node31</title>
<g id="a_Node000031"><a xlink:title=" ">
<polygon fill="#e0e0e0" stroke="#999999" points="1120.62,-240.25 1081.38,-240.25 1081.38,-221 1120.62,-221 1120.62,-240.25"/>
<text xml:space="preserve" text-anchor="middle" x="1101" y="-226.75" font-family="Helvetica,sans-Serif" font-size="10.00">limits</text>
</a>
</g>
</g>
<!-- Node28&#45;&gt;Node31 -->
<g id="edge44_Node000028_Node000031" class="edge">
<title>Node28&#45;&gt;Node31</title>
<g id="a_edge44_Node000028_Node000031"><a xlink:title=" ">
<path fill="none" stroke="#63b8ff" d="M1059.44,-281.56C1066.57,-273 1077.51,-259.85 1086.38,-249.2"/>
<polygon fill="#63b8ff" stroke="#63b8ff" points="1088.81,-251.74 1092.52,-241.81 1083.43,-247.26 1088.81,-251.74"/>
</a>
</g>
</g>
<!-- Node30 -->
<g id="Node000030" class="node">
<title>Node30</title>
<g id="a_Node000030"><a xlink:title=" ">
<polygon fill="#e0e0e0" stroke="#999999" points="1194.12,-185 1145.88,-185 1145.88,-165.75 1194.12,-165.75 1194.12,-185"/>
<text xml:space="preserve" text-anchor="middle" x="1170" y="-171.5" font-family="Helvetica,sans-Serif" font-size="10.00">cassert</text>
</a>
</g>
</g>
<!-- Node29&#45;&gt;Node30 -->
<g id="edge42_Node000029_Node000030" class="edge">
<title>Node29&#45;&gt;Node30</title>
<g id="a_edge42_Node000029_Node000030"><a xlink:title=" ">
<path fill="none" stroke="#63b8ff" d="M1170,-220.83C1170,-214.32 1170,-205.17 1170,-196.87"/>
<polygon fill="#63b8ff" stroke="#63b8ff" points="1173.5,-196.87 1170,-186.87 1166.5,-196.87 1173.5,-196.87"/>
</a>
</g>
</g>
<!-- Node33 -->
<g id="Node000033" class="node">
<title>Node33</title>
<g id="a_Node000033"><a xlink:title=" ">
<polygon fill="#e0e0e0" stroke="#999999" points="1268.12,-240.25 1219.88,-240.25 1219.88,-221 1268.12,-221 1268.12,-240.25"/>
<text xml:space="preserve" text-anchor="middle" x="1244" y="-226.75" font-family="Helvetica,sans-Serif" font-size="10.00">cstddef</text>
</a>
</g>
</g>
<!-- Node32&#45;&gt;Node33 -->
<g id="edge46_Node000032_Node000033" class="edge">
<title>Node32&#45;&gt;Node33</title>
<g id="a_edge46_Node000032_Node000033"><a xlink:title=" ">
<path fill="none" stroke="#63b8ff" d="M1215.39,-275.95C1220.4,-268.19 1226.61,-258.56 1231.97,-250.26"/>
<polygon fill="#63b8ff" stroke="#63b8ff" points="1234.84,-252.27 1237.32,-241.97 1228.96,-248.48 1234.84,-252.27"/>
</a>
</g>
</g>
<!-- Node34&#45;&gt;Node4 -->
<g id="edge48_Node000034_Node000004" class="edge">
<title>Node34&#45;&gt;Node4</title>
<g id="a_edge48_Node000034_Node000004"><a xlink:title=" ">
<path fill="none" stroke="#63b8ff" d="M405.3,-281.43C461.91,-271.01 554.78,-253.93 615.67,-242.73"/>
<polygon fill="#63b8ff" stroke="#63b8ff" points="615.96,-246.23 625.16,-240.98 614.69,-239.35 615.96,-246.23"/>
</a>
</g>
</g>
<!-- Node34&#45;&gt;Node11 -->
<g id="edge53_Node000034_Node000011" class="edge">
<title>Node34&#45;&gt;Node11</title>
<g id="a_edge53_Node000034_Node000011"><a xlink:title=" ">
<path fill="none" stroke="#63b8ff" d="M288.62,-282.83C185.41,-269.19 0,-236.33 0,-176.38 0,-176.38 0,-176.38 0,-119.12 0,-86.13 15.84,-50.51 27.07,-29.41"/>
<polygon fill="#63b8ff" stroke="#63b8ff" points="30.02,-31.3 31.82,-20.86 23.9,-27.9 30.02,-31.3"/>
</a>
</g>
</g>
<!-- Node34&#45;&gt;Node15 -->
<g id="edge49_Node000034_Node000015" class="edge">
<title>Node34&#45;&gt;Node15</title>
<g id="a_edge49_Node000034_Node000015"><a xlink:title=" ">
<path fill="none" stroke="#63b8ff" d="M349.02,-281.54C334.39,-262.79 300.32,-219.1 281,-194.33"/>
<polygon fill="#63b8ff" stroke="#63b8ff" points="283.79,-192.22 274.88,-186.48 278.27,-196.52 283.79,-192.22"/>
</a>
</g>
</g>
<!-- Node34&#45;&gt;Node19 -->
<g id="edge50_Node000034_Node000019" class="edge">
<title>Node34&#45;&gt;Node19</title>
<g id="a_edge50_Node000034_Node000019"><a xlink:title=" ">
<path fill="none" stroke="#63b8ff" d="M362.94,-281.39C383.51,-254.39 444.43,-174.4 471.63,-138.68"/>
<polygon fill="#63b8ff" stroke="#63b8ff" points="474.15,-141.15 477.42,-131.07 468.58,-136.91 474.15,-141.15"/>
</a>
</g>
</g>
<!-- Node34&#45;&gt;Node26 -->
<g id="edge52_Node000034_Node000026" class="edge">
<title>Node34&#45;&gt;Node26</title>
<g id="a_edge52_Node000034_Node000026"><a xlink:title=" ">
<path fill="none" stroke="#63b8ff" d="M357.18,-281.39C360.62,-254.96 370.64,-177.79 375.41,-141.03"/>
<polygon fill="#63b8ff" stroke="#63b8ff" points="378.85,-141.74 376.67,-131.37 371.91,-140.83 378.85,-141.74"/>
</a>
</g>
</g>
<!-- Node34&#45;&gt;Node34 -->
<g id="edge51_Node000034_Node000034" class="edge">
<title>Node34&#45;&gt;Node34</title>
<g id="a_edge51_Node000034_Node000034"><a xlink:title=" ">
<path fill="none" stroke="#63b8ff" d="M390.14,-301.57C415.59,-305.08 441.25,-301.73 441.25,-291.5 441.25,-282.79 422.65,-279.07 401.4,-280.32"/>
<polygon fill="#63b8ff" stroke="#63b8ff" points="401.25,-276.82 391.65,-281.29 401.94,-283.79 401.25,-276.82"/>
</a>
</g>
</g>
<!-- Node35&#45;&gt;Node19 -->
<g id="edge55_Node000035_Node000019" class="edge">
<title>Node35&#45;&gt;Node19</title>
<g id="a_edge55_Node000035_Node000019"><a xlink:title=" ">
<path fill="none" stroke="#63b8ff" d="M573.85,-165.34C557.32,-157.12 532.66,-144.84 513.5,-135.31"/>
<polygon fill="#63b8ff" stroke="#63b8ff" points="515.11,-132.2 504.6,-130.88 511.99,-138.47 515.11,-132.2"/>
</a>
</g>
</g>
<!-- Node36 -->
<g id="Node000036" class="node">
<title>Node36</title>
<g id="a_Node000036"><a xlink:href="_b_float16_8hpp.html" target="_top" xlink:title=" ">
<polygon fill="white" stroke="#666666" points="715.88,-129.75 642.12,-129.75 642.12,-110.5 715.88,-110.5 715.88,-129.75"/>
<text xml:space="preserve" text-anchor="middle" x="679" y="-116.25" font-family="Helvetica,sans-Serif" font-size="10.00">BFloat16.hpp</text>
</a>
</g>
</g>
<!-- Node35&#45;&gt;Node36 -->
<g id="edge56_Node000035_Node000036" class="edge">
<title>Node35&#45;&gt;Node36</title>
<g id="a_edge56_Node000035_Node000036"><a xlink:title=" ">
<path fill="none" stroke="#63b8ff" d="M606.76,-165.34C619.88,-157.31 639.32,-145.41 654.73,-135.98"/>
<polygon fill="#63b8ff" stroke="#63b8ff" points="656.18,-139.2 662.88,-130.99 652.52,-133.23 656.18,-139.2"/>
</a>
</g>
</g>
<!-- Node37 -->
<g id="Node000037" class="node">
<title>Node37</title>
<g id="a_Node000037"><a xlink:href="_half_8hpp.html" target="_top" xlink:title=" ">
<polygon fill="white" stroke="#666666" points="855.38,-129.75 802.62,-129.75 802.62,-110.5 855.38,-110.5 855.38,-129.75"/>
<text xml:space="preserve" text-anchor="middle" x="829" y="-116.25" font-family="Helvetica,sans-Serif" font-size="10.00">Half.hpp</text>
</a>
</g>
</g>
<!-- Node35&#45;&gt;Node37 -->
<g id="edge61_Node000035_Node000037" class="edge">
<title>Node35&#45;&gt;Node37</title>
<g id="a_edge61_Node000035_Node000037"><a xlink:title=" ">
<path fill="none" stroke="#63b8ff" d="M632.47,-165.28C676.92,-155.3 747.72,-139.39 791.11,-129.64"/>
<polygon fill="#63b8ff" stroke="#63b8ff" points="791.85,-133.06 800.84,-127.45 790.31,-126.23 791.85,-133.06"/>
</a>
</g>
</g>
<!-- Node36&#45;&gt;Node7 -->
<g id="edge57_Node000036_Node000007" class="edge">
<title>Node36&#45;&gt;Node7</title>
<g id="a_edge57_Node000036_Node000007"><a xlink:title=" ">
<path fill="none" stroke="#63b8ff" d="M700.32,-110.03C715.42,-102.56 735.03,-90.59 747,-74.5 756.52,-61.7 761.3,-44.15 763.68,-30.69"/>
<polygon fill="#63b8ff" stroke="#63b8ff" points="767.14,-31.21 765.09,-20.81 760.21,-30.22 767.14,-31.21"/>
</a>
</g>
</g>
<!-- Node36&#45;&gt;Node17 -->
<g id="edge59_Node000036_Node000017" class="edge">
<title>Node36&#45;&gt;Node17</title>
<g id="a_edge59_Node000036_Node000017"><a xlink:title=" ">
<path fill="none" stroke="#63b8ff" d="M651.86,-110.09C624.5,-100.99 582.23,-86.92 552.73,-77.1"/>
<polygon fill="#63b8ff" stroke="#63b8ff" points="554.14,-73.88 543.55,-74.05 551.93,-80.52 554.14,-73.88"/>
</a>
</g>
</g>
<!-- Node36&#45;&gt;Node22 -->
<g id="edge60_Node000036_Node000022" class="edge">
<title>Node36&#45;&gt;Node22</title>
<g id="a_edge60_Node000036_Node000022"><a xlink:title=" ">
<path fill="none" stroke="#63b8ff" d="M662.88,-110.09C648.42,-101.98 626.92,-89.93 610.02,-80.46"/>
<polygon fill="#63b8ff" stroke="#63b8ff" points="611.95,-77.53 601.51,-75.69 608.53,-83.64 611.95,-77.53"/>
</a>
</g>
</g>
<!-- Node36&#45;&gt;Node27 -->
<g id="edge58_Node000036_Node000027" class="edge">
<title>Node36&#45;&gt;Node27</title>
<g id="a_edge58_Node000036_Node000027"><a xlink:title=" ">
<path fill="none" stroke="#63b8ff" d="M716.23,-113.92C790.57,-103.53 956.33,-80.36 1027.03,-70.48"/>
<polygon fill="#63b8ff" stroke="#63b8ff" points="1027.39,-73.97 1036.81,-69.12 1026.42,-67.03 1027.39,-73.97"/>
</a>
</g>
</g>
<!-- Node37&#45;&gt;Node18 -->
<g id="edge62_Node000037_Node000018" class="edge">
<title>Node37&#45;&gt;Node18</title>
<g id="a_edge62_Node000037_Node000018"><a xlink:title=" ">
<path fill="none" stroke="#63b8ff" d="M843.25,-110.09C855.8,-102.14 874.33,-90.39 889.14,-81"/>
<polygon fill="#63b8ff" stroke="#63b8ff" points="890.83,-84.07 897.4,-75.76 887.08,-78.16 890.83,-84.07"/>
</a>
</g>
</g>
<!-- Node38 -->
<g id="Node000038" class="node">
<title>Node38</title>
<g id="a_Node000038"><a xlink:title=" ">
<polygon fill="#e0e0e0" stroke="#999999" points="863.62,-74.5 794.38,-74.5 794.38,-55.25 863.62,-55.25 863.62,-74.5"/>
<text xml:space="preserve" text-anchor="middle" x="829" y="-61" font-family="Helvetica,sans-Serif" font-size="10.00">half/half.hpp</text>
</a>
</g>
</g>
<!-- Node37&#45;&gt;Node38 -->
<g id="edge63_Node000037_Node000038" class="edge">
<title>Node37&#45;&gt;Node38</title>
<g id="a_edge63_Node000037_Node000038"><a xlink:title=" ">
<path fill="none" stroke="#63b8ff" d="M829,-110.33C829,-103.82 829,-94.67 829,-86.37"/>
<polygon fill="#63b8ff" stroke="#63b8ff" points="832.5,-86.37 829,-76.37 825.5,-86.37 832.5,-86.37"/>
</a>
</g>
</g>
</g>
</svg>
