<?xml version="1.0" encoding="UTF-8" standalone="no"?>
<!DOCTYPE svg PUBLIC "-//W3C//DTD SVG 1.1//EN"
 "http://www.w3.org/Graphics/SVG/1.1/DTD/svg11.dtd">
<!-- Generated by graphviz version 14.1.1 (20251213.1925)
 -->
<!-- Title: include/armnn/profiling/ArmNNProfiling.hpp Pages: 1 -->
<svg width="170pt" height="94pt"
 viewBox="0.00 0.00 170.00 94.00" xmlns="http://www.w3.org/2000/svg" xmlns:xlink="http://www.w3.org/1999/xlink">
<g id="graph0" class="graph" transform="scale(1 1) rotate(0) translate(4 89.75)">
<title>include/armnn/profiling/ArmNNProfiling.hpp</title>
<!-- Node1 -->
<g id="Node000001" class="node">
<title>Node1</title>
<g id="a_Node000001"><a xlink:title=" ">
<polygon fill="#999999" stroke="#666666" points="150.62,-85.75 37.12,-85.75 37.12,-55.25 150.62,-55.25 150.62,-85.75"/>
<text xml:space="preserve" text-anchor="start" x="45.12" y="-72.25" font-family="Helvetica,sans-Serif" font-size="10.00">include/armnn/profiling</text>
<text xml:space="preserve" text-anchor="middle" x="93.88" y="-61" font-family="Helvetica,sans-Serif" font-size="10.00">/ArmNNProfiling.hpp</text>
</a>
</g>
</g>
<!-- Node2 -->
<g id="Node000002" class="node">
<title>Node2</title>
<g id="a_Node000002"><a xlink:href="include_2armnn_2_version_8hpp.html" target="_top" xlink:title=" ">
<polygon fill="white" stroke="#666666" points="97.75,-19.25 0,-19.25 0,0 97.75,0 97.75,-19.25"/>
<text xml:space="preserve" text-anchor="middle" x="48.88" y="-5.75" font-family="Helvetica,sans-Serif" font-size="10.00">armnn/Version.hpp</text>
</a>
</g>
</g>
<!-- Node1&#45;&gt;Node2 -->
<g id="edge1_Node000001_Node000002" class="edge">
<title>Node1&#45;&gt;Node2</title>
<g id="a_edge1_Node000001_Node000002"><a xlink:title=" ">
<path fill="none" stroke="#63b8ff" d="M82.75,-54.95C76.69,-47.02 69.13,-37.13 62.7,-28.71"/>
<polygon fill="#63b8ff" stroke="#63b8ff" points="65.58,-26.72 56.73,-20.9 60.02,-30.97 65.58,-26.72"/>
</a>
</g>
</g>
<!-- Node3 -->
<g id="Node000003" class="node">
<title>Node3</title>
<g id="a_Node000003"><a xlink:title=" ">
<polygon fill="#e0e0e0" stroke="#999999" points="161.5,-19.25 116.25,-19.25 116.25,0 161.5,0 161.5,-19.25"/>
<text xml:space="preserve" text-anchor="middle" x="138.88" y="-5.75" font-family="Helvetica,sans-Serif" font-size="10.00">cstdint</text>
</a>
</g>
</g>
<!-- Node1&#45;&gt;Node3 -->
<g id="edge2_Node000001_Node000003" class="edge">
<title>Node1&#45;&gt;Node3</title>
<g id="a_edge2_Node000001_Node000003"><a xlink:title=" ">
<path fill="none" stroke="#63b8ff" d="M105,-54.95C111.06,-47.02 118.62,-37.13 125.05,-28.71"/>
<polygon fill="#63b8ff" stroke="#63b8ff" points="127.73,-30.97 131.02,-20.9 122.17,-26.72 127.73,-30.97"/>
</a>
</g>
</g>
</g>
</svg>
