<?xml version="1.0" encoding="UTF-8" standalone="no"?>
<!DOCTYPE svg PUBLIC "-//W3C//DTD SVG 1.1//EN"
 "http://www.w3.org/Graphics/SVG/1.1/DTD/svg11.dtd">
<!-- Generated by graphviz version 14.1.1 (20251213.1925)
 -->
<!-- Title: src/backends/reference/workloads/BatchNormImpl.hpp Pages: 1 -->
<svg width="346pt" height="116pt"
 viewBox="0.00 0.00 346.00 116.00" xmlns="http://www.w3.org/2000/svg" xmlns:xlink="http://www.w3.org/1999/xlink">
<g id="graph0" class="graph" transform="scale(1 1) rotate(0) translate(4 112.25)">
<title>src/backends/reference/workloads/BatchNormImpl.hpp</title>
<!-- Node1 -->
<g id="Node000001" class="node">
<title>Node1</title>
<g id="a_Node000001"><a xlink:title=" ">
<polygon fill="#999999" stroke="#666666" points="242.25,-108.25 89,-108.25 89,-77.75 242.25,-77.75 242.25,-108.25"/>
<text xml:space="preserve" text-anchor="start" x="97" y="-94.75" font-family="Helvetica,sans-Serif" font-size="10.00">src/backends/reference</text>
<text xml:space="preserve" text-anchor="middle" x="165.62" y="-83.5" font-family="Helvetica,sans-Serif" font-size="10.00">/workloads/BatchNormImpl.hpp</text>
</a>
</g>
</g>
<!-- Node2 -->
<g id="Node000002" class="node">
<title>Node2</title>
<g id="a_Node000002"><a xlink:href="_batch_norm_impl_8cpp.html" target="_top" xlink:title=" ">
<polygon fill="white" stroke="#666666" points="153.25,-36.12 0,-36.12 0,-5.62 153.25,-5.62 153.25,-36.12"/>
<text xml:space="preserve" text-anchor="start" x="8" y="-22.62" font-family="Helvetica,sans-Serif" font-size="10.00">src/backends/reference</text>
<text xml:space="preserve" text-anchor="middle" x="76.62" y="-11.38" font-family="Helvetica,sans-Serif" font-size="10.00">/workloads/BatchNormImpl.cpp</text>
</a>
</g>
</g>
<!-- Node1&#45;&gt;Node2 -->
<g id="edge1_Node000001_Node000002" class="edge">
<title>Node1&#45;&gt;Node2</title>
<g id="a_edge1_Node000001_Node000002"><a xlink:title=" ">
<path fill="none" stroke="#63b8ff" d="M138.41,-70.56C124.35,-59.48 107.57,-46.25 95.04,-36.39"/>
<polygon fill="#63b8ff" stroke="#63b8ff" points="135.97,-73.09 146,-76.53 140.31,-67.6 135.97,-73.09"/>
</a>
</g>
</g>
<!-- Node3 -->
<g id="Node000003" class="node">
<title>Node3</title>
<g id="a_Node000003"><a xlink:href="_ref_batch_normalization_workload_8cpp.html" target="_top" xlink:title=" ">
<polygon fill="white" stroke="#666666" points="338.38,-41.75 170.88,-41.75 170.88,0 338.38,0 338.38,-41.75"/>
<text xml:space="preserve" text-anchor="start" x="178.88" y="-28.25" font-family="Helvetica,sans-Serif" font-size="10.00">src/backends/reference</text>
<text xml:space="preserve" text-anchor="start" x="178.88" y="-17" font-family="Helvetica,sans-Serif" font-size="10.00">/workloads/RefBatchNormalization</text>
<text xml:space="preserve" text-anchor="middle" x="254.62" y="-5.75" font-family="Helvetica,sans-Serif" font-size="10.00">Workload.cpp</text>
</a>
</g>
</g>
<!-- Node1&#45;&gt;Node3 -->
<g id="edge2_Node000001_Node000003" class="edge">
<title>Node1&#45;&gt;Node3</title>
<g id="a_edge2_Node000001_Node000003"><a xlink:title=" ">
<path fill="none" stroke="#63b8ff" d="M192.78,-70.6C204.23,-61.58 217.49,-51.14 228.78,-42.24"/>
<polygon fill="#63b8ff" stroke="#63b8ff" points="190.94,-67.6 185.25,-76.53 195.28,-73.09 190.94,-67.6"/>
</a>
</g>
</g>
</g>
</svg>
