<?xml version="1.0" encoding="UTF-8" standalone="no"?>
<!DOCTYPE svg PUBLIC "-//W3C//DTD SVG 1.1//EN"
 "http://www.w3.org/Graphics/SVG/1.1/DTD/svg11.dtd">
<!-- Generated by graphviz version 14.1.1 (20251213.1925)
 -->
<!-- Title: src/backends/reference/workloads/BatchToSpaceNd.hpp Pages: 1 -->
<svg width="346pt" height="116pt"
 viewBox="0.00 0.00 346.00 116.00" xmlns="http://www.w3.org/2000/svg" xmlns:xlink="http://www.w3.org/1999/xlink">
<g id="graph0" class="graph" transform="scale(1 1) rotate(0) translate(4 112.25)">
<title>src/backends/reference/workloads/BatchToSpaceNd.hpp</title>
<!-- Node1 -->
<g id="Node000001" class="node">
<title>Node1</title>
<g id="a_Node000001"><a xlink:title=" ">
<polygon fill="#999999" stroke="#666666" points="250.5,-108.25 89,-108.25 89,-77.75 250.5,-77.75 250.5,-108.25"/>
<text xml:space="preserve" text-anchor="start" x="97" y="-94.75" font-family="Helvetica,sans-Serif" font-size="10.00">src/backends/reference</text>
<text xml:space="preserve" text-anchor="middle" x="169.75" y="-83.5" font-family="Helvetica,sans-Serif" font-size="10.00">/workloads/BatchToSpaceNd.hpp</text>
</a>
</g>
</g>
<!-- Node2 -->
<g id="Node000002" class="node">
<title>Node2</title>
<g id="a_Node000002"><a xlink:href="_batch_to_space_nd_8cpp.html" target="_top" xlink:title=" ">
<polygon fill="white" stroke="#666666" points="161.5,-36.12 0,-36.12 0,-5.62 161.5,-5.62 161.5,-36.12"/>
<text xml:space="preserve" text-anchor="start" x="8" y="-22.62" font-family="Helvetica,sans-Serif" font-size="10.00">src/backends/reference</text>
<text xml:space="preserve" text-anchor="middle" x="80.75" y="-11.38" font-family="Helvetica,sans-Serif" font-size="10.00">/workloads/BatchToSpaceNd.cpp</text>
</a>
</g>
</g>
<!-- Node1&#45;&gt;Node2 -->
<g id="edge1_Node000001_Node000002" class="edge">
<title>Node1&#45;&gt;Node2</title>
<g id="a_edge1_Node000001_Node000002"><a xlink:title=" ">
<path fill="none" stroke="#63b8ff" d="M142.54,-70.56C128.48,-59.48 111.69,-46.25 99.17,-36.39"/>
<polygon fill="#63b8ff" stroke="#63b8ff" points="140.1,-73.09 150.12,-76.53 144.43,-67.6 140.1,-73.09"/>
</a>
</g>
</g>
<!-- Node3 -->
<g id="Node000003" class="node">
<title>Node3</title>
<g id="a_Node000003"><a xlink:href="_ref_batch_to_space_nd_workload_8cpp.html" target="_top" xlink:title=" ">
<polygon fill="white" stroke="#666666" points="338,-41.75 179.5,-41.75 179.5,0 338,0 338,-41.75"/>
<text xml:space="preserve" text-anchor="start" x="187.5" y="-28.25" font-family="Helvetica,sans-Serif" font-size="10.00">src/backends/reference</text>
<text xml:space="preserve" text-anchor="start" x="187.5" y="-17" font-family="Helvetica,sans-Serif" font-size="10.00">/workloads/RefBatchToSpaceNd</text>
<text xml:space="preserve" text-anchor="middle" x="258.75" y="-5.75" font-family="Helvetica,sans-Serif" font-size="10.00">Workload.cpp</text>
</a>
</g>
</g>
<!-- Node1&#45;&gt;Node3 -->
<g id="edge2_Node000001_Node000003" class="edge">
<title>Node1&#45;&gt;Node3</title>
<g id="a_edge2_Node000001_Node000003"><a xlink:title=" ">
<path fill="none" stroke="#63b8ff" d="M196.91,-70.6C208.35,-61.58 221.61,-51.14 232.91,-42.24"/>
<polygon fill="#63b8ff" stroke="#63b8ff" points="195.07,-67.6 189.38,-76.53 199.4,-73.09 195.07,-67.6"/>
</a>
</g>
</g>
</g>
</svg>
