<?xml version="1.0" encoding="UTF-8" standalone="no"?>
<!DOCTYPE svg PUBLIC "-//W3C//DTD SVG 1.1//EN"
 "http://www.w3.org/Graphics/SVG/1.1/DTD/svg11.dtd">
<!-- Generated by graphviz version 14.1.1 (20251213.1925)
 -->
<!-- Title: src/backends/cl/ClContextControl.hpp Pages: 1 -->
<svg width="294pt" height="105pt"
 viewBox="0.00 0.00 294.00 105.00" xmlns="http://www.w3.org/2000/svg" xmlns:xlink="http://www.w3.org/1999/xlink">
<g id="graph0" class="graph" transform="scale(1 1) rotate(0) translate(4 101)">
<title>src/backends/cl/ClContextControl.hpp</title>
<!-- Node1 -->
<g id="Node000001" class="node">
<title>Node1</title>
<g id="a_Node000001"><a xlink:title=" ">
<polygon fill="#999999" stroke="#666666" points="210.12,-97 77.88,-97 77.88,-66.5 210.12,-66.5 210.12,-97"/>
<text xml:space="preserve" text-anchor="start" x="85.88" y="-83.5" font-family="Helvetica,sans-Serif" font-size="10.00">src/backends/cl/ClContext</text>
<text xml:space="preserve" text-anchor="middle" x="144" y="-72.25" font-family="Helvetica,sans-Serif" font-size="10.00">Control.hpp</text>
</a>
</g>
</g>
<!-- Node2 -->
<g id="Node000002" class="node">
<title>Node2</title>
<g id="a_Node000002"><a xlink:href="_cl_backend_context_8cpp.html" target="_top" xlink:title=" ">
<polygon fill="white" stroke="#666666" points="136,-30.5 0,-30.5 0,0 136,0 136,-30.5"/>
<text xml:space="preserve" text-anchor="start" x="8" y="-17" font-family="Helvetica,sans-Serif" font-size="10.00">src/backends/cl/ClBackend</text>
<text xml:space="preserve" text-anchor="middle" x="68" y="-5.75" font-family="Helvetica,sans-Serif" font-size="10.00">Context.cpp</text>
</a>
</g>
</g>
<!-- Node1&#45;&gt;Node2 -->
<g id="edge1_Node000001_Node000002" class="edge">
<title>Node1&#45;&gt;Node2</title>
<g id="a_edge1_Node000001_Node000002"><a xlink:title=" ">
<path fill="none" stroke="#63b8ff" d="M118.07,-58.74C107.21,-49.53 94.88,-39.06 85.18,-30.83"/>
<polygon fill="#63b8ff" stroke="#63b8ff" points="115.71,-61.33 125.6,-65.13 120.24,-56 115.71,-61.33"/>
</a>
</g>
</g>
<!-- Node3 -->
<g id="Node000003" class="node">
<title>Node3</title>
<g id="a_Node000003"><a xlink:href="_cl_context_control_8cpp.html" target="_top" xlink:title=" ">
<polygon fill="white" stroke="#666666" points="286.12,-30.5 153.88,-30.5 153.88,0 286.12,0 286.12,-30.5"/>
<text xml:space="preserve" text-anchor="start" x="161.88" y="-17" font-family="Helvetica,sans-Serif" font-size="10.00">src/backends/cl/ClContext</text>
<text xml:space="preserve" text-anchor="middle" x="220" y="-5.75" font-family="Helvetica,sans-Serif" font-size="10.00">Control.cpp</text>
</a>
</g>
</g>
<!-- Node1&#45;&gt;Node3 -->
<g id="edge2_Node000001_Node000003" class="edge">
<title>Node1&#45;&gt;Node3</title>
<g id="a_edge2_Node000001_Node000003"><a xlink:title=" ">
<path fill="none" stroke="#63b8ff" d="M169.93,-58.74C180.79,-49.53 193.12,-39.06 202.82,-30.83"/>
<polygon fill="#63b8ff" stroke="#63b8ff" points="167.76,-56 162.4,-65.13 172.29,-61.33 167.76,-56"/>
</a>
</g>
</g>
</g>
</svg>
