<?xml version="1.0" encoding="UTF-8" standalone="no"?>
<!DOCTYPE svg PUBLIC "-//W3C//DTD SVG 1.1//EN"
 "http://www.w3.org/Graphics/SVG/1.1/DTD/svg11.dtd">
<!-- Generated by graphviz version 14.1.1 (20251213.1925)
 -->
<!-- Title: src/backends/cl/workloads/ClRankWorkload.hpp Pages: 1 -->
<svg width="146pt" height="172pt"
 viewBox="0.00 0.00 146.00 172.00" xmlns="http://www.w3.org/2000/svg" xmlns:xlink="http://www.w3.org/1999/xlink">
<g id="graph0" class="graph" transform="scale(1 1) rotate(0) translate(4 167.5)">
<title>src/backends/cl/workloads/ClRankWorkload.hpp</title>
<!-- Node1 -->
<g id="Node000001" class="node">
<title>Node1</title>
<g id="a_Node000001"><a xlink:title=" ">
<polygon fill="#999999" stroke="#666666" points="135.25,-163.5 3,-163.5 3,-133 135.25,-133 135.25,-163.5"/>
<text xml:space="preserve" text-anchor="start" x="11" y="-150" font-family="Helvetica,sans-Serif" font-size="10.00">src/backends/cl/workloads</text>
<text xml:space="preserve" text-anchor="middle" x="69.12" y="-138.75" font-family="Helvetica,sans-Serif" font-size="10.00">/ClRankWorkload.hpp</text>
</a>
</g>
</g>
<!-- Node2 -->
<g id="Node000002" class="node">
<title>Node2</title>
<g id="a_Node000002"><a xlink:href="_cl_workloads_8hpp.html" target="_top" xlink:title=" ">
<polygon fill="white" stroke="#666666" points="135.25,-97 3,-97 3,-66.5 135.25,-66.5 135.25,-97"/>
<text xml:space="preserve" text-anchor="start" x="11" y="-83.5" font-family="Helvetica,sans-Serif" font-size="10.00">src/backends/cl/workloads</text>
<text xml:space="preserve" text-anchor="middle" x="69.12" y="-72.25" font-family="Helvetica,sans-Serif" font-size="10.00">/ClWorkloads.hpp</text>
</a>
</g>
</g>
<!-- Node1&#45;&gt;Node2 -->
<g id="edge1_Node000001_Node000002" class="edge">
<title>Node1&#45;&gt;Node2</title>
<g id="a_edge1_Node000001_Node000002"><a xlink:title=" ">
<path fill="none" stroke="#63b8ff" d="M69.12,-121.31C69.12,-113.14 69.12,-104.41 69.12,-97.33"/>
<polygon fill="#63b8ff" stroke="#63b8ff" points="65.63,-121.1 69.13,-131.1 72.63,-121.1 65.63,-121.1"/>
</a>
</g>
</g>
<!-- Node3 -->
<g id="Node000003" class="node">
<title>Node3</title>
<g id="a_Node000003"><a xlink:href="_cl_workload_factory_8cpp.html" target="_top" xlink:title=" ">
<polygon fill="white" stroke="#666666" points="138.25,-30.5 0,-30.5 0,0 138.25,0 138.25,-30.5"/>
<text xml:space="preserve" text-anchor="start" x="8" y="-17" font-family="Helvetica,sans-Serif" font-size="10.00">src/backends/cl/ClWorkload</text>
<text xml:space="preserve" text-anchor="middle" x="69.12" y="-5.75" font-family="Helvetica,sans-Serif" font-size="10.00">Factory.cpp</text>
</a>
</g>
</g>
<!-- Node2&#45;&gt;Node3 -->
<g id="edge2_Node000002_Node000003" class="edge">
<title>Node2&#45;&gt;Node3</title>
<g id="a_edge2_Node000002_Node000003"><a xlink:title=" ">
<path fill="none" stroke="#63b8ff" d="M69.12,-54.81C69.12,-46.64 69.12,-37.91 69.12,-30.83"/>
<polygon fill="#63b8ff" stroke="#63b8ff" points="65.63,-54.6 69.13,-64.6 72.63,-54.6 65.63,-54.6"/>
</a>
</g>
</g>
</g>
</svg>
