<?xml version="1.0" encoding="UTF-8" standalone="no"?>
<!DOCTYPE svg PUBLIC "-//W3C//DTD SVG 1.1//EN"
 "http://www.w3.org/Graphics/SVG/1.1/DTD/svg11.dtd">
<!-- Generated by graphviz version 14.1.1 (20251213.1925)
 -->
<!-- Title: src/backends/cl/workloads/ClQuantizedLstmWorkload.hpp Pages: 1 -->
<svg width="507pt" height="172pt"
 viewBox="0.00 0.00 507.00 172.00" xmlns="http://www.w3.org/2000/svg" xmlns:xlink="http://www.w3.org/1999/xlink">
<g id="graph0" class="graph" transform="scale(1 1) rotate(0) translate(4 167.5)">
<title>src/backends/cl/workloads/ClQuantizedLstmWorkload.hpp</title>
<!-- Node1 -->
<g id="Node000001" class="node">
<title>Node1</title>
<g id="a_Node000001"><a xlink:title=" ">
<polygon fill="#999999" stroke="#666666" points="346.12,-163.5 192.12,-163.5 192.12,-133 346.12,-133 346.12,-163.5"/>
<text xml:space="preserve" text-anchor="start" x="200.12" y="-150" font-family="Helvetica,sans-Serif" font-size="10.00">src/backends/cl/workloads</text>
<text xml:space="preserve" text-anchor="middle" x="269.12" y="-138.75" font-family="Helvetica,sans-Serif" font-size="10.00">/ClQuantizedLstmWorkload.hpp</text>
</a>
</g>
</g>
<!-- Node2 -->
<g id="Node000002" class="node">
<title>Node2</title>
<g id="a_Node000002"><a xlink:href="_cl_layer_support_8cpp.html" target="_top" xlink:title=" ">
<polygon fill="white" stroke="#666666" points="174.25,-91.38 0,-91.38 0,-72.12 174.25,-72.12 174.25,-91.38"/>
<text xml:space="preserve" text-anchor="middle" x="87.12" y="-77.88" font-family="Helvetica,sans-Serif" font-size="10.00">src/backends/cl/ClLayerSupport.cpp</text>
</a>
</g>
</g>
<!-- Node1&#45;&gt;Node2 -->
<g id="edge1_Node000001_Node000002" class="edge">
<title>Node1&#45;&gt;Node2</title>
<g id="a_edge1_Node000001_Node000002"><a xlink:title=" ">
<path fill="none" stroke="#63b8ff" d="M217.09,-128.81C182.95,-116.71 139.79,-101.41 112.81,-91.85"/>
<polygon fill="#63b8ff" stroke="#63b8ff" points="215.81,-132.07 226.4,-132.11 218.14,-125.47 215.81,-132.07"/>
</a>
</g>
</g>
<!-- Node3 -->
<g id="Node000003" class="node">
<title>Node3</title>
<g id="a_Node000003"><a xlink:href="_cl_quantized_lstm_workload_8cpp.html" target="_top" xlink:title=" ">
<polygon fill="white" stroke="#666666" points="346.12,-97 192.12,-97 192.12,-66.5 346.12,-66.5 346.12,-97"/>
<text xml:space="preserve" text-anchor="start" x="200.12" y="-83.5" font-family="Helvetica,sans-Serif" font-size="10.00">src/backends/cl/workloads</text>
<text xml:space="preserve" text-anchor="middle" x="269.12" y="-72.25" font-family="Helvetica,sans-Serif" font-size="10.00">/ClQuantizedLstmWorkload.cpp</text>
</a>
</g>
</g>
<!-- Node1&#45;&gt;Node3 -->
<g id="edge2_Node000001_Node000003" class="edge">
<title>Node1&#45;&gt;Node3</title>
<g id="a_edge2_Node000001_Node000003"><a xlink:title=" ">
<path fill="none" stroke="#63b8ff" d="M269.12,-121.31C269.12,-113.14 269.12,-104.41 269.12,-97.33"/>
<polygon fill="#63b8ff" stroke="#63b8ff" points="265.63,-121.1 269.13,-131.1 272.63,-121.1 265.63,-121.1"/>
</a>
</g>
</g>
<!-- Node4 -->
<g id="Node000004" class="node">
<title>Node4</title>
<g id="a_Node000004"><a xlink:href="_cl_workloads_8hpp.html" target="_top" xlink:title=" ">
<polygon fill="white" stroke="#666666" points="496.25,-97 364,-97 364,-66.5 496.25,-66.5 496.25,-97"/>
<text xml:space="preserve" text-anchor="start" x="372" y="-83.5" font-family="Helvetica,sans-Serif" font-size="10.00">src/backends/cl/workloads</text>
<text xml:space="preserve" text-anchor="middle" x="430.12" y="-72.25" font-family="Helvetica,sans-Serif" font-size="10.00">/ClWorkloads.hpp</text>
</a>
</g>
</g>
<!-- Node1&#45;&gt;Node4 -->
<g id="edge3_Node000001_Node000004" class="edge">
<title>Node1&#45;&gt;Node4</title>
<g id="a_edge3_Node000001_Node000004"><a xlink:title=" ">
<path fill="none" stroke="#63b8ff" d="M316.22,-128.38C340.85,-118.51 370.56,-106.61 393.46,-97.44"/>
<polygon fill="#63b8ff" stroke="#63b8ff" points="315.04,-125.08 307.06,-132.05 317.65,-131.58 315.04,-125.08"/>
</a>
</g>
</g>
<!-- Node5 -->
<g id="Node000005" class="node">
<title>Node5</title>
<g id="a_Node000005"><a xlink:href="_cl_workload_factory_8cpp.html" target="_top" xlink:title=" ">
<polygon fill="white" stroke="#666666" points="499.25,-30.5 361,-30.5 361,0 499.25,0 499.25,-30.5"/>
<text xml:space="preserve" text-anchor="start" x="369" y="-17" font-family="Helvetica,sans-Serif" font-size="10.00">src/backends/cl/ClWorkload</text>
<text xml:space="preserve" text-anchor="middle" x="430.12" y="-5.75" font-family="Helvetica,sans-Serif" font-size="10.00">Factory.cpp</text>
</a>
</g>
</g>
<!-- Node4&#45;&gt;Node5 -->
<g id="edge4_Node000004_Node000005" class="edge">
<title>Node4&#45;&gt;Node5</title>
<g id="a_edge4_Node000004_Node000005"><a xlink:title=" ">
<path fill="none" stroke="#63b8ff" d="M430.12,-54.81C430.12,-46.64 430.12,-37.91 430.12,-30.83"/>
<polygon fill="#63b8ff" stroke="#63b8ff" points="426.63,-54.6 430.13,-64.6 433.63,-54.6 426.63,-54.6"/>
</a>
</g>
</g>
</g>
</svg>
