<?xml version="1.0" encoding="UTF-8" standalone="no"?>
<!DOCTYPE svg PUBLIC "-//W3C//DTD SVG 1.1//EN"
 "http://www.w3.org/Graphics/SVG/1.1/DTD/svg11.dtd">
<!-- Generated by graphviz version 14.1.1 (20251213.1925)
 -->
<!-- Title: src/backends/tosaCommon/operatorMappings/ConstantOperator.hpp Pages: 1 -->
<svg width="530pt" height="249pt"
 viewBox="0.00 0.00 530.00 249.00" xmlns="http://www.w3.org/2000/svg" xmlns:xlink="http://www.w3.org/1999/xlink">
<g id="graph0" class="graph" transform="scale(1 1) rotate(0) translate(4 245.25)">
<title>src/backends/tosaCommon/operatorMappings/ConstantOperator.hpp</title>
<!-- Node1 -->
<g id="Node000001" class="node">
<title>Node1</title>
<g id="a_Node000001"><a xlink:title=" ">
<polygon fill="#999999" stroke="#666666" points="291.5,-241.25 97,-241.25 97,-210.75 291.5,-210.75 291.5,-241.25"/>
<text xml:space="preserve" text-anchor="start" x="105" y="-227.75" font-family="Helvetica,sans-Serif" font-size="10.00">src/backends/tosaCommon</text>
<text xml:space="preserve" text-anchor="middle" x="194.25" y="-216.5" font-family="Helvetica,sans-Serif" font-size="10.00">/operatorMappings/ConstantOperator.hpp</text>
</a>
</g>
</g>
<!-- Node2 -->
<g id="Node000002" class="node">
<title>Node2</title>
<g id="a_Node000002"><a xlink:href="_constant_operator_8cpp.html" target="_top" xlink:title=" ">
<polygon fill="white" stroke="#666666" points="194.5,-169.12 0,-169.12 0,-138.62 194.5,-138.62 194.5,-169.12"/>
<text xml:space="preserve" text-anchor="start" x="8" y="-155.62" font-family="Helvetica,sans-Serif" font-size="10.00">src/backends/tosaCommon</text>
<text xml:space="preserve" text-anchor="middle" x="97.25" y="-144.38" font-family="Helvetica,sans-Serif" font-size="10.00">/operatorMappings/ConstantOperator.cpp</text>
</a>
</g>
</g>
<!-- Node1&#45;&gt;Node2 -->
<g id="edge1_Node000001_Node000002" class="edge">
<title>Node1&#45;&gt;Node2</title>
<g id="a_edge1_Node000001_Node000002"><a xlink:title=" ">
<path fill="none" stroke="#63b8ff" d="M165.03,-203.87C149.62,-192.73 131.1,-179.35 117.32,-169.39"/>
<polygon fill="#63b8ff" stroke="#63b8ff" points="162.77,-206.56 172.92,-209.58 166.87,-200.89 162.77,-206.56"/>
</a>
</g>
</g>
<!-- Node3 -->
<g id="Node000003" class="node">
<title>Node3</title>
<g id="a_Node000003"><a xlink:href="_tosa_common_operators_8hpp.html" target="_top" xlink:title=" ">
<polygon fill="white" stroke="#666666" points="372.25,-174.75 212.25,-174.75 212.25,-133 372.25,-133 372.25,-174.75"/>
<text xml:space="preserve" text-anchor="start" x="220.25" y="-161.25" font-family="Helvetica,sans-Serif" font-size="10.00">src/backends/tosaCommon</text>
<text xml:space="preserve" text-anchor="start" x="220.25" y="-150" font-family="Helvetica,sans-Serif" font-size="10.00">/operatorMappings/TosaCommon</text>
<text xml:space="preserve" text-anchor="middle" x="292.25" y="-138.75" font-family="Helvetica,sans-Serif" font-size="10.00">Operators.hpp</text>
</a>
</g>
</g>
<!-- Node1&#45;&gt;Node3 -->
<g id="edge2_Node000001_Node000003" class="edge">
<title>Node1&#45;&gt;Node3</title>
<g id="a_edge2_Node000001_Node000003"><a xlink:title=" ">
<path fill="none" stroke="#63b8ff" d="M223.78,-203.87C236.47,-194.79 251.23,-184.23 263.8,-175.24"/>
<polygon fill="#63b8ff" stroke="#63b8ff" points="221.88,-200.92 215.79,-209.59 225.96,-206.62 221.88,-200.92"/>
</a>
</g>
</g>
<!-- Node4 -->
<g id="Node000004" class="node">
<title>Node4</title>
<g id="a_Node000004"><a xlink:href="_tosa_mappings_8hpp.html" target="_top" xlink:title=" ">
<polygon fill="white" stroke="#666666" points="360.25,-97 224.25,-97 224.25,-66.5 360.25,-66.5 360.25,-97"/>
<text xml:space="preserve" text-anchor="start" x="232.25" y="-83.5" font-family="Helvetica,sans-Serif" font-size="10.00">src/backends/tosaCommon</text>
<text xml:space="preserve" text-anchor="middle" x="292.25" y="-72.25" font-family="Helvetica,sans-Serif" font-size="10.00">/TosaMappings.hpp</text>
</a>
</g>
</g>
<!-- Node3&#45;&gt;Node4 -->
<g id="edge3_Node000003_Node000004" class="edge">
<title>Node3&#45;&gt;Node4</title>
<g id="a_edge3_Node000003_Node000004"><a xlink:title=" ">
<path fill="none" stroke="#63b8ff" d="M292.25,-121.13C292.25,-112.77 292.25,-104.15 292.25,-97.2"/>
<polygon fill="#63b8ff" stroke="#63b8ff" points="288.75,-121.08 292.25,-131.08 295.75,-121.08 288.75,-121.08"/>
</a>
</g>
</g>
<!-- Node5 -->
<g id="Node000005" class="node">
<title>Node5</title>
<g id="a_Node000005"><a xlink:href="_tosa_mappings_8cpp.html" target="_top" xlink:title=" ">
<polygon fill="white" stroke="#666666" points="203.25,-30.5 67.25,-30.5 67.25,0 203.25,0 203.25,-30.5"/>
<text xml:space="preserve" text-anchor="start" x="75.25" y="-17" font-family="Helvetica,sans-Serif" font-size="10.00">src/backends/tosaCommon</text>
<text xml:space="preserve" text-anchor="middle" x="135.25" y="-5.75" font-family="Helvetica,sans-Serif" font-size="10.00">/TosaMappings.cpp</text>
</a>
</g>
</g>
<!-- Node4&#45;&gt;Node5 -->
<g id="edge4_Node000004_Node000005" class="edge">
<title>Node4&#45;&gt;Node5</title>
<g id="a_edge4_Node000004_Node000005"><a xlink:title=" ">
<path fill="none" stroke="#63b8ff" d="M246,-61.75C222.04,-51.91 193.23,-40.07 171.01,-30.94"/>
<polygon fill="#63b8ff" stroke="#63b8ff" points="244.64,-64.98 255.22,-65.54 247.3,-58.5 244.64,-64.98"/>
</a>
</g>
</g>
<!-- Node6 -->
<g id="Node000006" class="node">
<title>Node6</title>
<g id="a_Node000006"><a xlink:href="_tosa_ref_backend_8cpp.html" target="_top" xlink:title=" ">
<polygon fill="white" stroke="#666666" points="362.88,-30.5 221.62,-30.5 221.62,0 362.88,0 362.88,-30.5"/>
<text xml:space="preserve" text-anchor="start" x="229.62" y="-17" font-family="Helvetica,sans-Serif" font-size="10.00">src/backends/tosaReference</text>
<text xml:space="preserve" text-anchor="middle" x="292.25" y="-5.75" font-family="Helvetica,sans-Serif" font-size="10.00">/TosaRefBackend.cpp</text>
</a>
</g>
</g>
<!-- Node4&#45;&gt;Node6 -->
<g id="edge5_Node000004_Node000006" class="edge">
<title>Node4&#45;&gt;Node6</title>
<g id="a_edge5_Node000004_Node000006"><a xlink:title=" ">
<path fill="none" stroke="#63b8ff" d="M292.25,-54.81C292.25,-46.64 292.25,-37.91 292.25,-30.83"/>
<polygon fill="#63b8ff" stroke="#63b8ff" points="288.75,-54.6 292.25,-64.6 295.75,-54.6 288.75,-54.6"/>
</a>
</g>
</g>
<!-- Node7 -->
<g id="Node000007" class="node">
<title>Node7</title>
<g id="a_Node000007"><a xlink:href="_tosa_ref_layer_support_8cpp.html" target="_top" xlink:title=" ">
<polygon fill="white" stroke="#666666" points="521.88,-30.5 380.62,-30.5 380.62,0 521.88,0 521.88,-30.5"/>
<text xml:space="preserve" text-anchor="start" x="388.62" y="-17" font-family="Helvetica,sans-Serif" font-size="10.00">src/backends/tosaReference</text>
<text xml:space="preserve" text-anchor="middle" x="451.25" y="-5.75" font-family="Helvetica,sans-Serif" font-size="10.00">/TosaRefLayerSupport.cpp</text>
</a>
</g>
</g>
<!-- Node4&#45;&gt;Node7 -->
<g id="edge6_Node000004_Node000007" class="edge">
<title>Node4&#45;&gt;Node7</title>
<g id="a_edge6_Node000004_Node000007"><a xlink:title=" ">
<path fill="none" stroke="#63b8ff" d="M338.76,-61.88C363.09,-52.01 392.42,-40.11 415.04,-30.94"/>
<polygon fill="#63b8ff" stroke="#63b8ff" points="337.68,-58.54 329.73,-65.54 340.31,-65.03 337.68,-58.54"/>
</a>
</g>
</g>
</g>
</svg>
