<?xml version="1.0" encoding="UTF-8" standalone="no"?>
<!DOCTYPE svg PUBLIC "-//W3C//DTD SVG 1.1//EN"
 "http://www.w3.org/Graphics/SVG/1.1/DTD/svg11.dtd">
<!-- Generated by graphviz version 14.1.1 (20251213.1925)
 -->
<!-- Title: src/backends/reference/workloads/Conv3dImpl.cpp Pages: 1 -->
<svg width="1140pt" height="547pt"
 viewBox="0.00 0.00 1140.00 547.00" xmlns="http://www.w3.org/2000/svg" xmlns:xlink="http://www.w3.org/1999/xlink">
<g id="graph0" class="graph" transform="scale(1 1) rotate(0) translate(4 543)">
<title>src/backends/reference/workloads/Conv3dImpl.cpp</title>
<!-- Node1 -->
<g id="Node000001" class="node">
<title>Node1</title>
<g id="a_Node000001"><a xlink:title=" ">
<polygon fill="#999999" stroke="#666666" points="880.62,-539 743.12,-539 743.12,-508.5 880.62,-508.5 880.62,-539"/>
<text xml:space="preserve" text-anchor="start" x="751.12" y="-525.5" font-family="Helvetica,sans-Serif" font-size="10.00">src/backends/reference</text>
<text xml:space="preserve" text-anchor="middle" x="811.88" y="-514.25" font-family="Helvetica,sans-Serif" font-size="10.00">/workloads/Conv3dImpl.cpp</text>
</a>
</g>
</g>
<!-- Node2 -->
<g id="Node000002" class="node">
<title>Node2</title>
<g id="a_Node000002"><a xlink:href="_conv3d_impl_8hpp.html" target="_top" xlink:title=" ">
<polygon fill="white" stroke="#666666" points="855.5,-472.5 768.25,-472.5 768.25,-453.25 855.5,-453.25 855.5,-472.5"/>
<text xml:space="preserve" text-anchor="middle" x="811.88" y="-459" font-family="Helvetica,sans-Serif" font-size="10.00">Conv3dImpl.hpp</text>
</a>
</g>
</g>
<!-- Node1&#45;&gt;Node2 -->
<g id="edge1_Node000001_Node000002" class="edge">
<title>Node1&#45;&gt;Node2</title>
<g id="a_edge1_Node000001_Node000002"><a xlink:title=" ">
<path fill="none" stroke="#63b8ff" d="M811.88,-508.2C811.88,-500.96 811.88,-492.09 811.88,-484.19"/>
<polygon fill="#63b8ff" stroke="#63b8ff" points="815.38,-484.46 811.88,-474.46 808.38,-484.46 815.38,-484.46"/>
</a>
</g>
</g>
<!-- Node3 -->
<g id="Node000003" class="node">
<title>Node3</title>
<g id="a_Node000003"><a xlink:href="_base_iterator_8hpp.html" target="_top" xlink:title=" ">
<polygon fill="white" stroke="#666666" points="806.5,-362 719.25,-362 719.25,-342.75 806.5,-342.75 806.5,-362"/>
<text xml:space="preserve" text-anchor="middle" x="762.88" y="-348.5" font-family="Helvetica,sans-Serif" font-size="10.00">BaseIterator.hpp</text>
</a>
</g>
</g>
<!-- Node2&#45;&gt;Node3 -->
<g id="edge2_Node000002_Node000003" class="edge">
<title>Node2&#45;&gt;Node3</title>
<g id="a_edge2_Node000002_Node000003"><a xlink:title=" ">
<path fill="none" stroke="#63b8ff" d="M797.47,-452.86C786.33,-444.99 771.69,-432.45 764.88,-417.25 758.69,-403.44 758.52,-386.21 759.72,-373.13"/>
<polygon fill="#63b8ff" stroke="#63b8ff" points="763.15,-373.97 760.95,-363.6 756.2,-373.08 763.15,-373.97"/>
</a>
</g>
</g>
<!-- Node15 -->
<g id="Node000015" class="node">
<title>Node15</title>
<g id="a_Node000015"><a xlink:href="_tensor_8hpp.html" target="_top" xlink:title=" ">
<polygon fill="white" stroke="#666666" points="925.5,-185 832.25,-185 832.25,-165.75 925.5,-165.75 925.5,-185"/>
<text xml:space="preserve" text-anchor="middle" x="878.88" y="-171.5" font-family="Helvetica,sans-Serif" font-size="10.00">armnn/Tensor.hpp</text>
</a>
</g>
</g>
<!-- Node2&#45;&gt;Node15 -->
<g id="edge71_Node000002_Node000015" class="edge">
<title>Node2&#45;&gt;Node15</title>
<g id="a_edge71_Node000002_Node000015"><a xlink:title=" ">
<path fill="none" stroke="#63b8ff" d="M855.9,-456.28C943.41,-443.93 1130.88,-410.78 1130.88,-353.38 1130.88,-353.38 1130.88,-353.38 1130.88,-290.5 1130.88,-258.48 1135.38,-242.75 1111.88,-221 1086.99,-197.97 997.74,-186.11 937.21,-180.57"/>
<polygon fill="#63b8ff" stroke="#63b8ff" points="937.67,-177.1 927.4,-179.71 937.05,-184.07 937.67,-177.1"/>
</a>
</g>
</g>
<!-- Node39 -->
<g id="Node000039" class="node">
<title>Node39</title>
<g id="a_Node000039"><a xlink:href="_decoders_8hpp.html" target="_top" xlink:title=" ">
<polygon fill="white" stroke="#666666" points="944.25,-417.25 867.5,-417.25 867.5,-398 944.25,-398 944.25,-417.25"/>
<text xml:space="preserve" text-anchor="middle" x="905.88" y="-403.75" font-family="Helvetica,sans-Serif" font-size="10.00">Decoders.hpp</text>
</a>
</g>
</g>
<!-- Node2&#45;&gt;Node39 -->
<g id="edge64_Node000002_Node000039" class="edge">
<title>Node2&#45;&gt;Node39</title>
<g id="a_edge64_Node000002_Node000039"><a xlink:title=" ">
<path fill="none" stroke="#63b8ff" d="M827.82,-452.84C842.14,-444.73 863.41,-432.68 880.13,-423.21"/>
<polygon fill="#63b8ff" stroke="#63b8ff" points="881.56,-426.42 888.53,-418.45 878.11,-420.33 881.56,-426.42"/>
</a>
</g>
</g>
<!-- Node40 -->
<g id="Node000040" class="node">
<title>Node40</title>
<g id="a_Node000040"><a xlink:href="_encoders_8hpp.html" target="_top" xlink:title=" ">
<polygon fill="white" stroke="#666666" points="849.88,-417.25 773.88,-417.25 773.88,-398 849.88,-398 849.88,-417.25"/>
<text xml:space="preserve" text-anchor="middle" x="811.88" y="-403.75" font-family="Helvetica,sans-Serif" font-size="10.00">Encoders.hpp</text>
</a>
</g>
</g>
<!-- Node2&#45;&gt;Node40 -->
<g id="edge68_Node000002_Node000040" class="edge">
<title>Node2&#45;&gt;Node40</title>
<g id="a_edge68_Node000002_Node000040"><a xlink:title=" ">
<path fill="none" stroke="#63b8ff" d="M811.88,-453.08C811.88,-446.57 811.88,-437.42 811.88,-429.12"/>
<polygon fill="#63b8ff" stroke="#63b8ff" points="815.38,-429.12 811.88,-419.12 808.38,-429.12 815.38,-429.12"/>
</a>
</g>
</g>
<!-- Node41 -->
<g id="Node000041" class="node">
<title>Node41</title>
<g id="a_Node000041"><a xlink:href="_data_layout_indexed_8hpp.html" target="_top" xlink:title=" ">
<polygon fill="white" stroke="#666666" points="775.75,-240.25 606,-240.25 606,-221 775.75,-221 775.75,-240.25"/>
<text xml:space="preserve" text-anchor="middle" x="690.88" y="-226.75" font-family="Helvetica,sans-Serif" font-size="10.00">armnnUtils/DataLayoutIndexed.hpp</text>
</a>
</g>
</g>
<!-- Node2&#45;&gt;Node41 -->
<g id="edge72_Node000002_Node000041" class="edge">
<title>Node2&#45;&gt;Node41</title>
<g id="a_edge72_Node000002_Node000041"><a xlink:title=" ">
<path fill="none" stroke="#63b8ff" d="M797,-452.75C773.5,-437.39 728.55,-403.87 709.88,-362 693.62,-325.56 690.7,-278.24 690.48,-251.79"/>
<polygon fill="#63b8ff" stroke="#63b8ff" points="693.98,-252.16 690.54,-242.14 686.98,-252.12 693.98,-252.16"/>
</a>
</g>
</g>
<!-- Node4 -->
<g id="Node000004" class="node">
<title>Node4</title>
<g id="a_Node000004"><a xlink:href="_types_utils_8hpp.html" target="_top" xlink:title=" ">
<polygon fill="white" stroke="#666666" points="510.5,-240.25 399.25,-240.25 399.25,-221 510.5,-221 510.5,-240.25"/>
<text xml:space="preserve" text-anchor="middle" x="454.88" y="-226.75" font-family="Helvetica,sans-Serif" font-size="10.00">armnn/TypesUtils.hpp</text>
</a>
</g>
</g>
<!-- Node3&#45;&gt;Node4 -->
<g id="edge3_Node000003_Node000004" class="edge">
<title>Node3&#45;&gt;Node4</title>
<g id="a_edge3_Node000003_Node000004"><a xlink:title=" ">
<path fill="none" stroke="#63b8ff" d="M739.47,-342.28C685.44,-321.27 551.81,-269.32 488.8,-244.81"/>
<polygon fill="#63b8ff" stroke="#63b8ff" points="490.24,-241.62 479.65,-241.26 487.7,-248.14 490.24,-241.62"/>
</a>
</g>
</g>
<!-- Node28 -->
<g id="Node000028" class="node">
<title>Node28</title>
<g id="a_Node000028"><a xlink:href="_numeric_cast_8hpp.html" target="_top" xlink:title=" ">
<polygon fill="white" stroke="#666666" points="183.25,-240.25 34.5,-240.25 34.5,-221 183.25,-221 183.25,-240.25"/>
<text xml:space="preserve" text-anchor="middle" x="108.88" y="-226.75" font-family="Helvetica,sans-Serif" font-size="10.00">armnn/utility/NumericCast.hpp</text>
</a>
</g>
</g>
<!-- Node3&#45;&gt;Node28 -->
<g id="edge40_Node000003_Node000028" class="edge">
<title>Node3&#45;&gt;Node28</title>
<g id="a_edge40_Node000003_Node000028"><a xlink:title=" ">
<path fill="none" stroke="#63b8ff" d="M718.88,-351.03C636.38,-349.53 453.27,-342.1 303.88,-306.75 242.66,-292.27 174.92,-262.94 137.57,-245.52"/>
<polygon fill="#63b8ff" stroke="#63b8ff" points="139.34,-242.49 128.8,-241.38 136.35,-248.82 139.34,-242.49"/>
</a>
</g>
</g>
<!-- Node32 -->
<g id="Node000032" class="node">
<title>Node32</title>
<g id="a_Node000032"><a xlink:href="_floating_point_converter_8hpp.html" target="_top" xlink:title=" ">
<polygon fill="white" stroke="#666666" points="1061.5,-306.75 938.25,-306.75 938.25,-276.25 1061.5,-276.25 1061.5,-306.75"/>
<text xml:space="preserve" text-anchor="start" x="946.25" y="-293.25" font-family="Helvetica,sans-Serif" font-size="10.00">armnnUtils/FloatingPoint</text>
<text xml:space="preserve" text-anchor="middle" x="999.88" y="-282" font-family="Helvetica,sans-Serif" font-size="10.00">Converter.hpp</text>
</a>
</g>
</g>
<!-- Node3&#45;&gt;Node32 -->
<g id="edge45_Node000003_Node000032" class="edge">
<title>Node3&#45;&gt;Node32</title>
<g id="a_edge45_Node000003_Node000032"><a xlink:title=" ">
<path fill="none" stroke="#63b8ff" d="M799.39,-342.3C834.03,-333.7 887,-320.54 929.8,-309.91"/>
<polygon fill="#63b8ff" stroke="#63b8ff" points="930.39,-313.37 939.25,-307.56 928.7,-306.57 930.39,-313.37"/>
</a>
</g>
</g>
<!-- Node34 -->
<g id="Node000034" class="node">
<title>Node34</title>
<g id="a_Node000034"><a xlink:href="_tensor_utils_8hpp.html" target="_top" xlink:title=" ">
<polygon fill="white" stroke="#666666" points="902.12,-301.12 767.62,-301.12 767.62,-281.88 902.12,-281.88 902.12,-301.12"/>
<text xml:space="preserve" text-anchor="middle" x="834.88" y="-287.62" font-family="Helvetica,sans-Serif" font-size="10.00">armnnUtils/TensorUtils.hpp</text>
</a>
</g>
</g>
<!-- Node3&#45;&gt;Node34 -->
<g id="edge47_Node000003_Node000034" class="edge">
<title>Node3&#45;&gt;Node34</title>
<g id="a_edge47_Node000003_Node000034"><a xlink:title=" ">
<path fill="none" stroke="#63b8ff" d="M773.81,-342.43C784.7,-333.53 801.66,-319.66 814.95,-308.79"/>
<polygon fill="#63b8ff" stroke="#63b8ff" points="817.14,-311.52 822.67,-302.48 812.71,-306.1 817.14,-311.52"/>
</a>
</g>
</g>
<!-- Node35 -->
<g id="Node000035" class="node">
<title>Node35</title>
<g id="a_Node000035"><a xlink:href="_resolve_type_8hpp.html" target="_top" xlink:title=" ">
<polygon fill="white" stroke="#666666" points="297.75,-185 206,-185 206,-165.75 297.75,-165.75 297.75,-185"/>
<text xml:space="preserve" text-anchor="middle" x="251.88" y="-171.5" font-family="Helvetica,sans-Serif" font-size="10.00">ResolveType.hpp</text>
</a>
</g>
</g>
<!-- Node3&#45;&gt;Node35 -->
<g id="edge54_Node000003_Node000035" class="edge">
<title>Node3&#45;&gt;Node35</title>
<g id="a_edge54_Node000003_Node000035"><a xlink:title=" ">
<path fill="none" stroke="#63b8ff" d="M719.07,-343.08C679.27,-335.14 619.11,-322.11 567.88,-306.75 486.98,-282.5 467.81,-272.79 389.88,-240.25 351.38,-224.18 307.82,-203.61 280.13,-190.22"/>
<polygon fill="#63b8ff" stroke="#63b8ff" points="281.87,-187.17 271.34,-185.95 278.81,-193.47 281.87,-187.17"/>
</a>
</g>
</g>
<!-- Node5 -->
<g id="Node000005" class="node">
<title>Node5</title>
<g id="a_Node000005"><a xlink:href="_backend_id_8hpp.html" target="_top" xlink:title=" ">
<polygon fill="white" stroke="#666666" points="585.5,-74.5 474.25,-74.5 474.25,-55.25 585.5,-55.25 585.5,-74.5"/>
<text xml:space="preserve" text-anchor="middle" x="529.88" y="-61" font-family="Helvetica,sans-Serif" font-size="10.00">armnn/BackendId.hpp</text>
</a>
</g>
</g>
<!-- Node4&#45;&gt;Node5 -->
<g id="edge4_Node000004_Node000005" class="edge">
<title>Node4&#45;&gt;Node5</title>
<g id="a_edge4_Node000004_Node000005"><a xlink:title=" ">
<path fill="none" stroke="#63b8ff" d="M454.19,-220.53C453.05,-199.56 452.66,-146.86 473.88,-110.5 480.83,-98.58 492.28,-88.61 503.03,-81.13"/>
<polygon fill="#63b8ff" stroke="#63b8ff" points="504.77,-84.17 511.27,-75.81 500.97,-78.29 504.77,-84.17"/>
</a>
</g>
</g>
<!-- Node7 -->
<g id="Node000007" class="node">
<title>Node7</title>
<g id="a_Node000007"><a xlink:title=" ">
<polygon fill="#e0e0e0" stroke="#999999" points="303.5,-19.25 252.25,-19.25 252.25,0 303.5,0 303.5,-19.25"/>
<text xml:space="preserve" text-anchor="middle" x="277.88" y="-5.75" font-family="Helvetica,sans-Serif" font-size="10.00">ostream</text>
</a>
</g>
</g>
<!-- Node4&#45;&gt;Node7 -->
<g id="edge37_Node000004_Node000007" class="edge">
<title>Node4&#45;&gt;Node7</title>
<g id="a_edge37_Node000004_Node000007"><a xlink:title=" ">
<path fill="none" stroke="#63b8ff" d="M398.79,-228.07C330.8,-224.86 222.16,-215.04 196.88,-185 188.52,-175.07 150.59,-134.94 197.88,-55.25 207.46,-39.09 225.23,-28.35 241.6,-21.46"/>
<polygon fill="#63b8ff" stroke="#63b8ff" points="242.54,-24.84 250.63,-18.01 240.04,-18.3 242.54,-24.84"/>
</a>
</g>
</g>
<!-- Node8 -->
<g id="Node000008" class="node">
<title>Node8</title>
<g id="a_Node000008"><a xlink:title=" ">
<polygon fill="#e0e0e0" stroke="#999999" points="381.62,-19.25 352.12,-19.25 352.12,0 381.62,0 381.62,-19.25"/>
<text xml:space="preserve" text-anchor="middle" x="366.88" y="-5.75" font-family="Helvetica,sans-Serif" font-size="10.00">set</text>
</a>
</g>
</g>
<!-- Node4&#45;&gt;Node8 -->
<g id="edge38_Node000004_Node000008" class="edge">
<title>Node4&#45;&gt;Node8</title>
<g id="a_edge38_Node000004_Node000008"><a xlink:title=" ">
<path fill="none" stroke="#63b8ff" d="M444.08,-220.52C418.97,-198.54 357.11,-139.59 334.88,-74.5 329.25,-58.04 339.39,-40.44 349.72,-27.9"/>
<polygon fill="#63b8ff" stroke="#63b8ff" points="352.28,-30.28 356.37,-20.51 347.08,-25.6 352.28,-30.28"/>
</a>
</g>
</g>
<!-- Node12 -->
<g id="Node000012" class="node">
<title>Node12</title>
<g id="a_Node000012"><a xlink:href="_exceptions_8hpp.html" target="_top" xlink:title=" ">
<polygon fill="white" stroke="#666666" points="959.62,-74.5 846.12,-74.5 846.12,-55.25 959.62,-55.25 959.62,-74.5"/>
<text xml:space="preserve" text-anchor="middle" x="902.88" y="-61" font-family="Helvetica,sans-Serif" font-size="10.00">armnn/Exceptions.hpp</text>
</a>
</g>
</g>
<!-- Node4&#45;&gt;Node12 -->
<g id="edge11_Node000004_Node000012" class="edge">
<title>Node4&#45;&gt;Node12</title>
<g id="a_edge11_Node000004_Node000012"><a xlink:title=" ">
<path fill="none" stroke="#63b8ff" d="M484.49,-220.56C512.9,-211.78 556.97,-197.93 594.88,-185 662.91,-161.8 679.82,-155.65 746.88,-129.75 790.22,-113.01 839.81,-92.46 871.22,-79.27"/>
<polygon fill="#63b8ff" stroke="#63b8ff" points="872.28,-82.62 880.14,-75.52 869.56,-76.17 872.28,-82.62"/>
</a>
</g>
</g>
<!-- Node4&#45;&gt;Node15 -->
<g id="edge15_Node000004_Node000015" class="edge">
<title>Node4&#45;&gt;Node15</title>
<g id="a_edge15_Node000004_Node000015"><a xlink:title=" ">
<path fill="none" stroke="#63b8ff" d="M510.74,-222.61C591.2,-212.5 738.98,-193.94 820.7,-183.68"/>
<polygon fill="#63b8ff" stroke="#63b8ff" points="821.03,-187.17 830.52,-182.45 820.16,-180.22 821.03,-187.17"/>
</a>
</g>
</g>
<!-- Node18 -->
<g id="Node000018" class="node">
<title>Node18</title>
<g id="a_Node000018"><a xlink:title=" ">
<polygon fill="#e0e0e0" stroke="#999999" points="61.75,-74.5 0,-74.5 0,-55.25 61.75,-55.25 61.75,-74.5"/>
<text xml:space="preserve" text-anchor="middle" x="30.88" y="-61" font-family="Helvetica,sans-Serif" font-size="10.00">type_traits</text>
</a>
</g>
</g>
<!-- Node4&#45;&gt;Node18 -->
<g id="edge39_Node000004_Node000018" class="edge">
<title>Node4&#45;&gt;Node18</title>
<g id="a_edge39_Node000004_Node000018"><a xlink:title=" ">
<path fill="none" stroke="#63b8ff" d="M398.86,-228.92C338.65,-226.39 241.17,-217.09 163.88,-185 111.35,-163.19 65.8,-111.46 44.21,-83.89"/>
<polygon fill="#63b8ff" stroke="#63b8ff" points="47.13,-81.96 38.28,-76.13 41.57,-86.21 47.13,-81.96"/>
</a>
</g>
</g>
<!-- Node19 -->
<g id="Node000019" class="node">
<title>Node19</title>
<g id="a_Node000019"><a xlink:href="_types_8hpp.html" target="_top" xlink:title=" ">
<polygon fill="white" stroke="#666666" points="737.38,-129.75 676.38,-129.75 676.38,-110.5 737.38,-110.5 737.38,-129.75"/>
<text xml:space="preserve" text-anchor="middle" x="706.88" y="-116.25" font-family="Helvetica,sans-Serif" font-size="10.00">Types.hpp</text>
</a>
</g>
</g>
<!-- Node4&#45;&gt;Node19 -->
<g id="edge34_Node000004_Node000019" class="edge">
<title>Node4&#45;&gt;Node19</title>
<g id="a_edge34_Node000004_Node000019"><a xlink:title=" ">
<path fill="none" stroke="#63b8ff" d="M475.93,-220.56C520.21,-201.49 623.21,-157.15 675.38,-134.68"/>
<polygon fill="#63b8ff" stroke="#63b8ff" points="676.51,-138.01 684.32,-130.84 673.75,-131.58 676.51,-138.01"/>
</a>
</g>
</g>
<!-- Node22 -->
<g id="Node000022" class="node">
<title>Node22</title>
<g id="a_Node000022"><a xlink:title=" ">
<polygon fill="#e0e0e0" stroke="#999999" points="456,-74.5 407.75,-74.5 407.75,-55.25 456,-55.25 456,-74.5"/>
<text xml:space="preserve" text-anchor="middle" x="431.88" y="-61" font-family="Helvetica,sans-Serif" font-size="10.00">stdint.h</text>
</a>
</g>
</g>
<!-- Node4&#45;&gt;Node22 -->
<g id="edge35_Node000004_Node000022" class="edge">
<title>Node4&#45;&gt;Node22</title>
<g id="a_edge35_Node000004_Node000022"><a xlink:title=" ">
<path fill="none" stroke="#63b8ff" d="M451.35,-220.55C448.06,-211.64 443.29,-197.6 440.88,-185 434.31,-150.8 432.48,-110.22 432.01,-86.34"/>
<polygon fill="#63b8ff" stroke="#63b8ff" points="435.51,-86.4 431.88,-76.45 428.51,-86.49 435.51,-86.4"/>
</a>
</g>
</g>
<!-- Node27 -->
<g id="Node000027" class="node">
<title>Node27</title>
<g id="a_Node000027"><a xlink:title=" ">
<polygon fill="#e0e0e0" stroke="#999999" points="249.38,-74.5 206.38,-74.5 206.38,-55.25 249.38,-55.25 249.38,-74.5"/>
<text xml:space="preserve" text-anchor="middle" x="227.88" y="-61" font-family="Helvetica,sans-Serif" font-size="10.00">cmath</text>
</a>
</g>
</g>
<!-- Node4&#45;&gt;Node27 -->
<g id="edge36_Node000004_Node000027" class="edge">
<title>Node4&#45;&gt;Node27</title>
<g id="a_edge36_Node000004_Node000027"><a xlink:title=" ">
<path fill="none" stroke="#63b8ff" d="M431.59,-220.63C410.08,-212.11 377.39,-198.62 349.88,-185 327.64,-173.99 269.1,-148.51 252.88,-129.75 242.02,-117.2 235.58,-99.39 231.96,-85.76"/>
<polygon fill="#63b8ff" stroke="#63b8ff" points="235.4,-85.11 229.72,-76.17 228.58,-86.7 235.4,-85.11"/>
</a>
</g>
</g>
<!-- Node6 -->
<g id="Node000006" class="node">
<title>Node6</title>
<g id="a_Node000006"><a xlink:title=" ">
<polygon fill="#e0e0e0" stroke="#999999" points="607.5,-19.25 556.25,-19.25 556.25,0 607.5,0 607.5,-19.25"/>
<text xml:space="preserve" text-anchor="middle" x="581.88" y="-5.75" font-family="Helvetica,sans-Serif" font-size="10.00">memory</text>
</a>
</g>
</g>
<!-- Node5&#45;&gt;Node6 -->
<g id="edge5_Node000005_Node000006" class="edge">
<title>Node5&#45;&gt;Node6</title>
<g id="a_edge5_Node000005_Node000006"><a xlink:title=" ">
<path fill="none" stroke="#63b8ff" d="M538.46,-55.08C545.72,-47.65 556.33,-36.79 565.24,-27.66"/>
<polygon fill="#63b8ff" stroke="#63b8ff" points="567.56,-30.29 572.04,-20.69 562.55,-25.4 567.56,-30.29"/>
</a>
</g>
</g>
<!-- Node5&#45;&gt;Node7 -->
<g id="edge6_Node000005_Node000007" class="edge">
<title>Node5&#45;&gt;Node7</title>
<g id="a_edge6_Node000005_Node000007"><a xlink:title=" ">
<path fill="none" stroke="#63b8ff" d="M486.84,-54.78C438.48,-44.56 360.75,-28.14 314.97,-18.46"/>
<polygon fill="#63b8ff" stroke="#63b8ff" points="315.76,-15.05 305.26,-16.41 314.32,-21.9 315.76,-15.05"/>
</a>
</g>
</g>
<!-- Node5&#45;&gt;Node8 -->
<g id="edge7_Node000005_Node000008" class="edge">
<title>Node5&#45;&gt;Node8</title>
<g id="a_edge7_Node000005_Node000008"><a xlink:title=" ">
<path fill="none" stroke="#63b8ff" d="M502.22,-54.84C471.59,-44.84 422.59,-28.83 392.71,-19.07"/>
<polygon fill="#63b8ff" stroke="#63b8ff" points="393.94,-15.79 383.35,-16.01 391.77,-22.44 393.94,-15.79"/>
</a>
</g>
</g>
<!-- Node9 -->
<g id="Node000009" class="node">
<title>Node9</title>
<g id="a_Node000009"><a xlink:title=" ">
<polygon fill="#e0e0e0" stroke="#999999" points="740.88,-19.25 700.88,-19.25 700.88,0 740.88,0 740.88,-19.25"/>
<text xml:space="preserve" text-anchor="middle" x="720.88" y="-5.75" font-family="Helvetica,sans-Serif" font-size="10.00">string</text>
</a>
</g>
</g>
<!-- Node5&#45;&gt;Node9 -->
<g id="edge8_Node000005_Node000009" class="edge">
<title>Node5&#45;&gt;Node9</title>
<g id="a_edge8_Node000005_Node000009"><a xlink:title=" ">
<path fill="none" stroke="#63b8ff" d="M562.28,-54.84C597.75,-44.95 654.25,-29.2 689.37,-19.41"/>
<polygon fill="#63b8ff" stroke="#63b8ff" points="690.25,-22.8 698.94,-16.74 688.37,-16.05 690.25,-22.8"/>
</a>
</g>
</g>
<!-- Node10 -->
<g id="Node000010" class="node">
<title>Node10</title>
<g id="a_Node000010"><a xlink:title=" ">
<polygon fill="#e0e0e0" stroke="#999999" points="538.62,-19.25 461.12,-19.25 461.12,0 538.62,0 538.62,-19.25"/>
<text xml:space="preserve" text-anchor="middle" x="499.88" y="-5.75" font-family="Helvetica,sans-Serif" font-size="10.00">unordered_set</text>
</a>
</g>
</g>
<!-- Node5&#45;&gt;Node10 -->
<g id="edge9_Node000005_Node000010" class="edge">
<title>Node5&#45;&gt;Node10</title>
<g id="a_edge9_Node000005_Node000010"><a xlink:title=" ">
<path fill="none" stroke="#63b8ff" d="M524.92,-55.08C520.99,-48.11 515.36,-38.12 510.44,-29.37"/>
<polygon fill="#63b8ff" stroke="#63b8ff" points="513.64,-27.92 505.68,-20.93 507.54,-31.36 513.64,-27.92"/>
</a>
</g>
</g>
<!-- Node11 -->
<g id="Node000011" class="node">
<title>Node11</title>
<g id="a_Node000011"><a xlink:title=" ">
<polygon fill="#e0e0e0" stroke="#999999" points="1065.38,-19.25 1022.38,-19.25 1022.38,0 1065.38,0 1065.38,-19.25"/>
<text xml:space="preserve" text-anchor="middle" x="1043.88" y="-5.75" font-family="Helvetica,sans-Serif" font-size="10.00">vector</text>
</a>
</g>
</g>
<!-- Node5&#45;&gt;Node11 -->
<g id="edge10_Node000005_Node000011" class="edge">
<title>Node5&#45;&gt;Node11</title>
<g id="a_edge10_Node000005_Node000011"><a xlink:title=" ">
<path fill="none" stroke="#63b8ff" d="M585.88,-56.31C588.92,-55.94 591.93,-55.58 594.88,-55.25 764.32,-36.03 807.39,-38.14 976.88,-19.25 988,-18.01 1000.15,-16.5 1011.01,-15.08"/>
<polygon fill="#63b8ff" stroke="#63b8ff" points="1011.22,-18.59 1020.67,-13.81 1010.3,-11.65 1011.22,-18.59"/>
</a>
</g>
</g>
<!-- Node12&#45;&gt;Node9 -->
<g id="edge14_Node000012_Node000009" class="edge">
<title>Node12&#45;&gt;Node9</title>
<g id="a_edge14_Node000012_Node000009"><a xlink:title=" ">
<path fill="none" stroke="#63b8ff" d="M872,-54.84C838.62,-45.07 785.69,-29.59 752.15,-19.78"/>
<polygon fill="#63b8ff" stroke="#63b8ff" points="753.19,-16.43 742.61,-16.98 751.22,-23.15 753.19,-16.43"/>
</a>
</g>
</g>
<!-- Node13 -->
<g id="Node000013" class="node">
<title>Node13</title>
<g id="a_Node000013"><a xlink:title=" ">
<polygon fill="#e0e0e0" stroke="#999999" points="891.5,-19.25 840.25,-19.25 840.25,0 891.5,0 891.5,-19.25"/>
<text xml:space="preserve" text-anchor="middle" x="865.88" y="-5.75" font-family="Helvetica,sans-Serif" font-size="10.00">sstream</text>
</a>
</g>
</g>
<!-- Node12&#45;&gt;Node13 -->
<g id="edge12_Node000012_Node000013" class="edge">
<title>Node12&#45;&gt;Node13</title>
<g id="a_edge12_Node000012_Node000013"><a xlink:title=" ">
<path fill="none" stroke="#63b8ff" d="M896.77,-55.08C891.81,-47.96 884.67,-37.68 878.5,-28.8"/>
<polygon fill="#63b8ff" stroke="#63b8ff" points="881.56,-27.07 872.98,-20.85 875.81,-31.06 881.56,-27.07"/>
</a>
</g>
</g>
<!-- Node14 -->
<g id="Node000014" class="node">
<title>Node14</title>
<g id="a_Node000014"><a xlink:title=" ">
<polygon fill="#e0e0e0" stroke="#999999" points="968.25,-19.25 909.5,-19.25 909.5,0 968.25,0 968.25,-19.25"/>
<text xml:space="preserve" text-anchor="middle" x="938.88" y="-5.75" font-family="Helvetica,sans-Serif" font-size="10.00">stdexcept</text>
</a>
</g>
</g>
<!-- Node12&#45;&gt;Node14 -->
<g id="edge13_Node000012_Node000014" class="edge">
<title>Node12&#45;&gt;Node14</title>
<g id="a_edge13_Node000012_Node000014"><a xlink:title=" ">
<path fill="none" stroke="#63b8ff" d="M908.82,-55.08C913.59,-48.03 920.44,-37.9 926.4,-29.08"/>
<polygon fill="#63b8ff" stroke="#63b8ff" points="929.25,-31.11 931.95,-20.86 923.45,-27.19 929.25,-31.11"/>
</a>
</g>
</g>
<!-- Node15&#45;&gt;Node11 -->
<g id="edge32_Node000015_Node000011" class="edge">
<title>Node15&#45;&gt;Node11</title>
<g id="a_edge32_Node000015_Node000011"><a xlink:title=" ">
<path fill="none" stroke="#63b8ff" d="M901.28,-165.35C933.76,-151.09 993.45,-120.17 1024.88,-74.5 1033.82,-61.5 1038.63,-44.22 1041.17,-30.91"/>
<polygon fill="#63b8ff" stroke="#63b8ff" points="1044.61,-31.56 1042.73,-21.13 1037.7,-30.45 1044.61,-31.56"/>
</a>
</g>
</g>
<!-- Node15&#45;&gt;Node12 -->
<g id="edge16_Node000015_Node000012" class="edge">
<title>Node15&#45;&gt;Node12</title>
<g id="a_edge16_Node000015_Node000012"><a xlink:title=" ">
<path fill="none" stroke="#63b8ff" d="M866.21,-165.33C850.86,-153.19 828.28,-130.8 838.88,-110.5 845.68,-97.46 858.23,-87.45 870.42,-80.25"/>
<polygon fill="#63b8ff" stroke="#63b8ff" points="871.97,-83.4 879.12,-75.58 868.65,-77.23 871.97,-83.4"/>
</a>
</g>
</g>
<!-- Node16 -->
<g id="Node000016" class="node">
<title>Node16</title>
<g id="a_Node000016"><a xlink:href="_optional_8hpp.html" target="_top" xlink:title=" ">
<polygon fill="white" stroke="#666666" points="620.25,-129.75 549.5,-129.75 549.5,-110.5 620.25,-110.5 620.25,-129.75"/>
<text xml:space="preserve" text-anchor="middle" x="584.88" y="-116.25" font-family="Helvetica,sans-Serif" font-size="10.00">Optional.hpp</text>
</a>
</g>
</g>
<!-- Node15&#45;&gt;Node16 -->
<g id="edge17_Node000015_Node000016" class="edge">
<title>Node15&#45;&gt;Node16</title>
<g id="a_edge17_Node000015_Node000016"><a xlink:title=" ">
<path fill="none" stroke="#63b8ff" d="M831.96,-165.88C777.02,-155.93 686.56,-139.54 631.67,-129.6"/>
<polygon fill="#63b8ff" stroke="#63b8ff" points="632.47,-126.19 622.01,-127.85 631.23,-133.08 632.47,-126.19"/>
</a>
</g>
</g>
<!-- Node15&#45;&gt;Node19 -->
<g id="edge21_Node000015_Node000019" class="edge">
<title>Node15&#45;&gt;Node19</title>
<g id="a_edge21_Node000015_Node000019"><a xlink:title=" ">
<path fill="none" stroke="#63b8ff" d="M849.7,-165.34C821.4,-156.58 778.26,-143.23 746.79,-133.48"/>
<polygon fill="#63b8ff" stroke="#63b8ff" points="748.23,-130.26 737.64,-130.65 746.16,-136.95 748.23,-130.26"/>
</a>
</g>
</g>
<!-- Node20 -->
<g id="Node000020" class="node">
<title>Node20</title>
<g id="a_Node000020"><a xlink:title=" ">
<polygon fill="#e0e0e0" stroke="#999999" points="1015.75,-74.5 978,-74.5 978,-55.25 1015.75,-55.25 1015.75,-74.5"/>
<text xml:space="preserve" text-anchor="middle" x="996.88" y="-61" font-family="Helvetica,sans-Serif" font-size="10.00">array</text>
</a>
</g>
</g>
<!-- Node15&#45;&gt;Node20 -->
<g id="edge30_Node000015_Node000020" class="edge">
<title>Node15&#45;&gt;Node20</title>
<g id="a_edge30_Node000015_Node000020"><a xlink:title=" ">
<path fill="none" stroke="#63b8ff" d="M888.9,-165.56C899.05,-156.61 915.15,-142.32 928.88,-129.75 946.32,-113.78 965.98,-95.25 979.66,-82.27"/>
<polygon fill="#63b8ff" stroke="#63b8ff" points="981.77,-85.1 986.61,-75.67 976.95,-80.02 981.77,-85.1"/>
</a>
</g>
</g>
<!-- Node15&#45;&gt;Node22 -->
<g id="edge29_Node000015_Node000022" class="edge">
<title>Node15&#45;&gt;Node22</title>
<g id="a_edge29_Node000015_Node000022"><a xlink:title=" ">
<path fill="none" stroke="#63b8ff" d="M831.87,-167.89C788.5,-161.1 722.71,-148.75 667.88,-129.75 649.61,-123.42 647.12,-116.9 628.88,-110.5 561.76,-86.96 539.51,-91.43 467.37,-74.97"/>
<polygon fill="#63b8ff" stroke="#63b8ff" points="468.36,-71.61 457.83,-72.73 466.77,-78.43 468.36,-71.61"/>
</a>
</g>
</g>
<!-- Node25 -->
<g id="Node000025" class="node">
<title>Node25</title>
<g id="a_Node000025"><a xlink:title=" ">
<polygon fill="#e0e0e0" stroke="#999999" points="920,-129.75 847.75,-129.75 847.75,-110.5 920,-110.5 920,-129.75"/>
<text xml:space="preserve" text-anchor="middle" x="883.88" y="-116.25" font-family="Helvetica,sans-Serif" font-size="10.00">initializer_list</text>
</a>
</g>
</g>
<!-- Node15&#45;&gt;Node25 -->
<g id="edge31_Node000015_Node000025" class="edge">
<title>Node15&#45;&gt;Node25</title>
<g id="a_edge31_Node000015_Node000025"><a xlink:title=" ">
<path fill="none" stroke="#63b8ff" d="M879.7,-165.58C880.32,-158.99 881.19,-149.71 881.98,-141.32"/>
<polygon fill="#63b8ff" stroke="#63b8ff" points="885.44,-141.9 882.89,-131.62 878.47,-141.25 885.44,-141.9"/>
</a>
</g>
</g>
<!-- Node26 -->
<g id="Node000026" class="node">
<title>Node26</title>
<g id="a_Node000026"><a xlink:title=" ">
<polygon fill="#e0e0e0" stroke="#999999" points="1053.5,-129.75 1014.25,-129.75 1014.25,-110.5 1053.5,-110.5 1053.5,-129.75"/>
<text xml:space="preserve" text-anchor="middle" x="1033.88" y="-116.25" font-family="Helvetica,sans-Serif" font-size="10.00">utility</text>
</a>
</g>
</g>
<!-- Node15&#45;&gt;Node26 -->
<g id="edge33_Node000015_Node000026" class="edge">
<title>Node15&#45;&gt;Node26</title>
<g id="a_edge33_Node000015_Node000026"><a xlink:title=" ">
<path fill="none" stroke="#63b8ff" d="M905.17,-165.34C932.31,-156.02 974.63,-141.48 1003.26,-131.64"/>
<polygon fill="#63b8ff" stroke="#63b8ff" points="1004.12,-135.05 1012.44,-128.49 1001.85,-128.43 1004.12,-135.05"/>
</a>
</g>
</g>
<!-- Node16&#45;&gt;Node12 -->
<g id="edge18_Node000016_Node000012" class="edge">
<title>Node16&#45;&gt;Node12</title>
<g id="a_edge18_Node000016_Node000012"><a xlink:title=" ">
<path fill="none" stroke="#63b8ff" d="M620.74,-113.12C673.25,-104.33 771.94,-87.8 837.55,-76.81"/>
<polygon fill="#63b8ff" stroke="#63b8ff" points="837.81,-80.32 847.1,-75.22 836.66,-73.41 837.81,-80.32"/>
</a>
</g>
</g>
<!-- Node17 -->
<g id="Node000017" class="node">
<title>Node17</title>
<g id="a_Node000017"><a xlink:title=" ">
<polygon fill="#e0e0e0" stroke="#999999" points="389.5,-74.5 344.25,-74.5 344.25,-55.25 389.5,-55.25 389.5,-74.5"/>
<text xml:space="preserve" text-anchor="middle" x="366.88" y="-61" font-family="Helvetica,sans-Serif" font-size="10.00">cstring</text>
</a>
</g>
</g>
<!-- Node16&#45;&gt;Node17 -->
<g id="edge19_Node000016_Node000017" class="edge">
<title>Node16&#45;&gt;Node17</title>
<g id="a_edge19_Node000016_Node000017"><a xlink:title=" ">
<path fill="none" stroke="#63b8ff" d="M549.14,-110.86C513.91,-102.65 458.27,-89.49 401.01,-74.99"/>
<polygon fill="#63b8ff" stroke="#63b8ff" points="401.95,-71.62 391.39,-72.54 400.22,-78.4 401.95,-71.62"/>
</a>
</g>
</g>
<!-- Node16&#45;&gt;Node18 -->
<g id="edge20_Node000016_Node000018" class="edge">
<title>Node16&#45;&gt;Node18</title>
<g id="a_edge20_Node000016_Node000018"><a xlink:title=" ">
<path fill="none" stroke="#63b8ff" d="M549.07,-111.89C545.97,-111.37 542.87,-110.9 539.88,-110.5 336.31,-83.27 279.73,-103.85 73.46,-74.67"/>
<polygon fill="#63b8ff" stroke="#63b8ff" points="74.14,-71.24 63.74,-73.28 73.14,-78.16 74.14,-71.24"/>
</a>
</g>
</g>
<!-- Node19&#45;&gt;Node5 -->
<g id="edge26_Node000019_Node000005" class="edge">
<title>Node19&#45;&gt;Node5</title>
<g id="a_edge26_Node000019_Node000005"><a xlink:title=" ">
<path fill="none" stroke="#63b8ff" d="M676.85,-110.09C647.73,-101.33 603.34,-87.98 570.96,-78.23"/>
<polygon fill="#63b8ff" stroke="#63b8ff" points="572.08,-74.92 561.5,-75.39 570.06,-81.62 572.08,-74.92"/>
</a>
</g>
</g>
<!-- Node19&#45;&gt;Node12 -->
<g id="edge27_Node000019_Node000012" class="edge">
<title>Node19&#45;&gt;Node12</title>
<g id="a_edge27_Node000019_Node000012"><a xlink:title=" ">
<path fill="none" stroke="#63b8ff" d="M737.5,-110.8C769.99,-101.98 821.63,-87.95 858.56,-77.91"/>
<polygon fill="#63b8ff" stroke="#63b8ff" points="859.32,-81.33 868.05,-75.34 857.49,-74.58 859.32,-81.33"/>
</a>
</g>
</g>
<!-- Node19&#45;&gt;Node20 -->
<g id="edge22_Node000019_Node000020" class="edge">
<title>Node19&#45;&gt;Node20</title>
<g id="a_edge22_Node000019_Node000020"><a xlink:title=" ">
<path fill="none" stroke="#63b8ff" d="M737.79,-115.19C785.1,-108.88 878.42,-95.31 966.67,-74.75"/>
<polygon fill="#63b8ff" stroke="#63b8ff" points="967.29,-78.21 976.21,-72.49 965.68,-71.39 967.29,-78.21"/>
</a>
</g>
</g>
<!-- Node21 -->
<g id="Node000021" class="node">
<title>Node21</title>
<g id="a_Node000021"><a xlink:title=" ">
<polygon fill="#e0e0e0" stroke="#999999" points="661.88,-74.5 603.88,-74.5 603.88,-55.25 661.88,-55.25 661.88,-74.5"/>
<text xml:space="preserve" text-anchor="middle" x="632.88" y="-61" font-family="Helvetica,sans-Serif" font-size="10.00">functional</text>
</a>
</g>
</g>
<!-- Node19&#45;&gt;Node21 -->
<g id="edge23_Node000019_Node000021" class="edge">
<title>Node19&#45;&gt;Node21</title>
<g id="a_edge23_Node000019_Node000021"><a xlink:title=" ">
<path fill="none" stroke="#63b8ff" d="M694.32,-110.09C683.41,-102.24 667.37,-90.7 654.41,-81.37"/>
<polygon fill="#63b8ff" stroke="#63b8ff" points="656.63,-78.66 646.47,-75.66 652.54,-84.34 656.63,-78.66"/>
</a>
</g>
</g>
<!-- Node19&#45;&gt;Node22 -->
<g id="edge24_Node000019_Node000022" class="edge">
<title>Node19&#45;&gt;Node22</title>
<g id="a_edge24_Node000019_Node000022"><a xlink:title=" ">
<path fill="none" stroke="#63b8ff" d="M675.9,-113.15C671.2,-112.26 666.41,-111.35 661.88,-110.5 577.89,-94.78 553.69,-93.82 467.46,-74.94"/>
<polygon fill="#63b8ff" stroke="#63b8ff" points="468.33,-71.55 457.81,-72.81 466.82,-78.39 468.33,-71.55"/>
</a>
</g>
</g>
<!-- Node23 -->
<g id="Node000023" class="node">
<title>Node23</title>
<g id="a_Node000023"><a xlink:title=" ">
<polygon fill="#e0e0e0" stroke="#999999" points="725.5,-74.5 680.25,-74.5 680.25,-55.25 725.5,-55.25 725.5,-74.5"/>
<text xml:space="preserve" text-anchor="middle" x="702.88" y="-61" font-family="Helvetica,sans-Serif" font-size="10.00">chrono</text>
</a>
</g>
</g>
<!-- Node19&#45;&gt;Node23 -->
<g id="edge25_Node000019_Node000023" class="edge">
<title>Node19&#45;&gt;Node23</title>
<g id="a_edge25_Node000019_Node000023"><a xlink:title=" ">
<path fill="none" stroke="#63b8ff" d="M706.21,-110.33C705.72,-103.74 705.02,-94.46 704.39,-86.07"/>
<polygon fill="#63b8ff" stroke="#63b8ff" points="707.9,-86.08 703.66,-76.37 700.92,-86.6 707.9,-86.08"/>
</a>
</g>
</g>
<!-- Node24 -->
<g id="Node000024" class="node">
<title>Node24</title>
<g id="a_Node000024"><a xlink:href="_deprecated_8hpp.html" target="_top" xlink:title=" ">
<polygon fill="white" stroke="#666666" points="828.38,-74.5 743.38,-74.5 743.38,-55.25 828.38,-55.25 828.38,-74.5"/>
<text xml:space="preserve" text-anchor="middle" x="785.88" y="-61" font-family="Helvetica,sans-Serif" font-size="10.00">Deprecated.hpp</text>
</a>
</g>
</g>
<!-- Node19&#45;&gt;Node24 -->
<g id="edge28_Node000019_Node000024" class="edge">
<title>Node19&#45;&gt;Node24</title>
<g id="a_edge28_Node000019_Node000024"><a xlink:title=" ">
<path fill="none" stroke="#63b8ff" d="M720.28,-110.09C731.97,-102.21 749.18,-90.61 763.04,-81.27"/>
<polygon fill="#63b8ff" stroke="#63b8ff" points="764.82,-84.29 771.15,-75.8 760.9,-78.49 764.82,-84.29"/>
</a>
</g>
</g>
<!-- Node28&#45;&gt;Node18 -->
<g id="edge43_Node000028_Node000018" class="edge">
<title>Node28&#45;&gt;Node18</title>
<g id="a_edge43_Node000028_Node000018"><a xlink:title=" ">
<path fill="none" stroke="#63b8ff" d="M72.09,-220.59C53.6,-213.99 32.85,-202.96 21.88,-185 3.1,-154.28 13.93,-110.44 22.84,-85.41"/>
<polygon fill="#63b8ff" stroke="#63b8ff" points="26.07,-86.77 26.38,-76.18 19.53,-84.26 26.07,-86.77"/>
</a>
</g>
</g>
<!-- Node29 -->
<g id="Node000029" class="node">
<title>Node29</title>
<g id="a_Node000029"><a xlink:href="_assert_8hpp.html" target="_top" xlink:title=" ">
<polygon fill="white" stroke="#666666" points="546.5,-185 483.25,-185 483.25,-165.75 546.5,-165.75 546.5,-185"/>
<text xml:space="preserve" text-anchor="middle" x="514.88" y="-171.5" font-family="Helvetica,sans-Serif" font-size="10.00">Assert.hpp</text>
</a>
</g>
</g>
<!-- Node28&#45;&gt;Node29 -->
<g id="edge41_Node000028_Node000029" class="edge">
<title>Node28&#45;&gt;Node29</title>
<g id="a_edge41_Node000028_Node000029"><a xlink:title=" ">
<path fill="none" stroke="#63b8ff" d="M178.21,-220.53C262.52,-209.47 402.21,-191.15 472.18,-181.98"/>
<polygon fill="#63b8ff" stroke="#63b8ff" points="472.23,-185.5 481.69,-180.73 471.32,-178.56 472.23,-185.5"/>
</a>
</g>
</g>
<!-- Node31 -->
<g id="Node000031" class="node">
<title>Node31</title>
<g id="a_Node000031"><a xlink:title=" ">
<polygon fill="#e0e0e0" stroke="#999999" points="70.5,-185 31.25,-185 31.25,-165.75 70.5,-165.75 70.5,-185"/>
<text xml:space="preserve" text-anchor="middle" x="50.88" y="-171.5" font-family="Helvetica,sans-Serif" font-size="10.00">limits</text>
</a>
</g>
</g>
<!-- Node28&#45;&gt;Node31 -->
<g id="edge44_Node000028_Node000031" class="edge">
<title>Node28&#45;&gt;Node31</title>
<g id="a_edge44_Node000028_Node000031"><a xlink:title=" ">
<path fill="none" stroke="#63b8ff" d="M99.04,-220.59C90.82,-213.05 78.89,-202.1 68.96,-192.98"/>
<polygon fill="#63b8ff" stroke="#63b8ff" points="71.42,-190.48 61.68,-186.3 66.68,-195.64 71.42,-190.48"/>
</a>
</g>
</g>
<!-- Node30 -->
<g id="Node000030" class="node">
<title>Node30</title>
<g id="a_Node000030"><a xlink:title=" ">
<polygon fill="#e0e0e0" stroke="#999999" points="531,-129.75 482.75,-129.75 482.75,-110.5 531,-110.5 531,-129.75"/>
<text xml:space="preserve" text-anchor="middle" x="506.88" y="-116.25" font-family="Helvetica,sans-Serif" font-size="10.00">cassert</text>
</a>
</g>
</g>
<!-- Node29&#45;&gt;Node30 -->
<g id="edge42_Node000029_Node000030" class="edge">
<title>Node29&#45;&gt;Node30</title>
<g id="a_edge42_Node000029_Node000030"><a xlink:title=" ">
<path fill="none" stroke="#63b8ff" d="M513.55,-165.58C512.56,-158.99 511.17,-149.71 509.91,-141.32"/>
<polygon fill="#63b8ff" stroke="#63b8ff" points="513.4,-140.97 508.45,-131.61 506.47,-142.01 513.4,-140.97"/>
</a>
</g>
</g>
<!-- Node33 -->
<g id="Node000033" class="node">
<title>Node33</title>
<g id="a_Node000033"><a xlink:title=" ">
<polygon fill="#e0e0e0" stroke="#999999" points="1103,-240.25 1054.75,-240.25 1054.75,-221 1103,-221 1103,-240.25"/>
<text xml:space="preserve" text-anchor="middle" x="1078.88" y="-226.75" font-family="Helvetica,sans-Serif" font-size="10.00">cstddef</text>
</a>
</g>
</g>
<!-- Node32&#45;&gt;Node33 -->
<g id="edge46_Node000032_Node000033" class="edge">
<title>Node32&#45;&gt;Node33</title>
<g id="a_edge46_Node000032_Node000033"><a xlink:title=" ">
<path fill="none" stroke="#63b8ff" d="M1019.4,-275.95C1030.97,-267.33 1045.63,-256.4 1057.51,-247.55"/>
<polygon fill="#63b8ff" stroke="#63b8ff" points="1059.56,-250.39 1065.48,-241.61 1055.37,-244.77 1059.56,-250.39"/>
</a>
</g>
</g>
<!-- Node34&#45;&gt;Node4 -->
<g id="edge48_Node000034_Node000004" class="edge">
<title>Node34&#45;&gt;Node4</title>
<g id="a_edge48_Node000034_Node000004"><a xlink:title=" ">
<path fill="none" stroke="#63b8ff" d="M776.33,-281.43C707.66,-270.79 594.05,-253.19 521.91,-242.01"/>
<polygon fill="#63b8ff" stroke="#63b8ff" points="522.61,-238.58 512.19,-240.51 521.54,-245.5 522.61,-238.58"/>
</a>
</g>
</g>
<!-- Node34&#45;&gt;Node11 -->
<g id="edge53_Node000034_Node000011" class="edge">
<title>Node34&#45;&gt;Node11</title>
<g id="a_edge53_Node000034_Node000011"><a xlink:title=" ">
<path fill="none" stroke="#63b8ff" d="M861.6,-281.46C912.37,-262.63 1021.43,-213.8 1062.88,-129.75 1078.95,-97.16 1064.5,-54.02 1053.53,-29.6"/>
<polygon fill="#63b8ff" stroke="#63b8ff" points="1056.83,-28.41 1049.36,-20.9 1050.52,-31.43 1056.83,-28.41"/>
</a>
</g>
</g>
<!-- Node34&#45;&gt;Node15 -->
<g id="edge49_Node000034_Node000015" class="edge">
<title>Node34&#45;&gt;Node15</title>
<g id="a_edge49_Node000034_Node000015"><a xlink:title=" ">
<path fill="none" stroke="#63b8ff" d="M838.33,-281.54C845.4,-263.21 861.66,-221.03 871.3,-196.01"/>
<polygon fill="#63b8ff" stroke="#63b8ff" points="874.56,-197.29 874.89,-186.7 868.03,-194.77 874.56,-197.29"/>
</a>
</g>
</g>
<!-- Node34&#45;&gt;Node19 -->
<g id="edge50_Node000034_Node000019" class="edge">
<title>Node34&#45;&gt;Node19</title>
<g id="a_edge50_Node000034_Node000019"><a xlink:title=" ">
<path fill="none" stroke="#63b8ff" d="M828.51,-281.42C819.12,-268.07 800.92,-242.41 784.88,-221 763.09,-191.94 736.96,-158.82 721.15,-138.96"/>
<polygon fill="#63b8ff" stroke="#63b8ff" points="724.01,-136.94 715.04,-131.3 718.54,-141.3 724.01,-136.94"/>
</a>
</g>
</g>
<!-- Node34&#45;&gt;Node26 -->
<g id="edge52_Node000034_Node000026" class="edge">
<title>Node34&#45;&gt;Node26</title>
<g id="a_edge52_Node000034_Node000026"><a xlink:title=" ">
<path fill="none" stroke="#63b8ff" d="M845.57,-281.39C877.78,-253.98 974.11,-171.99 1015.09,-137.11"/>
<polygon fill="#63b8ff" stroke="#63b8ff" points="1017.1,-140 1022.45,-130.85 1012.57,-134.66 1017.1,-140"/>
</a>
</g>
</g>
<!-- Node34&#45;&gt;Node34 -->
<g id="edge51_Node000034_Node000034" class="edge">
<title>Node34&#45;&gt;Node34</title>
<g id="a_edge51_Node000034_Node000034"><a xlink:title=" ">
<path fill="none" stroke="#63b8ff" d="M869.01,-301.57C894.47,-305.08 920.12,-301.73 920.12,-291.5 920.12,-282.79 901.52,-279.07 880.28,-280.32"/>
<polygon fill="#63b8ff" stroke="#63b8ff" points="880.13,-276.82 870.52,-281.29 880.82,-283.79 880.13,-276.82"/>
</a>
</g>
</g>
<!-- Node35&#45;&gt;Node19 -->
<g id="edge55_Node000035_Node000019" class="edge">
<title>Node35&#45;&gt;Node19</title>
<g id="a_edge55_Node000035_Node000019"><a xlink:title=" ">
<path fill="none" stroke="#63b8ff" d="M298.01,-168.98C386.58,-158.61 579.25,-136.06 664.66,-126.07"/>
<polygon fill="#63b8ff" stroke="#63b8ff" points="664.95,-129.56 674.47,-124.92 664.13,-122.6 664.95,-129.56"/>
</a>
</g>
</g>
<!-- Node36 -->
<g id="Node000036" class="node">
<title>Node36</title>
<g id="a_Node000036"><a xlink:href="_b_float16_8hpp.html" target="_top" xlink:title=" ">
<polygon fill="white" stroke="#666666" points="335.75,-129.75 262,-129.75 262,-110.5 335.75,-110.5 335.75,-129.75"/>
<text xml:space="preserve" text-anchor="middle" x="298.88" y="-116.25" font-family="Helvetica,sans-Serif" font-size="10.00">BFloat16.hpp</text>
</a>
</g>
</g>
<!-- Node35&#45;&gt;Node36 -->
<g id="edge56_Node000035_Node000036" class="edge">
<title>Node35&#45;&gt;Node36</title>
<g id="a_edge56_Node000035_Node000036"><a xlink:title=" ">
<path fill="none" stroke="#63b8ff" d="M259.64,-165.58C266.06,-158.3 275.39,-147.73 283.34,-138.73"/>
<polygon fill="#63b8ff" stroke="#63b8ff" points="285.95,-141.06 289.94,-131.24 280.7,-136.43 285.95,-141.06"/>
</a>
</g>
</g>
<!-- Node37 -->
<g id="Node000037" class="node">
<title>Node37</title>
<g id="a_Node000037"><a xlink:href="_half_8hpp.html" target="_top" xlink:title=" ">
<polygon fill="white" stroke="#666666" points="150.25,-129.75 97.5,-129.75 97.5,-110.5 150.25,-110.5 150.25,-129.75"/>
<text xml:space="preserve" text-anchor="middle" x="123.88" y="-116.25" font-family="Helvetica,sans-Serif" font-size="10.00">Half.hpp</text>
</a>
</g>
</g>
<!-- Node35&#45;&gt;Node37 -->
<g id="edge61_Node000035_Node000037" class="edge">
<title>Node35&#45;&gt;Node37</title>
<g id="a_edge61_Node000035_Node000037"><a xlink:title=" ">
<path fill="none" stroke="#63b8ff" d="M230.16,-165.34C209.84,-156.89 179.23,-144.15 156.07,-134.52"/>
<polygon fill="#63b8ff" stroke="#63b8ff" points="157.67,-131.39 147.09,-130.78 154.98,-137.86 157.67,-131.39"/>
</a>
</g>
</g>
<!-- Node36&#45;&gt;Node7 -->
<g id="edge57_Node000036_Node000007" class="edge">
<title>Node36&#45;&gt;Node7</title>
<g id="a_edge57_Node000036_Node000007"><a xlink:title=" ">
<path fill="none" stroke="#63b8ff" d="M297.16,-110.25C293.82,-93 286.38,-54.58 281.78,-30.81"/>
<polygon fill="#63b8ff" stroke="#63b8ff" points="285.24,-30.27 279.9,-21.11 278.37,-31.6 285.24,-30.27"/>
</a>
</g>
</g>
<!-- Node36&#45;&gt;Node17 -->
<g id="edge59_Node000036_Node000017" class="edge">
<title>Node36&#45;&gt;Node17</title>
<g id="a_edge59_Node000036_Node000017"><a xlink:title=" ">
<path fill="none" stroke="#63b8ff" d="M310.41,-110.09C320.34,-102.32 334.89,-90.92 346.73,-81.65"/>
<polygon fill="#63b8ff" stroke="#63b8ff" points="348.6,-84.63 354.32,-75.71 344.29,-79.12 348.6,-84.63"/>
</a>
</g>
</g>
<!-- Node36&#45;&gt;Node22 -->
<g id="edge60_Node000036_Node000022" class="edge">
<title>Node36&#45;&gt;Node22</title>
<g id="a_edge60_Node000036_Node000022"><a xlink:title=" ">
<path fill="none" stroke="#63b8ff" d="M321.44,-110.09C342.65,-101.6 374.65,-88.79 398.75,-79.14"/>
<polygon fill="#63b8ff" stroke="#63b8ff" points="399.81,-82.48 407.8,-75.52 397.21,-75.98 399.81,-82.48"/>
</a>
</g>
</g>
<!-- Node36&#45;&gt;Node27 -->
<g id="edge58_Node000036_Node000027" class="edge">
<title>Node36&#45;&gt;Node27</title>
<g id="a_edge58_Node000036_Node000027"><a xlink:title=" ">
<path fill="none" stroke="#63b8ff" d="M286.83,-110.09C276.47,-102.32 261.27,-90.92 248.91,-81.65"/>
<polygon fill="#63b8ff" stroke="#63b8ff" points="251.05,-78.88 240.95,-75.68 246.85,-84.48 251.05,-78.88"/>
</a>
</g>
</g>
<!-- Node37&#45;&gt;Node18 -->
<g id="edge62_Node000037_Node000018" class="edge">
<title>Node37&#45;&gt;Node18</title>
<g id="a_edge62_Node000037_Node000018"><a xlink:title=" ">
<path fill="none" stroke="#63b8ff" d="M108.1,-110.09C93.94,-101.98 72.89,-89.93 56.35,-80.46"/>
<polygon fill="#63b8ff" stroke="#63b8ff" points="58.46,-77.64 48.04,-75.7 54.98,-83.71 58.46,-77.64"/>
</a>
</g>
</g>
<!-- Node38 -->
<g id="Node000038" class="node">
<title>Node38</title>
<g id="a_Node000038"><a xlink:title=" ">
<polygon fill="#e0e0e0" stroke="#999999" points="149.5,-74.5 80.25,-74.5 80.25,-55.25 149.5,-55.25 149.5,-74.5"/>
<text xml:space="preserve" text-anchor="middle" x="114.88" y="-61" font-family="Helvetica,sans-Serif" font-size="10.00">half/half.hpp</text>
</a>
</g>
</g>
<!-- Node37&#45;&gt;Node38 -->
<g id="edge63_Node000037_Node000038" class="edge">
<title>Node37&#45;&gt;Node38</title>
<g id="a_edge63_Node000037_Node000038"><a xlink:title=" ">
<path fill="none" stroke="#63b8ff" d="M122.39,-110.33C121.28,-103.74 119.71,-94.46 118.29,-86.07"/>
<polygon fill="#63b8ff" stroke="#63b8ff" points="121.76,-85.63 116.65,-76.35 114.86,-86.8 121.76,-85.63"/>
</a>
</g>
</g>
<!-- Node39&#45;&gt;Node3 -->
<g id="edge65_Node000039_Node000003" class="edge">
<title>Node39&#45;&gt;Node3</title>
<g id="a_edge65_Node000039_Node000003"><a xlink:title=" ">
<path fill="none" stroke="#63b8ff" d="M881.62,-397.59C858.61,-389.02 823.78,-376.06 797.79,-366.38"/>
<polygon fill="#63b8ff" stroke="#63b8ff" points="799.26,-363.19 788.67,-362.98 796.82,-369.75 799.26,-363.19"/>
</a>
</g>
</g>
<!-- Node39&#45;&gt;Node32 -->
<g id="edge66_Node000039_Node000032" class="edge">
<title>Node39&#45;&gt;Node32</title>
<g id="a_edge66_Node000039_Node000032"><a xlink:title=" ">
<path fill="none" stroke="#63b8ff" d="M913.25,-397.67C927.67,-380.17 959.99,-340.93 980.82,-315.64"/>
<polygon fill="#63b8ff" stroke="#63b8ff" points="983.3,-318.13 986.95,-308.19 977.89,-313.68 983.3,-318.13"/>
</a>
</g>
</g>
<!-- Node39&#45;&gt;Node34 -->
<g id="edge67_Node000039_Node000034" class="edge">
<title>Node39&#45;&gt;Node34</title>
<g id="a_edge67_Node000039_Node000034"><a xlink:title=" ">
<path fill="none" stroke="#63b8ff" d="M900.3,-397.67C888.74,-379.09 861.93,-336 846.46,-311.12"/>
<polygon fill="#63b8ff" stroke="#63b8ff" points="849.47,-309.34 841.22,-302.7 843.53,-313.04 849.47,-309.34"/>
</a>
</g>
</g>
<!-- Node40&#45;&gt;Node3 -->
<g id="edge69_Node000040_Node000003" class="edge">
<title>Node40&#45;&gt;Node3</title>
<g id="a_edge69_Node000040_Node000003"><a xlink:title=" ">
<path fill="none" stroke="#63b8ff" d="M803.78,-397.83C797.02,-390.48 787.15,-379.76 778.81,-370.69"/>
<polygon fill="#63b8ff" stroke="#63b8ff" points="781.51,-368.46 772.17,-363.47 776.36,-373.2 781.51,-368.46"/>
</a>
</g>
</g>
<!-- Node40&#45;&gt;Node34 -->
<g id="edge70_Node000040_Node000034" class="edge">
<title>Node40&#45;&gt;Node34</title>
<g id="a_edge70_Node000040_Node000034"><a xlink:title=" ">
<path fill="none" stroke="#63b8ff" d="M813.68,-397.67C817.36,-379.42 825.8,-337.53 830.85,-312.48"/>
<polygon fill="#63b8ff" stroke="#63b8ff" points="834.23,-313.39 832.78,-302.9 827.37,-312.01 834.23,-313.39"/>
</a>
</g>
</g>
<!-- Node41&#45;&gt;Node15 -->
<g id="edge74_Node000041_Node000015" class="edge">
<title>Node41&#45;&gt;Node15</title>
<g id="a_edge74_Node000041_Node000015"><a xlink:title=" ">
<path fill="none" stroke="#63b8ff" d="M722.77,-220.59C753.96,-211.76 801.67,-198.24 836.14,-188.48"/>
<polygon fill="#63b8ff" stroke="#63b8ff" points="836.7,-191.96 845.37,-185.86 834.8,-185.22 836.7,-191.96"/>
</a>
</g>
</g>
<!-- Node41&#45;&gt;Node19 -->
<g id="edge73_Node000041_Node000019" class="edge">
<title>Node41&#45;&gt;Node19</title>
<g id="a_edge73_Node000041_Node000019"><a xlink:title=" ">
<path fill="none" stroke="#63b8ff" d="M692.18,-220.75C694.73,-203.5 700.39,-165.08 703.9,-141.31"/>
<polygon fill="#63b8ff" stroke="#63b8ff" points="707.33,-142.03 705.33,-131.62 700.41,-141.01 707.33,-142.03"/>
</a>
</g>
</g>
<!-- Node41&#45;&gt;Node29 -->
<g id="edge75_Node000041_Node000029" class="edge">
<title>Node41&#45;&gt;Node29</title>
<g id="a_edge75_Node000041_Node000029"><a xlink:title=" ">
<path fill="none" stroke="#63b8ff" d="M661.02,-220.59C632.07,-211.83 587.92,-198.48 555.72,-188.73"/>
<polygon fill="#63b8ff" stroke="#63b8ff" points="556.91,-185.44 546.33,-185.89 554.88,-192.14 556.91,-185.44"/>
</a>
</g>
</g>
</g>
</svg>
