<?xml version="1.0" encoding="UTF-8" standalone="no"?>
<!DOCTYPE svg PUBLIC "-//W3C//DTD SVG 1.1//EN"
 "http://www.w3.org/Graphics/SVG/1.1/DTD/svg11.dtd">
<!-- Generated by graphviz version 14.1.1 (20251213.1925)
 -->
<!-- Title: src/backends/reference/workloads/Debug.cpp Pages: 1 -->
<svg width="1423pt" height="326pt"
 viewBox="0.00 0.00 1423.00 326.00" xmlns="http://www.w3.org/2000/svg" xmlns:xlink="http://www.w3.org/1999/xlink">
<g id="graph0" class="graph" transform="scale(1 1) rotate(0) translate(4 322)">
<title>src/backends/reference/workloads/Debug.cpp</title>
<!-- Node1 -->
<g id="Node000001" class="node">
<title>Node1</title>
<g id="a_Node000001"><a xlink:title=" ">
<polygon fill="#999999" stroke="#666666" points="1112.5,-318 994.5,-318 994.5,-287.5 1112.5,-287.5 1112.5,-318"/>
<text xml:space="preserve" text-anchor="start" x="1002.5" y="-304.5" font-family="Helvetica,sans-Serif" font-size="10.00">src/backends/reference</text>
<text xml:space="preserve" text-anchor="middle" x="1053.5" y="-293.25" font-family="Helvetica,sans-Serif" font-size="10.00">/workloads/Debug.cpp</text>
</a>
</g>
</g>
<!-- Node2 -->
<g id="Node000002" class="node">
<title>Node2</title>
<g id="a_Node000002"><a xlink:href="_debug_8hpp.html" target="_top" xlink:title=" ">
<polygon fill="white" stroke="#666666" points="598.12,-245.88 534.88,-245.88 534.88,-226.62 598.12,-226.62 598.12,-245.88"/>
<text xml:space="preserve" text-anchor="middle" x="566.5" y="-232.38" font-family="Helvetica,sans-Serif" font-size="10.00">Debug.hpp</text>
</a>
</g>
</g>
<!-- Node1&#45;&gt;Node2 -->
<g id="edge1_Node000001_Node000002" class="edge">
<title>Node1&#45;&gt;Node2</title>
<g id="a_edge1_Node000001_Node000002"><a xlink:title=" ">
<path fill="none" stroke="#63b8ff" d="M994.27,-293.91C895.03,-280.76 697.44,-254.59 609.94,-243"/>
<polygon fill="#63b8ff" stroke="#63b8ff" points="610.46,-239.54 600.09,-241.7 609.54,-246.48 610.46,-239.54"/>
</a>
</g>
</g>
<!-- Node25 -->
<g id="Node000025" class="node">
<title>Node25</title>
<g id="a_Node000025"><a xlink:title=" ">
<polygon fill="#e0e0e0" stroke="#999999" points="1062.25,-251.5 936.75,-251.5 936.75,-221 1062.25,-221 1062.25,-251.5"/>
<text xml:space="preserve" text-anchor="start" x="944.75" y="-238" font-family="Helvetica,sans-Serif" font-size="10.00">common/include/Profiling</text>
<text xml:space="preserve" text-anchor="middle" x="999.5" y="-226.75" font-family="Helvetica,sans-Serif" font-size="10.00">Guid.hpp</text>
</a>
</g>
</g>
<!-- Node1&#45;&gt;Node25 -->
<g id="edge30_Node000001_Node000025" class="edge">
<title>Node1&#45;&gt;Node25</title>
<g id="a_edge30_Node000001_Node000025"><a xlink:title=" ">
<path fill="none" stroke="#63b8ff" d="M1041.25,-287.11C1034.69,-279.28 1026.45,-269.44 1019.04,-260.58"/>
<polygon fill="#63b8ff" stroke="#63b8ff" points="1021.78,-258.41 1012.68,-252.99 1016.41,-262.9 1021.78,-258.41"/>
</a>
</g>
</g>
<!-- Node26 -->
<g id="Node000026" class="node">
<title>Node26</title>
<g id="a_Node000026"><a xlink:href="_filesystem_8hpp.html" target="_top" xlink:title=" ">
<polygon fill="white" stroke="#666666" points="460,-245.88 327,-245.88 327,-226.62 460,-226.62 460,-245.88"/>
<text xml:space="preserve" text-anchor="middle" x="393.5" y="-232.38" font-family="Helvetica,sans-Serif" font-size="10.00">armnnUtils/Filesystem.hpp</text>
</a>
</g>
</g>
<!-- Node1&#45;&gt;Node26 -->
<g id="edge31_Node000001_Node000026" class="edge">
<title>Node1&#45;&gt;Node26</title>
<g id="a_edge31_Node000001_Node000026"><a xlink:title=" ">
<path fill="none" stroke="#63b8ff" d="M994.09,-296.34C896.33,-287.39 695.44,-268.76 525.5,-251.5 508.1,-249.73 489.42,-247.76 471.74,-245.86"/>
<polygon fill="#63b8ff" stroke="#63b8ff" points="472.12,-242.38 461.8,-244.79 471.37,-249.34 472.12,-242.38"/>
</a>
</g>
</g>
<!-- Node28 -->
<g id="Node000028" class="node">
<title>Node28</title>
<g id="a_Node000028"><a xlink:href="_b_float16_8hpp.html" target="_top" xlink:title=" ">
<polygon fill="white" stroke="#666666" points="875.38,-129.75 801.62,-129.75 801.62,-110.5 875.38,-110.5 875.38,-129.75"/>
<text xml:space="preserve" text-anchor="middle" x="838.5" y="-116.25" font-family="Helvetica,sans-Serif" font-size="10.00">BFloat16.hpp</text>
</a>
</g>
</g>
<!-- Node1&#45;&gt;Node28 -->
<g id="edge34_Node000001_Node000028" class="edge">
<title>Node1&#45;&gt;Node28</title>
<g id="a_edge34_Node000001_Node000028"><a xlink:title=" ">
<path fill="none" stroke="#63b8ff" d="M994.05,-293.83C943.28,-285.81 875.64,-271.68 857.5,-251.5 830.18,-221.11 831.74,-169.65 835.17,-141.32"/>
<polygon fill="#63b8ff" stroke="#63b8ff" points="838.61,-141.99 836.57,-131.59 831.68,-140.99 838.61,-141.99"/>
</a>
</g>
</g>
<!-- Node30 -->
<g id="Node000030" class="node">
<title>Node30</title>
<g id="a_Node000030"><a xlink:href="_half_8hpp.html" target="_top" xlink:title=" ">
<polygon fill="white" stroke="#666666" points="918.88,-245.88 866.12,-245.88 866.12,-226.62 918.88,-226.62 918.88,-245.88"/>
<text xml:space="preserve" text-anchor="middle" x="892.5" y="-232.38" font-family="Helvetica,sans-Serif" font-size="10.00">Half.hpp</text>
</a>
</g>
</g>
<!-- Node1&#45;&gt;Node30 -->
<g id="edge39_Node000001_Node000030" class="edge">
<title>Node1&#45;&gt;Node30</title>
<g id="a_edge39_Node000001_Node000030"><a xlink:title=" ">
<path fill="none" stroke="#63b8ff" d="M1016.53,-287.09C991.41,-277.1 957.43,-263.56 927.5,-251.5 926.72,-251.19 925.94,-250.87 925.15,-250.55"/>
<polygon fill="#63b8ff" stroke="#63b8ff" points="926.69,-247.4 916.11,-246.89 924.06,-253.89 926.69,-247.4"/>
</a>
</g>
</g>
<!-- Node32 -->
<g id="Node000032" class="node">
<title>Node32</title>
<g id="a_Node000032"><a xlink:title=" ">
<polygon fill="#e0e0e0" stroke="#999999" points="1136.38,-245.88 1080.62,-245.88 1080.62,-226.62 1136.38,-226.62 1136.38,-245.88"/>
<text xml:space="preserve" text-anchor="middle" x="1108.5" y="-232.38" font-family="Helvetica,sans-Serif" font-size="10.00">algorithm</text>
</a>
</g>
</g>
<!-- Node1&#45;&gt;Node32 -->
<g id="edge42_Node000001_Node000032" class="edge">
<title>Node1&#45;&gt;Node32</title>
<g id="a_edge42_Node000001_Node000032"><a xlink:title=" ">
<path fill="none" stroke="#63b8ff" d="M1065.98,-287.11C1074.23,-277.44 1085.08,-264.71 1093.76,-254.54"/>
<polygon fill="#63b8ff" stroke="#63b8ff" points="1096.17,-257.1 1099.99,-247.22 1090.84,-252.56 1096.17,-257.1"/>
</a>
</g>
</g>
<!-- Node33 -->
<g id="Node000033" class="node">
<title>Node33</title>
<g id="a_Node000033"><a xlink:title=" ">
<polygon fill="#e0e0e0" stroke="#999999" points="1208.25,-245.88 1154.75,-245.88 1154.75,-226.62 1208.25,-226.62 1208.25,-245.88"/>
<text xml:space="preserve" text-anchor="middle" x="1181.5" y="-232.38" font-family="Helvetica,sans-Serif" font-size="10.00">iostream</text>
</a>
</g>
</g>
<!-- Node1&#45;&gt;Node33 -->
<g id="edge43_Node000001_Node000033" class="edge">
<title>Node1&#45;&gt;Node33</title>
<g id="a_edge43_Node000001_Node000033"><a xlink:title=" ">
<path fill="none" stroke="#63b8ff" d="M1082.55,-287.11C1103.78,-276.42 1132.41,-261.99 1153.41,-251.4"/>
<polygon fill="#63b8ff" stroke="#63b8ff" points="1154.91,-254.57 1162.27,-246.94 1151.76,-248.32 1154.91,-254.57"/>
</a>
</g>
</g>
<!-- Node34 -->
<g id="Node000034" class="node">
<title>Node34</title>
<g id="a_Node000034"><a xlink:title=" ">
<polygon fill="#e0e0e0" stroke="#999999" points="1270.75,-245.88 1226.25,-245.88 1226.25,-226.62 1270.75,-226.62 1270.75,-245.88"/>
<text xml:space="preserve" text-anchor="middle" x="1248.5" y="-232.38" font-family="Helvetica,sans-Serif" font-size="10.00">iosfwd</text>
</a>
</g>
</g>
<!-- Node1&#45;&gt;Node34 -->
<g id="edge44_Node000001_Node000034" class="edge">
<title>Node1&#45;&gt;Node34</title>
<g id="a_edge44_Node000001_Node000034"><a xlink:title=" ">
<path fill="none" stroke="#63b8ff" d="M1108.04,-287.02C1140.24,-277.83 1181.6,-265.18 1217.5,-251.5 1218.14,-251.26 1218.79,-251.01 1219.43,-250.75"/>
<polygon fill="#63b8ff" stroke="#63b8ff" points="1220.77,-253.99 1228.59,-246.84 1218.02,-247.55 1220.77,-253.99"/>
</a>
</g>
</g>
<!-- Node35 -->
<g id="Node000035" class="node">
<title>Node35</title>
<g id="a_Node000035"><a xlink:title=" ">
<polygon fill="#e0e0e0" stroke="#999999" points="1338,-245.88 1289,-245.88 1289,-226.62 1338,-226.62 1338,-245.88"/>
<text xml:space="preserve" text-anchor="middle" x="1313.5" y="-232.38" font-family="Helvetica,sans-Serif" font-size="10.00">fstream</text>
</a>
</g>
</g>
<!-- Node1&#45;&gt;Node35 -->
<g id="edge45_Node000001_Node000035" class="edge">
<title>Node1&#45;&gt;Node35</title>
<g id="a_edge45_Node000001_Node000035"><a xlink:title=" ">
<path fill="none" stroke="#63b8ff" d="M1112.79,-291.56C1158.83,-282.93 1223.96,-269.16 1279.5,-251.5 1280.66,-251.13 1281.83,-250.74 1283.01,-250.33"/>
<polygon fill="#63b8ff" stroke="#63b8ff" points="1284.08,-253.67 1292.17,-246.83 1281.58,-247.13 1284.08,-253.67"/>
</a>
</g>
</g>
<!-- Node36 -->
<g id="Node000036" class="node">
<title>Node36</title>
<g id="a_Node000036"><a xlink:title=" ">
<polygon fill="#e0e0e0" stroke="#999999" points="1415.25,-245.88 1355.75,-245.88 1355.75,-226.62 1415.25,-226.62 1415.25,-245.88"/>
<text xml:space="preserve" text-anchor="middle" x="1385.5" y="-232.38" font-family="Helvetica,sans-Serif" font-size="10.00">sys/stat.h</text>
</a>
</g>
</g>
<!-- Node1&#45;&gt;Node36 -->
<g id="edge46_Node000001_Node000036" class="edge">
<title>Node1&#45;&gt;Node36</title>
<g id="a_edge46_Node000001_Node000036"><a xlink:title=" ">
<path fill="none" stroke="#63b8ff" d="M1112.78,-294.97C1172.67,-287.35 1267.52,-273.12 1347.5,-251.5 1349.24,-251.03 1351.01,-250.51 1352.79,-249.96"/>
<polygon fill="#63b8ff" stroke="#63b8ff" points="1353.86,-253.29 1362.2,-246.75 1351.6,-246.67 1353.86,-253.29"/>
</a>
</g>
</g>
<!-- Node3 -->
<g id="Node000003" class="node">
<title>Node3</title>
<g id="a_Node000003"><a xlink:href="_tensor_8hpp.html" target="_top" xlink:title=" ">
<polygon fill="white" stroke="#666666" points="584.12,-185 490.88,-185 490.88,-165.75 584.12,-165.75 584.12,-185"/>
<text xml:space="preserve" text-anchor="middle" x="537.5" y="-171.5" font-family="Helvetica,sans-Serif" font-size="10.00">armnn/Tensor.hpp</text>
</a>
</g>
</g>
<!-- Node2&#45;&gt;Node3 -->
<g id="edge2_Node000002_Node000003" class="edge">
<title>Node2&#45;&gt;Node3</title>
<g id="a_edge2_Node000002_Node000003"><a xlink:title=" ">
<path fill="none" stroke="#63b8ff" d="M562.1,-226.31C558.09,-218.18 552.05,-205.92 546.96,-195.58"/>
<polygon fill="#63b8ff" stroke="#63b8ff" points="550.17,-194.18 542.61,-186.76 543.89,-197.28 550.17,-194.18"/>
</a>
</g>
</g>
<!-- Node4 -->
<g id="Node000004" class="node">
<title>Node4</title>
<g id="a_Node000004"><a xlink:href="_exceptions_8hpp.html" target="_top" xlink:title=" ">
<polygon fill="white" stroke="#666666" points="621.25,-74.5 537.75,-74.5 537.75,-55.25 621.25,-55.25 621.25,-74.5"/>
<text xml:space="preserve" text-anchor="middle" x="579.5" y="-61" font-family="Helvetica,sans-Serif" font-size="10.00">Exceptions.hpp</text>
</a>
</g>
</g>
<!-- Node3&#45;&gt;Node4 -->
<g id="edge3_Node000003_Node000004" class="edge">
<title>Node3&#45;&gt;Node4</title>
<g id="a_edge3_Node000003_Node000004"><a xlink:title=" ">
<path fill="none" stroke="#63b8ff" d="M531.95,-165.27C524.92,-152.47 514.73,-128.7 523.5,-110.5 529.41,-98.24 540.5,-88.3 551.27,-80.95"/>
<polygon fill="#63b8ff" stroke="#63b8ff" points="553,-83.99 559.63,-75.72 549.29,-78.06 553,-83.99"/>
</a>
</g>
</g>
<!-- Node8 -->
<g id="Node000008" class="node">
<title>Node8</title>
<g id="a_Node000008"><a xlink:href="_optional_8hpp.html" target="_top" xlink:title=" ">
<polygon fill="white" stroke="#666666" points="783.88,-129.75 713.12,-129.75 713.12,-110.5 783.88,-110.5 783.88,-129.75"/>
<text xml:space="preserve" text-anchor="middle" x="748.5" y="-116.25" font-family="Helvetica,sans-Serif" font-size="10.00">Optional.hpp</text>
</a>
</g>
</g>
<!-- Node3&#45;&gt;Node8 -->
<g id="edge7_Node000003_Node000008" class="edge">
<title>Node3&#45;&gt;Node8</title>
<g id="a_edge7_Node000003_Node000008"><a xlink:title=" ">
<path fill="none" stroke="#63b8ff" d="M573.29,-165.34C608.71,-156.4 663.11,-142.67 701.89,-132.89"/>
<polygon fill="#63b8ff" stroke="#63b8ff" points="702.58,-136.32 711.42,-130.48 700.86,-129.54 702.58,-136.32"/>
</a>
</g>
</g>
<!-- Node11 -->
<g id="Node000011" class="node">
<title>Node11</title>
<g id="a_Node000011"><a xlink:href="_types_8hpp.html" target="_top" xlink:title=" ">
<polygon fill="white" stroke="#666666" points="433,-129.75 372,-129.75 372,-110.5 433,-110.5 433,-129.75"/>
<text xml:space="preserve" text-anchor="middle" x="402.5" y="-116.25" font-family="Helvetica,sans-Serif" font-size="10.00">Types.hpp</text>
</a>
</g>
</g>
<!-- Node3&#45;&gt;Node11 -->
<g id="edge11_Node000003_Node000011" class="edge">
<title>Node3&#45;&gt;Node11</title>
<g id="a_edge11_Node000003_Node000011"><a xlink:title=" ">
<path fill="none" stroke="#63b8ff" d="M514.6,-165.34C493.07,-156.85 460.59,-144.04 436.12,-134.39"/>
<polygon fill="#63b8ff" stroke="#63b8ff" points="437.51,-131.17 426.92,-130.76 434.94,-137.68 437.51,-131.17"/>
</a>
</g>
</g>
<!-- Node12 -->
<g id="Node000012" class="node">
<title>Node12</title>
<g id="a_Node000012"><a xlink:title=" ">
<polygon fill="#e0e0e0" stroke="#999999" points="519.38,-74.5 481.62,-74.5 481.62,-55.25 519.38,-55.25 519.38,-74.5"/>
<text xml:space="preserve" text-anchor="middle" x="500.5" y="-61" font-family="Helvetica,sans-Serif" font-size="10.00">array</text>
</a>
</g>
</g>
<!-- Node3&#45;&gt;Node12 -->
<g id="edge26_Node000003_Node000012" class="edge">
<title>Node3&#45;&gt;Node12</title>
<g id="a_edge26_Node000003_Node000012"><a xlink:title=" ">
<path fill="none" stroke="#63b8ff" d="M520.71,-165.32C508.43,-157.66 492.7,-145.42 485.5,-129.75 478.95,-115.5 483.78,-98.1 489.65,-85.07"/>
<polygon fill="#63b8ff" stroke="#63b8ff" points="492.71,-86.77 494.13,-76.27 486.47,-83.59 492.71,-86.77"/>
</a>
</g>
</g>
<!-- Node14 -->
<g id="Node000014" class="node">
<title>Node14</title>
<g id="a_Node000014"><a xlink:title=" ">
<polygon fill="#e0e0e0" stroke="#999999" points="687.62,-74.5 639.38,-74.5 639.38,-55.25 687.62,-55.25 687.62,-74.5"/>
<text xml:space="preserve" text-anchor="middle" x="663.5" y="-61" font-family="Helvetica,sans-Serif" font-size="10.00">stdint.h</text>
</a>
</g>
</g>
<!-- Node3&#45;&gt;Node14 -->
<g id="edge25_Node000003_Node000014" class="edge">
<title>Node3&#45;&gt;Node14</title>
<g id="a_edge25_Node000003_Node000014"><a xlink:title=" ">
<path fill="none" stroke="#63b8ff" d="M537.82,-165.37C538.76,-151.84 542.42,-126.16 556.5,-110.5 566.55,-99.32 601.32,-85.99 628.53,-76.83"/>
<polygon fill="#63b8ff" stroke="#63b8ff" points="629.42,-80.22 637.82,-73.77 627.23,-73.57 629.42,-80.22"/>
</a>
</g>
</g>
<!-- Node21 -->
<g id="Node000021" class="node">
<title>Node21</title>
<g id="a_Node000021"><a xlink:title=" ">
<polygon fill="#e0e0e0" stroke="#999999" points="43,-19.25 0,-19.25 0,0 43,0 43,-19.25"/>
<text xml:space="preserve" text-anchor="middle" x="21.5" y="-5.75" font-family="Helvetica,sans-Serif" font-size="10.00">vector</text>
</a>
</g>
</g>
<!-- Node3&#45;&gt;Node21 -->
<g id="edge28_Node000003_Node000021" class="edge">
<title>Node3&#45;&gt;Node21</title>
<g id="a_edge28_Node000003_Node000021"><a xlink:title=" ">
<path fill="none" stroke="#63b8ff" d="M490.55,-167.07C390.64,-151.02 160.38,-111.18 90.5,-74.5 68.68,-63.05 48.61,-42.9 35.8,-28.28"/>
<polygon fill="#63b8ff" stroke="#63b8ff" points="38.6,-26.17 29.47,-20.78 33.25,-30.68 38.6,-26.17"/>
</a>
</g>
</g>
<!-- Node23 -->
<g id="Node000023" class="node">
<title>Node23</title>
<g id="a_Node000023"><a xlink:title=" ">
<polygon fill="#e0e0e0" stroke="#999999" points="637.62,-129.75 565.38,-129.75 565.38,-110.5 637.62,-110.5 637.62,-129.75"/>
<text xml:space="preserve" text-anchor="middle" x="601.5" y="-116.25" font-family="Helvetica,sans-Serif" font-size="10.00">initializer_list</text>
</a>
</g>
</g>
<!-- Node3&#45;&gt;Node23 -->
<g id="edge27_Node000003_Node000023" class="edge">
<title>Node3&#45;&gt;Node23</title>
<g id="a_edge27_Node000003_Node000023"><a xlink:title=" ">
<path fill="none" stroke="#63b8ff" d="M548.36,-165.34C557.61,-157.65 571.12,-146.4 582.21,-137.18"/>
<polygon fill="#63b8ff" stroke="#63b8ff" points="584.19,-140.08 589.64,-130.99 579.71,-134.7 584.19,-140.08"/>
</a>
</g>
</g>
<!-- Node24 -->
<g id="Node000024" class="node">
<title>Node24</title>
<g id="a_Node000024"><a xlink:title=" ">
<polygon fill="#e0e0e0" stroke="#999999" points="695.12,-129.75 655.88,-129.75 655.88,-110.5 695.12,-110.5 695.12,-129.75"/>
<text xml:space="preserve" text-anchor="middle" x="675.5" y="-116.25" font-family="Helvetica,sans-Serif" font-size="10.00">utility</text>
</a>
</g>
</g>
<!-- Node3&#45;&gt;Node24 -->
<g id="edge29_Node000003_Node000024" class="edge">
<title>Node3&#45;&gt;Node24</title>
<g id="a_edge29_Node000003_Node000024"><a xlink:title=" ">
<path fill="none" stroke="#63b8ff" d="M560.91,-165.34C584.09,-156.4 619.69,-142.66 645.05,-132.87"/>
<polygon fill="#63b8ff" stroke="#63b8ff" points="646.08,-136.23 654.15,-129.36 643.56,-129.7 646.08,-136.23"/>
</a>
</g>
</g>
<!-- Node5 -->
<g id="Node000005" class="node">
<title>Node5</title>
<g id="a_Node000005"><a xlink:title=" ">
<polygon fill="#e0e0e0" stroke="#999999" points="568.12,-19.25 516.88,-19.25 516.88,0 568.12,0 568.12,-19.25"/>
<text xml:space="preserve" text-anchor="middle" x="542.5" y="-5.75" font-family="Helvetica,sans-Serif" font-size="10.00">sstream</text>
</a>
</g>
</g>
<!-- Node4&#45;&gt;Node5 -->
<g id="edge4_Node000004_Node000005" class="edge">
<title>Node4&#45;&gt;Node5</title>
<g id="a_edge4_Node000004_Node000005"><a xlink:title=" ">
<path fill="none" stroke="#63b8ff" d="M573.39,-55.08C568.44,-47.96 561.3,-37.68 555.13,-28.8"/>
<polygon fill="#63b8ff" stroke="#63b8ff" points="558.19,-27.07 549.61,-20.85 552.44,-31.06 558.19,-27.07"/>
</a>
</g>
</g>
<!-- Node6 -->
<g id="Node000006" class="node">
<title>Node6</title>
<g id="a_Node000006"><a xlink:title=" ">
<polygon fill="#e0e0e0" stroke="#999999" points="644.88,-19.25 586.12,-19.25 586.12,0 644.88,0 644.88,-19.25"/>
<text xml:space="preserve" text-anchor="middle" x="615.5" y="-5.75" font-family="Helvetica,sans-Serif" font-size="10.00">stdexcept</text>
</a>
</g>
</g>
<!-- Node4&#45;&gt;Node6 -->
<g id="edge5_Node000004_Node000006" class="edge">
<title>Node4&#45;&gt;Node6</title>
<g id="a_edge5_Node000004_Node000006"><a xlink:title=" ">
<path fill="none" stroke="#63b8ff" d="M585.44,-55.08C590.21,-48.03 597.06,-37.9 603.02,-29.08"/>
<polygon fill="#63b8ff" stroke="#63b8ff" points="605.88,-31.11 608.58,-20.86 600.08,-27.19 605.88,-31.11"/>
</a>
</g>
</g>
<!-- Node7 -->
<g id="Node000007" class="node">
<title>Node7</title>
<g id="a_Node000007"><a xlink:title=" ">
<polygon fill="#e0e0e0" stroke="#999999" points="312.5,-19.25 272.5,-19.25 272.5,0 312.5,0 312.5,-19.25"/>
<text xml:space="preserve" text-anchor="middle" x="292.5" y="-5.75" font-family="Helvetica,sans-Serif" font-size="10.00">string</text>
</a>
</g>
</g>
<!-- Node4&#45;&gt;Node7 -->
<g id="edge6_Node000004_Node000007" class="edge">
<title>Node4&#45;&gt;Node7</title>
<g id="a_edge6_Node000004_Node000007"><a xlink:title=" ">
<path fill="none" stroke="#63b8ff" d="M537.46,-56.07C479.39,-45.3 375.95,-26.11 324.04,-16.48"/>
<polygon fill="#63b8ff" stroke="#63b8ff" points="324.85,-13.07 314.38,-14.69 323.58,-19.95 324.85,-13.07"/>
</a>
</g>
</g>
<!-- Node8&#45;&gt;Node4 -->
<g id="edge8_Node000008_Node000004" class="edge">
<title>Node8&#45;&gt;Node4</title>
<g id="a_edge8_Node000008_Node000004"><a xlink:title=" ">
<path fill="none" stroke="#63b8ff" d="M719.83,-110.09C692.15,-101.37 650.01,-88.09 619.13,-78.36"/>
<polygon fill="#63b8ff" stroke="#63b8ff" points="620.34,-75.07 609.75,-75.41 618.24,-81.75 620.34,-75.07"/>
</a>
</g>
</g>
<!-- Node9 -->
<g id="Node000009" class="node">
<title>Node9</title>
<g id="a_Node000009"><a xlink:title=" ">
<polygon fill="#e0e0e0" stroke="#999999" points="751.12,-74.5 705.88,-74.5 705.88,-55.25 751.12,-55.25 751.12,-74.5"/>
<text xml:space="preserve" text-anchor="middle" x="728.5" y="-61" font-family="Helvetica,sans-Serif" font-size="10.00">cstring</text>
</a>
</g>
</g>
<!-- Node8&#45;&gt;Node9 -->
<g id="edge9_Node000008_Node000009" class="edge">
<title>Node8&#45;&gt;Node9</title>
<g id="a_edge9_Node000008_Node000009"><a xlink:title=" ">
<path fill="none" stroke="#63b8ff" d="M745.2,-110.33C742.67,-103.59 739.07,-94.02 735.87,-85.49"/>
<polygon fill="#63b8ff" stroke="#63b8ff" points="739.2,-84.41 732.41,-76.28 732.65,-86.87 739.2,-84.41"/>
</a>
</g>
</g>
<!-- Node10 -->
<g id="Node000010" class="node">
<title>Node10</title>
<g id="a_Node000010"><a xlink:title=" ">
<polygon fill="#e0e0e0" stroke="#999999" points="831.38,-74.5 769.62,-74.5 769.62,-55.25 831.38,-55.25 831.38,-74.5"/>
<text xml:space="preserve" text-anchor="middle" x="800.5" y="-61" font-family="Helvetica,sans-Serif" font-size="10.00">type_traits</text>
</a>
</g>
</g>
<!-- Node8&#45;&gt;Node10 -->
<g id="edge10_Node000008_Node000010" class="edge">
<title>Node8&#45;&gt;Node10</title>
<g id="a_edge10_Node000008_Node000010"><a xlink:title=" ">
<path fill="none" stroke="#63b8ff" d="M757.09,-110.33C764.34,-102.9 774.95,-92.04 783.87,-82.91"/>
<polygon fill="#63b8ff" stroke="#63b8ff" points="786.19,-85.54 790.67,-75.94 781.18,-80.65 786.19,-85.54"/>
</a>
</g>
</g>
<!-- Node11&#45;&gt;Node4 -->
<g id="edge23_Node000011_Node000004" class="edge">
<title>Node11&#45;&gt;Node4</title>
<g id="a_edge23_Node000011_Node000004"><a xlink:title=" ">
<path fill="none" stroke="#63b8ff" d="M432.53,-110.09C461.64,-101.33 506.04,-87.98 538.42,-78.23"/>
<polygon fill="#63b8ff" stroke="#63b8ff" points="539.31,-81.62 547.88,-75.39 537.29,-74.92 539.31,-81.62"/>
</a>
</g>
</g>
<!-- Node11&#45;&gt;Node12 -->
<g id="edge12_Node000011_Node000012" class="edge">
<title>Node11&#45;&gt;Node12</title>
<g id="a_edge12_Node000011_Node000012"><a xlink:title=" ">
<path fill="none" stroke="#63b8ff" d="M419.12,-110.09C434.19,-101.91 456.64,-89.71 474.15,-80.19"/>
<polygon fill="#63b8ff" stroke="#63b8ff" points="475.35,-83.52 482.46,-75.68 472.01,-77.37 475.35,-83.52"/>
</a>
</g>
</g>
<!-- Node13 -->
<g id="Node000013" class="node">
<title>Node13</title>
<g id="a_Node000013"><a xlink:title=" ">
<polygon fill="#e0e0e0" stroke="#999999" points="399.5,-74.5 341.5,-74.5 341.5,-55.25 399.5,-55.25 399.5,-74.5"/>
<text xml:space="preserve" text-anchor="middle" x="370.5" y="-61" font-family="Helvetica,sans-Serif" font-size="10.00">functional</text>
</a>
</g>
</g>
<!-- Node11&#45;&gt;Node13 -->
<g id="edge13_Node000011_Node000013" class="edge">
<title>Node11&#45;&gt;Node13</title>
<g id="a_edge13_Node000011_Node000013"><a xlink:title=" ">
<path fill="none" stroke="#63b8ff" d="M397.22,-110.33C393.03,-103.36 387.02,-93.37 381.77,-84.62"/>
<polygon fill="#63b8ff" stroke="#63b8ff" points="384.83,-82.93 376.68,-76.16 378.83,-86.53 384.83,-82.93"/>
</a>
</g>
</g>
<!-- Node11&#45;&gt;Node14 -->
<g id="edge14_Node000011_Node000014" class="edge">
<title>Node11&#45;&gt;Node14</title>
<g id="a_edge14_Node000011_Node000014"><a xlink:title=" ">
<path fill="none" stroke="#63b8ff" d="M433.24,-113.74C475.09,-106.27 552.6,-91.95 627.94,-74.97"/>
<polygon fill="#63b8ff" stroke="#63b8ff" points="628.58,-78.42 637.56,-72.79 627.03,-71.59 628.58,-78.42"/>
</a>
</g>
</g>
<!-- Node15 -->
<g id="Node000015" class="node">
<title>Node15</title>
<g id="a_Node000015"><a xlink:title=" ">
<polygon fill="#e0e0e0" stroke="#999999" points="463.12,-74.5 417.88,-74.5 417.88,-55.25 463.12,-55.25 463.12,-74.5"/>
<text xml:space="preserve" text-anchor="middle" x="440.5" y="-61" font-family="Helvetica,sans-Serif" font-size="10.00">chrono</text>
</a>
</g>
</g>
<!-- Node11&#45;&gt;Node15 -->
<g id="edge15_Node000011_Node000015" class="edge">
<title>Node11&#45;&gt;Node15</title>
<g id="a_edge15_Node000011_Node000015"><a xlink:title=" ">
<path fill="none" stroke="#63b8ff" d="M408.77,-110.33C413.86,-103.21 421.2,-92.93 427.53,-84.05"/>
<polygon fill="#63b8ff" stroke="#63b8ff" points="430.25,-86.26 433.21,-76.09 424.55,-82.2 430.25,-86.26"/>
</a>
</g>
</g>
<!-- Node16 -->
<g id="Node000016" class="node">
<title>Node16</title>
<g id="a_Node000016"><a xlink:href="_backend_id_8hpp.html" target="_top" xlink:title=" ">
<polygon fill="white" stroke="#666666" points="181.12,-74.5 99.88,-74.5 99.88,-55.25 181.12,-55.25 181.12,-74.5"/>
<text xml:space="preserve" text-anchor="middle" x="140.5" y="-61" font-family="Helvetica,sans-Serif" font-size="10.00">BackendId.hpp</text>
</a>
</g>
</g>
<!-- Node11&#45;&gt;Node16 -->
<g id="edge16_Node000011_Node000016" class="edge">
<title>Node11&#45;&gt;Node16</title>
<g id="a_edge16_Node000011_Node000016"><a xlink:title=" ">
<path fill="none" stroke="#63b8ff" d="M371.67,-112.86C327.6,-103.9 246,-87.32 192.49,-76.44"/>
<polygon fill="#63b8ff" stroke="#63b8ff" points="193.5,-73.08 183,-74.51 192.1,-79.93 193.5,-73.08"/>
</a>
</g>
</g>
<!-- Node22 -->
<g id="Node000022" class="node">
<title>Node22</title>
<g id="a_Node000022"><a xlink:href="_deprecated_8hpp.html" target="_top" xlink:title=" ">
<polygon fill="white" stroke="#666666" points="323,-74.5 238,-74.5 238,-55.25 323,-55.25 323,-74.5"/>
<text xml:space="preserve" text-anchor="middle" x="280.5" y="-61" font-family="Helvetica,sans-Serif" font-size="10.00">Deprecated.hpp</text>
</a>
</g>
</g>
<!-- Node11&#45;&gt;Node22 -->
<g id="edge24_Node000011_Node000022" class="edge">
<title>Node11&#45;&gt;Node22</title>
<g id="a_edge24_Node000011_Node000022"><a xlink:title=" ">
<path fill="none" stroke="#63b8ff" d="M381.8,-110.09C362.61,-101.72 333.79,-89.13 311.78,-79.53"/>
<polygon fill="#63b8ff" stroke="#63b8ff" points="313.25,-76.35 302.68,-75.56 310.45,-82.77 313.25,-76.35"/>
</a>
</g>
</g>
<!-- Node16&#45;&gt;Node7 -->
<g id="edge20_Node000016_Node000007" class="edge">
<title>Node16&#45;&gt;Node7</title>
<g id="a_edge20_Node000016_Node000007"><a xlink:title=" ">
<path fill="none" stroke="#63b8ff" d="M166.28,-54.84C192.64,-45.61 233.57,-31.27 261.63,-21.44"/>
<polygon fill="#63b8ff" stroke="#63b8ff" points="262.72,-24.77 271,-18.16 260.4,-18.16 262.72,-24.77"/>
</a>
</g>
</g>
<!-- Node17 -->
<g id="Node000017" class="node">
<title>Node17</title>
<g id="a_Node000017"><a xlink:title=" ">
<polygon fill="#e0e0e0" stroke="#999999" points="207.12,-19.25 155.88,-19.25 155.88,0 207.12,0 207.12,-19.25"/>
<text xml:space="preserve" text-anchor="middle" x="181.5" y="-5.75" font-family="Helvetica,sans-Serif" font-size="10.00">memory</text>
</a>
</g>
</g>
<!-- Node16&#45;&gt;Node17 -->
<g id="edge17_Node000016_Node000017" class="edge">
<title>Node16&#45;&gt;Node17</title>
<g id="a_edge17_Node000016_Node000017"><a xlink:title=" ">
<path fill="none" stroke="#63b8ff" d="M147.27,-55.08C152.82,-47.88 160.84,-37.46 167.73,-28.51"/>
<polygon fill="#63b8ff" stroke="#63b8ff" points="170.33,-30.87 173.66,-20.81 164.79,-26.6 170.33,-30.87"/>
</a>
</g>
</g>
<!-- Node18 -->
<g id="Node000018" class="node">
<title>Node18</title>
<g id="a_Node000018"><a xlink:title=" ">
<polygon fill="#e0e0e0" stroke="#999999" points="479.12,-19.25 427.88,-19.25 427.88,0 479.12,0 479.12,-19.25"/>
<text xml:space="preserve" text-anchor="middle" x="453.5" y="-5.75" font-family="Helvetica,sans-Serif" font-size="10.00">ostream</text>
</a>
</g>
</g>
<!-- Node16&#45;&gt;Node18 -->
<g id="edge18_Node000016_Node000018" class="edge">
<title>Node16&#45;&gt;Node18</title>
<g id="a_edge18_Node000016_Node000018"><a xlink:title=" ">
<path fill="none" stroke="#63b8ff" d="M181.42,-56.91C242.78,-46.47 357.71,-26.92 416.62,-16.9"/>
<polygon fill="#63b8ff" stroke="#63b8ff" points="416.86,-20.41 426.13,-15.28 415.69,-13.51 416.86,-20.41"/>
</a>
</g>
</g>
<!-- Node19 -->
<g id="Node000019" class="node">
<title>Node19</title>
<g id="a_Node000019"><a xlink:title=" ">
<polygon fill="#e0e0e0" stroke="#999999" points="254.25,-19.25 224.75,-19.25 224.75,0 254.25,0 254.25,-19.25"/>
<text xml:space="preserve" text-anchor="middle" x="239.5" y="-5.75" font-family="Helvetica,sans-Serif" font-size="10.00">set</text>
</a>
</g>
</g>
<!-- Node16&#45;&gt;Node19 -->
<g id="edge19_Node000016_Node000019" class="edge">
<title>Node16&#45;&gt;Node19</title>
<g id="a_edge19_Node000016_Node000019"><a xlink:title=" ">
<path fill="none" stroke="#63b8ff" d="M157.29,-54.84C172.9,-46.45 196.36,-33.83 214.22,-24.22"/>
<polygon fill="#63b8ff" stroke="#63b8ff" points="215.77,-27.36 222.92,-19.54 212.45,-21.2 215.77,-27.36"/>
</a>
</g>
</g>
<!-- Node20 -->
<g id="Node000020" class="node">
<title>Node20</title>
<g id="a_Node000020"><a xlink:title=" ">
<polygon fill="#e0e0e0" stroke="#999999" points="138.25,-19.25 60.75,-19.25 60.75,0 138.25,0 138.25,-19.25"/>
<text xml:space="preserve" text-anchor="middle" x="99.5" y="-5.75" font-family="Helvetica,sans-Serif" font-size="10.00">unordered_set</text>
</a>
</g>
</g>
<!-- Node16&#45;&gt;Node20 -->
<g id="edge21_Node000016_Node000020" class="edge">
<title>Node16&#45;&gt;Node20</title>
<g id="a_edge21_Node000016_Node000020"><a xlink:title=" ">
<path fill="none" stroke="#63b8ff" d="M133.73,-55.08C128.18,-47.88 120.16,-37.46 113.27,-28.51"/>
<polygon fill="#63b8ff" stroke="#63b8ff" points="116.21,-26.6 107.34,-20.81 110.67,-30.87 116.21,-26.6"/>
</a>
</g>
</g>
<!-- Node16&#45;&gt;Node21 -->
<g id="edge22_Node000016_Node000021" class="edge">
<title>Node16&#45;&gt;Node21</title>
<g id="a_edge22_Node000016_Node000021"><a xlink:title=" ">
<path fill="none" stroke="#63b8ff" d="M120.31,-54.84C101.59,-46.47 73.48,-33.88 52.02,-24.28"/>
<polygon fill="#63b8ff" stroke="#63b8ff" points="53.72,-21.21 43.17,-20.32 50.87,-27.6 53.72,-21.21"/>
</a>
</g>
</g>
<!-- Node26&#45;&gt;Node7 -->
<g id="edge33_Node000026_Node000007" class="edge">
<title>Node26&#45;&gt;Node7</title>
<g id="a_edge33_Node000026_Node000007"><a xlink:title=" ">
<path fill="none" stroke="#63b8ff" d="M377.58,-226.18C342.34,-205.05 258.51,-148.64 228.5,-74.5 225.29,-66.57 224.54,-62.83 228.5,-55.25 235.72,-41.42 249.4,-31 262.27,-23.72"/>
<polygon fill="#63b8ff" stroke="#63b8ff" points="263.65,-26.94 270.93,-19.25 260.44,-20.72 263.65,-26.94"/>
</a>
</g>
</g>
<!-- Node27 -->
<g id="Node000027" class="node">
<title>Node27</title>
<g id="a_Node000027"><a xlink:title=" ">
<polygon fill="#e0e0e0" stroke="#999999" points="442.75,-185 344.25,-185 344.25,-165.75 442.75,-165.75 442.75,-185"/>
<text xml:space="preserve" text-anchor="middle" x="393.5" y="-171.5" font-family="Helvetica,sans-Serif" font-size="10.00">ghc/filesystem.hpp</text>
</a>
</g>
</g>
<!-- Node26&#45;&gt;Node27 -->
<g id="edge32_Node000026_Node000027" class="edge">
<title>Node26&#45;&gt;Node27</title>
<g id="a_edge32_Node000026_Node000027"><a xlink:title=" ">
<path fill="none" stroke="#63b8ff" d="M393.5,-226.31C393.5,-218.53 393.5,-206.95 393.5,-196.91"/>
<polygon fill="#63b8ff" stroke="#63b8ff" points="397,-196.91 393.5,-186.91 390,-196.91 397,-196.91"/>
</a>
</g>
</g>
<!-- Node28&#45;&gt;Node9 -->
<g id="edge37_Node000028_Node000009" class="edge">
<title>Node28&#45;&gt;Node9</title>
<g id="a_edge37_Node000028_Node000009"><a xlink:title=" ">
<path fill="none" stroke="#63b8ff" d="M819.84,-110.09C802.77,-101.83 777.26,-89.48 757.53,-79.93"/>
<polygon fill="#63b8ff" stroke="#63b8ff" points="759.14,-76.82 748.61,-75.61 756.09,-83.12 759.14,-76.82"/>
</a>
</g>
</g>
<!-- Node28&#45;&gt;Node14 -->
<g id="edge38_Node000028_Node000014" class="edge">
<title>Node28&#45;&gt;Node14</title>
<g id="a_edge38_Node000028_Node000014"><a xlink:title=" ">
<path fill="none" stroke="#63b8ff" d="M808.81,-110.09C778.37,-100.83 731.03,-86.42 698.71,-76.59"/>
<polygon fill="#63b8ff" stroke="#63b8ff" points="699.99,-73.32 689.41,-73.76 697.95,-80.02 699.99,-73.32"/>
</a>
</g>
</g>
<!-- Node28&#45;&gt;Node18 -->
<g id="edge35_Node000028_Node000018" class="edge">
<title>Node28&#45;&gt;Node18</title>
<g id="a_edge35_Node000028_Node000018"><a xlink:title=" ">
<path fill="none" stroke="#63b8ff" d="M842.12,-110.41C847.14,-96.79 854.14,-70.44 840.5,-55.25 790.78,0.14 581.27,-29.12 507.5,-19.25 502.08,-18.52 496.37,-17.69 490.76,-16.83"/>
<polygon fill="#63b8ff" stroke="#63b8ff" points="491.47,-13.4 481.05,-15.3 490.38,-20.31 491.47,-13.4"/>
</a>
</g>
</g>
<!-- Node29 -->
<g id="Node000029" class="node">
<title>Node29</title>
<g id="a_Node000029"><a xlink:title=" ">
<polygon fill="#e0e0e0" stroke="#999999" points="931,-74.5 888,-74.5 888,-55.25 931,-55.25 931,-74.5"/>
<text xml:space="preserve" text-anchor="middle" x="909.5" y="-61" font-family="Helvetica,sans-Serif" font-size="10.00">cmath</text>
</a>
</g>
</g>
<!-- Node28&#45;&gt;Node29 -->
<g id="edge36_Node000028_Node000029" class="edge">
<title>Node28&#45;&gt;Node29</title>
<g id="a_edge36_Node000028_Node000029"><a xlink:title=" ">
<path fill="none" stroke="#63b8ff" d="M850.54,-110.09C860.91,-102.32 876.1,-90.92 888.47,-81.65"/>
<polygon fill="#63b8ff" stroke="#63b8ff" points="890.52,-84.48 896.42,-75.68 886.32,-78.88 890.52,-84.48"/>
</a>
</g>
</g>
<!-- Node30&#45;&gt;Node10 -->
<g id="edge40_Node000030_Node000010" class="edge">
<title>Node30&#45;&gt;Node10</title>
<g id="a_edge40_Node000030_Node000010"><a xlink:title=" ">
<path fill="none" stroke="#63b8ff" d="M894.69,-226.18C899.42,-204.27 908.39,-147.51 884.5,-110.5 874.73,-95.36 858.03,-85.02 842.08,-78.14"/>
<polygon fill="#63b8ff" stroke="#63b8ff" points="843.79,-75.05 833.2,-74.65 841.23,-81.57 843.79,-75.05"/>
</a>
</g>
</g>
<!-- Node31 -->
<g id="Node000031" class="node">
<title>Node31</title>
<g id="a_Node000031"><a xlink:title=" ">
<polygon fill="#e0e0e0" stroke="#999999" points="1001.12,-185 931.88,-185 931.88,-165.75 1001.12,-165.75 1001.12,-185"/>
<text xml:space="preserve" text-anchor="middle" x="966.5" y="-171.5" font-family="Helvetica,sans-Serif" font-size="10.00">half/half.hpp</text>
</a>
</g>
</g>
<!-- Node30&#45;&gt;Node31 -->
<g id="edge41_Node000030_Node000031" class="edge">
<title>Node30&#45;&gt;Node31</title>
<g id="a_edge41_Node000030_Node000031"><a xlink:title=" ">
<path fill="none" stroke="#63b8ff" d="M903.74,-226.31C915.04,-217.32 932.71,-203.26 946.42,-192.35"/>
<polygon fill="#63b8ff" stroke="#63b8ff" points="948.32,-195.31 953.97,-186.34 943.97,-189.83 948.32,-195.31"/>
</a>
</g>
</g>
</g>
</svg>
