<?xml version="1.0" encoding="UTF-8" standalone="no"?>
<!DOCTYPE svg PUBLIC "-//W3C//DTD SVG 1.1//EN"
 "http://www.w3.org/Graphics/SVG/1.1/DTD/svg11.dtd">
<!-- Generated by graphviz version 14.1.1 (20251213.1925)
 -->
<!-- Title: include/armnnDeserializer/IDeserializer.hpp Pages: 1 -->
<svg width="137pt" height="172pt"
 viewBox="0.00 0.00 137.00 172.00" xmlns="http://www.w3.org/2000/svg" xmlns:xlink="http://www.w3.org/1999/xlink">
<g id="graph0" class="graph" transform="scale(1 1) rotate(0) translate(4 167.5)">
<title>include/armnnDeserializer/IDeserializer.hpp</title>
<!-- Node1 -->
<g id="Node000001" class="node">
<title>Node1</title>
<g id="a_Node000001"><a xlink:title=" ">
<polygon fill="#999999" stroke="#666666" points="128.5,-163.5 0,-163.5 0,-133 128.5,-133 128.5,-163.5"/>
<text xml:space="preserve" text-anchor="start" x="8" y="-150" font-family="Helvetica,sans-Serif" font-size="10.00">include/armnnDeserializer</text>
<text xml:space="preserve" text-anchor="middle" x="64.25" y="-138.75" font-family="Helvetica,sans-Serif" font-size="10.00">/IDeserializer.hpp</text>
</a>
</g>
</g>
<!-- Node2 -->
<g id="Node000002" class="node">
<title>Node2</title>
<g id="a_Node000002"><a xlink:href="_deserializer_8hpp.html" target="_top" xlink:title=" ">
<polygon fill="white" stroke="#666666" points="119.88,-97 8.62,-97 8.62,-66.5 119.88,-66.5 119.88,-97"/>
<text xml:space="preserve" text-anchor="start" x="16.62" y="-83.5" font-family="Helvetica,sans-Serif" font-size="10.00">src/armnnDeserializer</text>
<text xml:space="preserve" text-anchor="middle" x="64.25" y="-72.25" font-family="Helvetica,sans-Serif" font-size="10.00">/Deserializer.hpp</text>
</a>
</g>
</g>
<!-- Node1&#45;&gt;Node2 -->
<g id="edge1_Node000001_Node000002" class="edge">
<title>Node1&#45;&gt;Node2</title>
<g id="a_edge1_Node000001_Node000002"><a xlink:title=" ">
<path fill="none" stroke="#63b8ff" d="M64.25,-121.31C64.25,-113.14 64.25,-104.41 64.25,-97.33"/>
<polygon fill="#63b8ff" stroke="#63b8ff" points="60.75,-121.1 64.25,-131.1 67.75,-121.1 60.75,-121.1"/>
</a>
</g>
</g>
<!-- Node3 -->
<g id="Node000003" class="node">
<title>Node3</title>
<g id="a_Node000003"><a xlink:href="_deserializer_8cpp.html" target="_top" xlink:title=" ">
<polygon fill="white" stroke="#666666" points="119.88,-30.5 8.62,-30.5 8.62,0 119.88,0 119.88,-30.5"/>
<text xml:space="preserve" text-anchor="start" x="16.62" y="-17" font-family="Helvetica,sans-Serif" font-size="10.00">src/armnnDeserializer</text>
<text xml:space="preserve" text-anchor="middle" x="64.25" y="-5.75" font-family="Helvetica,sans-Serif" font-size="10.00">/Deserializer.cpp</text>
</a>
</g>
</g>
<!-- Node2&#45;&gt;Node3 -->
<g id="edge2_Node000002_Node000003" class="edge">
<title>Node2&#45;&gt;Node3</title>
<g id="a_edge2_Node000002_Node000003"><a xlink:title=" ">
<path fill="none" stroke="#63b8ff" d="M64.25,-54.81C64.25,-46.64 64.25,-37.91 64.25,-30.83"/>
<polygon fill="#63b8ff" stroke="#63b8ff" points="60.75,-54.6 64.25,-64.6 67.75,-54.6 60.75,-54.6"/>
</a>
</g>
</g>
</g>
</svg>
