<?xml version="1.0" encoding="UTF-8" standalone="no"?>
<!DOCTYPE svg PUBLIC "-//W3C//DTD SVG 1.1//EN"
 "http://www.w3.org/Graphics/SVG/1.1/DTD/svg11.dtd">
<!-- Generated by graphviz version 14.1.1 (20251213.1925)
 -->
<!-- Title: src/timelineDecoder/JSONTimelineDecoder.cpp Pages: 1 -->
<svg width="614pt" height="216pt"
 viewBox="0.00 0.00 614.00 216.00" xmlns="http://www.w3.org/2000/svg" xmlns:xlink="http://www.w3.org/1999/xlink">
<g id="graph0" class="graph" transform="scale(1 1) rotate(0) translate(4 211.5)">
<title>src/timelineDecoder/JSONTimelineDecoder.cpp</title>
<!-- Node1 -->
<g id="Node000001" class="node">
<title>Node1</title>
<g id="a_Node000001"><a xlink:title=" ">
<polygon fill="#999999" stroke="#666666" points="512.88,-207.5 375.38,-207.5 375.38,-177 512.88,-177 512.88,-207.5"/>
<text xml:space="preserve" text-anchor="start" x="383.38" y="-194" font-family="Helvetica,sans-Serif" font-size="10.00">src/timelineDecoder</text>
<text xml:space="preserve" text-anchor="middle" x="444.12" y="-182.75" font-family="Helvetica,sans-Serif" font-size="10.00">/JSONTimelineDecoder.cpp</text>
</a>
</g>
</g>
<!-- Node2 -->
<g id="Node000002" class="node">
<title>Node2</title>
<g id="a_Node000002"><a xlink:href="_j_s_o_n_timeline_decoder_8hpp.html" target="_top" xlink:title=" ">
<polygon fill="white" stroke="#666666" points="404.38,-141 269.88,-141 269.88,-121.75 404.38,-121.75 404.38,-141"/>
<text xml:space="preserve" text-anchor="middle" x="337.12" y="-127.5" font-family="Helvetica,sans-Serif" font-size="10.00">JSONTimelineDecoder.hpp</text>
</a>
</g>
</g>
<!-- Node1&#45;&gt;Node2 -->
<g id="edge1_Node000001_Node000002" class="edge">
<title>Node1&#45;&gt;Node2</title>
<g id="a_edge1_Node000001_Node000002"><a xlink:title=" ">
<path fill="none" stroke="#63b8ff" d="M417.4,-176.55C400.95,-167.49 379.95,-155.94 363.55,-146.91"/>
<polygon fill="#63b8ff" stroke="#63b8ff" points="365.31,-143.89 354.86,-142.13 361.93,-150.02 365.31,-143.89"/>
</a>
</g>
</g>
<!-- Node6 -->
<g id="Node000006" class="node">
<title>Node6</title>
<g id="a_Node000006"><a xlink:title=" ">
<polygon fill="#e0e0e0" stroke="#999999" points="403.12,-19.25 363.12,-19.25 363.12,0 403.12,0 403.12,-19.25"/>
<text xml:space="preserve" text-anchor="middle" x="383.12" y="-5.75" font-family="Helvetica,sans-Serif" font-size="10.00">string</text>
</a>
</g>
</g>
<!-- Node1&#45;&gt;Node6 -->
<g id="edge9_Node000001_Node000006" class="edge">
<title>Node1&#45;&gt;Node6</title>
<g id="a_edge9_Node000001_Node000006"><a xlink:title=" ">
<path fill="none" stroke="#63b8ff" d="M444.9,-176.53C445.68,-150.65 444.6,-95.88 425.12,-55.25 419.99,-44.54 411.35,-34.69 403.24,-26.98"/>
<polygon fill="#63b8ff" stroke="#63b8ff" points="405.76,-24.54 395.96,-20.52 401.12,-29.78 405.76,-24.54"/>
</a>
</g>
</g>
<!-- Node9 -->
<g id="Node000009" class="node">
<title>Node9</title>
<g id="a_Node000009"><a xlink:title=" ">
<polygon fill="#e0e0e0" stroke="#999999" points="605.62,-141 472.62,-141 472.62,-121.75 605.62,-121.75 605.62,-141"/>
<text xml:space="preserve" text-anchor="middle" x="539.12" y="-127.5" font-family="Helvetica,sans-Serif" font-size="10.00">client/src/ProfilingUtils.hpp</text>
</a>
</g>
</g>
<!-- Node1&#45;&gt;Node9 -->
<g id="edge8_Node000001_Node000009" class="edge">
<title>Node1&#45;&gt;Node9</title>
<g id="a_edge8_Node000001_Node000009"><a xlink:title=" ">
<path fill="none" stroke="#63b8ff" d="M467.61,-176.7C481.93,-167.82 500.21,-156.49 514.71,-147.51"/>
<polygon fill="#63b8ff" stroke="#63b8ff" points="516.54,-150.49 523.19,-142.25 512.85,-144.54 516.54,-150.49"/>
</a>
</g>
</g>
<!-- Node3 -->
<g id="Node000003" class="node">
<title>Node3</title>
<g id="a_Node000003"><a xlink:title=" ">
<polygon fill="#e0e0e0" stroke="#999999" points="150.25,-85.75 0,-85.75 0,-55.25 150.25,-55.25 150.25,-85.75"/>
<text xml:space="preserve" text-anchor="start" x="8" y="-72.25" font-family="Helvetica,sans-Serif" font-size="10.00">server/include/timelineDecoder</text>
<text xml:space="preserve" text-anchor="middle" x="75.12" y="-61" font-family="Helvetica,sans-Serif" font-size="10.00">/ITimelineDecoder.hpp</text>
</a>
</g>
</g>
<!-- Node2&#45;&gt;Node3 -->
<g id="edge2_Node000002_Node000003" class="edge">
<title>Node2&#45;&gt;Node3</title>
<g id="a_edge2_Node000002_Node000003"><a xlink:title=" ">
<path fill="none" stroke="#63b8ff" d="M296.76,-121.3C258.22,-112.64 199.16,-99.37 151.69,-88.71"/>
<polygon fill="#63b8ff" stroke="#63b8ff" points="152.52,-85.3 141.99,-86.53 150.98,-92.13 152.52,-85.3"/>
</a>
</g>
</g>
<!-- Node4 -->
<g id="Node000004" class="node">
<title>Node4</title>
<g id="a_Node000004"><a xlink:href="_filesystem_8hpp.html" target="_top" xlink:title=" ">
<polygon fill="white" stroke="#666666" points="301.62,-80.12 168.62,-80.12 168.62,-60.88 301.62,-60.88 301.62,-80.12"/>
<text xml:space="preserve" text-anchor="middle" x="235.12" y="-66.62" font-family="Helvetica,sans-Serif" font-size="10.00">armnnUtils/Filesystem.hpp</text>
</a>
</g>
</g>
<!-- Node2&#45;&gt;Node4 -->
<g id="edge3_Node000002_Node000004" class="edge">
<title>Node2&#45;&gt;Node4</title>
<g id="a_edge3_Node000002_Node000004"><a xlink:title=" ">
<path fill="none" stroke="#63b8ff" d="M321.63,-121.43C305.46,-112.1 279.82,-97.3 260.65,-86.23"/>
<polygon fill="#63b8ff" stroke="#63b8ff" points="262.48,-83.25 252.07,-81.28 258.98,-89.31 262.48,-83.25"/>
</a>
</g>
</g>
<!-- Node7 -->
<g id="Node000007" class="node">
<title>Node7</title>
<g id="a_Node000007"><a xlink:title=" ">
<polygon fill="#e0e0e0" stroke="#999999" points="354.5,-80.12 319.75,-80.12 319.75,-60.88 354.5,-60.88 354.5,-80.12"/>
<text xml:space="preserve" text-anchor="middle" x="337.12" y="-66.62" font-family="Helvetica,sans-Serif" font-size="10.00">map</text>
</a>
</g>
</g>
<!-- Node2&#45;&gt;Node7 -->
<g id="edge6_Node000002_Node000007" class="edge">
<title>Node2&#45;&gt;Node7</title>
<g id="a_edge6_Node000002_Node000007"><a xlink:title=" ">
<path fill="none" stroke="#63b8ff" d="M337.12,-121.43C337.12,-113.65 337.12,-102.08 337.12,-92.03"/>
<polygon fill="#63b8ff" stroke="#63b8ff" points="340.63,-92.04 337.13,-82.04 333.63,-92.04 340.63,-92.04"/>
</a>
</g>
</g>
<!-- Node8 -->
<g id="Node000008" class="node">
<title>Node8</title>
<g id="a_Node000008"><a xlink:title=" ">
<polygon fill="#e0e0e0" stroke="#999999" points="415.62,-80.12 372.62,-80.12 372.62,-60.88 415.62,-60.88 415.62,-80.12"/>
<text xml:space="preserve" text-anchor="middle" x="394.12" y="-66.62" font-family="Helvetica,sans-Serif" font-size="10.00">vector</text>
</a>
</g>
</g>
<!-- Node2&#45;&gt;Node8 -->
<g id="edge7_Node000002_Node000008" class="edge">
<title>Node2&#45;&gt;Node8</title>
<g id="a_edge7_Node000002_Node000008"><a xlink:title=" ">
<path fill="none" stroke="#63b8ff" d="M345.78,-121.43C354.15,-112.79 367.05,-99.46 377.43,-88.75"/>
<polygon fill="#63b8ff" stroke="#63b8ff" points="379.89,-91.23 384.33,-81.61 374.86,-86.36 379.89,-91.23"/>
</a>
</g>
</g>
<!-- Node5 -->
<g id="Node000005" class="node">
<title>Node5</title>
<g id="a_Node000005"><a xlink:title=" ">
<polygon fill="#e0e0e0" stroke="#999999" points="284.38,-19.25 185.88,-19.25 185.88,0 284.38,0 284.38,-19.25"/>
<text xml:space="preserve" text-anchor="middle" x="235.12" y="-5.75" font-family="Helvetica,sans-Serif" font-size="10.00">ghc/filesystem.hpp</text>
</a>
</g>
</g>
<!-- Node4&#45;&gt;Node5 -->
<g id="edge4_Node000004_Node000005" class="edge">
<title>Node4&#45;&gt;Node5</title>
<g id="a_edge4_Node000004_Node000005"><a xlink:title=" ">
<path fill="none" stroke="#63b8ff" d="M235.12,-60.56C235.12,-52.78 235.12,-41.2 235.12,-31.16"/>
<polygon fill="#63b8ff" stroke="#63b8ff" points="238.63,-31.16 235.13,-21.16 231.63,-31.16 238.63,-31.16"/>
</a>
</g>
</g>
<!-- Node4&#45;&gt;Node6 -->
<g id="edge5_Node000004_Node000006" class="edge">
<title>Node4&#45;&gt;Node6</title>
<g id="a_edge5_Node000004_Node000006"><a xlink:title=" ">
<path fill="none" stroke="#63b8ff" d="M257.93,-60.43C283.27,-50.35 324.32,-34.02 352.46,-22.82"/>
<polygon fill="#63b8ff" stroke="#63b8ff" points="353.51,-26.17 361.51,-19.22 350.92,-19.67 353.51,-26.17"/>
</a>
</g>
</g>
</g>
</svg>
