<?xml version="1.0" encoding="UTF-8" standalone="no"?>
<!DOCTYPE svg PUBLIC "-//W3C//DTD SVG 1.1//EN"
 "http://www.w3.org/Graphics/SVG/1.1/DTD/svg11.dtd">
<!-- Generated by graphviz version 14.1.1 (20251213.1925)
 -->
<!-- Title: src/backends/backendsCommon/LayerSupportRules.hpp Pages: 1 -->
<svg width="365pt" height="172pt"
 viewBox="0.00 0.00 365.00 172.00" xmlns="http://www.w3.org/2000/svg" xmlns:xlink="http://www.w3.org/1999/xlink">
<g id="graph0" class="graph" transform="scale(1 1) rotate(0) translate(4 167.5)">
<title>src/backends/backendsCommon/LayerSupportRules.hpp</title>
<!-- Node1 -->
<g id="Node000001" class="node">
<title>Node1</title>
<g id="a_Node000001"><a xlink:title=" ">
<polygon fill="#999999" stroke="#666666" points="212.62,-163.5 53.38,-163.5 53.38,-133 212.62,-133 212.62,-163.5"/>
<text xml:space="preserve" text-anchor="start" x="61.38" y="-150" font-family="Helvetica,sans-Serif" font-size="10.00">src/backends/backendsCommon</text>
<text xml:space="preserve" text-anchor="middle" x="133" y="-138.75" font-family="Helvetica,sans-Serif" font-size="10.00">/LayerSupportRules.hpp</text>
</a>
</g>
</g>
<!-- Node2 -->
<g id="Node000002" class="node">
<title>Node2</title>
<g id="a_Node000002"><a xlink:href="_ref_layer_support_8cpp.html" target="_top" xlink:title=" ">
<polygon fill="white" stroke="#666666" points="118,-97 0,-97 0,-66.5 118,-66.5 118,-97"/>
<text xml:space="preserve" text-anchor="start" x="8" y="-83.5" font-family="Helvetica,sans-Serif" font-size="10.00">src/backends/reference</text>
<text xml:space="preserve" text-anchor="middle" x="59" y="-72.25" font-family="Helvetica,sans-Serif" font-size="10.00">/RefLayerSupport.cpp</text>
</a>
</g>
</g>
<!-- Node1&#45;&gt;Node2 -->
<g id="edge1_Node000001_Node000002" class="edge">
<title>Node1&#45;&gt;Node2</title>
<g id="a_edge1_Node000001_Node000002"><a xlink:title=" ">
<path fill="none" stroke="#63b8ff" d="M107.75,-125.24C97.18,-116.03 85.17,-105.56 75.73,-97.33"/>
<polygon fill="#63b8ff" stroke="#63b8ff" points="105.23,-127.69 115.07,-131.62 109.83,-122.41 105.23,-127.69"/>
</a>
</g>
</g>
<!-- Node3 -->
<g id="Node000003" class="node">
<title>Node3</title>
<g id="a_Node000003"><a xlink:href="_tosa_ref_layer_support_8hpp.html" target="_top" xlink:title=" ">
<polygon fill="white" stroke="#666666" points="277.62,-97 136.38,-97 136.38,-66.5 277.62,-66.5 277.62,-97"/>
<text xml:space="preserve" text-anchor="start" x="144.38" y="-83.5" font-family="Helvetica,sans-Serif" font-size="10.00">src/backends/tosaReference</text>
<text xml:space="preserve" text-anchor="middle" x="207" y="-72.25" font-family="Helvetica,sans-Serif" font-size="10.00">/TosaRefLayerSupport.hpp</text>
</a>
</g>
</g>
<!-- Node1&#45;&gt;Node3 -->
<g id="edge2_Node000001_Node000003" class="edge">
<title>Node1&#45;&gt;Node3</title>
<g id="a_edge2_Node000001_Node000003"><a xlink:title=" ">
<path fill="none" stroke="#63b8ff" d="M158.25,-125.24C168.82,-116.03 180.83,-105.56 190.27,-97.33"/>
<polygon fill="#63b8ff" stroke="#63b8ff" points="156.17,-122.41 150.93,-131.62 160.77,-127.69 156.17,-122.41"/>
</a>
</g>
</g>
<!-- Node4 -->
<g id="Node000004" class="node">
<title>Node4</title>
<g id="a_Node000004"><a xlink:href="_tosa_ref_backend_8cpp.html" target="_top" xlink:title=" ">
<polygon fill="white" stroke="#666666" points="197.62,-30.5 56.38,-30.5 56.38,0 197.62,0 197.62,-30.5"/>
<text xml:space="preserve" text-anchor="start" x="64.38" y="-17" font-family="Helvetica,sans-Serif" font-size="10.00">src/backends/tosaReference</text>
<text xml:space="preserve" text-anchor="middle" x="127" y="-5.75" font-family="Helvetica,sans-Serif" font-size="10.00">/TosaRefBackend.cpp</text>
</a>
</g>
</g>
<!-- Node3&#45;&gt;Node4 -->
<g id="edge3_Node000003_Node000004" class="edge">
<title>Node3&#45;&gt;Node4</title>
<g id="a_edge3_Node000003_Node000004"><a xlink:title=" ">
<path fill="none" stroke="#63b8ff" d="M180.05,-59.02C168.53,-49.73 155.4,-39.15 145.08,-30.83"/>
<polygon fill="#63b8ff" stroke="#63b8ff" points="177.69,-61.61 187.67,-65.16 182.08,-56.16 177.69,-61.61"/>
</a>
</g>
</g>
<!-- Node5 -->
<g id="Node000005" class="node">
<title>Node5</title>
<g id="a_Node000005"><a xlink:href="_tosa_ref_layer_support_8cpp.html" target="_top" xlink:title=" ">
<polygon fill="white" stroke="#666666" points="356.62,-30.5 215.38,-30.5 215.38,0 356.62,0 356.62,-30.5"/>
<text xml:space="preserve" text-anchor="start" x="223.38" y="-17" font-family="Helvetica,sans-Serif" font-size="10.00">src/backends/tosaReference</text>
<text xml:space="preserve" text-anchor="middle" x="286" y="-5.75" font-family="Helvetica,sans-Serif" font-size="10.00">/TosaRefLayerSupport.cpp</text>
</a>
</g>
</g>
<!-- Node3&#45;&gt;Node5 -->
<g id="edge4_Node000003_Node000005" class="edge">
<title>Node3&#45;&gt;Node5</title>
<g id="a_edge4_Node000003_Node000005"><a xlink:title=" ">
<path fill="none" stroke="#63b8ff" d="M233.62,-59.02C244.99,-49.73 257.96,-39.15 268.14,-30.83"/>
<polygon fill="#63b8ff" stroke="#63b8ff" points="231.63,-56.12 226.1,-65.16 236.06,-61.54 231.63,-56.12"/>
</a>
</g>
</g>
</g>
</svg>
