<?xml version="1.0" encoding="UTF-8" standalone="no"?>
<!DOCTYPE svg PUBLIC "-//W3C//DTD SVG 1.1//EN"
 "http://www.w3.org/Graphics/SVG/1.1/DTD/svg11.dtd">
<!-- Generated by graphviz version 14.1.1 (20251213.1925)
 -->
<!-- Title: src/backends/neon/workloads/NeonElementwiseBinaryWorkload.hpp Pages: 1 -->
<svg width="534pt" height="172pt"
 viewBox="0.00 0.00 534.00 172.00" xmlns="http://www.w3.org/2000/svg" xmlns:xlink="http://www.w3.org/1999/xlink">
<g id="graph0" class="graph" transform="scale(1 1) rotate(0) translate(4 167.5)">
<title>src/backends/neon/workloads/NeonElementwiseBinaryWorkload.hpp</title>
<!-- Node1 -->
<g id="Node000001" class="node">
<title>Node1</title>
<g id="a_Node000001"><a xlink:title=" ">
<polygon fill="#999999" stroke="#666666" points="352.12,-163.5 166.62,-163.5 166.62,-133 352.12,-133 352.12,-163.5"/>
<text xml:space="preserve" text-anchor="start" x="174.62" y="-150" font-family="Helvetica,sans-Serif" font-size="10.00">src/backends/neon/workloads</text>
<text xml:space="preserve" text-anchor="middle" x="259.38" y="-138.75" font-family="Helvetica,sans-Serif" font-size="10.00">/NeonElementwiseBinaryWorkload.hpp</text>
</a>
</g>
</g>
<!-- Node2 -->
<g id="Node000002" class="node">
<title>Node2</title>
<g id="a_Node000002"><a xlink:href="_neon_layer_support_8cpp.html" target="_top" xlink:title=" ">
<polygon fill="white" stroke="#666666" points="148.75,-97 0,-97 0,-66.5 148.75,-66.5 148.75,-97"/>
<text xml:space="preserve" text-anchor="start" x="8" y="-83.5" font-family="Helvetica,sans-Serif" font-size="10.00">src/backends/neon/NeonLayer</text>
<text xml:space="preserve" text-anchor="middle" x="74.38" y="-72.25" font-family="Helvetica,sans-Serif" font-size="10.00">Support.cpp</text>
</a>
</g>
</g>
<!-- Node1&#45;&gt;Node2 -->
<g id="edge1_Node000001_Node000002" class="edge">
<title>Node1&#45;&gt;Node2</title>
<g id="a_edge1_Node000001_Node000002"><a xlink:title=" ">
<path fill="none" stroke="#63b8ff" d="M206.77,-128.91C178.18,-118.94 143.29,-106.78 116.51,-97.44"/>
<polygon fill="#63b8ff" stroke="#63b8ff" points="205.37,-132.13 215.97,-132.12 207.68,-125.52 205.37,-132.13"/>
</a>
</g>
</g>
<!-- Node3 -->
<g id="Node000003" class="node">
<title>Node3</title>
<g id="a_Node000003"><a xlink:href="_neon_elementwise_binary_workload_8cpp.html" target="_top" xlink:title=" ">
<polygon fill="white" stroke="#666666" points="352.12,-97 166.62,-97 166.62,-66.5 352.12,-66.5 352.12,-97"/>
<text xml:space="preserve" text-anchor="start" x="174.62" y="-83.5" font-family="Helvetica,sans-Serif" font-size="10.00">src/backends/neon/workloads</text>
<text xml:space="preserve" text-anchor="middle" x="259.38" y="-72.25" font-family="Helvetica,sans-Serif" font-size="10.00">/NeonElementwiseBinaryWorkload.cpp</text>
</a>
</g>
</g>
<!-- Node1&#45;&gt;Node3 -->
<g id="edge2_Node000001_Node000003" class="edge">
<title>Node1&#45;&gt;Node3</title>
<g id="a_edge2_Node000001_Node000003"><a xlink:title=" ">
<path fill="none" stroke="#63b8ff" d="M259.38,-121.31C259.38,-113.14 259.38,-104.41 259.38,-97.33"/>
<polygon fill="#63b8ff" stroke="#63b8ff" points="255.88,-121.1 259.38,-131.1 262.88,-121.1 255.88,-121.1"/>
</a>
</g>
</g>
<!-- Node4 -->
<g id="Node000004" class="node">
<title>Node4</title>
<g id="a_Node000004"><a xlink:href="_neon_workloads_8hpp.html" target="_top" xlink:title=" ">
<polygon fill="white" stroke="#666666" points="516.25,-97 370.5,-97 370.5,-66.5 516.25,-66.5 516.25,-97"/>
<text xml:space="preserve" text-anchor="start" x="378.5" y="-83.5" font-family="Helvetica,sans-Serif" font-size="10.00">src/backends/neon/workloads</text>
<text xml:space="preserve" text-anchor="middle" x="443.38" y="-72.25" font-family="Helvetica,sans-Serif" font-size="10.00">/NeonWorkloads.hpp</text>
</a>
</g>
</g>
<!-- Node1&#45;&gt;Node4 -->
<g id="edge3_Node000001_Node000004" class="edge">
<title>Node1&#45;&gt;Node4</title>
<g id="a_edge3_Node000001_Node000004"><a xlink:title=" ">
<path fill="none" stroke="#63b8ff" d="M311.69,-128.91C340.13,-118.94 374.83,-106.78 401.47,-97.44"/>
<polygon fill="#63b8ff" stroke="#63b8ff" points="310.83,-125.5 302.56,-132.11 313.15,-132.11 310.83,-125.5"/>
</a>
</g>
</g>
<!-- Node5 -->
<g id="Node000005" class="node">
<title>Node5</title>
<g id="a_Node000005"><a xlink:href="_neon_workload_factory_8cpp.html" target="_top" xlink:title=" ">
<polygon fill="white" stroke="#666666" points="526,-30.5 360.75,-30.5 360.75,0 526,0 526,-30.5"/>
<text xml:space="preserve" text-anchor="start" x="368.75" y="-17" font-family="Helvetica,sans-Serif" font-size="10.00">src/backends/neon/NeonWorkload</text>
<text xml:space="preserve" text-anchor="middle" x="443.38" y="-5.75" font-family="Helvetica,sans-Serif" font-size="10.00">Factory.cpp</text>
</a>
</g>
</g>
<!-- Node4&#45;&gt;Node5 -->
<g id="edge4_Node000004_Node000005" class="edge">
<title>Node4&#45;&gt;Node5</title>
<g id="a_edge4_Node000004_Node000005"><a xlink:title=" ">
<path fill="none" stroke="#63b8ff" d="M443.38,-54.81C443.38,-46.64 443.38,-37.91 443.38,-30.83"/>
<polygon fill="#63b8ff" stroke="#63b8ff" points="439.88,-54.6 443.38,-64.6 446.88,-54.6 439.88,-54.6"/>
</a>
</g>
</g>
</g>
</svg>
