<?xml version="1.0" encoding="UTF-8" standalone="no"?>
<!DOCTYPE svg PUBLIC "-//W3C//DTD SVG 1.1//EN"
 "http://www.w3.org/Graphics/SVG/1.1/DTD/svg11.dtd">
<!-- Generated by graphviz version 14.1.1 (20251213.1925)
 -->
<!-- Title: src/armnn/ProfilingDetails.hpp Pages: 1 -->
<svg width="1019pt" height="359pt"
 viewBox="0.00 0.00 1019.00 359.00" xmlns="http://www.w3.org/2000/svg" xmlns:xlink="http://www.w3.org/1999/xlink">
<g id="graph0" class="graph" transform="scale(1 1) rotate(0) translate(4 354.75)">
<title>src/armnn/ProfilingDetails.hpp</title>
<!-- Node1 -->
<g id="Node000001" class="node">
<title>Node1</title>
<g id="a_Node000001"><a xlink:title=" ">
<polygon fill="#999999" stroke="#666666" points="491.25,-350.75 344,-350.75 344,-331.5 491.25,-331.5 491.25,-350.75"/>
<text xml:space="preserve" text-anchor="middle" x="417.62" y="-337.25" font-family="Helvetica,sans-Serif" font-size="10.00">src/armnn/ProfilingDetails.hpp</text>
</a>
</g>
</g>
<!-- Node2 -->
<g id="Node000002" class="node">
<title>Node2</title>
<g id="a_Node000002"><a xlink:title=" ">
<polygon fill="#e0e0e0" stroke="#999999" points="415.5,-240.25 365.75,-240.25 365.75,-221 415.5,-221 415.5,-240.25"/>
<text xml:space="preserve" text-anchor="middle" x="390.62" y="-226.75" font-family="Helvetica,sans-Serif" font-size="10.00">iomanip</text>
</a>
</g>
</g>
<!-- Node1&#45;&gt;Node2 -->
<g id="edge1_Node000001_Node000002" class="edge">
<title>Node1&#45;&gt;Node2</title>
<g id="a_edge1_Node000001_Node000002"><a xlink:title=" ">
<path fill="none" stroke="#63b8ff" d="M414.56,-331.31C411.53,-322.37 406.87,-308.08 403.62,-295.5 399.85,-280.87 396.48,-264.13 394.11,-251.46"/>
<polygon fill="#63b8ff" stroke="#63b8ff" points="397.6,-251.08 392.38,-241.86 390.71,-252.32 397.6,-251.08"/>
</a>
</g>
</g>
<!-- Node3 -->
<g id="Node000003" class="node">
<title>Node3</title>
<g id="a_Node000003"><a xlink:href="_types_8hpp.html" target="_top" xlink:title=" ">
<polygon fill="white" stroke="#666666" points="395.12,-129.75 304.12,-129.75 304.12,-110.5 395.12,-110.5 395.12,-129.75"/>
<text xml:space="preserve" text-anchor="middle" x="349.62" y="-116.25" font-family="Helvetica,sans-Serif" font-size="10.00">armnn/Types.hpp</text>
</a>
</g>
</g>
<!-- Node1&#45;&gt;Node3 -->
<g id="edge2_Node000001_Node000003" class="edge">
<title>Node1&#45;&gt;Node3</title>
<g id="a_edge2_Node000001_Node000003"><a xlink:title=" ">
<path fill="none" stroke="#63b8ff" d="M410.07,-331.24C396.47,-314.65 368.22,-277.28 356.62,-240.25 346.13,-206.73 346.46,-165.37 347.89,-141.24"/>
<polygon fill="#63b8ff" stroke="#63b8ff" points="351.36,-141.79 348.6,-131.57 344.38,-141.28 351.36,-141.79"/>
</a>
</g>
</g>
<!-- Node19 -->
<g id="Node000019" class="node">
<title>Node19</title>
<g id="a_Node000019"><a xlink:href="_types_utils_8hpp.html" target="_top" xlink:title=" ">
<polygon fill="white" stroke="#666666" points="274.25,-240.25 163,-240.25 163,-221 274.25,-221 274.25,-240.25"/>
<text xml:space="preserve" text-anchor="middle" x="218.62" y="-226.75" font-family="Helvetica,sans-Serif" font-size="10.00">armnn/TypesUtils.hpp</text>
</a>
</g>
</g>
<!-- Node1&#45;&gt;Node19 -->
<g id="edge19_Node000001_Node000019" class="edge">
<title>Node1&#45;&gt;Node19</title>
<g id="a_edge19_Node000001_Node000019"><a xlink:title=" ">
<path fill="none" stroke="#63b8ff" d="M397.15,-331.14C377.91,-322.53 348.43,-308.88 323.62,-295.5 294.87,-279.98 262.95,-260.17 241.93,-246.76"/>
<polygon fill="#63b8ff" stroke="#63b8ff" points="243.86,-243.84 233.56,-241.38 240.08,-249.73 243.86,-243.84"/>
</a>
</g>
</g>
<!-- Node27 -->
<g id="Node000027" class="node">
<title>Node27</title>
<g id="a_Node000027"><a xlink:href="_workload_info_8hpp.html" target="_top" xlink:title=" ">
<polygon fill="white" stroke="#666666" points="638,-240.25 471.25,-240.25 471.25,-221 638,-221 638,-240.25"/>
<text xml:space="preserve" text-anchor="middle" x="554.62" y="-226.75" font-family="Helvetica,sans-Serif" font-size="10.00">armnn/backends/WorkloadInfo.hpp</text>
</a>
</g>
</g>
<!-- Node1&#45;&gt;Node27 -->
<g id="edge40_Node000001_Node000027" class="edge">
<title>Node1&#45;&gt;Node27</title>
<g id="a_edge40_Node000001_Node000027"><a xlink:title=" ">
<path fill="none" stroke="#63b8ff" d="M438.18,-331.02C455.07,-323 479.13,-310.32 497.62,-295.5 514.42,-282.04 530.46,-263.36 541.22,-249.68"/>
<polygon fill="#63b8ff" stroke="#63b8ff" points="543.84,-252.02 547.14,-241.95 538.28,-247.76 543.84,-252.02"/>
</a>
</g>
</g>
<!-- Node28 -->
<g id="Node000028" class="node">
<title>Node28</title>
<g id="a_Node000028"><a xlink:href="_serialize_layer_parameters_8hpp.html" target="_top" xlink:title=" ">
<polygon fill="white" stroke="#666666" points="1010.88,-295.5 864.38,-295.5 864.38,-276.25 1010.88,-276.25 1010.88,-295.5"/>
<text xml:space="preserve" text-anchor="middle" x="937.62" y="-282" font-family="Helvetica,sans-Serif" font-size="10.00">SerializeLayerParameters.hpp</text>
</a>
</g>
</g>
<!-- Node1&#45;&gt;Node28 -->
<g id="edge43_Node000001_Node000028" class="edge">
<title>Node1&#45;&gt;Node28</title>
<g id="a_edge43_Node000001_Node000028"><a xlink:title=" ">
<path fill="none" stroke="#63b8ff" d="M491.58,-332.55C586.88,-322.79 752.23,-305.86 852.62,-295.58"/>
<polygon fill="#63b8ff" stroke="#63b8ff" points="852.83,-299.08 862.42,-294.58 852.12,-292.11 852.83,-299.08"/>
</a>
</g>
</g>
<!-- Node33 -->
<g id="Node000033" class="node">
<title>Node33</title>
<g id="a_Node000033"><a xlink:href="_json_utils_8hpp.html" target="_top" xlink:title=" ">
<polygon fill="white" stroke="#666666" points="488.62,-295.5 412.62,-295.5 412.62,-276.25 488.62,-276.25 488.62,-295.5"/>
<text xml:space="preserve" text-anchor="middle" x="450.62" y="-282" font-family="Helvetica,sans-Serif" font-size="10.00">JsonUtils.hpp</text>
</a>
</g>
</g>
<!-- Node1&#45;&gt;Node33 -->
<g id="edge56_Node000001_Node000033" class="edge">
<title>Node1&#45;&gt;Node33</title>
<g id="a_edge56_Node000001_Node000033"><a xlink:title=" ">
<path fill="none" stroke="#63b8ff" d="M423.07,-331.33C427.4,-324.36 433.59,-314.37 439.01,-305.62"/>
<polygon fill="#63b8ff" stroke="#63b8ff" points="441.97,-307.49 444.26,-297.15 436.02,-303.8 441.97,-307.49"/>
</a>
</g>
</g>
<!-- Node4 -->
<g id="Node000004" class="node">
<title>Node4</title>
<g id="a_Node000004"><a xlink:title=" ">
<polygon fill="#e0e0e0" stroke="#999999" points="478.5,-74.5 440.75,-74.5 440.75,-55.25 478.5,-55.25 478.5,-74.5"/>
<text xml:space="preserve" text-anchor="middle" x="459.62" y="-61" font-family="Helvetica,sans-Serif" font-size="10.00">array</text>
</a>
</g>
</g>
<!-- Node3&#45;&gt;Node4 -->
<g id="edge3_Node000003_Node000004" class="edge">
<title>Node3&#45;&gt;Node4</title>
<g id="a_edge3_Node000003_Node000004"><a xlink:title=" ">
<path fill="none" stroke="#63b8ff" d="M368.29,-110.09C385.35,-101.83 410.87,-89.48 430.6,-79.93"/>
<polygon fill="#63b8ff" stroke="#63b8ff" points="432.04,-83.12 439.51,-75.61 428.99,-76.82 432.04,-83.12"/>
</a>
</g>
</g>
<!-- Node5 -->
<g id="Node000005" class="node">
<title>Node5</title>
<g id="a_Node000005"><a xlink:title=" ">
<polygon fill="#e0e0e0" stroke="#999999" points="867.62,-74.5 809.62,-74.5 809.62,-55.25 867.62,-55.25 867.62,-74.5"/>
<text xml:space="preserve" text-anchor="middle" x="838.62" y="-61" font-family="Helvetica,sans-Serif" font-size="10.00">functional</text>
</a>
</g>
</g>
<!-- Node3&#45;&gt;Node5 -->
<g id="edge4_Node000003_Node000005" class="edge">
<title>Node3&#45;&gt;Node5</title>
<g id="a_edge4_Node000003_Node000005"><a xlink:title=" ">
<path fill="none" stroke="#63b8ff" d="M395.51,-111.7C398.59,-111.27 401.65,-110.87 404.62,-110.5 576.33,-89.25 624.08,-101.58 797.88,-74.73"/>
<polygon fill="#63b8ff" stroke="#63b8ff" points="798.41,-78.19 807.75,-73.18 797.32,-71.28 798.41,-78.19"/>
</a>
</g>
</g>
<!-- Node6 -->
<g id="Node000006" class="node">
<title>Node6</title>
<g id="a_Node000006"><a xlink:title=" ">
<polygon fill="#e0e0e0" stroke="#999999" points="170.75,-74.5 122.5,-74.5 122.5,-55.25 170.75,-55.25 170.75,-74.5"/>
<text xml:space="preserve" text-anchor="middle" x="146.62" y="-61" font-family="Helvetica,sans-Serif" font-size="10.00">stdint.h</text>
</a>
</g>
</g>
<!-- Node3&#45;&gt;Node6 -->
<g id="edge5_Node000003_Node000006" class="edge">
<title>Node3&#45;&gt;Node6</title>
<g id="a_edge5_Node000003_Node000006"><a xlink:title=" ">
<path fill="none" stroke="#63b8ff" d="M315.19,-110.09C278.08,-100.36 219.32,-84.94 181.89,-75.13"/>
<polygon fill="#63b8ff" stroke="#63b8ff" points="183.03,-71.81 172.47,-72.65 181.26,-78.58 183.03,-71.81"/>
</a>
</g>
</g>
<!-- Node7 -->
<g id="Node000007" class="node">
<title>Node7</title>
<g id="a_Node000007"><a xlink:title=" ">
<polygon fill="#e0e0e0" stroke="#999999" points="414.25,-74.5 369,-74.5 369,-55.25 414.25,-55.25 414.25,-74.5"/>
<text xml:space="preserve" text-anchor="middle" x="391.62" y="-61" font-family="Helvetica,sans-Serif" font-size="10.00">chrono</text>
</a>
</g>
</g>
<!-- Node3&#45;&gt;Node7 -->
<g id="edge6_Node000003_Node000007" class="edge">
<title>Node3&#45;&gt;Node7</title>
<g id="a_edge6_Node000003_Node000007"><a xlink:title=" ">
<path fill="none" stroke="#63b8ff" d="M356.56,-110.33C362.24,-103.13 370.46,-92.71 377.52,-83.76"/>
<polygon fill="#63b8ff" stroke="#63b8ff" points="380.16,-86.07 383.6,-76.05 374.66,-81.73 380.16,-86.07"/>
</a>
</g>
</g>
<!-- Node8 -->
<g id="Node000008" class="node">
<title>Node8</title>
<g id="a_Node000008"><a xlink:href="_backend_id_8hpp.html" target="_top" xlink:title=" ">
<polygon fill="white" stroke="#666666" points="270.25,-74.5 189,-74.5 189,-55.25 270.25,-55.25 270.25,-74.5"/>
<text xml:space="preserve" text-anchor="middle" x="229.62" y="-61" font-family="Helvetica,sans-Serif" font-size="10.00">BackendId.hpp</text>
</a>
</g>
</g>
<!-- Node3&#45;&gt;Node8 -->
<g id="edge7_Node000003_Node000008" class="edge">
<title>Node3&#45;&gt;Node8</title>
<g id="a_edge7_Node000003_Node000008"><a xlink:title=" ">
<path fill="none" stroke="#63b8ff" d="M329.27,-110.09C310.39,-101.72 282.04,-89.13 260.4,-79.53"/>
<polygon fill="#63b8ff" stroke="#63b8ff" points="262.02,-76.42 251.46,-75.57 259.19,-82.82 262.02,-76.42"/>
</a>
</g>
</g>
<!-- Node15 -->
<g id="Node000015" class="node">
<title>Node15</title>
<g id="a_Node000015"><a xlink:href="_exceptions_8hpp.html" target="_top" xlink:title=" ">
<polygon fill="white" stroke="#666666" points="584.38,-74.5 500.88,-74.5 500.88,-55.25 584.38,-55.25 584.38,-74.5"/>
<text xml:space="preserve" text-anchor="middle" x="542.62" y="-61" font-family="Helvetica,sans-Serif" font-size="10.00">Exceptions.hpp</text>
</a>
</g>
</g>
<!-- Node3&#45;&gt;Node15 -->
<g id="edge14_Node000003_Node000015" class="edge">
<title>Node3&#45;&gt;Node15</title>
<g id="a_edge14_Node000003_Node000015"><a xlink:title=" ">
<path fill="none" stroke="#63b8ff" d="M382.36,-110.09C414.39,-101.26 463.37,-87.74 498.75,-77.98"/>
<polygon fill="#63b8ff" stroke="#63b8ff" points="499.56,-81.39 508.27,-75.36 497.69,-74.64 499.56,-81.39"/>
</a>
</g>
</g>
<!-- Node18 -->
<g id="Node000018" class="node">
<title>Node18</title>
<g id="a_Node000018"><a xlink:href="_deprecated_8hpp.html" target="_top" xlink:title=" ">
<polygon fill="white" stroke="#666666" points="791.12,-74.5 706.12,-74.5 706.12,-55.25 791.12,-55.25 791.12,-74.5"/>
<text xml:space="preserve" text-anchor="middle" x="748.62" y="-61" font-family="Helvetica,sans-Serif" font-size="10.00">Deprecated.hpp</text>
</a>
</g>
</g>
<!-- Node3&#45;&gt;Node18 -->
<g id="edge18_Node000003_Node000018" class="edge">
<title>Node3&#45;&gt;Node18</title>
<g id="a_edge18_Node000003_Node000018"><a xlink:title=" ">
<path fill="none" stroke="#63b8ff" d="M395.53,-111.83C398.6,-111.37 401.66,-110.92 404.62,-110.5 506.91,-95.85 626.61,-80.79 694.43,-72.45"/>
<polygon fill="#63b8ff" stroke="#63b8ff" points="694.67,-75.95 704.17,-71.26 693.82,-69 694.67,-75.95"/>
</a>
</g>
</g>
<!-- Node9 -->
<g id="Node000009" class="node">
<title>Node9</title>
<g id="a_Node000009"><a xlink:title=" ">
<polygon fill="#e0e0e0" stroke="#999999" points="214.25,-19.25 163,-19.25 163,0 214.25,0 214.25,-19.25"/>
<text xml:space="preserve" text-anchor="middle" x="188.62" y="-5.75" font-family="Helvetica,sans-Serif" font-size="10.00">memory</text>
</a>
</g>
</g>
<!-- Node8&#45;&gt;Node9 -->
<g id="edge8_Node000008_Node000009" class="edge">
<title>Node8&#45;&gt;Node9</title>
<g id="a_edge8_Node000008_Node000009"><a xlink:title=" ">
<path fill="none" stroke="#63b8ff" d="M222.85,-55.08C217.31,-47.88 209.28,-37.46 202.4,-28.51"/>
<polygon fill="#63b8ff" stroke="#63b8ff" points="205.34,-26.6 196.47,-20.81 199.79,-30.87 205.34,-26.6"/>
</a>
</g>
</g>
<!-- Node10 -->
<g id="Node000010" class="node">
<title>Node10</title>
<g id="a_Node000010"><a xlink:title=" ">
<polygon fill="#e0e0e0" stroke="#999999" points="51.25,-19.25 0,-19.25 0,0 51.25,0 51.25,-19.25"/>
<text xml:space="preserve" text-anchor="middle" x="25.62" y="-5.75" font-family="Helvetica,sans-Serif" font-size="10.00">ostream</text>
</a>
</g>
</g>
<!-- Node8&#45;&gt;Node10 -->
<g id="edge9_Node000008_Node000010" class="edge">
<title>Node8&#45;&gt;Node10</title>
<g id="a_edge9_Node000008_Node000010"><a xlink:title=" ">
<path fill="none" stroke="#63b8ff" d="M195.02,-54.84C158.24,-45.24 100.31,-30.12 62.64,-20.29"/>
<polygon fill="#63b8ff" stroke="#63b8ff" points="63.67,-16.94 53.11,-17.8 61.9,-23.71 63.67,-16.94"/>
</a>
</g>
</g>
<!-- Node11 -->
<g id="Node000011" class="node">
<title>Node11</title>
<g id="a_Node000011"><a xlink:title=" ">
<polygon fill="#e0e0e0" stroke="#999999" points="129.38,-19.25 99.88,-19.25 99.88,0 129.38,0 129.38,-19.25"/>
<text xml:space="preserve" text-anchor="middle" x="114.62" y="-5.75" font-family="Helvetica,sans-Serif" font-size="10.00">set</text>
</a>
</g>
</g>
<!-- Node8&#45;&gt;Node11 -->
<g id="edge10_Node000008_Node000011" class="edge">
<title>Node8&#45;&gt;Node11</title>
<g id="a_edge10_Node000008_Node000011"><a xlink:title=" ">
<path fill="none" stroke="#63b8ff" d="M210.12,-54.84C190.8,-45.9 161.13,-32.16 139.99,-22.37"/>
<polygon fill="#63b8ff" stroke="#63b8ff" points="141.73,-19.32 131.19,-18.29 138.79,-25.67 141.73,-19.32"/>
</a>
</g>
</g>
<!-- Node12 -->
<g id="Node000012" class="node">
<title>Node12</title>
<g id="a_Node000012"><a xlink:title=" ">
<polygon fill="#e0e0e0" stroke="#999999" points="495.62,-19.25 455.62,-19.25 455.62,0 495.62,0 495.62,-19.25"/>
<text xml:space="preserve" text-anchor="middle" x="475.62" y="-5.75" font-family="Helvetica,sans-Serif" font-size="10.00">string</text>
</a>
</g>
</g>
<!-- Node8&#45;&gt;Node12 -->
<g id="edge11_Node000008_Node000012" class="edge">
<title>Node8&#45;&gt;Node12</title>
<g id="a_edge11_Node000008_Node000012"><a xlink:title=" ">
<path fill="none" stroke="#63b8ff" d="M270.52,-55.02C319.33,-44.46 399.88,-27.02 444.12,-17.45"/>
<polygon fill="#63b8ff" stroke="#63b8ff" points="444.8,-20.88 453.84,-15.34 443.32,-14.04 444.8,-20.88"/>
</a>
</g>
</g>
<!-- Node13 -->
<g id="Node000013" class="node">
<title>Node13</title>
<g id="a_Node000013"><a xlink:title=" ">
<polygon fill="#e0e0e0" stroke="#999999" points="309.38,-19.25 231.88,-19.25 231.88,0 309.38,0 309.38,-19.25"/>
<text xml:space="preserve" text-anchor="middle" x="270.62" y="-5.75" font-family="Helvetica,sans-Serif" font-size="10.00">unordered_set</text>
</a>
</g>
</g>
<!-- Node8&#45;&gt;Node13 -->
<g id="edge12_Node000008_Node000013" class="edge">
<title>Node8&#45;&gt;Node13</title>
<g id="a_edge12_Node000008_Node000013"><a xlink:title=" ">
<path fill="none" stroke="#63b8ff" d="M236.4,-55.08C241.94,-47.88 249.97,-37.46 256.85,-28.51"/>
<polygon fill="#63b8ff" stroke="#63b8ff" points="259.46,-30.87 262.78,-20.81 253.91,-26.6 259.46,-30.87"/>
</a>
</g>
</g>
<!-- Node14 -->
<g id="Node000014" class="node">
<title>Node14</title>
<g id="a_Node000014"><a xlink:title=" ">
<polygon fill="#e0e0e0" stroke="#999999" points="827.12,-19.25 784.12,-19.25 784.12,0 827.12,0 827.12,-19.25"/>
<text xml:space="preserve" text-anchor="middle" x="805.62" y="-5.75" font-family="Helvetica,sans-Serif" font-size="10.00">vector</text>
</a>
</g>
</g>
<!-- Node8&#45;&gt;Node14 -->
<g id="edge13_Node000008_Node000014" class="edge">
<title>Node8&#45;&gt;Node14</title>
<g id="a_edge13_Node000008_Node000014"><a xlink:title=" ">
<path fill="none" stroke="#63b8ff" d="M270.51,-56.53C273.59,-56.06 276.65,-55.63 279.62,-55.25 465.28,-31.41 689.49,-17.2 772.58,-12.44"/>
<polygon fill="#63b8ff" stroke="#63b8ff" points="772.71,-15.93 782.5,-11.87 772.32,-8.95 772.71,-15.93"/>
</a>
</g>
</g>
<!-- Node15&#45;&gt;Node12 -->
<g id="edge17_Node000015_Node000012" class="edge">
<title>Node15&#45;&gt;Node12</title>
<g id="a_edge17_Node000015_Node000012"><a xlink:title=" ">
<path fill="none" stroke="#63b8ff" d="M531.26,-54.84C521.58,-47.15 507.43,-35.9 495.82,-26.68"/>
<polygon fill="#63b8ff" stroke="#63b8ff" points="498.01,-23.95 488.01,-20.47 493.66,-29.43 498.01,-23.95"/>
</a>
</g>
</g>
<!-- Node16 -->
<g id="Node000016" class="node">
<title>Node16</title>
<g id="a_Node000016"><a xlink:title=" ">
<polygon fill="#e0e0e0" stroke="#999999" points="641.25,-19.25 590,-19.25 590,0 641.25,0 641.25,-19.25"/>
<text xml:space="preserve" text-anchor="middle" x="615.62" y="-5.75" font-family="Helvetica,sans-Serif" font-size="10.00">sstream</text>
</a>
</g>
</g>
<!-- Node15&#45;&gt;Node16 -->
<g id="edge15_Node000015_Node000016" class="edge">
<title>Node15&#45;&gt;Node16</title>
<g id="a_edge15_Node000015_Node000016"><a xlink:title=" ">
<path fill="none" stroke="#63b8ff" d="M555.01,-54.84C565.77,-46.99 581.6,-35.45 594.38,-26.12"/>
<polygon fill="#63b8ff" stroke="#63b8ff" points="596.19,-29.14 602.2,-20.42 592.06,-23.48 596.19,-29.14"/>
</a>
</g>
</g>
<!-- Node17 -->
<g id="Node000017" class="node">
<title>Node17</title>
<g id="a_Node000017"><a xlink:title=" ">
<polygon fill="#e0e0e0" stroke="#999999" points="572,-19.25 513.25,-19.25 513.25,0 572,0 572,-19.25"/>
<text xml:space="preserve" text-anchor="middle" x="542.62" y="-5.75" font-family="Helvetica,sans-Serif" font-size="10.00">stdexcept</text>
</a>
</g>
</g>
<!-- Node15&#45;&gt;Node17 -->
<g id="edge16_Node000015_Node000017" class="edge">
<title>Node15&#45;&gt;Node17</title>
<g id="a_edge16_Node000015_Node000017"><a xlink:title=" ">
<path fill="none" stroke="#63b8ff" d="M542.62,-55.08C542.62,-48.57 542.62,-39.42 542.62,-31.12"/>
<polygon fill="#63b8ff" stroke="#63b8ff" points="546.13,-31.12 542.63,-21.12 539.13,-31.12 546.13,-31.12"/>
</a>
</g>
</g>
<!-- Node19&#45;&gt;Node3 -->
<g id="edge34_Node000019_Node000003" class="edge">
<title>Node19&#45;&gt;Node3</title>
<g id="a_edge34_Node000019_Node000003"><a xlink:title=" ">
<path fill="none" stroke="#63b8ff" d="M235.51,-220.64C250.43,-212.33 272.43,-199.16 289.62,-185 306.64,-170.99 323.61,-152.39 335.13,-138.87"/>
<polygon fill="#63b8ff" stroke="#63b8ff" points="337.79,-141.15 341.52,-131.23 332.42,-136.66 337.79,-141.15"/>
</a>
</g>
</g>
<!-- Node19&#45;&gt;Node6 -->
<g id="edge35_Node000019_Node000006" class="edge">
<title>Node19&#45;&gt;Node6</title>
<g id="a_edge35_Node000019_Node000006"><a xlink:title=" ">
<path fill="none" stroke="#63b8ff" d="M171.6,-220.53C151.73,-214.11 130.47,-203.26 118.62,-185 98.28,-153.64 119.13,-109.11 134.16,-84.33"/>
<polygon fill="#63b8ff" stroke="#63b8ff" points="137.04,-86.32 139.48,-76.01 131.14,-82.55 137.04,-86.32"/>
</a>
</g>
</g>
<!-- Node19&#45;&gt;Node8 -->
<g id="edge20_Node000019_Node000008" class="edge">
<title>Node19&#45;&gt;Node8</title>
<g id="a_edge20_Node000019_Node000008"><a xlink:title=" ">
<path fill="none" stroke="#63b8ff" d="M218.72,-220.64C219,-200.76 220.01,-151.53 223.62,-110.5 224.34,-102.42 225.46,-93.56 226.54,-85.88"/>
<polygon fill="#63b8ff" stroke="#63b8ff" points="229.96,-86.64 227.97,-76.24 223.04,-85.61 229.96,-86.64"/>
</a>
</g>
</g>
<!-- Node19&#45;&gt;Node10 -->
<g id="edge37_Node000019_Node000010" class="edge">
<title>Node19&#45;&gt;Node10</title>
<g id="a_edge37_Node000019_Node000010"><a xlink:title=" ">
<path fill="none" stroke="#63b8ff" d="M164.09,-220.51C140.23,-214.08 113.44,-203.23 94.62,-185 50.27,-142.02 33.76,-66.98 28.19,-31"/>
<polygon fill="#63b8ff" stroke="#63b8ff" points="31.66,-30.56 26.81,-21.15 24.73,-31.53 31.66,-30.56"/>
</a>
</g>
</g>
<!-- Node19&#45;&gt;Node11 -->
<g id="edge38_Node000019_Node000011" class="edge">
<title>Node19&#45;&gt;Node11</title>
<g id="a_edge38_Node000019_Node000011"><a xlink:title=" ">
<path fill="none" stroke="#63b8ff" d="M162.53,-220.67C141.7,-214.33 120.13,-203.5 107.62,-185 75.45,-137.39 94.79,-64.63 106.97,-30.1"/>
<polygon fill="#63b8ff" stroke="#63b8ff" points="110.15,-31.6 110.36,-21.01 103.59,-29.16 110.15,-31.6"/>
</a>
</g>
</g>
<!-- Node19&#45;&gt;Node15 -->
<g id="edge21_Node000019_Node000015" class="edge">
<title>Node19&#45;&gt;Node15</title>
<g id="a_edge21_Node000019_Node000015"><a xlink:title=" ">
<path fill="none" stroke="#63b8ff" d="M224.11,-220.6C240.65,-193.44 289.22,-114.12 294.62,-110.5 302.68,-105.1 418.63,-85.76 489.1,-74.39"/>
<polygon fill="#63b8ff" stroke="#63b8ff" points="489.6,-77.85 498.92,-72.81 488.49,-70.94 489.6,-77.85"/>
</a>
</g>
</g>
<!-- Node20 -->
<g id="Node000020" class="node">
<title>Node20</title>
<g id="a_Node000020"><a xlink:href="_tensor_8hpp.html" target="_top" xlink:title=" ">
<polygon fill="white" stroke="#666666" points="587.25,-185 494,-185 494,-165.75 587.25,-165.75 587.25,-185"/>
<text xml:space="preserve" text-anchor="middle" x="540.62" y="-171.5" font-family="Helvetica,sans-Serif" font-size="10.00">armnn/Tensor.hpp</text>
</a>
</g>
</g>
<!-- Node19&#45;&gt;Node20 -->
<g id="edge22_Node000019_Node000020" class="edge">
<title>Node19&#45;&gt;Node20</title>
<g id="a_edge22_Node000019_Node000020"><a xlink:title=" ">
<path fill="none" stroke="#63b8ff" d="M273.61,-220.53C331.83,-210.9 423.34,-195.77 482.66,-185.96"/>
<polygon fill="#63b8ff" stroke="#63b8ff" points="482.93,-189.46 492.22,-184.38 481.78,-182.56 482.93,-189.46"/>
</a>
</g>
</g>
<!-- Node23 -->
<g id="Node000023" class="node">
<title>Node23</title>
<g id="a_Node000023"><a xlink:title=" ">
<polygon fill="#e0e0e0" stroke="#999999" points="350.5,-74.5 288.75,-74.5 288.75,-55.25 350.5,-55.25 350.5,-74.5"/>
<text xml:space="preserve" text-anchor="middle" x="319.62" y="-61" font-family="Helvetica,sans-Serif" font-size="10.00">type_traits</text>
</a>
</g>
</g>
<!-- Node19&#45;&gt;Node23 -->
<g id="edge39_Node000019_Node000023" class="edge">
<title>Node19&#45;&gt;Node23</title>
<g id="a_edge39_Node000019_Node000023"><a xlink:title=" ">
<path fill="none" stroke="#63b8ff" d="M220.06,-220.75C223.8,-199.8 235.43,-146.37 261.62,-110.5 270.2,-98.75 282.7,-88.59 293.91,-80.94"/>
<polygon fill="#63b8ff" stroke="#63b8ff" points="295.51,-84.07 302.02,-75.71 291.71,-78.19 295.51,-84.07"/>
</a>
</g>
</g>
<!-- Node26 -->
<g id="Node000026" class="node">
<title>Node26</title>
<g id="a_Node000026"><a xlink:title=" ">
<polygon fill="#e0e0e0" stroke="#999999" points="171.12,-185 128.12,-185 128.12,-165.75 171.12,-165.75 171.12,-185"/>
<text xml:space="preserve" text-anchor="middle" x="149.62" y="-171.5" font-family="Helvetica,sans-Serif" font-size="10.00">cmath</text>
</a>
</g>
</g>
<!-- Node19&#45;&gt;Node26 -->
<g id="edge36_Node000019_Node000026" class="edge">
<title>Node19&#45;&gt;Node26</title>
<g id="a_edge36_Node000019_Node000026"><a xlink:title=" ">
<path fill="none" stroke="#63b8ff" d="M206.92,-220.59C196.85,-212.82 182.08,-201.42 170.06,-192.15"/>
<polygon fill="#63b8ff" stroke="#63b8ff" points="172.41,-189.54 162.36,-186.2 168.13,-195.08 172.41,-189.54"/>
</a>
</g>
</g>
<!-- Node20&#45;&gt;Node3 -->
<g id="edge28_Node000020_Node000003" class="edge">
<title>Node20&#45;&gt;Node3</title>
<g id="a_edge28_Node000020_Node000003"><a xlink:title=" ">
<path fill="none" stroke="#63b8ff" d="M508.22,-165.34C476.53,-156.51 428.06,-142.99 393.04,-133.23"/>
<polygon fill="#63b8ff" stroke="#63b8ff" points="394.22,-129.92 383.64,-130.61 392.34,-136.67 394.22,-129.92"/>
</a>
</g>
</g>
<!-- Node20&#45;&gt;Node4 -->
<g id="edge30_Node000020_Node000004" class="edge">
<title>Node20&#45;&gt;Node4</title>
<g id="a_edge30_Node000020_Node000004"><a xlink:title=" ">
<path fill="none" stroke="#63b8ff" d="M534.49,-165.61C525.77,-153.23 509.24,-129.94 494.62,-110.5 487.9,-101.55 480.24,-91.74 473.8,-83.61"/>
<polygon fill="#63b8ff" stroke="#63b8ff" points="476.61,-81.52 467.65,-75.87 471.13,-85.87 476.61,-81.52"/>
</a>
</g>
</g>
<!-- Node20&#45;&gt;Node6 -->
<g id="edge29_Node000020_Node000006" class="edge">
<title>Node20&#45;&gt;Node6</title>
<g id="a_edge29_Node000020_Node000006"><a xlink:title=" ">
<path fill="none" stroke="#63b8ff" d="M493.63,-169.09C443.56,-162.71 362.35,-150.21 294.62,-129.75 251.15,-116.61 203.33,-94.47 174.13,-80.01"/>
<polygon fill="#63b8ff" stroke="#63b8ff" points="175.77,-76.91 165.26,-75.56 172.63,-83.17 175.77,-76.91"/>
</a>
</g>
</g>
<!-- Node20&#45;&gt;Node14 -->
<g id="edge32_Node000020_Node000014" class="edge">
<title>Node20&#45;&gt;Node14</title>
<g id="a_edge32_Node000020_Node000014"><a xlink:title=" ">
<path fill="none" stroke="#63b8ff" d="M568.09,-165.38C588.34,-157.9 615.86,-145.86 636.62,-129.75 670.43,-103.51 663.26,-80.75 697.62,-55.25 720.34,-38.4 750.36,-26.66 772.98,-19.47"/>
<polygon fill="#63b8ff" stroke="#63b8ff" points="773.73,-22.9 782.29,-16.65 771.7,-16.2 773.73,-22.9"/>
</a>
</g>
</g>
<!-- Node20&#45;&gt;Node15 -->
<g id="edge23_Node000020_Node000015" class="edge">
<title>Node20&#45;&gt;Node15</title>
<g id="a_edge23_Node000020_Node000015"><a xlink:title=" ">
<path fill="none" stroke="#63b8ff" d="M572.49,-165.39C590,-158.63 610.24,-147.44 620.62,-129.75 633.48,-107.86 606.74,-90.28 581.14,-79.14"/>
<polygon fill="#63b8ff" stroke="#63b8ff" points="582.71,-76 572.13,-75.48 580.08,-82.49 582.71,-76"/>
</a>
</g>
</g>
<!-- Node21 -->
<g id="Node000021" class="node">
<title>Node21</title>
<g id="a_Node000021"><a xlink:href="_optional_8hpp.html" target="_top" xlink:title=" ">
<polygon fill="white" stroke="#666666" points="612,-129.75 541.25,-129.75 541.25,-110.5 612,-110.5 612,-129.75"/>
<text xml:space="preserve" text-anchor="middle" x="576.62" y="-116.25" font-family="Helvetica,sans-Serif" font-size="10.00">Optional.hpp</text>
</a>
</g>
</g>
<!-- Node20&#45;&gt;Node21 -->
<g id="edge24_Node000020_Node000021" class="edge">
<title>Node20&#45;&gt;Node21</title>
<g id="a_edge24_Node000020_Node000021"><a xlink:title=" ">
<path fill="none" stroke="#63b8ff" d="M546.57,-165.58C551.34,-158.53 558.19,-148.4 564.15,-139.58"/>
<polygon fill="#63b8ff" stroke="#63b8ff" points="567,-141.61 569.7,-131.36 561.2,-137.69 567,-141.61"/>
</a>
</g>
</g>
<!-- Node24 -->
<g id="Node000024" class="node">
<title>Node24</title>
<g id="a_Node000024"><a xlink:title=" ">
<polygon fill="#e0e0e0" stroke="#999999" points="485.75,-129.75 413.5,-129.75 413.5,-110.5 485.75,-110.5 485.75,-129.75"/>
<text xml:space="preserve" text-anchor="middle" x="449.62" y="-116.25" font-family="Helvetica,sans-Serif" font-size="10.00">initializer_list</text>
</a>
</g>
</g>
<!-- Node20&#45;&gt;Node24 -->
<g id="edge31_Node000020_Node000024" class="edge">
<title>Node20&#45;&gt;Node24</title>
<g id="a_edge31_Node000020_Node000024"><a xlink:title=" ">
<path fill="none" stroke="#63b8ff" d="M525.19,-165.34C511.46,-157.31 491.13,-145.41 475.01,-135.98"/>
<polygon fill="#63b8ff" stroke="#63b8ff" points="476.84,-133 466.44,-130.97 473.31,-139.04 476.84,-133"/>
</a>
</g>
</g>
<!-- Node25 -->
<g id="Node000025" class="node">
<title>Node25</title>
<g id="a_Node000025"><a xlink:title=" ">
<polygon fill="#e0e0e0" stroke="#999999" points="886.25,-129.75 847,-129.75 847,-110.5 886.25,-110.5 886.25,-129.75"/>
<text xml:space="preserve" text-anchor="middle" x="866.62" y="-116.25" font-family="Helvetica,sans-Serif" font-size="10.00">utility</text>
</a>
</g>
</g>
<!-- Node20&#45;&gt;Node25 -->
<g id="edge33_Node000020_Node000025" class="edge">
<title>Node20&#45;&gt;Node25</title>
<g id="a_edge33_Node000020_Node000025"><a xlink:title=" ">
<path fill="none" stroke="#63b8ff" d="M587.68,-166.69C655.34,-155.64 778.25,-135.56 835.6,-126.19"/>
<polygon fill="#63b8ff" stroke="#63b8ff" points="836,-129.67 845.31,-124.61 834.88,-122.76 836,-129.67"/>
</a>
</g>
</g>
<!-- Node21&#45;&gt;Node15 -->
<g id="edge25_Node000021_Node000015" class="edge">
<title>Node21&#45;&gt;Node15</title>
<g id="a_edge25_Node000021_Node000015"><a xlink:title=" ">
<path fill="none" stroke="#63b8ff" d="M571.01,-110.33C566.51,-103.28 560.04,-93.15 554.41,-84.33"/>
<polygon fill="#63b8ff" stroke="#63b8ff" points="557.51,-82.68 549.18,-76.13 551.61,-86.45 557.51,-82.68"/>
</a>
</g>
</g>
<!-- Node22 -->
<g id="Node000022" class="node">
<title>Node22</title>
<g id="a_Node000022"><a xlink:title=" ">
<polygon fill="#e0e0e0" stroke="#999999" points="647.25,-74.5 602,-74.5 602,-55.25 647.25,-55.25 647.25,-74.5"/>
<text xml:space="preserve" text-anchor="middle" x="624.62" y="-61" font-family="Helvetica,sans-Serif" font-size="10.00">cstring</text>
</a>
</g>
</g>
<!-- Node21&#45;&gt;Node22 -->
<g id="edge26_Node000021_Node000022" class="edge">
<title>Node21&#45;&gt;Node22</title>
<g id="a_edge26_Node000021_Node000022"><a xlink:title=" ">
<path fill="none" stroke="#63b8ff" d="M584.55,-110.33C591.18,-102.98 600.84,-92.26 609.01,-83.19"/>
<polygon fill="#63b8ff" stroke="#63b8ff" points="611.42,-85.75 615.51,-75.98 606.22,-81.07 611.42,-85.75"/>
</a>
</g>
</g>
<!-- Node21&#45;&gt;Node23 -->
<g id="edge27_Node000021_Node000023" class="edge">
<title>Node21&#45;&gt;Node23</title>
<g id="a_edge27_Node000021_Node000023"><a xlink:title=" ">
<path fill="none" stroke="#63b8ff" d="M540.89,-111.89C500.05,-103.59 430.9,-89.46 361.73,-74.93"/>
<polygon fill="#63b8ff" stroke="#63b8ff" points="362.62,-71.54 352.11,-72.9 361.17,-78.39 362.62,-71.54"/>
</a>
</g>
</g>
<!-- Node27&#45;&gt;Node14 -->
<g id="edge42_Node000027_Node000014" class="edge">
<title>Node27&#45;&gt;Node14</title>
<g id="a_edge42_Node000027_Node000014"><a xlink:title=" ">
<path fill="none" stroke="#63b8ff" d="M570.46,-220.56C592.92,-207.81 635.44,-184.1 672.62,-165.75 717.16,-143.77 849.61,-116.17 876.62,-74.5 890.43,-53.2 862.32,-34.52 837.5,-22.96"/>
<polygon fill="#63b8ff" stroke="#63b8ff" points="839.14,-19.86 828.58,-19.06 836.34,-26.27 839.14,-19.86"/>
</a>
</g>
</g>
<!-- Node27&#45;&gt;Node20 -->
<g id="edge41_Node000027_Node000020" class="edge">
<title>Node27&#45;&gt;Node20</title>
<g id="a_edge41_Node000027_Node000020"><a xlink:title=" ">
<path fill="none" stroke="#63b8ff" d="M552.31,-220.83C550.56,-214.17 548.08,-204.74 545.86,-196.28"/>
<polygon fill="#63b8ff" stroke="#63b8ff" points="549.3,-195.6 543.37,-186.82 542.53,-197.38 549.3,-195.6"/>
</a>
</g>
</g>
<!-- Node28&#45;&gt;Node5 -->
<g id="edge45_Node000028_Node000005" class="edge">
<title>Node28&#45;&gt;Node5</title>
<g id="a_edge45_Node000028_Node000005"><a xlink:title=" ">
<path fill="none" stroke="#63b8ff" d="M941.02,-276.05C948.2,-256.07 963.44,-206.01 952.62,-165.75 945.26,-138.35 940.96,-130.3 920.62,-110.5 907.23,-97.45 889.25,-87.1 873.54,-79.67"/>
<polygon fill="#63b8ff" stroke="#63b8ff" points="875.05,-76.51 864.5,-75.61 872.19,-82.9 875.05,-76.51"/>
</a>
</g>
</g>
<!-- Node28&#45;&gt;Node12 -->
<g id="edge44_Node000028_Node000012" class="edge">
<title>Node28&#45;&gt;Node12</title>
<g id="a_edge44_Node000028_Node000012"><a xlink:title=" ">
<path fill="none" stroke="#63b8ff" d="M945.45,-276.06C952.46,-267.56 962.28,-253.99 966.62,-240.25 976.61,-208.67 975.61,-198.13 968.62,-165.75 955.15,-103.28 935.66,-79.72 876.62,-55.25 726.48,7 670.09,-48.58 507,-19.3"/>
<polygon fill="#63b8ff" stroke="#63b8ff" points="508.06,-15.94 497.59,-17.53 506.76,-22.82 508.06,-15.94"/>
</a>
</g>
</g>
<!-- Node29 -->
<g id="Node000029" class="node">
<title>Node29</title>
<g id="a_Node000029"><a xlink:href="_descriptors_8hpp.html" target="_top" xlink:title=" ">
<polygon fill="white" stroke="#666666" points="916.12,-240.25 801.12,-240.25 801.12,-221 916.12,-221 916.12,-240.25"/>
<text xml:space="preserve" text-anchor="middle" x="858.62" y="-226.75" font-family="Helvetica,sans-Serif" font-size="10.00">armnn/Descriptors.hpp</text>
</a>
</g>
</g>
<!-- Node28&#45;&gt;Node29 -->
<g id="edge46_Node000028_Node000029" class="edge">
<title>Node28&#45;&gt;Node29</title>
<g id="a_edge46_Node000028_Node000029"><a xlink:title=" ">
<path fill="none" stroke="#63b8ff" d="M924.22,-275.84C912.53,-267.96 895.32,-256.36 881.46,-247.02"/>
<polygon fill="#63b8ff" stroke="#63b8ff" points="883.6,-244.24 873.35,-241.55 879.68,-250.04 883.6,-244.24"/>
</a>
</g>
</g>
<!-- Node29&#45;&gt;Node3 -->
<g id="edge50_Node000029_Node000003" class="edge">
<title>Node29&#45;&gt;Node3</title>
<g id="a_edge50_Node000029_Node000003"><a xlink:title=" ">
<path fill="none" stroke="#63b8ff" d="M800.78,-228.48C726.3,-225.7 593.49,-216.35 484.62,-185 479.1,-183.41 416.46,-153.37 378.47,-135.06"/>
<polygon fill="#63b8ff" stroke="#63b8ff" points="380.37,-132.09 369.84,-130.9 377.33,-138.4 380.37,-132.09"/>
</a>
</g>
</g>
<!-- Node29&#45;&gt;Node14 -->
<g id="edge55_Node000029_Node000014" class="edge">
<title>Node29&#45;&gt;Node14</title>
<g id="a_edge55_Node000029_Node000014"><a xlink:title=" ">
<path fill="none" stroke="#63b8ff" d="M900.7,-220.57C920.02,-214.09 941.14,-203.17 952.62,-185 969.73,-157.94 1038.87,-173.86 947.62,-55.25 922.15,-22.14 872.23,-13.05 838.89,-10.85"/>
<polygon fill="#63b8ff" stroke="#63b8ff" points="839.1,-7.36 828.95,-10.39 838.78,-14.35 839.1,-7.36"/>
</a>
</g>
</g>
<!-- Node29&#45;&gt;Node15 -->
<g id="edge51_Node000029_Node000015" class="edge">
<title>Node29&#45;&gt;Node15</title>
<g id="a_edge51_Node000029_Node000015"><a xlink:title=" ">
<path fill="none" stroke="#63b8ff" d="M800.97,-228.4C761.06,-224.78 708.83,-214.16 672.62,-185 643.99,-161.93 662.72,-136.41 636.62,-110.5 622.4,-96.37 602.85,-86.11 585.25,-79.01"/>
<polygon fill="#63b8ff" stroke="#63b8ff" points="586.63,-75.79 576.04,-75.53 584.16,-82.34 586.63,-75.79"/>
</a>
</g>
</g>
<!-- Node29&#45;&gt;Node18 -->
<g id="edge47_Node000029_Node000018" class="edge">
<title>Node29&#45;&gt;Node18</title>
<g id="a_edge47_Node000029_Node000018"><a xlink:title=" ">
<path fill="none" stroke="#63b8ff" d="M890.1,-220.53C907.4,-213.74 927.38,-202.55 937.62,-185 941.94,-177.61 940.36,-173.86 937.62,-165.75 927.78,-136.52 920.95,-128.11 895.62,-110.5 879.8,-99.49 834.98,-86.69 798.95,-77.63"/>
<polygon fill="#63b8ff" stroke="#63b8ff" points="800.11,-74.31 789.57,-75.3 798.43,-81.1 800.11,-74.31"/>
</a>
</g>
</g>
<!-- Node29&#45;&gt;Node20 -->
<g id="edge49_Node000029_Node000020" class="edge">
<title>Node29&#45;&gt;Node20</title>
<g id="a_edge49_Node000029_Node000020"><a xlink:title=" ">
<path fill="none" stroke="#63b8ff" d="M804.32,-220.53C747.19,-210.97 657.61,-195.96 599,-186.15"/>
<polygon fill="#63b8ff" stroke="#63b8ff" points="599.64,-182.71 589.2,-184.51 598.49,-189.61 599.64,-182.71"/>
</a>
</g>
</g>
<!-- Node29&#45;&gt;Node25 -->
<g id="edge54_Node000029_Node000025" class="edge">
<title>Node29&#45;&gt;Node25</title>
<g id="a_edge54_Node000029_Node000025"><a xlink:title=" ">
<path fill="none" stroke="#63b8ff" d="M881.05,-220.64C895.8,-213.41 913.91,-201.69 922.62,-185 932.51,-166.05 913.25,-148.08 894.68,-136.06"/>
<polygon fill="#63b8ff" stroke="#63b8ff" points="896.58,-133.11 886.2,-130.96 892.97,-139.11 896.58,-133.11"/>
</a>
</g>
</g>
<!-- Node30 -->
<g id="Node000030" class="node">
<title>Node30</title>
<g id="a_Node000030"><a xlink:href="_descriptors_fwd_8hpp.html" target="_top" xlink:title=" ">
<polygon fill="white" stroke="#666666" points="785.5,-185 681.75,-185 681.75,-165.75 785.5,-165.75 785.5,-185"/>
<text xml:space="preserve" text-anchor="middle" x="733.62" y="-171.5" font-family="Helvetica,sans-Serif" font-size="10.00">DescriptorsFwd.hpp</text>
</a>
</g>
</g>
<!-- Node29&#45;&gt;Node30 -->
<g id="edge48_Node000029_Node000030" class="edge">
<title>Node29&#45;&gt;Node30</title>
<g id="a_edge48_Node000029_Node000030"><a xlink:title=" ">
<path fill="none" stroke="#63b8ff" d="M837.42,-220.59C817.67,-212.18 787.95,-199.52 765.37,-189.9"/>
<polygon fill="#63b8ff" stroke="#63b8ff" points="766.9,-186.74 756.33,-186.05 764.15,-193.18 766.9,-186.74"/>
</a>
</g>
</g>
<!-- Node31 -->
<g id="Node000031" class="node">
<title>Node31</title>
<g id="a_Node000031"><a xlink:title=" ">
<polygon fill="#e0e0e0" stroke="#999999" points="849.25,-185 804,-185 804,-165.75 849.25,-165.75 849.25,-185"/>
<text xml:space="preserve" text-anchor="middle" x="826.62" y="-171.5" font-family="Helvetica,sans-Serif" font-size="10.00">cstdint</text>
</a>
</g>
</g>
<!-- Node29&#45;&gt;Node31 -->
<g id="edge52_Node000029_Node000031" class="edge">
<title>Node29&#45;&gt;Node31</title>
<g id="a_edge52_Node000029_Node000031"><a xlink:title=" ">
<path fill="none" stroke="#63b8ff" d="M853.34,-220.83C849.15,-213.86 843.15,-203.87 837.89,-195.12"/>
<polygon fill="#63b8ff" stroke="#63b8ff" points="840.95,-193.43 832.8,-186.66 834.95,-197.03 840.95,-193.43"/>
</a>
</g>
</g>
<!-- Node32 -->
<g id="Node000032" class="node">
<title>Node32</title>
<g id="a_Node000032"><a xlink:title=" ">
<polygon fill="#e0e0e0" stroke="#999999" points="913.62,-185 867.62,-185 867.62,-165.75 913.62,-165.75 913.62,-185"/>
<text xml:space="preserve" text-anchor="middle" x="890.62" y="-171.5" font-family="Helvetica,sans-Serif" font-size="10.00">iterator</text>
</a>
</g>
</g>
<!-- Node29&#45;&gt;Node32 -->
<g id="edge53_Node000029_Node000032" class="edge">
<title>Node29&#45;&gt;Node32</title>
<g id="a_edge53_Node000029_Node000032"><a xlink:title=" ">
<path fill="none" stroke="#63b8ff" d="M863.91,-220.83C868.1,-213.86 874.1,-203.87 879.36,-195.12"/>
<polygon fill="#63b8ff" stroke="#63b8ff" points="882.3,-197.03 884.45,-186.66 876.3,-193.43 882.3,-197.03"/>
</a>
</g>
</g>
<!-- Node33&#45;&gt;Node2 -->
<g id="edge57_Node000033_Node000002" class="edge">
<title>Node33&#45;&gt;Node2</title>
<g id="a_edge57_Node000033_Node000002"><a xlink:title=" ">
<path fill="none" stroke="#63b8ff" d="M440.45,-275.84C431.86,-268.22 419.36,-257.12 409.02,-247.95"/>
<polygon fill="#63b8ff" stroke="#63b8ff" points="411.59,-245.55 401.78,-241.53 406.94,-250.79 411.59,-245.55"/>
</a>
</g>
</g>
<!-- Node33&#45;&gt;Node3 -->
<g id="edge58_Node000033_Node000003" class="edge">
<title>Node33&#45;&gt;Node3</title>
<g id="a_edge58_Node000033_Node000003"><a xlink:title=" ">
<path fill="none" stroke="#63b8ff" d="M447.78,-275.86C443.6,-263.18 435.13,-239.54 424.62,-221 407.16,-190.17 381.44,-158.01 365.11,-138.77"/>
<polygon fill="#63b8ff" stroke="#63b8ff" points="367.89,-136.64 358.72,-131.35 362.59,-141.21 367.89,-136.64"/>
</a>
</g>
</g>
<!-- Node33&#45;&gt;Node27 -->
<g id="edge59_Node000033_Node000027" class="edge">
<title>Node33&#45;&gt;Node27</title>
<g id="a_edge59_Node000033_Node000027"><a xlink:title=" ">
<path fill="none" stroke="#63b8ff" d="M468.27,-275.84C484.25,-267.66 508.08,-255.46 526.66,-245.94"/>
<polygon fill="#63b8ff" stroke="#63b8ff" points="528.24,-249.07 535.55,-241.39 525.05,-242.83 528.24,-249.07"/>
</a>
</g>
</g>
</g>
</svg>
