<?xml version="1.0" encoding="UTF-8" standalone="no"?>
<!DOCTYPE svg PUBLIC "-//W3C//DTD SVG 1.1//EN"
 "http://www.w3.org/Graphics/SVG/1.1/DTD/svg11.dtd">
<!-- Generated by graphviz version 14.1.1 (20251213.1925)
 -->
<!-- Title: src/armnn/ProfilingEvent.hpp Pages: 1 -->
<svg width="1077pt" height="204pt"
 viewBox="0.00 0.00 1077.00 204.00" xmlns="http://www.w3.org/2000/svg" xmlns:xlink="http://www.w3.org/1999/xlink">
<g id="graph0" class="graph" transform="scale(1 1) rotate(0) translate(4 200.25)">
<title>src/armnn/ProfilingEvent.hpp</title>
<!-- Node1 -->
<g id="Node000001" class="node">
<title>Node1</title>
<g id="a_Node000001"><a xlink:title=" ">
<polygon fill="#999999" stroke="#666666" points="454,-196.25 312,-196.25 312,-177 454,-177 454,-196.25"/>
<text xml:space="preserve" text-anchor="middle" x="383" y="-182.75" font-family="Helvetica,sans-Serif" font-size="10.00">src/armnn/ProfilingEvent.hpp</text>
</a>
</g>
</g>
<!-- Node2 -->
<g id="Node000002" class="node">
<title>Node2</title>
<g id="a_Node000002"><a xlink:title=" ">
<polygon fill="#e0e0e0" stroke="#999999" points="40,-135.38 0,-135.38 0,-116.12 40,-116.12 40,-135.38"/>
<text xml:space="preserve" text-anchor="middle" x="20" y="-121.88" font-family="Helvetica,sans-Serif" font-size="10.00">stack</text>
</a>
</g>
</g>
<!-- Node1&#45;&gt;Node2 -->
<g id="edge1_Node000001_Node000002" class="edge">
<title>Node1&#45;&gt;Node2</title>
<g id="a_edge1_Node000001_Node000002"><a xlink:title=" ">
<path fill="none" stroke="#63b8ff" d="M311.66,-181.36C244.28,-176.06 140.9,-164.66 54,-141 52.61,-140.62 51.2,-140.2 49.79,-139.74"/>
<polygon fill="#63b8ff" stroke="#63b8ff" points="51.12,-136.51 40.53,-136.31 48.69,-143.07 51.12,-136.51"/>
</a>
</g>
</g>
<!-- Node3 -->
<g id="Node000003" class="node">
<title>Node3</title>
<g id="a_Node000003"><a xlink:title=" ">
<polygon fill="#e0e0e0" stroke="#999999" points="158.5,-19.25 115.5,-19.25 115.5,0 158.5,0 158.5,-19.25"/>
<text xml:space="preserve" text-anchor="middle" x="137" y="-5.75" font-family="Helvetica,sans-Serif" font-size="10.00">vector</text>
</a>
</g>
</g>
<!-- Node1&#45;&gt;Node3 -->
<g id="edge2_Node000001_Node000003" class="edge">
<title>Node1&#45;&gt;Node3</title>
<g id="a_edge2_Node000001_Node000003"><a xlink:title=" ">
<path fill="none" stroke="#63b8ff" d="M311.51,-182.74C239.34,-175.41 132.28,-151.35 87,-74.5 76.51,-56.69 94.49,-38.3 111.74,-25.85"/>
<polygon fill="#63b8ff" stroke="#63b8ff" points="113.46,-28.91 119.81,-20.43 109.56,-23.1 113.46,-28.91"/>
</a>
</g>
</g>
<!-- Node4 -->
<g id="Node000004" class="node">
<title>Node4</title>
<g id="a_Node000004"><a xlink:title=" ">
<polygon fill="#e0e0e0" stroke="#999999" points="485.62,-74.5 440.38,-74.5 440.38,-55.25 485.62,-55.25 485.62,-74.5"/>
<text xml:space="preserve" text-anchor="middle" x="463" y="-61" font-family="Helvetica,sans-Serif" font-size="10.00">chrono</text>
</a>
</g>
</g>
<!-- Node1&#45;&gt;Node4 -->
<g id="edge3_Node000001_Node000004" class="edge">
<title>Node1&#45;&gt;Node4</title>
<g id="a_edge3_Node000001_Node000004"><a xlink:title=" ">
<path fill="none" stroke="#63b8ff" d="M389.01,-176.62C402.04,-157.12 433.11,-110.61 450.56,-84.49"/>
<polygon fill="#63b8ff" stroke="#63b8ff" points="453.43,-86.5 456.08,-76.24 447.61,-82.61 453.43,-86.5"/>
</a>
</g>
</g>
<!-- Node5 -->
<g id="Node000005" class="node">
<title>Node5</title>
<g id="a_Node000005"><a xlink:title=" ">
<polygon fill="#e0e0e0" stroke="#999999" points="953.62,-19.25 902.38,-19.25 902.38,0 953.62,0 953.62,-19.25"/>
<text xml:space="preserve" text-anchor="middle" x="928" y="-5.75" font-family="Helvetica,sans-Serif" font-size="10.00">memory</text>
</a>
</g>
</g>
<!-- Node1&#45;&gt;Node5 -->
<g id="edge4_Node000001_Node000005" class="edge">
<title>Node1&#45;&gt;Node5</title>
<g id="a_edge4_Node000001_Node000005"><a xlink:title=" ">
<path fill="none" stroke="#63b8ff" d="M454.13,-177.93C578.31,-163.28 827.9,-127.95 896,-74.5 910.02,-63.49 918.39,-44.71 923.03,-30.35"/>
<polygon fill="#63b8ff" stroke="#63b8ff" points="926.3,-31.63 925.68,-21.05 919.57,-29.71 926.3,-31.63"/>
</a>
</g>
</g>
<!-- Node6 -->
<g id="Node000006" class="node">
<title>Node6</title>
<g id="a_Node000006"><a xlink:title=" ">
<polygon fill="#e0e0e0" stroke="#999999" points="1068.75,-141 943.25,-141 943.25,-110.5 1068.75,-110.5 1068.75,-141"/>
<text xml:space="preserve" text-anchor="start" x="951.25" y="-127.5" font-family="Helvetica,sans-Serif" font-size="10.00">common/include/Profiling</text>
<text xml:space="preserve" text-anchor="middle" x="1006" y="-116.25" font-family="Helvetica,sans-Serif" font-size="10.00">Guid.hpp</text>
</a>
</g>
</g>
<!-- Node1&#45;&gt;Node6 -->
<g id="edge5_Node000001_Node000006" class="edge">
<title>Node1&#45;&gt;Node6</title>
<g id="a_edge5_Node000001_Node000006"><a xlink:title=" ">
<path fill="none" stroke="#63b8ff" d="M454.36,-182.11C558.87,-176.43 759.54,-163.55 929,-141 930,-140.87 931.01,-140.73 932.03,-140.59"/>
<polygon fill="#63b8ff" stroke="#63b8ff" points="932.18,-144.1 941.55,-139.16 931.15,-137.18 932.18,-144.1"/>
</a>
</g>
</g>
<!-- Node7 -->
<g id="Node000007" class="node">
<title>Node7</title>
<g id="a_Node000007"><a xlink:href="_optional_8hpp.html" target="_top" xlink:title=" ">
<polygon fill="white" stroke="#666666" points="374.38,-135.38 273.62,-135.38 273.62,-116.12 374.38,-116.12 374.38,-135.38"/>
<text xml:space="preserve" text-anchor="middle" x="324" y="-121.88" font-family="Helvetica,sans-Serif" font-size="10.00">armnn/Optional.hpp</text>
</a>
</g>
</g>
<!-- Node1&#45;&gt;Node7 -->
<g id="edge6_Node000001_Node000007" class="edge">
<title>Node1&#45;&gt;Node7</title>
<g id="a_edge6_Node000001_Node000007"><a xlink:title=" ">
<path fill="none" stroke="#63b8ff" d="M374.04,-176.68C365.29,-167.95 351.75,-154.44 340.96,-143.68"/>
<polygon fill="#63b8ff" stroke="#63b8ff" points="343.67,-141.43 334.12,-136.85 338.72,-146.39 343.67,-141.43"/>
</a>
</g>
</g>
<!-- Node14 -->
<g id="Node000014" class="node">
<title>Node14</title>
<g id="a_Node000014"><a xlink:href="_instrument_8hpp.html" target="_top" xlink:title=" ">
<polygon fill="white" stroke="#666666" points="177.62,-74.5 96.38,-74.5 96.38,-55.25 177.62,-55.25 177.62,-74.5"/>
<text xml:space="preserve" text-anchor="middle" x="137" y="-61" font-family="Helvetica,sans-Serif" font-size="10.00">Instrument.hpp</text>
</a>
</g>
</g>
<!-- Node1&#45;&gt;Node14 -->
<g id="edge13_Node000001_Node000014" class="edge">
<title>Node1&#45;&gt;Node14</title>
<g id="a_edge13_Node000001_Node000014"><a xlink:title=" ">
<path fill="none" stroke="#63b8ff" d="M355.27,-176.63C331,-168.4 295.03,-155.36 265,-141 226.8,-122.73 184.89,-96.95 159.78,-80.84"/>
<polygon fill="#63b8ff" stroke="#63b8ff" points="161.98,-78.09 151.68,-75.6 158.17,-83.97 161.98,-78.09"/>
</a>
</g>
</g>
<!-- Node15 -->
<g id="Node000015" class="node">
<title>Node15</title>
<g id="a_Node000015"><a xlink:href="_types_8hpp.html" target="_top" xlink:title=" ">
<polygon fill="white" stroke="#666666" points="595.5,-135.38 504.5,-135.38 504.5,-116.12 595.5,-116.12 595.5,-135.38"/>
<text xml:space="preserve" text-anchor="middle" x="550" y="-121.88" font-family="Helvetica,sans-Serif" font-size="10.00">armnn/Types.hpp</text>
</a>
</g>
</g>
<!-- Node1&#45;&gt;Node15 -->
<g id="edge16_Node000001_Node000015" class="edge">
<title>Node1&#45;&gt;Node15</title>
<g id="a_edge16_Node000001_Node000015"><a xlink:title=" ">
<path fill="none" stroke="#63b8ff" d="M408.73,-176.55C436.8,-166.66 481.96,-150.74 513.65,-139.57"/>
<polygon fill="#63b8ff" stroke="#63b8ff" points="514.55,-142.96 522.82,-136.33 512.22,-136.36 514.55,-142.96"/>
</a>
</g>
</g>
<!-- Node8 -->
<g id="Node000008" class="node">
<title>Node8</title>
<g id="a_Node000008"><a xlink:href="_exceptions_8hpp.html" target="_top" xlink:title=" ">
<polygon fill="white" stroke="#666666" points="422.75,-74.5 339.25,-74.5 339.25,-55.25 422.75,-55.25 422.75,-74.5"/>
<text xml:space="preserve" text-anchor="middle" x="381" y="-61" font-family="Helvetica,sans-Serif" font-size="10.00">Exceptions.hpp</text>
</a>
</g>
</g>
<!-- Node7&#45;&gt;Node8 -->
<g id="edge7_Node000007_Node000008" class="edge">
<title>Node7&#45;&gt;Node8</title>
<g id="a_edge7_Node000007_Node000008"><a xlink:title=" ">
<path fill="none" stroke="#63b8ff" d="M332.66,-115.81C341.03,-107.16 353.93,-93.84 364.3,-83.12"/>
<polygon fill="#63b8ff" stroke="#63b8ff" points="366.77,-85.61 371.21,-75.99 361.74,-80.74 366.77,-85.61"/>
</a>
</g>
</g>
<!-- Node12 -->
<g id="Node000012" class="node">
<title>Node12</title>
<g id="a_Node000012"><a xlink:title=" ">
<polygon fill="#e0e0e0" stroke="#999999" points="240.62,-74.5 195.38,-74.5 195.38,-55.25 240.62,-55.25 240.62,-74.5"/>
<text xml:space="preserve" text-anchor="middle" x="218" y="-61" font-family="Helvetica,sans-Serif" font-size="10.00">cstring</text>
</a>
</g>
</g>
<!-- Node7&#45;&gt;Node12 -->
<g id="edge11_Node000007_Node000012" class="edge">
<title>Node7&#45;&gt;Node12</title>
<g id="a_edge11_Node000007_Node000012"><a xlink:title=" ">
<path fill="none" stroke="#63b8ff" d="M307.9,-115.81C291.01,-106.43 264.2,-91.54 244.25,-80.45"/>
<polygon fill="#63b8ff" stroke="#63b8ff" points="246.02,-77.43 235.57,-75.64 242.62,-83.55 246.02,-77.43"/>
</a>
</g>
</g>
<!-- Node13 -->
<g id="Node000013" class="node">
<title>Node13</title>
<g id="a_Node000013"><a xlink:title=" ">
<polygon fill="#e0e0e0" stroke="#999999" points="320.88,-74.5 259.12,-74.5 259.12,-55.25 320.88,-55.25 320.88,-74.5"/>
<text xml:space="preserve" text-anchor="middle" x="290" y="-61" font-family="Helvetica,sans-Serif" font-size="10.00">type_traits</text>
</a>
</g>
</g>
<!-- Node7&#45;&gt;Node13 -->
<g id="edge12_Node000007_Node000013" class="edge">
<title>Node7&#45;&gt;Node13</title>
<g id="a_edge12_Node000007_Node000013"><a xlink:title=" ">
<path fill="none" stroke="#63b8ff" d="M318.84,-115.81C314.09,-107.6 306.91,-95.16 300.9,-84.75"/>
<polygon fill="#63b8ff" stroke="#63b8ff" points="304,-83.12 295.97,-76.21 297.94,-86.62 304,-83.12"/>
</a>
</g>
</g>
<!-- Node9 -->
<g id="Node000009" class="node">
<title>Node9</title>
<g id="a_Node000009"><a xlink:title=" ">
<polygon fill="#e0e0e0" stroke="#999999" points="406.62,-19.25 355.38,-19.25 355.38,0 406.62,0 406.62,-19.25"/>
<text xml:space="preserve" text-anchor="middle" x="381" y="-5.75" font-family="Helvetica,sans-Serif" font-size="10.00">sstream</text>
</a>
</g>
</g>
<!-- Node8&#45;&gt;Node9 -->
<g id="edge8_Node000008_Node000009" class="edge">
<title>Node8&#45;&gt;Node9</title>
<g id="a_edge8_Node000008_Node000009"><a xlink:title=" ">
<path fill="none" stroke="#63b8ff" d="M381,-55.08C381,-48.57 381,-39.42 381,-31.12"/>
<polygon fill="#63b8ff" stroke="#63b8ff" points="384.5,-31.12 381,-21.12 377.5,-31.12 384.5,-31.12"/>
</a>
</g>
</g>
<!-- Node10 -->
<g id="Node000010" class="node">
<title>Node10</title>
<g id="a_Node000010"><a xlink:title=" ">
<polygon fill="#e0e0e0" stroke="#999999" points="483.38,-19.25 424.62,-19.25 424.62,0 483.38,0 483.38,-19.25"/>
<text xml:space="preserve" text-anchor="middle" x="454" y="-5.75" font-family="Helvetica,sans-Serif" font-size="10.00">stdexcept</text>
</a>
</g>
</g>
<!-- Node8&#45;&gt;Node10 -->
<g id="edge9_Node000008_Node000010" class="edge">
<title>Node8&#45;&gt;Node10</title>
<g id="a_edge9_Node000008_Node000010"><a xlink:title=" ">
<path fill="none" stroke="#63b8ff" d="M393.38,-54.84C404.15,-46.99 419.97,-35.45 432.75,-26.12"/>
<polygon fill="#63b8ff" stroke="#63b8ff" points="434.56,-29.14 440.58,-20.42 430.44,-23.48 434.56,-29.14"/>
</a>
</g>
</g>
<!-- Node11 -->
<g id="Node000011" class="node">
<title>Node11</title>
<g id="a_Node000011"><a xlink:title=" ">
<polygon fill="#e0e0e0" stroke="#999999" points="337,-19.25 297,-19.25 297,0 337,0 337,-19.25"/>
<text xml:space="preserve" text-anchor="middle" x="317" y="-5.75" font-family="Helvetica,sans-Serif" font-size="10.00">string</text>
</a>
</g>
</g>
<!-- Node8&#45;&gt;Node11 -->
<g id="edge10_Node000008_Node000011" class="edge">
<title>Node8&#45;&gt;Node11</title>
<g id="a_edge10_Node000008_Node000011"><a xlink:title=" ">
<path fill="none" stroke="#63b8ff" d="M370.14,-54.84C360.89,-47.15 347.38,-35.9 336.29,-26.68"/>
<polygon fill="#63b8ff" stroke="#63b8ff" points="338.79,-24.2 328.86,-20.49 334.31,-29.58 338.79,-24.2"/>
</a>
</g>
</g>
<!-- Node14&#45;&gt;Node3 -->
<g id="edge15_Node000014_Node000003" class="edge">
<title>Node14&#45;&gt;Node3</title>
<g id="a_edge15_Node000014_Node000003"><a xlink:title=" ">
<path fill="none" stroke="#63b8ff" d="M137,-55.08C137,-48.57 137,-39.42 137,-31.12"/>
<polygon fill="#63b8ff" stroke="#63b8ff" points="140.5,-31.12 137,-21.12 133.5,-31.12 140.5,-31.12"/>
</a>
</g>
</g>
<!-- Node14&#45;&gt;Node11 -->
<g id="edge14_Node000014_Node000011" class="edge">
<title>Node14&#45;&gt;Node11</title>
<g id="a_edge14_Node000014_Node000011"><a xlink:title=" ">
<path fill="none" stroke="#63b8ff" d="M167.53,-54.84C200.46,-45.1 252.61,-29.67 285.8,-19.86"/>
<polygon fill="#63b8ff" stroke="#63b8ff" points="286.64,-23.26 295.23,-17.06 284.65,-16.55 286.64,-23.26"/>
</a>
</g>
</g>
<!-- Node15&#45;&gt;Node4 -->
<g id="edge20_Node000015_Node000004" class="edge">
<title>Node15&#45;&gt;Node4</title>
<g id="a_edge20_Node000015_Node000004"><a xlink:title=" ">
<path fill="none" stroke="#63b8ff" d="M536.79,-115.81C523.25,-106.64 501.93,-92.22 485.68,-81.23"/>
<polygon fill="#63b8ff" stroke="#63b8ff" points="487.83,-78.46 477.59,-75.75 483.91,-84.25 487.83,-78.46"/>
</a>
</g>
</g>
<!-- Node15&#45;&gt;Node8 -->
<g id="edge28_Node000015_Node000008" class="edge">
<title>Node15&#45;&gt;Node8</title>
<g id="a_edge28_Node000015_Node000008"><a xlink:title=" ">
<path fill="none" stroke="#63b8ff" d="M523.96,-115.68C495.56,-105.78 449.85,-89.86 417.79,-78.69"/>
<polygon fill="#63b8ff" stroke="#63b8ff" points="419.09,-75.44 408.49,-75.45 416.79,-82.05 419.09,-75.44"/>
</a>
</g>
</g>
<!-- Node16 -->
<g id="Node000016" class="node">
<title>Node16</title>
<g id="a_Node000016"><a xlink:title=" ">
<polygon fill="#e0e0e0" stroke="#999999" points="541.88,-74.5 504.12,-74.5 504.12,-55.25 541.88,-55.25 541.88,-74.5"/>
<text xml:space="preserve" text-anchor="middle" x="523" y="-61" font-family="Helvetica,sans-Serif" font-size="10.00">array</text>
</a>
</g>
</g>
<!-- Node15&#45;&gt;Node16 -->
<g id="edge17_Node000015_Node000016" class="edge">
<title>Node15&#45;&gt;Node16</title>
<g id="a_edge17_Node000015_Node000016"><a xlink:title=" ">
<path fill="none" stroke="#63b8ff" d="M545.9,-115.81C542.17,-107.68 536.55,-95.42 531.81,-85.08"/>
<polygon fill="#63b8ff" stroke="#63b8ff" points="535.12,-83.91 527.77,-76.28 528.76,-86.83 535.12,-83.91"/>
</a>
</g>
</g>
<!-- Node17 -->
<g id="Node000017" class="node">
<title>Node17</title>
<g id="a_Node000017"><a xlink:title=" ">
<polygon fill="#e0e0e0" stroke="#999999" points="618,-74.5 560,-74.5 560,-55.25 618,-55.25 618,-74.5"/>
<text xml:space="preserve" text-anchor="middle" x="589" y="-61" font-family="Helvetica,sans-Serif" font-size="10.00">functional</text>
</a>
</g>
</g>
<!-- Node15&#45;&gt;Node17 -->
<g id="edge18_Node000015_Node000017" class="edge">
<title>Node15&#45;&gt;Node17</title>
<g id="a_edge18_Node000015_Node000017"><a xlink:title=" ">
<path fill="none" stroke="#63b8ff" d="M555.92,-115.81C561.42,-107.51 569.78,-94.89 576.71,-84.42"/>
<polygon fill="#63b8ff" stroke="#63b8ff" points="579.58,-86.43 582.19,-76.16 573.74,-82.57 579.58,-86.43"/>
</a>
</g>
</g>
<!-- Node18 -->
<g id="Node000018" class="node">
<title>Node18</title>
<g id="a_Node000018"><a xlink:title=" ">
<polygon fill="#e0e0e0" stroke="#999999" points="684.12,-74.5 635.88,-74.5 635.88,-55.25 684.12,-55.25 684.12,-74.5"/>
<text xml:space="preserve" text-anchor="middle" x="660" y="-61" font-family="Helvetica,sans-Serif" font-size="10.00">stdint.h</text>
</a>
</g>
</g>
<!-- Node15&#45;&gt;Node18 -->
<g id="edge19_Node000015_Node000018" class="edge">
<title>Node15&#45;&gt;Node18</title>
<g id="a_edge19_Node000015_Node000018"><a xlink:title=" ">
<path fill="none" stroke="#63b8ff" d="M566.71,-115.81C584.31,-106.38 612.31,-91.4 633.05,-80.3"/>
<polygon fill="#63b8ff" stroke="#63b8ff" points="634.64,-83.42 641.8,-75.62 631.33,-77.25 634.64,-83.42"/>
</a>
</g>
</g>
<!-- Node19 -->
<g id="Node000019" class="node">
<title>Node19</title>
<g id="a_Node000019"><a xlink:href="_backend_id_8hpp.html" target="_top" xlink:title=" ">
<polygon fill="white" stroke="#666666" points="886.62,-74.5 805.38,-74.5 805.38,-55.25 886.62,-55.25 886.62,-74.5"/>
<text xml:space="preserve" text-anchor="middle" x="846" y="-61" font-family="Helvetica,sans-Serif" font-size="10.00">BackendId.hpp</text>
</a>
</g>
</g>
<!-- Node15&#45;&gt;Node19 -->
<g id="edge21_Node000015_Node000019" class="edge">
<title>Node15&#45;&gt;Node19</title>
<g id="a_edge21_Node000015_Node000019"><a xlink:title=" ">
<path fill="none" stroke="#63b8ff" d="M595.6,-115.68C649.16,-105.03 737.8,-87.4 793.99,-76.22"/>
<polygon fill="#63b8ff" stroke="#63b8ff" points="794.51,-79.69 803.63,-74.3 793.14,-72.82 794.51,-79.69"/>
</a>
</g>
</g>
<!-- Node23 -->
<g id="Node000023" class="node">
<title>Node23</title>
<g id="a_Node000023"><a xlink:href="_deprecated_8hpp.html" target="_top" xlink:title=" ">
<polygon fill="white" stroke="#666666" points="787.5,-74.5 702.5,-74.5 702.5,-55.25 787.5,-55.25 787.5,-74.5"/>
<text xml:space="preserve" text-anchor="middle" x="745" y="-61" font-family="Helvetica,sans-Serif" font-size="10.00">Deprecated.hpp</text>
</a>
</g>
</g>
<!-- Node15&#45;&gt;Node23 -->
<g id="edge29_Node000015_Node000023" class="edge">
<title>Node15&#45;&gt;Node23</title>
<g id="a_edge29_Node000015_Node000023"><a xlink:title=" ">
<path fill="none" stroke="#63b8ff" d="M580.04,-115.68C613.25,-105.65 666.94,-89.44 704,-78.25"/>
<polygon fill="#63b8ff" stroke="#63b8ff" points="704.91,-81.63 713.48,-75.39 702.89,-74.93 704.91,-81.63"/>
</a>
</g>
</g>
<!-- Node19&#45;&gt;Node3 -->
<g id="edge27_Node000019_Node000003" class="edge">
<title>Node19&#45;&gt;Node3</title>
<g id="a_edge27_Node000019_Node000003"><a xlink:title=" ">
<path fill="none" stroke="#63b8ff" d="M804.88,-56.31C802.21,-55.92 799.57,-55.56 797,-55.25 734.52,-47.66 295.15,-20.35 170.12,-12.66"/>
<polygon fill="#63b8ff" stroke="#63b8ff" points="170.41,-9.17 160.21,-12.05 169.98,-16.15 170.41,-9.17"/>
</a>
</g>
</g>
<!-- Node19&#45;&gt;Node5 -->
<g id="edge22_Node000019_Node000005" class="edge">
<title>Node19&#45;&gt;Node5</title>
<g id="a_edge22_Node000019_Node000005"><a xlink:title=" ">
<path fill="none" stroke="#63b8ff" d="M859.91,-54.84C872.16,-46.89 890.25,-35.14 904.71,-25.75"/>
<polygon fill="#63b8ff" stroke="#63b8ff" points="906.27,-28.91 912.75,-20.53 902.46,-23.04 906.27,-28.91"/>
</a>
</g>
</g>
<!-- Node19&#45;&gt;Node11 -->
<g id="edge25_Node000019_Node000011" class="edge">
<title>Node19&#45;&gt;Node11</title>
<g id="a_edge25_Node000019_Node000011"><a xlink:title=" ">
<path fill="none" stroke="#63b8ff" d="M805.14,-56.38C802.39,-55.97 799.66,-55.59 797,-55.25 601.14,-30.25 545.67,-55.18 348.49,-19.33"/>
<polygon fill="#63b8ff" stroke="#63b8ff" points="349.42,-15.94 338.95,-17.56 348.15,-22.83 349.42,-15.94"/>
</a>
</g>
</g>
<!-- Node20 -->
<g id="Node000020" class="node">
<title>Node20</title>
<g id="a_Node000020"><a xlink:title=" ">
<polygon fill="#e0e0e0" stroke="#999999" points="741.62,-19.25 690.38,-19.25 690.38,0 741.62,0 741.62,-19.25"/>
<text xml:space="preserve" text-anchor="middle" x="716" y="-5.75" font-family="Helvetica,sans-Serif" font-size="10.00">ostream</text>
</a>
</g>
</g>
<!-- Node19&#45;&gt;Node20 -->
<g id="edge23_Node000019_Node000020" class="edge">
<title>Node19&#45;&gt;Node20</title>
<g id="a_edge23_Node000019_Node000020"><a xlink:title=" ">
<path fill="none" stroke="#63b8ff" d="M823.95,-54.84C803.31,-46.39 772.22,-33.65 748.7,-24.02"/>
<polygon fill="#63b8ff" stroke="#63b8ff" points="750.14,-20.83 739.56,-20.28 747.49,-27.31 750.14,-20.83"/>
</a>
</g>
</g>
<!-- Node21 -->
<g id="Node000021" class="node">
<title>Node21</title>
<g id="a_Node000021"><a xlink:title=" ">
<polygon fill="#e0e0e0" stroke="#999999" points="788.75,-19.25 759.25,-19.25 759.25,0 788.75,0 788.75,-19.25"/>
<text xml:space="preserve" text-anchor="middle" x="774" y="-5.75" font-family="Helvetica,sans-Serif" font-size="10.00">set</text>
</a>
</g>
</g>
<!-- Node19&#45;&gt;Node21 -->
<g id="edge24_Node000019_Node000021" class="edge">
<title>Node19&#45;&gt;Node21</title>
<g id="a_edge24_Node000019_Node000021"><a xlink:title=" ">
<path fill="none" stroke="#63b8ff" d="M833.79,-54.84C823.17,-46.99 807.56,-35.45 794.96,-26.12"/>
<polygon fill="#63b8ff" stroke="#63b8ff" points="797.37,-23.56 787.25,-20.42 793.21,-29.19 797.37,-23.56"/>
</a>
</g>
</g>
<!-- Node22 -->
<g id="Node000022" class="node">
<title>Node22</title>
<g id="a_Node000022"><a xlink:title=" ">
<polygon fill="#e0e0e0" stroke="#999999" points="884.75,-19.25 807.25,-19.25 807.25,0 884.75,0 884.75,-19.25"/>
<text xml:space="preserve" text-anchor="middle" x="846" y="-5.75" font-family="Helvetica,sans-Serif" font-size="10.00">unordered_set</text>
</a>
</g>
</g>
<!-- Node19&#45;&gt;Node22 -->
<g id="edge26_Node000019_Node000022" class="edge">
<title>Node19&#45;&gt;Node22</title>
<g id="a_edge26_Node000019_Node000022"><a xlink:title=" ">
<path fill="none" stroke="#63b8ff" d="M846,-55.08C846,-48.57 846,-39.42 846,-31.12"/>
<polygon fill="#63b8ff" stroke="#63b8ff" points="849.5,-31.12 846,-21.12 842.5,-31.12 849.5,-31.12"/>
</a>
</g>
</g>
</g>
</svg>
