<?xml version="1.0" encoding="UTF-8" standalone="no"?>
<!DOCTYPE svg PUBLIC "-//W3C//DTD SVG 1.1//EN"
 "http://www.w3.org/Graphics/SVG/1.1/DTD/svg11.dtd">
<!-- Generated by graphviz version 14.1.1 (20251213.1925)
 -->
<!-- Title: src/backends/reference/workloads/RefPadWorkload.hpp Pages: 1 -->
<svg width="332pt" height="172pt"
 viewBox="0.00 0.00 332.00 172.00" xmlns="http://www.w3.org/2000/svg" xmlns:xlink="http://www.w3.org/1999/xlink">
<g id="graph0" class="graph" transform="scale(1 1) rotate(0) translate(4 167.5)">
<title>src/backends/reference/workloads/RefPadWorkload.hpp</title>
<!-- Node1 -->
<g id="Node000001" class="node">
<title>Node1</title>
<g id="a_Node000001"><a xlink:title=" ">
<polygon fill="#999999" stroke="#666666" points="243.5,-163.5 85,-163.5 85,-133 243.5,-133 243.5,-163.5"/>
<text xml:space="preserve" text-anchor="start" x="93" y="-150" font-family="Helvetica,sans-Serif" font-size="10.00">src/backends/reference</text>
<text xml:space="preserve" text-anchor="middle" x="164.25" y="-138.75" font-family="Helvetica,sans-Serif" font-size="10.00">/workloads/RefPadWorkload.hpp</text>
</a>
</g>
</g>
<!-- Node2 -->
<g id="Node000002" class="node">
<title>Node2</title>
<g id="a_Node000002"><a xlink:href="_ref_pad_workload_8cpp.html" target="_top" xlink:title=" ">
<polygon fill="white" stroke="#666666" points="158.5,-97 0,-97 0,-66.5 158.5,-66.5 158.5,-97"/>
<text xml:space="preserve" text-anchor="start" x="8" y="-83.5" font-family="Helvetica,sans-Serif" font-size="10.00">src/backends/reference</text>
<text xml:space="preserve" text-anchor="middle" x="79.25" y="-72.25" font-family="Helvetica,sans-Serif" font-size="10.00">/workloads/RefPadWorkload.cpp</text>
</a>
</g>
</g>
<!-- Node1&#45;&gt;Node2 -->
<g id="edge1_Node000001_Node000002" class="edge">
<title>Node1&#45;&gt;Node2</title>
<g id="a_edge1_Node000001_Node000002"><a xlink:title=" ">
<path fill="none" stroke="#63b8ff" d="M135.97,-125.79C123.65,-116.44 109.53,-105.73 98.46,-97.33"/>
<polygon fill="#63b8ff" stroke="#63b8ff" points="133.67,-128.44 143.76,-131.7 137.91,-122.87 133.67,-128.44"/>
</a>
</g>
</g>
<!-- Node3 -->
<g id="Node000003" class="node">
<title>Node3</title>
<g id="a_Node000003"><a xlink:href="_ref_workloads_8hpp.html" target="_top" xlink:title=" ">
<polygon fill="white" stroke="#666666" points="323.5,-97 177,-97 177,-66.5 323.5,-66.5 323.5,-97"/>
<text xml:space="preserve" text-anchor="start" x="185" y="-83.5" font-family="Helvetica,sans-Serif" font-size="10.00">src/backends/reference</text>
<text xml:space="preserve" text-anchor="middle" x="250.25" y="-72.25" font-family="Helvetica,sans-Serif" font-size="10.00">/workloads/RefWorkloads.hpp</text>
</a>
</g>
</g>
<!-- Node1&#45;&gt;Node3 -->
<g id="edge2_Node000001_Node000003" class="edge">
<title>Node1&#45;&gt;Node3</title>
<g id="a_edge2_Node000001_Node000003"><a xlink:title=" ">
<path fill="none" stroke="#63b8ff" d="M192.86,-125.79C205.32,-116.44 219.61,-105.73 230.81,-97.33"/>
<polygon fill="#63b8ff" stroke="#63b8ff" points="190.88,-122.91 184.98,-131.71 195.08,-128.51 190.88,-122.91"/>
</a>
</g>
</g>
<!-- Node4 -->
<g id="Node000004" class="node">
<title>Node4</title>
<g id="a_Node000004"><a xlink:href="_ref_workload_factory_8cpp.html" target="_top" xlink:title=" ">
<polygon fill="white" stroke="#666666" points="313,-30.5 187.5,-30.5 187.5,0 313,0 313,-30.5"/>
<text xml:space="preserve" text-anchor="start" x="195.5" y="-17" font-family="Helvetica,sans-Serif" font-size="10.00">src/backends/reference</text>
<text xml:space="preserve" text-anchor="middle" x="250.25" y="-5.75" font-family="Helvetica,sans-Serif" font-size="10.00">/RefWorkloadFactory.cpp</text>
</a>
</g>
</g>
<!-- Node3&#45;&gt;Node4 -->
<g id="edge3_Node000003_Node000004" class="edge">
<title>Node3&#45;&gt;Node4</title>
<g id="a_edge3_Node000003_Node000004"><a xlink:title=" ">
<path fill="none" stroke="#63b8ff" d="M250.25,-54.81C250.25,-46.64 250.25,-37.91 250.25,-30.83"/>
<polygon fill="#63b8ff" stroke="#63b8ff" points="246.75,-54.6 250.25,-64.6 253.75,-54.6 246.75,-54.6"/>
</a>
</g>
</g>
</g>
</svg>
