<?xml version="1.0" encoding="UTF-8" standalone="no"?>
<!DOCTYPE svg PUBLIC "-//W3C//DTD SVG 1.1//EN"
 "http://www.w3.org/Graphics/SVG/1.1/DTD/svg11.dtd">
<!-- Generated by graphviz version 14.1.1 (20251213.1925)
 -->
<!-- Title: src/backends/reference/workloads/RefChannelShuffleWorkload.hpp Pages: 1 -->
<svg width="322pt" height="194pt"
 viewBox="0.00 0.00 322.00 194.00" xmlns="http://www.w3.org/2000/svg" xmlns:xlink="http://www.w3.org/1999/xlink">
<g id="graph0" class="graph" transform="scale(1 1) rotate(0) translate(4 190)">
<title>src/backends/reference/workloads/RefChannelShuffleWorkload.hpp</title>
<!-- Node1 -->
<g id="Node000001" class="node">
<title>Node1</title>
<g id="a_Node000001"><a xlink:title=" ">
<polygon fill="#999999" stroke="#666666" points="231.75,-186 83,-186 83,-144.25 231.75,-144.25 231.75,-186"/>
<text xml:space="preserve" text-anchor="start" x="91" y="-172.5" font-family="Helvetica,sans-Serif" font-size="10.00">src/backends/reference</text>
<text xml:space="preserve" text-anchor="start" x="91" y="-161.25" font-family="Helvetica,sans-Serif" font-size="10.00">/workloads/RefChannelShuffle</text>
<text xml:space="preserve" text-anchor="middle" x="157.38" y="-150" font-family="Helvetica,sans-Serif" font-size="10.00">Workload.hpp</text>
</a>
</g>
</g>
<!-- Node2 -->
<g id="Node000002" class="node">
<title>Node2</title>
<g id="a_Node000002"><a xlink:href="_ref_channel_shuffle_workload_8cpp.html" target="_top" xlink:title=" ">
<polygon fill="white" stroke="#666666" points="148.75,-108.25 0,-108.25 0,-66.5 148.75,-66.5 148.75,-108.25"/>
<text xml:space="preserve" text-anchor="start" x="8" y="-94.75" font-family="Helvetica,sans-Serif" font-size="10.00">src/backends/reference</text>
<text xml:space="preserve" text-anchor="start" x="8" y="-83.5" font-family="Helvetica,sans-Serif" font-size="10.00">/workloads/RefChannelShuffle</text>
<text xml:space="preserve" text-anchor="middle" x="74.38" y="-72.25" font-family="Helvetica,sans-Serif" font-size="10.00">Workload.cpp</text>
</a>
</g>
</g>
<!-- Node1&#45;&gt;Node2 -->
<g id="edge1_Node000001_Node000002" class="edge">
<title>Node1&#45;&gt;Node2</title>
<g id="a_edge1_Node000001_Node000002"><a xlink:title=" ">
<path fill="none" stroke="#63b8ff" d="M126.68,-136.11C116.74,-127.03 105.9,-117.14 96.68,-108.73"/>
<polygon fill="#63b8ff" stroke="#63b8ff" points="124.27,-138.65 134.01,-142.81 128.99,-133.48 124.27,-138.65"/>
</a>
</g>
</g>
<!-- Node3 -->
<g id="Node000003" class="node">
<title>Node3</title>
<g id="a_Node000003"><a xlink:href="_ref_workloads_8hpp.html" target="_top" xlink:title=" ">
<polygon fill="white" stroke="#666666" points="313.62,-102.62 167.12,-102.62 167.12,-72.12 313.62,-72.12 313.62,-102.62"/>
<text xml:space="preserve" text-anchor="start" x="175.12" y="-89.12" font-family="Helvetica,sans-Serif" font-size="10.00">src/backends/reference</text>
<text xml:space="preserve" text-anchor="middle" x="240.38" y="-77.88" font-family="Helvetica,sans-Serif" font-size="10.00">/workloads/RefWorkloads.hpp</text>
</a>
</g>
</g>
<!-- Node1&#45;&gt;Node3 -->
<g id="edge2_Node000001_Node000003" class="edge">
<title>Node1&#45;&gt;Node3</title>
<g id="a_edge2_Node000001_Node000003"><a xlink:title=" ">
<path fill="none" stroke="#63b8ff" d="M187.9,-136.26C200.28,-124.97 214.06,-112.39 224.39,-102.96"/>
<polygon fill="#63b8ff" stroke="#63b8ff" points="185.76,-133.48 180.74,-142.81 190.48,-138.65 185.76,-133.48"/>
</a>
</g>
</g>
<!-- Node4 -->
<g id="Node000004" class="node">
<title>Node4</title>
<g id="a_Node000004"><a xlink:href="_ref_workload_factory_8cpp.html" target="_top" xlink:title=" ">
<polygon fill="white" stroke="#666666" points="303.12,-30.5 177.62,-30.5 177.62,0 303.12,0 303.12,-30.5"/>
<text xml:space="preserve" text-anchor="start" x="185.62" y="-17" font-family="Helvetica,sans-Serif" font-size="10.00">src/backends/reference</text>
<text xml:space="preserve" text-anchor="middle" x="240.38" y="-5.75" font-family="Helvetica,sans-Serif" font-size="10.00">/RefWorkloadFactory.cpp</text>
</a>
</g>
</g>
<!-- Node3&#45;&gt;Node4 -->
<g id="edge3_Node000003_Node000004" class="edge">
<title>Node3&#45;&gt;Node4</title>
<g id="a_edge3_Node000003_Node000004"><a xlink:title=" ">
<path fill="none" stroke="#63b8ff" d="M240.38,-60.4C240.38,-50.39 240.38,-39.31 240.38,-30.76"/>
<polygon fill="#63b8ff" stroke="#63b8ff" points="236.88,-60.33 240.38,-70.33 243.88,-60.33 236.88,-60.33"/>
</a>
</g>
</g>
</g>
</svg>
