<?xml version="1.0" encoding="UTF-8" standalone="no"?>
<!DOCTYPE svg PUBLIC "-//W3C//DTD SVG 1.1//EN"
 "http://www.w3.org/Graphics/SVG/1.1/DTD/svg11.dtd">
<!-- Generated by graphviz version 14.1.1 (20251213.1925)
 -->
<!-- Title: src/backends/reference/RefMemoryManager.cpp Pages: 1 -->
<svg width="549pt" height="204pt"
 viewBox="0.00 0.00 549.00 204.00" xmlns="http://www.w3.org/2000/svg" xmlns:xlink="http://www.w3.org/1999/xlink">
<g id="graph0" class="graph" transform="scale(1 1) rotate(0) translate(4 200.25)">
<title>src/backends/reference/RefMemoryManager.cpp</title>
<!-- Node1 -->
<g id="Node000001" class="node">
<title>Node1</title>
<g id="a_Node000001"><a xlink:title=" ">
<polygon fill="#999999" stroke="#666666" points="473.12,-196.25 347.62,-196.25 347.62,-165.75 473.12,-165.75 473.12,-196.25"/>
<text xml:space="preserve" text-anchor="start" x="355.62" y="-182.75" font-family="Helvetica,sans-Serif" font-size="10.00">src/backends/reference</text>
<text xml:space="preserve" text-anchor="middle" x="410.38" y="-171.5" font-family="Helvetica,sans-Serif" font-size="10.00">/RefMemoryManager.cpp</text>
</a>
</g>
</g>
<!-- Node2 -->
<g id="Node000002" class="node">
<title>Node2</title>
<g id="a_Node000002"><a xlink:href="_ref_memory_manager_8hpp.html" target="_top" xlink:title=" ">
<polygon fill="white" stroke="#666666" points="334.62,-129.75 212.12,-129.75 212.12,-110.5 334.62,-110.5 334.62,-129.75"/>
<text xml:space="preserve" text-anchor="middle" x="273.38" y="-116.25" font-family="Helvetica,sans-Serif" font-size="10.00">RefMemoryManager.hpp</text>
</a>
</g>
</g>
<!-- Node1&#45;&gt;Node2 -->
<g id="edge1_Node000001_Node000002" class="edge">
<title>Node1&#45;&gt;Node2</title>
<g id="a_edge1_Node000001_Node000002"><a xlink:title=" ">
<path fill="none" stroke="#63b8ff" d="M376.16,-165.3C354.29,-155.9 326.14,-143.8 304.84,-134.64"/>
<polygon fill="#63b8ff" stroke="#63b8ff" points="306.35,-131.48 295.78,-130.75 303.58,-137.92 306.35,-131.48"/>
</a>
</g>
</g>
<!-- Node7 -->
<g id="Node000007" class="node">
<title>Node7</title>
<g id="a_Node000007"><a xlink:href="_exceptions_8hpp.html" target="_top" xlink:title=" ">
<polygon fill="white" stroke="#666666" points="467.12,-129.75 353.62,-129.75 353.62,-110.5 467.12,-110.5 467.12,-129.75"/>
<text xml:space="preserve" text-anchor="middle" x="410.38" y="-116.25" font-family="Helvetica,sans-Serif" font-size="10.00">armnn/Exceptions.hpp</text>
</a>
</g>
</g>
<!-- Node1&#45;&gt;Node7 -->
<g id="edge6_Node000001_Node000007" class="edge">
<title>Node1&#45;&gt;Node7</title>
<g id="a_edge6_Node000001_Node000007"><a xlink:title=" ">
<path fill="none" stroke="#63b8ff" d="M410.38,-165.45C410.38,-158.21 410.38,-149.34 410.38,-141.44"/>
<polygon fill="#63b8ff" stroke="#63b8ff" points="413.88,-141.71 410.38,-131.71 406.88,-141.71 413.88,-141.71"/>
</a>
</g>
</g>
<!-- Node11 -->
<g id="Node000011" class="node">
<title>Node11</title>
<g id="a_Node000011"><a xlink:title=" ">
<polygon fill="#e0e0e0" stroke="#999999" points="541.25,-129.75 485.5,-129.75 485.5,-110.5 541.25,-110.5 541.25,-129.75"/>
<text xml:space="preserve" text-anchor="middle" x="513.38" y="-116.25" font-family="Helvetica,sans-Serif" font-size="10.00">algorithm</text>
</a>
</g>
</g>
<!-- Node1&#45;&gt;Node11 -->
<g id="edge10_Node000001_Node000011" class="edge">
<title>Node1&#45;&gt;Node11</title>
<g id="a_edge10_Node000001_Node000011"><a xlink:title=" ">
<path fill="none" stroke="#63b8ff" d="M436.1,-165.3C451.94,-156.24 472.16,-144.69 487.94,-135.66"/>
<polygon fill="#63b8ff" stroke="#63b8ff" points="489.32,-138.91 496.27,-130.91 485.85,-132.83 489.32,-138.91"/>
</a>
</g>
</g>
<!-- Node3 -->
<g id="Node000003" class="node">
<title>Node3</title>
<g id="a_Node000003"><a xlink:href="_i_memory_manager_8hpp.html" target="_top" xlink:title=" ">
<polygon fill="white" stroke="#666666" points="184.75,-74.5 0,-74.5 0,-55.25 184.75,-55.25 184.75,-74.5"/>
<text xml:space="preserve" text-anchor="middle" x="92.38" y="-61" font-family="Helvetica,sans-Serif" font-size="10.00">armnn/backends/IMemoryManager.hpp</text>
</a>
</g>
</g>
<!-- Node2&#45;&gt;Node3 -->
<g id="edge2_Node000002_Node000003" class="edge">
<title>Node2&#45;&gt;Node3</title>
<g id="a_edge2_Node000002_Node000003"><a xlink:title=" ">
<path fill="none" stroke="#63b8ff" d="M242.67,-110.09C212.77,-101.29 167.1,-87.86 133.95,-78.11"/>
<polygon fill="#63b8ff" stroke="#63b8ff" points="135.26,-74.84 124.68,-75.38 133.29,-81.56 135.26,-74.84"/>
</a>
</g>
</g>
<!-- Node5 -->
<g id="Node000005" class="node">
<title>Node5</title>
<g id="a_Node000005"><a xlink:title=" ">
<polygon fill="#e0e0e0" stroke="#999999" points="269.5,-74.5 203.25,-74.5 203.25,-55.25 269.5,-55.25 269.5,-74.5"/>
<text xml:space="preserve" text-anchor="middle" x="236.38" y="-61" font-family="Helvetica,sans-Serif" font-size="10.00">forward_list</text>
</a>
</g>
</g>
<!-- Node2&#45;&gt;Node5 -->
<g id="edge4_Node000002_Node000005" class="edge">
<title>Node2&#45;&gt;Node5</title>
<g id="a_edge4_Node000002_Node000005"><a xlink:title=" ">
<path fill="none" stroke="#63b8ff" d="M267.27,-110.33C262.31,-103.21 255.17,-92.93 249,-84.05"/>
<polygon fill="#63b8ff" stroke="#63b8ff" points="252.06,-82.32 243.48,-76.1 246.31,-86.31 252.06,-82.32"/>
</a>
</g>
</g>
<!-- Node6 -->
<g id="Node000006" class="node">
<title>Node6</title>
<g id="a_Node000006"><a xlink:title=" ">
<polygon fill="#e0e0e0" stroke="#999999" points="330.88,-74.5 287.88,-74.5 287.88,-55.25 330.88,-55.25 330.88,-74.5"/>
<text xml:space="preserve" text-anchor="middle" x="309.38" y="-61" font-family="Helvetica,sans-Serif" font-size="10.00">vector</text>
</a>
</g>
</g>
<!-- Node2&#45;&gt;Node6 -->
<g id="edge5_Node000002_Node000006" class="edge">
<title>Node2&#45;&gt;Node6</title>
<g id="a_edge5_Node000002_Node000006"><a xlink:title=" ">
<path fill="none" stroke="#63b8ff" d="M279.32,-110.33C284.09,-103.28 290.94,-93.15 296.9,-84.33"/>
<polygon fill="#63b8ff" stroke="#63b8ff" points="299.75,-86.36 302.45,-76.11 293.95,-82.44 299.75,-86.36"/>
</a>
</g>
</g>
<!-- Node4 -->
<g id="Node000004" class="node">
<title>Node4</title>
<g id="a_Node000004"><a xlink:title=" ">
<polygon fill="#e0e0e0" stroke="#999999" points="118,-19.25 66.75,-19.25 66.75,0 118,0 118,-19.25"/>
<text xml:space="preserve" text-anchor="middle" x="92.38" y="-5.75" font-family="Helvetica,sans-Serif" font-size="10.00">memory</text>
</a>
</g>
</g>
<!-- Node3&#45;&gt;Node4 -->
<g id="edge3_Node000003_Node000004" class="edge">
<title>Node3&#45;&gt;Node4</title>
<g id="a_edge3_Node000003_Node000004"><a xlink:title=" ">
<path fill="none" stroke="#63b8ff" d="M92.38,-55.08C92.38,-48.57 92.38,-39.42 92.38,-31.12"/>
<polygon fill="#63b8ff" stroke="#63b8ff" points="95.88,-31.12 92.38,-21.12 88.88,-31.12 95.88,-31.12"/>
</a>
</g>
</g>
<!-- Node8 -->
<g id="Node000008" class="node">
<title>Node8</title>
<g id="a_Node000008"><a xlink:title=" ">
<polygon fill="#e0e0e0" stroke="#999999" points="400,-74.5 348.75,-74.5 348.75,-55.25 400,-55.25 400,-74.5"/>
<text xml:space="preserve" text-anchor="middle" x="374.38" y="-61" font-family="Helvetica,sans-Serif" font-size="10.00">sstream</text>
</a>
</g>
</g>
<!-- Node7&#45;&gt;Node8 -->
<g id="edge7_Node000007_Node000008" class="edge">
<title>Node7&#45;&gt;Node8</title>
<g id="a_edge7_Node000007_Node000008"><a xlink:title=" ">
<path fill="none" stroke="#63b8ff" d="M404.43,-110.33C399.66,-103.28 392.81,-93.15 386.85,-84.33"/>
<polygon fill="#63b8ff" stroke="#63b8ff" points="389.8,-82.44 381.3,-76.11 384,-86.36 389.8,-82.44"/>
</a>
</g>
</g>
<!-- Node9 -->
<g id="Node000009" class="node">
<title>Node9</title>
<g id="a_Node000009"><a xlink:title=" ">
<polygon fill="#e0e0e0" stroke="#999999" points="476.75,-74.5 418,-74.5 418,-55.25 476.75,-55.25 476.75,-74.5"/>
<text xml:space="preserve" text-anchor="middle" x="447.38" y="-61" font-family="Helvetica,sans-Serif" font-size="10.00">stdexcept</text>
</a>
</g>
</g>
<!-- Node7&#45;&gt;Node9 -->
<g id="edge8_Node000007_Node000009" class="edge">
<title>Node7&#45;&gt;Node9</title>
<g id="a_edge8_Node000007_Node000009"><a xlink:title=" ">
<path fill="none" stroke="#63b8ff" d="M416.48,-110.33C421.44,-103.21 428.58,-92.93 434.75,-84.05"/>
<polygon fill="#63b8ff" stroke="#63b8ff" points="437.44,-86.31 440.27,-76.1 431.69,-82.32 437.44,-86.31"/>
</a>
</g>
</g>
<!-- Node10 -->
<g id="Node000010" class="node">
<title>Node10</title>
<g id="a_Node000010"><a xlink:title=" ">
<polygon fill="#e0e0e0" stroke="#999999" points="534.38,-74.5 494.38,-74.5 494.38,-55.25 534.38,-55.25 534.38,-74.5"/>
<text xml:space="preserve" text-anchor="middle" x="514.38" y="-61" font-family="Helvetica,sans-Serif" font-size="10.00">string</text>
</a>
</g>
</g>
<!-- Node7&#45;&gt;Node10 -->
<g id="edge9_Node000007_Node000010" class="edge">
<title>Node7&#45;&gt;Node10</title>
<g id="a_edge9_Node000007_Node000010"><a xlink:title=" ">
<path fill="none" stroke="#63b8ff" d="M428.02,-110.09C444,-101.91 467.83,-89.71 486.41,-80.19"/>
<polygon fill="#63b8ff" stroke="#63b8ff" points="487.99,-83.32 495.3,-75.64 484.8,-77.08 487.99,-83.32"/>
</a>
</g>
</g>
</g>
</svg>
