<?xml version="1.0" encoding="UTF-8" standalone="no"?>
<!DOCTYPE svg PUBLIC "-//W3C//DTD SVG 1.1//EN"
 "http://www.w3.org/Graphics/SVG/1.1/DTD/svg11.dtd">
<!-- Generated by graphviz version 14.1.1 (20251213.1925)
 -->
<!-- Title: src/backends/reference/workloads/RefGatherNdWorkload.hpp Pages: 1 -->
<svg width="356pt" height="172pt"
 viewBox="0.00 0.00 356.00 172.00" xmlns="http://www.w3.org/2000/svg" xmlns:xlink="http://www.w3.org/1999/xlink">
<g id="graph0" class="graph" transform="scale(1 1) rotate(0) translate(4 167.5)">
<title>src/backends/reference/workloads/RefGatherNdWorkload.hpp</title>
<!-- Node1 -->
<g id="Node000001" class="node">
<title>Node1</title>
<g id="a_Node000001"><a xlink:title=" ">
<polygon fill="#999999" stroke="#666666" points="274.25,-163.5 91,-163.5 91,-133 274.25,-133 274.25,-163.5"/>
<text xml:space="preserve" text-anchor="start" x="99" y="-150" font-family="Helvetica,sans-Serif" font-size="10.00">src/backends/reference</text>
<text xml:space="preserve" text-anchor="middle" x="182.62" y="-138.75" font-family="Helvetica,sans-Serif" font-size="10.00">/workloads/RefGatherNdWorkload.hpp</text>
</a>
</g>
</g>
<!-- Node2 -->
<g id="Node000002" class="node">
<title>Node2</title>
<g id="a_Node000002"><a xlink:href="_ref_gather_nd_workload_8cpp.html" target="_top" xlink:title=" ">
<polygon fill="white" stroke="#666666" points="183.25,-97 0,-97 0,-66.5 183.25,-66.5 183.25,-97"/>
<text xml:space="preserve" text-anchor="start" x="8" y="-83.5" font-family="Helvetica,sans-Serif" font-size="10.00">src/backends/reference</text>
<text xml:space="preserve" text-anchor="middle" x="91.62" y="-72.25" font-family="Helvetica,sans-Serif" font-size="10.00">/workloads/RefGatherNdWorkload.cpp</text>
</a>
</g>
</g>
<!-- Node1&#45;&gt;Node2 -->
<g id="edge1_Node000001_Node000002" class="edge">
<title>Node1&#45;&gt;Node2</title>
<g id="a_edge1_Node000001_Node000002"><a xlink:title=" ">
<path fill="none" stroke="#63b8ff" d="M152.74,-126.07C139.46,-116.66 124.16,-105.81 112.19,-97.33"/>
<polygon fill="#63b8ff" stroke="#63b8ff" points="150.56,-128.81 160.74,-131.74 154.61,-123.1 150.56,-128.81"/>
</a>
</g>
</g>
<!-- Node3 -->
<g id="Node000003" class="node">
<title>Node3</title>
<g id="a_Node000003"><a xlink:href="_ref_workloads_8hpp.html" target="_top" xlink:title=" ">
<polygon fill="white" stroke="#666666" points="347.88,-97 201.38,-97 201.38,-66.5 347.88,-66.5 347.88,-97"/>
<text xml:space="preserve" text-anchor="start" x="209.38" y="-83.5" font-family="Helvetica,sans-Serif" font-size="10.00">src/backends/reference</text>
<text xml:space="preserve" text-anchor="middle" x="274.62" y="-72.25" font-family="Helvetica,sans-Serif" font-size="10.00">/workloads/RefWorkloads.hpp</text>
</a>
</g>
</g>
<!-- Node1&#45;&gt;Node3 -->
<g id="edge2_Node000001_Node000003" class="edge">
<title>Node1&#45;&gt;Node3</title>
<g id="a_edge2_Node000001_Node000003"><a xlink:title=" ">
<path fill="none" stroke="#63b8ff" d="M212.84,-126.07C226.26,-116.66 241.73,-105.81 253.83,-97.33"/>
<polygon fill="#63b8ff" stroke="#63b8ff" points="210.92,-123.14 204.74,-131.75 214.94,-128.87 210.92,-123.14"/>
</a>
</g>
</g>
<!-- Node4 -->
<g id="Node000004" class="node">
<title>Node4</title>
<g id="a_Node000004"><a xlink:href="_ref_workload_factory_8cpp.html" target="_top" xlink:title=" ">
<polygon fill="white" stroke="#666666" points="337.38,-30.5 211.88,-30.5 211.88,0 337.38,0 337.38,-30.5"/>
<text xml:space="preserve" text-anchor="start" x="219.88" y="-17" font-family="Helvetica,sans-Serif" font-size="10.00">src/backends/reference</text>
<text xml:space="preserve" text-anchor="middle" x="274.62" y="-5.75" font-family="Helvetica,sans-Serif" font-size="10.00">/RefWorkloadFactory.cpp</text>
</a>
</g>
</g>
<!-- Node3&#45;&gt;Node4 -->
<g id="edge3_Node000003_Node000004" class="edge">
<title>Node3&#45;&gt;Node4</title>
<g id="a_edge3_Node000003_Node000004"><a xlink:title=" ">
<path fill="none" stroke="#63b8ff" d="M274.62,-54.81C274.62,-46.64 274.62,-37.91 274.62,-30.83"/>
<polygon fill="#63b8ff" stroke="#63b8ff" points="271.13,-54.6 274.63,-64.6 278.13,-54.6 271.13,-54.6"/>
</a>
</g>
</g>
</g>
</svg>
