<?xml version="1.0" encoding="UTF-8" standalone="no"?>
<!DOCTYPE svg PUBLIC "-//W3C//DTD SVG 1.1//EN"
 "http://www.w3.org/Graphics/SVG/1.1/DTD/svg11.dtd">
<!-- Generated by graphviz version 14.1.1 (20251213.1925)
 -->
<!-- Title: src/backends/reference/workloads/RefBatchNormalizationWorkload.hpp Pages: 1 -->
<svg width="340pt" height="194pt"
 viewBox="0.00 0.00 340.00 194.00" xmlns="http://www.w3.org/2000/svg" xmlns:xlink="http://www.w3.org/1999/xlink">
<g id="graph0" class="graph" transform="scale(1 1) rotate(0) translate(4 190)">
<title>src/backends/reference/workloads/RefBatchNormalizationWorkload.hpp</title>
<!-- Node1 -->
<g id="Node000001" class="node">
<title>Node1</title>
<g id="a_Node000001"><a xlink:title=" ">
<polygon fill="#999999" stroke="#666666" points="254.5,-186 87,-186 87,-144.25 254.5,-144.25 254.5,-186"/>
<text xml:space="preserve" text-anchor="start" x="95" y="-172.5" font-family="Helvetica,sans-Serif" font-size="10.00">src/backends/reference</text>
<text xml:space="preserve" text-anchor="start" x="95" y="-161.25" font-family="Helvetica,sans-Serif" font-size="10.00">/workloads/RefBatchNormalization</text>
<text xml:space="preserve" text-anchor="middle" x="170.75" y="-150" font-family="Helvetica,sans-Serif" font-size="10.00">Workload.hpp</text>
</a>
</g>
</g>
<!-- Node2 -->
<g id="Node000002" class="node">
<title>Node2</title>
<g id="a_Node000002"><a xlink:href="_ref_batch_normalization_workload_8cpp.html" target="_top" xlink:title=" ">
<polygon fill="white" stroke="#666666" points="167.5,-108.25 0,-108.25 0,-66.5 167.5,-66.5 167.5,-108.25"/>
<text xml:space="preserve" text-anchor="start" x="8" y="-94.75" font-family="Helvetica,sans-Serif" font-size="10.00">src/backends/reference</text>
<text xml:space="preserve" text-anchor="start" x="8" y="-83.5" font-family="Helvetica,sans-Serif" font-size="10.00">/workloads/RefBatchNormalization</text>
<text xml:space="preserve" text-anchor="middle" x="83.75" y="-72.25" font-family="Helvetica,sans-Serif" font-size="10.00">Workload.cpp</text>
</a>
</g>
</g>
<!-- Node1&#45;&gt;Node2 -->
<g id="edge1_Node000001_Node000002" class="edge">
<title>Node1&#45;&gt;Node2</title>
<g id="a_edge1_Node000001_Node000002"><a xlink:title=" ">
<path fill="none" stroke="#63b8ff" d="M138.89,-136.39C128.38,-127.23 116.89,-117.23 107.13,-108.73"/>
<polygon fill="#63b8ff" stroke="#63b8ff" points="136.45,-138.9 146.29,-142.83 141.05,-133.63 136.45,-138.9"/>
</a>
</g>
</g>
<!-- Node3 -->
<g id="Node000003" class="node">
<title>Node3</title>
<g id="a_Node000003"><a xlink:href="_ref_workloads_8hpp.html" target="_top" xlink:title=" ">
<polygon fill="white" stroke="#666666" points="332,-102.62 185.5,-102.62 185.5,-72.12 332,-72.12 332,-102.62"/>
<text xml:space="preserve" text-anchor="start" x="193.5" y="-89.12" font-family="Helvetica,sans-Serif" font-size="10.00">src/backends/reference</text>
<text xml:space="preserve" text-anchor="middle" x="258.75" y="-77.88" font-family="Helvetica,sans-Serif" font-size="10.00">/workloads/RefWorkloads.hpp</text>
</a>
</g>
</g>
<!-- Node1&#45;&gt;Node3 -->
<g id="edge2_Node000001_Node000003" class="edge">
<title>Node1&#45;&gt;Node3</title>
<g id="a_edge2_Node000001_Node000003"><a xlink:title=" ">
<path fill="none" stroke="#63b8ff" d="M202.74,-136.59C215.96,-125.21 230.74,-112.48 241.8,-102.96"/>
<polygon fill="#63b8ff" stroke="#63b8ff" points="200.78,-133.66 195.48,-142.84 205.34,-138.97 200.78,-133.66"/>
</a>
</g>
</g>
<!-- Node4 -->
<g id="Node000004" class="node">
<title>Node4</title>
<g id="a_Node000004"><a xlink:href="_ref_workload_factory_8cpp.html" target="_top" xlink:title=" ">
<polygon fill="white" stroke="#666666" points="321.5,-30.5 196,-30.5 196,0 321.5,0 321.5,-30.5"/>
<text xml:space="preserve" text-anchor="start" x="204" y="-17" font-family="Helvetica,sans-Serif" font-size="10.00">src/backends/reference</text>
<text xml:space="preserve" text-anchor="middle" x="258.75" y="-5.75" font-family="Helvetica,sans-Serif" font-size="10.00">/RefWorkloadFactory.cpp</text>
</a>
</g>
</g>
<!-- Node3&#45;&gt;Node4 -->
<g id="edge3_Node000003_Node000004" class="edge">
<title>Node3&#45;&gt;Node4</title>
<g id="a_edge3_Node000003_Node000004"><a xlink:title=" ">
<path fill="none" stroke="#63b8ff" d="M258.75,-60.4C258.75,-50.39 258.75,-39.31 258.75,-30.76"/>
<polygon fill="#63b8ff" stroke="#63b8ff" points="255.25,-60.33 258.75,-70.33 262.25,-60.33 255.25,-60.33"/>
</a>
</g>
</g>
</g>
</svg>
