<?xml version="1.0" encoding="UTF-8" standalone="no"?>
<!DOCTYPE svg PUBLIC "-//W3C//DTD SVG 1.1//EN"
 "http://www.w3.org/Graphics/SVG/1.1/DTD/svg11.dtd">
<!-- Generated by graphviz version 14.1.1 (20251213.1925)
 -->
<!-- Title: src/dynamic/sample/SampleDynamicAdditionWorkload.hpp Pages: 1 -->
<svg width="394pt" height="105pt"
 viewBox="0.00 0.00 394.00 105.00" xmlns="http://www.w3.org/2000/svg" xmlns:xlink="http://www.w3.org/1999/xlink">
<g id="graph0" class="graph" transform="scale(1 1) rotate(0) translate(4 101)">
<title>src/dynamic/sample/SampleDynamicAdditionWorkload.hpp</title>
<!-- Node1 -->
<g id="Node000001" class="node">
<title>Node1</title>
<g id="a_Node000001"><a xlink:title=" ">
<polygon fill="#999999" stroke="#666666" points="286.5,-97 101,-97 101,-66.5 286.5,-66.5 286.5,-97"/>
<text xml:space="preserve" text-anchor="start" x="109" y="-83.5" font-family="Helvetica,sans-Serif" font-size="10.00">src/dynamic/sample</text>
<text xml:space="preserve" text-anchor="middle" x="193.75" y="-72.25" font-family="Helvetica,sans-Serif" font-size="10.00">/SampleDynamicAdditionWorkload.hpp</text>
</a>
</g>
</g>
<!-- Node2 -->
<g id="Node000002" class="node">
<title>Node2</title>
<g id="a_Node000002"><a xlink:href="_sample_dynamic_addition_workload_8cpp.html" target="_top" xlink:title=" ">
<polygon fill="white" stroke="#666666" points="185.5,-30.5 0,-30.5 0,0 185.5,0 185.5,-30.5"/>
<text xml:space="preserve" text-anchor="start" x="8" y="-17" font-family="Helvetica,sans-Serif" font-size="10.00">src/dynamic/sample</text>
<text xml:space="preserve" text-anchor="middle" x="92.75" y="-5.75" font-family="Helvetica,sans-Serif" font-size="10.00">/SampleDynamicAdditionWorkload.cpp</text>
</a>
</g>
</g>
<!-- Node1&#45;&gt;Node2 -->
<g id="edge1_Node000001_Node000002" class="edge">
<title>Node1&#45;&gt;Node2</title>
<g id="a_edge1_Node000001_Node000002"><a xlink:title=" ">
<path fill="none" stroke="#63b8ff" d="M161.44,-60.11C146.5,-50.58 129.12,-39.48 115.58,-30.83"/>
<polygon fill="#63b8ff" stroke="#63b8ff" points="159.24,-62.87 169.56,-65.3 163.01,-56.97 159.24,-62.87"/>
</a>
</g>
</g>
<!-- Node3 -->
<g id="Node000003" class="node">
<title>Node3</title>
<g id="a_Node000003"><a xlink:href="_sample_dynamic_workload_factory_8cpp.html" target="_top" xlink:title=" ">
<polygon fill="white" stroke="#666666" points="385.62,-30.5 203.88,-30.5 203.88,0 385.62,0 385.62,-30.5"/>
<text xml:space="preserve" text-anchor="start" x="211.88" y="-17" font-family="Helvetica,sans-Serif" font-size="10.00">src/dynamic/sample</text>
<text xml:space="preserve" text-anchor="middle" x="294.75" y="-5.75" font-family="Helvetica,sans-Serif" font-size="10.00">/SampleDynamicWorkloadFactory.cpp</text>
</a>
</g>
</g>
<!-- Node1&#45;&gt;Node3 -->
<g id="edge2_Node000001_Node000003" class="edge">
<title>Node1&#45;&gt;Node3</title>
<g id="a_edge2_Node000001_Node000003"><a xlink:title=" ">
<path fill="none" stroke="#63b8ff" d="M226.06,-60.11C241,-50.58 258.38,-39.48 271.92,-30.83"/>
<polygon fill="#63b8ff" stroke="#63b8ff" points="224.49,-56.97 217.94,-65.3 228.26,-62.87 224.49,-56.97"/>
</a>
</g>
</g>
</g>
</svg>
