<?xml version="1.0" encoding="UTF-8" standalone="no"?>
<!DOCTYPE svg PUBLIC "-//W3C//DTD SVG 1.1//EN"
 "http://www.w3.org/Graphics/SVG/1.1/DTD/svg11.dtd">
<!-- Generated by graphviz version 14.1.1 (20251213.1925)
 -->
<!-- Title: src/backends/tosaCommon/operatorMappings/SliceOperator.hpp Pages: 1 -->
<svg width="682pt" height="249pt"
 viewBox="0.00 0.00 682.00 249.00" xmlns="http://www.w3.org/2000/svg" xmlns:xlink="http://www.w3.org/1999/xlink">
<g id="graph0" class="graph" transform="scale(1 1) rotate(0) translate(4 245.25)">
<title>src/backends/tosaCommon/operatorMappings/SliceOperator.hpp</title>
<!-- Node1 -->
<g id="Node000001" class="node">
<title>Node1</title>
<g id="a_Node000001"><a xlink:title=" ">
<polygon fill="#999999" stroke="#666666" points="358.5,-241.25 182,-241.25 182,-210.75 358.5,-210.75 358.5,-241.25"/>
<text xml:space="preserve" text-anchor="start" x="190" y="-227.75" font-family="Helvetica,sans-Serif" font-size="10.00">src/backends/tosaCommon</text>
<text xml:space="preserve" text-anchor="middle" x="270.25" y="-216.5" font-family="Helvetica,sans-Serif" font-size="10.00">/operatorMappings/SliceOperator.hpp</text>
</a>
</g>
</g>
<!-- Node2 -->
<g id="Node000002" class="node">
<title>Node2</title>
<g id="a_Node000002"><a xlink:href="_slice_operator_8cpp.html" target="_top" xlink:title=" ">
<polygon fill="white" stroke="#666666" points="176.5,-169.12 0,-169.12 0,-138.62 176.5,-138.62 176.5,-169.12"/>
<text xml:space="preserve" text-anchor="start" x="8" y="-155.62" font-family="Helvetica,sans-Serif" font-size="10.00">src/backends/tosaCommon</text>
<text xml:space="preserve" text-anchor="middle" x="88.25" y="-144.38" font-family="Helvetica,sans-Serif" font-size="10.00">/operatorMappings/SliceOperator.cpp</text>
</a>
</g>
</g>
<!-- Node1&#45;&gt;Node2 -->
<g id="edge1_Node000001_Node000002" class="edge">
<title>Node1&#45;&gt;Node2</title>
<g id="a_edge1_Node000001_Node000002"><a xlink:title=" ">
<path fill="none" stroke="#63b8ff" d="M221.49,-206.21C191.64,-194.71 154.01,-180.21 126.35,-169.56"/>
<polygon fill="#63b8ff" stroke="#63b8ff" points="220.09,-209.43 230.68,-209.76 222.61,-202.89 220.09,-209.43"/>
</a>
</g>
</g>
<!-- Node3 -->
<g id="Node000003" class="node">
<title>Node3</title>
<g id="a_Node000003"><a xlink:href="_strided_slice_operator_8cpp.html" target="_top" xlink:title=" ">
<polygon fill="white" stroke="#666666" points="346.12,-174.75 194.38,-174.75 194.38,-133 346.12,-133 346.12,-174.75"/>
<text xml:space="preserve" text-anchor="start" x="202.38" y="-161.25" font-family="Helvetica,sans-Serif" font-size="10.00">src/backends/tosaCommon</text>
<text xml:space="preserve" text-anchor="start" x="202.38" y="-150" font-family="Helvetica,sans-Serif" font-size="10.00">/operatorMappings/StridedSlice</text>
<text xml:space="preserve" text-anchor="middle" x="270.25" y="-138.75" font-family="Helvetica,sans-Serif" font-size="10.00">Operator.cpp</text>
</a>
</g>
</g>
<!-- Node1&#45;&gt;Node3 -->
<g id="edge2_Node000001_Node000003" class="edge">
<title>Node1&#45;&gt;Node3</title>
<g id="a_edge2_Node000001_Node000003"><a xlink:title=" ">
<path fill="none" stroke="#63b8ff" d="M270.25,-199.22C270.25,-191.31 270.25,-182.73 270.25,-175.24"/>
<polygon fill="#63b8ff" stroke="#63b8ff" points="266.75,-198.96 270.25,-208.96 273.75,-198.96 266.75,-198.96"/>
</a>
</g>
</g>
<!-- Node4 -->
<g id="Node000004" class="node">
<title>Node4</title>
<g id="a_Node000004"><a xlink:href="_tosa_common_operators_8hpp.html" target="_top" xlink:title=" ">
<polygon fill="white" stroke="#666666" points="524.25,-174.75 364.25,-174.75 364.25,-133 524.25,-133 524.25,-174.75"/>
<text xml:space="preserve" text-anchor="start" x="372.25" y="-161.25" font-family="Helvetica,sans-Serif" font-size="10.00">src/backends/tosaCommon</text>
<text xml:space="preserve" text-anchor="start" x="372.25" y="-150" font-family="Helvetica,sans-Serif" font-size="10.00">/operatorMappings/TosaCommon</text>
<text xml:space="preserve" text-anchor="middle" x="444.25" y="-138.75" font-family="Helvetica,sans-Serif" font-size="10.00">Operators.hpp</text>
</a>
</g>
</g>
<!-- Node1&#45;&gt;Node4 -->
<g id="edge3_Node000001_Node000004" class="edge">
<title>Node1&#45;&gt;Node4</title>
<g id="a_edge3_Node000001_Node000004"><a xlink:title=" ">
<path fill="none" stroke="#63b8ff" d="M317.24,-206.06C340.97,-196.5 369.78,-184.89 393.96,-175.14"/>
<polygon fill="#63b8ff" stroke="#63b8ff" points="316.1,-202.75 308.13,-209.73 318.71,-209.24 316.1,-202.75"/>
</a>
</g>
</g>
<!-- Node5 -->
<g id="Node000005" class="node">
<title>Node5</title>
<g id="a_Node000005"><a xlink:href="_tosa_mappings_8hpp.html" target="_top" xlink:title=" ">
<polygon fill="white" stroke="#666666" points="512.25,-97 376.25,-97 376.25,-66.5 512.25,-66.5 512.25,-97"/>
<text xml:space="preserve" text-anchor="start" x="384.25" y="-83.5" font-family="Helvetica,sans-Serif" font-size="10.00">src/backends/tosaCommon</text>
<text xml:space="preserve" text-anchor="middle" x="444.25" y="-72.25" font-family="Helvetica,sans-Serif" font-size="10.00">/TosaMappings.hpp</text>
</a>
</g>
</g>
<!-- Node4&#45;&gt;Node5 -->
<g id="edge4_Node000004_Node000005" class="edge">
<title>Node4&#45;&gt;Node5</title>
<g id="a_edge4_Node000004_Node000005"><a xlink:title=" ">
<path fill="none" stroke="#63b8ff" d="M444.25,-121.13C444.25,-112.77 444.25,-104.15 444.25,-97.2"/>
<polygon fill="#63b8ff" stroke="#63b8ff" points="440.75,-121.08 444.25,-131.08 447.75,-121.08 440.75,-121.08"/>
</a>
</g>
</g>
<!-- Node6 -->
<g id="Node000006" class="node">
<title>Node6</title>
<g id="a_Node000006"><a xlink:href="_tosa_mappings_8cpp.html" target="_top" xlink:title=" ">
<polygon fill="white" stroke="#666666" points="355.25,-30.5 219.25,-30.5 219.25,0 355.25,0 355.25,-30.5"/>
<text xml:space="preserve" text-anchor="start" x="227.25" y="-17" font-family="Helvetica,sans-Serif" font-size="10.00">src/backends/tosaCommon</text>
<text xml:space="preserve" text-anchor="middle" x="287.25" y="-5.75" font-family="Helvetica,sans-Serif" font-size="10.00">/TosaMappings.cpp</text>
</a>
</g>
</g>
<!-- Node5&#45;&gt;Node6 -->
<g id="edge5_Node000005_Node000006" class="edge">
<title>Node5&#45;&gt;Node6</title>
<g id="a_edge5_Node000005_Node000006"><a xlink:title=" ">
<path fill="none" stroke="#63b8ff" d="M398,-61.75C374.04,-51.91 345.23,-40.07 323.01,-30.94"/>
<polygon fill="#63b8ff" stroke="#63b8ff" points="396.64,-64.98 407.22,-65.54 399.3,-58.5 396.64,-64.98"/>
</a>
</g>
</g>
<!-- Node7 -->
<g id="Node000007" class="node">
<title>Node7</title>
<g id="a_Node000007"><a xlink:href="_tosa_ref_backend_8cpp.html" target="_top" xlink:title=" ">
<polygon fill="white" stroke="#666666" points="514.88,-30.5 373.62,-30.5 373.62,0 514.88,0 514.88,-30.5"/>
<text xml:space="preserve" text-anchor="start" x="381.62" y="-17" font-family="Helvetica,sans-Serif" font-size="10.00">src/backends/tosaReference</text>
<text xml:space="preserve" text-anchor="middle" x="444.25" y="-5.75" font-family="Helvetica,sans-Serif" font-size="10.00">/TosaRefBackend.cpp</text>
</a>
</g>
</g>
<!-- Node5&#45;&gt;Node7 -->
<g id="edge6_Node000005_Node000007" class="edge">
<title>Node5&#45;&gt;Node7</title>
<g id="a_edge6_Node000005_Node000007"><a xlink:title=" ">
<path fill="none" stroke="#63b8ff" d="M444.25,-54.81C444.25,-46.64 444.25,-37.91 444.25,-30.83"/>
<polygon fill="#63b8ff" stroke="#63b8ff" points="440.75,-54.6 444.25,-64.6 447.75,-54.6 440.75,-54.6"/>
</a>
</g>
</g>
<!-- Node8 -->
<g id="Node000008" class="node">
<title>Node8</title>
<g id="a_Node000008"><a xlink:href="_tosa_ref_layer_support_8cpp.html" target="_top" xlink:title=" ">
<polygon fill="white" stroke="#666666" points="673.88,-30.5 532.62,-30.5 532.62,0 673.88,0 673.88,-30.5"/>
<text xml:space="preserve" text-anchor="start" x="540.62" y="-17" font-family="Helvetica,sans-Serif" font-size="10.00">src/backends/tosaReference</text>
<text xml:space="preserve" text-anchor="middle" x="603.25" y="-5.75" font-family="Helvetica,sans-Serif" font-size="10.00">/TosaRefLayerSupport.cpp</text>
</a>
</g>
</g>
<!-- Node5&#45;&gt;Node8 -->
<g id="edge7_Node000005_Node000008" class="edge">
<title>Node5&#45;&gt;Node8</title>
<g id="a_edge7_Node000005_Node000008"><a xlink:title=" ">
<path fill="none" stroke="#63b8ff" d="M490.76,-61.88C515.09,-52.01 544.42,-40.11 567.04,-30.94"/>
<polygon fill="#63b8ff" stroke="#63b8ff" points="489.68,-58.54 481.73,-65.54 492.31,-65.03 489.68,-58.54"/>
</a>
</g>
</g>
</g>
</svg>
