<?xml version="1.0" encoding="UTF-8" standalone="no"?>
<!DOCTYPE svg PUBLIC "-//W3C//DTD SVG 1.1//EN"
 "http://www.w3.org/Graphics/SVG/1.1/DTD/svg11.dtd">
<!-- Generated by graphviz version 14.1.1 (20251213.1925)
 -->
<!-- Title: src/backends/reference/workloads/Softmax.cpp Pages: 1 -->
<svg width="1205pt" height="492pt"
 viewBox="0.00 0.00 1205.00 492.00" xmlns="http://www.w3.org/2000/svg" xmlns:xlink="http://www.w3.org/1999/xlink">
<g id="graph0" class="graph" transform="scale(1 1) rotate(0) translate(4 487.75)">
<title>src/backends/reference/workloads/Softmax.cpp</title>
<!-- Node1 -->
<g id="Node000001" class="node">
<title>Node1</title>
<g id="a_Node000001"><a xlink:title=" ">
<polygon fill="#999999" stroke="#666666" points="440.88,-483.75 319.12,-483.75 319.12,-453.25 440.88,-453.25 440.88,-483.75"/>
<text xml:space="preserve" text-anchor="start" x="327.12" y="-470.25" font-family="Helvetica,sans-Serif" font-size="10.00">src/backends/reference</text>
<text xml:space="preserve" text-anchor="middle" x="380" y="-459" font-family="Helvetica,sans-Serif" font-size="10.00">/workloads/Softmax.cpp</text>
</a>
</g>
</g>
<!-- Node2 -->
<g id="Node000002" class="node">
<title>Node2</title>
<g id="a_Node000002"><a xlink:href="_softmax_8hpp.html" target="_top" xlink:title=" ">
<polygon fill="white" stroke="#666666" points="448.75,-417.25 377.25,-417.25 377.25,-398 448.75,-398 448.75,-417.25"/>
<text xml:space="preserve" text-anchor="middle" x="413" y="-403.75" font-family="Helvetica,sans-Serif" font-size="10.00">Softmax.hpp</text>
</a>
</g>
</g>
<!-- Node1&#45;&gt;Node2 -->
<g id="edge1_Node000001_Node000002" class="edge">
<title>Node1&#45;&gt;Node2</title>
<g id="a_edge1_Node000001_Node000002"><a xlink:title=" ">
<path fill="none" stroke="#63b8ff" d="M388.16,-452.95C392.46,-445.28 397.78,-435.77 402.4,-427.54"/>
<polygon fill="#63b8ff" stroke="#63b8ff" points="405.34,-429.46 407.17,-419.02 399.23,-426.03 405.34,-429.46"/>
</a>
</g>
</g>
<!-- Node11 -->
<g id="Node000011" class="node">
<title>Node11</title>
<g id="a_Node000011"><a xlink:title=" ">
<polygon fill="#e0e0e0" stroke="#999999" points="78.5,-19.25 35.5,-19.25 35.5,0 78.5,0 78.5,-19.25"/>
<text xml:space="preserve" text-anchor="middle" x="57" y="-5.75" font-family="Helvetica,sans-Serif" font-size="10.00">vector</text>
</a>
</g>
</g>
<!-- Node1&#45;&gt;Node11 -->
<g id="edge67_Node000001_Node000011" class="edge">
<title>Node1&#45;&gt;Node11</title>
<g id="a_edge67_Node000001_Node000011"><a xlink:title=" ">
<path fill="none" stroke="#63b8ff" d="M318.95,-461.89C211.53,-450.31 0,-419.16 0,-353.38 0,-353.38 0,-353.38 0,-119.12 0,-83.67 24.14,-48.41 41.01,-28.1"/>
<polygon fill="#63b8ff" stroke="#63b8ff" points="43.44,-30.63 47.35,-20.79 38.16,-26.05 43.44,-30.63"/>
</a>
</g>
</g>
<!-- Node27 -->
<g id="Node000027" class="node">
<title>Node27</title>
<g id="a_Node000027"><a xlink:title=" ">
<polygon fill="#e0e0e0" stroke="#999999" points="951.5,-74.5 908.5,-74.5 908.5,-55.25 951.5,-55.25 951.5,-74.5"/>
<text xml:space="preserve" text-anchor="middle" x="930" y="-61" font-family="Helvetica,sans-Serif" font-size="10.00">cmath</text>
</a>
</g>
</g>
<!-- Node1&#45;&gt;Node27 -->
<g id="edge66_Node000001_Node000027" class="edge">
<title>Node1&#45;&gt;Node27</title>
<g id="a_edge66_Node000001_Node000027"><a xlink:title=" ">
<path fill="none" stroke="#63b8ff" d="M441.33,-465.37C631.1,-457.97 1196,-429.55 1196,-353.38 1196,-353.38 1196,-353.38 1196,-229.62 1196,-200.01 1199.17,-185.39 1177,-165.75 1105.46,-102.38 1042.85,-185.19 965,-129.75 950.19,-119.21 940.98,-100.36 935.75,-85.87"/>
<polygon fill="#63b8ff" stroke="#63b8ff" points="939.11,-84.88 932.71,-76.43 932.44,-87.02 939.11,-84.88"/>
</a>
</g>
</g>
<!-- Node34 -->
<g id="Node000034" class="node">
<title>Node34</title>
<g id="a_Node000034"><a xlink:href="_tensor_utils_8hpp.html" target="_top" xlink:title=" ">
<polygon fill="white" stroke="#666666" points="367.25,-301.12 232.75,-301.12 232.75,-281.88 367.25,-281.88 367.25,-301.12"/>
<text xml:space="preserve" text-anchor="middle" x="300" y="-287.62" font-family="Helvetica,sans-Serif" font-size="10.00">armnnUtils/TensorUtils.hpp</text>
</a>
</g>
</g>
<!-- Node1&#45;&gt;Node34 -->
<g id="edge65_Node000001_Node000034" class="edge">
<title>Node1&#45;&gt;Node34</title>
<g id="a_edge65_Node000001_Node000034"><a xlink:title=" ">
<path fill="none" stroke="#63b8ff" d="M373.32,-452.88C358.94,-421.44 325.09,-347.38 308.91,-311.99"/>
<polygon fill="#63b8ff" stroke="#63b8ff" points="312.13,-310.61 304.79,-302.97 305.76,-313.52 312.13,-310.61"/>
</a>
</g>
</g>
<!-- Node3 -->
<g id="Node000003" class="node">
<title>Node3</title>
<g id="a_Node000003"><a xlink:href="_base_iterator_8hpp.html" target="_top" xlink:title=" ">
<polygon fill="white" stroke="#666666" points="787.62,-362 700.38,-362 700.38,-342.75 787.62,-342.75 787.62,-362"/>
<text xml:space="preserve" text-anchor="middle" x="744" y="-348.5" font-family="Helvetica,sans-Serif" font-size="10.00">BaseIterator.hpp</text>
</a>
</g>
</g>
<!-- Node2&#45;&gt;Node3 -->
<g id="edge2_Node000002_Node000003" class="edge">
<title>Node2&#45;&gt;Node3</title>
<g id="a_edge2_Node000002_Node000003"><a xlink:title=" ">
<path fill="none" stroke="#63b8ff" d="M449.05,-400.82C506.87,-391.52 620.71,-373.21 688.81,-362.25"/>
<polygon fill="#63b8ff" stroke="#63b8ff" points="689.33,-365.71 698.65,-360.67 688.22,-358.8 689.33,-365.71"/>
</a>
</g>
</g>
<!-- Node15 -->
<g id="Node000015" class="node">
<title>Node15</title>
<g id="a_Node000015"><a xlink:href="_tensor_8hpp.html" target="_top" xlink:title=" ">
<polygon fill="white" stroke="#666666" points="402.62,-185 309.38,-185 309.38,-165.75 402.62,-165.75 402.62,-185"/>
<text xml:space="preserve" text-anchor="middle" x="356" y="-171.5" font-family="Helvetica,sans-Serif" font-size="10.00">armnn/Tensor.hpp</text>
</a>
</g>
</g>
<!-- Node2&#45;&gt;Node15 -->
<g id="edge64_Node000002_Node000015" class="edge">
<title>Node2&#45;&gt;Node15</title>
<g id="a_edge64_Node000002_Node000015"><a xlink:title=" ">
<path fill="none" stroke="#63b8ff" d="M412.37,-397.64C410.73,-376.29 405.62,-320.97 394,-276.25 386.51,-247.42 373.46,-215.46 364.78,-195.64"/>
<polygon fill="#63b8ff" stroke="#63b8ff" points="368.03,-194.33 360.75,-186.63 361.64,-197.19 368.03,-194.33"/>
</a>
</g>
</g>
<!-- Node4 -->
<g id="Node000004" class="node">
<title>Node4</title>
<g id="a_Node000004"><a xlink:href="_types_utils_8hpp.html" target="_top" xlink:title=" ">
<polygon fill="white" stroke="#666666" points="669.62,-240.25 558.38,-240.25 558.38,-221 669.62,-221 669.62,-240.25"/>
<text xml:space="preserve" text-anchor="middle" x="614" y="-226.75" font-family="Helvetica,sans-Serif" font-size="10.00">armnn/TypesUtils.hpp</text>
</a>
</g>
</g>
<!-- Node3&#45;&gt;Node4 -->
<g id="edge3_Node000003_Node000004" class="edge">
<title>Node3&#45;&gt;Node4</title>
<g id="a_edge3_Node000003_Node000004"><a xlink:title=" ">
<path fill="none" stroke="#63b8ff" d="M734.23,-342.37C712.58,-322.44 660.31,-274.28 632.35,-248.53"/>
<polygon fill="#63b8ff" stroke="#63b8ff" points="634.72,-245.96 625,-241.76 629.98,-251.11 634.72,-245.96"/>
</a>
</g>
</g>
<!-- Node28 -->
<g id="Node000028" class="node">
<title>Node28</title>
<g id="a_Node000028"><a xlink:href="_numeric_cast_8hpp.html" target="_top" xlink:title=" ">
<polygon fill="white" stroke="#666666" points="1026.38,-301.12 877.62,-301.12 877.62,-281.88 1026.38,-281.88 1026.38,-301.12"/>
<text xml:space="preserve" text-anchor="middle" x="952" y="-287.62" font-family="Helvetica,sans-Serif" font-size="10.00">armnn/utility/NumericCast.hpp</text>
</a>
</g>
</g>
<!-- Node3&#45;&gt;Node28 -->
<g id="edge40_Node000003_Node000028" class="edge">
<title>Node3&#45;&gt;Node28</title>
<g id="a_edge40_Node000003_Node000028"><a xlink:title=" ">
<path fill="none" stroke="#63b8ff" d="M776.04,-342.3C811.7,-332.21 869.48,-315.86 909.03,-304.66"/>
<polygon fill="#63b8ff" stroke="#63b8ff" points="909.79,-308.08 918.46,-301.99 907.89,-301.35 909.79,-308.08"/>
</a>
</g>
</g>
<!-- Node32 -->
<g id="Node000032" class="node">
<title>Node32</title>
<g id="a_Node000032"><a xlink:href="_floating_point_converter_8hpp.html" target="_top" xlink:title=" ">
<polygon fill="white" stroke="#666666" points="1167.62,-306.75 1044.38,-306.75 1044.38,-276.25 1167.62,-276.25 1167.62,-306.75"/>
<text xml:space="preserve" text-anchor="start" x="1052.38" y="-293.25" font-family="Helvetica,sans-Serif" font-size="10.00">armnnUtils/FloatingPoint</text>
<text xml:space="preserve" text-anchor="middle" x="1106" y="-282" font-family="Helvetica,sans-Serif" font-size="10.00">Converter.hpp</text>
</a>
</g>
</g>
<!-- Node3&#45;&gt;Node32 -->
<g id="edge45_Node000003_Node000032" class="edge">
<title>Node3&#45;&gt;Node32</title>
<g id="a_edge45_Node000003_Node000032"><a xlink:title=" ">
<path fill="none" stroke="#63b8ff" d="M787.98,-345.27C842.83,-337.52 939.73,-323.36 1032.75,-307.1"/>
<polygon fill="#63b8ff" stroke="#63b8ff" points="1033.34,-310.55 1042.59,-305.37 1032.13,-303.65 1033.34,-310.55"/>
</a>
</g>
</g>
<!-- Node3&#45;&gt;Node34 -->
<g id="edge47_Node000003_Node000034" class="edge">
<title>Node3&#45;&gt;Node34</title>
<g id="a_edge47_Node000003_Node000034"><a xlink:title=" ">
<path fill="none" stroke="#63b8ff" d="M700.21,-345.57C625.55,-335.67 472.62,-315.39 378.92,-302.97"/>
<polygon fill="#63b8ff" stroke="#63b8ff" points="379.39,-299.5 369.02,-301.65 378.47,-306.44 379.39,-299.5"/>
</a>
</g>
</g>
<!-- Node35 -->
<g id="Node000035" class="node">
<title>Node35</title>
<g id="a_Node000035"><a xlink:href="_resolve_type_8hpp.html" target="_top" xlink:title=" ">
<polygon fill="white" stroke="#666666" points="1025.88,-185 934.12,-185 934.12,-165.75 1025.88,-165.75 1025.88,-185"/>
<text xml:space="preserve" text-anchor="middle" x="980" y="-171.5" font-family="Helvetica,sans-Serif" font-size="10.00">ResolveType.hpp</text>
</a>
</g>
</g>
<!-- Node3&#45;&gt;Node35 -->
<g id="edge54_Node000003_Node000035" class="edge">
<title>Node3&#45;&gt;Node35</title>
<g id="a_edge54_Node000003_Node000035"><a xlink:title=" ">
<path fill="none" stroke="#63b8ff" d="M756.03,-342.46C793.81,-314.44 910.49,-227.92 958.76,-192.13"/>
<polygon fill="#63b8ff" stroke="#63b8ff" points="960.55,-195.16 966.5,-186.39 956.38,-189.53 960.55,-195.16"/>
</a>
</g>
</g>
<!-- Node5 -->
<g id="Node000005" class="node">
<title>Node5</title>
<g id="a_Node000005"><a xlink:href="_backend_id_8hpp.html" target="_top" xlink:title=" ">
<polygon fill="white" stroke="#666666" points="645.62,-74.5 534.38,-74.5 534.38,-55.25 645.62,-55.25 645.62,-74.5"/>
<text xml:space="preserve" text-anchor="middle" x="590" y="-61" font-family="Helvetica,sans-Serif" font-size="10.00">armnn/BackendId.hpp</text>
</a>
</g>
</g>
<!-- Node4&#45;&gt;Node5 -->
<g id="edge4_Node000004_Node000005" class="edge">
<title>Node4&#45;&gt;Node5</title>
<g id="a_edge4_Node000004_Node000005"><a xlink:title=" ">
<path fill="none" stroke="#63b8ff" d="M610.5,-220.55C607.23,-211.64 602.47,-197.59 600,-185 593.29,-150.81 591.08,-110.22 590.35,-86.34"/>
<polygon fill="#63b8ff" stroke="#63b8ff" points="593.85,-86.36 590.12,-76.45 586.86,-86.53 593.85,-86.36"/>
</a>
</g>
</g>
<!-- Node7 -->
<g id="Node000007" class="node">
<title>Node7</title>
<g id="a_Node000007"><a xlink:title=" ">
<polygon fill="#e0e0e0" stroke="#999999" points="813.62,-19.25 762.38,-19.25 762.38,0 813.62,0 813.62,-19.25"/>
<text xml:space="preserve" text-anchor="middle" x="788" y="-5.75" font-family="Helvetica,sans-Serif" font-size="10.00">ostream</text>
</a>
</g>
</g>
<!-- Node4&#45;&gt;Node7 -->
<g id="edge37_Node000004_Node000007" class="edge">
<title>Node4&#45;&gt;Node7</title>
<g id="a_edge37_Node000004_Node000007"><a xlink:title=" ">
<path fill="none" stroke="#63b8ff" d="M639.29,-220.65C657.85,-213.17 682.87,-201.14 701,-185 749.15,-142.14 773.82,-66.48 783.29,-30.59"/>
<polygon fill="#63b8ff" stroke="#63b8ff" points="786.62,-31.69 785.65,-21.14 779.83,-30 786.62,-31.69"/>
</a>
</g>
</g>
<!-- Node8 -->
<g id="Node000008" class="node">
<title>Node8</title>
<g id="a_Node000008"><a xlink:title=" ">
<polygon fill="#e0e0e0" stroke="#999999" points="744.75,-19.25 715.25,-19.25 715.25,0 744.75,0 744.75,-19.25"/>
<text xml:space="preserve" text-anchor="middle" x="730" y="-5.75" font-family="Helvetica,sans-Serif" font-size="10.00">set</text>
</a>
</g>
</g>
<!-- Node4&#45;&gt;Node8 -->
<g id="edge38_Node000004_Node000008" class="edge">
<title>Node4&#45;&gt;Node8</title>
<g id="a_edge38_Node000004_Node000008"><a xlink:title=" ">
<path fill="none" stroke="#63b8ff" d="M629.43,-220.62C653.83,-205.42 700.65,-172.13 721,-129.75 736.37,-97.75 735.21,-55.29 732.75,-30.66"/>
<polygon fill="#63b8ff" stroke="#63b8ff" points="736.27,-30.57 731.61,-21.06 729.32,-31.4 736.27,-30.57"/>
</a>
</g>
</g>
<!-- Node12 -->
<g id="Node000012" class="node">
<title>Node12</title>
<g id="a_Node000012"><a xlink:href="_exceptions_8hpp.html" target="_top" xlink:title=" ">
<polygon fill="white" stroke="#666666" points="516.75,-74.5 403.25,-74.5 403.25,-55.25 516.75,-55.25 516.75,-74.5"/>
<text xml:space="preserve" text-anchor="middle" x="460" y="-61" font-family="Helvetica,sans-Serif" font-size="10.00">armnn/Exceptions.hpp</text>
</a>
</g>
</g>
<!-- Node4&#45;&gt;Node12 -->
<g id="edge11_Node000004_Node000012" class="edge">
<title>Node4&#45;&gt;Node12</title>
<g id="a_edge11_Node000004_Node000012"><a xlink:title=" ">
<path fill="none" stroke="#63b8ff" d="M605.72,-220.82C581.17,-194.72 508.49,-117.44 476,-82.89"/>
<polygon fill="#63b8ff" stroke="#63b8ff" points="478.76,-80.71 469.36,-75.82 473.66,-85.51 478.76,-80.71"/>
</a>
</g>
</g>
<!-- Node4&#45;&gt;Node15 -->
<g id="edge15_Node000004_Node000015" class="edge">
<title>Node4&#45;&gt;Node15</title>
<g id="a_edge15_Node000004_Node000015"><a xlink:title=" ">
<path fill="none" stroke="#63b8ff" d="M569.94,-220.53C525.97,-211.46 458.3,-197.49 410.87,-187.7"/>
<polygon fill="#63b8ff" stroke="#63b8ff" points="411.86,-184.33 401.36,-185.74 410.45,-191.19 411.86,-184.33"/>
</a>
</g>
</g>
<!-- Node18 -->
<g id="Node000018" class="node">
<title>Node18</title>
<g id="a_Node000018"><a xlink:title=" ">
<polygon fill="#e0e0e0" stroke="#999999" points="1118.88,-74.5 1057.12,-74.5 1057.12,-55.25 1118.88,-55.25 1118.88,-74.5"/>
<text xml:space="preserve" text-anchor="middle" x="1088" y="-61" font-family="Helvetica,sans-Serif" font-size="10.00">type_traits</text>
</a>
</g>
</g>
<!-- Node4&#45;&gt;Node18 -->
<g id="edge39_Node000004_Node000018" class="edge">
<title>Node4&#45;&gt;Node18</title>
<g id="a_edge39_Node000004_Node000018"><a xlink:title=" ">
<path fill="none" stroke="#63b8ff" d="M669.87,-230.44C770.74,-230.83 978.09,-226.4 1035,-185 1051.89,-172.71 1071.98,-116.22 1081.87,-85.65"/>
<polygon fill="#63b8ff" stroke="#63b8ff" points="1085.21,-86.71 1084.89,-76.12 1078.53,-84.6 1085.21,-86.71"/>
</a>
</g>
</g>
<!-- Node19 -->
<g id="Node000019" class="node">
<title>Node19</title>
<g id="a_Node000019"><a xlink:href="_types_8hpp.html" target="_top" xlink:title=" ">
<polygon fill="white" stroke="#666666" points="471.5,-129.75 410.5,-129.75 410.5,-110.5 471.5,-110.5 471.5,-129.75"/>
<text xml:space="preserve" text-anchor="middle" x="441" y="-116.25" font-family="Helvetica,sans-Serif" font-size="10.00">Types.hpp</text>
</a>
</g>
</g>
<!-- Node4&#45;&gt;Node19 -->
<g id="edge34_Node000004_Node000019" class="edge">
<title>Node4&#45;&gt;Node19</title>
<g id="a_edge34_Node000004_Node000019"><a xlink:title=" ">
<path fill="none" stroke="#63b8ff" d="M593.01,-220.63C574.36,-212.31 546.63,-199.13 524,-185 500.79,-170.51 476.19,-150.99 459.85,-137.35"/>
<polygon fill="#63b8ff" stroke="#63b8ff" points="462.31,-134.85 452.42,-131.07 457.79,-140.19 462.31,-134.85"/>
</a>
</g>
</g>
<!-- Node22 -->
<g id="Node000022" class="node">
<title>Node22</title>
<g id="a_Node000022"><a xlink:title=" ">
<polygon fill="#e0e0e0" stroke="#999999" points="712.12,-74.5 663.88,-74.5 663.88,-55.25 712.12,-55.25 712.12,-74.5"/>
<text xml:space="preserve" text-anchor="middle" x="688" y="-61" font-family="Helvetica,sans-Serif" font-size="10.00">stdint.h</text>
</a>
</g>
</g>
<!-- Node4&#45;&gt;Node22 -->
<g id="edge35_Node000004_Node000022" class="edge">
<title>Node4&#45;&gt;Node22</title>
<g id="a_edge35_Node000004_Node000022"><a xlink:title=" ">
<path fill="none" stroke="#63b8ff" d="M613.34,-220.54C612.24,-199.6 611.95,-146.95 633,-110.5 639.87,-98.6 651.23,-88.58 661.85,-81.07"/>
<polygon fill="#63b8ff" stroke="#63b8ff" points="663.54,-84.15 669.97,-75.73 659.69,-78.3 663.54,-84.15"/>
</a>
</g>
</g>
<!-- Node4&#45;&gt;Node27 -->
<g id="edge36_Node000004_Node000027" class="edge">
<title>Node4&#45;&gt;Node27</title>
<g id="a_edge36_Node000004_Node000027"><a xlink:title=" ">
<path fill="none" stroke="#63b8ff" d="M669.94,-222.69C730.94,-212.39 828.01,-187.6 889,-129.75 902.59,-116.86 913.74,-98.58 920.96,-84.88"/>
<polygon fill="#63b8ff" stroke="#63b8ff" points="924.04,-86.53 925.39,-76.02 917.78,-83.4 924.04,-86.53"/>
</a>
</g>
</g>
<!-- Node6 -->
<g id="Node000006" class="node">
<title>Node6</title>
<g id="a_Node000006"><a xlink:title=" ">
<polygon fill="#e0e0e0" stroke="#999999" points="697.62,-19.25 646.38,-19.25 646.38,0 697.62,0 697.62,-19.25"/>
<text xml:space="preserve" text-anchor="middle" x="672" y="-5.75" font-family="Helvetica,sans-Serif" font-size="10.00">memory</text>
</a>
</g>
</g>
<!-- Node5&#45;&gt;Node6 -->
<g id="edge5_Node000005_Node000006" class="edge">
<title>Node5&#45;&gt;Node6</title>
<g id="a_edge5_Node000005_Node000006"><a xlink:title=" ">
<path fill="none" stroke="#63b8ff" d="M603.91,-54.84C616.16,-46.89 634.25,-35.14 648.71,-25.75"/>
<polygon fill="#63b8ff" stroke="#63b8ff" points="650.27,-28.91 656.75,-20.53 646.46,-23.04 650.27,-28.91"/>
</a>
</g>
</g>
<!-- Node5&#45;&gt;Node7 -->
<g id="edge6_Node000005_Node000007" class="edge">
<title>Node5&#45;&gt;Node7</title>
<g id="a_edge6_Node000005_Node000007"><a xlink:title=" ">
<path fill="none" stroke="#63b8ff" d="M623.59,-54.84C659.08,-45.3 714.89,-30.29 751.46,-20.45"/>
<polygon fill="#63b8ff" stroke="#63b8ff" points="751.94,-23.95 760.69,-17.97 750.12,-17.19 751.94,-23.95"/>
</a>
</g>
</g>
<!-- Node5&#45;&gt;Node8 -->
<g id="edge7_Node000005_Node000008" class="edge">
<title>Node5&#45;&gt;Node8</title>
<g id="a_edge7_Node000005_Node000008"><a xlink:title=" ">
<path fill="none" stroke="#63b8ff" d="M613.75,-54.84C638.89,-45.28 678.45,-30.23 704.31,-20.4"/>
<polygon fill="#63b8ff" stroke="#63b8ff" points="705.28,-23.77 713.38,-16.95 702.79,-17.23 705.28,-23.77"/>
</a>
</g>
</g>
<!-- Node9 -->
<g id="Node000009" class="node">
<title>Node9</title>
<g id="a_Node000009"><a xlink:title=" ">
<polygon fill="#e0e0e0" stroke="#999999" points="533,-19.25 493,-19.25 493,0 533,0 533,-19.25"/>
<text xml:space="preserve" text-anchor="middle" x="513" y="-5.75" font-family="Helvetica,sans-Serif" font-size="10.00">string</text>
</a>
</g>
</g>
<!-- Node5&#45;&gt;Node9 -->
<g id="edge8_Node000005_Node000009" class="edge">
<title>Node5&#45;&gt;Node9</title>
<g id="a_edge8_Node000005_Node000009"><a xlink:title=" ">
<path fill="none" stroke="#63b8ff" d="M576.94,-54.84C565.54,-46.96 548.77,-35.36 535.26,-26.02"/>
<polygon fill="#63b8ff" stroke="#63b8ff" points="537.59,-23.37 527.37,-20.56 533.6,-29.13 537.59,-23.37"/>
</a>
</g>
</g>
<!-- Node10 -->
<g id="Node000010" class="node">
<title>Node10</title>
<g id="a_Node000010"><a xlink:title=" ">
<polygon fill="#e0e0e0" stroke="#999999" points="628.75,-19.25 551.25,-19.25 551.25,0 628.75,0 628.75,-19.25"/>
<text xml:space="preserve" text-anchor="middle" x="590" y="-5.75" font-family="Helvetica,sans-Serif" font-size="10.00">unordered_set</text>
</a>
</g>
</g>
<!-- Node5&#45;&gt;Node10 -->
<g id="edge9_Node000005_Node000010" class="edge">
<title>Node5&#45;&gt;Node10</title>
<g id="a_edge9_Node000005_Node000010"><a xlink:title=" ">
<path fill="none" stroke="#63b8ff" d="M590,-55.08C590,-48.57 590,-39.42 590,-31.12"/>
<polygon fill="#63b8ff" stroke="#63b8ff" points="593.5,-31.12 590,-21.12 586.5,-31.12 593.5,-31.12"/>
</a>
</g>
</g>
<!-- Node5&#45;&gt;Node11 -->
<g id="edge10_Node000005_Node000011" class="edge">
<title>Node5&#45;&gt;Node11</title>
<g id="a_edge10_Node000005_Node000011"><a xlink:title=" ">
<path fill="none" stroke="#63b8ff" d="M534.17,-56.22C531.41,-55.88 528.67,-55.56 526,-55.25 362.48,-36.46 166.24,-19.64 89.76,-13.3"/>
<polygon fill="#63b8ff" stroke="#63b8ff" points="90.3,-9.83 80.04,-12.5 89.72,-16.81 90.3,-9.83"/>
</a>
</g>
</g>
<!-- Node12&#45;&gt;Node9 -->
<g id="edge14_Node000012_Node000009" class="edge">
<title>Node12&#45;&gt;Node9</title>
<g id="a_edge14_Node000012_Node000009"><a xlink:title=" ">
<path fill="none" stroke="#63b8ff" d="M468.75,-55.08C476.15,-47.65 486.96,-36.79 496.05,-27.66"/>
<polygon fill="#63b8ff" stroke="#63b8ff" points="498.42,-30.24 502.99,-20.68 493.46,-25.3 498.42,-30.24"/>
</a>
</g>
</g>
<!-- Node13 -->
<g id="Node000013" class="node">
<title>Node13</title>
<g id="a_Node000013"><a xlink:title=" ">
<polygon fill="#e0e0e0" stroke="#999999" points="398.62,-19.25 347.38,-19.25 347.38,0 398.62,0 398.62,-19.25"/>
<text xml:space="preserve" text-anchor="middle" x="373" y="-5.75" font-family="Helvetica,sans-Serif" font-size="10.00">sstream</text>
</a>
</g>
</g>
<!-- Node12&#45;&gt;Node13 -->
<g id="edge12_Node000012_Node000013" class="edge">
<title>Node12&#45;&gt;Node13</title>
<g id="a_edge12_Node000012_Node000013"><a xlink:title=" ">
<path fill="none" stroke="#63b8ff" d="M445.24,-54.84C432.12,-46.81 412.68,-34.91 397.27,-25.48"/>
<polygon fill="#63b8ff" stroke="#63b8ff" points="399.48,-22.73 389.12,-20.49 395.82,-28.7 399.48,-22.73"/>
</a>
</g>
</g>
<!-- Node14 -->
<g id="Node000014" class="node">
<title>Node14</title>
<g id="a_Node000014"><a xlink:title=" ">
<polygon fill="#e0e0e0" stroke="#999999" points="475.38,-19.25 416.62,-19.25 416.62,0 475.38,0 475.38,-19.25"/>
<text xml:space="preserve" text-anchor="middle" x="446" y="-5.75" font-family="Helvetica,sans-Serif" font-size="10.00">stdexcept</text>
</a>
</g>
</g>
<!-- Node12&#45;&gt;Node14 -->
<g id="edge13_Node000012_Node000014" class="edge">
<title>Node12&#45;&gt;Node14</title>
<g id="a_edge13_Node000012_Node000014"><a xlink:title=" ">
<path fill="none" stroke="#63b8ff" d="M457.69,-55.08C455.94,-48.42 453.46,-38.99 451.23,-30.53"/>
<polygon fill="#63b8ff" stroke="#63b8ff" points="454.67,-29.85 448.75,-21.07 447.9,-31.63 454.67,-29.85"/>
</a>
</g>
</g>
<!-- Node15&#45;&gt;Node11 -->
<g id="edge32_Node000015_Node000011" class="edge">
<title>Node15&#45;&gt;Node11</title>
<g id="a_edge32_Node000015_Node000011"><a xlink:title=" ">
<path fill="none" stroke="#63b8ff" d="M308.88,-166.69C252.23,-155.33 157.07,-129.18 95,-74.5 81.23,-62.37 71.04,-44.01 64.69,-30.08"/>
<polygon fill="#63b8ff" stroke="#63b8ff" points="67.99,-28.89 60.86,-21.05 61.54,-31.63 67.99,-28.89"/>
</a>
</g>
</g>
<!-- Node15&#45;&gt;Node12 -->
<g id="edge16_Node000015_Node000012" class="edge">
<title>Node15&#45;&gt;Node12</title>
<g id="a_edge16_Node000015_Node000012"><a xlink:title=" ">
<path fill="none" stroke="#63b8ff" d="M341.69,-165.38C323.66,-152.92 296.66,-129.76 311,-110.5 321.56,-96.32 360.3,-84.97 395.63,-77.26"/>
<polygon fill="#63b8ff" stroke="#63b8ff" points="395.91,-80.78 404.97,-75.3 394.47,-73.93 395.91,-80.78"/>
</a>
</g>
</g>
<!-- Node16 -->
<g id="Node000016" class="node">
<title>Node16</title>
<g id="a_Node000016"><a xlink:href="_optional_8hpp.html" target="_top" xlink:title=" ">
<polygon fill="white" stroke="#666666" points="712.38,-129.75 641.62,-129.75 641.62,-110.5 712.38,-110.5 712.38,-129.75"/>
<text xml:space="preserve" text-anchor="middle" x="677" y="-116.25" font-family="Helvetica,sans-Serif" font-size="10.00">Optional.hpp</text>
</a>
</g>
</g>
<!-- Node15&#45;&gt;Node16 -->
<g id="edge17_Node000015_Node000016" class="edge">
<title>Node15&#45;&gt;Node16</title>
<g id="a_edge17_Node000015_Node000016"><a xlink:title=" ">
<path fill="none" stroke="#63b8ff" d="M403.02,-166.57C463.88,-156.48 569.3,-138.99 630.1,-128.9"/>
<polygon fill="#63b8ff" stroke="#63b8ff" points="630.49,-132.39 639.79,-127.3 629.35,-125.48 630.49,-132.39"/>
</a>
</g>
</g>
<!-- Node15&#45;&gt;Node19 -->
<g id="edge21_Node000015_Node000019" class="edge">
<title>Node15&#45;&gt;Node19</title>
<g id="a_edge21_Node000015_Node000019"><a xlink:title=" ">
<path fill="none" stroke="#63b8ff" d="M370.42,-165.34C383.12,-157.39 401.87,-145.64 416.86,-136.25"/>
<polygon fill="#63b8ff" stroke="#63b8ff" points="418.61,-139.28 425.23,-131.01 414.9,-133.35 418.61,-139.28"/>
</a>
</g>
</g>
<!-- Node20 -->
<g id="Node000020" class="node">
<title>Node20</title>
<g id="a_Node000020"><a xlink:title=" ">
<polygon fill="#e0e0e0" stroke="#999999" points="141.88,-74.5 104.12,-74.5 104.12,-55.25 141.88,-55.25 141.88,-74.5"/>
<text xml:space="preserve" text-anchor="middle" x="123" y="-61" font-family="Helvetica,sans-Serif" font-size="10.00">array</text>
</a>
</g>
</g>
<!-- Node15&#45;&gt;Node20 -->
<g id="edge30_Node000015_Node000020" class="edge">
<title>Node15&#45;&gt;Node20</title>
<g id="a_edge30_Node000015_Node000020"><a xlink:title=" ">
<path fill="none" stroke="#63b8ff" d="M336.54,-165.31C295.74,-146.32 201.08,-102.23 152.67,-79.69"/>
<polygon fill="#63b8ff" stroke="#63b8ff" points="154.16,-76.52 143.62,-75.48 151.21,-82.87 154.16,-76.52"/>
</a>
</g>
</g>
<!-- Node15&#45;&gt;Node22 -->
<g id="edge29_Node000015_Node000022" class="edge">
<title>Node15&#45;&gt;Node22</title>
<g id="a_edge29_Node000015_Node000022"><a xlink:title=" ">
<path fill="none" stroke="#63b8ff" d="M383.74,-165.31C443.99,-145.62 586.75,-98.97 653.04,-77.3"/>
<polygon fill="#63b8ff" stroke="#63b8ff" points="653.9,-80.7 662.31,-74.27 651.72,-74.05 653.9,-80.7"/>
</a>
</g>
</g>
<!-- Node25 -->
<g id="Node000025" class="node">
<title>Node25</title>
<g id="a_Node000025"><a xlink:title=" ">
<polygon fill="#e0e0e0" stroke="#999999" points="392.12,-129.75 319.88,-129.75 319.88,-110.5 392.12,-110.5 392.12,-129.75"/>
<text xml:space="preserve" text-anchor="middle" x="356" y="-116.25" font-family="Helvetica,sans-Serif" font-size="10.00">initializer_list</text>
</a>
</g>
</g>
<!-- Node15&#45;&gt;Node25 -->
<g id="edge31_Node000015_Node000025" class="edge">
<title>Node15&#45;&gt;Node25</title>
<g id="a_edge31_Node000015_Node000025"><a xlink:title=" ">
<path fill="none" stroke="#63b8ff" d="M356,-165.58C356,-159.07 356,-149.92 356,-141.62"/>
<polygon fill="#63b8ff" stroke="#63b8ff" points="359.5,-141.62 356,-131.62 352.5,-141.62 359.5,-141.62"/>
</a>
</g>
</g>
<!-- Node26 -->
<g id="Node000026" class="node">
<title>Node26</title>
<g id="a_Node000026"><a xlink:title=" ">
<polygon fill="#e0e0e0" stroke="#999999" points="105.62,-129.75 66.38,-129.75 66.38,-110.5 105.62,-110.5 105.62,-129.75"/>
<text xml:space="preserve" text-anchor="middle" x="86" y="-116.25" font-family="Helvetica,sans-Serif" font-size="10.00">utility</text>
</a>
</g>
</g>
<!-- Node15&#45;&gt;Node26 -->
<g id="edge33_Node000015_Node000026" class="edge">
<title>Node15&#45;&gt;Node26</title>
<g id="a_edge33_Node000015_Node000026"><a xlink:title=" ">
<path fill="none" stroke="#63b8ff" d="M309.26,-166.41C261.52,-158.07 185.35,-144.2 120,-129.75 119.01,-129.53 118.01,-129.3 117,-129.07"/>
<polygon fill="#63b8ff" stroke="#63b8ff" points="118.1,-125.74 107.56,-126.79 116.46,-132.54 118.1,-125.74"/>
</a>
</g>
</g>
<!-- Node16&#45;&gt;Node12 -->
<g id="edge18_Node000016_Node000012" class="edge">
<title>Node16&#45;&gt;Node12</title>
<g id="a_edge18_Node000016_Node000012"><a xlink:title=" ">
<path fill="none" stroke="#63b8ff" d="M641.17,-110.33C604.82,-101.41 548.35,-87.55 508.12,-77.68"/>
<polygon fill="#63b8ff" stroke="#63b8ff" points="508.99,-74.29 498.45,-75.31 507.32,-81.09 508.99,-74.29"/>
</a>
</g>
</g>
<!-- Node17 -->
<g id="Node000017" class="node">
<title>Node17</title>
<g id="a_Node000017"><a xlink:title=" ">
<polygon fill="#e0e0e0" stroke="#999999" points="851.62,-74.5 806.38,-74.5 806.38,-55.25 851.62,-55.25 851.62,-74.5"/>
<text xml:space="preserve" text-anchor="middle" x="829" y="-61" font-family="Helvetica,sans-Serif" font-size="10.00">cstring</text>
</a>
</g>
</g>
<!-- Node16&#45;&gt;Node17 -->
<g id="edge19_Node000016_Node000017" class="edge">
<title>Node16&#45;&gt;Node17</title>
<g id="a_edge19_Node000016_Node000017"><a xlink:title=" ">
<path fill="none" stroke="#63b8ff" d="M702.78,-110.09C728.24,-101.17 767.31,-87.49 795.23,-77.7"/>
<polygon fill="#63b8ff" stroke="#63b8ff" points="796.37,-81.02 804.65,-74.41 794.05,-74.41 796.37,-81.02"/>
</a>
</g>
</g>
<!-- Node16&#45;&gt;Node18 -->
<g id="edge20_Node000016_Node000018" class="edge">
<title>Node16&#45;&gt;Node18</title>
<g id="a_edge20_Node000016_Node000018"><a xlink:title=" ">
<path fill="none" stroke="#63b8ff" d="M712.71,-115.94C777.16,-109.95 917.4,-95.84 1045.85,-74.71"/>
<polygon fill="#63b8ff" stroke="#63b8ff" points="1046.26,-78.19 1055.55,-73.09 1045.11,-71.28 1046.26,-78.19"/>
</a>
</g>
</g>
<!-- Node19&#45;&gt;Node5 -->
<g id="edge26_Node000019_Node000005" class="edge">
<title>Node19&#45;&gt;Node5</title>
<g id="a_edge26_Node000019_Node000005"><a xlink:title=" ">
<path fill="none" stroke="#63b8ff" d="M466.28,-110.09C490.36,-101.49 526.86,-88.44 553.98,-78.75"/>
<polygon fill="#63b8ff" stroke="#63b8ff" points="554.94,-82.12 563.17,-75.46 552.58,-75.53 554.94,-82.12"/>
</a>
</g>
</g>
<!-- Node19&#45;&gt;Node12 -->
<g id="edge27_Node000019_Node000012" class="edge">
<title>Node19&#45;&gt;Node12</title>
<g id="a_edge27_Node000019_Node000012"><a xlink:title=" ">
<path fill="none" stroke="#63b8ff" d="M444.14,-110.33C446.54,-103.59 449.96,-94.02 453,-85.49"/>
<polygon fill="#63b8ff" stroke="#63b8ff" points="456.22,-86.88 456.29,-76.28 449.63,-84.53 456.22,-86.88"/>
</a>
</g>
</g>
<!-- Node19&#45;&gt;Node20 -->
<g id="edge22_Node000019_Node000020" class="edge">
<title>Node19&#45;&gt;Node20</title>
<g id="a_edge22_Node000019_Node000020"><a xlink:title=" ">
<path fill="none" stroke="#63b8ff" d="M410.03,-112.23C406.99,-111.61 403.94,-111.03 401,-110.5 294.07,-91.3 262.55,-98.58 153.35,-74.7"/>
<polygon fill="#63b8ff" stroke="#63b8ff" points="154.17,-71.3 143.65,-72.54 152.65,-78.13 154.17,-71.3"/>
</a>
</g>
</g>
<!-- Node21 -->
<g id="Node000021" class="node">
<title>Node21</title>
<g id="a_Node000021"><a xlink:title=" ">
<polygon fill="#e0e0e0" stroke="#999999" points="385,-74.5 327,-74.5 327,-55.25 385,-55.25 385,-74.5"/>
<text xml:space="preserve" text-anchor="middle" x="356" y="-61" font-family="Helvetica,sans-Serif" font-size="10.00">functional</text>
</a>
</g>
</g>
<!-- Node19&#45;&gt;Node21 -->
<g id="edge23_Node000019_Node000021" class="edge">
<title>Node19&#45;&gt;Node21</title>
<g id="a_edge23_Node000019_Node000021"><a xlink:title=" ">
<path fill="none" stroke="#63b8ff" d="M426.58,-110.09C413.88,-102.14 395.13,-90.39 380.14,-81"/>
<polygon fill="#63b8ff" stroke="#63b8ff" points="382.1,-78.1 371.77,-75.76 378.39,-84.03 382.1,-78.1"/>
</a>
</g>
</g>
<!-- Node19&#45;&gt;Node22 -->
<g id="edge24_Node000019_Node000022" class="edge">
<title>Node19&#45;&gt;Node22</title>
<g id="a_edge24_Node000019_Node000022"><a xlink:title=" ">
<path fill="none" stroke="#63b8ff" d="M471.94,-113.18C511.53,-105.46 582.48,-91.26 652.33,-75.04"/>
<polygon fill="#63b8ff" stroke="#63b8ff" points="653.11,-78.45 662.05,-72.76 651.52,-71.63 653.11,-78.45"/>
</a>
</g>
</g>
<!-- Node23 -->
<g id="Node000023" class="node">
<title>Node23</title>
<g id="a_Node000023"><a xlink:title=" ">
<polygon fill="#e0e0e0" stroke="#999999" points="205.62,-74.5 160.38,-74.5 160.38,-55.25 205.62,-55.25 205.62,-74.5"/>
<text xml:space="preserve" text-anchor="middle" x="183" y="-61" font-family="Helvetica,sans-Serif" font-size="10.00">chrono</text>
</a>
</g>
</g>
<!-- Node19&#45;&gt;Node23 -->
<g id="edge25_Node000019_Node000023" class="edge">
<title>Node19&#45;&gt;Node23</title>
<g id="a_edge25_Node000019_Node000023"><a xlink:title=" ">
<path fill="none" stroke="#63b8ff" d="M410.01,-112.37C406.96,-111.73 403.92,-111.1 401,-110.5 321.47,-94.27 298.27,-93.87 216.76,-75.01"/>
<polygon fill="#63b8ff" stroke="#63b8ff" points="217.98,-71.7 207.44,-72.83 216.38,-78.52 217.98,-71.7"/>
</a>
</g>
</g>
<!-- Node24 -->
<g id="Node000024" class="node">
<title>Node24</title>
<g id="a_Node000024"><a xlink:href="_deprecated_8hpp.html" target="_top" xlink:title=" ">
<polygon fill="white" stroke="#666666" points="308.5,-74.5 223.5,-74.5 223.5,-55.25 308.5,-55.25 308.5,-74.5"/>
<text xml:space="preserve" text-anchor="middle" x="266" y="-61" font-family="Helvetica,sans-Serif" font-size="10.00">Deprecated.hpp</text>
</a>
</g>
</g>
<!-- Node19&#45;&gt;Node24 -->
<g id="edge28_Node000019_Node000024" class="edge">
<title>Node19&#45;&gt;Node24</title>
<g id="a_edge28_Node000019_Node000024"><a xlink:title=" ">
<path fill="none" stroke="#63b8ff" d="M411.31,-110.09C382.53,-101.33 338.63,-87.98 306.62,-78.23"/>
<polygon fill="#63b8ff" stroke="#63b8ff" points="307.87,-74.96 297.28,-75.39 305.83,-81.65 307.87,-74.96"/>
</a>
</g>
</g>
<!-- Node28&#45;&gt;Node18 -->
<g id="edge43_Node000028_Node000018" class="edge">
<title>Node28&#45;&gt;Node18</title>
<g id="a_edge43_Node000028_Node000018"><a xlink:title=" ">
<path fill="none" stroke="#63b8ff" d="M963.51,-281.5C984.47,-264.61 1029.14,-226.13 1056,-185 1076.14,-154.16 1083.66,-110.98 1086.43,-85.97"/>
<polygon fill="#63b8ff" stroke="#63b8ff" points="1089.9,-86.5 1087.35,-76.21 1082.93,-85.84 1089.9,-86.5"/>
</a>
</g>
</g>
<!-- Node29 -->
<g id="Node000029" class="node">
<title>Node29</title>
<g id="a_Node000029"><a xlink:href="_assert_8hpp.html" target="_top" xlink:title=" ">
<polygon fill="white" stroke="#666666" points="1101.62,-240.25 1038.38,-240.25 1038.38,-221 1101.62,-221 1101.62,-240.25"/>
<text xml:space="preserve" text-anchor="middle" x="1070" y="-226.75" font-family="Helvetica,sans-Serif" font-size="10.00">Assert.hpp</text>
</a>
</g>
</g>
<!-- Node28&#45;&gt;Node29 -->
<g id="edge41_Node000028_Node000029" class="edge">
<title>Node28&#45;&gt;Node29</title>
<g id="a_edge41_Node000028_Node000029"><a xlink:title=" ">
<path fill="none" stroke="#63b8ff" d="M970.18,-281.43C989.29,-271.89 1019.61,-256.77 1041.82,-245.68"/>
<polygon fill="#63b8ff" stroke="#63b8ff" points="1043.25,-248.88 1050.64,-241.28 1040.13,-242.62 1043.25,-248.88"/>
</a>
</g>
</g>
<!-- Node31 -->
<g id="Node000031" class="node">
<title>Node31</title>
<g id="a_Node000031"><a xlink:title=" ">
<polygon fill="#e0e0e0" stroke="#999999" points="971.62,-240.25 932.38,-240.25 932.38,-221 971.62,-221 971.62,-240.25"/>
<text xml:space="preserve" text-anchor="middle" x="952" y="-226.75" font-family="Helvetica,sans-Serif" font-size="10.00">limits</text>
</a>
</g>
</g>
<!-- Node28&#45;&gt;Node31 -->
<g id="edge44_Node000028_Node000031" class="edge">
<title>Node28&#45;&gt;Node31</title>
<g id="a_edge44_Node000028_Node000031"><a xlink:title=" ">
<path fill="none" stroke="#63b8ff" d="M952,-281.56C952,-273.78 952,-262.2 952,-252.16"/>
<polygon fill="#63b8ff" stroke="#63b8ff" points="955.5,-252.16 952,-242.16 948.5,-252.16 955.5,-252.16"/>
</a>
</g>
</g>
<!-- Node30 -->
<g id="Node000030" class="node">
<title>Node30</title>
<g id="a_Node000030"><a xlink:title=" ">
<polygon fill="#e0e0e0" stroke="#999999" points="1168.12,-185 1119.88,-185 1119.88,-165.75 1168.12,-165.75 1168.12,-185"/>
<text xml:space="preserve" text-anchor="middle" x="1144" y="-171.5" font-family="Helvetica,sans-Serif" font-size="10.00">cassert</text>
</a>
</g>
</g>
<!-- Node29&#45;&gt;Node30 -->
<g id="edge42_Node000029_Node000030" class="edge">
<title>Node29&#45;&gt;Node30</title>
<g id="a_edge42_Node000029_Node000030"><a xlink:title=" ">
<path fill="none" stroke="#63b8ff" d="M1082.55,-220.59C1093.46,-212.74 1109.5,-201.2 1122.46,-191.87"/>
<polygon fill="#63b8ff" stroke="#63b8ff" points="1124.33,-194.84 1130.4,-186.16 1120.24,-189.16 1124.33,-194.84"/>
</a>
</g>
</g>
<!-- Node33 -->
<g id="Node000033" class="node">
<title>Node33</title>
<g id="a_Node000033"><a xlink:title=" ">
<polygon fill="#e0e0e0" stroke="#999999" points="1168.12,-240.25 1119.88,-240.25 1119.88,-221 1168.12,-221 1168.12,-240.25"/>
<text xml:space="preserve" text-anchor="middle" x="1144" y="-226.75" font-family="Helvetica,sans-Serif" font-size="10.00">cstddef</text>
</a>
</g>
</g>
<!-- Node32&#45;&gt;Node33 -->
<g id="edge46_Node000032_Node000033" class="edge">
<title>Node32&#45;&gt;Node33</title>
<g id="a_edge46_Node000032_Node000033"><a xlink:title=" ">
<path fill="none" stroke="#63b8ff" d="M1115.39,-275.95C1120.4,-268.19 1126.61,-258.56 1131.97,-250.26"/>
<polygon fill="#63b8ff" stroke="#63b8ff" points="1134.84,-252.27 1137.32,-241.97 1128.96,-248.48 1134.84,-252.27"/>
</a>
</g>
</g>
<!-- Node34&#45;&gt;Node4 -->
<g id="edge48_Node000034_Node000004" class="edge">
<title>Node34&#45;&gt;Node4</title>
<g id="a_edge48_Node000034_Node000004"><a xlink:title=" ">
<path fill="none" stroke="#63b8ff" d="M348.37,-281.43C403.81,-271.04 494.68,-254 554.42,-242.8"/>
<polygon fill="#63b8ff" stroke="#63b8ff" points="554.9,-246.27 564.08,-240.98 553.61,-239.39 554.9,-246.27"/>
</a>
</g>
</g>
<!-- Node34&#45;&gt;Node11 -->
<g id="edge53_Node000034_Node000011" class="edge">
<title>Node34&#45;&gt;Node11</title>
<g id="a_edge53_Node000034_Node000011"><a xlink:title=" ">
<path fill="none" stroke="#63b8ff" d="M232.53,-289.17C154.9,-283.63 38,-261.22 38,-176.38 38,-176.38 38,-176.38 38,-119.12 38,-87.79 45.78,-52.12 51.39,-30.5"/>
<polygon fill="#63b8ff" stroke="#63b8ff" points="54.72,-31.56 53.96,-21 47.97,-29.73 54.72,-31.56"/>
</a>
</g>
</g>
<!-- Node34&#45;&gt;Node15 -->
<g id="edge49_Node000034_Node000015" class="edge">
<title>Node34&#45;&gt;Node15</title>
<g id="a_edge49_Node000034_Node000015"><a xlink:title=" ">
<path fill="none" stroke="#63b8ff" d="M304.39,-281.54C313.47,-263.04 334.47,-220.26 346.7,-195.33"/>
<polygon fill="#63b8ff" stroke="#63b8ff" points="349.7,-197.17 350.96,-186.65 343.41,-194.08 349.7,-197.17"/>
</a>
</g>
</g>
<!-- Node34&#45;&gt;Node19 -->
<g id="edge50_Node000034_Node000019" class="edge">
<title>Node34&#45;&gt;Node19</title>
<g id="a_edge50_Node000034_Node000019"><a xlink:title=" ">
<path fill="none" stroke="#63b8ff" d="M312.26,-281.58C334.59,-264.8 382.32,-226.5 412,-185 421.76,-171.35 429.42,-153.88 434.41,-140.67"/>
<polygon fill="#63b8ff" stroke="#63b8ff" points="437.66,-141.98 437.71,-131.38 431.06,-139.63 437.66,-141.98"/>
</a>
</g>
</g>
<!-- Node34&#45;&gt;Node26 -->
<g id="edge52_Node000034_Node000026" class="edge">
<title>Node34&#45;&gt;Node26</title>
<g id="a_edge52_Node000034_Node000026"><a xlink:title=" ">
<path fill="none" stroke="#63b8ff" d="M288.49,-281.39C253.87,-253.99 150.31,-172.03 106.23,-137.14"/>
<polygon fill="#63b8ff" stroke="#63b8ff" points="108.5,-134.47 98.49,-131.01 104.16,-139.96 108.5,-134.47"/>
</a>
</g>
</g>
<!-- Node34&#45;&gt;Node34 -->
<g id="edge51_Node000034_Node000034" class="edge">
<title>Node34&#45;&gt;Node34</title>
<g id="a_edge51_Node000034_Node000034"><a xlink:title=" ">
<path fill="none" stroke="#63b8ff" d="M334.14,-301.57C359.59,-305.08 385.25,-301.73 385.25,-291.5 385.25,-282.79 366.65,-279.07 345.4,-280.32"/>
<polygon fill="#63b8ff" stroke="#63b8ff" points="345.25,-276.82 335.65,-281.29 345.94,-283.79 345.25,-276.82"/>
</a>
</g>
</g>
<!-- Node35&#45;&gt;Node19 -->
<g id="edge55_Node000035_Node000019" class="edge">
<title>Node35&#45;&gt;Node19</title>
<g id="a_edge55_Node000035_Node000019"><a xlink:title=" ">
<path fill="none" stroke="#63b8ff" d="M934.05,-169.83C830.93,-159.65 582.41,-135.1 483.07,-125.28"/>
<polygon fill="#63b8ff" stroke="#63b8ff" points="483.51,-121.81 473.22,-124.31 482.82,-128.77 483.51,-121.81"/>
</a>
</g>
</g>
<!-- Node36 -->
<g id="Node000036" class="node">
<title>Node36</title>
<g id="a_Node000036"><a xlink:href="_b_float16_8hpp.html" target="_top" xlink:title=" ">
<polygon fill="white" stroke="#666666" points="879.88,-129.75 806.12,-129.75 806.12,-110.5 879.88,-110.5 879.88,-129.75"/>
<text xml:space="preserve" text-anchor="middle" x="843" y="-116.25" font-family="Helvetica,sans-Serif" font-size="10.00">BFloat16.hpp</text>
</a>
</g>
</g>
<!-- Node35&#45;&gt;Node36 -->
<g id="edge56_Node000035_Node000036" class="edge">
<title>Node35&#45;&gt;Node36</title>
<g id="a_edge56_Node000035_Node000036"><a xlink:title=" ">
<path fill="none" stroke="#63b8ff" d="M956.76,-165.34C934.81,-156.81 901.65,-143.92 876.79,-134.26"/>
<polygon fill="#63b8ff" stroke="#63b8ff" points="878.35,-131.11 867.76,-130.75 875.82,-137.64 878.35,-131.11"/>
</a>
</g>
</g>
<!-- Node37 -->
<g id="Node000037" class="node">
<title>Node37</title>
<g id="a_Node000037"><a xlink:href="_half_8hpp.html" target="_top" xlink:title=" ">
<polygon fill="white" stroke="#666666" points="1026.38,-129.75 973.62,-129.75 973.62,-110.5 1026.38,-110.5 1026.38,-129.75"/>
<text xml:space="preserve" text-anchor="middle" x="1000" y="-116.25" font-family="Helvetica,sans-Serif" font-size="10.00">Half.hpp</text>
</a>
</g>
</g>
<!-- Node35&#45;&gt;Node37 -->
<g id="edge61_Node000035_Node000037" class="edge">
<title>Node35&#45;&gt;Node37</title>
<g id="a_edge61_Node000035_Node000037"><a xlink:title=" ">
<path fill="none" stroke="#63b8ff" d="M983.3,-165.58C985.83,-158.84 989.43,-149.27 992.63,-140.74"/>
<polygon fill="#63b8ff" stroke="#63b8ff" points="995.85,-142.12 996.09,-131.53 989.3,-139.66 995.85,-142.12"/>
</a>
</g>
</g>
<!-- Node36&#45;&gt;Node7 -->
<g id="edge57_Node000036_Node000007" class="edge">
<title>Node36&#45;&gt;Node7</title>
<g id="a_edge57_Node000036_Node000007"><a xlink:title=" ">
<path fill="none" stroke="#63b8ff" d="M849.5,-110.36C858.12,-97.57 871.14,-73.34 861,-55.25 852.93,-40.86 838.13,-30.56 823.95,-23.51"/>
<polygon fill="#63b8ff" stroke="#63b8ff" points="825.77,-20.49 815.22,-19.56 822.89,-26.87 825.77,-20.49"/>
</a>
</g>
</g>
<!-- Node36&#45;&gt;Node17 -->
<g id="edge59_Node000036_Node000017" class="edge">
<title>Node36&#45;&gt;Node17</title>
<g id="a_edge59_Node000036_Node000017"><a xlink:title=" ">
<path fill="none" stroke="#63b8ff" d="M840.69,-110.33C838.94,-103.67 836.46,-94.24 834.23,-85.78"/>
<polygon fill="#63b8ff" stroke="#63b8ff" points="837.67,-85.1 831.75,-76.32 830.9,-86.88 837.67,-85.1"/>
</a>
</g>
</g>
<!-- Node36&#45;&gt;Node22 -->
<g id="edge60_Node000036_Node000022" class="edge">
<title>Node36&#45;&gt;Node22</title>
<g id="a_edge60_Node000036_Node000022"><a xlink:title=" ">
<path fill="none" stroke="#63b8ff" d="M816.71,-110.09C790.93,-101.24 751.49,-87.69 723.06,-77.92"/>
<polygon fill="#63b8ff" stroke="#63b8ff" points="724.4,-74.68 713.81,-74.74 722.13,-81.3 724.4,-74.68"/>
</a>
</g>
</g>
<!-- Node36&#45;&gt;Node27 -->
<g id="edge58_Node000036_Node000027" class="edge">
<title>Node36&#45;&gt;Node27</title>
<g id="a_edge58_Node000036_Node000027"><a xlink:title=" ">
<path fill="none" stroke="#63b8ff" d="M857.76,-110.09C870.88,-102.06 890.32,-90.16 905.73,-80.73"/>
<polygon fill="#63b8ff" stroke="#63b8ff" points="907.18,-83.95 913.88,-75.74 903.52,-77.98 907.18,-83.95"/>
</a>
</g>
</g>
<!-- Node37&#45;&gt;Node18 -->
<g id="edge62_Node000037_Node000018" class="edge">
<title>Node37&#45;&gt;Node18</title>
<g id="a_edge62_Node000037_Node000018"><a xlink:title=" ">
<path fill="none" stroke="#63b8ff" d="M1014.93,-110.09C1028.2,-102.06 1047.87,-90.16 1063.45,-80.73"/>
<polygon fill="#63b8ff" stroke="#63b8ff" points="1064.96,-83.91 1071.7,-75.74 1061.34,-77.92 1064.96,-83.91"/>
</a>
</g>
</g>
<!-- Node38 -->
<g id="Node000038" class="node">
<title>Node38</title>
<g id="a_Node000038"><a xlink:title=" ">
<polygon fill="#e0e0e0" stroke="#999999" points="1038.62,-74.5 969.38,-74.5 969.38,-55.25 1038.62,-55.25 1038.62,-74.5"/>
<text xml:space="preserve" text-anchor="middle" x="1004" y="-61" font-family="Helvetica,sans-Serif" font-size="10.00">half/half.hpp</text>
</a>
</g>
</g>
<!-- Node37&#45;&gt;Node38 -->
<g id="edge63_Node000037_Node000038" class="edge">
<title>Node37&#45;&gt;Node38</title>
<g id="a_edge63_Node000037_Node000038"><a xlink:title=" ">
<path fill="none" stroke="#63b8ff" d="M1000.66,-110.33C1001.16,-103.74 1001.85,-94.46 1002.48,-86.07"/>
<polygon fill="#63b8ff" stroke="#63b8ff" points="1005.95,-86.6 1003.21,-76.37 998.97,-86.08 1005.95,-86.6"/>
</a>
</g>
</g>
</g>
</svg>
