<?xml version="1.0" encoding="UTF-8" standalone="no"?>
<!DOCTYPE svg PUBLIC "-//W3C//DTD SVG 1.1//EN"
 "http://www.w3.org/Graphics/SVG/1.1/DTD/svg11.dtd">
<!-- Generated by graphviz version 14.1.1 (20251213.1925)
 -->
<!-- Title: src/backends/reference/workloads/SpaceToDepth.hpp Pages: 1 -->
<svg width="382pt" height="105pt"
 viewBox="0.00 0.00 382.00 105.00" xmlns="http://www.w3.org/2000/svg" xmlns:xlink="http://www.w3.org/1999/xlink">
<g id="graph0" class="graph" transform="scale(1 1) rotate(0) translate(4 101)">
<title>src/backends/reference/workloads/SpaceToDepth.hpp</title>
<!-- Node1 -->
<g id="Node000001" class="node">
<title>Node1</title>
<g id="a_Node000001"><a xlink:title=" ">
<polygon fill="#999999" stroke="#666666" points="275.62,-97 126.12,-97 126.12,-66.5 275.62,-66.5 275.62,-97"/>
<text xml:space="preserve" text-anchor="start" x="134.12" y="-83.5" font-family="Helvetica,sans-Serif" font-size="10.00">src/backends/reference</text>
<text xml:space="preserve" text-anchor="middle" x="200.88" y="-72.25" font-family="Helvetica,sans-Serif" font-size="10.00">/workloads/SpaceToDepth.hpp</text>
</a>
</g>
</g>
<!-- Node2 -->
<g id="Node000002" class="node">
<title>Node2</title>
<g id="a_Node000002"><a xlink:href="_ref_space_to_depth_workload_8cpp.html" target="_top" xlink:title=" ">
<polygon fill="white" stroke="#666666" points="205.75,-30.5 0,-30.5 0,0 205.75,0 205.75,-30.5"/>
<text xml:space="preserve" text-anchor="start" x="8" y="-17" font-family="Helvetica,sans-Serif" font-size="10.00">src/backends/reference</text>
<text xml:space="preserve" text-anchor="middle" x="102.88" y="-5.75" font-family="Helvetica,sans-Serif" font-size="10.00">/workloads/RefSpaceToDepthWorkload.cpp</text>
</a>
</g>
</g>
<!-- Node1&#45;&gt;Node2 -->
<g id="edge1_Node000001_Node000002" class="edge">
<title>Node1&#45;&gt;Node2</title>
<g id="a_edge1_Node000001_Node000002"><a xlink:title=" ">
<path fill="none" stroke="#63b8ff" d="M169.11,-59.84C154.71,-50.37 138.04,-39.39 125.02,-30.83"/>
<polygon fill="#63b8ff" stroke="#63b8ff" points="167.1,-62.71 177.37,-65.28 170.94,-56.86 167.1,-62.71"/>
</a>
</g>
</g>
<!-- Node3 -->
<g id="Node000003" class="node">
<title>Node3</title>
<g id="a_Node000003"><a xlink:href="_space_to_depth_8cpp.html" target="_top" xlink:title=" ">
<polygon fill="white" stroke="#666666" points="373.62,-30.5 224.12,-30.5 224.12,0 373.62,0 373.62,-30.5"/>
<text xml:space="preserve" text-anchor="start" x="232.12" y="-17" font-family="Helvetica,sans-Serif" font-size="10.00">src/backends/reference</text>
<text xml:space="preserve" text-anchor="middle" x="298.88" y="-5.75" font-family="Helvetica,sans-Serif" font-size="10.00">/workloads/SpaceToDepth.cpp</text>
</a>
</g>
</g>
<!-- Node1&#45;&gt;Node3 -->
<g id="edge2_Node000001_Node000003" class="edge">
<title>Node1&#45;&gt;Node3</title>
<g id="a_edge2_Node000001_Node000003"><a xlink:title=" ">
<path fill="none" stroke="#63b8ff" d="M232.64,-59.84C247.04,-50.37 263.71,-39.39 276.73,-30.83"/>
<polygon fill="#63b8ff" stroke="#63b8ff" points="230.81,-56.86 224.38,-65.28 234.65,-62.71 230.81,-56.86"/>
</a>
</g>
</g>
</g>
</svg>
