<?xml version="1.0" encoding="UTF-8" standalone="no"?>
<!DOCTYPE svg PUBLIC "-//W3C//DTD SVG 1.1//EN"
 "http://www.w3.org/Graphics/SVG/1.1/DTD/svg11.dtd">
<!-- Generated by graphviz version 14.1.1 (20251213.1925)
 -->
<!-- Title: src/backends/reference/workloads/StridedSlice.hpp Pages: 1 -->
<svg width="358pt" height="105pt"
 viewBox="0.00 0.00 358.00 105.00" xmlns="http://www.w3.org/2000/svg" xmlns:xlink="http://www.w3.org/1999/xlink">
<g id="graph0" class="graph" transform="scale(1 1) rotate(0) translate(4 101)">
<title>src/backends/reference/workloads/StridedSlice.hpp</title>
<!-- Node1 -->
<g id="Node000001" class="node">
<title>Node1</title>
<g id="a_Node000001"><a xlink:title=" ">
<polygon fill="#999999" stroke="#666666" points="257.62,-97 120.12,-97 120.12,-66.5 257.62,-66.5 257.62,-97"/>
<text xml:space="preserve" text-anchor="start" x="128.12" y="-83.5" font-family="Helvetica,sans-Serif" font-size="10.00">src/backends/reference</text>
<text xml:space="preserve" text-anchor="middle" x="188.88" y="-72.25" font-family="Helvetica,sans-Serif" font-size="10.00">/workloads/StridedSlice.hpp</text>
</a>
</g>
</g>
<!-- Node2 -->
<g id="Node000002" class="node">
<title>Node2</title>
<g id="a_Node000002"><a xlink:href="_ref_strided_slice_workload_8cpp.html" target="_top" xlink:title=" ">
<polygon fill="white" stroke="#666666" points="193.75,-30.5 0,-30.5 0,0 193.75,0 193.75,-30.5"/>
<text xml:space="preserve" text-anchor="start" x="8" y="-17" font-family="Helvetica,sans-Serif" font-size="10.00">src/backends/reference</text>
<text xml:space="preserve" text-anchor="middle" x="96.88" y="-5.75" font-family="Helvetica,sans-Serif" font-size="10.00">/workloads/RefStridedSliceWorkload.cpp</text>
</a>
</g>
</g>
<!-- Node1&#45;&gt;Node2 -->
<g id="edge1_Node000001_Node000002" class="edge">
<title>Node1&#45;&gt;Node2</title>
<g id="a_edge1_Node000001_Node000002"><a xlink:title=" ">
<path fill="none" stroke="#63b8ff" d="M158.66,-59.57C145.24,-50.16 129.77,-39.31 117.67,-30.83"/>
<polygon fill="#63b8ff" stroke="#63b8ff" points="156.56,-62.37 166.76,-65.25 160.58,-56.64 156.56,-62.37"/>
</a>
</g>
</g>
<!-- Node3 -->
<g id="Node000003" class="node">
<title>Node3</title>
<g id="a_Node000003"><a xlink:href="_strided_slice_8cpp.html" target="_top" xlink:title=" ">
<polygon fill="white" stroke="#666666" points="349.62,-30.5 212.12,-30.5 212.12,0 349.62,0 349.62,-30.5"/>
<text xml:space="preserve" text-anchor="start" x="220.12" y="-17" font-family="Helvetica,sans-Serif" font-size="10.00">src/backends/reference</text>
<text xml:space="preserve" text-anchor="middle" x="280.88" y="-5.75" font-family="Helvetica,sans-Serif" font-size="10.00">/workloads/StridedSlice.cpp</text>
</a>
</g>
</g>
<!-- Node1&#45;&gt;Node3 -->
<g id="edge2_Node000001_Node000003" class="edge">
<title>Node1&#45;&gt;Node3</title>
<g id="a_edge2_Node000001_Node000003"><a xlink:title=" ">
<path fill="none" stroke="#63b8ff" d="M219.09,-59.57C232.51,-50.16 247.98,-39.31 260.08,-30.83"/>
<polygon fill="#63b8ff" stroke="#63b8ff" points="217.17,-56.64 210.99,-65.25 221.19,-62.37 217.17,-56.64"/>
</a>
</g>
</g>
</g>
</svg>
