<?xml version="1.0" encoding="UTF-8" standalone="no"?>
<!DOCTYPE svg PUBLIC "-//W3C//DTD SVG 1.1//EN"
 "http://www.w3.org/Graphics/SVG/1.1/DTD/svg11.dtd">
<!-- Generated by graphviz version 14.1.1 (20251213.1925)
 -->
<!-- Title: src/backends/tosaCommon/operatorMappings/TanhOperator.hpp Pages: 1 -->
<svg width="512pt" height="249pt"
 viewBox="0.00 0.00 512.00 249.00" xmlns="http://www.w3.org/2000/svg" xmlns:xlink="http://www.w3.org/1999/xlink">
<g id="graph0" class="graph" transform="scale(1 1) rotate(0) translate(4 245.25)">
<title>src/backends/tosaCommon/operatorMappings/TanhOperator.hpp</title>
<!-- Node1 -->
<g id="Node000001" class="node">
<title>Node1</title>
<g id="a_Node000001"><a xlink:title=" ">
<polygon fill="#999999" stroke="#666666" points="268.75,-241.25 93,-241.25 93,-210.75 268.75,-210.75 268.75,-241.25"/>
<text xml:space="preserve" text-anchor="start" x="101" y="-227.75" font-family="Helvetica,sans-Serif" font-size="10.00">src/backends/tosaCommon</text>
<text xml:space="preserve" text-anchor="middle" x="180.88" y="-216.5" font-family="Helvetica,sans-Serif" font-size="10.00">/operatorMappings/TanhOperator.hpp</text>
</a>
</g>
</g>
<!-- Node2 -->
<g id="Node000002" class="node">
<title>Node2</title>
<g id="a_Node000002"><a xlink:href="_tanh_operator_8cpp.html" target="_top" xlink:title=" ">
<polygon fill="white" stroke="#666666" points="175.75,-169.12 0,-169.12 0,-138.62 175.75,-138.62 175.75,-169.12"/>
<text xml:space="preserve" text-anchor="start" x="8" y="-155.62" font-family="Helvetica,sans-Serif" font-size="10.00">src/backends/tosaCommon</text>
<text xml:space="preserve" text-anchor="middle" x="87.88" y="-144.38" font-family="Helvetica,sans-Serif" font-size="10.00">/operatorMappings/TanhOperator.cpp</text>
</a>
</g>
</g>
<!-- Node1&#45;&gt;Node2 -->
<g id="edge1_Node000001_Node000002" class="edge">
<title>Node1&#45;&gt;Node2</title>
<g id="a_edge1_Node000001_Node000002"><a xlink:title=" ">
<path fill="none" stroke="#63b8ff" d="M152.44,-203.56C137.75,-192.48 120.21,-179.25 107.12,-169.39"/>
<polygon fill="#63b8ff" stroke="#63b8ff" points="150.31,-206.33 160.4,-209.56 154.52,-200.74 150.31,-206.33"/>
</a>
</g>
</g>
<!-- Node3 -->
<g id="Node000003" class="node">
<title>Node3</title>
<g id="a_Node000003"><a xlink:href="_tosa_common_operators_8hpp.html" target="_top" xlink:title=" ">
<polygon fill="white" stroke="#666666" points="353.88,-174.75 193.88,-174.75 193.88,-133 353.88,-133 353.88,-174.75"/>
<text xml:space="preserve" text-anchor="start" x="201.88" y="-161.25" font-family="Helvetica,sans-Serif" font-size="10.00">src/backends/tosaCommon</text>
<text xml:space="preserve" text-anchor="start" x="201.88" y="-150" font-family="Helvetica,sans-Serif" font-size="10.00">/operatorMappings/TosaCommon</text>
<text xml:space="preserve" text-anchor="middle" x="273.88" y="-138.75" font-family="Helvetica,sans-Serif" font-size="10.00">Operators.hpp</text>
</a>
</g>
</g>
<!-- Node1&#45;&gt;Node3 -->
<g id="edge2_Node000001_Node000003" class="edge">
<title>Node1&#45;&gt;Node3</title>
<g id="a_edge2_Node000001_Node000003"><a xlink:title=" ">
<path fill="none" stroke="#63b8ff" d="M209.25,-203.6C221.21,-194.58 235.07,-184.14 246.87,-175.24"/>
<polygon fill="#63b8ff" stroke="#63b8ff" points="207.23,-200.74 201.35,-209.56 211.44,-206.33 207.23,-200.74"/>
</a>
</g>
</g>
<!-- Node4 -->
<g id="Node000004" class="node">
<title>Node4</title>
<g id="a_Node000004"><a xlink:href="_tosa_mappings_8hpp.html" target="_top" xlink:title=" ">
<polygon fill="white" stroke="#666666" points="341.88,-97 205.88,-97 205.88,-66.5 341.88,-66.5 341.88,-97"/>
<text xml:space="preserve" text-anchor="start" x="213.88" y="-83.5" font-family="Helvetica,sans-Serif" font-size="10.00">src/backends/tosaCommon</text>
<text xml:space="preserve" text-anchor="middle" x="273.88" y="-72.25" font-family="Helvetica,sans-Serif" font-size="10.00">/TosaMappings.hpp</text>
</a>
</g>
</g>
<!-- Node3&#45;&gt;Node4 -->
<g id="edge3_Node000003_Node000004" class="edge">
<title>Node3&#45;&gt;Node4</title>
<g id="a_edge3_Node000003_Node000004"><a xlink:title=" ">
<path fill="none" stroke="#63b8ff" d="M273.88,-121.13C273.88,-112.77 273.88,-104.15 273.88,-97.2"/>
<polygon fill="#63b8ff" stroke="#63b8ff" points="270.38,-121.08 273.88,-131.08 277.38,-121.08 270.38,-121.08"/>
</a>
</g>
</g>
<!-- Node5 -->
<g id="Node000005" class="node">
<title>Node5</title>
<g id="a_Node000005"><a xlink:href="_tosa_mappings_8cpp.html" target="_top" xlink:title=" ">
<polygon fill="white" stroke="#666666" points="184.88,-30.5 48.88,-30.5 48.88,0 184.88,0 184.88,-30.5"/>
<text xml:space="preserve" text-anchor="start" x="56.88" y="-17" font-family="Helvetica,sans-Serif" font-size="10.00">src/backends/tosaCommon</text>
<text xml:space="preserve" text-anchor="middle" x="116.88" y="-5.75" font-family="Helvetica,sans-Serif" font-size="10.00">/TosaMappings.cpp</text>
</a>
</g>
</g>
<!-- Node4&#45;&gt;Node5 -->
<g id="edge4_Node000004_Node000005" class="edge">
<title>Node4&#45;&gt;Node5</title>
<g id="a_edge4_Node000004_Node000005"><a xlink:title=" ">
<path fill="none" stroke="#63b8ff" d="M227.62,-61.75C203.67,-51.91 174.86,-40.07 152.63,-30.94"/>
<polygon fill="#63b8ff" stroke="#63b8ff" points="226.27,-64.98 236.85,-65.54 228.93,-58.5 226.27,-64.98"/>
</a>
</g>
</g>
<!-- Node6 -->
<g id="Node000006" class="node">
<title>Node6</title>
<g id="a_Node000006"><a xlink:href="_tosa_ref_backend_8cpp.html" target="_top" xlink:title=" ">
<polygon fill="white" stroke="#666666" points="344.5,-30.5 203.25,-30.5 203.25,0 344.5,0 344.5,-30.5"/>
<text xml:space="preserve" text-anchor="start" x="211.25" y="-17" font-family="Helvetica,sans-Serif" font-size="10.00">src/backends/tosaReference</text>
<text xml:space="preserve" text-anchor="middle" x="273.88" y="-5.75" font-family="Helvetica,sans-Serif" font-size="10.00">/TosaRefBackend.cpp</text>
</a>
</g>
</g>
<!-- Node4&#45;&gt;Node6 -->
<g id="edge5_Node000004_Node000006" class="edge">
<title>Node4&#45;&gt;Node6</title>
<g id="a_edge5_Node000004_Node000006"><a xlink:title=" ">
<path fill="none" stroke="#63b8ff" d="M273.88,-54.81C273.88,-46.64 273.88,-37.91 273.88,-30.83"/>
<polygon fill="#63b8ff" stroke="#63b8ff" points="270.38,-54.6 273.88,-64.6 277.38,-54.6 270.38,-54.6"/>
</a>
</g>
</g>
<!-- Node7 -->
<g id="Node000007" class="node">
<title>Node7</title>
<g id="a_Node000007"><a xlink:href="_tosa_ref_layer_support_8cpp.html" target="_top" xlink:title=" ">
<polygon fill="white" stroke="#666666" points="503.5,-30.5 362.25,-30.5 362.25,0 503.5,0 503.5,-30.5"/>
<text xml:space="preserve" text-anchor="start" x="370.25" y="-17" font-family="Helvetica,sans-Serif" font-size="10.00">src/backends/tosaReference</text>
<text xml:space="preserve" text-anchor="middle" x="432.88" y="-5.75" font-family="Helvetica,sans-Serif" font-size="10.00">/TosaRefLayerSupport.cpp</text>
</a>
</g>
</g>
<!-- Node4&#45;&gt;Node7 -->
<g id="edge6_Node000004_Node000007" class="edge">
<title>Node4&#45;&gt;Node7</title>
<g id="a_edge6_Node000004_Node000007"><a xlink:title=" ">
<path fill="none" stroke="#63b8ff" d="M320.39,-61.88C344.71,-52.01 374.05,-40.11 396.66,-30.94"/>
<polygon fill="#63b8ff" stroke="#63b8ff" points="319.31,-58.54 311.36,-65.54 321.94,-65.03 319.31,-58.54"/>
</a>
</g>
</g>
</g>
</svg>
