<?xml version="1.0" encoding="UTF-8" standalone="no"?>
<!DOCTYPE svg PUBLIC "-//W3C//DTD SVG 1.1//EN"
 "http://www.w3.org/Graphics/SVG/1.1/DTD/svg11.dtd">
<!-- Generated by graphviz version 14.1.1 (20251213.1925)
 -->
<!-- Title: src/backends/tosaCommon/operatorMappings/TosaCommonOperators.hpp Pages: 1 -->
<svg width="463pt" height="183pt"
 viewBox="0.00 0.00 463.00 183.00" xmlns="http://www.w3.org/2000/svg" xmlns:xlink="http://www.w3.org/1999/xlink">
<g id="graph0" class="graph" transform="scale(1 1) rotate(0) translate(4 178.75)">
<title>src/backends/tosaCommon/operatorMappings/TosaCommonOperators.hpp</title>
<!-- Node1 -->
<g id="Node000001" class="node">
<title>Node1</title>
<g id="a_Node000001"><a xlink:title=" ">
<polygon fill="#999999" stroke="#666666" points="305,-174.75 145,-174.75 145,-133 305,-133 305,-174.75"/>
<text xml:space="preserve" text-anchor="start" x="153" y="-161.25" font-family="Helvetica,sans-Serif" font-size="10.00">src/backends/tosaCommon</text>
<text xml:space="preserve" text-anchor="start" x="153" y="-150" font-family="Helvetica,sans-Serif" font-size="10.00">/operatorMappings/TosaCommon</text>
<text xml:space="preserve" text-anchor="middle" x="225" y="-138.75" font-family="Helvetica,sans-Serif" font-size="10.00">Operators.hpp</text>
</a>
</g>
</g>
<!-- Node2 -->
<g id="Node000002" class="node">
<title>Node2</title>
<g id="a_Node000002"><a xlink:href="_tosa_mappings_8hpp.html" target="_top" xlink:title=" ">
<polygon fill="white" stroke="#666666" points="293,-97 157,-97 157,-66.5 293,-66.5 293,-97"/>
<text xml:space="preserve" text-anchor="start" x="165" y="-83.5" font-family="Helvetica,sans-Serif" font-size="10.00">src/backends/tosaCommon</text>
<text xml:space="preserve" text-anchor="middle" x="225" y="-72.25" font-family="Helvetica,sans-Serif" font-size="10.00">/TosaMappings.hpp</text>
</a>
</g>
</g>
<!-- Node1&#45;&gt;Node2 -->
<g id="edge1_Node000001_Node000002" class="edge">
<title>Node1&#45;&gt;Node2</title>
<g id="a_edge1_Node000001_Node000002"><a xlink:title=" ">
<path fill="none" stroke="#63b8ff" d="M225,-121.13C225,-112.77 225,-104.15 225,-97.2"/>
<polygon fill="#63b8ff" stroke="#63b8ff" points="221.5,-121.08 225,-131.08 228.5,-121.08 221.5,-121.08"/>
</a>
</g>
</g>
<!-- Node3 -->
<g id="Node000003" class="node">
<title>Node3</title>
<g id="a_Node000003"><a xlink:href="_tosa_mappings_8cpp.html" target="_top" xlink:title=" ">
<polygon fill="white" stroke="#666666" points="136,-30.5 0,-30.5 0,0 136,0 136,-30.5"/>
<text xml:space="preserve" text-anchor="start" x="8" y="-17" font-family="Helvetica,sans-Serif" font-size="10.00">src/backends/tosaCommon</text>
<text xml:space="preserve" text-anchor="middle" x="68" y="-5.75" font-family="Helvetica,sans-Serif" font-size="10.00">/TosaMappings.cpp</text>
</a>
</g>
</g>
<!-- Node2&#45;&gt;Node3 -->
<g id="edge2_Node000002_Node000003" class="edge">
<title>Node2&#45;&gt;Node3</title>
<g id="a_edge2_Node000002_Node000003"><a xlink:title=" ">
<path fill="none" stroke="#63b8ff" d="M178.75,-61.75C154.79,-51.91 125.98,-40.07 103.76,-30.94"/>
<polygon fill="#63b8ff" stroke="#63b8ff" points="177.39,-64.98 187.97,-65.54 180.05,-58.5 177.39,-64.98"/>
</a>
</g>
</g>
<!-- Node4 -->
<g id="Node000004" class="node">
<title>Node4</title>
<g id="a_Node000004"><a xlink:href="_tosa_ref_backend_8cpp.html" target="_top" xlink:title=" ">
<polygon fill="white" stroke="#666666" points="295.62,-30.5 154.38,-30.5 154.38,0 295.62,0 295.62,-30.5"/>
<text xml:space="preserve" text-anchor="start" x="162.38" y="-17" font-family="Helvetica,sans-Serif" font-size="10.00">src/backends/tosaReference</text>
<text xml:space="preserve" text-anchor="middle" x="225" y="-5.75" font-family="Helvetica,sans-Serif" font-size="10.00">/TosaRefBackend.cpp</text>
</a>
</g>
</g>
<!-- Node2&#45;&gt;Node4 -->
<g id="edge3_Node000002_Node000004" class="edge">
<title>Node2&#45;&gt;Node4</title>
<g id="a_edge3_Node000002_Node000004"><a xlink:title=" ">
<path fill="none" stroke="#63b8ff" d="M225,-54.81C225,-46.64 225,-37.91 225,-30.83"/>
<polygon fill="#63b8ff" stroke="#63b8ff" points="221.5,-54.6 225,-64.6 228.5,-54.6 221.5,-54.6"/>
</a>
</g>
</g>
<!-- Node5 -->
<g id="Node000005" class="node">
<title>Node5</title>
<g id="a_Node000005"><a xlink:href="_tosa_ref_layer_support_8cpp.html" target="_top" xlink:title=" ">
<polygon fill="white" stroke="#666666" points="454.62,-30.5 313.38,-30.5 313.38,0 454.62,0 454.62,-30.5"/>
<text xml:space="preserve" text-anchor="start" x="321.38" y="-17" font-family="Helvetica,sans-Serif" font-size="10.00">src/backends/tosaReference</text>
<text xml:space="preserve" text-anchor="middle" x="384" y="-5.75" font-family="Helvetica,sans-Serif" font-size="10.00">/TosaRefLayerSupport.cpp</text>
</a>
</g>
</g>
<!-- Node2&#45;&gt;Node5 -->
<g id="edge4_Node000002_Node000005" class="edge">
<title>Node2&#45;&gt;Node5</title>
<g id="a_edge4_Node000002_Node000005"><a xlink:title=" ">
<path fill="none" stroke="#63b8ff" d="M271.51,-61.88C295.84,-52.01 325.17,-40.11 347.79,-30.94"/>
<polygon fill="#63b8ff" stroke="#63b8ff" points="270.43,-58.54 262.48,-65.54 273.06,-65.03 270.43,-58.54"/>
</a>
</g>
</g>
</g>
</svg>
