<?xml version="1.0" encoding="UTF-8" standalone="no"?>
<!DOCTYPE svg PUBLIC "-//W3C//DTD SVG 1.1//EN"
 "http://www.w3.org/Graphics/SVG/1.1/DTD/svg11.dtd">
<!-- Generated by graphviz version 14.1.1 (20251213.1925)
 -->
<!-- Title: BroadcastToLayer Pages: 1 -->
<svg width="344pt" height="295pt"
 viewBox="0.00 0.00 344.00 295.00" xmlns="http://www.w3.org/2000/svg" xmlns:xlink="http://www.w3.org/1999/xlink">
<g id="graph0" class="graph" transform="scale(1 1) rotate(0) translate(4 291.25)">
<title>BroadcastToLayer</title>
<!-- Node1 -->
<g id="Node000001" class="node">
<title>Node1</title>
<g id="a_Node000001"><a xlink:title=" ">
<polygon fill="#999999" stroke="#666666" points="129.25,-19.25 34.5,-19.25 34.5,0 129.25,0 129.25,-19.25"/>
<text xml:space="preserve" text-anchor="middle" x="81.88" y="-5.75" font-family="Helvetica,sans-Serif" font-size="10.00">BroadcastToLayer</text>
</a>
</g>
</g>
<!-- Node2 -->
<g id="Node000002" class="node">
<title>Node2</title>
<g id="a_Node000002"><a xlink:href="classarmnn_1_1_layer_with_parameters.html" target="_top" xlink:title=" ">
<polygon fill="white" stroke="#666666" points="148.75,-86.75 15,-86.75 15,-56.25 148.75,-56.25 148.75,-86.75"/>
<text xml:space="preserve" text-anchor="start" x="23" y="-73.25" font-family="Helvetica,sans-Serif" font-size="10.00">LayerWithParameters</text>
<text xml:space="preserve" text-anchor="middle" x="81.88" y="-62" font-family="Helvetica,sans-Serif" font-size="10.00">&lt; BroadcastToDescriptor &gt;</text>
</a>
</g>
</g>
<!-- Node2&#45;&gt;Node1 -->
<g id="edge1_Node000001_Node000002" class="edge">
<title>Node2&#45;&gt;Node1</title>
<g id="a_edge1_Node000001_Node000002"><a xlink:title=" ">
<path fill="none" stroke="#63b8ff" d="M81.88,-44.77C81.88,-35.79 81.88,-26.29 81.88,-19.6"/>
<polygon fill="#63b8ff" stroke="#63b8ff" points="78.38,-44.49 81.88,-54.49 85.38,-44.49 78.38,-44.49"/>
</a>
</g>
</g>
<!-- Node3 -->
<g id="Node000003" class="node">
<title>Node3</title>
<g id="a_Node000003"><a xlink:href="classarmnn_1_1_layer.html" target="_top" xlink:title=" ">
<polygon fill="white" stroke="#666666" points="68.88,-231 28.88,-231 28.88,-211.75 68.88,-211.75 68.88,-231"/>
<text xml:space="preserve" text-anchor="middle" x="48.88" y="-217.5" font-family="Helvetica,sans-Serif" font-size="10.00">Layer</text>
</a>
</g>
</g>
<!-- Node3&#45;&gt;Node2 -->
<g id="edge2_Node000002_Node000003" class="edge">
<title>Node3&#45;&gt;Node2</title>
<g id="a_edge2_Node000002_Node000003"><a xlink:title=" ">
<path fill="none" stroke="#63b8ff" d="M36.79,-201.66C26.93,-183.91 15.98,-156.68 24.88,-134 32.37,-114.89 48.9,-98.17 62.24,-87.01"/>
<polygon fill="#63b8ff" stroke="#63b8ff" points="33.68,-203.27 41.82,-210.05 39.68,-199.67 33.68,-203.27"/>
</a>
</g>
</g>
<!-- Node8 -->
<g id="Node000008" class="node">
<title>Node8</title>
<g id="a_Node000008"><a xlink:href="classarmnn_1_1_layer_with_parameters.html" target="_top" xlink:title=" ">
<polygon fill="white" stroke="#666666" points="144.12,-164.5 33.62,-164.5 33.62,-134 144.12,-134 144.12,-164.5"/>
<text xml:space="preserve" text-anchor="start" x="41.62" y="-151" font-family="Helvetica,sans-Serif" font-size="10.00">LayerWithParameters</text>
<text xml:space="preserve" text-anchor="middle" x="88.88" y="-139.75" font-family="Helvetica,sans-Serif" font-size="10.00">&lt; Parameters &gt;</text>
</a>
</g>
</g>
<!-- Node3&#45;&gt;Node8 -->
<g id="edge8_Node000008_Node000003" class="edge">
<title>Node3&#45;&gt;Node8</title>
<g id="a_edge8_Node000008_Node000003"><a xlink:title=" ">
<path fill="none" stroke="#63b8ff" d="M59.58,-201.61C66.14,-190.1 74.43,-175.58 80.51,-164.92"/>
<polygon fill="#63b8ff" stroke="#63b8ff" points="56.61,-199.76 54.69,-210.18 62.69,-203.23 56.61,-199.76"/>
</a>
</g>
</g>
<!-- Node4 -->
<g id="Node000004" class="node">
<title>Node4</title>
<g id="a_Node000004"><a xlink:href="classarmnn_1_1_i_connectable_layer.html" target="_top" xlink:title="Interface for a layer that is connectable to other layers via InputSlots and OutputSlots.">
<polygon fill="white" stroke="#666666" points="97.75,-287.25 0,-287.25 0,-268 97.75,-268 97.75,-287.25"/>
<text xml:space="preserve" text-anchor="middle" x="48.88" y="-273.75" font-family="Helvetica,sans-Serif" font-size="10.00">IConnectableLayer</text>
</a>
</g>
</g>
<!-- Node4&#45;&gt;Node3 -->
<g id="edge3_Node000003_Node000004" class="edge">
<title>Node4&#45;&gt;Node3</title>
<g id="a_edge3_Node000003_Node000004"><a xlink:title=" ">
<path fill="none" stroke="#63b8ff" d="M48.88,-256.44C48.88,-247.73 48.88,-237.99 48.88,-231.17"/>
<polygon fill="#63b8ff" stroke="#63b8ff" points="45.38,-256.15 48.88,-266.15 52.38,-256.15 45.38,-256.15"/>
</a>
</g>
</g>
<!-- Node5 -->
<g id="Node000005" class="node">
<title>Node5</title>
<g id="a_Node000005"><a xlink:href="structarmnn_1_1_broadcast_to_descriptor.html" target="_top" xlink:title=" ">
<polygon fill="white" stroke="#666666" points="283.75,-158.88 168,-158.88 168,-139.62 283.75,-139.62 283.75,-158.88"/>
<text xml:space="preserve" text-anchor="middle" x="225.88" y="-145.38" font-family="Helvetica,sans-Serif" font-size="10.00">BroadcastToDescriptor</text>
</a>
</g>
</g>
<!-- Node5&#45;&gt;Node2 -->
<g id="edge4_Node000002_Node000005" class="edge">
<title>Node5&#45;&gt;Node2</title>
<g id="a_edge4_Node000002_Node000005"><a xlink:title=" ">
<path fill="none" stroke="#9a32cd" stroke-dasharray="5,2" d="M220.01,-128.58C216.57,-120.13 211.38,-110.83 203.88,-104.75 188.29,-92.14 168.27,-84.42 148.96,-79.71"/>
<polygon fill="#9a32cd" stroke="#9a32cd" points="216.61,-129.44 223.18,-137.75 223.22,-127.15 216.61,-129.44"/>
</a>
</g>
<text xml:space="preserve" text-anchor="middle" x="235.86" y="-106.5" font-family="Helvetica,sans-Serif" font-size="10.00" fill="grey"> m_Param</text>
</g>
<!-- Node6 -->
<g id="Node000006" class="node">
<title>Node6</title>
<g id="a_Node000006"><a xlink:href="structarmnn_1_1_base_descriptor.html" target="_top" xlink:title="Base class for all descriptors.">
<polygon fill="white" stroke="#666666" points="189.62,-231 106.12,-231 106.12,-211.75 189.62,-211.75 189.62,-231"/>
<text xml:space="preserve" text-anchor="middle" x="147.88" y="-217.5" font-family="Helvetica,sans-Serif" font-size="10.00">BaseDescriptor</text>
</a>
</g>
</g>
<!-- Node6&#45;&gt;Node5 -->
<g id="edge5_Node000005_Node000006" class="edge">
<title>Node6&#45;&gt;Node5</title>
<g id="a_edge5_Node000005_Node000006"><a xlink:title=" ">
<path fill="none" stroke="#63b8ff" d="M166.05,-204.04C181.55,-190.1 203.28,-170.57 215.83,-159.28"/>
<polygon fill="#63b8ff" stroke="#63b8ff" points="163.98,-201.19 158.88,-210.48 168.66,-206.4 163.98,-201.19"/>
</a>
</g>
</g>
<!-- Node7 -->
<g id="Node000007" class="node">
<title>Node7</title>
<g id="a_Node000007"><a xlink:href="classarmnn_1_1_tensor_shape.html" target="_top" xlink:title=" ">
<polygon fill="white" stroke="#666666" points="280.38,-231 207.38,-231 207.38,-211.75 280.38,-211.75 280.38,-231"/>
<text xml:space="preserve" text-anchor="middle" x="243.88" y="-217.5" font-family="Helvetica,sans-Serif" font-size="10.00">TensorShape</text>
</a>
</g>
</g>
<!-- Node7&#45;&gt;Node5 -->
<g id="edge6_Node000005_Node000007" class="edge">
<title>Node7&#45;&gt;Node5</title>
<g id="a_edge6_Node000005_Node000007"><a xlink:title=" ">
<path fill="none" stroke="#9a32cd" stroke-dasharray="5,2" d="M238.75,-200.41C235.27,-186.87 230.85,-169.62 228.19,-159.28"/>
<polygon fill="#9a32cd" stroke="#9a32cd" points="235.34,-201.21 241.22,-210.03 242.12,-199.47 235.34,-201.21"/>
</a>
</g>
<text xml:space="preserve" text-anchor="middle" x="286.52" y="-184.25" font-family="Helvetica,sans-Serif" font-size="10.00" fill="grey"> m_BroadcastToShape</text>
</g>
<!-- Node8&#45;&gt;Node2 -->
<g id="edge7_Node000002_Node000008" class="edge">
<title>Node8&#45;&gt;Node2</title>
<g id="a_edge7_Node000002_Node000008"><a xlink:title=" ">
<path fill="none" stroke="orange" stroke-dasharray="5,2" d="M83.92,-122.36C83.61,-120.21 83.34,-118.07 83.12,-116 82.13,-106.38 81.82,-95.51 81.76,-87.04"/>
<polygon fill="orange" stroke="orange" points="80.43,-122.76 85.53,-132.05 87.34,-121.61 80.43,-122.76"/>
</a>
</g>
<text xml:space="preserve" text-anchor="middle" x="143.5" y="-106.5" font-family="Helvetica,sans-Serif" font-size="10.00" fill="grey"> &lt; BroadcastToDescriptor &gt;</text>
</g>
</g>
</svg>
