<?xml version="1.0" encoding="UTF-8" standalone="no"?>
<!DOCTYPE svg PUBLIC "-//W3C//DTD SVG 1.1//EN"
 "http://www.w3.org/Graphics/SVG/1.1/DTD/svg11.dtd">
<!-- Generated by graphviz version 14.1.1 (20251213.1925)
 -->
<!-- Title: ClUnidirectionalSequenceLstmFloatWorkload Pages: 1 -->
<svg width="185pt" height="229pt"
 viewBox="0.00 0.00 185.00 229.00" xmlns="http://www.w3.org/2000/svg" xmlns:xlink="http://www.w3.org/1999/xlink">
<g id="graph0" class="graph" transform="scale(1 1) rotate(0) translate(4 224.75)">
<title>ClUnidirectionalSequenceLstmFloatWorkload</title>
<!-- Node1 -->
<g id="Node000001" class="node">
<title>Node1</title>
<g id="a_Node000001"><a xlink:title=" ">
<polygon fill="#999999" stroke="#666666" points="149.5,-30.5 21,-30.5 21,0 149.5,0 149.5,-30.5"/>
<text xml:space="preserve" text-anchor="start" x="29" y="-17" font-family="Helvetica,sans-Serif" font-size="10.00">ClUnidirectionalSequence</text>
<text xml:space="preserve" text-anchor="middle" x="85.25" y="-5.75" font-family="Helvetica,sans-Serif" font-size="10.00">LstmFloatWorkload</text>
</a>
</g>
</g>
<!-- Node2 -->
<g id="Node000002" class="node">
<title>Node2</title>
<g id="a_Node000002"><a xlink:href="classarmnn_1_1_typed_workload.html" target="_top" xlink:title=" ">
<polygon fill="white" stroke="#666666" points="167.12,-98 3.38,-98 3.38,-67.5 167.12,-67.5 167.12,-98"/>
<text xml:space="preserve" text-anchor="start" x="11.38" y="-84.5" font-family="Helvetica,sans-Serif" font-size="10.00">FloatWorkload&lt; Unidirectional</text>
<text xml:space="preserve" text-anchor="middle" x="85.25" y="-73.25" font-family="Helvetica,sans-Serif" font-size="10.00">SequenceLstmQueueDescriptor &gt;</text>
</a>
</g>
</g>
<!-- Node2&#45;&gt;Node1 -->
<g id="edge1_Node000001_Node000002" class="edge">
<title>Node2&#45;&gt;Node1</title>
<g id="a_edge1_Node000001_Node000002"><a xlink:title=" ">
<path fill="none" stroke="#63b8ff" d="M85.25,-55.84C85.25,-47.3 85.25,-38.12 85.25,-30.75"/>
<polygon fill="#63b8ff" stroke="#63b8ff" points="81.75,-55.7 85.25,-65.7 88.75,-55.7 81.75,-55.7"/>
</a>
</g>
</g>
<!-- Node3 -->
<g id="Node000003" class="node">
<title>Node3</title>
<g id="a_Node000003"><a xlink:href="classarmnn_1_1_base_workload.html" target="_top" xlink:title=" ">
<polygon fill="white" stroke="#666666" points="170.5,-154.25 0,-154.25 0,-135 170.5,-135 170.5,-154.25"/>
<text xml:space="preserve" text-anchor="middle" x="85.25" y="-140.75" font-family="Helvetica,sans-Serif" font-size="10.00">BaseWorkload&lt; QueueDescriptor &gt;</text>
</a>
</g>
</g>
<!-- Node3&#45;&gt;Node2 -->
<g id="edge2_Node000002_Node000003" class="edge">
<title>Node3&#45;&gt;Node2</title>
<g id="a_edge2_Node000002_Node000003"><a xlink:title=" ">
<path fill="none" stroke="#63b8ff" d="M85.25,-123.19C85.25,-114.93 85.25,-105.59 85.25,-98.07"/>
<polygon fill="#63b8ff" stroke="#63b8ff" points="81.75,-123.02 85.25,-133.02 88.75,-123.02 81.75,-123.02"/>
</a>
</g>
</g>
<!-- Node4 -->
<g id="Node000004" class="node">
<title>Node4</title>
<g id="a_Node000004"><a xlink:href="classarmnn_1_1_i_workload.html" target="_top" xlink:title="Workload interface to enqueue a layer computation.">
<polygon fill="white" stroke="#666666" points="69,-220.75 9.5,-220.75 9.5,-201.5 69,-201.5 69,-220.75"/>
<text xml:space="preserve" text-anchor="middle" x="39.25" y="-207.25" font-family="Helvetica,sans-Serif" font-size="10.00">IWorkload</text>
</a>
</g>
</g>
<!-- Node4&#45;&gt;Node3 -->
<g id="edge3_Node000003_Node000004" class="edge">
<title>Node4&#45;&gt;Node3</title>
<g id="a_edge3_Node000003_Node000004"><a xlink:title=" ">
<path fill="none" stroke="#63b8ff" d="M52.26,-191.88C60.98,-179.66 72.06,-164.11 78.91,-154.52"/>
<polygon fill="#63b8ff" stroke="#63b8ff" points="49.48,-189.75 46.52,-199.92 55.18,-193.81 49.48,-189.75"/>
</a>
</g>
</g>
<!-- Node5 -->
<g id="Node000005" class="node">
<title>Node5</title>
<g id="a_Node000005"><a xlink:href="structarmnn_1_1_queue_descriptor.html" target="_top" xlink:title=" ">
<polygon fill="white" stroke="#666666" points="177,-220.75 87.5,-220.75 87.5,-201.5 177,-201.5 177,-220.75"/>
<text xml:space="preserve" text-anchor="middle" x="132.25" y="-207.25" font-family="Helvetica,sans-Serif" font-size="10.00">QueueDescriptor</text>
</a>
</g>
</g>
<!-- Node5&#45;&gt;Node3 -->
<g id="edge4_Node000003_Node000005" class="edge">
<title>Node5&#45;&gt;Node3</title>
<g id="a_edge4_Node000003_Node000005"><a xlink:title=" ">
<path fill="none" stroke="#9a32cd" stroke-dasharray="5,2" d="M118.95,-191.88C110.05,-179.66 98.72,-164.11 91.73,-154.52"/>
<polygon fill="#9a32cd" stroke="#9a32cd" points="116.11,-193.91 124.82,-199.93 121.76,-189.79 116.11,-193.91"/>
</a>
</g>
<text xml:space="preserve" text-anchor="middle" x="130.31" y="-174" font-family="Helvetica,sans-Serif" font-size="10.00" fill="grey"> m_Data</text>
</g>
</g>
</svg>
