<?xml version="1.0" encoding="UTF-8" standalone="no"?>
<!DOCTYPE svg PUBLIC "-//W3C//DTD SVG 1.1//EN"
 "http://www.w3.org/Graphics/SVG/1.1/DTD/svg11.dtd">
<!-- Generated by graphviz version 14.1.1 (20251213.1925)
 -->
<!-- Title: BaseMemoryManager Pages: 1 -->
<svg width="236pt" height="138pt"
 viewBox="0.00 0.00 236.00 138.00" xmlns="http://www.w3.org/2000/svg" xmlns:xlink="http://www.w3.org/1999/xlink">
<g id="graph0" class="graph" transform="scale(1 1) rotate(0) translate(4 133.75)">
<title>BaseMemoryManager</title>
<!-- Node1 -->
<g id="Node000001" class="node">
<title>Node1</title>
<g id="a_Node000001"><a xlink:title=" ">
<polygon fill="#999999" stroke="#666666" points="165.88,-74.5 54.62,-74.5 54.62,-55.25 165.88,-55.25 165.88,-74.5"/>
<text xml:space="preserve" text-anchor="middle" x="110.25" y="-61" font-family="Helvetica,sans-Serif" font-size="10.00">BaseMemoryManager</text>
</a>
</g>
</g>
<!-- Node3 -->
<g id="Node000003" class="node">
<title>Node3</title>
<g id="a_Node000003"><a xlink:href="classarmnn_1_1_cl_memory_manager.html" target="_top" xlink:title=" ">
<polygon fill="white" stroke="#666666" points="98.5,-19.25 0,-19.25 0,0 98.5,0 98.5,-19.25"/>
<text xml:space="preserve" text-anchor="middle" x="49.25" y="-5.75" font-family="Helvetica,sans-Serif" font-size="10.00">ClMemoryManager</text>
</a>
</g>
</g>
<!-- Node1&#45;&gt;Node3 -->
<g id="edge2_Node000001_Node000003" class="edge">
<title>Node1&#45;&gt;Node3</title>
<g id="a_edge2_Node000001_Node000003"><a xlink:title=" ">
<path fill="none" stroke="#63b8ff" d="M91.36,-47.39C80.83,-38.19 68.13,-27.1 59.44,-19.52"/>
<polygon fill="#63b8ff" stroke="#63b8ff" points="88.93,-49.91 98.76,-53.85 93.53,-44.63 88.93,-49.91"/>
</a>
</g>
</g>
<!-- Node4 -->
<g id="Node000004" class="node">
<title>Node4</title>
<g id="a_Node000004"><a xlink:href="classarmnn_1_1_neon_memory_manager.html" target="_top" xlink:title=" ">
<polygon fill="white" stroke="#666666" points="228.25,-19.25 116.25,-19.25 116.25,0 228.25,0 228.25,-19.25"/>
<text xml:space="preserve" text-anchor="middle" x="172.25" y="-5.75" font-family="Helvetica,sans-Serif" font-size="10.00">NeonMemoryManager</text>
</a>
</g>
</g>
<!-- Node1&#45;&gt;Node4 -->
<g id="edge3_Node000001_Node000004" class="edge">
<title>Node1&#45;&gt;Node4</title>
<g id="a_edge3_Node000001_Node000004"><a xlink:title=" ">
<path fill="none" stroke="#63b8ff" d="M129.45,-47.39C140.15,-38.19 153.06,-27.1 161.89,-19.52"/>
<polygon fill="#63b8ff" stroke="#63b8ff" points="127.22,-44.69 121.92,-53.86 131.78,-50 127.22,-44.69"/>
</a>
</g>
</g>
<!-- Node2 -->
<g id="Node000002" class="node">
<title>Node2</title>
<g id="a_Node000002"><a xlink:href="classarmnn_1_1_i_memory_manager.html" target="_top" xlink:title=" ">
<polygon fill="white" stroke="#666666" points="156.12,-129.75 64.38,-129.75 64.38,-110.5 156.12,-110.5 156.12,-129.75"/>
<text xml:space="preserve" text-anchor="middle" x="110.25" y="-116.25" font-family="Helvetica,sans-Serif" font-size="10.00">IMemoryManager</text>
</a>
</g>
</g>
<!-- Node2&#45;&gt;Node1 -->
<g id="edge1_Node000001_Node000002" class="edge">
<title>Node2&#45;&gt;Node1</title>
<g id="a_edge1_Node000001_Node000002"><a xlink:title=" ">
<path fill="none" stroke="#63b8ff" d="M110.25,-98.88C110.25,-90.59 110.25,-81.42 110.25,-74.86"/>
<polygon fill="#63b8ff" stroke="#63b8ff" points="106.75,-98.82 110.25,-108.82 113.75,-98.82 106.75,-98.82"/>
</a>
</g>
</g>
</g>
</svg>
