<?xml version="1.0" encoding="UTF-8" standalone="no"?>
<!DOCTYPE svg PUBLIC "-//W3C//DTD SVG 1.1//EN"
 "http://www.w3.org/Graphics/SVG/1.1/DTD/svg11.dtd">
<!-- Generated by graphviz version 14.1.1 (20251213.1925)
 -->
<!-- Title: Optional&lt; T &gt; Pages: 1 -->
<svg width="211pt" height="251pt"
 viewBox="0.00 0.00 211.00 251.00" xmlns="http://www.w3.org/2000/svg" xmlns:xlink="http://www.w3.org/1999/xlink">
<g id="graph0" class="graph" transform="scale(1 1) rotate(0) translate(4 247.25)">
<title>Optional&lt; T &gt;</title>
<!-- Node1 -->
<g id="Node000001" class="node">
<title>Node1</title>
<g id="a_Node000001"><a xlink:title=" ">
<polygon fill="#999999" stroke="#666666" points="101.5,-19.25 25.5,-19.25 25.5,0 101.5,0 101.5,-19.25"/>
<text xml:space="preserve" text-anchor="middle" x="63.5" y="-5.75" font-family="Helvetica,sans-Serif" font-size="10.00">Optional&lt; T &gt;</text>
</a>
</g>
</g>
<!-- Node2 -->
<g id="Node000002" class="node">
<title>Node2</title>
<g id="a_Node000002"><a xlink:href="classarmnn_1_1_optional_reference_switch.html" target="_top" xlink:title=" ">
<polygon fill="white" stroke="#666666" points="127,-98 0,-98 0,-56.25 127,-56.25 127,-98"/>
<text xml:space="preserve" text-anchor="start" x="8" y="-84.5" font-family="Helvetica,sans-Serif" font-size="10.00">OptionalReferenceSwitch</text>
<text xml:space="preserve" text-anchor="start" x="8" y="-73.25" font-family="Helvetica,sans-Serif" font-size="10.00">&lt; std::is_reference&lt; T</text>
<text xml:space="preserve" text-anchor="middle" x="63.5" y="-62" font-family="Helvetica,sans-Serif" font-size="10.00"> &gt;::value, T &gt;</text>
</a>
</g>
</g>
<!-- Node2&#45;&gt;Node1 -->
<g id="edge1_Node000001_Node000002" class="edge">
<title>Node2&#45;&gt;Node1</title>
<g id="a_edge1_Node000001_Node000002"><a xlink:title=" ">
<path fill="none" stroke="#63b8ff" d="M63.5,-44.43C63.5,-35.27 63.5,-26 63.5,-19.49"/>
<polygon fill="#63b8ff" stroke="#63b8ff" points="60,-44.25 63.5,-54.25 67,-44.25 60,-44.25"/>
</a>
</g>
</g>
<!-- Node3 -->
<g id="Node000003" class="node">
<title>Node3</title>
<g id="a_Node000003"><a xlink:href="classarmnn_1_1_optional_base.html" target="_top" xlink:title="OptionalBase is the common functionality between reference and non&#45;reference optional types.">
<polygon fill="white" stroke="#666666" points="96.75,-243.25 22.25,-243.25 22.25,-224 96.75,-224 96.75,-243.25"/>
<text xml:space="preserve" text-anchor="middle" x="59.5" y="-229.75" font-family="Helvetica,sans-Serif" font-size="10.00">OptionalBase</text>
</a>
</g>
</g>
<!-- Node3&#45;&gt;Node2 -->
<g id="edge2_Node000002_Node000003" class="edge">
<title>Node3&#45;&gt;Node2</title>
<g id="a_edge2_Node000002_Node000003"><a xlink:title=" ">
<path fill="none" stroke="#63b8ff" d="M60.02,-212.6C60.78,-183.06 62.21,-128.13 62.97,-98.43"/>
<polygon fill="#63b8ff" stroke="#63b8ff" points="56.53,-212.28 59.77,-222.36 63.52,-212.46 56.53,-212.28"/>
</a>
</g>
</g>
<!-- Node4 -->
<g id="Node000004" class="node">
<title>Node4</title>
<g id="a_Node000004"><a xlink:href="classarmnn_1_1_optional_reference_switch.html" target="_top" xlink:title="The default implementation is the non&#45;reference case.">
<polygon fill="white" stroke="#666666" points="203,-187 76,-187 76,-156.5 203,-156.5 203,-187"/>
<text xml:space="preserve" text-anchor="start" x="84" y="-173.5" font-family="Helvetica,sans-Serif" font-size="10.00">OptionalReferenceSwitch</text>
<text xml:space="preserve" text-anchor="middle" x="139.5" y="-162.25" font-family="Helvetica,sans-Serif" font-size="10.00">&lt; IsReference, T &gt;</text>
</a>
</g>
</g>
<!-- Node3&#45;&gt;Node4 -->
<g id="edge4_Node000004_Node000003" class="edge">
<title>Node3&#45;&gt;Node4</title>
<g id="a_edge4_Node000004_Node000003"><a xlink:title=" ">
<path fill="none" stroke="#63b8ff" d="M80.68,-216.78C92.9,-207.63 108.15,-196.21 120.06,-187.3"/>
<polygon fill="#63b8ff" stroke="#63b8ff" points="78.77,-213.83 72.86,-222.62 82.97,-219.43 78.77,-213.83"/>
</a>
</g>
</g>
<!-- Node4&#45;&gt;Node2 -->
<g id="edge3_Node000002_Node000004" class="edge">
<title>Node4&#45;&gt;Node2</title>
<g id="a_edge3_Node000002_Node000004"><a xlink:title=" ">
<path fill="none" stroke="orange" stroke-dasharray="5,2" d="M120.43,-147.51C108.01,-132.38 91.97,-112.83 80.08,-98.34"/>
<polygon fill="orange" stroke="orange" points="117.62,-149.6 126.66,-155.11 123.03,-145.16 117.62,-149.6"/>
</a>
</g>
<text xml:space="preserve" text-anchor="start" x="112.75" y="-129" font-family="Helvetica,sans-Serif" font-size="10.00" fill="grey"> &lt; std::is_reference</text>
<text xml:space="preserve" text-anchor="middle" x="155.12" y="-117.75" font-family="Helvetica,sans-Serif" font-size="10.00" fill="grey">&lt; T &gt;::value, T &gt;</text>
</g>
</g>
</svg>
