<?xml version="1.0" encoding="UTF-8" standalone="no"?>
<!DOCTYPE svg PUBLIC "-//W3C//DTD SVG 1.1//EN"
 "http://www.w3.org/Graphics/SVG/1.1/DTD/svg11.dtd">
<!-- Generated by graphviz version 14.1.1 (20251213.1925)
 -->
<!-- Title: SoftmaxLayer Pages: 1 -->
<svg width="206pt" height="285pt"
 viewBox="0.00 0.00 206.00 285.00" xmlns="http://www.w3.org/2000/svg" xmlns:xlink="http://www.w3.org/1999/xlink">
<g id="graph0" class="graph" transform="scale(1 1) rotate(0) translate(4 281)">
<title>SoftmaxLayer</title>
<!-- Node1 -->
<g id="Node000001" class="node">
<title>Node1</title>
<g id="a_Node000001"><a xlink:title="This layer represents a softmax operation.">
<polygon fill="#999999" stroke="#666666" points="96.25,-19.25 19.5,-19.25 19.5,0 96.25,0 96.25,-19.25"/>
<text xml:space="preserve" text-anchor="middle" x="57.88" y="-5.75" font-family="Helvetica,sans-Serif" font-size="10.00">SoftmaxLayer</text>
</a>
</g>
</g>
<!-- Node2 -->
<g id="Node000002" class="node">
<title>Node2</title>
<g id="a_Node000002"><a xlink:href="classarmnn_1_1_layer_with_parameters.html" target="_top" xlink:title=" ">
<polygon fill="white" stroke="#666666" points="115.75,-86.75 0,-86.75 0,-56.25 115.75,-56.25 115.75,-86.75"/>
<text xml:space="preserve" text-anchor="start" x="8" y="-73.25" font-family="Helvetica,sans-Serif" font-size="10.00">LayerWithParameters</text>
<text xml:space="preserve" text-anchor="middle" x="57.88" y="-62" font-family="Helvetica,sans-Serif" font-size="10.00">&lt; SoftmaxDescriptor &gt;</text>
</a>
</g>
</g>
<!-- Node2&#45;&gt;Node1 -->
<g id="edge1_Node000001_Node000002" class="edge">
<title>Node2&#45;&gt;Node1</title>
<g id="a_edge1_Node000001_Node000002"><a xlink:title=" ">
<path fill="none" stroke="#63b8ff" d="M57.88,-44.77C57.88,-35.79 57.88,-26.29 57.88,-19.6"/>
<polygon fill="#63b8ff" stroke="#63b8ff" points="54.38,-44.49 57.88,-54.49 61.38,-44.49 54.38,-44.49"/>
</a>
</g>
</g>
<!-- Node3 -->
<g id="Node000003" class="node">
<title>Node3</title>
<g id="a_Node000003"><a xlink:href="classarmnn_1_1_layer.html" target="_top" xlink:title=" ">
<polygon fill="white" stroke="#666666" points="73.88,-220.75 33.88,-220.75 33.88,-201.5 73.88,-201.5 73.88,-220.75"/>
<text xml:space="preserve" text-anchor="middle" x="53.88" y="-207.25" font-family="Helvetica,sans-Serif" font-size="10.00">Layer</text>
</a>
</g>
</g>
<!-- Node3&#45;&gt;Node2 -->
<g id="edge2_Node000002_Node000003" class="edge">
<title>Node3&#45;&gt;Node2</title>
<g id="a_edge2_Node000002_Node000003"><a xlink:title=" ">
<path fill="none" stroke="#63b8ff" d="M54.46,-189.91C55.28,-161.8 56.74,-111.59 57.45,-86.95"/>
<polygon fill="#63b8ff" stroke="#63b8ff" points="50.97,-189.48 54.18,-199.58 57.97,-189.69 50.97,-189.48"/>
</a>
</g>
</g>
<!-- Node5 -->
<g id="Node000005" class="node">
<title>Node5</title>
<g id="a_Node000005"><a xlink:href="classarmnn_1_1_layer_with_parameters.html" target="_top" xlink:title=" ">
<polygon fill="white" stroke="#666666" points="180.12,-164.5 69.62,-164.5 69.62,-134 180.12,-134 180.12,-164.5"/>
<text xml:space="preserve" text-anchor="start" x="77.62" y="-151" font-family="Helvetica,sans-Serif" font-size="10.00">LayerWithParameters</text>
<text xml:space="preserve" text-anchor="middle" x="124.88" y="-139.75" font-family="Helvetica,sans-Serif" font-size="10.00">&lt; Parameters &gt;</text>
</a>
</g>
</g>
<!-- Node3&#45;&gt;Node5 -->
<g id="edge5_Node000005_Node000003" class="edge">
<title>Node3&#45;&gt;Node5</title>
<g id="a_edge5_Node000005_Node000003"><a xlink:title=" ">
<path fill="none" stroke="#63b8ff" d="M73.32,-193.73C84.05,-184.68 97.26,-173.54 107.62,-164.8"/>
<polygon fill="#63b8ff" stroke="#63b8ff" points="71.2,-190.93 65.82,-200.06 75.72,-196.28 71.2,-190.93"/>
</a>
</g>
</g>
<!-- Node4 -->
<g id="Node000004" class="node">
<title>Node4</title>
<g id="a_Node000004"><a xlink:href="classarmnn_1_1_i_connectable_layer.html" target="_top" xlink:title="Interface for a layer that is connectable to other layers via InputSlots and OutputSlots.">
<polygon fill="white" stroke="#666666" points="102.75,-277 5,-277 5,-257.75 102.75,-257.75 102.75,-277"/>
<text xml:space="preserve" text-anchor="middle" x="53.88" y="-263.5" font-family="Helvetica,sans-Serif" font-size="10.00">IConnectableLayer</text>
</a>
</g>
</g>
<!-- Node4&#45;&gt;Node3 -->
<g id="edge3_Node000003_Node000004" class="edge">
<title>Node4&#45;&gt;Node3</title>
<g id="a_edge3_Node000003_Node000004"><a xlink:title=" ">
<path fill="none" stroke="#63b8ff" d="M53.88,-246.19C53.88,-237.48 53.88,-227.74 53.88,-220.92"/>
<polygon fill="#63b8ff" stroke="#63b8ff" points="50.38,-245.9 53.88,-255.9 57.38,-245.9 50.38,-245.9"/>
</a>
</g>
</g>
<!-- Node5&#45;&gt;Node2 -->
<g id="edge4_Node000002_Node000005" class="edge">
<title>Node5&#45;&gt;Node2</title>
<g id="a_edge4_Node000002_Node000005"><a xlink:title=" ">
<path fill="none" stroke="orange" stroke-dasharray="5,2" d="M104.45,-125.15C93.48,-112.75 80.29,-97.84 70.75,-87.06"/>
<polygon fill="orange" stroke="orange" points="101.71,-127.34 110.95,-132.51 106.95,-122.7 101.71,-127.34"/>
</a>
</g>
<text xml:space="preserve" text-anchor="middle" x="146.76" y="-106.5" font-family="Helvetica,sans-Serif" font-size="10.00" fill="grey"> &lt; SoftmaxDescriptor &gt;</text>
</g>
</g>
</svg>
