<?xml version="1.0" encoding="UTF-8" standalone="no"?>
<!DOCTYPE svg PUBLIC "-//W3C//DTD SVG 1.1//EN"
 "http://www.w3.org/Graphics/SVG/1.1/DTD/svg11.dtd">
<!-- Generated by graphviz version 14.1.1 (20251213.1925)
 -->
<!-- Title: AddedLayerObservable Pages: 1 -->
<svg width="233pt" height="218pt"
 viewBox="0.00 0.00 233.00 218.00" xmlns="http://www.w3.org/2000/svg" xmlns:xlink="http://www.w3.org/1999/xlink">
<g id="graph0" class="graph" transform="scale(1 1) rotate(0) translate(4 213.5)">
<title>AddedLayerObservable</title>
<!-- Node1 -->
<g id="Node000001" class="node">
<title>Node1</title>
<g id="a_Node000001"><a xlink:title=" ">
<polygon fill="#999999" stroke="#666666" points="128.88,-19.25 11.62,-19.25 11.62,0 128.88,0 128.88,-19.25"/>
<text xml:space="preserve" text-anchor="middle" x="70.25" y="-5.75" font-family="Helvetica,sans-Serif" font-size="10.00">AddedLayerObservable</text>
</a>
</g>
</g>
<!-- Node2 -->
<g id="Node000002" class="node">
<title>Node2</title>
<g id="a_Node000002"><a xlink:href="classarmnn_1_1_graph_observable.html" target="_top" xlink:title=" ">
<polygon fill="white" stroke="#666666" points="140.5,-75.5 0,-75.5 0,-56.25 140.5,-56.25 140.5,-75.5"/>
<text xml:space="preserve" text-anchor="middle" x="70.25" y="-62" font-family="Helvetica,sans-Serif" font-size="10.00">GraphObservable&lt; Layer * &gt;</text>
</a>
</g>
</g>
<!-- Node2&#45;&gt;Node1 -->
<g id="edge1_Node000001_Node000002" class="edge">
<title>Node2&#45;&gt;Node1</title>
<g id="a_edge1_Node000001_Node000002"><a xlink:title=" ">
<path fill="none" stroke="#63b8ff" d="M70.25,-44.69C70.25,-35.98 70.25,-26.24 70.25,-19.42"/>
<polygon fill="#63b8ff" stroke="#63b8ff" points="66.75,-44.4 70.25,-54.4 73.75,-44.4 66.75,-44.4"/>
</a>
</g>
</g>
<!-- Node3 -->
<g id="Node000003" class="node">
<title>Node3</title>
<g id="a_Node000003"><a xlink:href="classarmnn_1_1_i_graph_observable.html" target="_top" xlink:title=" ">
<polygon fill="white" stroke="#666666" points="113.62,-209.5 18.88,-209.5 18.88,-190.25 113.62,-190.25 113.62,-209.5"/>
<text xml:space="preserve" text-anchor="middle" x="66.25" y="-196" font-family="Helvetica,sans-Serif" font-size="10.00">IGraphObservable</text>
</a>
</g>
</g>
<!-- Node3&#45;&gt;Node2 -->
<g id="edge2_Node000002_Node000003" class="edge">
<title>Node3&#45;&gt;Node2</title>
<g id="a_edge2_Node000002_Node000003"><a xlink:title=" ">
<path fill="none" stroke="#63b8ff" d="M66.87,-178.53C67.75,-149.25 69.35,-96.48 69.98,-75.66"/>
<polygon fill="#63b8ff" stroke="#63b8ff" points="63.38,-178.19 66.57,-188.29 70.37,-178.4 63.38,-178.19"/>
</a>
</g>
</g>
<!-- Node4 -->
<g id="Node000004" class="node">
<title>Node4</title>
<g id="a_Node000004"><a xlink:href="classarmnn_1_1_graph_observable.html" target="_top" xlink:title=" ">
<polygon fill="white" stroke="#666666" points="224.62,-153.25 81.88,-153.25 81.88,-122.75 224.62,-122.75 224.62,-153.25"/>
<text xml:space="preserve" text-anchor="start" x="89.88" y="-139.75" font-family="Helvetica,sans-Serif" font-size="10.00">GraphObservable&lt; Observed</text>
<text xml:space="preserve" text-anchor="middle" x="153.25" y="-128.5" font-family="Helvetica,sans-Serif" font-size="10.00">Type &gt;</text>
</a>
</g>
</g>
<!-- Node3&#45;&gt;Node4 -->
<g id="edge4_Node000004_Node000003" class="edge">
<title>Node3&#45;&gt;Node4</title>
<g id="a_edge4_Node000004_Node000003"><a xlink:title=" ">
<path fill="none" stroke="#63b8ff" d="M88.89,-183.3C102.24,-174.11 119.03,-162.55 132.11,-153.55"/>
<polygon fill="#63b8ff" stroke="#63b8ff" points="86.96,-180.37 80.71,-188.92 90.93,-186.14 86.96,-180.37"/>
</a>
</g>
</g>
<!-- Node4&#45;&gt;Node2 -->
<g id="edge3_Node000002_Node000004" class="edge">
<title>Node4&#45;&gt;Node2</title>
<g id="a_edge3_Node000002_Node000004"><a xlink:title=" ">
<path fill="none" stroke="orange" stroke-dasharray="5,2" d="M127.7,-115.41C111.84,-102.02 92.33,-85.53 80.62,-75.63"/>
<polygon fill="orange" stroke="orange" points="125,-117.71 134.9,-121.49 129.52,-112.37 125,-117.71"/>
</a>
</g>
<text xml:space="preserve" text-anchor="middle" x="140.11" y="-95.25" font-family="Helvetica,sans-Serif" font-size="10.00" fill="grey"> &lt; Layer * &gt;</text>
</g>
</g>
</svg>
