<?xml version="1.0" encoding="UTF-8" standalone="no"?>
<!DOCTYPE svg PUBLIC "-//W3C//DTD SVG 1.1//EN"
 "http://www.w3.org/Graphics/SVG/1.1/DTD/svg11.dtd">
<!-- Generated by graphviz version 14.1.1 (20251213.1925)
 -->
<!-- Title: RefPooling3dWorkload Pages: 1 -->
<svg width="307pt" height="292pt"
 viewBox="0.00 0.00 307.00 292.00" xmlns="http://www.w3.org/2000/svg" xmlns:xlink="http://www.w3.org/1999/xlink">
<g id="graph0" class="graph" transform="scale(1 1) rotate(0) translate(4 288)">
<title>RefPooling3dWorkload</title>
<!-- Node1 -->
<g id="Node000001" class="node">
<title>Node1</title>
<g id="a_Node000001"><a xlink:title=" ">
<polygon fill="#999999" stroke="#666666" points="154.75,-19.25 39.75,-19.25 39.75,0 154.75,0 154.75,-19.25"/>
<text xml:space="preserve" text-anchor="middle" x="97.25" y="-5.75" font-family="Helvetica,sans-Serif" font-size="10.00">RefPooling3dWorkload</text>
</a>
</g>
</g>
<!-- Node2 -->
<g id="Node000002" class="node">
<title>Node2</title>
<g id="a_Node000002"><a xlink:href="classarmnn_1_1_ref_base_workload.html" target="_top" xlink:title=" ">
<polygon fill="white" stroke="#666666" points="170.5,-86.75 24,-86.75 24,-56.25 170.5,-56.25 170.5,-86.75"/>
<text xml:space="preserve" text-anchor="start" x="32" y="-73.25" font-family="Helvetica,sans-Serif" font-size="10.00">RefBaseWorkload&lt; Pooling3d</text>
<text xml:space="preserve" text-anchor="middle" x="97.25" y="-62" font-family="Helvetica,sans-Serif" font-size="10.00">QueueDescriptor &gt;</text>
</a>
</g>
</g>
<!-- Node2&#45;&gt;Node1 -->
<g id="edge1_Node000001_Node000002" class="edge">
<title>Node2&#45;&gt;Node1</title>
<g id="a_edge1_Node000001_Node000002"><a xlink:title=" ">
<path fill="none" stroke="#63b8ff" d="M97.25,-44.77C97.25,-35.79 97.25,-26.29 97.25,-19.6"/>
<polygon fill="#63b8ff" stroke="#63b8ff" points="93.75,-44.49 97.25,-54.49 100.75,-44.49 93.75,-44.49"/>
</a>
</g>
</g>
<!-- Node3 -->
<g id="Node000003" class="node">
<title>Node3</title>
<g id="a_Node000003"><a xlink:href="classarmnn_1_1_base_workload.html" target="_top" xlink:title=" ">
<polygon fill="white" stroke="#666666" points="170.5,-190.5 0,-190.5 0,-171.25 170.5,-171.25 170.5,-190.5"/>
<text xml:space="preserve" text-anchor="middle" x="85.25" y="-177" font-family="Helvetica,sans-Serif" font-size="10.00">BaseWorkload&lt; QueueDescriptor &gt;</text>
</a>
</g>
</g>
<!-- Node3&#45;&gt;Node2 -->
<g id="edge2_Node000002_Node000003" class="edge">
<title>Node3&#45;&gt;Node2</title>
<g id="a_edge2_Node000002_Node000003"><a xlink:title=" ">
<path fill="none" stroke="#63b8ff" d="M87.48,-159.94C89.84,-138.83 93.51,-105.98 95.61,-87.13"/>
<polygon fill="#63b8ff" stroke="#63b8ff" points="84.03,-159.26 86.4,-169.58 90.99,-160.03 84.03,-159.26"/>
</a>
</g>
</g>
<!-- Node4 -->
<g id="Node000004" class="node">
<title>Node4</title>
<g id="a_Node000004"><a xlink:href="classarmnn_1_1_i_workload.html" target="_top" xlink:title="Workload interface to enqueue a layer computation.">
<polygon fill="white" stroke="#666666" points="129,-284 69.5,-284 69.5,-264.75 129,-264.75 129,-284"/>
<text xml:space="preserve" text-anchor="middle" x="99.25" y="-270.5" font-family="Helvetica,sans-Serif" font-size="10.00">IWorkload</text>
</a>
</g>
</g>
<!-- Node4&#45;&gt;Node3 -->
<g id="edge3_Node000003_Node000004" class="edge">
<title>Node4&#45;&gt;Node3</title>
<g id="a_edge3_Node000003_Node000004"><a xlink:title=" ">
<path fill="none" stroke="#63b8ff" d="M96.14,-253.05C93.17,-233.64 88.84,-205.31 86.64,-190.95"/>
<polygon fill="#63b8ff" stroke="#63b8ff" points="92.66,-253.42 97.63,-262.77 99.57,-252.36 92.66,-253.42"/>
</a>
</g>
</g>
<!-- Node6 -->
<g id="Node000006" class="node">
<title>Node6</title>
<g id="a_Node000006"><a xlink:href="classarmnn_1_1_base_workload.html" target="_top" xlink:title=" ">
<polygon fill="white" stroke="#666666" points="286.5,-227.75 116,-227.75 116,-208.5 286.5,-208.5 286.5,-227.75"/>
<text xml:space="preserve" text-anchor="middle" x="201.25" y="-214.25" font-family="Helvetica,sans-Serif" font-size="10.00">BaseWorkload&lt; QueueDescriptor &gt;</text>
</a>
</g>
</g>
<!-- Node4&#45;&gt;Node6 -->
<g id="edge6_Node000006_Node000004" class="edge">
<title>Node4&#45;&gt;Node6</title>
<g id="a_edge6_Node000006_Node000004"><a xlink:title=" ">
<path fill="none" stroke="#63b8ff" d="M126.23,-259.03C144.68,-249.21 168.57,-236.5 184.38,-228.1"/>
<polygon fill="#63b8ff" stroke="#63b8ff" points="124.61,-255.92 117.43,-263.71 127.9,-262.1 124.61,-255.92"/>
</a>
</g>
</g>
<!-- Node5 -->
<g id="Node000005" class="node">
<title>Node5</title>
<g id="a_Node000005"><a xlink:href="classarmnn_1_1_ref_base_workload.html" target="_top" xlink:title=" ">
<polygon fill="white" stroke="#666666" points="295.38,-153.25 109.12,-153.25 109.12,-134 295.38,-134 295.38,-153.25"/>
<text xml:space="preserve" text-anchor="middle" x="202.25" y="-139.75" font-family="Helvetica,sans-Serif" font-size="10.00">RefBaseWorkload&lt; QueueDescriptor &gt;</text>
</a>
</g>
</g>
<!-- Node5&#45;&gt;Node2 -->
<g id="edge4_Node000002_Node000005" class="edge">
<title>Node5&#45;&gt;Node2</title>
<g id="a_edge4_Node000002_Node000005"><a xlink:title=" ">
<path fill="none" stroke="orange" stroke-dasharray="5,2" d="M179.57,-127.48C161.69,-115.54 136.9,-98.98 119.21,-87.17"/>
<polygon fill="orange" stroke="orange" points="177.43,-130.26 187.69,-132.9 181.32,-124.44 177.43,-130.26"/>
</a>
</g>
<text xml:space="preserve" text-anchor="middle" x="230.87" y="-106.5" font-family="Helvetica,sans-Serif" font-size="10.00" fill="grey"> &lt; Pooling3dQueueDescriptor &gt;</text>
</g>
<!-- Node6&#45;&gt;Node5 -->
<g id="edge5_Node000005_Node000006" class="edge">
<title>Node6&#45;&gt;Node5</title>
<g id="a_edge5_Node000005_Node000006"><a xlink:title=" ">
<path fill="none" stroke="#63b8ff" d="M201.53,-197.1C201.72,-182.85 201.98,-164.38 202.13,-153.59"/>
<polygon fill="#63b8ff" stroke="#63b8ff" points="198.03,-196.67 201.39,-206.72 205.03,-196.77 198.03,-196.67"/>
</a>
</g>
</g>
</g>
</svg>
