<?xml version="1.0" encoding="UTF-8" standalone="no"?>
<!DOCTYPE svg PUBLIC "-//W3C//DTD SVG 1.1//EN"
 "http://www.w3.org/Graphics/SVG/1.1/DTD/svg11.dtd">
<!-- Generated by graphviz version 14.1.1 (20251213.1925)
 -->
<!-- Title: BatchMatMulLayer Pages: 1 -->
<svg width="312pt" height="285pt"
 viewBox="0.00 0.00 312.00 285.00" xmlns="http://www.w3.org/2000/svg" xmlns:xlink="http://www.w3.org/1999/xlink">
<g id="graph0" class="graph" transform="scale(1 1) rotate(0) translate(4 281)">
<title>BatchMatMulLayer</title>
<!-- Node1 -->
<g id="Node000001" class="node">
<title>Node1</title>
<g id="a_Node000001"><a xlink:title=" ">
<polygon fill="#999999" stroke="#666666" points="146.75,-19.25 49,-19.25 49,0 146.75,0 146.75,-19.25"/>
<text xml:space="preserve" text-anchor="middle" x="97.88" y="-5.75" font-family="Helvetica,sans-Serif" font-size="10.00">BatchMatMulLayer</text>
</a>
</g>
</g>
<!-- Node2 -->
<g id="Node000002" class="node">
<title>Node2</title>
<g id="a_Node000002"><a xlink:href="classarmnn_1_1_layer_with_parameters.html" target="_top" xlink:title=" ">
<polygon fill="white" stroke="#666666" points="166.25,-86.75 29.5,-86.75 29.5,-56.25 166.25,-56.25 166.25,-86.75"/>
<text xml:space="preserve" text-anchor="start" x="37.5" y="-73.25" font-family="Helvetica,sans-Serif" font-size="10.00">LayerWithParameters</text>
<text xml:space="preserve" text-anchor="middle" x="97.88" y="-62" font-family="Helvetica,sans-Serif" font-size="10.00">&lt; BatchMatMulDescriptor &gt;</text>
</a>
</g>
</g>
<!-- Node2&#45;&gt;Node1 -->
<g id="edge1_Node000001_Node000002" class="edge">
<title>Node2&#45;&gt;Node1</title>
<g id="a_edge1_Node000001_Node000002"><a xlink:title=" ">
<path fill="none" stroke="#63b8ff" d="M97.88,-44.77C97.88,-35.79 97.88,-26.29 97.88,-19.6"/>
<polygon fill="#63b8ff" stroke="#63b8ff" points="94.38,-44.49 97.88,-54.49 101.38,-44.49 94.38,-44.49"/>
</a>
</g>
</g>
<!-- Node3 -->
<g id="Node000003" class="node">
<title>Node3</title>
<g id="a_Node000003"><a xlink:href="classarmnn_1_1_layer.html" target="_top" xlink:title=" ">
<polygon fill="white" stroke="#666666" points="68.88,-220.75 28.88,-220.75 28.88,-201.5 68.88,-201.5 68.88,-220.75"/>
<text xml:space="preserve" text-anchor="middle" x="48.88" y="-207.25" font-family="Helvetica,sans-Serif" font-size="10.00">Layer</text>
</a>
</g>
</g>
<!-- Node3&#45;&gt;Node2 -->
<g id="edge2_Node000002_Node000003" class="edge">
<title>Node3&#45;&gt;Node2</title>
<g id="a_edge2_Node000002_Node000003"><a xlink:title=" ">
<path fill="none" stroke="#63b8ff" d="M41.99,-190.76C37.5,-174.96 33.68,-152.34 40.88,-134 48.37,-114.89 64.9,-98.17 78.24,-87.01"/>
<polygon fill="#63b8ff" stroke="#63b8ff" points="38.53,-191.43 44.92,-199.88 45.2,-189.29 38.53,-191.43"/>
</a>
</g>
</g>
<!-- Node7 -->
<g id="Node000007" class="node">
<title>Node7</title>
<g id="a_Node000007"><a xlink:href="classarmnn_1_1_layer_with_parameters.html" target="_top" xlink:title=" ">
<polygon fill="white" stroke="#666666" points="160.12,-164.5 49.62,-164.5 49.62,-134 160.12,-134 160.12,-164.5"/>
<text xml:space="preserve" text-anchor="start" x="57.62" y="-151" font-family="Helvetica,sans-Serif" font-size="10.00">LayerWithParameters</text>
<text xml:space="preserve" text-anchor="middle" x="104.88" y="-139.75" font-family="Helvetica,sans-Serif" font-size="10.00">&lt; Parameters &gt;</text>
</a>
</g>
</g>
<!-- Node3&#45;&gt;Node7 -->
<g id="edge7_Node000007_Node000003" class="edge">
<title>Node3&#45;&gt;Node7</title>
<g id="a_edge7_Node000007_Node000003"><a xlink:title=" ">
<path fill="none" stroke="#63b8ff" d="M65.04,-192.84C73.42,-183.88 83.54,-173.06 91.48,-164.57"/>
<polygon fill="#63b8ff" stroke="#63b8ff" points="62.69,-190.23 58.41,-199.93 67.8,-195.01 62.69,-190.23"/>
</a>
</g>
</g>
<!-- Node4 -->
<g id="Node000004" class="node">
<title>Node4</title>
<g id="a_Node000004"><a xlink:href="classarmnn_1_1_i_connectable_layer.html" target="_top" xlink:title="Interface for a layer that is connectable to other layers via InputSlots and OutputSlots.">
<polygon fill="white" stroke="#666666" points="97.75,-277 0,-277 0,-257.75 97.75,-257.75 97.75,-277"/>
<text xml:space="preserve" text-anchor="middle" x="48.88" y="-263.5" font-family="Helvetica,sans-Serif" font-size="10.00">IConnectableLayer</text>
</a>
</g>
</g>
<!-- Node4&#45;&gt;Node3 -->
<g id="edge3_Node000003_Node000004" class="edge">
<title>Node4&#45;&gt;Node3</title>
<g id="a_edge3_Node000003_Node000004"><a xlink:title=" ">
<path fill="none" stroke="#63b8ff" d="M48.88,-246.19C48.88,-237.48 48.88,-227.74 48.88,-220.92"/>
<polygon fill="#63b8ff" stroke="#63b8ff" points="45.38,-245.9 48.88,-255.9 52.38,-245.9 45.38,-245.9"/>
</a>
</g>
</g>
<!-- Node5 -->
<g id="Node000005" class="node">
<title>Node5</title>
<g id="a_Node000005"><a xlink:href="structarmnn_1_1_batch_mat_mul_descriptor.html" target="_top" xlink:title="A BatchMatMulDescriptor for the BatchMatMul operator.">
<polygon fill="white" stroke="#666666" points="304.25,-158.88 185.5,-158.88 185.5,-139.62 304.25,-139.62 304.25,-158.88"/>
<text xml:space="preserve" text-anchor="middle" x="244.88" y="-145.38" font-family="Helvetica,sans-Serif" font-size="10.00">BatchMatMulDescriptor</text>
</a>
</g>
</g>
<!-- Node5&#45;&gt;Node2 -->
<g id="edge4_Node000002_Node000005" class="edge">
<title>Node5&#45;&gt;Node2</title>
<g id="a_edge4_Node000002_Node000005"><a xlink:title=" ">
<path fill="none" stroke="#9a32cd" stroke-dasharray="5,2" d="M239.03,-128.56C235.59,-120.11 230.4,-110.8 222.88,-104.75 206.9,-91.89 186.37,-84.11 166.59,-79.41"/>
<polygon fill="#9a32cd" stroke="#9a32cd" points="235.62,-129.42 242.19,-137.74 242.24,-127.14 235.62,-129.42"/>
</a>
</g>
<text xml:space="preserve" text-anchor="middle" x="254.88" y="-106.5" font-family="Helvetica,sans-Serif" font-size="10.00" fill="grey"> m_Param</text>
</g>
<!-- Node6 -->
<g id="Node000006" class="node">
<title>Node6</title>
<g id="a_Node000006"><a xlink:href="structarmnn_1_1_base_descriptor.html" target="_top" xlink:title="Base class for all descriptors.">
<polygon fill="white" stroke="#666666" points="286.62,-220.75 203.12,-220.75 203.12,-201.5 286.62,-201.5 286.62,-220.75"/>
<text xml:space="preserve" text-anchor="middle" x="244.88" y="-207.25" font-family="Helvetica,sans-Serif" font-size="10.00">BaseDescriptor</text>
</a>
</g>
</g>
<!-- Node6&#45;&gt;Node5 -->
<g id="edge5_Node000005_Node000006" class="edge">
<title>Node6&#45;&gt;Node5</title>
<g id="a_edge5_Node000005_Node000006"><a xlink:title=" ">
<path fill="none" stroke="#63b8ff" d="M244.88,-189.55C244.88,-179.13 244.88,-167.03 244.88,-159.04"/>
<polygon fill="#63b8ff" stroke="#63b8ff" points="241.38,-189.52 244.88,-199.52 248.38,-189.52 241.38,-189.52"/>
</a>
</g>
</g>
<!-- Node7&#45;&gt;Node2 -->
<g id="edge6_Node000002_Node000007" class="edge">
<title>Node7&#45;&gt;Node2</title>
<g id="a_edge6_Node000002_Node000007"><a xlink:title=" ">
<path fill="none" stroke="orange" stroke-dasharray="5,2" d="M99.92,-122.36C99.61,-120.21 99.34,-118.07 99.12,-116 98.13,-106.38 97.82,-95.51 97.76,-87.04"/>
<polygon fill="orange" stroke="orange" points="96.43,-122.76 101.53,-132.05 103.34,-121.61 96.43,-122.76"/>
</a>
</g>
<text xml:space="preserve" text-anchor="middle" x="161" y="-106.5" font-family="Helvetica,sans-Serif" font-size="10.00" fill="grey"> &lt; BatchMatMulDescriptor &gt;</text>
</g>
</g>
</svg>
