<?xml version="1.0" encoding="UTF-8" standalone="no"?>
<!DOCTYPE svg PUBLIC "-//W3C//DTD SVG 1.1//EN"
 "http://www.w3.org/Graphics/SVG/1.1/DTD/svg11.dtd">
<!-- Generated by graphviz version 14.1.1 (20251213.1925)
 -->
<!-- Title: Instrument Pages: 1 -->
<svg width="267pt" height="83pt"
 viewBox="0.00 0.00 267.00 83.00" xmlns="http://www.w3.org/2000/svg" xmlns:xlink="http://www.w3.org/1999/xlink">
<g id="graph0" class="graph" transform="scale(1 1) rotate(0) translate(4 78.5)">
<title>Instrument</title>
<!-- Node1 -->
<g id="Node000001" class="node">
<title>Node1</title>
<g id="a_Node000001"><a xlink:title=" ">
<polygon fill="#999999" stroke="#666666" points="150.25,-74.5 87.75,-74.5 87.75,-55.25 150.25,-55.25 150.25,-74.5"/>
<text xml:space="preserve" text-anchor="middle" x="119" y="-61" font-family="Helvetica,sans-Serif" font-size="10.00">Instrument</text>
</a>
</g>
</g>
<!-- Node2 -->
<g id="Node000002" class="node">
<title>Node2</title>
<g id="a_Node000002"><a xlink:href="classarmnn_1_1_neon_timer.html" target="_top" xlink:title=" ">
<polygon fill="white" stroke="#666666" points="64,-19.25 0,-19.25 0,0 64,0 64,-19.25"/>
<text xml:space="preserve" text-anchor="middle" x="32" y="-5.75" font-family="Helvetica,sans-Serif" font-size="10.00">NeonTimer</text>
</a>
</g>
</g>
<!-- Node1&#45;&gt;Node2 -->
<g id="edge1_Node000001_Node000002" class="edge">
<title>Node1&#45;&gt;Node2</title>
<g id="a_edge1_Node000001_Node000002"><a xlink:title=" ">
<path fill="none" stroke="#63b8ff" d="M94.82,-49.07C79.42,-39.65 59.98,-27.75 46.83,-19.7"/>
<polygon fill="#63b8ff" stroke="#63b8ff" points="92.59,-51.82 102.95,-54.05 96.25,-45.85 92.59,-51.82"/>
</a>
</g>
</g>
<!-- Node3 -->
<g id="Node000003" class="node">
<title>Node3</title>
<g id="a_Node000003"><a xlink:href="classarmnn_1_1_open_cl_timer.html" target="_top" xlink:title="OpenClTimer instrument that times all OpenCl kernels executed between calls to Start() and Stop().">
<polygon fill="white" stroke="#666666" points="155.88,-19.25 82.12,-19.25 82.12,0 155.88,0 155.88,-19.25"/>
<text xml:space="preserve" text-anchor="middle" x="119" y="-5.75" font-family="Helvetica,sans-Serif" font-size="10.00">OpenClTimer</text>
</a>
</g>
</g>
<!-- Node1&#45;&gt;Node3 -->
<g id="edge2_Node000001_Node000003" class="edge">
<title>Node1&#45;&gt;Node3</title>
<g id="a_edge2_Node000001_Node000003"><a xlink:title=" ">
<path fill="none" stroke="#63b8ff" d="M119,-43.63C119,-35.34 119,-26.17 119,-19.61"/>
<polygon fill="#63b8ff" stroke="#63b8ff" points="115.5,-43.57 119,-53.57 122.5,-43.57 115.5,-43.57"/>
</a>
</g>
</g>
<!-- Node4 -->
<g id="Node000004" class="node">
<title>Node4</title>
<g id="a_Node000004"><a xlink:href="classarmnn_1_1_wall_clock_timer.html" target="_top" xlink:title=" ">
<polygon fill="white" stroke="#666666" points="258.5,-19.25 173.5,-19.25 173.5,0 258.5,0 258.5,-19.25"/>
<text xml:space="preserve" text-anchor="middle" x="216" y="-5.75" font-family="Helvetica,sans-Serif" font-size="10.00">WallClockTimer</text>
</a>
</g>
</g>
<!-- Node1&#45;&gt;Node4 -->
<g id="edge3_Node000001_Node000004" class="edge">
<title>Node1&#45;&gt;Node4</title>
<g id="a_edge3_Node000001_Node000004"><a xlink:title=" ">
<path fill="none" stroke="#63b8ff" d="M145.47,-49.34C162.71,-39.88 184.67,-27.83 199.46,-19.7"/>
<polygon fill="#63b8ff" stroke="#63b8ff" points="143.86,-46.23 136.78,-54.11 147.23,-52.37 143.86,-46.23"/>
</a>
</g>
</g>
</g>
</svg>
