<?xml version="1.0" encoding="UTF-8" standalone="no"?>
<!DOCTYPE svg PUBLIC "-//W3C//DTD SVG 1.1//EN"
 "http://www.w3.org/Graphics/SVG/1.1/DTD/svg11.dtd">
<!-- Generated by graphviz version 14.1.1 (20251213.1925)
 -->
<!-- Title: Graph::LayerInGraph&lt; OutputLayer &gt; Pages: 1 -->
<svg width="153pt" height="161pt"
 viewBox="0.00 0.00 153.00 161.00" xmlns="http://www.w3.org/2000/svg" xmlns:xlink="http://www.w3.org/1999/xlink">
<g id="graph0" class="graph" transform="scale(1 1) rotate(0) translate(4 157.25)">
<title>Graph::LayerInGraph&lt; OutputLayer &gt;</title>
<!-- Node1 -->
<g id="Node000001" class="node">
<title>Node1</title>
<g id="a_Node000001"><a xlink:title="Outputs add/remove their binding id to m_OutputIds in the graph.">
<polygon fill="#999999" stroke="#666666" points="125.88,-30.5 19.13,-30.5 19.13,0 125.88,0 125.88,-30.5"/>
<text xml:space="preserve" text-anchor="start" x="27.12" y="-17" font-family="Helvetica,sans-Serif" font-size="10.00">Graph::LayerInGraph</text>
<text xml:space="preserve" text-anchor="middle" x="72.5" y="-5.75" font-family="Helvetica,sans-Serif" font-size="10.00">&lt; OutputLayer &gt;</text>
</a>
</g>
</g>
<!-- Node2 -->
<g id="Node000002" class="node">
<title>Node2</title>
<g id="a_Node000002"><a xlink:title=" ">
<polygon fill="white" stroke="#666666" points="145,-86.75 0,-86.75 0,-67.5 145,-67.5 145,-86.75"/>
<text xml:space="preserve" text-anchor="middle" x="72.5" y="-73.25" font-family="Helvetica,sans-Serif" font-size="10.00">LayerInGraphBase&lt; LayerT &gt;</text>
</a>
</g>
</g>
<!-- Node2&#45;&gt;Node1 -->
<g id="edge1_Node000001_Node000002" class="edge">
<title>Node2&#45;&gt;Node1</title>
<g id="a_edge1_Node000001_Node000002"><a xlink:title=" ">
<path fill="none" stroke="#63b8ff" d="M72.5,-55.69C72.5,-47.43 72.5,-38.09 72.5,-30.57"/>
<polygon fill="#63b8ff" stroke="#63b8ff" points="69,-55.52 72.5,-65.52 76,-55.52 69,-55.52"/>
</a>
</g>
</g>
<!-- Node3 -->
<g id="Node000003" class="node">
<title>Node3</title>
<g id="a_Node000003"><a xlink:title=" ">
<polygon fill="white" stroke="#666666" points="64.5,-153.25 18.5,-153.25 18.5,-134 64.5,-134 64.5,-153.25"/>
<text xml:space="preserve" text-anchor="middle" x="41.5" y="-139.75" font-family="Helvetica,sans-Serif" font-size="10.00">LayerT</text>
</a>
</g>
</g>
<!-- Node3&#45;&gt;Node2 -->
<g id="edge2_Node000002_Node000003" class="edge">
<title>Node3&#45;&gt;Node2</title>
<g id="a_edge2_Node000002_Node000003"><a xlink:title=" ">
<path fill="none" stroke="#63b8ff" d="M50.62,-123.64C56.44,-111.54 63.71,-96.42 68.23,-87.02"/>
<polygon fill="#63b8ff" stroke="#63b8ff" points="47.64,-121.76 46.47,-132.29 53.95,-124.8 47.64,-121.76"/>
</a>
</g>
</g>
<!-- Node4 -->
<g id="Node000004" class="node">
<title>Node4</title>
<g id="a_Node000004"><a xlink:href="classarmnn_1_1_graph.html" target="_top" xlink:title=" ">
<polygon fill="white" stroke="#666666" points="124.62,-153.25 82.38,-153.25 82.38,-134 124.62,-134 124.62,-153.25"/>
<text xml:space="preserve" text-anchor="middle" x="103.5" y="-139.75" font-family="Helvetica,sans-Serif" font-size="10.00">Graph</text>
</a>
</g>
</g>
<!-- Node4&#45;&gt;Node2 -->
<g id="edge3_Node000002_Node000004" class="edge">
<title>Node4&#45;&gt;Node2</title>
<g id="a_edge3_Node000002_Node000004"><a xlink:title=" ">
<path fill="none" stroke="#9a32cd" stroke-dasharray="5,2" d="M94.38,-123.64C88.56,-111.54 81.29,-96.42 76.77,-87.02"/>
<polygon fill="#9a32cd" stroke="#9a32cd" points="91.05,-124.8 98.53,-132.29 97.36,-121.76 91.05,-124.8"/>
</a>
</g>
<text xml:space="preserve" text-anchor="middle" x="111.23" y="-106.5" font-family="Helvetica,sans-Serif" font-size="10.00" fill="grey"> m_Graph</text>
</g>
</g>
</svg>
