<?xml version="1.0" encoding="UTF-8" standalone="no"?>
<!DOCTYPE svg PUBLIC "-//W3C//DTD SVG 1.1//EN"
 "http://www.w3.org/Graphics/SVG/1.1/DTD/svg11.dtd">
<!-- Generated by graphviz version 14.1.1 (20251213.1925)
 -->
<!-- Title: DetectionPostProcessLayer Pages: 1 -->
<svg width="363pt" height="285pt"
 viewBox="0.00 0.00 363.00 285.00" xmlns="http://www.w3.org/2000/svg" xmlns:xlink="http://www.w3.org/1999/xlink">
<g id="graph0" class="graph" transform="scale(1 1) rotate(0) translate(4 281)">
<title>DetectionPostProcessLayer</title>
<!-- Node1 -->
<g id="Node000001" class="node">
<title>Node1</title>
<g id="a_Node000001"><a xlink:title="This layer represents a detection postprocess operator.">
<polygon fill="#999999" stroke="#666666" points="157.75,-19.25 19.5,-19.25 19.5,0 157.75,0 157.75,-19.25"/>
<text xml:space="preserve" text-anchor="middle" x="88.62" y="-5.75" font-family="Helvetica,sans-Serif" font-size="10.00">DetectionPostProcessLayer</text>
</a>
</g>
</g>
<!-- Node2 -->
<g id="Node000002" class="node">
<title>Node2</title>
<g id="a_Node000002"><a xlink:href="classarmnn_1_1_layer_with_parameters.html" target="_top" xlink:title=" ">
<polygon fill="white" stroke="#666666" points="177.25,-86.75 0,-86.75 0,-56.25 177.25,-56.25 177.25,-86.75"/>
<text xml:space="preserve" text-anchor="start" x="8" y="-73.25" font-family="Helvetica,sans-Serif" font-size="10.00">LayerWithParameters</text>
<text xml:space="preserve" text-anchor="middle" x="88.62" y="-62" font-family="Helvetica,sans-Serif" font-size="10.00">&lt; DetectionPostProcessDescriptor &gt;</text>
</a>
</g>
</g>
<!-- Node2&#45;&gt;Node1 -->
<g id="edge1_Node000001_Node000002" class="edge">
<title>Node2&#45;&gt;Node1</title>
<g id="a_edge1_Node000001_Node000002"><a xlink:title=" ">
<path fill="none" stroke="#63b8ff" d="M88.62,-44.77C88.62,-35.79 88.62,-26.29 88.62,-19.6"/>
<polygon fill="#63b8ff" stroke="#63b8ff" points="85.13,-44.49 88.63,-54.49 92.13,-44.49 85.13,-44.49"/>
</a>
</g>
</g>
<!-- Node3 -->
<g id="Node000003" class="node">
<title>Node3</title>
<g id="a_Node000003"><a xlink:href="classarmnn_1_1_layer.html" target="_top" xlink:title=" ">
<polygon fill="white" stroke="#666666" points="69.62,-220.75 29.62,-220.75 29.62,-201.5 69.62,-201.5 69.62,-220.75"/>
<text xml:space="preserve" text-anchor="middle" x="49.62" y="-207.25" font-family="Helvetica,sans-Serif" font-size="10.00">Layer</text>
</a>
</g>
</g>
<!-- Node3&#45;&gt;Node2 -->
<g id="edge2_Node000002_Node000003" class="edge">
<title>Node3&#45;&gt;Node2</title>
<g id="a_edge2_Node000002_Node000003"><a xlink:title=" ">
<path fill="none" stroke="#63b8ff" d="M43.08,-190.46C38.92,-174.79 35.37,-152.47 41.62,-134 47.83,-115.67 61.92,-98.5 73.07,-86.99"/>
<polygon fill="#63b8ff" stroke="#63b8ff" points="39.71,-191.4 45.94,-199.96 46.41,-189.38 39.71,-191.4"/>
</a>
</g>
</g>
<!-- Node7 -->
<g id="Node000007" class="node">
<title>Node7</title>
<g id="a_Node000007"><a xlink:href="classarmnn_1_1_layer_with_parameters.html" target="_top" xlink:title=" ">
<polygon fill="white" stroke="#666666" points="160.88,-164.5 50.38,-164.5 50.38,-134 160.88,-134 160.88,-164.5"/>
<text xml:space="preserve" text-anchor="start" x="58.38" y="-151" font-family="Helvetica,sans-Serif" font-size="10.00">LayerWithParameters</text>
<text xml:space="preserve" text-anchor="middle" x="105.62" y="-139.75" font-family="Helvetica,sans-Serif" font-size="10.00">&lt; Parameters &gt;</text>
</a>
</g>
</g>
<!-- Node3&#45;&gt;Node7 -->
<g id="edge7_Node000007_Node000003" class="edge">
<title>Node3&#45;&gt;Node7</title>
<g id="a_edge7_Node000007_Node000003"><a xlink:title=" ">
<path fill="none" stroke="#63b8ff" d="M65.79,-192.84C74.17,-183.88 84.29,-173.06 92.23,-164.57"/>
<polygon fill="#63b8ff" stroke="#63b8ff" points="63.44,-190.23 59.16,-199.93 68.55,-195.01 63.44,-190.23"/>
</a>
</g>
</g>
<!-- Node4 -->
<g id="Node000004" class="node">
<title>Node4</title>
<g id="a_Node000004"><a xlink:href="classarmnn_1_1_i_connectable_layer.html" target="_top" xlink:title="Interface for a layer that is connectable to other layers via InputSlots and OutputSlots.">
<polygon fill="white" stroke="#666666" points="98.5,-277 0.75,-277 0.75,-257.75 98.5,-257.75 98.5,-277"/>
<text xml:space="preserve" text-anchor="middle" x="49.62" y="-263.5" font-family="Helvetica,sans-Serif" font-size="10.00">IConnectableLayer</text>
</a>
</g>
</g>
<!-- Node4&#45;&gt;Node3 -->
<g id="edge3_Node000003_Node000004" class="edge">
<title>Node4&#45;&gt;Node3</title>
<g id="a_edge3_Node000003_Node000004"><a xlink:title=" ">
<path fill="none" stroke="#63b8ff" d="M49.62,-246.19C49.62,-237.48 49.62,-227.74 49.62,-220.92"/>
<polygon fill="#63b8ff" stroke="#63b8ff" points="46.13,-245.9 49.63,-255.9 53.13,-245.9 46.13,-245.9"/>
</a>
</g>
</g>
<!-- Node5 -->
<g id="Node000005" class="node">
<title>Node5</title>
<g id="a_Node000005"><a xlink:href="structarmnn_1_1_detection_post_process_descriptor.html" target="_top" xlink:title=" ">
<polygon fill="white" stroke="#666666" points="355.25,-158.88 196,-158.88 196,-139.62 355.25,-139.62 355.25,-158.88"/>
<text xml:space="preserve" text-anchor="middle" x="275.62" y="-145.38" font-family="Helvetica,sans-Serif" font-size="10.00">DetectionPostProcessDescriptor</text>
</a>
</g>
</g>
<!-- Node5&#45;&gt;Node2 -->
<g id="edge4_Node000002_Node000005" class="edge">
<title>Node5&#45;&gt;Node2</title>
<g id="a_edge4_Node000002_Node000005"><a xlink:title=" ">
<path fill="none" stroke="#9a32cd" stroke-dasharray="5,2" d="M270.06,-128.65C266.66,-120.08 261.42,-110.65 253.62,-104.75 241.06,-95.24 209.73,-88.01 177.7,-82.84"/>
<polygon fill="#9a32cd" stroke="#9a32cd" points="266.68,-129.58 273.16,-137.97 273.33,-127.37 266.68,-129.58"/>
</a>
</g>
<text xml:space="preserve" text-anchor="middle" x="285.79" y="-106.5" font-family="Helvetica,sans-Serif" font-size="10.00" fill="grey"> m_Param</text>
</g>
<!-- Node6 -->
<g id="Node000006" class="node">
<title>Node6</title>
<g id="a_Node000006"><a xlink:href="structarmnn_1_1_base_descriptor.html" target="_top" xlink:title="Base class for all descriptors.">
<polygon fill="white" stroke="#666666" points="317.38,-220.75 233.88,-220.75 233.88,-201.5 317.38,-201.5 317.38,-220.75"/>
<text xml:space="preserve" text-anchor="middle" x="275.62" y="-207.25" font-family="Helvetica,sans-Serif" font-size="10.00">BaseDescriptor</text>
</a>
</g>
</g>
<!-- Node6&#45;&gt;Node5 -->
<g id="edge5_Node000005_Node000006" class="edge">
<title>Node6&#45;&gt;Node5</title>
<g id="a_edge5_Node000005_Node000006"><a xlink:title=" ">
<path fill="none" stroke="#63b8ff" d="M275.62,-189.55C275.62,-179.13 275.62,-167.03 275.62,-159.04"/>
<polygon fill="#63b8ff" stroke="#63b8ff" points="272.13,-189.52 275.63,-199.52 279.13,-189.52 272.13,-189.52"/>
</a>
</g>
</g>
<!-- Node7&#45;&gt;Node2 -->
<g id="edge6_Node000002_Node000007" class="edge">
<title>Node7&#45;&gt;Node2</title>
<g id="a_edge6_Node000002_Node000007"><a xlink:title=" ">
<path fill="none" stroke="orange" stroke-dasharray="5,2" d="M91.77,-123.43C90.81,-120.97 89.99,-118.47 89.38,-116 87.06,-106.61 86.87,-95.74 87.26,-87.21"/>
<polygon fill="orange" stroke="orange" points="88.52,-124.74 95.91,-132.33 94.86,-121.78 88.52,-124.74"/>
</a>
</g>
<text xml:space="preserve" text-anchor="middle" x="171.5" y="-106.5" font-family="Helvetica,sans-Serif" font-size="10.00" fill="grey"> &lt; DetectionPostProcessDescriptor &gt;</text>
</g>
</g>
</svg>
