<?xml version="1.0" encoding="UTF-8" standalone="no"?>
<!DOCTYPE svg PUBLIC "-//W3C//DTD SVG 1.1//EN"
 "http://www.w3.org/Graphics/SVG/1.1/DTD/svg11.dtd">
<!-- Generated by graphviz version 14.1.1 (20251213.1925)
 -->
<!-- Title: LogSoftmaxLayer Pages: 1 -->
<svg width="294pt" height="285pt"
 viewBox="0.00 0.00 294.00 285.00" xmlns="http://www.w3.org/2000/svg" xmlns:xlink="http://www.w3.org/1999/xlink">
<g id="graph0" class="graph" transform="scale(1 1) rotate(0) translate(4 281)">
<title>LogSoftmaxLayer</title>
<!-- Node1 -->
<g id="Node000001" class="node">
<title>Node1</title>
<g id="a_Node000001"><a xlink:title="This layer represents a log softmax operation.">
<polygon fill="#999999" stroke="#666666" points="141.12,-19.25 48.62,-19.25 48.62,0 141.12,0 141.12,-19.25"/>
<text xml:space="preserve" text-anchor="middle" x="94.88" y="-5.75" font-family="Helvetica,sans-Serif" font-size="10.00">LogSoftmaxLayer</text>
</a>
</g>
</g>
<!-- Node2 -->
<g id="Node000002" class="node">
<title>Node2</title>
<g id="a_Node000002"><a xlink:href="classarmnn_1_1_layer_with_parameters.html" target="_top" xlink:title=" ">
<polygon fill="white" stroke="#666666" points="160.62,-86.75 29.12,-86.75 29.12,-56.25 160.62,-56.25 160.62,-86.75"/>
<text xml:space="preserve" text-anchor="start" x="37.12" y="-73.25" font-family="Helvetica,sans-Serif" font-size="10.00">LayerWithParameters</text>
<text xml:space="preserve" text-anchor="middle" x="94.88" y="-62" font-family="Helvetica,sans-Serif" font-size="10.00">&lt; LogSoftmaxDescriptor &gt;</text>
</a>
</g>
</g>
<!-- Node2&#45;&gt;Node1 -->
<g id="edge1_Node000001_Node000002" class="edge">
<title>Node2&#45;&gt;Node1</title>
<g id="a_edge1_Node000001_Node000002"><a xlink:title=" ">
<path fill="none" stroke="#63b8ff" d="M94.88,-44.77C94.88,-35.79 94.88,-26.29 94.88,-19.6"/>
<polygon fill="#63b8ff" stroke="#63b8ff" points="91.38,-44.49 94.88,-54.49 98.38,-44.49 91.38,-44.49"/>
</a>
</g>
</g>
<!-- Node3 -->
<g id="Node000003" class="node">
<title>Node3</title>
<g id="a_Node000003"><a xlink:href="classarmnn_1_1_layer.html" target="_top" xlink:title=" ">
<polygon fill="white" stroke="#666666" points="68.88,-220.75 28.88,-220.75 28.88,-201.5 68.88,-201.5 68.88,-220.75"/>
<text xml:space="preserve" text-anchor="middle" x="48.88" y="-207.25" font-family="Helvetica,sans-Serif" font-size="10.00">Layer</text>
</a>
</g>
</g>
<!-- Node3&#45;&gt;Node2 -->
<g id="edge2_Node000002_Node000003" class="edge">
<title>Node3&#45;&gt;Node2</title>
<g id="a_edge2_Node000002_Node000003"><a xlink:title=" ">
<path fill="none" stroke="#63b8ff" d="M42.12,-190.81C37.71,-175.04 33.93,-152.43 40.88,-134 47.94,-115.25 63.6,-98.5 76.25,-87.23"/>
<polygon fill="#63b8ff" stroke="#63b8ff" points="38.65,-191.43 45,-199.91 45.32,-189.32 38.65,-191.43"/>
</a>
</g>
</g>
<!-- Node7 -->
<g id="Node000007" class="node">
<title>Node7</title>
<g id="a_Node000007"><a xlink:href="classarmnn_1_1_layer_with_parameters.html" target="_top" xlink:title=" ">
<polygon fill="white" stroke="#666666" points="160.12,-164.5 49.62,-164.5 49.62,-134 160.12,-134 160.12,-164.5"/>
<text xml:space="preserve" text-anchor="start" x="57.62" y="-151" font-family="Helvetica,sans-Serif" font-size="10.00">LayerWithParameters</text>
<text xml:space="preserve" text-anchor="middle" x="104.88" y="-139.75" font-family="Helvetica,sans-Serif" font-size="10.00">&lt; Parameters &gt;</text>
</a>
</g>
</g>
<!-- Node3&#45;&gt;Node7 -->
<g id="edge7_Node000007_Node000003" class="edge">
<title>Node3&#45;&gt;Node7</title>
<g id="a_edge7_Node000007_Node000003"><a xlink:title=" ">
<path fill="none" stroke="#63b8ff" d="M65.04,-192.84C73.42,-183.88 83.54,-173.06 91.48,-164.57"/>
<polygon fill="#63b8ff" stroke="#63b8ff" points="62.69,-190.23 58.41,-199.93 67.8,-195.01 62.69,-190.23"/>
</a>
</g>
</g>
<!-- Node4 -->
<g id="Node000004" class="node">
<title>Node4</title>
<g id="a_Node000004"><a xlink:href="classarmnn_1_1_i_connectable_layer.html" target="_top" xlink:title="Interface for a layer that is connectable to other layers via InputSlots and OutputSlots.">
<polygon fill="white" stroke="#666666" points="97.75,-277 0,-277 0,-257.75 97.75,-257.75 97.75,-277"/>
<text xml:space="preserve" text-anchor="middle" x="48.88" y="-263.5" font-family="Helvetica,sans-Serif" font-size="10.00">IConnectableLayer</text>
</a>
</g>
</g>
<!-- Node4&#45;&gt;Node3 -->
<g id="edge3_Node000003_Node000004" class="edge">
<title>Node4&#45;&gt;Node3</title>
<g id="a_edge3_Node000003_Node000004"><a xlink:title=" ">
<path fill="none" stroke="#63b8ff" d="M48.88,-246.19C48.88,-237.48 48.88,-227.74 48.88,-220.92"/>
<polygon fill="#63b8ff" stroke="#63b8ff" points="45.38,-245.9 48.88,-255.9 52.38,-245.9 45.38,-245.9"/>
</a>
</g>
</g>
<!-- Node5 -->
<g id="Node000005" class="node">
<title>Node5</title>
<g id="a_Node000005"><a xlink:href="structarmnn_1_1_softmax_descriptor.html" target="_top" xlink:title="A SoftmaxDescriptor for the SoftmaxLayer.">
<polygon fill="white" stroke="#666666" points="285.75,-158.88 188,-158.88 188,-139.62 285.75,-139.62 285.75,-158.88"/>
<text xml:space="preserve" text-anchor="middle" x="236.88" y="-145.38" font-family="Helvetica,sans-Serif" font-size="10.00">SoftmaxDescriptor</text>
</a>
</g>
</g>
<!-- Node5&#45;&gt;Node2 -->
<g id="edge4_Node000002_Node000005" class="edge">
<title>Node5&#45;&gt;Node2</title>
<g id="a_edge4_Node000002_Node000005"><a xlink:title=" ">
<path fill="none" stroke="#9a32cd" stroke-dasharray="5,2" d="M231,-128.59C227.55,-120.15 222.37,-110.84 214.88,-104.75 199.56,-92.3 179.86,-84.63 160.87,-79.91"/>
<polygon fill="#9a32cd" stroke="#9a32cd" points="227.59,-129.45 234.18,-137.76 234.21,-127.16 227.59,-129.45"/>
</a>
</g>
<text xml:space="preserve" text-anchor="middle" x="246.85" y="-106.5" font-family="Helvetica,sans-Serif" font-size="10.00" fill="grey"> m_Param</text>
</g>
<!-- Node6 -->
<g id="Node000006" class="node">
<title>Node6</title>
<g id="a_Node000006"><a xlink:href="structarmnn_1_1_base_descriptor.html" target="_top" xlink:title="Base class for all descriptors.">
<polygon fill="white" stroke="#666666" points="278.62,-220.75 195.12,-220.75 195.12,-201.5 278.62,-201.5 278.62,-220.75"/>
<text xml:space="preserve" text-anchor="middle" x="236.88" y="-207.25" font-family="Helvetica,sans-Serif" font-size="10.00">BaseDescriptor</text>
</a>
</g>
</g>
<!-- Node6&#45;&gt;Node5 -->
<g id="edge5_Node000005_Node000006" class="edge">
<title>Node6&#45;&gt;Node5</title>
<g id="a_edge5_Node000005_Node000006"><a xlink:title=" ">
<path fill="none" stroke="#63b8ff" d="M236.88,-189.55C236.88,-179.13 236.88,-167.03 236.88,-159.04"/>
<polygon fill="#63b8ff" stroke="#63b8ff" points="233.38,-189.52 236.88,-199.52 240.38,-189.52 233.38,-189.52"/>
</a>
</g>
</g>
<!-- Node7&#45;&gt;Node2 -->
<g id="edge6_Node000002_Node000007" class="edge">
<title>Node7&#45;&gt;Node2</title>
<g id="a_edge6_Node000002_Node000007"><a xlink:title=" ">
<path fill="none" stroke="orange" stroke-dasharray="5,2" d="M97.59,-122.7C97.11,-120.45 96.7,-118.19 96.38,-116 94.97,-106.43 94.59,-95.56 94.57,-87.07"/>
<polygon fill="orange" stroke="orange" points="94.13,-123.28 99.92,-132.15 100.92,-121.61 94.13,-123.28"/>
</a>
</g>
<text xml:space="preserve" text-anchor="middle" x="155.62" y="-106.5" font-family="Helvetica,sans-Serif" font-size="10.00" fill="grey"> &lt; LogSoftmaxDescriptor &gt;</text>
</g>
</g>
</svg>
