<?xml version="1.0" encoding="UTF-8" standalone="no"?>
<!DOCTYPE svg PUBLIC "-//W3C//DTD SVG 1.1//EN"
 "http://www.w3.org/Graphics/SVG/1.1/DTD/svg11.dtd">
<!-- Generated by graphviz version 14.1.1 (20251213.1925)
 -->
<!-- Title: ClLstmFloatWorkload Pages: 1 -->
<svg width="179pt" height="204pt"
 viewBox="0.00 0.00 179.00 204.00" xmlns="http://www.w3.org/2000/svg" xmlns:xlink="http://www.w3.org/1999/xlink">
<g id="graph0" class="graph" transform="scale(1 1) rotate(0) translate(4 200.25)">
<title>ClLstmFloatWorkload</title>
<!-- Node1 -->
<g id="Node000001" class="node">
<title>Node1</title>
<g id="a_Node000001"><a xlink:title=" ">
<polygon fill="#999999" stroke="#666666" points="140.12,-19.25 30.38,-19.25 30.38,0 140.12,0 140.12,-19.25"/>
<text xml:space="preserve" text-anchor="middle" x="85.25" y="-5.75" font-family="Helvetica,sans-Serif" font-size="10.00">ClLstmFloatWorkload</text>
</a>
</g>
</g>
<!-- Node2 -->
<g id="Node000002" class="node">
<title>Node2</title>
<g id="a_Node000002"><a xlink:href="classarmnn_1_1_typed_workload.html" target="_top" xlink:title=" ">
<polygon fill="white" stroke="#666666" points="154,-85.75 16.5,-85.75 16.5,-55.25 154,-55.25 154,-85.75"/>
<text xml:space="preserve" text-anchor="start" x="24.5" y="-72.25" font-family="Helvetica,sans-Serif" font-size="10.00">FloatWorkload&lt; LstmQueue</text>
<text xml:space="preserve" text-anchor="middle" x="85.25" y="-61" font-family="Helvetica,sans-Serif" font-size="10.00">Descriptor &gt;</text>
</a>
</g>
</g>
<!-- Node2&#45;&gt;Node1 -->
<g id="edge1_Node000001_Node000002" class="edge">
<title>Node2&#45;&gt;Node1</title>
<g id="a_edge1_Node000001_Node000002"><a xlink:title=" ">
<path fill="none" stroke="#63b8ff" d="M85.25,-43.48C85.25,-34.98 85.25,-26.09 85.25,-19.7"/>
<polygon fill="#63b8ff" stroke="#63b8ff" points="81.75,-43.43 85.25,-53.43 88.75,-43.43 81.75,-43.43"/>
</a>
</g>
</g>
<!-- Node3 -->
<g id="Node000003" class="node">
<title>Node3</title>
<g id="a_Node000003"><a xlink:href="classarmnn_1_1_base_workload.html" target="_top" xlink:title=" ">
<polygon fill="white" stroke="#666666" points="170.5,-141 0,-141 0,-121.75 170.5,-121.75 170.5,-141"/>
<text xml:space="preserve" text-anchor="middle" x="85.25" y="-127.5" font-family="Helvetica,sans-Serif" font-size="10.00">BaseWorkload&lt; QueueDescriptor &gt;</text>
</a>
</g>
</g>
<!-- Node3&#45;&gt;Node2 -->
<g id="edge2_Node000002_Node000003" class="edge">
<title>Node3&#45;&gt;Node2</title>
<g id="a_edge2_Node000002_Node000003"><a xlink:title=" ">
<path fill="none" stroke="#63b8ff" d="M85.25,-110.17C85.25,-102.24 85.25,-93.31 85.25,-86.03"/>
<polygon fill="#63b8ff" stroke="#63b8ff" points="81.75,-109.92 85.25,-119.92 88.75,-109.92 81.75,-109.92"/>
</a>
</g>
</g>
<!-- Node4 -->
<g id="Node000004" class="node">
<title>Node4</title>
<g id="a_Node000004"><a xlink:href="classarmnn_1_1_i_workload.html" target="_top" xlink:title="Workload interface to enqueue a layer computation.">
<polygon fill="white" stroke="#666666" points="115,-196.25 55.5,-196.25 55.5,-177 115,-177 115,-196.25"/>
<text xml:space="preserve" text-anchor="middle" x="85.25" y="-182.75" font-family="Helvetica,sans-Serif" font-size="10.00">IWorkload</text>
</a>
</g>
</g>
<!-- Node4&#45;&gt;Node3 -->
<g id="edge3_Node000003_Node000004" class="edge">
<title>Node4&#45;&gt;Node3</title>
<g id="a_edge3_Node000003_Node000004"><a xlink:title=" ">
<path fill="none" stroke="#63b8ff" d="M85.25,-165.38C85.25,-157.09 85.25,-147.92 85.25,-141.36"/>
<polygon fill="#63b8ff" stroke="#63b8ff" points="81.75,-165.32 85.25,-175.32 88.75,-165.32 81.75,-165.32"/>
</a>
</g>
</g>
</g>
</svg>
