<?xml version="1.0" encoding="UTF-8" standalone="no"?>
<!DOCTYPE svg PUBLIC "-//W3C//DTD SVG 1.1//EN"
 "http://www.w3.org/Graphics/SVG/1.1/DTD/svg11.dtd">
<!-- Generated by graphviz version 14.1.1 (20251213.1925)
 -->
<!-- Title: RefTransposeConvolution2dWorkload Pages: 1 -->
<svg width="303pt" height="315pt"
 viewBox="0.00 0.00 303.00 315.00" xmlns="http://www.w3.org/2000/svg" xmlns:xlink="http://www.w3.org/1999/xlink">
<g id="graph0" class="graph" transform="scale(1 1) rotate(0) translate(4 310.5)">
<title>RefTransposeConvolution2dWorkload</title>
<!-- Node1 -->
<g id="Node000001" class="node">
<title>Node1</title>
<g id="a_Node000001"><a xlink:title=" ">
<polygon fill="#999999" stroke="#666666" points="167.12,-30.5 27.38,-30.5 27.38,0 167.12,0 167.12,-30.5"/>
<text xml:space="preserve" text-anchor="start" x="35.38" y="-17" font-family="Helvetica,sans-Serif" font-size="10.00">RefTransposeConvolution2d</text>
<text xml:space="preserve" text-anchor="middle" x="97.25" y="-5.75" font-family="Helvetica,sans-Serif" font-size="10.00">Workload</text>
</a>
</g>
</g>
<!-- Node2 -->
<g id="Node000002" class="node">
<title>Node2</title>
<g id="a_Node000002"><a xlink:href="classarmnn_1_1_ref_base_workload.html" target="_top" xlink:title=" ">
<polygon fill="white" stroke="#666666" points="177.62,-98 16.88,-98 16.88,-67.5 177.62,-67.5 177.62,-98"/>
<text xml:space="preserve" text-anchor="start" x="24.88" y="-84.5" font-family="Helvetica,sans-Serif" font-size="10.00">RefBaseWorkload&lt; Transpose</text>
<text xml:space="preserve" text-anchor="middle" x="97.25" y="-73.25" font-family="Helvetica,sans-Serif" font-size="10.00">Convolution2dQueueDescriptor &gt;</text>
</a>
</g>
</g>
<!-- Node2&#45;&gt;Node1 -->
<g id="edge1_Node000001_Node000002" class="edge">
<title>Node2&#45;&gt;Node1</title>
<g id="a_edge1_Node000001_Node000002"><a xlink:title=" ">
<path fill="none" stroke="#63b8ff" d="M97.25,-55.84C97.25,-47.3 97.25,-38.12 97.25,-30.75"/>
<polygon fill="#63b8ff" stroke="#63b8ff" points="93.75,-55.7 97.25,-65.7 100.75,-55.7 93.75,-55.7"/>
</a>
</g>
</g>
<!-- Node3 -->
<g id="Node000003" class="node">
<title>Node3</title>
<g id="a_Node000003"><a xlink:href="classarmnn_1_1_base_workload.html" target="_top" xlink:title=" ">
<polygon fill="white" stroke="#666666" points="170.5,-213 0,-213 0,-193.75 170.5,-193.75 170.5,-213"/>
<text xml:space="preserve" text-anchor="middle" x="85.25" y="-199.5" font-family="Helvetica,sans-Serif" font-size="10.00">BaseWorkload&lt; QueueDescriptor &gt;</text>
</a>
</g>
</g>
<!-- Node3&#45;&gt;Node2 -->
<g id="edge2_Node000002_Node000003" class="edge">
<title>Node3&#45;&gt;Node2</title>
<g id="a_edge2_Node000002_Node000003"><a xlink:title=" ">
<path fill="none" stroke="#63b8ff" d="M87.28,-182.28C89.7,-158.42 93.66,-119.22 95.79,-98.18"/>
<polygon fill="#63b8ff" stroke="#63b8ff" points="83.83,-181.65 86.3,-191.95 90.79,-182.36 83.83,-181.65"/>
</a>
</g>
</g>
<!-- Node4 -->
<g id="Node000004" class="node">
<title>Node4</title>
<g id="a_Node000004"><a xlink:href="classarmnn_1_1_i_workload.html" target="_top" xlink:title="Workload interface to enqueue a layer computation.">
<polygon fill="white" stroke="#666666" points="129,-306.5 69.5,-306.5 69.5,-287.25 129,-287.25 129,-306.5"/>
<text xml:space="preserve" text-anchor="middle" x="99.25" y="-293" font-family="Helvetica,sans-Serif" font-size="10.00">IWorkload</text>
</a>
</g>
</g>
<!-- Node4&#45;&gt;Node3 -->
<g id="edge3_Node000003_Node000004" class="edge">
<title>Node4&#45;&gt;Node3</title>
<g id="a_edge3_Node000003_Node000004"><a xlink:title=" ">
<path fill="none" stroke="#63b8ff" d="M96.14,-275.55C93.17,-256.14 88.84,-227.81 86.64,-213.45"/>
<polygon fill="#63b8ff" stroke="#63b8ff" points="92.66,-275.92 97.63,-285.27 99.57,-274.86 92.66,-275.92"/>
</a>
</g>
</g>
<!-- Node6 -->
<g id="Node000006" class="node">
<title>Node6</title>
<g id="a_Node000006"><a xlink:href="classarmnn_1_1_base_workload.html" target="_top" xlink:title=" ">
<polygon fill="white" stroke="#666666" points="286.5,-250.25 116,-250.25 116,-231 286.5,-231 286.5,-250.25"/>
<text xml:space="preserve" text-anchor="middle" x="201.25" y="-236.75" font-family="Helvetica,sans-Serif" font-size="10.00">BaseWorkload&lt; QueueDescriptor &gt;</text>
</a>
</g>
</g>
<!-- Node4&#45;&gt;Node6 -->
<g id="edge6_Node000006_Node000004" class="edge">
<title>Node4&#45;&gt;Node6</title>
<g id="a_edge6_Node000006_Node000004"><a xlink:title=" ">
<path fill="none" stroke="#63b8ff" d="M126.23,-281.53C144.68,-271.71 168.57,-259 184.38,-250.6"/>
<polygon fill="#63b8ff" stroke="#63b8ff" points="124.61,-278.42 117.43,-286.21 127.9,-284.6 124.61,-278.42"/>
</a>
</g>
</g>
<!-- Node5 -->
<g id="Node000005" class="node">
<title>Node5</title>
<g id="a_Node000005"><a xlink:href="classarmnn_1_1_ref_base_workload.html" target="_top" xlink:title=" ">
<polygon fill="white" stroke="#666666" points="295.38,-175.75 109.12,-175.75 109.12,-156.5 295.38,-156.5 295.38,-175.75"/>
<text xml:space="preserve" text-anchor="middle" x="202.25" y="-162.25" font-family="Helvetica,sans-Serif" font-size="10.00">RefBaseWorkload&lt; QueueDescriptor &gt;</text>
</a>
</g>
</g>
<!-- Node5&#45;&gt;Node2 -->
<g id="edge4_Node000002_Node000005" class="edge">
<title>Node5&#45;&gt;Node2</title>
<g id="a_edge4_Node000002_Node000005"><a xlink:title=" ">
<path fill="none" stroke="orange" stroke-dasharray="5,2" d="M181.56,-149.09C162.49,-134.31 134.45,-112.58 116.02,-98.29"/>
<polygon fill="orange" stroke="orange" points="179.37,-151.82 189.42,-155.18 183.66,-146.29 179.37,-151.82"/>
</a>
</g>
<text xml:space="preserve" text-anchor="start" x="165.29" y="-129" font-family="Helvetica,sans-Serif" font-size="10.00" fill="grey"> &lt; TransposeConvolution2d</text>
<text xml:space="preserve" text-anchor="middle" x="225.29" y="-117.75" font-family="Helvetica,sans-Serif" font-size="10.00" fill="grey">QueueDescriptor &gt;</text>
</g>
<!-- Node6&#45;&gt;Node5 -->
<g id="edge5_Node000005_Node000006" class="edge">
<title>Node6&#45;&gt;Node5</title>
<g id="a_edge5_Node000005_Node000006"><a xlink:title=" ">
<path fill="none" stroke="#63b8ff" d="M201.53,-219.6C201.72,-205.35 201.98,-186.88 202.13,-176.09"/>
<polygon fill="#63b8ff" stroke="#63b8ff" points="198.03,-219.17 201.39,-229.22 205.03,-219.27 198.03,-219.17"/>
</a>
</g>
</g>
</g>
</svg>
