<?xml version="1.0" encoding="UTF-8" standalone="no"?>
<!DOCTYPE svg PUBLIC "-//W3C//DTD SVG 1.1//EN"
 "http://www.w3.org/Graphics/SVG/1.1/DTD/svg11.dtd">
<!-- Generated by graphviz version 14.1.1 (20251213.1925)
 -->
<!-- Title: HtmlBold Pages: 1 -->
<svg width="91pt" height="138pt"
 viewBox="0.00 0.00 91.00 138.00" xmlns="http://www.w3.org/2000/svg" xmlns:xlink="http://www.w3.org/1999/xlink">
<g id="graph0" class="graph" transform="scale(1 1) rotate(0) translate(4 133.75)">
<title>HtmlBold</title>
<!-- Node1 -->
<g id="Node000001" class="node">
<title>Node1</title>
<g id="a_Node000001"><a xlink:title=" ">
<polygon fill="#999999" stroke="#666666" points="69.62,-19.25 13.12,-19.25 13.12,0 69.62,0 69.62,-19.25"/>
<text xml:space="preserve" text-anchor="middle" x="41.38" y="-5.75" font-family="Helvetica,sans-Serif" font-size="10.00">HtmlBold</text>
</a>
</g>
</g>
<!-- Node2 -->
<g id="Node000002" class="node">
<title>Node2</title>
<g id="a_Node000002"><a xlink:href="classarmnn_1_1_html_simple_tag.html" target="_top" xlink:title=" ">
<polygon fill="white" stroke="#666666" points="82.75,-74.5 0,-74.5 0,-55.25 82.75,-55.25 82.75,-74.5"/>
<text xml:space="preserve" text-anchor="middle" x="41.38" y="-61" font-family="Helvetica,sans-Serif" font-size="10.00">HtmlSimpleTag</text>
</a>
</g>
</g>
<!-- Node2&#45;&gt;Node1 -->
<g id="edge1_Node000001_Node000002" class="edge">
<title>Node2&#45;&gt;Node1</title>
<g id="a_edge1_Node000001_Node000002"><a xlink:title=" ">
<path fill="none" stroke="#63b8ff" d="M41.38,-43.63C41.38,-35.34 41.38,-26.17 41.38,-19.61"/>
<polygon fill="#63b8ff" stroke="#63b8ff" points="37.88,-43.57 41.38,-53.57 44.88,-43.57 37.88,-43.57"/>
</a>
</g>
</g>
<!-- Node3 -->
<g id="Node000003" class="node">
<title>Node3</title>
<g id="a_Node000003"><a xlink:href="classarmnn_1_1_dot_base.html" target="_top" xlink:title=" ">
<polygon fill="white" stroke="#666666" points="68.5,-129.75 14.25,-129.75 14.25,-110.5 68.5,-110.5 68.5,-129.75"/>
<text xml:space="preserve" text-anchor="middle" x="41.38" y="-116.25" font-family="Helvetica,sans-Serif" font-size="10.00">DotBase</text>
</a>
</g>
</g>
<!-- Node3&#45;&gt;Node2 -->
<g id="edge2_Node000002_Node000003" class="edge">
<title>Node3&#45;&gt;Node2</title>
<g id="a_edge2_Node000002_Node000003"><a xlink:title=" ">
<path fill="none" stroke="#63b8ff" d="M41.38,-98.88C41.38,-90.59 41.38,-81.42 41.38,-74.86"/>
<polygon fill="#63b8ff" stroke="#63b8ff" points="37.88,-98.82 41.38,-108.82 44.88,-98.82 37.88,-98.82"/>
</a>
</g>
</g>
</g>
</svg>
