<?xml version="1.0" encoding="UTF-8" standalone="no"?>
<!DOCTYPE svg PUBLIC "-//W3C//DTD SVG 1.1//EN"
 "http://www.w3.org/Graphics/SVG/1.1/DTD/svg11.dtd">
<!-- Generated by graphviz version 14.1.1 (20251213.1925)
 -->
<!-- Title: BatchMatMulLayer Pages: 1 -->
<svg width="238pt" height="285pt"
 viewBox="0.00 0.00 238.00 285.00" xmlns="http://www.w3.org/2000/svg" xmlns:xlink="http://www.w3.org/1999/xlink">
<g id="graph0" class="graph" transform="scale(1 1) rotate(0) translate(4 281)">
<title>BatchMatMulLayer</title>
<!-- Node1 -->
<g id="Node000001" class="node">
<title>Node1</title>
<g id="a_Node000001"><a xlink:title=" ">
<polygon fill="#999999" stroke="#666666" points="117.25,-19.25 19.5,-19.25 19.5,0 117.25,0 117.25,-19.25"/>
<text xml:space="preserve" text-anchor="middle" x="68.38" y="-5.75" font-family="Helvetica,sans-Serif" font-size="10.00">BatchMatMulLayer</text>
</a>
</g>
</g>
<!-- Node2 -->
<g id="Node000002" class="node">
<title>Node2</title>
<g id="a_Node000002"><a xlink:href="classarmnn_1_1_layer_with_parameters.html" target="_top" xlink:title=" ">
<polygon fill="white" stroke="#666666" points="136.75,-86.75 0,-86.75 0,-56.25 136.75,-56.25 136.75,-86.75"/>
<text xml:space="preserve" text-anchor="start" x="8" y="-73.25" font-family="Helvetica,sans-Serif" font-size="10.00">LayerWithParameters</text>
<text xml:space="preserve" text-anchor="middle" x="68.38" y="-62" font-family="Helvetica,sans-Serif" font-size="10.00">&lt; BatchMatMulDescriptor &gt;</text>
</a>
</g>
</g>
<!-- Node2&#45;&gt;Node1 -->
<g id="edge1_Node000001_Node000002" class="edge">
<title>Node2&#45;&gt;Node1</title>
<g id="a_edge1_Node000001_Node000002"><a xlink:title=" ">
<path fill="none" stroke="#63b8ff" d="M68.38,-44.77C68.38,-35.79 68.38,-26.29 68.38,-19.6"/>
<polygon fill="#63b8ff" stroke="#63b8ff" points="64.88,-44.49 68.38,-54.49 71.88,-44.49 64.88,-44.49"/>
</a>
</g>
</g>
<!-- Node3 -->
<g id="Node000003" class="node">
<title>Node3</title>
<g id="a_Node000003"><a xlink:href="classarmnn_1_1_layer.html" target="_top" xlink:title=" ">
<polygon fill="white" stroke="#666666" points="84.38,-220.75 44.38,-220.75 44.38,-201.5 84.38,-201.5 84.38,-220.75"/>
<text xml:space="preserve" text-anchor="middle" x="64.38" y="-207.25" font-family="Helvetica,sans-Serif" font-size="10.00">Layer</text>
</a>
</g>
</g>
<!-- Node3&#45;&gt;Node2 -->
<g id="edge2_Node000002_Node000003" class="edge">
<title>Node3&#45;&gt;Node2</title>
<g id="a_edge2_Node000002_Node000003"><a xlink:title=" ">
<path fill="none" stroke="#63b8ff" d="M64.96,-189.91C65.78,-161.8 67.24,-111.59 67.95,-86.95"/>
<polygon fill="#63b8ff" stroke="#63b8ff" points="61.47,-189.48 64.68,-199.58 68.47,-189.69 61.47,-189.48"/>
</a>
</g>
</g>
<!-- Node5 -->
<g id="Node000005" class="node">
<title>Node5</title>
<g id="a_Node000005"><a xlink:href="classarmnn_1_1_layer_with_parameters.html" target="_top" xlink:title=" ">
<polygon fill="white" stroke="#666666" points="190.62,-164.5 80.12,-164.5 80.12,-134 190.62,-134 190.62,-164.5"/>
<text xml:space="preserve" text-anchor="start" x="88.12" y="-151" font-family="Helvetica,sans-Serif" font-size="10.00">LayerWithParameters</text>
<text xml:space="preserve" text-anchor="middle" x="135.38" y="-139.75" font-family="Helvetica,sans-Serif" font-size="10.00">&lt; Parameters &gt;</text>
</a>
</g>
</g>
<!-- Node3&#45;&gt;Node5 -->
<g id="edge5_Node000005_Node000003" class="edge">
<title>Node3&#45;&gt;Node5</title>
<g id="a_edge5_Node000005_Node000003"><a xlink:title=" ">
<path fill="none" stroke="#63b8ff" d="M83.82,-193.73C94.55,-184.68 107.76,-173.54 118.12,-164.8"/>
<polygon fill="#63b8ff" stroke="#63b8ff" points="81.7,-190.93 76.32,-200.06 86.22,-196.28 81.7,-190.93"/>
</a>
</g>
</g>
<!-- Node4 -->
<g id="Node000004" class="node">
<title>Node4</title>
<g id="a_Node000004"><a xlink:href="classarmnn_1_1_i_connectable_layer.html" target="_top" xlink:title="Interface for a layer that is connectable to other layers via InputSlots and OutputSlots.">
<polygon fill="white" stroke="#666666" points="113.25,-277 15.5,-277 15.5,-257.75 113.25,-257.75 113.25,-277"/>
<text xml:space="preserve" text-anchor="middle" x="64.38" y="-263.5" font-family="Helvetica,sans-Serif" font-size="10.00">IConnectableLayer</text>
</a>
</g>
</g>
<!-- Node4&#45;&gt;Node3 -->
<g id="edge3_Node000003_Node000004" class="edge">
<title>Node4&#45;&gt;Node3</title>
<g id="a_edge3_Node000003_Node000004"><a xlink:title=" ">
<path fill="none" stroke="#63b8ff" d="M64.38,-246.19C64.38,-237.48 64.38,-227.74 64.38,-220.92"/>
<polygon fill="#63b8ff" stroke="#63b8ff" points="60.88,-245.9 64.38,-255.9 67.88,-245.9 60.88,-245.9"/>
</a>
</g>
</g>
<!-- Node5&#45;&gt;Node2 -->
<g id="edge4_Node000002_Node000005" class="edge">
<title>Node5&#45;&gt;Node2</title>
<g id="a_edge4_Node000002_Node000005"><a xlink:title=" ">
<path fill="none" stroke="orange" stroke-dasharray="5,2" d="M114.95,-125.15C103.98,-112.75 90.79,-97.84 81.25,-87.06"/>
<polygon fill="orange" stroke="orange" points="112.21,-127.34 121.45,-132.51 117.45,-122.7 112.21,-127.34"/>
</a>
</g>
<text xml:space="preserve" text-anchor="middle" x="167.76" y="-106.5" font-family="Helvetica,sans-Serif" font-size="10.00" fill="grey"> &lt; BatchMatMulDescriptor &gt;</text>
</g>
</g>
</svg>
