<?xml version="1.0" encoding="UTF-8" standalone="no"?>
<!DOCTYPE svg PUBLIC "-//W3C//DTD SVG 1.1//EN"
 "http://www.w3.org/Graphics/SVG/1.1/DTD/svg11.dtd">
<!-- Generated by graphviz version 14.1.1 (20251213.1925)
 -->
<!-- Title: MapWorkload Pages: 1 -->
<svg width="317pt" height="217pt"
 viewBox="0.00 0.00 317.00 217.00" xmlns="http://www.w3.org/2000/svg" xmlns:xlink="http://www.w3.org/1999/xlink">
<g id="graph0" class="graph" transform="scale(1 1) rotate(0) translate(4 212.5)">
<title>MapWorkload</title>
<!-- Node1 -->
<g id="Node000001" class="node">
<title>Node1</title>
<g id="a_Node000001"><a xlink:title=" ">
<polygon fill="#999999" stroke="#666666" points="135.52,-19.25 60.27,-19.25 60.27,0 135.52,0 135.52,-19.25"/>
<text xml:space="preserve" text-anchor="middle" x="97.89" y="-5.75" font-family="Helvetica,sans-Serif" font-size="10.00">MapWorkload</text>
</a>
</g>
</g>
<!-- Node2 -->
<g id="Node000002" class="node">
<title>Node2</title>
<g id="a_Node000002"><a xlink:href="classarmnn_1_1_base_workload.html" target="_top" xlink:title=" ">
<polygon fill="white" stroke="#666666" points="192.52,-75.5 3.27,-75.5 3.27,-56.25 192.52,-56.25 192.52,-75.5"/>
<text xml:space="preserve" text-anchor="middle" x="97.89" y="-62" font-family="Helvetica,sans-Serif" font-size="10.00">BaseWorkload&lt; MapQueueDescriptor &gt;</text>
</a>
</g>
</g>
<!-- Node2&#45;&gt;Node1 -->
<g id="edge1_Node000001_Node000002" class="edge">
<title>Node2&#45;&gt;Node1</title>
<g id="a_edge1_Node000001_Node000002"><a xlink:title=" ">
<path fill="none" stroke="#63b8ff" d="M97.89,-44.69C97.89,-35.98 97.89,-26.24 97.89,-19.42"/>
<polygon fill="#63b8ff" stroke="#63b8ff" points="94.39,-44.4 97.89,-54.4 101.39,-44.4 94.39,-44.4"/>
</a>
</g>
</g>
<!-- Node3 -->
<g id="Node000003" class="node">
<title>Node3</title>
<g id="a_Node000003"><a xlink:href="classarmnn_1_1_i_workload.html" target="_top" xlink:title="Workload interface to enqueue a layer computation.">
<polygon fill="white" stroke="#666666" points="76.64,-208.5 17.14,-208.5 17.14,-189.25 76.64,-189.25 76.64,-208.5"/>
<text xml:space="preserve" text-anchor="middle" x="46.89" y="-195" font-family="Helvetica,sans-Serif" font-size="10.00">IWorkload</text>
</a>
</g>
</g>
<!-- Node3&#45;&gt;Node2 -->
<g id="edge2_Node000002_Node000003" class="edge">
<title>Node3&#45;&gt;Node2</title>
<g id="a_edge2_Node000002_Node000003"><a xlink:title=" ">
<path fill="none" stroke="#63b8ff" d="M26.53,-181.3C10.43,-166.09 -7.58,-142.92 3.89,-122.75 17.41,-98.99 45.47,-84.28 67.42,-75.96"/>
<polygon fill="#63b8ff" stroke="#63b8ff" points="24.14,-183.86 33.95,-187.86 28.78,-178.61 24.14,-183.86"/>
</a>
</g>
</g>
<!-- Node6 -->
<g id="Node000006" class="node">
<title>Node6</title>
<g id="a_Node000006"><a xlink:href="classarmnn_1_1_base_workload.html" target="_top" xlink:title=" ">
<polygon fill="white" stroke="#666666" points="183.14,-142 12.64,-142 12.64,-122.75 183.14,-122.75 183.14,-142"/>
<text xml:space="preserve" text-anchor="middle" x="97.89" y="-128.5" font-family="Helvetica,sans-Serif" font-size="10.00">BaseWorkload&lt; QueueDescriptor &gt;</text>
</a>
</g>
</g>
<!-- Node3&#45;&gt;Node6 -->
<g id="edge6_Node000006_Node000003" class="edge">
<title>Node3&#45;&gt;Node6</title>
<g id="a_edge6_Node000006_Node000003"><a xlink:title=" ">
<path fill="none" stroke="#63b8ff" d="M61.03,-179.99C70.74,-167.72 83.2,-151.96 90.86,-142.27"/>
<polygon fill="#63b8ff" stroke="#63b8ff" points="58.38,-177.7 54.92,-187.72 63.87,-182.05 58.38,-177.7"/>
</a>
</g>
</g>
<!-- Node4 -->
<g id="Node000004" class="node">
<title>Node4</title>
<g id="a_Node000004"><a xlink:href="structarmnn_1_1_map_queue_descriptor.html" target="_top" xlink:title=" ">
<polygon fill="white" stroke="#666666" points="309.02,-142 200.77,-142 200.77,-122.75 309.02,-122.75 309.02,-142"/>
<text xml:space="preserve" text-anchor="middle" x="254.89" y="-128.5" font-family="Helvetica,sans-Serif" font-size="10.00">MapQueueDescriptor</text>
</a>
</g>
</g>
<!-- Node4&#45;&gt;Node2 -->
<g id="edge3_Node000002_Node000004" class="edge">
<title>Node4&#45;&gt;Node2</title>
<g id="a_edge3_Node000002_Node000004"><a xlink:title=" ">
<path fill="none" stroke="#9a32cd" stroke-dasharray="5,2" d="M240.68,-114.28C233.65,-106.85 224.59,-98.69 214.89,-93.5 199.92,-85.5 182.62,-79.89 166,-75.97"/>
<polygon fill="#9a32cd" stroke="#9a32cd" points="237.67,-116.15 246.93,-121.3 242.9,-111.5 237.67,-116.15"/>
</a>
</g>
<text xml:space="preserve" text-anchor="middle" x="248.43" y="-95.25" font-family="Helvetica,sans-Serif" font-size="10.00" fill="grey"> m_Data</text>
</g>
<!-- Node5 -->
<g id="Node000005" class="node">
<title>Node5</title>
<g id="a_Node000005"><a xlink:href="structarmnn_1_1_queue_descriptor.html" target="_top" xlink:title=" ">
<polygon fill="white" stroke="#666666" points="194.64,-208.5 105.14,-208.5 105.14,-189.25 194.64,-189.25 194.64,-208.5"/>
<text xml:space="preserve" text-anchor="middle" x="149.89" y="-195" font-family="Helvetica,sans-Serif" font-size="10.00">QueueDescriptor</text>
</a>
</g>
</g>
<!-- Node5&#45;&gt;Node4 -->
<g id="edge4_Node000004_Node000005" class="edge">
<title>Node5&#45;&gt;Node4</title>
<g id="a_edge4_Node000004_Node000005"><a xlink:title=" ">
<path fill="none" stroke="#63b8ff" d="M174.03,-183.05C194.4,-170.53 222.92,-153.02 240.08,-142.48"/>
<polygon fill="#63b8ff" stroke="#63b8ff" points="172.47,-179.9 165.78,-188.11 176.14,-185.86 172.47,-179.9"/>
</a>
</g>
</g>
<!-- Node5&#45;&gt;Node6 -->
<g id="edge7_Node000006_Node000005" class="edge">
<title>Node5&#45;&gt;Node6</title>
<g id="a_edge7_Node000006_Node000005"><a xlink:title=" ">
<path fill="none" stroke="#9a32cd" stroke-dasharray="5,2" d="M135.48,-179.99C125.58,-167.72 112.88,-151.96 105.06,-142.27"/>
<polygon fill="#9a32cd" stroke="#9a32cd" points="132.71,-182.14 141.71,-187.73 138.16,-177.75 132.71,-182.14"/>
</a>
</g>
<text xml:space="preserve" text-anchor="middle" x="145.76" y="-161.75" font-family="Helvetica,sans-Serif" font-size="10.00" fill="grey"> m_Data</text>
</g>
<!-- Node6&#45;&gt;Node2 -->
<g id="edge5_Node000002_Node000006" class="edge">
<title>Node6&#45;&gt;Node2</title>
<g id="a_edge5_Node000002_Node000006"><a xlink:title=" ">
<path fill="none" stroke="orange" stroke-dasharray="5,2" d="M97.89,-110.9C97.89,-99.07 97.89,-84.79 97.89,-75.77"/>
<polygon fill="orange" stroke="orange" points="94.39,-110.89 97.89,-120.89 101.39,-110.89 94.39,-110.89"/>
</a>
</g>
<text xml:space="preserve" text-anchor="middle" x="154.52" y="-95.25" font-family="Helvetica,sans-Serif" font-size="10.00" fill="grey"> &lt; MapQueueDescriptor &gt;</text>
</g>
</g>
</svg>
