<?xml version="1.0" encoding="UTF-8" standalone="no"?>
<!DOCTYPE svg PUBLIC "-//W3C//DTD SVG 1.1//EN"
 "http://www.w3.org/Graphics/SVG/1.1/DTD/svg11.dtd">
<!-- Generated by graphviz version 14.1.1 (20251213.1925)
 -->
<!-- Title: PerAxisIterator&lt; T, Base &gt; Pages: 1 -->
<svg width="641pt" height="187pt"
 viewBox="0.00 0.00 641.00 187.00" xmlns="http://www.w3.org/2000/svg" xmlns:xlink="http://www.w3.org/1999/xlink">
<g id="graph0" class="graph" transform="scale(1 1) rotate(0) translate(4 183.02)">
<title>PerAxisIterator&lt; T, Base &gt;</title>
<!-- Node1 -->
<g id="Node000001" class="node">
<title>Node1</title>
<g id="a_Node000001"><a xlink:title="PerAxisIterator for per&#45;axis quantization.">
<polygon fill="#999999" stroke="#666666" points="173.25,-103.5 75.5,-103.5 75.5,-73 173.25,-73 173.25,-103.5"/>
<text xml:space="preserve" text-anchor="start" x="83.5" y="-90" font-family="Helvetica,sans-Serif" font-size="10.00">PerAxisIterator&lt; T,</text>
<text xml:space="preserve" text-anchor="middle" x="124.38" y="-78.75" font-family="Helvetica,sans-Serif" font-size="10.00"> Base &gt;</text>
</a>
</g>
</g>
<!-- Node3 -->
<g id="Node000003" class="node">
<title>Node3</title>
<g id="a_Node000003"><a xlink:href="classarmnn_1_1_per_axis_iterator.html" target="_top" xlink:title=" ">
<polygon fill="white" stroke="#666666" points="444.62,-177.5 332.62,-177.5 332.62,-147 444.62,-147 444.62,-177.5"/>
<text xml:space="preserve" text-anchor="start" x="340.62" y="-164" font-family="Helvetica,sans-Serif" font-size="10.00">PerAxisIterator&lt; int16</text>
<text xml:space="preserve" text-anchor="middle" x="388.62" y="-152.75" font-family="Helvetica,sans-Serif" font-size="10.00">_t, Encoder&lt; float &gt; &gt;</text>
</a>
</g>
</g>
<!-- Node1&#45;&gt;Node3 -->
<g id="edge2_Node000001_Node000003" class="edge">
<title>Node1&#45;&gt;Node3</title>
<g id="a_edge2_Node000001_Node000003"><a xlink:title=" ">
<path fill="none" stroke="orange" stroke-dasharray="5,2" d="M153.81,-110.58C164.93,-118.27 178.14,-126.2 191.25,-131.25 236.83,-148.79 292.02,-156.41 332.27,-159.72"/>
<polygon fill="orange" stroke="orange" points="156.03,-107.87 145.87,-104.86 151.94,-113.54 156.03,-107.87"/>
</a>
</g>
<text xml:space="preserve" text-anchor="start" x="205.12" y="-169.52" font-family="Helvetica,sans-Serif" font-size="10.00" fill="grey"> &lt; int16_t, Encoder</text>
<text xml:space="preserve" text-anchor="middle" x="246.75" y="-158.27" font-family="Helvetica,sans-Serif" font-size="10.00" fill="grey">&lt; float &gt; &gt;</text>
</g>
<!-- Node5 -->
<g id="Node000005" class="node">
<title>Node5</title>
<g id="a_Node000005"><a xlink:href="classarmnn_1_1_per_axis_iterator.html" target="_top" xlink:title=" ">
<polygon fill="white" stroke="#666666" points="454.38,-128.5 322.88,-128.5 322.88,-98 454.38,-98 454.38,-128.5"/>
<text xml:space="preserve" text-anchor="start" x="330.88" y="-115" font-family="Helvetica,sans-Serif" font-size="10.00">PerAxisIterator&lt; const</text>
<text xml:space="preserve" text-anchor="middle" x="388.62" y="-103.75" font-family="Helvetica,sans-Serif" font-size="10.00"> int8_t, Decoder&lt; float &gt; &gt;</text>
</a>
</g>
</g>
<!-- Node1&#45;&gt;Node5 -->
<g id="edge4_Node000001_Node000005" class="edge">
<title>Node1&#45;&gt;Node5</title>
<g id="a_edge4_Node000001_Node000005"><a xlink:title=" ">
<path fill="none" stroke="orange" stroke-dasharray="5,2" d="M184.93,-93.93C225.93,-97.84 280.4,-103.03 322.54,-107.05"/>
<polygon fill="orange" stroke="orange" points="185.27,-90.44 174.98,-92.98 184.61,-97.41 185.27,-90.44"/>
</a>
</g>
<text xml:space="preserve" text-anchor="start" x="193.88" y="-117.45" font-family="Helvetica,sans-Serif" font-size="10.00" fill="grey"> &lt; const int8_t, Decoder</text>
<text xml:space="preserve" text-anchor="middle" x="246.75" y="-106.2" font-family="Helvetica,sans-Serif" font-size="10.00" fill="grey">&lt; float &gt; &gt;</text>
</g>
<!-- Node7 -->
<g id="Node000007" class="node">
<title>Node7</title>
<g id="a_Node000007"><a xlink:href="classarmnn_1_1_per_axis_iterator.html" target="_top" xlink:title=" ">
<polygon fill="white" stroke="#666666" points="444.62,-79.5 332.62,-79.5 332.62,-49 444.62,-49 444.62,-79.5"/>
<text xml:space="preserve" text-anchor="start" x="340.62" y="-66" font-family="Helvetica,sans-Serif" font-size="10.00">PerAxisIterator&lt; int8</text>
<text xml:space="preserve" text-anchor="middle" x="388.62" y="-54.75" font-family="Helvetica,sans-Serif" font-size="10.00">_t, Encoder&lt; float &gt; &gt;</text>
</a>
</g>
</g>
<!-- Node1&#45;&gt;Node7 -->
<g id="edge6_Node000001_Node000007" class="edge">
<title>Node1&#45;&gt;Node7</title>
<g id="a_edge6_Node000001_Node000007"><a xlink:title=" ">
<path fill="none" stroke="orange" stroke-dasharray="5,2" d="M180.97,-69.75C184.42,-68.97 187.87,-68.29 191.25,-67.75 238.38,-60.16 292.69,-59.82 332.24,-61.08"/>
<polygon fill="orange" stroke="orange" points="180.28,-66.31 171.44,-72.14 181.99,-73.1 180.28,-66.31"/>
</a>
</g>
<text xml:space="preserve" text-anchor="start" x="204.75" y="-80.75" font-family="Helvetica,sans-Serif" font-size="10.00" fill="grey"> &lt; int8_t, Encoder&lt;</text>
<text xml:space="preserve" text-anchor="middle" x="246.75" y="-69.5" font-family="Helvetica,sans-Serif" font-size="10.00" fill="grey"> float &gt; &gt;</text>
</g>
<!-- Node9 -->
<g id="Node000009" class="node">
<title>Node9</title>
<g id="a_Node000009"><a xlink:href="classarmnn_1_1_per_axis_iterator.html" target="_top" xlink:title=" ">
<polygon fill="white" stroke="#666666" points="457,-30.5 320.25,-30.5 320.25,0 457,0 457,-30.5"/>
<text xml:space="preserve" text-anchor="start" x="328.25" y="-17" font-family="Helvetica,sans-Serif" font-size="10.00">PerAxisIterator&lt; const</text>
<text xml:space="preserve" text-anchor="middle" x="388.62" y="-5.75" font-family="Helvetica,sans-Serif" font-size="10.00"> int32_t, Decoder&lt; float &gt; &gt;</text>
</a>
</g>
</g>
<!-- Node1&#45;&gt;Node9 -->
<g id="edge8_Node000001_Node000009" class="edge">
<title>Node1&#45;&gt;Node9</title>
<g id="a_edge8_Node000001_Node000009"><a xlink:title=" ">
<path fill="none" stroke="orange" stroke-dasharray="5,2" d="M147.02,-64.64C158.9,-53.28 174.59,-40.65 191.25,-33.75 231.75,-16.98 280.84,-12.36 319.81,-11.92"/>
<polygon fill="orange" stroke="orange" points="144.74,-61.97 140.15,-71.52 149.69,-66.92 144.74,-61.97"/>
</a>
</g>
<text xml:space="preserve" text-anchor="start" x="191.25" y="-46.75" font-family="Helvetica,sans-Serif" font-size="10.00" fill="grey"> &lt; const int32_t, Decoder</text>
<text xml:space="preserve" text-anchor="middle" x="246.75" y="-35.5" font-family="Helvetica,sans-Serif" font-size="10.00" fill="grey">&lt; float &gt; &gt;</text>
</g>
<!-- Node2 -->
<g id="Node000002" class="node">
<title>Node2</title>
<g id="a_Node000002"><a xlink:title=" ">
<polygon fill="white" stroke="#666666" points="38.5,-97.88 0,-97.88 0,-78.62 38.5,-78.62 38.5,-97.88"/>
<text xml:space="preserve" text-anchor="middle" x="19.25" y="-84.38" font-family="Helvetica,sans-Serif" font-size="10.00">Base</text>
</a>
</g>
</g>
<!-- Node2&#45;&gt;Node1 -->
<g id="edge1_Node000001_Node000002" class="edge">
<title>Node2&#45;&gt;Node1</title>
<g id="a_edge1_Node000001_Node000002"><a xlink:title=" ">
<path fill="none" stroke="#63b8ff" d="M50.13,-88.25C57.92,-88.25 66.52,-88.25 75,-88.25"/>
<polygon fill="#63b8ff" stroke="#63b8ff" points="50.2,-84.75 40.2,-88.25 50.2,-91.75 50.2,-84.75"/>
</a>
</g>
</g>
<!-- Node4 -->
<g id="Node000004" class="node">
<title>Node4</title>
<g id="a_Node000004"><a xlink:href="classarmnn_1_1_q_symm16_per_axis_encoder.html" target="_top" xlink:title=" ">
<polygon fill="white" stroke="#666666" points="630,-171.88 497,-171.88 497,-152.62 630,-152.62 630,-171.88"/>
<text xml:space="preserve" text-anchor="middle" x="563.5" y="-158.38" font-family="Helvetica,sans-Serif" font-size="10.00">QSymm16PerAxisEncoder</text>
</a>
</g>
</g>
<!-- Node3&#45;&gt;Node4 -->
<g id="edge3_Node000003_Node000004" class="edge">
<title>Node3&#45;&gt;Node4</title>
<g id="a_edge3_Node000003_Node000004"><a xlink:title=" ">
<path fill="none" stroke="#63b8ff" d="M456.25,-162.25C469.52,-162.25 483.44,-162.25 496.67,-162.25"/>
<polygon fill="#63b8ff" stroke="#63b8ff" points="456.31,-158.75 446.31,-162.25 456.31,-165.75 456.31,-158.75"/>
</a>
</g>
</g>
<!-- Node6 -->
<g id="Node000006" class="node">
<title>Node6</title>
<g id="a_Node000006"><a xlink:href="classarmnn_1_1_q_symm8_per_axis_decoder.html" target="_top" xlink:title=" ">
<polygon fill="white" stroke="#666666" points="627.75,-122.88 499.25,-122.88 499.25,-103.62 627.75,-103.62 627.75,-122.88"/>
<text xml:space="preserve" text-anchor="middle" x="563.5" y="-109.38" font-family="Helvetica,sans-Serif" font-size="10.00">QSymm8PerAxisDecoder</text>
</a>
</g>
</g>
<!-- Node5&#45;&gt;Node6 -->
<g id="edge5_Node000005_Node000006" class="edge">
<title>Node5&#45;&gt;Node6</title>
<g id="a_edge5_Node000005_Node000006"><a xlink:title=" ">
<path fill="none" stroke="#63b8ff" d="M465.9,-113.25C476.95,-113.25 488.23,-113.25 498.99,-113.25"/>
<polygon fill="#63b8ff" stroke="#63b8ff" points="466,-109.75 456,-113.25 466,-116.75 466,-109.75"/>
</a>
</g>
</g>
<!-- Node8 -->
<g id="Node000008" class="node">
<title>Node8</title>
<g id="a_Node000008"><a xlink:href="classarmnn_1_1_q_symm8_per_axis_encoder.html" target="_top" xlink:title=" ">
<polygon fill="white" stroke="#666666" points="627.38,-73.88 499.62,-73.88 499.62,-54.62 627.38,-54.62 627.38,-73.88"/>
<text xml:space="preserve" text-anchor="middle" x="563.5" y="-60.38" font-family="Helvetica,sans-Serif" font-size="10.00">QSymm8PerAxisEncoder</text>
</a>
</g>
</g>
<!-- Node7&#45;&gt;Node8 -->
<g id="edge7_Node000007_Node000008" class="edge">
<title>Node7&#45;&gt;Node8</title>
<g id="a_edge7_Node000007_Node000008"><a xlink:title=" ">
<path fill="none" stroke="#63b8ff" d="M455.97,-64.25C470.14,-64.25 485.07,-64.25 499.13,-64.25"/>
<polygon fill="#63b8ff" stroke="#63b8ff" points="456.31,-60.75 446.31,-64.25 456.31,-67.75 456.31,-60.75"/>
</a>
</g>
</g>
<!-- Node10 -->
<g id="Node000010" class="node">
<title>Node10</title>
<g id="a_Node000010"><a xlink:href="classarmnn_1_1_scaled_int32_per_axis_decoder.html" target="_top" xlink:title=" ">
<polygon fill="white" stroke="#666666" points="633,-24.88 494,-24.88 494,-5.62 633,-5.62 633,-24.88"/>
<text xml:space="preserve" text-anchor="middle" x="563.5" y="-11.38" font-family="Helvetica,sans-Serif" font-size="10.00">ScaledInt32PerAxisDecoder</text>
</a>
</g>
</g>
<!-- Node9&#45;&gt;Node10 -->
<g id="edge9_Node000009_Node000010" class="edge">
<title>Node9&#45;&gt;Node10</title>
<g id="a_edge9_Node000009_Node000010"><a xlink:title=" ">
<path fill="none" stroke="#63b8ff" d="M468.74,-15.25C477.09,-15.25 485.52,-15.25 493.73,-15.25"/>
<polygon fill="#63b8ff" stroke="#63b8ff" points="468.97,-11.75 458.97,-15.25 468.97,-18.75 468.97,-11.75"/>
</a>
</g>
</g>
</g>
</svg>
