<?xml version="1.0" encoding="UTF-8" standalone="no"?>
<!DOCTYPE svg PUBLIC "-//W3C//DTD SVG 1.1//EN"
 "http://www.w3.org/Graphics/SVG/1.1/DTD/svg11.dtd">
<!-- Generated by graphviz version 14.1.1 (20251213.1925)
 -->
<!-- Title: OptimizeForTypeImpl&lt; BaseType, Wrapped &gt; Pages: 1 -->
<svg width="835pt" height="181pt"
 viewBox="0.00 0.00 835.00 181.00" xmlns="http://www.w3.org/2000/svg" xmlns:xlink="http://www.w3.org/1999/xlink">
<g id="graph0" class="graph" transform="scale(1 1) rotate(0) translate(4 176.75)">
<title>OptimizeForTypeImpl&lt; BaseType, Wrapped &gt;</title>
<!-- Node1 -->
<g id="Node000001" class="node">
<title>Node1</title>
<g id="a_Node000001"><a xlink:title="Wrapper Optimization base class that calls Wrapped::Run() for every layer of type BaseType.">
<polygon fill="#999999" stroke="#666666" points="229.5,-112.75 107.75,-112.75 107.75,-82.25 229.5,-82.25 229.5,-112.75"/>
<text xml:space="preserve" text-anchor="start" x="115.75" y="-99.25" font-family="Helvetica,sans-Serif" font-size="10.00">OptimizeForTypeImpl</text>
<text xml:space="preserve" text-anchor="middle" x="168.62" y="-88" font-family="Helvetica,sans-Serif" font-size="10.00">&lt; BaseType, Wrapped &gt;</text>
</a>
</g>
</g>
<!-- Node4 -->
<g id="Node000004" class="node">
<title>Node4</title>
<g id="a_Node000004"><a xlink:href="classarmnn_1_1_optimize_for_type.html" target="_top" xlink:title=" ">
<polygon fill="white" stroke="#666666" points="597.25,-172.75 451.5,-172.75 451.5,-142.25 597.25,-142.25 597.25,-172.75"/>
<text xml:space="preserve" text-anchor="start" x="459.5" y="-159.25" font-family="Helvetica,sans-Serif" font-size="10.00">OptimizeForType&lt; BaseType,</text>
<text xml:space="preserve" text-anchor="middle" x="524.38" y="-148" font-family="Helvetica,sans-Serif" font-size="10.00"> Wrapped &gt;</text>
</a>
</g>
</g>
<!-- Node1&#45;&gt;Node4 -->
<g id="edge3_Node000001_Node000004" class="edge">
<title>Node1&#45;&gt;Node4</title>
<g id="a_edge3_Node000001_Node000004"><a xlink:title=" ">
<path fill="none" stroke="#63b8ff" d="M205.19,-118.33C218.11,-124.95 233.07,-131.56 247.5,-135.5 314.94,-153.93 394.83,-158.52 451.24,-159.04"/>
<polygon fill="#63b8ff" stroke="#63b8ff" points="207.14,-115.4 196.67,-113.79 203.85,-121.58 207.14,-115.4"/>
</a>
</g>
</g>
<!-- Node5 -->
<g id="Node000005" class="node">
<title>Node5</title>
<g id="a_Node000005"><a xlink:href="classarmnn_1_1_optimize_for_type_impl.html" target="_top" xlink:title=" ">
<polygon fill="white" stroke="#666666" points="613,-124 435.75,-124 435.75,-71 613,-71 613,-124"/>
<text xml:space="preserve" text-anchor="start" x="443.75" y="-110.5" font-family="Helvetica,sans-Serif" font-size="10.00">OptimizeForTypeImpl</text>
<text xml:space="preserve" text-anchor="start" x="443.75" y="-99.25" font-family="Helvetica,sans-Serif" font-size="10.00">&lt; BaseType, OptimizeForConnection</text>
<text xml:space="preserve" text-anchor="start" x="443.75" y="-88" font-family="Helvetica,sans-Serif" font-size="10.00">Impl&lt; BaseType, ChildType,</text>
<text xml:space="preserve" text-anchor="middle" x="524.38" y="-76.75" font-family="Helvetica,sans-Serif" font-size="10.00"> Wrapped &gt; &gt;</text>
</a>
</g>
</g>
<!-- Node1&#45;&gt;Node5 -->
<g id="edge4_Node000001_Node000005" class="edge">
<title>Node1&#45;&gt;Node5</title>
<g id="a_edge4_Node000001_Node000005"><a xlink:title=" ">
<path fill="none" stroke="orange" stroke-dasharray="5,2" d="M240.9,-97.5C297.01,-97.5 375.49,-97.5 435.49,-97.5"/>
<polygon fill="orange" stroke="orange" points="241.15,-94 231.15,-97.5 241.15,-101 241.15,-94"/>
</a>
</g>
<text xml:space="preserve" text-anchor="start" x="247.5" y="-121.75" font-family="Helvetica,sans-Serif" font-size="10.00" fill="grey"> &lt; BaseType, OptimizeForConnection</text>
<text xml:space="preserve" text-anchor="start" x="247.5" y="-110.5" font-family="Helvetica,sans-Serif" font-size="10.00" fill="grey">Impl&lt; BaseType, ChildType,</text>
<text xml:space="preserve" text-anchor="middle" x="329.62" y="-99.25" font-family="Helvetica,sans-Serif" font-size="10.00" fill="grey"> Wrapped &gt; &gt;</text>
</g>
<!-- Node7 -->
<g id="Node000007" class="node">
<title>Node7</title>
<g id="a_Node000007"><a xlink:href="classarmnn_1_1_optimize_for_type_impl.html" target="_top" xlink:title=" ">
<polygon fill="white" stroke="#666666" points="619,-53 429.75,-53 429.75,0 619,0 619,-53"/>
<text xml:space="preserve" text-anchor="start" x="437.75" y="-39.5" font-family="Helvetica,sans-Serif" font-size="10.00">OptimizeForTypeImpl</text>
<text xml:space="preserve" text-anchor="start" x="437.75" y="-28.25" font-family="Helvetica,sans-Serif" font-size="10.00">&lt; BaseType, OptimizeForExclusive</text>
<text xml:space="preserve" text-anchor="start" x="437.75" y="-17" font-family="Helvetica,sans-Serif" font-size="10.00">ConnectionImpl&lt; BaseType, ChildType,</text>
<text xml:space="preserve" text-anchor="middle" x="524.38" y="-5.75" font-family="Helvetica,sans-Serif" font-size="10.00"> Wrapped &gt; &gt;</text>
</a>
</g>
</g>
<!-- Node1&#45;&gt;Node7 -->
<g id="edge6_Node000001_Node000007" class="edge">
<title>Node1&#45;&gt;Node7</title>
<g id="a_edge6_Node000001_Node000007"><a xlink:title=" ">
<path fill="none" stroke="orange" stroke-dasharray="5,2" d="M206.3,-76.63C218.99,-70.25 233.53,-63.85 247.5,-59.75 306.63,-42.38 375.45,-34.07 429.56,-30.1"/>
<polygon fill="orange" stroke="orange" points="204.72,-73.5 197.47,-81.23 207.96,-79.71 204.72,-73.5"/>
</a>
</g>
<text xml:space="preserve" text-anchor="start" x="250.88" y="-84" font-family="Helvetica,sans-Serif" font-size="10.00" fill="grey"> &lt; BaseType, OptimizeForExclusive</text>
<text xml:space="preserve" text-anchor="start" x="250.88" y="-72.75" font-family="Helvetica,sans-Serif" font-size="10.00" fill="grey">ConnectionImpl&lt; BaseType,</text>
<text xml:space="preserve" text-anchor="middle" x="329.62" y="-61.5" font-family="Helvetica,sans-Serif" font-size="10.00" fill="grey"> ChildType, Wrapped &gt; &gt;</text>
</g>
<!-- Node2 -->
<g id="Node000002" class="node">
<title>Node2</title>
<g id="a_Node000002"><a xlink:href="classarmnn_1_1_optimization.html" target="_top" xlink:title=" ">
<polygon fill="white" stroke="#666666" points="70.75,-126.12 0,-126.12 0,-106.88 70.75,-106.88 70.75,-126.12"/>
<text xml:space="preserve" text-anchor="middle" x="35.38" y="-112.62" font-family="Helvetica,sans-Serif" font-size="10.00">Optimization</text>
</a>
</g>
</g>
<!-- Node2&#45;&gt;Node1 -->
<g id="edge1_Node000001_Node000002" class="edge">
<title>Node2&#45;&gt;Node1</title>
<g id="a_edge1_Node000001_Node000002"><a xlink:title=" ">
<path fill="none" stroke="#63b8ff" d="M82.55,-109.82C90.54,-108.66 98.95,-107.44 107.25,-106.24"/>
<polygon fill="#63b8ff" stroke="#63b8ff" points="82.1,-106.34 72.7,-111.24 83.1,-113.27 82.1,-106.34"/>
</a>
</g>
</g>
<!-- Node3 -->
<g id="Node000003" class="node">
<title>Node3</title>
<g id="a_Node000003"><a xlink:title=" ">
<polygon fill="white" stroke="#666666" points="62.5,-89.12 8.25,-89.12 8.25,-69.88 62.5,-69.88 62.5,-89.12"/>
<text xml:space="preserve" text-anchor="middle" x="35.38" y="-75.62" font-family="Helvetica,sans-Serif" font-size="10.00">Wrapped</text>
</a>
</g>
</g>
<!-- Node3&#45;&gt;Node1 -->
<g id="edge2_Node000001_Node000003" class="edge">
<title>Node3&#45;&gt;Node1</title>
<g id="a_edge2_Node000001_Node000003"><a xlink:title=" ">
<path fill="none" stroke="#63b8ff" d="M74.14,-84.68C84.56,-86.11 96.13,-87.7 107.49,-89.25"/>
<polygon fill="#63b8ff" stroke="#63b8ff" points="74.82,-81.24 64.43,-83.35 73.87,-88.17 74.82,-81.24"/>
</a>
</g>
</g>
<!-- Node6 -->
<g id="Node000006" class="node">
<title>Node6</title>
<g id="a_Node000006"><a xlink:href="classarmnn_1_1_optimize_for_connection.html" target="_top" xlink:title=" ">
<polygon fill="white" stroke="#666666" points="802.12,-118.38 681.12,-118.38 681.12,-76.62 802.12,-76.62 802.12,-118.38"/>
<text xml:space="preserve" text-anchor="start" x="689.12" y="-104.88" font-family="Helvetica,sans-Serif" font-size="10.00">OptimizeForConnection</text>
<text xml:space="preserve" text-anchor="start" x="689.12" y="-93.62" font-family="Helvetica,sans-Serif" font-size="10.00">&lt; BaseType, ChildType,</text>
<text xml:space="preserve" text-anchor="middle" x="741.62" y="-82.38" font-family="Helvetica,sans-Serif" font-size="10.00"> Wrapped &gt;</text>
</a>
</g>
</g>
<!-- Node5&#45;&gt;Node6 -->
<g id="edge5_Node000005_Node000006" class="edge">
<title>Node5&#45;&gt;Node6</title>
<g id="a_edge5_Node000005_Node000006"><a xlink:title=" ">
<path fill="none" stroke="#63b8ff" d="M624.74,-97.5C643.84,-97.5 663.29,-97.5 680.66,-97.5"/>
<polygon fill="#63b8ff" stroke="#63b8ff" points="624.75,-94 614.75,-97.5 624.75,-101 624.75,-94"/>
</a>
</g>
</g>
<!-- Node8 -->
<g id="Node000008" class="node">
<title>Node8</title>
<g id="a_Node000008"><a xlink:href="classarmnn_1_1_optimize_for_exclusive_connection.html" target="_top" xlink:title=" ">
<polygon fill="white" stroke="#666666" points="827.25,-41.75 656,-41.75 656,-11.25 827.25,-11.25 827.25,-41.75"/>
<text xml:space="preserve" text-anchor="start" x="664" y="-28.25" font-family="Helvetica,sans-Serif" font-size="10.00">OptimizeForExclusiveConnection</text>
<text xml:space="preserve" text-anchor="middle" x="741.62" y="-17" font-family="Helvetica,sans-Serif" font-size="10.00">&lt; BaseType, ChildType, Wrapped &gt;</text>
</a>
</g>
</g>
<!-- Node7&#45;&gt;Node8 -->
<g id="edge7_Node000007_Node000008" class="edge">
<title>Node7&#45;&gt;Node8</title>
<g id="a_edge7_Node000007_Node000008"><a xlink:title=" ">
<path fill="none" stroke="#63b8ff" d="M630.76,-26.5C639.06,-26.5 647.38,-26.5 655.52,-26.5"/>
<polygon fill="#63b8ff" stroke="#63b8ff" points="630.99,-23 620.99,-26.5 630.99,-30 630.99,-23"/>
</a>
</g>
</g>
</g>
</svg>
