<?xml version="1.0" encoding="UTF-8" standalone="no"?>
<!DOCTYPE svg PUBLIC "-//W3C//DTD SVG 1.1//EN"
 "http://www.w3.org/Graphics/SVG/1.1/DTD/svg11.dtd">
<!-- Generated by graphviz version 14.1.1 (20251213.1925)
 -->
<!-- Title: ClElementwiseBinaryWorkload Pages: 1 -->
<svg width="368pt" height="295pt"
 viewBox="0.00 0.00 368.00 295.00" xmlns="http://www.w3.org/2000/svg" xmlns:xlink="http://www.w3.org/1999/xlink">
<g id="graph0" class="graph" transform="scale(1 1) rotate(0) translate(4 291.25)">
<title>ClElementwiseBinaryWorkload</title>
<!-- Node1 -->
<g id="Node000001" class="node">
<title>Node1</title>
<g id="a_Node000001"><a xlink:title=" ">
<polygon fill="#999999" stroke="#666666" points="211.38,-19.25 61.12,-19.25 61.12,0 211.38,0 211.38,-19.25"/>
<text xml:space="preserve" text-anchor="middle" x="136.25" y="-5.75" font-family="Helvetica,sans-Serif" font-size="10.00">ClElementwiseBinaryWorkload</text>
</a>
</g>
</g>
<!-- Node2 -->
<g id="Node000002" class="node">
<title>Node2</title>
<g id="a_Node000002"><a xlink:href="classarmnn_1_1_cl_base_workload.html" target="_top" xlink:title=" ">
<polygon fill="white" stroke="#666666" points="213.25,-86.75 59.25,-86.75 59.25,-56.25 213.25,-56.25 213.25,-86.75"/>
<text xml:space="preserve" text-anchor="start" x="67.25" y="-73.25" font-family="Helvetica,sans-Serif" font-size="10.00">ClBaseWorkload&lt; Elementwise</text>
<text xml:space="preserve" text-anchor="middle" x="136.25" y="-62" font-family="Helvetica,sans-Serif" font-size="10.00">BinaryQueueDescriptor &gt;</text>
</a>
</g>
</g>
<!-- Node2&#45;&gt;Node1 -->
<g id="edge1_Node000001_Node000002" class="edge">
<title>Node2&#45;&gt;Node1</title>
<g id="a_edge1_Node000001_Node000002"><a xlink:title=" ">
<path fill="none" stroke="#63b8ff" d="M136.25,-44.77C136.25,-35.79 136.25,-26.29 136.25,-19.6"/>
<polygon fill="#63b8ff" stroke="#63b8ff" points="132.75,-44.49 136.25,-54.49 139.75,-44.49 132.75,-44.49"/>
</a>
</g>
</g>
<!-- Node3 -->
<g id="Node000003" class="node">
<title>Node3</title>
<g id="a_Node000003"><a xlink:href="classarmnn_1_1_base_workload.html" target="_top" xlink:title=" ">
<polygon fill="white" stroke="#666666" points="170.5,-220.75 0,-220.75 0,-201.5 170.5,-201.5 170.5,-220.75"/>
<text xml:space="preserve" text-anchor="middle" x="85.25" y="-207.25" font-family="Helvetica,sans-Serif" font-size="10.00">BaseWorkload&lt; QueueDescriptor &gt;</text>
</a>
</g>
</g>
<!-- Node3&#45;&gt;Node2 -->
<g id="edge2_Node000002_Node000003" class="edge">
<title>Node3&#45;&gt;Node2</title>
<g id="a_edge2_Node000002_Node000003"><a xlink:title=" ">
<path fill="none" stroke="#63b8ff" d="M92.46,-190.66C102.82,-162.7 121.68,-111.82 130.89,-86.95"/>
<polygon fill="#63b8ff" stroke="#63b8ff" points="89.32,-189.08 89.12,-199.68 95.88,-191.52 89.32,-189.08"/>
</a>
</g>
</g>
<!-- Node4 -->
<g id="Node000004" class="node">
<title>Node4</title>
<g id="a_Node000004"><a xlink:href="classarmnn_1_1_i_workload.html" target="_top" xlink:title="Workload interface to enqueue a layer computation.">
<polygon fill="white" stroke="#666666" points="162,-287.25 102.5,-287.25 102.5,-268 162,-268 162,-287.25"/>
<text xml:space="preserve" text-anchor="middle" x="132.25" y="-273.75" font-family="Helvetica,sans-Serif" font-size="10.00">IWorkload</text>
</a>
</g>
</g>
<!-- Node4&#45;&gt;Node3 -->
<g id="edge3_Node000003_Node000004" class="edge">
<title>Node4&#45;&gt;Node3</title>
<g id="a_edge3_Node000003_Node000004"><a xlink:title=" ">
<path fill="none" stroke="#63b8ff" d="M118.95,-258.38C110.05,-246.16 98.72,-230.61 91.73,-221.02"/>
<polygon fill="#63b8ff" stroke="#63b8ff" points="116.11,-260.41 124.82,-266.43 121.76,-256.29 116.11,-260.41"/>
</a>
</g>
</g>
<!-- Node7 -->
<g id="Node000007" class="node">
<title>Node7</title>
<g id="a_Node000007"><a xlink:href="classarmnn_1_1_base_workload.html" target="_top" xlink:title=" ">
<polygon fill="white" stroke="#666666" points="359.5,-220.75 189,-220.75 189,-201.5 359.5,-201.5 359.5,-220.75"/>
<text xml:space="preserve" text-anchor="middle" x="274.25" y="-207.25" font-family="Helvetica,sans-Serif" font-size="10.00">BaseWorkload&lt; QueueDescriptor &gt;</text>
</a>
</g>
</g>
<!-- Node4&#45;&gt;Node7 -->
<g id="edge7_Node000007_Node000004" class="edge">
<title>Node4&#45;&gt;Node7</title>
<g id="a_edge7_Node000007_Node000004"><a xlink:title=" ">
<path fill="none" stroke="#63b8ff" d="M150.33,-260.36C159.39,-252.9 170.84,-244.48 182.25,-238.75 197.41,-231.14 215.09,-225.37 230.88,-221.18"/>
<polygon fill="#63b8ff" stroke="#63b8ff" points="148.33,-257.47 143.01,-266.63 152.88,-262.78 148.33,-257.47"/>
</a>
</g>
</g>
<!-- Node5 -->
<g id="Node000005" class="node">
<title>Node5</title>
<g id="a_Node000005"><a xlink:href="structarmnn_1_1_queue_descriptor.html" target="_top" xlink:title=" ">
<polygon fill="white" stroke="#666666" points="277,-287.25 187.5,-287.25 187.5,-268 277,-268 277,-287.25"/>
<text xml:space="preserve" text-anchor="middle" x="232.25" y="-273.75" font-family="Helvetica,sans-Serif" font-size="10.00">QueueDescriptor</text>
</a>
</g>
</g>
<!-- Node5&#45;&gt;Node3 -->
<g id="edge4_Node000003_Node000005" class="edge">
<title>Node5&#45;&gt;Node3</title>
<g id="a_edge4_Node000003_Node000005"><a xlink:title=" ">
<path fill="none" stroke="#9a32cd" stroke-dasharray="5,2" d="M201.21,-263.01C172.52,-250.42 130.69,-232.06 105.89,-221.18"/>
<polygon fill="#9a32cd" stroke="#9a32cd" points="199.55,-266.1 210.11,-266.91 202.36,-259.69 199.55,-266.1"/>
</a>
</g>
<text xml:space="preserve" text-anchor="middle" x="186.3" y="-240.5" font-family="Helvetica,sans-Serif" font-size="10.00" fill="grey"> m_Data</text>
</g>
<!-- Node5&#45;&gt;Node7 -->
<g id="edge8_Node000007_Node000005" class="edge">
<title>Node5&#45;&gt;Node7</title>
<g id="a_edge8_Node000007_Node000005"><a xlink:title=" ">
<path fill="none" stroke="#9a32cd" stroke-dasharray="5,2" d="M244.37,-258.01C252.29,-245.85 262.27,-230.52 268.46,-221.02"/>
<polygon fill="#9a32cd" stroke="#9a32cd" points="241.44,-256.1 238.92,-266.39 247.31,-259.92 241.44,-256.1"/>
</a>
</g>
<text xml:space="preserve" text-anchor="middle" x="274.51" y="-240.5" font-family="Helvetica,sans-Serif" font-size="10.00" fill="grey"> m_Data</text>
</g>
<!-- Node6 -->
<g id="Node000006" class="node">
<title>Node6</title>
<g id="a_Node000006"><a xlink:href="classarmnn_1_1_cl_base_workload.html" target="_top" xlink:title=" ">
<polygon fill="white" stroke="#666666" points="346.38,-164.5 166.12,-164.5 166.12,-145.25 346.38,-145.25 346.38,-164.5"/>
<text xml:space="preserve" text-anchor="middle" x="256.25" y="-151" font-family="Helvetica,sans-Serif" font-size="10.00">ClBaseWorkload&lt; QueueDescriptor &gt;</text>
</a>
</g>
</g>
<!-- Node6&#45;&gt;Node2 -->
<g id="edge5_Node000002_Node000006" class="edge">
<title>Node6&#45;&gt;Node2</title>
<g id="a_edge5_Node000002_Node000006"><a xlink:title=" ">
<path fill="none" stroke="orange" stroke-dasharray="5,2" d="M233.5,-138.45C211.7,-123.66 179.05,-101.52 157.7,-87.04"/>
<polygon fill="orange" stroke="orange" points="231.46,-141.29 241.7,-144.01 235.38,-135.5 231.46,-141.29"/>
</a>
</g>
<text xml:space="preserve" text-anchor="start" x="214.01" y="-117.75" font-family="Helvetica,sans-Serif" font-size="10.00" fill="grey"> &lt; ElementwiseBinaryQueue</text>
<text xml:space="preserve" text-anchor="middle" x="276.26" y="-106.5" font-family="Helvetica,sans-Serif" font-size="10.00" fill="grey">Descriptor &gt;</text>
</g>
<!-- Node7&#45;&gt;Node6 -->
<g id="edge6_Node000006_Node000007" class="edge">
<title>Node7&#45;&gt;Node6</title>
<g id="a_edge6_Node000006_Node000007"><a xlink:title=" ">
<path fill="none" stroke="#63b8ff" d="M267.65,-190.24C264.74,-181.45 261.46,-171.57 259.17,-164.67"/>
<polygon fill="#63b8ff" stroke="#63b8ff" points="264.33,-191.34 270.8,-199.73 270.97,-189.14 264.33,-191.34"/>
</a>
</g>
</g>
</g>
</svg>
