<?xml version="1.0" encoding="UTF-8" standalone="no"?>
<!DOCTYPE svg PUBLIC "-//W3C//DTD SVG 1.1//EN"
 "http://www.w3.org/Graphics/SVG/1.1/DTD/svg11.dtd">
<!-- Generated by graphviz version 14.1.1 (20251213.1925)
 -->
<!-- Title: ClBatchNormalizationFloatWorkload Pages: 1 -->
<svg width="181pt" height="216pt"
 viewBox="0.00 0.00 181.00 216.00" xmlns="http://www.w3.org/2000/svg" xmlns:xlink="http://www.w3.org/1999/xlink">
<g id="graph0" class="graph" transform="scale(1 1) rotate(0) translate(4 211.5)">
<title>ClBatchNormalizationFloatWorkload</title>
<!-- Node1 -->
<g id="Node000001" class="node">
<title>Node1</title>
<g id="a_Node000001"><a xlink:title=" ">
<polygon fill="#999999" stroke="#666666" points="152.88,-30.5 19.88,-30.5 19.88,0 152.88,0 152.88,-30.5"/>
<text xml:space="preserve" text-anchor="start" x="27.88" y="-17" font-family="Helvetica,sans-Serif" font-size="10.00">ClBatchNormalizationFloat</text>
<text xml:space="preserve" text-anchor="middle" x="86.38" y="-5.75" font-family="Helvetica,sans-Serif" font-size="10.00">Workload</text>
</a>
</g>
</g>
<!-- Node2 -->
<g id="Node000002" class="node">
<title>Node2</title>
<g id="a_Node000002"><a xlink:href="classarmnn_1_1_typed_workload.html" target="_top" xlink:title=" ">
<polygon fill="white" stroke="#666666" points="172.75,-97 0,-97 0,-66.5 172.75,-66.5 172.75,-97"/>
<text xml:space="preserve" text-anchor="start" x="8" y="-83.5" font-family="Helvetica,sans-Serif" font-size="10.00">FloatWorkload&lt; BatchNormalization</text>
<text xml:space="preserve" text-anchor="middle" x="86.38" y="-72.25" font-family="Helvetica,sans-Serif" font-size="10.00">QueueDescriptor &gt;</text>
</a>
</g>
</g>
<!-- Node2&#45;&gt;Node1 -->
<g id="edge1_Node000001_Node000002" class="edge">
<title>Node2&#45;&gt;Node1</title>
<g id="a_edge1_Node000001_Node000002"><a xlink:title=" ">
<path fill="none" stroke="#63b8ff" d="M86.38,-54.81C86.38,-46.64 86.38,-37.91 86.38,-30.83"/>
<polygon fill="#63b8ff" stroke="#63b8ff" points="82.88,-54.6 86.38,-64.6 89.88,-54.6 82.88,-54.6"/>
</a>
</g>
</g>
<!-- Node3 -->
<g id="Node000003" class="node">
<title>Node3</title>
<g id="a_Node000003"><a xlink:href="classarmnn_1_1_base_workload.html" target="_top" xlink:title=" ">
<polygon fill="white" stroke="#666666" points="171.62,-152.25 1.12,-152.25 1.12,-133 171.62,-133 171.62,-152.25"/>
<text xml:space="preserve" text-anchor="middle" x="86.38" y="-138.75" font-family="Helvetica,sans-Serif" font-size="10.00">BaseWorkload&lt; QueueDescriptor &gt;</text>
</a>
</g>
</g>
<!-- Node3&#45;&gt;Node2 -->
<g id="edge2_Node000002_Node000003" class="edge">
<title>Node3&#45;&gt;Node2</title>
<g id="a_edge2_Node000002_Node000003"><a xlink:title=" ">
<path fill="none" stroke="#63b8ff" d="M86.38,-121.42C86.38,-113.49 86.38,-104.56 86.38,-97.28"/>
<polygon fill="#63b8ff" stroke="#63b8ff" points="82.88,-121.17 86.38,-131.17 89.88,-121.17 82.88,-121.17"/>
</a>
</g>
</g>
<!-- Node4 -->
<g id="Node000004" class="node">
<title>Node4</title>
<g id="a_Node000004"><a xlink:href="classarmnn_1_1_i_workload.html" target="_top" xlink:title="Workload interface to enqueue a layer computation.">
<polygon fill="white" stroke="#666666" points="116.12,-207.5 56.62,-207.5 56.62,-188.25 116.12,-188.25 116.12,-207.5"/>
<text xml:space="preserve" text-anchor="middle" x="86.38" y="-194" font-family="Helvetica,sans-Serif" font-size="10.00">IWorkload</text>
</a>
</g>
</g>
<!-- Node4&#45;&gt;Node3 -->
<g id="edge3_Node000003_Node000004" class="edge">
<title>Node4&#45;&gt;Node3</title>
<g id="a_edge3_Node000003_Node000004"><a xlink:title=" ">
<path fill="none" stroke="#63b8ff" d="M86.38,-176.63C86.38,-168.34 86.38,-159.17 86.38,-152.61"/>
<polygon fill="#63b8ff" stroke="#63b8ff" points="82.88,-176.57 86.38,-186.57 89.88,-176.57 82.88,-176.57"/>
</a>
</g>
</g>
</g>
</svg>
