<?xml version="1.0" encoding="UTF-8" standalone="no"?>
<!DOCTYPE svg PUBLIC "-//W3C//DTD SVG 1.1//EN"
 "http://www.w3.org/Graphics/SVG/1.1/DTD/svg11.dtd">
<!-- Generated by graphviz version 14.1.1 (20251213.1925)
 -->
<!-- Title: ClDepthwiseConvolutionWorkload Pages: 1 -->
<svg width="299pt" height="303pt"
 viewBox="0.00 0.00 299.00 303.00" xmlns="http://www.w3.org/2000/svg" xmlns:xlink="http://www.w3.org/1999/xlink">
<g id="graph0" class="graph" transform="scale(1 1) rotate(0) translate(4 299.25)">
<title>ClDepthwiseConvolutionWorkload</title>
<!-- Node1 -->
<g id="Node000001" class="node">
<title>Node1</title>
<g id="a_Node000001"><a xlink:title=" ">
<polygon fill="#999999" stroke="#666666" points="181.5,-19.25 17,-19.25 17,0 181.5,0 181.5,-19.25"/>
<text xml:space="preserve" text-anchor="middle" x="99.25" y="-5.75" font-family="Helvetica,sans-Serif" font-size="10.00">ClDepthwiseConvolutionWorkload</text>
</a>
</g>
</g>
<!-- Node2 -->
<g id="Node000002" class="node">
<title>Node2</title>
<g id="a_Node000002"><a xlink:href="classarmnn_1_1_cl_base_workload.html" target="_top" xlink:title=" ">
<polygon fill="white" stroke="#666666" points="179.62,-86.75 18.88,-86.75 18.88,-56.25 179.62,-56.25 179.62,-86.75"/>
<text xml:space="preserve" text-anchor="start" x="26.88" y="-73.25" font-family="Helvetica,sans-Serif" font-size="10.00">ClBaseWorkload&lt; Depthwise</text>
<text xml:space="preserve" text-anchor="middle" x="99.25" y="-62" font-family="Helvetica,sans-Serif" font-size="10.00">Convolution2dQueueDescriptor &gt;</text>
</a>
</g>
</g>
<!-- Node2&#45;&gt;Node1 -->
<g id="edge1_Node000001_Node000002" class="edge">
<title>Node2&#45;&gt;Node1</title>
<g id="a_edge1_Node000001_Node000002"><a xlink:title=" ">
<path fill="none" stroke="#63b8ff" d="M99.25,-44.77C99.25,-35.79 99.25,-26.29 99.25,-19.6"/>
<polygon fill="#63b8ff" stroke="#63b8ff" points="95.75,-44.49 99.25,-54.49 102.75,-44.49 95.75,-44.49"/>
</a>
</g>
</g>
<!-- Node3 -->
<g id="Node000003" class="node">
<title>Node3</title>
<g id="a_Node000003"><a xlink:href="classarmnn_1_1_base_workload.html" target="_top" xlink:title=" ">
<polygon fill="white" stroke="#666666" points="170.5,-201.75 0,-201.75 0,-182.5 170.5,-182.5 170.5,-201.75"/>
<text xml:space="preserve" text-anchor="middle" x="85.25" y="-188.25" font-family="Helvetica,sans-Serif" font-size="10.00">BaseWorkload&lt; QueueDescriptor &gt;</text>
</a>
</g>
</g>
<!-- Node3&#45;&gt;Node2 -->
<g id="edge2_Node000002_Node000003" class="edge">
<title>Node3&#45;&gt;Node2</title>
<g id="a_edge2_Node000002_Node000003"><a xlink:title=" ">
<path fill="none" stroke="#63b8ff" d="M87.62,-171.03C90.44,-147.17 95.06,-107.97 97.55,-86.93"/>
<polygon fill="#63b8ff" stroke="#63b8ff" points="84.18,-170.36 86.48,-180.71 91.13,-171.18 84.18,-170.36"/>
</a>
</g>
</g>
<!-- Node4 -->
<g id="Node000004" class="node">
<title>Node4</title>
<g id="a_Node000004"><a xlink:href="classarmnn_1_1_i_workload.html" target="_top" xlink:title="Workload interface to enqueue a layer computation.">
<polygon fill="white" stroke="#666666" points="128,-295.25 68.5,-295.25 68.5,-276 128,-276 128,-295.25"/>
<text xml:space="preserve" text-anchor="middle" x="98.25" y="-281.75" font-family="Helvetica,sans-Serif" font-size="10.00">IWorkload</text>
</a>
</g>
</g>
<!-- Node4&#45;&gt;Node3 -->
<g id="edge3_Node000003_Node000004" class="edge">
<title>Node4&#45;&gt;Node3</title>
<g id="a_edge3_Node000003_Node000004"><a xlink:title=" ">
<path fill="none" stroke="#63b8ff" d="M95.36,-264.3C92.61,-244.89 88.58,-216.56 86.54,-202.2"/>
<polygon fill="#63b8ff" stroke="#63b8ff" points="91.87,-264.61 96.74,-274.02 98.8,-263.63 91.87,-264.61"/>
</a>
</g>
</g>
<!-- Node6 -->
<g id="Node000006" class="node">
<title>Node6</title>
<g id="a_Node000006"><a xlink:href="classarmnn_1_1_base_workload.html" target="_top" xlink:title=" ">
<polygon fill="white" stroke="#666666" points="285.5,-239 115,-239 115,-219.75 285.5,-219.75 285.5,-239"/>
<text xml:space="preserve" text-anchor="middle" x="200.25" y="-225.5" font-family="Helvetica,sans-Serif" font-size="10.00">BaseWorkload&lt; QueueDescriptor &gt;</text>
</a>
</g>
</g>
<!-- Node4&#45;&gt;Node6 -->
<g id="edge6_Node000006_Node000004" class="edge">
<title>Node4&#45;&gt;Node6</title>
<g id="a_edge6_Node000006_Node000004"><a xlink:title=" ">
<path fill="none" stroke="#63b8ff" d="M125.23,-270.28C143.68,-260.46 167.57,-247.75 183.38,-239.35"/>
<polygon fill="#63b8ff" stroke="#63b8ff" points="123.61,-267.17 116.43,-274.96 126.9,-273.35 123.61,-267.17"/>
</a>
</g>
</g>
<!-- Node5 -->
<g id="Node000005" class="node">
<title>Node5</title>
<g id="a_Node000005"><a xlink:href="classarmnn_1_1_cl_base_workload.html" target="_top" xlink:title=" ">
<polygon fill="white" stroke="#666666" points="291.38,-164.5 111.12,-164.5 111.12,-145.25 291.38,-145.25 291.38,-164.5"/>
<text xml:space="preserve" text-anchor="middle" x="201.25" y="-151" font-family="Helvetica,sans-Serif" font-size="10.00">ClBaseWorkload&lt; QueueDescriptor &gt;</text>
</a>
</g>
</g>
<!-- Node5&#45;&gt;Node2 -->
<g id="edge4_Node000002_Node000005" class="edge">
<title>Node5&#45;&gt;Node2</title>
<g id="a_edge4_Node000002_Node000005"><a xlink:title=" ">
<path fill="none" stroke="orange" stroke-dasharray="5,2" d="M181.15,-137.84C162.63,-123.06 135.38,-101.33 117.48,-87.04"/>
<polygon fill="orange" stroke="orange" points="178.76,-140.41 188.76,-143.91 183.13,-134.94 178.76,-140.41"/>
</a>
</g>
<text xml:space="preserve" text-anchor="start" x="165.35" y="-117.75" font-family="Helvetica,sans-Serif" font-size="10.00" fill="grey"> &lt; DepthwiseConvolution2d</text>
<text xml:space="preserve" text-anchor="middle" x="225.72" y="-106.5" font-family="Helvetica,sans-Serif" font-size="10.00" fill="grey">QueueDescriptor &gt;</text>
</g>
<!-- Node6&#45;&gt;Node5 -->
<g id="edge5_Node000005_Node000006" class="edge">
<title>Node6&#45;&gt;Node5</title>
<g id="a_edge5_Node000005_Node000006"><a xlink:title=" ">
<path fill="none" stroke="#63b8ff" d="M200.53,-208.35C200.72,-194.1 200.98,-175.63 201.13,-164.84"/>
<polygon fill="#63b8ff" stroke="#63b8ff" points="197.03,-207.92 200.39,-217.97 204.03,-208.02 197.03,-207.92"/>
</a>
</g>
</g>
</g>
</svg>
