<?xml version="1.0" encoding="UTF-8" standalone="no"?>
<!DOCTYPE svg PUBLIC "-//W3C//DTD SVG 1.1//EN"
 "http://www.w3.org/Graphics/SVG/1.1/DTD/svg11.dtd">
<!-- Generated by graphviz version 14.1.1 (20251213.1925)
 -->
<!-- Title: TosaRefPreCompiledWorkload Pages: 1 -->
<svg width="294pt" height="218pt"
 viewBox="0.00 0.00 294.00 218.00" xmlns="http://www.w3.org/2000/svg" xmlns:xlink="http://www.w3.org/1999/xlink">
<g id="graph0" class="graph" transform="scale(1 1) rotate(0) translate(4 213.5)">
<title>TosaRefPreCompiledWorkload</title>
<!-- Node1 -->
<g id="Node000001" class="node">
<title>Node1</title>
<g id="a_Node000001"><a xlink:title=" ">
<polygon fill="#999999" stroke="#666666" points="149.5,-19.25 0,-19.25 0,0 149.5,0 149.5,-19.25"/>
<text xml:space="preserve" text-anchor="middle" x="74.75" y="-5.75" font-family="Helvetica,sans-Serif" font-size="10.00">TosaRefPreCompiledWorkload</text>
</a>
</g>
</g>
<!-- Node2 -->
<g id="Node000002" class="node">
<title>Node2</title>
<g id="a_Node000002"><a xlink:href="classarmnn_1_1_base_workload.html" target="_top" xlink:title=" ">
<polygon fill="white" stroke="#666666" points="146.88,-86.75 2.62,-86.75 2.62,-56.25 146.88,-56.25 146.88,-86.75"/>
<text xml:space="preserve" text-anchor="start" x="10.62" y="-73.25" font-family="Helvetica,sans-Serif" font-size="10.00">BaseWorkload&lt; PreCompiled</text>
<text xml:space="preserve" text-anchor="middle" x="74.75" y="-62" font-family="Helvetica,sans-Serif" font-size="10.00">QueueDescriptor &gt;</text>
</a>
</g>
</g>
<!-- Node2&#45;&gt;Node1 -->
<g id="edge1_Node000001_Node000002" class="edge">
<title>Node2&#45;&gt;Node1</title>
<g id="a_edge1_Node000001_Node000002"><a xlink:title=" ">
<path fill="none" stroke="#63b8ff" d="M74.75,-44.77C74.75,-35.79 74.75,-26.29 74.75,-19.6"/>
<polygon fill="#63b8ff" stroke="#63b8ff" points="71.25,-44.49 74.75,-54.49 78.25,-44.49 71.25,-44.49"/>
</a>
</g>
</g>
<!-- Node3 -->
<g id="Node000003" class="node">
<title>Node3</title>
<g id="a_Node000003"><a xlink:href="classarmnn_1_1_i_workload.html" target="_top" xlink:title="Workload interface to enqueue a layer computation.">
<polygon fill="white" stroke="#666666" points="100.5,-209.5 41,-209.5 41,-190.25 100.5,-190.25 100.5,-209.5"/>
<text xml:space="preserve" text-anchor="middle" x="70.75" y="-196" font-family="Helvetica,sans-Serif" font-size="10.00">IWorkload</text>
</a>
</g>
</g>
<!-- Node3&#45;&gt;Node2 -->
<g id="edge2_Node000002_Node000003" class="edge">
<title>Node3&#45;&gt;Node2</title>
<g id="a_edge2_Node000002_Node000003"><a xlink:title=" ">
<path fill="none" stroke="#63b8ff" d="M71.39,-178.53C72.2,-152.96 73.57,-109.71 74.29,-87.16"/>
<polygon fill="#63b8ff" stroke="#63b8ff" points="67.9,-178.17 71.09,-188.27 74.9,-178.39 67.9,-178.17"/>
</a>
</g>
</g>
<!-- Node4 -->
<g id="Node000004" class="node">
<title>Node4</title>
<g id="a_Node000004"><a xlink:href="classarmnn_1_1_base_workload.html" target="_top" xlink:title=" ">
<polygon fill="white" stroke="#666666" points="257,-153.25 86.5,-153.25 86.5,-134 257,-134 257,-153.25"/>
<text xml:space="preserve" text-anchor="middle" x="171.75" y="-139.75" font-family="Helvetica,sans-Serif" font-size="10.00">BaseWorkload&lt; QueueDescriptor &gt;</text>
</a>
</g>
</g>
<!-- Node3&#45;&gt;Node4 -->
<g id="edge4_Node000004_Node000003" class="edge">
<title>Node3&#45;&gt;Node4</title>
<g id="a_edge4_Node000004_Node000003"><a xlink:title=" ">
<path fill="none" stroke="#63b8ff" d="M97.46,-184.53C115.74,-174.71 139.4,-162 155.05,-153.6"/>
<polygon fill="#63b8ff" stroke="#63b8ff" points="95.91,-181.39 88.76,-189.2 99.23,-187.55 95.91,-181.39"/>
</a>
</g>
</g>
<!-- Node4&#45;&gt;Node2 -->
<g id="edge3_Node000002_Node000004" class="edge">
<title>Node4&#45;&gt;Node2</title>
<g id="a_edge3_Node000002_Node000004"><a xlink:title=" ">
<path fill="none" stroke="orange" stroke-dasharray="5,2" d="M150.57,-127.31C134.07,-115.38 111.31,-98.93 95.04,-87.17"/>
<polygon fill="orange" stroke="orange" points="148.08,-129.83 158.24,-132.86 152.18,-124.16 148.08,-129.83"/>
</a>
</g>
<text xml:space="preserve" text-anchor="middle" x="210.17" y="-106.5" font-family="Helvetica,sans-Serif" font-size="10.00" fill="grey"> &lt; PreCompiledQueueDescriptor &gt;</text>
</g>
</g>
</svg>
