<?xml version="1.0" encoding="UTF-8" standalone="no"?>
<!DOCTYPE svg PUBLIC "-//W3C//DTD SVG 1.1//EN"
 "http://www.w3.org/Graphics/SVG/1.1/DTD/svg11.dtd">
<!-- Generated by graphviz version 14.1.1 (20251213.1925)
 -->
<!-- Title: PermuteLayer Pages: 1 -->
<svg width="323pt" height="295pt"
 viewBox="0.00 0.00 323.00 295.00" xmlns="http://www.w3.org/2000/svg" xmlns:xlink="http://www.w3.org/1999/xlink">
<g id="graph0" class="graph" transform="scale(1 1) rotate(0) translate(4 291.25)">
<title>PermuteLayer</title>
<!-- Node1 -->
<g id="Node000001" class="node">
<title>Node1</title>
<g id="a_Node000001"><a xlink:title="This layer represents a permutation operation.">
<polygon fill="#999999" stroke="#666666" points="141.25,-19.25 64.5,-19.25 64.5,0 141.25,0 141.25,-19.25"/>
<text xml:space="preserve" text-anchor="middle" x="102.88" y="-5.75" font-family="Helvetica,sans-Serif" font-size="10.00">PermuteLayer</text>
</a>
</g>
</g>
<!-- Node2 -->
<g id="Node000002" class="node">
<title>Node2</title>
<g id="a_Node000002"><a xlink:href="classarmnn_1_1_layer_with_parameters.html" target="_top" xlink:title=" ">
<polygon fill="white" stroke="#666666" points="160.75,-86.75 45,-86.75 45,-56.25 160.75,-56.25 160.75,-86.75"/>
<text xml:space="preserve" text-anchor="start" x="53" y="-73.25" font-family="Helvetica,sans-Serif" font-size="10.00">LayerWithParameters</text>
<text xml:space="preserve" text-anchor="middle" x="102.88" y="-62" font-family="Helvetica,sans-Serif" font-size="10.00">&lt; PermuteDescriptor &gt;</text>
</a>
</g>
</g>
<!-- Node2&#45;&gt;Node1 -->
<g id="edge1_Node000001_Node000002" class="edge">
<title>Node2&#45;&gt;Node1</title>
<g id="a_edge1_Node000001_Node000002"><a xlink:title=" ">
<path fill="none" stroke="#63b8ff" d="M102.88,-44.77C102.88,-35.79 102.88,-26.29 102.88,-19.6"/>
<polygon fill="#63b8ff" stroke="#63b8ff" points="99.38,-44.49 102.88,-54.49 106.38,-44.49 99.38,-44.49"/>
</a>
</g>
</g>
<!-- Node3 -->
<g id="Node000003" class="node">
<title>Node3</title>
<g id="a_Node000003"><a xlink:href="classarmnn_1_1_layer.html" target="_top" xlink:title=" ">
<polygon fill="white" stroke="#666666" points="68.88,-231 28.88,-231 28.88,-211.75 68.88,-211.75 68.88,-231"/>
<text xml:space="preserve" text-anchor="middle" x="48.88" y="-217.5" font-family="Helvetica,sans-Serif" font-size="10.00">Layer</text>
</a>
</g>
</g>
<!-- Node3&#45;&gt;Node2 -->
<g id="edge2_Node000002_Node000003" class="edge">
<title>Node3&#45;&gt;Node2</title>
<g id="a_edge2_Node000002_Node000003"><a xlink:title=" ">
<path fill="none" stroke="#63b8ff" d="M41.87,-200.49C36.69,-182.45 31.93,-155.46 40.88,-134 48.98,-114.55 66.56,-98.09 80.94,-87.11"/>
<polygon fill="#63b8ff" stroke="#63b8ff" points="38.51,-201.49 44.9,-209.94 45.18,-199.35 38.51,-201.49"/>
</a>
</g>
</g>
<!-- Node8 -->
<g id="Node000008" class="node">
<title>Node8</title>
<g id="a_Node000008"><a xlink:href="classarmnn_1_1_layer_with_parameters.html" target="_top" xlink:title=" ">
<polygon fill="white" stroke="#666666" points="160.12,-164.5 49.62,-164.5 49.62,-134 160.12,-134 160.12,-164.5"/>
<text xml:space="preserve" text-anchor="start" x="57.62" y="-151" font-family="Helvetica,sans-Serif" font-size="10.00">LayerWithParameters</text>
<text xml:space="preserve" text-anchor="middle" x="104.88" y="-139.75" font-family="Helvetica,sans-Serif" font-size="10.00">&lt; Parameters &gt;</text>
</a>
</g>
</g>
<!-- Node3&#45;&gt;Node8 -->
<g id="edge8_Node000008_Node000003" class="edge">
<title>Node3&#45;&gt;Node8</title>
<g id="a_edge8_Node000008_Node000003"><a xlink:title=" ">
<path fill="none" stroke="#63b8ff" d="M63.02,-202.67C72.33,-191 84.38,-175.91 93.16,-164.92"/>
<polygon fill="#63b8ff" stroke="#63b8ff" points="60.42,-200.31 56.91,-210.31 65.89,-204.68 60.42,-200.31"/>
</a>
</g>
</g>
<!-- Node4 -->
<g id="Node000004" class="node">
<title>Node4</title>
<g id="a_Node000004"><a xlink:href="classarmnn_1_1_i_connectable_layer.html" target="_top" xlink:title="Interface for a layer that is connectable to other layers via InputSlots and OutputSlots.">
<polygon fill="white" stroke="#666666" points="97.75,-287.25 0,-287.25 0,-268 97.75,-268 97.75,-287.25"/>
<text xml:space="preserve" text-anchor="middle" x="48.88" y="-273.75" font-family="Helvetica,sans-Serif" font-size="10.00">IConnectableLayer</text>
</a>
</g>
</g>
<!-- Node4&#45;&gt;Node3 -->
<g id="edge3_Node000003_Node000004" class="edge">
<title>Node4&#45;&gt;Node3</title>
<g id="a_edge3_Node000003_Node000004"><a xlink:title=" ">
<path fill="none" stroke="#63b8ff" d="M48.88,-256.44C48.88,-247.73 48.88,-237.99 48.88,-231.17"/>
<polygon fill="#63b8ff" stroke="#63b8ff" points="45.38,-256.15 48.88,-266.15 52.38,-256.15 45.38,-256.15"/>
</a>
</g>
</g>
<!-- Node5 -->
<g id="Node000005" class="node">
<title>Node5</title>
<g id="a_Node000005"><a xlink:href="structarmnn_1_1_permute_descriptor.html" target="_top" xlink:title="A PermuteDescriptor for the PermuteLayer.">
<polygon fill="white" stroke="#666666" points="277.75,-158.88 180,-158.88 180,-139.62 277.75,-139.62 277.75,-158.88"/>
<text xml:space="preserve" text-anchor="middle" x="228.88" y="-145.38" font-family="Helvetica,sans-Serif" font-size="10.00">PermuteDescriptor</text>
</a>
</g>
</g>
<!-- Node5&#45;&gt;Node2 -->
<g id="edge4_Node000002_Node000005" class="edge">
<title>Node5&#45;&gt;Node2</title>
<g id="a_edge4_Node000002_Node000005"><a xlink:title=" ">
<path fill="none" stroke="#9a32cd" stroke-dasharray="5,2" d="M222.77,-128.43C219.31,-120.09 214.17,-110.91 206.88,-104.75 193.95,-93.83 177.35,-86.6 161.23,-81.82"/>
<polygon fill="#9a32cd" stroke="#9a32cd" points="219.46,-129.58 226.1,-137.84 226.06,-127.24 219.46,-129.58"/>
</a>
</g>
<text xml:space="preserve" text-anchor="middle" x="238.75" y="-106.5" font-family="Helvetica,sans-Serif" font-size="10.00" fill="grey"> m_Param</text>
</g>
<!-- Node6 -->
<g id="Node000006" class="node">
<title>Node6</title>
<g id="a_Node000006"><a xlink:href="structarmnn_1_1_base_descriptor.html" target="_top" xlink:title="Base class for all descriptors.">
<polygon fill="white" stroke="#666666" points="178.62,-231 95.12,-231 95.12,-211.75 178.62,-211.75 178.62,-231"/>
<text xml:space="preserve" text-anchor="middle" x="136.88" y="-217.5" font-family="Helvetica,sans-Serif" font-size="10.00">BaseDescriptor</text>
</a>
</g>
</g>
<!-- Node6&#45;&gt;Node5 -->
<g id="edge5_Node000005_Node000006" class="edge">
<title>Node6&#45;&gt;Node5</title>
<g id="a_edge5_Node000005_Node000006"><a xlink:title=" ">
<path fill="none" stroke="#63b8ff" d="M157.55,-204.62C175.88,-190.65 202.01,-170.73 217.03,-159.28"/>
<polygon fill="#63b8ff" stroke="#63b8ff" points="155.56,-201.73 149.73,-210.58 159.81,-207.3 155.56,-201.73"/>
</a>
</g>
</g>
<!-- Node7 -->
<g id="Node000007" class="node">
<title>Node7</title>
<g id="a_Node000007"><a xlink:href="classarmnn_1_1_permutation_vector.html" target="_top" xlink:title=" ">
<polygon fill="white" stroke="#666666" points="293.38,-231 196.38,-231 196.38,-211.75 293.38,-211.75 293.38,-231"/>
<text xml:space="preserve" text-anchor="middle" x="244.88" y="-217.5" font-family="Helvetica,sans-Serif" font-size="10.00">PermutationVector</text>
</a>
</g>
</g>
<!-- Node7&#45;&gt;Node5 -->
<g id="edge6_Node000005_Node000007" class="edge">
<title>Node7&#45;&gt;Node5</title>
<g id="a_edge6_Node000005_Node000007"><a xlink:title=" ">
<path fill="none" stroke="#9a32cd" stroke-dasharray="5,2" d="M240.32,-200.41C237.23,-186.87 233.29,-169.62 230.94,-159.28"/>
<polygon fill="#9a32cd" stroke="#9a32cd" points="236.88,-201.05 242.51,-210.02 243.7,-199.49 236.88,-201.05"/>
</a>
</g>
<text xml:space="preserve" text-anchor="middle" x="277.03" y="-184.25" font-family="Helvetica,sans-Serif" font-size="10.00" fill="grey"> m_DimMappings</text>
</g>
<!-- Node8&#45;&gt;Node2 -->
<g id="edge7_Node000002_Node000008" class="edge">
<title>Node8&#45;&gt;Node2</title>
<g id="a_edge7_Node000002_Node000008"><a xlink:title=" ">
<path fill="none" stroke="orange" stroke-dasharray="5,2" d="M104.19,-122.22C103.88,-110.46 103.52,-97.01 103.26,-87.06"/>
<polygon fill="orange" stroke="orange" points="100.69,-122.23 104.45,-132.13 107.68,-122.04 100.69,-122.23"/>
</a>
</g>
<text xml:space="preserve" text-anchor="middle" x="155.37" y="-106.5" font-family="Helvetica,sans-Serif" font-size="10.00" fill="grey"> &lt; PermuteDescriptor &gt;</text>
</g>
</g>
</svg>
