<?xml version="1.0" encoding="UTF-8" standalone="no"?>
<!DOCTYPE svg PUBLIC "-//W3C//DTD SVG 1.1//EN"
 "http://www.w3.org/Graphics/SVG/1.1/DTD/svg11.dtd">
<!-- Generated by graphviz version 14.1.1 (20251213.1925)
 -->
<!-- Title: Graphical Class Hierarchy Pages: 1 -->
<svg width="183pt" height="64pt"
 viewBox="0.00 0.00 183.00 64.00" xmlns="http://www.w3.org/2000/svg" xmlns:xlink="http://www.w3.org/1999/xlink">
<g id="graph0" class="graph" transform="scale(1 1) rotate(0) translate(4 60.25)">
<title>Graphical Class Hierarchy</title>
<!-- Node0 -->
<g id="Node000000" class="node">
<title>Node0</title>
<g id="a_Node000000"><a xlink:href="classarmnn_1_1_json_utils.html" target="_top" xlink:title=" ">
<polygon fill="white" stroke="#666666" points="57.25,-37.25 0,-37.25 0,-18 57.25,-18 57.25,-37.25"/>
<text xml:space="preserve" text-anchor="middle" x="28.62" y="-23.75" font-family="Helvetica,sans-Serif" font-size="10.00">JsonUtils</text>
</a>
</g>
</g>
<!-- Node1 -->
<g id="Node000001" class="node">
<title>Node1</title>
<g id="a_Node000001"><a xlink:href="classarmnn_1_1_json_printer.html" target="_top" xlink:title=" ">
<polygon fill="white" stroke="#666666" points="167,-56.25 101.5,-56.25 101.5,-37 167,-37 167,-56.25"/>
<text xml:space="preserve" text-anchor="middle" x="134.25" y="-42.75" font-family="Helvetica,sans-Serif" font-size="10.00">JsonPrinter</text>
</a>
</g>
</g>
<!-- Node0&#45;&gt;Node1 -->
<g id="edge828_Node000000_Node000001" class="edge">
<title>Node0&#45;&gt;Node1</title>
<g id="a_edge828_Node000000_Node000001"><a xlink:title=" ">
<path fill="none" stroke="#63b8ff" d="M68.85,-34.82C79.51,-36.77 90.94,-38.87 101.15,-40.74"/>
<polygon fill="#63b8ff" stroke="#63b8ff" points="69.62,-31.4 59.16,-33.04 68.36,-38.29 69.62,-31.4"/>
</a>
</g>
</g>
<!-- Node2 -->
<g id="Node000002" class="node">
<title>Node2</title>
<g id="a_Node000002"><a xlink:href="classarmnn_1_1_profiling_details.html" target="_top" xlink:title="ProfilingDetails class records any details associated with the operator and passes on for outputting ...">
<polygon fill="white" stroke="#666666" points="175.25,-19.25 93.25,-19.25 93.25,0 175.25,0 175.25,-19.25"/>
<text xml:space="preserve" text-anchor="middle" x="134.25" y="-5.75" font-family="Helvetica,sans-Serif" font-size="10.00">ProfilingDetails</text>
</a>
</g>
</g>
<!-- Node0&#45;&gt;Node2 -->
<g id="edge829_Node000000_Node000002" class="edge">
<title>Node0&#45;&gt;Node2</title>
<g id="a_edge829_Node000000_Node000002"><a xlink:title=" ">
<path fill="none" stroke="#63b8ff" d="M68.89,-20.8C76.82,-19.43 85.17,-17.98 93.12,-16.59"/>
<polygon fill="#63b8ff" stroke="#63b8ff" points="68.41,-17.34 59.16,-22.49 69.61,-24.23 68.41,-17.34"/>
</a>
</g>
</g>
</g>
</svg>
