<?xml version="1.0" encoding="UTF-8" standalone="no"?>
<!DOCTYPE svg PUBLIC "-//W3C//DTD SVG 1.1//EN"
 "http://www.w3.org/Graphics/SVG/1.1/DTD/svg11.dtd">
<!-- Generated by graphviz version 14.1.1 (20251213.1925)
 -->
<!-- Title: DepthwiseConvolution2dQueueDescriptor Pages: 1 -->
<svg width="839pt" height="100pt"
 viewBox="0.00 0.00 839.00 100.00" xmlns="http://www.w3.org/2000/svg" xmlns:xlink="http://www.w3.org/1999/xlink">
<g id="graph0" class="graph" transform="scale(1 1) rotate(0) translate(4 96.25)">
<title>DepthwiseConvolution2dQueueDescriptor</title>
<!-- Node1 -->
<g id="Node000001" class="node">
<title>Node1</title>
<g id="a_Node000001"><a xlink:title="Depthwise Convolution 2D layer workload data.">
<polygon fill="#999999" stroke="#666666" points="831,-67.88 677.75,-67.88 677.75,-37.38 831,-37.38 831,-67.88"/>
<text xml:space="preserve" text-anchor="start" x="685.75" y="-54.38" font-family="Helvetica,sans-Serif" font-size="10.00">DepthwiseConvolution2dQueue</text>
<text xml:space="preserve" text-anchor="middle" x="754.38" y="-43.12" font-family="Helvetica,sans-Serif" font-size="10.00">Descriptor</text>
</a>
</g>
</g>
<!-- Node2 -->
<g id="Node000002" class="node">
<title>Node2</title>
<g id="a_Node000002"><a xlink:href="structarmnn_1_1_queue_descriptor_with_parameters.html" target="_top" xlink:title=" ">
<polygon fill="white" stroke="#666666" points="640.75,-67.88 453,-67.88 453,-37.38 640.75,-37.38 640.75,-67.88"/>
<text xml:space="preserve" text-anchor="start" x="461" y="-54.38" font-family="Helvetica,sans-Serif" font-size="10.00">QueueDescriptorWithParameters</text>
<text xml:space="preserve" text-anchor="middle" x="546.88" y="-43.12" font-family="Helvetica,sans-Serif" font-size="10.00">&lt; DepthwiseConvolution2dDescriptor &gt;</text>
</a>
</g>
</g>
<!-- Node2&#45;&gt;Node1 -->
<g id="edge1_Node000001_Node000002" class="edge">
<title>Node2&#45;&gt;Node1</title>
<g id="a_edge1_Node000001_Node000002"><a xlink:title=" ">
<path fill="none" stroke="#63b8ff" d="M652.49,-52.62C660.91,-52.62 669.33,-52.62 677.49,-52.62"/>
<polygon fill="#63b8ff" stroke="#63b8ff" points="652.52,-49.13 642.52,-52.63 652.52,-56.13 652.52,-49.13"/>
</a>
</g>
</g>
<!-- Node3 -->
<g id="Node000003" class="node">
<title>Node3</title>
<g id="a_Node000003"><a xlink:href="structarmnn_1_1_queue_descriptor.html" target="_top" xlink:title=" ">
<polygon fill="white" stroke="#666666" points="89.5,-92.25 0,-92.25 0,-73 89.5,-73 89.5,-92.25"/>
<text xml:space="preserve" text-anchor="middle" x="44.75" y="-78.75" font-family="Helvetica,sans-Serif" font-size="10.00">QueueDescriptor</text>
</a>
</g>
</g>
<!-- Node3&#45;&gt;Node2 -->
<g id="edge2_Node000002_Node000003" class="edge">
<title>Node3&#45;&gt;Node2</title>
<g id="a_edge2_Node000002_Node000003"><a xlink:title=" ">
<path fill="none" stroke="#63b8ff" d="M100.88,-86.18C176.54,-90.16 316.67,-94.29 435,-79.62 453.87,-77.29 474.19,-72.9 492.2,-68.34"/>
<polygon fill="#63b8ff" stroke="#63b8ff" points="101.43,-82.71 91.26,-85.66 101.05,-89.7 101.43,-82.71"/>
</a>
</g>
</g>
<!-- Node6 -->
<g id="Node000006" class="node">
<title>Node6</title>
<g id="a_Node000006"><a xlink:href="structarmnn_1_1_queue_descriptor_with_parameters.html" target="_top" xlink:title=" ">
<polygon fill="white" stroke="#666666" points="291.38,-67.88 131.38,-67.88 131.38,-37.38 291.38,-37.38 291.38,-67.88"/>
<text xml:space="preserve" text-anchor="start" x="139.38" y="-54.38" font-family="Helvetica,sans-Serif" font-size="10.00">QueueDescriptorWithParameters</text>
<text xml:space="preserve" text-anchor="middle" x="211.38" y="-43.12" font-family="Helvetica,sans-Serif" font-size="10.00">&lt; LayerDescriptor &gt;</text>
</a>
</g>
</g>
<!-- Node3&#45;&gt;Node6 -->
<g id="edge6_Node000006_Node000003" class="edge">
<title>Node3&#45;&gt;Node6</title>
<g id="a_edge6_Node000006_Node000003"><a xlink:title=" ">
<path fill="none" stroke="#63b8ff" d="M100.97,-72.56C110.68,-70.79 120.96,-68.92 131.18,-67.06"/>
<polygon fill="#63b8ff" stroke="#63b8ff" points="100.57,-69.08 91.36,-74.31 101.82,-75.96 100.57,-69.08"/>
</a>
</g>
</g>
<!-- Node4 -->
<g id="Node000004" class="node">
<title>Node4</title>
<g id="a_Node000004"><a xlink:href="structarmnn_1_1_depthwise_convolution2d_descriptor.html" target="_top" xlink:title="A DepthwiseConvolution2dDescriptor for the DepthwiseConvolution2dLayer.">
<polygon fill="white" stroke="#666666" points="296.25,-19.25 126.5,-19.25 126.5,0 296.25,0 296.25,-19.25"/>
<text xml:space="preserve" text-anchor="middle" x="211.38" y="-5.75" font-family="Helvetica,sans-Serif" font-size="10.00">DepthwiseConvolution2dDescriptor</text>
</a>
</g>
</g>
<!-- Node4&#45;&gt;Node2 -->
<g id="edge3_Node000002_Node000004" class="edge">
<title>Node4&#45;&gt;Node2</title>
<g id="a_edge3_Node000002_Node000004"><a xlink:title=" ">
<path fill="none" stroke="#9a32cd" stroke-dasharray="5,2" d="M306.65,-21.11C346.3,-26.01 392.91,-31.86 435,-37.38 440.78,-38.13 446.73,-38.92 452.72,-39.73"/>
<polygon fill="#9a32cd" stroke="#9a32cd" points="307.25,-17.66 296.9,-19.91 306.4,-24.6 307.25,-17.66"/>
</a>
</g>
<text xml:space="preserve" text-anchor="middle" x="374.62" y="-39.12" font-family="Helvetica,sans-Serif" font-size="10.00" fill="grey"> m_Parameters</text>
</g>
<!-- Node5 -->
<g id="Node000005" class="node">
<title>Node5</title>
<g id="a_Node000005"><a xlink:href="structarmnn_1_1_base_descriptor.html" target="_top" xlink:title="Base class for all descriptors.">
<polygon fill="white" stroke="#666666" points="86.5,-19.25 3,-19.25 3,0 86.5,0 86.5,-19.25"/>
<text xml:space="preserve" text-anchor="middle" x="44.75" y="-5.75" font-family="Helvetica,sans-Serif" font-size="10.00">BaseDescriptor</text>
</a>
</g>
</g>
<!-- Node5&#45;&gt;Node4 -->
<g id="edge4_Node000004_Node000005" class="edge">
<title>Node5&#45;&gt;Node4</title>
<g id="a_edge4_Node000004_Node000005"><a xlink:title=" ">
<path fill="none" stroke="#63b8ff" d="M98.23,-9.62C107.14,-9.62 116.6,-9.62 126.09,-9.62"/>
<polygon fill="#63b8ff" stroke="#63b8ff" points="98.38,-6.13 88.38,-9.63 98.38,-13.13 98.38,-6.13"/>
</a>
</g>
</g>
<!-- Node6&#45;&gt;Node2 -->
<g id="edge5_Node000002_Node000006" class="edge">
<title>Node6&#45;&gt;Node2</title>
<g id="a_edge5_Node000002_Node000006"><a xlink:title=" ">
<path fill="none" stroke="orange" stroke-dasharray="5,2" d="M303.09,-52.62C349.45,-52.62 405.8,-52.62 452.53,-52.62"/>
<polygon fill="orange" stroke="orange" points="303.35,-49.13 293.35,-52.63 303.35,-56.13 303.35,-49.13"/>
</a>
</g>
<text xml:space="preserve" text-anchor="start" x="314.25" y="-65.62" font-family="Helvetica,sans-Serif" font-size="10.00" fill="grey"> &lt; DepthwiseConvolution2d</text>
<text xml:space="preserve" text-anchor="middle" x="374.62" y="-54.38" font-family="Helvetica,sans-Serif" font-size="10.00" fill="grey">Descriptor &gt;</text>
</g>
</g>
</svg>
