<?xml version="1.0" encoding="UTF-8" standalone="no"?>
<!DOCTYPE svg PUBLIC "-//W3C//DTD SVG 1.1//EN"
 "http://www.w3.org/Graphics/SVG/1.1/DTD/svg11.dtd">
<!-- Generated by graphviz version 14.1.1 (20251213.1925)
 -->
<!-- Title: UnidirectionalSequenceLstmQueueDescriptor Pages: 1 -->
<svg width="879pt" height="200pt"
 viewBox="0.00 0.00 879.00 200.00" xmlns="http://www.w3.org/2000/svg" xmlns:xlink="http://www.w3.org/1999/xlink">
<g id="graph0" class="graph" transform="scale(1 1) rotate(0) translate(4 196.21)">
<title>UnidirectionalSequenceLstmQueueDescriptor</title>
<!-- Node1 -->
<g id="Node000001" class="node">
<title>Node1</title>
<g id="a_Node000001"><a xlink:title=" ">
<polygon fill="#999999" stroke="#666666" points="871.25,-97.83 730.75,-97.83 730.75,-67.33 871.25,-67.33 871.25,-97.83"/>
<text xml:space="preserve" text-anchor="start" x="738.75" y="-84.33" font-family="Helvetica,sans-Serif" font-size="10.00">UnidirectionalSequenceLstm</text>
<text xml:space="preserve" text-anchor="middle" x="801" y="-73.08" font-family="Helvetica,sans-Serif" font-size="10.00">QueueDescriptor</text>
</a>
</g>
</g>
<!-- Node2 -->
<g id="Node000002" class="node">
<title>Node2</title>
<g id="a_Node000002"><a xlink:href="structarmnn_1_1_queue_descriptor_with_parameters.html" target="_top" xlink:title=" ">
<polygon fill="white" stroke="#666666" points="570.25,-167.83 410.25,-167.83 410.25,-137.33 570.25,-137.33 570.25,-167.83"/>
<text xml:space="preserve" text-anchor="start" x="418.25" y="-154.33" font-family="Helvetica,sans-Serif" font-size="10.00">QueueDescriptorWithParameters</text>
<text xml:space="preserve" text-anchor="middle" x="490.25" y="-143.08" font-family="Helvetica,sans-Serif" font-size="10.00">&lt; LstmDescriptor &gt;</text>
</a>
</g>
</g>
<!-- Node2&#45;&gt;Node1 -->
<g id="edge1_Node000001_Node000002" class="edge">
<title>Node2&#45;&gt;Node1</title>
<g id="a_edge1_Node000001_Node000002"><a xlink:title=" ">
<path fill="none" stroke="#63b8ff" d="M582.03,-157.06C622.89,-156.51 671.17,-152.22 712.75,-138.58 738.92,-130 764.97,-111.67 781.7,-98.31"/>
<polygon fill="#63b8ff" stroke="#63b8ff" points="582.21,-153.56 572.23,-157.12 582.25,-160.56 582.21,-153.56"/>
</a>
</g>
</g>
<!-- Node3 -->
<g id="Node000003" class="node">
<title>Node3</title>
<g id="a_Node000003"><a xlink:href="structarmnn_1_1_queue_descriptor.html" target="_top" xlink:title=" ">
<polygon fill="white" stroke="#666666" points="89.5,-192.21 0,-192.21 0,-172.96 89.5,-172.96 89.5,-192.21"/>
<text xml:space="preserve" text-anchor="middle" x="44.75" y="-178.71" font-family="Helvetica,sans-Serif" font-size="10.00">QueueDescriptor</text>
</a>
</g>
</g>
<!-- Node3&#45;&gt;Node2 -->
<g id="edge2_Node000002_Node000003" class="edge">
<title>Node3&#45;&gt;Node2</title>
<g id="a_edge2_Node000002_Node000003"><a xlink:title=" ">
<path fill="none" stroke="#63b8ff" d="M101.33,-182.77C169.95,-182.4 290.1,-179.81 392.25,-167.58 398,-166.89 403.94,-166.12 409.91,-165.3"/>
<polygon fill="#63b8ff" stroke="#63b8ff" points="101.46,-179.26 91.47,-182.8 101.48,-186.26 101.46,-179.26"/>
</a>
</g>
</g>
<!-- Node6 -->
<g id="Node000006" class="node">
<title>Node6</title>
<g id="a_Node000006"><a xlink:href="structarmnn_1_1_queue_descriptor_with_parameters.html" target="_top" xlink:title=" ">
<polygon fill="white" stroke="#666666" points="286.5,-167.83 126.5,-167.83 126.5,-137.33 286.5,-137.33 286.5,-167.83"/>
<text xml:space="preserve" text-anchor="start" x="134.5" y="-154.33" font-family="Helvetica,sans-Serif" font-size="10.00">QueueDescriptorWithParameters</text>
<text xml:space="preserve" text-anchor="middle" x="206.5" y="-143.08" font-family="Helvetica,sans-Serif" font-size="10.00">&lt; LayerDescriptor &gt;</text>
</a>
</g>
</g>
<!-- Node3&#45;&gt;Node6 -->
<g id="edge6_Node000006_Node000003" class="edge">
<title>Node3&#45;&gt;Node6</title>
<g id="a_edge6_Node000006_Node000003"><a xlink:title=" ">
<path fill="none" stroke="#63b8ff" d="M100.98,-172.21C109.08,-170.69 117.55,-169.1 126.01,-167.51"/>
<polygon fill="#63b8ff" stroke="#63b8ff" points="100.5,-168.74 91.31,-174.02 101.79,-175.62 100.5,-168.74"/>
</a>
</g>
</g>
<!-- Node4 -->
<g id="Node000004" class="node">
<title>Node4</title>
<g id="a_Node000004"><a xlink:href="structarmnn_1_1_lstm_descriptor.html" target="_top" xlink:title="An LstmDescriptor for the LstmLayer.">
<polygon fill="white" stroke="#666666" points="247.88,-119.21 165.12,-119.21 165.12,-99.96 247.88,-99.96 247.88,-119.21"/>
<text xml:space="preserve" text-anchor="middle" x="206.5" y="-105.71" font-family="Helvetica,sans-Serif" font-size="10.00">LstmDescriptor</text>
</a>
</g>
</g>
<!-- Node4&#45;&gt;Node2 -->
<g id="edge3_Node000002_Node000004" class="edge">
<title>Node4&#45;&gt;Node2</title>
<g id="a_edge3_Node000002_Node000004"><a xlink:title=" ">
<path fill="none" stroke="#9a32cd" stroke-dasharray="5,2" d="M259.27,-117.26C296.31,-122.78 347.36,-130.43 392.25,-137.33 397.98,-138.21 403.9,-139.13 409.85,-140.05"/>
<polygon fill="#9a32cd" stroke="#9a32cd" points="260.14,-113.85 249.74,-115.84 259.11,-120.78 260.14,-113.85"/>
</a>
</g>
<text xml:space="preserve" text-anchor="middle" x="348.38" y="-139.08" font-family="Helvetica,sans-Serif" font-size="10.00" fill="grey"> m_Parameters</text>
</g>
<!-- Node5 -->
<g id="Node000005" class="node">
<title>Node5</title>
<g id="a_Node000005"><a xlink:href="structarmnn_1_1_base_descriptor.html" target="_top" xlink:title="Base class for all descriptors.">
<polygon fill="white" stroke="#666666" points="86.5,-119.21 3,-119.21 3,-99.96 86.5,-99.96 86.5,-119.21"/>
<text xml:space="preserve" text-anchor="middle" x="44.75" y="-105.71" font-family="Helvetica,sans-Serif" font-size="10.00">BaseDescriptor</text>
</a>
</g>
</g>
<!-- Node5&#45;&gt;Node4 -->
<g id="edge4_Node000004_Node000005" class="edge">
<title>Node5&#45;&gt;Node4</title>
<g id="a_edge4_Node000004_Node000005"><a xlink:title=" ">
<path fill="none" stroke="#63b8ff" d="M98.22,-109.58C119.85,-109.58 144.54,-109.58 164.78,-109.58"/>
<polygon fill="#63b8ff" stroke="#63b8ff" points="98.4,-106.08 88.4,-109.58 98.4,-113.08 98.4,-106.08"/>
</a>
</g>
</g>
<!-- Node6&#45;&gt;Node2 -->
<g id="edge5_Node000002_Node000006" class="edge">
<title>Node6&#45;&gt;Node2</title>
<g id="a_edge5_Node000002_Node000006"><a xlink:title=" ">
<path fill="none" stroke="orange" stroke-dasharray="5,2" d="M298.24,-152.58C334.27,-152.58 375.33,-152.58 410.12,-152.58"/>
<polygon fill="orange" stroke="orange" points="298.25,-149.08 288.25,-152.58 298.25,-156.08 298.25,-149.08"/>
</a>
</g>
<text xml:space="preserve" text-anchor="middle" x="348.38" y="-154.33" font-family="Helvetica,sans-Serif" font-size="10.00" fill="grey"> &lt; LstmDescriptor &gt;</text>
</g>
<!-- Node7 -->
<g id="Node000007" class="node">
<title>Node7</title>
<g id="a_Node000007"><a xlink:href="classarmnn_1_1_const_tensor_handle.html" target="_top" xlink:title=" ">
<polygon fill="white" stroke="#666666" points="541.38,-23.21 439.12,-23.21 439.12,-3.96 541.38,-3.96 541.38,-23.21"/>
<text xml:space="preserve" text-anchor="middle" x="490.25" y="-9.71" font-family="Helvetica,sans-Serif" font-size="10.00">ConstTensorHandle</text>
</a>
</g>
</g>
<!-- Node7&#45;&gt;Node1 -->
<g id="edge7_Node000001_Node000007" class="edge">
<title>Node7&#45;&gt;Node1</title>
<g id="a_edge7_Node000001_Node000007"><a xlink:title=" ">
<path fill="none" stroke="#9a32cd" stroke-dasharray="5,2" d="M552.79,-3.53C598.26,1.44 660.99,3.07 712.75,-14.83 742.66,-25.17 770.26,-50.33 786.1,-66.91"/>
<polygon fill="#9a32cd" stroke="#9a32cd" points="552.64,-0.02 543.12,-4.68 553.46,-6.98 552.64,-0.02"/>
</a>
</g>
<text xml:space="preserve" text-anchor="middle" x="650.5" y="-129.08" font-family="Helvetica,sans-Serif" font-size="10.00" fill="grey"> m_CellBias</text>
<text xml:space="preserve" text-anchor="middle" x="650.5" y="-117.83" font-family="Helvetica,sans-Serif" font-size="10.00" fill="grey">m_CellLayerNormWeights</text>
<text xml:space="preserve" text-anchor="middle" x="650.5" y="-106.58" font-family="Helvetica,sans-Serif" font-size="10.00" fill="grey">m_CellToForgetWeights</text>
<text xml:space="preserve" text-anchor="middle" x="650.5" y="-95.33" font-family="Helvetica,sans-Serif" font-size="10.00" fill="grey">m_CellToInputWeights</text>
<text xml:space="preserve" text-anchor="middle" x="650.5" y="-84.08" font-family="Helvetica,sans-Serif" font-size="10.00" fill="grey">m_CellToOutputWeights</text>
<text xml:space="preserve" text-anchor="middle" x="650.5" y="-72.83" font-family="Helvetica,sans-Serif" font-size="10.00" fill="grey">m_ForgetGateBias</text>
<text xml:space="preserve" text-anchor="middle" x="650.5" y="-61.58" font-family="Helvetica,sans-Serif" font-size="10.00" fill="grey">m_ForgetLayerNormWeights</text>
<text xml:space="preserve" text-anchor="middle" x="650.5" y="-50.33" font-family="Helvetica,sans-Serif" font-size="10.00" fill="grey">m_InputGateBias</text>
<text xml:space="preserve" text-anchor="middle" x="650.5" y="-39.08" font-family="Helvetica,sans-Serif" font-size="10.00" fill="grey">m_InputLayerNormWeights</text>
<text xml:space="preserve" text-anchor="middle" x="650.5" y="-27.83" font-family="Helvetica,sans-Serif" font-size="10.00" fill="grey">m_InputToCellWeights</text>
<text xml:space="preserve" text-anchor="middle" x="650.5" y="-16.58" font-family="Helvetica,sans-Serif" font-size="10.00" fill="grey">...</text>
</g>
<!-- Node8 -->
<g id="Node000008" class="node">
<title>Node8</title>
<g id="a_Node000008"><a xlink:href="classarmnn_1_1_i_tensor_handle.html" target="_top" xlink:title=" ">
<polygon fill="white" stroke="#666666" points="246,-23.21 167,-23.21 167,-3.96 246,-3.96 246,-23.21"/>
<text xml:space="preserve" text-anchor="middle" x="206.5" y="-9.71" font-family="Helvetica,sans-Serif" font-size="10.00">ITensorHandle</text>
</a>
</g>
</g>
<!-- Node8&#45;&gt;Node7 -->
<g id="edge8_Node000007_Node000008" class="edge">
<title>Node8&#45;&gt;Node7</title>
<g id="a_edge8_Node000007_Node000008"><a xlink:title=" ">
<path fill="none" stroke="#63b8ff" d="M257.78,-13.58C308.84,-13.58 387.46,-13.58 438.64,-13.58"/>
<polygon fill="#63b8ff" stroke="#63b8ff" points="257.89,-10.08 247.89,-13.58 257.89,-17.08 257.89,-10.08"/>
</a>
</g>
</g>
</g>
</svg>
