<?xml version="1.0" encoding="UTF-8" standalone="no"?>
<!DOCTYPE svg PUBLIC "-//W3C//DTD SVG 1.1//EN"
 "http://www.w3.org/Graphics/SVG/1.1/DTD/svg11.dtd">
<!-- Generated by graphviz version 14.1.1 (20251213.1925)
 -->
<!-- Title: ElementwiseBinaryQueueDescriptor Pages: 1 -->
<svg width="296pt" height="229pt"
 viewBox="0.00 0.00 296.00 229.00" xmlns="http://www.w3.org/2000/svg" xmlns:xlink="http://www.w3.org/1999/xlink">
<g id="graph0" class="graph" transform="scale(1 1) rotate(0) translate(4 224.75)">
<title>ElementwiseBinaryQueueDescriptor</title>
<!-- Node1 -->
<g id="Node000001" class="node">
<title>Node1</title>
<g id="a_Node000001"><a xlink:title=" ">
<polygon fill="#999999" stroke="#666666" points="173.5,-19.25 0,-19.25 0,0 173.5,0 173.5,-19.25"/>
<text xml:space="preserve" text-anchor="middle" x="86.75" y="-5.75" font-family="Helvetica,sans-Serif" font-size="10.00">ElementwiseBinaryQueueDescriptor</text>
</a>
</g>
</g>
<!-- Node2 -->
<g id="Node000002" class="node">
<title>Node2</title>
<g id="a_Node000002"><a xlink:href="structarmnn_1_1_queue_descriptor_with_parameters.html" target="_top" xlink:title=" ">
<polygon fill="white" stroke="#666666" points="168.25,-86.75 5.25,-86.75 5.25,-56.25 168.25,-56.25 168.25,-86.75"/>
<text xml:space="preserve" text-anchor="start" x="13.25" y="-73.25" font-family="Helvetica,sans-Serif" font-size="10.00">QueueDescriptorWithParameters</text>
<text xml:space="preserve" text-anchor="middle" x="86.75" y="-62" font-family="Helvetica,sans-Serif" font-size="10.00">&lt; ElementwiseBinaryDescriptor &gt;</text>
</a>
</g>
</g>
<!-- Node2&#45;&gt;Node1 -->
<g id="edge1_Node000001_Node000002" class="edge">
<title>Node2&#45;&gt;Node1</title>
<g id="a_edge1_Node000001_Node000002"><a xlink:title=" ">
<path fill="none" stroke="#63b8ff" d="M86.75,-44.77C86.75,-35.79 86.75,-26.29 86.75,-19.6"/>
<polygon fill="#63b8ff" stroke="#63b8ff" points="83.25,-44.49 86.75,-54.49 90.25,-44.49 83.25,-44.49"/>
</a>
</g>
</g>
<!-- Node3 -->
<g id="Node000003" class="node">
<title>Node3</title>
<g id="a_Node000003"><a xlink:href="structarmnn_1_1_queue_descriptor.html" target="_top" xlink:title=" ">
<polygon fill="white" stroke="#666666" points="127.5,-220.75 38,-220.75 38,-201.5 127.5,-201.5 127.5,-220.75"/>
<text xml:space="preserve" text-anchor="middle" x="82.75" y="-207.25" font-family="Helvetica,sans-Serif" font-size="10.00">QueueDescriptor</text>
</a>
</g>
</g>
<!-- Node3&#45;&gt;Node2 -->
<g id="edge2_Node000002_Node000003" class="edge">
<title>Node3&#45;&gt;Node2</title>
<g id="a_edge2_Node000002_Node000003"><a xlink:title=" ">
<path fill="none" stroke="#63b8ff" d="M83.34,-189.91C84.15,-161.8 85.61,-111.59 86.33,-86.95"/>
<polygon fill="#63b8ff" stroke="#63b8ff" points="79.85,-189.48 83.06,-199.58 86.85,-189.69 79.85,-189.48"/>
</a>
</g>
</g>
<!-- Node4 -->
<g id="Node000004" class="node">
<title>Node4</title>
<g id="a_Node000004"><a xlink:href="structarmnn_1_1_queue_descriptor_with_parameters.html" target="_top" xlink:title=" ">
<polygon fill="white" stroke="#666666" points="258.75,-164.5 98.75,-164.5 98.75,-134 258.75,-134 258.75,-164.5"/>
<text xml:space="preserve" text-anchor="start" x="106.75" y="-151" font-family="Helvetica,sans-Serif" font-size="10.00">QueueDescriptorWithParameters</text>
<text xml:space="preserve" text-anchor="middle" x="178.75" y="-139.75" font-family="Helvetica,sans-Serif" font-size="10.00">&lt; LayerDescriptor &gt;</text>
</a>
</g>
</g>
<!-- Node3&#45;&gt;Node4 -->
<g id="edge4_Node000004_Node000003" class="edge">
<title>Node3&#45;&gt;Node4</title>
<g id="a_edge4_Node000004_Node000003"><a xlink:title=" ">
<path fill="none" stroke="#63b8ff" d="M106.87,-195.08C121.73,-185.81 140.71,-173.98 155.42,-164.8"/>
<polygon fill="#63b8ff" stroke="#63b8ff" points="105.25,-191.97 98.61,-200.23 108.95,-197.91 105.25,-191.97"/>
</a>
</g>
</g>
<!-- Node4&#45;&gt;Node2 -->
<g id="edge3_Node000002_Node000004" class="edge">
<title>Node4&#45;&gt;Node2</title>
<g id="a_edge3_Node000002_Node000004"><a xlink:title=" ">
<path fill="none" stroke="orange" stroke-dasharray="5,2" d="M152.44,-126.59C137.05,-113.92 118.04,-98.26 104.43,-87.06"/>
<polygon fill="orange" stroke="orange" points="149.9,-129.03 159.84,-132.68 154.35,-123.62 149.9,-129.03"/>
</a>
</g>
<text xml:space="preserve" text-anchor="middle" x="213.26" y="-106.5" font-family="Helvetica,sans-Serif" font-size="10.00" fill="grey"> &lt; ElementwiseBinaryDescriptor &gt;</text>
</g>
</g>
</svg>
