<?xml version="1.0" encoding="UTF-8" standalone="no"?>
<!DOCTYPE svg PUBLIC "-//W3C//DTD SVG 1.1//EN"
 "http://www.w3.org/Graphics/SVG/1.1/DTD/svg11.dtd">
<!-- Generated by graphviz version 14.1.1 (20251213.1925)
 -->
<!-- Title: ReshapeQueueDescriptor Pages: 1 -->
<svg width="342pt" height="239pt"
 viewBox="0.00 0.00 342.00 239.00" xmlns="http://www.w3.org/2000/svg" xmlns:xlink="http://www.w3.org/1999/xlink">
<g id="graph0" class="graph" transform="scale(1 1) rotate(0) translate(4 235)">
<title>ReshapeQueueDescriptor</title>
<!-- Node1 -->
<g id="Node000001" class="node">
<title>Node1</title>
<g id="a_Node000001"><a xlink:title=" ">
<polygon fill="#999999" stroke="#666666" points="162,-19.25 33.5,-19.25 33.5,0 162,0 162,-19.25"/>
<text xml:space="preserve" text-anchor="middle" x="97.75" y="-5.75" font-family="Helvetica,sans-Serif" font-size="10.00">ReshapeQueueDescriptor</text>
</a>
</g>
</g>
<!-- Node2 -->
<g id="Node000002" class="node">
<title>Node2</title>
<g id="a_Node000002"><a xlink:href="structarmnn_1_1_queue_descriptor_with_parameters.html" target="_top" xlink:title=" ">
<polygon fill="white" stroke="#666666" points="177.75,-86.75 17.75,-86.75 17.75,-56.25 177.75,-56.25 177.75,-86.75"/>
<text xml:space="preserve" text-anchor="start" x="25.75" y="-73.25" font-family="Helvetica,sans-Serif" font-size="10.00">QueueDescriptorWithParameters</text>
<text xml:space="preserve" text-anchor="middle" x="97.75" y="-62" font-family="Helvetica,sans-Serif" font-size="10.00">&lt; ReshapeDescriptor &gt;</text>
</a>
</g>
</g>
<!-- Node2&#45;&gt;Node1 -->
<g id="edge1_Node000001_Node000002" class="edge">
<title>Node2&#45;&gt;Node1</title>
<g id="a_edge1_Node000001_Node000002"><a xlink:title=" ">
<path fill="none" stroke="#63b8ff" d="M97.75,-44.77C97.75,-35.79 97.75,-26.29 97.75,-19.6"/>
<polygon fill="#63b8ff" stroke="#63b8ff" points="94.25,-44.49 97.75,-54.49 101.25,-44.49 94.25,-44.49"/>
</a>
</g>
</g>
<!-- Node3 -->
<g id="Node000003" class="node">
<title>Node3</title>
<g id="a_Node000003"><a xlink:href="structarmnn_1_1_queue_descriptor.html" target="_top" xlink:title=" ">
<polygon fill="white" stroke="#666666" points="89.5,-231 0,-231 0,-211.75 89.5,-211.75 89.5,-231"/>
<text xml:space="preserve" text-anchor="middle" x="44.75" y="-217.5" font-family="Helvetica,sans-Serif" font-size="10.00">QueueDescriptor</text>
</a>
</g>
</g>
<!-- Node3&#45;&gt;Node2 -->
<g id="edge2_Node000002_Node000003" class="edge">
<title>Node3&#45;&gt;Node2</title>
<g id="a_edge2_Node000002_Node000003"><a xlink:title=" ">
<path fill="none" stroke="#63b8ff" d="M28.52,-203.07C13.96,-185.34 -3.4,-157.16 8.75,-134 20,-112.54 42.51,-97.1 62.08,-87.05"/>
<polygon fill="#63b8ff" stroke="#63b8ff" points="25.51,-204.94 34.72,-210.17 30.78,-200.33 25.51,-204.94"/>
</a>
</g>
</g>
<!-- Node7 -->
<g id="Node000007" class="node">
<title>Node7</title>
<g id="a_Node000007"><a xlink:href="structarmnn_1_1_queue_descriptor_with_parameters.html" target="_top" xlink:title=" ">
<polygon fill="white" stroke="#666666" points="177.75,-164.5 17.75,-164.5 17.75,-134 177.75,-134 177.75,-164.5"/>
<text xml:space="preserve" text-anchor="start" x="25.75" y="-151" font-family="Helvetica,sans-Serif" font-size="10.00">QueueDescriptorWithParameters</text>
<text xml:space="preserve" text-anchor="middle" x="97.75" y="-139.75" font-family="Helvetica,sans-Serif" font-size="10.00">&lt; LayerDescriptor &gt;</text>
</a>
</g>
</g>
<!-- Node3&#45;&gt;Node7 -->
<g id="edge7_Node000007_Node000003" class="edge">
<title>Node3&#45;&gt;Node7</title>
<g id="a_edge7_Node000007_Node000003"><a xlink:title=" ">
<path fill="none" stroke="#63b8ff" d="M58.4,-202.32C67.18,-190.7 78.44,-175.8 86.66,-164.92"/>
<polygon fill="#63b8ff" stroke="#63b8ff" points="55.61,-200.2 52.38,-210.29 61.2,-204.42 55.61,-200.2"/>
</a>
</g>
</g>
<!-- Node4 -->
<g id="Node000004" class="node">
<title>Node4</title>
<g id="a_Node000004"><a xlink:href="structarmnn_1_1_reshape_descriptor.html" target="_top" xlink:title="A ReshapeDescriptor for the ReshapeLayer.">
<polygon fill="white" stroke="#666666" points="295.75,-158.88 195.75,-158.88 195.75,-139.62 295.75,-139.62 295.75,-158.88"/>
<text xml:space="preserve" text-anchor="middle" x="245.75" y="-145.38" font-family="Helvetica,sans-Serif" font-size="10.00">ReshapeDescriptor</text>
</a>
</g>
</g>
<!-- Node4&#45;&gt;Node2 -->
<g id="edge3_Node000002_Node000004" class="edge">
<title>Node4&#45;&gt;Node2</title>
<g id="a_edge3_Node000002_Node000004"><a xlink:title=" ">
<path fill="none" stroke="#9a32cd" stroke-dasharray="5,2" d="M233.24,-130.1C226.34,-121.32 217.09,-111.29 206.75,-104.75 195.16,-97.42 181.83,-91.69 168.55,-87.24"/>
<polygon fill="#9a32cd" stroke="#9a32cd" points="230.31,-132.03 239.06,-138.02 235.95,-127.89 230.31,-132.03"/>
</a>
</g>
<text xml:space="preserve" text-anchor="middle" x="253.77" y="-106.5" font-family="Helvetica,sans-Serif" font-size="10.00" fill="grey"> m_Parameters</text>
</g>
<!-- Node5 -->
<g id="Node000005" class="node">
<title>Node5</title>
<g id="a_Node000005"><a xlink:href="structarmnn_1_1_base_descriptor.html" target="_top" xlink:title="Base class for all descriptors.">
<polygon fill="white" stroke="#666666" points="218.5,-231 135,-231 135,-211.75 218.5,-211.75 218.5,-231"/>
<text xml:space="preserve" text-anchor="middle" x="176.75" y="-217.5" font-family="Helvetica,sans-Serif" font-size="10.00">BaseDescriptor</text>
</a>
</g>
</g>
<!-- Node5&#45;&gt;Node4 -->
<g id="edge4_Node000004_Node000005" class="edge">
<title>Node5&#45;&gt;Node4</title>
<g id="a_edge4_Node000004_Node000005"><a xlink:title=" ">
<path fill="none" stroke="#63b8ff" d="M193.21,-203.64C206.9,-189.73 225.86,-170.46 236.86,-159.28"/>
<polygon fill="#63b8ff" stroke="#63b8ff" points="191.07,-200.83 186.55,-210.41 196.06,-205.74 191.07,-200.83"/>
</a>
</g>
</g>
<!-- Node6 -->
<g id="Node000006" class="node">
<title>Node6</title>
<g id="a_Node000006"><a xlink:href="classarmnn_1_1_tensor_shape.html" target="_top" xlink:title=" ">
<polygon fill="white" stroke="#666666" points="309.25,-231 236.25,-231 236.25,-211.75 309.25,-211.75 309.25,-231"/>
<text xml:space="preserve" text-anchor="middle" x="272.75" y="-217.5" font-family="Helvetica,sans-Serif" font-size="10.00">TensorShape</text>
</a>
</g>
</g>
<!-- Node6&#45;&gt;Node4 -->
<g id="edge5_Node000004_Node000006" class="edge">
<title>Node6&#45;&gt;Node4</title>
<g id="a_edge5_Node000004_Node000006"><a xlink:title=" ">
<path fill="none" stroke="#9a32cd" stroke-dasharray="5,2" d="M265.22,-200.82C259.99,-187.22 253.25,-169.72 249.23,-159.28"/>
<polygon fill="#9a32cd" stroke="#9a32cd" points="261.93,-202.01 268.79,-210.08 268.46,-199.49 261.93,-202.01"/>
</a>
</g>
<text xml:space="preserve" text-anchor="middle" x="298.09" y="-184.25" font-family="Helvetica,sans-Serif" font-size="10.00" fill="grey"> m_TargetShape</text>
</g>
<!-- Node7&#45;&gt;Node2 -->
<g id="edge6_Node000002_Node000007" class="edge">
<title>Node7&#45;&gt;Node2</title>
<g id="a_edge6_Node000002_Node000007"><a xlink:title=" ">
<path fill="none" stroke="orange" stroke-dasharray="5,2" d="M97.75,-122.22C97.75,-110.46 97.75,-97.01 97.75,-87.06"/>
<polygon fill="orange" stroke="orange" points="94.25,-122.13 97.75,-132.13 101.25,-122.13 94.25,-122.13"/>
</a>
</g>
<text xml:space="preserve" text-anchor="middle" x="150.25" y="-106.5" font-family="Helvetica,sans-Serif" font-size="10.00" fill="grey"> &lt; ReshapeDescriptor &gt;</text>
</g>
</g>
</svg>
