<?xml version="1.0" encoding="UTF-8" standalone="no"?>
<!DOCTYPE svg PUBLIC "-//W3C//DTD SVG 1.1//EN"
 "http://www.w3.org/Graphics/SVG/1.1/DTD/svg11.dtd">
<!-- Generated by graphviz version 2.43.0 (0)
 -->
<!-- Title: src/backends/reference/workloads/DetectionPostProcess.hpp Pages: 1 -->
<svg width="1618pt" height="498pt"
 viewBox="0.00 0.00 1618.00 498.00" xmlns="http://www.w3.org/2000/svg" xmlns:xlink="http://www.w3.org/1999/xlink">
<g id="graph0" class="graph" transform="scale(1 1) rotate(0) translate(4 494)">
<title>src/backends/reference/workloads/DetectionPostProcess.hpp</title>
<polygon fill="white" stroke="transparent" points="-4,4 -4,-494 1614,-494 1614,4 -4,4"/>
<!-- Node1 -->
<g id="node1" class="node">
<title>Node1</title>
<g id="a_node1"><a xlink:title=" ">
<polygon fill="#bfbfbf" stroke="black" points="289,-459.5 289,-489.5 489,-489.5 489,-459.5 289,-459.5"/>
<text text-anchor="start" x="297" y="-477.5" font-family="Helvetica,sans-Serif" font-size="10.00">src/backends/reference</text>
<text text-anchor="middle" x="389" y="-466.5" font-family="Helvetica,sans-Serif" font-size="10.00">/workloads/DetectionPostProcess.hpp</text>
</a>
</g>
</g>
<!-- Node2 -->
<g id="node2" class="node">
<title>Node2</title>
<g id="a_node2"><a xlink:href="_tensor_8hpp.html" target="_top" xlink:title=" ">
<polygon fill="white" stroke="black" points="594.5,-168.5 594.5,-187.5 697.5,-187.5 697.5,-168.5 594.5,-168.5"/>
<text text-anchor="middle" x="646" y="-175.5" font-family="Helvetica,sans-Serif" font-size="10.00">armnn/Tensor.hpp</text>
</a>
</g>
</g>
<!-- Node1&#45;&gt;Node2 -->
<g id="edge1" class="edge">
<title>Node1&#45;&gt;Node2</title>
<path fill="none" stroke="midnightblue" d="M393.65,-459.45C400.38,-437.89 412,-395.21 412,-358 412,-358 412,-358 412,-294.5 412,-217.53 515.06,-191.85 584.39,-183.29"/>
<polygon fill="midnightblue" stroke="midnightblue" points="584.82,-186.76 594.36,-182.14 584.02,-179.81 584.82,-186.76"/>
</g>
<!-- Node20 -->
<g id="node20" class="node">
<title>Node20</title>
<g id="a_node20"><a xlink:title=" ">
<polygon fill="white" stroke="#bfbfbf" points="285.5,-0.5 285.5,-19.5 332.5,-19.5 332.5,-0.5 285.5,-0.5"/>
<text text-anchor="middle" x="309" y="-7.5" font-family="Helvetica,sans-Serif" font-size="10.00">vector</text>
</a>
</g>
</g>
<!-- Node1&#45;&gt;Node20 -->
<g id="edge78" class="edge">
<title>Node1&#45;&gt;Node20</title>
<path fill="none" stroke="midnightblue" d="M288.82,-463.68C173.56,-449.53 0,-418.23 0,-358 0,-358 0,-358 0,-121 0,-63.1 195.01,-27.77 275.19,-15.69"/>
<polygon fill="midnightblue" stroke="midnightblue" points="275.88,-19.13 285.27,-14.21 274.86,-12.2 275.88,-19.13"/>
</g>
<!-- Node24 -->
<g id="node24" class="node">
<title>Node24</title>
<g id="a_node24"><a xlink:href="_descriptors_8hpp.html" target="_top" xlink:title=" ">
<polygon fill="white" stroke="black" points="256,-224.5 256,-243.5 384,-243.5 384,-224.5 256,-224.5"/>
<text text-anchor="middle" x="320" y="-231.5" font-family="Helvetica,sans-Serif" font-size="10.00">armnn/Descriptors.hpp</text>
</a>
</g>
</g>
<!-- Node1&#45;&gt;Node24 -->
<g id="edge29" class="edge">
<title>Node1&#45;&gt;Node24</title>
<path fill="none" stroke="midnightblue" d="M384.89,-459.29C373.04,-418.35 338.82,-300.05 325.45,-253.83"/>
<polygon fill="midnightblue" stroke="midnightblue" points="328.73,-252.58 322.59,-243.95 322.01,-254.52 328.73,-252.58"/>
</g>
<!-- Node28 -->
<g id="node28" class="node">
<title>Node28</title>
<g id="a_node28"><a xlink:href="_decoders_8hpp.html" target="_top" xlink:title=" ">
<polygon fill="white" stroke="black" points="1043.5,-403.5 1043.5,-422.5 1126.5,-422.5 1126.5,-403.5 1043.5,-403.5"/>
<text text-anchor="middle" x="1085" y="-410.5" font-family="Helvetica,sans-Serif" font-size="10.00">Decoders.hpp</text>
</a>
</g>
</g>
<!-- Node1&#45;&gt;Node28 -->
<g id="edge39" class="edge">
<title>Node1&#45;&gt;Node28</title>
<path fill="none" stroke="midnightblue" d="M489.09,-464.94C639.38,-452.1 917.97,-428.28 1033.12,-418.43"/>
<polygon fill="midnightblue" stroke="midnightblue" points="1033.75,-421.89 1043.42,-417.55 1033.16,-414.92 1033.75,-421.89"/>
</g>
<!-- Node3 -->
<g id="node3" class="node">
<title>Node3</title>
<g id="a_node3"><a xlink:href="_exceptions_8hpp.html" target="_top" xlink:title=" ">
<polygon fill="white" stroke="black" points="547.5,-56.5 547.5,-75.5 638.5,-75.5 638.5,-56.5 547.5,-56.5"/>
<text text-anchor="middle" x="593" y="-63.5" font-family="Helvetica,sans-Serif" font-size="10.00">Exceptions.hpp</text>
</a>
</g>
</g>
<!-- Node2&#45;&gt;Node3 -->
<g id="edge2" class="edge">
<title>Node2&#45;&gt;Node3</title>
<path fill="none" stroke="midnightblue" d="M647.47,-168.07C649.18,-155.04 650.75,-130.37 642,-112 636.24,-99.9 625.63,-89.53 615.76,-81.8"/>
<polygon fill="midnightblue" stroke="midnightblue" points="617.55,-78.78 607.41,-75.71 613.43,-84.43 617.55,-78.78"/>
</g>
<!-- Node7 -->
<g id="node7" class="node">
<title>Node7</title>
<g id="a_node7"><a xlink:href="_optional_8hpp.html" target="_top" xlink:title=" ">
<polygon fill="white" stroke="black" points="930.5,-112.5 930.5,-131.5 1009.5,-131.5 1009.5,-112.5 930.5,-112.5"/>
<text text-anchor="middle" x="970" y="-119.5" font-family="Helvetica,sans-Serif" font-size="10.00">Optional.hpp</text>
</a>
</g>
</g>
<!-- Node2&#45;&gt;Node7 -->
<g id="edge6" class="edge">
<title>Node2&#45;&gt;Node7</title>
<path fill="none" stroke="midnightblue" d="M697.34,-168.44C758.4,-158.27 859.64,-141.39 920.07,-131.32"/>
<polygon fill="midnightblue" stroke="midnightblue" points="920.85,-134.74 930.14,-129.64 919.7,-127.84 920.85,-134.74"/>
</g>
<!-- Node10 -->
<g id="node10" class="node">
<title>Node10</title>
<g id="a_node10"><a xlink:href="_types_8hpp.html" target="_top" xlink:title=" ">
<polygon fill="white" stroke="black" points="694.5,-112.5 694.5,-131.5 759.5,-131.5 759.5,-112.5 694.5,-112.5"/>
<text text-anchor="middle" x="727" y="-119.5" font-family="Helvetica,sans-Serif" font-size="10.00">Types.hpp</text>
</a>
</g>
</g>
<!-- Node2&#45;&gt;Node10 -->
<g id="edge10" class="edge">
<title>Node2&#45;&gt;Node10</title>
<path fill="none" stroke="midnightblue" d="M659.01,-168.32C671.53,-159.98 690.68,-147.21 705.47,-137.35"/>
<polygon fill="midnightblue" stroke="midnightblue" points="707.64,-140.11 714.02,-131.65 703.76,-134.29 707.64,-140.11"/>
</g>
<!-- Node11 -->
<g id="node11" class="node">
<title>Node11</title>
<g id="a_node11"><a xlink:title=" ">
<polygon fill="white" stroke="#bfbfbf" points="487,-56.5 487,-75.5 529,-75.5 529,-56.5 487,-56.5"/>
<text text-anchor="middle" x="508" y="-63.5" font-family="Helvetica,sans-Serif" font-size="10.00">array</text>
</a>
</g>
</g>
<!-- Node2&#45;&gt;Node11 -->
<g id="edge25" class="edge">
<title>Node2&#45;&gt;Node11</title>
<path fill="none" stroke="midnightblue" d="M642.92,-168.28C637.69,-154.62 625.89,-128.08 608,-112 597.25,-102.34 564.07,-88.3 538.85,-78.49"/>
<polygon fill="midnightblue" stroke="midnightblue" points="539.89,-75.14 529.3,-74.82 537.38,-81.67 539.89,-75.14"/>
</g>
<!-- Node13 -->
<g id="node13" class="node">
<title>Node13</title>
<g id="a_node13"><a xlink:title=" ">
<polygon fill="white" stroke="#bfbfbf" points="913.5,-56.5 913.5,-75.5 966.5,-75.5 966.5,-56.5 913.5,-56.5"/>
<text text-anchor="middle" x="940" y="-63.5" font-family="Helvetica,sans-Serif" font-size="10.00">stdint.h</text>
</a>
</g>
</g>
<!-- Node2&#45;&gt;Node13 -->
<g id="edge24" class="edge">
<title>Node2&#45;&gt;Node13</title>
<path fill="none" stroke="midnightblue" d="M669.41,-168.43C693.98,-159.41 733.74,-144.79 768,-132 816.86,-113.76 873.41,-92.33 907.93,-79.21"/>
<polygon fill="midnightblue" stroke="midnightblue" points="909.38,-82.4 917.48,-75.57 906.89,-75.86 909.38,-82.4"/>
</g>
<!-- Node2&#45;&gt;Node20 -->
<g id="edge27" class="edge">
<title>Node2&#45;&gt;Node20</title>
<path fill="none" stroke="midnightblue" d="M600.58,-168.45C542.12,-155.79 439.36,-127.77 366,-76 347.49,-62.94 330.99,-42.68 320.57,-28.26"/>
<polygon fill="midnightblue" stroke="midnightblue" points="323.23,-25.95 314.64,-19.75 317.49,-29.96 323.23,-25.95"/>
</g>
<!-- Node22 -->
<g id="node22" class="node">
<title>Node22</title>
<g id="a_node22"><a xlink:title=" ">
<polygon fill="white" stroke="#bfbfbf" points="516.5,-112.5 516.5,-131.5 599.5,-131.5 599.5,-112.5 516.5,-112.5"/>
<text text-anchor="middle" x="558" y="-119.5" font-family="Helvetica,sans-Serif" font-size="10.00">initializer_list</text>
</a>
</g>
</g>
<!-- Node2&#45;&gt;Node22 -->
<g id="edge26" class="edge">
<title>Node2&#45;&gt;Node22</title>
<path fill="none" stroke="midnightblue" d="M631.86,-168.32C618.13,-159.9 597.06,-146.97 580.94,-137.07"/>
<polygon fill="midnightblue" stroke="midnightblue" points="582.46,-133.9 572.1,-131.65 578.8,-139.87 582.46,-133.9"/>
</g>
<!-- Node23 -->
<g id="node23" class="node">
<title>Node23</title>
<g id="a_node23"><a xlink:title=" ">
<polygon fill="white" stroke="#bfbfbf" points="338.5,-112.5 338.5,-131.5 383.5,-131.5 383.5,-112.5 338.5,-112.5"/>
<text text-anchor="middle" x="361" y="-119.5" font-family="Helvetica,sans-Serif" font-size="10.00">utility</text>
</a>
</g>
</g>
<!-- Node2&#45;&gt;Node23 -->
<g id="edge28" class="edge">
<title>Node2&#45;&gt;Node23</title>
<path fill="none" stroke="midnightblue" d="M600.84,-168.44C543.25,-157.53 445.04,-138.92 393.99,-129.25"/>
<polygon fill="midnightblue" stroke="midnightblue" points="394.33,-125.75 383.85,-127.33 393.02,-132.63 394.33,-125.75"/>
</g>
<!-- Node4 -->
<g id="node4" class="node">
<title>Node4</title>
<g id="a_node4"><a xlink:title=" ">
<polygon fill="white" stroke="#bfbfbf" points="493,-0.5 493,-19.5 549,-19.5 549,-0.5 493,-0.5"/>
<text text-anchor="middle" x="521" y="-7.5" font-family="Helvetica,sans-Serif" font-size="10.00">sstream</text>
</a>
</g>
</g>
<!-- Node3&#45;&gt;Node4 -->
<g id="edge3" class="edge">
<title>Node3&#45;&gt;Node4</title>
<path fill="none" stroke="midnightblue" d="M581.43,-56.32C570.58,-48.18 554.12,-35.84 541.12,-26.09"/>
<polygon fill="midnightblue" stroke="midnightblue" points="542.88,-23.03 532.78,-19.83 538.68,-28.63 542.88,-23.03"/>
</g>
<!-- Node5 -->
<g id="node5" class="node">
<title>Node5</title>
<g id="a_node5"><a xlink:title=" ">
<polygon fill="white" stroke="#bfbfbf" points="567.5,-0.5 567.5,-19.5 632.5,-19.5 632.5,-0.5 567.5,-0.5"/>
<text text-anchor="middle" x="600" y="-7.5" font-family="Helvetica,sans-Serif" font-size="10.00">stdexcept</text>
</a>
</g>
</g>
<!-- Node3&#45;&gt;Node5 -->
<g id="edge4" class="edge">
<title>Node3&#45;&gt;Node5</title>
<path fill="none" stroke="midnightblue" d="M594.16,-56.08C595.08,-48.93 596.42,-38.64 597.58,-29.69"/>
<polygon fill="midnightblue" stroke="midnightblue" points="601.05,-30.12 598.87,-19.75 594.11,-29.22 601.05,-30.12"/>
</g>
<!-- Node6 -->
<g id="node6" class="node">
<title>Node6</title>
<g id="a_node6"><a xlink:title=" ">
<polygon fill="white" stroke="#bfbfbf" points="685,-0.5 685,-19.5 729,-19.5 729,-0.5 685,-0.5"/>
<text text-anchor="middle" x="707" y="-7.5" font-family="Helvetica,sans-Serif" font-size="10.00">string</text>
</a>
</g>
</g>
<!-- Node3&#45;&gt;Node6 -->
<g id="edge5" class="edge">
<title>Node3&#45;&gt;Node6</title>
<path fill="none" stroke="midnightblue" d="M611.06,-56.44C629.57,-47.68 658.58,-33.94 679.86,-23.86"/>
<polygon fill="midnightblue" stroke="midnightblue" points="681.48,-26.96 689.02,-19.52 678.49,-20.63 681.48,-26.96"/>
</g>
<!-- Node7&#45;&gt;Node3 -->
<g id="edge7" class="edge">
<title>Node7&#45;&gt;Node3</title>
<path fill="none" stroke="midnightblue" d="M930.17,-115.8C870.99,-108 756.09,-92.55 648.69,-76.23"/>
<polygon fill="midnightblue" stroke="midnightblue" points="649.06,-72.75 638.65,-74.7 648.01,-79.67 649.06,-72.75"/>
</g>
<!-- Node8 -->
<g id="node8" class="node">
<title>Node8</title>
<g id="a_node8"><a xlink:title=" ">
<polygon fill="white" stroke="#bfbfbf" points="985,-56.5 985,-75.5 1035,-75.5 1035,-56.5 985,-56.5"/>
<text text-anchor="middle" x="1010" y="-63.5" font-family="Helvetica,sans-Serif" font-size="10.00">cstring</text>
</a>
</g>
</g>
<!-- Node7&#45;&gt;Node8 -->
<g id="edge8" class="edge">
<title>Node7&#45;&gt;Node8</title>
<path fill="none" stroke="midnightblue" d="M976.61,-112.08C982.26,-104.46 990.54,-93.26 997.45,-83.94"/>
<polygon fill="midnightblue" stroke="midnightblue" points="1000.38,-85.87 1003.52,-75.75 994.75,-81.7 1000.38,-85.87"/>
</g>
<!-- Node9 -->
<g id="node9" class="node">
<title>Node9</title>
<g id="a_node9"><a xlink:title=" ">
<polygon fill="white" stroke="#bfbfbf" points="1327.5,-56.5 1327.5,-75.5 1396.5,-75.5 1396.5,-56.5 1327.5,-56.5"/>
<text text-anchor="middle" x="1362" y="-63.5" font-family="Helvetica,sans-Serif" font-size="10.00">type_traits</text>
</a>
</g>
</g>
<!-- Node7&#45;&gt;Node9 -->
<g id="edge9" class="edge">
<title>Node7&#45;&gt;Node9</title>
<path fill="none" stroke="midnightblue" d="M1009.54,-116.84C1072.47,-110.01 1199.49,-95.39 1317.53,-75.96"/>
<polygon fill="midnightblue" stroke="midnightblue" points="1318.17,-79.41 1327.46,-74.31 1317.02,-72.5 1318.17,-79.41"/>
</g>
<!-- Node10&#45;&gt;Node3 -->
<g id="edge22" class="edge">
<title>Node10&#45;&gt;Node3</title>
<path fill="none" stroke="midnightblue" d="M705.77,-112.44C683.62,-103.52 648.68,-89.44 623.56,-79.32"/>
<polygon fill="midnightblue" stroke="midnightblue" points="624.72,-76.01 614.13,-75.52 622.1,-82.5 624.72,-76.01"/>
</g>
<!-- Node10&#45;&gt;Node11 -->
<g id="edge11" class="edge">
<title>Node10&#45;&gt;Node11</title>
<path fill="none" stroke="midnightblue" d="M694.42,-113.84C658.63,-105.85 599.25,-92.2 539.28,-76.23"/>
<polygon fill="midnightblue" stroke="midnightblue" points="539.83,-72.76 529.26,-73.54 538.01,-79.52 539.83,-72.76"/>
</g>
<!-- Node12 -->
<g id="node12" class="node">
<title>Node12</title>
<g id="a_node12"><a xlink:title=" ">
<polygon fill="white" stroke="#bfbfbf" points="656.5,-56.5 656.5,-75.5 721.5,-75.5 721.5,-56.5 656.5,-56.5"/>
<text text-anchor="middle" x="689" y="-63.5" font-family="Helvetica,sans-Serif" font-size="10.00">functional</text>
</a>
</g>
</g>
<!-- Node10&#45;&gt;Node12 -->
<g id="edge12" class="edge">
<title>Node10&#45;&gt;Node12</title>
<path fill="none" stroke="midnightblue" d="M720.73,-112.08C715.36,-104.46 707.48,-93.26 700.92,-83.94"/>
<polygon fill="midnightblue" stroke="midnightblue" points="703.78,-81.91 695.16,-75.75 698.05,-85.94 703.78,-81.91"/>
</g>
<!-- Node10&#45;&gt;Node13 -->
<g id="edge13" class="edge">
<title>Node10&#45;&gt;Node13</title>
<path fill="none" stroke="midnightblue" d="M759.82,-112.75C793.52,-104.26 847.76,-90.58 903.25,-76.44"/>
<polygon fill="midnightblue" stroke="midnightblue" points="904.42,-79.75 913.25,-73.89 902.7,-72.97 904.42,-79.75"/>
</g>
<!-- Node14 -->
<g id="node14" class="node">
<title>Node14</title>
<g id="a_node14"><a xlink:title=" ">
<polygon fill="white" stroke="#bfbfbf" points="740,-56.5 740,-75.5 790,-75.5 790,-56.5 740,-56.5"/>
<text text-anchor="middle" x="765" y="-63.5" font-family="Helvetica,sans-Serif" font-size="10.00">chrono</text>
</a>
</g>
</g>
<!-- Node10&#45;&gt;Node14 -->
<g id="edge14" class="edge">
<title>Node10&#45;&gt;Node14</title>
<path fill="none" stroke="midnightblue" d="M733.27,-112.08C738.64,-104.46 746.52,-93.26 753.08,-83.94"/>
<polygon fill="midnightblue" stroke="midnightblue" points="755.95,-85.94 758.84,-75.75 750.22,-81.91 755.95,-85.94"/>
</g>
<!-- Node15 -->
<g id="node15" class="node">
<title>Node15</title>
<g id="a_node15"><a xlink:href="_backend_id_8hpp.html" target="_top" xlink:title=" ">
<polygon fill="white" stroke="black" points="808,-56.5 808,-75.5 896,-75.5 896,-56.5 808,-56.5"/>
<text text-anchor="middle" x="852" y="-63.5" font-family="Helvetica,sans-Serif" font-size="10.00">BackendId.hpp</text>
</a>
</g>
</g>
<!-- Node10&#45;&gt;Node15 -->
<g id="edge15" class="edge">
<title>Node10&#45;&gt;Node15</title>
<path fill="none" stroke="midnightblue" d="M746.81,-112.44C767.29,-103.6 799.48,-89.69 822.86,-79.59"/>
<polygon fill="midnightblue" stroke="midnightblue" points="824.49,-82.7 832.29,-75.52 821.72,-76.27 824.49,-82.7"/>
</g>
<!-- Node21 -->
<g id="node21" class="node">
<title>Node21</title>
<g id="a_node21"><a xlink:href="_deprecated_8hpp.html" target="_top" xlink:title=" ">
<polygon fill="white" stroke="black" points="375,-56.5 375,-75.5 469,-75.5 469,-56.5 375,-56.5"/>
<text text-anchor="middle" x="422" y="-63.5" font-family="Helvetica,sans-Serif" font-size="10.00">Deprecated.hpp</text>
</a>
</g>
</g>
<!-- Node10&#45;&gt;Node21 -->
<g id="edge23" class="edge">
<title>Node10&#45;&gt;Node21</title>
<path fill="none" stroke="midnightblue" d="M694.36,-115.22C642.94,-106.12 542.41,-88.32 478.91,-77.08"/>
<polygon fill="midnightblue" stroke="midnightblue" points="479.51,-73.63 469.06,-75.33 478.29,-80.52 479.51,-73.63"/>
</g>
<!-- Node15&#45;&gt;Node6 -->
<g id="edge19" class="edge">
<title>Node15&#45;&gt;Node6</title>
<path fill="none" stroke="midnightblue" d="M829.02,-56.44C804.7,-47.39 766.13,-33.02 738.87,-22.87"/>
<polygon fill="midnightblue" stroke="midnightblue" points="739.98,-19.55 729.39,-19.34 737.54,-26.11 739.98,-19.55"/>
</g>
<!-- Node16 -->
<g id="node16" class="node">
<title>Node16</title>
<g id="a_node16"><a xlink:title=" ">
<polygon fill="white" stroke="#bfbfbf" points="760,-0.5 760,-19.5 818,-19.5 818,-0.5 760,-0.5"/>
<text text-anchor="middle" x="789" y="-7.5" font-family="Helvetica,sans-Serif" font-size="10.00">memory</text>
</a>
</g>
</g>
<!-- Node15&#45;&gt;Node16 -->
<g id="edge16" class="edge">
<title>Node15&#45;&gt;Node16</title>
<path fill="none" stroke="midnightblue" d="M841.88,-56.32C832.47,-48.26 818.26,-36.08 806.93,-26.37"/>
<polygon fill="midnightblue" stroke="midnightblue" points="809.18,-23.68 799.31,-19.83 804.62,-29 809.18,-23.68"/>
</g>
<!-- Node17 -->
<g id="node17" class="node">
<title>Node17</title>
<g id="a_node17"><a xlink:title=" ">
<polygon fill="white" stroke="#bfbfbf" points="1072.5,-0.5 1072.5,-19.5 1129.5,-19.5 1129.5,-0.5 1072.5,-0.5"/>
<text text-anchor="middle" x="1101" y="-7.5" font-family="Helvetica,sans-Serif" font-size="10.00">ostream</text>
</a>
</g>
</g>
<!-- Node15&#45;&gt;Node17 -->
<g id="edge17" class="edge">
<title>Node15&#45;&gt;Node17</title>
<path fill="none" stroke="midnightblue" d="M891.45,-56.44C938.24,-46.3 1015.73,-29.49 1062.22,-19.41"/>
<polygon fill="midnightblue" stroke="midnightblue" points="1063.18,-22.78 1072.21,-17.24 1061.69,-15.94 1063.18,-22.78"/>
</g>
<!-- Node18 -->
<g id="node18" class="node">
<title>Node18</title>
<g id="a_node18"><a xlink:title=" ">
<polygon fill="white" stroke="#bfbfbf" points="968,-0.5 968,-19.5 1000,-19.5 1000,-0.5 968,-0.5"/>
<text text-anchor="middle" x="984" y="-7.5" font-family="Helvetica,sans-Serif" font-size="10.00">set</text>
</a>
</g>
</g>
<!-- Node15&#45;&gt;Node18 -->
<g id="edge18" class="edge">
<title>Node15&#45;&gt;Node18</title>
<path fill="none" stroke="midnightblue" d="M872.92,-56.44C896.05,-46.98 933.32,-31.73 958.24,-21.54"/>
<polygon fill="midnightblue" stroke="midnightblue" points="959.83,-24.67 967.76,-17.64 957.18,-18.19 959.83,-24.67"/>
</g>
<!-- Node19 -->
<g id="node19" class="node">
<title>Node19</title>
<g id="a_node19"><a xlink:title=" ">
<polygon fill="white" stroke="#bfbfbf" points="836,-0.5 836,-19.5 922,-19.5 922,-0.5 836,-0.5"/>
<text text-anchor="middle" x="879" y="-7.5" font-family="Helvetica,sans-Serif" font-size="10.00">unordered_set</text>
</a>
</g>
</g>
<!-- Node15&#45;&gt;Node19 -->
<g id="edge20" class="edge">
<title>Node15&#45;&gt;Node19</title>
<path fill="none" stroke="midnightblue" d="M856.46,-56.08C860.15,-48.69 865.52,-37.95 870.09,-28.81"/>
<polygon fill="midnightblue" stroke="midnightblue" points="873.28,-30.26 874.62,-19.75 867.02,-27.13 873.28,-30.26"/>
</g>
<!-- Node15&#45;&gt;Node20 -->
<g id="edge21" class="edge">
<title>Node15&#45;&gt;Node20</title>
<path fill="none" stroke="midnightblue" d="M807.79,-57.23C804.82,-56.79 801.87,-56.37 799,-56 628.3,-33.7 422.71,-18.62 342.93,-13.22"/>
<polygon fill="midnightblue" stroke="midnightblue" points="342.74,-9.7 332.53,-12.52 342.27,-16.68 342.74,-9.7"/>
</g>
<!-- Node24&#45;&gt;Node2 -->
<g id="edge32" class="edge">
<title>Node24&#45;&gt;Node2</title>
<path fill="none" stroke="midnightblue" d="M371.66,-224.44C429.48,-214.87 523.11,-199.36 584.62,-189.17"/>
<polygon fill="midnightblue" stroke="midnightblue" points="585.29,-192.6 594.59,-187.52 584.15,-185.7 585.29,-192.6"/>
</g>
<!-- Node24&#45;&gt;Node3 -->
<g id="edge34" class="edge">
<title>Node24&#45;&gt;Node3</title>
<path fill="none" stroke="midnightblue" d="M332.45,-224.37C362.11,-203.94 439.53,-151.37 507,-112 526.47,-100.64 549.07,-88.87 566.21,-80.21"/>
<polygon fill="midnightblue" stroke="midnightblue" points="568.24,-83.11 575.61,-75.51 565.1,-76.85 568.24,-83.11"/>
</g>
<!-- Node24&#45;&gt;Node10 -->
<g id="edge33" class="edge">
<title>Node24&#45;&gt;Node10</title>
<path fill="none" stroke="midnightblue" d="M356.36,-224.45C393.18,-215.69 451.7,-201.48 502,-188 567.95,-170.33 644.19,-147.87 688.84,-134.51"/>
<polygon fill="midnightblue" stroke="midnightblue" points="690.11,-137.79 698.68,-131.56 688.1,-131.08 690.11,-137.79"/>
</g>
<!-- Node24&#45;&gt;Node20 -->
<g id="edge38" class="edge">
<title>Node24&#45;&gt;Node20</title>
<path fill="none" stroke="midnightblue" d="M255.55,-226.35C206.46,-219.8 144.7,-207.83 129,-188 75.04,-119.86 212.71,-51.07 277.49,-23.53"/>
<polygon fill="midnightblue" stroke="midnightblue" points="278.97,-26.7 286.85,-19.62 276.27,-20.24 278.97,-26.7"/>
</g>
<!-- Node24&#45;&gt;Node21 -->
<g id="edge30" class="edge">
<title>Node24&#45;&gt;Node21</title>
<path fill="none" stroke="midnightblue" d="M322.23,-224.45C324.46,-215.45 327.73,-200.84 329,-188 329,-188 329,-112 329,-112 338.88,-96.25 356,-85.87 372.89,-79.11"/>
<polygon fill="midnightblue" stroke="midnightblue" points="374.54,-82.23 382.75,-75.52 372.15,-75.65 374.54,-82.23"/>
</g>
<!-- Node24&#45;&gt;Node23 -->
<g id="edge37" class="edge">
<title>Node24&#45;&gt;Node23</title>
<path fill="none" stroke="midnightblue" d="M332.21,-224.24C342.35,-216.14 356.04,-203.11 362,-188 367.82,-173.23 366.94,-155.08 364.97,-141.71"/>
<polygon fill="midnightblue" stroke="midnightblue" points="368.4,-141.01 363.18,-131.79 361.51,-142.25 368.4,-141.01"/>
</g>
<!-- Node25 -->
<g id="node25" class="node">
<title>Node25</title>
<g id="a_node25"><a xlink:href="_descriptors_fwd_8hpp.html" target="_top" xlink:title=" ">
<polygon fill="white" stroke="black" points="138.5,-168.5 138.5,-187.5 251.5,-187.5 251.5,-168.5 138.5,-168.5"/>
<text text-anchor="middle" x="195" y="-175.5" font-family="Helvetica,sans-Serif" font-size="10.00">DescriptorsFwd.hpp</text>
</a>
</g>
</g>
<!-- Node24&#45;&gt;Node25 -->
<g id="edge31" class="edge">
<title>Node24&#45;&gt;Node25</title>
<path fill="none" stroke="midnightblue" d="M300.19,-224.44C279.71,-215.6 247.52,-201.69 224.14,-191.59"/>
<polygon fill="midnightblue" stroke="midnightblue" points="225.28,-188.27 214.71,-187.52 222.51,-194.7 225.28,-188.27"/>
</g>
<!-- Node26 -->
<g id="node26" class="node">
<title>Node26</title>
<g id="a_node26"><a xlink:title=" ">
<polygon fill="white" stroke="#bfbfbf" points="270,-168.5 270,-187.5 320,-187.5 320,-168.5 270,-168.5"/>
<text text-anchor="middle" x="295" y="-175.5" font-family="Helvetica,sans-Serif" font-size="10.00">cstdint</text>
</a>
</g>
</g>
<!-- Node24&#45;&gt;Node26 -->
<g id="edge35" class="edge">
<title>Node24&#45;&gt;Node26</title>
<path fill="none" stroke="midnightblue" d="M315.87,-224.08C312.49,-216.77 307.58,-206.18 303.38,-197.1"/>
<polygon fill="midnightblue" stroke="midnightblue" points="306.43,-195.36 299.05,-187.75 300.08,-198.3 306.43,-195.36"/>
</g>
<!-- Node27 -->
<g id="node27" class="node">
<title>Node27</title>
<g id="a_node27"><a xlink:title=" ">
<polygon fill="white" stroke="#bfbfbf" points="28.5,-168.5 28.5,-187.5 81.5,-187.5 81.5,-168.5 28.5,-168.5"/>
<text text-anchor="middle" x="55" y="-175.5" font-family="Helvetica,sans-Serif" font-size="10.00">iterator</text>
</a>
</g>
</g>
<!-- Node24&#45;&gt;Node27 -->
<g id="edge36" class="edge">
<title>Node24&#45;&gt;Node27</title>
<path fill="none" stroke="midnightblue" d="M276.17,-224.44C230.98,-215.55 158.5,-201.14 96,-188 94.72,-187.73 93.41,-187.45 92.09,-187.17"/>
<polygon fill="midnightblue" stroke="midnightblue" points="92.4,-183.66 81.89,-184.97 90.93,-190.5 92.4,-183.66"/>
</g>
<!-- Node29 -->
<g id="node29" class="node">
<title>Node29</title>
<g id="a_node29"><a xlink:href="_base_iterator_8hpp.html" target="_top" xlink:title=" ">
<polygon fill="white" stroke="black" points="1173.5,-347.5 1173.5,-366.5 1270.5,-366.5 1270.5,-347.5 1173.5,-347.5"/>
<text text-anchor="middle" x="1222" y="-354.5" font-family="Helvetica,sans-Serif" font-size="10.00">BaseIterator.hpp</text>
</a>
</g>
</g>
<!-- Node28&#45;&gt;Node29 -->
<g id="edge40" class="edge">
<title>Node28&#45;&gt;Node29</title>
<path fill="none" stroke="midnightblue" d="M1106.71,-403.44C1129.35,-394.52 1165.07,-380.44 1190.75,-370.32"/>
<polygon fill="midnightblue" stroke="midnightblue" points="1192.37,-373.44 1200.39,-366.52 1189.81,-366.93 1192.37,-373.44"/>
</g>
<!-- Node36 -->
<g id="node36" class="node">
<title>Node36</title>
<g id="a_node36"><a xlink:href="_floating_point_converter_8hpp.html" target="_top" xlink:title=" ">
<polygon fill="white" stroke="black" points="1472,-280.5 1472,-310.5 1610,-310.5 1610,-280.5 1472,-280.5"/>
<text text-anchor="start" x="1480" y="-298.5" font-family="Helvetica,sans-Serif" font-size="10.00">armnnUtils/FloatingPoint</text>
<text text-anchor="middle" x="1541" y="-287.5" font-family="Helvetica,sans-Serif" font-size="10.00">Converter.hpp</text>
</a>
</g>
</g>
<!-- Node28&#45;&gt;Node36 -->
<g id="edge76" class="edge">
<title>Node28&#45;&gt;Node36</title>
<path fill="none" stroke="midnightblue" d="M1123.74,-403.43C1162.97,-394.66 1225.34,-380.44 1279,-367 1348.54,-349.58 1428,-327.96 1481,-313.28"/>
<polygon fill="midnightblue" stroke="midnightblue" points="1482.21,-316.58 1490.91,-310.54 1480.34,-309.84 1482.21,-316.58"/>
</g>
<!-- Node38 -->
<g id="node38" class="node">
<title>Node38</title>
<g id="a_node38"><a xlink:href="_tensor_utils_8hpp.html" target="_top" xlink:title=" ">
<polygon fill="white" stroke="black" points="652.5,-286 652.5,-305 801.5,-305 801.5,-286 652.5,-286"/>
<text text-anchor="middle" x="727" y="-293" font-family="Helvetica,sans-Serif" font-size="10.00">armnnUtils/TensorUtils.hpp</text>
</a>
</g>
</g>
<!-- Node28&#45;&gt;Node38 -->
<g id="edge77" class="edge">
<title>Node28&#45;&gt;Node38</title>
<path fill="none" stroke="midnightblue" d="M1058.38,-403.41C995.08,-382.99 835.48,-331.5 763.37,-308.23"/>
<polygon fill="midnightblue" stroke="midnightblue" points="764.38,-304.88 753.79,-305.14 762.23,-311.54 764.38,-304.88"/>
</g>
<!-- Node30 -->
<g id="node30" class="node">
<title>Node30</title>
<g id="a_node30"><a xlink:href="_types_utils_8hpp.html" target="_top" xlink:title=" ">
<polygon fill="white" stroke="black" points="841,-224.5 841,-243.5 963,-243.5 963,-224.5 841,-224.5"/>
<text text-anchor="middle" x="902" y="-231.5" font-family="Helvetica,sans-Serif" font-size="10.00">armnn/TypesUtils.hpp</text>
</a>
</g>
</g>
<!-- Node29&#45;&gt;Node30 -->
<g id="edge41" class="edge">
<title>Node29&#45;&gt;Node30</title>
<path fill="none" stroke="midnightblue" d="M1199.5,-347.49C1143.86,-326.45 999.65,-271.92 934.63,-247.34"/>
<polygon fill="midnightblue" stroke="midnightblue" points="935.5,-243.92 924.91,-243.66 933.02,-250.47 935.5,-243.92"/>
</g>
<!-- Node32 -->
<g id="node32" class="node">
<title>Node32</title>
<g id="a_node32"><a xlink:href="_assert_8hpp.html" target="_top" xlink:title=" ">
<polygon fill="white" stroke="black" points="1394,-224.5 1394,-243.5 1528,-243.5 1528,-224.5 1394,-224.5"/>
<text text-anchor="middle" x="1461" y="-231.5" font-family="Helvetica,sans-Serif" font-size="10.00">armnn/utility/Assert.hpp</text>
</a>
</g>
</g>
<!-- Node29&#45;&gt;Node32 -->
<g id="edge51" class="edge">
<title>Node29&#45;&gt;Node32</title>
<path fill="none" stroke="midnightblue" d="M1270.94,-350.15C1323.17,-343.06 1401.58,-329.68 1425,-311 1442.98,-296.66 1452.46,-271.2 1457.1,-253.73"/>
<polygon fill="midnightblue" stroke="midnightblue" points="1460.6,-254.13 1459.48,-243.6 1453.78,-252.53 1460.6,-254.13"/>
</g>
<!-- Node34 -->
<g id="node34" class="node">
<title>Node34</title>
<g id="a_node34"><a xlink:href="_numeric_cast_8hpp.html" target="_top" xlink:title=" ">
<polygon fill="white" stroke="black" points="1249.5,-286 1249.5,-305 1416.5,-305 1416.5,-286 1249.5,-286"/>
<text text-anchor="middle" x="1333" y="-293" font-family="Helvetica,sans-Serif" font-size="10.00">armnn/utility/NumericCast.hpp</text>
</a>
</g>
</g>
<!-- Node29&#45;&gt;Node34 -->
<g id="edge53" class="edge">
<title>Node29&#45;&gt;Node34</title>
<path fill="none" stroke="midnightblue" d="M1237.9,-347.48C1256.28,-337.62 1286.76,-321.29 1308.24,-309.77"/>
<polygon fill="midnightblue" stroke="midnightblue" points="1309.97,-312.82 1317.13,-305.01 1306.66,-306.65 1309.97,-312.82"/>
</g>
<!-- Node29&#45;&gt;Node36 -->
<g id="edge57" class="edge">
<title>Node29&#45;&gt;Node36</title>
<path fill="none" stroke="midnightblue" d="M1267.7,-347.48C1318.29,-338.04 1400.75,-322.66 1461.88,-311.26"/>
<polygon fill="midnightblue" stroke="midnightblue" points="1462.7,-314.67 1471.89,-309.39 1461.41,-307.78 1462.7,-314.67"/>
</g>
<!-- Node29&#45;&gt;Node38 -->
<g id="edge59" class="edge">
<title>Node29&#45;&gt;Node38</title>
<path fill="none" stroke="midnightblue" d="M1173.18,-350.13C1088.09,-339.9 911.79,-318.71 808.09,-306.25"/>
<polygon fill="midnightblue" stroke="midnightblue" points="808.33,-302.75 797.98,-305.03 807.49,-309.7 808.33,-302.75"/>
</g>
<!-- Node39 -->
<g id="node39" class="node">
<title>Node39</title>
<g id="a_node39"><a xlink:href="_resolve_type_8hpp.html" target="_top" xlink:title=" ">
<polygon fill="white" stroke="black" points="1200.5,-168.5 1200.5,-187.5 1299.5,-187.5 1299.5,-168.5 1200.5,-168.5"/>
<text text-anchor="middle" x="1250" y="-175.5" font-family="Helvetica,sans-Serif" font-size="10.00">ResolveType.hpp</text>
</a>
</g>
</g>
<!-- Node29&#45;&gt;Node39 -->
<g id="edge66" class="edge">
<title>Node29&#45;&gt;Node39</title>
<path fill="none" stroke="midnightblue" d="M1223.35,-347.46C1227.63,-320.43 1240.95,-236.24 1246.98,-198.11"/>
<polygon fill="midnightblue" stroke="midnightblue" points="1250.49,-198.29 1248.6,-187.87 1243.58,-197.2 1250.49,-198.29"/>
</g>
<!-- Node30&#45;&gt;Node2 -->
<g id="edge44" class="edge">
<title>Node30&#45;&gt;Node2</title>
<path fill="none" stroke="midnightblue" d="M861.44,-224.44C816.68,-215 744.62,-199.8 696.3,-189.61"/>
<polygon fill="midnightblue" stroke="midnightblue" points="696.88,-186.16 686.37,-187.52 695.44,-193.01 696.88,-186.16"/>
</g>
<!-- Node30&#45;&gt;Node3 -->
<g id="edge43" class="edge">
<title>Node30&#45;&gt;Node3</title>
<path fill="none" stroke="midnightblue" d="M895.17,-224.45C876.99,-202.29 824.88,-142.56 768,-112 746.98,-100.7 689.13,-86.94 645.65,-77.63"/>
<polygon fill="midnightblue" stroke="midnightblue" points="646.29,-74.19 635.78,-75.54 644.84,-81.04 646.29,-74.19"/>
</g>
<!-- Node30&#45;&gt;Node9 -->
<g id="edge50" class="edge">
<title>Node30&#45;&gt;Node9</title>
<path fill="none" stroke="midnightblue" d="M963.31,-233.48C1063.01,-233.07 1254.52,-227.05 1308,-188 1325.46,-175.25 1346.38,-116.02 1356.28,-85.42"/>
<polygon fill="midnightblue" stroke="midnightblue" points="1359.71,-86.17 1359.4,-75.58 1353.04,-84.05 1359.71,-86.17"/>
</g>
<!-- Node30&#45;&gt;Node10 -->
<g id="edge45" class="edge">
<title>Node30&#45;&gt;Node10</title>
<path fill="none" stroke="midnightblue" d="M882.11,-224.37C863.48,-215.99 835.11,-202.44 812,-188 787.58,-172.75 761.57,-152.14 744.85,-138.25"/>
<polygon fill="midnightblue" stroke="midnightblue" points="746.92,-135.42 737.01,-131.66 742.42,-140.78 746.92,-135.42"/>
</g>
<!-- Node30&#45;&gt;Node13 -->
<g id="edge46" class="edge">
<title>Node30&#45;&gt;Node13</title>
<path fill="none" stroke="midnightblue" d="M902.63,-224.34C904.25,-204.26 909.29,-153.1 921,-112 923.61,-102.82 927.6,-93.02 931.25,-84.92"/>
<polygon fill="midnightblue" stroke="midnightblue" points="934.48,-86.27 935.56,-75.73 928.14,-83.3 934.48,-86.27"/>
</g>
<!-- Node30&#45;&gt;Node15 -->
<g id="edge42" class="edge">
<title>Node30&#45;&gt;Node15</title>
<path fill="none" stroke="midnightblue" d="M899.31,-224.08C891.44,-197.95 868.33,-121.21 857.6,-85.58"/>
<polygon fill="midnightblue" stroke="midnightblue" points="860.82,-84.13 854.58,-75.57 854.11,-86.15 860.82,-84.13"/>
</g>
<!-- Node30&#45;&gt;Node17 -->
<g id="edge48" class="edge">
<title>Node30&#45;&gt;Node17</title>
<path fill="none" stroke="midnightblue" d="M925.32,-224.44C944.43,-216.72 971.57,-204.13 992,-188 1046.94,-144.64 1081.2,-65.4 1094.57,-29.52"/>
<polygon fill="midnightblue" stroke="midnightblue" points="1097.96,-30.46 1098.06,-19.87 1091.37,-28.09 1097.96,-30.46"/>
</g>
<!-- Node30&#45;&gt;Node18 -->
<g id="edge49" class="edge">
<title>Node30&#45;&gt;Node18</title>
<path fill="none" stroke="midnightblue" d="M916.64,-224.36C949.62,-203.78 1028.07,-148.13 1044,-76 1045.92,-67.32 1047.98,-63.95 1044,-56 1036.69,-41.38 1022.12,-30.28 1009.17,-22.76"/>
<polygon fill="midnightblue" stroke="midnightblue" points="1010.62,-19.56 1000.15,-17.92 1007.31,-25.73 1010.62,-19.56"/>
</g>
<!-- Node31 -->
<g id="node31" class="node">
<title>Node31</title>
<g id="a_node31"><a xlink:title=" ">
<polygon fill="white" stroke="#bfbfbf" points="1167.5,-56.5 1167.5,-75.5 1214.5,-75.5 1214.5,-56.5 1167.5,-56.5"/>
<text text-anchor="middle" x="1191" y="-63.5" font-family="Helvetica,sans-Serif" font-size="10.00">cmath</text>
</a>
</g>
</g>
<!-- Node30&#45;&gt;Node31 -->
<g id="edge47" class="edge">
<title>Node30&#45;&gt;Node31</title>
<path fill="none" stroke="midnightblue" d="M963.2,-232.95C1034.15,-229.08 1147.31,-210.17 1194,-132 1202.32,-118.07 1200.36,-99.32 1197.04,-85.53"/>
<polygon fill="midnightblue" stroke="midnightblue" points="1200.35,-84.39 1194.25,-75.73 1193.62,-86.31 1200.35,-84.39"/>
</g>
<!-- Node33 -->
<g id="node33" class="node">
<title>Node33</title>
<g id="a_node33"><a xlink:title=" ">
<polygon fill="white" stroke="#bfbfbf" points="1435,-168.5 1435,-187.5 1487,-187.5 1487,-168.5 1435,-168.5"/>
<text text-anchor="middle" x="1461" y="-175.5" font-family="Helvetica,sans-Serif" font-size="10.00">cassert</text>
</a>
</g>
</g>
<!-- Node32&#45;&gt;Node33 -->
<g id="edge52" class="edge">
<title>Node32&#45;&gt;Node33</title>
<path fill="none" stroke="midnightblue" d="M1461,-224.08C1461,-217.01 1461,-206.86 1461,-197.99"/>
<polygon fill="midnightblue" stroke="midnightblue" points="1464.5,-197.75 1461,-187.75 1457.5,-197.75 1464.5,-197.75"/>
</g>
<!-- Node34&#45;&gt;Node9 -->
<g id="edge55" class="edge">
<title>Node34&#45;&gt;Node9</title>
<path fill="none" stroke="midnightblue" d="M1335.99,-285.68C1339.24,-275.69 1344.33,-258.87 1347,-244 1357.23,-186.96 1360.53,-118.28 1361.55,-85.79"/>
<polygon fill="midnightblue" stroke="midnightblue" points="1365.06,-85.64 1361.84,-75.55 1358.06,-85.45 1365.06,-85.64"/>
</g>
<!-- Node34&#45;&gt;Node32 -->
<g id="edge54" class="edge">
<title>Node34&#45;&gt;Node32</title>
<path fill="none" stroke="midnightblue" d="M1351.34,-285.98C1372.82,-275.99 1408.62,-259.35 1433.45,-247.81"/>
<polygon fill="midnightblue" stroke="midnightblue" points="1435.1,-250.9 1442.69,-243.51 1432.15,-244.55 1435.1,-250.9"/>
</g>
<!-- Node35 -->
<g id="node35" class="node">
<title>Node35</title>
<g id="a_node35"><a xlink:title=" ">
<polygon fill="white" stroke="#bfbfbf" points="1294,-224.5 1294,-243.5 1338,-243.5 1338,-224.5 1294,-224.5"/>
<text text-anchor="middle" x="1316" y="-231.5" font-family="Helvetica,sans-Serif" font-size="10.00">limits</text>
</a>
</g>
</g>
<!-- Node34&#45;&gt;Node35 -->
<g id="edge56" class="edge">
<title>Node34&#45;&gt;Node35</title>
<path fill="none" stroke="midnightblue" d="M1330.56,-285.98C1328.14,-277.49 1324.34,-264.2 1321.23,-253.32"/>
<polygon fill="midnightblue" stroke="midnightblue" points="1324.54,-252.16 1318.43,-243.51 1317.81,-254.09 1324.54,-252.16"/>
</g>
<!-- Node37 -->
<g id="node37" class="node">
<title>Node37</title>
<g id="a_node37"><a xlink:title=" ">
<polygon fill="white" stroke="#bfbfbf" points="1546.5,-224.5 1546.5,-243.5 1599.5,-243.5 1599.5,-224.5 1546.5,-224.5"/>
<text text-anchor="middle" x="1573" y="-231.5" font-family="Helvetica,sans-Serif" font-size="10.00">cstddef</text>
</a>
</g>
</g>
<!-- Node36&#45;&gt;Node37 -->
<g id="edge58" class="edge">
<title>Node36&#45;&gt;Node37</title>
<path fill="none" stroke="midnightblue" d="M1548.58,-280.4C1553.04,-272.11 1558.72,-261.55 1563.48,-252.71"/>
<polygon fill="midnightblue" stroke="midnightblue" points="1566.69,-254.12 1568.34,-243.66 1560.52,-250.81 1566.69,-254.12"/>
</g>
<!-- Node38&#45;&gt;Node2 -->
<g id="edge61" class="edge">
<title>Node38&#45;&gt;Node2</title>
<path fill="none" stroke="midnightblue" d="M720.91,-285.82C707.6,-266.84 675.7,-221.35 658.12,-196.29"/>
<polygon fill="midnightblue" stroke="midnightblue" points="660.77,-193.96 652.16,-187.78 655.04,-197.98 660.77,-193.96"/>
</g>
<!-- Node38&#45;&gt;Node10 -->
<g id="edge62" class="edge">
<title>Node38&#45;&gt;Node10</title>
<path fill="none" stroke="midnightblue" d="M727,-285.76C727,-259.15 727,-178.71 727,-141.84"/>
<polygon fill="midnightblue" stroke="midnightblue" points="730.5,-141.52 727,-131.52 723.5,-141.52 730.5,-141.52"/>
</g>
<!-- Node38&#45;&gt;Node20 -->
<g id="edge65" class="edge">
<title>Node38&#45;&gt;Node20</title>
<path fill="none" stroke="midnightblue" d="M710.36,-285.9C640.05,-249.42 369.51,-107.97 341,-76 328.86,-62.38 320.2,-43.33 314.98,-29.38"/>
<polygon fill="midnightblue" stroke="midnightblue" points="318.26,-28.15 311.66,-19.87 311.66,-30.47 318.26,-28.15"/>
</g>
<!-- Node38&#45;&gt;Node23 -->
<g id="edge64" class="edge">
<title>Node38&#45;&gt;Node23</title>
<path fill="none" stroke="midnightblue" d="M684.3,-285.99C647.66,-277.84 593.99,-263.84 550,-244 483.45,-213.98 413.06,-163.08 380.11,-137.95"/>
<polygon fill="midnightblue" stroke="midnightblue" points="381.9,-134.91 371.85,-131.58 377.63,-140.46 381.9,-134.91"/>
</g>
<!-- Node38&#45;&gt;Node30 -->
<g id="edge60" class="edge">
<title>Node38&#45;&gt;Node30</title>
<path fill="none" stroke="midnightblue" d="M752.07,-285.98C782.35,-275.68 833.44,-258.31 867.44,-246.75"/>
<polygon fill="midnightblue" stroke="midnightblue" points="868.63,-250.04 876.97,-243.51 866.38,-243.41 868.63,-250.04"/>
</g>
<!-- Node38&#45;&gt;Node38 -->
<g id="edge63" class="edge">
<title>Node38&#45;&gt;Node38</title>
<path fill="none" stroke="midnightblue" d="M761.15,-305.03C789.69,-309.11 819.5,-305.93 819.5,-295.5 819.5,-286.29 796.26,-282.74 771.19,-284.83"/>
<polygon fill="midnightblue" stroke="midnightblue" points="770.7,-281.37 761.15,-285.97 771.48,-288.32 770.7,-281.37"/>
</g>
<!-- Node39&#45;&gt;Node10 -->
<g id="edge67" class="edge">
<title>Node39&#45;&gt;Node10</title>
<path fill="none" stroke="midnightblue" d="M1200.33,-171.87C1098.21,-161.33 866.25,-137.38 770.05,-127.44"/>
<polygon fill="midnightblue" stroke="midnightblue" points="770.12,-123.93 759.81,-126.39 769.4,-130.9 770.12,-123.93"/>
</g>
<!-- Node40 -->
<g id="node40" class="node">
<title>Node40</title>
<g id="a_node40"><a xlink:href="_b_float16_8hpp.html" target="_top" xlink:title=" ">
<polygon fill="white" stroke="black" points="1104.5,-112.5 1104.5,-131.5 1185.5,-131.5 1185.5,-112.5 1104.5,-112.5"/>
<text text-anchor="middle" x="1145" y="-119.5" font-family="Helvetica,sans-Serif" font-size="10.00">BFloat16.hpp</text>
</a>
</g>
</g>
<!-- Node39&#45;&gt;Node40 -->
<g id="edge68" class="edge">
<title>Node39&#45;&gt;Node40</title>
<path fill="none" stroke="midnightblue" d="M1233.13,-168.32C1216.29,-159.66 1190.19,-146.24 1170.76,-136.25"/>
<polygon fill="midnightblue" stroke="midnightblue" points="1172.32,-133.12 1161.83,-131.65 1169.12,-139.34 1172.32,-133.12"/>
</g>
<!-- Node41 -->
<g id="node41" class="node">
<title>Node41</title>
<g id="a_node41"><a xlink:href="_half_8hpp.html" target="_top" xlink:title=" ">
<polygon fill="white" stroke="black" points="1242.5,-112.5 1242.5,-131.5 1299.5,-131.5 1299.5,-112.5 1242.5,-112.5"/>
<text text-anchor="middle" x="1271" y="-119.5" font-family="Helvetica,sans-Serif" font-size="10.00">Half.hpp</text>
</a>
</g>
</g>
<!-- Node39&#45;&gt;Node41 -->
<g id="edge73" class="edge">
<title>Node39&#45;&gt;Node41</title>
<path fill="none" stroke="midnightblue" d="M1253.47,-168.08C1256.31,-160.77 1260.43,-150.18 1263.96,-141.1"/>
<polygon fill="midnightblue" stroke="midnightblue" points="1267.23,-142.34 1267.6,-131.75 1260.71,-139.8 1267.23,-142.34"/>
</g>
<!-- Node40&#45;&gt;Node8 -->
<g id="edge71" class="edge">
<title>Node40&#45;&gt;Node8</title>
<path fill="none" stroke="midnightblue" d="M1123.61,-112.44C1101.29,-103.52 1066.1,-89.44 1040.79,-79.32"/>
<polygon fill="midnightblue" stroke="midnightblue" points="1041.88,-75.98 1031.29,-75.52 1039.28,-82.48 1041.88,-75.98"/>
</g>
<!-- Node40&#45;&gt;Node13 -->
<g id="edge72" class="edge">
<title>Node40&#45;&gt;Node13</title>
<path fill="none" stroke="midnightblue" d="M1112.52,-112.44C1075.52,-102.7 1015.21,-86.81 976.58,-76.64"/>
<polygon fill="midnightblue" stroke="midnightblue" points="977.34,-73.22 966.78,-74.05 975.56,-79.99 977.34,-73.22"/>
</g>
<!-- Node40&#45;&gt;Node17 -->
<g id="edge69" class="edge">
<title>Node40&#45;&gt;Node17</title>
<path fill="none" stroke="midnightblue" d="M1141.55,-112.37C1134.38,-94.46 1117.77,-52.92 1108.18,-28.95"/>
<polygon fill="midnightblue" stroke="midnightblue" points="1111.4,-27.58 1104.44,-19.59 1104.9,-30.18 1111.4,-27.58"/>
</g>
<!-- Node40&#45;&gt;Node31 -->
<g id="edge70" class="edge">
<title>Node40&#45;&gt;Node31</title>
<path fill="none" stroke="midnightblue" d="M1152.6,-112.08C1159.23,-104.3 1169.02,-92.8 1177.06,-83.37"/>
<polygon fill="midnightblue" stroke="midnightblue" points="1179.73,-85.63 1183.55,-75.75 1174.4,-81.09 1179.73,-85.63"/>
</g>
<!-- Node41&#45;&gt;Node9 -->
<g id="edge74" class="edge">
<title>Node41&#45;&gt;Node9</title>
<path fill="none" stroke="midnightblue" d="M1285.62,-112.32C1299.95,-103.82 1322.01,-90.73 1338.75,-80.8"/>
<polygon fill="midnightblue" stroke="midnightblue" points="1340.6,-83.77 1347.42,-75.65 1337.03,-77.75 1340.6,-83.77"/>
</g>
<!-- Node42 -->
<g id="node42" class="node">
<title>Node42</title>
<g id="a_node42"><a xlink:title=" ">
<polygon fill="white" stroke="#bfbfbf" points="1232.5,-56.5 1232.5,-75.5 1309.5,-75.5 1309.5,-56.5 1232.5,-56.5"/>
<text text-anchor="middle" x="1271" y="-63.5" font-family="Helvetica,sans-Serif" font-size="10.00">half/half.hpp</text>
</a>
</g>
</g>
<!-- Node41&#45;&gt;Node42 -->
<g id="edge75" class="edge">
<title>Node41&#45;&gt;Node42</title>
<path fill="none" stroke="midnightblue" d="M1271,-112.08C1271,-105.01 1271,-94.86 1271,-85.99"/>
<polygon fill="midnightblue" stroke="midnightblue" points="1274.5,-85.75 1271,-75.75 1267.5,-85.75 1274.5,-85.75"/>
</g>
</g>
</svg>
