<?xml version="1.0" encoding="UTF-8" standalone="no"?>
<!DOCTYPE svg PUBLIC "-//W3C//DTD SVG 1.1//EN"
 "http://www.w3.org/Graphics/SVG/1.1/DTD/svg11.dtd">
<!-- Generated by graphviz version 2.43.0 (0)
 -->
<!-- Title: src/backends/neon/workloads/NeonBatchToSpaceNdWorkload.hpp Pages: 1 -->
<svg width="569pt" height="173pt"
 viewBox="0.00 0.00 568.50 173.00" xmlns="http://www.w3.org/2000/svg" xmlns:xlink="http://www.w3.org/1999/xlink">
<g id="graph0" class="graph" transform="scale(1 1) rotate(0) translate(4 169)">
<title>src/backends/neon/workloads/NeonBatchToSpaceNdWorkload.hpp</title>
<polygon fill="white" stroke="transparent" points="-4,4 -4,-169 564.5,-169 564.5,4 -4,4"/>
<!-- Node1 -->
<g id="node1" class="node">
<title>Node1</title>
<g id="a_node1"><a xlink:title=" ">
<polygon fill="#bfbfbf" stroke="black" points="179.5,-134.5 179.5,-164.5 372.5,-164.5 372.5,-134.5 179.5,-134.5"/>
<text text-anchor="start" x="187.5" y="-152.5" font-family="Helvetica,sans-Serif" font-size="10.00">src/backends/neon/workloads</text>
<text text-anchor="middle" x="276" y="-141.5" font-family="Helvetica,sans-Serif" font-size="10.00">/NeonBatchToSpaceNdWorkload.hpp</text>
</a>
</g>
</g>
<!-- Node2 -->
<g id="node2" class="node">
<title>Node2</title>
<g id="a_node2"><a xlink:href="_neon_layer_support_8cpp.html" target="_top" xlink:title=" ">
<polygon fill="white" stroke="black" points="0,-67.5 0,-97.5 162,-97.5 162,-67.5 0,-67.5"/>
<text text-anchor="start" x="8" y="-85.5" font-family="Helvetica,sans-Serif" font-size="10.00">src/backends/neon/NeonLayer</text>
<text text-anchor="middle" x="81" y="-74.5" font-family="Helvetica,sans-Serif" font-size="10.00">Support.cpp</text>
</a>
</g>
</g>
<!-- Node1&#45;&gt;Node2 -->
<g id="edge1" class="edge">
<title>Node1&#45;&gt;Node2</title>
<path fill="none" stroke="midnightblue" d="M224.18,-131.23C192.64,-120.71 152.85,-107.45 123.23,-97.58"/>
<polygon fill="midnightblue" stroke="midnightblue" points="223.09,-134.55 233.69,-134.4 225.31,-127.91 223.09,-134.55"/>
</g>
<!-- Node3 -->
<g id="node3" class="node">
<title>Node3</title>
<g id="a_node3"><a xlink:href="_neon_batch_to_space_nd_workload_8cpp.html" target="_top" xlink:title=" ">
<polygon fill="white" stroke="black" points="180,-67.5 180,-97.5 372,-97.5 372,-67.5 180,-67.5"/>
<text text-anchor="start" x="188" y="-85.5" font-family="Helvetica,sans-Serif" font-size="10.00">src/backends/neon/workloads</text>
<text text-anchor="middle" x="276" y="-74.5" font-family="Helvetica,sans-Serif" font-size="10.00">/NeonBatchToSpaceNdWorkload.cpp</text>
</a>
</g>
</g>
<!-- Node1&#45;&gt;Node3 -->
<g id="edge2" class="edge">
<title>Node1&#45;&gt;Node3</title>
<path fill="none" stroke="midnightblue" d="M276,-124.11C276,-115.15 276,-105.32 276,-97.58"/>
<polygon fill="midnightblue" stroke="midnightblue" points="272.5,-124.4 276,-134.4 279.5,-124.4 272.5,-124.4"/>
</g>
<!-- Node4 -->
<g id="node4" class="node">
<title>Node4</title>
<g id="a_node4"><a xlink:href="_neon_workloads_8hpp.html" target="_top" xlink:title=" ">
<polygon fill="white" stroke="black" points="390,-67.5 390,-97.5 550,-97.5 550,-67.5 390,-67.5"/>
<text text-anchor="start" x="398" y="-85.5" font-family="Helvetica,sans-Serif" font-size="10.00">src/backends/neon/workloads</text>
<text text-anchor="middle" x="470" y="-74.5" font-family="Helvetica,sans-Serif" font-size="10.00">/NeonWorkloads.hpp</text>
</a>
</g>
</g>
<!-- Node1&#45;&gt;Node4 -->
<g id="edge3" class="edge">
<title>Node1&#45;&gt;Node4</title>
<path fill="none" stroke="midnightblue" d="M327.96,-131.09C359.27,-120.6 398.64,-107.41 427.99,-97.58"/>
<polygon fill="midnightblue" stroke="midnightblue" points="326.47,-127.9 318.1,-134.4 328.69,-134.54 326.47,-127.9"/>
</g>
<!-- Node5 -->
<g id="node5" class="node">
<title>Node5</title>
<g id="a_node5"><a xlink:href="_neon_workload_factory_8cpp.html" target="_top" xlink:title=" ">
<polygon fill="white" stroke="black" points="379.5,-0.5 379.5,-30.5 560.5,-30.5 560.5,-0.5 379.5,-0.5"/>
<text text-anchor="start" x="387.5" y="-18.5" font-family="Helvetica,sans-Serif" font-size="10.00">src/backends/neon/NeonWorkload</text>
<text text-anchor="middle" x="470" y="-7.5" font-family="Helvetica,sans-Serif" font-size="10.00">Factory.cpp</text>
</a>
</g>
</g>
<!-- Node4&#45;&gt;Node5 -->
<g id="edge4" class="edge">
<title>Node4&#45;&gt;Node5</title>
<path fill="none" stroke="midnightblue" d="M470,-57.11C470,-48.15 470,-38.32 470,-30.58"/>
<polygon fill="midnightblue" stroke="midnightblue" points="466.5,-57.4 470,-67.4 473.5,-57.4 466.5,-57.4"/>
</g>
</g>
</svg>
