<?xml version="1.0" encoding="UTF-8" standalone="no"?>
<!DOCTYPE svg PUBLIC "-//W3C//DTD SVG 1.1//EN"
 "http://www.w3.org/Graphics/SVG/1.1/DTD/svg11.dtd">
<!-- Generated by graphviz version 2.43.0 (0)
 -->
<!-- Title: src/backends/reference/workloads/Resize.hpp Pages: 1 -->
<svg width="1356pt" height="442pt"
 viewBox="0.00 0.00 1356.00 442.00" xmlns="http://www.w3.org/2000/svg" xmlns:xlink="http://www.w3.org/1999/xlink">
<g id="graph0" class="graph" transform="scale(1 1) rotate(0) translate(4 438)">
<title>src/backends/reference/workloads/Resize.hpp</title>
<polygon fill="white" stroke="transparent" points="-4,4 -4,-438 1352,-438 1352,4 -4,4"/>
<!-- Node1 -->
<g id="node1" class="node">
<title>Node1</title>
<g id="a_node1"><a xlink:title=" ">
<polygon fill="#bfbfbf" stroke="black" points="910.5,-403.5 910.5,-433.5 1039.5,-433.5 1039.5,-403.5 910.5,-403.5"/>
<text text-anchor="start" x="918.5" y="-421.5" font-family="Helvetica,sans-Serif" font-size="10.00">src/backends/reference</text>
<text text-anchor="middle" x="975" y="-410.5" font-family="Helvetica,sans-Serif" font-size="10.00">/workloads/Resize.hpp</text>
</a>
</g>
</g>
<!-- Node2 -->
<g id="node2" class="node">
<title>Node2</title>
<g id="a_node2"><a xlink:href="_base_iterator_8hpp.html" target="_top" xlink:title=" ">
<polygon fill="white" stroke="black" points="573.5,-347.5 573.5,-366.5 670.5,-366.5 670.5,-347.5 573.5,-347.5"/>
<text text-anchor="middle" x="622" y="-354.5" font-family="Helvetica,sans-Serif" font-size="10.00">BaseIterator.hpp</text>
</a>
</g>
</g>
<!-- Node1&#45;&gt;Node2 -->
<g id="edge1" class="edge">
<title>Node1&#45;&gt;Node2</title>
<path fill="none" stroke="midnightblue" d="M910.25,-406.59C844.74,-395.54 744.31,-378.62 680.95,-367.94"/>
<polygon fill="midnightblue" stroke="midnightblue" points="681.17,-364.42 670.73,-366.21 680.01,-371.33 681.17,-364.42"/>
</g>
<!-- Node14 -->
<g id="node14" class="node">
<title>Node14</title>
<g id="a_node14"><a xlink:href="_tensor_8hpp.html" target="_top" xlink:title=" ">
<polygon fill="white" stroke="black" points="1010.5,-168.5 1010.5,-187.5 1113.5,-187.5 1113.5,-168.5 1010.5,-168.5"/>
<text text-anchor="middle" x="1062" y="-175.5" font-family="Helvetica,sans-Serif" font-size="10.00">armnn/Tensor.hpp</text>
</a>
</g>
</g>
<!-- Node1&#45;&gt;Node14 -->
<g id="edge64" class="edge">
<title>Node1&#45;&gt;Node14</title>
<path fill="none" stroke="midnightblue" d="M996.71,-403.29C1022,-385.3 1062.43,-351.69 1079,-311 1094.63,-272.63 1080.02,-223.26 1069.87,-197.12"/>
<polygon fill="midnightblue" stroke="midnightblue" points="1073.05,-195.65 1066.02,-187.72 1066.58,-198.3 1073.05,-195.65"/>
</g>
<!-- Node38 -->
<g id="node38" class="node">
<title>Node38</title>
<g id="a_node38"><a xlink:href="_data_layout_indexed_8hpp.html" target="_top" xlink:title=" ">
<polygon fill="white" stroke="black" points="880.5,-286 880.5,-305 1069.5,-305 1069.5,-286 880.5,-286"/>
<text text-anchor="middle" x="975" y="-293" font-family="Helvetica,sans-Serif" font-size="10.00">armnnUtils/DataLayoutIndexed.hpp</text>
</a>
</g>
</g>
<!-- Node1&#45;&gt;Node38 -->
<g id="edge65" class="edge">
<title>Node1&#45;&gt;Node38</title>
<path fill="none" stroke="midnightblue" d="M975,-403.14C975,-381.2 975,-339.33 975,-315.09"/>
<polygon fill="midnightblue" stroke="midnightblue" points="978.5,-315.05 975,-305.05 971.5,-315.05 978.5,-315.05"/>
</g>
<!-- Node3 -->
<g id="node3" class="node">
<title>Node3</title>
<g id="a_node3"><a xlink:href="_types_utils_8hpp.html" target="_top" xlink:title=" ">
<polygon fill="white" stroke="black" points="561,-224.5 561,-243.5 683,-243.5 683,-224.5 561,-224.5"/>
<text text-anchor="middle" x="622" y="-231.5" font-family="Helvetica,sans-Serif" font-size="10.00">armnn/TypesUtils.hpp</text>
</a>
</g>
</g>
<!-- Node2&#45;&gt;Node3 -->
<g id="edge2" class="edge">
<title>Node2&#45;&gt;Node3</title>
<path fill="none" stroke="midnightblue" d="M622,-347.3C622,-327.85 622,-280.49 622,-253.9"/>
<polygon fill="midnightblue" stroke="midnightblue" points="625.5,-253.62 622,-243.62 618.5,-253.62 625.5,-253.62"/>
</g>
<!-- Node27 -->
<g id="node27" class="node">
<title>Node27</title>
<g id="a_node27"><a xlink:href="_assert_8hpp.html" target="_top" xlink:title=" ">
<polygon fill="white" stroke="black" points="822,-224.5 822,-243.5 956,-243.5 956,-224.5 822,-224.5"/>
<text text-anchor="middle" x="889" y="-231.5" font-family="Helvetica,sans-Serif" font-size="10.00">armnn/utility/Assert.hpp</text>
</a>
</g>
</g>
<!-- Node2&#45;&gt;Node27 -->
<g id="edge39" class="edge">
<title>Node2&#45;&gt;Node27</title>
<path fill="none" stroke="midnightblue" d="M670.81,-355.44C716.4,-352.78 784.64,-343.11 834,-311 855.91,-296.75 871.97,-270.49 880.9,-252.89"/>
<polygon fill="midnightblue" stroke="midnightblue" points="884.15,-254.21 885.32,-243.68 877.84,-251.18 884.15,-254.21"/>
</g>
<!-- Node29 -->
<g id="node29" class="node">
<title>Node29</title>
<g id="a_node29"><a xlink:href="_numeric_cast_8hpp.html" target="_top" xlink:title=" ">
<polygon fill="white" stroke="black" points="260.5,-286 260.5,-305 427.5,-305 427.5,-286 260.5,-286"/>
<text text-anchor="middle" x="344" y="-293" font-family="Helvetica,sans-Serif" font-size="10.00">armnn/utility/NumericCast.hpp</text>
</a>
</g>
</g>
<!-- Node2&#45;&gt;Node29 -->
<g id="edge41" class="edge">
<title>Node2&#45;&gt;Node29</title>
<path fill="none" stroke="midnightblue" d="M582.17,-347.48C532.52,-336.85 447.65,-318.68 393.77,-307.15"/>
<polygon fill="midnightblue" stroke="midnightblue" points="394.27,-303.68 383.76,-305.01 392.8,-310.52 394.27,-303.68"/>
</g>
<!-- Node31 -->
<g id="node31" class="node">
<title>Node31</title>
<g id="a_node31"><a xlink:href="_floating_point_converter_8hpp.html" target="_top" xlink:title=" ">
<polygon fill="white" stroke="black" points="0,-280.5 0,-310.5 138,-310.5 138,-280.5 0,-280.5"/>
<text text-anchor="start" x="8" y="-298.5" font-family="Helvetica,sans-Serif" font-size="10.00">armnnUtils/FloatingPoint</text>
<text text-anchor="middle" x="69" y="-287.5" font-family="Helvetica,sans-Serif" font-size="10.00">Converter.hpp</text>
</a>
</g>
</g>
<!-- Node2&#45;&gt;Node31 -->
<g id="edge45" class="edge">
<title>Node2&#45;&gt;Node31</title>
<path fill="none" stroke="midnightblue" d="M573.41,-350.77C477.85,-340.49 264.7,-317.56 148.41,-305.04"/>
<polygon fill="midnightblue" stroke="midnightblue" points="148.47,-301.53 138.15,-303.94 147.72,-308.49 148.47,-301.53"/>
</g>
<!-- Node33 -->
<g id="node33" class="node">
<title>Node33</title>
<g id="a_node33"><a xlink:href="_tensor_utils_8hpp.html" target="_top" xlink:title=" ">
<polygon fill="white" stroke="black" points="657.5,-286 657.5,-305 806.5,-305 806.5,-286 657.5,-286"/>
<text text-anchor="middle" x="732" y="-293" font-family="Helvetica,sans-Serif" font-size="10.00">armnnUtils/TensorUtils.hpp</text>
</a>
</g>
</g>
<!-- Node2&#45;&gt;Node33 -->
<g id="edge47" class="edge">
<title>Node2&#45;&gt;Node33</title>
<path fill="none" stroke="midnightblue" d="M637.76,-347.48C655.98,-337.62 686.17,-321.29 707.47,-309.77"/>
<polygon fill="midnightblue" stroke="midnightblue" points="709.14,-312.85 716.27,-305.01 705.81,-306.69 709.14,-312.85"/>
</g>
<!-- Node34 -->
<g id="node34" class="node">
<title>Node34</title>
<g id="a_node34"><a xlink:href="_resolve_type_8hpp.html" target="_top" xlink:title=" ">
<polygon fill="white" stroke="black" points="356.5,-168.5 356.5,-187.5 455.5,-187.5 455.5,-168.5 356.5,-168.5"/>
<text text-anchor="middle" x="406" y="-175.5" font-family="Helvetica,sans-Serif" font-size="10.00">ResolveType.hpp</text>
</a>
</g>
</g>
<!-- Node2&#45;&gt;Node34 -->
<g id="edge54" class="edge">
<title>Node2&#45;&gt;Node34</title>
<path fill="none" stroke="midnightblue" d="M611.58,-347.46C577.45,-319.5 468.68,-230.37 424.71,-194.33"/>
<polygon fill="midnightblue" stroke="midnightblue" points="426.78,-191.5 416.82,-187.87 422.34,-196.91 426.78,-191.5"/>
</g>
<!-- Node4 -->
<g id="node4" class="node">
<title>Node4</title>
<g id="a_node4"><a xlink:href="_backend_id_8hpp.html" target="_top" xlink:title=" ">
<polygon fill="white" stroke="black" points="682,-56.5 682,-75.5 804,-75.5 804,-56.5 682,-56.5"/>
<text text-anchor="middle" x="743" y="-63.5" font-family="Helvetica,sans-Serif" font-size="10.00">armnn/BackendId.hpp</text>
</a>
</g>
</g>
<!-- Node3&#45;&gt;Node4 -->
<g id="edge3" class="edge">
<title>Node3&#45;&gt;Node4</title>
<path fill="none" stroke="midnightblue" d="M626.78,-224.41C638.25,-204.06 668.74,-151.65 700,-112 708.11,-101.71 718.19,-91.07 726.54,-82.73"/>
<polygon fill="midnightblue" stroke="midnightblue" points="729.22,-85.01 733.91,-75.51 724.32,-80.01 729.22,-85.01"/>
</g>
<!-- Node6 -->
<g id="node6" class="node">
<title>Node6</title>
<g id="a_node6"><a xlink:title=" ">
<polygon fill="white" stroke="#bfbfbf" points="485.5,-0.5 485.5,-19.5 542.5,-19.5 542.5,-0.5 485.5,-0.5"/>
<text text-anchor="middle" x="514" y="-7.5" font-family="Helvetica,sans-Serif" font-size="10.00">ostream</text>
</a>
</g>
</g>
<!-- Node3&#45;&gt;Node6 -->
<g id="edge36" class="edge">
<title>Node3&#45;&gt;Node6</title>
<path fill="none" stroke="midnightblue" d="M560.73,-230.6C478.13,-226.37 336.37,-215.28 293,-188 246.54,-158.78 248.16,-130.41 241,-76 239.84,-67.19 235.25,-62.78 241,-56 270.58,-21.15 407.06,-13.25 475.15,-11.48"/>
<polygon fill="midnightblue" stroke="midnightblue" points="475.55,-14.98 485.46,-11.25 475.39,-7.98 475.55,-14.98"/>
</g>
<!-- Node7 -->
<g id="node7" class="node">
<title>Node7</title>
<g id="a_node7"><a xlink:title=" ">
<polygon fill="white" stroke="#bfbfbf" points="566,-0.5 566,-19.5 598,-19.5 598,-0.5 566,-0.5"/>
<text text-anchor="middle" x="582" y="-7.5" font-family="Helvetica,sans-Serif" font-size="10.00">set</text>
</a>
</g>
</g>
<!-- Node3&#45;&gt;Node7 -->
<g id="edge37" class="edge">
<title>Node3&#45;&gt;Node7</title>
<path fill="none" stroke="midnightblue" d="M560.97,-229.45C485.78,-224.11 363.29,-211.98 325,-188 273.8,-155.94 265.92,-133.69 248,-76 223.91,1.57 390.33,-53.56 552,-20 553.29,-19.73 554.6,-19.44 555.92,-19.12"/>
<polygon fill="midnightblue" stroke="midnightblue" points="557.22,-22.39 565.94,-16.38 555.37,-15.64 557.22,-22.39"/>
</g>
<!-- Node11 -->
<g id="node11" class="node">
<title>Node11</title>
<g id="a_node11"><a xlink:href="_exceptions_8hpp.html" target="_top" xlink:title=" ">
<polygon fill="white" stroke="black" points="1162.5,-56.5 1162.5,-75.5 1287.5,-75.5 1287.5,-56.5 1162.5,-56.5"/>
<text text-anchor="middle" x="1225" y="-63.5" font-family="Helvetica,sans-Serif" font-size="10.00">armnn/Exceptions.hpp</text>
</a>
</g>
</g>
<!-- Node3&#45;&gt;Node11 -->
<g id="edge10" class="edge">
<title>Node3&#45;&gt;Node11</title>
<path fill="none" stroke="midnightblue" d="M656.44,-224.44C746.83,-201.94 986.36,-142.19 1022,-132 1081.69,-114.92 1150.34,-92.31 1190.56,-78.75"/>
<polygon fill="midnightblue" stroke="midnightblue" points="1191.8,-82.03 1200.15,-75.51 1189.56,-75.4 1191.8,-82.03"/>
</g>
<!-- Node3&#45;&gt;Node14 -->
<g id="edge14" class="edge">
<title>Node3&#45;&gt;Node14</title>
<path fill="none" stroke="midnightblue" d="M683.18,-225.49C766.82,-215.23 916.05,-196.91 1000.08,-186.6"/>
<polygon fill="midnightblue" stroke="midnightblue" points="1000.75,-190.04 1010.25,-185.35 999.89,-183.1 1000.75,-190.04"/>
</g>
<!-- Node17 -->
<g id="node17" class="node">
<title>Node17</title>
<g id="a_node17"><a xlink:title=" ">
<polygon fill="white" stroke="#bfbfbf" points="256.5,-56.5 256.5,-75.5 325.5,-75.5 325.5,-56.5 256.5,-56.5"/>
<text text-anchor="middle" x="291" y="-63.5" font-family="Helvetica,sans-Serif" font-size="10.00">type_traits</text>
</a>
</g>
</g>
<!-- Node3&#45;&gt;Node17 -->
<g id="edge38" class="edge">
<title>Node3&#45;&gt;Node17</title>
<path fill="none" stroke="midnightblue" d="M560.77,-229.51C490.48,-224.4 380.65,-212.65 348,-188 314.59,-162.78 299.97,-113.09 294.24,-85.89"/>
<polygon fill="midnightblue" stroke="midnightblue" points="297.62,-84.91 292.3,-75.75 290.75,-86.23 297.62,-84.91"/>
</g>
<!-- Node18 -->
<g id="node18" class="node">
<title>Node18</title>
<g id="a_node18"><a xlink:href="_types_8hpp.html" target="_top" xlink:title=" ">
<polygon fill="white" stroke="black" points="947.5,-112.5 947.5,-131.5 1012.5,-131.5 1012.5,-112.5 947.5,-112.5"/>
<text text-anchor="middle" x="980" y="-119.5" font-family="Helvetica,sans-Serif" font-size="10.00">Types.hpp</text>
</a>
</g>
</g>
<!-- Node3&#45;&gt;Node18 -->
<g id="edge33" class="edge">
<title>Node3&#45;&gt;Node18</title>
<path fill="none" stroke="midnightblue" d="M645.1,-224.46C680.55,-211.49 750.59,-186.41 811,-168 853.64,-155.01 902.96,-142.12 937.27,-133.49"/>
<polygon fill="midnightblue" stroke="midnightblue" points="938.56,-136.77 947.41,-130.95 936.86,-129.98 938.56,-136.77"/>
</g>
<!-- Node21 -->
<g id="node21" class="node">
<title>Node21</title>
<g id="a_node21"><a xlink:title=" ">
<polygon fill="white" stroke="#bfbfbf" points="610.5,-56.5 610.5,-75.5 663.5,-75.5 663.5,-56.5 610.5,-56.5"/>
<text text-anchor="middle" x="637" y="-63.5" font-family="Helvetica,sans-Serif" font-size="10.00">stdint.h</text>
</a>
</g>
</g>
<!-- Node3&#45;&gt;Node21 -->
<g id="edge34" class="edge">
<title>Node3&#45;&gt;Node21</title>
<path fill="none" stroke="midnightblue" d="M622.81,-224.08C625.17,-197.95 632.1,-121.21 635.32,-85.58"/>
<polygon fill="midnightblue" stroke="midnightblue" points="638.81,-85.84 636.23,-75.57 631.84,-85.21 638.81,-85.84"/>
</g>
<!-- Node26 -->
<g id="node26" class="node">
<title>Node26</title>
<g id="a_node26"><a xlink:title=" ">
<polygon fill="white" stroke="#bfbfbf" points="438.5,-56.5 438.5,-75.5 485.5,-75.5 485.5,-56.5 438.5,-56.5"/>
<text text-anchor="middle" x="462" y="-63.5" font-family="Helvetica,sans-Serif" font-size="10.00">cmath</text>
</a>
</g>
</g>
<!-- Node3&#45;&gt;Node26 -->
<g id="edge35" class="edge">
<title>Node3&#45;&gt;Node26</title>
<path fill="none" stroke="midnightblue" d="M609.6,-224.27C586.9,-207.92 537.89,-170.78 504,-132 491.05,-117.18 479.17,-98.05 471.38,-84.38"/>
<polygon fill="midnightblue" stroke="midnightblue" points="474.38,-82.58 466.47,-75.54 468.26,-85.98 474.38,-82.58"/>
</g>
<!-- Node5 -->
<g id="node5" class="node">
<title>Node5</title>
<g id="a_node5"><a xlink:title=" ">
<polygon fill="white" stroke="#bfbfbf" points="728,-0.5 728,-19.5 786,-19.5 786,-0.5 728,-0.5"/>
<text text-anchor="middle" x="757" y="-7.5" font-family="Helvetica,sans-Serif" font-size="10.00">memory</text>
</a>
</g>
</g>
<!-- Node4&#45;&gt;Node5 -->
<g id="edge4" class="edge">
<title>Node4&#45;&gt;Node5</title>
<path fill="none" stroke="midnightblue" d="M745.31,-56.08C747.17,-48.93 749.84,-38.64 752.15,-29.69"/>
<polygon fill="midnightblue" stroke="midnightblue" points="755.61,-30.31 754.73,-19.75 748.83,-28.55 755.61,-30.31"/>
</g>
<!-- Node4&#45;&gt;Node6 -->
<g id="edge5" class="edge">
<title>Node4&#45;&gt;Node6</title>
<path fill="none" stroke="midnightblue" d="M706.71,-56.44C664.57,-46.5 595.33,-30.18 552.33,-20.04"/>
<polygon fill="midnightblue" stroke="midnightblue" points="553.06,-16.61 542.52,-17.73 551.45,-23.43 553.06,-16.61"/>
</g>
<!-- Node4&#45;&gt;Node7 -->
<g id="edge6" class="edge">
<title>Node4&#45;&gt;Node7</title>
<path fill="none" stroke="midnightblue" d="M717.49,-56.44C687.51,-46.39 638.03,-29.79 607.89,-19.68"/>
<polygon fill="midnightblue" stroke="midnightblue" points="608.69,-16.26 598.1,-16.4 606.46,-22.9 608.69,-16.26"/>
</g>
<!-- Node8 -->
<g id="node8" class="node">
<title>Node8</title>
<g id="a_node8"><a xlink:title=" ">
<polygon fill="white" stroke="#bfbfbf" points="1004,-0.5 1004,-19.5 1048,-19.5 1048,-0.5 1004,-0.5"/>
<text text-anchor="middle" x="1026" y="-7.5" font-family="Helvetica,sans-Serif" font-size="10.00">string</text>
</a>
</g>
</g>
<!-- Node4&#45;&gt;Node8 -->
<g id="edge7" class="edge">
<title>Node4&#45;&gt;Node8</title>
<path fill="none" stroke="midnightblue" d="M787.84,-56.44C845.17,-45.5 943.05,-26.83 993.62,-17.18"/>
<polygon fill="midnightblue" stroke="midnightblue" points="994.5,-20.57 1003.67,-15.26 993.19,-13.7 994.5,-20.57"/>
</g>
<!-- Node9 -->
<g id="node9" class="node">
<title>Node9</title>
<g id="a_node9"><a xlink:title=" ">
<polygon fill="white" stroke="#bfbfbf" points="624,-0.5 624,-19.5 710,-19.5 710,-0.5 624,-0.5"/>
<text text-anchor="middle" x="667" y="-7.5" font-family="Helvetica,sans-Serif" font-size="10.00">unordered_set</text>
</a>
</g>
</g>
<!-- Node4&#45;&gt;Node9 -->
<g id="edge8" class="edge">
<title>Node4&#45;&gt;Node9</title>
<path fill="none" stroke="midnightblue" d="M730.79,-56.32C719.22,-48.11 701.62,-35.6 687.84,-25.81"/>
<polygon fill="midnightblue" stroke="midnightblue" points="689.61,-22.77 679.43,-19.83 685.56,-28.48 689.61,-22.77"/>
</g>
<!-- Node10 -->
<g id="node10" class="node">
<title>Node10</title>
<g id="a_node10"><a xlink:title=" ">
<polygon fill="white" stroke="#bfbfbf" points="808.5,-0.5 808.5,-19.5 855.5,-19.5 855.5,-0.5 808.5,-0.5"/>
<text text-anchor="middle" x="832" y="-7.5" font-family="Helvetica,sans-Serif" font-size="10.00">vector</text>
</a>
</g>
</g>
<!-- Node4&#45;&gt;Node10 -->
<g id="edge9" class="edge">
<title>Node4&#45;&gt;Node10</title>
<path fill="none" stroke="midnightblue" d="M757.3,-56.32C771.18,-47.9 792.49,-34.97 808.8,-25.07"/>
<polygon fill="midnightblue" stroke="midnightblue" points="811,-27.83 817.74,-19.65 807.37,-21.85 811,-27.83"/>
</g>
<!-- Node11&#45;&gt;Node8 -->
<g id="edge13" class="edge">
<title>Node11&#45;&gt;Node8</title>
<path fill="none" stroke="midnightblue" d="M1193.47,-56.44C1156.4,-46.39 1095.23,-29.79 1057.98,-19.68"/>
<polygon fill="midnightblue" stroke="midnightblue" points="1058.71,-16.25 1048.14,-17.01 1056.88,-23.01 1058.71,-16.25"/>
</g>
<!-- Node12 -->
<g id="node12" class="node">
<title>Node12</title>
<g id="a_node12"><a xlink:title=" ">
<polygon fill="white" stroke="#bfbfbf" points="1157,-0.5 1157,-19.5 1213,-19.5 1213,-0.5 1157,-0.5"/>
<text text-anchor="middle" x="1185" y="-7.5" font-family="Helvetica,sans-Serif" font-size="10.00">sstream</text>
</a>
</g>
</g>
<!-- Node11&#45;&gt;Node12 -->
<g id="edge11" class="edge">
<title>Node11&#45;&gt;Node12</title>
<path fill="none" stroke="midnightblue" d="M1218.39,-56.08C1212.74,-48.46 1204.46,-37.26 1197.55,-27.94"/>
<polygon fill="midnightblue" stroke="midnightblue" points="1200.25,-25.7 1191.48,-19.75 1194.62,-29.87 1200.25,-25.7"/>
</g>
<!-- Node13 -->
<g id="node13" class="node">
<title>Node13</title>
<g id="a_node13"><a xlink:title=" ">
<polygon fill="white" stroke="#bfbfbf" points="1231.5,-0.5 1231.5,-19.5 1296.5,-19.5 1296.5,-0.5 1231.5,-0.5"/>
<text text-anchor="middle" x="1264" y="-7.5" font-family="Helvetica,sans-Serif" font-size="10.00">stdexcept</text>
</a>
</g>
</g>
<!-- Node11&#45;&gt;Node13 -->
<g id="edge12" class="edge">
<title>Node11&#45;&gt;Node13</title>
<path fill="none" stroke="midnightblue" d="M1231.44,-56.08C1236.95,-48.46 1245.03,-37.26 1251.76,-27.94"/>
<polygon fill="midnightblue" stroke="midnightblue" points="1254.66,-29.91 1257.68,-19.75 1248.99,-25.81 1254.66,-29.91"/>
</g>
<!-- Node14&#45;&gt;Node10 -->
<g id="edge31" class="edge">
<title>Node14&#45;&gt;Node10</title>
<path fill="none" stroke="midnightblue" d="M1071.43,-168.46C1093.68,-147.29 1145.37,-91.58 1115,-56 1098.99,-37.24 937.95,-20.54 866.19,-13.97"/>
<polygon fill="midnightblue" stroke="midnightblue" points="866.15,-10.45 855.87,-13.04 865.52,-17.42 866.15,-10.45"/>
</g>
<!-- Node14&#45;&gt;Node11 -->
<g id="edge15" class="edge">
<title>Node14&#45;&gt;Node11</title>
<path fill="none" stroke="midnightblue" d="M1074.79,-168.37C1102.76,-149.49 1169.6,-104.38 1203.9,-81.24"/>
<polygon fill="midnightblue" stroke="midnightblue" points="1205.94,-84.09 1212.27,-75.59 1202.02,-78.28 1205.94,-84.09"/>
</g>
<!-- Node15 -->
<g id="node15" class="node">
<title>Node15</title>
<g id="a_node15"><a xlink:href="_optional_8hpp.html" target="_top" xlink:title=" ">
<polygon fill="white" stroke="black" points="811.5,-112.5 811.5,-131.5 890.5,-131.5 890.5,-112.5 811.5,-112.5"/>
<text text-anchor="middle" x="851" y="-119.5" font-family="Helvetica,sans-Serif" font-size="10.00">Optional.hpp</text>
</a>
</g>
</g>
<!-- Node14&#45;&gt;Node15 -->
<g id="edge16" class="edge">
<title>Node14&#45;&gt;Node15</title>
<path fill="none" stroke="midnightblue" d="M1028.57,-168.44C992.14,-159.12 933.77,-144.18 893.97,-134"/>
<polygon fill="midnightblue" stroke="midnightblue" points="894.83,-130.61 884.28,-131.52 893.1,-137.39 894.83,-130.61"/>
</g>
<!-- Node14&#45;&gt;Node18 -->
<g id="edge20" class="edge">
<title>Node14&#45;&gt;Node18</title>
<path fill="none" stroke="midnightblue" d="M1048.83,-168.32C1036.15,-159.98 1016.77,-147.21 1001.79,-137.35"/>
<polygon fill="midnightblue" stroke="midnightblue" points="1003.42,-134.23 993.14,-131.65 999.57,-140.08 1003.42,-134.23"/>
</g>
<!-- Node19 -->
<g id="node19" class="node">
<title>Node19</title>
<g id="a_node19"><a xlink:title=" ">
<polygon fill="white" stroke="#bfbfbf" points="1306,-56.5 1306,-75.5 1348,-75.5 1348,-56.5 1306,-56.5"/>
<text text-anchor="middle" x="1327" y="-63.5" font-family="Helvetica,sans-Serif" font-size="10.00">array</text>
</a>
</g>
</g>
<!-- Node14&#45;&gt;Node19 -->
<g id="edge29" class="edge">
<title>Node14&#45;&gt;Node19</title>
<path fill="none" stroke="midnightblue" d="M1080.65,-168.38C1099.87,-159.44 1130.65,-144.99 1157,-132 1174.47,-123.39 1178.08,-119.63 1196,-112 1214.3,-104.21 1263.63,-87.7 1296.26,-76.99"/>
<polygon fill="midnightblue" stroke="midnightblue" points="1297.38,-80.31 1305.8,-73.87 1295.21,-73.66 1297.38,-80.31"/>
</g>
<!-- Node14&#45;&gt;Node21 -->
<g id="edge28" class="edge">
<title>Node14&#45;&gt;Node21</title>
<path fill="none" stroke="midnightblue" d="M1035.72,-168.43C1010.56,-159.99 971.71,-146.31 939,-132 921.15,-124.19 918.52,-118.05 900,-112 805.93,-81.29 775.02,-95.45 673.71,-75.94"/>
<polygon fill="midnightblue" stroke="midnightblue" points="674.17,-72.46 663.68,-73.95 672.8,-79.33 674.17,-72.46"/>
</g>
<!-- Node24 -->
<g id="node24" class="node">
<title>Node24</title>
<g id="a_node24"><a xlink:title=" ">
<polygon fill="white" stroke="#bfbfbf" points="1204.5,-112.5 1204.5,-131.5 1287.5,-131.5 1287.5,-112.5 1204.5,-112.5"/>
<text text-anchor="middle" x="1246" y="-119.5" font-family="Helvetica,sans-Serif" font-size="10.00">initializer_list</text>
</a>
</g>
</g>
<!-- Node14&#45;&gt;Node24 -->
<g id="edge30" class="edge">
<title>Node14&#45;&gt;Node24</title>
<path fill="none" stroke="midnightblue" d="M1091.16,-168.44C1122.51,-159.24 1172.53,-144.56 1207.2,-134.39"/>
<polygon fill="midnightblue" stroke="midnightblue" points="1208.37,-137.69 1216.98,-131.52 1206.4,-130.97 1208.37,-137.69"/>
</g>
<!-- Node25 -->
<g id="node25" class="node">
<title>Node25</title>
<g id="a_node25"><a xlink:title=" ">
<polygon fill="white" stroke="#bfbfbf" points="748.5,-112.5 748.5,-131.5 793.5,-131.5 793.5,-112.5 748.5,-112.5"/>
<text text-anchor="middle" x="771" y="-119.5" font-family="Helvetica,sans-Serif" font-size="10.00">utility</text>
</a>
</g>
</g>
<!-- Node14&#45;&gt;Node25 -->
<g id="edge32" class="edge">
<title>Node14&#45;&gt;Node25</title>
<path fill="none" stroke="midnightblue" d="M1010.09,-169.58C959.74,-162.02 881,-149.26 803.58,-131.93"/>
<polygon fill="midnightblue" stroke="midnightblue" points="804.18,-128.48 793.65,-129.68 802.63,-135.3 804.18,-128.48"/>
</g>
<!-- Node15&#45;&gt;Node11 -->
<g id="edge17" class="edge">
<title>Node15&#45;&gt;Node11</title>
<path fill="none" stroke="midnightblue" d="M890.67,-115.27C953.73,-106.17 1077.67,-88.27 1155.64,-77.01"/>
<polygon fill="midnightblue" stroke="midnightblue" points="1156.46,-80.43 1165.86,-75.54 1155.46,-73.5 1156.46,-80.43"/>
</g>
<!-- Node16 -->
<g id="node16" class="node">
<title>Node16</title>
<g id="a_node16"><a xlink:title=" ">
<polygon fill="white" stroke="#bfbfbf" points="542,-56.5 542,-75.5 592,-75.5 592,-56.5 542,-56.5"/>
<text text-anchor="middle" x="567" y="-63.5" font-family="Helvetica,sans-Serif" font-size="10.00">cstring</text>
</a>
</g>
</g>
<!-- Node15&#45;&gt;Node16 -->
<g id="edge18" class="edge">
<title>Node15&#45;&gt;Node16</title>
<path fill="none" stroke="midnightblue" d="M811.45,-113.56C808.59,-113.03 805.75,-112.5 803,-112 713.73,-95.64 690.68,-95.31 602,-76 601.9,-75.98 601.8,-75.96 601.7,-75.93"/>
<polygon fill="midnightblue" stroke="midnightblue" points="602.72,-72.58 592.18,-73.71 601.13,-79.39 602.72,-72.58"/>
</g>
<!-- Node15&#45;&gt;Node17 -->
<g id="edge19" class="edge">
<title>Node15&#45;&gt;Node17</title>
<path fill="none" stroke="midnightblue" d="M811.24,-113.2C808.46,-112.76 805.69,-112.35 803,-112 599.41,-85.16 543.34,-104.34 335.53,-75.88"/>
<polygon fill="midnightblue" stroke="midnightblue" points="335.9,-72.4 325.52,-74.48 334.94,-79.33 335.9,-72.4"/>
</g>
<!-- Node18&#45;&gt;Node4 -->
<g id="edge25" class="edge">
<title>Node18&#45;&gt;Node4</title>
<path fill="none" stroke="midnightblue" d="M947.05,-113.49C906.28,-104.2 836.6,-88.33 790.18,-77.75"/>
<polygon fill="midnightblue" stroke="midnightblue" points="790.88,-74.32 780.36,-75.51 789.33,-81.15 790.88,-74.32"/>
</g>
<!-- Node18&#45;&gt;Node11 -->
<g id="edge26" class="edge">
<title>Node18&#45;&gt;Node11</title>
<path fill="none" stroke="midnightblue" d="M1012.53,-113.83C1054.46,-104.59 1127.72,-88.44 1176.3,-77.73"/>
<polygon fill="midnightblue" stroke="midnightblue" points="1177.25,-81.11 1186.27,-75.54 1175.75,-74.27 1177.25,-81.11"/>
</g>
<!-- Node18&#45;&gt;Node19 -->
<g id="edge21" class="edge">
<title>Node18&#45;&gt;Node19</title>
<path fill="none" stroke="midnightblue" d="M1012.69,-118C1068.81,-112.49 1187.19,-99.34 1295.98,-75.94"/>
<polygon fill="midnightblue" stroke="midnightblue" points="1296.78,-79.35 1305.8,-73.79 1295.28,-72.51 1296.78,-79.35"/>
</g>
<!-- Node20 -->
<g id="node20" class="node">
<title>Node20</title>
<g id="a_node20"><a xlink:title=" ">
<polygon fill="white" stroke="#bfbfbf" points="860.5,-56.5 860.5,-75.5 925.5,-75.5 925.5,-56.5 860.5,-56.5"/>
<text text-anchor="middle" x="893" y="-63.5" font-family="Helvetica,sans-Serif" font-size="10.00">functional</text>
</a>
</g>
</g>
<!-- Node18&#45;&gt;Node20 -->
<g id="edge22" class="edge">
<title>Node18&#45;&gt;Node20</title>
<path fill="none" stroke="midnightblue" d="M966.02,-112.32C952.45,-103.9 931.62,-90.97 915.68,-81.07"/>
<polygon fill="midnightblue" stroke="midnightblue" points="917.29,-77.95 906.94,-75.65 913.59,-83.9 917.29,-77.95"/>
</g>
<!-- Node18&#45;&gt;Node21 -->
<g id="edge23" class="edge">
<title>Node18&#45;&gt;Node21</title>
<path fill="none" stroke="midnightblue" d="M947.42,-114.54C942.59,-113.64 937.67,-112.77 933,-112 821.04,-93.54 789.25,-97.91 673.62,-75.92"/>
<polygon fill="midnightblue" stroke="midnightblue" points="674.15,-72.46 663.67,-74.01 672.82,-79.33 674.15,-72.46"/>
</g>
<!-- Node22 -->
<g id="node22" class="node">
<title>Node22</title>
<g id="a_node22"><a xlink:title=" ">
<polygon fill="white" stroke="#bfbfbf" points="944,-56.5 944,-75.5 994,-75.5 994,-56.5 944,-56.5"/>
<text text-anchor="middle" x="969" y="-63.5" font-family="Helvetica,sans-Serif" font-size="10.00">chrono</text>
</a>
</g>
</g>
<!-- Node18&#45;&gt;Node22 -->
<g id="edge24" class="edge">
<title>Node18&#45;&gt;Node22</title>
<path fill="none" stroke="midnightblue" d="M978.18,-112.08C976.73,-104.93 974.63,-94.64 972.81,-85.69"/>
<polygon fill="midnightblue" stroke="midnightblue" points="976.21,-84.85 970.78,-75.75 969.35,-86.25 976.21,-84.85"/>
</g>
<!-- Node23 -->
<g id="node23" class="node">
<title>Node23</title>
<g id="a_node23"><a xlink:href="_deprecated_8hpp.html" target="_top" xlink:title=" ">
<polygon fill="white" stroke="black" points="1012,-56.5 1012,-75.5 1106,-75.5 1106,-56.5 1012,-56.5"/>
<text text-anchor="middle" x="1059" y="-63.5" font-family="Helvetica,sans-Serif" font-size="10.00">Deprecated.hpp</text>
</a>
</g>
</g>
<!-- Node18&#45;&gt;Node23 -->
<g id="edge27" class="edge">
<title>Node18&#45;&gt;Node23</title>
<path fill="none" stroke="midnightblue" d="M992.69,-112.32C1004.9,-103.98 1023.58,-91.21 1038,-81.35"/>
<polygon fill="midnightblue" stroke="midnightblue" points="1040.06,-84.19 1046.34,-75.65 1036.11,-78.41 1040.06,-84.19"/>
</g>
<!-- Node28 -->
<g id="node28" class="node">
<title>Node28</title>
<g id="a_node28"><a xlink:title=" ">
<polygon fill="white" stroke="#bfbfbf" points="891,-168.5 891,-187.5 943,-187.5 943,-168.5 891,-168.5"/>
<text text-anchor="middle" x="917" y="-175.5" font-family="Helvetica,sans-Serif" font-size="10.00">cassert</text>
</a>
</g>
</g>
<!-- Node27&#45;&gt;Node28 -->
<g id="edge40" class="edge">
<title>Node27&#45;&gt;Node28</title>
<path fill="none" stroke="midnightblue" d="M893.62,-224.08C897.46,-216.69 903.02,-205.95 907.76,-196.81"/>
<polygon fill="midnightblue" stroke="midnightblue" points="910.97,-198.24 912.46,-187.75 904.75,-195.02 910.97,-198.24"/>
</g>
<!-- Node29&#45;&gt;Node17 -->
<g id="edge43" class="edge">
<title>Node29&#45;&gt;Node17</title>
<path fill="none" stroke="midnightblue" d="M340.86,-285.83C332.28,-261.78 308.34,-192.02 297,-132 294.1,-116.67 292.59,-99.03 291.8,-86"/>
<polygon fill="midnightblue" stroke="midnightblue" points="295.29,-85.71 291.29,-75.91 288.3,-86.07 295.29,-85.71"/>
</g>
<!-- Node29&#45;&gt;Node27 -->
<g id="edge42" class="edge">
<title>Node29&#45;&gt;Node27</title>
<path fill="none" stroke="midnightblue" d="M422.09,-285.98C525.91,-274.64 708.31,-254.73 811.72,-243.44"/>
<polygon fill="midnightblue" stroke="midnightblue" points="812.22,-246.9 821.79,-242.34 811.47,-239.94 812.22,-246.9"/>
</g>
<!-- Node30 -->
<g id="node30" class="node">
<title>Node30</title>
<g id="a_node30"><a xlink:title=" ">
<polygon fill="white" stroke="#bfbfbf" points="80,-224.5 80,-243.5 124,-243.5 124,-224.5 80,-224.5"/>
<text text-anchor="middle" x="102" y="-231.5" font-family="Helvetica,sans-Serif" font-size="10.00">limits</text>
</a>
</g>
</g>
<!-- Node29&#45;&gt;Node30 -->
<g id="edge44" class="edge">
<title>Node29&#45;&gt;Node30</title>
<path fill="none" stroke="midnightblue" d="M309,-285.97C268,-275.97 198.05,-258.87 138,-244 136.73,-243.69 135.44,-243.37 134.14,-243.04"/>
<polygon fill="midnightblue" stroke="midnightblue" points="134.63,-239.56 124.08,-240.54 132.94,-246.35 134.63,-239.56"/>
</g>
<!-- Node32 -->
<g id="node32" class="node">
<title>Node32</title>
<g id="a_node32"><a xlink:title=" ">
<polygon fill="white" stroke="#bfbfbf" points="8.5,-224.5 8.5,-243.5 61.5,-243.5 61.5,-224.5 8.5,-224.5"/>
<text text-anchor="middle" x="35" y="-231.5" font-family="Helvetica,sans-Serif" font-size="10.00">cstddef</text>
</a>
</g>
</g>
<!-- Node31&#45;&gt;Node32 -->
<g id="edge46" class="edge">
<title>Node31&#45;&gt;Node32</title>
<path fill="none" stroke="midnightblue" d="M60.94,-280.4C56.15,-272.02 50.04,-261.33 44.96,-252.42"/>
<polygon fill="midnightblue" stroke="midnightblue" points="47.95,-250.6 39.95,-243.66 41.87,-254.08 47.95,-250.6"/>
</g>
<!-- Node33&#45;&gt;Node3 -->
<g id="edge48" class="edge">
<title>Node33&#45;&gt;Node3</title>
<path fill="none" stroke="midnightblue" d="M716.24,-285.98C698.02,-276.12 667.83,-259.79 646.53,-248.27"/>
<polygon fill="midnightblue" stroke="midnightblue" points="648.19,-245.19 637.73,-243.51 644.86,-251.35 648.19,-245.19"/>
</g>
<!-- Node33&#45;&gt;Node10 -->
<g id="edge53" class="edge">
<title>Node33&#45;&gt;Node10</title>
<path fill="none" stroke="midnightblue" d="M729.58,-285.96C722.24,-258.18 702.91,-168.84 740,-112 759.77,-81.71 789.74,-103.7 813,-76 823.98,-62.93 828.61,-43.78 830.57,-29.65"/>
<polygon fill="midnightblue" stroke="midnightblue" points="834.06,-29.91 831.64,-19.6 827.1,-29.18 834.06,-29.91"/>
</g>
<!-- Node33&#45;&gt;Node14 -->
<g id="edge49" class="edge">
<title>Node33&#45;&gt;Node14</title>
<path fill="none" stroke="midnightblue" d="M804.49,-285.97C851.59,-278.71 913.58,-265.86 965,-244 994.96,-231.27 1025.5,-208.94 1044.1,-194.05"/>
<polygon fill="midnightblue" stroke="midnightblue" points="1046.46,-196.65 1051.99,-187.61 1042.03,-191.23 1046.46,-196.65"/>
</g>
<!-- Node33&#45;&gt;Node18 -->
<g id="edge50" class="edge">
<title>Node33&#45;&gt;Node18</title>
<path fill="none" stroke="midnightblue" d="M740.43,-285.83C762.18,-263.81 822.69,-204.87 882,-168 902.81,-155.06 927.96,-143.59 947.57,-135.47"/>
<polygon fill="midnightblue" stroke="midnightblue" points="949.04,-138.65 956.99,-131.65 946.41,-132.17 949.04,-138.65"/>
</g>
<!-- Node33&#45;&gt;Node25 -->
<g id="edge52" class="edge">
<title>Node33&#45;&gt;Node25</title>
<path fill="none" stroke="midnightblue" d="M733.99,-285.76C740.06,-259.04 758.49,-178.02 766.82,-141.36"/>
<polygon fill="midnightblue" stroke="midnightblue" points="770.26,-142.05 769.06,-131.52 763.43,-140.49 770.26,-142.05"/>
</g>
<!-- Node33&#45;&gt;Node33 -->
<g id="edge51" class="edge">
<title>Node33&#45;&gt;Node33</title>
<path fill="none" stroke="midnightblue" d="M766.15,-305.03C794.69,-309.11 824.5,-305.93 824.5,-295.5 824.5,-286.29 801.26,-282.74 776.19,-284.83"/>
<polygon fill="midnightblue" stroke="midnightblue" points="775.7,-281.37 766.15,-285.97 776.48,-288.32 775.7,-281.37"/>
</g>
<!-- Node34&#45;&gt;Node18 -->
<g id="edge55" class="edge">
<title>Node34&#45;&gt;Node18</title>
<path fill="none" stroke="midnightblue" d="M455.82,-172.81C544.96,-165.24 737.64,-148.53 900,-132 912.04,-130.77 925.1,-129.35 937.1,-128"/>
<polygon fill="midnightblue" stroke="midnightblue" points="937.78,-131.44 947.32,-126.83 936.99,-124.49 937.78,-131.44"/>
</g>
<!-- Node35 -->
<g id="node35" class="node">
<title>Node35</title>
<g id="a_node35"><a xlink:href="_b_float16_8hpp.html" target="_top" xlink:title=" ">
<polygon fill="white" stroke="black" points="512.5,-112.5 512.5,-131.5 593.5,-131.5 593.5,-112.5 512.5,-112.5"/>
<text text-anchor="middle" x="553" y="-119.5" font-family="Helvetica,sans-Serif" font-size="10.00">BFloat16.hpp</text>
</a>
</g>
</g>
<!-- Node34&#45;&gt;Node35 -->
<g id="edge56" class="edge">
<title>Node34&#45;&gt;Node35</title>
<path fill="none" stroke="midnightblue" d="M429.29,-168.44C453.81,-159.44 492.6,-145.19 520.2,-135.05"/>
<polygon fill="midnightblue" stroke="midnightblue" points="521.64,-138.25 529.82,-131.52 519.22,-131.68 521.64,-138.25"/>
</g>
<!-- Node36 -->
<g id="node36" class="node">
<title>Node36</title>
<g id="a_node36"><a xlink:href="_half_8hpp.html" target="_top" xlink:title=" ">
<polygon fill="white" stroke="black" points="353.5,-112.5 353.5,-131.5 410.5,-131.5 410.5,-112.5 353.5,-112.5"/>
<text text-anchor="middle" x="382" y="-119.5" font-family="Helvetica,sans-Serif" font-size="10.00">Half.hpp</text>
</a>
</g>
</g>
<!-- Node34&#45;&gt;Node36 -->
<g id="edge61" class="edge">
<title>Node34&#45;&gt;Node36</title>
<path fill="none" stroke="midnightblue" d="M402.04,-168.08C398.79,-160.77 394.08,-150.18 390.05,-141.1"/>
<polygon fill="midnightblue" stroke="midnightblue" points="393.15,-139.47 385.89,-131.75 386.75,-142.31 393.15,-139.47"/>
</g>
<!-- Node35&#45;&gt;Node6 -->
<g id="edge57" class="edge">
<title>Node35&#45;&gt;Node6</title>
<path fill="none" stroke="midnightblue" d="M548.66,-112.18C544.34,-103.21 537.71,-88.84 533,-76 527.31,-60.48 522.14,-42.39 518.63,-29.25"/>
<polygon fill="midnightblue" stroke="midnightblue" points="522.01,-28.33 516.1,-19.53 515.23,-30.09 522.01,-28.33"/>
</g>
<!-- Node35&#45;&gt;Node16 -->
<g id="edge59" class="edge">
<title>Node35&#45;&gt;Node16</title>
<path fill="none" stroke="midnightblue" d="M555.31,-112.08C557.17,-104.93 559.84,-94.64 562.15,-85.69"/>
<polygon fill="midnightblue" stroke="midnightblue" points="565.61,-86.31 564.73,-75.75 558.83,-84.55 565.61,-86.31"/>
</g>
<!-- Node35&#45;&gt;Node21 -->
<g id="edge60" class="edge">
<title>Node35&#45;&gt;Node21</title>
<path fill="none" stroke="midnightblue" d="M566.5,-112.32C579.6,-103.9 599.71,-90.97 615.11,-81.07"/>
<polygon fill="midnightblue" stroke="midnightblue" points="617.02,-84.01 623.54,-75.65 613.23,-78.12 617.02,-84.01"/>
</g>
<!-- Node35&#45;&gt;Node26 -->
<g id="edge58" class="edge">
<title>Node35&#45;&gt;Node26</title>
<path fill="none" stroke="midnightblue" d="M538.38,-112.32C524.05,-103.82 501.99,-90.73 485.25,-80.8"/>
<polygon fill="midnightblue" stroke="midnightblue" points="486.97,-77.75 476.58,-75.65 483.4,-83.77 486.97,-77.75"/>
</g>
<!-- Node36&#45;&gt;Node17 -->
<g id="edge62" class="edge">
<title>Node36&#45;&gt;Node17</title>
<path fill="none" stroke="midnightblue" d="M367.38,-112.32C353.05,-103.82 330.99,-90.73 314.25,-80.8"/>
<polygon fill="midnightblue" stroke="midnightblue" points="315.97,-77.75 305.58,-75.65 312.4,-83.77 315.97,-77.75"/>
</g>
<!-- Node37 -->
<g id="node37" class="node">
<title>Node37</title>
<g id="a_node37"><a xlink:title=" ">
<polygon fill="white" stroke="#bfbfbf" points="343.5,-56.5 343.5,-75.5 420.5,-75.5 420.5,-56.5 343.5,-56.5"/>
<text text-anchor="middle" x="382" y="-63.5" font-family="Helvetica,sans-Serif" font-size="10.00">half/half.hpp</text>
</a>
</g>
</g>
<!-- Node36&#45;&gt;Node37 -->
<g id="edge63" class="edge">
<title>Node36&#45;&gt;Node37</title>
<path fill="none" stroke="midnightblue" d="M382,-112.08C382,-105.01 382,-94.86 382,-85.99"/>
<polygon fill="midnightblue" stroke="midnightblue" points="385.5,-85.75 382,-75.75 378.5,-85.75 385.5,-85.75"/>
</g>
<!-- Node38&#45;&gt;Node14 -->
<g id="edge67" class="edge">
<title>Node38&#45;&gt;Node14</title>
<path fill="none" stroke="midnightblue" d="M989.09,-285.85C1002.71,-276.87 1023.12,-261.66 1036,-244 1046.28,-229.9 1053.21,-211.16 1057.31,-197.43"/>
<polygon fill="midnightblue" stroke="midnightblue" points="1060.72,-198.24 1060,-187.67 1053.97,-196.38 1060.72,-198.24"/>
</g>
<!-- Node38&#45;&gt;Node18 -->
<g id="edge66" class="edge">
<title>Node38&#45;&gt;Node18</title>
<path fill="none" stroke="midnightblue" d="M975.25,-285.76C976.03,-259.15 978.38,-178.71 979.45,-141.84"/>
<polygon fill="midnightblue" stroke="midnightblue" points="982.96,-141.62 979.75,-131.52 975.96,-141.41 982.96,-141.62"/>
</g>
<!-- Node38&#45;&gt;Node27 -->
<g id="edge68" class="edge">
<title>Node38&#45;&gt;Node27</title>
<path fill="none" stroke="midnightblue" d="M962.68,-285.98C948.88,-276.43 926.3,-260.81 909.77,-249.37"/>
<polygon fill="midnightblue" stroke="midnightblue" points="911.51,-246.32 901.3,-243.51 907.53,-252.08 911.51,-246.32"/>
</g>
</g>
</svg>
