<?xml version="1.0" encoding="UTF-8" standalone="no"?>
<!DOCTYPE svg PUBLIC "-//W3C//DTD SVG 1.1//EN"
 "http://www.w3.org/Graphics/SVG/1.1/DTD/svg11.dtd">
<!-- Generated by graphviz version 2.43.0 (0)
 -->
<!-- Title: src/backends/reference/workloads/Slice.cpp Pages: 1 -->
<svg width="1429pt" height="498pt"
 viewBox="0.00 0.00 1428.61 498.00" xmlns="http://www.w3.org/2000/svg" xmlns:xlink="http://www.w3.org/1999/xlink">
<g id="graph0" class="graph" transform="scale(1 1) rotate(0) translate(4 494)">
<title>src/backends/reference/workloads/Slice.cpp</title>
<polygon fill="white" stroke="transparent" points="-4,4 -4,-494 1424.61,-494 1424.61,4 -4,4"/>
<!-- Node1 -->
<g id="node1" class="node">
<title>Node1</title>
<g id="a_node1"><a xlink:title=" ">
<polygon fill="#bfbfbf" stroke="black" points="262,-459.5 262,-489.5 391,-489.5 391,-459.5 262,-459.5"/>
<text text-anchor="start" x="270" y="-477.5" font-family="Helvetica,sans-Serif" font-size="10.00">src/backends/reference</text>
<text text-anchor="middle" x="326.5" y="-466.5" font-family="Helvetica,sans-Serif" font-size="10.00">/workloads/Slice.cpp</text>
</a>
</g>
</g>
<!-- Node2 -->
<g id="node2" class="node">
<title>Node2</title>
<g id="a_node2"><a xlink:href="_slice_8hpp.html" target="_top" xlink:title=" ">
<polygon fill="white" stroke="black" points="296,-403.5 296,-422.5 357,-422.5 357,-403.5 296,-403.5"/>
<text text-anchor="middle" x="326.5" y="-410.5" font-family="Helvetica,sans-Serif" font-size="10.00">Slice.hpp</text>
</a>
</g>
</g>
<!-- Node1&#45;&gt;Node2 -->
<g id="edge1" class="edge">
<title>Node1&#45;&gt;Node2</title>
<path fill="none" stroke="midnightblue" d="M326.5,-459.4C326.5,-451.47 326.5,-441.46 326.5,-432.86"/>
<polygon fill="midnightblue" stroke="midnightblue" points="330,-432.66 326.5,-422.66 323,-432.66 330,-432.66"/>
</g>
<!-- Node32 -->
<g id="node32" class="node">
<title>Node32</title>
<g id="a_node32"><a xlink:href="_assert_8hpp.html" target="_top" xlink:title=" ">
<polygon fill="white" stroke="black" points="115.5,-224.5 115.5,-243.5 249.5,-243.5 249.5,-224.5 115.5,-224.5"/>
<text text-anchor="middle" x="182.5" y="-231.5" font-family="Helvetica,sans-Serif" font-size="10.00">armnn/utility/Assert.hpp</text>
</a>
</g>
</g>
<!-- Node1&#45;&gt;Node32 -->
<g id="edge75" class="edge">
<title>Node1&#45;&gt;Node32</title>
<path fill="none" stroke="midnightblue" d="M314.29,-459.39C306.01,-449.52 295.06,-435.85 286.5,-423 246.59,-363.08 207.73,-286.63 191.04,-252.65"/>
<polygon fill="midnightblue" stroke="midnightblue" points="194.12,-250.99 186.59,-243.53 187.83,-254.06 194.12,-250.99"/>
</g>
<!-- Node43 -->
<g id="node43" class="node">
<title>Node43</title>
<g id="a_node43"><a xlink:href="_ignore_unused_8hpp.html" target="_top" xlink:title=" ">
<polygon fill="white" stroke="black" points="375,-403.5 375,-422.5 546,-422.5 546,-403.5 375,-403.5"/>
<text text-anchor="middle" x="460.5" y="-410.5" font-family="Helvetica,sans-Serif" font-size="10.00">armnn/utility/IgnoreUnused.hpp</text>
</a>
</g>
</g>
<!-- Node1&#45;&gt;Node43 -->
<g id="edge76" class="edge">
<title>Node1&#45;&gt;Node43</title>
<path fill="none" stroke="midnightblue" d="M358.26,-459.4C380.54,-449.51 410.09,-436.38 431.69,-426.79"/>
<polygon fill="midnightblue" stroke="midnightblue" points="433.28,-429.91 441,-422.66 430.44,-423.52 433.28,-429.91"/>
</g>
<!-- Node3 -->
<g id="node3" class="node">
<title>Node3</title>
<g id="a_node3"><a xlink:href="_descriptors_8hpp.html" target="_top" xlink:title=" ">
<polygon fill="white" stroke="black" points="1051.5,-224.5 1051.5,-243.5 1179.5,-243.5 1179.5,-224.5 1051.5,-224.5"/>
<text text-anchor="middle" x="1115.5" y="-231.5" font-family="Helvetica,sans-Serif" font-size="10.00">armnn/Descriptors.hpp</text>
</a>
</g>
</g>
<!-- Node2&#45;&gt;Node3 -->
<g id="edge2" class="edge">
<title>Node2&#45;&gt;Node3</title>
<path fill="none" stroke="midnightblue" d="M357.12,-404.78C359.95,-404.16 362.78,-403.56 365.5,-403 594.17,-356.3 656.12,-367.77 882.5,-311 955.59,-292.67 1039.07,-263.33 1083.58,-246.98"/>
<polygon fill="midnightblue" stroke="midnightblue" points="1084.82,-250.26 1092.99,-243.51 1082.39,-243.69 1084.82,-250.26"/>
</g>
<!-- Node29 -->
<g id="node29" class="node">
<title>Node29</title>
<g id="a_node29"><a xlink:href="_base_iterator_8hpp.html" target="_top" xlink:title=" ">
<polygon fill="white" stroke="black" points="278,-347.5 278,-366.5 375,-366.5 375,-347.5 278,-347.5"/>
<text text-anchor="middle" x="326.5" y="-354.5" font-family="Helvetica,sans-Serif" font-size="10.00">BaseIterator.hpp</text>
</a>
</g>
</g>
<!-- Node2&#45;&gt;Node29 -->
<g id="edge39" class="edge">
<title>Node2&#45;&gt;Node29</title>
<path fill="none" stroke="midnightblue" d="M326.5,-403.08C326.5,-396.01 326.5,-385.86 326.5,-376.99"/>
<polygon fill="midnightblue" stroke="midnightblue" points="330,-376.75 326.5,-366.75 323,-376.75 330,-376.75"/>
</g>
<!-- Node4 -->
<g id="node4" class="node">
<title>Node4</title>
<g id="a_node4"><a xlink:href="_deprecated_8hpp.html" target="_top" xlink:title=" ">
<polygon fill="white" stroke="black" points="1014.5,-56.5 1014.5,-75.5 1108.5,-75.5 1108.5,-56.5 1014.5,-56.5"/>
<text text-anchor="middle" x="1061.5" y="-63.5" font-family="Helvetica,sans-Serif" font-size="10.00">Deprecated.hpp</text>
</a>
</g>
</g>
<!-- Node3&#45;&gt;Node4 -->
<g id="edge3" class="edge">
<title>Node3&#45;&gt;Node4</title>
<path fill="none" stroke="midnightblue" d="M1116.35,-224.31C1117.98,-203.76 1120.02,-150.92 1102.5,-112 1097.44,-100.75 1088.47,-90.41 1080.21,-82.48"/>
<polygon fill="midnightblue" stroke="midnightblue" points="1082.43,-79.77 1072.66,-75.67 1077.74,-84.97 1082.43,-79.77"/>
</g>
<!-- Node5 -->
<g id="node5" class="node">
<title>Node5</title>
<g id="a_node5"><a xlink:href="_descriptors_fwd_8hpp.html" target="_top" xlink:title=" ">
<polygon fill="white" stroke="black" points="1226,-168.5 1226,-187.5 1339,-187.5 1339,-168.5 1226,-168.5"/>
<text text-anchor="middle" x="1282.5" y="-175.5" font-family="Helvetica,sans-Serif" font-size="10.00">DescriptorsFwd.hpp</text>
</a>
</g>
</g>
<!-- Node3&#45;&gt;Node5 -->
<g id="edge4" class="edge">
<title>Node3&#45;&gt;Node5</title>
<path fill="none" stroke="midnightblue" d="M1141.96,-224.44C1170.18,-215.32 1215.04,-200.81 1246.47,-190.65"/>
<polygon fill="midnightblue" stroke="midnightblue" points="1247.72,-193.92 1256.16,-187.52 1245.57,-187.26 1247.72,-193.92"/>
</g>
<!-- Node6 -->
<g id="node6" class="node">
<title>Node6</title>
<g id="a_node6"><a xlink:href="_tensor_8hpp.html" target="_top" xlink:title=" ">
<polygon fill="white" stroke="black" points="813.5,-168.5 813.5,-187.5 881.5,-187.5 881.5,-168.5 813.5,-168.5"/>
<text text-anchor="middle" x="847.5" y="-175.5" font-family="Helvetica,sans-Serif" font-size="10.00">Tensor.hpp</text>
</a>
</g>
</g>
<!-- Node3&#45;&gt;Node6 -->
<g id="edge5" class="edge">
<title>Node3&#45;&gt;Node6</title>
<path fill="none" stroke="midnightblue" d="M1073.03,-224.44C1023.46,-214.46 941.88,-198.02 891.61,-187.89"/>
<polygon fill="midnightblue" stroke="midnightblue" points="892.18,-184.43 881.69,-185.89 890.8,-191.29 892.18,-184.43"/>
</g>
<!-- Node7 -->
<g id="node7" class="node">
<title>Node7</title>
<g id="a_node7"><a xlink:href="_exceptions_8hpp.html" target="_top" xlink:title=" ">
<polygon fill="white" stroke="black" points="739,-56.5 739,-75.5 830,-75.5 830,-56.5 739,-56.5"/>
<text text-anchor="middle" x="784.5" y="-63.5" font-family="Helvetica,sans-Serif" font-size="10.00">Exceptions.hpp</text>
</a>
</g>
</g>
<!-- Node3&#45;&gt;Node7 -->
<g id="edge34" class="edge">
<title>Node3&#45;&gt;Node7</title>
<path fill="none" stroke="midnightblue" d="M1115.04,-224.29C1113.33,-201.74 1105.46,-141.16 1069.5,-112 1031.44,-81.13 904.94,-83.78 840.31,-75.91"/>
<polygon fill="midnightblue" stroke="midnightblue" points="840.5,-72.4 830.11,-74.49 839.54,-79.34 840.5,-72.4"/>
</g>
<!-- Node14 -->
<g id="node14" class="node">
<title>Node14</title>
<g id="a_node14"><a xlink:href="_types_8hpp.html" target="_top" xlink:title=" ">
<polygon fill="white" stroke="black" points="715,-112.5 715,-131.5 780,-131.5 780,-112.5 715,-112.5"/>
<text text-anchor="middle" x="747.5" y="-119.5" font-family="Helvetica,sans-Serif" font-size="10.00">Types.hpp</text>
</a>
</g>
</g>
<!-- Node3&#45;&gt;Node14 -->
<g id="edge33" class="edge">
<title>Node3&#45;&gt;Node14</title>
<path fill="none" stroke="midnightblue" d="M1051.36,-228.95C973.05,-223.11 845.91,-210.48 804.5,-188 784.18,-176.97 767.68,-155.68 757.75,-140.47"/>
<polygon fill="midnightblue" stroke="midnightblue" points="760.7,-138.58 752.45,-131.93 754.75,-142.28 760.7,-138.58"/>
</g>
<!-- Node24 -->
<g id="node24" class="node">
<title>Node24</title>
<g id="a_node24"><a xlink:title=" ">
<polygon fill="white" stroke="#bfbfbf" points="1038,-0.5 1038,-19.5 1085,-19.5 1085,-0.5 1038,-0.5"/>
<text text-anchor="middle" x="1061.5" y="-7.5" font-family="Helvetica,sans-Serif" font-size="10.00">vector</text>
</a>
</g>
</g>
<!-- Node3&#45;&gt;Node24 -->
<g id="edge38" class="edge">
<title>Node3&#45;&gt;Node24</title>
<path fill="none" stroke="midnightblue" d="M1179.81,-232.81C1258.96,-231.05 1386.58,-222.73 1416.5,-188 1422.3,-181.27 1421.35,-175.45 1416.5,-168 1343.25,-55.51 1169.04,-23.02 1095.35,-14.14"/>
<polygon fill="midnightblue" stroke="midnightblue" points="1095.56,-10.64 1085.23,-13 1094.78,-17.6 1095.56,-10.64"/>
</g>
<!-- Node26 -->
<g id="node26" class="node">
<title>Node26</title>
<g id="a_node26"><a xlink:title=" ">
<polygon fill="white" stroke="#bfbfbf" points="1015,-112.5 1015,-131.5 1060,-131.5 1060,-112.5 1015,-112.5"/>
<text text-anchor="middle" x="1037.5" y="-119.5" font-family="Helvetica,sans-Serif" font-size="10.00">utility</text>
</a>
</g>
</g>
<!-- Node3&#45;&gt;Node26 -->
<g id="edge37" class="edge">
<title>Node3&#45;&gt;Node26</title>
<path fill="none" stroke="midnightblue" d="M1106.39,-224.21C1097.63,-215.49 1084.31,-201.51 1074.5,-188 1063.55,-172.93 1053.26,-154.34 1046.32,-140.91"/>
<polygon fill="midnightblue" stroke="midnightblue" points="1049.35,-139.13 1041.71,-131.78 1043.1,-142.29 1049.35,-139.13"/>
</g>
<!-- Node27 -->
<g id="node27" class="node">
<title>Node27</title>
<g id="a_node27"><a xlink:title=" ">
<polygon fill="white" stroke="#bfbfbf" points="1357.5,-168.5 1357.5,-187.5 1407.5,-187.5 1407.5,-168.5 1357.5,-168.5"/>
<text text-anchor="middle" x="1382.5" y="-175.5" font-family="Helvetica,sans-Serif" font-size="10.00">cstdint</text>
</a>
</g>
</g>
<!-- Node3&#45;&gt;Node27 -->
<g id="edge35" class="edge">
<title>Node3&#45;&gt;Node27</title>
<path fill="none" stroke="midnightblue" d="M1164.8,-224.48C1209.88,-216.47 1278.63,-203.69 1347.19,-188.18"/>
<polygon fill="midnightblue" stroke="midnightblue" points="1348.33,-191.51 1357.3,-185.88 1346.77,-184.69 1348.33,-191.51"/>
</g>
<!-- Node28 -->
<g id="node28" class="node">
<title>Node28</title>
<g id="a_node28"><a xlink:title=" ">
<polygon fill="white" stroke="#bfbfbf" points="1155,-168.5 1155,-187.5 1208,-187.5 1208,-168.5 1155,-168.5"/>
<text text-anchor="middle" x="1181.5" y="-175.5" font-family="Helvetica,sans-Serif" font-size="10.00">iterator</text>
</a>
</g>
</g>
<!-- Node3&#45;&gt;Node28 -->
<g id="edge36" class="edge">
<title>Node3&#45;&gt;Node28</title>
<path fill="none" stroke="midnightblue" d="M1126.1,-224.32C1135.96,-216.26 1150.85,-204.08 1162.72,-194.37"/>
<polygon fill="midnightblue" stroke="midnightblue" points="1165.18,-196.88 1170.7,-187.83 1160.75,-191.46 1165.18,-196.88"/>
</g>
<!-- Node6&#45;&gt;Node7 -->
<g id="edge6" class="edge">
<title>Node6&#45;&gt;Node7</title>
<path fill="none" stroke="midnightblue" d="M842.56,-168.37C832.21,-150.3 808.08,-108.18 794.41,-84.31"/>
<polygon fill="midnightblue" stroke="midnightblue" points="797.43,-82.53 789.42,-75.59 791.35,-86.01 797.43,-82.53"/>
</g>
<!-- Node11 -->
<g id="node11" class="node">
<title>Node11</title>
<g id="a_node11"><a xlink:href="_optional_8hpp.html" target="_top" xlink:title=" ">
<polygon fill="white" stroke="black" points="541,-112.5 541,-131.5 620,-131.5 620,-112.5 541,-112.5"/>
<text text-anchor="middle" x="580.5" y="-119.5" font-family="Helvetica,sans-Serif" font-size="10.00">Optional.hpp</text>
</a>
</g>
</g>
<!-- Node6&#45;&gt;Node11 -->
<g id="edge10" class="edge">
<title>Node6&#45;&gt;Node11</title>
<path fill="none" stroke="midnightblue" d="M813.41,-170.11C766.92,-160.7 683.33,-143.8 629.95,-133"/>
<polygon fill="midnightblue" stroke="midnightblue" points="630.52,-129.55 620.02,-130.99 629.13,-136.41 630.52,-129.55"/>
</g>
<!-- Node6&#45;&gt;Node14 -->
<g id="edge14" class="edge">
<title>Node6&#45;&gt;Node14</title>
<path fill="none" stroke="midnightblue" d="M831.43,-168.32C815.54,-159.74 790.99,-146.49 772.54,-136.52"/>
<polygon fill="midnightblue" stroke="midnightblue" points="773.99,-133.33 763.53,-131.65 770.66,-139.49 773.99,-133.33"/>
</g>
<!-- Node15 -->
<g id="node15" class="node">
<title>Node15</title>
<g id="a_node15"><a xlink:title=" ">
<polygon fill="white" stroke="#bfbfbf" points="916.5,-56.5 916.5,-75.5 958.5,-75.5 958.5,-56.5 916.5,-56.5"/>
<text text-anchor="middle" x="937.5" y="-63.5" font-family="Helvetica,sans-Serif" font-size="10.00">array</text>
</a>
</g>
</g>
<!-- Node6&#45;&gt;Node15 -->
<g id="edge29" class="edge">
<title>Node6&#45;&gt;Node15</title>
<path fill="none" stroke="midnightblue" d="M876.45,-168.35C894.37,-161.45 916.23,-149.92 928.5,-132 937.65,-118.64 939.42,-100.07 939.17,-86.19"/>
<polygon fill="midnightblue" stroke="midnightblue" points="942.65,-85.66 938.62,-75.87 935.66,-86.04 942.65,-85.66"/>
</g>
<!-- Node17 -->
<g id="node17" class="node">
<title>Node17</title>
<g id="a_node17"><a xlink:title=" ">
<polygon fill="white" stroke="#bfbfbf" points="478,-56.5 478,-75.5 531,-75.5 531,-56.5 478,-56.5"/>
<text text-anchor="middle" x="504.5" y="-63.5" font-family="Helvetica,sans-Serif" font-size="10.00">stdint.h</text>
</a>
</g>
</g>
<!-- Node6&#45;&gt;Node17 -->
<g id="edge28" class="edge">
<title>Node6&#45;&gt;Node17</title>
<path fill="none" stroke="midnightblue" d="M820.26,-168.42C791.67,-159.4 745.4,-144.77 705.5,-132 647.7,-113.5 580.64,-91.76 540.44,-78.69"/>
<polygon fill="midnightblue" stroke="midnightblue" points="541.42,-75.33 530.82,-75.57 539.25,-81.99 541.42,-75.33"/>
</g>
<!-- Node6&#45;&gt;Node24 -->
<g id="edge31" class="edge">
<title>Node6&#45;&gt;Node24</title>
<path fill="none" stroke="midnightblue" d="M875.84,-168.48C897.07,-161.15 926.03,-149.04 947.5,-132 980.78,-105.58 975.83,-86.42 1005.5,-56 1016.36,-44.87 1029.92,-33.91 1040.98,-25.59"/>
<polygon fill="midnightblue" stroke="midnightblue" points="1043.23,-28.28 1049.21,-19.53 1039.08,-22.64 1043.23,-28.28"/>
</g>
<!-- Node25 -->
<g id="node25" class="node">
<title>Node25</title>
<g id="a_node25"><a xlink:title=" ">
<polygon fill="white" stroke="#bfbfbf" points="837,-112.5 837,-131.5 920,-131.5 920,-112.5 837,-112.5"/>
<text text-anchor="middle" x="878.5" y="-119.5" font-family="Helvetica,sans-Serif" font-size="10.00">initializer_list</text>
</a>
</g>
</g>
<!-- Node6&#45;&gt;Node25 -->
<g id="edge30" class="edge">
<title>Node6&#45;&gt;Node25</title>
<path fill="none" stroke="midnightblue" d="M852.62,-168.08C856.91,-160.61 863.16,-149.72 868.44,-140.52"/>
<polygon fill="midnightblue" stroke="midnightblue" points="871.53,-142.17 873.48,-131.75 865.46,-138.68 871.53,-142.17"/>
</g>
<!-- Node6&#45;&gt;Node26 -->
<g id="edge32" class="edge">
<title>Node6&#45;&gt;Node26</title>
<path fill="none" stroke="midnightblue" d="M877.61,-168.44C912.37,-158.56 969.33,-142.37 1005.06,-132.22"/>
<polygon fill="midnightblue" stroke="midnightblue" points="1006.31,-135.5 1014.97,-129.4 1004.4,-128.77 1006.31,-135.5"/>
</g>
<!-- Node8 -->
<g id="node8" class="node">
<title>Node8</title>
<g id="a_node8"><a xlink:title=" ">
<polygon fill="white" stroke="#bfbfbf" points="741.5,-0.5 741.5,-19.5 797.5,-19.5 797.5,-0.5 741.5,-0.5"/>
<text text-anchor="middle" x="769.5" y="-7.5" font-family="Helvetica,sans-Serif" font-size="10.00">sstream</text>
</a>
</g>
</g>
<!-- Node7&#45;&gt;Node8 -->
<g id="edge7" class="edge">
<title>Node7&#45;&gt;Node8</title>
<path fill="none" stroke="midnightblue" d="M782.02,-56.08C780.01,-48.85 777.11,-38.41 774.61,-29.4"/>
<polygon fill="midnightblue" stroke="midnightblue" points="777.98,-28.45 771.93,-19.75 771.24,-30.32 777.98,-28.45"/>
</g>
<!-- Node9 -->
<g id="node9" class="node">
<title>Node9</title>
<g id="a_node9"><a xlink:title=" ">
<polygon fill="white" stroke="#bfbfbf" points="816,-0.5 816,-19.5 881,-19.5 881,-0.5 816,-0.5"/>
<text text-anchor="middle" x="848.5" y="-7.5" font-family="Helvetica,sans-Serif" font-size="10.00">stdexcept</text>
</a>
</g>
</g>
<!-- Node7&#45;&gt;Node9 -->
<g id="edge8" class="edge">
<title>Node7&#45;&gt;Node9</title>
<path fill="none" stroke="midnightblue" d="M794.78,-56.32C804.34,-48.26 818.78,-36.08 830.28,-26.37"/>
<polygon fill="midnightblue" stroke="midnightblue" points="832.64,-28.96 838.03,-19.83 828.13,-23.61 832.64,-28.96"/>
</g>
<!-- Node10 -->
<g id="node10" class="node">
<title>Node10</title>
<g id="a_node10"><a xlink:title=" ">
<polygon fill="white" stroke="#bfbfbf" points="675.5,-0.5 675.5,-19.5 719.5,-19.5 719.5,-0.5 675.5,-0.5"/>
<text text-anchor="middle" x="697.5" y="-7.5" font-family="Helvetica,sans-Serif" font-size="10.00">string</text>
</a>
</g>
</g>
<!-- Node7&#45;&gt;Node10 -->
<g id="edge9" class="edge">
<title>Node7&#45;&gt;Node10</title>
<path fill="none" stroke="midnightblue" d="M770.52,-56.32C756.95,-47.9 736.12,-34.97 720.18,-25.07"/>
<polygon fill="midnightblue" stroke="midnightblue" points="721.79,-21.95 711.44,-19.65 718.09,-27.9 721.79,-21.95"/>
</g>
<!-- Node11&#45;&gt;Node7 -->
<g id="edge11" class="edge">
<title>Node11&#45;&gt;Node7</title>
<path fill="none" stroke="midnightblue" d="M612.82,-112.44C647.89,-103.16 704,-88.31 742.46,-78.13"/>
<polygon fill="midnightblue" stroke="midnightblue" points="743.56,-81.46 752.33,-75.52 741.76,-74.69 743.56,-81.46"/>
</g>
<!-- Node12 -->
<g id="node12" class="node">
<title>Node12</title>
<g id="a_node12"><a xlink:title=" ">
<polygon fill="white" stroke="#bfbfbf" points="371.5,-56.5 371.5,-75.5 421.5,-75.5 421.5,-56.5 371.5,-56.5"/>
<text text-anchor="middle" x="396.5" y="-63.5" font-family="Helvetica,sans-Serif" font-size="10.00">cstring</text>
</a>
</g>
</g>
<!-- Node11&#45;&gt;Node12 -->
<g id="edge12" class="edge">
<title>Node11&#45;&gt;Node12</title>
<path fill="none" stroke="midnightblue" d="M551.34,-112.44C518.79,-102.89 466.12,-87.43 431.4,-77.24"/>
<polygon fill="midnightblue" stroke="midnightblue" points="432.26,-73.85 421.68,-74.39 430.29,-80.56 432.26,-73.85"/>
</g>
<!-- Node13 -->
<g id="node13" class="node">
<title>Node13</title>
<g id="a_node13"><a xlink:title=" ">
<polygon fill="white" stroke="#bfbfbf" points="48,-56.5 48,-75.5 117,-75.5 117,-56.5 48,-56.5"/>
<text text-anchor="middle" x="82.5" y="-63.5" font-family="Helvetica,sans-Serif" font-size="10.00">type_traits</text>
</a>
</g>
</g>
<!-- Node11&#45;&gt;Node13 -->
<g id="edge13" class="edge">
<title>Node11&#45;&gt;Node13</title>
<path fill="none" stroke="midnightblue" d="M540.76,-118.52C463.09,-113.35 285.58,-100.01 127.1,-76.11"/>
<polygon fill="midnightblue" stroke="midnightblue" points="127.59,-72.64 117.18,-74.59 126.53,-79.56 127.59,-72.64"/>
</g>
<!-- Node14&#45;&gt;Node4 -->
<g id="edge27" class="edge">
<title>Node14&#45;&gt;Node4</title>
<path fill="none" stroke="midnightblue" d="M780.21,-115.37C833.22,-106.26 938.54,-88.15 1004.19,-76.86"/>
<polygon fill="midnightblue" stroke="midnightblue" points="1005.11,-80.25 1014.38,-75.1 1003.93,-73.35 1005.11,-80.25"/>
</g>
<!-- Node14&#45;&gt;Node7 -->
<g id="edge26" class="edge">
<title>Node14&#45;&gt;Node7</title>
<path fill="none" stroke="midnightblue" d="M753.61,-112.08C758.78,-104.53 766.35,-93.49 772.69,-84.23"/>
<polygon fill="midnightblue" stroke="midnightblue" points="775.74,-85.98 778.5,-75.75 769.96,-82.02 775.74,-85.98"/>
</g>
<!-- Node14&#45;&gt;Node15 -->
<g id="edge15" class="edge">
<title>Node14&#45;&gt;Node15</title>
<path fill="none" stroke="midnightblue" d="M778.52,-112.45C808.83,-104.05 856.53,-90.74 906.52,-76.25"/>
<polygon fill="midnightblue" stroke="midnightblue" points="907.58,-79.59 916.21,-73.44 905.63,-72.87 907.58,-79.59"/>
</g>
<!-- Node16 -->
<g id="node16" class="node">
<title>Node16</title>
<g id="a_node16"><a xlink:title=" ">
<polygon fill="white" stroke="#bfbfbf" points="656,-56.5 656,-75.5 721,-75.5 721,-56.5 656,-56.5"/>
<text text-anchor="middle" x="688.5" y="-63.5" font-family="Helvetica,sans-Serif" font-size="10.00">functional</text>
</a>
</g>
</g>
<!-- Node14&#45;&gt;Node16 -->
<g id="edge16" class="edge">
<title>Node14&#45;&gt;Node16</title>
<path fill="none" stroke="midnightblue" d="M738.02,-112.32C729.3,-104.34 716.16,-92.31 705.6,-82.65"/>
<polygon fill="midnightblue" stroke="midnightblue" points="707.89,-80 698.15,-75.83 703.17,-85.17 707.89,-80"/>
</g>
<!-- Node14&#45;&gt;Node17 -->
<g id="edge17" class="edge">
<title>Node14&#45;&gt;Node17</title>
<path fill="none" stroke="midnightblue" d="M714.8,-114.22C675.86,-106.07 608.6,-91.77 541.16,-76.1"/>
<polygon fill="midnightblue" stroke="midnightblue" points="541.75,-72.64 531.21,-73.78 540.16,-79.46 541.75,-72.64"/>
</g>
<!-- Node18 -->
<g id="node18" class="node">
<title>Node18</title>
<g id="a_node18"><a xlink:title=" ">
<polygon fill="white" stroke="#bfbfbf" points="848.5,-56.5 848.5,-75.5 898.5,-75.5 898.5,-56.5 848.5,-56.5"/>
<text text-anchor="middle" x="873.5" y="-63.5" font-family="Helvetica,sans-Serif" font-size="10.00">chrono</text>
</a>
</g>
</g>
<!-- Node14&#45;&gt;Node18 -->
<g id="edge18" class="edge">
<title>Node14&#45;&gt;Node18</title>
<path fill="none" stroke="midnightblue" d="M767.47,-112.44C788.11,-103.6 820.56,-89.69 844.13,-79.59"/>
<polygon fill="midnightblue" stroke="midnightblue" points="845.82,-82.67 853.63,-75.52 843.06,-76.24 845.82,-82.67"/>
</g>
<!-- Node19 -->
<g id="node19" class="node">
<title>Node19</title>
<g id="a_node19"><a xlink:href="_backend_id_8hpp.html" target="_top" xlink:title=" ">
<polygon fill="white" stroke="black" points="549.5,-56.5 549.5,-75.5 637.5,-75.5 637.5,-56.5 549.5,-56.5"/>
<text text-anchor="middle" x="593.5" y="-63.5" font-family="Helvetica,sans-Serif" font-size="10.00">BackendId.hpp</text>
</a>
</g>
</g>
<!-- Node14&#45;&gt;Node19 -->
<g id="edge19" class="edge">
<title>Node14&#45;&gt;Node19</title>
<path fill="none" stroke="midnightblue" d="M723.1,-112.44C697.3,-103.4 656.42,-89.06 627.48,-78.92"/>
<polygon fill="midnightblue" stroke="midnightblue" points="628.38,-75.52 617.79,-75.52 626.07,-82.13 628.38,-75.52"/>
</g>
<!-- Node19&#45;&gt;Node10 -->
<g id="edge23" class="edge">
<title>Node19&#45;&gt;Node10</title>
<path fill="none" stroke="midnightblue" d="M610.21,-56.32C626.81,-47.7 652.5,-34.36 671.72,-24.39"/>
<polygon fill="midnightblue" stroke="midnightblue" points="673.57,-27.37 680.83,-19.65 670.34,-21.16 673.57,-27.37"/>
</g>
<!-- Node20 -->
<g id="node20" class="node">
<title>Node20</title>
<g id="a_node20"><a xlink:title=" ">
<polygon fill="white" stroke="#bfbfbf" points="591.5,-0.5 591.5,-19.5 649.5,-19.5 649.5,-0.5 591.5,-0.5"/>
<text text-anchor="middle" x="620.5" y="-7.5" font-family="Helvetica,sans-Serif" font-size="10.00">memory</text>
</a>
</g>
</g>
<!-- Node19&#45;&gt;Node20 -->
<g id="edge20" class="edge">
<title>Node19&#45;&gt;Node20</title>
<path fill="none" stroke="midnightblue" d="M597.96,-56.08C601.65,-48.69 607.02,-37.95 611.59,-28.81"/>
<polygon fill="midnightblue" stroke="midnightblue" points="614.78,-30.26 616.12,-19.75 608.52,-27.13 614.78,-30.26"/>
</g>
<!-- Node21 -->
<g id="node21" class="node">
<title>Node21</title>
<g id="a_node21"><a xlink:title=" ">
<polygon fill="white" stroke="#bfbfbf" points="315,-0.5 315,-19.5 372,-19.5 372,-0.5 315,-0.5"/>
<text text-anchor="middle" x="343.5" y="-7.5" font-family="Helvetica,sans-Serif" font-size="10.00">ostream</text>
</a>
</g>
</g>
<!-- Node19&#45;&gt;Node21 -->
<g id="edge21" class="edge">
<title>Node19&#45;&gt;Node21</title>
<path fill="none" stroke="midnightblue" d="M553.89,-56.44C506.78,-46.27 428.69,-29.4 382.06,-19.33"/>
<polygon fill="midnightblue" stroke="midnightblue" points="382.55,-15.86 372.04,-17.16 381.08,-22.7 382.55,-15.86"/>
</g>
<!-- Node22 -->
<g id="node22" class="node">
<title>Node22</title>
<g id="a_node22"><a xlink:title=" ">
<polygon fill="white" stroke="#bfbfbf" points="435.5,-0.5 435.5,-19.5 467.5,-19.5 467.5,-0.5 435.5,-0.5"/>
<text text-anchor="middle" x="451.5" y="-7.5" font-family="Helvetica,sans-Serif" font-size="10.00">set</text>
</a>
</g>
</g>
<!-- Node19&#45;&gt;Node22 -->
<g id="edge22" class="edge">
<title>Node19&#45;&gt;Node22</title>
<path fill="none" stroke="midnightblue" d="M571,-56.44C545.48,-46.74 503.95,-30.95 477.18,-20.77"/>
<polygon fill="midnightblue" stroke="midnightblue" points="478.3,-17.45 467.71,-17.16 475.81,-23.99 478.3,-17.45"/>
</g>
<!-- Node23 -->
<g id="node23" class="node">
<title>Node23</title>
<g id="a_node23"><a xlink:title=" ">
<polygon fill="white" stroke="#bfbfbf" points="487.5,-0.5 487.5,-19.5 573.5,-19.5 573.5,-0.5 487.5,-0.5"/>
<text text-anchor="middle" x="530.5" y="-7.5" font-family="Helvetica,sans-Serif" font-size="10.00">unordered_set</text>
</a>
</g>
</g>
<!-- Node19&#45;&gt;Node23 -->
<g id="edge24" class="edge">
<title>Node19&#45;&gt;Node23</title>
<path fill="none" stroke="midnightblue" d="M583.38,-56.32C573.97,-48.26 559.76,-36.08 548.43,-26.37"/>
<polygon fill="midnightblue" stroke="midnightblue" points="550.68,-23.68 540.81,-19.83 546.12,-29 550.68,-23.68"/>
</g>
<!-- Node19&#45;&gt;Node24 -->
<g id="edge25" class="edge">
<title>Node19&#45;&gt;Node24</title>
<path fill="none" stroke="midnightblue" d="M637.72,-57.29C640.69,-56.83 643.63,-56.4 646.5,-56 787.49,-36.4 956.43,-20.39 1027.43,-13.99"/>
<polygon fill="midnightblue" stroke="midnightblue" points="1027.93,-17.46 1037.58,-13.09 1027.31,-10.49 1027.93,-17.46"/>
</g>
<!-- Node30 -->
<g id="node30" class="node">
<title>Node30</title>
<g id="a_node30"><a xlink:href="_types_utils_8hpp.html" target="_top" xlink:title=" ">
<polygon fill="white" stroke="black" points="416.5,-224.5 416.5,-243.5 538.5,-243.5 538.5,-224.5 416.5,-224.5"/>
<text text-anchor="middle" x="477.5" y="-231.5" font-family="Helvetica,sans-Serif" font-size="10.00">armnn/TypesUtils.hpp</text>
</a>
</g>
</g>
<!-- Node29&#45;&gt;Node30 -->
<g id="edge40" class="edge">
<title>Node29&#45;&gt;Node30</title>
<path fill="none" stroke="midnightblue" d="M375.17,-349.18C401.22,-343.18 432.07,-331.95 452.5,-311 467.47,-295.65 473.48,-271.17 475.89,-254.16"/>
<polygon fill="midnightblue" stroke="midnightblue" points="479.41,-254.11 477.05,-243.78 472.46,-253.33 479.41,-254.11"/>
</g>
<!-- Node29&#45;&gt;Node32 -->
<g id="edge50" class="edge">
<title>Node29&#45;&gt;Node32</title>
<path fill="none" stroke="midnightblue" d="M313.09,-347.19C300.07,-338.45 279.92,-324.47 263.5,-311 239.88,-291.63 214.48,-267.14 198.55,-251.27"/>
<polygon fill="midnightblue" stroke="midnightblue" points="200.67,-248.45 191.14,-243.84 195.72,-253.39 200.67,-248.45"/>
</g>
<!-- Node34 -->
<g id="node34" class="node">
<title>Node34</title>
<g id="a_node34"><a xlink:href="_numeric_cast_8hpp.html" target="_top" xlink:title=" ">
<polygon fill="white" stroke="black" points="0,-286 0,-305 167,-305 167,-286 0,-286"/>
<text text-anchor="middle" x="83.5" y="-293" font-family="Helvetica,sans-Serif" font-size="10.00">armnn/utility/NumericCast.hpp</text>
</a>
</g>
</g>
<!-- Node29&#45;&gt;Node34 -->
<g id="edge52" class="edge">
<title>Node29&#45;&gt;Node34</title>
<path fill="none" stroke="midnightblue" d="M291.68,-347.48C248.65,-336.94 175.33,-318.99 128.19,-307.44"/>
<polygon fill="midnightblue" stroke="midnightblue" points="128.8,-303.99 118.25,-305.01 127.13,-310.79 128.8,-303.99"/>
</g>
<!-- Node36 -->
<g id="node36" class="node">
<title>Node36</title>
<g id="a_node36"><a xlink:href="_floating_point_converter_8hpp.html" target="_top" xlink:title=" ">
<polygon fill="white" stroke="black" points="305.5,-280.5 305.5,-310.5 443.5,-310.5 443.5,-280.5 305.5,-280.5"/>
<text text-anchor="start" x="313.5" y="-298.5" font-family="Helvetica,sans-Serif" font-size="10.00">armnnUtils/FloatingPoint</text>
<text text-anchor="middle" x="374.5" y="-287.5" font-family="Helvetica,sans-Serif" font-size="10.00">Converter.hpp</text>
</a>
</g>
</g>
<!-- Node29&#45;&gt;Node36 -->
<g id="edge56" class="edge">
<title>Node29&#45;&gt;Node36</title>
<path fill="none" stroke="midnightblue" d="M333.38,-347.48C339.45,-339.94 348.58,-328.63 356.7,-318.57"/>
<polygon fill="midnightblue" stroke="midnightblue" points="359.63,-320.5 363.19,-310.52 354.18,-316.11 359.63,-320.5"/>
</g>
<!-- Node38 -->
<g id="node38" class="node">
<title>Node38</title>
<g id="a_node38"><a xlink:href="_tensor_utils_8hpp.html" target="_top" xlink:title=" ">
<polygon fill="white" stroke="black" points="707,-286 707,-305 856,-305 856,-286 707,-286"/>
<text text-anchor="middle" x="781.5" y="-293" font-family="Helvetica,sans-Serif" font-size="10.00">armnnUtils/TensorUtils.hpp</text>
</a>
</g>
</g>
<!-- Node29&#45;&gt;Node38 -->
<g id="edge58" class="edge">
<title>Node29&#45;&gt;Node38</title>
<path fill="none" stroke="midnightblue" d="M375.19,-349.63C454.6,-339.25 612.53,-318.6 706.39,-306.32"/>
<polygon fill="midnightblue" stroke="midnightblue" points="706.92,-309.78 716.39,-305.02 706.02,-302.84 706.92,-309.78"/>
</g>
<!-- Node39 -->
<g id="node39" class="node">
<title>Node39</title>
<g id="a_node39"><a xlink:href="_resolve_type_8hpp.html" target="_top" xlink:title=" ">
<polygon fill="white" stroke="black" points="162,-168.5 162,-187.5 261,-187.5 261,-168.5 162,-168.5"/>
<text text-anchor="middle" x="211.5" y="-175.5" font-family="Helvetica,sans-Serif" font-size="10.00">ResolveType.hpp</text>
</a>
</g>
</g>
<!-- Node29&#45;&gt;Node39 -->
<g id="edge65" class="edge">
<title>Node29&#45;&gt;Node39</title>
<path fill="none" stroke="midnightblue" d="M320.05,-347.32C313.62,-338.47 303.7,-324.18 296.5,-311 276.27,-273.97 282.65,-258.6 258.5,-224 250.7,-212.82 239.81,-202.19 230.48,-194.06"/>
<polygon fill="midnightblue" stroke="midnightblue" points="232.71,-191.36 222.79,-187.62 228.21,-196.73 232.71,-191.36"/>
</g>
<!-- Node30&#45;&gt;Node6 -->
<g id="edge43" class="edge">
<title>Node30&#45;&gt;Node6</title>
<path fill="none" stroke="midnightblue" d="M536.13,-224.44C610.21,-213.63 736.07,-195.26 802.83,-185.52"/>
<polygon fill="midnightblue" stroke="midnightblue" points="803.64,-188.94 813.02,-184.03 802.62,-182.01 803.64,-188.94"/>
</g>
<!-- Node30&#45;&gt;Node7 -->
<g id="edge42" class="edge">
<title>Node30&#45;&gt;Node7</title>
<path fill="none" stroke="midnightblue" d="M493.57,-224.31C543.93,-197.08 698.89,-113.29 759.67,-80.43"/>
<polygon fill="midnightblue" stroke="midnightblue" points="761.45,-83.44 768.59,-75.61 758.12,-77.28 761.45,-83.44"/>
</g>
<!-- Node30&#45;&gt;Node13 -->
<g id="edge49" class="edge">
<title>Node30&#45;&gt;Node13</title>
<path fill="none" stroke="midnightblue" d="M416.13,-225.19C323.45,-213.3 157.94,-191.66 152.5,-188 115.86,-163.36 95.94,-112.63 87.49,-85.34"/>
<polygon fill="midnightblue" stroke="midnightblue" points="90.78,-84.14 84.63,-75.52 84.06,-86.1 90.78,-84.14"/>
</g>
<!-- Node30&#45;&gt;Node14 -->
<g id="edge44" class="edge">
<title>Node30&#45;&gt;Node14</title>
<path fill="none" stroke="midnightblue" d="M538.8,-224.64C575.9,-218.01 623.43,-206.67 662.5,-188 689.05,-175.31 715.28,-153.44 731.43,-138.61"/>
<polygon fill="midnightblue" stroke="midnightblue" points="734.02,-140.98 738.9,-131.58 729.22,-135.88 734.02,-140.98"/>
</g>
<!-- Node30&#45;&gt;Node17 -->
<g id="edge45" class="edge">
<title>Node30&#45;&gt;Node17</title>
<path fill="none" stroke="midnightblue" d="M478.95,-224.08C483.2,-197.95 495.68,-121.21 501.48,-85.58"/>
<polygon fill="midnightblue" stroke="midnightblue" points="504.96,-86 503.11,-75.57 498.05,-84.88 504.96,-86"/>
</g>
<!-- Node30&#45;&gt;Node19 -->
<g id="edge41" class="edge">
<title>Node30&#45;&gt;Node19</title>
<path fill="none" stroke="midnightblue" d="M481.6,-224.4C485.88,-215.37 492.77,-200.73 498.5,-188 513.62,-154.42 508.45,-140.72 531.5,-112 541.62,-99.4 556.1,-88.62 568.52,-80.77"/>
<polygon fill="midnightblue" stroke="midnightblue" points="570.35,-83.76 577.11,-75.6 566.74,-77.76 570.35,-83.76"/>
</g>
<!-- Node30&#45;&gt;Node21 -->
<g id="edge47" class="edge">
<title>Node30&#45;&gt;Node21</title>
<path fill="none" stroke="midnightblue" d="M469.27,-224.19C448.45,-201.43 393.14,-138.12 362.5,-76 355.19,-61.17 350.17,-43.02 347.14,-29.67"/>
<polygon fill="midnightblue" stroke="midnightblue" points="350.54,-28.83 345.05,-19.77 343.69,-30.27 350.54,-28.83"/>
</g>
<!-- Node30&#45;&gt;Node22 -->
<g id="edge48" class="edge">
<title>Node30&#45;&gt;Node22</title>
<path fill="none" stroke="midnightblue" d="M476.48,-224.3C472.66,-191.63 459.1,-75.87 453.72,-29.96"/>
<polygon fill="midnightblue" stroke="midnightblue" points="457.18,-29.41 452.54,-19.88 450.23,-30.22 457.18,-29.41"/>
</g>
<!-- Node31 -->
<g id="node31" class="node">
<title>Node31</title>
<g id="a_node31"><a xlink:title=" ">
<polygon fill="white" stroke="#bfbfbf" points="230,-56.5 230,-75.5 277,-75.5 277,-56.5 230,-56.5"/>
<text text-anchor="middle" x="253.5" y="-63.5" font-family="Helvetica,sans-Serif" font-size="10.00">cmath</text>
</a>
</g>
</g>
<!-- Node30&#45;&gt;Node31 -->
<g id="edge46" class="edge">
<title>Node30&#45;&gt;Node31</title>
<path fill="none" stroke="midnightblue" d="M438.86,-224.4C392.39,-212.02 315.3,-184.64 272.5,-132 261.73,-118.76 257.07,-99.63 255.05,-85.55"/>
<polygon fill="midnightblue" stroke="midnightblue" points="258.52,-85.1 253.93,-75.55 251.56,-85.88 258.52,-85.1"/>
</g>
<!-- Node33 -->
<g id="node33" class="node">
<title>Node33</title>
<g id="a_node33"><a xlink:title=" ">
<polygon fill="white" stroke="#bfbfbf" points="53.5,-168.5 53.5,-187.5 105.5,-187.5 105.5,-168.5 53.5,-168.5"/>
<text text-anchor="middle" x="79.5" y="-175.5" font-family="Helvetica,sans-Serif" font-size="10.00">cassert</text>
</a>
</g>
</g>
<!-- Node32&#45;&gt;Node33 -->
<g id="edge51" class="edge">
<title>Node32&#45;&gt;Node33</title>
<path fill="none" stroke="midnightblue" d="M165.95,-224.32C149.51,-215.7 124.07,-202.36 105.03,-192.39"/>
<polygon fill="midnightblue" stroke="midnightblue" points="106.49,-189.2 96.01,-187.65 103.24,-195.4 106.49,-189.2"/>
</g>
<!-- Node34&#45;&gt;Node13 -->
<g id="edge54" class="edge">
<title>Node34&#45;&gt;Node13</title>
<path fill="none" stroke="midnightblue" d="M73.93,-285.94C64.37,-276.7 50.29,-260.98 44.5,-244 25.18,-187.37 55.62,-117.07 72.49,-84.76"/>
<polygon fill="midnightblue" stroke="midnightblue" points="75.72,-86.13 77.41,-75.67 69.57,-82.8 75.72,-86.13"/>
</g>
<!-- Node34&#45;&gt;Node32 -->
<g id="edge53" class="edge">
<title>Node34&#45;&gt;Node32</title>
<path fill="none" stroke="midnightblue" d="M97.68,-285.98C113.86,-276.25 140.53,-260.23 159.64,-248.74"/>
<polygon fill="midnightblue" stroke="midnightblue" points="161.57,-251.66 168.34,-243.51 157.97,-245.66 161.57,-251.66"/>
</g>
<!-- Node35 -->
<g id="node35" class="node">
<title>Node35</title>
<g id="a_node35"><a xlink:title=" ">
<polygon fill="white" stroke="#bfbfbf" points="53.5,-224.5 53.5,-243.5 97.5,-243.5 97.5,-224.5 53.5,-224.5"/>
<text text-anchor="middle" x="75.5" y="-231.5" font-family="Helvetica,sans-Serif" font-size="10.00">limits</text>
</a>
</g>
</g>
<!-- Node34&#45;&gt;Node35 -->
<g id="edge55" class="edge">
<title>Node34&#45;&gt;Node35</title>
<path fill="none" stroke="midnightblue" d="M82.35,-285.98C81.23,-277.58 79.46,-264.48 78.01,-253.66"/>
<polygon fill="midnightblue" stroke="midnightblue" points="81.45,-252.95 76.64,-243.51 74.51,-253.89 81.45,-252.95"/>
</g>
<!-- Node37 -->
<g id="node37" class="node">
<title>Node37</title>
<g id="a_node37"><a xlink:title=" ">
<polygon fill="white" stroke="#bfbfbf" points="345,-224.5 345,-243.5 398,-243.5 398,-224.5 345,-224.5"/>
<text text-anchor="middle" x="371.5" y="-231.5" font-family="Helvetica,sans-Serif" font-size="10.00">cstddef</text>
</a>
</g>
</g>
<!-- Node36&#45;&gt;Node37 -->
<g id="edge57" class="edge">
<title>Node36&#45;&gt;Node37</title>
<path fill="none" stroke="midnightblue" d="M373.79,-280.4C373.39,-272.47 372.88,-262.46 372.45,-253.86"/>
<polygon fill="midnightblue" stroke="midnightblue" points="375.94,-253.47 371.94,-243.66 368.94,-253.82 375.94,-253.47"/>
</g>
<!-- Node38&#45;&gt;Node6 -->
<g id="edge60" class="edge">
<title>Node38&#45;&gt;Node6</title>
<path fill="none" stroke="midnightblue" d="M786.46,-285.82C797.26,-266.92 823.07,-221.75 837.43,-196.62"/>
<polygon fill="midnightblue" stroke="midnightblue" points="840.56,-198.2 842.48,-187.78 834.48,-194.73 840.56,-198.2"/>
</g>
<!-- Node38&#45;&gt;Node14 -->
<g id="edge61" class="edge">
<title>Node38&#45;&gt;Node14</title>
<path fill="none" stroke="midnightblue" d="M779.77,-285.76C774.47,-259.04 758.41,-178.02 751.14,-141.36"/>
<polygon fill="midnightblue" stroke="midnightblue" points="754.57,-140.65 749.19,-131.52 747.7,-142.01 754.57,-140.65"/>
</g>
<!-- Node38&#45;&gt;Node24 -->
<g id="edge64" class="edge">
<title>Node38&#45;&gt;Node24</title>
<path fill="none" stroke="midnightblue" d="M802.75,-285.9C852.95,-264.91 981.23,-207.21 1069.5,-132 1099.91,-106.09 1134.77,-92.03 1117.5,-56 1111.25,-42.95 1099.16,-32.49 1087.82,-24.95"/>
<polygon fill="midnightblue" stroke="midnightblue" points="1089.35,-21.79 1079,-19.54 1085.69,-27.75 1089.35,-21.79"/>
</g>
<!-- Node38&#45;&gt;Node26 -->
<g id="edge63" class="edge">
<title>Node38&#45;&gt;Node26</title>
<path fill="none" stroke="midnightblue" d="M794.2,-286C835.31,-258.45 965.12,-171.49 1016.38,-137.15"/>
<polygon fill="midnightblue" stroke="midnightblue" points="1018.37,-140.03 1024.73,-131.56 1014.47,-134.21 1018.37,-140.03"/>
</g>
<!-- Node38&#45;&gt;Node30 -->
<g id="edge59" class="edge">
<title>Node38&#45;&gt;Node30</title>
<path fill="none" stroke="midnightblue" d="M737.94,-285.98C683.31,-275.28 589.69,-256.96 530.83,-245.44"/>
<polygon fill="midnightblue" stroke="midnightblue" points="531.46,-242 520.97,-243.51 530.12,-248.86 531.46,-242"/>
</g>
<!-- Node38&#45;&gt;Node38 -->
<g id="edge62" class="edge">
<title>Node38&#45;&gt;Node38</title>
<path fill="none" stroke="midnightblue" d="M815.65,-305.03C844.19,-309.11 874,-305.93 874,-295.5 874,-286.29 850.76,-282.74 825.69,-284.83"/>
<polygon fill="midnightblue" stroke="midnightblue" points="825.2,-281.37 815.65,-285.97 825.98,-288.32 825.2,-281.37"/>
</g>
<!-- Node39&#45;&gt;Node14 -->
<g id="edge66" class="edge">
<title>Node39&#45;&gt;Node14</title>
<path fill="none" stroke="midnightblue" d="M261.44,-171.97C366.01,-161.43 606.38,-137.22 704.55,-127.33"/>
<polygon fill="midnightblue" stroke="midnightblue" points="705.1,-130.79 714.7,-126.3 704.4,-123.82 705.1,-130.79"/>
</g>
<!-- Node40 -->
<g id="node40" class="node">
<title>Node40</title>
<g id="a_node40"><a xlink:href="_b_float16_8hpp.html" target="_top" xlink:title=" ">
<polygon fill="white" stroke="black" points="282,-112.5 282,-131.5 363,-131.5 363,-112.5 282,-112.5"/>
<text text-anchor="middle" x="322.5" y="-119.5" font-family="Helvetica,sans-Serif" font-size="10.00">BFloat16.hpp</text>
</a>
</g>
</g>
<!-- Node39&#45;&gt;Node40 -->
<g id="edge67" class="edge">
<title>Node39&#45;&gt;Node40</title>
<path fill="none" stroke="midnightblue" d="M229.33,-168.32C247.22,-159.62 274.98,-146.12 295.55,-136.11"/>
<polygon fill="midnightblue" stroke="midnightblue" points="297.25,-139.18 304.71,-131.65 294.19,-132.88 297.25,-139.18"/>
</g>
<!-- Node41 -->
<g id="node41" class="node">
<title>Node41</title>
<g id="a_node41"><a xlink:href="_half_8hpp.html" target="_top" xlink:title=" ">
<polygon fill="white" stroke="black" points="162,-112.5 162,-131.5 219,-131.5 219,-112.5 162,-112.5"/>
<text text-anchor="middle" x="190.5" y="-119.5" font-family="Helvetica,sans-Serif" font-size="10.00">Half.hpp</text>
</a>
</g>
</g>
<!-- Node39&#45;&gt;Node41 -->
<g id="edge72" class="edge">
<title>Node39&#45;&gt;Node41</title>
<path fill="none" stroke="midnightblue" d="M208.03,-168.08C205.19,-160.77 201.07,-150.18 197.54,-141.1"/>
<polygon fill="midnightblue" stroke="midnightblue" points="200.79,-139.8 193.9,-131.75 194.27,-142.34 200.79,-139.8"/>
</g>
<!-- Node40&#45;&gt;Node12 -->
<g id="edge70" class="edge">
<title>Node40&#45;&gt;Node12</title>
<path fill="none" stroke="midnightblue" d="M334.39,-112.32C345.65,-104.11 362.79,-91.6 376.21,-81.81"/>
<polygon fill="midnightblue" stroke="midnightblue" points="378.38,-84.56 384.39,-75.83 374.25,-78.9 378.38,-84.56"/>
</g>
<!-- Node40&#45;&gt;Node17 -->
<g id="edge71" class="edge">
<title>Node40&#45;&gt;Node17</title>
<path fill="none" stroke="midnightblue" d="M351.34,-112.44C382.99,-103.05 433.87,-87.95 468.22,-77.77"/>
<polygon fill="midnightblue" stroke="midnightblue" points="469.28,-81.1 477.87,-74.9 467.29,-74.39 469.28,-81.1"/>
</g>
<!-- Node40&#45;&gt;Node21 -->
<g id="edge68" class="edge">
<title>Node40&#45;&gt;Node21</title>
<path fill="none" stroke="midnightblue" d="M322.91,-112.08C323.62,-99.48 325.4,-75.78 329.5,-56 331.35,-47.09 334.23,-37.42 336.91,-29.34"/>
<polygon fill="midnightblue" stroke="midnightblue" points="340.24,-30.43 340.19,-19.83 333.62,-28.14 340.24,-30.43"/>
</g>
<!-- Node40&#45;&gt;Node31 -->
<g id="edge69" class="edge">
<title>Node40&#45;&gt;Node31</title>
<path fill="none" stroke="midnightblue" d="M311.41,-112.32C301.01,-104.18 285.24,-91.84 272.78,-82.09"/>
<polygon fill="midnightblue" stroke="midnightblue" points="274.82,-79.24 264.79,-75.83 270.51,-84.75 274.82,-79.24"/>
</g>
<!-- Node41&#45;&gt;Node13 -->
<g id="edge73" class="edge">
<title>Node41&#45;&gt;Node13</title>
<path fill="none" stroke="midnightblue" d="M173.15,-112.32C155.83,-103.66 128.98,-90.24 109,-80.25"/>
<polygon fill="midnightblue" stroke="midnightblue" points="110.32,-77 99.81,-75.65 107.19,-83.26 110.32,-77"/>
</g>
<!-- Node42 -->
<g id="node42" class="node">
<title>Node42</title>
<g id="a_node42"><a xlink:title=" ">
<polygon fill="white" stroke="#bfbfbf" points="135,-56.5 135,-75.5 212,-75.5 212,-56.5 135,-56.5"/>
<text text-anchor="middle" x="173.5" y="-63.5" font-family="Helvetica,sans-Serif" font-size="10.00">half/half.hpp</text>
</a>
</g>
</g>
<!-- Node41&#45;&gt;Node42 -->
<g id="edge74" class="edge">
<title>Node41&#45;&gt;Node42</title>
<path fill="none" stroke="midnightblue" d="M187.69,-112.08C185.42,-104.85 182.13,-94.41 179.29,-85.4"/>
<polygon fill="midnightblue" stroke="midnightblue" points="182.6,-84.24 176.25,-75.75 175.92,-86.34 182.6,-84.24"/>
</g>
</g>
</svg>
