<?xml version="1.0" encoding="UTF-8" standalone="no"?>
<!DOCTYPE svg PUBLIC "-//W3C//DTD SVG 1.1//EN"
 "http://www.w3.org/Graphics/SVG/1.1/DTD/svg11.dtd">
<!-- Generated by graphviz version 2.43.0 (0)
 -->
<!-- Title: src/backends/backendsCommon/TensorHandle.cpp Pages: 1 -->
<svg width="1103pt" height="375pt"
 viewBox="0.00 0.00 1102.50 375.00" xmlns="http://www.w3.org/2000/svg" xmlns:xlink="http://www.w3.org/1999/xlink">
<g id="graph0" class="graph" transform="scale(1 1) rotate(0) translate(4 371)">
<title>src/backends/backendsCommon/TensorHandle.cpp</title>
<polygon fill="white" stroke="transparent" points="-4,4 -4,-371 1098.5,-371 1098.5,4 -4,4"/>
<!-- Node1 -->
<g id="node1" class="node">
<title>Node1</title>
<g id="a_node1"><a xlink:title=" ">
<polygon fill="#bfbfbf" stroke="black" points="875,-336.5 875,-366.5 1048,-366.5 1048,-336.5 875,-336.5"/>
<text text-anchor="start" x="883" y="-354.5" font-family="Helvetica,sans-Serif" font-size="10.00">src/backends/backendsCommon</text>
<text text-anchor="middle" x="961.5" y="-343.5" font-family="Helvetica,sans-Serif" font-size="10.00">/TensorHandle.cpp</text>
</a>
</g>
</g>
<!-- Node2 -->
<g id="node2" class="node">
<title>Node2</title>
<g id="a_node2"><a xlink:href="_exceptions_8hpp.html" target="_top" xlink:title=" ">
<polygon fill="white" stroke="black" points="652,-56.5 652,-75.5 777,-75.5 777,-56.5 652,-56.5"/>
<text text-anchor="middle" x="714.5" y="-63.5" font-family="Helvetica,sans-Serif" font-size="10.00">armnn/Exceptions.hpp</text>
</a>
</g>
</g>
<!-- Node1&#45;&gt;Node2 -->
<g id="edge1" class="edge">
<title>Node1&#45;&gt;Node2</title>
<path fill="none" stroke="midnightblue" d="M976.36,-336.48C1009.6,-303.5 1083.54,-219.83 1037.5,-168 992.47,-117.3 786.57,-175.44 734.5,-132 721.06,-120.79 716.48,-100.77 715,-85.9"/>
<polygon fill="midnightblue" stroke="midnightblue" points="718.49,-85.53 714.39,-75.77 711.5,-85.96 718.49,-85.53"/>
</g>
<!-- Node6 -->
<g id="node6" class="node">
<title>Node6</title>
<g id="a_node6"><a xlink:href="_ignore_unused_8hpp.html" target="_top" xlink:title=" ">
<polygon fill="white" stroke="black" points="787,-168.5 787,-187.5 958,-187.5 958,-168.5 787,-168.5"/>
<text text-anchor="middle" x="872.5" y="-175.5" font-family="Helvetica,sans-Serif" font-size="10.00">armnn/utility/IgnoreUnused.hpp</text>
</a>
</g>
</g>
<!-- Node1&#45;&gt;Node6 -->
<g id="edge5" class="edge">
<title>Node1&#45;&gt;Node6</title>
<path fill="none" stroke="midnightblue" d="M948.23,-336.22C931.01,-316.85 901.29,-280.48 885.5,-244 879.13,-229.3 875.85,-211.36 874.17,-198.06"/>
<polygon fill="midnightblue" stroke="midnightblue" points="877.62,-197.33 873.08,-187.76 870.66,-198.07 877.62,-197.33"/>
</g>
<!-- Node7 -->
<g id="node7" class="node">
<title>Node7</title>
<g id="a_node7"><a xlink:href="_tensor_handle_8hpp.html" target="_top" xlink:title=" ">
<polygon fill="white" stroke="black" points="509,-280.5 509,-299.5 696,-299.5 696,-280.5 509,-280.5"/>
<text text-anchor="middle" x="602.5" y="-287.5" font-family="Helvetica,sans-Serif" font-size="10.00">armnn/backends/TensorHandle.hpp</text>
</a>
</g>
</g>
<!-- Node1&#45;&gt;Node7 -->
<g id="edge6" class="edge">
<title>Node1&#45;&gt;Node7</title>
<path fill="none" stroke="midnightblue" d="M876.88,-336.47C811.43,-325.63 722.36,-310.87 663.69,-301.14"/>
<polygon fill="midnightblue" stroke="midnightblue" points="664.26,-297.69 653.82,-299.51 663.12,-304.59 664.26,-297.69"/>
</g>
<!-- Node25 -->
<g id="node25" class="node">
<title>Node25</title>
<g id="a_node25"><a xlink:title=" ">
<polygon fill="white" stroke="#bfbfbf" points="986.5,-56.5 986.5,-75.5 1036.5,-75.5 1036.5,-56.5 986.5,-56.5"/>
<text text-anchor="middle" x="1011.5" y="-63.5" font-family="Helvetica,sans-Serif" font-size="10.00">cstring</text>
</a>
</g>
</g>
<!-- Node1&#45;&gt;Node25 -->
<g id="edge52" class="edge">
<title>Node1&#45;&gt;Node25</title>
<path fill="none" stroke="midnightblue" d="M1012.24,-336.41C1032.63,-328.55 1054.94,-316.86 1070.5,-300 1091.39,-277.37 1094.5,-265.8 1094.5,-235 1094.5,-235 1094.5,-235 1094.5,-177 1094.5,-135.91 1057.14,-100.44 1032.55,-81.55"/>
<polygon fill="midnightblue" stroke="midnightblue" points="1034.59,-78.7 1024.47,-75.57 1030.43,-84.33 1034.59,-78.7"/>
</g>
<!-- Node3 -->
<g id="node3" class="node">
<title>Node3</title>
<g id="a_node3"><a xlink:title=" ">
<polygon fill="white" stroke="#bfbfbf" points="725.5,-0.5 725.5,-19.5 781.5,-19.5 781.5,-0.5 725.5,-0.5"/>
<text text-anchor="middle" x="753.5" y="-7.5" font-family="Helvetica,sans-Serif" font-size="10.00">sstream</text>
</a>
</g>
</g>
<!-- Node2&#45;&gt;Node3 -->
<g id="edge2" class="edge">
<title>Node2&#45;&gt;Node3</title>
<path fill="none" stroke="midnightblue" d="M720.94,-56.08C726.45,-48.46 734.53,-37.26 741.26,-27.94"/>
<polygon fill="midnightblue" stroke="midnightblue" points="744.16,-29.91 747.18,-19.75 738.49,-25.81 744.16,-29.91"/>
</g>
<!-- Node4 -->
<g id="node4" class="node">
<title>Node4</title>
<g id="a_node4"><a xlink:title=" ">
<polygon fill="white" stroke="#bfbfbf" points="642,-0.5 642,-19.5 707,-19.5 707,-0.5 642,-0.5"/>
<text text-anchor="middle" x="674.5" y="-7.5" font-family="Helvetica,sans-Serif" font-size="10.00">stdexcept</text>
</a>
</g>
</g>
<!-- Node2&#45;&gt;Node4 -->
<g id="edge3" class="edge">
<title>Node2&#45;&gt;Node4</title>
<path fill="none" stroke="midnightblue" d="M707.89,-56.08C702.24,-48.46 693.96,-37.26 687.05,-27.94"/>
<polygon fill="midnightblue" stroke="midnightblue" points="689.75,-25.7 680.98,-19.75 684.12,-29.87 689.75,-25.7"/>
</g>
<!-- Node5 -->
<g id="node5" class="node">
<title>Node5</title>
<g id="a_node5"><a xlink:title=" ">
<polygon fill="white" stroke="#bfbfbf" points="498.5,-0.5 498.5,-19.5 542.5,-19.5 542.5,-0.5 498.5,-0.5"/>
<text text-anchor="middle" x="520.5" y="-7.5" font-family="Helvetica,sans-Serif" font-size="10.00">string</text>
</a>
</g>
</g>
<!-- Node2&#45;&gt;Node5 -->
<g id="edge4" class="edge">
<title>Node2&#45;&gt;Node5</title>
<path fill="none" stroke="midnightblue" d="M683.76,-56.44C647.97,-46.48 589.14,-30.11 552.73,-19.97"/>
<polygon fill="midnightblue" stroke="midnightblue" points="553.22,-16.47 542.65,-17.16 551.34,-23.22 553.22,-16.47"/>
</g>
<!-- Node8 -->
<g id="node8" class="node">
<title>Node8</title>
<g id="a_node8"><a xlink:href="_i_tensor_handle_8hpp.html" target="_top" xlink:title=" ">
<polygon fill="white" stroke="black" points="601,-224.5 601,-243.5 708,-243.5 708,-224.5 601,-224.5"/>
<text text-anchor="middle" x="654.5" y="-231.5" font-family="Helvetica,sans-Serif" font-size="10.00">ITensorHandle.hpp</text>
</a>
</g>
</g>
<!-- Node7&#45;&gt;Node8 -->
<g id="edge7" class="edge">
<title>Node7&#45;&gt;Node8</title>
<path fill="none" stroke="midnightblue" d="M611.09,-280.08C618.66,-272.22 629.88,-260.57 639.01,-251.08"/>
<polygon fill="midnightblue" stroke="midnightblue" points="641.66,-253.38 646.07,-243.75 636.62,-248.53 641.66,-253.38"/>
</g>
<!-- Node28 -->
<g id="node28" class="node">
<title>Node28</title>
<g id="a_node28"><a xlink:href="_types_utils_8hpp.html" target="_top" xlink:title=" ">
<polygon fill="white" stroke="black" points="174.5,-224.5 174.5,-243.5 296.5,-243.5 296.5,-224.5 174.5,-224.5"/>
<text text-anchor="middle" x="235.5" y="-231.5" font-family="Helvetica,sans-Serif" font-size="10.00">armnn/TypesUtils.hpp</text>
</a>
</g>
</g>
<!-- Node7&#45;&gt;Node28 -->
<g id="edge37" class="edge">
<title>Node7&#45;&gt;Node28</title>
<path fill="none" stroke="midnightblue" d="M544.35,-280.44C478.85,-270.81 372.54,-255.16 303.31,-244.98"/>
<polygon fill="midnightblue" stroke="midnightblue" points="303.78,-241.51 293.38,-243.52 302.76,-248.43 303.78,-241.51"/>
</g>
<!-- Node30 -->
<g id="node30" class="node">
<title>Node30</title>
<g id="a_node30"><a xlink:href="_assert_8hpp.html" target="_top" xlink:title=" ">
<polygon fill="white" stroke="black" points="894.5,-224.5 894.5,-243.5 1028.5,-243.5 1028.5,-224.5 894.5,-224.5"/>
<text text-anchor="middle" x="961.5" y="-231.5" font-family="Helvetica,sans-Serif" font-size="10.00">armnn/utility/Assert.hpp</text>
</a>
</g>
</g>
<!-- Node7&#45;&gt;Node30 -->
<g id="edge47" class="edge">
<title>Node7&#45;&gt;Node30</title>
<path fill="none" stroke="midnightblue" d="M659.38,-280.44C723.32,-270.83 827.02,-255.23 894.75,-245.04"/>
<polygon fill="midnightblue" stroke="midnightblue" points="895.51,-248.47 904.88,-243.52 894.47,-241.54 895.51,-248.47"/>
</g>
<!-- Node32 -->
<g id="node32" class="node">
<title>Node32</title>
<g id="a_node32"><a xlink:href="_compatible_types_8hpp.html" target="_top" xlink:title=" ">
<polygon fill="white" stroke="black" points="319,-224.5 319,-243.5 498,-243.5 498,-224.5 319,-224.5"/>
<text text-anchor="middle" x="408.5" y="-231.5" font-family="Helvetica,sans-Serif" font-size="10.00">armnnUtils/CompatibleTypes.hpp</text>
</a>
</g>
</g>
<!-- Node7&#45;&gt;Node32 -->
<g id="edge49" class="edge">
<title>Node7&#45;&gt;Node32</title>
<path fill="none" stroke="midnightblue" d="M571.76,-280.44C538.56,-271.2 485.51,-256.44 448.94,-246.26"/>
<polygon fill="midnightblue" stroke="midnightblue" points="449.67,-242.83 439.1,-243.52 447.79,-249.57 449.67,-242.83"/>
</g>
<!-- Node33 -->
<g id="node33" class="node">
<title>Node33</title>
<g id="a_node33"><a xlink:title=" ">
<polygon fill="white" stroke="#bfbfbf" points="518.5,-224.5 518.5,-243.5 582.5,-243.5 582.5,-224.5 518.5,-224.5"/>
<text text-anchor="middle" x="550.5" y="-231.5" font-family="Helvetica,sans-Serif" font-size="10.00">algorithm</text>
</a>
</g>
</g>
<!-- Node7&#45;&gt;Node33 -->
<g id="edge51" class="edge">
<title>Node7&#45;&gt;Node33</title>
<path fill="none" stroke="midnightblue" d="M593.91,-280.08C586.34,-272.22 575.12,-260.57 565.99,-251.08"/>
<polygon fill="midnightblue" stroke="midnightblue" points="568.38,-248.53 558.93,-243.75 563.34,-253.38 568.38,-248.53"/>
</g>
<!-- Node8&#45;&gt;Node6 -->
<g id="edge24" class="edge">
<title>Node8&#45;&gt;Node6</title>
<path fill="none" stroke="midnightblue" d="M689.04,-224.44C726.75,-215.1 787.24,-200.12 828.36,-189.93"/>
<polygon fill="midnightblue" stroke="midnightblue" points="829.25,-193.32 838.12,-187.52 827.57,-186.52 829.25,-193.32"/>
</g>
<!-- Node9 -->
<g id="node9" class="node">
<title>Node9</title>
<g id="a_node9"><a xlink:href="_memory_sources_8hpp.html" target="_top" xlink:title=" ">
<polygon fill="white" stroke="black" points="579,-168.5 579,-187.5 730,-187.5 730,-168.5 579,-168.5"/>
<text text-anchor="middle" x="654.5" y="-175.5" font-family="Helvetica,sans-Serif" font-size="10.00">armnn/MemorySources.hpp</text>
</a>
</g>
</g>
<!-- Node8&#45;&gt;Node9 -->
<g id="edge8" class="edge">
<title>Node8&#45;&gt;Node9</title>
<path fill="none" stroke="midnightblue" d="M654.5,-224.08C654.5,-217.01 654.5,-206.86 654.5,-197.99"/>
<polygon fill="midnightblue" stroke="midnightblue" points="658,-197.75 654.5,-187.75 651,-197.75 658,-197.75"/>
</g>
<!-- Node23 -->
<g id="node23" class="node">
<title>Node23</title>
<g id="a_node23"><a xlink:href="_tensor_8hpp.html" target="_top" xlink:title=" ">
<polygon fill="white" stroke="black" points="458,-168.5 458,-187.5 561,-187.5 561,-168.5 458,-168.5"/>
<text text-anchor="middle" x="509.5" y="-175.5" font-family="Helvetica,sans-Serif" font-size="10.00">armnn/Tensor.hpp</text>
</a>
</g>
</g>
<!-- Node8&#45;&gt;Node23 -->
<g id="edge25" class="edge">
<title>Node8&#45;&gt;Node23</title>
<path fill="none" stroke="midnightblue" d="M631.52,-224.44C607.34,-215.44 569.08,-201.19 541.85,-191.05"/>
<polygon fill="midnightblue" stroke="midnightblue" points="542.96,-187.73 532.37,-187.52 540.52,-194.29 542.96,-187.73"/>
</g>
<!-- Node10 -->
<g id="node10" class="node">
<title>Node10</title>
<g id="a_node10"><a xlink:href="_types_8hpp.html" target="_top" xlink:title=" ">
<polygon fill="white" stroke="black" points="345.5,-112.5 345.5,-131.5 445.5,-131.5 445.5,-112.5 345.5,-112.5"/>
<text text-anchor="middle" x="395.5" y="-119.5" font-family="Helvetica,sans-Serif" font-size="10.00">armnn/Types.hpp</text>
</a>
</g>
</g>
<!-- Node9&#45;&gt;Node10 -->
<g id="edge9" class="edge">
<title>Node9&#45;&gt;Node10</title>
<path fill="none" stroke="midnightblue" d="M613.46,-168.44C568.18,-159 495.27,-143.8 446.39,-133.61"/>
<polygon fill="midnightblue" stroke="midnightblue" points="446.85,-130.13 436.35,-131.52 445.42,-136.98 446.85,-130.13"/>
</g>
<!-- Node22 -->
<g id="node22" class="node">
<title>Node22</title>
<g id="a_node22"><a xlink:title=" ">
<polygon fill="white" stroke="#bfbfbf" points="816,-56.5 816,-75.5 885,-75.5 885,-56.5 816,-56.5"/>
<text text-anchor="middle" x="850.5" y="-63.5" font-family="Helvetica,sans-Serif" font-size="10.00">type_traits</text>
</a>
</g>
</g>
<!-- Node9&#45;&gt;Node22 -->
<g id="edge23" class="edge">
<title>Node9&#45;&gt;Node22</title>
<path fill="none" stroke="midnightblue" d="M713.41,-168.43C758.1,-160.79 814.62,-148.29 831.5,-132 843.92,-120.02 848.34,-100.41 849.86,-85.86"/>
<polygon fill="midnightblue" stroke="midnightblue" points="853.37,-85.73 850.54,-75.52 846.39,-85.26 853.37,-85.73"/>
</g>
<!-- Node10&#45;&gt;Node2 -->
<g id="edge21" class="edge">
<title>Node10&#45;&gt;Node2</title>
<path fill="none" stroke="midnightblue" d="M445.69,-112.5C502.09,-102.96 593.61,-87.46 653.93,-77.25"/>
<polygon fill="midnightblue" stroke="midnightblue" points="654.8,-80.66 664.07,-75.54 653.63,-73.75 654.8,-80.66"/>
</g>
<!-- Node11 -->
<g id="node11" class="node">
<title>Node11</title>
<g id="a_node11"><a xlink:title=" ">
<polygon fill="white" stroke="#bfbfbf" points="327.5,-56.5 327.5,-75.5 369.5,-75.5 369.5,-56.5 327.5,-56.5"/>
<text text-anchor="middle" x="348.5" y="-63.5" font-family="Helvetica,sans-Serif" font-size="10.00">array</text>
</a>
</g>
</g>
<!-- Node10&#45;&gt;Node11 -->
<g id="edge10" class="edge">
<title>Node10&#45;&gt;Node11</title>
<path fill="none" stroke="midnightblue" d="M387.74,-112.08C380.96,-104.3 370.96,-92.8 362.74,-83.37"/>
<polygon fill="midnightblue" stroke="midnightblue" points="365.32,-81 356.12,-75.75 360.04,-85.59 365.32,-81"/>
</g>
<!-- Node12 -->
<g id="node12" class="node">
<title>Node12</title>
<g id="a_node12"><a xlink:title=" ">
<polygon fill="white" stroke="#bfbfbf" points="500,-56.5 500,-75.5 565,-75.5 565,-56.5 500,-56.5"/>
<text text-anchor="middle" x="532.5" y="-63.5" font-family="Helvetica,sans-Serif" font-size="10.00">functional</text>
</a>
</g>
</g>
<!-- Node10&#45;&gt;Node12 -->
<g id="edge11" class="edge">
<title>Node10&#45;&gt;Node12</title>
<path fill="none" stroke="midnightblue" d="M417.21,-112.44C439.85,-103.52 475.57,-89.44 501.25,-79.32"/>
<polygon fill="midnightblue" stroke="midnightblue" points="502.87,-82.44 510.89,-75.52 500.31,-75.93 502.87,-82.44"/>
</g>
<!-- Node13 -->
<g id="node13" class="node">
<title>Node13</title>
<g id="a_node13"><a xlink:title=" ">
<polygon fill="white" stroke="#bfbfbf" points="256,-56.5 256,-75.5 309,-75.5 309,-56.5 256,-56.5"/>
<text text-anchor="middle" x="282.5" y="-63.5" font-family="Helvetica,sans-Serif" font-size="10.00">stdint.h</text>
</a>
</g>
</g>
<!-- Node10&#45;&gt;Node13 -->
<g id="edge12" class="edge">
<title>Node10&#45;&gt;Node13</title>
<path fill="none" stroke="midnightblue" d="M377.59,-112.44C359.25,-103.68 330.49,-89.94 309.41,-79.86"/>
<polygon fill="midnightblue" stroke="midnightblue" points="310.85,-76.67 300.32,-75.52 307.83,-82.99 310.85,-76.67"/>
</g>
<!-- Node14 -->
<g id="node14" class="node">
<title>Node14</title>
<g id="a_node14"><a xlink:title=" ">
<polygon fill="white" stroke="#bfbfbf" points="583.5,-56.5 583.5,-75.5 633.5,-75.5 633.5,-56.5 583.5,-56.5"/>
<text text-anchor="middle" x="608.5" y="-63.5" font-family="Helvetica,sans-Serif" font-size="10.00">chrono</text>
</a>
</g>
</g>
<!-- Node10&#45;&gt;Node14 -->
<g id="edge13" class="edge">
<title>Node10&#45;&gt;Node14</title>
<path fill="none" stroke="midnightblue" d="M430.18,-112.42C464.22,-103.96 517.88,-90.56 573.27,-76.3"/>
<polygon fill="midnightblue" stroke="midnightblue" points="574.45,-79.61 583.26,-73.72 572.7,-72.83 574.45,-79.61"/>
</g>
<!-- Node15 -->
<g id="node15" class="node">
<title>Node15</title>
<g id="a_node15"><a xlink:href="_backend_id_8hpp.html" target="_top" xlink:title=" ">
<polygon fill="white" stroke="black" points="150.5,-56.5 150.5,-75.5 238.5,-75.5 238.5,-56.5 150.5,-56.5"/>
<text text-anchor="middle" x="194.5" y="-63.5" font-family="Helvetica,sans-Serif" font-size="10.00">BackendId.hpp</text>
</a>
</g>
</g>
<!-- Node10&#45;&gt;Node15 -->
<g id="edge14" class="edge">
<title>Node10&#45;&gt;Node15</title>
<path fill="none" stroke="midnightblue" d="M363.65,-112.44C329.1,-103.16 273.82,-88.31 235.92,-78.13"/>
<polygon fill="midnightblue" stroke="midnightblue" points="236.77,-74.73 226.2,-75.52 234.95,-81.49 236.77,-74.73"/>
</g>
<!-- Node21 -->
<g id="node21" class="node">
<title>Node21</title>
<g id="a_node21"><a xlink:href="_deprecated_8hpp.html" target="_top" xlink:title=" ">
<polygon fill="white" stroke="black" points="387.5,-56.5 387.5,-75.5 481.5,-75.5 481.5,-56.5 387.5,-56.5"/>
<text text-anchor="middle" x="434.5" y="-63.5" font-family="Helvetica,sans-Serif" font-size="10.00">Deprecated.hpp</text>
</a>
</g>
</g>
<!-- Node10&#45;&gt;Node21 -->
<g id="edge22" class="edge">
<title>Node10&#45;&gt;Node21</title>
<path fill="none" stroke="midnightblue" d="M401.94,-112.08C407.45,-104.46 415.53,-93.26 422.26,-83.94"/>
<polygon fill="midnightblue" stroke="midnightblue" points="425.16,-85.91 428.18,-75.75 419.49,-81.81 425.16,-85.91"/>
</g>
<!-- Node15&#45;&gt;Node5 -->
<g id="edge18" class="edge">
<title>Node15&#45;&gt;Node5</title>
<path fill="none" stroke="midnightblue" d="M238.74,-57.47C241.71,-56.97 244.65,-56.48 247.5,-56 334.41,-41.46 436.95,-24.65 488.09,-16.29"/>
<polygon fill="midnightblue" stroke="midnightblue" points="488.9,-19.71 498.2,-14.64 487.77,-12.8 488.9,-19.71"/>
</g>
<!-- Node16 -->
<g id="node16" class="node">
<title>Node16</title>
<g id="a_node16"><a xlink:title=" ">
<polygon fill="white" stroke="#bfbfbf" points="295.5,-0.5 295.5,-19.5 353.5,-19.5 353.5,-0.5 295.5,-0.5"/>
<text text-anchor="middle" x="324.5" y="-7.5" font-family="Helvetica,sans-Serif" font-size="10.00">memory</text>
</a>
</g>
</g>
<!-- Node15&#45;&gt;Node16 -->
<g id="edge15" class="edge">
<title>Node15&#45;&gt;Node16</title>
<path fill="none" stroke="midnightblue" d="M215.1,-56.44C236.49,-47.56 270.18,-33.56 294.52,-23.45"/>
<polygon fill="midnightblue" stroke="midnightblue" points="296.11,-26.58 304,-19.52 293.42,-20.12 296.11,-26.58"/>
</g>
<!-- Node17 -->
<g id="node17" class="node">
<title>Node17</title>
<g id="a_node17"><a xlink:title=" ">
<polygon fill="white" stroke="#bfbfbf" points="0,-0.5 0,-19.5 57,-19.5 57,-0.5 0,-0.5"/>
<text text-anchor="middle" x="28.5" y="-7.5" font-family="Helvetica,sans-Serif" font-size="10.00">ostream</text>
</a>
</g>
</g>
<!-- Node15&#45;&gt;Node17 -->
<g id="edge16" class="edge">
<title>Node15&#45;&gt;Node17</title>
<path fill="none" stroke="midnightblue" d="M168.2,-56.44C140.15,-47.32 95.56,-32.81 64.32,-22.65"/>
<polygon fill="midnightblue" stroke="midnightblue" points="65.27,-19.28 54.68,-19.52 63.11,-25.94 65.27,-19.28"/>
</g>
<!-- Node18 -->
<g id="node18" class="node">
<title>Node18</title>
<g id="a_node18"><a xlink:title=" ">
<polygon fill="white" stroke="#bfbfbf" points="75.5,-0.5 75.5,-19.5 107.5,-19.5 107.5,-0.5 75.5,-0.5"/>
<text text-anchor="middle" x="91.5" y="-7.5" font-family="Helvetica,sans-Serif" font-size="10.00">set</text>
</a>
</g>
</g>
<!-- Node15&#45;&gt;Node18 -->
<g id="edge17" class="edge">
<title>Node15&#45;&gt;Node18</title>
<path fill="none" stroke="midnightblue" d="M177.95,-56.32C161.41,-47.65 135.76,-34.21 116.69,-24.21"/>
<polygon fill="midnightblue" stroke="midnightblue" points="118.15,-21.02 107.67,-19.48 114.9,-27.22 118.15,-21.02"/>
</g>
<!-- Node19 -->
<g id="node19" class="node">
<title>Node19</title>
<g id="a_node19"><a xlink:title=" ">
<polygon fill="white" stroke="#bfbfbf" points="191.5,-0.5 191.5,-19.5 277.5,-19.5 277.5,-0.5 191.5,-0.5"/>
<text text-anchor="middle" x="234.5" y="-7.5" font-family="Helvetica,sans-Serif" font-size="10.00">unordered_set</text>
</a>
</g>
</g>
<!-- Node15&#45;&gt;Node19 -->
<g id="edge19" class="edge">
<title>Node15&#45;&gt;Node19</title>
<path fill="none" stroke="midnightblue" d="M201.11,-56.08C206.76,-48.46 215.04,-37.26 221.95,-27.94"/>
<polygon fill="midnightblue" stroke="midnightblue" points="224.88,-29.87 228.02,-19.75 219.25,-25.7 224.88,-29.87"/>
</g>
<!-- Node20 -->
<g id="node20" class="node">
<title>Node20</title>
<g id="a_node20"><a xlink:title=" ">
<polygon fill="white" stroke="#bfbfbf" points="126,-0.5 126,-19.5 173,-19.5 173,-0.5 126,-0.5"/>
<text text-anchor="middle" x="149.5" y="-7.5" font-family="Helvetica,sans-Serif" font-size="10.00">vector</text>
</a>
</g>
</g>
<!-- Node15&#45;&gt;Node20 -->
<g id="edge20" class="edge">
<title>Node15&#45;&gt;Node20</title>
<path fill="none" stroke="midnightblue" d="M187.07,-56.08C180.65,-48.38 171.19,-37.03 163.38,-27.65"/>
<polygon fill="midnightblue" stroke="midnightblue" points="165.88,-25.19 156.79,-19.75 160.51,-29.67 165.88,-25.19"/>
</g>
<!-- Node23&#45;&gt;Node2 -->
<g id="edge26" class="edge">
<title>Node23&#45;&gt;Node2</title>
<path fill="none" stroke="midnightblue" d="M509.87,-168.44C510.96,-154.51 515.18,-126.99 531.5,-112 548.08,-96.78 599.7,-84.92 643.91,-77.21"/>
<polygon fill="midnightblue" stroke="midnightblue" points="644.52,-80.65 653.79,-75.53 643.35,-73.75 644.52,-80.65"/>
</g>
<!-- Node23&#45;&gt;Node10 -->
<g id="edge31" class="edge">
<title>Node23&#45;&gt;Node10</title>
<path fill="none" stroke="midnightblue" d="M491.44,-168.44C472.93,-159.68 443.92,-145.94 422.64,-135.86"/>
<polygon fill="midnightblue" stroke="midnightblue" points="424.01,-132.63 413.48,-131.52 421.02,-138.96 424.01,-132.63"/>
</g>
<!-- Node23&#45;&gt;Node11 -->
<g id="edge33" class="edge">
<title>Node23&#45;&gt;Node11</title>
<path fill="none" stroke="midnightblue" d="M457.71,-170.53C412.31,-163.67 351.31,-151.15 336.5,-132 326.11,-118.56 331.75,-98.92 338.36,-84.75"/>
<polygon fill="midnightblue" stroke="midnightblue" points="341.62,-86.06 343.12,-75.57 335.41,-82.83 341.62,-86.06"/>
</g>
<!-- Node23&#45;&gt;Node13 -->
<g id="edge32" class="edge">
<title>Node23&#45;&gt;Node13</title>
<path fill="none" stroke="midnightblue" d="M457.67,-174.2C418.6,-169.88 365.29,-159.02 326.5,-132 309.6,-120.23 297.32,-99.7 290.09,-84.86"/>
<polygon fill="midnightblue" stroke="midnightblue" points="293.24,-83.32 285.91,-75.67 286.87,-86.22 293.24,-83.32"/>
</g>
<!-- Node23&#45;&gt;Node20 -->
<g id="edge35" class="edge">
<title>Node23&#45;&gt;Node20</title>
<path fill="none" stroke="midnightblue" d="M457.83,-170.79C365.46,-158.49 178.21,-127.63 141.5,-76 131.95,-62.56 135.78,-43.49 140.91,-29.48"/>
<polygon fill="midnightblue" stroke="midnightblue" points="144.27,-30.5 144.88,-19.93 137.81,-27.82 144.27,-30.5"/>
</g>
<!-- Node24 -->
<g id="node24" class="node">
<title>Node24</title>
<g id="a_node24"><a xlink:href="_optional_8hpp.html" target="_top" xlink:title=" ">
<polygon fill="white" stroke="black" points="743,-112.5 743,-131.5 822,-131.5 822,-112.5 743,-112.5"/>
<text text-anchor="middle" x="782.5" y="-119.5" font-family="Helvetica,sans-Serif" font-size="10.00">Optional.hpp</text>
</a>
</g>
</g>
<!-- Node23&#45;&gt;Node24 -->
<g id="edge27" class="edge">
<title>Node23&#45;&gt;Node24</title>
<path fill="none" stroke="midnightblue" d="M552.76,-168.44C601.81,-158.74 681.63,-142.95 733.09,-132.77"/>
<polygon fill="midnightblue" stroke="midnightblue" points="733.86,-136.19 742.99,-130.82 732.5,-129.32 733.86,-136.19"/>
</g>
<!-- Node26 -->
<g id="node26" class="node">
<title>Node26</title>
<g id="a_node26"><a xlink:title=" ">
<polygon fill="white" stroke="#bfbfbf" points="540,-112.5 540,-131.5 623,-131.5 623,-112.5 540,-112.5"/>
<text text-anchor="middle" x="581.5" y="-119.5" font-family="Helvetica,sans-Serif" font-size="10.00">initializer_list</text>
</a>
</g>
</g>
<!-- Node23&#45;&gt;Node26 -->
<g id="edge34" class="edge">
<title>Node23&#45;&gt;Node26</title>
<path fill="none" stroke="midnightblue" d="M521.07,-168.32C531.92,-160.18 548.38,-147.84 561.38,-138.09"/>
<polygon fill="midnightblue" stroke="midnightblue" points="563.82,-140.63 569.72,-131.83 559.62,-135.03 563.82,-140.63"/>
</g>
<!-- Node27 -->
<g id="node27" class="node">
<title>Node27</title>
<g id="a_node27"><a xlink:title=" ">
<polygon fill="white" stroke="#bfbfbf" points="641,-112.5 641,-131.5 686,-131.5 686,-112.5 641,-112.5"/>
<text text-anchor="middle" x="663.5" y="-119.5" font-family="Helvetica,sans-Serif" font-size="10.00">utility</text>
</a>
</g>
</g>
<!-- Node23&#45;&gt;Node27 -->
<g id="edge36" class="edge">
<title>Node23&#45;&gt;Node27</title>
<path fill="none" stroke="midnightblue" d="M533.9,-168.44C560.15,-159.24 602.02,-144.56 631.04,-134.38"/>
<polygon fill="midnightblue" stroke="midnightblue" points="632.44,-137.6 640.72,-130.99 630.12,-130.99 632.44,-137.6"/>
</g>
<!-- Node24&#45;&gt;Node2 -->
<g id="edge28" class="edge">
<title>Node24&#45;&gt;Node2</title>
<path fill="none" stroke="midnightblue" d="M771.57,-112.32C761.33,-104.18 745.78,-91.84 733.5,-82.09"/>
<polygon fill="midnightblue" stroke="midnightblue" points="735.63,-79.31 725.62,-75.83 731.28,-84.79 735.63,-79.31"/>
</g>
<!-- Node24&#45;&gt;Node22 -->
<g id="edge30" class="edge">
<title>Node24&#45;&gt;Node22</title>
<path fill="none" stroke="midnightblue" d="M793.43,-112.32C803.67,-104.18 819.22,-91.84 831.5,-82.09"/>
<polygon fill="midnightblue" stroke="midnightblue" points="833.72,-84.79 839.38,-75.83 829.37,-79.31 833.72,-84.79"/>
</g>
<!-- Node24&#45;&gt;Node25 -->
<g id="edge29" class="edge">
<title>Node24&#45;&gt;Node25</title>
<path fill="none" stroke="midnightblue" d="M818.79,-112.44C862.01,-102.25 933.72,-85.34 976.41,-75.27"/>
<polygon fill="midnightblue" stroke="midnightblue" points="977.42,-78.63 986.35,-72.93 975.81,-71.82 977.42,-78.63"/>
</g>
<!-- Node28&#45;&gt;Node2 -->
<g id="edge39" class="edge">
<title>Node28&#45;&gt;Node2</title>
<path fill="none" stroke="midnightblue" d="M254.11,-224.34C307.55,-199.58 460.96,-129.14 513.5,-112 559.88,-96.87 613.92,-85.08 654.28,-77.38"/>
<polygon fill="midnightblue" stroke="midnightblue" points="655.05,-80.79 664.23,-75.5 653.75,-73.91 655.05,-80.79"/>
</g>
<!-- Node28&#45;&gt;Node10 -->
<g id="edge41" class="edge">
<title>Node28&#45;&gt;Node10</title>
<path fill="none" stroke="midnightblue" d="M248.05,-224.37C275.39,-205.57 340.56,-160.77 374.36,-137.53"/>
<polygon fill="midnightblue" stroke="midnightblue" points="376.75,-140.14 383,-131.59 372.78,-134.37 376.75,-140.14"/>
</g>
<!-- Node28&#45;&gt;Node13 -->
<g id="edge42" class="edge">
<title>Node28&#45;&gt;Node13</title>
<path fill="none" stroke="midnightblue" d="M238.03,-224.08C245.43,-197.95 267.15,-121.21 277.24,-85.58"/>
<polygon fill="midnightblue" stroke="midnightblue" points="280.72,-86.14 280.07,-75.57 273.98,-84.24 280.72,-86.14"/>
</g>
<!-- Node28&#45;&gt;Node15 -->
<g id="edge38" class="edge">
<title>Node28&#45;&gt;Node15</title>
<path fill="none" stroke="midnightblue" d="M201.7,-224.39C183.11,-217.74 161.61,-206.45 150.5,-188 129.76,-153.55 159.9,-107.76 179.65,-83.58"/>
<polygon fill="midnightblue" stroke="midnightblue" points="182.53,-85.6 186.34,-75.72 177.2,-81.07 182.53,-85.6"/>
</g>
<!-- Node28&#45;&gt;Node17 -->
<g id="edge44" class="edge">
<title>Node28&#45;&gt;Node17</title>
<path fill="none" stroke="midnightblue" d="M195.72,-224.5C172.21,-217.81 143.1,-206.46 122.5,-188 72.47,-143.16 44.43,-65.26 33.67,-29.68"/>
<polygon fill="midnightblue" stroke="midnightblue" points="36.93,-28.35 30.78,-19.72 30.21,-30.3 36.93,-28.35"/>
</g>
<!-- Node28&#45;&gt;Node18 -->
<g id="edge45" class="edge">
<title>Node28&#45;&gt;Node18</title>
<path fill="none" stroke="midnightblue" d="M200.28,-224.5C179.78,-217.81 155.01,-206.46 139.5,-188 100.13,-141.13 92.82,-64.82 91.62,-29.73"/>
<polygon fill="midnightblue" stroke="midnightblue" points="95.12,-29.44 91.41,-19.52 88.12,-29.59 95.12,-29.44"/>
</g>
<!-- Node28&#45;&gt;Node22 -->
<g id="edge46" class="edge">
<title>Node28&#45;&gt;Node22</title>
<path fill="none" stroke="midnightblue" d="M296.88,-225.45C301.48,-224.94 306.06,-224.45 310.5,-224 500.85,-204.6 555.55,-240.65 739.5,-188 758.23,-182.64 761.1,-176.75 778.5,-168 810.82,-151.75 832.4,-162.72 851.5,-132 860.06,-118.24 858.7,-99.46 855.86,-85.63"/>
<polygon fill="midnightblue" stroke="midnightblue" points="859.22,-84.65 853.42,-75.78 852.43,-86.33 859.22,-84.65"/>
</g>
<!-- Node28&#45;&gt;Node23 -->
<g id="edge40" class="edge">
<title>Node28&#45;&gt;Node23</title>
<path fill="none" stroke="midnightblue" d="M278.92,-224.44C327.02,-214.96 404.59,-199.67 456.31,-189.48"/>
<polygon fill="midnightblue" stroke="midnightblue" points="457.15,-192.88 466.29,-187.52 455.8,-186.02 457.15,-192.88"/>
</g>
<!-- Node29 -->
<g id="node29" class="node">
<title>Node29</title>
<g id="a_node29"><a xlink:title=" ">
<polygon fill="white" stroke="#bfbfbf" points="159,-168.5 159,-187.5 206,-187.5 206,-168.5 159,-168.5"/>
<text text-anchor="middle" x="182.5" y="-175.5" font-family="Helvetica,sans-Serif" font-size="10.00">cmath</text>
</a>
</g>
</g>
<!-- Node28&#45;&gt;Node29 -->
<g id="edge43" class="edge">
<title>Node28&#45;&gt;Node29</title>
<path fill="none" stroke="midnightblue" d="M226.75,-224.08C219.03,-216.22 207.6,-204.57 198.28,-195.08"/>
<polygon fill="midnightblue" stroke="midnightblue" points="200.59,-192.44 191.09,-187.75 195.6,-197.34 200.59,-192.44"/>
</g>
<!-- Node31 -->
<g id="node31" class="node">
<title>Node31</title>
<g id="a_node31"><a xlink:title=" ">
<polygon fill="white" stroke="#bfbfbf" points="976.5,-168.5 976.5,-187.5 1028.5,-187.5 1028.5,-168.5 976.5,-168.5"/>
<text text-anchor="middle" x="1002.5" y="-175.5" font-family="Helvetica,sans-Serif" font-size="10.00">cassert</text>
</a>
</g>
</g>
<!-- Node30&#45;&gt;Node31 -->
<g id="edge48" class="edge">
<title>Node30&#45;&gt;Node31</title>
<path fill="none" stroke="midnightblue" d="M968.27,-224.08C974.06,-216.46 982.56,-205.26 989.64,-195.94"/>
<polygon fill="midnightblue" stroke="midnightblue" points="992.6,-197.83 995.86,-187.75 987.02,-193.6 992.6,-197.83"/>
</g>
<!-- Node32&#45;&gt;Node10 -->
<g id="edge50" class="edge">
<title>Node32&#45;&gt;Node10</title>
<path fill="none" stroke="midnightblue" d="M407.48,-224.37C405.38,-206.62 400.54,-165.67 397.7,-141.6"/>
<polygon fill="midnightblue" stroke="midnightblue" points="401.16,-141.11 396.52,-131.59 394.21,-141.93 401.16,-141.11"/>
</g>
</g>
</svg>
