<?xml version="1.0" encoding="UTF-8" standalone="no"?>
<!DOCTYPE svg PUBLIC "-//W3C//DTD SVG 1.1//EN"
 "http://www.w3.org/Graphics/SVG/1.1/DTD/svg11.dtd">
<!-- Generated by graphviz version 2.43.0 (0)
 -->
<!-- Title: src/armnnUtils/TensorUtils.cpp Pages: 1 -->
<svg width="1561pt" height="364pt"
 viewBox="0.00 0.00 1560.50 364.00" xmlns="http://www.w3.org/2000/svg" xmlns:xlink="http://www.w3.org/1999/xlink">
<g id="graph0" class="graph" transform="scale(1 1) rotate(0) translate(4 360)">
<title>src/armnnUtils/TensorUtils.cpp</title>
<polygon fill="white" stroke="transparent" points="-4,4 -4,-360 1556.5,-360 1556.5,4 -4,4"/>
<!-- Node1 -->
<g id="node1" class="node">
<title>Node1</title>
<g id="a_node1"><a xlink:title=" ">
<polygon fill="#bfbfbf" stroke="black" points="1133,-336.5 1133,-355.5 1298,-355.5 1298,-336.5 1133,-336.5"/>
<text text-anchor="middle" x="1215.5" y="-343.5" font-family="Helvetica,sans-Serif" font-size="10.00">src/armnnUtils/TensorUtils.cpp</text>
</a>
</g>
</g>
<!-- Node2 -->
<g id="node2" class="node">
<title>Node2</title>
<g id="a_node2"><a xlink:href="_tensor_utils_8hpp.html" target="_top" xlink:title=" ">
<polygon fill="white" stroke="black" points="589,-280.5 589,-299.5 738,-299.5 738,-280.5 589,-280.5"/>
<text text-anchor="middle" x="663.5" y="-287.5" font-family="Helvetica,sans-Serif" font-size="10.00">armnnUtils/TensorUtils.hpp</text>
</a>
</g>
</g>
<!-- Node1&#45;&gt;Node2 -->
<g id="edge1" class="edge">
<title>Node1&#45;&gt;Node2</title>
<path fill="none" stroke="midnightblue" d="M1132.86,-336.92C1029.39,-326.79 853.04,-309.54 748.48,-299.31"/>
<polygon fill="midnightblue" stroke="midnightblue" points="748.57,-295.81 738.28,-298.32 747.89,-302.77 748.57,-295.81"/>
</g>
<!-- Node11 -->
<g id="node11" class="node">
<title>Node11</title>
<g id="a_node11"><a xlink:href="_exceptions_8hpp.html" target="_top" xlink:title=" ">
<polygon fill="white" stroke="black" points="706,-56.5 706,-75.5 831,-75.5 831,-56.5 706,-56.5"/>
<text text-anchor="middle" x="768.5" y="-63.5" font-family="Helvetica,sans-Serif" font-size="10.00">armnn/Exceptions.hpp</text>
</a>
</g>
</g>
<!-- Node1&#45;&gt;Node11 -->
<g id="edge44" class="edge">
<title>Node1&#45;&gt;Node11</title>
<path fill="none" stroke="midnightblue" d="M1190.89,-336.46C1154.77,-322.67 1087.68,-292.09 1050.5,-244 1034.59,-223.42 1039.48,-213.31 1033.5,-188 1025.62,-154.65 1044.64,-136.32 1020.5,-112 1013.95,-105.4 908.24,-88.19 835.84,-77.07"/>
<polygon fill="midnightblue" stroke="midnightblue" points="836.27,-73.6 825.85,-75.55 835.21,-80.52 836.27,-73.6"/>
</g>
<!-- Node27 -->
<g id="node27" class="node">
<title>Node27</title>
<g id="a_node27"><a xlink:href="_i_tensor_handle_8hpp.html" target="_top" xlink:title=" ">
<polygon fill="white" stroke="black" points="1059.5,-224.5 1059.5,-243.5 1249.5,-243.5 1249.5,-224.5 1059.5,-224.5"/>
<text text-anchor="middle" x="1154.5" y="-231.5" font-family="Helvetica,sans-Serif" font-size="10.00">armnn/backends/ITensorHandle.hpp</text>
</a>
</g>
</g>
<!-- Node1&#45;&gt;Node27 -->
<g id="edge45" class="edge">
<title>Node1&#45;&gt;Node27</title>
<path fill="none" stroke="midnightblue" d="M1210.71,-336.37C1200.74,-318.38 1177.54,-276.55 1164.27,-252.63"/>
<polygon fill="midnightblue" stroke="midnightblue" points="1167.17,-250.64 1159.26,-243.59 1161.05,-254.03 1167.17,-250.64"/>
</g>
<!-- Node30 -->
<g id="node30" class="node">
<title>Node30</title>
<g id="a_node30"><a xlink:href="_assert_8hpp.html" target="_top" xlink:title=" ">
<polygon fill="white" stroke="black" points="1301.5,-224.5 1301.5,-243.5 1435.5,-243.5 1435.5,-224.5 1301.5,-224.5"/>
<text text-anchor="middle" x="1368.5" y="-231.5" font-family="Helvetica,sans-Serif" font-size="10.00">armnn/utility/Assert.hpp</text>
</a>
</g>
</g>
<!-- Node1&#45;&gt;Node30 -->
<g id="edge51" class="edge">
<title>Node1&#45;&gt;Node30</title>
<path fill="none" stroke="midnightblue" d="M1221.83,-336.48C1232.1,-323.09 1253.59,-296.91 1276.5,-280 1294.69,-266.57 1317.5,-255.38 1335.86,-247.52"/>
<polygon fill="midnightblue" stroke="midnightblue" points="1337.39,-250.68 1345.28,-243.61 1334.7,-244.21 1337.39,-250.68"/>
</g>
<!-- Node32 -->
<g id="node32" class="node">
<title>Node32</title>
<g id="a_node32"><a xlink:href="_numeric_cast_8hpp.html" target="_top" xlink:title=" ">
<polygon fill="white" stroke="black" points="1285,-280.5 1285,-299.5 1452,-299.5 1452,-280.5 1285,-280.5"/>
<text text-anchor="middle" x="1368.5" y="-287.5" font-family="Helvetica,sans-Serif" font-size="10.00">armnn/utility/NumericCast.hpp</text>
</a>
</g>
</g>
<!-- Node1&#45;&gt;Node32 -->
<g id="edge53" class="edge">
<title>Node1&#45;&gt;Node32</title>
<path fill="none" stroke="midnightblue" d="M1239.74,-336.44C1265.37,-327.4 1305.99,-313.06 1334.74,-302.92"/>
<polygon fill="midnightblue" stroke="midnightblue" points="1336.11,-306.15 1344.37,-299.52 1333.78,-299.54 1336.11,-306.15"/>
</g>
<!-- Node34 -->
<g id="node34" class="node">
<title>Node34</title>
<g id="a_node34"><a xlink:title=" ">
<polygon fill="white" stroke="#bfbfbf" points="1470,-280.5 1470,-299.5 1549,-299.5 1549,-280.5 1470,-280.5"/>
<text text-anchor="middle" x="1509.5" y="-287.5" font-family="Helvetica,sans-Serif" font-size="10.00">fmt/format.h</text>
</a>
</g>
</g>
<!-- Node1&#45;&gt;Node34 -->
<g id="edge57" class="edge">
<title>Node1&#45;&gt;Node34</title>
<path fill="none" stroke="midnightblue" d="M1262.67,-336.44C1310.07,-327.81 1385.51,-314.06 1459.93,-300.28"/>
<polygon fill="midnightblue" stroke="midnightblue" points="1460.75,-303.69 1469.95,-298.43 1459.48,-296.81 1460.75,-303.69"/>
</g>
<!-- Node2&#45;&gt;Node2 -->
<g id="edge41" class="edge">
<title>Node2&#45;&gt;Node2</title>
<path fill="none" stroke="midnightblue" d="M702.95,-299.53C729.76,-302.31 756,-299.13 756,-290 756,-282.01 735.91,-278.58 712.93,-279.71"/>
<polygon fill="midnightblue" stroke="midnightblue" points="712.65,-276.22 702.95,-280.47 713.19,-283.2 712.65,-276.22"/>
</g>
<!-- Node3 -->
<g id="node3" class="node">
<title>Node3</title>
<g id="a_node3"><a xlink:href="_types_utils_8hpp.html" target="_top" xlink:title=" ">
<polygon fill="white" stroke="black" points="467.5,-224.5 467.5,-243.5 589.5,-243.5 589.5,-224.5 467.5,-224.5"/>
<text text-anchor="middle" x="528.5" y="-231.5" font-family="Helvetica,sans-Serif" font-size="10.00">armnn/TypesUtils.hpp</text>
</a>
</g>
</g>
<!-- Node2&#45;&gt;Node3 -->
<g id="edge2" class="edge">
<title>Node2&#45;&gt;Node3</title>
<path fill="none" stroke="midnightblue" d="M642.11,-280.44C619.79,-271.52 584.6,-257.44 559.29,-247.32"/>
<polygon fill="midnightblue" stroke="midnightblue" points="560.38,-243.98 549.79,-243.52 557.78,-250.48 560.38,-243.98"/>
</g>
<!-- Node10 -->
<g id="node10" class="node">
<title>Node10</title>
<g id="a_node10"><a xlink:title=" ">
<polygon fill="white" stroke="#bfbfbf" points="306,-0.5 306,-19.5 353,-19.5 353,-0.5 306,-0.5"/>
<text text-anchor="middle" x="329.5" y="-7.5" font-family="Helvetica,sans-Serif" font-size="10.00">vector</text>
</a>
</g>
</g>
<!-- Node2&#45;&gt;Node10 -->
<g id="edge43" class="edge">
<title>Node2&#45;&gt;Node10</title>
<path fill="none" stroke="midnightblue" d="M588.59,-284.66C468.07,-275.6 244.5,-249.32 244.5,-179 244.5,-179 244.5,-179 244.5,-121 244.5,-90.9 245.81,-80.35 263.5,-56 273.24,-42.6 288.25,-31.91 301.51,-24.31"/>
<polygon fill="midnightblue" stroke="midnightblue" points="303.18,-27.39 310.31,-19.56 299.85,-21.23 303.18,-27.39"/>
</g>
<!-- Node14 -->
<g id="node14" class="node">
<title>Node14</title>
<g id="a_node14"><a xlink:href="_tensor_8hpp.html" target="_top" xlink:title=" ">
<polygon fill="white" stroke="black" points="691,-168.5 691,-187.5 794,-187.5 794,-168.5 691,-168.5"/>
<text text-anchor="middle" x="742.5" y="-175.5" font-family="Helvetica,sans-Serif" font-size="10.00">armnn/Tensor.hpp</text>
</a>
</g>
</g>
<!-- Node2&#45;&gt;Node14 -->
<g id="edge39" class="edge">
<title>Node2&#45;&gt;Node14</title>
<path fill="none" stroke="midnightblue" d="M669.7,-280.37C682.74,-262.22 713.2,-219.8 730.3,-195.99"/>
<polygon fill="midnightblue" stroke="midnightblue" points="733.34,-197.76 736.33,-187.59 727.65,-193.67 733.34,-197.76"/>
</g>
<!-- Node18 -->
<g id="node18" class="node">
<title>Node18</title>
<g id="a_node18"><a xlink:href="_types_8hpp.html" target="_top" xlink:title=" ">
<polygon fill="white" stroke="black" points="493,-112.5 493,-131.5 558,-131.5 558,-112.5 493,-112.5"/>
<text text-anchor="middle" x="525.5" y="-119.5" font-family="Helvetica,sans-Serif" font-size="10.00">Types.hpp</text>
</a>
</g>
</g>
<!-- Node2&#45;&gt;Node18 -->
<g id="edge40" class="edge">
<title>Node2&#45;&gt;Node18</title>
<path fill="none" stroke="midnightblue" d="M661.22,-280.36C655.22,-258.96 637.12,-202.78 604.5,-168 591.53,-154.18 573.35,-143.42 557.7,-135.89"/>
<polygon fill="midnightblue" stroke="midnightblue" points="558.9,-132.59 548.35,-131.63 555.99,-138.96 558.9,-132.59"/>
</g>
<!-- Node25 -->
<g id="node25" class="node">
<title>Node25</title>
<g id="a_node25"><a xlink:title=" ">
<polygon fill="white" stroke="#bfbfbf" points="966,-112.5 966,-131.5 1011,-131.5 1011,-112.5 966,-112.5"/>
<text text-anchor="middle" x="988.5" y="-119.5" font-family="Helvetica,sans-Serif" font-size="10.00">utility</text>
</a>
</g>
</g>
<!-- Node2&#45;&gt;Node25 -->
<g id="edge42" class="edge">
<title>Node2&#45;&gt;Node25</title>
<path fill="none" stroke="midnightblue" d="M724.23,-280.5C787.16,-268.99 885.39,-243.16 951.5,-188 966.26,-175.68 976.33,-155.87 982.19,-141.35"/>
<polygon fill="midnightblue" stroke="midnightblue" points="985.5,-142.49 985.72,-131.9 978.94,-140.04 985.5,-142.49"/>
</g>
<!-- Node4 -->
<g id="node4" class="node">
<title>Node4</title>
<g id="a_node4"><a xlink:href="_backend_id_8hpp.html" target="_top" xlink:title=" ">
<polygon fill="white" stroke="black" points="94.5,-56.5 94.5,-75.5 216.5,-75.5 216.5,-56.5 94.5,-56.5"/>
<text text-anchor="middle" x="155.5" y="-63.5" font-family="Helvetica,sans-Serif" font-size="10.00">armnn/BackendId.hpp</text>
</a>
</g>
</g>
<!-- Node3&#45;&gt;Node4 -->
<g id="edge3" class="edge">
<title>Node3&#45;&gt;Node4</title>
<path fill="none" stroke="midnightblue" d="M511.39,-224.48C493.43,-215.5 464.4,-200.91 439.5,-188 375.6,-154.87 362.83,-139.94 296.5,-112 264.13,-98.36 226.12,-86.46 197.73,-78.32"/>
<polygon fill="midnightblue" stroke="midnightblue" points="198.3,-74.85 187.73,-75.5 196.4,-81.59 198.3,-74.85"/>
</g>
<!-- Node6 -->
<g id="node6" class="node">
<title>Node6</title>
<g id="a_node6"><a xlink:title=" ">
<polygon fill="white" stroke="#bfbfbf" points="0,-0.5 0,-19.5 57,-19.5 57,-0.5 0,-0.5"/>
<text text-anchor="middle" x="28.5" y="-7.5" font-family="Helvetica,sans-Serif" font-size="10.00">ostream</text>
</a>
</g>
</g>
<!-- Node3&#45;&gt;Node6 -->
<g id="edge36" class="edge">
<title>Node3&#45;&gt;Node6</title>
<path fill="none" stroke="midnightblue" d="M467.22,-232.7C399.43,-230.55 287.96,-221.57 198.5,-188 156.15,-172.1 145.96,-163.51 113.5,-132 80.63,-100.1 52.29,-53.89 38.13,-28.81"/>
<polygon fill="midnightblue" stroke="midnightblue" points="41.02,-26.8 33.11,-19.74 34.89,-30.19 41.02,-26.8"/>
</g>
<!-- Node7 -->
<g id="node7" class="node">
<title>Node7</title>
<g id="a_node7"><a xlink:title=" ">
<polygon fill="white" stroke="#bfbfbf" points="75.5,-0.5 75.5,-19.5 107.5,-19.5 107.5,-0.5 75.5,-0.5"/>
<text text-anchor="middle" x="91.5" y="-7.5" font-family="Helvetica,sans-Serif" font-size="10.00">set</text>
</a>
</g>
</g>
<!-- Node3&#45;&gt;Node7 -->
<g id="edge37" class="edge">
<title>Node3&#45;&gt;Node7</title>
<path fill="none" stroke="midnightblue" d="M467.28,-232.04C367.74,-226.76 173.13,-200.16 85.5,-76 76.02,-62.57 79.21,-43.5 83.75,-29.48"/>
<polygon fill="midnightblue" stroke="midnightblue" points="87.1,-30.52 87.3,-19.93 80.54,-28.08 87.1,-30.52"/>
</g>
<!-- Node3&#45;&gt;Node11 -->
<g id="edge10" class="edge">
<title>Node3&#45;&gt;Node11</title>
<path fill="none" stroke="midnightblue" d="M543.92,-224.48C559.47,-215.74 584.05,-201.55 604.5,-188 658.73,-152.07 719.65,-105.34 749.69,-81.85"/>
<polygon fill="midnightblue" stroke="midnightblue" points="751.93,-84.54 757.64,-75.61 747.61,-79.03 751.93,-84.54"/>
</g>
<!-- Node3&#45;&gt;Node14 -->
<g id="edge14" class="edge">
<title>Node3&#45;&gt;Node14</title>
<path fill="none" stroke="midnightblue" d="M562.41,-224.44C599.35,-215.12 658.55,-200.18 698.92,-190"/>
<polygon fill="midnightblue" stroke="midnightblue" points="699.91,-193.36 708.75,-187.52 698.2,-186.57 699.91,-193.36"/>
</g>
<!-- Node17 -->
<g id="node17" class="node">
<title>Node17</title>
<g id="a_node17"><a xlink:title=" ">
<polygon fill="white" stroke="#bfbfbf" points="981,-56.5 981,-75.5 1050,-75.5 1050,-56.5 981,-56.5"/>
<text text-anchor="middle" x="1015.5" y="-63.5" font-family="Helvetica,sans-Serif" font-size="10.00">type_traits</text>
</a>
</g>
</g>
<!-- Node3&#45;&gt;Node17 -->
<g id="edge38" class="edge">
<title>Node3&#45;&gt;Node17</title>
<path fill="none" stroke="midnightblue" d="M589.77,-228.12C646.3,-222.42 732.04,-210.71 803.5,-188 857.68,-170.78 869.22,-160.33 918.5,-132 946.11,-116.13 976.37,-95.25 995.62,-81.5"/>
<polygon fill="midnightblue" stroke="midnightblue" points="997.82,-84.23 1003.89,-75.54 993.73,-78.55 997.82,-84.23"/>
</g>
<!-- Node3&#45;&gt;Node18 -->
<g id="edge33" class="edge">
<title>Node3&#45;&gt;Node18</title>
<path fill="none" stroke="midnightblue" d="M528.26,-224.37C527.78,-206.62 526.66,-165.67 526.01,-141.6"/>
<polygon fill="midnightblue" stroke="midnightblue" points="529.51,-141.49 525.73,-131.59 522.51,-141.68 529.51,-141.49"/>
</g>
<!-- Node21 -->
<g id="node21" class="node">
<title>Node21</title>
<g id="a_node21"><a xlink:title=" ">
<polygon fill="white" stroke="#bfbfbf" points="273,-56.5 273,-75.5 326,-75.5 326,-56.5 273,-56.5"/>
<text text-anchor="middle" x="299.5" y="-63.5" font-family="Helvetica,sans-Serif" font-size="10.00">stdint.h</text>
</a>
</g>
</g>
<!-- Node3&#45;&gt;Node21 -->
<g id="edge34" class="edge">
<title>Node3&#45;&gt;Node21</title>
<path fill="none" stroke="midnightblue" d="M516.51,-224.31C479.41,-197.42 366.2,-115.35 319.73,-81.67"/>
<polygon fill="midnightblue" stroke="midnightblue" points="321.52,-78.64 311.37,-75.61 317.41,-84.31 321.52,-78.64"/>
</g>
<!-- Node26 -->
<g id="node26" class="node">
<title>Node26</title>
<g id="a_node26"><a xlink:title=" ">
<polygon fill="white" stroke="#bfbfbf" points="549,-168.5 549,-187.5 596,-187.5 596,-168.5 549,-168.5"/>
<text text-anchor="middle" x="572.5" y="-175.5" font-family="Helvetica,sans-Serif" font-size="10.00">cmath</text>
</a>
</g>
</g>
<!-- Node3&#45;&gt;Node26 -->
<g id="edge35" class="edge">
<title>Node3&#45;&gt;Node26</title>
<path fill="none" stroke="midnightblue" d="M535.77,-224.08C542.04,-216.38 551.29,-205.03 558.93,-195.65"/>
<polygon fill="midnightblue" stroke="midnightblue" points="561.77,-197.71 565.37,-187.75 556.34,-193.29 561.77,-197.71"/>
</g>
<!-- Node5 -->
<g id="node5" class="node">
<title>Node5</title>
<g id="a_node5"><a xlink:title=" ">
<polygon fill="white" stroke="#bfbfbf" points="125.5,-0.5 125.5,-19.5 183.5,-19.5 183.5,-0.5 125.5,-0.5"/>
<text text-anchor="middle" x="154.5" y="-7.5" font-family="Helvetica,sans-Serif" font-size="10.00">memory</text>
</a>
</g>
</g>
<!-- Node4&#45;&gt;Node5 -->
<g id="edge4" class="edge">
<title>Node4&#45;&gt;Node5</title>
<path fill="none" stroke="midnightblue" d="M155.33,-56.08C155.2,-49.01 155.02,-38.86 154.85,-29.99"/>
<polygon fill="midnightblue" stroke="midnightblue" points="158.35,-29.68 154.66,-19.75 151.35,-29.81 158.35,-29.68"/>
</g>
<!-- Node4&#45;&gt;Node6 -->
<g id="edge5" class="edge">
<title>Node4&#45;&gt;Node6</title>
<path fill="none" stroke="midnightblue" d="M135.38,-56.44C114.48,-47.56 81.57,-33.56 57.78,-23.45"/>
<polygon fill="midnightblue" stroke="midnightblue" points="59.1,-20.21 48.53,-19.52 56.36,-26.65 59.1,-20.21"/>
</g>
<!-- Node4&#45;&gt;Node7 -->
<g id="edge6" class="edge">
<title>Node4&#45;&gt;Node7</title>
<path fill="none" stroke="midnightblue" d="M145.22,-56.32C135.66,-48.26 121.22,-36.08 109.72,-26.37"/>
<polygon fill="midnightblue" stroke="midnightblue" points="111.87,-23.61 101.97,-19.83 107.36,-28.96 111.87,-23.61"/>
</g>
<!-- Node8 -->
<g id="node8" class="node">
<title>Node8</title>
<g id="a_node8"><a xlink:title=" ">
<polygon fill="white" stroke="#bfbfbf" points="524.5,-0.5 524.5,-19.5 568.5,-19.5 568.5,-0.5 524.5,-0.5"/>
<text text-anchor="middle" x="546.5" y="-7.5" font-family="Helvetica,sans-Serif" font-size="10.00">string</text>
</a>
</g>
</g>
<!-- Node4&#45;&gt;Node8 -->
<g id="edge7" class="edge">
<title>Node4&#45;&gt;Node8</title>
<path fill="none" stroke="midnightblue" d="M216.59,-56.56C300.62,-44.96 448.85,-24.49 514.11,-15.47"/>
<polygon fill="midnightblue" stroke="midnightblue" points="514.79,-18.91 524.22,-14.08 513.83,-11.98 514.79,-18.91"/>
</g>
<!-- Node9 -->
<g id="node9" class="node">
<title>Node9</title>
<g id="a_node9"><a xlink:title=" ">
<polygon fill="white" stroke="#bfbfbf" points="201.5,-0.5 201.5,-19.5 287.5,-19.5 287.5,-0.5 201.5,-0.5"/>
<text text-anchor="middle" x="244.5" y="-7.5" font-family="Helvetica,sans-Serif" font-size="10.00">unordered_set</text>
</a>
</g>
</g>
<!-- Node4&#45;&gt;Node9 -->
<g id="edge8" class="edge">
<title>Node4&#45;&gt;Node9</title>
<path fill="none" stroke="midnightblue" d="M169.8,-56.32C183.68,-47.9 204.99,-34.97 221.3,-25.07"/>
<polygon fill="midnightblue" stroke="midnightblue" points="223.5,-27.83 230.24,-19.65 219.87,-21.85 223.5,-27.83"/>
</g>
<!-- Node4&#45;&gt;Node10 -->
<g id="edge9" class="edge">
<title>Node4&#45;&gt;Node10</title>
<path fill="none" stroke="midnightblue" d="M183.07,-56.44C213.81,-46.9 263.52,-31.48 296.36,-21.29"/>
<polygon fill="midnightblue" stroke="midnightblue" points="297.45,-24.61 305.96,-18.3 295.38,-17.93 297.45,-24.61"/>
</g>
<!-- Node11&#45;&gt;Node8 -->
<g id="edge13" class="edge">
<title>Node11&#45;&gt;Node8</title>
<path fill="none" stroke="midnightblue" d="M733.32,-56.44C690.72,-46.08 619.57,-28.77 578.46,-18.77"/>
<polygon fill="midnightblue" stroke="midnightblue" points="579.24,-15.36 568.7,-16.4 577.58,-22.16 579.24,-15.36"/>
</g>
<!-- Node12 -->
<g id="node12" class="node">
<title>Node12</title>
<g id="a_node12"><a xlink:title=" ">
<polygon fill="white" stroke="#bfbfbf" points="700.5,-0.5 700.5,-19.5 756.5,-19.5 756.5,-0.5 700.5,-0.5"/>
<text text-anchor="middle" x="728.5" y="-7.5" font-family="Helvetica,sans-Serif" font-size="10.00">sstream</text>
</a>
</g>
</g>
<!-- Node11&#45;&gt;Node12 -->
<g id="edge11" class="edge">
<title>Node11&#45;&gt;Node12</title>
<path fill="none" stroke="midnightblue" d="M761.89,-56.08C756.24,-48.46 747.96,-37.26 741.05,-27.94"/>
<polygon fill="midnightblue" stroke="midnightblue" points="743.75,-25.7 734.98,-19.75 738.12,-29.87 743.75,-25.7"/>
</g>
<!-- Node13 -->
<g id="node13" class="node">
<title>Node13</title>
<g id="a_node13"><a xlink:title=" ">
<polygon fill="white" stroke="#bfbfbf" points="775,-0.5 775,-19.5 840,-19.5 840,-0.5 775,-0.5"/>
<text text-anchor="middle" x="807.5" y="-7.5" font-family="Helvetica,sans-Serif" font-size="10.00">stdexcept</text>
</a>
</g>
</g>
<!-- Node11&#45;&gt;Node13 -->
<g id="edge12" class="edge">
<title>Node11&#45;&gt;Node13</title>
<path fill="none" stroke="midnightblue" d="M774.94,-56.08C780.45,-48.46 788.53,-37.26 795.26,-27.94"/>
<polygon fill="midnightblue" stroke="midnightblue" points="798.16,-29.91 801.18,-19.75 792.49,-25.81 798.16,-29.91"/>
</g>
<!-- Node14&#45;&gt;Node10 -->
<g id="edge31" class="edge">
<title>Node14&#45;&gt;Node10</title>
<path fill="none" stroke="midnightblue" d="M736.93,-168.13C720.08,-141.42 670.06,-63.08 658.5,-56 609.43,-25.92 436.75,-15.39 363.14,-12.21"/>
<polygon fill="midnightblue" stroke="midnightblue" points="363.16,-8.71 353.03,-11.79 362.87,-15.7 363.16,-8.71"/>
</g>
<!-- Node14&#45;&gt;Node11 -->
<g id="edge15" class="edge">
<title>Node14&#45;&gt;Node11</title>
<path fill="none" stroke="midnightblue" d="M735.58,-168.42C726.31,-155.82 711.98,-131.68 720.5,-112 725.77,-99.84 736.12,-89.46 745.86,-81.74"/>
<polygon fill="midnightblue" stroke="midnightblue" points="748.14,-84.41 754.13,-75.67 744,-78.77 748.14,-84.41"/>
</g>
<!-- Node15 -->
<g id="node15" class="node">
<title>Node15</title>
<g id="a_node15"><a xlink:href="_optional_8hpp.html" target="_top" xlink:title=" ">
<polygon fill="white" stroke="black" points="729,-112.5 729,-131.5 808,-131.5 808,-112.5 729,-112.5"/>
<text text-anchor="middle" x="768.5" y="-119.5" font-family="Helvetica,sans-Serif" font-size="10.00">Optional.hpp</text>
</a>
</g>
</g>
<!-- Node14&#45;&gt;Node15 -->
<g id="edge16" class="edge">
<title>Node14&#45;&gt;Node15</title>
<path fill="none" stroke="midnightblue" d="M746.79,-168.08C750.35,-160.69 755.52,-149.95 759.92,-140.81"/>
<polygon fill="midnightblue" stroke="midnightblue" points="763.1,-142.28 764.29,-131.75 756.79,-139.24 763.1,-142.28"/>
</g>
<!-- Node14&#45;&gt;Node18 -->
<g id="edge20" class="edge">
<title>Node14&#45;&gt;Node18</title>
<path fill="none" stroke="midnightblue" d="M708.12,-168.44C670.22,-159.01 609.21,-143.83 568.26,-133.64"/>
<polygon fill="midnightblue" stroke="midnightblue" points="568.85,-130.18 558.3,-131.16 567.16,-136.97 568.85,-130.18"/>
</g>
<!-- Node19 -->
<g id="node19" class="node">
<title>Node19</title>
<g id="a_node19"><a xlink:title=" ">
<polygon fill="white" stroke="#bfbfbf" points="607.5,-56.5 607.5,-75.5 649.5,-75.5 649.5,-56.5 607.5,-56.5"/>
<text text-anchor="middle" x="628.5" y="-63.5" font-family="Helvetica,sans-Serif" font-size="10.00">array</text>
</a>
</g>
</g>
<!-- Node14&#45;&gt;Node19 -->
<g id="edge29" class="edge">
<title>Node14&#45;&gt;Node19</title>
<path fill="none" stroke="midnightblue" d="M690.69,-173.52C662.05,-168.63 628.68,-157.4 610.5,-132 600.42,-117.92 607.99,-98.42 616.19,-84.46"/>
<polygon fill="midnightblue" stroke="midnightblue" points="619.28,-86.11 621.75,-75.81 613.39,-82.33 619.28,-86.11"/>
</g>
<!-- Node14&#45;&gt;Node21 -->
<g id="edge28" class="edge">
<title>Node14&#45;&gt;Node21</title>
<path fill="none" stroke="midnightblue" d="M690.85,-170.62C638.18,-163.52 554.37,-150.53 483.5,-132 428.07,-117.5 365.59,-93.8 329.55,-79.37"/>
<polygon fill="midnightblue" stroke="midnightblue" points="330.7,-76.06 320.12,-75.57 328.08,-82.55 330.7,-76.06"/>
</g>
<!-- Node24 -->
<g id="node24" class="node">
<title>Node24</title>
<g id="a_node24"><a xlink:title=" ">
<polygon fill="white" stroke="#bfbfbf" points="826,-112.5 826,-131.5 909,-131.5 909,-112.5 826,-112.5"/>
<text text-anchor="middle" x="867.5" y="-119.5" font-family="Helvetica,sans-Serif" font-size="10.00">initializer_list</text>
</a>
</g>
</g>
<!-- Node14&#45;&gt;Node24 -->
<g id="edge30" class="edge">
<title>Node14&#45;&gt;Node24</title>
<path fill="none" stroke="midnightblue" d="M762.31,-168.44C782.79,-159.6 814.98,-145.69 838.36,-135.59"/>
<polygon fill="midnightblue" stroke="midnightblue" points="839.99,-138.7 847.79,-131.52 837.22,-132.27 839.99,-138.7"/>
</g>
<!-- Node14&#45;&gt;Node25 -->
<g id="edge32" class="edge">
<title>Node14&#45;&gt;Node25</title>
<path fill="none" stroke="midnightblue" d="M781.48,-168.44C829.74,-157.85 911.07,-140 956.08,-130.12"/>
<polygon fill="midnightblue" stroke="midnightblue" points="956.89,-133.52 965.91,-127.96 955.39,-126.68 956.89,-133.52"/>
</g>
<!-- Node15&#45;&gt;Node11 -->
<g id="edge17" class="edge">
<title>Node15&#45;&gt;Node11</title>
<path fill="none" stroke="midnightblue" d="M768.5,-112.08C768.5,-105.01 768.5,-94.86 768.5,-85.99"/>
<polygon fill="midnightblue" stroke="midnightblue" points="772,-85.75 768.5,-75.75 765,-85.75 772,-85.75"/>
</g>
<!-- Node16 -->
<g id="node16" class="node">
<title>Node16</title>
<g id="a_node16"><a xlink:title=" ">
<polygon fill="white" stroke="#bfbfbf" points="849.5,-56.5 849.5,-75.5 899.5,-75.5 899.5,-56.5 849.5,-56.5"/>
<text text-anchor="middle" x="874.5" y="-63.5" font-family="Helvetica,sans-Serif" font-size="10.00">cstring</text>
</a>
</g>
</g>
<!-- Node15&#45;&gt;Node16 -->
<g id="edge18" class="edge">
<title>Node15&#45;&gt;Node16</title>
<path fill="none" stroke="midnightblue" d="M785.53,-112.32C802.53,-103.66 828.88,-90.24 848.49,-80.25"/>
<polygon fill="midnightblue" stroke="midnightblue" points="850.19,-83.31 857.51,-75.65 847.01,-77.08 850.19,-83.31"/>
</g>
<!-- Node15&#45;&gt;Node17 -->
<g id="edge19" class="edge">
<title>Node15&#45;&gt;Node17</title>
<path fill="none" stroke="midnightblue" d="M807.64,-112.44C852.12,-102.72 924.57,-86.88 971.12,-76.7"/>
<polygon fill="midnightblue" stroke="midnightblue" points="971.91,-80.11 980.93,-74.56 970.41,-73.27 971.91,-80.11"/>
</g>
<!-- Node18&#45;&gt;Node4 -->
<g id="edge25" class="edge">
<title>Node18&#45;&gt;Node4</title>
<path fill="none" stroke="midnightblue" d="M492.99,-116.26C433.04,-107.51 303.91,-88.66 223.9,-76.98"/>
<polygon fill="midnightblue" stroke="midnightblue" points="224.31,-73.51 213.91,-75.53 223.3,-80.43 224.31,-73.51"/>
</g>
<!-- Node18&#45;&gt;Node11 -->
<g id="edge26" class="edge">
<title>Node18&#45;&gt;Node11</title>
<path fill="none" stroke="midnightblue" d="M558.02,-113.77C599.67,-104.52 672.22,-88.4 720.3,-77.71"/>
<polygon fill="midnightblue" stroke="midnightblue" points="721.17,-81.1 730.17,-75.52 719.65,-74.27 721.17,-81.1"/>
</g>
<!-- Node18&#45;&gt;Node19 -->
<g id="edge21" class="edge">
<title>Node18&#45;&gt;Node19</title>
<path fill="none" stroke="midnightblue" d="M542.05,-112.32C558.49,-103.7 583.93,-90.36 602.97,-80.39"/>
<polygon fill="midnightblue" stroke="midnightblue" points="604.76,-83.4 611.99,-75.65 601.51,-77.2 604.76,-83.4"/>
</g>
<!-- Node20 -->
<g id="node20" class="node">
<title>Node20</title>
<g id="a_node20"><a xlink:title=" ">
<polygon fill="white" stroke="#bfbfbf" points="344,-56.5 344,-75.5 409,-75.5 409,-56.5 344,-56.5"/>
<text text-anchor="middle" x="376.5" y="-63.5" font-family="Helvetica,sans-Serif" font-size="10.00">functional</text>
</a>
</g>
</g>
<!-- Node18&#45;&gt;Node20 -->
<g id="edge22" class="edge">
<title>Node18&#45;&gt;Node20</title>
<path fill="none" stroke="midnightblue" d="M501.89,-112.44C477.04,-103.44 437.73,-89.19 409.75,-79.05"/>
<polygon fill="midnightblue" stroke="midnightblue" points="410.59,-75.63 400,-75.52 408.21,-82.21 410.59,-75.63"/>
</g>
<!-- Node18&#45;&gt;Node21 -->
<g id="edge23" class="edge">
<title>Node18&#45;&gt;Node21</title>
<path fill="none" stroke="midnightblue" d="M492.67,-113.48C456.59,-105.16 396.65,-91.22 336.32,-76.41"/>
<polygon fill="midnightblue" stroke="midnightblue" points="336.79,-72.93 326.24,-73.94 335.11,-79.72 336.79,-72.93"/>
</g>
<!-- Node22 -->
<g id="node22" class="node">
<title>Node22</title>
<g id="a_node22"><a xlink:title=" ">
<polygon fill="white" stroke="#bfbfbf" points="427.5,-56.5 427.5,-75.5 477.5,-75.5 477.5,-56.5 427.5,-56.5"/>
<text text-anchor="middle" x="452.5" y="-63.5" font-family="Helvetica,sans-Serif" font-size="10.00">chrono</text>
</a>
</g>
</g>
<!-- Node18&#45;&gt;Node22 -->
<g id="edge24" class="edge">
<title>Node18&#45;&gt;Node22</title>
<path fill="none" stroke="midnightblue" d="M513.77,-112.32C502.66,-104.11 485.76,-91.6 472.52,-81.81"/>
<polygon fill="midnightblue" stroke="midnightblue" points="474.56,-78.97 464.44,-75.83 470.4,-84.59 474.56,-78.97"/>
</g>
<!-- Node23 -->
<g id="node23" class="node">
<title>Node23</title>
<g id="a_node23"><a xlink:href="_deprecated_8hpp.html" target="_top" xlink:title=" ">
<polygon fill="white" stroke="black" points="495.5,-56.5 495.5,-75.5 589.5,-75.5 589.5,-56.5 495.5,-56.5"/>
<text text-anchor="middle" x="542.5" y="-63.5" font-family="Helvetica,sans-Serif" font-size="10.00">Deprecated.hpp</text>
</a>
</g>
</g>
<!-- Node18&#45;&gt;Node23 -->
<g id="edge27" class="edge">
<title>Node18&#45;&gt;Node23</title>
<path fill="none" stroke="midnightblue" d="M528.31,-112.08C530.58,-104.85 533.87,-94.41 536.71,-85.4"/>
<polygon fill="midnightblue" stroke="midnightblue" points="540.08,-86.34 539.75,-75.75 533.4,-84.24 540.08,-86.34"/>
</g>
<!-- Node27&#45;&gt;Node14 -->
<g id="edge50" class="edge">
<title>Node27&#45;&gt;Node14</title>
<path fill="none" stroke="midnightblue" d="M1089.22,-224.44C1010.93,-214.18 880.72,-197.12 804.11,-187.07"/>
<polygon fill="midnightblue" stroke="midnightblue" points="804.49,-183.6 794.12,-185.77 803.58,-190.54 804.49,-183.6"/>
</g>
<!-- Node28 -->
<g id="node28" class="node">
<title>Node28</title>
<g id="a_node28"><a xlink:href="_memory_sources_8hpp.html" target="_top" xlink:title=" ">
<polygon fill="white" stroke="black" points="1042,-168.5 1042,-187.5 1193,-187.5 1193,-168.5 1042,-168.5"/>
<text text-anchor="middle" x="1117.5" y="-175.5" font-family="Helvetica,sans-Serif" font-size="10.00">armnn/MemorySources.hpp</text>
</a>
</g>
</g>
<!-- Node27&#45;&gt;Node28 -->
<g id="edge46" class="edge">
<title>Node27&#45;&gt;Node28</title>
<path fill="none" stroke="midnightblue" d="M1148.39,-224.08C1143.22,-216.53 1135.65,-205.49 1129.31,-196.23"/>
<polygon fill="midnightblue" stroke="midnightblue" points="1132.04,-194.02 1123.5,-187.75 1126.26,-197.98 1132.04,-194.02"/>
</g>
<!-- Node29 -->
<g id="node29" class="node">
<title>Node29</title>
<g id="a_node29"><a xlink:href="_ignore_unused_8hpp.html" target="_top" xlink:title=" ">
<polygon fill="white" stroke="black" points="1211,-168.5 1211,-187.5 1382,-187.5 1382,-168.5 1211,-168.5"/>
<text text-anchor="middle" x="1296.5" y="-175.5" font-family="Helvetica,sans-Serif" font-size="10.00">armnn/utility/IgnoreUnused.hpp</text>
</a>
</g>
</g>
<!-- Node27&#45;&gt;Node29 -->
<g id="edge49" class="edge">
<title>Node27&#45;&gt;Node29</title>
<path fill="none" stroke="midnightblue" d="M1177,-224.44C1200.58,-215.48 1237.82,-201.31 1264.46,-191.18"/>
<polygon fill="midnightblue" stroke="midnightblue" points="1266,-194.34 1274.1,-187.52 1263.51,-187.8 1266,-194.34"/>
</g>
<!-- Node28&#45;&gt;Node17 -->
<g id="edge48" class="edge">
<title>Node28&#45;&gt;Node17</title>
<path fill="none" stroke="midnightblue" d="M1109.5,-168.37C1092.44,-149.97 1052.29,-106.67 1030.38,-83.05"/>
<polygon fill="midnightblue" stroke="midnightblue" points="1032.83,-80.54 1023.47,-75.59 1027.7,-85.3 1032.83,-80.54"/>
</g>
<!-- Node28&#45;&gt;Node18 -->
<g id="edge47" class="edge">
<title>Node28&#45;&gt;Node18</title>
<path fill="none" stroke="midnightblue" d="M1041.92,-170.11C916.08,-158.63 667.61,-135.96 568.14,-126.89"/>
<polygon fill="midnightblue" stroke="midnightblue" points="568.43,-123.4 558.15,-125.98 567.79,-130.37 568.43,-123.4"/>
</g>
<!-- Node31 -->
<g id="node31" class="node">
<title>Node31</title>
<g id="a_node31"><a xlink:title=" ">
<polygon fill="white" stroke="#bfbfbf" points="1400.5,-168.5 1400.5,-187.5 1452.5,-187.5 1452.5,-168.5 1400.5,-168.5"/>
<text text-anchor="middle" x="1426.5" y="-175.5" font-family="Helvetica,sans-Serif" font-size="10.00">cassert</text>
</a>
</g>
</g>
<!-- Node30&#45;&gt;Node31 -->
<g id="edge52" class="edge">
<title>Node30&#45;&gt;Node31</title>
<path fill="none" stroke="midnightblue" d="M1377.82,-224.32C1386.39,-216.34 1399.31,-204.31 1409.69,-194.65"/>
<polygon fill="midnightblue" stroke="midnightblue" points="1412.08,-197.21 1417.01,-187.83 1407.31,-192.09 1412.08,-197.21"/>
</g>
<!-- Node32&#45;&gt;Node17 -->
<g id="edge55" class="edge">
<title>Node32&#45;&gt;Node17</title>
<path fill="none" stroke="midnightblue" d="M1392.29,-280.37C1409.14,-273.1 1431.06,-261.13 1444.5,-244 1465.87,-216.77 1483.1,-195.04 1461.5,-168 1411.5,-105.41 1163.14,-78.73 1060.26,-70.25"/>
<polygon fill="midnightblue" stroke="midnightblue" points="1060.43,-66.75 1050.19,-69.44 1059.87,-73.73 1060.43,-66.75"/>
</g>
<!-- Node32&#45;&gt;Node30 -->
<g id="edge54" class="edge">
<title>Node32&#45;&gt;Node30</title>
<path fill="none" stroke="midnightblue" d="M1368.5,-280.08C1368.5,-273.01 1368.5,-262.86 1368.5,-253.99"/>
<polygon fill="midnightblue" stroke="midnightblue" points="1372,-253.75 1368.5,-243.75 1365,-253.75 1372,-253.75"/>
</g>
<!-- Node33 -->
<g id="node33" class="node">
<title>Node33</title>
<g id="a_node33"><a xlink:title=" ">
<polygon fill="white" stroke="#bfbfbf" points="1508.5,-224.5 1508.5,-243.5 1552.5,-243.5 1552.5,-224.5 1508.5,-224.5"/>
<text text-anchor="middle" x="1530.5" y="-231.5" font-family="Helvetica,sans-Serif" font-size="10.00">limits</text>
</a>
</g>
</g>
<!-- Node32&#45;&gt;Node33 -->
<g id="edge56" class="edge">
<title>Node32&#45;&gt;Node33</title>
<path fill="none" stroke="midnightblue" d="M1394.17,-280.44C1422.46,-271.01 1468.02,-255.83 1498.59,-245.64"/>
<polygon fill="midnightblue" stroke="midnightblue" points="1499.95,-248.87 1508.33,-242.39 1497.74,-242.23 1499.95,-248.87"/>
</g>
</g>
</svg>
