<?xml version="1.0" encoding="UTF-8" standalone="no"?>
<!DOCTYPE svg PUBLIC "-//W3C//DTD SVG 1.1//EN"
 "http://www.w3.org/Graphics/SVG/1.1/DTD/svg11.dtd">
<!-- Generated by graphviz version 2.43.0 (0)
 -->
<!-- Title: src/armnn/Tensor.cpp Pages: 1 -->
<svg width="1107pt" height="308pt"
 viewBox="0.00 0.00 1107.00 308.00" xmlns="http://www.w3.org/2000/svg" xmlns:xlink="http://www.w3.org/1999/xlink">
<g id="graph0" class="graph" transform="scale(1 1) rotate(0) translate(4 304)">
<title>src/armnn/Tensor.cpp</title>
<polygon fill="white" stroke="transparent" points="-4,4 -4,-304 1103,-304 1103,4 -4,4"/>
<!-- Node1 -->
<g id="node1" class="node">
<title>Node1</title>
<g id="a_node1"><a xlink:title=" ">
<polygon fill="#bfbfbf" stroke="black" points="549.5,-280.5 549.5,-299.5 668.5,-299.5 668.5,-280.5 549.5,-280.5"/>
<text text-anchor="middle" x="609" y="-287.5" font-family="Helvetica,sans-Serif" font-size="10.00">src/armnn/Tensor.cpp</text>
</a>
</g>
</g>
<!-- Node2 -->
<g id="node2" class="node">
<title>Node2</title>
<g id="a_node2"><a xlink:href="_tensor_8hpp.html" target="_top" xlink:title=" ">
<polygon fill="white" stroke="black" points="442.5,-168.5 442.5,-187.5 545.5,-187.5 545.5,-168.5 442.5,-168.5"/>
<text text-anchor="middle" x="494" y="-175.5" font-family="Helvetica,sans-Serif" font-size="10.00">armnn/Tensor.hpp</text>
</a>
</g>
</g>
<!-- Node1&#45;&gt;Node2 -->
<g id="edge1" class="edge">
<title>Node1&#45;&gt;Node2</title>
<path fill="none" stroke="midnightblue" d="M599.98,-280.37C580.66,-261.89 535.08,-218.29 510.46,-194.74"/>
<polygon fill="midnightblue" stroke="midnightblue" points="512.63,-191.97 502.98,-187.59 507.79,-197.03 512.63,-191.97"/>
</g>
<!-- Node3 -->
<g id="node3" class="node">
<title>Node3</title>
<g id="a_node3"><a xlink:href="_exceptions_8hpp.html" target="_top" xlink:title=" ">
<polygon fill="white" stroke="black" points="59.5,-56.5 59.5,-75.5 150.5,-75.5 150.5,-56.5 59.5,-56.5"/>
<text text-anchor="middle" x="105" y="-63.5" font-family="Helvetica,sans-Serif" font-size="10.00">Exceptions.hpp</text>
</a>
</g>
</g>
<!-- Node1&#45;&gt;Node3 -->
<g id="edge31" class="edge">
<title>Node1&#45;&gt;Node3</title>
<path fill="none" stroke="midnightblue" d="M549.24,-286.52C459.81,-281.99 296.07,-270.31 244,-244 175.14,-209.21 129.82,-122.8 112.68,-85.09"/>
<polygon fill="midnightblue" stroke="midnightblue" points="115.84,-83.57 108.6,-75.83 109.43,-86.39 115.84,-83.57"/>
</g>
<!-- Node4 -->
<g id="node4" class="node">
<title>Node4</title>
<g id="a_node4"><a xlink:title=" ">
<polygon fill="white" stroke="#bfbfbf" points="0,-0.5 0,-19.5 56,-19.5 56,-0.5 0,-0.5"/>
<text text-anchor="middle" x="28" y="-7.5" font-family="Helvetica,sans-Serif" font-size="10.00">sstream</text>
</a>
</g>
</g>
<!-- Node1&#45;&gt;Node4 -->
<g id="edge49" class="edge">
<title>Node1&#45;&gt;Node4</title>
<path fill="none" stroke="midnightblue" d="M549.27,-286.57C470.77,-282.39 329.01,-271.47 211,-244 127.75,-224.62 30,-264.47 30,-179 30,-179 30,-179 30,-121 30,-88.94 29.14,-51.64 28.55,-29.75"/>
<polygon fill="midnightblue" stroke="midnightblue" points="32.04,-29.45 28.26,-19.56 25.04,-29.65 32.04,-29.45"/>
</g>
<!-- Node24 -->
<g id="node24" class="node">
<title>Node24</title>
<g id="a_node24"><a xlink:href="_utils_8hpp.html" target="_top" xlink:title=" ">
<polygon fill="white" stroke="black" points="252.5,-224.5 252.5,-243.5 347.5,-243.5 347.5,-224.5 252.5,-224.5"/>
<text text-anchor="middle" x="300" y="-231.5" font-family="Helvetica,sans-Serif" font-size="10.00">armnn/Utils.hpp</text>
</a>
</g>
</g>
<!-- Node1&#45;&gt;Node24 -->
<g id="edge29" class="edge">
<title>Node1&#45;&gt;Node24</title>
<path fill="none" stroke="midnightblue" d="M560.04,-280.44C505.13,-270.85 416.17,-255.3 357.87,-245.11"/>
<polygon fill="midnightblue" stroke="midnightblue" points="358.17,-241.61 347.72,-243.34 356.97,-248.51 358.17,-241.61"/>
</g>
<!-- Node25 -->
<g id="node25" class="node">
<title>Node25</title>
<g id="a_node25"><a xlink:href="_types_utils_8hpp.html" target="_top" xlink:title=" ">
<polygon fill="white" stroke="black" points="605,-224.5 605,-243.5 727,-243.5 727,-224.5 605,-224.5"/>
<text text-anchor="middle" x="666" y="-231.5" font-family="Helvetica,sans-Serif" font-size="10.00">armnn/TypesUtils.hpp</text>
</a>
</g>
</g>
<!-- Node1&#45;&gt;Node25 -->
<g id="edge32" class="edge">
<title>Node1&#45;&gt;Node25</title>
<path fill="none" stroke="midnightblue" d="M618.16,-280.32C626.5,-272.42 639.03,-260.55 649.18,-250.94"/>
<polygon fill="midnightblue" stroke="midnightblue" points="651.82,-253.25 656.68,-243.83 647.01,-248.17 651.82,-253.25"/>
</g>
<!-- Node27 -->
<g id="node27" class="node">
<title>Node27</title>
<g id="a_node27"><a xlink:href="_assert_8hpp.html" target="_top" xlink:title=" ">
<polygon fill="white" stroke="black" points="965,-168.5 965,-187.5 1099,-187.5 1099,-168.5 965,-168.5"/>
<text text-anchor="middle" x="1032" y="-175.5" font-family="Helvetica,sans-Serif" font-size="10.00">armnn/utility/Assert.hpp</text>
</a>
</g>
</g>
<!-- Node1&#45;&gt;Node27 -->
<g id="edge42" class="edge">
<title>Node1&#45;&gt;Node27</title>
<path fill="none" stroke="midnightblue" d="M668.8,-286.24C756.92,-281.38 916.75,-269.32 968,-244 990.1,-233.08 1008.99,-211.4 1020.4,-196.09"/>
<polygon fill="midnightblue" stroke="midnightblue" points="1023.55,-197.71 1026.5,-187.53 1017.85,-193.64 1023.55,-197.71"/>
</g>
<!-- Node29 -->
<g id="node29" class="node">
<title>Node29</title>
<g id="a_node29"><a xlink:href="_numeric_cast_8hpp.html" target="_top" xlink:title=" ">
<polygon fill="white" stroke="black" points="791.5,-224.5 791.5,-243.5 958.5,-243.5 958.5,-224.5 791.5,-224.5"/>
<text text-anchor="middle" x="875" y="-231.5" font-family="Helvetica,sans-Serif" font-size="10.00">armnn/utility/NumericCast.hpp</text>
</a>
</g>
</g>
<!-- Node1&#45;&gt;Node29 -->
<g id="edge44" class="edge">
<title>Node1&#45;&gt;Node29</title>
<path fill="none" stroke="midnightblue" d="M651.15,-280.44C697.75,-270.98 772.84,-255.74 823.05,-245.55"/>
<polygon fill="midnightblue" stroke="midnightblue" points="823.94,-248.94 833.05,-243.52 822.55,-242.08 823.94,-248.94"/>
</g>
<!-- Node31 -->
<g id="node31" class="node">
<title>Node31</title>
<g id="a_node31"><a xlink:title=" ">
<polygon fill="white" stroke="#bfbfbf" points="1014,-224.5 1014,-243.5 1074,-243.5 1074,-224.5 1014,-224.5"/>
<text text-anchor="middle" x="1044" y="-231.5" font-family="Helvetica,sans-Serif" font-size="10.00">iostream</text>
</a>
</g>
</g>
<!-- Node1&#45;&gt;Node31 -->
<g id="edge48" class="edge">
<title>Node1&#45;&gt;Node31</title>
<path fill="none" stroke="midnightblue" d="M668.51,-283.78C745.34,-276.66 883.1,-262.65 1000,-244 1001.26,-243.8 1002.53,-243.59 1003.82,-243.37"/>
<polygon fill="midnightblue" stroke="midnightblue" points="1004.56,-246.79 1013.77,-241.55 1003.3,-239.9 1004.56,-246.79"/>
</g>
<!-- Node2&#45;&gt;Node3 -->
<g id="edge2" class="edge">
<title>Node2&#45;&gt;Node3</title>
<path fill="none" stroke="midnightblue" d="M467.72,-168.43C442.56,-159.99 403.71,-146.31 371,-132 353.15,-124.19 350.4,-118.4 332,-112 275.26,-92.26 207.36,-80.23 160.69,-73.63"/>
<polygon fill="midnightblue" stroke="midnightblue" points="161.16,-70.17 150.77,-72.27 160.2,-77.1 161.16,-70.17"/>
</g>
<!-- Node7 -->
<g id="node7" class="node">
<title>Node7</title>
<g id="a_node7"><a xlink:href="_optional_8hpp.html" target="_top" xlink:title=" ">
<polygon fill="white" stroke="black" points="379.5,-112.5 379.5,-131.5 458.5,-131.5 458.5,-112.5 379.5,-112.5"/>
<text text-anchor="middle" x="419" y="-119.5" font-family="Helvetica,sans-Serif" font-size="10.00">Optional.hpp</text>
</a>
</g>
</g>
<!-- Node2&#45;&gt;Node7 -->
<g id="edge6" class="edge">
<title>Node2&#45;&gt;Node7</title>
<path fill="none" stroke="midnightblue" d="M481.95,-168.32C470.54,-160.11 453.17,-147.6 439.57,-137.81"/>
<polygon fill="midnightblue" stroke="midnightblue" points="441.43,-134.84 431.27,-131.83 437.34,-140.52 441.43,-134.84"/>
</g>
<!-- Node10 -->
<g id="node10" class="node">
<title>Node10</title>
<g id="a_node10"><a xlink:href="_types_8hpp.html" target="_top" xlink:title=" ">
<polygon fill="white" stroke="black" points="553.5,-112.5 553.5,-131.5 618.5,-131.5 618.5,-112.5 553.5,-112.5"/>
<text text-anchor="middle" x="586" y="-119.5" font-family="Helvetica,sans-Serif" font-size="10.00">Types.hpp</text>
</a>
</g>
</g>
<!-- Node2&#45;&gt;Node10 -->
<g id="edge10" class="edge">
<title>Node2&#45;&gt;Node10</title>
<path fill="none" stroke="midnightblue" d="M508.78,-168.32C523.27,-159.82 545.57,-146.73 562.49,-136.8"/>
<polygon fill="midnightblue" stroke="midnightblue" points="564.4,-139.74 571.26,-131.65 560.86,-133.7 564.4,-139.74"/>
</g>
<!-- Node11 -->
<g id="node11" class="node">
<title>Node11</title>
<g id="a_node11"><a xlink:title=" ">
<polygon fill="white" stroke="#bfbfbf" points="313,-56.5 313,-75.5 355,-75.5 355,-56.5 313,-56.5"/>
<text text-anchor="middle" x="334" y="-63.5" font-family="Helvetica,sans-Serif" font-size="10.00">array</text>
</a>
</g>
</g>
<!-- Node2&#45;&gt;Node11 -->
<g id="edge25" class="edge">
<title>Node2&#45;&gt;Node11</title>
<path fill="none" stroke="midnightblue" d="M498.38,-168.39C504.56,-154.88 513.75,-128.54 501,-112 464.43,-64.58 428.31,-90.22 365.21,-76"/>
<polygon fill="midnightblue" stroke="midnightblue" points="365.83,-72.55 355.28,-73.48 364.11,-79.33 365.83,-72.55"/>
</g>
<!-- Node13 -->
<g id="node13" class="node">
<title>Node13</title>
<g id="a_node13"><a xlink:title=" ">
<polygon fill="white" stroke="#bfbfbf" points="636.5,-56.5 636.5,-75.5 689.5,-75.5 689.5,-56.5 636.5,-56.5"/>
<text text-anchor="middle" x="663" y="-63.5" font-family="Helvetica,sans-Serif" font-size="10.00">stdint.h</text>
</a>
</g>
</g>
<!-- Node2&#45;&gt;Node13 -->
<g id="edge24" class="edge">
<title>Node2&#45;&gt;Node13</title>
<path fill="none" stroke="midnightblue" d="M545.58,-169.09C572.57,-162.78 604.73,-151.61 628,-132 642.51,-119.77 651.94,-99.94 657.32,-85.4"/>
<polygon fill="midnightblue" stroke="midnightblue" points="660.63,-86.52 660.53,-75.93 654,-84.27 660.63,-86.52"/>
</g>
<!-- Node20 -->
<g id="node20" class="node">
<title>Node20</title>
<g id="a_node20"><a xlink:title=" ">
<polygon fill="white" stroke="#bfbfbf" points="417.5,-0.5 417.5,-19.5 464.5,-19.5 464.5,-0.5 417.5,-0.5"/>
<text text-anchor="middle" x="441" y="-7.5" font-family="Helvetica,sans-Serif" font-size="10.00">vector</text>
</a>
</g>
</g>
<!-- Node2&#45;&gt;Node20 -->
<g id="edge27" class="edge">
<title>Node2&#45;&gt;Node20</title>
<path fill="none" stroke="midnightblue" d="M493.1,-168.36C491.16,-154.31 485.24,-126.62 468,-112 411.08,-63.74 350.77,-134.15 304,-76 273.65,-38.27 357.62,-21.2 407.31,-14.58"/>
<polygon fill="midnightblue" stroke="midnightblue" points="407.86,-18.04 417.34,-13.33 406.99,-11.1 407.86,-18.04"/>
</g>
<!-- Node22 -->
<g id="node22" class="node">
<title>Node22</title>
<g id="a_node22"><a xlink:title=" ">
<polygon fill="white" stroke="#bfbfbf" points="176.5,-112.5 176.5,-131.5 259.5,-131.5 259.5,-112.5 176.5,-112.5"/>
<text text-anchor="middle" x="218" y="-119.5" font-family="Helvetica,sans-Serif" font-size="10.00">initializer_list</text>
</a>
</g>
</g>
<!-- Node2&#45;&gt;Node22 -->
<g id="edge26" class="edge">
<title>Node2&#45;&gt;Node22</title>
<path fill="none" stroke="midnightblue" d="M450.27,-168.44C401.25,-158.85 321.83,-143.31 269.75,-133.13"/>
<polygon fill="midnightblue" stroke="midnightblue" points="270.21,-129.65 259.72,-131.16 268.86,-136.52 270.21,-129.65"/>
</g>
<!-- Node23 -->
<g id="node23" class="node">
<title>Node23</title>
<g id="a_node23"><a xlink:title=" ">
<polygon fill="white" stroke="#bfbfbf" points="277.5,-112.5 277.5,-131.5 322.5,-131.5 322.5,-112.5 277.5,-112.5"/>
<text text-anchor="middle" x="300" y="-119.5" font-family="Helvetica,sans-Serif" font-size="10.00">utility</text>
</a>
</g>
</g>
<!-- Node2&#45;&gt;Node23 -->
<g id="edge28" class="edge">
<title>Node2&#45;&gt;Node23</title>
<path fill="none" stroke="midnightblue" d="M463.26,-168.44C427.52,-158.49 368.78,-142.15 332.36,-132.01"/>
<polygon fill="midnightblue" stroke="midnightblue" points="333.29,-128.63 322.72,-129.32 331.41,-135.38 333.29,-128.63"/>
</g>
<!-- Node3&#45;&gt;Node4 -->
<g id="edge3" class="edge">
<title>Node3&#45;&gt;Node4</title>
<path fill="none" stroke="midnightblue" d="M92.63,-56.32C80.84,-48.06 62.87,-35.45 48.86,-25.63"/>
<polygon fill="midnightblue" stroke="midnightblue" points="50.54,-22.53 40.34,-19.65 46.52,-28.26 50.54,-22.53"/>
</g>
<!-- Node5 -->
<g id="node5" class="node">
<title>Node5</title>
<g id="a_node5"><a xlink:title=" ">
<polygon fill="white" stroke="#bfbfbf" points="74.5,-0.5 74.5,-19.5 139.5,-19.5 139.5,-0.5 74.5,-0.5"/>
<text text-anchor="middle" x="107" y="-7.5" font-family="Helvetica,sans-Serif" font-size="10.00">stdexcept</text>
</a>
</g>
</g>
<!-- Node3&#45;&gt;Node5 -->
<g id="edge4" class="edge">
<title>Node3&#45;&gt;Node5</title>
<path fill="none" stroke="midnightblue" d="M105.33,-56.08C105.59,-49.01 105.97,-38.86 106.3,-29.99"/>
<polygon fill="midnightblue" stroke="midnightblue" points="109.8,-29.87 106.68,-19.75 102.81,-29.61 109.8,-29.87"/>
</g>
<!-- Node6 -->
<g id="node6" class="node">
<title>Node6</title>
<g id="a_node6"><a xlink:title=" ">
<polygon fill="white" stroke="#bfbfbf" points="158,-0.5 158,-19.5 202,-19.5 202,-0.5 158,-0.5"/>
<text text-anchor="middle" x="180" y="-7.5" font-family="Helvetica,sans-Serif" font-size="10.00">string</text>
</a>
</g>
</g>
<!-- Node3&#45;&gt;Node6 -->
<g id="edge5" class="edge">
<title>Node3&#45;&gt;Node6</title>
<path fill="none" stroke="midnightblue" d="M117.05,-56.32C128.46,-48.11 145.83,-35.6 159.43,-25.81"/>
<polygon fill="midnightblue" stroke="midnightblue" points="161.66,-28.52 167.73,-19.83 157.57,-22.84 161.66,-28.52"/>
</g>
<!-- Node7&#45;&gt;Node3 -->
<g id="edge7" class="edge">
<title>Node7&#45;&gt;Node3</title>
<path fill="none" stroke="midnightblue" d="M379.23,-114.16C323.89,-104.64 223.41,-87.36 160.65,-76.57"/>
<polygon fill="midnightblue" stroke="midnightblue" points="160.99,-73.08 150.54,-74.83 159.8,-79.98 160.99,-73.08"/>
</g>
<!-- Node8 -->
<g id="node8" class="node">
<title>Node8</title>
<g id="a_node8"><a xlink:title=" ">
<polygon fill="white" stroke="#bfbfbf" points="207,-56.5 207,-75.5 257,-75.5 257,-56.5 207,-56.5"/>
<text text-anchor="middle" x="232" y="-63.5" font-family="Helvetica,sans-Serif" font-size="10.00">cstring</text>
</a>
</g>
</g>
<!-- Node7&#45;&gt;Node8 -->
<g id="edge8" class="edge">
<title>Node7&#45;&gt;Node8</title>
<path fill="none" stroke="midnightblue" d="M389.37,-112.44C356.09,-102.83 302.15,-87.26 266.87,-77.07"/>
<polygon fill="midnightblue" stroke="midnightblue" points="267.58,-73.63 257,-74.22 265.64,-80.36 267.58,-73.63"/>
</g>
<!-- Node9 -->
<g id="node9" class="node">
<title>Node9</title>
<g id="a_node9"><a xlink:title=" ">
<polygon fill="white" stroke="#bfbfbf" points="814.5,-56.5 814.5,-75.5 883.5,-75.5 883.5,-56.5 814.5,-56.5"/>
<text text-anchor="middle" x="849" y="-63.5" font-family="Helvetica,sans-Serif" font-size="10.00">type_traits</text>
</a>
</g>
</g>
<!-- Node7&#45;&gt;Node9 -->
<g id="edge9" class="edge">
<title>Node7&#45;&gt;Node9</title>
<path fill="none" stroke="midnightblue" d="M458.61,-117.51C526.99,-111.25 671.8,-96.9 804.52,-75.94"/>
<polygon fill="midnightblue" stroke="midnightblue" points="805.14,-79.39 814.46,-74.36 804.04,-72.47 805.14,-79.39"/>
</g>
<!-- Node10&#45;&gt;Node3 -->
<g id="edge22" class="edge">
<title>Node10&#45;&gt;Node3</title>
<path fill="none" stroke="midnightblue" d="M553.32,-117.33C472.36,-108.24 261.81,-84.6 160.73,-73.26"/>
<polygon fill="midnightblue" stroke="midnightblue" points="161.04,-69.77 150.72,-72.13 160.26,-76.73 161.04,-69.77"/>
</g>
<!-- Node10&#45;&gt;Node11 -->
<g id="edge11" class="edge">
<title>Node10&#45;&gt;Node11</title>
<path fill="none" stroke="midnightblue" d="M553.24,-114.74C504.19,-105.31 413.07,-87.55 365.07,-76.06"/>
<polygon fill="midnightblue" stroke="midnightblue" points="365.79,-72.63 355.24,-73.63 364.11,-79.42 365.79,-72.63"/>
</g>
<!-- Node12 -->
<g id="node12" class="node">
<title>Node12</title>
<g id="a_node12"><a xlink:title=" ">
<polygon fill="white" stroke="#bfbfbf" points="553.5,-56.5 553.5,-75.5 618.5,-75.5 618.5,-56.5 553.5,-56.5"/>
<text text-anchor="middle" x="586" y="-63.5" font-family="Helvetica,sans-Serif" font-size="10.00">functional</text>
</a>
</g>
</g>
<!-- Node10&#45;&gt;Node12 -->
<g id="edge12" class="edge">
<title>Node10&#45;&gt;Node12</title>
<path fill="none" stroke="midnightblue" d="M586,-112.08C586,-105.01 586,-94.86 586,-85.99"/>
<polygon fill="midnightblue" stroke="midnightblue" points="589.5,-85.75 586,-75.75 582.5,-85.75 589.5,-85.75"/>
</g>
<!-- Node10&#45;&gt;Node13 -->
<g id="edge13" class="edge">
<title>Node10&#45;&gt;Node13</title>
<path fill="none" stroke="midnightblue" d="M598.37,-112.32C610.16,-104.06 628.13,-91.45 642.14,-81.63"/>
<polygon fill="midnightblue" stroke="midnightblue" points="644.48,-84.26 650.66,-75.65 640.46,-78.53 644.48,-84.26"/>
</g>
<!-- Node14 -->
<g id="node14" class="node">
<title>Node14</title>
<g id="a_node14"><a xlink:title=" ">
<polygon fill="white" stroke="#bfbfbf" points="373,-56.5 373,-75.5 423,-75.5 423,-56.5 373,-56.5"/>
<text text-anchor="middle" x="398" y="-63.5" font-family="Helvetica,sans-Serif" font-size="10.00">chrono</text>
</a>
</g>
</g>
<!-- Node10&#45;&gt;Node14 -->
<g id="edge14" class="edge">
<title>Node10&#45;&gt;Node14</title>
<path fill="none" stroke="midnightblue" d="M556.21,-112.44C522.76,-102.83 468.52,-87.26 433.05,-77.07"/>
<polygon fill="midnightblue" stroke="midnightblue" points="433.72,-73.62 423.14,-74.22 431.78,-80.35 433.72,-73.62"/>
</g>
<!-- Node15 -->
<g id="node15" class="node">
<title>Node15</title>
<g id="a_node15"><a xlink:href="_backend_id_8hpp.html" target="_top" xlink:title=" ">
<polygon fill="white" stroke="black" points="708,-56.5 708,-75.5 796,-75.5 796,-56.5 708,-56.5"/>
<text text-anchor="middle" x="752" y="-63.5" font-family="Helvetica,sans-Serif" font-size="10.00">BackendId.hpp</text>
</a>
</g>
</g>
<!-- Node10&#45;&gt;Node15 -->
<g id="edge15" class="edge">
<title>Node10&#45;&gt;Node15</title>
<path fill="none" stroke="midnightblue" d="M612.3,-112.44C640.35,-103.32 684.94,-88.81 716.18,-78.65"/>
<polygon fill="midnightblue" stroke="midnightblue" points="717.39,-81.94 725.82,-75.52 715.23,-75.28 717.39,-81.94"/>
</g>
<!-- Node21 -->
<g id="node21" class="node">
<title>Node21</title>
<g id="a_node21"><a xlink:href="_deprecated_8hpp.html" target="_top" xlink:title=" ">
<polygon fill="white" stroke="black" points="441,-56.5 441,-75.5 535,-75.5 535,-56.5 441,-56.5"/>
<text text-anchor="middle" x="488" y="-63.5" font-family="Helvetica,sans-Serif" font-size="10.00">Deprecated.hpp</text>
</a>
</g>
</g>
<!-- Node10&#45;&gt;Node21 -->
<g id="edge23" class="edge">
<title>Node10&#45;&gt;Node21</title>
<path fill="none" stroke="midnightblue" d="M570.25,-112.32C554.68,-103.74 530.62,-90.49 512.54,-80.52"/>
<polygon fill="midnightblue" stroke="midnightblue" points="514.15,-77.42 503.71,-75.65 510.78,-83.55 514.15,-77.42"/>
</g>
<!-- Node15&#45;&gt;Node6 -->
<g id="edge19" class="edge">
<title>Node15&#45;&gt;Node6</title>
<path fill="none" stroke="midnightblue" d="M707.79,-57.22C704.82,-56.78 701.87,-56.37 699,-56 515.48,-32.5 293.86,-17.82 212.21,-12.87"/>
<polygon fill="midnightblue" stroke="midnightblue" points="212.27,-9.37 202.07,-12.27 211.85,-16.36 212.27,-9.37"/>
</g>
<!-- Node16 -->
<g id="node16" class="node">
<title>Node16</title>
<g id="a_node16"><a xlink:title=" ">
<polygon fill="white" stroke="#bfbfbf" points="639,-0.5 639,-19.5 697,-19.5 697,-0.5 639,-0.5"/>
<text text-anchor="middle" x="668" y="-7.5" font-family="Helvetica,sans-Serif" font-size="10.00">memory</text>
</a>
</g>
</g>
<!-- Node15&#45;&gt;Node16 -->
<g id="edge16" class="edge">
<title>Node15&#45;&gt;Node16</title>
<path fill="none" stroke="midnightblue" d="M738.5,-56.32C725.4,-47.9 705.29,-34.97 689.89,-25.07"/>
<polygon fill="midnightblue" stroke="midnightblue" points="691.77,-22.12 681.46,-19.65 687.98,-28.01 691.77,-22.12"/>
</g>
<!-- Node17 -->
<g id="node17" class="node">
<title>Node17</title>
<g id="a_node17"><a xlink:title=" ">
<polygon fill="white" stroke="#bfbfbf" points="841.5,-0.5 841.5,-19.5 898.5,-19.5 898.5,-0.5 841.5,-0.5"/>
<text text-anchor="middle" x="870" y="-7.5" font-family="Helvetica,sans-Serif" font-size="10.00">ostream</text>
</a>
</g>
</g>
<!-- Node15&#45;&gt;Node17 -->
<g id="edge17" class="edge">
<title>Node15&#45;&gt;Node17</title>
<path fill="none" stroke="midnightblue" d="M770.7,-56.44C789.94,-47.64 820.15,-33.81 842.2,-23.72"/>
<polygon fill="midnightblue" stroke="midnightblue" points="843.75,-26.86 851.39,-19.52 840.84,-20.5 843.75,-26.86"/>
</g>
<!-- Node18 -->
<g id="node18" class="node">
<title>Node18</title>
<g id="a_node18"><a xlink:title=" ">
<polygon fill="white" stroke="#bfbfbf" points="928,-0.5 928,-19.5 960,-19.5 960,-0.5 928,-0.5"/>
<text text-anchor="middle" x="944" y="-7.5" font-family="Helvetica,sans-Serif" font-size="10.00">set</text>
</a>
</g>
</g>
<!-- Node15&#45;&gt;Node18 -->
<g id="edge18" class="edge">
<title>Node15&#45;&gt;Node18</title>
<path fill="none" stroke="midnightblue" d="M782.42,-56.44C819.8,-45.93 882.57,-28.28 917.86,-18.35"/>
<polygon fill="midnightblue" stroke="midnightblue" points="919.2,-21.61 927.87,-15.54 917.3,-14.87 919.2,-21.61"/>
</g>
<!-- Node19 -->
<g id="node19" class="node">
<title>Node19</title>
<g id="a_node19"><a xlink:title=" ">
<polygon fill="white" stroke="#bfbfbf" points="715,-0.5 715,-19.5 801,-19.5 801,-0.5 715,-0.5"/>
<text text-anchor="middle" x="758" y="-7.5" font-family="Helvetica,sans-Serif" font-size="10.00">unordered_set</text>
</a>
</g>
</g>
<!-- Node15&#45;&gt;Node19 -->
<g id="edge20" class="edge">
<title>Node15&#45;&gt;Node19</title>
<path fill="none" stroke="midnightblue" d="M752.99,-56.08C753.79,-48.93 754.93,-38.64 755.92,-29.69"/>
<polygon fill="midnightblue" stroke="midnightblue" points="759.4,-30.08 757.03,-19.75 752.44,-29.3 759.4,-30.08"/>
</g>
<!-- Node15&#45;&gt;Node20 -->
<g id="edge21" class="edge">
<title>Node15&#45;&gt;Node20</title>
<path fill="none" stroke="midnightblue" d="M707.77,-57.32C644.94,-46.41 531.2,-26.66 474.72,-16.85"/>
<polygon fill="midnightblue" stroke="midnightblue" points="475.31,-13.41 464.86,-15.14 474.11,-20.3 475.31,-13.41"/>
</g>
<!-- Node24&#45;&gt;Node6 -->
<g id="edge30" class="edge">
<title>Node24&#45;&gt;Node6</title>
<path fill="none" stroke="midnightblue" d="M279.37,-224.48C248.48,-210.44 191.32,-179.21 168,-132 151.55,-98.7 163.38,-54.01 172.39,-29.32"/>
<polygon fill="midnightblue" stroke="midnightblue" points="175.74,-30.37 176.1,-19.78 169.22,-27.83 175.74,-30.37"/>
</g>
<!-- Node25&#45;&gt;Node2 -->
<g id="edge35" class="edge">
<title>Node25&#45;&gt;Node2</title>
<path fill="none" stroke="midnightblue" d="M638.75,-224.44C609.56,-215.28 563.08,-200.69 530.69,-190.52"/>
<polygon fill="midnightblue" stroke="midnightblue" points="531.72,-187.17 521.13,-187.52 529.62,-193.85 531.72,-187.17"/>
</g>
<!-- Node25&#45;&gt;Node3 -->
<g id="edge34" class="edge">
<title>Node25&#45;&gt;Node3</title>
<path fill="none" stroke="midnightblue" d="M604.91,-232.18C506.8,-228.44 310.7,-210.75 168,-132 146.81,-120.3 128.31,-99.15 116.94,-84.16"/>
<polygon fill="midnightblue" stroke="midnightblue" points="119.53,-81.78 110.81,-75.75 113.87,-85.9 119.53,-81.78"/>
</g>
<!-- Node25&#45;&gt;Node9 -->
<g id="edge41" class="edge">
<title>Node25&#45;&gt;Node9</title>
<path fill="none" stroke="midnightblue" d="M675.58,-224.31C704.98,-197.64 794.19,-116.72 831.89,-82.52"/>
<polygon fill="midnightblue" stroke="midnightblue" points="834.46,-84.92 839.51,-75.61 829.76,-79.73 834.46,-84.92"/>
</g>
<!-- Node25&#45;&gt;Node10 -->
<g id="edge36" class="edge">
<title>Node25&#45;&gt;Node10</title>
<path fill="none" stroke="midnightblue" d="M661.66,-224.21C655.13,-211.34 642.05,-186.87 628,-168 620.36,-157.74 610.68,-147.23 602.54,-138.95"/>
<polygon fill="midnightblue" stroke="midnightblue" points="604.88,-136.35 595.32,-131.78 599.95,-141.31 604.88,-136.35"/>
</g>
<!-- Node25&#45;&gt;Node13 -->
<g id="edge37" class="edge">
<title>Node25&#45;&gt;Node13</title>
<path fill="none" stroke="midnightblue" d="M665.84,-224.08C665.37,-197.95 663.98,-121.21 663.34,-85.58"/>
<polygon fill="midnightblue" stroke="midnightblue" points="666.84,-85.5 663.15,-75.57 659.84,-85.63 666.84,-85.5"/>
</g>
<!-- Node25&#45;&gt;Node15 -->
<g id="edge33" class="edge">
<title>Node25&#45;&gt;Node15</title>
<path fill="none" stroke="midnightblue" d="M670.62,-224.08C684.28,-197.72 724.61,-119.88 742.85,-84.66"/>
<polygon fill="midnightblue" stroke="midnightblue" points="746.07,-86.06 747.56,-75.57 739.85,-82.84 746.07,-86.06"/>
</g>
<!-- Node25&#45;&gt;Node17 -->
<g id="edge39" class="edge">
<title>Node25&#45;&gt;Node17</title>
<path fill="none" stroke="midnightblue" d="M692.05,-224.4C742.14,-206.25 850.69,-158.77 893,-76 900.97,-60.41 892.33,-41.42 883.45,-28"/>
<polygon fill="midnightblue" stroke="midnightblue" points="886.16,-25.77 877.47,-19.71 880.48,-29.87 886.16,-25.77"/>
</g>
<!-- Node25&#45;&gt;Node18 -->
<g id="edge40" class="edge">
<title>Node25&#45;&gt;Node18</title>
<path fill="none" stroke="midnightblue" d="M703.21,-224.44C731.37,-217.09 770.46,-204.97 802,-188 837.39,-168.96 846.18,-161.93 873,-132 901.88,-99.78 924.86,-54.02 936.23,-29.02"/>
<polygon fill="midnightblue" stroke="midnightblue" points="939.52,-30.24 940.37,-19.68 933.12,-27.4 939.52,-30.24"/>
</g>
<!-- Node26 -->
<g id="node26" class="node">
<title>Node26</title>
<g id="a_node26"><a xlink:title=" ">
<polygon fill="white" stroke="#bfbfbf" points="571.5,-168.5 571.5,-187.5 618.5,-187.5 618.5,-168.5 571.5,-168.5"/>
<text text-anchor="middle" x="595" y="-175.5" font-family="Helvetica,sans-Serif" font-size="10.00">cmath</text>
</a>
</g>
</g>
<!-- Node25&#45;&gt;Node26 -->
<g id="edge38" class="edge">
<title>Node25&#45;&gt;Node26</title>
<path fill="none" stroke="midnightblue" d="M654.59,-224.32C643.89,-216.18 627.66,-203.84 614.84,-194.09"/>
<polygon fill="midnightblue" stroke="midnightblue" points="616.69,-191.1 606.61,-187.83 612.46,-196.67 616.69,-191.1"/>
</g>
<!-- Node28 -->
<g id="node28" class="node">
<title>Node28</title>
<g id="a_node28"><a xlink:title=" ">
<polygon fill="white" stroke="#bfbfbf" points="1006,-112.5 1006,-131.5 1058,-131.5 1058,-112.5 1006,-112.5"/>
<text text-anchor="middle" x="1032" y="-119.5" font-family="Helvetica,sans-Serif" font-size="10.00">cassert</text>
</a>
</g>
</g>
<!-- Node27&#45;&gt;Node28 -->
<g id="edge43" class="edge">
<title>Node27&#45;&gt;Node28</title>
<path fill="none" stroke="midnightblue" d="M1032,-168.08C1032,-161.01 1032,-150.86 1032,-141.99"/>
<polygon fill="midnightblue" stroke="midnightblue" points="1035.5,-141.75 1032,-131.75 1028.5,-141.75 1035.5,-141.75"/>
</g>
<!-- Node29&#45;&gt;Node9 -->
<g id="edge46" class="edge">
<title>Node29&#45;&gt;Node9</title>
<path fill="none" stroke="midnightblue" d="M873.6,-224.08C869.51,-197.95 857.49,-121.21 851.91,-85.58"/>
<polygon fill="midnightblue" stroke="midnightblue" points="855.35,-84.91 850.34,-75.57 848.43,-85.99 855.35,-84.91"/>
</g>
<!-- Node29&#45;&gt;Node27 -->
<g id="edge45" class="edge">
<title>Node29&#45;&gt;Node27</title>
<path fill="none" stroke="midnightblue" d="M899.88,-224.44C926.29,-215.36 968.22,-200.94 997.74,-190.78"/>
<polygon fill="midnightblue" stroke="midnightblue" points="998.92,-194.08 1007.24,-187.52 996.64,-187.46 998.92,-194.08"/>
</g>
<!-- Node30 -->
<g id="node30" class="node">
<title>Node30</title>
<g id="a_node30"><a xlink:title=" ">
<polygon fill="white" stroke="#bfbfbf" points="903,-168.5 903,-187.5 947,-187.5 947,-168.5 903,-168.5"/>
<text text-anchor="middle" x="925" y="-175.5" font-family="Helvetica,sans-Serif" font-size="10.00">limits</text>
</a>
</g>
</g>
<!-- Node29&#45;&gt;Node30 -->
<g id="edge47" class="edge">
<title>Node29&#45;&gt;Node30</title>
<path fill="none" stroke="midnightblue" d="M883.26,-224.08C890.46,-216.3 901.11,-204.8 909.85,-195.37"/>
<polygon fill="midnightblue" stroke="midnightblue" points="912.67,-197.47 916.9,-187.75 907.53,-192.71 912.67,-197.47"/>
</g>
</g>
</svg>
