<?xml version="1.0" encoding="UTF-8" standalone="no"?>
<!DOCTYPE svg PUBLIC "-//W3C//DTD SVG 1.1//EN"
 "http://www.w3.org/Graphics/SVG/1.1/DTD/svg11.dtd">
<!-- Generated by graphviz version 2.43.0 (0)
 -->
<!-- Title: src/backends/tosaCommon/operatorMappings/TosaOperatorUtils.hpp Pages: 1 -->
<svg width="2636pt" height="340pt"
 viewBox="0.00 0.00 2635.50 340.00" xmlns="http://www.w3.org/2000/svg" xmlns:xlink="http://www.w3.org/1999/xlink">
<g id="graph0" class="graph" transform="scale(1 1) rotate(0) translate(4 336)">
<title>src/backends/tosaCommon/operatorMappings/TosaOperatorUtils.hpp</title>
<polygon fill="white" stroke="transparent" points="-4,4 -4,-336 2631.5,-336 2631.5,4 -4,4"/>
<!-- Node1 -->
<g id="node1" class="node">
<title>Node1</title>
<g id="a_node1"><a xlink:title=" ">
<polygon fill="#bfbfbf" stroke="black" points="1345,-290.5 1345,-331.5 1521,-331.5 1521,-290.5 1345,-290.5"/>
<text text-anchor="start" x="1353" y="-319.5" font-family="Helvetica,sans-Serif" font-size="10.00">src/backends/tosaCommon</text>
<text text-anchor="start" x="1353" y="-308.5" font-family="Helvetica,sans-Serif" font-size="10.00">/operatorMappings/TosaOperator</text>
<text text-anchor="middle" x="1433" y="-297.5" font-family="Helvetica,sans-Serif" font-size="10.00">Utils.hpp</text>
</a>
</g>
</g>
<!-- Node2 -->
<g id="node2" class="node">
<title>Node2</title>
<g id="a_node2"><a xlink:href="_pooling2_d_operator_8hpp.html" target="_top" xlink:title=" ">
<polygon fill="white" stroke="black" points="210,-218 210,-248 434,-248 434,-218 210,-218"/>
<text text-anchor="start" x="218" y="-236" font-family="Helvetica,sans-Serif" font-size="10.00">src/backends/tosaCommon</text>
<text text-anchor="middle" x="322" y="-225" font-family="Helvetica,sans-Serif" font-size="10.00">/operatorMappings/Pooling2DOperator.hpp</text>
</a>
</g>
</g>
<!-- Node1&#45;&gt;Node2 -->
<g id="edge1" class="edge">
<title>Node1&#45;&gt;Node2</title>
<path fill="none" stroke="midnightblue" d="M1334.86,-307.94C1156.71,-303.41 768.42,-289.99 443,-254 428.82,-252.43 413.78,-250.31 399.29,-248.04"/>
<polygon fill="midnightblue" stroke="midnightblue" points="1334.91,-311.44 1345,-308.19 1335.09,-304.44 1334.91,-311.44"/>
</g>
<!-- Node10 -->
<g id="node10" class="node">
<title>Node10</title>
<g id="a_node10"><a xlink:href="_avg_pool2_d_ignore_value_operator_8hpp.html" target="_top" xlink:title=" ">
<polygon fill="white" stroke="black" points="1336,-212.5 1336,-253.5 1530,-253.5 1530,-212.5 1336,-212.5"/>
<text text-anchor="start" x="1344" y="-241.5" font-family="Helvetica,sans-Serif" font-size="10.00">src/backends/tosaCommon</text>
<text text-anchor="start" x="1344" y="-230.5" font-family="Helvetica,sans-Serif" font-size="10.00">/operatorMappings/AvgPool2DIgnore</text>
<text text-anchor="middle" x="1433" y="-219.5" font-family="Helvetica,sans-Serif" font-size="10.00">ValueOperator.hpp</text>
</a>
</g>
</g>
<!-- Node1&#45;&gt;Node10 -->
<g id="edge9" class="edge">
<title>Node1&#45;&gt;Node10</title>
<path fill="none" stroke="midnightblue" d="M1433,-280.3C1433,-271.3 1433,-261.65 1433,-253.51"/>
<polygon fill="midnightblue" stroke="midnightblue" points="1429.5,-280.43 1433,-290.43 1436.5,-280.43 1429.5,-280.43"/>
</g>
<!-- Node11 -->
<g id="node11" class="node">
<title>Node11</title>
<g id="a_node11"><a xlink:href="_concat_operator_8hpp.html" target="_top" xlink:title=" ">
<polygon fill="white" stroke="black" points="452,-218 452,-248 660,-248 660,-218 452,-218"/>
<text text-anchor="start" x="460" y="-236" font-family="Helvetica,sans-Serif" font-size="10.00">src/backends/tosaCommon</text>
<text text-anchor="middle" x="556" y="-225" font-family="Helvetica,sans-Serif" font-size="10.00">/operatorMappings/ConcatOperator.hpp</text>
</a>
</g>
</g>
<!-- Node1&#45;&gt;Node11 -->
<g id="edge11" class="edge">
<title>Node1&#45;&gt;Node11</title>
<path fill="none" stroke="midnightblue" d="M1334.51,-306C1188.68,-299.34 906.94,-283.7 669,-254 655.95,-252.37 642.12,-250.25 628.78,-248.01"/>
<polygon fill="midnightblue" stroke="midnightblue" points="1334.62,-309.5 1344.77,-306.46 1334.94,-302.51 1334.62,-309.5"/>
</g>
<!-- Node13 -->
<g id="node13" class="node">
<title>Node13</title>
<g id="a_node13"><a xlink:href="_constant_operator_8hpp.html" target="_top" xlink:title=" ">
<polygon fill="white" stroke="black" points="678,-218 678,-248 896,-248 896,-218 678,-218"/>
<text text-anchor="start" x="686" y="-236" font-family="Helvetica,sans-Serif" font-size="10.00">src/backends/tosaCommon</text>
<text text-anchor="middle" x="787" y="-225" font-family="Helvetica,sans-Serif" font-size="10.00">/operatorMappings/ConstantOperator.hpp</text>
</a>
</g>
</g>
<!-- Node1&#45;&gt;Node13 -->
<g id="edge14" class="edge">
<title>Node1&#45;&gt;Node13</title>
<path fill="none" stroke="midnightblue" d="M1334.92,-301.44C1228.74,-291.74 1054.51,-274.58 905,-254 892.24,-252.24 878.74,-250.16 865.6,-248.02"/>
<polygon fill="midnightblue" stroke="midnightblue" points="1334.7,-304.93 1344.98,-302.35 1335.34,-297.96 1334.7,-304.93"/>
</g>
<!-- Node15 -->
<g id="node15" class="node">
<title>Node15</title>
<g id="a_node15"><a xlink:href="_conv2d_operator_8hpp.html" target="_top" xlink:title=" ">
<polygon fill="white" stroke="black" points="914.5,-218 914.5,-248 1125.5,-248 1125.5,-218 914.5,-218"/>
<text text-anchor="start" x="922.5" y="-236" font-family="Helvetica,sans-Serif" font-size="10.00">src/backends/tosaCommon</text>
<text text-anchor="middle" x="1020" y="-225" font-family="Helvetica,sans-Serif" font-size="10.00">/operatorMappings/Conv2dOperator.hpp</text>
</a>
</g>
</g>
<!-- Node1&#45;&gt;Node15 -->
<g id="edge17" class="edge">
<title>Node1&#45;&gt;Node15</title>
<path fill="none" stroke="midnightblue" d="M1334.77,-291.92C1261.68,-278.47 1163.35,-260.38 1096.16,-248.02"/>
<polygon fill="midnightblue" stroke="midnightblue" points="1334.44,-295.42 1344.91,-293.79 1335.71,-288.54 1334.44,-295.42"/>
</g>
<!-- Node17 -->
<g id="node17" class="node">
<title>Node17</title>
<g id="a_node17"><a xlink:href="_elementwise_binary_operator_8hpp.html" target="_top" xlink:title=" ">
<polygon fill="white" stroke="black" points="1144,-212.5 1144,-253.5 1318,-253.5 1318,-212.5 1144,-212.5"/>
<text text-anchor="start" x="1152" y="-241.5" font-family="Helvetica,sans-Serif" font-size="10.00">src/backends/tosaCommon</text>
<text text-anchor="start" x="1152" y="-230.5" font-family="Helvetica,sans-Serif" font-size="10.00">/operatorMappings/Elementwise</text>
<text text-anchor="middle" x="1231" y="-219.5" font-family="Helvetica,sans-Serif" font-size="10.00">BinaryOperator.hpp</text>
</a>
</g>
</g>
<!-- Node1&#45;&gt;Node17 -->
<g id="edge20" class="edge">
<title>Node1&#45;&gt;Node17</title>
<path fill="none" stroke="midnightblue" d="M1371.57,-286.89C1343.21,-276.22 1309.91,-263.69 1282.84,-253.51"/>
<polygon fill="midnightblue" stroke="midnightblue" points="1370.39,-290.18 1380.98,-290.43 1372.85,-283.63 1370.39,-290.18"/>
</g>
<!-- Node19 -->
<g id="node19" class="node">
<title>Node19</title>
<g id="a_node19"><a xlink:href="_elementwise_unary_operator_8hpp.html" target="_top" xlink:title=" ">
<polygon fill="white" stroke="black" points="1548,-212.5 1548,-253.5 1722,-253.5 1722,-212.5 1548,-212.5"/>
<text text-anchor="start" x="1556" y="-241.5" font-family="Helvetica,sans-Serif" font-size="10.00">src/backends/tosaCommon</text>
<text text-anchor="start" x="1556" y="-230.5" font-family="Helvetica,sans-Serif" font-size="10.00">/operatorMappings/Elementwise</text>
<text text-anchor="middle" x="1635" y="-219.5" font-family="Helvetica,sans-Serif" font-size="10.00">UnaryOperator.hpp</text>
</a>
</g>
</g>
<!-- Node1&#45;&gt;Node19 -->
<g id="edge23" class="edge">
<title>Node1&#45;&gt;Node19</title>
<path fill="none" stroke="midnightblue" d="M1494.43,-286.89C1522.79,-276.22 1556.09,-263.69 1583.16,-253.51"/>
<polygon fill="midnightblue" stroke="midnightblue" points="1493.15,-283.63 1485.02,-290.43 1495.61,-290.18 1493.15,-283.63"/>
</g>
<!-- Node21 -->
<g id="node21" class="node">
<title>Node21</title>
<g id="a_node21"><a xlink:href="_reshape_operator_8hpp.html" target="_top" xlink:title=" ">
<polygon fill="white" stroke="black" points="1740,-218 1740,-248 1956,-248 1956,-218 1740,-218"/>
<text text-anchor="start" x="1748" y="-236" font-family="Helvetica,sans-Serif" font-size="10.00">src/backends/tosaCommon</text>
<text text-anchor="middle" x="1848" y="-225" font-family="Helvetica,sans-Serif" font-size="10.00">/operatorMappings/ReshapeOperator.hpp</text>
</a>
</g>
</g>
<!-- Node1&#45;&gt;Node21 -->
<g id="edge26" class="edge">
<title>Node1&#45;&gt;Node21</title>
<path fill="none" stroke="midnightblue" d="M1531.2,-292.02C1604.63,-278.57 1703.61,-260.44 1771.28,-248.05"/>
<polygon fill="midnightblue" stroke="midnightblue" points="1530.22,-288.64 1521.01,-293.88 1531.48,-295.52 1530.22,-288.64"/>
</g>
<!-- Node23 -->
<g id="node23" class="node">
<title>Node23</title>
<g id="a_node23"><a xlink:href="_slice_operator_8hpp.html" target="_top" xlink:title=" ">
<polygon fill="white" stroke="black" points="1974.5,-218 1974.5,-248 2171.5,-248 2171.5,-218 1974.5,-218"/>
<text text-anchor="start" x="1982.5" y="-236" font-family="Helvetica,sans-Serif" font-size="10.00">src/backends/tosaCommon</text>
<text text-anchor="middle" x="2073" y="-225" font-family="Helvetica,sans-Serif" font-size="10.00">/operatorMappings/SliceOperator.hpp</text>
</a>
</g>
</g>
<!-- Node1&#45;&gt;Node23 -->
<g id="edge29" class="edge">
<title>Node1&#45;&gt;Node23</title>
<path fill="none" stroke="midnightblue" d="M1531.42,-301.96C1638.41,-292.68 1814.3,-275.85 1965,-254 1976.89,-252.28 1989.47,-250.19 2001.68,-248.02"/>
<polygon fill="midnightblue" stroke="midnightblue" points="1530.94,-298.49 1521.28,-302.84 1531.54,-305.46 1530.94,-298.49"/>
</g>
<!-- Node25 -->
<g id="node25" class="node">
<title>Node25</title>
<g id="a_node25"><a xlink:href="_transpose_conv2d_operator_8hpp.html" target="_top" xlink:title=" ">
<polygon fill="white" stroke="black" points="2189.5,-212.5 2189.5,-253.5 2386.5,-253.5 2386.5,-212.5 2189.5,-212.5"/>
<text text-anchor="start" x="2197.5" y="-241.5" font-family="Helvetica,sans-Serif" font-size="10.00">src/backends/tosaCommon</text>
<text text-anchor="start" x="2197.5" y="-230.5" font-family="Helvetica,sans-Serif" font-size="10.00">/operatorMappings/TransposeConv2d</text>
<text text-anchor="middle" x="2288" y="-219.5" font-family="Helvetica,sans-Serif" font-size="10.00">Operator.hpp</text>
</a>
</g>
</g>
<!-- Node1&#45;&gt;Node25 -->
<g id="edge32" class="edge">
<title>Node1&#45;&gt;Node25</title>
<path fill="none" stroke="midnightblue" d="M1531.21,-306.1C1674.52,-299.62 1949.13,-284.26 2181,-254 2183.72,-253.65 2186.47,-253.27 2189.25,-252.87"/>
<polygon fill="midnightblue" stroke="midnightblue" points="1530.96,-302.6 1521.12,-306.55 1531.27,-309.6 1530.96,-302.6"/>
</g>
<!-- Node27 -->
<g id="node27" class="node">
<title>Node27</title>
<g id="a_node27"><a xlink:href="_transpose_operator_8hpp.html" target="_top" xlink:title=" ">
<polygon fill="white" stroke="black" points="2404.5,-218 2404.5,-248 2627.5,-248 2627.5,-218 2404.5,-218"/>
<text text-anchor="start" x="2412.5" y="-236" font-family="Helvetica,sans-Serif" font-size="10.00">src/backends/tosaCommon</text>
<text text-anchor="middle" x="2516" y="-225" font-family="Helvetica,sans-Serif" font-size="10.00">/operatorMappings/TransposeOperator.hpp</text>
</a>
</g>
</g>
<!-- Node1&#45;&gt;Node27 -->
<g id="edge35" class="edge">
<title>Node1&#45;&gt;Node27</title>
<path fill="none" stroke="midnightblue" d="M1531.42,-307.75C1706.03,-302.99 2081.27,-289.28 2396,-254 2410.06,-252.42 2424.98,-250.3 2439.35,-248.03"/>
<polygon fill="midnightblue" stroke="midnightblue" points="1531.13,-304.26 1521.23,-308.03 1531.32,-311.26 1531.13,-304.26"/>
</g>
<!-- Node3 -->
<g id="node3" class="node">
<title>Node3</title>
<g id="a_node3"><a xlink:href="_avg_pool2_d_ignore_value_operator_8cpp.html" target="_top" xlink:title=" ">
<polygon fill="white" stroke="black" points="0,-134.5 0,-175.5 194,-175.5 194,-134.5 0,-134.5"/>
<text text-anchor="start" x="8" y="-163.5" font-family="Helvetica,sans-Serif" font-size="10.00">src/backends/tosaCommon</text>
<text text-anchor="start" x="8" y="-152.5" font-family="Helvetica,sans-Serif" font-size="10.00">/operatorMappings/AvgPool2DIgnore</text>
<text text-anchor="middle" x="97" y="-141.5" font-family="Helvetica,sans-Serif" font-size="10.00">ValueOperator.cpp</text>
</a>
</g>
</g>
<!-- Node2&#45;&gt;Node3 -->
<g id="edge2" class="edge">
<title>Node2&#45;&gt;Node3</title>
<path fill="none" stroke="midnightblue" d="M270.59,-214.64C236.09,-202.98 190.58,-187.61 154.82,-175.53"/>
<polygon fill="midnightblue" stroke="midnightblue" points="269.88,-218.09 280.47,-217.97 272.12,-211.46 269.88,-218.09"/>
</g>
<!-- Node4 -->
<g id="node4" class="node">
<title>Node4</title>
<g id="a_node4"><a xlink:href="_pooling2_d_operator_8cpp.html" target="_top" xlink:title=" ">
<polygon fill="white" stroke="black" points="211.5,-140 211.5,-170 434.5,-170 434.5,-140 211.5,-140"/>
<text text-anchor="start" x="219.5" y="-158" font-family="Helvetica,sans-Serif" font-size="10.00">src/backends/tosaCommon</text>
<text text-anchor="middle" x="323" y="-147" font-family="Helvetica,sans-Serif" font-size="10.00">/operatorMappings/Pooling2DOperator.cpp</text>
</a>
</g>
</g>
<!-- Node2&#45;&gt;Node4 -->
<g id="edge3" class="edge">
<title>Node2&#45;&gt;Node4</title>
<path fill="none" stroke="midnightblue" d="M322.32,-207.59C322.48,-195.26 322.67,-180.72 322.81,-170.23"/>
<polygon fill="midnightblue" stroke="midnightblue" points="318.82,-207.66 322.19,-217.7 325.82,-207.75 318.82,-207.66"/>
</g>
<!-- Node5 -->
<g id="node5" class="node">
<title>Node5</title>
<g id="a_node5"><a xlink:href="_tosa_common_operators_8hpp.html" target="_top" xlink:title=" ">
<polygon fill="white" stroke="black" points="1344.5,-134.5 1344.5,-175.5 1521.5,-175.5 1521.5,-134.5 1344.5,-134.5"/>
<text text-anchor="start" x="1352.5" y="-163.5" font-family="Helvetica,sans-Serif" font-size="10.00">src/backends/tosaCommon</text>
<text text-anchor="start" x="1352.5" y="-152.5" font-family="Helvetica,sans-Serif" font-size="10.00">/operatorMappings/TosaCommon</text>
<text text-anchor="middle" x="1433" y="-141.5" font-family="Helvetica,sans-Serif" font-size="10.00">Operators.hpp</text>
</a>
</g>
</g>
<!-- Node2&#45;&gt;Node5 -->
<g id="edge4" class="edge">
<title>Node2&#45;&gt;Node5</title>
<path fill="none" stroke="midnightblue" d="M408.17,-216.43C419.85,-214.71 431.7,-213.16 443,-212 834.16,-171.86 936.32,-220.57 1327,-176 1332.68,-175.35 1338.5,-174.58 1344.37,-173.71"/>
<polygon fill="midnightblue" stroke="midnightblue" points="407.33,-213.01 397.97,-217.98 408.39,-219.93 407.33,-213.01"/>
</g>
<!-- Node6 -->
<g id="node6" class="node">
<title>Node6</title>
<g id="a_node6"><a xlink:href="_tosa_mappings_8hpp.html" target="_top" xlink:title=" ">
<polygon fill="white" stroke="black" points="1359,-67.5 1359,-97.5 1507,-97.5 1507,-67.5 1359,-67.5"/>
<text text-anchor="start" x="1367" y="-85.5" font-family="Helvetica,sans-Serif" font-size="10.00">src/backends/tosaCommon</text>
<text text-anchor="middle" x="1433" y="-74.5" font-family="Helvetica,sans-Serif" font-size="10.00">/TosaMappings.hpp</text>
</a>
</g>
</g>
<!-- Node5&#45;&gt;Node6 -->
<g id="edge5" class="edge">
<title>Node5&#45;&gt;Node6</title>
<path fill="none" stroke="midnightblue" d="M1433,-124.08C1433,-115.01 1433,-105.45 1433,-97.89"/>
<polygon fill="midnightblue" stroke="midnightblue" points="1429.5,-124.36 1433,-134.36 1436.5,-124.36 1429.5,-124.36"/>
</g>
<!-- Node7 -->
<g id="node7" class="node">
<title>Node7</title>
<g id="a_node7"><a xlink:href="_tosa_mappings_8cpp.html" target="_top" xlink:title=" ">
<polygon fill="white" stroke="black" points="1190,-0.5 1190,-30.5 1338,-30.5 1338,-0.5 1190,-0.5"/>
<text text-anchor="start" x="1198" y="-18.5" font-family="Helvetica,sans-Serif" font-size="10.00">src/backends/tosaCommon</text>
<text text-anchor="middle" x="1264" y="-7.5" font-family="Helvetica,sans-Serif" font-size="10.00">/TosaMappings.cpp</text>
</a>
</g>
</g>
<!-- Node6&#45;&gt;Node7 -->
<g id="edge6" class="edge">
<title>Node6&#45;&gt;Node7</title>
<path fill="none" stroke="midnightblue" d="M1386.67,-63.68C1359.57,-53.26 1325.83,-40.28 1300.6,-30.58"/>
<polygon fill="midnightblue" stroke="midnightblue" points="1385.74,-67.07 1396.33,-67.4 1388.25,-60.54 1385.74,-67.07"/>
</g>
<!-- Node8 -->
<g id="node8" class="node">
<title>Node8</title>
<g id="a_node8"><a xlink:href="_tosa_ref_backend_8cpp.html" target="_top" xlink:title=" ">
<polygon fill="white" stroke="black" points="1356.5,-0.5 1356.5,-30.5 1509.5,-30.5 1509.5,-0.5 1356.5,-0.5"/>
<text text-anchor="start" x="1364.5" y="-18.5" font-family="Helvetica,sans-Serif" font-size="10.00">src/backends/tosaReference</text>
<text text-anchor="middle" x="1433" y="-7.5" font-family="Helvetica,sans-Serif" font-size="10.00">/TosaRefBackend.cpp</text>
</a>
</g>
</g>
<!-- Node6&#45;&gt;Node8 -->
<g id="edge7" class="edge">
<title>Node6&#45;&gt;Node8</title>
<path fill="none" stroke="midnightblue" d="M1433,-57.11C1433,-48.15 1433,-38.32 1433,-30.58"/>
<polygon fill="midnightblue" stroke="midnightblue" points="1429.5,-57.4 1433,-67.4 1436.5,-57.4 1429.5,-57.4"/>
</g>
<!-- Node9 -->
<g id="node9" class="node">
<title>Node9</title>
<g id="a_node9"><a xlink:href="_tosa_ref_layer_support_8cpp.html" target="_top" xlink:title=" ">
<polygon fill="white" stroke="black" points="1527.5,-0.5 1527.5,-30.5 1680.5,-30.5 1680.5,-0.5 1527.5,-0.5"/>
<text text-anchor="start" x="1535.5" y="-18.5" font-family="Helvetica,sans-Serif" font-size="10.00">src/backends/tosaReference</text>
<text text-anchor="middle" x="1604" y="-7.5" font-family="Helvetica,sans-Serif" font-size="10.00">/TosaRefLayerSupport.cpp</text>
</a>
</g>
</g>
<!-- Node6&#45;&gt;Node9 -->
<g id="edge8" class="edge">
<title>Node6&#45;&gt;Node9</title>
<path fill="none" stroke="midnightblue" d="M1479.52,-63.82C1507,-53.37 1541.33,-40.32 1566.97,-30.58"/>
<polygon fill="midnightblue" stroke="midnightblue" points="1478.21,-60.57 1470.1,-67.4 1480.7,-67.11 1478.21,-60.57"/>
</g>
<!-- Node10&#45;&gt;Node5 -->
<g id="edge10" class="edge">
<title>Node10&#45;&gt;Node5</title>
<path fill="none" stroke="midnightblue" d="M1433,-202.3C1433,-193.3 1433,-183.65 1433,-175.51"/>
<polygon fill="midnightblue" stroke="midnightblue" points="1429.5,-202.43 1433,-212.43 1436.5,-202.43 1429.5,-202.43"/>
</g>
<!-- Node11&#45;&gt;Node5 -->
<g id="edge13" class="edge">
<title>Node11&#45;&gt;Node5</title>
<path fill="none" stroke="midnightblue" d="M637.59,-216.36C648.13,-214.69 658.8,-213.18 669,-212 959.95,-178.42 1036.24,-211.23 1327,-176 1332.67,-175.31 1338.49,-174.51 1344.35,-173.62"/>
<polygon fill="midnightblue" stroke="midnightblue" points="636.85,-212.93 627.54,-218 637.98,-219.84 636.85,-212.93"/>
</g>
<!-- Node12 -->
<g id="node12" class="node">
<title>Node12</title>
<g id="a_node12"><a xlink:href="_concat_operator_8cpp.html" target="_top" xlink:title=" ">
<polygon fill="white" stroke="black" points="452.5,-140 452.5,-170 659.5,-170 659.5,-140 452.5,-140"/>
<text text-anchor="start" x="460.5" y="-158" font-family="Helvetica,sans-Serif" font-size="10.00">src/backends/tosaCommon</text>
<text text-anchor="middle" x="556" y="-147" font-family="Helvetica,sans-Serif" font-size="10.00">/operatorMappings/ConcatOperator.cpp</text>
</a>
</g>
</g>
<!-- Node11&#45;&gt;Node12 -->
<g id="edge12" class="edge">
<title>Node11&#45;&gt;Node12</title>
<path fill="none" stroke="midnightblue" d="M556,-207.59C556,-195.26 556,-180.72 556,-170.23"/>
<polygon fill="midnightblue" stroke="midnightblue" points="552.5,-207.7 556,-217.7 559.5,-207.71 552.5,-207.7"/>
</g>
<!-- Node13&#45;&gt;Node5 -->
<g id="edge16" class="edge">
<title>Node13&#45;&gt;Node5</title>
<path fill="none" stroke="midnightblue" d="M874.2,-216.39C884.56,-214.78 895,-213.27 905,-212 1091.73,-188.25 1140.5,-201.48 1327,-176 1332.66,-175.23 1338.47,-174.35 1344.33,-173.42"/>
<polygon fill="midnightblue" stroke="midnightblue" points="873.63,-212.93 864.3,-217.96 874.73,-219.85 873.63,-212.93"/>
</g>
<!-- Node14 -->
<g id="node14" class="node">
<title>Node14</title>
<g id="a_node14"><a xlink:href="_constant_operator_8cpp.html" target="_top" xlink:title=" ">
<polygon fill="white" stroke="black" points="678.5,-140 678.5,-170 895.5,-170 895.5,-140 678.5,-140"/>
<text text-anchor="start" x="686.5" y="-158" font-family="Helvetica,sans-Serif" font-size="10.00">src/backends/tosaCommon</text>
<text text-anchor="middle" x="787" y="-147" font-family="Helvetica,sans-Serif" font-size="10.00">/operatorMappings/ConstantOperator.cpp</text>
</a>
</g>
</g>
<!-- Node13&#45;&gt;Node14 -->
<g id="edge15" class="edge">
<title>Node13&#45;&gt;Node14</title>
<path fill="none" stroke="midnightblue" d="M787,-207.59C787,-195.26 787,-180.72 787,-170.23"/>
<polygon fill="midnightblue" stroke="midnightblue" points="783.5,-207.7 787,-217.7 790.5,-207.71 783.5,-207.7"/>
</g>
<!-- Node15&#45;&gt;Node5 -->
<g id="edge19" class="edge">
<title>Node15&#45;&gt;Node5</title>
<path fill="none" stroke="midnightblue" d="M1107.66,-216.16C1169.08,-205.02 1253.08,-189.72 1327,-176 1332.62,-174.96 1338.4,-173.88 1344.23,-172.79"/>
<polygon fill="midnightblue" stroke="midnightblue" points="1106.84,-212.75 1097.62,-217.98 1108.08,-219.64 1106.84,-212.75"/>
</g>
<!-- Node16 -->
<g id="node16" class="node">
<title>Node16</title>
<g id="a_node16"><a xlink:href="_conv2d_operator_8cpp.html" target="_top" xlink:title=" ">
<polygon fill="white" stroke="black" points="915,-140 915,-170 1125,-170 1125,-140 915,-140"/>
<text text-anchor="start" x="923" y="-158" font-family="Helvetica,sans-Serif" font-size="10.00">src/backends/tosaCommon</text>
<text text-anchor="middle" x="1020" y="-147" font-family="Helvetica,sans-Serif" font-size="10.00">/operatorMappings/Conv2dOperator.cpp</text>
</a>
</g>
</g>
<!-- Node15&#45;&gt;Node16 -->
<g id="edge18" class="edge">
<title>Node15&#45;&gt;Node16</title>
<path fill="none" stroke="midnightblue" d="M1020,-207.59C1020,-195.26 1020,-180.72 1020,-170.23"/>
<polygon fill="midnightblue" stroke="midnightblue" points="1016.5,-207.7 1020,-217.7 1023.5,-207.71 1016.5,-207.7"/>
</g>
<!-- Node17&#45;&gt;Node5 -->
<g id="edge22" class="edge">
<title>Node17&#45;&gt;Node5</title>
<path fill="none" stroke="midnightblue" d="M1292.43,-208.89C1320.79,-198.22 1354.09,-185.69 1381.16,-175.51"/>
<polygon fill="midnightblue" stroke="midnightblue" points="1291.15,-205.63 1283.02,-212.43 1293.61,-212.18 1291.15,-205.63"/>
</g>
<!-- Node18 -->
<g id="node18" class="node">
<title>Node18</title>
<g id="a_node18"><a xlink:href="_elementwise_binary_operator_8cpp.html" target="_top" xlink:title=" ">
<polygon fill="white" stroke="black" points="1144,-134.5 1144,-175.5 1318,-175.5 1318,-134.5 1144,-134.5"/>
<text text-anchor="start" x="1152" y="-163.5" font-family="Helvetica,sans-Serif" font-size="10.00">src/backends/tosaCommon</text>
<text text-anchor="start" x="1152" y="-152.5" font-family="Helvetica,sans-Serif" font-size="10.00">/operatorMappings/Elementwise</text>
<text text-anchor="middle" x="1231" y="-141.5" font-family="Helvetica,sans-Serif" font-size="10.00">BinaryOperator.cpp</text>
</a>
</g>
</g>
<!-- Node17&#45;&gt;Node18 -->
<g id="edge21" class="edge">
<title>Node17&#45;&gt;Node18</title>
<path fill="none" stroke="midnightblue" d="M1231,-202.3C1231,-193.3 1231,-183.65 1231,-175.51"/>
<polygon fill="midnightblue" stroke="midnightblue" points="1227.5,-202.43 1231,-212.43 1234.5,-202.43 1227.5,-202.43"/>
</g>
<!-- Node19&#45;&gt;Node5 -->
<g id="edge25" class="edge">
<title>Node19&#45;&gt;Node5</title>
<path fill="none" stroke="midnightblue" d="M1573.57,-208.89C1545.21,-198.22 1511.91,-185.69 1484.84,-175.51"/>
<polygon fill="midnightblue" stroke="midnightblue" points="1572.39,-212.18 1582.98,-212.43 1574.85,-205.63 1572.39,-212.18"/>
</g>
<!-- Node20 -->
<g id="node20" class="node">
<title>Node20</title>
<g id="a_node20"><a xlink:href="_elementwise_unary_operator_8cpp.html" target="_top" xlink:title=" ">
<polygon fill="white" stroke="black" points="1548,-134.5 1548,-175.5 1722,-175.5 1722,-134.5 1548,-134.5"/>
<text text-anchor="start" x="1556" y="-163.5" font-family="Helvetica,sans-Serif" font-size="10.00">src/backends/tosaCommon</text>
<text text-anchor="start" x="1556" y="-152.5" font-family="Helvetica,sans-Serif" font-size="10.00">/operatorMappings/Elementwise</text>
<text text-anchor="middle" x="1635" y="-141.5" font-family="Helvetica,sans-Serif" font-size="10.00">UnaryOperator.cpp</text>
</a>
</g>
</g>
<!-- Node19&#45;&gt;Node20 -->
<g id="edge24" class="edge">
<title>Node19&#45;&gt;Node20</title>
<path fill="none" stroke="midnightblue" d="M1635,-202.3C1635,-193.3 1635,-183.65 1635,-175.51"/>
<polygon fill="midnightblue" stroke="midnightblue" points="1631.5,-202.43 1635,-212.43 1638.5,-202.43 1631.5,-202.43"/>
</g>
<!-- Node21&#45;&gt;Node5 -->
<g id="edge28" class="edge">
<title>Node21&#45;&gt;Node5</title>
<path fill="none" stroke="midnightblue" d="M1759.44,-216.13C1697.65,-205.01 1613.27,-189.74 1539,-176 1533.38,-174.96 1527.6,-173.89 1521.77,-172.8"/>
<polygon fill="midnightblue" stroke="midnightblue" points="1759.09,-219.62 1769.55,-217.94 1760.33,-212.73 1759.09,-219.62"/>
</g>
<!-- Node22 -->
<g id="node22" class="node">
<title>Node22</title>
<g id="a_node22"><a xlink:href="_reshape_operator_8cpp.html" target="_top" xlink:title=" ">
<polygon fill="white" stroke="black" points="1740.5,-140 1740.5,-170 1955.5,-170 1955.5,-140 1740.5,-140"/>
<text text-anchor="start" x="1748.5" y="-158" font-family="Helvetica,sans-Serif" font-size="10.00">src/backends/tosaCommon</text>
<text text-anchor="middle" x="1848" y="-147" font-family="Helvetica,sans-Serif" font-size="10.00">/operatorMappings/ReshapeOperator.cpp</text>
</a>
</g>
</g>
<!-- Node21&#45;&gt;Node22 -->
<g id="edge27" class="edge">
<title>Node21&#45;&gt;Node22</title>
<path fill="none" stroke="midnightblue" d="M1848,-207.59C1848,-195.26 1848,-180.72 1848,-170.23"/>
<polygon fill="midnightblue" stroke="midnightblue" points="1844.5,-207.7 1848,-217.7 1851.5,-207.71 1844.5,-207.7"/>
</g>
<!-- Node23&#45;&gt;Node5 -->
<g id="edge31" class="edge">
<title>Node23&#45;&gt;Node5</title>
<path fill="none" stroke="midnightblue" d="M1992.78,-216.24C1983.43,-214.67 1974.02,-213.21 1965,-212 1776.69,-186.67 1727.27,-201.65 1539,-176 1533.34,-175.23 1527.52,-174.36 1521.67,-173.42"/>
<polygon fill="midnightblue" stroke="midnightblue" points="1992.42,-219.73 2002.87,-217.97 1993.6,-212.83 1992.42,-219.73"/>
</g>
<!-- Node24 -->
<g id="node24" class="node">
<title>Node24</title>
<g id="a_node24"><a xlink:href="_slice_operator_8cpp.html" target="_top" xlink:title=" ">
<polygon fill="white" stroke="black" points="1974.5,-140 1974.5,-170 2171.5,-170 2171.5,-140 1974.5,-140"/>
<text text-anchor="start" x="1982.5" y="-158" font-family="Helvetica,sans-Serif" font-size="10.00">src/backends/tosaCommon</text>
<text text-anchor="middle" x="2073" y="-147" font-family="Helvetica,sans-Serif" font-size="10.00">/operatorMappings/SliceOperator.cpp</text>
</a>
</g>
</g>
<!-- Node23&#45;&gt;Node24 -->
<g id="edge30" class="edge">
<title>Node23&#45;&gt;Node24</title>
<path fill="none" stroke="midnightblue" d="M2073,-207.59C2073,-195.26 2073,-180.72 2073,-170.23"/>
<polygon fill="midnightblue" stroke="midnightblue" points="2069.5,-207.7 2073,-217.7 2076.5,-207.71 2069.5,-207.7"/>
</g>
<!-- Node25&#45;&gt;Node5 -->
<g id="edge33" class="edge">
<title>Node25&#45;&gt;Node5</title>
<path fill="none" stroke="midnightblue" d="M2179.08,-211.85C1895.51,-178.44 1819.36,-210.16 1539,-176 1533.33,-175.31 1527.51,-174.5 1521.65,-173.61"/>
<polygon fill="midnightblue" stroke="midnightblue" points="2178.91,-215.35 2189.25,-213.06 2179.74,-208.4 2178.91,-215.35"/>
</g>
<!-- Node26 -->
<g id="node26" class="node">
<title>Node26</title>
<g id="a_node26"><a xlink:href="_transpose_conv2d_operator_8cpp.html" target="_top" xlink:title=" ">
<polygon fill="white" stroke="black" points="2189.5,-134.5 2189.5,-175.5 2386.5,-175.5 2386.5,-134.5 2189.5,-134.5"/>
<text text-anchor="start" x="2197.5" y="-163.5" font-family="Helvetica,sans-Serif" font-size="10.00">src/backends/tosaCommon</text>
<text text-anchor="start" x="2197.5" y="-152.5" font-family="Helvetica,sans-Serif" font-size="10.00">/operatorMappings/TransposeConv2d</text>
<text text-anchor="middle" x="2288" y="-141.5" font-family="Helvetica,sans-Serif" font-size="10.00">Operator.cpp</text>
</a>
</g>
</g>
<!-- Node25&#45;&gt;Node26 -->
<g id="edge34" class="edge">
<title>Node25&#45;&gt;Node26</title>
<path fill="none" stroke="midnightblue" d="M2288,-202.3C2288,-193.3 2288,-183.65 2288,-175.51"/>
<polygon fill="midnightblue" stroke="midnightblue" points="2284.5,-202.43 2288,-212.43 2291.5,-202.43 2284.5,-202.43"/>
</g>
<!-- Node27&#45;&gt;Node5 -->
<g id="edge36" class="edge">
<title>Node27&#45;&gt;Node5</title>
<path fill="none" stroke="midnightblue" d="M2430.54,-216.44C2418.96,-214.71 2407.21,-213.17 2396,-212 2016.82,-172.59 1917.74,-219.45 1539,-176 1533.33,-175.35 1527.5,-174.57 1521.64,-173.7"/>
<polygon fill="midnightblue" stroke="midnightblue" points="2430.24,-219.93 2440.66,-217.99 2431.3,-213.01 2430.24,-219.93"/>
</g>
<!-- Node28 -->
<g id="node28" class="node">
<title>Node28</title>
<g id="a_node28"><a xlink:href="_transpose_operator_8cpp.html" target="_top" xlink:title=" ">
<polygon fill="white" stroke="black" points="2405,-140 2405,-170 2627,-170 2627,-140 2405,-140"/>
<text text-anchor="start" x="2413" y="-158" font-family="Helvetica,sans-Serif" font-size="10.00">src/backends/tosaCommon</text>
<text text-anchor="middle" x="2516" y="-147" font-family="Helvetica,sans-Serif" font-size="10.00">/operatorMappings/TransposeOperator.cpp</text>
</a>
</g>
</g>
<!-- Node27&#45;&gt;Node28 -->
<g id="edge37" class="edge">
<title>Node27&#45;&gt;Node28</title>
<path fill="none" stroke="midnightblue" d="M2516,-207.59C2516,-195.26 2516,-180.72 2516,-170.23"/>
<polygon fill="midnightblue" stroke="midnightblue" points="2512.5,-207.7 2516,-217.7 2519.5,-207.71 2512.5,-207.7"/>
</g>
</g>
</svg>
