<?xml version="1.0" encoding="UTF-8" standalone="no"?>
<!DOCTYPE svg PUBLIC "-//W3C//DTD SVG 1.1//EN"
 "http://www.w3.org/Graphics/SVG/1.1/DTD/svg11.dtd">
<!-- Generated by graphviz version 2.43.0 (0)
 -->
<!-- Title: src/backends/tosaReference/TosaRefMemoryManager.cpp Pages: 1 -->
<svg width="582pt" height="207pt"
 viewBox="0.00 0.00 582.00 207.00" xmlns="http://www.w3.org/2000/svg" xmlns:xlink="http://www.w3.org/1999/xlink">
<g id="graph0" class="graph" transform="scale(1 1) rotate(0) translate(4 203)">
<title>src/backends/tosaReference/TosaRefMemoryManager.cpp</title>
<polygon fill="white" stroke="transparent" points="-4,4 -4,-203 578,-203 578,4 -4,4"/>
<!-- Node1 -->
<g id="node1" class="node">
<title>Node1</title>
<g id="a_node1"><a xlink:title=" ">
<polygon fill="#bfbfbf" stroke="black" points="344.5,-168.5 344.5,-198.5 505.5,-198.5 505.5,-168.5 344.5,-168.5"/>
<text text-anchor="start" x="352.5" y="-186.5" font-family="Helvetica,sans-Serif" font-size="10.00">src/backends/tosaReference</text>
<text text-anchor="middle" x="425" y="-175.5" font-family="Helvetica,sans-Serif" font-size="10.00">/TosaRefMemoryManager.cpp</text>
</a>
</g>
</g>
<!-- Node2 -->
<g id="node2" class="node">
<title>Node2</title>
<g id="a_node2"><a xlink:href="_tosa_ref_memory_manager_8hpp.html" target="_top" xlink:title=" ">
<polygon fill="white" stroke="black" points="182,-112.5 182,-131.5 340,-131.5 340,-112.5 182,-112.5"/>
<text text-anchor="middle" x="261" y="-119.5" font-family="Helvetica,sans-Serif" font-size="10.00">TosaRefMemoryManager.hpp</text>
</a>
</g>
</g>
<!-- Node1&#45;&gt;Node2 -->
<g id="edge1" class="edge">
<title>Node1&#45;&gt;Node2</title>
<path fill="none" stroke="midnightblue" d="M386.13,-168.4C358.25,-158.28 321.06,-144.79 294.49,-135.15"/>
<polygon fill="midnightblue" stroke="midnightblue" points="295.46,-131.78 284.86,-131.66 293.07,-138.36 295.46,-131.78"/>
</g>
<!-- Node7 -->
<g id="node7" class="node">
<title>Node7</title>
<g id="a_node7"><a xlink:href="_assert_8hpp.html" target="_top" xlink:title=" ">
<polygon fill="white" stroke="black" points="358,-112.5 358,-131.5 492,-131.5 492,-112.5 358,-112.5"/>
<text text-anchor="middle" x="425" y="-119.5" font-family="Helvetica,sans-Serif" font-size="10.00">armnn/utility/Assert.hpp</text>
</a>
</g>
</g>
<!-- Node1&#45;&gt;Node7 -->
<g id="edge6" class="edge">
<title>Node1&#45;&gt;Node7</title>
<path fill="none" stroke="midnightblue" d="M425,-168.4C425,-160.47 425,-150.46 425,-141.86"/>
<polygon fill="midnightblue" stroke="midnightblue" points="428.5,-141.66 425,-131.66 421.5,-141.66 428.5,-141.66"/>
</g>
<!-- Node9 -->
<g id="node9" class="node">
<title>Node9</title>
<g id="a_node9"><a xlink:title=" ">
<polygon fill="white" stroke="#bfbfbf" points="510,-112.5 510,-131.5 574,-131.5 574,-112.5 510,-112.5"/>
<text text-anchor="middle" x="542" y="-119.5" font-family="Helvetica,sans-Serif" font-size="10.00">algorithm</text>
</a>
</g>
</g>
<!-- Node1&#45;&gt;Node9 -->
<g id="edge8" class="edge">
<title>Node1&#45;&gt;Node9</title>
<path fill="none" stroke="midnightblue" d="M452.73,-168.4C471.83,-158.68 497.06,-145.86 515.82,-136.31"/>
<polygon fill="midnightblue" stroke="midnightblue" points="517.65,-139.31 524.98,-131.66 514.48,-133.07 517.65,-139.31"/>
</g>
<!-- Node3 -->
<g id="node3" class="node">
<title>Node3</title>
<g id="a_node3"><a xlink:href="_i_memory_manager_8hpp.html" target="_top" xlink:title=" ">
<polygon fill="white" stroke="black" points="0,-56.5 0,-75.5 206,-75.5 206,-56.5 0,-56.5"/>
<text text-anchor="middle" x="103" y="-63.5" font-family="Helvetica,sans-Serif" font-size="10.00">armnn/backends/IMemoryManager.hpp</text>
</a>
</g>
</g>
<!-- Node2&#45;&gt;Node3 -->
<g id="edge2" class="edge">
<title>Node2&#45;&gt;Node3</title>
<path fill="none" stroke="midnightblue" d="M235.96,-112.44C209.38,-103.36 167.19,-88.94 137.48,-78.78"/>
<polygon fill="midnightblue" stroke="midnightblue" points="138.51,-75.44 127.92,-75.52 136.25,-82.06 138.51,-75.44"/>
</g>
<!-- Node5 -->
<g id="node5" class="node">
<title>Node5</title>
<g id="a_node5"><a xlink:title=" ">
<polygon fill="white" stroke="#bfbfbf" points="224,-56.5 224,-75.5 298,-75.5 298,-56.5 224,-56.5"/>
<text text-anchor="middle" x="261" y="-63.5" font-family="Helvetica,sans-Serif" font-size="10.00">forward_list</text>
</a>
</g>
</g>
<!-- Node2&#45;&gt;Node5 -->
<g id="edge4" class="edge">
<title>Node2&#45;&gt;Node5</title>
<path fill="none" stroke="midnightblue" d="M261,-112.08C261,-105.01 261,-94.86 261,-85.99"/>
<polygon fill="midnightblue" stroke="midnightblue" points="264.5,-85.75 261,-75.75 257.5,-85.75 264.5,-85.75"/>
</g>
<!-- Node6 -->
<g id="node6" class="node">
<title>Node6</title>
<g id="a_node6"><a xlink:title=" ">
<polygon fill="white" stroke="#bfbfbf" points="316.5,-56.5 316.5,-75.5 363.5,-75.5 363.5,-56.5 316.5,-56.5"/>
<text text-anchor="middle" x="340" y="-63.5" font-family="Helvetica,sans-Serif" font-size="10.00">vector</text>
</a>
</g>
</g>
<!-- Node2&#45;&gt;Node6 -->
<g id="edge5" class="edge">
<title>Node2&#45;&gt;Node6</title>
<path fill="none" stroke="midnightblue" d="M273.69,-112.32C285.9,-103.98 304.58,-91.21 319,-81.35"/>
<polygon fill="midnightblue" stroke="midnightblue" points="321.06,-84.19 327.34,-75.65 317.11,-78.41 321.06,-84.19"/>
</g>
<!-- Node4 -->
<g id="node4" class="node">
<title>Node4</title>
<g id="a_node4"><a xlink:title=" ">
<polygon fill="white" stroke="#bfbfbf" points="74,-0.5 74,-19.5 132,-19.5 132,-0.5 74,-0.5"/>
<text text-anchor="middle" x="103" y="-7.5" font-family="Helvetica,sans-Serif" font-size="10.00">memory</text>
</a>
</g>
</g>
<!-- Node3&#45;&gt;Node4 -->
<g id="edge3" class="edge">
<title>Node3&#45;&gt;Node4</title>
<path fill="none" stroke="midnightblue" d="M103,-56.08C103,-49.01 103,-38.86 103,-29.99"/>
<polygon fill="midnightblue" stroke="midnightblue" points="106.5,-29.75 103,-19.75 99.5,-29.75 106.5,-29.75"/>
</g>
<!-- Node8 -->
<g id="node8" class="node">
<title>Node8</title>
<g id="a_node8"><a xlink:title=" ">
<polygon fill="white" stroke="#bfbfbf" points="399,-56.5 399,-75.5 451,-75.5 451,-56.5 399,-56.5"/>
<text text-anchor="middle" x="425" y="-63.5" font-family="Helvetica,sans-Serif" font-size="10.00">cassert</text>
</a>
</g>
</g>
<!-- Node7&#45;&gt;Node8 -->
<g id="edge7" class="edge">
<title>Node7&#45;&gt;Node8</title>
<path fill="none" stroke="midnightblue" d="M425,-112.08C425,-105.01 425,-94.86 425,-85.99"/>
<polygon fill="midnightblue" stroke="midnightblue" points="428.5,-85.75 425,-75.75 421.5,-85.75 428.5,-85.75"/>
</g>
</g>
</svg>
