<?xml version="1.0" encoding="UTF-8" standalone="no"?>
<!DOCTYPE svg PUBLIC "-//W3C//DTD SVG 1.1//EN"
 "http://www.w3.org/Graphics/SVG/1.1/DTD/svg11.dtd">
<!-- Generated by graphviz version 2.43.0 (0)
 -->
<!-- Title: include/armnnUtils/Transpose.hpp Pages: 1 -->
<svg width="1721pt" height="452pt"
 viewBox="0.00 0.00 1721.00 452.00" xmlns="http://www.w3.org/2000/svg" xmlns:xlink="http://www.w3.org/1999/xlink">
<g id="graph0" class="graph" transform="scale(1 1) rotate(0) translate(4 448)">
<title>include/armnnUtils/Transpose.hpp</title>
<polygon fill="white" stroke="transparent" points="-4,4 -4,-448 1717,-448 1717,4 -4,4"/>
<!-- Node1 -->
<g id="node1" class="node">
<title>Node1</title>
<g id="a_node1"><a xlink:title=" ">
<polygon fill="#bfbfbf" stroke="black" points="661.5,-413.5 661.5,-443.5 770.5,-443.5 770.5,-413.5 661.5,-413.5"/>
<text text-anchor="start" x="669.5" y="-431.5" font-family="Helvetica,sans-Serif" font-size="10.00">include/armnnUtils</text>
<text text-anchor="middle" x="716" y="-420.5" font-family="Helvetica,sans-Serif" font-size="10.00">/Transpose.hpp</text>
</a>
</g>
</g>
<!-- Node2 -->
<g id="node2" class="node">
<title>Node2</title>
<g id="a_node2"><a xlink:href="_transpose_layer_8cpp.html" target="_top" xlink:title=" ">
<polygon fill="white" stroke="black" points="172,-341 172,-371 322,-371 322,-341 172,-341"/>
<text text-anchor="start" x="180" y="-359" font-family="Helvetica,sans-Serif" font-size="10.00">src/armnn/layers/Transpose</text>
<text text-anchor="middle" x="247" y="-348" font-family="Helvetica,sans-Serif" font-size="10.00">Layer.cpp</text>
</a>
</g>
</g>
<!-- Node1&#45;&gt;Node2 -->
<g id="edge1" class="edge">
<title>Node1&#45;&gt;Node2</title>
<path fill="none" stroke="midnightblue" d="M651.21,-421.07C574.44,-412.97 442.83,-397.59 331,-377 321.71,-375.29 311.91,-373.21 302.4,-371.05"/>
<polygon fill="midnightblue" stroke="midnightblue" points="650.9,-424.56 661.21,-422.11 651.63,-417.59 650.9,-424.56"/>
</g>
<!-- Node3 -->
<g id="node3" class="node">
<title>Node3</title>
<g id="a_node3"><a xlink:href="_move_transpose_up_8hpp.html" target="_top" xlink:title=" ">
<polygon fill="white" stroke="black" points="340.5,-341 340.5,-371 475.5,-371 475.5,-341 340.5,-341"/>
<text text-anchor="start" x="348.5" y="-359" font-family="Helvetica,sans-Serif" font-size="10.00">src/armnn/optimizations</text>
<text text-anchor="middle" x="408" y="-348" font-family="Helvetica,sans-Serif" font-size="10.00">/MoveTransposeUp.hpp</text>
</a>
</g>
</g>
<!-- Node1&#45;&gt;Node3 -->
<g id="edge2" class="edge">
<title>Node1&#45;&gt;Node3</title>
<path fill="none" stroke="midnightblue" d="M651.34,-414.07C604.94,-404.26 540.98,-390.38 485,-377 477.21,-375.14 469,-373.09 460.95,-371.04"/>
<polygon fill="midnightblue" stroke="midnightblue" points="650.75,-417.52 661.26,-416.16 652.19,-410.67 650.75,-417.52"/>
</g>
<!-- Node11 -->
<g id="node11" class="node">
<title>Node11</title>
<g id="a_node11"><a xlink:href="_deserializer_8cpp.html" target="_top" xlink:title=" ">
<polygon fill="white" stroke="black" points="494,-341 494,-371 618,-371 618,-341 494,-341"/>
<text text-anchor="start" x="502" y="-359" font-family="Helvetica,sans-Serif" font-size="10.00">src/armnnDeserializer</text>
<text text-anchor="middle" x="556" y="-348" font-family="Helvetica,sans-Serif" font-size="10.00">/Deserializer.cpp</text>
</a>
</g>
</g>
<!-- Node1&#45;&gt;Node11 -->
<g id="edge12" class="edge">
<title>Node1&#45;&gt;Node11</title>
<path fill="none" stroke="midnightblue" d="M674.79,-409.34C647.74,-397.42 612.89,-382.07 587.94,-371.07"/>
<polygon fill="midnightblue" stroke="midnightblue" points="673.44,-412.57 684.01,-413.4 676.27,-406.17 673.44,-412.57"/>
</g>
<!-- Node12 -->
<g id="node12" class="node">
<title>Node12</title>
<g id="a_node12"><a xlink:href="_transpose_8cpp.html" target="_top" xlink:title=" ">
<polygon fill="white" stroke="black" points="636,-346.5 636,-365.5 796,-365.5 796,-346.5 636,-346.5"/>
<text text-anchor="middle" x="716" y="-353.5" font-family="Helvetica,sans-Serif" font-size="10.00">src/armnnUtils/Transpose.cpp</text>
</a>
</g>
</g>
<!-- Node1&#45;&gt;Node12 -->
<g id="edge13" class="edge">
<title>Node1&#45;&gt;Node12</title>
<path fill="none" stroke="midnightblue" d="M716,-403.09C716,-390.21 716,-375.2 716,-365.89"/>
<polygon fill="midnightblue" stroke="midnightblue" points="712.5,-403.23 716,-413.23 719.5,-403.23 712.5,-403.23"/>
</g>
<!-- Node13 -->
<g id="node13" class="node">
<title>Node13</title>
<g id="a_node13"><a xlink:href="_ref_channel_shuffle_workload_8cpp.html" target="_top" xlink:title=" ">
<polygon fill="white" stroke="black" points="814.5,-335.5 814.5,-376.5 977.5,-376.5 977.5,-335.5 814.5,-335.5"/>
<text text-anchor="start" x="822.5" y="-364.5" font-family="Helvetica,sans-Serif" font-size="10.00">src/backends/reference</text>
<text text-anchor="start" x="822.5" y="-353.5" font-family="Helvetica,sans-Serif" font-size="10.00">/workloads/RefChannelShuffle</text>
<text text-anchor="middle" x="896" y="-342.5" font-family="Helvetica,sans-Serif" font-size="10.00">Workload.cpp</text>
</a>
</g>
</g>
<!-- Node1&#45;&gt;Node13 -->
<g id="edge14" class="edge">
<title>Node1&#45;&gt;Node13</title>
<path fill="none" stroke="midnightblue" d="M761.53,-409.67C787.32,-399.57 819.62,-386.92 846.09,-376.55"/>
<polygon fill="midnightblue" stroke="midnightblue" points="760.03,-406.5 751.99,-413.4 762.58,-413.01 760.03,-406.5"/>
</g>
<!-- Node14 -->
<g id="node14" class="node">
<title>Node14</title>
<g id="a_node14"><a xlink:href="_ref_transpose_workload_8cpp.html" target="_top" xlink:title=" ">
<polygon fill="white" stroke="black" points="996,-341 996,-371 1200,-371 1200,-341 996,-341"/>
<text text-anchor="start" x="1004" y="-359" font-family="Helvetica,sans-Serif" font-size="10.00">src/backends/reference</text>
<text text-anchor="middle" x="1098" y="-348" font-family="Helvetica,sans-Serif" font-size="10.00">/workloads/RefTransposeWorkload.cpp</text>
</a>
</g>
</g>
<!-- Node1&#45;&gt;Node14 -->
<g id="edge15" class="edge">
<title>Node1&#45;&gt;Node14</title>
<path fill="none" stroke="midnightblue" d="M780.7,-415.56C847.41,-403.25 951.36,-384.06 1021.95,-371.03"/>
<polygon fill="midnightblue" stroke="midnightblue" points="779.93,-412.14 770.73,-417.4 781.2,-419.03 779.93,-412.14"/>
</g>
<!-- Node15 -->
<g id="node15" class="node">
<title>Node15</title>
<g id="a_node15"><a xlink:href="_conversion_utils_8hpp.html" target="_top" xlink:title=" ">
<polygon fill="white" stroke="black" points="1217.5,-341 1217.5,-371 1376.5,-371 1376.5,-341 1217.5,-341"/>
<text text-anchor="start" x="1225.5" y="-359" font-family="Helvetica,sans-Serif" font-size="10.00">shim/sl/canonical/Conversion</text>
<text text-anchor="middle" x="1297" y="-348" font-family="Helvetica,sans-Serif" font-size="10.00">Utils.hpp</text>
</a>
</g>
</g>
<!-- Node1&#45;&gt;Node15 -->
<g id="edge16" class="edge">
<title>Node1&#45;&gt;Node15</title>
<path fill="none" stroke="midnightblue" d="M780.62,-423.39C875.13,-416.82 1056.43,-402.06 1209,-377 1219.05,-375.35 1229.67,-373.25 1239.92,-371.03"/>
<polygon fill="midnightblue" stroke="midnightblue" points="780.37,-419.9 770.63,-424.08 780.85,-426.89 780.37,-419.9"/>
</g>
<!-- Node4 -->
<g id="node4" class="node">
<title>Node4</title>
<g id="a_node4"><a xlink:href="_all_8hpp.html" target="_top" xlink:title=" ">
<polygon fill="white" stroke="black" points="340.5,-268.5 340.5,-298.5 475.5,-298.5 475.5,-268.5 340.5,-268.5"/>
<text text-anchor="start" x="348.5" y="-286.5" font-family="Helvetica,sans-Serif" font-size="10.00">src/armnn/optimizations</text>
<text text-anchor="middle" x="408" y="-275.5" font-family="Helvetica,sans-Serif" font-size="10.00">/All.hpp</text>
</a>
</g>
</g>
<!-- Node3&#45;&gt;Node4 -->
<g id="edge3" class="edge">
<title>Node3&#45;&gt;Node4</title>
<path fill="none" stroke="midnightblue" d="M408,-330.73C408,-320.07 408,-307.91 408,-298.75"/>
<polygon fill="midnightblue" stroke="midnightblue" points="404.5,-330.73 408,-340.73 411.5,-330.73 404.5,-330.73"/>
</g>
<!-- Node5 -->
<g id="node5" class="node">
<title>Node5</title>
<g id="a_node5"><a xlink:href="_optimizer_8hpp.html" target="_top" xlink:title=" ">
<polygon fill="white" stroke="black" points="339.5,-207 339.5,-226 476.5,-226 476.5,-207 339.5,-207"/>
<text text-anchor="middle" x="408" y="-214" font-family="Helvetica,sans-Serif" font-size="10.00">src/armnn/Optimizer.hpp</text>
</a>
</g>
</g>
<!-- Node4&#45;&gt;Node5 -->
<g id="edge4" class="edge">
<title>Node4&#45;&gt;Node5</title>
<path fill="none" stroke="midnightblue" d="M408,-258.25C408,-247.02 408,-234.38 408,-226.19"/>
<polygon fill="midnightblue" stroke="midnightblue" points="404.5,-258.4 408,-268.4 411.5,-258.4 404.5,-258.4"/>
</g>
<!-- Node6 -->
<g id="node6" class="node">
<title>Node6</title>
<g id="a_node6"><a xlink:href="_network_8cpp.html" target="_top" xlink:title=" ">
<polygon fill="white" stroke="black" points="724,-140 724,-159 854,-159 854,-140 724,-140"/>
<text text-anchor="middle" x="789" y="-147" font-family="Helvetica,sans-Serif" font-size="10.00">src/armnn/Network.cpp</text>
</a>
</g>
</g>
<!-- Node4&#45;&gt;Node6 -->
<g id="edge10" class="edge">
<title>Node4&#45;&gt;Node6</title>
<path fill="none" stroke="midnightblue" d="M458.08,-265.15C540.62,-236.55 702.29,-180.54 764.13,-159.12"/>
<polygon fill="midnightblue" stroke="midnightblue" points="456.72,-261.92 448.41,-268.5 459.01,-268.53 456.72,-261.92"/>
</g>
<!-- Node7 -->
<g id="node7" class="node">
<title>Node7</title>
<g id="a_node7"><a xlink:href="_optimizer_8cpp.html" target="_top" xlink:title=" ">
<polygon fill="white" stroke="black" points="0,-140 0,-159 136,-159 136,-140 0,-140"/>
<text text-anchor="middle" x="68" y="-147" font-family="Helvetica,sans-Serif" font-size="10.00">src/armnn/Optimizer.cpp</text>
</a>
</g>
</g>
<!-- Node4&#45;&gt;Node7 -->
<g id="edge11" class="edge">
<title>Node4&#45;&gt;Node7</title>
<path fill="none" stroke="midnightblue" d="M362.41,-264.8C288.48,-236.1 145.16,-180.46 90.2,-159.12"/>
<polygon fill="midnightblue" stroke="midnightblue" points="361.35,-268.14 371.94,-268.5 363.88,-261.62 361.35,-268.14"/>
</g>
<!-- Node5&#45;&gt;Node6 -->
<g id="edge5" class="edge">
<title>Node5&#45;&gt;Node6</title>
<path fill="none" stroke="midnightblue" d="M472.55,-205.37C534.54,-195.53 630.79,-179.91 714,-165 724.31,-163.15 735.4,-161.06 745.81,-159.06"/>
<polygon fill="midnightblue" stroke="midnightblue" points="471.85,-201.94 462.52,-206.96 472.95,-208.85 471.85,-201.94"/>
</g>
<!-- Node5&#45;&gt;Node7 -->
<g id="edge6" class="edge">
<title>Node5&#45;&gt;Node7</title>
<path fill="none" stroke="midnightblue" d="M353.27,-205.04C286.4,-192.25 174.54,-170.87 112.63,-159.03"/>
<polygon fill="midnightblue" stroke="midnightblue" points="352.72,-208.5 363.2,-206.94 354.04,-201.62 352.72,-208.5"/>
</g>
<!-- Node8 -->
<g id="node8" class="node">
<title>Node8</title>
<g id="a_node8"><a xlink:href="_cl_backend_8cpp.html" target="_top" xlink:title=" ">
<polygon fill="white" stroke="black" points="325.5,-140 325.5,-159 490.5,-159 490.5,-140 325.5,-140"/>
<text text-anchor="middle" x="408" y="-147" font-family="Helvetica,sans-Serif" font-size="10.00">src/backends/cl/ClBackend.cpp</text>
</a>
</g>
</g>
<!-- Node5&#45;&gt;Node8 -->
<g id="edge7" class="edge">
<title>Node5&#45;&gt;Node8</title>
<path fill="none" stroke="midnightblue" d="M408,-196.54C408,-184.17 408,-168.62 408,-159.13"/>
<polygon fill="midnightblue" stroke="midnightblue" points="404.5,-196.73 408,-206.73 411.5,-196.73 404.5,-196.73"/>
</g>
<!-- Node9 -->
<g id="node9" class="node">
<title>Node9</title>
<g id="a_node9"><a xlink:href="_neon_backend_8cpp.html" target="_top" xlink:title=" ">
<polygon fill="white" stroke="black" points="508.5,-140 508.5,-159 705.5,-159 705.5,-140 508.5,-140"/>
<text text-anchor="middle" x="607" y="-147" font-family="Helvetica,sans-Serif" font-size="10.00">src/backends/neon/NeonBackend.cpp</text>
</a>
</g>
</g>
<!-- Node5&#45;&gt;Node9 -->
<g id="edge8" class="edge">
<title>Node5&#45;&gt;Node9</title>
<path fill="none" stroke="midnightblue" d="M444.18,-203.68C483.62,-190.8 545.78,-170.5 580.78,-159.06"/>
<polygon fill="midnightblue" stroke="midnightblue" points="442.84,-200.44 434.43,-206.87 445.02,-207.09 442.84,-200.44"/>
</g>
<!-- Node10 -->
<g id="node10" class="node">
<title>Node10</title>
<g id="a_node10"><a xlink:href="_tosa_ref_backend_8cpp.html" target="_top" xlink:title=" ">
<polygon fill="white" stroke="black" points="154.5,-134.5 154.5,-164.5 307.5,-164.5 307.5,-134.5 154.5,-134.5"/>
<text text-anchor="start" x="162.5" y="-152.5" font-family="Helvetica,sans-Serif" font-size="10.00">src/backends/tosaReference</text>
<text text-anchor="middle" x="231" y="-141.5" font-family="Helvetica,sans-Serif" font-size="10.00">/TosaRefBackend.cpp</text>
</a>
</g>
</g>
<!-- Node5&#45;&gt;Node10 -->
<g id="edge9" class="edge">
<title>Node5&#45;&gt;Node10</title>
<path fill="none" stroke="midnightblue" d="M374.91,-203.35C344.9,-192.33 300.69,-176.09 269.2,-164.53"/>
<polygon fill="midnightblue" stroke="midnightblue" points="373.9,-206.71 384.5,-206.87 376.32,-200.14 373.9,-206.71"/>
</g>
<!-- Node16 -->
<g id="node16" class="node">
<title>Node16</title>
<g id="a_node16"><a xlink:href="_converter_8hpp.html" target="_top" xlink:title=" ">
<polygon fill="white" stroke="black" points="1302.5,-274 1302.5,-293 1475.5,-293 1475.5,-274 1302.5,-274"/>
<text text-anchor="middle" x="1389" y="-281" font-family="Helvetica,sans-Serif" font-size="10.00">shim/sl/canonical/Converter.hpp</text>
</a>
</g>
</g>
<!-- Node15&#45;&gt;Node16 -->
<g id="edge17" class="edge">
<title>Node15&#45;&gt;Node16</title>
<path fill="none" stroke="midnightblue" d="M1323.95,-334.34C1341.82,-320.65 1364.35,-303.39 1377.66,-293.19"/>
<polygon fill="midnightblue" stroke="midnightblue" points="1321.43,-331.87 1315.62,-340.73 1325.68,-337.43 1321.43,-331.87"/>
</g>
<!-- Node25 -->
<g id="node25" class="node">
<title>Node25</title>
<g id="a_node25"><a xlink:href="_conversion_utils_8cpp.html" target="_top" xlink:title=" ">
<polygon fill="white" stroke="black" points="1125.5,-268.5 1125.5,-298.5 1284.5,-298.5 1284.5,-268.5 1125.5,-268.5"/>
<text text-anchor="start" x="1133.5" y="-286.5" font-family="Helvetica,sans-Serif" font-size="10.00">shim/sl/canonical/Conversion</text>
<text text-anchor="middle" x="1205" y="-275.5" font-family="Helvetica,sans-Serif" font-size="10.00">Utils.cpp</text>
</a>
</g>
</g>
<!-- Node15&#45;&gt;Node25 -->
<g id="edge30" class="edge">
<title>Node15&#45;&gt;Node25</title>
<path fill="none" stroke="midnightblue" d="M1270.39,-334.61C1255.28,-323.03 1236.75,-308.83 1223.28,-298.5"/>
<polygon fill="midnightblue" stroke="midnightblue" points="1268.32,-337.43 1278.38,-340.73 1272.57,-331.87 1268.32,-337.43"/>
</g>
<!-- Node17 -->
<g id="node17" class="node">
<title>Node17</title>
<g id="a_node17"><a xlink:href="_armnn_driver_8hpp.html" target="_top" xlink:title=" ">
<polygon fill="white" stroke="black" points="1216.5,-140 1216.5,-159 1403.5,-159 1403.5,-140 1216.5,-140"/>
<text text-anchor="middle" x="1310" y="-147" font-family="Helvetica,sans-Serif" font-size="10.00">shim/sl/canonical/ArmnnDriver.hpp</text>
</a>
</g>
</g>
<!-- Node16&#45;&gt;Node17 -->
<g id="edge18" class="edge">
<title>Node16&#45;&gt;Node17</title>
<path fill="none" stroke="midnightblue" d="M1378.3,-265.25C1372.29,-255.52 1364.68,-243.11 1358,-232 1342.09,-205.54 1323.66,-173.99 1314.99,-159.1"/>
<polygon fill="midnightblue" stroke="midnightblue" points="1375.45,-267.29 1383.69,-273.95 1381.4,-263.61 1375.45,-267.29"/>
</g>
<!-- Node22 -->
<g id="node22" class="node">
<title>Node22</title>
<g id="a_node22"><a xlink:href="_model_to_i_network_transformer_8hpp.html" target="_top" xlink:title=" ">
<polygon fill="white" stroke="black" points="1367.5,-201.5 1367.5,-231.5 1512.5,-231.5 1512.5,-201.5 1367.5,-201.5"/>
<text text-anchor="start" x="1375.5" y="-219.5" font-family="Helvetica,sans-Serif" font-size="10.00">shim/sl/canonical/ModelTo</text>
<text text-anchor="middle" x="1440" y="-208.5" font-family="Helvetica,sans-Serif" font-size="10.00">INetworkTransformer.hpp</text>
</a>
</g>
</g>
<!-- Node16&#45;&gt;Node22 -->
<g id="edge23" class="edge">
<title>Node16&#45;&gt;Node22</title>
<path fill="none" stroke="midnightblue" d="M1402.2,-265.67C1410.5,-255.09 1421.09,-241.6 1428.95,-231.59"/>
<polygon fill="midnightblue" stroke="midnightblue" points="1399.3,-263.71 1395.88,-273.73 1404.8,-268.03 1399.3,-263.71"/>
</g>
<!-- Node23 -->
<g id="node23" class="node">
<title>Node23</title>
<g id="a_node23"><a xlink:href="_model_to_i_network_transformer_8cpp.html" target="_top" xlink:title=" ">
<polygon fill="white" stroke="black" points="1497.5,-134.5 1497.5,-164.5 1642.5,-164.5 1642.5,-134.5 1497.5,-134.5"/>
<text text-anchor="start" x="1505.5" y="-152.5" font-family="Helvetica,sans-Serif" font-size="10.00">shim/sl/canonical/ModelTo</text>
<text text-anchor="middle" x="1570" y="-141.5" font-family="Helvetica,sans-Serif" font-size="10.00">INetworkTransformer.cpp</text>
</a>
</g>
</g>
<!-- Node16&#45;&gt;Node23 -->
<g id="edge29" class="edge">
<title>Node16&#45;&gt;Node23</title>
<path fill="none" stroke="midnightblue" d="M1440.83,-271.26C1467.04,-263.58 1498.07,-251.21 1521,-232 1543.02,-213.55 1557.74,-182.53 1564.92,-164.55"/>
<polygon fill="midnightblue" stroke="midnightblue" points="1439.74,-267.93 1431.04,-273.98 1441.62,-274.68 1439.74,-267.93"/>
</g>
<!-- Node24 -->
<g id="node24" class="node">
<title>Node24</title>
<g id="a_node24"><a xlink:href="_converter_8cpp.html" target="_top" xlink:title=" ">
<polygon fill="white" stroke="black" points="1139,-207 1139,-226 1311,-226 1311,-207 1139,-207"/>
<text text-anchor="middle" x="1225" y="-214" font-family="Helvetica,sans-Serif" font-size="10.00">shim/sl/canonical/Converter.cpp</text>
</a>
</g>
</g>
<!-- Node16&#45;&gt;Node24 -->
<g id="edge28" class="edge">
<title>Node16&#45;&gt;Node24</title>
<path fill="none" stroke="midnightblue" d="M1357.72,-270.1C1325.16,-257.2 1275.03,-237.33 1246.61,-226.06"/>
<polygon fill="midnightblue" stroke="midnightblue" points="1356.64,-273.44 1367.22,-273.87 1359.22,-266.93 1356.64,-273.44"/>
</g>
<!-- Node18 -->
<g id="node18" class="node">
<title>Node18</title>
<g id="a_node18"><a xlink:href="_armnn_prepared_model_8hpp.html" target="_top" xlink:title=" ">
<polygon fill="white" stroke="black" points="1459,-67.5 1459,-97.5 1639,-97.5 1639,-67.5 1459,-67.5"/>
<text text-anchor="start" x="1467" y="-85.5" font-family="Helvetica,sans-Serif" font-size="10.00">shim/sl/canonical/ArmnnPrepared</text>
<text text-anchor="middle" x="1549" y="-74.5" font-family="Helvetica,sans-Serif" font-size="10.00">Model.hpp</text>
</a>
</g>
</g>
<!-- Node17&#45;&gt;Node18 -->
<g id="edge19" class="edge">
<title>Node17&#45;&gt;Node18</title>
<path fill="none" stroke="midnightblue" d="M1351.56,-137.2C1392.07,-126.18 1453.79,-109.39 1497.42,-97.53"/>
<polygon fill="midnightblue" stroke="midnightblue" points="1350.47,-133.87 1341.74,-139.87 1352.31,-140.62 1350.47,-133.87"/>
</g>
<!-- Node21 -->
<g id="node21" class="node">
<title>Node21</title>
<g id="a_node21"><a xlink:href="support__library__service_8cpp.html" target="_top" xlink:title=" ">
<polygon fill="white" stroke="black" points="1246,-67.5 1246,-97.5 1374,-97.5 1374,-67.5 1246,-67.5"/>
<text text-anchor="start" x="1254" y="-85.5" font-family="Helvetica,sans-Serif" font-size="10.00">shim/sl/support_library</text>
<text text-anchor="middle" x="1310" y="-74.5" font-family="Helvetica,sans-Serif" font-size="10.00">_service.cpp</text>
</a>
</g>
</g>
<!-- Node17&#45;&gt;Node21 -->
<g id="edge22" class="edge">
<title>Node17&#45;&gt;Node21</title>
<path fill="none" stroke="midnightblue" d="M1310,-129.41C1310,-119.22 1310,-106.9 1310,-97.59"/>
<polygon fill="midnightblue" stroke="midnightblue" points="1306.5,-129.73 1310,-139.73 1313.5,-129.73 1306.5,-129.73"/>
</g>
<!-- Node19 -->
<g id="node19" class="node">
<title>Node19</title>
<g id="a_node19"><a xlink:href="_armnn_driver_impl_8cpp.html" target="_top" xlink:title=" ">
<polygon fill="white" stroke="black" points="1347.5,-0.5 1347.5,-30.5 1514.5,-30.5 1514.5,-0.5 1347.5,-0.5"/>
<text text-anchor="start" x="1355.5" y="-18.5" font-family="Helvetica,sans-Serif" font-size="10.00">shim/sl/canonical/ArmnnDriver</text>
<text text-anchor="middle" x="1431" y="-7.5" font-family="Helvetica,sans-Serif" font-size="10.00">Impl.cpp</text>
</a>
</g>
</g>
<!-- Node18&#45;&gt;Node19 -->
<g id="edge20" class="edge">
<title>Node18&#45;&gt;Node19</title>
<path fill="none" stroke="midnightblue" d="M1514.39,-62.44C1495.88,-52.24 1473.48,-39.9 1456.55,-30.58"/>
<polygon fill="midnightblue" stroke="midnightblue" points="1512.95,-65.64 1523.4,-67.4 1516.33,-59.51 1512.95,-65.64"/>
</g>
<!-- Node20 -->
<g id="node20" class="node">
<title>Node20</title>
<g id="a_node20"><a xlink:href="_armnn_prepared_model_8cpp.html" target="_top" xlink:title=" ">
<polygon fill="white" stroke="black" points="1533,-0.5 1533,-30.5 1713,-30.5 1713,-0.5 1533,-0.5"/>
<text text-anchor="start" x="1541" y="-18.5" font-family="Helvetica,sans-Serif" font-size="10.00">shim/sl/canonical/ArmnnPrepared</text>
<text text-anchor="middle" x="1623" y="-7.5" font-family="Helvetica,sans-Serif" font-size="10.00">Model.cpp</text>
</a>
</g>
</g>
<!-- Node18&#45;&gt;Node20 -->
<g id="edge21" class="edge">
<title>Node18&#45;&gt;Node20</title>
<path fill="none" stroke="midnightblue" d="M1572.8,-60.6C1583.97,-50.78 1596.99,-39.34 1606.97,-30.58"/>
<polygon fill="midnightblue" stroke="midnightblue" points="1570.26,-58.17 1565.06,-67.4 1574.88,-63.43 1570.26,-58.17"/>
</g>
<!-- Node22&#45;&gt;Node17 -->
<g id="edge24" class="edge">
<title>Node22&#45;&gt;Node17</title>
<path fill="none" stroke="midnightblue" d="M1402.61,-196.8C1377.68,-184.34 1346.11,-168.56 1327.01,-159.01"/>
<polygon fill="midnightblue" stroke="midnightblue" points="1401.28,-200.05 1411.79,-201.4 1404.41,-193.79 1401.28,-200.05"/>
</g>
<!-- Node22&#45;&gt;Node18 -->
<g id="edge25" class="edge">
<title>Node22&#45;&gt;Node18</title>
<path fill="none" stroke="midnightblue" d="M1451.06,-192.01C1459.74,-174.92 1472.86,-151.76 1488,-134 1499.86,-120.08 1515.86,-107 1528.5,-97.63"/>
<polygon fill="midnightblue" stroke="midnightblue" points="1447.77,-190.76 1446.48,-201.28 1454.05,-193.86 1447.77,-190.76"/>
</g>
<!-- Node22&#45;&gt;Node19 -->
<g id="edge26" class="edge">
<title>Node22&#45;&gt;Node19</title>
<path fill="none" stroke="midnightblue" d="M1438.89,-191C1436.99,-148.93 1433.16,-64.26 1431.64,-30.68"/>
<polygon fill="midnightblue" stroke="midnightblue" points="1435.4,-191.36 1439.35,-201.19 1442.4,-191.04 1435.4,-191.36"/>
</g>
<!-- Node22&#45;&gt;Node23 -->
<g id="edge27" class="edge">
<title>Node22&#45;&gt;Node23</title>
<path fill="none" stroke="midnightblue" d="M1477.29,-196.85C1497.85,-186.58 1522.95,-174.03 1541.85,-164.58"/>
<polygon fill="midnightblue" stroke="midnightblue" points="1475.59,-193.79 1468.21,-201.4 1478.72,-200.05 1475.59,-193.79"/>
</g>
</g>
</svg>
