<?xml version="1.0" encoding="UTF-8" standalone="no"?>
<!DOCTYPE svg PUBLIC "-//W3C//DTD SVG 1.1//EN"
 "http://www.w3.org/Graphics/SVG/1.1/DTD/svg11.dtd">
<!-- Generated by graphviz version 2.43.0 (0)
 -->
<!-- Title: RefMeanWorkload Pages: 1 -->
<svg width="1738pt" height="242pt"
 viewBox="0.00 0.00 1738.00 242.00" xmlns="http://www.w3.org/2000/svg" xmlns:xlink="http://www.w3.org/1999/xlink">
<g id="graph0" class="graph" transform="scale(1 1) rotate(0) translate(4 238)">
<title>RefMeanWorkload</title>
<polygon fill="white" stroke="transparent" points="-4,4 -4,-238 1734,-238 1734,4 -4,4"/>
<!-- Node1 -->
<g id="node1" class="node">
<title>Node1</title>
<g id="a_node1"><a xlink:title=" ">
<polygon fill="#bfbfbf" stroke="black" points="1624,-36.5 1624,-55.5 1730,-55.5 1730,-36.5 1624,-36.5"/>
<text text-anchor="middle" x="1677" y="-43.5" font-family="Helvetica,sans-Serif" font-size="10.00">RefMeanWorkload</text>
</a>
</g>
</g>
<!-- Node2 -->
<g id="node2" class="node">
<title>Node2</title>
<g id="a_node2"><a xlink:href="classarmnn_1_1_ref_base_workload.html" target="_top" xlink:title=" ">
<polygon fill="white" stroke="black" points="1414,-31 1414,-61 1587,-61 1587,-31 1414,-31"/>
<text text-anchor="start" x="1422" y="-49" font-family="Helvetica,sans-Serif" font-size="10.00">RefBaseWorkload&lt; MeanQueue</text>
<text text-anchor="middle" x="1500.5" y="-38" font-family="Helvetica,sans-Serif" font-size="10.00">Descriptor &gt;</text>
</a>
</g>
</g>
<!-- Node2&#45;&gt;Node1 -->
<g id="edge1" class="edge">
<title>Node2&#45;&gt;Node1</title>
<path fill="none" stroke="midnightblue" d="M1597.39,-46C1606.37,-46 1615.22,-46 1623.57,-46"/>
<polygon fill="midnightblue" stroke="midnightblue" points="1597.22,-42.5 1587.22,-46 1597.22,-49.5 1597.22,-42.5"/>
</g>
<!-- Node3 -->
<g id="node3" class="node">
<title>Node3</title>
<g id="a_node3"><a xlink:href="classarmnn_1_1_base_workload.html" target="_top" xlink:title=" ">
<polygon fill="white" stroke="black" points="1025,-60.5 1025,-79.5 1243,-79.5 1243,-60.5 1025,-60.5"/>
<text text-anchor="middle" x="1134" y="-67.5" font-family="Helvetica,sans-Serif" font-size="10.00">BaseWorkload&lt; MeanQueueDescriptor &gt;</text>
</a>
</g>
</g>
<!-- Node3&#45;&gt;Node2 -->
<g id="edge2" class="edge">
<title>Node3&#45;&gt;Node2</title>
<path fill="none" stroke="midnightblue" d="M1253.38,-62.21C1305.66,-58.76 1365.96,-54.79 1413.8,-51.64"/>
<polygon fill="midnightblue" stroke="midnightblue" points="1253.12,-58.71 1243.38,-62.86 1253.58,-65.7 1253.12,-58.71"/>
</g>
<!-- Node4 -->
<g id="node4" class="node">
<title>Node4</title>
<g id="a_node4"><a xlink:href="classarmnn_1_1_i_workload.html" target="_top" xlink:title="Workload interface to enqueue a layer computation.">
<polygon fill="white" stroke="black" points="505.5,-38.5 505.5,-57.5 570.5,-57.5 570.5,-38.5 505.5,-38.5"/>
<text text-anchor="middle" x="538" y="-45.5" font-family="Helvetica,sans-Serif" font-size="10.00">IWorkload</text>
</a>
</g>
</g>
<!-- Node4&#45;&gt;Node3 -->
<g id="edge3" class="edge">
<title>Node4&#45;&gt;Node3</title>
<path fill="none" stroke="midnightblue" d="M580.74,-49.55C672,-52.93 891.76,-61.07 1024.91,-66"/>
<polygon fill="midnightblue" stroke="midnightblue" points="580.64,-46.04 570.52,-49.17 580.38,-53.04 580.64,-46.04"/>
</g>
<!-- Node11 -->
<g id="node11" class="node">
<title>Node11</title>
<g id="a_node11"><a xlink:href="classarmnn_1_1_base_workload.html" target="_top" xlink:title=" ">
<polygon fill="white" stroke="black" points="663,-76.5 663,-95.5 854,-95.5 854,-76.5 663,-76.5"/>
<text text-anchor="middle" x="758.5" y="-83.5" font-family="Helvetica,sans-Serif" font-size="10.00">BaseWorkload&lt; QueueDescriptor &gt;</text>
</a>
</g>
</g>
<!-- Node4&#45;&gt;Node11 -->
<g id="edge12" class="edge">
<title>Node4&#45;&gt;Node11</title>
<path fill="none" stroke="midnightblue" d="M581.02,-55.31C615.68,-61.34 665.11,-69.93 702.84,-76.49"/>
<polygon fill="midnightblue" stroke="midnightblue" points="581.22,-51.79 570.77,-53.53 580.02,-58.69 581.22,-51.79"/>
</g>
<!-- Node13 -->
<g id="node13" class="node">
<title>Node13</title>
<g id="a_node13"><a xlink:href="classarmnn_1_1_base_workload.html" target="_top" xlink:title=" ">
<polygon fill="white" stroke="black" points="663,-0.5 663,-19.5 854,-19.5 854,-0.5 663,-0.5"/>
<text text-anchor="middle" x="758.5" y="-7.5" font-family="Helvetica,sans-Serif" font-size="10.00">BaseWorkload&lt; QueueDescriptor &gt;</text>
</a>
</g>
</g>
<!-- Node4&#45;&gt;Node13 -->
<g id="edge16" class="edge">
<title>Node4&#45;&gt;Node13</title>
<path fill="none" stroke="midnightblue" d="M581.02,-40.69C615.68,-34.66 665.11,-26.07 702.84,-19.51"/>
<polygon fill="midnightblue" stroke="midnightblue" points="580.02,-37.31 570.77,-42.47 581.22,-44.21 580.02,-37.31"/>
</g>
<!-- Node5 -->
<g id="node5" class="node">
<title>Node5</title>
<g id="a_node5"><a xlink:href="structarmnn_1_1_mean_queue_descriptor.html" target="_top" xlink:title=" ">
<polygon fill="white" stroke="black" points="696,-145.5 696,-164.5 821,-164.5 821,-145.5 696,-145.5"/>
<text text-anchor="middle" x="758.5" y="-152.5" font-family="Helvetica,sans-Serif" font-size="10.00">MeanQueueDescriptor</text>
</a>
</g>
</g>
<!-- Node5&#45;&gt;Node3 -->
<g id="edge4" class="edge">
<title>Node5&#45;&gt;Node3</title>
<path fill="none" stroke="#9a32cd" stroke-dasharray="5,2" d="M811.38,-143.19C886.11,-126.19 1022.58,-95.13 1091.23,-79.51"/>
<polygon fill="#9a32cd" stroke="#9a32cd" points="810.23,-139.86 801.26,-145.5 811.79,-146.69 810.23,-139.86"/>
<text text-anchor="middle" x="939.5" y="-130" font-family="Helvetica,sans-Serif" font-size="10.00"> m_Data</text>
</g>
<!-- Node6 -->
<g id="node6" class="node">
<title>Node6</title>
<g id="a_node6"><a xlink:href="structarmnn_1_1_queue_descriptor_with_parameters.html" target="_top" xlink:title=" ">
<polygon fill="white" stroke="black" points="450,-156 450,-186 626,-186 626,-156 450,-156"/>
<text text-anchor="start" x="458" y="-174" font-family="Helvetica,sans-Serif" font-size="10.00">QueueDescriptorWithParameters</text>
<text text-anchor="middle" x="538" y="-163" font-family="Helvetica,sans-Serif" font-size="10.00">&lt; MeanDescriptor &gt;</text>
</a>
</g>
</g>
<!-- Node6&#45;&gt;Node5 -->
<g id="edge5" class="edge">
<title>Node6&#45;&gt;Node5</title>
<path fill="none" stroke="midnightblue" d="M636.47,-163.86C656.67,-162.38 677.41,-160.86 695.88,-159.51"/>
<polygon fill="midnightblue" stroke="midnightblue" points="636.02,-160.39 626.3,-164.61 636.53,-167.37 636.02,-160.39"/>
</g>
<!-- Node7 -->
<g id="node7" class="node">
<title>Node7</title>
<g id="a_node7"><a xlink:href="structarmnn_1_1_queue_descriptor.html" target="_top" xlink:title=" ">
<polygon fill="white" stroke="black" points="0,-101.5 0,-120.5 98,-120.5 98,-101.5 0,-101.5"/>
<text text-anchor="middle" x="49" y="-108.5" font-family="Helvetica,sans-Serif" font-size="10.00">QueueDescriptor</text>
</a>
</g>
</g>
<!-- Node7&#45;&gt;Node6 -->
<g id="edge6" class="edge">
<title>Node7&#45;&gt;Node6</title>
<path fill="none" stroke="midnightblue" d="M67.86,-127.12C84.07,-140.62 109.3,-158.93 135,-167 239.38,-199.77 366.65,-193.91 449.65,-184.44"/>
<polygon fill="midnightblue" stroke="midnightblue" points="70.12,-124.44 60.25,-120.58 65.55,-129.75 70.12,-124.44"/>
</g>
<!-- Node10 -->
<g id="node10" class="node">
<title>Node10</title>
<g id="a_node10"><a xlink:href="structarmnn_1_1_queue_descriptor_with_parameters.html" target="_top" xlink:title=" ">
<polygon fill="white" stroke="black" points="135,-127 135,-157 311,-157 311,-127 135,-127"/>
<text text-anchor="start" x="143" y="-145" font-family="Helvetica,sans-Serif" font-size="10.00">QueueDescriptorWithParameters</text>
<text text-anchor="middle" x="223" y="-134" font-family="Helvetica,sans-Serif" font-size="10.00">&lt; LayerDescriptor &gt;</text>
</a>
</g>
</g>
<!-- Node7&#45;&gt;Node10 -->
<g id="edge10" class="edge">
<title>Node7&#45;&gt;Node10</title>
<path fill="none" stroke="midnightblue" d="M108.29,-121.51C118.02,-123.26 128.28,-125.11 138.49,-126.95"/>
<polygon fill="midnightblue" stroke="midnightblue" points="108.83,-118.05 98.37,-119.72 107.59,-124.94 108.83,-118.05"/>
</g>
<!-- Node7&#45;&gt;Node11 -->
<g id="edge13" class="edge">
<title>Node7&#45;&gt;Node11</title>
<path fill="none" stroke="#9a32cd" stroke-dasharray="5,2" d="M108.34,-108.94C230.5,-104.62 514.18,-94.6 662.81,-89.35"/>
<polygon fill="#9a32cd" stroke="#9a32cd" points="107.94,-105.45 98.07,-109.3 108.19,-112.45 107.94,-105.45"/>
<text text-anchor="middle" x="380.5" y="-104" font-family="Helvetica,sans-Serif" font-size="10.00"> m_Data</text>
</g>
<!-- Node7&#45;&gt;Node13 -->
<g id="edge17" class="edge">
<title>Node7&#45;&gt;Node13</title>
<path fill="none" stroke="#9a32cd" stroke-dasharray="5,2" d="M97.49,-99C172.04,-80.69 321.31,-46.08 450,-29 521.05,-19.57 601.97,-14.81 662.96,-12.41"/>
<polygon fill="#9a32cd" stroke="#9a32cd" points="96.35,-95.68 87.48,-101.48 98.02,-102.48 96.35,-95.68"/>
<text text-anchor="middle" x="380.5" y="-52" font-family="Helvetica,sans-Serif" font-size="10.00"> m_Data</text>
</g>
<!-- Node8 -->
<g id="node8" class="node">
<title>Node8</title>
<g id="a_node8"><a xlink:href="structarmnn_1_1_mean_descriptor.html" target="_top" xlink:title="A MeanDescriptor for the MeanLayer.">
<polygon fill="white" stroke="black" points="176,-214.5 176,-233.5 270,-233.5 270,-214.5 176,-214.5"/>
<text text-anchor="middle" x="223" y="-221.5" font-family="Helvetica,sans-Serif" font-size="10.00">MeanDescriptor</text>
</a>
</g>
</g>
<!-- Node8&#45;&gt;Node6 -->
<g id="edge7" class="edge">
<title>Node8&#45;&gt;Node6</title>
<path fill="none" stroke="#9a32cd" stroke-dasharray="5,2" d="M280.19,-219.41C322.23,-215.45 381.02,-208.81 432,-199 449.88,-195.56 469.2,-190.73 486.33,-186.06"/>
<polygon fill="#9a32cd" stroke="#9a32cd" points="279.78,-215.93 270.14,-220.33 280.42,-222.9 279.78,-215.93"/>
<text text-anchor="middle" x="380.5" y="-217" font-family="Helvetica,sans-Serif" font-size="10.00"> m_Parameters</text>
</g>
<!-- Node9 -->
<g id="node9" class="node">
<title>Node9</title>
<g id="a_node9"><a xlink:href="structarmnn_1_1_base_descriptor.html" target="_top" xlink:title="Base class for all descriptors.">
<polygon fill="white" stroke="black" points="3.5,-214.5 3.5,-233.5 94.5,-233.5 94.5,-214.5 3.5,-214.5"/>
<text text-anchor="middle" x="49" y="-221.5" font-family="Helvetica,sans-Serif" font-size="10.00">BaseDescriptor</text>
</a>
</g>
</g>
<!-- Node9&#45;&gt;Node8 -->
<g id="edge8" class="edge">
<title>Node9&#45;&gt;Node8</title>
<path fill="none" stroke="midnightblue" d="M104.99,-224C127.88,-224 154.14,-224 175.98,-224"/>
<polygon fill="midnightblue" stroke="midnightblue" points="104.74,-220.5 94.74,-224 104.74,-227.5 104.74,-220.5"/>
</g>
<!-- Node10&#45;&gt;Node6 -->
<g id="edge9" class="edge">
<title>Node10&#45;&gt;Node6</title>
<path fill="none" stroke="orange" stroke-dasharray="5,2" d="M321.24,-150.8C356.17,-153.99 395.85,-157.63 432,-161 437.83,-161.54 443.85,-162.11 449.91,-162.68"/>
<polygon fill="orange" stroke="orange" points="321.32,-147.3 311.04,-149.88 320.68,-154.27 321.32,-147.3"/>
<text text-anchor="middle" x="380.5" y="-164" font-family="Helvetica,sans-Serif" font-size="10.00"> &lt; MeanDescriptor &gt;</text>
</g>
<!-- Node11&#45;&gt;Node3 -->
<g id="edge11" class="edge">
<title>Node11&#45;&gt;Node3</title>
<path fill="none" stroke="orange" stroke-dasharray="5,2" d="M864.43,-81.5C914.5,-79.36 974.34,-76.8 1024.82,-74.63"/>
<polygon fill="orange" stroke="orange" points="864.07,-78.02 854.23,-81.94 864.37,-85.01 864.07,-78.02"/>
<text text-anchor="middle" x="939.5" y="-83" font-family="Helvetica,sans-Serif" font-size="10.00"> &lt; MeanQueueDescriptor &gt;</text>
</g>
<!-- Node12 -->
<g id="node12" class="node">
<title>Node12</title>
<g id="a_node12"><a xlink:href="classarmnn_1_1_ref_base_workload.html" target="_top" xlink:title=" ">
<polygon fill="white" stroke="black" points="1030.5,-17.5 1030.5,-36.5 1237.5,-36.5 1237.5,-17.5 1030.5,-17.5"/>
<text text-anchor="middle" x="1134" y="-24.5" font-family="Helvetica,sans-Serif" font-size="10.00">RefBaseWorkload&lt; QueueDescriptor &gt;</text>
</a>
</g>
</g>
<!-- Node12&#45;&gt;Node2 -->
<g id="edge14" class="edge">
<title>Node12&#45;&gt;Node2</title>
<path fill="none" stroke="orange" stroke-dasharray="5,2" d="M1247.64,-30.12C1293.66,-31.71 1347.41,-33.96 1396,-37 1401.85,-37.37 1407.88,-37.78 1413.96,-38.24"/>
<polygon fill="orange" stroke="orange" points="1247.75,-26.62 1237.63,-29.78 1247.51,-33.62 1247.75,-26.62"/>
<text text-anchor="middle" x="1328.5" y="-40" font-family="Helvetica,sans-Serif" font-size="10.00"> &lt; MeanQueueDescriptor &gt;</text>
</g>
<!-- Node13&#45;&gt;Node12 -->
<g id="edge15" class="edge">
<title>Node13&#45;&gt;Node12</title>
<path fill="none" stroke="midnightblue" d="M864.48,-14.78C916.42,-17.14 978.89,-19.99 1030.5,-22.33"/>
<polygon fill="midnightblue" stroke="midnightblue" points="864.38,-11.27 854.23,-14.31 864.06,-18.26 864.38,-11.27"/>
</g>
</g>
</svg>
