<?xml version="1.0" encoding="UTF-8" standalone="no"?>
<!DOCTYPE svg PUBLIC "-//W3C//DTD SVG 1.1//EN"
 "http://www.w3.org/Graphics/SVG/1.1/DTD/svg11.dtd">
<!-- Generated by graphviz version 2.43.0 (0)
 -->
<!-- Title: BaseMemoryManager Pages: 1 -->
<svg width="262pt" height="140pt"
 viewBox="0.00 0.00 261.50 140.00" xmlns="http://www.w3.org/2000/svg" xmlns:xlink="http://www.w3.org/1999/xlink">
<g id="graph0" class="graph" transform="scale(1 1) rotate(0) translate(4 136)">
<title>BaseMemoryManager</title>
<polygon fill="white" stroke="transparent" points="-4,4 -4,-136 257.5,-136 257.5,4 -4,4"/>
<!-- Node1 -->
<g id="node1" class="node">
<title>Node1</title>
<g id="a_node1"><a xlink:title=" ">
<polygon fill="#bfbfbf" stroke="black" points="61,-56.5 61,-75.5 185,-75.5 185,-56.5 61,-56.5"/>
<text text-anchor="middle" x="123" y="-63.5" font-family="Helvetica,sans-Serif" font-size="10.00">BaseMemoryManager</text>
</a>
</g>
</g>
<!-- Node3 -->
<g id="node3" class="node">
<title>Node3</title>
<g id="a_node3"><a xlink:href="classarmnn_1_1_cl_memory_manager.html" target="_top" xlink:title=" ">
<polygon fill="white" stroke="black" points="0,-0.5 0,-19.5 110,-19.5 110,-0.5 0,-0.5"/>
<text text-anchor="middle" x="55" y="-7.5" font-family="Helvetica,sans-Serif" font-size="10.00">ClMemoryManager</text>
</a>
</g>
</g>
<!-- Node1&#45;&gt;Node3 -->
<g id="edge2" class="edge">
<title>Node1&#45;&gt;Node3</title>
<path fill="none" stroke="midnightblue" d="M104.24,-50.1C92,-40.38 76.44,-28.03 66.12,-19.83"/>
<polygon fill="midnightblue" stroke="midnightblue" points="102.07,-52.85 112.07,-56.32 106.42,-47.36 102.07,-52.85"/>
</g>
<!-- Node4 -->
<g id="node4" class="node">
<title>Node4</title>
<g id="a_node4"><a xlink:href="classarmnn_1_1_neon_memory_manager.html" target="_top" xlink:title=" ">
<polygon fill="white" stroke="black" points="128.5,-0.5 128.5,-19.5 253.5,-19.5 253.5,-0.5 128.5,-0.5"/>
<text text-anchor="middle" x="191" y="-7.5" font-family="Helvetica,sans-Serif" font-size="10.00">NeonMemoryManager</text>
</a>
</g>
</g>
<!-- Node1&#45;&gt;Node4 -->
<g id="edge3" class="edge">
<title>Node1&#45;&gt;Node4</title>
<path fill="none" stroke="midnightblue" d="M141.76,-50.1C154,-40.38 169.56,-28.03 179.88,-19.83"/>
<polygon fill="midnightblue" stroke="midnightblue" points="139.58,-47.36 133.93,-56.32 143.93,-52.85 139.58,-47.36"/>
</g>
<!-- Node2 -->
<g id="node2" class="node">
<title>Node2</title>
<g id="a_node2"><a xlink:href="classarmnn_1_1_i_memory_manager.html" target="_top" xlink:title=" ">
<polygon fill="white" stroke="black" points="71.5,-112.5 71.5,-131.5 174.5,-131.5 174.5,-112.5 71.5,-112.5"/>
<text text-anchor="middle" x="123" y="-119.5" font-family="Helvetica,sans-Serif" font-size="10.00">IMemoryManager</text>
</a>
</g>
</g>
<!-- Node2&#45;&gt;Node1 -->
<g id="edge1" class="edge">
<title>Node2&#45;&gt;Node1</title>
<path fill="none" stroke="midnightblue" d="M123,-101.8C123,-92.91 123,-82.78 123,-75.75"/>
<polygon fill="midnightblue" stroke="midnightblue" points="119.5,-102.08 123,-112.08 126.5,-102.08 119.5,-102.08"/>
</g>
</g>
</svg>
