<?xml version="1.0" encoding="UTF-8" standalone="no"?>
<!DOCTYPE svg PUBLIC "-//W3C//DTD SVG 1.1//EN"
 "http://www.w3.org/Graphics/SVG/1.1/DTD/svg11.dtd">
<!-- Generated by graphviz version 2.43.0 (0)
 -->
<!-- Title: RefLogicalUnaryWorkload Pages: 1 -->
<svg width="1970pt" height="242pt"
 viewBox="0.00 0.00 1970.00 242.00" xmlns="http://www.w3.org/2000/svg" xmlns:xlink="http://www.w3.org/1999/xlink">
<g id="graph0" class="graph" transform="scale(1 1) rotate(0) translate(4 238)">
<title>RefLogicalUnaryWorkload</title>
<polygon fill="white" stroke="transparent" points="-4,4 -4,-238 1966,-238 1966,4 -4,4"/>
<!-- Node1 -->
<g id="node1" class="node">
<title>Node1</title>
<g id="a_node1"><a xlink:title=" ">
<polygon fill="#bfbfbf" stroke="black" points="1819,-36.5 1819,-55.5 1962,-55.5 1962,-36.5 1819,-36.5"/>
<text text-anchor="middle" x="1890.5" y="-43.5" font-family="Helvetica,sans-Serif" font-size="10.00">RefLogicalUnaryWorkload</text>
</a>
</g>
</g>
<!-- Node2 -->
<g id="node2" class="node">
<title>Node2</title>
<g id="a_node2"><a xlink:href="classarmnn_1_1_ref_base_workload.html" target="_top" xlink:title=" ">
<polygon fill="white" stroke="black" points="1605,-31 1605,-61 1782,-61 1782,-31 1605,-31"/>
<text text-anchor="start" x="1613" y="-49" font-family="Helvetica,sans-Serif" font-size="10.00">RefBaseWorkload&lt; Elementwise</text>
<text text-anchor="middle" x="1693.5" y="-38" font-family="Helvetica,sans-Serif" font-size="10.00">UnaryQueueDescriptor &gt;</text>
</a>
</g>
</g>
<!-- Node2&#45;&gt;Node1 -->
<g id="edge1" class="edge">
<title>Node2&#45;&gt;Node1</title>
<path fill="none" stroke="midnightblue" d="M1792.18,-46C1801.2,-46 1810.21,-46 1818.92,-46"/>
<polygon fill="midnightblue" stroke="midnightblue" points="1792.02,-42.5 1782.02,-46 1792.02,-49.5 1792.02,-42.5"/>
</g>
<!-- Node3 -->
<g id="node3" class="node">
<title>Node3</title>
<g id="a_node3"><a xlink:href="classarmnn_1_1_base_workload.html" target="_top" xlink:title=" ">
<polygon fill="white" stroke="black" points="1185,-56 1185,-86 1346,-86 1346,-56 1185,-56"/>
<text text-anchor="start" x="1193" y="-74" font-family="Helvetica,sans-Serif" font-size="10.00">BaseWorkload&lt; Elementwise</text>
<text text-anchor="middle" x="1265.5" y="-63" font-family="Helvetica,sans-Serif" font-size="10.00">UnaryQueueDescriptor &gt;</text>
</a>
</g>
</g>
<!-- Node3&#45;&gt;Node2 -->
<g id="edge2" class="edge">
<title>Node3&#45;&gt;Node2</title>
<path fill="none" stroke="midnightblue" d="M1356.25,-65.73C1429.43,-61.44 1532.21,-55.41 1604.82,-51.15"/>
<polygon fill="midnightblue" stroke="midnightblue" points="1355.91,-62.25 1346.13,-66.33 1356.32,-69.24 1355.91,-62.25"/>
</g>
<!-- Node4 -->
<g id="node4" class="node">
<title>Node4</title>
<g id="a_node4"><a xlink:href="classarmnn_1_1_i_workload.html" target="_top" xlink:title="Workload interface to enqueue a layer computation.">
<polygon fill="white" stroke="black" points="574.5,-38.5 574.5,-57.5 639.5,-57.5 639.5,-38.5 574.5,-38.5"/>
<text text-anchor="middle" x="607" y="-45.5" font-family="Helvetica,sans-Serif" font-size="10.00">IWorkload</text>
</a>
</g>
</g>
<!-- Node4&#45;&gt;Node3 -->
<g id="edge3" class="edge">
<title>Node4&#45;&gt;Node3</title>
<path fill="none" stroke="midnightblue" d="M649.78,-49.46C757.17,-53.23 1044.2,-63.28 1184.74,-68.21"/>
<polygon fill="midnightblue" stroke="midnightblue" points="649.78,-45.96 639.66,-49.11 649.54,-52.96 649.78,-45.96"/>
</g>
<!-- Node11 -->
<g id="node11" class="node">
<title>Node11</title>
<g id="a_node11"><a xlink:href="classarmnn_1_1_base_workload.html" target="_top" xlink:title=" ">
<polygon fill="white" stroke="black" points="735,-76.5 735,-95.5 926,-95.5 926,-76.5 735,-76.5"/>
<text text-anchor="middle" x="830.5" y="-83.5" font-family="Helvetica,sans-Serif" font-size="10.00">BaseWorkload&lt; QueueDescriptor &gt;</text>
</a>
</g>
</g>
<!-- Node4&#45;&gt;Node11 -->
<g id="edge12" class="edge">
<title>Node4&#45;&gt;Node11</title>
<path fill="none" stroke="midnightblue" d="M649.65,-55.15C684.76,-61.17 735.28,-69.84 773.85,-76.45"/>
<polygon fill="midnightblue" stroke="midnightblue" points="650.18,-51.69 639.74,-53.44 649,-58.59 650.18,-51.69"/>
</g>
<!-- Node13 -->
<g id="node13" class="node">
<title>Node13</title>
<g id="a_node13"><a xlink:href="classarmnn_1_1_base_workload.html" target="_top" xlink:title=" ">
<polygon fill="white" stroke="black" points="735,-0.5 735,-19.5 926,-19.5 926,-0.5 735,-0.5"/>
<text text-anchor="middle" x="830.5" y="-7.5" font-family="Helvetica,sans-Serif" font-size="10.00">BaseWorkload&lt; QueueDescriptor &gt;</text>
</a>
</g>
</g>
<!-- Node4&#45;&gt;Node13 -->
<g id="edge16" class="edge">
<title>Node4&#45;&gt;Node13</title>
<path fill="none" stroke="midnightblue" d="M649.65,-40.85C684.76,-34.83 735.28,-26.16 773.85,-19.55"/>
<polygon fill="midnightblue" stroke="midnightblue" points="649,-37.41 639.74,-42.56 650.18,-44.31 649,-37.41"/>
</g>
<!-- Node5 -->
<g id="node5" class="node">
<title>Node5</title>
<g id="a_node5"><a xlink:href="structarmnn_1_1_elementwise_unary_queue_descriptor.html" target="_top" xlink:title=" ">
<polygon fill="white" stroke="black" points="735,-145.5 735,-164.5 926,-164.5 926,-145.5 735,-145.5"/>
<text text-anchor="middle" x="830.5" y="-152.5" font-family="Helvetica,sans-Serif" font-size="10.00">ElementwiseUnaryQueueDescriptor</text>
</a>
</g>
</g>
<!-- Node5&#45;&gt;Node3 -->
<g id="edge4" class="edge">
<title>Node5&#45;&gt;Node3</title>
<path fill="none" stroke="#9a32cd" stroke-dasharray="5,2" d="M893.72,-143.59C956.83,-131.94 1057.3,-113.18 1144,-96 1159.93,-92.84 1177.02,-89.36 1193.18,-86.02"/>
<polygon fill="#9a32cd" stroke="#9a32cd" points="892.73,-140.22 883.53,-145.47 894,-147.1 892.73,-140.22"/>
<text text-anchor="middle" x="1044" y="-136" font-family="Helvetica,sans-Serif" font-size="10.00"> m_Data</text>
</g>
<!-- Node6 -->
<g id="node6" class="node">
<title>Node6</title>
<g id="a_node6"><a xlink:href="structarmnn_1_1_queue_descriptor_with_parameters.html" target="_top" xlink:title=" ">
<polygon fill="white" stroke="black" points="516,-156 516,-186 698,-186 698,-156 516,-156"/>
<text text-anchor="start" x="524" y="-174" font-family="Helvetica,sans-Serif" font-size="10.00">QueueDescriptorWithParameters</text>
<text text-anchor="middle" x="607" y="-163" font-family="Helvetica,sans-Serif" font-size="10.00">&lt; ElementwiseUnaryDescriptor &gt;</text>
</a>
</g>
</g>
<!-- Node6&#45;&gt;Node5 -->
<g id="edge5" class="edge">
<title>Node6&#45;&gt;Node5</title>
<path fill="none" stroke="midnightblue" d="M708.08,-163.77C716.97,-163.13 725.96,-162.48 734.8,-161.84"/>
<polygon fill="midnightblue" stroke="midnightblue" points="707.81,-160.28 698.09,-164.49 708.32,-167.26 707.81,-160.28"/>
</g>
<!-- Node7 -->
<g id="node7" class="node">
<title>Node7</title>
<g id="a_node7"><a xlink:href="structarmnn_1_1_queue_descriptor.html" target="_top" xlink:title=" ">
<polygon fill="white" stroke="black" points="0,-101.5 0,-120.5 98,-120.5 98,-101.5 0,-101.5"/>
<text text-anchor="middle" x="49" y="-108.5" font-family="Helvetica,sans-Serif" font-size="10.00">QueueDescriptor</text>
</a>
</g>
</g>
<!-- Node7&#45;&gt;Node6 -->
<g id="edge6" class="edge">
<title>Node7&#45;&gt;Node6</title>
<path fill="none" stroke="midnightblue" d="M67.86,-127.12C84.07,-140.62 109.3,-158.93 135,-167 262.56,-207.04 419.31,-197.57 515.92,-185.49"/>
<polygon fill="midnightblue" stroke="midnightblue" points="70.12,-124.44 60.25,-120.58 65.55,-129.75 70.12,-124.44"/>
</g>
<!-- Node10 -->
<g id="node10" class="node">
<title>Node10</title>
<g id="a_node10"><a xlink:href="structarmnn_1_1_queue_descriptor_with_parameters.html" target="_top" xlink:title=" ">
<polygon fill="white" stroke="black" points="135,-127 135,-157 311,-157 311,-127 135,-127"/>
<text text-anchor="start" x="143" y="-145" font-family="Helvetica,sans-Serif" font-size="10.00">QueueDescriptorWithParameters</text>
<text text-anchor="middle" x="223" y="-134" font-family="Helvetica,sans-Serif" font-size="10.00">&lt; LayerDescriptor &gt;</text>
</a>
</g>
</g>
<!-- Node7&#45;&gt;Node10 -->
<g id="edge10" class="edge">
<title>Node7&#45;&gt;Node10</title>
<path fill="none" stroke="midnightblue" d="M108.29,-121.51C118.02,-123.26 128.28,-125.11 138.49,-126.95"/>
<polygon fill="midnightblue" stroke="midnightblue" points="108.83,-118.05 98.37,-119.72 107.59,-124.94 108.83,-118.05"/>
</g>
<!-- Node7&#45;&gt;Node11 -->
<g id="edge13" class="edge">
<title>Node7&#45;&gt;Node11</title>
<path fill="none" stroke="#9a32cd" stroke-dasharray="5,2" d="M108.21,-109.13C241.85,-104.85 571.66,-94.27 734.88,-89.03"/>
<polygon fill="#9a32cd" stroke="#9a32cd" points="108.06,-105.64 98.17,-109.46 108.28,-112.63 108.06,-105.64"/>
<text text-anchor="middle" x="413.5" y="-105" font-family="Helvetica,sans-Serif" font-size="10.00"> m_Data</text>
</g>
<!-- Node7&#45;&gt;Node13 -->
<g id="edge17" class="edge">
<title>Node7&#45;&gt;Node13</title>
<path fill="none" stroke="#9a32cd" stroke-dasharray="5,2" d="M104.28,-99.38C190.89,-81.3 365.92,-46.69 516,-29 589.24,-20.37 672.6,-15.55 734.94,-12.93"/>
<polygon fill="#9a32cd" stroke="#9a32cd" points="103.48,-95.97 94.41,-101.45 104.92,-102.82 103.48,-95.97"/>
<text text-anchor="middle" x="413.5" y="-60" font-family="Helvetica,sans-Serif" font-size="10.00"> m_Data</text>
</g>
<!-- Node8 -->
<g id="node8" class="node">
<title>Node8</title>
<g id="a_node8"><a xlink:href="structarmnn_1_1_elementwise_unary_descriptor.html" target="_top" xlink:title="A ElementwiseUnaryDescriptor for the ElementwiseUnaryLayer.">
<polygon fill="white" stroke="black" points="143.5,-214.5 143.5,-233.5 302.5,-233.5 302.5,-214.5 143.5,-214.5"/>
<text text-anchor="middle" x="223" y="-221.5" font-family="Helvetica,sans-Serif" font-size="10.00">ElementwiseUnaryDescriptor</text>
</a>
</g>
</g>
<!-- Node8&#45;&gt;Node6 -->
<g id="edge7" class="edge">
<title>Node8&#45;&gt;Node6</title>
<path fill="none" stroke="#9a32cd" stroke-dasharray="5,2" d="M312.9,-219.56C366.75,-215.96 436.66,-209.68 498,-199 516.8,-195.73 537.12,-190.83 555.01,-186.04"/>
<polygon fill="#9a32cd" stroke="#9a32cd" points="312.44,-216.08 302.69,-220.22 312.9,-223.07 312.44,-216.08"/>
<text text-anchor="middle" x="413.5" y="-220" font-family="Helvetica,sans-Serif" font-size="10.00"> m_Parameters</text>
</g>
<!-- Node9 -->
<g id="node9" class="node">
<title>Node9</title>
<g id="a_node9"><a xlink:href="structarmnn_1_1_base_descriptor.html" target="_top" xlink:title="Base class for all descriptors.">
<polygon fill="white" stroke="black" points="3.5,-214.5 3.5,-233.5 94.5,-233.5 94.5,-214.5 3.5,-214.5"/>
<text text-anchor="middle" x="49" y="-221.5" font-family="Helvetica,sans-Serif" font-size="10.00">BaseDescriptor</text>
</a>
</g>
</g>
<!-- Node9&#45;&gt;Node8 -->
<g id="edge8" class="edge">
<title>Node9&#45;&gt;Node8</title>
<path fill="none" stroke="midnightblue" d="M104.76,-224C116.98,-224 130.18,-224 143.17,-224"/>
<polygon fill="midnightblue" stroke="midnightblue" points="104.74,-220.5 94.74,-224 104.74,-227.5 104.74,-220.5"/>
</g>
<!-- Node10&#45;&gt;Node6 -->
<g id="edge9" class="edge">
<title>Node10&#45;&gt;Node6</title>
<path fill="none" stroke="orange" stroke-dasharray="5,2" d="M321.33,-148.2C373.7,-151.68 439.41,-156.26 498,-161 503.82,-161.47 509.81,-161.97 515.85,-162.5"/>
<polygon fill="orange" stroke="orange" points="321.25,-144.69 311.04,-147.52 320.78,-151.67 321.25,-144.69"/>
<text text-anchor="middle" x="413.5" y="-164" font-family="Helvetica,sans-Serif" font-size="10.00"> &lt; ElementwiseUnaryDescriptor &gt;</text>
</g>
<!-- Node11&#45;&gt;Node3 -->
<g id="edge11" class="edge">
<title>Node11&#45;&gt;Node3</title>
<path fill="none" stroke="orange" stroke-dasharray="5,2" d="M936.4,-82.37C1012.89,-79.72 1114.97,-76.18 1184.83,-73.76"/>
<polygon fill="orange" stroke="orange" points="936.13,-78.87 926.26,-82.72 936.37,-85.87 936.13,-78.87"/>
<text text-anchor="middle" x="1044" y="-84" font-family="Helvetica,sans-Serif" font-size="10.00"> &lt; ElementwiseUnaryQueueDescriptor &gt;</text>
</g>
<!-- Node12 -->
<g id="node12" class="node">
<title>Node12</title>
<g id="a_node12"><a xlink:href="classarmnn_1_1_ref_base_workload.html" target="_top" xlink:title=" ">
<polygon fill="white" stroke="black" points="1162,-14.5 1162,-33.5 1369,-33.5 1369,-14.5 1162,-14.5"/>
<text text-anchor="middle" x="1265.5" y="-21.5" font-family="Helvetica,sans-Serif" font-size="10.00">RefBaseWorkload&lt; QueueDescriptor &gt;</text>
</a>
</g>
</g>
<!-- Node12&#45;&gt;Node2 -->
<g id="edge14" class="edge">
<title>Node12&#45;&gt;Node2</title>
<path fill="none" stroke="orange" stroke-dasharray="5,2" d="M1379.14,-28.04C1440.6,-30.46 1518.01,-33.88 1587,-38 1592.78,-38.35 1598.73,-38.73 1604.72,-39.13"/>
<polygon fill="orange" stroke="orange" points="1379.15,-24.54 1369.02,-27.64 1378.88,-31.53 1379.15,-24.54"/>
<text text-anchor="middle" x="1487" y="-41" font-family="Helvetica,sans-Serif" font-size="10.00"> &lt; ElementwiseUnaryQueueDescriptor &gt;</text>
</g>
<!-- Node13&#45;&gt;Node12 -->
<g id="edge15" class="edge">
<title>Node13&#45;&gt;Node12</title>
<path fill="none" stroke="midnightblue" d="M936.62,-13.4C1004.99,-15.61 1093.72,-18.48 1161.63,-20.67"/>
<polygon fill="midnightblue" stroke="midnightblue" points="936.36,-9.89 926.26,-13.06 936.14,-16.89 936.36,-9.89"/>
</g>
</g>
</svg>
