<?xml version="1.0" encoding="UTF-8" standalone="no"?>
<!DOCTYPE svg PUBLIC "-//W3C//DTD SVG 1.1//EN"
 "http://www.w3.org/Graphics/SVG/1.1/DTD/svg11.dtd">
<!-- Generated by graphviz version 2.43.0 (0)
 -->
<!-- Title: src Pages: 1 -->
<svg width="828pt" height="292pt"
 viewBox="0.00 0.00 828.46 292.00" xmlns="http://www.w3.org/2000/svg" xmlns:xlink="http://www.w3.org/1999/xlink">
<g id="graph0" class="graph" transform="scale(1 1) rotate(0) translate(4 288)">
<title>src</title>
<polygon fill="white" stroke="transparent" points="-4,4 -4,-288 824.46,-288 824.46,4 -4,4"/>
<g id="clust1" class="cluster">
<title>clusterdir_68267d1309a1af8e8297ef4c3efbcdba</title>
<g id="a_clust1"><a xlink:href="dir_68267d1309a1af8e8297ef4c3efbcdba.html" target="_top">
<polygon fill="#eeeeff" stroke="black" points="8,-8 8,-276 612,-276 612,-8 8,-8"/>
</a>
</g>
</g>
<!-- dir_68267d1309a1af8e8297ef4c3efbcdba -->
<g id="node1" class="node">
<title>dir_68267d1309a1af8e8297ef4c3efbcdba</title>
<text text-anchor="middle" x="577" y="-247.5" font-family="Helvetica,sans-Serif" font-size="10.00">src</text>
</g>
<!-- dir_e0a84d05c80a2ef4231141dcbbeac5c8 -->
<g id="node2" class="node">
<title>dir_e0a84d05c80a2ef4231141dcbbeac5c8</title>
<g id="a_node2"><a xlink:href="dir_e0a84d05c80a2ef4231141dcbbeac5c8.html" target="_top" xlink:title="armnn">
<polygon fill="white" stroke="red" points="365,-196 311,-196 311,-160 365,-160 365,-196"/>
<text text-anchor="middle" x="338" y="-175.5" font-family="Helvetica,sans-Serif" font-size="10.00">armnn</text>
</a>
</g>
</g>
<!-- dir_5d9c764a006d252ff232a5efbbd99a46 -->
<g id="node9" class="node">
<title>dir_5d9c764a006d252ff232a5efbbd99a46</title>
<g id="a_node9"><a xlink:href="dir_5d9c764a006d252ff232a5efbbd99a46.html" target="_top" xlink:title="armnnUtils">
<polygon fill="white" stroke="black" points="267.5,-52 196.5,-52 196.5,-16 267.5,-16 267.5,-52"/>
<text text-anchor="middle" x="232" y="-31.5" font-family="Helvetica,sans-Serif" font-size="10.00">armnnUtils</text>
</a>
</g>
</g>
<!-- dir_e0a84d05c80a2ef4231141dcbbeac5c8&#45;&gt;dir_5d9c764a006d252ff232a5efbbd99a46 -->
<g id="edge16" class="edge">
<title>dir_e0a84d05c80a2ef4231141dcbbeac5c8&#45;&gt;dir_5d9c764a006d252ff232a5efbbd99a46</title>
<path fill="none" stroke="black" d="M310.58,-176.43C242.94,-174.37 72.21,-165.01 38,-124 -5.14,-72.29 116.19,-48.43 186.32,-39.47"/>
<polygon fill="black" stroke="black" points="186.77,-42.95 196.27,-38.26 185.92,-36 186.77,-42.95"/>
<g id="a_edge16&#45;headlabel"><a xlink:href="dir_000028_000036.html" target="_top" xlink:title="6">
<text text-anchor="middle" x="183.55" y="-43.7" font-family="Helvetica,sans-Serif" font-size="10.00">6</text>
</a>
</g>
</g>
<!-- dir_0f3cdec46afbc61a1ded8e1687c9c9a0 -->
<g id="node10" class="node">
<title>dir_0f3cdec46afbc61a1ded8e1687c9c9a0</title>
<g id="a_node10"><a xlink:href="dir_0f3cdec46afbc61a1ded8e1687c9c9a0.html" target="_top" xlink:title="backends">
<polygon fill="white" stroke="red" points="480,-124 418,-124 418,-88 480,-88 480,-124"/>
<text text-anchor="middle" x="449" y="-103.5" font-family="Helvetica,sans-Serif" font-size="10.00">backends</text>
</a>
</g>
</g>
<!-- dir_e0a84d05c80a2ef4231141dcbbeac5c8&#45;&gt;dir_0f3cdec46afbc61a1ded8e1687c9c9a0 -->
<g id="edge17" class="edge">
<title>dir_e0a84d05c80a2ef4231141dcbbeac5c8&#45;&gt;dir_0f3cdec46afbc61a1ded8e1687c9c9a0</title>
<path fill="none" stroke="black" d="M359.26,-159.88C373.45,-150.29 392.4,-138.27 409.28,-128.11"/>
<polygon fill="black" stroke="black" points="411.07,-131.11 417.88,-122.99 407.49,-125.1 411.07,-131.11"/>
<g id="a_edge17&#45;headlabel"><a xlink:href="dir_000028_000022.html" target="_top" xlink:title="15">
<text text-anchor="middle" x="409.44" y="-132.89" font-family="Helvetica,sans-Serif" font-size="10.00">15</text>
</a>
</g>
</g>
<!-- dir_d44c64559bbebec7f509842c48db8b23 -->
<g id="node13" class="node">
<title>dir_d44c64559bbebec7f509842c48db8b23</title>
<g id="a_node13"><a xlink:href="dir_d44c64559bbebec7f509842c48db8b23.html" target="_top" xlink:title="include">
<polygon fill="white" stroke="red" points="674,-52 620,-52 620,-16 674,-16 674,-52"/>
<text text-anchor="middle" x="647" y="-31.5" font-family="Helvetica,sans-Serif" font-size="10.00">include</text>
</a>
</g>
</g>
<!-- dir_e0a84d05c80a2ef4231141dcbbeac5c8&#45;&gt;dir_d44c64559bbebec7f509842c48db8b23 -->
<g id="edge18" class="edge">
<title>dir_e0a84d05c80a2ef4231141dcbbeac5c8&#45;&gt;dir_d44c64559bbebec7f509842c48db8b23</title>
<path fill="none" stroke="black" d="M365.44,-175.06C427.39,-170.17 575.57,-155.41 613,-124 631.26,-108.68 639.73,-82.41 643.66,-62.37"/>
<polygon fill="black" stroke="black" points="647.15,-62.71 645.36,-52.26 640.25,-61.54 647.15,-62.71"/>
<g id="a_edge18&#45;headlabel"><a xlink:href="dir_000028_000008.html" target="_top" xlink:title="441">
<text text-anchor="middle" x="649.35" y="-64.22" font-family="Helvetica,sans-Serif" font-size="10.00">441</text>
</a>
</g>
</g>
<!-- dir_1cecd92008b1a3747ae7e54827a5b075 -->
<g id="node3" class="node">
<title>dir_1cecd92008b1a3747ae7e54827a5b075</title>
<g id="a_node3"><a xlink:href="dir_1cecd92008b1a3747ae7e54827a5b075.html" target="_top" xlink:title="armnnConverter">
<polygon fill="white" stroke="black" points="400,-124 304,-124 304,-88 400,-88 400,-124"/>
<text text-anchor="middle" x="352" y="-103.5" font-family="Helvetica,sans-Serif" font-size="10.00">armnnConverter</text>
</a>
</g>
</g>
<!-- dir_1cecd92008b1a3747ae7e54827a5b075&#45;&gt;dir_5d9c764a006d252ff232a5efbbd99a46 -->
<g id="edge1" class="edge">
<title>dir_1cecd92008b1a3747ae7e54827a5b075&#45;&gt;dir_5d9c764a006d252ff232a5efbbd99a46</title>
<path fill="none" stroke="black" d="M322.64,-87.88C306.95,-78.72 287.44,-67.34 270.55,-57.48"/>
<polygon fill="black" stroke="black" points="271.87,-54.21 261.47,-52.19 268.34,-60.25 271.87,-54.21"/>
<g id="a_edge1&#45;headlabel"><a xlink:href="dir_000021_000036.html" target="_top" xlink:title="1">
<text text-anchor="middle" x="276.41" y="-51.06" font-family="Helvetica,sans-Serif" font-size="10.00">1</text>
</a>
</g>
</g>
<!-- dir_1cecd92008b1a3747ae7e54827a5b075&#45;&gt;dir_d44c64559bbebec7f509842c48db8b23 -->
<g id="edge2" class="edge">
<title>dir_1cecd92008b1a3747ae7e54827a5b075&#45;&gt;dir_d44c64559bbebec7f509842c48db8b23</title>
<path fill="none" stroke="black" d="M400.1,-90.22C403.1,-89.43 406.08,-88.69 409,-88 496.7,-67.37 525.82,-81.77 610.37,-53.76"/>
<polygon fill="black" stroke="black" points="611.51,-57.07 619.84,-50.53 609.25,-50.45 611.51,-57.07"/>
<g id="a_edge2&#45;headlabel"><a xlink:href="dir_000021_000008.html" target="_top" xlink:title="3">
<text text-anchor="middle" x="609.03" y="-58.42" font-family="Helvetica,sans-Serif" font-size="10.00">3</text>
</a>
</g>
</g>
<!-- dir_926e64104daaa2ed9ca6061297f76df9 -->
<g id="node4" class="node">
<title>dir_926e64104daaa2ed9ca6061297f76df9</title>
<g id="a_node4"><a xlink:href="dir_926e64104daaa2ed9ca6061297f76df9.html" target="_top" xlink:title="armnnDeserializer">
<polygon fill="white" stroke="black" points="285.5,-124 178.5,-124 178.5,-88 285.5,-88 285.5,-124"/>
<text text-anchor="middle" x="232" y="-103.5" font-family="Helvetica,sans-Serif" font-size="10.00">armnnDeserializer</text>
</a>
</g>
</g>
<!-- dir_926e64104daaa2ed9ca6061297f76df9&#45;&gt;dir_5d9c764a006d252ff232a5efbbd99a46 -->
<g id="edge14" class="edge">
<title>dir_926e64104daaa2ed9ca6061297f76df9&#45;&gt;dir_5d9c764a006d252ff232a5efbbd99a46</title>
<path fill="none" stroke="black" d="M232,-87.7C232,-79.98 232,-70.71 232,-62.11"/>
<polygon fill="black" stroke="black" points="235.5,-62.1 232,-52.1 228.5,-62.1 235.5,-62.1"/>
<g id="a_edge14&#45;headlabel"><a xlink:href="dir_000031_000036.html" target="_top" xlink:title="2">
<text text-anchor="middle" x="238.34" y="-63.2" font-family="Helvetica,sans-Serif" font-size="10.00">2</text>
</a>
</g>
</g>
<!-- dir_926e64104daaa2ed9ca6061297f76df9&#45;&gt;dir_d44c64559bbebec7f509842c48db8b23 -->
<g id="edge15" class="edge">
<title>dir_926e64104daaa2ed9ca6061297f76df9&#45;&gt;dir_d44c64559bbebec7f509842c48db8b23</title>
<path fill="none" stroke="black" d="M285.83,-89.9C288.92,-89.21 291.99,-88.57 295,-88 432.74,-61.85 477.06,-93.77 610.14,-53.64"/>
<polygon fill="black" stroke="black" points="611.36,-56.93 619.87,-50.62 609.29,-50.24 611.36,-56.93"/>
<g id="a_edge15&#45;headlabel"><a xlink:href="dir_000031_000008.html" target="_top" xlink:title="13">
<text text-anchor="middle" x="608.76" y="-58.2" font-family="Helvetica,sans-Serif" font-size="10.00">13</text>
</a>
</g>
</g>
<!-- dir_29e3193d5087607956cb928081b12830 -->
<g id="node5" class="node">
<title>dir_29e3193d5087607956cb928081b12830</title>
<g id="a_node5"><a xlink:href="dir_29e3193d5087607956cb928081b12830.html" target="_top" xlink:title="armnnOnnxParser">
<polygon fill="white" stroke="black" points="160,-124 56,-124 56,-88 160,-88 160,-124"/>
<text text-anchor="middle" x="108" y="-103.5" font-family="Helvetica,sans-Serif" font-size="10.00">armnnOnnxParser</text>
</a>
</g>
</g>
<!-- dir_29e3193d5087607956cb928081b12830&#45;&gt;dir_5d9c764a006d252ff232a5efbbd99a46 -->
<g id="edge12" class="edge">
<title>dir_29e3193d5087607956cb928081b12830&#45;&gt;dir_5d9c764a006d252ff232a5efbbd99a46</title>
<path fill="none" stroke="black" d="M138.33,-87.88C154.7,-78.64 175.08,-67.13 192.65,-57.21"/>
<polygon fill="black" stroke="black" points="194.56,-60.15 201.55,-52.19 191.12,-54.06 194.56,-60.15"/>
<g id="a_edge12&#45;headlabel"><a xlink:href="dir_000032_000036.html" target="_top" xlink:title="2">
<text text-anchor="middle" x="192.83" y="-61.89" font-family="Helvetica,sans-Serif" font-size="10.00">2</text>
</a>
</g>
</g>
<!-- dir_29e3193d5087607956cb928081b12830&#45;&gt;dir_d44c64559bbebec7f509842c48db8b23 -->
<g id="edge13" class="edge">
<title>dir_29e3193d5087607956cb928081b12830&#45;&gt;dir_d44c64559bbebec7f509842c48db8b23</title>
<path fill="none" stroke="black" d="M160.09,-89.78C163.09,-89.12 166.08,-88.52 169,-88 361.87,-53.68 422.98,-107.29 610.02,-53.57"/>
<polygon fill="black" stroke="black" points="611.28,-56.85 619.89,-50.67 609.31,-50.13 611.28,-56.85"/>
<g id="a_edge13&#45;headlabel"><a xlink:href="dir_000032_000008.html" target="_top" xlink:title="6">
<text text-anchor="middle" x="608.63" y="-58.09" font-family="Helvetica,sans-Serif" font-size="10.00">6</text>
</a>
</g>
</g>
<!-- dir_bff0d59bec81fb3d13742442d8f4421d -->
<g id="node6" class="node">
<title>dir_bff0d59bec81fb3d13742442d8f4421d</title>
<g id="a_node6"><a xlink:href="dir_bff0d59bec81fb3d13742442d8f4421d.html" target="_top" xlink:title="armnnSerializer">
<polygon fill="white" stroke="black" points="416,-268 322,-268 322,-232 416,-232 416,-268"/>
<text text-anchor="middle" x="369" y="-247.5" font-family="Helvetica,sans-Serif" font-size="10.00">armnnSerializer</text>
</a>
</g>
</g>
<!-- dir_bff0d59bec81fb3d13742442d8f4421d&#45;&gt;dir_d44c64559bbebec7f509842c48db8b23 -->
<g id="edge23" class="edge">
<title>dir_bff0d59bec81fb3d13742442d8f4421d&#45;&gt;dir_d44c64559bbebec7f509842c48db8b23</title>
<path fill="none" stroke="black" d="M416.2,-233.99C419.16,-233.26 422.11,-232.59 425,-232 498.37,-217.06 709.97,-251.7 760,-196 792.08,-160.29 785.75,-128.51 760,-88 743.43,-61.93 710.27,-48.46 684.13,-41.64"/>
<polygon fill="black" stroke="black" points="684.69,-38.17 674.15,-39.26 683.07,-44.98 684.69,-38.17"/>
<g id="a_edge23&#45;headlabel"><a xlink:href="dir_000033_000008.html" target="_top" xlink:title="9">
<text text-anchor="middle" x="688.85" y="-33.74" font-family="Helvetica,sans-Serif" font-size="10.00">9</text>
</a>
</g>
</g>
<!-- dir_f574f3650e467f7ec35d628d20229555 -->
<g id="node7" class="node">
<title>dir_f574f3650e467f7ec35d628d20229555</title>
<g id="a_node7"><a xlink:href="dir_f574f3650e467f7ec35d628d20229555.html" target="_top" xlink:title="armnnTestUtils">
<polygon fill="white" stroke="black" points="226,-268 136,-268 136,-232 226,-232 226,-268"/>
<text text-anchor="middle" x="181" y="-247.5" font-family="Helvetica,sans-Serif" font-size="10.00">armnnTestUtils</text>
</a>
</g>
</g>
<!-- dir_f574f3650e467f7ec35d628d20229555&#45;&gt;dir_e0a84d05c80a2ef4231141dcbbeac5c8 -->
<g id="edge26" class="edge">
<title>dir_f574f3650e467f7ec35d628d20229555&#45;&gt;dir_e0a84d05c80a2ef4231141dcbbeac5c8</title>
<path fill="none" stroke="black" d="M219.41,-231.88C244.41,-220.73 276.83,-206.27 301.46,-195.29"/>
<polygon fill="black" stroke="black" points="303.11,-198.39 310.82,-191.12 300.26,-192 303.11,-198.39"/>
<g id="a_edge26&#45;headlabel"><a xlink:href="dir_000034_000028.html" target="_top" xlink:title="12">
<text text-anchor="middle" x="300.98" y="-199.95" font-family="Helvetica,sans-Serif" font-size="10.00">12</text>
</a>
</g>
</g>
<!-- dir_f574f3650e467f7ec35d628d20229555&#45;&gt;dir_5d9c764a006d252ff232a5efbbd99a46 -->
<g id="edge24" class="edge">
<title>dir_f574f3650e467f7ec35d628d20229555&#45;&gt;dir_5d9c764a006d252ff232a5efbbd99a46</title>
<path fill="none" stroke="black" d="M144.42,-232C88.16,-203.53 -8.86,-143.85 34,-88 52.43,-63.98 133.84,-48.48 186.36,-40.78"/>
<polygon fill="black" stroke="black" points="187.04,-44.22 196.45,-39.34 186.06,-37.29 187.04,-44.22"/>
<g id="a_edge24&#45;headlabel"><a xlink:href="dir_000034_000036.html" target="_top" xlink:title="1">
<text text-anchor="middle" x="183.88" y="-45.04" font-family="Helvetica,sans-Serif" font-size="10.00">1</text>
</a>
</g>
</g>
<!-- dir_f574f3650e467f7ec35d628d20229555&#45;&gt;dir_0f3cdec46afbc61a1ded8e1687c9c9a0 -->
<g id="edge25" class="edge">
<title>dir_f574f3650e467f7ec35d628d20229555&#45;&gt;dir_0f3cdec46afbc61a1ded8e1687c9c9a0</title>
<path fill="none" stroke="black" d="M200.28,-231.84C223.16,-212.22 263.13,-180.21 302,-160 343.82,-138.26 360.11,-141.33 407.98,-124.17"/>
<polygon fill="black" stroke="black" points="409.49,-127.35 417.65,-120.59 407.06,-120.79 409.49,-127.35"/>
<g id="a_edge25&#45;headlabel"><a xlink:href="dir_000034_000022.html" target="_top" xlink:title="3">
<text text-anchor="middle" x="407.1" y="-128.76" font-family="Helvetica,sans-Serif" font-size="10.00">3</text>
</a>
</g>
</g>
<!-- dir_f574f3650e467f7ec35d628d20229555&#45;&gt;dir_d44c64559bbebec7f509842c48db8b23 -->
<g id="edge27" class="edge">
<title>dir_f574f3650e467f7ec35d628d20229555&#45;&gt;dir_d44c64559bbebec7f509842c48db8b23</title>
<path fill="none" stroke="black" d="M226.02,-234.62C229.06,-233.71 232.07,-232.83 235,-232 422.47,-178.72 540.36,-277.85 660,-124 673.63,-106.47 668.11,-80.95 660.5,-61.73"/>
<polygon fill="black" stroke="black" points="663.61,-60.11 656.43,-52.33 657.19,-62.89 663.61,-60.11"/>
<g id="a_edge27&#45;headlabel"><a xlink:href="dir_000034_000008.html" target="_top" xlink:title="21">
<text text-anchor="middle" x="667.65" y="-59.78" font-family="Helvetica,sans-Serif" font-size="10.00">21</text>
</a>
</g>
</g>
<!-- dir_510324e450b9df55f9aac2d01fae83d8 -->
<g id="node8" class="node">
<title>dir_510324e450b9df55f9aac2d01fae83d8</title>
<g id="a_node8"><a xlink:href="dir_510324e450b9df55f9aac2d01fae83d8.html" target="_top" xlink:title="armnnTfLiteParser">
<polygon fill="white" stroke="black" points="604,-124 498,-124 498,-88 604,-88 604,-124"/>
<text text-anchor="middle" x="551" y="-103.5" font-family="Helvetica,sans-Serif" font-size="10.00">armnnTfLiteParser</text>
</a>
</g>
</g>
<!-- dir_510324e450b9df55f9aac2d01fae83d8&#45;&gt;dir_5d9c764a006d252ff232a5efbbd99a46 -->
<g id="edge21" class="edge">
<title>dir_510324e450b9df55f9aac2d01fae83d8&#45;&gt;dir_5d9c764a006d252ff232a5efbbd99a46</title>
<path fill="none" stroke="black" d="M497.96,-90.22C494.93,-89.45 491.93,-88.7 489,-88 415.49,-70.36 329.3,-53.32 277.75,-43.51"/>
<polygon fill="black" stroke="black" points="278.39,-40.07 267.92,-41.65 277.09,-46.95 278.39,-40.07"/>
<g id="a_edge21&#45;headlabel"><a xlink:href="dir_000035_000036.html" target="_top" xlink:title="2">
<text text-anchor="middle" x="282.45" y="-35.45" font-family="Helvetica,sans-Serif" font-size="10.00">2</text>
</a>
</g>
</g>
<!-- dir_510324e450b9df55f9aac2d01fae83d8&#45;&gt;dir_d44c64559bbebec7f509842c48db8b23 -->
<g id="edge22" class="edge">
<title>dir_510324e450b9df55f9aac2d01fae83d8&#45;&gt;dir_d44c64559bbebec7f509842c48db8b23</title>
<path fill="none" stroke="black" d="M574.73,-87.7C586.94,-78.8 601.99,-67.82 615.18,-58.2"/>
<polygon fill="black" stroke="black" points="617.52,-60.82 623.54,-52.1 613.4,-55.17 617.52,-60.82"/>
<g id="a_edge22&#45;headlabel"><a xlink:href="dir_000035_000008.html" target="_top" xlink:title="18">
<text text-anchor="middle" x="616.29" y="-62.74" font-family="Helvetica,sans-Serif" font-size="10.00">18</text>
</a>
</g>
</g>
<!-- dir_5d9c764a006d252ff232a5efbbd99a46&#45;&gt;dir_e0a84d05c80a2ef4231141dcbbeac5c8 -->
<g id="edge7" class="edge">
<title>dir_5d9c764a006d252ff232a5efbbd99a46&#45;&gt;dir_e0a84d05c80a2ef4231141dcbbeac5c8</title>
<path fill="none" stroke="black" d="M196.38,-39.58C133.29,-48.61 13.02,-72.48 56,-124 87.13,-161.32 231.32,-172.43 300.71,-175.68"/>
<polygon fill="black" stroke="black" points="300.64,-179.18 310.79,-176.12 300.95,-172.19 300.64,-179.18"/>
<g id="a_edge7&#45;headlabel"><a xlink:href="dir_000036_000028.html" target="_top" xlink:title="1">
<text text-anchor="middle" x="296.93" y="-179.36" font-family="Helvetica,sans-Serif" font-size="10.00">1</text>
</a>
</g>
</g>
<!-- dir_5d9c764a006d252ff232a5efbbd99a46&#45;&gt;dir_d44c64559bbebec7f509842c48db8b23 -->
<g id="edge8" class="edge">
<title>dir_5d9c764a006d252ff232a5efbbd99a46&#45;&gt;dir_d44c64559bbebec7f509842c48db8b23</title>
<path fill="none" stroke="black" d="M267.66,-34C381.65,-34 495.65,-34 609.64,-34"/>
<polygon fill="black" stroke="black" points="609.96,-37.5 619.96,-34 609.96,-30.5 609.96,-37.5"/>
<g id="a_edge8&#45;headlabel"><a xlink:href="dir_000036_000008.html" target="_top" xlink:title="34">
<text text-anchor="middle" x="606.36" y="-37.84" font-family="Helvetica,sans-Serif" font-size="10.00">34</text>
</a>
</g>
</g>
<!-- dir_0f3cdec46afbc61a1ded8e1687c9c9a0&#45;&gt;dir_e0a84d05c80a2ef4231141dcbbeac5c8 -->
<g id="edge10" class="edge">
<title>dir_0f3cdec46afbc61a1ded8e1687c9c9a0&#45;&gt;dir_e0a84d05c80a2ef4231141dcbbeac5c8</title>
<path fill="none" stroke="black" d="M427.78,-124.1C412.56,-134.37 391.86,-147.47 374.11,-158.06"/>
<polygon fill="black" stroke="black" points="371.99,-155.25 365.15,-163.34 375.54,-161.28 371.99,-155.25"/>
<g id="a_edge10&#45;headlabel"><a xlink:href="dir_000022_000028.html" target="_top" xlink:title="94">
<text text-anchor="middle" x="373.64" y="-148.48" font-family="Helvetica,sans-Serif" font-size="10.00">94</text>
</a>
</g>
</g>
<!-- dir_0f3cdec46afbc61a1ded8e1687c9c9a0&#45;&gt;dir_5d9c764a006d252ff232a5efbbd99a46 -->
<g id="edge9" class="edge">
<title>dir_0f3cdec46afbc61a1ded8e1687c9c9a0&#45;&gt;dir_5d9c764a006d252ff232a5efbbd99a46</title>
<path fill="none" stroke="black" d="M417.69,-91.3C414.77,-90.14 411.84,-89.02 409,-88 364.87,-72.07 313.4,-57.05 277.37,-47.09"/>
<polygon fill="black" stroke="black" points="278.21,-43.69 267.64,-44.42 276.36,-50.44 278.21,-43.69"/>
<g id="a_edge9&#45;headlabel"><a xlink:href="dir_000022_000036.html" target="_top" xlink:title="23">
<text text-anchor="middle" x="282.43" y="-39.4" font-family="Helvetica,sans-Serif" font-size="10.00">23</text>
</a>
</g>
</g>
<!-- dir_0f3cdec46afbc61a1ded8e1687c9c9a0&#45;&gt;dir_d44c64559bbebec7f509842c48db8b23 -->
<g id="edge11" class="edge">
<title>dir_0f3cdec46afbc61a1ded8e1687c9c9a0&#45;&gt;dir_d44c64559bbebec7f509842c48db8b23</title>
<path fill="none" stroke="black" d="M480.3,-91.26C483.22,-90.11 486.15,-89 489,-88 541.19,-69.59 559.62,-73.67 610.29,-54.14"/>
<polygon fill="black" stroke="black" points="611.79,-57.32 619.78,-50.36 609.19,-50.81 611.79,-57.32"/>
<g id="a_edge11&#45;headlabel"><a xlink:href="dir_000022_000008.html" target="_top" xlink:title="680">
<text text-anchor="middle" x="609.5" y="-58.78" font-family="Helvetica,sans-Serif" font-size="10.00">680</text>
</a>
</g>
</g>
<!-- dir_101da30fc6c118b726c448f5a6ab9e53 -->
<g id="node11" class="node">
<title>dir_101da30fc6c118b726c448f5a6ab9e53</title>
<g id="a_node11"><a xlink:href="dir_101da30fc6c118b726c448f5a6ab9e53.html" target="_top" xlink:title="dynamic">
<polygon fill="white" stroke="red" points="303.5,-268 244.5,-268 244.5,-232 303.5,-232 303.5,-268"/>
<text text-anchor="middle" x="274" y="-247.5" font-family="Helvetica,sans-Serif" font-size="10.00">dynamic</text>
</a>
</g>
</g>
<!-- dir_101da30fc6c118b726c448f5a6ab9e53&#45;&gt;dir_e0a84d05c80a2ef4231141dcbbeac5c8 -->
<g id="edge4" class="edge">
<title>dir_101da30fc6c118b726c448f5a6ab9e53&#45;&gt;dir_e0a84d05c80a2ef4231141dcbbeac5c8</title>
<path fill="none" stroke="black" d="M289.82,-231.7C297.57,-223.22 307.04,-212.86 315.52,-203.58"/>
<polygon fill="black" stroke="black" points="318.2,-205.85 322.36,-196.1 313.03,-201.12 318.2,-205.85"/>
<g id="a_edge4&#45;headlabel"><a xlink:href="dir_000023_000028.html" target="_top" xlink:title="2">
<text text-anchor="middle" x="317.87" y="-207.92" font-family="Helvetica,sans-Serif" font-size="10.00">2</text>
</a>
</g>
</g>
<!-- dir_101da30fc6c118b726c448f5a6ab9e53&#45;&gt;dir_0f3cdec46afbc61a1ded8e1687c9c9a0 -->
<g id="edge3" class="edge">
<title>dir_101da30fc6c118b726c448f5a6ab9e53&#45;&gt;dir_0f3cdec46afbc61a1ded8e1687c9c9a0</title>
<path fill="none" stroke="black" d="M303.86,-234.75C328.87,-222.53 362.3,-205.44 374,-196 396.77,-177.62 417.78,-151.56 431.73,-132.38"/>
<polygon fill="black" stroke="black" points="434.68,-134.28 437.63,-124.11 428.98,-130.22 434.68,-134.28"/>
<g id="a_edge3&#45;headlabel"><a xlink:href="dir_000023_000022.html" target="_top" xlink:title="2">
<text text-anchor="middle" x="434.9" y="-136.36" font-family="Helvetica,sans-Serif" font-size="10.00">2</text>
</a>
</g>
</g>
<!-- dir_101da30fc6c118b726c448f5a6ab9e53&#45;&gt;dir_d44c64559bbebec7f509842c48db8b23 -->
<g id="edge5" class="edge">
<title>dir_101da30fc6c118b726c448f5a6ab9e53&#45;&gt;dir_d44c64559bbebec7f509842c48db8b23</title>
<path fill="none" stroke="black" d="M303.89,-234.83C306.92,-233.74 309.99,-232.77 313,-232 401.42,-209.48 660.38,-263.29 722,-196 754.42,-160.6 744.07,-130.62 722,-88 713.68,-71.94 698.01,-59.7 683.13,-51.06"/>
<polygon fill="black" stroke="black" points="684.5,-47.82 674.04,-46.14 681.17,-53.98 684.5,-47.82"/>
<g id="a_edge5&#45;headlabel"><a xlink:href="dir_000023_000008.html" target="_top" xlink:title="16">
<text text-anchor="middle" x="689.01" y="-44.53" font-family="Helvetica,sans-Serif" font-size="10.00">16</text>
</a>
</g>
</g>
<!-- dir_4d9706f59620ec516301c65441ed077a -->
<g id="node12" class="node">
<title>dir_4d9706f59620ec516301c65441ed077a</title>
<g id="a_node12"><a xlink:href="dir_4d9706f59620ec516301c65441ed077a.html" target="_top" xlink:title="timelineDecoder">
<polygon fill="white" stroke="red" points="532,-268 434,-268 434,-232 532,-232 532,-268"/>
<text text-anchor="middle" x="483" y="-247.5" font-family="Helvetica,sans-Serif" font-size="10.00">timelineDecoder</text>
</a>
</g>
</g>
<!-- dir_4d9706f59620ec516301c65441ed077a&#45;&gt;dir_d44c64559bbebec7f509842c48db8b23 -->
<g id="edge6" class="edge">
<title>dir_4d9706f59620ec516301c65441ed077a&#45;&gt;dir_d44c64559bbebec7f509842c48db8b23</title>
<path fill="none" stroke="black" d="M532.24,-234.04C535.19,-233.31 538.13,-232.62 541,-232 597.38,-219.86 760.16,-239.51 798,-196 829.5,-159.78 825.76,-127.16 798,-88 772.34,-51.79 719.91,-40.14 684.11,-36.49"/>
<polygon fill="black" stroke="black" points="684.3,-32.99 674.04,-35.63 683.7,-39.97 684.3,-32.99"/>
<g id="a_edge6&#45;headlabel"><a xlink:href="dir_000054_000008.html" target="_top" xlink:title="2">
<text text-anchor="middle" x="688.12" y="-27.97" font-family="Helvetica,sans-Serif" font-size="10.00">2</text>
</a>
</g>
</g>
<!-- dir_d44c64559bbebec7f509842c48db8b23&#45;&gt;dir_e0a84d05c80a2ef4231141dcbbeac5c8 -->
<g id="edge20" class="edge">
<title>dir_d44c64559bbebec7f509842c48db8b23&#45;&gt;dir_e0a84d05c80a2ef4231141dcbbeac5c8</title>
<path fill="none" stroke="black" d="M651,-52.16C654.54,-72.09 656.74,-104.69 639,-124 604.01,-162.08 447.81,-172.9 375.26,-175.89"/>
<polygon fill="black" stroke="black" points="375.04,-172.4 365.19,-176.28 375.31,-179.39 375.04,-172.4"/>
<g id="a_edge20&#45;headlabel"><a xlink:href="dir_000008_000028.html" target="_top" xlink:title="6">
<text text-anchor="middle" x="378.53" y="-166.92" font-family="Helvetica,sans-Serif" font-size="10.00">6</text>
</a>
</g>
</g>
<!-- dir_d44c64559bbebec7f509842c48db8b23&#45;&gt;dir_5d9c764a006d252ff232a5efbbd99a46 -->
<g id="edge19" class="edge">
<title>dir_d44c64559bbebec7f509842c48db8b23&#45;&gt;dir_5d9c764a006d252ff232a5efbbd99a46</title>
<path fill="none" stroke="black" d="M619.96,-34C505.97,-34 391.98,-34 277.99,-34"/>
<polygon fill="black" stroke="black" points="277.66,-30.5 267.66,-34 277.66,-37.5 277.66,-30.5"/>
<g id="a_edge19&#45;headlabel"><a xlink:href="dir_000008_000036.html" target="_top" xlink:title="2">
<text text-anchor="middle" x="281.26" y="-25.16" font-family="Helvetica,sans-Serif" font-size="10.00">2</text>
</a>
</g>
</g>
</g>
</svg>
