<?xml version="1.0" encoding="UTF-8" standalone="no"?>
<!DOCTYPE svg PUBLIC "-//W3C//DTD SVG 1.1//EN"
 "http://www.w3.org/Graphics/SVG/1.1/DTD/svg11.dtd">
<!-- Generated by graphviz version 2.43.0 (0)
 -->
<!-- Title: src/backends/cl/workloads Pages: 1 -->
<svg width="233pt" height="367pt"
 viewBox="0.00 0.00 233.49 367.00" xmlns="http://www.w3.org/2000/svg" xmlns:xlink="http://www.w3.org/1999/xlink">
<g id="graph0" class="graph" transform="scale(1 1) rotate(0) translate(4 363)">
<title>src/backends/cl/workloads</title>
<polygon fill="white" stroke="transparent" points="-4,4 -4,-363 229.49,-363 229.49,4 -4,4"/>
<g id="clust1" class="cluster">
<title>clusterdir_1ad86c6d39ab715a831555571b9e98a5</title>
<g id="a_clust1"><a xlink:href="dir_1ad86c6d39ab715a831555571b9e98a5.html" target="_top" xlink:title="cl">
<polygon fill="#ddddee" stroke="black" points="100.5,-280 100.5,-351 184.5,-351 184.5,-280 100.5,-280"/>
<text text-anchor="middle" x="142.5" y="-339" font-family="Helvetica,sans-Serif" font-size="10.00">cl</text>
</a>
</g>
</g>
<!-- dir_2d9c087bc7f49a1d7a25fdc615d2f0c9 -->
<g id="node1" class="node">
<title>dir_2d9c087bc7f49a1d7a25fdc615d2f0c9</title>
<g id="a_node1"><a xlink:href="dir_2d9c087bc7f49a1d7a25fdc615d2f0c9.html" target="_top" xlink:title="workloads">
<polygon fill="#eeeeff" stroke="black" points="176,-324 109,-324 109,-288 176,-288 176,-324"/>
<text text-anchor="middle" x="142.5" y="-303.5" font-family="Helvetica,sans-Serif" font-size="10.00">workloads</text>
</a>
</g>
</g>
<!-- dir_c13beb47b846b3a63741c705c772cf8d -->
<g id="node2" class="node">
<title>dir_c13beb47b846b3a63741c705c772cf8d</title>
<g id="a_node2"><a xlink:href="dir_c13beb47b846b3a63741c705c772cf8d.html" target="_top" xlink:title="aclCommon">
<polygon fill="none" stroke="black" points="75,-324 0,-324 0,-288 75,-288 75,-324"/>
<text text-anchor="middle" x="37.5" y="-303.5" font-family="Helvetica,sans-Serif" font-size="10.00">aclCommon</text>
</a>
</g>
</g>
<!-- dir_2d9c087bc7f49a1d7a25fdc615d2f0c9&#45;&gt;dir_c13beb47b846b3a63741c705c772cf8d -->
<g id="edge15" class="edge">
<title>dir_2d9c087bc7f49a1d7a25fdc615d2f0c9&#45;&gt;dir_c13beb47b846b3a63741c705c772cf8d</title>
<path fill="none" stroke="black" d="M108.87,-306C101.07,-306 93.28,-306 85.48,-306"/>
<polygon fill="black" stroke="black" points="85.23,-302.5 75.23,-306 85.23,-309.5 85.23,-302.5"/>
<g id="a_edge15&#45;headlabel"><a xlink:href="dir_000042_000037.html" target="_top" xlink:title="91">
<text text-anchor="middle" x="88.83" y="-297.16" font-family="Helvetica,sans-Serif" font-size="10.00">91</text>
</a>
</g>
</g>
<!-- dir_797a213d7d01b98ef12d53b0820ea64e -->
<g id="node3" class="node">
<title>dir_797a213d7d01b98ef12d53b0820ea64e</title>
<g id="a_node3"><a xlink:href="dir_797a213d7d01b98ef12d53b0820ea64e.html" target="_top" xlink:title="backendsCommon">
<polygon fill="white" stroke="red" points="196,-252 89,-252 89,-216 196,-216 196,-252"/>
<text text-anchor="middle" x="142.5" y="-231.5" font-family="Helvetica,sans-Serif" font-size="10.00">backendsCommon</text>
</a>
</g>
</g>
<!-- dir_2d9c087bc7f49a1d7a25fdc615d2f0c9&#45;&gt;dir_797a213d7d01b98ef12d53b0820ea64e -->
<g id="edge16" class="edge">
<title>dir_2d9c087bc7f49a1d7a25fdc615d2f0c9&#45;&gt;dir_797a213d7d01b98ef12d53b0820ea64e</title>
<path fill="none" stroke="black" d="M142.5,-287.7C142.5,-279.98 142.5,-270.71 142.5,-262.11"/>
<polygon fill="black" stroke="black" points="146,-262.1 142.5,-252.1 139,-262.1 146,-262.1"/>
<g id="a_edge16&#45;headlabel"><a xlink:href="dir_000042_000038.html" target="_top" xlink:title="6">
<text text-anchor="middle" x="148.84" y="-263.2" font-family="Helvetica,sans-Serif" font-size="10.00">6</text>
</a>
</g>
</g>
<!-- dir_5d9c764a006d252ff232a5efbbd99a46 -->
<g id="node4" class="node">
<title>dir_5d9c764a006d252ff232a5efbbd99a46</title>
<g id="a_node4"><a xlink:href="dir_5d9c764a006d252ff232a5efbbd99a46.html" target="_top" xlink:title="armnnUtils">
<polygon fill="none" stroke="black" points="102,-180 31,-180 31,-144 102,-144 102,-180"/>
<text text-anchor="middle" x="66.5" y="-159.5" font-family="Helvetica,sans-Serif" font-size="10.00">armnnUtils</text>
</a>
</g>
</g>
<!-- dir_2d9c087bc7f49a1d7a25fdc615d2f0c9&#45;&gt;dir_5d9c764a006d252ff232a5efbbd99a46 -->
<g id="edge17" class="edge">
<title>dir_2d9c087bc7f49a1d7a25fdc615d2f0c9&#45;&gt;dir_5d9c764a006d252ff232a5efbbd99a46</title>
<path fill="none" stroke="black" d="M114.66,-287.88C102.23,-278.77 88.58,-266.46 80.5,-252 69.97,-233.17 66.73,-208.79 65.97,-190.32"/>
<polygon fill="black" stroke="black" points="69.47,-190.13 65.78,-180.2 62.47,-190.27 69.47,-190.13"/>
<g id="a_edge17&#45;headlabel"><a xlink:href="dir_000042_000036.html" target="_top" xlink:title="3">
<text text-anchor="middle" x="72.37" y="-191.17" font-family="Helvetica,sans-Serif" font-size="10.00">3</text>
</a>
</g>
</g>
<!-- dir_e0a84d05c80a2ef4231141dcbbeac5c8 -->
<g id="node5" class="node">
<title>dir_e0a84d05c80a2ef4231141dcbbeac5c8</title>
<g id="a_node5"><a xlink:href="dir_e0a84d05c80a2ef4231141dcbbeac5c8.html" target="_top" xlink:title="armnn">
<polygon fill="white" stroke="red" points="157.5,-108 103.5,-108 103.5,-72 157.5,-72 157.5,-108"/>
<text text-anchor="middle" x="130.5" y="-87.5" font-family="Helvetica,sans-Serif" font-size="10.00">armnn</text>
</a>
</g>
</g>
<!-- dir_2d9c087bc7f49a1d7a25fdc615d2f0c9&#45;&gt;dir_e0a84d05c80a2ef4231141dcbbeac5c8 -->
<g id="edge18" class="edge">
<title>dir_2d9c087bc7f49a1d7a25fdc615d2f0c9&#45;&gt;dir_e0a84d05c80a2ef4231141dcbbeac5c8</title>
<path fill="none" stroke="black" d="M172.8,-287.8C185.38,-278.9 198.62,-266.77 205.5,-252 212.25,-237.49 209.77,-231.42 205.5,-216 195.03,-178.2 169.75,-140.36 151.43,-116.38"/>
<polygon fill="black" stroke="black" points="153.95,-113.92 145.04,-108.2 148.44,-118.23 153.95,-113.92"/>
<g id="a_edge18&#45;headlabel"><a xlink:href="dir_000042_000028.html" target="_top" xlink:title="1">
<text text-anchor="middle" x="158.4" y="-112.5" font-family="Helvetica,sans-Serif" font-size="10.00">1</text>
</a>
</g>
</g>
<!-- dir_d44c64559bbebec7f509842c48db8b23 -->
<g id="node6" class="node">
<title>dir_d44c64559bbebec7f509842c48db8b23</title>
<g id="a_node6"><a xlink:href="dir_d44c64559bbebec7f509842c48db8b23.html" target="_top" xlink:title="include">
<polygon fill="white" stroke="red" points="157.5,-36 103.5,-36 103.5,0 157.5,0 157.5,-36"/>
<text text-anchor="middle" x="130.5" y="-15.5" font-family="Helvetica,sans-Serif" font-size="10.00">include</text>
</a>
</g>
</g>
<!-- dir_2d9c087bc7f49a1d7a25fdc615d2f0c9&#45;&gt;dir_d44c64559bbebec7f509842c48db8b23 -->
<g id="edge19" class="edge">
<title>dir_2d9c087bc7f49a1d7a25fdc615d2f0c9&#45;&gt;dir_d44c64559bbebec7f509842c48db8b23</title>
<path fill="none" stroke="black" d="M176.16,-291.67C193.03,-283.07 211.86,-270.07 221.5,-252 229.03,-237.88 223.61,-231.86 221.5,-216 212.76,-150.27 215.46,-129.54 182.5,-72 176.45,-61.45 167.8,-51.47 159.28,-43.08"/>
<polygon fill="black" stroke="black" points="161.59,-40.44 151.9,-36.15 156.79,-45.54 161.59,-40.44"/>
<g id="a_edge19&#45;headlabel"><a xlink:href="dir_000042_000008.html" target="_top" xlink:title="102">
<text text-anchor="middle" x="166.15" y="-38.34" font-family="Helvetica,sans-Serif" font-size="10.00">102</text>
</a>
</g>
</g>
<!-- dir_c13beb47b846b3a63741c705c772cf8d&#45;&gt;dir_2d9c087bc7f49a1d7a25fdc615d2f0c9 -->
<g id="edge4" class="edge">
<title>dir_c13beb47b846b3a63741c705c772cf8d&#45;&gt;dir_2d9c087bc7f49a1d7a25fdc615d2f0c9</title>
<path fill="none" stroke="black" d="M75.23,-306C83.03,-306 90.82,-306 98.62,-306"/>
<polygon fill="black" stroke="black" points="98.87,-309.5 108.87,-306 98.87,-302.5 98.87,-309.5"/>
<g id="a_edge4&#45;headlabel"><a xlink:href="dir_000037_000042.html" target="_top" xlink:title="1">
<text text-anchor="middle" x="95.27" y="-309.84" font-family="Helvetica,sans-Serif" font-size="10.00">1</text>
</a>
</g>
</g>
<!-- dir_c13beb47b846b3a63741c705c772cf8d&#45;&gt;dir_797a213d7d01b98ef12d53b0820ea64e -->
<g id="edge1" class="edge">
<title>dir_c13beb47b846b3a63741c705c772cf8d&#45;&gt;dir_797a213d7d01b98ef12d53b0820ea64e</title>
<path fill="none" stroke="black" d="M63.19,-287.88C76.79,-278.81 93.67,-267.55 108.36,-257.76"/>
<polygon fill="black" stroke="black" points="110.34,-260.65 116.72,-252.19 106.45,-254.82 110.34,-260.65"/>
<g id="a_edge1&#45;headlabel"><a xlink:href="dir_000037_000038.html" target="_top" xlink:title="1">
<text text-anchor="middle" x="108.92" y="-262.51" font-family="Helvetica,sans-Serif" font-size="10.00">1</text>
</a>
</g>
</g>
<!-- dir_c13beb47b846b3a63741c705c772cf8d&#45;&gt;dir_5d9c764a006d252ff232a5efbbd99a46 -->
<g id="edge2" class="edge">
<title>dir_c13beb47b846b3a63741c705c772cf8d&#45;&gt;dir_5d9c764a006d252ff232a5efbbd99a46</title>
<path fill="none" stroke="black" d="M37.92,-287.72C38.67,-269.63 40.74,-240.49 46.5,-216 48.55,-207.29 51.67,-198.07 54.84,-189.81"/>
<polygon fill="black" stroke="black" points="58.17,-190.89 58.66,-180.31 51.68,-188.28 58.17,-190.89"/>
<g id="a_edge2&#45;headlabel"><a xlink:href="dir_000037_000036.html" target="_top" xlink:title="1">
<text text-anchor="middle" x="59.47" y="-192.79" font-family="Helvetica,sans-Serif" font-size="10.00">1</text>
</a>
</g>
</g>
<!-- dir_c13beb47b846b3a63741c705c772cf8d&#45;&gt;dir_d44c64559bbebec7f509842c48db8b23 -->
<g id="edge3" class="edge">
<title>dir_c13beb47b846b3a63741c705c772cf8d&#45;&gt;dir_d44c64559bbebec7f509842c48db8b23</title>
<path fill="none" stroke="black" d="M31.13,-287.54C21.14,-257.4 4.58,-194.02 21.5,-144 35.71,-101.98 72.3,-65.26 99.18,-42.69"/>
<polygon fill="black" stroke="black" points="101.65,-45.19 107.17,-36.14 97.22,-39.77 101.65,-45.19"/>
<g id="a_edge3&#45;headlabel"><a xlink:href="dir_000037_000008.html" target="_top" xlink:title="19">
<text text-anchor="middle" x="100.67" y="-47.16" font-family="Helvetica,sans-Serif" font-size="10.00">19</text>
</a>
</g>
</g>
<!-- dir_797a213d7d01b98ef12d53b0820ea64e&#45;&gt;dir_5d9c764a006d252ff232a5efbbd99a46 -->
<g id="edge5" class="edge">
<title>dir_797a213d7d01b98ef12d53b0820ea64e&#45;&gt;dir_5d9c764a006d252ff232a5efbbd99a46</title>
<path fill="none" stroke="black" d="M123.71,-215.7C114.33,-207.05 102.82,-196.45 92.59,-187.03"/>
<polygon fill="black" stroke="black" points="94.8,-184.3 85.07,-180.1 90.05,-189.45 94.8,-184.3"/>
<g id="a_edge5&#45;headlabel"><a xlink:href="dir_000038_000036.html" target="_top" xlink:title="1">
<text text-anchor="middle" x="99.36" y="-182.15" font-family="Helvetica,sans-Serif" font-size="10.00">1</text>
</a>
</g>
</g>
<!-- dir_797a213d7d01b98ef12d53b0820ea64e&#45;&gt;dir_e0a84d05c80a2ef4231141dcbbeac5c8 -->
<g id="edge6" class="edge">
<title>dir_797a213d7d01b98ef12d53b0820ea64e&#45;&gt;dir_e0a84d05c80a2ef4231141dcbbeac5c8</title>
<path fill="none" stroke="black" d="M136.47,-215.87C131.86,-191.67 127.82,-147.21 127.36,-118.39"/>
<polygon fill="black" stroke="black" points="130.86,-118.19 127.36,-108.19 123.86,-118.19 130.86,-118.19"/>
<g id="a_edge6&#45;headlabel"><a xlink:href="dir_000038_000028.html" target="_top" xlink:title="7">
<text text-anchor="middle" x="133.69" y="-119.29" font-family="Helvetica,sans-Serif" font-size="10.00">7</text>
</a>
</g>
</g>
<!-- dir_797a213d7d01b98ef12d53b0820ea64e&#45;&gt;dir_d44c64559bbebec7f509842c48db8b23 -->
<g id="edge7" class="edge">
<title>dir_797a213d7d01b98ef12d53b0820ea64e&#45;&gt;dir_d44c64559bbebec7f509842c48db8b23</title>
<path fill="none" stroke="black" d="M149.99,-215.71C161.85,-185.81 182.12,-122.78 166.5,-72 163.49,-62.22 157.99,-52.62 152.18,-44.33"/>
<polygon fill="black" stroke="black" points="154.91,-42.13 146.11,-36.23 149.31,-46.33 154.91,-42.13"/>
<g id="a_edge7&#45;headlabel"><a xlink:href="dir_000038_000008.html" target="_top" xlink:title="77">
<text text-anchor="middle" x="159.33" y="-40.8" font-family="Helvetica,sans-Serif" font-size="10.00">77</text>
</a>
</g>
</g>
<!-- dir_5d9c764a006d252ff232a5efbbd99a46&#45;&gt;dir_e0a84d05c80a2ef4231141dcbbeac5c8 -->
<g id="edge8" class="edge">
<title>dir_5d9c764a006d252ff232a5efbbd99a46&#45;&gt;dir_e0a84d05c80a2ef4231141dcbbeac5c8</title>
<path fill="none" stroke="black" d="M76.4,-143.7C83.35,-135.14 92.75,-124.66 101.82,-115.3"/>
<polygon fill="black" stroke="black" points="104.4,-117.67 108.97,-108.1 99.44,-112.73 104.4,-117.67"/>
<g id="a_edge8&#45;headlabel"><a xlink:href="dir_000036_000028.html" target="_top" xlink:title="1">
<text text-anchor="middle" x="103.89" y="-119.72" font-family="Helvetica,sans-Serif" font-size="10.00">1</text>
</a>
</g>
</g>
<!-- dir_5d9c764a006d252ff232a5efbbd99a46&#45;&gt;dir_d44c64559bbebec7f509842c48db8b23 -->
<g id="edge9" class="edge">
<title>dir_5d9c764a006d252ff232a5efbbd99a46&#45;&gt;dir_d44c64559bbebec7f509842c48db8b23</title>
<path fill="none" stroke="black" d="M63.67,-143.71C65.79,-125.35 74,-95.77 85.5,-72 90.08,-62.54 96.18,-52.84 102.51,-44.37"/>
<polygon fill="black" stroke="black" points="105.4,-46.37 108.87,-36.36 99.91,-42.02 105.4,-46.37"/>
<g id="a_edge9&#45;headlabel"><a xlink:href="dir_000036_000008.html" target="_top" xlink:title="34">
<text text-anchor="middle" x="105.38" y="-48.45" font-family="Helvetica,sans-Serif" font-size="10.00">34</text>
</a>
</g>
</g>
<!-- dir_e0a84d05c80a2ef4231141dcbbeac5c8&#45;&gt;dir_797a213d7d01b98ef12d53b0820ea64e -->
<g id="edge10" class="edge">
<title>dir_e0a84d05c80a2ef4231141dcbbeac5c8&#45;&gt;dir_797a213d7d01b98ef12d53b0820ea64e</title>
<path fill="none" stroke="black" d="M136.54,-108.19C141.15,-132.42 145.19,-176.89 145.65,-205.68"/>
<polygon fill="black" stroke="black" points="142.15,-205.87 145.64,-215.87 149.15,-205.87 142.15,-205.87"/>
<g id="a_edge10&#45;headlabel"><a xlink:href="dir_000028_000038.html" target="_top" xlink:title="15">
<text text-anchor="middle" x="139.31" y="-199.77" font-family="Helvetica,sans-Serif" font-size="10.00">15</text>
</a>
</g>
</g>
<!-- dir_e0a84d05c80a2ef4231141dcbbeac5c8&#45;&gt;dir_5d9c764a006d252ff232a5efbbd99a46 -->
<g id="edge11" class="edge">
<title>dir_e0a84d05c80a2ef4231141dcbbeac5c8&#45;&gt;dir_5d9c764a006d252ff232a5efbbd99a46</title>
<path fill="none" stroke="black" d="M120.76,-108.1C113.85,-116.64 104.47,-127.11 95.39,-136.48"/>
<polygon fill="black" stroke="black" points="92.79,-134.13 88.24,-143.7 97.76,-139.06 92.79,-134.13"/>
<g id="a_edge11&#45;headlabel"><a xlink:href="dir_000028_000036.html" target="_top" xlink:title="6">
<text text-anchor="middle" x="93.31" y="-127.08" font-family="Helvetica,sans-Serif" font-size="10.00">6</text>
</a>
</g>
</g>
<!-- dir_e0a84d05c80a2ef4231141dcbbeac5c8&#45;&gt;dir_d44c64559bbebec7f509842c48db8b23 -->
<g id="edge12" class="edge">
<title>dir_e0a84d05c80a2ef4231141dcbbeac5c8&#45;&gt;dir_d44c64559bbebec7f509842c48db8b23</title>
<path fill="none" stroke="black" d="M124.58,-71.7C123.79,-63.98 123.56,-54.71 123.9,-46.11"/>
<polygon fill="black" stroke="black" points="127.4,-46.32 124.6,-36.1 120.42,-45.84 127.4,-46.32"/>
<g id="a_edge12&#45;headlabel"><a xlink:href="dir_000028_000008.html" target="_top" xlink:title="441">
<text text-anchor="middle" x="129.98" y="-47.61" font-family="Helvetica,sans-Serif" font-size="10.00">441</text>
</a>
</g>
</g>
<!-- dir_d44c64559bbebec7f509842c48db8b23&#45;&gt;dir_5d9c764a006d252ff232a5efbbd99a46 -->
<g id="edge13" class="edge">
<title>dir_d44c64559bbebec7f509842c48db8b23&#45;&gt;dir_5d9c764a006d252ff232a5efbbd99a46</title>
<path fill="none" stroke="black" d="M124.73,-36.36C118.42,-46.35 109.61,-59.38 103.5,-72 93.84,-91.96 86.5,-116.02 80.39,-134.09"/>
<polygon fill="black" stroke="black" points="77.03,-133.11 77.02,-143.71 83.64,-135.43 77.03,-133.11"/>
<g id="a_edge13&#45;headlabel"><a xlink:href="dir_000008_000036.html" target="_top" xlink:title="2">
<text text-anchor="middle" x="75.54" y="-126.28" font-family="Helvetica,sans-Serif" font-size="10.00">2</text>
</a>
</g>
</g>
<!-- dir_d44c64559bbebec7f509842c48db8b23&#45;&gt;dir_e0a84d05c80a2ef4231141dcbbeac5c8 -->
<g id="edge14" class="edge">
<title>dir_d44c64559bbebec7f509842c48db8b23&#45;&gt;dir_e0a84d05c80a2ef4231141dcbbeac5c8</title>
<path fill="none" stroke="black" d="M136.4,-36.1C137.2,-43.79 137.44,-53.05 137.1,-61.67"/>
<polygon fill="black" stroke="black" points="133.61,-61.48 136.42,-71.7 140.59,-61.96 133.61,-61.48"/>
<g id="a_edge14&#45;headlabel"><a xlink:href="dir_000008_000028.html" target="_top" xlink:title="6">
<text text-anchor="middle" x="131.02" y="-55.2" font-family="Helvetica,sans-Serif" font-size="10.00">6</text>
</a>
</g>
</g>
</g>
</svg>
