<?xml version="1.0" encoding="UTF-8" standalone="no"?>
<!DOCTYPE svg PUBLIC "-//W3C//DTD SVG 1.1//EN"
 "http://www.w3.org/Graphics/SVG/1.1/DTD/svg11.dtd">
<!-- Generated by graphviz version 2.43.0 (0)
 -->
<!-- Title: BaseDescriptor Pages: 1 -->
<svg width="324pt" height="1776pt"
 viewBox="0.00 0.00 324.00 1776.00" xmlns="http://www.w3.org/2000/svg" xmlns:xlink="http://www.w3.org/1999/xlink">
<g id="graph0" class="graph" transform="scale(1 1) rotate(0) translate(4 1772)">
<title>BaseDescriptor</title>
<polygon fill="white" stroke="transparent" points="-4,4 -4,-1772 320,-1772 320,4 -4,4"/>
<!-- Node1 -->
<g id="node1" class="node">
<title>Node1</title>
<g id="a_node1"><a xlink:title="Base class for all descriptors.">
<polygon fill="#bfbfbf" stroke="black" points="0,-874.5 0,-893.5 91,-893.5 91,-874.5 0,-874.5"/>
<text text-anchor="middle" x="45.5" y="-881.5" font-family="Helvetica,sans-Serif" font-size="10.00">BaseDescriptor</text>
</a>
</g>
</g>
<!-- Node2 -->
<g id="node2" class="node">
<title>Node2</title>
<g id="a_node2"><a xlink:href="structarmnn_1_1_activation_descriptor.html" target="_top" xlink:title="An ActivationDescriptor for the ActivationLayer.">
<polygon fill="white" stroke="black" points="163.5,-1748.5 163.5,-1767.5 279.5,-1767.5 279.5,-1748.5 163.5,-1748.5"/>
<text text-anchor="middle" x="221.5" y="-1755.5" font-family="Helvetica,sans-Serif" font-size="10.00">ActivationDescriptor</text>
</a>
</g>
</g>
<!-- Node1&#45;&gt;Node2 -->
<g id="edge1" class="edge">
<title>Node1&#45;&gt;Node2</title>
<path fill="none" stroke="midnightblue" d="M46.97,-903.8C50.09,-1026.01 69.25,-1674.75 127,-1739 136.3,-1749.35 149.56,-1754.95 163.19,-1757.81"/>
<polygon fill="midnightblue" stroke="midnightblue" points="50.47,-903.56 46.72,-893.65 43.47,-903.73 50.47,-903.56"/>
</g>
<!-- Node3 -->
<g id="node3" class="node">
<title>Node3</title>
<g id="a_node3"><a xlink:href="structarmnn_1_1_arg_min_max_descriptor.html" target="_top" xlink:title="An ArgMinMaxDescriptor for ArgMinMaxLayer.">
<polygon fill="white" stroke="black" points="160.5,-1710.5 160.5,-1729.5 282.5,-1729.5 282.5,-1710.5 160.5,-1710.5"/>
<text text-anchor="middle" x="221.5" y="-1717.5" font-family="Helvetica,sans-Serif" font-size="10.00">ArgMinMaxDescriptor</text>
</a>
</g>
</g>
<!-- Node1&#45;&gt;Node3 -->
<g id="edge2" class="edge">
<title>Node1&#45;&gt;Node3</title>
<path fill="none" stroke="midnightblue" d="M47.07,-904.02C50.67,-1023.55 71.84,-1639.89 127,-1701 135.66,-1710.59 147.72,-1716.1 160.31,-1719.13"/>
<polygon fill="midnightblue" stroke="midnightblue" points="50.56,-903.66 46.77,-893.77 43.57,-903.87 50.56,-903.66"/>
</g>
<!-- Node4 -->
<g id="node4" class="node">
<title>Node4</title>
<g id="a_node4"><a xlink:href="structarmnn_1_1_batch_mat_mul_descriptor.html" target="_top" xlink:title="A BatchMatMulDescriptor for the BatchMatMul operator.">
<polygon fill="white" stroke="black" points="156,-1672.5 156,-1691.5 287,-1691.5 287,-1672.5 156,-1672.5"/>
<text text-anchor="middle" x="221.5" y="-1679.5" font-family="Helvetica,sans-Serif" font-size="10.00">BatchMatMulDescriptor</text>
</a>
</g>
</g>
<!-- Node1&#45;&gt;Node4 -->
<g id="edge3" class="edge">
<title>Node1&#45;&gt;Node4</title>
<path fill="none" stroke="midnightblue" d="M47.17,-903.8C51.24,-1019.49 74.35,-1604.94 127,-1663 134.57,-1671.34 144.71,-1676.59 155.53,-1679.81"/>
<polygon fill="midnightblue" stroke="midnightblue" points="50.66,-903.45 46.81,-893.58 43.66,-903.7 50.66,-903.45"/>
</g>
<!-- Node5 -->
<g id="node5" class="node">
<title>Node5</title>
<g id="a_node5"><a xlink:href="structarmnn_1_1_batch_normalization_descriptor.html" target="_top" xlink:title="A BatchNormalizationDescriptor for the BatchNormalizationLayer.">
<polygon fill="white" stroke="black" points="139.5,-1634.5 139.5,-1653.5 303.5,-1653.5 303.5,-1634.5 139.5,-1634.5"/>
<text text-anchor="middle" x="221.5" y="-1641.5" font-family="Helvetica,sans-Serif" font-size="10.00">BatchNormalizationDescriptor</text>
</a>
</g>
</g>
<!-- Node1&#45;&gt;Node5 -->
<g id="edge4" class="edge">
<title>Node1&#45;&gt;Node5</title>
<path fill="none" stroke="midnightblue" d="M47.28,-903.87C51.87,-1016.35 76.9,-1570.05 127,-1625 130.57,-1628.92 134.71,-1632.15 139.22,-1634.81"/>
<polygon fill="midnightblue" stroke="midnightblue" points="50.77,-903.48 46.87,-893.63 43.77,-903.76 50.77,-903.48"/>
</g>
<!-- Node6 -->
<g id="node6" class="node">
<title>Node6</title>
<g id="a_node6"><a xlink:href="structarmnn_1_1_batch_to_space_nd_descriptor.html" target="_top" xlink:title="A BatchToSpaceNdDescriptor for the BatchToSpaceNdLayer.">
<polygon fill="white" stroke="black" points="147.5,-1596.5 147.5,-1615.5 295.5,-1615.5 295.5,-1596.5 147.5,-1596.5"/>
<text text-anchor="middle" x="221.5" y="-1603.5" font-family="Helvetica,sans-Serif" font-size="10.00">BatchToSpaceNdDescriptor</text>
</a>
</g>
</g>
<!-- Node1&#45;&gt;Node6 -->
<g id="edge5" class="edge">
<title>Node1&#45;&gt;Node6</title>
<path fill="none" stroke="midnightblue" d="M47.4,-903.87C52.52,-1012.85 79.43,-1535.13 127,-1587 132.6,-1593.1 139.58,-1597.55 147.18,-1600.75"/>
<polygon fill="midnightblue" stroke="midnightblue" points="50.89,-903.47 46.93,-893.64 43.89,-903.79 50.89,-903.47"/>
</g>
<!-- Node7 -->
<g id="node7" class="node">
<title>Node7</title>
<g id="a_node7"><a xlink:href="structarmnn_1_1_broadcast_to_descriptor.html" target="_top" xlink:title=" ">
<polygon fill="white" stroke="black" points="158.5,-1558.5 158.5,-1577.5 284.5,-1577.5 284.5,-1558.5 158.5,-1558.5"/>
<text text-anchor="middle" x="221.5" y="-1565.5" font-family="Helvetica,sans-Serif" font-size="10.00">BroadcastToDescriptor</text>
</a>
</g>
</g>
<!-- Node1&#45;&gt;Node7 -->
<g id="edge6" class="edge">
<title>Node1&#45;&gt;Node7</title>
<path fill="none" stroke="midnightblue" d="M47.53,-903.77C53.2,-1008.98 81.95,-1500.2 127,-1549 135.2,-1557.89 146.33,-1563.25 158.05,-1566.38"/>
<polygon fill="midnightblue" stroke="midnightblue" points="51.02,-903.41 46.99,-893.61 44.03,-903.78 51.02,-903.41"/>
</g>
<!-- Node8 -->
<g id="node8" class="node">
<title>Node8</title>
<g id="a_node8"><a xlink:href="structarmnn_1_1_channel_shuffle_descriptor.html" target="_top" xlink:title="A ChannelShuffleDescriptor for the ChannelShuffle operator.">
<polygon fill="white" stroke="black" points="151.5,-1520.5 151.5,-1539.5 291.5,-1539.5 291.5,-1520.5 151.5,-1520.5"/>
<text text-anchor="middle" x="221.5" y="-1527.5" font-family="Helvetica,sans-Serif" font-size="10.00">ChannelShuffleDescriptor</text>
</a>
</g>
</g>
<!-- Node1&#45;&gt;Node8 -->
<g id="edge7" class="edge">
<title>Node1&#45;&gt;Node8</title>
<path fill="none" stroke="midnightblue" d="M46.08,-903.69C44.48,-999.94 42.44,-1420.05 127,-1511 133.65,-1518.16 142.21,-1523.02 151.43,-1526.28"/>
<polygon fill="midnightblue" stroke="midnightblue" points="49.59,-903.66 46.27,-893.6 42.59,-903.53 49.59,-903.66"/>
</g>
<!-- Node9 -->
<g id="node9" class="node">
<title>Node9</title>
<g id="a_node9"><a xlink:href="structarmnn_1_1_comparison_descriptor.html" target="_top" xlink:title="A ComparisonDescriptor for the ComparisonLayer.">
<polygon fill="white" stroke="black" points="159,-1482.5 159,-1501.5 284,-1501.5 284,-1482.5 159,-1482.5"/>
<text text-anchor="middle" x="221.5" y="-1489.5" font-family="Helvetica,sans-Serif" font-size="10.00">ComparisonDescriptor</text>
</a>
</g>
</g>
<!-- Node1&#45;&gt;Node9 -->
<g id="edge8" class="edge">
<title>Node1&#45;&gt;Node9</title>
<path fill="none" stroke="midnightblue" d="M46.26,-903.95C45.58,-997.11 47.56,-1388.25 127,-1473 135.38,-1481.94 146.73,-1487.3 158.63,-1490.41"/>
<polygon fill="midnightblue" stroke="midnightblue" points="49.76,-903.93 46.36,-893.9 42.76,-903.86 49.76,-903.93"/>
</g>
<!-- Node10 -->
<g id="node10" class="node">
<title>Node10</title>
<g id="a_node10"><a xlink:href="structarmnn_1_1_convolution2d_descriptor.html" target="_top" xlink:title="A Convolution2dDescriptor for the Convolution2dLayer.">
<polygon fill="white" stroke="black" points="153,-1444.5 153,-1463.5 290,-1463.5 290,-1444.5 153,-1444.5"/>
<text text-anchor="middle" x="221.5" y="-1451.5" font-family="Helvetica,sans-Serif" font-size="10.00">Convolution2dDescriptor</text>
</a>
</g>
</g>
<!-- Node1&#45;&gt;Node10 -->
<g id="edge9" class="edge">
<title>Node1&#45;&gt;Node10</title>
<path fill="none" stroke="midnightblue" d="M46.47,-903.78C46.76,-992.91 52.53,-1356.28 127,-1435 134.06,-1442.46 143.18,-1447.42 152.96,-1450.66"/>
<polygon fill="midnightblue" stroke="midnightblue" points="49.97,-903.68 46.46,-893.69 42.97,-903.69 49.97,-903.68"/>
</g>
<!-- Node11 -->
<g id="node11" class="node">
<title>Node11</title>
<g id="a_node11"><a xlink:href="structarmnn_1_1_convolution3d_descriptor.html" target="_top" xlink:title="A Convolution3dDescriptor for the Convolution3dLayer.">
<polygon fill="white" stroke="black" points="153,-1406.5 153,-1425.5 290,-1425.5 290,-1406.5 153,-1406.5"/>
<text text-anchor="middle" x="221.5" y="-1413.5" font-family="Helvetica,sans-Serif" font-size="10.00">Convolution3dDescriptor</text>
</a>
</g>
</g>
<!-- Node1&#45;&gt;Node11 -->
<g id="edge10" class="edge">
<title>Node1&#45;&gt;Node11</title>
<path fill="none" stroke="midnightblue" d="M46.71,-904.03C48.03,-989.72 57.61,-1324.42 127,-1397 133.98,-1404.3 142.95,-1409.2 152.55,-1412.43"/>
<polygon fill="midnightblue" stroke="midnightblue" points="50.21,-903.79 46.57,-893.84 43.21,-903.89 50.21,-903.79"/>
</g>
<!-- Node12 -->
<g id="node12" class="node">
<title>Node12</title>
<g id="a_node12"><a xlink:href="structarmnn_1_1_depthwise_convolution2d_descriptor.html" target="_top" xlink:title="A DepthwiseConvolution2dDescriptor for the DepthwiseConvolution2dLayer.">
<polygon fill="white" stroke="black" points="127,-1368.5 127,-1387.5 316,-1387.5 316,-1368.5 127,-1368.5"/>
<text text-anchor="middle" x="221.5" y="-1375.5" font-family="Helvetica,sans-Serif" font-size="10.00">DepthwiseConvolution2dDescriptor</text>
</a>
</g>
</g>
<!-- Node1&#45;&gt;Node12 -->
<g id="edge11" class="edge">
<title>Node1&#45;&gt;Node12</title>
<path fill="none" stroke="midnightblue" d="M46.98,-903.82C49.36,-985.18 62.55,-1292.41 127,-1359 130.57,-1362.69 134.65,-1365.76 139.06,-1368.32"/>
<polygon fill="midnightblue" stroke="midnightblue" points="50.47,-903.41 46.7,-893.51 43.47,-903.6 50.47,-903.41"/>
</g>
<!-- Node13 -->
<g id="node13" class="node">
<title>Node13</title>
<g id="a_node13"><a xlink:href="structarmnn_1_1_detection_post_process_descriptor.html" target="_top" xlink:title=" ">
<polygon fill="white" stroke="black" points="135,-1330.5 135,-1349.5 308,-1349.5 308,-1330.5 135,-1330.5"/>
<text text-anchor="middle" x="221.5" y="-1337.5" font-family="Helvetica,sans-Serif" font-size="10.00">DetectionPostProcessDescriptor</text>
</a>
</g>
</g>
<!-- Node1&#45;&gt;Node13 -->
<g id="edge12" class="edge">
<title>Node1&#45;&gt;Node13</title>
<path fill="none" stroke="midnightblue" d="M47.31,-904.2C50.87,-981.94 67.62,-1260.53 127,-1321 130.6,-1324.66 134.69,-1327.72 139.12,-1330.26"/>
<polygon fill="midnightblue" stroke="midnightblue" points="50.8,-903.71 46.87,-893.87 43.8,-904.01 50.8,-903.71"/>
</g>
<!-- Node14 -->
<g id="node14" class="node">
<title>Node14</title>
<g id="a_node14"><a xlink:href="structarmnn_1_1_elementwise_binary_descriptor.html" target="_top" xlink:title="A ElementwiseBinaryDescriptor for the ElementwiseBinaryLayer.">
<polygon fill="white" stroke="black" points="141,-1292.5 141,-1311.5 302,-1311.5 302,-1292.5 141,-1292.5"/>
<text text-anchor="middle" x="221.5" y="-1299.5" font-family="Helvetica,sans-Serif" font-size="10.00">ElementwiseBinaryDescriptor</text>
</a>
</g>
</g>
<!-- Node1&#45;&gt;Node14 -->
<g id="edge13" class="edge">
<title>Node1&#45;&gt;Node14</title>
<path fill="none" stroke="midnightblue" d="M47.68,-903.84C52.41,-976.74 72.49,-1228.42 127,-1283 131.1,-1287.1 135.82,-1290.44 140.92,-1293.14"/>
<polygon fill="midnightblue" stroke="midnightblue" points="51.16,-903.49 47.05,-893.73 44.17,-903.93 51.16,-903.49"/>
</g>
<!-- Node15 -->
<g id="node15" class="node">
<title>Node15</title>
<g id="a_node15"><a xlink:href="structarmnn_1_1_elementwise_unary_descriptor.html" target="_top" xlink:title="A ElementwiseUnaryDescriptor for the ElementwiseUnaryLayer.">
<polygon fill="white" stroke="black" points="142,-1254.5 142,-1273.5 301,-1273.5 301,-1254.5 142,-1254.5"/>
<text text-anchor="middle" x="221.5" y="-1261.5" font-family="Helvetica,sans-Serif" font-size="10.00">ElementwiseUnaryDescriptor</text>
</a>
</g>
</g>
<!-- Node1&#45;&gt;Node15 -->
<g id="edge14" class="edge">
<title>Node1&#45;&gt;Node15</title>
<path fill="none" stroke="midnightblue" d="M48.16,-904.12C54.22,-972.81 77.5,-1196.43 127,-1245 131.37,-1249.29 136.44,-1252.74 141.9,-1255.5"/>
<polygon fill="midnightblue" stroke="midnightblue" points="51.61,-903.49 47.27,-893.82 44.64,-904.09 51.61,-903.49"/>
</g>
<!-- Node16 -->
<g id="node16" class="node">
<title>Node16</title>
<g id="a_node16"><a xlink:href="structarmnn_1_1_fake_quantization_descriptor.html" target="_top" xlink:title="A FakeQuantizationDescriptor for the FakeQuantizationLayer.">
<polygon fill="white" stroke="black" points="146,-1216.5 146,-1235.5 297,-1235.5 297,-1216.5 146,-1216.5"/>
<text text-anchor="middle" x="221.5" y="-1223.5" font-family="Helvetica,sans-Serif" font-size="10.00">FakeQuantizationDescriptor</text>
</a>
</g>
</g>
<!-- Node1&#45;&gt;Node16 -->
<g id="edge15" class="edge">
<title>Node1&#45;&gt;Node16</title>
<path fill="none" stroke="midnightblue" d="M48.71,-904.05C56.16,-967.81 82.39,-1164.3 127,-1207 132.38,-1212.15 138.77,-1216.08 145.63,-1219.06"/>
<polygon fill="midnightblue" stroke="midnightblue" points="52.15,-903.29 47.54,-893.75 45.2,-904.08 52.15,-903.29"/>
</g>
<!-- Node17 -->
<g id="node17" class="node">
<title>Node17</title>
<g id="a_node17"><a xlink:href="structarmnn_1_1_fill_descriptor.html" target="_top" xlink:title="A FillDescriptor for the FillLayer.">
<polygon fill="white" stroke="black" points="181,-1178.5 181,-1197.5 262,-1197.5 262,-1178.5 181,-1178.5"/>
<text text-anchor="middle" x="221.5" y="-1185.5" font-family="Helvetica,sans-Serif" font-size="10.00">FillDescriptor</text>
</a>
</g>
</g>
<!-- Node1&#45;&gt;Node17 -->
<g id="edge16" class="edge">
<title>Node1&#45;&gt;Node17</title>
<path fill="none" stroke="midnightblue" d="M45.63,-903.83C44.53,-955.78 49.21,-1096.82 127,-1169 141.33,-1182.29 162.31,-1187.37 180.77,-1188.98"/>
<polygon fill="midnightblue" stroke="midnightblue" points="49.14,-903.74 45.95,-893.64 42.14,-903.52 49.14,-903.74"/>
</g>
<!-- Node18 -->
<g id="node18" class="node">
<title>Node18</title>
<g id="a_node18"><a xlink:href="structarmnn_1_1_fully_connected_descriptor.html" target="_top" xlink:title="A FullyConnectedDescriptor for the FullyConnectedLayer.">
<polygon fill="white" stroke="black" points="150.5,-1140.5 150.5,-1159.5 292.5,-1159.5 292.5,-1140.5 150.5,-1140.5"/>
<text text-anchor="middle" x="221.5" y="-1147.5" font-family="Helvetica,sans-Serif" font-size="10.00">FullyConnectedDescriptor</text>
</a>
</g>
</g>
<!-- Node1&#45;&gt;Node18 -->
<g id="edge17" class="edge">
<title>Node1&#45;&gt;Node18</title>
<path fill="none" stroke="midnightblue" d="M46.64,-903.7C48.11,-950.72 58.73,-1070.14 127,-1131 133.68,-1136.95 141.7,-1141.24 150.2,-1144.3"/>
<polygon fill="midnightblue" stroke="midnightblue" points="50.14,-903.54 46.44,-893.61 43.14,-903.68 50.14,-903.54"/>
</g>
<!-- Node19 -->
<g id="node19" class="node">
<title>Node19</title>
<g id="a_node19"><a xlink:href="structarmnn_1_1_fused_descriptor.html" target="_top" xlink:title="A FusedDescriptor for the FusedLayer.">
<polygon fill="white" stroke="black" points="174,-1102.5 174,-1121.5 269,-1121.5 269,-1102.5 174,-1102.5"/>
<text text-anchor="middle" x="221.5" y="-1109.5" font-family="Helvetica,sans-Serif" font-size="10.00">FusedDescriptor</text>
</a>
</g>
</g>
<!-- Node1&#45;&gt;Node19 -->
<g id="edge18" class="edge">
<title>Node1&#45;&gt;Node19</title>
<path fill="none" stroke="midnightblue" d="M47.98,-903.76C52.23,-945.59 68.25,-1043.33 127,-1093 139.9,-1103.91 157.37,-1109.14 173.71,-1111.49"/>
<polygon fill="midnightblue" stroke="midnightblue" points="51.46,-903.39 47.08,-893.74 44.49,-904.01 51.46,-903.39"/>
</g>
<!-- Node20 -->
<g id="node20" class="node">
<title>Node20</title>
<g id="a_node20"><a xlink:href="structarmnn_1_1_gather_descriptor.html" target="_top" xlink:title="A GatherDescriptor for the GatherLayer.">
<polygon fill="white" stroke="black" points="171.5,-1064.5 171.5,-1083.5 271.5,-1083.5 271.5,-1064.5 171.5,-1064.5"/>
<text text-anchor="middle" x="221.5" y="-1071.5" font-family="Helvetica,sans-Serif" font-size="10.00">GatherDescriptor</text>
</a>
</g>
</g>
<!-- Node1&#45;&gt;Node20 -->
<g id="edge19" class="edge">
<title>Node1&#45;&gt;Node20</title>
<path fill="none" stroke="midnightblue" d="M49.87,-903.82C57.09,-939.92 77.63,-1016.24 127,-1055 139.51,-1064.82 155.78,-1069.95 171.24,-1072.52"/>
<polygon fill="midnightblue" stroke="midnightblue" points="53.24,-902.8 47.97,-893.61 46.36,-904.08 53.24,-902.8"/>
</g>
<!-- Node21 -->
<g id="node21" class="node">
<title>Node21</title>
<g id="a_node21"><a xlink:href="structarmnn_1_1_instance_normalization_descriptor.html" target="_top" xlink:title="An InstanceNormalizationDescriptor for InstanceNormalizationLayer.">
<polygon fill="white" stroke="black" points="133,-1026.5 133,-1045.5 310,-1045.5 310,-1026.5 133,-1026.5"/>
<text text-anchor="middle" x="221.5" y="-1033.5" font-family="Helvetica,sans-Serif" font-size="10.00">InstanceNormalizationDescriptor</text>
</a>
</g>
</g>
<!-- Node1&#45;&gt;Node21 -->
<g id="edge20" class="edge">
<title>Node1&#45;&gt;Node21</title>
<path fill="none" stroke="midnightblue" d="M52.47,-903.11C62.71,-932.53 86.51,-988.49 127,-1017 132.42,-1020.81 138.42,-1023.9 144.71,-1026.39"/>
<polygon fill="midnightblue" stroke="midnightblue" points="55.78,-901.97 49.31,-893.58 49.14,-904.17 55.78,-901.97"/>
</g>
<!-- Node22 -->
<g id="node22" class="node">
<title>Node22</title>
<g id="a_node22"><a xlink:href="structarmnn_1_1_l2_normalization_descriptor.html" target="_top" xlink:title="A L2NormalizationDescriptor for the L2NormalizationLayer.">
<polygon fill="white" stroke="black" points="148,-988.5 148,-1007.5 295,-1007.5 295,-988.5 148,-988.5"/>
<text text-anchor="middle" x="221.5" y="-995.5" font-family="Helvetica,sans-Serif" font-size="10.00">L2NormalizationDescriptor</text>
</a>
</g>
</g>
<!-- Node1&#45;&gt;Node22 -->
<g id="edge21" class="edge">
<title>Node1&#45;&gt;Node22</title>
<path fill="none" stroke="midnightblue" d="M56.77,-902.34C70.03,-924.23 95.23,-960.21 127,-979 133.56,-982.88 140.78,-985.98 148.21,-988.45"/>
<polygon fill="midnightblue" stroke="midnightblue" points="59.76,-900.52 51.68,-893.65 53.72,-904.05 59.76,-900.52"/>
</g>
<!-- Node23 -->
<g id="node23" class="node">
<title>Node23</title>
<g id="a_node23"><a xlink:href="structarmnn_1_1_logical_binary_descriptor.html" target="_top" xlink:title="A LogicalBinaryDescriptor for the LogicalBinaryLayer.">
<polygon fill="white" stroke="black" points="155,-950.5 155,-969.5 288,-969.5 288,-950.5 155,-950.5"/>
<text text-anchor="middle" x="221.5" y="-957.5" font-family="Helvetica,sans-Serif" font-size="10.00">LogicalBinaryDescriptor</text>
</a>
</g>
</g>
<!-- Node1&#45;&gt;Node23 -->
<g id="edge22" class="edge">
<title>Node1&#45;&gt;Node23</title>
<path fill="none" stroke="midnightblue" d="M64.82,-900.37C80.31,-913.34 103.66,-930.9 127,-941 135.97,-944.88 145.77,-947.98 155.54,-950.46"/>
<polygon fill="midnightblue" stroke="midnightblue" points="66.93,-897.57 57.07,-893.71 62.37,-902.88 66.93,-897.57"/>
</g>
<!-- Node24 -->
<g id="node24" class="node">
<title>Node24</title>
<g id="a_node24"><a xlink:href="structarmnn_1_1_lstm_descriptor.html" target="_top" xlink:title="An LstmDescriptor for the LstmLayer.">
<polygon fill="white" stroke="black" points="176,-912.5 176,-931.5 267,-931.5 267,-912.5 176,-912.5"/>
<text text-anchor="middle" x="221.5" y="-919.5" font-family="Helvetica,sans-Serif" font-size="10.00">LstmDescriptor</text>
</a>
</g>
</g>
<!-- Node1&#45;&gt;Node24 -->
<g id="edge23" class="edge">
<title>Node1&#45;&gt;Node24</title>
<path fill="none" stroke="midnightblue" d="M95.51,-895.83C105.89,-898.26 116.8,-900.76 127,-903 142.86,-906.48 160.27,-910.08 175.73,-913.2"/>
<polygon fill="midnightblue" stroke="midnightblue" points="96.29,-892.41 85.75,-893.52 94.68,-899.23 96.29,-892.41"/>
</g>
<!-- Node25 -->
<g id="node25" class="node">
<title>Node25</title>
<g id="a_node25"><a xlink:href="structarmnn_1_1_mean_descriptor.html" target="_top" xlink:title="A MeanDescriptor for the MeanLayer.">
<polygon fill="white" stroke="black" points="174.5,-874.5 174.5,-893.5 268.5,-893.5 268.5,-874.5 174.5,-874.5"/>
<text text-anchor="middle" x="221.5" y="-881.5" font-family="Helvetica,sans-Serif" font-size="10.00">MeanDescriptor</text>
</a>
</g>
</g>
<!-- Node1&#45;&gt;Node25 -->
<g id="edge24" class="edge">
<title>Node1&#45;&gt;Node25</title>
<path fill="none" stroke="midnightblue" d="M101.45,-884C124.89,-884 151.94,-884 174.33,-884"/>
<polygon fill="midnightblue" stroke="midnightblue" points="101.31,-880.5 91.31,-884 101.31,-887.5 101.31,-880.5"/>
</g>
<!-- Node26 -->
<g id="node26" class="node">
<title>Node26</title>
<g id="a_node26"><a xlink:href="structarmnn_1_1_normalization_descriptor.html" target="_top" xlink:title="A NormalizationDescriptor for the NormalizationLayer.">
<polygon fill="white" stroke="black" points="153.5,-836.5 153.5,-855.5 289.5,-855.5 289.5,-836.5 153.5,-836.5"/>
<text text-anchor="middle" x="221.5" y="-843.5" font-family="Helvetica,sans-Serif" font-size="10.00">NormalizationDescriptor</text>
</a>
</g>
</g>
<!-- Node1&#45;&gt;Node26 -->
<g id="edge25" class="edge">
<title>Node1&#45;&gt;Node26</title>
<path fill="none" stroke="midnightblue" d="M95.51,-872.17C105.89,-869.74 116.8,-867.24 127,-865 141.56,-861.8 157.44,-858.51 171.91,-855.57"/>
<polygon fill="midnightblue" stroke="midnightblue" points="94.68,-868.77 85.75,-874.48 96.29,-875.59 94.68,-868.77"/>
</g>
<!-- Node27 -->
<g id="node27" class="node">
<title>Node27</title>
<g id="a_node27"><a xlink:href="structarmnn_1_1_null_descriptor.html" target="_top" xlink:title="Null Descriptor used as a return value from the IConnectableLayer GetParameters method by layers whic...">
<polygon fill="white" stroke="black" points="178.5,-798.5 178.5,-817.5 264.5,-817.5 264.5,-798.5 178.5,-798.5"/>
<text text-anchor="middle" x="221.5" y="-805.5" font-family="Helvetica,sans-Serif" font-size="10.00">NullDescriptor</text>
</a>
</g>
</g>
<!-- Node1&#45;&gt;Node27 -->
<g id="edge26" class="edge">
<title>Node1&#45;&gt;Node27</title>
<path fill="none" stroke="midnightblue" d="M64.82,-867.63C80.31,-854.66 103.66,-837.1 127,-827 143.11,-820.03 161.92,-815.57 178.41,-812.74"/>
<polygon fill="midnightblue" stroke="midnightblue" points="62.37,-865.12 57.07,-874.29 66.93,-870.43 62.37,-865.12"/>
</g>
<!-- Node28 -->
<g id="node28" class="node">
<title>Node28</title>
<g id="a_node28"><a xlink:href="structarmnn_1_1_origins_descriptor.html" target="_top" xlink:title="An OriginsDescriptor for the ConcatLayer.">
<polygon fill="white" stroke="black" points="171,-760.5 171,-779.5 272,-779.5 272,-760.5 171,-760.5"/>
<text text-anchor="middle" x="221.5" y="-767.5" font-family="Helvetica,sans-Serif" font-size="10.00">OriginsDescriptor</text>
</a>
</g>
</g>
<!-- Node1&#45;&gt;Node28 -->
<g id="edge27" class="edge">
<title>Node1&#45;&gt;Node28</title>
<path fill="none" stroke="midnightblue" d="M56.77,-865.66C70.03,-843.77 95.23,-807.79 127,-789 140.12,-781.24 155.88,-776.61 170.7,-773.85"/>
<polygon fill="midnightblue" stroke="midnightblue" points="53.72,-863.95 51.68,-874.35 59.76,-867.48 53.72,-863.95"/>
</g>
<!-- Node29 -->
<g id="node29" class="node">
<title>Node29</title>
<g id="a_node29"><a xlink:href="structarmnn_1_1_pad_descriptor.html" target="_top" xlink:title="A PadDescriptor for the PadLayer.">
<polygon fill="white" stroke="black" points="179.5,-722.5 179.5,-741.5 263.5,-741.5 263.5,-722.5 179.5,-722.5"/>
<text text-anchor="middle" x="221.5" y="-729.5" font-family="Helvetica,sans-Serif" font-size="10.00">PadDescriptor</text>
</a>
</g>
</g>
<!-- Node1&#45;&gt;Node29 -->
<g id="edge28" class="edge">
<title>Node1&#45;&gt;Node29</title>
<path fill="none" stroke="midnightblue" d="M52.47,-864.89C62.71,-835.47 86.51,-779.51 127,-751 142.17,-740.32 161.96,-735.35 179.43,-733.13"/>
<polygon fill="midnightblue" stroke="midnightblue" points="49.14,-863.83 49.31,-874.42 55.78,-866.03 49.14,-863.83"/>
</g>
<!-- Node30 -->
<g id="node30" class="node">
<title>Node30</title>
<g id="a_node30"><a xlink:href="structarmnn_1_1_permute_descriptor.html" target="_top" xlink:title="A PermuteDescriptor for the PermuteLayer.">
<polygon fill="white" stroke="black" points="167.5,-684.5 167.5,-703.5 275.5,-703.5 275.5,-684.5 167.5,-684.5"/>
<text text-anchor="middle" x="221.5" y="-691.5" font-family="Helvetica,sans-Serif" font-size="10.00">PermuteDescriptor</text>
</a>
</g>
</g>
<!-- Node1&#45;&gt;Node30 -->
<g id="edge29" class="edge">
<title>Node1&#45;&gt;Node30</title>
<path fill="none" stroke="midnightblue" d="M49.87,-864.18C57.09,-828.08 77.63,-751.76 127,-713 138.46,-704 153.1,-698.94 167.36,-696.18"/>
<polygon fill="midnightblue" stroke="midnightblue" points="46.36,-863.92 47.97,-874.39 53.24,-865.2 46.36,-863.92"/>
</g>
<!-- Node31 -->
<g id="node31" class="node">
<title>Node31</title>
<g id="a_node31"><a xlink:href="structarmnn_1_1_pooling2d_descriptor.html" target="_top" xlink:title="A Pooling2dDescriptor for the Pooling2dLayer.">
<polygon fill="white" stroke="black" points="164,-646.5 164,-665.5 279,-665.5 279,-646.5 164,-646.5"/>
<text text-anchor="middle" x="221.5" y="-653.5" font-family="Helvetica,sans-Serif" font-size="10.00">Pooling2dDescriptor</text>
</a>
</g>
</g>
<!-- Node1&#45;&gt;Node31 -->
<g id="edge30" class="edge">
<title>Node1&#45;&gt;Node31</title>
<path fill="none" stroke="midnightblue" d="M47.98,-864.24C52.23,-822.41 68.25,-724.67 127,-675 137.25,-666.34 150.37,-661.26 163.52,-658.35"/>
<polygon fill="midnightblue" stroke="midnightblue" points="44.49,-863.99 47.08,-874.26 51.46,-864.61 44.49,-863.99"/>
</g>
<!-- Node32 -->
<g id="node32" class="node">
<title>Node32</title>
<g id="a_node32"><a xlink:href="structarmnn_1_1_pooling3d_descriptor.html" target="_top" xlink:title="A Pooling3dDescriptor for the Pooling3dLayer.">
<polygon fill="white" stroke="black" points="164,-608.5 164,-627.5 279,-627.5 279,-608.5 164,-608.5"/>
<text text-anchor="middle" x="221.5" y="-615.5" font-family="Helvetica,sans-Serif" font-size="10.00">Pooling3dDescriptor</text>
</a>
</g>
</g>
<!-- Node1&#45;&gt;Node32 -->
<g id="edge31" class="edge">
<title>Node1&#45;&gt;Node32</title>
<path fill="none" stroke="midnightblue" d="M46.64,-864.3C48.11,-817.28 58.73,-697.86 127,-637 137.14,-627.96 150.38,-622.76 163.69,-619.87"/>
<polygon fill="midnightblue" stroke="midnightblue" points="43.14,-864.32 46.44,-874.39 50.14,-864.46 43.14,-864.32"/>
</g>
<!-- Node33 -->
<g id="node33" class="node">
<title>Node33</title>
<g id="a_node33"><a xlink:href="structarmnn_1_1_pre_compiled_descriptor.html" target="_top" xlink:title="A PreCompiledDescriptor for the PreCompiledLayer.">
<polygon fill="white" stroke="black" points="157,-570.5 157,-589.5 286,-589.5 286,-570.5 157,-570.5"/>
<text text-anchor="middle" x="221.5" y="-577.5" font-family="Helvetica,sans-Serif" font-size="10.00">PreCompiledDescriptor</text>
</a>
</g>
</g>
<!-- Node1&#45;&gt;Node33 -->
<g id="edge32" class="edge">
<title>Node1&#45;&gt;Node33</title>
<path fill="none" stroke="midnightblue" d="M45.63,-864.17C44.53,-812.22 49.21,-671.18 127,-599 135.26,-591.34 145.72,-586.41 156.65,-583.3"/>
<polygon fill="midnightblue" stroke="midnightblue" points="42.14,-864.48 45.95,-874.36 49.14,-864.26 42.14,-864.48"/>
</g>
<!-- Node34 -->
<g id="node34" class="node">
<title>Node34</title>
<g id="a_node34"><a xlink:href="structarmnn_1_1_q_lstm_descriptor.html" target="_top" xlink:title="A QLstmDescriptor for the QLstmLayer.">
<polygon fill="white" stroke="black" points="172.5,-532.5 172.5,-551.5 270.5,-551.5 270.5,-532.5 172.5,-532.5"/>
<text text-anchor="middle" x="221.5" y="-539.5" font-family="Helvetica,sans-Serif" font-size="10.00">QLstmDescriptor</text>
</a>
</g>
</g>
<!-- Node1&#45;&gt;Node34 -->
<g id="edge33" class="edge">
<title>Node1&#45;&gt;Node34</title>
<path fill="none" stroke="midnightblue" d="M48.71,-863.95C56.16,-800.19 82.39,-603.7 127,-561 139.09,-549.43 156.19,-544.03 172.47,-541.74"/>
<polygon fill="midnightblue" stroke="midnightblue" points="45.2,-863.92 47.54,-874.25 52.15,-864.71 45.2,-863.92"/>
</g>
<!-- Node35 -->
<g id="node35" class="node">
<title>Node35</title>
<g id="a_node35"><a xlink:href="structarmnn_1_1_reduce_descriptor.html" target="_top" xlink:title="A ReduceDescriptor for the REDUCE operators.">
<polygon fill="white" stroke="black" points="170,-494.5 170,-513.5 273,-513.5 273,-494.5 170,-494.5"/>
<text text-anchor="middle" x="221.5" y="-501.5" font-family="Helvetica,sans-Serif" font-size="10.00">ReduceDescriptor</text>
</a>
</g>
</g>
<!-- Node1&#45;&gt;Node35 -->
<g id="edge34" class="edge">
<title>Node1&#45;&gt;Node35</title>
<path fill="none" stroke="midnightblue" d="M48.16,-863.88C54.22,-795.19 77.5,-571.57 127,-523 138.35,-511.86 154.34,-506.41 169.88,-503.94"/>
<polygon fill="midnightblue" stroke="midnightblue" points="44.64,-863.91 47.27,-874.18 51.61,-864.51 44.64,-863.91"/>
</g>
<!-- Node36 -->
<g id="node36" class="node">
<title>Node36</title>
<g id="a_node36"><a xlink:href="structarmnn_1_1_reshape_descriptor.html" target="_top" xlink:title="A ReshapeDescriptor for the ReshapeLayer.">
<polygon fill="white" stroke="black" points="167,-456.5 167,-475.5 276,-475.5 276,-456.5 167,-456.5"/>
<text text-anchor="middle" x="221.5" y="-463.5" font-family="Helvetica,sans-Serif" font-size="10.00">ReshapeDescriptor</text>
</a>
</g>
</g>
<!-- Node1&#45;&gt;Node36 -->
<g id="edge35" class="edge">
<title>Node1&#45;&gt;Node36</title>
<path fill="none" stroke="midnightblue" d="M47.68,-864.16C52.41,-791.26 72.49,-539.58 127,-485 137.53,-474.45 152.22,-468.97 166.83,-466.3"/>
<polygon fill="midnightblue" stroke="midnightblue" points="44.17,-864.07 47.05,-874.27 51.16,-864.51 44.17,-864.07"/>
</g>
<!-- Node37 -->
<g id="node37" class="node">
<title>Node37</title>
<g id="a_node37"><a xlink:href="structarmnn_1_1_resize_descriptor.html" target="_top" xlink:title="A ResizeDescriptor for the ResizeLayer.">
<polygon fill="white" stroke="black" points="172,-418.5 172,-437.5 271,-437.5 271,-418.5 172,-418.5"/>
<text text-anchor="middle" x="221.5" y="-425.5" font-family="Helvetica,sans-Serif" font-size="10.00">ResizeDescriptor</text>
</a>
</g>
</g>
<!-- Node1&#45;&gt;Node37 -->
<g id="edge36" class="edge">
<title>Node1&#45;&gt;Node37</title>
<path fill="none" stroke="midnightblue" d="M47.31,-863.8C50.87,-786.06 67.62,-507.47 127,-447 138.61,-435.18 155.41,-429.7 171.58,-427.4"/>
<polygon fill="midnightblue" stroke="midnightblue" points="43.8,-863.99 46.87,-874.13 50.8,-864.29 43.8,-863.99"/>
</g>
<!-- Node38 -->
<g id="node38" class="node">
<title>Node38</title>
<g id="a_node38"><a xlink:href="structarmnn_1_1_slice_descriptor.html" target="_top" xlink:title="A SliceDescriptor for the SliceLayer.">
<polygon fill="white" stroke="black" points="176.5,-380.5 176.5,-399.5 266.5,-399.5 266.5,-380.5 176.5,-380.5"/>
<text text-anchor="middle" x="221.5" y="-387.5" font-family="Helvetica,sans-Serif" font-size="10.00">SliceDescriptor</text>
</a>
</g>
</g>
<!-- Node1&#45;&gt;Node38 -->
<g id="edge37" class="edge">
<title>Node1&#45;&gt;Node38</title>
<path fill="none" stroke="midnightblue" d="M46.98,-864.18C49.36,-782.82 62.55,-475.59 127,-409 139.67,-395.91 158.72,-390.56 176.32,-388.72"/>
<polygon fill="midnightblue" stroke="midnightblue" points="43.47,-864.4 46.7,-874.49 50.47,-864.59 43.47,-864.4"/>
</g>
<!-- Node39 -->
<g id="node39" class="node">
<title>Node39</title>
<g id="a_node39"><a xlink:href="structarmnn_1_1_softmax_descriptor.html" target="_top" xlink:title="A SoftmaxDescriptor for the SoftmaxLayer.">
<polygon fill="white" stroke="black" points="168,-342.5 168,-361.5 275,-361.5 275,-342.5 168,-342.5"/>
<text text-anchor="middle" x="221.5" y="-349.5" font-family="Helvetica,sans-Serif" font-size="10.00">SoftmaxDescriptor</text>
</a>
</g>
</g>
<!-- Node1&#45;&gt;Node39 -->
<g id="edge38" class="edge">
<title>Node1&#45;&gt;Node39</title>
<path fill="none" stroke="midnightblue" d="M46.71,-863.97C48.03,-778.28 57.61,-443.58 127,-371 137.53,-359.99 152.57,-354.43 167.51,-351.84"/>
<polygon fill="midnightblue" stroke="midnightblue" points="43.21,-864.11 46.57,-874.16 50.21,-864.21 43.21,-864.11"/>
</g>
<!-- Node40 -->
<g id="node40" class="node">
<title>Node40</title>
<g id="a_node40"><a xlink:href="structarmnn_1_1_space_to_batch_nd_descriptor.html" target="_top" xlink:title="A SpaceToBatchNdDescriptor for the SpaceToBatchNdLayer.">
<polygon fill="white" stroke="black" points="147.5,-304.5 147.5,-323.5 295.5,-323.5 295.5,-304.5 147.5,-304.5"/>
<text text-anchor="middle" x="221.5" y="-311.5" font-family="Helvetica,sans-Serif" font-size="10.00">SpaceToBatchNdDescriptor</text>
</a>
</g>
</g>
<!-- Node1&#45;&gt;Node40 -->
<g id="edge39" class="edge">
<title>Node1&#45;&gt;Node40</title>
<path fill="none" stroke="midnightblue" d="M46.47,-864.22C46.76,-775.09 52.53,-411.72 127,-333 132.69,-326.98 139.73,-322.59 147.36,-319.42"/>
<polygon fill="midnightblue" stroke="midnightblue" points="42.97,-864.31 46.46,-874.31 49.97,-864.32 42.97,-864.31"/>
</g>
<!-- Node41 -->
<g id="node41" class="node">
<title>Node41</title>
<g id="a_node41"><a xlink:href="structarmnn_1_1_space_to_depth_descriptor.html" target="_top" xlink:title="A SpaceToDepthDescriptor for the SpaceToDepthLayer.">
<polygon fill="white" stroke="black" points="153.5,-266.5 153.5,-285.5 289.5,-285.5 289.5,-266.5 153.5,-266.5"/>
<text text-anchor="middle" x="221.5" y="-273.5" font-family="Helvetica,sans-Serif" font-size="10.00">SpaceToDepthDescriptor</text>
</a>
</g>
</g>
<!-- Node1&#45;&gt;Node41 -->
<g id="edge40" class="edge">
<title>Node1&#45;&gt;Node41</title>
<path fill="none" stroke="midnightblue" d="M46.26,-864.05C45.58,-770.89 47.56,-379.75 127,-295 134.14,-287.39 143.42,-282.37 153.37,-279.13"/>
<polygon fill="midnightblue" stroke="midnightblue" points="42.76,-864.14 46.36,-874.1 49.76,-864.07 42.76,-864.14"/>
</g>
<!-- Node42 -->
<g id="node42" class="node">
<title>Node42</title>
<g id="a_node42"><a xlink:href="structarmnn_1_1_stack_descriptor.html" target="_top" xlink:title="A StackDescriptor for the StackLayer.">
<polygon fill="white" stroke="black" points="174.5,-228.5 174.5,-247.5 268.5,-247.5 268.5,-228.5 174.5,-228.5"/>
<text text-anchor="middle" x="221.5" y="-235.5" font-family="Helvetica,sans-Serif" font-size="10.00">StackDescriptor</text>
</a>
</g>
</g>
<!-- Node1&#45;&gt;Node42 -->
<g id="edge41" class="edge">
<title>Node1&#45;&gt;Node42</title>
<path fill="none" stroke="midnightblue" d="M46.08,-864.31C44.48,-768.06 42.44,-347.95 127,-257 138.96,-244.14 157.04,-238.67 174.13,-236.68"/>
<polygon fill="midnightblue" stroke="midnightblue" points="42.59,-864.47 46.27,-874.4 49.59,-864.34 42.59,-864.47"/>
</g>
<!-- Node43 -->
<g id="node43" class="node">
<title>Node43</title>
<g id="a_node43"><a xlink:href="structarmnn_1_1_stand_in_descriptor.html" target="_top" xlink:title="A StandInDescriptor for the StandIn layer.">
<polygon fill="white" stroke="black" points="169.5,-190.5 169.5,-209.5 273.5,-209.5 273.5,-190.5 169.5,-190.5"/>
<text text-anchor="middle" x="221.5" y="-197.5" font-family="Helvetica,sans-Serif" font-size="10.00">StandInDescriptor</text>
</a>
</g>
</g>
<!-- Node1&#45;&gt;Node43 -->
<g id="edge42" class="edge">
<title>Node1&#45;&gt;Node43</title>
<path fill="none" stroke="midnightblue" d="M47.53,-864.23C53.2,-759.02 81.95,-267.8 127,-219 137.79,-207.31 153.63,-201.72 169.22,-199.29"/>
<polygon fill="midnightblue" stroke="midnightblue" points="44.03,-864.22 46.99,-874.39 51.02,-864.59 44.03,-864.22"/>
</g>
<!-- Node44 -->
<g id="node44" class="node">
<title>Node44</title>
<g id="a_node44"><a xlink:href="structarmnn_1_1_strided_slice_descriptor.html" target="_top" xlink:title="A StridedSliceDescriptor for the StridedSliceLayer.">
<polygon fill="white" stroke="black" points="159,-152.5 159,-171.5 284,-171.5 284,-152.5 159,-152.5"/>
<text text-anchor="middle" x="221.5" y="-159.5" font-family="Helvetica,sans-Serif" font-size="10.00">StridedSliceDescriptor</text>
</a>
</g>
</g>
<!-- Node1&#45;&gt;Node44 -->
<g id="edge43" class="edge">
<title>Node1&#45;&gt;Node44</title>
<path fill="none" stroke="midnightblue" d="M47.4,-864.13C52.52,-755.15 79.43,-232.87 127,-181 135.4,-171.84 146.9,-166.42 158.97,-163.33"/>
<polygon fill="midnightblue" stroke="midnightblue" points="43.89,-864.21 46.93,-874.36 50.89,-864.53 43.89,-864.21"/>
</g>
<!-- Node45 -->
<g id="node45" class="node">
<title>Node45</title>
<g id="a_node45"><a xlink:href="structarmnn_1_1_tile_descriptor.html" target="_top" xlink:title=" ">
<polygon fill="white" stroke="black" points="179,-114.5 179,-133.5 264,-133.5 264,-114.5 179,-114.5"/>
<text text-anchor="middle" x="221.5" y="-121.5" font-family="Helvetica,sans-Serif" font-size="10.00">TileDescriptor</text>
</a>
</g>
</g>
<!-- Node1&#45;&gt;Node45 -->
<g id="edge44" class="edge">
<title>Node1&#45;&gt;Node45</title>
<path fill="none" stroke="midnightblue" d="M47.28,-864.13C51.87,-751.65 76.9,-197.95 127,-143 139.95,-128.8 160.36,-123.57 178.81,-122.09"/>
<polygon fill="midnightblue" stroke="midnightblue" points="43.77,-864.24 46.87,-874.37 50.77,-864.52 43.77,-864.24"/>
</g>
<!-- Node46 -->
<g id="node46" class="node">
<title>Node46</title>
<g id="a_node46"><a xlink:href="structarmnn_1_1_transpose_convolution2d_descriptor.html" target="_top" xlink:title="A TransposeConvolution2dDescriptor for the TransposeConvolution2dLayer.">
<polygon fill="white" stroke="black" points="128.5,-76.5 128.5,-95.5 314.5,-95.5 314.5,-76.5 128.5,-76.5"/>
<text text-anchor="middle" x="221.5" y="-83.5" font-family="Helvetica,sans-Serif" font-size="10.00">TransposeConvolution2dDescriptor</text>
</a>
</g>
</g>
<!-- Node1&#45;&gt;Node46 -->
<g id="edge45" class="edge">
<title>Node1&#45;&gt;Node46</title>
<path fill="none" stroke="midnightblue" d="M47.17,-864.2C51.24,-748.51 74.35,-163.06 127,-105 130.34,-101.32 134.18,-98.24 138.36,-95.67"/>
<polygon fill="midnightblue" stroke="midnightblue" points="43.66,-864.3 46.81,-874.42 50.66,-864.55 43.66,-864.3"/>
</g>
<!-- Node47 -->
<g id="node47" class="node">
<title>Node47</title>
<g id="a_node47"><a xlink:href="structarmnn_1_1_transpose_descriptor.html" target="_top" xlink:title="A TransposeDescriptor for the TransposeLayer.">
<polygon fill="white" stroke="black" points="163.5,-38.5 163.5,-57.5 279.5,-57.5 279.5,-38.5 163.5,-38.5"/>
<text text-anchor="middle" x="221.5" y="-45.5" font-family="Helvetica,sans-Serif" font-size="10.00">TransposeDescriptor</text>
</a>
</g>
</g>
<!-- Node1&#45;&gt;Node47 -->
<g id="edge46" class="edge">
<title>Node1&#45;&gt;Node47</title>
<path fill="none" stroke="midnightblue" d="M47.07,-863.98C50.67,-744.45 71.84,-128.11 127,-67 136.32,-56.67 149.59,-51.08 163.22,-48.22"/>
<polygon fill="midnightblue" stroke="midnightblue" points="43.57,-864.13 46.77,-874.23 50.56,-864.34 43.57,-864.13"/>
</g>
<!-- Node48 -->
<g id="node48" class="node">
<title>Node48</title>
<g id="a_node48"><a xlink:href="structarmnn_1_1_views_descriptor.html" target="_top" xlink:title="A ViewsDescriptor for the SplitterLayer.">
<polygon fill="white" stroke="black" points="173.5,-0.5 173.5,-19.5 269.5,-19.5 269.5,-0.5 173.5,-0.5"/>
<text text-anchor="middle" x="221.5" y="-7.5" font-family="Helvetica,sans-Serif" font-size="10.00">ViewsDescriptor</text>
</a>
</g>
</g>
<!-- Node1&#45;&gt;Node48 -->
<g id="edge47" class="edge">
<title>Node1&#45;&gt;Node48</title>
<path fill="none" stroke="midnightblue" d="M46.97,-864.2C50.09,-741.99 69.25,-93.25 127,-29 138.63,-16.06 156.44,-10.54 173.42,-8.53"/>
<polygon fill="midnightblue" stroke="midnightblue" points="43.47,-864.27 46.72,-874.35 50.47,-864.44 43.47,-864.27"/>
</g>
</g>
</svg>
