<?xml version="1.0" encoding="UTF-8" standalone="no"?>
<!DOCTYPE svg PUBLIC "-//W3C//DTD SVG 1.1//EN"
 "http://www.w3.org/Graphics/SVG/1.1/DTD/svg11.dtd">
<!-- Generated by graphviz version 2.43.0 (0)
 -->
<!-- Title: src/backends/tosaCommon/operatorMappings/ActivationOperator.hpp Pages: 1 -->
<svg width="523pt" height="262pt"
 viewBox="0.00 0.00 523.00 262.00" xmlns="http://www.w3.org/2000/svg" xmlns:xlink="http://www.w3.org/1999/xlink">
<g id="graph0" class="graph" transform="scale(1 1) rotate(0) translate(4 258)">
<title>src/backends/tosaCommon/operatorMappings/ActivationOperator.hpp</title>
<polygon fill="white" stroke="transparent" points="-4,4 -4,-258 519,-258 519,4 -4,4"/>
<!-- Node1 -->
<g id="node1" class="node">
<title>Node1</title>
<g id="a_node1"><a xlink:title=" ">
<polygon fill="#bfbfbf" stroke="black" points="93,-212.5 93,-253.5 254,-253.5 254,-212.5 93,-212.5"/>
<text text-anchor="start" x="101" y="-241.5" font-family="Helvetica,sans-Serif" font-size="10.00">src/backends/tosaCommon</text>
<text text-anchor="start" x="101" y="-230.5" font-family="Helvetica,sans-Serif" font-size="10.00">/operatorMappings/Activation</text>
<text text-anchor="middle" x="173.5" y="-219.5" font-family="Helvetica,sans-Serif" font-size="10.00">Operator.hpp</text>
</a>
</g>
</g>
<!-- Node2 -->
<g id="node2" class="node">
<title>Node2</title>
<g id="a_node2"><a xlink:href="_activation_operator_8cpp.html" target="_top" xlink:title=" ">
<polygon fill="white" stroke="black" points="0,-134.5 0,-175.5 161,-175.5 161,-134.5 0,-134.5"/>
<text text-anchor="start" x="8" y="-163.5" font-family="Helvetica,sans-Serif" font-size="10.00">src/backends/tosaCommon</text>
<text text-anchor="start" x="8" y="-152.5" font-family="Helvetica,sans-Serif" font-size="10.00">/operatorMappings/Activation</text>
<text text-anchor="middle" x="80.5" y="-141.5" font-family="Helvetica,sans-Serif" font-size="10.00">Operator.cpp</text>
</a>
</g>
</g>
<!-- Node1&#45;&gt;Node2 -->
<g id="edge1" class="edge">
<title>Node1&#45;&gt;Node2</title>
<path fill="none" stroke="midnightblue" d="M141.76,-206.06C129.52,-196.06 115.75,-184.8 104.37,-175.51"/>
<polygon fill="midnightblue" stroke="midnightblue" points="139.59,-208.81 149.55,-212.43 144.02,-203.39 139.59,-208.81"/>
</g>
<!-- Node3 -->
<g id="node3" class="node">
<title>Node3</title>
<g id="a_node3"><a xlink:href="_tosa_common_operators_8hpp.html" target="_top" xlink:title=" ">
<polygon fill="white" stroke="black" points="179,-134.5 179,-175.5 356,-175.5 356,-134.5 179,-134.5"/>
<text text-anchor="start" x="187" y="-163.5" font-family="Helvetica,sans-Serif" font-size="10.00">src/backends/tosaCommon</text>
<text text-anchor="start" x="187" y="-152.5" font-family="Helvetica,sans-Serif" font-size="10.00">/operatorMappings/TosaCommon</text>
<text text-anchor="middle" x="267.5" y="-141.5" font-family="Helvetica,sans-Serif" font-size="10.00">Operators.hpp</text>
</a>
</g>
</g>
<!-- Node1&#45;&gt;Node3 -->
<g id="edge2" class="edge">
<title>Node1&#45;&gt;Node3</title>
<path fill="none" stroke="midnightblue" d="M205.58,-206.06C217.96,-196.06 231.87,-184.8 243.37,-175.51"/>
<polygon fill="midnightblue" stroke="midnightblue" points="203.28,-203.42 197.71,-212.43 207.68,-208.86 203.28,-203.42"/>
</g>
<!-- Node4 -->
<g id="node4" class="node">
<title>Node4</title>
<g id="a_node4"><a xlink:href="_tosa_mappings_8hpp.html" target="_top" xlink:title=" ">
<polygon fill="white" stroke="black" points="193.5,-67.5 193.5,-97.5 341.5,-97.5 341.5,-67.5 193.5,-67.5"/>
<text text-anchor="start" x="201.5" y="-85.5" font-family="Helvetica,sans-Serif" font-size="10.00">src/backends/tosaCommon</text>
<text text-anchor="middle" x="267.5" y="-74.5" font-family="Helvetica,sans-Serif" font-size="10.00">/TosaMappings.hpp</text>
</a>
</g>
</g>
<!-- Node3&#45;&gt;Node4 -->
<g id="edge3" class="edge">
<title>Node3&#45;&gt;Node4</title>
<path fill="none" stroke="midnightblue" d="M267.5,-124.08C267.5,-115.01 267.5,-105.45 267.5,-97.89"/>
<polygon fill="midnightblue" stroke="midnightblue" points="264,-124.36 267.5,-134.36 271,-124.36 264,-124.36"/>
</g>
<!-- Node5 -->
<g id="node5" class="node">
<title>Node5</title>
<g id="a_node5"><a xlink:href="_tosa_mappings_8cpp.html" target="_top" xlink:title=" ">
<polygon fill="white" stroke="black" points="24.5,-0.5 24.5,-30.5 172.5,-30.5 172.5,-0.5 24.5,-0.5"/>
<text text-anchor="start" x="32.5" y="-18.5" font-family="Helvetica,sans-Serif" font-size="10.00">src/backends/tosaCommon</text>
<text text-anchor="middle" x="98.5" y="-7.5" font-family="Helvetica,sans-Serif" font-size="10.00">/TosaMappings.cpp</text>
</a>
</g>
</g>
<!-- Node4&#45;&gt;Node5 -->
<g id="edge4" class="edge">
<title>Node4&#45;&gt;Node5</title>
<path fill="none" stroke="midnightblue" d="M221.17,-63.68C194.07,-53.26 160.33,-40.28 135.1,-30.58"/>
<polygon fill="midnightblue" stroke="midnightblue" points="220.24,-67.07 230.83,-67.4 222.75,-60.54 220.24,-67.07"/>
</g>
<!-- Node6 -->
<g id="node6" class="node">
<title>Node6</title>
<g id="a_node6"><a xlink:href="_tosa_ref_backend_8cpp.html" target="_top" xlink:title=" ">
<polygon fill="white" stroke="black" points="191,-0.5 191,-30.5 344,-30.5 344,-0.5 191,-0.5"/>
<text text-anchor="start" x="199" y="-18.5" font-family="Helvetica,sans-Serif" font-size="10.00">src/backends/tosaReference</text>
<text text-anchor="middle" x="267.5" y="-7.5" font-family="Helvetica,sans-Serif" font-size="10.00">/TosaRefBackend.cpp</text>
</a>
</g>
</g>
<!-- Node4&#45;&gt;Node6 -->
<g id="edge5" class="edge">
<title>Node4&#45;&gt;Node6</title>
<path fill="none" stroke="midnightblue" d="M267.5,-57.11C267.5,-48.15 267.5,-38.32 267.5,-30.58"/>
<polygon fill="midnightblue" stroke="midnightblue" points="264,-57.4 267.5,-67.4 271,-57.4 264,-57.4"/>
</g>
<!-- Node7 -->
<g id="node7" class="node">
<title>Node7</title>
<g id="a_node7"><a xlink:href="_tosa_ref_layer_support_8cpp.html" target="_top" xlink:title=" ">
<polygon fill="white" stroke="black" points="362,-0.5 362,-30.5 515,-30.5 515,-0.5 362,-0.5"/>
<text text-anchor="start" x="370" y="-18.5" font-family="Helvetica,sans-Serif" font-size="10.00">src/backends/tosaReference</text>
<text text-anchor="middle" x="438.5" y="-7.5" font-family="Helvetica,sans-Serif" font-size="10.00">/TosaRefLayerSupport.cpp</text>
</a>
</g>
</g>
<!-- Node4&#45;&gt;Node7 -->
<g id="edge6" class="edge">
<title>Node4&#45;&gt;Node7</title>
<path fill="none" stroke="midnightblue" d="M314.02,-63.82C341.5,-53.37 375.83,-40.32 401.47,-30.58"/>
<polygon fill="midnightblue" stroke="midnightblue" points="312.71,-60.57 304.6,-67.4 315.2,-67.11 312.71,-60.57"/>
</g>
</g>
</svg>
