<?xml version="1.0" encoding="UTF-8" standalone="no"?>
<!DOCTYPE svg PUBLIC "-//W3C//DTD SVG 1.1//EN"
 "http://www.w3.org/Graphics/SVG/1.1/DTD/svg11.dtd">
<!-- Generated by graphviz version 2.43.0 (0)
 -->
<!-- Title: src/armnnConverter/ArmnnConverter.cpp Pages: 1 -->
<svg width="1218pt" height="207pt"
 viewBox="0.00 0.00 1218.11 207.00" xmlns="http://www.w3.org/2000/svg" xmlns:xlink="http://www.w3.org/1999/xlink">
<g id="graph0" class="graph" transform="scale(1 1) rotate(0) translate(4 203)">
<title>src/armnnConverter/ArmnnConverter.cpp</title>
<polygon fill="white" stroke="transparent" points="-4,4 -4,-203 1214.11,-203 1214.11,4 -4,4"/>
<!-- Node1 -->
<g id="node1" class="node">
<title>Node1</title>
<g id="a_node1"><a xlink:title=" ">
<polygon fill="#bfbfbf" stroke="black" points="696.11,-168.5 696.11,-198.5 815.11,-198.5 815.11,-168.5 696.11,-168.5"/>
<text text-anchor="start" x="704.11" y="-186.5" font-family="Helvetica,sans-Serif" font-size="10.00">src/armnnConverter</text>
<text text-anchor="middle" x="755.61" y="-175.5" font-family="Helvetica,sans-Serif" font-size="10.00">/ArmnnConverter.cpp</text>
</a>
</g>
</g>
<!-- Node2 -->
<g id="node2" class="node">
<title>Node2</title>
<g id="a_node2"><a xlink:href="_logging_8hpp.html" target="_top" xlink:title=" ">
<polygon fill="white" stroke="black" points="374.61,-112.5 374.61,-131.5 484.61,-131.5 484.61,-112.5 374.61,-112.5"/>
<text text-anchor="middle" x="429.61" y="-119.5" font-family="Helvetica,sans-Serif" font-size="10.00">armnn/Logging.hpp</text>
</a>
</g>
</g>
<!-- Node1&#45;&gt;Node2 -->
<g id="edge1" class="edge">
<title>Node1&#45;&gt;Node2</title>
<path fill="none" stroke="midnightblue" d="M695.82,-171.59C636.17,-160.7 545.19,-144.09 486.56,-133.39"/>
<polygon fill="midnightblue" stroke="midnightblue" points="486.83,-129.89 476.36,-131.53 485.57,-136.77 486.83,-129.89"/>
</g>
<!-- Node7 -->
<g id="node7" class="node">
<title>Node7</title>
<g id="a_node7"><a xlink:title=" ">
<polygon fill="white" stroke="#bfbfbf" points="13.61,-56.5 13.61,-75.5 73.61,-75.5 73.61,-56.5 13.61,-56.5"/>
<text text-anchor="middle" x="43.61" y="-63.5" font-family="Helvetica,sans-Serif" font-size="10.00">iostream</text>
</a>
</g>
</g>
<!-- Node1&#45;&gt;Node7 -->
<g id="edge32" class="edge">
<title>Node1&#45;&gt;Node7</title>
<path fill="none" stroke="midnightblue" d="M696,-182.65C557.71,-182.22 219.01,-176.51 115.61,-132 91.07,-121.44 69.3,-99.01 56.29,-83.47"/>
<polygon fill="midnightblue" stroke="midnightblue" points="59,-81.26 50,-75.67 53.55,-85.65 59,-81.26"/>
</g>
<!-- Node15 -->
<g id="node15" class="node">
<title>Node15</title>
<g id="a_node15"><a xlink:href="_heap_profiling_8hpp.html" target="_top" xlink:title=" ">
<polygon fill="white" stroke="black" points="551.11,-112.5 551.11,-131.5 654.11,-131.5 654.11,-112.5 551.11,-112.5"/>
<text text-anchor="middle" x="602.61" y="-119.5" font-family="Helvetica,sans-Serif" font-size="10.00">HeapProfiling.hpp</text>
</a>
</g>
</g>
<!-- Node1&#45;&gt;Node15 -->
<g id="edge16" class="edge">
<title>Node1&#45;&gt;Node15</title>
<path fill="none" stroke="midnightblue" d="M719.35,-168.4C693.57,-158.37 659.25,-145.03 634.51,-135.4"/>
<polygon fill="midnightblue" stroke="midnightblue" points="635.46,-132.02 624.87,-131.66 632.92,-138.54 635.46,-132.02"/>
</g>
<!-- Node16 -->
<g id="node16" class="node">
<title>Node16</title>
<g id="a_node16"><a xlink:href="_numeric_cast_8hpp.html" target="_top" xlink:title=" ">
<polygon fill="white" stroke="black" points="672.11,-112.5 672.11,-131.5 839.11,-131.5 839.11,-112.5 672.11,-112.5"/>
<text text-anchor="middle" x="755.61" y="-119.5" font-family="Helvetica,sans-Serif" font-size="10.00">armnn/utility/NumericCast.hpp</text>
</a>
</g>
</g>
<!-- Node1&#45;&gt;Node16 -->
<g id="edge17" class="edge">
<title>Node1&#45;&gt;Node16</title>
<path fill="none" stroke="midnightblue" d="M755.61,-168.4C755.61,-160.47 755.61,-150.46 755.61,-141.86"/>
<polygon fill="midnightblue" stroke="midnightblue" points="759.11,-141.66 755.61,-131.66 752.11,-141.66 759.11,-141.66"/>
</g>
<!-- Node21 -->
<g id="node21" class="node">
<title>Node21</title>
<g id="a_node21"><a xlink:href="_string_utils_8hpp.html" target="_top" xlink:title=" ">
<polygon fill="white" stroke="black" points="125.11,-112.5 125.11,-131.5 280.11,-131.5 280.11,-112.5 125.11,-112.5"/>
<text text-anchor="middle" x="202.61" y="-119.5" font-family="Helvetica,sans-Serif" font-size="10.00">armnn/utility/StringUtils.hpp</text>
</a>
</g>
</g>
<!-- Node1&#45;&gt;Node21 -->
<g id="edge22" class="edge">
<title>Node1&#45;&gt;Node21</title>
<path fill="none" stroke="midnightblue" d="M695.9,-176.08C598.17,-165.56 403.6,-144.63 290.22,-132.43"/>
<polygon fill="midnightblue" stroke="midnightblue" points="290.49,-128.94 280.18,-131.35 289.74,-135.9 290.49,-128.94"/>
</g>
<!-- Node22 -->
<g id="node22" class="node">
<title>Node22</title>
<g id="a_node22"><a xlink:title=" ">
<polygon fill="white" stroke="#bfbfbf" points="856.61,-112.5 856.61,-131.5 972.61,-131.5 972.61,-112.5 856.61,-112.5"/>
<text text-anchor="middle" x="914.61" y="-119.5" font-family="Helvetica,sans-Serif" font-size="10.00">cxxopts/cxxopts.hpp</text>
</a>
</g>
</g>
<!-- Node1&#45;&gt;Node22 -->
<g id="edge28" class="edge">
<title>Node1&#45;&gt;Node22</title>
<path fill="none" stroke="midnightblue" d="M793.29,-168.4C820.21,-158.33 856.06,-144.91 881.8,-135.28"/>
<polygon fill="midnightblue" stroke="midnightblue" points="883.34,-138.44 891.47,-131.66 880.88,-131.88 883.34,-138.44"/>
</g>
<!-- Node23 -->
<g id="node23" class="node">
<title>Node23</title>
<g id="a_node23"><a xlink:title=" ">
<polygon fill="white" stroke="#bfbfbf" points="991.11,-112.5 991.11,-131.5 1070.11,-131.5 1070.11,-112.5 991.11,-112.5"/>
<text text-anchor="middle" x="1030.61" y="-119.5" font-family="Helvetica,sans-Serif" font-size="10.00">fmt/format.h</text>
</a>
</g>
</g>
<!-- Node1&#45;&gt;Node23 -->
<g id="edge29" class="edge">
<title>Node1&#45;&gt;Node23</title>
<path fill="none" stroke="midnightblue" d="M815.28,-169.59C864.88,-158.86 934.62,-143.77 981.15,-133.7"/>
<polygon fill="midnightblue" stroke="midnightblue" points="981.96,-137.11 991,-131.57 980.48,-130.26 981.96,-137.11"/>
</g>
<!-- Node24 -->
<g id="node24" class="node">
<title>Node24</title>
<g id="a_node24"><a xlink:title=" ">
<polygon fill="white" stroke="#bfbfbf" points="1088.11,-112.5 1088.11,-131.5 1137.11,-131.5 1137.11,-112.5 1088.11,-112.5"/>
<text text-anchor="middle" x="1112.61" y="-119.5" font-family="Helvetica,sans-Serif" font-size="10.00">cstdlib</text>
</a>
</g>
</g>
<!-- Node1&#45;&gt;Node24 -->
<g id="edge30" class="edge">
<title>Node1&#45;&gt;Node24</title>
<path fill="none" stroke="midnightblue" d="M815.39,-175.22C878.52,-167.07 981.08,-152.54 1077.87,-132.2"/>
<polygon fill="midnightblue" stroke="midnightblue" points="1078.76,-135.58 1087.82,-130.08 1077.31,-128.74 1078.76,-135.58"/>
</g>
<!-- Node25 -->
<g id="node25" class="node">
<title>Node25</title>
<g id="a_node25"><a xlink:title=" ">
<polygon fill="white" stroke="#bfbfbf" points="1155.11,-112.5 1155.11,-131.5 1210.11,-131.5 1210.11,-112.5 1155.11,-112.5"/>
<text text-anchor="middle" x="1182.61" y="-119.5" font-family="Helvetica,sans-Serif" font-size="10.00">fstream</text>
</a>
</g>
</g>
<!-- Node1&#45;&gt;Node25 -->
<g id="edge31" class="edge">
<title>Node1&#45;&gt;Node25</title>
<path fill="none" stroke="midnightblue" d="M815.24,-176.98C890.17,-169.56 1022.86,-154.82 1144.88,-132.16"/>
<polygon fill="midnightblue" stroke="midnightblue" points="1145.59,-135.59 1154.77,-130.3 1144.3,-128.71 1145.59,-135.59"/>
</g>
<!-- Node3 -->
<g id="node3" class="node">
<title>Node3</title>
<g id="a_node3"><a xlink:href="_utils_8hpp.html" target="_top" xlink:title=" ">
<polygon fill="white" stroke="black" points="485.11,-56.5 485.11,-75.5 580.11,-75.5 580.11,-56.5 485.11,-56.5"/>
<text text-anchor="middle" x="532.61" y="-63.5" font-family="Helvetica,sans-Serif" font-size="10.00">armnn/Utils.hpp</text>
</a>
</g>
</g>
<!-- Node2&#45;&gt;Node3 -->
<g id="edge2" class="edge">
<title>Node2&#45;&gt;Node3</title>
<path fill="none" stroke="midnightblue" d="M446.16,-112.32C462.6,-103.7 488.05,-90.36 507.08,-80.39"/>
<polygon fill="midnightblue" stroke="midnightblue" points="508.87,-83.4 516.1,-75.65 505.62,-77.2 508.87,-83.4"/>
</g>
<!-- Node4 -->
<g id="node4" class="node">
<title>Node4</title>
<g id="a_node4"><a xlink:title=" ">
<polygon fill="white" stroke="#bfbfbf" points="434.61,-0.5 434.61,-19.5 478.61,-19.5 478.61,-0.5 434.61,-0.5"/>
<text text-anchor="middle" x="456.61" y="-7.5" font-family="Helvetica,sans-Serif" font-size="10.00">string</text>
</a>
</g>
</g>
<!-- Node2&#45;&gt;Node4 -->
<g id="edge9" class="edge">
<title>Node2&#45;&gt;Node4</title>
<path fill="none" stroke="midnightblue" d="M431.73,-112.37C436.09,-94.62 446.14,-53.67 452.05,-29.6"/>
<polygon fill="midnightblue" stroke="midnightblue" points="455.52,-30.14 454.5,-19.59 448.72,-28.47 455.52,-30.14"/>
</g>
<!-- Node6 -->
<g id="node6" class="node">
<title>Node6</title>
<g id="a_node6"><a xlink:title=" ">
<polygon fill="white" stroke="#bfbfbf" points="598.11,-56.5 598.11,-75.5 651.11,-75.5 651.11,-56.5 598.11,-56.5"/>
<text text-anchor="middle" x="624.61" y="-63.5" font-family="Helvetica,sans-Serif" font-size="10.00">ctype.h</text>
</a>
</g>
</g>
<!-- Node2&#45;&gt;Node6 -->
<g id="edge5" class="edge">
<title>Node2&#45;&gt;Node6</title>
<path fill="none" stroke="midnightblue" d="M460.51,-112.44C495.16,-102.85 551.31,-87.3 588.1,-77.11"/>
<polygon fill="midnightblue" stroke="midnightblue" points="589.23,-80.43 597.93,-74.39 587.36,-73.68 589.23,-80.43"/>
</g>
<!-- Node2&#45;&gt;Node7 -->
<g id="edge6" class="edge">
<title>Node2&#45;&gt;Node7</title>
<path fill="none" stroke="midnightblue" d="M374.36,-115.52C307.76,-108.54 192.26,-95.24 83.91,-76.08"/>
<polygon fill="midnightblue" stroke="midnightblue" points="84.24,-72.59 73.78,-74.27 83.01,-79.48 84.24,-72.59"/>
</g>
<!-- Node8 -->
<g id="node8" class="node">
<title>Node8</title>
<g id="a_node8"><a xlink:title=" ">
<polygon fill="white" stroke="#bfbfbf" points="300.61,-56.5 300.61,-75.5 364.61,-75.5 364.61,-56.5 300.61,-56.5"/>
<text text-anchor="middle" x="332.61" y="-63.5" font-family="Helvetica,sans-Serif" font-size="10.00">algorithm</text>
</a>
</g>
</g>
<!-- Node2&#45;&gt;Node8 -->
<g id="edge7" class="edge">
<title>Node2&#45;&gt;Node8</title>
<path fill="none" stroke="midnightblue" d="M414.03,-112.32C398.61,-103.74 374.8,-90.49 356.9,-80.52"/>
<polygon fill="midnightblue" stroke="midnightblue" points="358.6,-77.46 348.16,-75.65 355.19,-83.58 358.6,-77.46"/>
</g>
<!-- Node9 -->
<g id="node9" class="node">
<title>Node9</title>
<g id="a_node9"><a xlink:title=" ">
<polygon fill="white" stroke="#bfbfbf" points="669.61,-56.5 669.61,-75.5 727.61,-75.5 727.61,-56.5 669.61,-56.5"/>
<text text-anchor="middle" x="698.61" y="-63.5" font-family="Helvetica,sans-Serif" font-size="10.00">memory</text>
</a>
</g>
</g>
<!-- Node2&#45;&gt;Node9 -->
<g id="edge8" class="edge">
<title>Node2&#45;&gt;Node9</title>
<path fill="none" stroke="midnightblue" d="M475.52,-112.49C519.93,-104.15 589.35,-90.83 659.37,-75.99"/>
<polygon fill="midnightblue" stroke="midnightblue" points="660.19,-79.39 669.25,-73.89 658.74,-72.55 660.19,-79.39"/>
</g>
<!-- Node10 -->
<g id="node10" class="node">
<title>Node10</title>
<g id="a_node10"><a xlink:title=" ">
<polygon fill="white" stroke="#bfbfbf" points="383.11,-56.5 383.11,-75.5 428.11,-75.5 428.11,-56.5 383.11,-56.5"/>
<text text-anchor="middle" x="405.61" y="-63.5" font-family="Helvetica,sans-Serif" font-size="10.00">utility</text>
</a>
</g>
</g>
<!-- Node2&#45;&gt;Node10 -->
<g id="edge10" class="edge">
<title>Node2&#45;&gt;Node10</title>
<path fill="none" stroke="midnightblue" d="M425.65,-112.08C422.4,-104.77 417.69,-94.18 413.66,-85.1"/>
<polygon fill="midnightblue" stroke="midnightblue" points="416.76,-83.47 409.5,-75.75 410.36,-86.31 416.76,-83.47"/>
</g>
<!-- Node11 -->
<g id="node11" class="node">
<title>Node11</title>
<g id="a_node11"><a xlink:title=" ">
<polygon fill="white" stroke="#bfbfbf" points="92.11,-56.5 92.11,-75.5 139.11,-75.5 139.11,-56.5 92.11,-56.5"/>
<text text-anchor="middle" x="115.61" y="-63.5" font-family="Helvetica,sans-Serif" font-size="10.00">vector</text>
</a>
</g>
</g>
<!-- Node2&#45;&gt;Node11 -->
<g id="edge11" class="edge">
<title>Node2&#45;&gt;Node11</title>
<path fill="none" stroke="midnightblue" d="M374.4,-114.12C319.47,-106.84 232.62,-94.16 149.19,-76.16"/>
<polygon fill="midnightblue" stroke="midnightblue" points="149.82,-72.71 139.3,-73.99 148.32,-79.55 149.82,-72.71"/>
</g>
<!-- Node12 -->
<g id="node12" class="node">
<title>Node12</title>
<g id="a_node12"><a xlink:href="_exceptions_8hpp.html" target="_top" xlink:title=" ">
<polygon fill="white" stroke="black" points="157.11,-56.5 157.11,-75.5 282.11,-75.5 282.11,-56.5 157.11,-56.5"/>
<text text-anchor="middle" x="219.61" y="-63.5" font-family="Helvetica,sans-Serif" font-size="10.00">armnn/Exceptions.hpp</text>
</a>
</g>
</g>
<!-- Node2&#45;&gt;Node12 -->
<g id="edge12" class="edge">
<title>Node2&#45;&gt;Node12</title>
<path fill="none" stroke="midnightblue" d="M396.34,-112.44C360.16,-103.14 302.23,-88.25 262.63,-78.06"/>
<polygon fill="midnightblue" stroke="midnightblue" points="263.29,-74.62 252.73,-75.52 261.54,-81.4 263.29,-74.62"/>
</g>
<!-- Node3&#45;&gt;Node4 -->
<g id="edge3" class="edge">
<title>Node3&#45;&gt;Node4</title>
<path fill="none" stroke="midnightblue" d="M520.4,-56.32C508.83,-48.11 491.23,-35.6 477.45,-25.81"/>
<polygon fill="midnightblue" stroke="midnightblue" points="479.22,-22.77 469.04,-19.83 475.17,-28.48 479.22,-22.77"/>
</g>
<!-- Node5 -->
<g id="node5" class="node">
<title>Node5</title>
<g id="a_node5"><a xlink:title=" ">
<polygon fill="white" stroke="#bfbfbf" points="509.11,-0.5 509.11,-19.5 556.11,-19.5 556.11,-0.5 509.11,-0.5"/>
<text text-anchor="middle" x="532.61" y="-7.5" font-family="Helvetica,sans-Serif" font-size="10.00">cmath</text>
</a>
</g>
</g>
<!-- Node3&#45;&gt;Node5 -->
<g id="edge4" class="edge">
<title>Node3&#45;&gt;Node5</title>
<path fill="none" stroke="midnightblue" d="M532.61,-56.08C532.61,-49.01 532.61,-38.86 532.61,-29.99"/>
<polygon fill="midnightblue" stroke="midnightblue" points="536.11,-29.75 532.61,-19.75 529.11,-29.75 536.11,-29.75"/>
</g>
<!-- Node12&#45;&gt;Node4 -->
<g id="edge15" class="edge">
<title>Node12&#45;&gt;Node4</title>
<path fill="none" stroke="midnightblue" d="M257.16,-56.44C303.44,-45.9 381.28,-28.16 424.76,-18.26"/>
<polygon fill="midnightblue" stroke="midnightblue" points="425.55,-21.67 434.53,-16.03 424,-14.84 425.55,-21.67"/>
</g>
<!-- Node13 -->
<g id="node13" class="node">
<title>Node13</title>
<g id="a_node13"><a xlink:title=" ">
<polygon fill="white" stroke="#bfbfbf" points="35.61,-0.5 35.61,-19.5 91.61,-19.5 91.61,-0.5 35.61,-0.5"/>
<text text-anchor="middle" x="63.61" y="-7.5" font-family="Helvetica,sans-Serif" font-size="10.00">sstream</text>
</a>
</g>
</g>
<!-- Node12&#45;&gt;Node13 -->
<g id="edge13" class="edge">
<title>Node12&#45;&gt;Node13</title>
<path fill="none" stroke="midnightblue" d="M194.89,-56.44C168.76,-47.4 127.35,-33.06 98.03,-22.92"/>
<polygon fill="midnightblue" stroke="midnightblue" points="98.81,-19.48 88.21,-19.52 96.52,-26.1 98.81,-19.48"/>
</g>
<!-- Node14 -->
<g id="node14" class="node">
<title>Node14</title>
<g id="a_node14"><a xlink:title=" ">
<polygon fill="white" stroke="#bfbfbf" points="187.11,-0.5 187.11,-19.5 252.11,-19.5 252.11,-0.5 187.11,-0.5"/>
<text text-anchor="middle" x="219.61" y="-7.5" font-family="Helvetica,sans-Serif" font-size="10.00">stdexcept</text>
</a>
</g>
</g>
<!-- Node12&#45;&gt;Node14 -->
<g id="edge14" class="edge">
<title>Node12&#45;&gt;Node14</title>
<path fill="none" stroke="midnightblue" d="M219.61,-56.08C219.61,-49.01 219.61,-38.86 219.61,-29.99"/>
<polygon fill="midnightblue" stroke="midnightblue" points="223.11,-29.75 219.61,-19.75 216.11,-29.75 223.11,-29.75"/>
</g>
<!-- Node17 -->
<g id="node17" class="node">
<title>Node17</title>
<g id="a_node17"><a xlink:href="_assert_8hpp.html" target="_top" xlink:title=" ">
<polygon fill="white" stroke="black" points="745.61,-56.5 745.61,-75.5 813.61,-75.5 813.61,-56.5 745.61,-56.5"/>
<text text-anchor="middle" x="779.61" y="-63.5" font-family="Helvetica,sans-Serif" font-size="10.00">Assert.hpp</text>
</a>
</g>
</g>
<!-- Node16&#45;&gt;Node17 -->
<g id="edge18" class="edge">
<title>Node16&#45;&gt;Node17</title>
<path fill="none" stroke="midnightblue" d="M759.57,-112.08C762.82,-104.77 767.53,-94.18 771.56,-85.1"/>
<polygon fill="midnightblue" stroke="midnightblue" points="774.86,-86.31 775.72,-75.75 768.46,-83.47 774.86,-86.31"/>
</g>
<!-- Node19 -->
<g id="node19" class="node">
<title>Node19</title>
<g id="a_node19"><a xlink:title=" ">
<polygon fill="white" stroke="#bfbfbf" points="832.11,-56.5 832.11,-75.5 901.11,-75.5 901.11,-56.5 832.11,-56.5"/>
<text text-anchor="middle" x="866.61" y="-63.5" font-family="Helvetica,sans-Serif" font-size="10.00">type_traits</text>
</a>
</g>
</g>
<!-- Node16&#45;&gt;Node19 -->
<g id="edge20" class="edge">
<title>Node16&#45;&gt;Node19</title>
<path fill="none" stroke="midnightblue" d="M773.44,-112.32C791.33,-103.62 819.09,-90.12 839.66,-80.11"/>
<polygon fill="midnightblue" stroke="midnightblue" points="841.36,-83.18 848.82,-75.65 838.3,-76.88 841.36,-83.18"/>
</g>
<!-- Node20 -->
<g id="node20" class="node">
<title>Node20</title>
<g id="a_node20"><a xlink:title=" ">
<polygon fill="white" stroke="#bfbfbf" points="919.61,-56.5 919.61,-75.5 963.61,-75.5 963.61,-56.5 919.61,-56.5"/>
<text text-anchor="middle" x="941.61" y="-63.5" font-family="Helvetica,sans-Serif" font-size="10.00">limits</text>
</a>
</g>
</g>
<!-- Node16&#45;&gt;Node20 -->
<g id="edge21" class="edge">
<title>Node16&#45;&gt;Node20</title>
<path fill="none" stroke="midnightblue" d="M785.08,-112.44C819.11,-102.56 874.88,-86.37 909.85,-76.22"/>
<polygon fill="midnightblue" stroke="midnightblue" points="910.93,-79.55 919.56,-73.4 908.98,-72.83 910.93,-79.55"/>
</g>
<!-- Node18 -->
<g id="node18" class="node">
<title>Node18</title>
<g id="a_node18"><a xlink:title=" ">
<polygon fill="white" stroke="#bfbfbf" points="753.61,-0.5 753.61,-19.5 805.61,-19.5 805.61,-0.5 753.61,-0.5"/>
<text text-anchor="middle" x="779.61" y="-7.5" font-family="Helvetica,sans-Serif" font-size="10.00">cassert</text>
</a>
</g>
</g>
<!-- Node17&#45;&gt;Node18 -->
<g id="edge19" class="edge">
<title>Node17&#45;&gt;Node18</title>
<path fill="none" stroke="midnightblue" d="M779.61,-56.08C779.61,-49.01 779.61,-38.86 779.61,-29.99"/>
<polygon fill="midnightblue" stroke="midnightblue" points="783.11,-29.75 779.61,-19.75 776.11,-29.75 783.11,-29.75"/>
</g>
<!-- Node21&#45;&gt;Node7 -->
<g id="edge23" class="edge">
<title>Node21&#45;&gt;Node7</title>
<path fill="none" stroke="midnightblue" d="M177.42,-112.44C150.67,-103.36 108.21,-88.94 78.31,-78.78"/>
<polygon fill="midnightblue" stroke="midnightblue" points="79.28,-75.42 68.69,-75.52 77.03,-82.05 79.28,-75.42"/>
</g>
<!-- Node21&#45;&gt;Node8 -->
<g id="edge25" class="edge">
<title>Node21&#45;&gt;Node8</title>
<path fill="none" stroke="midnightblue" d="M223.21,-112.44C244.6,-103.56 278.29,-89.56 302.63,-79.45"/>
<polygon fill="midnightblue" stroke="midnightblue" points="304.22,-82.58 312.11,-75.52 301.53,-76.12 304.22,-82.58"/>
</g>
<!-- Node21&#45;&gt;Node11 -->
<g id="edge26" class="edge">
<title>Node21&#45;&gt;Node11</title>
<path fill="none" stroke="midnightblue" d="M188.63,-112.32C175.06,-103.9 154.23,-90.97 138.29,-81.07"/>
<polygon fill="midnightblue" stroke="midnightblue" points="139.9,-77.95 129.55,-75.65 136.2,-83.9 139.9,-77.95"/>
</g>
<!-- Node21&#45;&gt;Node12 -->
<g id="edge27" class="edge">
<title>Node21&#45;&gt;Node12</title>
<path fill="none" stroke="midnightblue" d="M205.42,-112.08C207.69,-104.85 210.98,-94.41 213.82,-85.4"/>
<polygon fill="midnightblue" stroke="midnightblue" points="217.19,-86.34 216.86,-75.75 210.51,-84.24 217.19,-86.34"/>
</g>
<!-- Node21&#45;&gt;Node13 -->
<g id="edge24" class="edge">
<title>Node21&#45;&gt;Node13</title>
<path fill="none" stroke="midnightblue" d="M124.86,-113.25C76.14,-106.6 19.78,-95.01 4.61,-76 -10.26,-57.37 15.08,-37.23 37.03,-24.39"/>
<polygon fill="midnightblue" stroke="midnightblue" points="38.76,-27.44 45.8,-19.52 35.36,-21.32 38.76,-27.44"/>
</g>
</g>
</svg>
