<?xml version="1.0" encoding="UTF-8" standalone="no"?>
<!DOCTYPE svg PUBLIC "-//W3C//DTD SVG 1.1//EN"
 "http://www.w3.org/Graphics/SVG/1.1/DTD/svg11.dtd">
<!-- Generated by graphviz version 2.43.0 (0)
 -->
<!-- Title: src/backends/cl/ClTensorHandle.cpp Pages: 1 -->
<svg width="2106pt" height="475pt"
 viewBox="0.00 0.00 2105.97 475.00" xmlns="http://www.w3.org/2000/svg" xmlns:xlink="http://www.w3.org/1999/xlink">
<g id="graph0" class="graph" transform="scale(1 1) rotate(0) translate(4 471)">
<title>src/backends/cl/ClTensorHandle.cpp</title>
<polygon fill="white" stroke="transparent" points="-4,4 -4,-471 2101.97,-471 2101.97,4 -4,4"/>
<!-- Node1 -->
<g id="node1" class="node">
<title>Node1</title>
<g id="a_node1"><a xlink:title=" ">
<polygon fill="#bfbfbf" stroke="black" points="926.47,-436.5 926.47,-466.5 1061.47,-466.5 1061.47,-436.5 926.47,-436.5"/>
<text text-anchor="start" x="934.47" y="-454.5" font-family="Helvetica,sans-Serif" font-size="10.00">src/backends/cl/ClTensor</text>
<text text-anchor="middle" x="993.97" y="-443.5" font-family="Helvetica,sans-Serif" font-size="10.00">Handle.cpp</text>
</a>
</g>
</g>
<!-- Node2 -->
<g id="node2" class="node">
<title>Node2</title>
<g id="a_node2"><a xlink:href="_cl_tensor_handle_8hpp.html" target="_top" xlink:title=" ">
<polygon fill="white" stroke="black" points="1236.47,-380.5 1236.47,-399.5 1349.47,-399.5 1349.47,-380.5 1236.47,-380.5"/>
<text text-anchor="middle" x="1292.97" y="-387.5" font-family="Helvetica,sans-Serif" font-size="10.00">ClTensorHandle.hpp</text>
</a>
</g>
</g>
<!-- Node1&#45;&gt;Node2 -->
<g id="edge1" class="edge">
<title>Node1&#45;&gt;Node2</title>
<path fill="none" stroke="midnightblue" d="M1061.82,-437C1115.82,-426.25 1190.32,-411.43 1239.99,-401.54"/>
<polygon fill="midnightblue" stroke="midnightblue" points="1240.77,-404.96 1249.89,-399.57 1239.4,-398.09 1240.77,-404.96"/>
</g>
<!-- Node31 -->
<g id="node31" class="node">
<title>Node31</title>
<g id="a_node31"><a xlink:href="_arm_compute_tensor_utils_8hpp.html" target="_top" xlink:title=" ">
<polygon fill="white" stroke="black" points="613.97,-246.5 613.97,-276.5 787.97,-276.5 787.97,-246.5 613.97,-246.5"/>
<text text-anchor="start" x="621.97" y="-264.5" font-family="Helvetica,sans-Serif" font-size="10.00">aclCommon/ArmComputeTensor</text>
<text text-anchor="middle" x="700.97" y="-253.5" font-family="Helvetica,sans-Serif" font-size="10.00">Utils.hpp</text>
</a>
</g>
</g>
<!-- Node1&#45;&gt;Node31 -->
<g id="edge68" class="edge">
<title>Node1&#45;&gt;Node31</title>
<path fill="none" stroke="midnightblue" d="M965.27,-436.39C927.13,-417.21 858.13,-381.04 802.97,-344 774.86,-325.12 744.82,-300.51 724.67,-283.3"/>
<polygon fill="midnightblue" stroke="midnightblue" points="726.8,-280.52 716.94,-276.64 722.23,-285.82 726.8,-280.52"/>
</g>
<!-- Node3 -->
<g id="node3" class="node">
<title>Node3</title>
<g id="a_node3"><a xlink:href="_arm_compute_tensor_handle_8hpp.html" target="_top" xlink:title=" ">
<polygon fill="white" stroke="black" points="966.97,-313.5 966.97,-343.5 1140.97,-343.5 1140.97,-313.5 966.97,-313.5"/>
<text text-anchor="start" x="974.97" y="-331.5" font-family="Helvetica,sans-Serif" font-size="10.00">aclCommon/ArmComputeTensor</text>
<text text-anchor="middle" x="1053.97" y="-320.5" font-family="Helvetica,sans-Serif" font-size="10.00">Handle.hpp</text>
</a>
</g>
</g>
<!-- Node2&#45;&gt;Node3 -->
<g id="edge2" class="edge">
<title>Node2&#45;&gt;Node3</title>
<path fill="none" stroke="midnightblue" d="M1258.73,-380.48C1222.73,-371.51 1165.19,-357.19 1120.26,-346"/>
<polygon fill="midnightblue" stroke="midnightblue" points="1120.85,-342.54 1110.3,-343.52 1119.16,-349.34 1120.85,-342.54"/>
</g>
<!-- Node29 -->
<g id="node29" class="node">
<title>Node29</title>
<g id="a_node29"><a xlink:title=" ">
<polygon fill="white" stroke="#bfbfbf" points="1368.47,-246.5 1368.47,-276.5 1493.47,-276.5 1493.47,-246.5 1368.47,-246.5"/>
<text text-anchor="start" x="1376.47" y="-264.5" font-family="Helvetica,sans-Serif" font-size="10.00">arm_compute/runtime</text>
<text text-anchor="middle" x="1430.97" y="-253.5" font-family="Helvetica,sans-Serif" font-size="10.00">/IMemoryGroup.h</text>
</a>
</g>
</g>
<!-- Node2&#45;&gt;Node29 -->
<g id="edge61" class="edge">
<title>Node2&#45;&gt;Node29</title>
<path fill="none" stroke="midnightblue" d="M1349.69,-386.65C1380.52,-382.11 1416.27,-370.86 1435.97,-344 1448.03,-327.57 1444.97,-303.88 1439.96,-286.28"/>
<polygon fill="midnightblue" stroke="midnightblue" points="1443.28,-285.17 1436.89,-276.72 1436.62,-287.31 1443.28,-285.17"/>
</g>
<!-- Node2&#45;&gt;Node31 -->
<g id="edge38" class="edge">
<title>Node2&#45;&gt;Node31</title>
<path fill="none" stroke="midnightblue" d="M1236.37,-388.67C1155.3,-386.9 1002.09,-378.72 876.97,-344 849.31,-336.32 780.43,-302.72 737.51,-281.14"/>
<polygon fill="midnightblue" stroke="midnightblue" points="739.01,-277.97 728.5,-276.59 735.85,-284.22 739.01,-277.97"/>
</g>
<!-- Node41 -->
<g id="node41" class="node">
<title>Node41</title>
<g id="a_node41"><a xlink:href="_half_8hpp.html" target="_top" xlink:title=" ">
<polygon fill="white" stroke="black" points="853.47,-185 853.47,-204 910.47,-204 910.47,-185 853.47,-185"/>
<text text-anchor="middle" x="881.97" y="-192" font-family="Helvetica,sans-Serif" font-size="10.00">Half.hpp</text>
</a>
</g>
</g>
<!-- Node2&#45;&gt;Node41 -->
<g id="edge53" class="edge">
<title>Node2&#45;&gt;Node41</title>
<path fill="none" stroke="midnightblue" d="M1236.44,-389.45C1145.1,-389.01 970.67,-382.91 924.97,-344 886.57,-311.3 881.38,-246.59 881.33,-214.48"/>
<polygon fill="midnightblue" stroke="midnightblue" points="884.83,-214.3 881.49,-204.25 877.83,-214.19 884.83,-214.3"/>
</g>
<!-- Node43 -->
<g id="node43" class="node">
<title>Node43</title>
<g id="a_node43"><a xlink:href="_polymorphic_downcast_8hpp.html" target="_top" xlink:title=" ">
<polygon fill="white" stroke="black" points="649.47,-112.5 649.47,-142.5 792.47,-142.5 792.47,-112.5 649.47,-112.5"/>
<text text-anchor="start" x="657.47" y="-130.5" font-family="Helvetica,sans-Serif" font-size="10.00">armnn/utility/Polymorphic</text>
<text text-anchor="middle" x="720.97" y="-119.5" font-family="Helvetica,sans-Serif" font-size="10.00">Downcast.hpp</text>
</a>
</g>
</g>
<!-- Node2&#45;&gt;Node43 -->
<g id="edge54" class="edge">
<title>Node2&#45;&gt;Node43</title>
<path fill="none" stroke="midnightblue" d="M1236.15,-388.9C1151.43,-387.53 997.71,-380 957.97,-344 902.13,-293.41 971.78,-232.75 918.97,-179 902.41,-162.14 849.43,-149.15 802.44,-140.56"/>
<polygon fill="midnightblue" stroke="midnightblue" points="802.98,-137.11 792.52,-138.8 801.75,-144 802.98,-137.11"/>
</g>
<!-- Node44 -->
<g id="node44" class="node">
<title>Node44</title>
<g id="a_node44"><a xlink:title=" ">
<polygon fill="white" stroke="#bfbfbf" points="1159.47,-313.5 1159.47,-343.5 1284.47,-343.5 1284.47,-313.5 1159.47,-313.5"/>
<text text-anchor="start" x="1167.47" y="-331.5" font-family="Helvetica,sans-Serif" font-size="10.00">arm_compute/runtime</text>
<text text-anchor="middle" x="1221.97" y="-320.5" font-family="Helvetica,sans-Serif" font-size="10.00">/CL/CLTensor.h</text>
</a>
</g>
</g>
<!-- Node2&#45;&gt;Node44 -->
<g id="edge59" class="edge">
<title>Node2&#45;&gt;Node44</title>
<path fill="none" stroke="midnightblue" d="M1282.8,-380.48C1273.36,-372.57 1258.95,-360.48 1246.52,-350.07"/>
<polygon fill="midnightblue" stroke="midnightblue" points="1248.62,-347.26 1238.71,-343.52 1244.12,-352.63 1248.62,-347.26"/>
</g>
<!-- Node45 -->
<g id="node45" class="node">
<title>Node45</title>
<g id="a_node45"><a xlink:title=" ">
<polygon fill="white" stroke="#bfbfbf" points="1302.47,-313.5 1302.47,-343.5 1427.47,-343.5 1427.47,-313.5 1302.47,-313.5"/>
<text text-anchor="start" x="1310.47" y="-331.5" font-family="Helvetica,sans-Serif" font-size="10.00">arm_compute/runtime</text>
<text text-anchor="middle" x="1364.97" y="-320.5" font-family="Helvetica,sans-Serif" font-size="10.00">/CL/CLSubTensor.h</text>
</a>
</g>
</g>
<!-- Node2&#45;&gt;Node45 -->
<g id="edge60" class="edge">
<title>Node2&#45;&gt;Node45</title>
<path fill="none" stroke="midnightblue" d="M1303.29,-380.48C1312.86,-372.57 1327.48,-360.48 1340.08,-350.07"/>
<polygon fill="midnightblue" stroke="midnightblue" points="1342.52,-352.59 1348,-343.52 1338.07,-347.2 1342.52,-352.59"/>
</g>
<!-- Node46 -->
<g id="node46" class="node">
<title>Node46</title>
<g id="a_node46"><a xlink:title=" ">
<polygon fill="white" stroke="#bfbfbf" points="1658.47,-246.5 1658.47,-276.5 1783.47,-276.5 1783.47,-246.5 1658.47,-246.5"/>
<text text-anchor="start" x="1666.47" y="-264.5" font-family="Helvetica,sans-Serif" font-size="10.00">arm_compute/runtime</text>
<text text-anchor="middle" x="1720.97" y="-253.5" font-family="Helvetica,sans-Serif" font-size="10.00">/MemoryGroup.h</text>
</a>
</g>
</g>
<!-- Node2&#45;&gt;Node46 -->
<g id="edge62" class="edge">
<title>Node2&#45;&gt;Node46</title>
<path fill="none" stroke="midnightblue" d="M1333.06,-380.46C1366.34,-372.76 1414.6,-360.17 1454.97,-344 1482.11,-333.13 1485.66,-323.42 1512.97,-313 1556.75,-296.29 1607.87,-283.79 1648.48,-275.41"/>
<polygon fill="midnightblue" stroke="midnightblue" points="1649.19,-278.83 1658.3,-273.42 1647.8,-271.97 1649.19,-278.83"/>
</g>
<!-- Node47 -->
<g id="node47" class="node">
<title>Node47</title>
<g id="a_node47"><a xlink:title=" ">
<polygon fill="white" stroke="#bfbfbf" points="1521.97,-319 1521.97,-338 1703.97,-338 1703.97,-319 1521.97,-319"/>
<text text-anchor="middle" x="1612.97" y="-326" font-family="Helvetica,sans-Serif" font-size="10.00">arm_compute/core/TensorShape.h</text>
</a>
</g>
</g>
<!-- Node2&#45;&gt;Node47 -->
<g id="edge63" class="edge">
<title>Node2&#45;&gt;Node47</title>
<path fill="none" stroke="midnightblue" d="M1338.82,-380.48C1396.45,-369.76 1495.29,-351.38 1557.22,-339.87"/>
<polygon fill="midnightblue" stroke="midnightblue" points="1558.02,-343.28 1567.21,-338.01 1556.74,-336.4 1558.02,-343.28"/>
</g>
<!-- Node48 -->
<g id="node48" class="node">
<title>Node48</title>
<g id="a_node48"><a xlink:title=" ">
<polygon fill="white" stroke="#bfbfbf" points="1722.47,-319 1722.47,-338 1901.47,-338 1901.47,-319 1722.47,-319"/>
<text text-anchor="middle" x="1811.97" y="-326" font-family="Helvetica,sans-Serif" font-size="10.00">arm_compute/core/Coordinates.h</text>
</a>
</g>
</g>
<!-- Node2&#45;&gt;Node48 -->
<g id="edge64" class="edge">
<title>Node2&#45;&gt;Node48</title>
<path fill="none" stroke="midnightblue" d="M1349.78,-383.62C1430.58,-375.8 1583.29,-360.44 1712.97,-344 1723.79,-342.63 1735.26,-341.06 1746.4,-339.47"/>
<polygon fill="midnightblue" stroke="midnightblue" points="1747.13,-342.9 1756.52,-338.01 1746.13,-335.97 1747.13,-342.9"/>
</g>
<!-- Node49 -->
<g id="node49" class="node">
<title>Node49</title>
<g id="a_node49"><a xlink:href="_i_cl_tensor_handle_8hpp.html" target="_top" xlink:title=" ">
<polygon fill="white" stroke="black" points="1919.97,-319 1919.97,-338 2097.97,-338 2097.97,-319 1919.97,-319"/>
<text text-anchor="middle" x="2008.97" y="-326" font-family="Helvetica,sans-Serif" font-size="10.00">aclCommon/IClTensorHandle.hpp</text>
</a>
</g>
</g>
<!-- Node2&#45;&gt;Node49 -->
<g id="edge65" class="edge">
<title>Node2&#45;&gt;Node49</title>
<path fill="none" stroke="midnightblue" d="M1349.76,-386.28C1458.78,-380.74 1704.87,-366.72 1910.97,-344 1922.41,-342.74 1934.56,-341.15 1946.28,-339.48"/>
<polygon fill="midnightblue" stroke="midnightblue" points="1947.03,-342.91 1956.43,-338.01 1946.03,-335.98 1947.03,-342.91"/>
</g>
<!-- Node4 -->
<g id="node4" class="node">
<title>Node4</title>
<g id="a_node4"><a xlink:href="_i_tensor_handle_8hpp.html" target="_top" xlink:title=" ">
<polygon fill="white" stroke="black" points="1147.97,-252 1147.97,-271 1337.97,-271 1337.97,-252 1147.97,-252"/>
<text text-anchor="middle" x="1242.97" y="-259" font-family="Helvetica,sans-Serif" font-size="10.00">armnn/backends/ITensorHandle.hpp</text>
</a>
</g>
</g>
<!-- Node3&#45;&gt;Node4 -->
<g id="edge3" class="edge">
<title>Node3&#45;&gt;Node4</title>
<path fill="none" stroke="midnightblue" d="M1094.98,-313.4C1128.88,-301.74 1176.46,-285.37 1208.44,-274.38"/>
<polygon fill="midnightblue" stroke="midnightblue" points="1209.92,-277.57 1218.24,-271.01 1207.64,-270.95 1209.92,-277.57"/>
</g>
<!-- Node3&#45;&gt;Node29 -->
<g id="edge36" class="edge">
<title>Node3&#45;&gt;Node29</title>
<path fill="none" stroke="midnightblue" d="M1135.44,-313.46C1194.23,-303.33 1275.5,-289.33 1346.97,-277 1350.61,-276.37 1354.34,-275.73 1358.11,-275.08"/>
<polygon fill="midnightblue" stroke="midnightblue" points="1358.87,-278.5 1368.13,-273.35 1357.68,-271.6 1358.87,-278.5"/>
</g>
<!-- Node30 -->
<g id="node30" class="node">
<title>Node30</title>
<g id="a_node30"><a xlink:title=" ">
<polygon fill="white" stroke="#bfbfbf" points="991.47,-246.5 991.47,-276.5 1116.47,-276.5 1116.47,-246.5 991.47,-246.5"/>
<text text-anchor="start" x="999.47" y="-264.5" font-family="Helvetica,sans-Serif" font-size="10.00">arm_compute/runtime</text>
<text text-anchor="middle" x="1053.97" y="-253.5" font-family="Helvetica,sans-Serif" font-size="10.00">/Tensor.h</text>
</a>
</g>
</g>
<!-- Node3&#45;&gt;Node30 -->
<g id="edge37" class="edge">
<title>Node3&#45;&gt;Node30</title>
<path fill="none" stroke="midnightblue" d="M1053.97,-313.4C1053.97,-305.64 1053.97,-295.81 1053.97,-286.86"/>
<polygon fill="midnightblue" stroke="midnightblue" points="1057.47,-286.58 1053.97,-276.58 1050.47,-286.58 1057.47,-286.58"/>
</g>
<!-- Node5 -->
<g id="node5" class="node">
<title>Node5</title>
<g id="a_node5"><a xlink:href="_memory_sources_8hpp.html" target="_top" xlink:title=" ">
<polygon fill="white" stroke="black" points="1198.47,-185 1198.47,-204 1349.47,-204 1349.47,-185 1198.47,-185"/>
<text text-anchor="middle" x="1273.97" y="-192" font-family="Helvetica,sans-Serif" font-size="10.00">armnn/MemorySources.hpp</text>
</a>
</g>
</g>
<!-- Node4&#45;&gt;Node5 -->
<g id="edge4" class="edge">
<title>Node4&#45;&gt;Node5</title>
<path fill="none" stroke="midnightblue" d="M1247.15,-251.73C1251.85,-241.89 1259.59,-225.66 1265.55,-213.16"/>
<polygon fill="midnightblue" stroke="midnightblue" points="1268.71,-214.66 1269.86,-204.13 1262.39,-211.65 1268.71,-214.66"/>
</g>
<!-- Node23 -->
<g id="node23" class="node">
<title>Node23</title>
<g id="a_node23"><a xlink:href="_ignore_unused_8hpp.html" target="_top" xlink:title=" ">
<polygon fill="white" stroke="black" points="1367.47,-185 1367.47,-204 1538.47,-204 1538.47,-185 1367.47,-185"/>
<text text-anchor="middle" x="1452.97" y="-192" font-family="Helvetica,sans-Serif" font-size="10.00">armnn/utility/IgnoreUnused.hpp</text>
</a>
</g>
</g>
<!-- Node4&#45;&gt;Node23 -->
<g id="edge23" class="edge">
<title>Node4&#45;&gt;Node23</title>
<path fill="none" stroke="midnightblue" d="M1270.86,-251.87C1308.07,-240.35 1374.07,-219.92 1415.57,-207.08"/>
<polygon fill="midnightblue" stroke="midnightblue" points="1416.79,-210.36 1425.31,-204.06 1414.72,-203.68 1416.79,-210.36"/>
</g>
<!-- Node24 -->
<g id="node24" class="node">
<title>Node24</title>
<g id="a_node24"><a xlink:href="_tensor_8hpp.html" target="_top" xlink:title=" ">
<polygon fill="white" stroke="black" points="1077.47,-185 1077.47,-204 1180.47,-204 1180.47,-185 1077.47,-185"/>
<text text-anchor="middle" x="1128.97" y="-192" font-family="Helvetica,sans-Serif" font-size="10.00">armnn/Tensor.hpp</text>
</a>
</g>
</g>
<!-- Node4&#45;&gt;Node24 -->
<g id="edge24" class="edge">
<title>Node4&#45;&gt;Node24</title>
<path fill="none" stroke="midnightblue" d="M1227.6,-251.73C1208.45,-240.82 1175.54,-222.05 1153.04,-209.22"/>
<polygon fill="midnightblue" stroke="midnightblue" points="1154.52,-206.04 1144.1,-204.13 1151.06,-212.12 1154.52,-206.04"/>
</g>
<!-- Node6 -->
<g id="node6" class="node">
<title>Node6</title>
<g id="a_node6"><a xlink:href="_types_8hpp.html" target="_top" xlink:title=" ">
<polygon fill="white" stroke="black" points="1301.97,-118 1301.97,-137 1401.97,-137 1401.97,-118 1301.97,-118"/>
<text text-anchor="middle" x="1351.97" y="-125" font-family="Helvetica,sans-Serif" font-size="10.00">armnn/Types.hpp</text>
</a>
</g>
</g>
<!-- Node5&#45;&gt;Node6 -->
<g id="edge5" class="edge">
<title>Node5&#45;&gt;Node6</title>
<path fill="none" stroke="midnightblue" d="M1284.49,-184.73C1297.12,-174.21 1318.52,-156.38 1333.83,-143.62"/>
<polygon fill="midnightblue" stroke="midnightblue" points="1336.18,-146.22 1341.62,-137.13 1331.7,-140.84 1336.18,-146.22"/>
</g>
<!-- Node22 -->
<g id="node22" class="node">
<title>Node22</title>
<g id="a_node22"><a xlink:title=" ">
<polygon fill="white" stroke="#bfbfbf" points="786.47,-56.5 786.47,-75.5 855.47,-75.5 855.47,-56.5 786.47,-56.5"/>
<text text-anchor="middle" x="820.97" y="-63.5" font-family="Helvetica,sans-Serif" font-size="10.00">type_traits</text>
</a>
</g>
</g>
<!-- Node5&#45;&gt;Node22 -->
<g id="edge22" class="edge">
<title>Node5&#45;&gt;Node22</title>
<path fill="none" stroke="midnightblue" d="M1229.91,-184.99C1167.68,-172.79 1059.71,-150.95 1042.97,-143 1022.97,-133.5 1023.85,-121.76 1003.97,-112 959.68,-90.25 904.06,-78.51 865.83,-72.53"/>
<polygon fill="midnightblue" stroke="midnightblue" points="865.94,-69.01 855.53,-71 864.91,-75.94 865.94,-69.01"/>
</g>
<!-- Node7 -->
<g id="node7" class="node">
<title>Node7</title>
<g id="a_node7"><a xlink:title=" ">
<polygon fill="white" stroke="#bfbfbf" points="1219.97,-56.5 1219.97,-75.5 1261.97,-75.5 1261.97,-56.5 1219.97,-56.5"/>
<text text-anchor="middle" x="1240.97" y="-63.5" font-family="Helvetica,sans-Serif" font-size="10.00">array</text>
</a>
</g>
</g>
<!-- Node6&#45;&gt;Node7 -->
<g id="edge6" class="edge">
<title>Node6&#45;&gt;Node7</title>
<path fill="none" stroke="midnightblue" d="M1336.07,-117.98C1317.69,-108.12 1287.22,-91.79 1265.73,-80.27"/>
<polygon fill="midnightblue" stroke="midnightblue" points="1267.31,-77.15 1256.85,-75.51 1264.01,-83.32 1267.31,-77.15"/>
</g>
<!-- Node8 -->
<g id="node8" class="node">
<title>Node8</title>
<g id="a_node8"><a xlink:title=" ">
<polygon fill="white" stroke="#bfbfbf" points="1458.47,-56.5 1458.47,-75.5 1523.47,-75.5 1523.47,-56.5 1458.47,-56.5"/>
<text text-anchor="middle" x="1490.97" y="-63.5" font-family="Helvetica,sans-Serif" font-size="10.00">functional</text>
</a>
</g>
</g>
<!-- Node6&#45;&gt;Node8 -->
<g id="edge7" class="edge">
<title>Node6&#45;&gt;Node8</title>
<path fill="none" stroke="midnightblue" d="M1371.89,-117.98C1395.42,-107.9 1434.78,-91.05 1461.77,-79.5"/>
<polygon fill="midnightblue" stroke="midnightblue" points="1463.28,-82.66 1471.09,-75.51 1460.52,-76.23 1463.28,-82.66"/>
</g>
<!-- Node9 -->
<g id="node9" class="node">
<title>Node9</title>
<g id="a_node9"><a xlink:title=" ">
<polygon fill="white" stroke="#bfbfbf" points="1280.47,-56.5 1280.47,-75.5 1333.47,-75.5 1333.47,-56.5 1280.47,-56.5"/>
<text text-anchor="middle" x="1306.97" y="-63.5" font-family="Helvetica,sans-Serif" font-size="10.00">stdint.h</text>
</a>
</g>
</g>
<!-- Node6&#45;&gt;Node9 -->
<g id="edge8" class="edge">
<title>Node6&#45;&gt;Node9</title>
<path fill="none" stroke="midnightblue" d="M1345.53,-117.98C1338.78,-109.05 1328,-94.81 1319.56,-83.64"/>
<polygon fill="midnightblue" stroke="midnightblue" points="1322.23,-81.37 1313.41,-75.51 1316.65,-85.6 1322.23,-81.37"/>
</g>
<!-- Node10 -->
<g id="node10" class="node">
<title>Node10</title>
<g id="a_node10"><a xlink:title=" ">
<polygon fill="white" stroke="#bfbfbf" points="1541.97,-56.5 1541.97,-75.5 1591.97,-75.5 1591.97,-56.5 1541.97,-56.5"/>
<text text-anchor="middle" x="1566.97" y="-63.5" font-family="Helvetica,sans-Serif" font-size="10.00">chrono</text>
</a>
</g>
</g>
<!-- Node6&#45;&gt;Node10 -->
<g id="edge9" class="edge">
<title>Node6&#45;&gt;Node10</title>
<path fill="none" stroke="midnightblue" d="M1382.78,-117.98C1422.36,-107.02 1490.89,-88.06 1532.27,-76.6"/>
<polygon fill="midnightblue" stroke="midnightblue" points="1533.22,-79.97 1541.92,-73.93 1531.35,-73.23 1533.22,-79.97"/>
</g>
<!-- Node11 -->
<g id="node11" class="node">
<title>Node11</title>
<g id="a_node11"><a xlink:href="_backend_id_8hpp.html" target="_top" xlink:title=" ">
<polygon fill="white" stroke="black" points="1351.97,-56.5 1351.97,-75.5 1439.97,-75.5 1439.97,-56.5 1351.97,-56.5"/>
<text text-anchor="middle" x="1395.97" y="-63.5" font-family="Helvetica,sans-Serif" font-size="10.00">BackendId.hpp</text>
</a>
</g>
</g>
<!-- Node6&#45;&gt;Node11 -->
<g id="edge10" class="edge">
<title>Node6&#45;&gt;Node11</title>
<path fill="none" stroke="midnightblue" d="M1358.28,-117.98C1364.88,-109.05 1375.41,-94.81 1383.67,-83.64"/>
<polygon fill="midnightblue" stroke="midnightblue" points="1386.55,-85.63 1389.68,-75.51 1380.92,-81.47 1386.55,-85.63"/>
</g>
<!-- Node18 -->
<g id="node18" class="node">
<title>Node18</title>
<g id="a_node18"><a xlink:href="_exceptions_8hpp.html" target="_top" xlink:title=" ">
<polygon fill="white" stroke="black" points="1072.47,-56.5 1072.47,-75.5 1163.47,-75.5 1163.47,-56.5 1072.47,-56.5"/>
<text text-anchor="middle" x="1117.97" y="-63.5" font-family="Helvetica,sans-Serif" font-size="10.00">Exceptions.hpp</text>
</a>
</g>
</g>
<!-- Node6&#45;&gt;Node18 -->
<g id="edge17" class="edge">
<title>Node6&#45;&gt;Node18</title>
<path fill="none" stroke="midnightblue" d="M1318.45,-117.98C1277.09,-107.46 1206.7,-89.56 1161.29,-78.01"/>
<polygon fill="midnightblue" stroke="midnightblue" points="1161.99,-74.58 1151.44,-75.51 1160.27,-81.37 1161.99,-74.58"/>
</g>
<!-- Node21 -->
<g id="node21" class="node">
<title>Node21</title>
<g id="a_node21"><a xlink:href="_deprecated_8hpp.html" target="_top" xlink:title=" ">
<polygon fill="white" stroke="black" points="1609.97,-56.5 1609.97,-75.5 1703.97,-75.5 1703.97,-56.5 1609.97,-56.5"/>
<text text-anchor="middle" x="1656.97" y="-63.5" font-family="Helvetica,sans-Serif" font-size="10.00">Deprecated.hpp</text>
</a>
</g>
</g>
<!-- Node6&#45;&gt;Node21 -->
<g id="edge21" class="edge">
<title>Node6&#45;&gt;Node21</title>
<path fill="none" stroke="midnightblue" d="M1395.67,-117.98C1450.48,-107.28 1544.42,-88.96 1603.47,-77.44"/>
<polygon fill="midnightblue" stroke="midnightblue" points="1604.21,-80.86 1613.35,-75.51 1602.87,-73.99 1604.21,-80.86"/>
</g>
<!-- Node12 -->
<g id="node12" class="node">
<title>Node12</title>
<g id="a_node12"><a xlink:title=" ">
<polygon fill="white" stroke="#bfbfbf" points="744.97,-0.5 744.97,-19.5 802.97,-19.5 802.97,-0.5 744.97,-0.5"/>
<text text-anchor="middle" x="773.97" y="-7.5" font-family="Helvetica,sans-Serif" font-size="10.00">memory</text>
</a>
</g>
</g>
<!-- Node11&#45;&gt;Node12 -->
<g id="edge11" class="edge">
<title>Node11&#45;&gt;Node12</title>
<path fill="none" stroke="midnightblue" d="M1351.81,-57.32C1348.49,-56.84 1345.18,-56.39 1341.97,-56 1143.91,-31.69 905.3,-17.75 813.03,-12.93"/>
<polygon fill="midnightblue" stroke="midnightblue" points="813.19,-9.44 803.03,-12.42 812.83,-16.43 813.19,-9.44"/>
</g>
<!-- Node13 -->
<g id="node13" class="node">
<title>Node13</title>
<g id="a_node13"><a xlink:title=" ">
<polygon fill="white" stroke="#bfbfbf" points="1401.47,-0.5 1401.47,-19.5 1458.47,-19.5 1458.47,-0.5 1401.47,-0.5"/>
<text text-anchor="middle" x="1429.97" y="-7.5" font-family="Helvetica,sans-Serif" font-size="10.00">ostream</text>
</a>
</g>
</g>
<!-- Node11&#45;&gt;Node13 -->
<g id="edge12" class="edge">
<title>Node11&#45;&gt;Node13</title>
<path fill="none" stroke="midnightblue" d="M1401.59,-56.08C1406.34,-48.53 1413.29,-37.49 1419.12,-28.23"/>
<polygon fill="midnightblue" stroke="midnightblue" points="1422.1,-30.08 1424.46,-19.75 1416.17,-26.35 1422.1,-30.08"/>
</g>
<!-- Node14 -->
<g id="node14" class="node">
<title>Node14</title>
<g id="a_node14"><a xlink:title=" ">
<polygon fill="white" stroke="#bfbfbf" points="1476.97,-0.5 1476.97,-19.5 1508.97,-19.5 1508.97,-0.5 1476.97,-0.5"/>
<text text-anchor="middle" x="1492.97" y="-7.5" font-family="Helvetica,sans-Serif" font-size="10.00">set</text>
</a>
</g>
</g>
<!-- Node11&#45;&gt;Node14 -->
<g id="edge13" class="edge">
<title>Node11&#45;&gt;Node14</title>
<path fill="none" stroke="midnightblue" d="M1411.56,-56.32C1426.97,-47.74 1450.79,-34.49 1468.68,-24.52"/>
<polygon fill="midnightblue" stroke="midnightblue" points="1470.39,-27.58 1477.43,-19.65 1466.99,-21.46 1470.39,-27.58"/>
</g>
<!-- Node15 -->
<g id="node15" class="node">
<title>Node15</title>
<g id="a_node15"><a xlink:title=" ">
<polygon fill="white" stroke="#bfbfbf" points="1168.97,-0.5 1168.97,-19.5 1212.97,-19.5 1212.97,-0.5 1168.97,-0.5"/>
<text text-anchor="middle" x="1190.97" y="-7.5" font-family="Helvetica,sans-Serif" font-size="10.00">string</text>
</a>
</g>
</g>
<!-- Node11&#45;&gt;Node15 -->
<g id="edge14" class="edge">
<title>Node11&#45;&gt;Node15</title>
<path fill="none" stroke="midnightblue" d="M1361.56,-56.42C1328.39,-48.08 1276.56,-34.86 1222.97,-20.22"/>
<polygon fill="midnightblue" stroke="midnightblue" points="1223.87,-16.84 1213.3,-17.57 1222.02,-23.59 1223.87,-16.84"/>
</g>
<!-- Node16 -->
<g id="node16" class="node">
<title>Node16</title>
<g id="a_node16"><a xlink:title=" ">
<polygon fill="white" stroke="#bfbfbf" points="1296.97,-0.5 1296.97,-19.5 1382.97,-19.5 1382.97,-0.5 1296.97,-0.5"/>
<text text-anchor="middle" x="1339.97" y="-7.5" font-family="Helvetica,sans-Serif" font-size="10.00">unordered_set</text>
</a>
</g>
</g>
<!-- Node11&#45;&gt;Node16 -->
<g id="edge15" class="edge">
<title>Node11&#45;&gt;Node16</title>
<path fill="none" stroke="midnightblue" d="M1386.98,-56.32C1378.78,-48.42 1366.47,-36.55 1356.5,-26.94"/>
<polygon fill="midnightblue" stroke="midnightblue" points="1358.76,-24.26 1349.13,-19.83 1353.9,-29.29 1358.76,-24.26"/>
</g>
<!-- Node17 -->
<g id="node17" class="node">
<title>Node17</title>
<g id="a_node17"><a xlink:title=" ">
<polygon fill="white" stroke="#bfbfbf" points="1231.47,-0.5 1231.47,-19.5 1278.47,-19.5 1278.47,-0.5 1231.47,-0.5"/>
<text text-anchor="middle" x="1254.97" y="-7.5" font-family="Helvetica,sans-Serif" font-size="10.00">vector</text>
</a>
</g>
</g>
<!-- Node11&#45;&gt;Node17 -->
<g id="edge16" class="edge">
<title>Node11&#45;&gt;Node17</title>
<path fill="none" stroke="midnightblue" d="M1373.63,-56.44C1350.22,-47.48 1313.24,-33.31 1286.78,-23.18"/>
<polygon fill="midnightblue" stroke="midnightblue" points="1287.8,-19.82 1277.21,-19.52 1285.3,-26.36 1287.8,-19.82"/>
</g>
<!-- Node18&#45;&gt;Node15 -->
<g id="edge20" class="edge">
<title>Node18&#45;&gt;Node15</title>
<path fill="none" stroke="midnightblue" d="M1129.7,-56.32C1140.81,-48.11 1157.71,-35.6 1170.96,-25.81"/>
<polygon fill="midnightblue" stroke="midnightblue" points="1173.07,-28.59 1179.03,-19.83 1168.91,-22.97 1173.07,-28.59"/>
</g>
<!-- Node19 -->
<g id="node19" class="node">
<title>Node19</title>
<g id="a_node19"><a xlink:title=" ">
<polygon fill="white" stroke="#bfbfbf" points="1010.97,-0.5 1010.97,-19.5 1066.97,-19.5 1066.97,-0.5 1010.97,-0.5"/>
<text text-anchor="middle" x="1038.97" y="-7.5" font-family="Helvetica,sans-Serif" font-size="10.00">sstream</text>
</a>
</g>
</g>
<!-- Node18&#45;&gt;Node19 -->
<g id="edge18" class="edge">
<title>Node18&#45;&gt;Node19</title>
<path fill="none" stroke="midnightblue" d="M1105.28,-56.32C1093.07,-47.98 1074.39,-35.21 1059.97,-25.35"/>
<polygon fill="midnightblue" stroke="midnightblue" points="1061.86,-22.41 1051.63,-19.65 1057.91,-28.19 1061.86,-22.41"/>
</g>
<!-- Node20 -->
<g id="node20" class="node">
<title>Node20</title>
<g id="a_node20"><a xlink:title=" ">
<polygon fill="white" stroke="#bfbfbf" points="1085.47,-0.5 1085.47,-19.5 1150.47,-19.5 1150.47,-0.5 1085.47,-0.5"/>
<text text-anchor="middle" x="1117.97" y="-7.5" font-family="Helvetica,sans-Serif" font-size="10.00">stdexcept</text>
</a>
</g>
</g>
<!-- Node18&#45;&gt;Node20 -->
<g id="edge19" class="edge">
<title>Node18&#45;&gt;Node20</title>
<path fill="none" stroke="midnightblue" d="M1117.97,-56.08C1117.97,-49.01 1117.97,-38.86 1117.97,-29.99"/>
<polygon fill="midnightblue" stroke="midnightblue" points="1121.47,-29.75 1117.97,-19.75 1114.47,-29.75 1121.47,-29.75"/>
</g>
<!-- Node24&#45;&gt;Node6 -->
<g id="edge30" class="edge">
<title>Node24&#45;&gt;Node6</title>
<path fill="none" stroke="midnightblue" d="M1158.59,-184.87C1198.26,-173.3 1268.78,-152.75 1312.81,-139.91"/>
<polygon fill="midnightblue" stroke="midnightblue" points="1313.97,-143.22 1322.59,-137.06 1312.01,-136.5 1313.97,-143.22"/>
</g>
<!-- Node24&#45;&gt;Node7 -->
<g id="edge32" class="edge">
<title>Node24&#45;&gt;Node7</title>
<path fill="none" stroke="midnightblue" d="M1151.18,-184.86C1169.73,-176.63 1195.67,-162.57 1211.97,-143 1225.78,-126.42 1233.43,-102.57 1237.36,-86.03"/>
<polygon fill="midnightblue" stroke="midnightblue" points="1240.85,-86.43 1239.52,-75.92 1234.01,-84.97 1240.85,-86.43"/>
</g>
<!-- Node24&#45;&gt;Node9 -->
<g id="edge31" class="edge">
<title>Node24&#45;&gt;Node9</title>
<path fill="none" stroke="midnightblue" d="M1153.08,-184.96C1175.51,-176.36 1209.25,-161.7 1234.97,-143 1258.54,-125.87 1280.83,-100.39 1294.19,-83.74"/>
<polygon fill="midnightblue" stroke="midnightblue" points="1297.24,-85.53 1300.65,-75.5 1291.73,-81.21 1297.24,-85.53"/>
</g>
<!-- Node24&#45;&gt;Node17 -->
<g id="edge34" class="edge">
<title>Node24&#45;&gt;Node17</title>
<path fill="none" stroke="midnightblue" d="M1133.81,-184.78C1148.56,-158.32 1193,-79.35 1210.97,-56 1219.03,-45.53 1229.3,-34.9 1237.89,-26.61"/>
<polygon fill="midnightblue" stroke="midnightblue" points="1240.32,-29.13 1245.19,-19.72 1235.52,-24.04 1240.32,-29.13"/>
</g>
<!-- Node24&#45;&gt;Node18 -->
<g id="edge25" class="edge">
<title>Node24&#45;&gt;Node18</title>
<path fill="none" stroke="midnightblue" d="M1132.17,-184.84C1137.25,-169.85 1146.02,-138.15 1139.97,-112 1137.74,-102.36 1133.15,-92.41 1128.74,-84.31"/>
<polygon fill="midnightblue" stroke="midnightblue" points="1131.67,-82.4 1123.61,-75.52 1125.62,-85.92 1131.67,-82.4"/>
</g>
<!-- Node25 -->
<g id="node25" class="node">
<title>Node25</title>
<g id="a_node25"><a xlink:href="_optional_8hpp.html" target="_top" xlink:title=" ">
<polygon fill="white" stroke="black" points="1052.47,-118 1052.47,-137 1131.47,-137 1131.47,-118 1052.47,-118"/>
<text text-anchor="middle" x="1091.97" y="-125" font-family="Helvetica,sans-Serif" font-size="10.00">Optional.hpp</text>
</a>
</g>
</g>
<!-- Node24&#45;&gt;Node25 -->
<g id="edge26" class="edge">
<title>Node24&#45;&gt;Node25</title>
<path fill="none" stroke="midnightblue" d="M1123.98,-184.73C1118.38,-174.89 1109.14,-158.66 1102.03,-146.16"/>
<polygon fill="midnightblue" stroke="midnightblue" points="1104.87,-144.09 1096.88,-137.13 1098.79,-147.55 1104.87,-144.09"/>
</g>
<!-- Node27 -->
<g id="node27" class="node">
<title>Node27</title>
<g id="a_node27"><a xlink:title=" ">
<polygon fill="white" stroke="#bfbfbf" points="849.47,-118 849.47,-137 932.47,-137 932.47,-118 849.47,-118"/>
<text text-anchor="middle" x="890.97" y="-125" font-family="Helvetica,sans-Serif" font-size="10.00">initializer_list</text>
</a>
</g>
</g>
<!-- Node24&#45;&gt;Node27 -->
<g id="edge33" class="edge">
<title>Node24&#45;&gt;Node27</title>
<path fill="none" stroke="midnightblue" d="M1096.31,-184.94C1058.77,-175.05 995.33,-158.18 940.97,-143 937.37,-141.99 933.62,-140.93 929.87,-139.86"/>
<polygon fill="midnightblue" stroke="midnightblue" points="930.61,-136.43 920.03,-137.03 928.67,-143.16 930.61,-136.43"/>
</g>
<!-- Node28 -->
<g id="node28" class="node">
<title>Node28</title>
<g id="a_node28"><a xlink:title=" ">
<polygon fill="white" stroke="#bfbfbf" points="950.47,-118 950.47,-137 995.47,-137 995.47,-118 950.47,-118"/>
<text text-anchor="middle" x="972.97" y="-125" font-family="Helvetica,sans-Serif" font-size="10.00">utility</text>
</a>
</g>
</g>
<!-- Node24&#45;&gt;Node28 -->
<g id="edge35" class="edge">
<title>Node24&#45;&gt;Node28</title>
<path fill="none" stroke="midnightblue" d="M1108.26,-184.87C1081.33,-173.65 1034.12,-153.98 1003.19,-141.09"/>
<polygon fill="midnightblue" stroke="midnightblue" points="1004.35,-137.78 993.77,-137.17 1001.66,-144.24 1004.35,-137.78"/>
</g>
<!-- Node25&#45;&gt;Node18 -->
<g id="edge27" class="edge">
<title>Node25&#45;&gt;Node18</title>
<path fill="none" stroke="midnightblue" d="M1095.7,-117.98C1099.44,-109.4 1105.33,-95.93 1110.11,-84.98"/>
<polygon fill="midnightblue" stroke="midnightblue" points="1113.46,-86.07 1114.25,-75.51 1107.04,-83.27 1113.46,-86.07"/>
</g>
<!-- Node25&#45;&gt;Node22 -->
<g id="edge29" class="edge">
<title>Node25&#45;&gt;Node22</title>
<path fill="none" stroke="midnightblue" d="M1061.49,-117.99C1053.84,-115.94 1045.62,-113.82 1037.97,-112 978.71,-97.91 909.76,-84.04 865.77,-75.5"/>
<polygon fill="midnightblue" stroke="midnightblue" points="866.17,-72.02 855.69,-73.56 864.84,-78.89 866.17,-72.02"/>
</g>
<!-- Node26 -->
<g id="node26" class="node">
<title>Node26</title>
<g id="a_node26"><a xlink:title=" ">
<polygon fill="white" stroke="#bfbfbf" points="1003.97,-56.5 1003.97,-75.5 1053.97,-75.5 1053.97,-56.5 1003.97,-56.5"/>
<text text-anchor="middle" x="1028.97" y="-63.5" font-family="Helvetica,sans-Serif" font-size="10.00">cstring</text>
</a>
</g>
</g>
<!-- Node25&#45;&gt;Node26 -->
<g id="edge28" class="edge">
<title>Node25&#45;&gt;Node26</title>
<path fill="none" stroke="midnightblue" d="M1082.95,-117.98C1073.22,-108.78 1057.51,-93.96 1045.55,-82.66"/>
<polygon fill="midnightblue" stroke="midnightblue" points="1047.66,-79.83 1037.98,-75.51 1042.85,-84.92 1047.66,-79.83"/>
</g>
<!-- Node31&#45;&gt;Node24 -->
<g id="edge39" class="edge">
<title>Node31&#45;&gt;Node24</title>
<path fill="none" stroke="midnightblue" d="M788.1,-247.27C871.09,-234.66 993.91,-216.01 1067.24,-204.87"/>
<polygon fill="midnightblue" stroke="midnightblue" points="1067.89,-208.32 1077.25,-203.35 1066.84,-201.4 1067.89,-208.32"/>
</g>
<!-- Node32 -->
<g id="node32" class="node">
<title>Node32</title>
<g id="a_node32"><a xlink:href="_descriptors_fwd_8hpp.html" target="_top" xlink:title=" ">
<polygon fill="white" stroke="black" points="15.97,-185 15.97,-204 163.97,-204 163.97,-185 15.97,-185"/>
<text text-anchor="middle" x="89.97" y="-192" font-family="Helvetica,sans-Serif" font-size="10.00">armnn/DescriptorsFwd.hpp</text>
</a>
</g>
</g>
<!-- Node31&#45;&gt;Node32 -->
<g id="edge40" class="edge">
<title>Node31&#45;&gt;Node32</title>
<path fill="none" stroke="midnightblue" d="M613.84,-254.25C508.97,-246.25 327.65,-230.88 172.97,-210 163.92,-208.78 154.35,-207.29 145.05,-205.74"/>
<polygon fill="midnightblue" stroke="midnightblue" points="145.55,-202.27 135.1,-204.04 144.37,-209.17 145.55,-202.27"/>
</g>
<!-- Node33 -->
<g id="node33" class="node">
<title>Node33</title>
<g id="a_node33"><a xlink:href="_numeric_cast_8hpp.html" target="_top" xlink:title=" ">
<polygon fill="white" stroke="black" points="369.47,-118 369.47,-137 536.47,-137 536.47,-118 369.47,-118"/>
<text text-anchor="middle" x="452.97" y="-125" font-family="Helvetica,sans-Serif" font-size="10.00">armnn/utility/NumericCast.hpp</text>
</a>
</g>
</g>
<!-- Node31&#45;&gt;Node33 -->
<g id="edge41" class="edge">
<title>Node31&#45;&gt;Node33</title>
<path fill="none" stroke="midnightblue" d="M613.83,-260.63C436.62,-259.99 47.49,-253.57 6.97,-210 -2.41,-199.91 -2.21,-189.28 6.97,-179 29.99,-153.23 235.25,-138.92 359.15,-132.57"/>
<polygon fill="midnightblue" stroke="midnightblue" points="359.58,-136.05 369.4,-132.05 359.23,-129.06 359.58,-136.05"/>
</g>
<!-- Node37 -->
<g id="node37" class="node">
<title>Node37</title>
<g id="a_node37"><a xlink:title=" ">
<polygon fill="white" stroke="#bfbfbf" points="181.97,-185 181.97,-204 335.97,-204 335.97,-185 181.97,-185"/>
<text text-anchor="middle" x="258.97" y="-192" font-family="Helvetica,sans-Serif" font-size="10.00">arm_compute/core/ITensor.h</text>
</a>
</g>
</g>
<!-- Node31&#45;&gt;Node37 -->
<g id="edge46" class="edge">
<title>Node31&#45;&gt;Node37</title>
<path fill="none" stroke="midnightblue" d="M613.83,-248.78C541.7,-238.93 436.58,-224.22 344.97,-210 336.28,-208.65 327.1,-207.17 318.1,-205.68"/>
<polygon fill="midnightblue" stroke="midnightblue" points="318.49,-202.2 308.05,-204 317.34,-209.1 318.49,-202.2"/>
</g>
<!-- Node38 -->
<g id="node38" class="node">
<title>Node38</title>
<g id="a_node38"><a xlink:title=" ">
<polygon fill="white" stroke="#bfbfbf" points="353.97,-185 353.97,-204 523.97,-204 523.97,-185 353.97,-185"/>
<text text-anchor="middle" x="438.97" y="-192" font-family="Helvetica,sans-Serif" font-size="10.00">arm_compute/core/TensorInfo.h</text>
</a>
</g>
</g>
<!-- Node31&#45;&gt;Node38 -->
<g id="edge47" class="edge">
<title>Node31&#45;&gt;Node38</title>
<path fill="none" stroke="midnightblue" d="M644.45,-246.48C596.16,-234.5 527.65,-217.5 483.26,-206.49"/>
<polygon fill="midnightblue" stroke="midnightblue" points="483.9,-203.04 473.35,-204.03 482.21,-209.83 483.9,-203.04"/>
</g>
<!-- Node39 -->
<g id="node39" class="node">
<title>Node39</title>
<g id="a_node39"><a xlink:title=" ">
<polygon fill="white" stroke="#bfbfbf" points="541.97,-185 541.97,-204 689.97,-204 689.97,-185 541.97,-185"/>
<text text-anchor="middle" x="615.97" y="-192" font-family="Helvetica,sans-Serif" font-size="10.00">arm_compute/core/Types.h</text>
</a>
</g>
</g>
<!-- Node31&#45;&gt;Node39 -->
<g id="edge48" class="edge">
<title>Node31&#45;&gt;Node39</title>
<path fill="none" stroke="midnightblue" d="M682.53,-246.4C668.62,-235.76 649.58,-221.2 635.43,-210.38"/>
<polygon fill="midnightblue" stroke="midnightblue" points="637.41,-207.49 627.34,-204.19 633.16,-213.05 637.41,-207.49"/>
</g>
<!-- Node40 -->
<g id="node40" class="node">
<title>Node40</title>
<g id="a_node40"><a xlink:title=" ">
<polygon fill="white" stroke="#bfbfbf" points="708.47,-179.5 708.47,-209.5 835.47,-209.5 835.47,-179.5 708.47,-179.5"/>
<text text-anchor="start" x="716.47" y="-197.5" font-family="Helvetica,sans-Serif" font-size="10.00">arm_compute/function</text>
<text text-anchor="middle" x="771.97" y="-186.5" font-family="Helvetica,sans-Serif" font-size="10.00">_info/ScatterInfo.h</text>
</a>
</g>
</g>
<!-- Node31&#45;&gt;Node40 -->
<g id="edge49" class="edge">
<title>Node31&#45;&gt;Node40</title>
<path fill="none" stroke="midnightblue" d="M716.38,-246.4C725.96,-237.62 738.46,-226.18 749.17,-216.37"/>
<polygon fill="midnightblue" stroke="midnightblue" points="751.58,-218.91 756.6,-209.58 746.86,-213.75 751.58,-218.91"/>
</g>
<!-- Node31&#45;&gt;Node41 -->
<g id="edge50" class="edge">
<title>Node31&#45;&gt;Node41</title>
<path fill="none" stroke="midnightblue" d="M741.75,-246.4C770.41,-236.42 809.62,-222.62 843.97,-210 846.07,-209.23 848.24,-208.43 850.41,-207.61"/>
<polygon fill="midnightblue" stroke="midnightblue" points="851.79,-210.83 859.9,-204.03 849.31,-204.29 851.79,-210.83"/>
</g>
<!-- Node33&#45;&gt;Node22 -->
<g id="edge44" class="edge">
<title>Node33&#45;&gt;Node22</title>
<path fill="none" stroke="midnightblue" d="M505.7,-117.98C578.38,-106.22 708.09,-85.25 776.28,-74.23"/>
<polygon fill="midnightblue" stroke="midnightblue" points="776.96,-77.66 786.27,-72.61 775.84,-70.75 776.96,-77.66"/>
</g>
<!-- Node34 -->
<g id="node34" class="node">
<title>Node34</title>
<g id="a_node34"><a xlink:href="_assert_8hpp.html" target="_top" xlink:title=" ">
<polygon fill="white" stroke="black" points="606.97,-56.5 606.97,-75.5 674.97,-75.5 674.97,-56.5 606.97,-56.5"/>
<text text-anchor="middle" x="640.97" y="-63.5" font-family="Helvetica,sans-Serif" font-size="10.00">Assert.hpp</text>
</a>
</g>
</g>
<!-- Node33&#45;&gt;Node34 -->
<g id="edge42" class="edge">
<title>Node33&#45;&gt;Node34</title>
<path fill="none" stroke="midnightblue" d="M479.91,-117.98C512.58,-107.64 567.79,-90.16 604.32,-78.6"/>
<polygon fill="midnightblue" stroke="midnightblue" points="605.61,-81.86 614.09,-75.51 603.5,-75.19 605.61,-81.86"/>
</g>
<!-- Node36 -->
<g id="node36" class="node">
<title>Node36</title>
<g id="a_node36"><a xlink:title=" ">
<polygon fill="white" stroke="#bfbfbf" points="430.97,-56.5 430.97,-75.5 474.97,-75.5 474.97,-56.5 430.97,-56.5"/>
<text text-anchor="middle" x="452.97" y="-63.5" font-family="Helvetica,sans-Serif" font-size="10.00">limits</text>
</a>
</g>
</g>
<!-- Node33&#45;&gt;Node36 -->
<g id="edge45" class="edge">
<title>Node33&#45;&gt;Node36</title>
<path fill="none" stroke="midnightblue" d="M452.97,-117.98C452.97,-109.58 452.97,-96.48 452.97,-85.66"/>
<polygon fill="midnightblue" stroke="midnightblue" points="456.47,-85.51 452.97,-75.51 449.47,-85.51 456.47,-85.51"/>
</g>
<!-- Node35 -->
<g id="node35" class="node">
<title>Node35</title>
<g id="a_node35"><a xlink:title=" ">
<polygon fill="white" stroke="#bfbfbf" points="614.97,-0.5 614.97,-19.5 666.97,-19.5 666.97,-0.5 614.97,-0.5"/>
<text text-anchor="middle" x="640.97" y="-7.5" font-family="Helvetica,sans-Serif" font-size="10.00">cassert</text>
</a>
</g>
</g>
<!-- Node34&#45;&gt;Node35 -->
<g id="edge43" class="edge">
<title>Node34&#45;&gt;Node35</title>
<path fill="none" stroke="midnightblue" d="M640.97,-56.08C640.97,-49.01 640.97,-38.86 640.97,-29.99"/>
<polygon fill="midnightblue" stroke="midnightblue" points="644.47,-29.75 640.97,-19.75 637.47,-29.75 644.47,-29.75"/>
</g>
<!-- Node41&#45;&gt;Node22 -->
<g id="edge51" class="edge">
<title>Node41&#45;&gt;Node22</title>
<path fill="none" stroke="midnightblue" d="M872.52,-184.74C862.93,-175.32 848.33,-159.48 839.97,-143 830.77,-124.85 825.83,-101.94 823.32,-86.05"/>
<polygon fill="midnightblue" stroke="midnightblue" points="826.75,-85.3 821.89,-75.88 819.81,-86.27 826.75,-85.3"/>
</g>
<!-- Node42 -->
<g id="node42" class="node">
<title>Node42</title>
<g id="a_node42"><a xlink:title=" ">
<polygon fill="white" stroke="#bfbfbf" points="554.47,-118 554.47,-137 631.47,-137 631.47,-118 554.47,-118"/>
<text text-anchor="middle" x="592.97" y="-125" font-family="Helvetica,sans-Serif" font-size="10.00">half/half.hpp</text>
</a>
</g>
</g>
<!-- Node41&#45;&gt;Node42 -->
<g id="edge52" class="edge">
<title>Node41&#45;&gt;Node42</title>
<path fill="none" stroke="midnightblue" d="M861.7,-184.95C856.04,-182.78 849.83,-180.62 843.97,-179 755.23,-154.48 729.47,-164.61 639.97,-143 636.16,-142.08 632.2,-141.02 628.27,-139.91"/>
<polygon fill="midnightblue" stroke="midnightblue" points="629.25,-136.55 618.67,-137.06 627.26,-143.26 629.25,-136.55"/>
</g>
<!-- Node43&#45;&gt;Node12 -->
<g id="edge57" class="edge">
<title>Node43&#45;&gt;Node12</title>
<path fill="none" stroke="midnightblue" d="M727.47,-112.34C737.11,-91.34 755.18,-51.96 765.73,-28.96"/>
<polygon fill="midnightblue" stroke="midnightblue" points="769.01,-30.22 769.99,-19.67 762.64,-27.3 769.01,-30.22"/>
</g>
<!-- Node43&#45;&gt;Node18 -->
<g id="edge56" class="edge">
<title>Node43&#45;&gt;Node18</title>
<path fill="none" stroke="midnightblue" d="M792.75,-116.23C859.75,-106.57 962.81,-91.52 1062.42,-76.06"/>
<polygon fill="midnightblue" stroke="midnightblue" points="1063.02,-79.51 1072.36,-74.52 1061.94,-72.6 1063.02,-79.51"/>
</g>
<!-- Node43&#45;&gt;Node22 -->
<g id="edge58" class="edge">
<title>Node43&#45;&gt;Node22</title>
<path fill="none" stroke="midnightblue" d="M744.67,-112.4C760.7,-102.86 781.77,-90.32 797.71,-80.84"/>
<polygon fill="midnightblue" stroke="midnightblue" points="799.62,-83.78 806.42,-75.66 796.04,-77.76 799.62,-83.78"/>
</g>
<!-- Node43&#45;&gt;Node34 -->
<g id="edge55" class="edge">
<title>Node43&#45;&gt;Node34</title>
<path fill="none" stroke="midnightblue" d="M702.01,-112.4C689.55,-103.13 673.28,-91.03 660.67,-81.65"/>
<polygon fill="midnightblue" stroke="midnightblue" points="662.73,-78.82 652.61,-75.66 658.55,-84.43 662.73,-78.82"/>
</g>
<!-- Node49&#45;&gt;Node46 -->
<g id="edge67" class="edge">
<title>Node49&#45;&gt;Node46</title>
<path fill="none" stroke="midnightblue" d="M1971.03,-318.94C1925.93,-308.76 1849.68,-291.55 1793.21,-278.8"/>
<polygon fill="midnightblue" stroke="midnightblue" points="1793.79,-275.35 1783.27,-276.56 1792.25,-282.17 1793.79,-275.35"/>
</g>
<!-- Node50 -->
<g id="node50" class="node">
<title>Node50</title>
<g id="a_node50"><a xlink:title=" ">
<polygon fill="white" stroke="#bfbfbf" points="1947.47,-246.5 1947.47,-276.5 2070.47,-276.5 2070.47,-246.5 1947.47,-246.5"/>
<text text-anchor="start" x="1955.47" y="-264.5" font-family="Helvetica,sans-Serif" font-size="10.00">arm_compute/core/CL</text>
<text text-anchor="middle" x="2008.97" y="-253.5" font-family="Helvetica,sans-Serif" font-size="10.00">/ICLTensor.h</text>
</a>
</g>
</g>
<!-- Node49&#45;&gt;Node50 -->
<g id="edge66" class="edge">
<title>Node49&#45;&gt;Node50</title>
<path fill="none" stroke="midnightblue" d="M2008.97,-318.73C2008.97,-310.54 2008.97,-297.92 2008.97,-286.71"/>
<polygon fill="midnightblue" stroke="midnightblue" points="2012.47,-286.59 2008.97,-276.59 2005.47,-286.59 2012.47,-286.59"/>
</g>
</g>
</svg>
