<?xml version="1.0" encoding="UTF-8" standalone="no"?>
<!DOCTYPE svg PUBLIC "-//W3C//DTD SVG 1.1//EN"
 "http://www.w3.org/Graphics/SVG/1.1/DTD/svg11.dtd">
<!-- Generated by graphviz version 2.43.0 (0)
 -->
<!-- Title: shim/sl/canonical/ConversionUtils.hpp Pages: 1 -->
<svg width="657pt" height="374pt"
 viewBox="0.00 0.00 656.50 374.00" xmlns="http://www.w3.org/2000/svg" xmlns:xlink="http://www.w3.org/1999/xlink">
<g id="graph0" class="graph" transform="scale(1 1) rotate(0) translate(4 370)">
<title>shim/sl/canonical/ConversionUtils.hpp</title>
<polygon fill="white" stroke="transparent" points="-4,4 -4,-370 652.5,-370 652.5,4 -4,4"/>
<!-- Node1 -->
<g id="node1" class="node">
<title>Node1</title>
<g id="a_node1"><a xlink:title=" ">
<polygon fill="#bfbfbf" stroke="black" points="397.5,-335.5 397.5,-365.5 556.5,-365.5 556.5,-335.5 397.5,-335.5"/>
<text text-anchor="start" x="405.5" y="-353.5" font-family="Helvetica,sans-Serif" font-size="10.00">shim/sl/canonical/Conversion</text>
<text text-anchor="middle" x="477" y="-342.5" font-family="Helvetica,sans-Serif" font-size="10.00">Utils.hpp</text>
</a>
</g>
</g>
<!-- Node2 -->
<g id="node2" class="node">
<title>Node2</title>
<g id="a_node2"><a xlink:href="_converter_8hpp.html" target="_top" xlink:title=" ">
<polygon fill="white" stroke="black" points="298.5,-274 298.5,-293 471.5,-293 471.5,-274 298.5,-274"/>
<text text-anchor="middle" x="385" y="-281" font-family="Helvetica,sans-Serif" font-size="10.00">shim/sl/canonical/Converter.hpp</text>
</a>
</g>
</g>
<!-- Node1&#45;&gt;Node2 -->
<g id="edge1" class="edge">
<title>Node1&#45;&gt;Node2</title>
<path fill="none" stroke="midnightblue" d="M448.42,-329.31C431.14,-317.1 410.02,-302.18 397.04,-293.01"/>
<polygon fill="midnightblue" stroke="midnightblue" points="446.85,-332.48 457.04,-335.4 450.89,-326.77 446.85,-332.48"/>
</g>
<!-- Node11 -->
<g id="node11" class="node">
<title>Node11</title>
<g id="a_node11"><a xlink:href="_conversion_utils_8cpp.html" target="_top" xlink:title=" ">
<polygon fill="white" stroke="black" points="489.5,-268.5 489.5,-298.5 648.5,-298.5 648.5,-268.5 489.5,-268.5"/>
<text text-anchor="start" x="497.5" y="-286.5" font-family="Helvetica,sans-Serif" font-size="10.00">shim/sl/canonical/Conversion</text>
<text text-anchor="middle" x="569" y="-275.5" font-family="Helvetica,sans-Serif" font-size="10.00">Utils.cpp</text>
</a>
</g>
</g>
<!-- Node1&#45;&gt;Node11 -->
<g id="edge14" class="edge">
<title>Node1&#45;&gt;Node11</title>
<path fill="none" stroke="midnightblue" d="M505.38,-329.45C519.53,-319.45 536.31,-307.6 549.08,-298.58"/>
<polygon fill="midnightblue" stroke="midnightblue" points="503.11,-326.77 496.96,-335.4 507.15,-332.48 503.11,-326.77"/>
</g>
<!-- Node3 -->
<g id="node3" class="node">
<title>Node3</title>
<g id="a_node3"><a xlink:href="_armnn_driver_8hpp.html" target="_top" xlink:title=" ">
<polygon fill="white" stroke="black" points="101.5,-140 101.5,-159 288.5,-159 288.5,-140 101.5,-140"/>
<text text-anchor="middle" x="195" y="-147" font-family="Helvetica,sans-Serif" font-size="10.00">shim/sl/canonical/ArmnnDriver.hpp</text>
</a>
</g>
</g>
<!-- Node2&#45;&gt;Node3 -->
<g id="edge2" class="edge">
<title>Node2&#45;&gt;Node3</title>
<path fill="none" stroke="midnightblue" d="M336.03,-271.2C309.53,-263.35 277.34,-250.85 253,-232 226.64,-211.59 207.19,-175.95 199.12,-159.41"/>
<polygon fill="midnightblue" stroke="midnightblue" points="335.3,-274.63 345.88,-273.99 337.21,-267.9 335.3,-274.63"/>
</g>
<!-- Node8 -->
<g id="node8" class="node">
<title>Node8</title>
<g id="a_node8"><a xlink:href="_model_to_i_network_transformer_8hpp.html" target="_top" xlink:title=" ">
<polygon fill="white" stroke="black" points="262.5,-201.5 262.5,-231.5 407.5,-231.5 407.5,-201.5 262.5,-201.5"/>
<text text-anchor="start" x="270.5" y="-219.5" font-family="Helvetica,sans-Serif" font-size="10.00">shim/sl/canonical/ModelTo</text>
<text text-anchor="middle" x="335" y="-208.5" font-family="Helvetica,sans-Serif" font-size="10.00">INetworkTransformer.hpp</text>
</a>
</g>
</g>
<!-- Node2&#45;&gt;Node8 -->
<g id="edge7" class="edge">
<title>Node2&#45;&gt;Node8</title>
<path fill="none" stroke="midnightblue" d="M372.06,-265.67C363.92,-255.09 353.54,-241.6 345.84,-231.59"/>
<polygon fill="midnightblue" stroke="midnightblue" points="369.39,-267.94 378.26,-273.73 374.93,-263.67 369.39,-267.94"/>
</g>
<!-- Node9 -->
<g id="node9" class="node">
<title>Node9</title>
<g id="a_node9"><a xlink:href="_model_to_i_network_transformer_8cpp.html" target="_top" xlink:title=" ">
<polygon fill="white" stroke="black" points="382.5,-134.5 382.5,-164.5 527.5,-164.5 527.5,-134.5 382.5,-134.5"/>
<text text-anchor="start" x="390.5" y="-152.5" font-family="Helvetica,sans-Serif" font-size="10.00">shim/sl/canonical/ModelTo</text>
<text text-anchor="middle" x="455" y="-141.5" font-family="Helvetica,sans-Serif" font-size="10.00">INetworkTransformer.cpp</text>
</a>
</g>
</g>
<!-- Node2&#45;&gt;Node9 -->
<g id="edge13" class="edge">
<title>Node2&#45;&gt;Node9</title>
<path fill="none" stroke="midnightblue" d="M396.75,-265.19C403.06,-255.59 410.8,-243.34 417,-232 429.59,-208.99 442.02,-181.08 449.08,-164.61"/>
<polygon fill="midnightblue" stroke="midnightblue" points="393.66,-263.51 391.02,-273.77 399.48,-267.4 393.66,-263.51"/>
</g>
<!-- Node10 -->
<g id="node10" class="node">
<title>Node10</title>
<g id="a_node10"><a xlink:href="_converter_8cpp.html" target="_top" xlink:title=" ">
<polygon fill="white" stroke="black" points="464,-207 464,-226 636,-226 636,-207 464,-207"/>
<text text-anchor="middle" x="550" y="-214" font-family="Helvetica,sans-Serif" font-size="10.00">shim/sl/canonical/Converter.cpp</text>
</a>
</g>
</g>
<!-- Node2&#45;&gt;Node10 -->
<g id="edge12" class="edge">
<title>Node2&#45;&gt;Node10</title>
<path fill="none" stroke="midnightblue" d="M416.47,-270.1C449.23,-257.2 499.67,-237.33 528.26,-226.06"/>
<polygon fill="midnightblue" stroke="midnightblue" points="414.93,-266.95 406.91,-273.87 417.5,-273.46 414.93,-266.95"/>
</g>
<!-- Node4 -->
<g id="node4" class="node">
<title>Node4</title>
<g id="a_node4"><a xlink:href="_armnn_prepared_model_8hpp.html" target="_top" xlink:title=" ">
<polygon fill="white" stroke="black" points="146,-67.5 146,-97.5 326,-97.5 326,-67.5 146,-67.5"/>
<text text-anchor="start" x="154" y="-85.5" font-family="Helvetica,sans-Serif" font-size="10.00">shim/sl/canonical/ArmnnPrepared</text>
<text text-anchor="middle" x="236" y="-74.5" font-family="Helvetica,sans-Serif" font-size="10.00">Model.hpp</text>
</a>
</g>
</g>
<!-- Node3&#45;&gt;Node4 -->
<g id="edge3" class="edge">
<title>Node3&#45;&gt;Node4</title>
<path fill="none" stroke="midnightblue" d="M206.02,-131.03C212.63,-120.56 220.92,-107.4 227.11,-97.59"/>
<polygon fill="midnightblue" stroke="midnightblue" points="202.9,-129.41 200.53,-139.73 208.82,-133.14 202.9,-129.41"/>
</g>
<!-- Node7 -->
<g id="node7" class="node">
<title>Node7</title>
<g id="a_node7"><a xlink:href="support__library__service_8cpp.html" target="_top" xlink:title=" ">
<polygon fill="white" stroke="black" points="0,-67.5 0,-97.5 128,-97.5 128,-67.5 0,-67.5"/>
<text text-anchor="start" x="8" y="-85.5" font-family="Helvetica,sans-Serif" font-size="10.00">shim/sl/support_library</text>
<text text-anchor="middle" x="64" y="-74.5" font-family="Helvetica,sans-Serif" font-size="10.00">_service.cpp</text>
</a>
</g>
</g>
<!-- Node3&#45;&gt;Node7 -->
<g id="edge6" class="edge">
<title>Node3&#45;&gt;Node7</title>
<path fill="none" stroke="midnightblue" d="M168.48,-135.34C146.43,-124.4 115.11,-108.86 92.52,-97.65"/>
<polygon fill="midnightblue" stroke="midnightblue" points="167.09,-138.56 177.6,-139.87 170.2,-132.29 167.09,-138.56"/>
</g>
<!-- Node5 -->
<g id="node5" class="node">
<title>Node5</title>
<g id="a_node5"><a xlink:href="_armnn_driver_impl_8cpp.html" target="_top" xlink:title=" ">
<polygon fill="white" stroke="black" points="270.5,-0.5 270.5,-30.5 437.5,-30.5 437.5,-0.5 270.5,-0.5"/>
<text text-anchor="start" x="278.5" y="-18.5" font-family="Helvetica,sans-Serif" font-size="10.00">shim/sl/canonical/ArmnnDriver</text>
<text text-anchor="middle" x="354" y="-7.5" font-family="Helvetica,sans-Serif" font-size="10.00">Impl.cpp</text>
</a>
</g>
</g>
<!-- Node4&#45;&gt;Node5 -->
<g id="edge4" class="edge">
<title>Node4&#45;&gt;Node5</title>
<path fill="none" stroke="midnightblue" d="M270.61,-62.44C289.12,-52.24 311.52,-39.9 328.45,-30.58"/>
<polygon fill="midnightblue" stroke="midnightblue" points="268.67,-59.51 261.6,-67.4 272.05,-65.64 268.67,-59.51"/>
</g>
<!-- Node6 -->
<g id="node6" class="node">
<title>Node6</title>
<g id="a_node6"><a xlink:href="_armnn_prepared_model_8cpp.html" target="_top" xlink:title=" ">
<polygon fill="white" stroke="black" points="72,-0.5 72,-30.5 252,-30.5 252,-0.5 72,-0.5"/>
<text text-anchor="start" x="80" y="-18.5" font-family="Helvetica,sans-Serif" font-size="10.00">shim/sl/canonical/ArmnnPrepared</text>
<text text-anchor="middle" x="162" y="-7.5" font-family="Helvetica,sans-Serif" font-size="10.00">Model.cpp</text>
</a>
</g>
</g>
<!-- Node4&#45;&gt;Node6 -->
<g id="edge5" class="edge">
<title>Node4&#45;&gt;Node6</title>
<path fill="none" stroke="midnightblue" d="M212.2,-60.6C201.03,-50.78 188.01,-39.34 178.03,-30.58"/>
<polygon fill="midnightblue" stroke="midnightblue" points="210.12,-63.43 219.94,-67.4 214.74,-58.17 210.12,-63.43"/>
</g>
<!-- Node8&#45;&gt;Node3 -->
<g id="edge8" class="edge">
<title>Node8&#45;&gt;Node3</title>
<path fill="none" stroke="midnightblue" d="M295.44,-197.13C268.49,-184.62 234.07,-168.64 213.32,-159.01"/>
<polygon fill="midnightblue" stroke="midnightblue" points="294.08,-200.36 304.62,-201.4 297.03,-194.01 294.08,-200.36"/>
</g>
<!-- Node8&#45;&gt;Node4 -->
<g id="edge9" class="edge">
<title>Node8&#45;&gt;Node4</title>
<path fill="none" stroke="midnightblue" d="M327.11,-191.7C320.71,-174.57 310.52,-151.49 297,-134 285.99,-119.75 270.27,-106.86 257.55,-97.67"/>
<polygon fill="midnightblue" stroke="midnightblue" points="323.95,-193.26 330.61,-201.5 330.55,-190.9 323.95,-193.26"/>
</g>
<!-- Node8&#45;&gt;Node5 -->
<g id="edge10" class="edge">
<title>Node8&#45;&gt;Node5</title>
<path fill="none" stroke="midnightblue" d="M337.34,-191C341.36,-148.93 349.44,-64.26 352.65,-30.68"/>
<polygon fill="midnightblue" stroke="midnightblue" points="333.83,-190.9 336.37,-201.19 340.8,-191.57 333.83,-190.9"/>
</g>
<!-- Node8&#45;&gt;Node9 -->
<g id="edge11" class="edge">
<title>Node8&#45;&gt;Node9</title>
<path fill="none" stroke="midnightblue" d="M369.94,-196.57C388.82,-186.35 411.73,-173.94 429.01,-164.58"/>
<polygon fill="midnightblue" stroke="midnightblue" points="368.16,-193.56 361.04,-201.4 371.5,-199.71 368.16,-193.56"/>
</g>
</g>
</svg>
