<?xml version="1.0" encoding="UTF-8" standalone="no"?>
<!DOCTYPE svg PUBLIC "-//W3C//DTD SVG 1.1//EN"
 "http://www.w3.org/Graphics/SVG/1.1/DTD/svg11.dtd">
<!-- Generated by graphviz version 2.43.0 (0)
 -->
<!-- Title: include/armnn/backends/DynamicBackend.hpp Pages: 1 -->
<svg width="797pt" height="307pt"
 viewBox="0.00 0.00 797.00 307.00" xmlns="http://www.w3.org/2000/svg" xmlns:xlink="http://www.w3.org/1999/xlink">
<g id="graph0" class="graph" transform="scale(1 1) rotate(0) translate(4 303)">
<title>include/armnn/backends/DynamicBackend.hpp</title>
<polygon fill="white" stroke="transparent" points="-4,4 -4,-303 793,-303 793,4 -4,4"/>
<!-- Node1 -->
<g id="node1" class="node">
<title>Node1</title>
<g id="a_node1"><a xlink:title=" ">
<polygon fill="#bfbfbf" stroke="black" points="444,-268.5 444,-298.5 579,-298.5 579,-268.5 444,-268.5"/>
<text text-anchor="start" x="452" y="-286.5" font-family="Helvetica,sans-Serif" font-size="10.00">include/armnn/backends</text>
<text text-anchor="middle" x="511.5" y="-275.5" font-family="Helvetica,sans-Serif" font-size="10.00">/DynamicBackend.hpp</text>
</a>
</g>
</g>
<!-- Node2 -->
<g id="node2" class="node">
<title>Node2</title>
<g id="a_node2"><a xlink:href="_runtime_8hpp.html" target="_top" xlink:title=" ">
<polygon fill="white" stroke="black" points="276,-207 276,-226 407,-226 407,-207 276,-207"/>
<text text-anchor="middle" x="341.5" y="-214" font-family="Helvetica,sans-Serif" font-size="10.00">src/armnn/Runtime.hpp</text>
</a>
</g>
</g>
<!-- Node1&#45;&gt;Node2 -->
<g id="edge1" class="edge">
<title>Node1&#45;&gt;Node2</title>
<path fill="none" stroke="midnightblue" d="M465.17,-264.78C432.2,-252.18 389.38,-235.81 363.75,-226.01"/>
<polygon fill="midnightblue" stroke="midnightblue" points="464.02,-268.09 474.61,-268.4 466.52,-261.56 464.02,-268.09"/>
</g>
<!-- Node9 -->
<g id="node9" class="node">
<title>Node9</title>
<g id="a_node9"><a xlink:href="_dynamic_backend_8cpp.html" target="_top" xlink:title=" ">
<polygon fill="white" stroke="black" points="616,-134.5 616,-164.5 789,-164.5 789,-134.5 616,-134.5"/>
<text text-anchor="start" x="624" y="-152.5" font-family="Helvetica,sans-Serif" font-size="10.00">src/backends/backendsCommon</text>
<text text-anchor="middle" x="702.5" y="-141.5" font-family="Helvetica,sans-Serif" font-size="10.00">/DynamicBackend.cpp</text>
</a>
</g>
</g>
<!-- Node1&#45;&gt;Node9 -->
<g id="edge8" class="edge">
<title>Node1&#45;&gt;Node9</title>
<path fill="none" stroke="midnightblue" d="M551.79,-263.84C569.42,-255.04 590.02,-243.87 607.5,-232 638.24,-211.12 670.3,-181.77 688.2,-164.58"/>
<polygon fill="midnightblue" stroke="midnightblue" points="549.78,-260.93 542.34,-268.48 552.86,-267.21 549.78,-260.93"/>
</g>
<!-- Node10 -->
<g id="node10" class="node">
<title>Node10</title>
<g id="a_node10"><a xlink:href="_dynamic_backend_utils_8hpp.html" target="_top" xlink:title=" ">
<polygon fill="white" stroke="black" points="425,-201.5 425,-231.5 598,-231.5 598,-201.5 425,-201.5"/>
<text text-anchor="start" x="433" y="-219.5" font-family="Helvetica,sans-Serif" font-size="10.00">src/backends/backendsCommon</text>
<text text-anchor="middle" x="511.5" y="-208.5" font-family="Helvetica,sans-Serif" font-size="10.00">/DynamicBackendUtils.hpp</text>
</a>
</g>
</g>
<!-- Node1&#45;&gt;Node10 -->
<g id="edge9" class="edge">
<title>Node1&#45;&gt;Node10</title>
<path fill="none" stroke="midnightblue" d="M511.5,-258.11C511.5,-249.15 511.5,-239.32 511.5,-231.58"/>
<polygon fill="midnightblue" stroke="midnightblue" points="508,-258.4 511.5,-268.4 515,-258.4 508,-258.4"/>
</g>
<!-- Node3 -->
<g id="node3" class="node">
<title>Node3</title>
<g id="a_node3"><a xlink:href="_runtime_8cpp.html" target="_top" xlink:title=" ">
<polygon fill="white" stroke="black" points="276.5,-140 276.5,-159 406.5,-159 406.5,-140 276.5,-140"/>
<text text-anchor="middle" x="341.5" y="-147" font-family="Helvetica,sans-Serif" font-size="10.00">src/armnn/Runtime.cpp</text>
</a>
</g>
</g>
<!-- Node2&#45;&gt;Node3 -->
<g id="edge2" class="edge">
<title>Node2&#45;&gt;Node3</title>
<path fill="none" stroke="midnightblue" d="M341.5,-196.54C341.5,-184.17 341.5,-168.62 341.5,-159.13"/>
<polygon fill="midnightblue" stroke="midnightblue" points="338,-196.73 341.5,-206.73 345,-196.73 338,-196.73"/>
</g>
<!-- Node4 -->
<g id="node4" class="node">
<title>Node4</title>
<g id="a_node4"><a xlink:href="_test_utils_8hpp.html" target="_top" xlink:title=" ">
<polygon fill="white" stroke="black" points="151,-134.5 151,-164.5 258,-164.5 258,-134.5 151,-134.5"/>
<text text-anchor="start" x="159" y="-152.5" font-family="Helvetica,sans-Serif" font-size="10.00">src/armnnTestUtils</text>
<text text-anchor="middle" x="204.5" y="-141.5" font-family="Helvetica,sans-Serif" font-size="10.00">/TestUtils.hpp</text>
</a>
</g>
</g>
<!-- Node2&#45;&gt;Node4 -->
<g id="edge3" class="edge">
<title>Node2&#45;&gt;Node4</title>
<path fill="none" stroke="midnightblue" d="M314.04,-202.47C290.88,-191.49 257.81,-175.79 234.07,-164.53"/>
<polygon fill="midnightblue" stroke="midnightblue" points="312.77,-205.74 323.31,-206.87 315.77,-199.42 312.77,-205.74"/>
</g>
<!-- Node5 -->
<g id="node5" class="node">
<title>Node5</title>
<g id="a_node5"><a xlink:href="_common_test_utils_8hpp.html" target="_top" xlink:title=" ">
<polygon fill="white" stroke="black" points="0,-67.5 0,-97.5 127,-97.5 127,-67.5 0,-67.5"/>
<text text-anchor="start" x="8" y="-85.5" font-family="Helvetica,sans-Serif" font-size="10.00">src/armnnTestUtils</text>
<text text-anchor="middle" x="63.5" y="-74.5" font-family="Helvetica,sans-Serif" font-size="10.00">/CommonTestUtils.hpp</text>
</a>
</g>
</g>
<!-- Node4&#45;&gt;Node5 -->
<g id="edge4" class="edge">
<title>Node4&#45;&gt;Node5</title>
<path fill="none" stroke="midnightblue" d="M164.65,-130.13C142.25,-119.8 114.72,-107.11 94.04,-97.58"/>
<polygon fill="midnightblue" stroke="midnightblue" points="163.36,-133.39 173.91,-134.4 166.29,-127.03 163.36,-133.39"/>
</g>
<!-- Node7 -->
<g id="node7" class="node">
<title>Node7</title>
<g id="a_node7"><a xlink:href="_create_workload_8hpp.html" target="_top" xlink:title=" ">
<polygon fill="white" stroke="black" points="145,-67.5 145,-97.5 264,-97.5 264,-67.5 145,-67.5"/>
<text text-anchor="start" x="153" y="-85.5" font-family="Helvetica,sans-Serif" font-size="10.00">src/armnnTestUtils</text>
<text text-anchor="middle" x="204.5" y="-74.5" font-family="Helvetica,sans-Serif" font-size="10.00">/CreateWorkload.hpp</text>
</a>
</g>
</g>
<!-- Node4&#45;&gt;Node7 -->
<g id="edge6" class="edge">
<title>Node4&#45;&gt;Node7</title>
<path fill="none" stroke="midnightblue" d="M204.5,-124.11C204.5,-115.15 204.5,-105.32 204.5,-97.58"/>
<polygon fill="midnightblue" stroke="midnightblue" points="201,-124.4 204.5,-134.4 208,-124.4 201,-124.4"/>
</g>
<!-- Node8 -->
<g id="node8" class="node">
<title>Node8</title>
<g id="a_node8"><a xlink:href="_test_utils_8cpp.html" target="_top" xlink:title=" ">
<polygon fill="white" stroke="black" points="282,-67.5 282,-97.5 389,-97.5 389,-67.5 282,-67.5"/>
<text text-anchor="start" x="290" y="-85.5" font-family="Helvetica,sans-Serif" font-size="10.00">src/armnnTestUtils</text>
<text text-anchor="middle" x="335.5" y="-74.5" font-family="Helvetica,sans-Serif" font-size="10.00">/TestUtils.cpp</text>
</a>
</g>
</g>
<!-- Node4&#45;&gt;Node8 -->
<g id="edge7" class="edge">
<title>Node4&#45;&gt;Node8</title>
<path fill="none" stroke="midnightblue" d="M242.08,-129.85C262.79,-119.58 288.09,-107.03 307.13,-97.58"/>
<polygon fill="midnightblue" stroke="midnightblue" points="240.33,-126.82 232.93,-134.4 243.44,-133.09 240.33,-126.82"/>
</g>
<!-- Node6 -->
<g id="node6" class="node">
<title>Node6</title>
<g id="a_node6"><a xlink:href="_common_test_utils_8cpp.html" target="_top" xlink:title=" ">
<polygon fill="white" stroke="black" points="0.5,-0.5 0.5,-30.5 126.5,-30.5 126.5,-0.5 0.5,-0.5"/>
<text text-anchor="start" x="8.5" y="-18.5" font-family="Helvetica,sans-Serif" font-size="10.00">src/armnnTestUtils</text>
<text text-anchor="middle" x="63.5" y="-7.5" font-family="Helvetica,sans-Serif" font-size="10.00">/CommonTestUtils.cpp</text>
</a>
</g>
</g>
<!-- Node5&#45;&gt;Node6 -->
<g id="edge5" class="edge">
<title>Node5&#45;&gt;Node6</title>
<path fill="none" stroke="midnightblue" d="M63.5,-57.11C63.5,-48.15 63.5,-38.32 63.5,-30.58"/>
<polygon fill="midnightblue" stroke="midnightblue" points="60,-57.4 63.5,-67.4 67,-57.4 60,-57.4"/>
</g>
<!-- Node10&#45;&gt;Node3 -->
<g id="edge10" class="edge">
<title>Node10&#45;&gt;Node3</title>
<path fill="none" stroke="midnightblue" d="M465.17,-197.78C432.2,-185.18 389.38,-168.81 363.75,-159.01"/>
<polygon fill="midnightblue" stroke="midnightblue" points="464.02,-201.09 474.61,-201.4 466.52,-194.56 464.02,-201.09"/>
</g>
<!-- Node10&#45;&gt;Node9 -->
<g id="edge11" class="edge">
<title>Node10&#45;&gt;Node9</title>
<path fill="none" stroke="midnightblue" d="M562.65,-198.09C593.49,-187.6 632.25,-174.41 661.14,-164.58"/>
<polygon fill="midnightblue" stroke="midnightblue" points="561.28,-194.86 552.94,-201.4 563.54,-201.49 561.28,-194.86"/>
</g>
<!-- Node11 -->
<g id="node11" class="node">
<title>Node11</title>
<g id="a_node11"><a xlink:href="_dynamic_backend_utils_8cpp.html" target="_top" xlink:title=" ">
<polygon fill="white" stroke="black" points="425,-134.5 425,-164.5 598,-164.5 598,-134.5 425,-134.5"/>
<text text-anchor="start" x="433" y="-152.5" font-family="Helvetica,sans-Serif" font-size="10.00">src/backends/backendsCommon</text>
<text text-anchor="middle" x="511.5" y="-141.5" font-family="Helvetica,sans-Serif" font-size="10.00">/DynamicBackendUtils.cpp</text>
</a>
</g>
</g>
<!-- Node10&#45;&gt;Node11 -->
<g id="edge12" class="edge">
<title>Node10&#45;&gt;Node11</title>
<path fill="none" stroke="midnightblue" d="M511.5,-191.11C511.5,-182.15 511.5,-172.32 511.5,-164.58"/>
<polygon fill="midnightblue" stroke="midnightblue" points="508,-191.4 511.5,-201.4 515,-191.4 508,-191.4"/>
</g>
</g>
</svg>
