<?xml version="1.0" encoding="UTF-8" standalone="no"?>
<!DOCTYPE svg PUBLIC "-//W3C//DTD SVG 1.1//EN"
 "http://www.w3.org/Graphics/SVG/1.1/DTD/svg11.dtd">
<!-- Generated by graphviz version 2.43.0 (0)
 -->
<!-- Title: src/armnn/InternalTypes.cpp Pages: 1 -->
<svg width="644pt" height="263pt"
 viewBox="0.00 0.00 643.50 263.00" xmlns="http://www.w3.org/2000/svg" xmlns:xlink="http://www.w3.org/1999/xlink">
<g id="graph0" class="graph" transform="scale(1 1) rotate(0) translate(4 259)">
<title>src/armnn/InternalTypes.cpp</title>
<polygon fill="white" stroke="transparent" points="-4,4 -4,-259 639.5,-259 639.5,4 -4,4"/>
<!-- Node1 -->
<g id="node1" class="node">
<title>Node1</title>
<g id="a_node1"><a xlink:title=" ">
<polygon fill="#bfbfbf" stroke="black" points="253,-235.5 253,-254.5 407,-254.5 407,-235.5 253,-235.5"/>
<text text-anchor="middle" x="330" y="-242.5" font-family="Helvetica,sans-Serif" font-size="10.00">src/armnn/InternalTypes.cpp</text>
</a>
</g>
</g>
<!-- Node2 -->
<g id="node2" class="node">
<title>Node2</title>
<g id="a_node2"><a xlink:href="_internal_types_8hpp.html" target="_top" xlink:title=" ">
<polygon fill="white" stroke="black" points="210.5,-179.5 210.5,-198.5 313.5,-198.5 313.5,-179.5 210.5,-179.5"/>
<text text-anchor="middle" x="262" y="-186.5" font-family="Helvetica,sans-Serif" font-size="10.00">InternalTypes.hpp</text>
</a>
</g>
</g>
<!-- Node1&#45;&gt;Node2 -->
<g id="edge1" class="edge">
<title>Node1&#45;&gt;Node2</title>
<path fill="none" stroke="midnightblue" d="M319.07,-235.32C308.83,-227.18 293.28,-214.84 281,-205.09"/>
<polygon fill="midnightblue" stroke="midnightblue" points="283.13,-202.31 273.12,-198.83 278.78,-207.79 283.13,-202.31"/>
</g>
<!-- Node20 -->
<g id="node20" class="node">
<title>Node20</title>
<g id="a_node20"><a xlink:href="_assert_8hpp.html" target="_top" xlink:title=" ">
<polygon fill="white" stroke="black" points="361,-179.5 361,-198.5 495,-198.5 495,-179.5 361,-179.5"/>
<text text-anchor="middle" x="428" y="-186.5" font-family="Helvetica,sans-Serif" font-size="10.00">armnn/utility/Assert.hpp</text>
</a>
</g>
</g>
<!-- Node1&#45;&gt;Node20 -->
<g id="edge21" class="edge">
<title>Node1&#45;&gt;Node20</title>
<path fill="none" stroke="midnightblue" d="M345.75,-235.32C361.32,-226.74 385.38,-213.49 403.46,-203.52"/>
<polygon fill="midnightblue" stroke="midnightblue" points="405.22,-206.55 412.29,-198.65 401.85,-200.42 405.22,-206.55"/>
</g>
<!-- Node3 -->
<g id="node3" class="node">
<title>Node3</title>
<g id="a_node3"><a xlink:href="_types_8hpp.html" target="_top" xlink:title=" ">
<polygon fill="white" stroke="black" points="155,-118 155,-137 255,-137 255,-118 155,-118"/>
<text text-anchor="middle" x="205" y="-125" font-family="Helvetica,sans-Serif" font-size="10.00">armnn/Types.hpp</text>
</a>
</g>
</g>
<!-- Node2&#45;&gt;Node3 -->
<g id="edge2" class="edge">
<title>Node2&#45;&gt;Node3</title>
<path fill="none" stroke="midnightblue" d="M253.83,-179.48C245.11,-170.37 231.1,-155.74 220.31,-144.48"/>
<polygon fill="midnightblue" stroke="midnightblue" points="222.6,-141.81 213.15,-137.01 217.54,-146.65 222.6,-141.81"/>
</g>
<!-- Node4 -->
<g id="node4" class="node">
<title>Node4</title>
<g id="a_node4"><a xlink:title=" ">
<polygon fill="white" stroke="#bfbfbf" points="0,-56.5 0,-75.5 42,-75.5 42,-56.5 0,-56.5"/>
<text text-anchor="middle" x="21" y="-63.5" font-family="Helvetica,sans-Serif" font-size="10.00">array</text>
</a>
</g>
</g>
<!-- Node2&#45;&gt;Node4 -->
<g id="edge20" class="edge">
<title>Node2&#45;&gt;Node4</title>
<path fill="none" stroke="midnightblue" d="M236.1,-179.43C212.22,-171.18 176.03,-157.81 146,-143 107.83,-124.17 66.06,-97.43 41.77,-81.2"/>
<polygon fill="midnightblue" stroke="midnightblue" points="43.61,-78.21 33.36,-75.53 39.7,-84.02 43.61,-78.21"/>
</g>
<!-- Node19 -->
<g id="node19" class="node">
<title>Node19</title>
<g id="a_node19"><a xlink:title=" ">
<polygon fill="white" stroke="#bfbfbf" points="273,-112.5 273,-142.5 413,-142.5 413,-112.5 273,-112.5"/>
<text text-anchor="start" x="281" y="-130.5" font-family="Helvetica,sans-Serif" font-size="10.00">common/include/Profiling</text>
<text text-anchor="middle" x="343" y="-119.5" font-family="Helvetica,sans-Serif" font-size="10.00">Guid.hpp</text>
</a>
</g>
</g>
<!-- Node2&#45;&gt;Node19 -->
<g id="edge19" class="edge">
<title>Node2&#45;&gt;Node19</title>
<path fill="none" stroke="midnightblue" d="M273.61,-179.48C284.58,-171.42 301.45,-159.02 315.81,-148.47"/>
<polygon fill="midnightblue" stroke="midnightblue" points="317.92,-151.26 323.91,-142.52 313.78,-145.62 317.92,-151.26"/>
</g>
<!-- Node3&#45;&gt;Node4 -->
<g id="edge3" class="edge">
<title>Node3&#45;&gt;Node4</title>
<path fill="none" stroke="midnightblue" d="M178.64,-117.98C145.17,-107.15 87.53,-88.52 52,-77.02"/>
<polygon fill="midnightblue" stroke="midnightblue" points="52.76,-73.59 42.17,-73.84 50.6,-80.25 52.76,-73.59"/>
</g>
<!-- Node5 -->
<g id="node5" class="node">
<title>Node5</title>
<g id="a_node5"><a xlink:title=" ">
<polygon fill="white" stroke="#bfbfbf" points="60.5,-56.5 60.5,-75.5 125.5,-75.5 125.5,-56.5 60.5,-56.5"/>
<text text-anchor="middle" x="93" y="-63.5" font-family="Helvetica,sans-Serif" font-size="10.00">functional</text>
</a>
</g>
</g>
<!-- Node3&#45;&gt;Node5 -->
<g id="edge4" class="edge">
<title>Node3&#45;&gt;Node5</title>
<path fill="none" stroke="midnightblue" d="M188.95,-117.98C170.41,-108.12 139.66,-91.79 117.98,-80.27"/>
<polygon fill="midnightblue" stroke="midnightblue" points="119.49,-77.11 109.02,-75.51 116.21,-83.29 119.49,-77.11"/>
</g>
<!-- Node6 -->
<g id="node6" class="node">
<title>Node6</title>
<g id="a_node6"><a xlink:title=" ">
<polygon fill="white" stroke="#bfbfbf" points="143.5,-56.5 143.5,-75.5 196.5,-75.5 196.5,-56.5 143.5,-56.5"/>
<text text-anchor="middle" x="170" y="-63.5" font-family="Helvetica,sans-Serif" font-size="10.00">stdint.h</text>
</a>
</g>
</g>
<!-- Node3&#45;&gt;Node6 -->
<g id="edge5" class="edge">
<title>Node3&#45;&gt;Node6</title>
<path fill="none" stroke="midnightblue" d="M199.99,-117.98C194.84,-109.23 186.69,-95.37 180.18,-84.31"/>
<polygon fill="midnightblue" stroke="midnightblue" points="183.09,-82.35 175.01,-75.51 177.06,-85.9 183.09,-82.35"/>
</g>
<!-- Node7 -->
<g id="node7" class="node">
<title>Node7</title>
<g id="a_node7"><a xlink:title=" ">
<polygon fill="white" stroke="#bfbfbf" points="215,-56.5 215,-75.5 265,-75.5 265,-56.5 215,-56.5"/>
<text text-anchor="middle" x="240" y="-63.5" font-family="Helvetica,sans-Serif" font-size="10.00">chrono</text>
</a>
</g>
</g>
<!-- Node3&#45;&gt;Node7 -->
<g id="edge6" class="edge">
<title>Node3&#45;&gt;Node7</title>
<path fill="none" stroke="midnightblue" d="M210.01,-117.98C215.16,-109.23 223.31,-95.37 229.82,-84.31"/>
<polygon fill="midnightblue" stroke="midnightblue" points="232.94,-85.9 234.99,-75.51 226.91,-82.35 232.94,-85.9"/>
</g>
<!-- Node8 -->
<g id="node8" class="node">
<title>Node8</title>
<g id="a_node8"><a xlink:href="_backend_id_8hpp.html" target="_top" xlink:title=" ">
<polygon fill="white" stroke="black" points="283,-56.5 283,-75.5 371,-75.5 371,-56.5 283,-56.5"/>
<text text-anchor="middle" x="327" y="-63.5" font-family="Helvetica,sans-Serif" font-size="10.00">BackendId.hpp</text>
</a>
</g>
</g>
<!-- Node3&#45;&gt;Node8 -->
<g id="edge7" class="edge">
<title>Node3&#45;&gt;Node8</title>
<path fill="none" stroke="midnightblue" d="M222.48,-117.98C242.86,-108.03 276.78,-91.49 300.42,-79.96"/>
<polygon fill="midnightblue" stroke="midnightblue" points="302.1,-83.04 309.55,-75.51 299.03,-76.75 302.1,-83.04"/>
</g>
<!-- Node15 -->
<g id="node15" class="node">
<title>Node15</title>
<g id="a_node15"><a xlink:href="_exceptions_8hpp.html" target="_top" xlink:title=" ">
<polygon fill="white" stroke="black" points="410.5,-56.5 410.5,-75.5 501.5,-75.5 501.5,-56.5 410.5,-56.5"/>
<text text-anchor="middle" x="456" y="-63.5" font-family="Helvetica,sans-Serif" font-size="10.00">Exceptions.hpp</text>
</a>
</g>
</g>
<!-- Node3&#45;&gt;Node15 -->
<g id="edge14" class="edge">
<title>Node3&#45;&gt;Node15</title>
<path fill="none" stroke="midnightblue" d="M239.61,-117.93C247.62,-115.96 256.1,-113.9 264,-112 313.51,-100.12 370.29,-86.85 409.18,-77.82"/>
<polygon fill="midnightblue" stroke="midnightblue" points="410.21,-81.18 419.16,-75.51 408.63,-74.36 410.21,-81.18"/>
</g>
<!-- Node18 -->
<g id="node18" class="node">
<title>Node18</title>
<g id="a_node18"><a xlink:href="_deprecated_8hpp.html" target="_top" xlink:title=" ">
<polygon fill="white" stroke="black" points="520,-56.5 520,-75.5 614,-75.5 614,-56.5 520,-56.5"/>
<text text-anchor="middle" x="567" y="-63.5" font-family="Helvetica,sans-Serif" font-size="10.00">Deprecated.hpp</text>
</a>
</g>
</g>
<!-- Node3&#45;&gt;Node18 -->
<g id="edge18" class="edge">
<title>Node3&#45;&gt;Node18</title>
<path fill="none" stroke="midnightblue" d="M237.34,-117.96C245.96,-115.85 255.3,-113.7 264,-112 369.37,-91.39 399.09,-92.53 509.84,-76"/>
<polygon fill="midnightblue" stroke="midnightblue" points="510.36,-79.46 519.73,-74.51 509.32,-72.54 510.36,-79.46"/>
</g>
<!-- Node9 -->
<g id="node9" class="node">
<title>Node9</title>
<g id="a_node9"><a xlink:title=" ">
<polygon fill="white" stroke="#bfbfbf" points="62,-0.5 62,-19.5 120,-19.5 120,-0.5 62,-0.5"/>
<text text-anchor="middle" x="91" y="-7.5" font-family="Helvetica,sans-Serif" font-size="10.00">memory</text>
</a>
</g>
</g>
<!-- Node8&#45;&gt;Node9 -->
<g id="edge8" class="edge">
<title>Node8&#45;&gt;Node9</title>
<path fill="none" stroke="midnightblue" d="M289.02,-56.48C251.17,-47.96 191.12,-34.38 129.88,-20.19"/>
<polygon fill="midnightblue" stroke="midnightblue" points="130.57,-16.76 120.04,-17.91 128.99,-23.58 130.57,-16.76"/>
</g>
<!-- Node10 -->
<g id="node10" class="node">
<title>Node10</title>
<g id="a_node10"><a xlink:title=" ">
<polygon fill="white" stroke="#bfbfbf" points="138.5,-0.5 138.5,-19.5 195.5,-19.5 195.5,-0.5 138.5,-0.5"/>
<text text-anchor="middle" x="167" y="-7.5" font-family="Helvetica,sans-Serif" font-size="10.00">ostream</text>
</a>
</g>
</g>
<!-- Node8&#45;&gt;Node10 -->
<g id="edge9" class="edge">
<title>Node8&#45;&gt;Node10</title>
<path fill="none" stroke="midnightblue" d="M301.65,-56.44C274.73,-47.36 232,-32.94 201.91,-22.78"/>
<polygon fill="midnightblue" stroke="midnightblue" points="202.83,-19.4 192.23,-19.52 200.59,-26.03 202.83,-19.4"/>
</g>
<!-- Node11 -->
<g id="node11" class="node">
<title>Node11</title>
<g id="a_node11"><a xlink:title=" ">
<polygon fill="white" stroke="#bfbfbf" points="214,-0.5 214,-19.5 246,-19.5 246,-0.5 214,-0.5"/>
<text text-anchor="middle" x="230" y="-7.5" font-family="Helvetica,sans-Serif" font-size="10.00">set</text>
</a>
</g>
</g>
<!-- Node8&#45;&gt;Node11 -->
<g id="edge10" class="edge">
<title>Node8&#45;&gt;Node11</title>
<path fill="none" stroke="midnightblue" d="M311.42,-56.32C296,-47.74 272.19,-34.49 254.29,-24.52"/>
<polygon fill="midnightblue" stroke="midnightblue" points="255.99,-21.46 245.55,-19.65 252.58,-27.58 255.99,-21.46"/>
</g>
<!-- Node12 -->
<g id="node12" class="node">
<title>Node12</title>
<g id="a_node12"><a xlink:title=" ">
<polygon fill="white" stroke="#bfbfbf" points="434,-0.5 434,-19.5 478,-19.5 478,-0.5 434,-0.5"/>
<text text-anchor="middle" x="456" y="-7.5" font-family="Helvetica,sans-Serif" font-size="10.00">string</text>
</a>
</g>
</g>
<!-- Node8&#45;&gt;Node12 -->
<g id="edge11" class="edge">
<title>Node8&#45;&gt;Node12</title>
<path fill="none" stroke="midnightblue" d="M347.44,-56.44C368.67,-47.56 402.1,-33.56 426.25,-23.45"/>
<polygon fill="midnightblue" stroke="midnightblue" points="427.78,-26.61 435.66,-19.52 425.08,-20.15 427.78,-26.61"/>
</g>
<!-- Node13 -->
<g id="node13" class="node">
<title>Node13</title>
<g id="a_node13"><a xlink:title=" ">
<polygon fill="white" stroke="#bfbfbf" points="264,-0.5 264,-19.5 350,-19.5 350,-0.5 264,-0.5"/>
<text text-anchor="middle" x="307" y="-7.5" font-family="Helvetica,sans-Serif" font-size="10.00">unordered_set</text>
</a>
</g>
</g>
<!-- Node8&#45;&gt;Node13 -->
<g id="edge12" class="edge">
<title>Node8&#45;&gt;Node13</title>
<path fill="none" stroke="midnightblue" d="M323.7,-56.08C321.02,-48.85 317.15,-38.41 313.81,-29.4"/>
<polygon fill="midnightblue" stroke="midnightblue" points="317,-27.91 310.24,-19.75 310.43,-30.34 317,-27.91"/>
</g>
<!-- Node14 -->
<g id="node14" class="node">
<title>Node14</title>
<g id="a_node14"><a xlink:title=" ">
<polygon fill="white" stroke="#bfbfbf" points="368.5,-0.5 368.5,-19.5 415.5,-19.5 415.5,-0.5 368.5,-0.5"/>
<text text-anchor="middle" x="392" y="-7.5" font-family="Helvetica,sans-Serif" font-size="10.00">vector</text>
</a>
</g>
</g>
<!-- Node8&#45;&gt;Node14 -->
<g id="edge13" class="edge">
<title>Node8&#45;&gt;Node14</title>
<path fill="none" stroke="midnightblue" d="M337.44,-56.32C347.15,-48.26 361.82,-36.08 373.5,-26.37"/>
<polygon fill="midnightblue" stroke="midnightblue" points="375.91,-28.92 381.37,-19.83 371.44,-23.53 375.91,-28.92"/>
</g>
<!-- Node15&#45;&gt;Node12 -->
<g id="edge17" class="edge">
<title>Node15&#45;&gt;Node12</title>
<path fill="none" stroke="midnightblue" d="M456,-56.08C456,-49.01 456,-38.86 456,-29.99"/>
<polygon fill="midnightblue" stroke="midnightblue" points="459.5,-29.75 456,-19.75 452.5,-29.75 459.5,-29.75"/>
</g>
<!-- Node16 -->
<g id="node16" class="node">
<title>Node16</title>
<g id="a_node16"><a xlink:title=" ">
<polygon fill="white" stroke="#bfbfbf" points="496,-0.5 496,-19.5 552,-19.5 552,-0.5 496,-0.5"/>
<text text-anchor="middle" x="524" y="-7.5" font-family="Helvetica,sans-Serif" font-size="10.00">sstream</text>
</a>
</g>
</g>
<!-- Node15&#45;&gt;Node16 -->
<g id="edge15" class="edge">
<title>Node15&#45;&gt;Node16</title>
<path fill="none" stroke="midnightblue" d="M466.93,-56.32C477.17,-48.18 492.72,-35.84 505,-26.09"/>
<polygon fill="midnightblue" stroke="midnightblue" points="507.22,-28.79 512.88,-19.83 502.87,-23.31 507.22,-28.79"/>
</g>
<!-- Node17 -->
<g id="node17" class="node">
<title>Node17</title>
<g id="a_node17"><a xlink:title=" ">
<polygon fill="white" stroke="#bfbfbf" points="570.5,-0.5 570.5,-19.5 635.5,-19.5 635.5,-0.5 570.5,-0.5"/>
<text text-anchor="middle" x="603" y="-7.5" font-family="Helvetica,sans-Serif" font-size="10.00">stdexcept</text>
</a>
</g>
</g>
<!-- Node15&#45;&gt;Node17 -->
<g id="edge16" class="edge">
<title>Node15&#45;&gt;Node17</title>
<path fill="none" stroke="midnightblue" d="M479.29,-56.44C503.81,-47.44 542.6,-33.19 570.2,-23.05"/>
<polygon fill="midnightblue" stroke="midnightblue" points="571.64,-26.25 579.82,-19.52 569.22,-19.68 571.64,-26.25"/>
</g>
<!-- Node21 -->
<g id="node21" class="node">
<title>Node21</title>
<g id="a_node21"><a xlink:title=" ">
<polygon fill="white" stroke="#bfbfbf" points="431,-118 431,-137 483,-137 483,-118 431,-118"/>
<text text-anchor="middle" x="457" y="-125" font-family="Helvetica,sans-Serif" font-size="10.00">cassert</text>
</a>
</g>
</g>
<!-- Node20&#45;&gt;Node21 -->
<g id="edge22" class="edge">
<title>Node20&#45;&gt;Node21</title>
<path fill="none" stroke="midnightblue" d="M432.15,-179.48C436.38,-170.82 443.04,-157.15 448.4,-146.15"/>
<polygon fill="midnightblue" stroke="midnightblue" points="451.62,-147.53 452.85,-137.01 445.33,-144.46 451.62,-147.53"/>
</g>
</g>
</svg>
