<?xml version="1.0" encoding="UTF-8" standalone="no"?>
<!DOCTYPE svg PUBLIC "-//W3C//DTD SVG 1.1//EN"
 "http://www.w3.org/Graphics/SVG/1.1/DTD/svg11.dtd">
<!-- Generated by graphviz version 2.43.0 (0)
 -->
<!-- Title: src/backends/reference/workloads/RefLogSoftmaxWorkload.hpp Pages: 1 -->
<svg width="400pt" height="173pt"
 viewBox="0.00 0.00 400.00 173.00" xmlns="http://www.w3.org/2000/svg" xmlns:xlink="http://www.w3.org/1999/xlink">
<g id="graph0" class="graph" transform="scale(1 1) rotate(0) translate(4 169)">
<title>src/backends/reference/workloads/RefLogSoftmaxWorkload.hpp</title>
<polygon fill="white" stroke="transparent" points="-4,4 -4,-169 396,-169 396,4 -4,4"/>
<!-- Node1 -->
<g id="node1" class="node">
<title>Node1</title>
<g id="a_node1"><a xlink:title=" ">
<polygon fill="#bfbfbf" stroke="black" points="75.5,-134.5 75.5,-164.5 289.5,-164.5 289.5,-134.5 75.5,-134.5"/>
<text text-anchor="start" x="83.5" y="-152.5" font-family="Helvetica,sans-Serif" font-size="10.00">src/backends/reference</text>
<text text-anchor="middle" x="182.5" y="-141.5" font-family="Helvetica,sans-Serif" font-size="10.00">/workloads/RefLogSoftmaxWorkload.hpp</text>
</a>
</g>
</g>
<!-- Node2 -->
<g id="node2" class="node">
<title>Node2</title>
<g id="a_node2"><a xlink:href="_ref_workloads_8hpp.html" target="_top" xlink:title=" ">
<polygon fill="white" stroke="black" points="0,-67.5 0,-97.5 161,-97.5 161,-67.5 0,-67.5"/>
<text text-anchor="start" x="8" y="-85.5" font-family="Helvetica,sans-Serif" font-size="10.00">src/backends/reference</text>
<text text-anchor="middle" x="80.5" y="-74.5" font-family="Helvetica,sans-Serif" font-size="10.00">/workloads/RefWorkloads.hpp</text>
</a>
</g>
</g>
<!-- Node1&#45;&gt;Node2 -->
<g id="edge1" class="edge">
<title>Node1&#45;&gt;Node2</title>
<path fill="none" stroke="midnightblue" d="M151.92,-129.02C136.05,-118.9 117.02,-106.77 102.59,-97.58"/>
<polygon fill="midnightblue" stroke="midnightblue" points="150.05,-131.97 160.37,-134.4 153.82,-126.07 150.05,-131.97"/>
</g>
<!-- Node4 -->
<g id="node4" class="node">
<title>Node4</title>
<g id="a_node4"><a xlink:href="_ref_log_softmax_workload_8cpp.html" target="_top" xlink:title=" ">
<polygon fill="white" stroke="black" points="179,-67.5 179,-97.5 392,-97.5 392,-67.5 179,-67.5"/>
<text text-anchor="start" x="187" y="-85.5" font-family="Helvetica,sans-Serif" font-size="10.00">src/backends/reference</text>
<text text-anchor="middle" x="285.5" y="-74.5" font-family="Helvetica,sans-Serif" font-size="10.00">/workloads/RefLogSoftmaxWorkload.cpp</text>
</a>
</g>
</g>
<!-- Node1&#45;&gt;Node4 -->
<g id="edge3" class="edge">
<title>Node1&#45;&gt;Node4</title>
<path fill="none" stroke="midnightblue" d="M213.38,-129.02C229.4,-118.9 248.63,-106.77 263.19,-97.58"/>
<polygon fill="midnightblue" stroke="midnightblue" points="211.44,-126.1 204.85,-134.4 215.17,-132.02 211.44,-126.1"/>
</g>
<!-- Node3 -->
<g id="node3" class="node">
<title>Node3</title>
<g id="a_node3"><a xlink:href="_ref_workload_factory_8cpp.html" target="_top" xlink:title=" ">
<polygon fill="white" stroke="black" points="12.5,-0.5 12.5,-30.5 148.5,-30.5 148.5,-0.5 12.5,-0.5"/>
<text text-anchor="start" x="20.5" y="-18.5" font-family="Helvetica,sans-Serif" font-size="10.00">src/backends/reference</text>
<text text-anchor="middle" x="80.5" y="-7.5" font-family="Helvetica,sans-Serif" font-size="10.00">/RefWorkloadFactory.cpp</text>
</a>
</g>
</g>
<!-- Node2&#45;&gt;Node3 -->
<g id="edge2" class="edge">
<title>Node2&#45;&gt;Node3</title>
<path fill="none" stroke="midnightblue" d="M80.5,-57.11C80.5,-48.15 80.5,-38.32 80.5,-30.58"/>
<polygon fill="midnightblue" stroke="midnightblue" points="77,-57.4 80.5,-67.4 84,-57.4 77,-57.4"/>
</g>
</g>
</svg>
