<?xml version="1.0" encoding="UTF-8" standalone="no"?>
<!DOCTYPE svg PUBLIC "-//W3C//DTD SVG 1.1//EN"
 "http://www.w3.org/Graphics/SVG/1.1/DTD/svg11.dtd">
<!-- Generated by graphviz version 2.43.0 (0)
 -->
<!-- Title: src/armnn/SubgraphViewSelector.hpp Pages: 1 -->
<svg width="794pt" height="162pt"
 viewBox="0.00 0.00 793.50 162.00" xmlns="http://www.w3.org/2000/svg" xmlns:xlink="http://www.w3.org/1999/xlink">
<g id="graph0" class="graph" transform="scale(1 1) rotate(0) translate(4 158)">
<title>src/armnn/SubgraphViewSelector.hpp</title>
<polygon fill="white" stroke="transparent" points="-4,4 -4,-158 789.5,-158 789.5,4 -4,4"/>
<!-- Node1 -->
<g id="node1" class="node">
<title>Node1</title>
<g id="a_node1"><a xlink:title=" ">
<polygon fill="#bfbfbf" stroke="black" points="318,-134.5 318,-153.5 516,-153.5 516,-134.5 318,-134.5"/>
<text text-anchor="middle" x="417" y="-141.5" font-family="Helvetica,sans-Serif" font-size="10.00">src/armnn/SubgraphViewSelector.hpp</text>
</a>
</g>
</g>
<!-- Node2 -->
<g id="node2" class="node">
<title>Node2</title>
<g id="a_node2"><a xlink:href="_network_8cpp.html" target="_top" xlink:title=" ">
<polygon fill="white" stroke="black" points="0,-73 0,-92 130,-92 130,-73 0,-73"/>
<text text-anchor="middle" x="65" y="-80" font-family="Helvetica,sans-Serif" font-size="10.00">src/armnn/Network.cpp</text>
</a>
</g>
</g>
<!-- Node1&#45;&gt;Node2 -->
<g id="edge1" class="edge">
<title>Node1&#45;&gt;Node2</title>
<path fill="none" stroke="midnightblue" d="M350.79,-132.91C294.4,-124.17 211.27,-110.93 139,-98 128.69,-96.16 117.6,-94.05 107.22,-92.02"/>
<polygon fill="midnightblue" stroke="midnightblue" points="350.58,-136.42 361,-134.49 351.65,-129.5 350.58,-136.42"/>
</g>
<!-- Node3 -->
<g id="node3" class="node">
<title>Node3</title>
<g id="a_node3"><a xlink:href="_network_utils_8cpp.html" target="_top" xlink:title=" ">
<polygon fill="white" stroke="black" points="148,-73 148,-92 300,-92 300,-73 148,-73"/>
<text text-anchor="middle" x="224" y="-80" font-family="Helvetica,sans-Serif" font-size="10.00">src/armnn/NetworkUtils.cpp</text>
</a>
</g>
</g>
<!-- Node1&#45;&gt;Node3 -->
<g id="edge2" class="edge">
<title>Node1&#45;&gt;Node3</title>
<path fill="none" stroke="midnightblue" d="M379.79,-131.53C342.28,-119.96 285.26,-102.38 251.6,-92.01"/>
<polygon fill="midnightblue" stroke="midnightblue" points="378.76,-134.87 389.35,-134.48 380.82,-128.18 378.76,-134.87"/>
</g>
<!-- Node4 -->
<g id="node4" class="node">
<title>Node4</title>
<g id="a_node4"><a xlink:href="_subgraph_view_selector_8cpp.html" target="_top" xlink:title=" ">
<polygon fill="white" stroke="black" points="318.5,-73 318.5,-92 515.5,-92 515.5,-73 318.5,-73"/>
<text text-anchor="middle" x="417" y="-80" font-family="Helvetica,sans-Serif" font-size="10.00">src/armnn/SubgraphViewSelector.cpp</text>
</a>
</g>
</g>
<!-- Node1&#45;&gt;Node4 -->
<g id="edge3" class="edge">
<title>Node1&#45;&gt;Node4</title>
<path fill="none" stroke="midnightblue" d="M417,-124.32C417,-113.5 417,-100.4 417,-92.01"/>
<polygon fill="midnightblue" stroke="midnightblue" points="413.5,-124.48 417,-134.48 420.5,-124.48 413.5,-124.48"/>
</g>
<!-- Node5 -->
<g id="node5" class="node">
<title>Node5</title>
<g id="a_node5"><a xlink:href="_common_test_utils_8hpp.html" target="_top" xlink:title=" ">
<polygon fill="white" stroke="black" points="533.5,-67.5 533.5,-97.5 660.5,-97.5 660.5,-67.5 533.5,-67.5"/>
<text text-anchor="start" x="541.5" y="-85.5" font-family="Helvetica,sans-Serif" font-size="10.00">src/armnnTestUtils</text>
<text text-anchor="middle" x="597" y="-74.5" font-family="Helvetica,sans-Serif" font-size="10.00">/CommonTestUtils.hpp</text>
</a>
</g>
</g>
<!-- Node1&#45;&gt;Node5 -->
<g id="edge4" class="edge">
<title>Node1&#45;&gt;Node5</title>
<path fill="none" stroke="midnightblue" d="M452.61,-131.23C481.92,-121.54 523.54,-107.78 554.58,-97.52"/>
<polygon fill="midnightblue" stroke="midnightblue" points="451.19,-128.01 442.79,-134.48 453.38,-134.66 451.19,-128.01"/>
</g>
<!-- Node7 -->
<g id="node7" class="node">
<title>Node7</title>
<g id="a_node7"><a xlink:href="_mock_backend_8cpp.html" target="_top" xlink:title=" ">
<polygon fill="white" stroke="black" points="678.5,-67.5 678.5,-97.5 785.5,-97.5 785.5,-67.5 678.5,-67.5"/>
<text text-anchor="start" x="686.5" y="-85.5" font-family="Helvetica,sans-Serif" font-size="10.00">src/armnnTestUtils</text>
<text text-anchor="middle" x="732" y="-74.5" font-family="Helvetica,sans-Serif" font-size="10.00">/MockBackend.cpp</text>
</a>
</g>
</g>
<!-- Node1&#45;&gt;Node7 -->
<g id="edge6" class="edge">
<title>Node1&#45;&gt;Node7</title>
<path fill="none" stroke="midnightblue" d="M479.92,-132.77C531.22,-124.21 605.48,-111.27 670,-98 672.71,-97.44 675.48,-96.86 678.27,-96.25"/>
<polygon fill="midnightblue" stroke="midnightblue" points="479.27,-129.33 469.98,-134.43 480.41,-136.24 479.27,-129.33"/>
</g>
<!-- Node6 -->
<g id="node6" class="node">
<title>Node6</title>
<g id="a_node6"><a xlink:href="_common_test_utils_8cpp.html" target="_top" xlink:title=" ">
<polygon fill="white" stroke="black" points="534,-0.5 534,-30.5 660,-30.5 660,-0.5 534,-0.5"/>
<text text-anchor="start" x="542" y="-18.5" font-family="Helvetica,sans-Serif" font-size="10.00">src/armnnTestUtils</text>
<text text-anchor="middle" x="597" y="-7.5" font-family="Helvetica,sans-Serif" font-size="10.00">/CommonTestUtils.cpp</text>
</a>
</g>
</g>
<!-- Node5&#45;&gt;Node6 -->
<g id="edge5" class="edge">
<title>Node5&#45;&gt;Node6</title>
<path fill="none" stroke="midnightblue" d="M597,-57.11C597,-48.15 597,-38.32 597,-30.58"/>
<polygon fill="midnightblue" stroke="midnightblue" points="593.5,-57.4 597,-67.4 600.5,-57.4 593.5,-57.4"/>
</g>
</g>
</svg>
