<?xml version="1.0" encoding="UTF-8" standalone="no"?>
<!DOCTYPE svg PUBLIC "-//W3C//DTD SVG 1.1//EN"
 "http://www.w3.org/Graphics/SVG/1.1/DTD/svg11.dtd">
<!-- Generated by graphviz version 2.43.0 (0)
 -->
<!-- Title: shim/sl/canonical/SystemPropertiesUtils.hpp Pages: 1 -->
<svg width="430pt" height="95pt"
 viewBox="0.00 0.00 429.50 95.00" xmlns="http://www.w3.org/2000/svg" xmlns:xlink="http://www.w3.org/1999/xlink">
<g id="graph0" class="graph" transform="scale(1 1) rotate(0) translate(4 91)">
<title>shim/sl/canonical/SystemPropertiesUtils.hpp</title>
<polygon fill="white" stroke="transparent" points="-4,4 -4,-91 425.5,-91 425.5,4 -4,4"/>
<!-- Node1 -->
<g id="node1" class="node">
<title>Node1</title>
<g id="a_node1"><a xlink:title=" ">
<polygon fill="#bfbfbf" stroke="black" points="89.5,-56.5 89.5,-86.5 230.5,-86.5 230.5,-56.5 89.5,-56.5"/>
<text text-anchor="start" x="97.5" y="-74.5" font-family="Helvetica,sans-Serif" font-size="10.00">shim/sl/canonical/System</text>
<text text-anchor="middle" x="160" y="-63.5" font-family="Helvetica,sans-Serif" font-size="10.00">PropertiesUtils.hpp</text>
</a>
</g>
</g>
<!-- Node2 -->
<g id="node2" class="node">
<title>Node2</title>
<g id="a_node2"><a xlink:title=" ">
<polygon fill="white" stroke="#bfbfbf" points="0,-0.5 0,-19.5 50,-19.5 50,-0.5 0,-0.5"/>
<text text-anchor="middle" x="25" y="-7.5" font-family="Helvetica,sans-Serif" font-size="10.00">stdio.h</text>
</a>
</g>
</g>
<!-- Node1&#45;&gt;Node2 -->
<g id="edge1" class="edge">
<title>Node1&#45;&gt;Node2</title>
<path fill="none" stroke="midnightblue" d="M128.01,-56.4C105.56,-46.51 75.79,-33.38 54.02,-23.79"/>
<polygon fill="midnightblue" stroke="midnightblue" points="55.21,-20.49 44.64,-19.66 52.38,-26.89 55.21,-20.49"/>
</g>
<!-- Node3 -->
<g id="node3" class="node">
<title>Node3</title>
<g id="a_node3"><a xlink:title=" ">
<polygon fill="white" stroke="#bfbfbf" points="68,-0.5 68,-19.5 112,-19.5 112,-0.5 68,-0.5"/>
<text text-anchor="middle" x="90" y="-7.5" font-family="Helvetica,sans-Serif" font-size="10.00">string</text>
</a>
</g>
</g>
<!-- Node1&#45;&gt;Node3 -->
<g id="edge2" class="edge">
<title>Node1&#45;&gt;Node3</title>
<path fill="none" stroke="midnightblue" d="M143.41,-56.4C132.71,-47.31 118.81,-35.49 107.87,-26.19"/>
<polygon fill="midnightblue" stroke="midnightblue" points="110.07,-23.47 100.19,-19.66 105.54,-28.8 110.07,-23.47"/>
</g>
<!-- Node4 -->
<g id="node4" class="node">
<title>Node4</title>
<g id="a_node4"><a xlink:title=" ">
<polygon fill="white" stroke="#bfbfbf" points="130,-0.5 130,-19.5 190,-19.5 190,-0.5 130,-0.5"/>
<text text-anchor="middle" x="160" y="-7.5" font-family="Helvetica,sans-Serif" font-size="10.00">iostream</text>
</a>
</g>
</g>
<!-- Node1&#45;&gt;Node4 -->
<g id="edge3" class="edge">
<title>Node1&#45;&gt;Node4</title>
<path fill="none" stroke="midnightblue" d="M160,-56.4C160,-48.47 160,-38.46 160,-29.86"/>
<polygon fill="midnightblue" stroke="midnightblue" points="163.5,-29.66 160,-19.66 156.5,-29.66 163.5,-29.66"/>
</g>
<!-- Node5 -->
<g id="node5" class="node">
<title>Node5</title>
<g id="a_node5"><a xlink:title=" ">
<polygon fill="white" stroke="#bfbfbf" points="208,-0.5 208,-19.5 344,-19.5 344,-0.5 208,-0.5"/>
<text text-anchor="middle" x="276" y="-7.5" font-family="Helvetica,sans-Serif" font-size="10.00">sys/system_properties.h</text>
</a>
</g>
</g>
<!-- Node1&#45;&gt;Node5 -->
<g id="edge4" class="edge">
<title>Node1&#45;&gt;Node5</title>
<path fill="none" stroke="midnightblue" d="M187.49,-56.4C206.43,-46.68 231.44,-33.86 250.04,-24.31"/>
<polygon fill="midnightblue" stroke="midnightblue" points="251.82,-27.34 259.12,-19.66 248.63,-21.11 251.82,-27.34"/>
</g>
<!-- Node6 -->
<g id="node6" class="node">
<title>Node6</title>
<g id="a_node6"><a xlink:title=" ">
<polygon fill="white" stroke="#bfbfbf" points="362.5,-0.5 362.5,-19.5 421.5,-19.5 421.5,-0.5 362.5,-0.5"/>
<text text-anchor="middle" x="392" y="-7.5" font-family="Helvetica,sans-Serif" font-size="10.00">log/log.h</text>
</a>
</g>
</g>
<!-- Node1&#45;&gt;Node6 -->
<g id="edge5" class="edge">
<title>Node1&#45;&gt;Node6</title>
<path fill="none" stroke="midnightblue" d="M214.69,-56.47C256.93,-45.64 314.4,-30.9 352.32,-21.18"/>
<polygon fill="midnightblue" stroke="midnightblue" points="353.65,-24.45 362.46,-18.57 351.91,-17.67 353.65,-24.45"/>
</g>
</g>
</svg>
