<?xml version="1.0" encoding="UTF-8" standalone="no"?>
<!DOCTYPE svg PUBLIC "-//W3C//DTD SVG 1.1//EN"
 "http://www.w3.org/Graphics/SVG/1.1/DTD/svg11.dtd">
<!-- Generated by graphviz version 2.43.0 (0)
 -->
<!-- Title: src/backends/tosaCommon/operatorMappings/TosaOperatorUtils.hpp Pages: 1 -->
<svg width="3489pt" height="340pt"
 viewBox="0.00 0.00 3489.00 340.00" xmlns="http://www.w3.org/2000/svg" xmlns:xlink="http://www.w3.org/1999/xlink">
<g id="graph0" class="graph" transform="scale(1 1) rotate(0) translate(4 336)">
<title>src/backends/tosaCommon/operatorMappings/TosaOperatorUtils.hpp</title>
<polygon fill="white" stroke="transparent" points="-4,4 -4,-336 3485,-336 3485,4 -4,4"/>
<!-- Node1 -->
<g id="node1" class="node">
<title>Node1</title>
<g id="a_node1"><a xlink:title=" ">
<polygon fill="#bfbfbf" stroke="black" points="1715.5,-290.5 1715.5,-331.5 1891.5,-331.5 1891.5,-290.5 1715.5,-290.5"/>
<text text-anchor="start" x="1723.5" y="-319.5" font-family="Helvetica,sans-Serif" font-size="10.00">src/backends/tosaCommon</text>
<text text-anchor="start" x="1723.5" y="-308.5" font-family="Helvetica,sans-Serif" font-size="10.00">/operatorMappings/TosaOperator</text>
<text text-anchor="middle" x="1803.5" y="-297.5" font-family="Helvetica,sans-Serif" font-size="10.00">Utils.hpp</text>
</a>
</g>
</g>
<!-- Node2 -->
<g id="node2" class="node">
<title>Node2</title>
<g id="a_node2"><a xlink:href="_activation_operator_8hpp.html" target="_top" xlink:title=" ">
<polygon fill="white" stroke="black" points="209,-212.5 209,-253.5 370,-253.5 370,-212.5 209,-212.5"/>
<text text-anchor="start" x="217" y="-241.5" font-family="Helvetica,sans-Serif" font-size="10.00">src/backends/tosaCommon</text>
<text text-anchor="start" x="217" y="-230.5" font-family="Helvetica,sans-Serif" font-size="10.00">/operatorMappings/Activation</text>
<text text-anchor="middle" x="289.5" y="-219.5" font-family="Helvetica,sans-Serif" font-size="10.00">Operator.hpp</text>
</a>
</g>
</g>
<!-- Node1&#45;&gt;Node2 -->
<g id="edge1" class="edge">
<title>Node1&#45;&gt;Node2</title>
<path fill="none" stroke="midnightblue" d="M1705.2,-308.43C1426.81,-303.62 636.56,-287.34 379.5,-254 376.48,-253.61 373.42,-253.17 370.33,-252.68"/>
<polygon fill="midnightblue" stroke="midnightblue" points="1705.23,-311.93 1715.29,-308.6 1705.35,-304.93 1705.23,-311.93"/>
</g>
<!-- Node9 -->
<g id="node9" class="node">
<title>Node9</title>
<g id="a_node9"><a xlink:href="_pooling2_d_operator_8hpp.html" target="_top" xlink:title=" ">
<polygon fill="white" stroke="black" points="388.5,-218 388.5,-248 612.5,-248 612.5,-218 388.5,-218"/>
<text text-anchor="start" x="396.5" y="-236" font-family="Helvetica,sans-Serif" font-size="10.00">src/backends/tosaCommon</text>
<text text-anchor="middle" x="500.5" y="-225" font-family="Helvetica,sans-Serif" font-size="10.00">/operatorMappings/Pooling2DOperator.hpp</text>
</a>
</g>
</g>
<!-- Node1&#45;&gt;Node9 -->
<g id="edge8" class="edge">
<title>Node1&#45;&gt;Node9</title>
<path fill="none" stroke="midnightblue" d="M1705.34,-309.21C1502.38,-306.72 1022.05,-296.45 621.5,-254 607.1,-252.47 591.82,-250.35 577.13,-248.05"/>
<polygon fill="midnightblue" stroke="midnightblue" points="1705.34,-312.71 1715.38,-309.33 1705.42,-305.71 1705.34,-312.71"/>
</g>
<!-- Node12 -->
<g id="node12" class="node">
<title>Node12</title>
<g id="a_node12"><a xlink:href="_avg_pool2_d_ignore_value_operator_8hpp.html" target="_top" xlink:title=" ">
<polygon fill="white" stroke="black" points="1706.5,-212.5 1706.5,-253.5 1900.5,-253.5 1900.5,-212.5 1706.5,-212.5"/>
<text text-anchor="start" x="1714.5" y="-241.5" font-family="Helvetica,sans-Serif" font-size="10.00">src/backends/tosaCommon</text>
<text text-anchor="start" x="1714.5" y="-230.5" font-family="Helvetica,sans-Serif" font-size="10.00">/operatorMappings/AvgPool2DIgnore</text>
<text text-anchor="middle" x="1803.5" y="-219.5" font-family="Helvetica,sans-Serif" font-size="10.00">ValueOperator.hpp</text>
</a>
</g>
</g>
<!-- Node1&#45;&gt;Node12 -->
<g id="edge12" class="edge">
<title>Node1&#45;&gt;Node12</title>
<path fill="none" stroke="midnightblue" d="M1803.5,-280.3C1803.5,-271.3 1803.5,-261.65 1803.5,-253.51"/>
<polygon fill="midnightblue" stroke="midnightblue" points="1800,-280.43 1803.5,-290.43 1807,-280.43 1800,-280.43"/>
</g>
<!-- Node13 -->
<g id="node13" class="node">
<title>Node13</title>
<g id="a_node13"><a xlink:href="_concat_operator_8hpp.html" target="_top" xlink:title=" ">
<polygon fill="white" stroke="black" points="630.5,-218 630.5,-248 838.5,-248 838.5,-218 630.5,-218"/>
<text text-anchor="start" x="638.5" y="-236" font-family="Helvetica,sans-Serif" font-size="10.00">src/backends/tosaCommon</text>
<text text-anchor="middle" x="734.5" y="-225" font-family="Helvetica,sans-Serif" font-size="10.00">/operatorMappings/ConcatOperator.hpp</text>
</a>
</g>
</g>
<!-- Node1&#45;&gt;Node13 -->
<g id="edge14" class="edge">
<title>Node1&#45;&gt;Node13</title>
<path fill="none" stroke="midnightblue" d="M1705.08,-308.02C1531.39,-303.68 1159.36,-290.61 847.5,-254 834.14,-252.43 819.97,-250.3 806.35,-248.01"/>
<polygon fill="midnightblue" stroke="midnightblue" points="1705.14,-311.52 1715.22,-308.27 1705.31,-304.52 1705.14,-311.52"/>
</g>
<!-- Node15 -->
<g id="node15" class="node">
<title>Node15</title>
<g id="a_node15"><a xlink:href="_constant_operator_8hpp.html" target="_top" xlink:title=" ">
<polygon fill="white" stroke="black" points="856.5,-218 856.5,-248 1074.5,-248 1074.5,-218 856.5,-218"/>
<text text-anchor="start" x="864.5" y="-236" font-family="Helvetica,sans-Serif" font-size="10.00">src/backends/tosaCommon</text>
<text text-anchor="middle" x="965.5" y="-225" font-family="Helvetica,sans-Serif" font-size="10.00">/operatorMappings/ConstantOperator.hpp</text>
</a>
</g>
</g>
<!-- Node1&#45;&gt;Node15 -->
<g id="edge17" class="edge">
<title>Node1&#45;&gt;Node15</title>
<path fill="none" stroke="midnightblue" d="M1705.21,-305.17C1566.34,-297.71 1304.9,-281.32 1083.5,-254 1070.1,-252.35 1055.89,-250.24 1042.16,-248.02"/>
<polygon fill="midnightblue" stroke="midnightblue" points="1705.24,-308.68 1715.41,-305.72 1705.61,-301.69 1705.24,-308.68"/>
</g>
<!-- Node17 -->
<g id="node17" class="node">
<title>Node17</title>
<g id="a_node17"><a xlink:href="_conv2d_operator_8hpp.html" target="_top" xlink:title=" ">
<polygon fill="white" stroke="black" points="1093,-218 1093,-248 1304,-248 1304,-218 1093,-218"/>
<text text-anchor="start" x="1101" y="-236" font-family="Helvetica,sans-Serif" font-size="10.00">src/backends/tosaCommon</text>
<text text-anchor="middle" x="1198.5" y="-225" font-family="Helvetica,sans-Serif" font-size="10.00">/operatorMappings/Conv2dOperator.hpp</text>
</a>
</g>
</g>
<!-- Node1&#45;&gt;Node17 -->
<g id="edge20" class="edge">
<title>Node1&#45;&gt;Node17</title>
<path fill="none" stroke="midnightblue" d="M1705.23,-300.47C1606.14,-290.47 1448.9,-273.49 1313.5,-254 1301.16,-252.22 1288.12,-250.15 1275.42,-248.02"/>
<polygon fill="midnightblue" stroke="midnightblue" points="1704.93,-303.96 1715.23,-301.48 1705.63,-297 1704.93,-303.96"/>
</g>
<!-- Node19 -->
<g id="node19" class="node">
<title>Node19</title>
<g id="a_node19"><a xlink:href="_elementwise_binary_operator_8hpp.html" target="_top" xlink:title=" ">
<polygon fill="white" stroke="black" points="1322.5,-212.5 1322.5,-253.5 1496.5,-253.5 1496.5,-212.5 1322.5,-212.5"/>
<text text-anchor="start" x="1330.5" y="-241.5" font-family="Helvetica,sans-Serif" font-size="10.00">src/backends/tosaCommon</text>
<text text-anchor="start" x="1330.5" y="-230.5" font-family="Helvetica,sans-Serif" font-size="10.00">/operatorMappings/Elementwise</text>
<text text-anchor="middle" x="1409.5" y="-219.5" font-family="Helvetica,sans-Serif" font-size="10.00">BinaryOperator.hpp</text>
</a>
</g>
</g>
<!-- Node1&#45;&gt;Node19 -->
<g id="edge23" class="edge">
<title>Node1&#45;&gt;Node19</title>
<path fill="none" stroke="midnightblue" d="M1705.48,-292.08C1647.3,-281.32 1572.13,-267.2 1505.5,-254 1502.58,-253.42 1499.61,-252.83 1496.61,-252.22"/>
<polygon fill="midnightblue" stroke="midnightblue" points="1704.93,-295.54 1715.4,-293.91 1706.2,-288.65 1704.93,-295.54"/>
</g>
<!-- Node21 -->
<g id="node21" class="node">
<title>Node21</title>
<g id="a_node21"><a xlink:href="_elementwise_unary_operator_8hpp.html" target="_top" xlink:title=" ">
<polygon fill="white" stroke="black" points="1514.5,-212.5 1514.5,-253.5 1688.5,-253.5 1688.5,-212.5 1514.5,-212.5"/>
<text text-anchor="start" x="1522.5" y="-241.5" font-family="Helvetica,sans-Serif" font-size="10.00">src/backends/tosaCommon</text>
<text text-anchor="start" x="1522.5" y="-230.5" font-family="Helvetica,sans-Serif" font-size="10.00">/operatorMappings/Elementwise</text>
<text text-anchor="middle" x="1601.5" y="-219.5" font-family="Helvetica,sans-Serif" font-size="10.00">UnaryOperator.hpp</text>
</a>
</g>
</g>
<!-- Node1&#45;&gt;Node21 -->
<g id="edge26" class="edge">
<title>Node1&#45;&gt;Node21</title>
<path fill="none" stroke="midnightblue" d="M1742.07,-286.89C1713.71,-276.22 1680.41,-263.69 1653.34,-253.51"/>
<polygon fill="midnightblue" stroke="midnightblue" points="1740.89,-290.18 1751.48,-290.43 1743.35,-283.63 1740.89,-290.18"/>
</g>
<!-- Node23 -->
<g id="node23" class="node">
<title>Node23</title>
<g id="a_node23"><a xlink:href="_quantize_operator_8hpp.html" target="_top" xlink:title=" ">
<polygon fill="white" stroke="black" points="1918.5,-218 1918.5,-248 2136.5,-248 2136.5,-218 1918.5,-218"/>
<text text-anchor="start" x="1926.5" y="-236" font-family="Helvetica,sans-Serif" font-size="10.00">src/backends/tosaCommon</text>
<text text-anchor="middle" x="2027.5" y="-225" font-family="Helvetica,sans-Serif" font-size="10.00">/operatorMappings/QuantizeOperator.hpp</text>
</a>
</g>
</g>
<!-- Node1&#45;&gt;Node23 -->
<g id="edge29" class="edge">
<title>Node1&#45;&gt;Node23</title>
<path fill="none" stroke="midnightblue" d="M1871.01,-287.1C1908.4,-274.41 1953.7,-259.04 1985.92,-248.11"/>
<polygon fill="midnightblue" stroke="midnightblue" points="1869.53,-283.9 1861.19,-290.43 1871.78,-290.53 1869.53,-283.9"/>
</g>
<!-- Node25 -->
<g id="node25" class="node">
<title>Node25</title>
<g id="a_node25"><a xlink:href="_reshape_operator_8hpp.html" target="_top" xlink:title=" ">
<polygon fill="white" stroke="black" points="2154.5,-218 2154.5,-248 2370.5,-248 2370.5,-218 2154.5,-218"/>
<text text-anchor="start" x="2162.5" y="-236" font-family="Helvetica,sans-Serif" font-size="10.00">src/backends/tosaCommon</text>
<text text-anchor="middle" x="2262.5" y="-225" font-family="Helvetica,sans-Serif" font-size="10.00">/operatorMappings/ReshapeOperator.hpp</text>
</a>
</g>
</g>
<!-- Node1&#45;&gt;Node25 -->
<g id="edge32" class="edge">
<title>Node1&#45;&gt;Node25</title>
<path fill="none" stroke="midnightblue" d="M1901.65,-294.12C1970.03,-283 2063.35,-267.75 2145.5,-254 2156.98,-252.08 2169.1,-250.03 2181,-248.01"/>
<polygon fill="midnightblue" stroke="midnightblue" points="1901.06,-290.67 1891.75,-295.72 1902.18,-297.58 1901.06,-290.67"/>
</g>
<!-- Node27 -->
<g id="node27" class="node">
<title>Node27</title>
<g id="a_node27"><a xlink:href="_resize_operator_8hpp.html" target="_top" xlink:title=" ">
<polygon fill="white" stroke="black" points="2388.5,-218 2388.5,-248 2594.5,-248 2594.5,-218 2388.5,-218"/>
<text text-anchor="start" x="2396.5" y="-236" font-family="Helvetica,sans-Serif" font-size="10.00">src/backends/tosaCommon</text>
<text text-anchor="middle" x="2491.5" y="-225" font-family="Helvetica,sans-Serif" font-size="10.00">/operatorMappings/ResizeOperator.hpp</text>
</a>
</g>
</g>
<!-- Node1&#45;&gt;Node27 -->
<g id="edge35" class="edge">
<title>Node1&#45;&gt;Node27</title>
<path fill="none" stroke="midnightblue" d="M1901.76,-302.85C2016.64,-293.93 2212.35,-277.01 2379.5,-254 2391.93,-252.29 2405.08,-250.2 2417.83,-248.02"/>
<polygon fill="midnightblue" stroke="midnightblue" points="1901.28,-299.37 1891.58,-303.63 1901.82,-306.35 1901.28,-299.37"/>
</g>
<!-- Node29 -->
<g id="node29" class="node">
<title>Node29</title>
<g id="a_node29"><a xlink:href="_slice_operator_8hpp.html" target="_top" xlink:title=" ">
<polygon fill="white" stroke="black" points="2613,-218 2613,-248 2810,-248 2810,-218 2613,-218"/>
<text text-anchor="start" x="2621" y="-236" font-family="Helvetica,sans-Serif" font-size="10.00">src/backends/tosaCommon</text>
<text text-anchor="middle" x="2711.5" y="-225" font-family="Helvetica,sans-Serif" font-size="10.00">/operatorMappings/SliceOperator.hpp</text>
</a>
</g>
</g>
<!-- Node1&#45;&gt;Node29 -->
<g id="edge38" class="edge">
<title>Node1&#45;&gt;Node29</title>
<path fill="none" stroke="midnightblue" d="M1901.91,-306.7C2053.21,-300.82 2351.87,-286 2603.5,-254 2616.08,-252.4 2629.41,-250.28 2642.26,-248.02"/>
<polygon fill="midnightblue" stroke="midnightblue" points="1901.57,-303.21 1891.72,-307.09 1901.84,-310.2 1901.57,-303.21"/>
</g>
<!-- Node31 -->
<g id="node31" class="node">
<title>Node31</title>
<g id="a_node31"><a xlink:href="_split_operator_8hpp.html" target="_top" xlink:title=" ">
<polygon fill="white" stroke="black" points="2828.5,-218 2828.5,-248 3024.5,-248 3024.5,-218 2828.5,-218"/>
<text text-anchor="start" x="2836.5" y="-236" font-family="Helvetica,sans-Serif" font-size="10.00">src/backends/tosaCommon</text>
<text text-anchor="middle" x="2926.5" y="-225" font-family="Helvetica,sans-Serif" font-size="10.00">/operatorMappings/SplitOperator.hpp</text>
</a>
</g>
</g>
<!-- Node1&#45;&gt;Node31 -->
<g id="edge41" class="edge">
<title>Node1&#45;&gt;Node31</title>
<path fill="none" stroke="midnightblue" d="M1901.91,-308.81C2083.77,-305.67 2484.49,-294.37 2819.5,-254 2832.26,-252.46 2845.79,-250.33 2858.78,-248.03"/>
<polygon fill="midnightblue" stroke="midnightblue" points="1901.77,-305.31 1891.83,-308.98 1901.89,-312.31 1901.77,-305.31"/>
</g>
<!-- Node33 -->
<g id="node33" class="node">
<title>Node33</title>
<g id="a_node33"><a xlink:href="_transpose_conv2d_operator_8hpp.html" target="_top" xlink:title=" ">
<polygon fill="white" stroke="black" points="3043,-212.5 3043,-253.5 3240,-253.5 3240,-212.5 3043,-212.5"/>
<text text-anchor="start" x="3051" y="-241.5" font-family="Helvetica,sans-Serif" font-size="10.00">src/backends/tosaCommon</text>
<text text-anchor="start" x="3051" y="-230.5" font-family="Helvetica,sans-Serif" font-size="10.00">/operatorMappings/TransposeConv2d</text>
<text text-anchor="middle" x="3141.5" y="-219.5" font-family="Helvetica,sans-Serif" font-size="10.00">Operator.hpp</text>
</a>
</g>
</g>
<!-- Node1&#45;&gt;Node33 -->
<g id="edge44" class="edge">
<title>Node1&#45;&gt;Node33</title>
<path fill="none" stroke="midnightblue" d="M1901.86,-310.1C2110.91,-309.32 2614.56,-302.1 3033.5,-254 3036.63,-253.64 3039.8,-253.25 3043,-252.82"/>
<polygon fill="midnightblue" stroke="midnightblue" points="1901.82,-306.6 1891.83,-310.14 1901.84,-313.6 1901.82,-306.6"/>
</g>
<!-- Node35 -->
<g id="node35" class="node">
<title>Node35</title>
<g id="a_node35"><a xlink:href="_transpose_operator_8hpp.html" target="_top" xlink:title=" ">
<polygon fill="white" stroke="black" points="3258,-218 3258,-248 3481,-248 3481,-218 3258,-218"/>
<text text-anchor="start" x="3266" y="-236" font-family="Helvetica,sans-Serif" font-size="10.00">src/backends/tosaCommon</text>
<text text-anchor="middle" x="3369.5" y="-225" font-family="Helvetica,sans-Serif" font-size="10.00">/operatorMappings/TransposeOperator.hpp</text>
</a>
</g>
</g>
<!-- Node1&#45;&gt;Node35 -->
<g id="edge47" class="edge">
<title>Node1&#45;&gt;Node35</title>
<path fill="none" stroke="midnightblue" d="M1902,-310.47C2136.23,-310.65 2744.66,-305.64 3249.5,-254 3264.1,-252.51 3279.62,-250.35 3294.48,-248"/>
<polygon fill="midnightblue" stroke="midnightblue" points="1901.8,-306.97 1891.8,-310.46 1901.79,-313.97 1901.8,-306.97"/>
</g>
<!-- Node3 -->
<g id="node3" class="node">
<title>Node3</title>
<g id="a_node3"><a xlink:href="_activation_operator_8cpp.html" target="_top" xlink:title=" ">
<polygon fill="white" stroke="black" points="0,-134.5 0,-175.5 161,-175.5 161,-134.5 0,-134.5"/>
<text text-anchor="start" x="8" y="-163.5" font-family="Helvetica,sans-Serif" font-size="10.00">src/backends/tosaCommon</text>
<text text-anchor="start" x="8" y="-152.5" font-family="Helvetica,sans-Serif" font-size="10.00">/operatorMappings/Activation</text>
<text text-anchor="middle" x="80.5" y="-141.5" font-family="Helvetica,sans-Serif" font-size="10.00">Operator.cpp</text>
</a>
</g>
</g>
<!-- Node2&#45;&gt;Node3 -->
<g id="edge2" class="edge">
<title>Node2&#45;&gt;Node3</title>
<path fill="none" stroke="midnightblue" d="M225.94,-208.89C196.6,-198.22 162.15,-185.69 134.14,-175.51"/>
<polygon fill="midnightblue" stroke="midnightblue" points="225.08,-212.3 235.68,-212.43 227.48,-205.72 225.08,-212.3"/>
</g>
<!-- Node4 -->
<g id="node4" class="node">
<title>Node4</title>
<g id="a_node4"><a xlink:href="_tosa_common_operators_8hpp.html" target="_top" xlink:title=" ">
<polygon fill="white" stroke="black" points="1715,-134.5 1715,-175.5 1892,-175.5 1892,-134.5 1715,-134.5"/>
<text text-anchor="start" x="1723" y="-163.5" font-family="Helvetica,sans-Serif" font-size="10.00">src/backends/tosaCommon</text>
<text text-anchor="start" x="1723" y="-152.5" font-family="Helvetica,sans-Serif" font-size="10.00">/operatorMappings/TosaCommon</text>
<text text-anchor="middle" x="1803.5" y="-141.5" font-family="Helvetica,sans-Serif" font-size="10.00">Operators.hpp</text>
</a>
</g>
</g>
<!-- Node2&#45;&gt;Node4 -->
<g id="edge3" class="edge">
<title>Node2&#45;&gt;Node4</title>
<path fill="none" stroke="midnightblue" d="M380.67,-212C962.89,-141.26 1118.26,-238.16 1697.5,-176 1703.18,-175.39 1709.01,-174.64 1714.88,-173.8"/>
<polygon fill="midnightblue" stroke="midnightblue" points="379.83,-208.58 370.33,-213.27 380.68,-215.53 379.83,-208.58"/>
</g>
<!-- Node5 -->
<g id="node5" class="node">
<title>Node5</title>
<g id="a_node5"><a xlink:href="_tosa_mappings_8hpp.html" target="_top" xlink:title=" ">
<polygon fill="white" stroke="black" points="1729.5,-67.5 1729.5,-97.5 1877.5,-97.5 1877.5,-67.5 1729.5,-67.5"/>
<text text-anchor="start" x="1737.5" y="-85.5" font-family="Helvetica,sans-Serif" font-size="10.00">src/backends/tosaCommon</text>
<text text-anchor="middle" x="1803.5" y="-74.5" font-family="Helvetica,sans-Serif" font-size="10.00">/TosaMappings.hpp</text>
</a>
</g>
</g>
<!-- Node4&#45;&gt;Node5 -->
<g id="edge4" class="edge">
<title>Node4&#45;&gt;Node5</title>
<path fill="none" stroke="midnightblue" d="M1803.5,-124.08C1803.5,-115.01 1803.5,-105.45 1803.5,-97.89"/>
<polygon fill="midnightblue" stroke="midnightblue" points="1800,-124.36 1803.5,-134.36 1807,-124.36 1800,-124.36"/>
</g>
<!-- Node6 -->
<g id="node6" class="node">
<title>Node6</title>
<g id="a_node6"><a xlink:href="_tosa_mappings_8cpp.html" target="_top" xlink:title=" ">
<polygon fill="white" stroke="black" points="1560.5,-0.5 1560.5,-30.5 1708.5,-30.5 1708.5,-0.5 1560.5,-0.5"/>
<text text-anchor="start" x="1568.5" y="-18.5" font-family="Helvetica,sans-Serif" font-size="10.00">src/backends/tosaCommon</text>
<text text-anchor="middle" x="1634.5" y="-7.5" font-family="Helvetica,sans-Serif" font-size="10.00">/TosaMappings.cpp</text>
</a>
</g>
</g>
<!-- Node5&#45;&gt;Node6 -->
<g id="edge5" class="edge">
<title>Node5&#45;&gt;Node6</title>
<path fill="none" stroke="midnightblue" d="M1757.17,-63.68C1730.07,-53.26 1696.33,-40.28 1671.1,-30.58"/>
<polygon fill="midnightblue" stroke="midnightblue" points="1756.24,-67.07 1766.83,-67.4 1758.75,-60.54 1756.24,-67.07"/>
</g>
<!-- Node7 -->
<g id="node7" class="node">
<title>Node7</title>
<g id="a_node7"><a xlink:href="_tosa_ref_backend_8cpp.html" target="_top" xlink:title=" ">
<polygon fill="white" stroke="black" points="1727,-0.5 1727,-30.5 1880,-30.5 1880,-0.5 1727,-0.5"/>
<text text-anchor="start" x="1735" y="-18.5" font-family="Helvetica,sans-Serif" font-size="10.00">src/backends/tosaReference</text>
<text text-anchor="middle" x="1803.5" y="-7.5" font-family="Helvetica,sans-Serif" font-size="10.00">/TosaRefBackend.cpp</text>
</a>
</g>
</g>
<!-- Node5&#45;&gt;Node7 -->
<g id="edge6" class="edge">
<title>Node5&#45;&gt;Node7</title>
<path fill="none" stroke="midnightblue" d="M1803.5,-57.11C1803.5,-48.15 1803.5,-38.32 1803.5,-30.58"/>
<polygon fill="midnightblue" stroke="midnightblue" points="1800,-57.4 1803.5,-67.4 1807,-57.4 1800,-57.4"/>
</g>
<!-- Node8 -->
<g id="node8" class="node">
<title>Node8</title>
<g id="a_node8"><a xlink:href="_tosa_ref_layer_support_8cpp.html" target="_top" xlink:title=" ">
<polygon fill="white" stroke="black" points="1898,-0.5 1898,-30.5 2051,-30.5 2051,-0.5 1898,-0.5"/>
<text text-anchor="start" x="1906" y="-18.5" font-family="Helvetica,sans-Serif" font-size="10.00">src/backends/tosaReference</text>
<text text-anchor="middle" x="1974.5" y="-7.5" font-family="Helvetica,sans-Serif" font-size="10.00">/TosaRefLayerSupport.cpp</text>
</a>
</g>
</g>
<!-- Node5&#45;&gt;Node8 -->
<g id="edge7" class="edge">
<title>Node5&#45;&gt;Node8</title>
<path fill="none" stroke="midnightblue" d="M1850.02,-63.82C1877.5,-53.37 1911.83,-40.32 1937.47,-30.58"/>
<polygon fill="midnightblue" stroke="midnightblue" points="1848.71,-60.57 1840.6,-67.4 1851.2,-67.11 1848.71,-60.57"/>
</g>
<!-- Node9&#45;&gt;Node4 -->
<g id="edge11" class="edge">
<title>Node9&#45;&gt;Node4</title>
<path fill="none" stroke="midnightblue" d="M585.8,-216.48C597.75,-214.72 609.91,-213.15 621.5,-212 1097.66,-164.88 1221.9,-228.51 1697.5,-176 1703.18,-175.37 1709.01,-174.61 1714.87,-173.76"/>
<polygon fill="midnightblue" stroke="midnightblue" points="585.18,-213.03 575.82,-217.99 586.23,-219.95 585.18,-213.03"/>
</g>
<!-- Node10 -->
<g id="node10" class="node">
<title>Node10</title>
<g id="a_node10"><a xlink:href="_avg_pool2_d_ignore_value_operator_8cpp.html" target="_top" xlink:title=" ">
<polygon fill="white" stroke="black" points="179.5,-134.5 179.5,-175.5 373.5,-175.5 373.5,-134.5 179.5,-134.5"/>
<text text-anchor="start" x="187.5" y="-163.5" font-family="Helvetica,sans-Serif" font-size="10.00">src/backends/tosaCommon</text>
<text text-anchor="start" x="187.5" y="-152.5" font-family="Helvetica,sans-Serif" font-size="10.00">/operatorMappings/AvgPool2DIgnore</text>
<text text-anchor="middle" x="276.5" y="-141.5" font-family="Helvetica,sans-Serif" font-size="10.00">ValueOperator.cpp</text>
</a>
</g>
</g>
<!-- Node9&#45;&gt;Node10 -->
<g id="edge9" class="edge">
<title>Node9&#45;&gt;Node10</title>
<path fill="none" stroke="midnightblue" d="M449.32,-214.64C414.97,-202.98 369.67,-187.61 334.06,-175.53"/>
<polygon fill="midnightblue" stroke="midnightblue" points="448.56,-218.07 459.15,-217.97 450.81,-211.44 448.56,-218.07"/>
</g>
<!-- Node11 -->
<g id="node11" class="node">
<title>Node11</title>
<g id="a_node11"><a xlink:href="_pooling2_d_operator_8cpp.html" target="_top" xlink:title=" ">
<polygon fill="white" stroke="black" points="391,-140 391,-170 614,-170 614,-140 391,-140"/>
<text text-anchor="start" x="399" y="-158" font-family="Helvetica,sans-Serif" font-size="10.00">src/backends/tosaCommon</text>
<text text-anchor="middle" x="502.5" y="-147" font-family="Helvetica,sans-Serif" font-size="10.00">/operatorMappings/Pooling2DOperator.cpp</text>
</a>
</g>
</g>
<!-- Node9&#45;&gt;Node11 -->
<g id="edge10" class="edge">
<title>Node9&#45;&gt;Node11</title>
<path fill="none" stroke="midnightblue" d="M501.14,-207.59C501.47,-195.26 501.85,-180.72 502.13,-170.23"/>
<polygon fill="midnightblue" stroke="midnightblue" points="497.64,-207.62 500.88,-217.7 504.64,-207.8 497.64,-207.62"/>
</g>
<!-- Node12&#45;&gt;Node4 -->
<g id="edge13" class="edge">
<title>Node12&#45;&gt;Node4</title>
<path fill="none" stroke="midnightblue" d="M1803.5,-202.3C1803.5,-193.3 1803.5,-183.65 1803.5,-175.51"/>
<polygon fill="midnightblue" stroke="midnightblue" points="1800,-202.43 1803.5,-212.43 1807,-202.43 1800,-202.43"/>
</g>
<!-- Node13&#45;&gt;Node4 -->
<g id="edge16" class="edge">
<title>Node13&#45;&gt;Node4</title>
<path fill="none" stroke="midnightblue" d="M815.61,-216.31C826.3,-214.63 837.14,-213.13 847.5,-212 1223.38,-170.96 1321.86,-219.16 1697.5,-176 1703.17,-175.35 1709,-174.57 1714.86,-173.7"/>
<polygon fill="midnightblue" stroke="midnightblue" points="814.73,-212.91 805.42,-217.96 815.85,-219.82 814.73,-212.91"/>
</g>
<!-- Node14 -->
<g id="node14" class="node">
<title>Node14</title>
<g id="a_node14"><a xlink:href="_concat_operator_8cpp.html" target="_top" xlink:title=" ">
<polygon fill="white" stroke="black" points="632,-140 632,-170 839,-170 839,-140 632,-140"/>
<text text-anchor="start" x="640" y="-158" font-family="Helvetica,sans-Serif" font-size="10.00">src/backends/tosaCommon</text>
<text text-anchor="middle" x="735.5" y="-147" font-family="Helvetica,sans-Serif" font-size="10.00">/operatorMappings/ConcatOperator.cpp</text>
</a>
</g>
</g>
<!-- Node13&#45;&gt;Node14 -->
<g id="edge15" class="edge">
<title>Node13&#45;&gt;Node14</title>
<path fill="none" stroke="midnightblue" d="M734.82,-207.59C734.98,-195.26 735.17,-180.72 735.31,-170.23"/>
<polygon fill="midnightblue" stroke="midnightblue" points="731.32,-207.66 734.69,-217.7 738.32,-207.75 731.32,-207.66"/>
</g>
<!-- Node15&#45;&gt;Node4 -->
<g id="edge19" class="edge">
<title>Node15&#45;&gt;Node4</title>
<path fill="none" stroke="midnightblue" d="M1050.87,-216.4C1061.83,-214.73 1072.91,-213.2 1083.5,-212 1355.11,-181.11 1426.19,-209.41 1697.5,-176 1703.17,-175.3 1708.99,-174.49 1714.85,-173.59"/>
<polygon fill="midnightblue" stroke="midnightblue" points="1050.2,-212.96 1040.86,-217.96 1051.29,-219.87 1050.2,-212.96"/>
</g>
<!-- Node16 -->
<g id="node16" class="node">
<title>Node16</title>
<g id="a_node16"><a xlink:href="_constant_operator_8cpp.html" target="_top" xlink:title=" ">
<polygon fill="white" stroke="black" points="857,-140 857,-170 1074,-170 1074,-140 857,-140"/>
<text text-anchor="start" x="865" y="-158" font-family="Helvetica,sans-Serif" font-size="10.00">src/backends/tosaCommon</text>
<text text-anchor="middle" x="965.5" y="-147" font-family="Helvetica,sans-Serif" font-size="10.00">/operatorMappings/ConstantOperator.cpp</text>
</a>
</g>
</g>
<!-- Node15&#45;&gt;Node16 -->
<g id="edge18" class="edge">
<title>Node15&#45;&gt;Node16</title>
<path fill="none" stroke="midnightblue" d="M965.5,-207.59C965.5,-195.26 965.5,-180.72 965.5,-170.23"/>
<polygon fill="midnightblue" stroke="midnightblue" points="962,-207.7 965.5,-217.7 969,-207.71 962,-207.7"/>
</g>
<!-- Node17&#45;&gt;Node4 -->
<g id="edge22" class="edge">
<title>Node17&#45;&gt;Node4</title>
<path fill="none" stroke="midnightblue" d="M1284.03,-216.36C1293.95,-214.77 1303.93,-213.28 1313.5,-212 1483.4,-189.3 1527.76,-199.92 1697.5,-176 1703.16,-175.2 1708.97,-174.31 1714.82,-173.36"/>
<polygon fill="midnightblue" stroke="midnightblue" points="1283.45,-212.91 1274.15,-217.97 1284.58,-219.82 1283.45,-212.91"/>
</g>
<!-- Node18 -->
<g id="node18" class="node">
<title>Node18</title>
<g id="a_node18"><a xlink:href="_conv2d_operator_8cpp.html" target="_top" xlink:title=" ">
<polygon fill="white" stroke="black" points="1093.5,-140 1093.5,-170 1303.5,-170 1303.5,-140 1093.5,-140"/>
<text text-anchor="start" x="1101.5" y="-158" font-family="Helvetica,sans-Serif" font-size="10.00">src/backends/tosaCommon</text>
<text text-anchor="middle" x="1198.5" y="-147" font-family="Helvetica,sans-Serif" font-size="10.00">/operatorMappings/Conv2dOperator.cpp</text>
</a>
</g>
</g>
<!-- Node17&#45;&gt;Node18 -->
<g id="edge21" class="edge">
<title>Node17&#45;&gt;Node18</title>
<path fill="none" stroke="midnightblue" d="M1198.5,-207.59C1198.5,-195.26 1198.5,-180.72 1198.5,-170.23"/>
<polygon fill="midnightblue" stroke="midnightblue" points="1195,-207.7 1198.5,-217.7 1202,-207.71 1195,-207.7"/>
</g>
<!-- Node19&#45;&gt;Node4 -->
<g id="edge25" class="edge">
<title>Node19&#45;&gt;Node4</title>
<path fill="none" stroke="midnightblue" d="M1506.52,-211.81C1592.31,-194.9 1615.26,-191.47 1697.5,-176 1703.11,-174.94 1708.89,-173.86 1714.72,-172.76"/>
<polygon fill="midnightblue" stroke="midnightblue" points="1505.74,-208.4 1496.61,-213.77 1507.09,-215.27 1505.74,-208.4"/>
</g>
<!-- Node20 -->
<g id="node20" class="node">
<title>Node20</title>
<g id="a_node20"><a xlink:href="_elementwise_binary_operator_8cpp.html" target="_top" xlink:title=" ">
<polygon fill="white" stroke="black" points="1322.5,-134.5 1322.5,-175.5 1496.5,-175.5 1496.5,-134.5 1322.5,-134.5"/>
<text text-anchor="start" x="1330.5" y="-163.5" font-family="Helvetica,sans-Serif" font-size="10.00">src/backends/tosaCommon</text>
<text text-anchor="start" x="1330.5" y="-152.5" font-family="Helvetica,sans-Serif" font-size="10.00">/operatorMappings/Elementwise</text>
<text text-anchor="middle" x="1409.5" y="-141.5" font-family="Helvetica,sans-Serif" font-size="10.00">BinaryOperator.cpp</text>
</a>
</g>
</g>
<!-- Node19&#45;&gt;Node20 -->
<g id="edge24" class="edge">
<title>Node19&#45;&gt;Node20</title>
<path fill="none" stroke="midnightblue" d="M1409.5,-202.3C1409.5,-193.3 1409.5,-183.65 1409.5,-175.51"/>
<polygon fill="midnightblue" stroke="midnightblue" points="1406,-202.43 1409.5,-212.43 1413,-202.43 1406,-202.43"/>
</g>
<!-- Node21&#45;&gt;Node4 -->
<g id="edge28" class="edge">
<title>Node21&#45;&gt;Node4</title>
<path fill="none" stroke="midnightblue" d="M1662.93,-208.89C1691.29,-198.22 1724.59,-185.69 1751.66,-175.51"/>
<polygon fill="midnightblue" stroke="midnightblue" points="1661.65,-205.63 1653.52,-212.43 1664.11,-212.18 1661.65,-205.63"/>
</g>
<!-- Node22 -->
<g id="node22" class="node">
<title>Node22</title>
<g id="a_node22"><a xlink:href="_elementwise_unary_operator_8cpp.html" target="_top" xlink:title=" ">
<polygon fill="white" stroke="black" points="1514.5,-134.5 1514.5,-175.5 1688.5,-175.5 1688.5,-134.5 1514.5,-134.5"/>
<text text-anchor="start" x="1522.5" y="-163.5" font-family="Helvetica,sans-Serif" font-size="10.00">src/backends/tosaCommon</text>
<text text-anchor="start" x="1522.5" y="-152.5" font-family="Helvetica,sans-Serif" font-size="10.00">/operatorMappings/Elementwise</text>
<text text-anchor="middle" x="1601.5" y="-141.5" font-family="Helvetica,sans-Serif" font-size="10.00">UnaryOperator.cpp</text>
</a>
</g>
</g>
<!-- Node21&#45;&gt;Node22 -->
<g id="edge27" class="edge">
<title>Node21&#45;&gt;Node22</title>
<path fill="none" stroke="midnightblue" d="M1601.5,-202.3C1601.5,-193.3 1601.5,-183.65 1601.5,-175.51"/>
<polygon fill="midnightblue" stroke="midnightblue" points="1598,-202.43 1601.5,-212.43 1605,-202.43 1598,-202.43"/>
</g>
<!-- Node23&#45;&gt;Node4 -->
<g id="edge31" class="edge">
<title>Node23&#45;&gt;Node4</title>
<path fill="none" stroke="midnightblue" d="M1976.32,-214.64C1941.97,-202.98 1896.67,-187.61 1861.06,-175.53"/>
<polygon fill="midnightblue" stroke="midnightblue" points="1975.56,-218.07 1986.15,-217.97 1977.81,-211.44 1975.56,-218.07"/>
</g>
<!-- Node24 -->
<g id="node24" class="node">
<title>Node24</title>
<g id="a_node24"><a xlink:href="_quantize_operator_8cpp.html" target="_top" xlink:title=" ">
<polygon fill="white" stroke="black" points="1919,-140 1919,-170 2136,-170 2136,-140 1919,-140"/>
<text text-anchor="start" x="1927" y="-158" font-family="Helvetica,sans-Serif" font-size="10.00">src/backends/tosaCommon</text>
<text text-anchor="middle" x="2027.5" y="-147" font-family="Helvetica,sans-Serif" font-size="10.00">/operatorMappings/QuantizeOperator.cpp</text>
</a>
</g>
</g>
<!-- Node23&#45;&gt;Node24 -->
<g id="edge30" class="edge">
<title>Node23&#45;&gt;Node24</title>
<path fill="none" stroke="midnightblue" d="M2027.5,-207.59C2027.5,-195.26 2027.5,-180.72 2027.5,-170.23"/>
<polygon fill="midnightblue" stroke="midnightblue" points="2024,-207.7 2027.5,-217.7 2031,-207.71 2024,-207.7"/>
</g>
<!-- Node25&#45;&gt;Node4 -->
<g id="edge34" class="edge">
<title>Node25&#45;&gt;Node4</title>
<path fill="none" stroke="midnightblue" d="M2171.68,-216.31C2162.84,-214.83 2154,-213.37 2145.5,-212 2040.76,-195.06 2014.09,-193.84 1909.5,-176 1903.87,-175.04 1898.08,-174.02 1892.24,-172.98"/>
<polygon fill="midnightblue" stroke="midnightblue" points="2171.21,-219.78 2181.65,-217.99 2172.37,-212.88 2171.21,-219.78"/>
</g>
<!-- Node26 -->
<g id="node26" class="node">
<title>Node26</title>
<g id="a_node26"><a xlink:href="_reshape_operator_8cpp.html" target="_top" xlink:title=" ">
<polygon fill="white" stroke="black" points="2155,-140 2155,-170 2370,-170 2370,-140 2155,-140"/>
<text text-anchor="start" x="2163" y="-158" font-family="Helvetica,sans-Serif" font-size="10.00">src/backends/tosaCommon</text>
<text text-anchor="middle" x="2262.5" y="-147" font-family="Helvetica,sans-Serif" font-size="10.00">/operatorMappings/ReshapeOperator.cpp</text>
</a>
</g>
</g>
<!-- Node25&#45;&gt;Node26 -->
<g id="edge33" class="edge">
<title>Node25&#45;&gt;Node26</title>
<path fill="none" stroke="midnightblue" d="M2262.5,-207.59C2262.5,-195.26 2262.5,-180.72 2262.5,-170.23"/>
<polygon fill="midnightblue" stroke="midnightblue" points="2259,-207.7 2262.5,-217.7 2266,-207.71 2259,-207.7"/>
</g>
<!-- Node27&#45;&gt;Node4 -->
<g id="edge37" class="edge">
<title>Node27&#45;&gt;Node4</title>
<path fill="none" stroke="midnightblue" d="M2409.15,-216.33C2399.18,-214.72 2389.13,-213.22 2379.5,-212 2171.68,-185.55 2117.19,-203.46 1909.5,-176 1903.84,-175.25 1898.02,-174.4 1892.16,-173.47"/>
<polygon fill="midnightblue" stroke="midnightblue" points="2408.63,-219.79 2419.06,-217.97 2409.77,-212.88 2408.63,-219.79"/>
</g>
<!-- Node28 -->
<g id="node28" class="node">
<title>Node28</title>
<g id="a_node28"><a xlink:href="_resize_operator_8cpp.html" target="_top" xlink:title=" ">
<polygon fill="white" stroke="black" points="2388.5,-140 2388.5,-170 2594.5,-170 2594.5,-140 2388.5,-140"/>
<text text-anchor="start" x="2396.5" y="-158" font-family="Helvetica,sans-Serif" font-size="10.00">src/backends/tosaCommon</text>
<text text-anchor="middle" x="2491.5" y="-147" font-family="Helvetica,sans-Serif" font-size="10.00">/operatorMappings/ResizeOperator.cpp</text>
</a>
</g>
</g>
<!-- Node27&#45;&gt;Node28 -->
<g id="edge36" class="edge">
<title>Node27&#45;&gt;Node28</title>
<path fill="none" stroke="midnightblue" d="M2491.5,-207.59C2491.5,-195.26 2491.5,-180.72 2491.5,-170.23"/>
<polygon fill="midnightblue" stroke="midnightblue" points="2488,-207.7 2491.5,-217.7 2495,-207.71 2488,-207.7"/>
</g>
<!-- Node29&#45;&gt;Node4 -->
<g id="edge40" class="edge">
<title>Node29&#45;&gt;Node4</title>
<path fill="none" stroke="midnightblue" d="M2633.45,-216.29C2623.4,-214.64 2613.23,-213.15 2603.5,-212 2296.77,-175.8 2216.17,-212.72 1909.5,-176 1903.83,-175.32 1898,-174.52 1892.14,-173.64"/>
<polygon fill="midnightblue" stroke="midnightblue" points="2632.99,-219.77 2643.44,-217.99 2634.16,-212.86 2632.99,-219.77"/>
</g>
<!-- Node30 -->
<g id="node30" class="node">
<title>Node30</title>
<g id="a_node30"><a xlink:href="_slice_operator_8cpp.html" target="_top" xlink:title=" ">
<polygon fill="white" stroke="black" points="2613,-140 2613,-170 2810,-170 2810,-140 2613,-140"/>
<text text-anchor="start" x="2621" y="-158" font-family="Helvetica,sans-Serif" font-size="10.00">src/backends/tosaCommon</text>
<text text-anchor="middle" x="2711.5" y="-147" font-family="Helvetica,sans-Serif" font-size="10.00">/operatorMappings/SliceOperator.cpp</text>
</a>
</g>
</g>
<!-- Node29&#45;&gt;Node30 -->
<g id="edge39" class="edge">
<title>Node29&#45;&gt;Node30</title>
<path fill="none" stroke="midnightblue" d="M2711.5,-207.59C2711.5,-195.26 2711.5,-180.72 2711.5,-170.23"/>
<polygon fill="midnightblue" stroke="midnightblue" points="2708,-207.7 2711.5,-217.7 2715,-207.71 2708,-207.7"/>
</g>
<!-- Node31&#45;&gt;Node4 -->
<g id="edge43" class="edge">
<title>Node31&#45;&gt;Node4</title>
<path fill="none" stroke="midnightblue" d="M2849.63,-216.25C2839.53,-214.59 2829.29,-213.1 2819.5,-212 2417.28,-166.7 2311.68,-221.65 1909.5,-176 1903.82,-175.36 1898,-174.58 1892.13,-173.72"/>
<polygon fill="midnightblue" stroke="midnightblue" points="2849.21,-219.73 2859.66,-217.96 2850.39,-212.83 2849.21,-219.73"/>
</g>
<!-- Node32 -->
<g id="node32" class="node">
<title>Node32</title>
<g id="a_node32"><a xlink:href="_split_operator_8cpp.html" target="_top" xlink:title=" ">
<polygon fill="white" stroke="black" points="2829,-140 2829,-170 3024,-170 3024,-140 2829,-140"/>
<text text-anchor="start" x="2837" y="-158" font-family="Helvetica,sans-Serif" font-size="10.00">src/backends/tosaCommon</text>
<text text-anchor="middle" x="2926.5" y="-147" font-family="Helvetica,sans-Serif" font-size="10.00">/operatorMappings/SplitOperator.cpp</text>
</a>
</g>
</g>
<!-- Node31&#45;&gt;Node32 -->
<g id="edge42" class="edge">
<title>Node31&#45;&gt;Node32</title>
<path fill="none" stroke="midnightblue" d="M2926.5,-207.59C2926.5,-195.26 2926.5,-180.72 2926.5,-170.23"/>
<polygon fill="midnightblue" stroke="midnightblue" points="2923,-207.7 2926.5,-217.7 2930,-207.71 2923,-207.7"/>
</g>
<!-- Node33&#45;&gt;Node4 -->
<g id="edge45" class="edge">
<title>Node33&#45;&gt;Node4</title>
<path fill="none" stroke="midnightblue" d="M3032.75,-212.02C2534.84,-159.29 2403.06,-230.14 1909.5,-176 1903.82,-175.38 1897.99,-174.62 1892.13,-173.77"/>
<polygon fill="midnightblue" stroke="midnightblue" points="3032.4,-215.5 3042.71,-213.09 3033.14,-208.54 3032.4,-215.5"/>
</g>
<!-- Node34 -->
<g id="node34" class="node">
<title>Node34</title>
<g id="a_node34"><a xlink:href="_transpose_conv2d_operator_8cpp.html" target="_top" xlink:title=" ">
<polygon fill="white" stroke="black" points="3043,-134.5 3043,-175.5 3240,-175.5 3240,-134.5 3043,-134.5"/>
<text text-anchor="start" x="3051" y="-163.5" font-family="Helvetica,sans-Serif" font-size="10.00">src/backends/tosaCommon</text>
<text text-anchor="start" x="3051" y="-152.5" font-family="Helvetica,sans-Serif" font-size="10.00">/operatorMappings/TransposeConv2d</text>
<text text-anchor="middle" x="3141.5" y="-141.5" font-family="Helvetica,sans-Serif" font-size="10.00">Operator.cpp</text>
</a>
</g>
</g>
<!-- Node33&#45;&gt;Node34 -->
<g id="edge46" class="edge">
<title>Node33&#45;&gt;Node34</title>
<path fill="none" stroke="midnightblue" d="M3141.5,-202.3C3141.5,-193.3 3141.5,-183.65 3141.5,-175.51"/>
<polygon fill="midnightblue" stroke="midnightblue" points="3138,-202.43 3141.5,-212.43 3145,-202.43 3138,-202.43"/>
</g>
<!-- Node35&#45;&gt;Node4 -->
<g id="edge48" class="edge">
<title>Node35&#45;&gt;Node4</title>
<path fill="none" stroke="midnightblue" d="M3285.17,-216.44C3273.23,-214.68 3261.08,-213.12 3249.5,-212 2656.47,-154.89 2501.88,-239.43 1909.5,-176 1903.82,-175.39 1897.99,-174.64 1892.12,-173.8"/>
<polygon fill="midnightblue" stroke="midnightblue" points="3284.72,-219.91 3295.14,-217.96 3285.78,-212.99 3284.72,-219.91"/>
</g>
<!-- Node36 -->
<g id="node36" class="node">
<title>Node36</title>
<g id="a_node36"><a xlink:href="_transpose_operator_8cpp.html" target="_top" xlink:title=" ">
<polygon fill="white" stroke="black" points="3258.5,-140 3258.5,-170 3480.5,-170 3480.5,-140 3258.5,-140"/>
<text text-anchor="start" x="3266.5" y="-158" font-family="Helvetica,sans-Serif" font-size="10.00">src/backends/tosaCommon</text>
<text text-anchor="middle" x="3369.5" y="-147" font-family="Helvetica,sans-Serif" font-size="10.00">/operatorMappings/TransposeOperator.cpp</text>
</a>
</g>
</g>
<!-- Node35&#45;&gt;Node36 -->
<g id="edge49" class="edge">
<title>Node35&#45;&gt;Node36</title>
<path fill="none" stroke="midnightblue" d="M3369.5,-207.59C3369.5,-195.26 3369.5,-180.72 3369.5,-170.23"/>
<polygon fill="midnightblue" stroke="midnightblue" points="3366,-207.7 3369.5,-217.7 3373,-207.71 3366,-207.7"/>
</g>
</g>
</svg>
