<?xml version="1.0" encoding="UTF-8" standalone="no"?>
<!DOCTYPE svg PUBLIC "-//W3C//DTD SVG 1.1//EN"
 "http://www.w3.org/Graphics/SVG/1.1/DTD/svg11.dtd">
<!-- Generated by graphviz version 2.43.0 (0)
 -->
<!-- Title: src/armnn/WorkingMemDescriptor.hpp Pages: 1 -->
<svg width="822pt" height="308pt"
 viewBox="0.00 0.00 822.00 308.00" xmlns="http://www.w3.org/2000/svg" xmlns:xlink="http://www.w3.org/1999/xlink">
<g id="graph0" class="graph" transform="scale(1 1) rotate(0) translate(4 304)">
<title>src/armnn/WorkingMemDescriptor.hpp</title>
<polygon fill="white" stroke="transparent" points="-4,4 -4,-304 818,-304 818,4 -4,4"/>
<!-- Node1 -->
<g id="node1" class="node">
<title>Node1</title>
<g id="a_node1"><a xlink:title=" ">
<polygon fill="#bfbfbf" stroke="black" points="518.5,-280.5 518.5,-299.5 721.5,-299.5 721.5,-280.5 518.5,-280.5"/>
<text text-anchor="middle" x="620" y="-287.5" font-family="Helvetica,sans-Serif" font-size="10.00">src/armnn/WorkingMemDescriptor.hpp</text>
</a>
</g>
</g>
<!-- Node2 -->
<g id="node2" class="node">
<title>Node2</title>
<g id="a_node2"><a xlink:href="_i_tensor_handle_8hpp.html" target="_top" xlink:title=" ">
<polygon fill="white" stroke="black" points="455,-224.5 455,-243.5 645,-243.5 645,-224.5 455,-224.5"/>
<text text-anchor="middle" x="550" y="-231.5" font-family="Helvetica,sans-Serif" font-size="10.00">armnn/backends/ITensorHandle.hpp</text>
</a>
</g>
</g>
<!-- Node1&#45;&gt;Node2 -->
<g id="edge1" class="edge">
<title>Node1&#45;&gt;Node2</title>
<path fill="none" stroke="midnightblue" d="M608.75,-280.32C598.2,-272.18 582.2,-259.84 569.56,-250.09"/>
<polygon fill="midnightblue" stroke="midnightblue" points="571.51,-247.17 561.45,-243.83 567.23,-252.71 571.51,-247.17"/>
</g>
<!-- Node15 -->
<g id="node15" class="node">
<title>Node15</title>
<g id="a_node15"><a xlink:title=" ">
<polygon fill="white" stroke="#bfbfbf" points="752.5,-0.5 752.5,-19.5 799.5,-19.5 799.5,-0.5 752.5,-0.5"/>
<text text-anchor="middle" x="776" y="-7.5" font-family="Helvetica,sans-Serif" font-size="10.00">vector</text>
</a>
</g>
</g>
<!-- Node1&#45;&gt;Node15 -->
<g id="edge34" class="edge">
<title>Node1&#45;&gt;Node15</title>
<path fill="none" stroke="midnightblue" d="M680.58,-280.5C737.51,-268.69 814,-241.24 814,-179 814,-179 814,-179 814,-121 814,-86.81 797.4,-49.76 786.14,-28.57"/>
<polygon fill="midnightblue" stroke="midnightblue" points="789.18,-26.83 781.28,-19.77 783.05,-30.22 789.18,-26.83"/>
</g>
<!-- Node3 -->
<g id="node3" class="node">
<title>Node3</title>
<g id="a_node3"><a xlink:href="_memory_sources_8hpp.html" target="_top" xlink:title=" ">
<polygon fill="white" stroke="black" points="384.5,-168.5 384.5,-187.5 535.5,-187.5 535.5,-168.5 384.5,-168.5"/>
<text text-anchor="middle" x="460" y="-175.5" font-family="Helvetica,sans-Serif" font-size="10.00">armnn/MemorySources.hpp</text>
</a>
</g>
</g>
<!-- Node2&#45;&gt;Node3 -->
<g id="edge2" class="edge">
<title>Node2&#45;&gt;Node3</title>
<path fill="none" stroke="midnightblue" d="M535.54,-224.32C521.5,-215.9 499.95,-202.97 483.46,-193.07"/>
<polygon fill="midnightblue" stroke="midnightblue" points="484.8,-189.8 474.42,-187.65 481.2,-195.8 484.8,-189.8"/>
</g>
<!-- Node21 -->
<g id="node21" class="node">
<title>Node21</title>
<g id="a_node21"><a xlink:href="_ignore_unused_8hpp.html" target="_top" xlink:title=" ">
<polygon fill="white" stroke="black" points="553.5,-168.5 553.5,-187.5 724.5,-187.5 724.5,-168.5 553.5,-168.5"/>
<text text-anchor="middle" x="639" y="-175.5" font-family="Helvetica,sans-Serif" font-size="10.00">armnn/utility/IgnoreUnused.hpp</text>
</a>
</g>
</g>
<!-- Node2&#45;&gt;Node21 -->
<g id="edge21" class="edge">
<title>Node2&#45;&gt;Node21</title>
<path fill="none" stroke="midnightblue" d="M564.3,-224.32C578.18,-215.9 599.49,-202.97 615.8,-193.07"/>
<polygon fill="midnightblue" stroke="midnightblue" points="618,-195.83 624.74,-187.65 614.37,-189.85 618,-195.83"/>
</g>
<!-- Node22 -->
<g id="node22" class="node">
<title>Node22</title>
<g id="a_node22"><a xlink:href="_tensor_8hpp.html" target="_top" xlink:title=" ">
<polygon fill="white" stroke="black" points="242.5,-168.5 242.5,-187.5 345.5,-187.5 345.5,-168.5 242.5,-168.5"/>
<text text-anchor="middle" x="294" y="-175.5" font-family="Helvetica,sans-Serif" font-size="10.00">armnn/Tensor.hpp</text>
</a>
</g>
</g>
<!-- Node2&#45;&gt;Node22 -->
<g id="edge22" class="edge">
<title>Node2&#45;&gt;Node22</title>
<path fill="none" stroke="midnightblue" d="M509.44,-224.44C464.68,-215 392.62,-199.8 344.3,-189.61"/>
<polygon fill="midnightblue" stroke="midnightblue" points="344.88,-186.16 334.37,-187.52 343.44,-193.01 344.88,-186.16"/>
</g>
<!-- Node4 -->
<g id="node4" class="node">
<title>Node4</title>
<g id="a_node4"><a xlink:href="_types_8hpp.html" target="_top" xlink:title=" ">
<polygon fill="white" stroke="black" points="430,-112.5 430,-131.5 530,-131.5 530,-112.5 430,-112.5"/>
<text text-anchor="middle" x="480" y="-119.5" font-family="Helvetica,sans-Serif" font-size="10.00">armnn/Types.hpp</text>
</a>
</g>
</g>
<!-- Node3&#45;&gt;Node4 -->
<g id="edge3" class="edge">
<title>Node3&#45;&gt;Node4</title>
<path fill="none" stroke="midnightblue" d="M463.3,-168.08C465.98,-160.85 469.85,-150.41 473.19,-141.4"/>
<polygon fill="midnightblue" stroke="midnightblue" points="476.57,-142.34 476.76,-131.75 470,-139.91 476.57,-142.34"/>
</g>
<!-- Node20 -->
<g id="node20" class="node">
<title>Node20</title>
<g id="a_node20"><a xlink:title=" ">
<polygon fill="white" stroke="#bfbfbf" points="68.5,-56.5 68.5,-75.5 137.5,-75.5 137.5,-56.5 68.5,-56.5"/>
<text text-anchor="middle" x="103" y="-63.5" font-family="Helvetica,sans-Serif" font-size="10.00">type_traits</text>
</a>
</g>
</g>
<!-- Node3&#45;&gt;Node20 -->
<g id="edge20" class="edge">
<title>Node3&#45;&gt;Node20</title>
<path fill="none" stroke="midnightblue" d="M447.9,-168.33C427.64,-154.25 385.11,-126.51 345,-112 263.85,-82.64 236.72,-92.21 147.57,-76.02"/>
<polygon fill="midnightblue" stroke="midnightblue" points="148.05,-72.55 137.57,-74.15 146.76,-79.43 148.05,-72.55"/>
</g>
<!-- Node5 -->
<g id="node5" class="node">
<title>Node5</title>
<g id="a_node5"><a xlink:title=" ">
<polygon fill="white" stroke="#bfbfbf" points="336,-56.5 336,-75.5 378,-75.5 378,-56.5 336,-56.5"/>
<text text-anchor="middle" x="357" y="-63.5" font-family="Helvetica,sans-Serif" font-size="10.00">array</text>
</a>
</g>
</g>
<!-- Node4&#45;&gt;Node5 -->
<g id="edge4" class="edge">
<title>Node4&#45;&gt;Node5</title>
<path fill="none" stroke="midnightblue" d="M460.51,-112.44C440.36,-103.6 408.68,-89.69 385.67,-79.59"/>
<polygon fill="midnightblue" stroke="midnightblue" points="386.96,-76.33 376.4,-75.52 384.15,-82.74 386.96,-76.33"/>
</g>
<!-- Node6 -->
<g id="node6" class="node">
<title>Node6</title>
<g id="a_node6"><a xlink:title=" ">
<polygon fill="white" stroke="#bfbfbf" points="614.5,-56.5 614.5,-75.5 679.5,-75.5 679.5,-56.5 614.5,-56.5"/>
<text text-anchor="middle" x="647" y="-63.5" font-family="Helvetica,sans-Serif" font-size="10.00">functional</text>
</a>
</g>
</g>
<!-- Node4&#45;&gt;Node6 -->
<g id="edge5" class="edge">
<title>Node4&#45;&gt;Node6</title>
<path fill="none" stroke="midnightblue" d="M506.46,-112.44C534.68,-103.32 579.54,-88.81 610.97,-78.65"/>
<polygon fill="midnightblue" stroke="midnightblue" points="612.22,-81.92 620.66,-75.52 610.07,-75.26 612.22,-81.92"/>
</g>
<!-- Node7 -->
<g id="node7" class="node">
<title>Node7</title>
<g id="a_node7"><a xlink:title=" ">
<polygon fill="white" stroke="#bfbfbf" points="264.5,-56.5 264.5,-75.5 317.5,-75.5 317.5,-56.5 264.5,-56.5"/>
<text text-anchor="middle" x="291" y="-63.5" font-family="Helvetica,sans-Serif" font-size="10.00">stdint.h</text>
</a>
</g>
</g>
<!-- Node4&#45;&gt;Node7 -->
<g id="edge6" class="edge">
<title>Node4&#45;&gt;Node7</title>
<path fill="none" stroke="midnightblue" d="M450.05,-112.44C416.89,-102.97 363.43,-87.69 327.76,-77.5"/>
<polygon fill="midnightblue" stroke="midnightblue" points="328.33,-74.03 317.75,-74.64 326.41,-80.76 328.33,-74.03"/>
</g>
<!-- Node8 -->
<g id="node8" class="node">
<title>Node8</title>
<g id="a_node8"><a xlink:title=" ">
<polygon fill="white" stroke="#bfbfbf" points="698,-56.5 698,-75.5 748,-75.5 748,-56.5 698,-56.5"/>
<text text-anchor="middle" x="723" y="-63.5" font-family="Helvetica,sans-Serif" font-size="10.00">chrono</text>
</a>
</g>
</g>
<!-- Node4&#45;&gt;Node8 -->
<g id="edge7" class="edge">
<title>Node4&#45;&gt;Node8</title>
<path fill="none" stroke="midnightblue" d="M522.56,-112.44C562.74,-104.23 624.9,-91.18 687.7,-76.23"/>
<polygon fill="midnightblue" stroke="midnightblue" points="688.87,-79.55 697.78,-73.82 687.24,-72.74 688.87,-79.55"/>
</g>
<!-- Node9 -->
<g id="node9" class="node">
<title>Node9</title>
<g id="a_node9"><a xlink:href="_backend_id_8hpp.html" target="_top" xlink:title=" ">
<polygon fill="white" stroke="black" points="396,-56.5 396,-75.5 484,-75.5 484,-56.5 396,-56.5"/>
<text text-anchor="middle" x="440" y="-63.5" font-family="Helvetica,sans-Serif" font-size="10.00">BackendId.hpp</text>
</a>
</g>
</g>
<!-- Node4&#45;&gt;Node9 -->
<g id="edge8" class="edge">
<title>Node4&#45;&gt;Node9</title>
<path fill="none" stroke="midnightblue" d="M473.39,-112.08C467.74,-104.46 459.46,-93.26 452.55,-83.94"/>
<polygon fill="midnightblue" stroke="midnightblue" points="455.25,-81.7 446.48,-75.75 449.62,-85.87 455.25,-81.7"/>
</g>
<!-- Node16 -->
<g id="node16" class="node">
<title>Node16</title>
<g id="a_node16"><a xlink:href="_exceptions_8hpp.html" target="_top" xlink:title=" ">
<polygon fill="white" stroke="black" points="155.5,-56.5 155.5,-75.5 246.5,-75.5 246.5,-56.5 155.5,-56.5"/>
<text text-anchor="middle" x="201" y="-63.5" font-family="Helvetica,sans-Serif" font-size="10.00">Exceptions.hpp</text>
</a>
</g>
</g>
<!-- Node4&#45;&gt;Node16 -->
<g id="edge15" class="edge">
<title>Node4&#45;&gt;Node16</title>
<path fill="none" stroke="midnightblue" d="M435.79,-112.44C386.71,-102.94 307.49,-87.61 254.84,-77.42"/>
<polygon fill="midnightblue" stroke="midnightblue" points="255.48,-73.98 245,-75.52 254.15,-80.85 255.48,-73.98"/>
</g>
<!-- Node19 -->
<g id="node19" class="node">
<title>Node19</title>
<g id="a_node19"><a xlink:href="_deprecated_8hpp.html" target="_top" xlink:title=" ">
<polygon fill="white" stroke="black" points="502,-56.5 502,-75.5 596,-75.5 596,-56.5 502,-56.5"/>
<text text-anchor="middle" x="549" y="-63.5" font-family="Helvetica,sans-Serif" font-size="10.00">Deprecated.hpp</text>
</a>
</g>
</g>
<!-- Node4&#45;&gt;Node19 -->
<g id="edge19" class="edge">
<title>Node4&#45;&gt;Node19</title>
<path fill="none" stroke="midnightblue" d="M491.09,-112.32C501.49,-104.18 517.26,-91.84 529.72,-82.09"/>
<polygon fill="midnightblue" stroke="midnightblue" points="531.99,-84.75 537.71,-75.83 527.68,-79.24 531.99,-84.75"/>
</g>
<!-- Node10 -->
<g id="node10" class="node">
<title>Node10</title>
<g id="a_node10"><a xlink:title=" ">
<polygon fill="white" stroke="#bfbfbf" points="559,-0.5 559,-19.5 617,-19.5 617,-0.5 559,-0.5"/>
<text text-anchor="middle" x="588" y="-7.5" font-family="Helvetica,sans-Serif" font-size="10.00">memory</text>
</a>
</g>
</g>
<!-- Node9&#45;&gt;Node10 -->
<g id="edge9" class="edge">
<title>Node9&#45;&gt;Node10</title>
<path fill="none" stroke="midnightblue" d="M463.45,-56.44C488.13,-47.44 527.19,-33.19 554.98,-23.05"/>
<polygon fill="midnightblue" stroke="midnightblue" points="556.46,-26.23 564.66,-19.52 554.06,-19.66 556.46,-26.23"/>
</g>
<!-- Node11 -->
<g id="node11" class="node">
<title>Node11</title>
<g id="a_node11"><a xlink:title=" ">
<polygon fill="white" stroke="#bfbfbf" points="329.5,-0.5 329.5,-19.5 386.5,-19.5 386.5,-0.5 329.5,-0.5"/>
<text text-anchor="middle" x="358" y="-7.5" font-family="Helvetica,sans-Serif" font-size="10.00">ostream</text>
</a>
</g>
</g>
<!-- Node9&#45;&gt;Node11 -->
<g id="edge10" class="edge">
<title>Node9&#45;&gt;Node11</title>
<path fill="none" stroke="midnightblue" d="M426.83,-56.32C414.15,-47.98 394.77,-35.21 379.79,-25.35"/>
<polygon fill="midnightblue" stroke="midnightblue" points="381.42,-22.23 371.14,-19.65 377.57,-28.08 381.42,-22.23"/>
</g>
<!-- Node12 -->
<g id="node12" class="node">
<title>Node12</title>
<g id="a_node12"><a xlink:title=" ">
<polygon fill="white" stroke="#bfbfbf" points="405,-0.5 405,-19.5 437,-19.5 437,-0.5 405,-0.5"/>
<text text-anchor="middle" x="421" y="-7.5" font-family="Helvetica,sans-Serif" font-size="10.00">set</text>
</a>
</g>
</g>
<!-- Node9&#45;&gt;Node12 -->
<g id="edge11" class="edge">
<title>Node9&#45;&gt;Node12</title>
<path fill="none" stroke="midnightblue" d="M436.86,-56.08C434.32,-48.85 430.64,-38.41 427.47,-29.4"/>
<polygon fill="midnightblue" stroke="midnightblue" points="430.7,-28.02 424.08,-19.75 424.1,-30.35 430.7,-28.02"/>
</g>
<!-- Node13 -->
<g id="node13" class="node">
<title>Node13</title>
<g id="a_node13"><a xlink:title=" ">
<polygon fill="white" stroke="#bfbfbf" points="257,-0.5 257,-19.5 301,-19.5 301,-0.5 257,-0.5"/>
<text text-anchor="middle" x="279" y="-7.5" font-family="Helvetica,sans-Serif" font-size="10.00">string</text>
</a>
</g>
</g>
<!-- Node9&#45;&gt;Node13 -->
<g id="edge12" class="edge">
<title>Node9&#45;&gt;Node13</title>
<path fill="none" stroke="midnightblue" d="M414.49,-56.44C386.45,-47.04 341.36,-31.91 310.97,-21.72"/>
<polygon fill="midnightblue" stroke="midnightblue" points="311.87,-18.33 301.28,-18.47 309.65,-24.97 311.87,-18.33"/>
</g>
<!-- Node14 -->
<g id="node14" class="node">
<title>Node14</title>
<g id="a_node14"><a xlink:title=" ">
<polygon fill="white" stroke="#bfbfbf" points="455,-0.5 455,-19.5 541,-19.5 541,-0.5 455,-0.5"/>
<text text-anchor="middle" x="498" y="-7.5" font-family="Helvetica,sans-Serif" font-size="10.00">unordered_set</text>
</a>
</g>
</g>
<!-- Node9&#45;&gt;Node14 -->
<g id="edge13" class="edge">
<title>Node9&#45;&gt;Node14</title>
<path fill="none" stroke="midnightblue" d="M449.32,-56.32C457.89,-48.34 470.81,-36.31 481.19,-26.65"/>
<polygon fill="midnightblue" stroke="midnightblue" points="483.58,-29.21 488.51,-19.83 478.81,-24.09 483.58,-29.21"/>
</g>
<!-- Node9&#45;&gt;Node15 -->
<g id="edge14" class="edge">
<title>Node9&#45;&gt;Node15</title>
<path fill="none" stroke="midnightblue" d="M484.24,-57.45C487.2,-56.96 490.15,-56.47 493,-56 582.97,-41.21 689.17,-24.53 742.25,-16.25"/>
<polygon fill="midnightblue" stroke="midnightblue" points="742.79,-19.71 752.13,-14.71 741.71,-12.79 742.79,-19.71"/>
</g>
<!-- Node16&#45;&gt;Node13 -->
<g id="edge18" class="edge">
<title>Node16&#45;&gt;Node13</title>
<path fill="none" stroke="midnightblue" d="M213.53,-56.32C225.59,-47.98 244.03,-35.21 258.27,-25.35"/>
<polygon fill="midnightblue" stroke="midnightblue" points="260.27,-28.22 266.5,-19.65 256.28,-22.47 260.27,-28.22"/>
</g>
<!-- Node17 -->
<g id="node17" class="node">
<title>Node17</title>
<g id="a_node17"><a xlink:title=" ">
<polygon fill="white" stroke="#bfbfbf" points="178,-0.5 178,-19.5 234,-19.5 234,-0.5 178,-0.5"/>
<text text-anchor="middle" x="206" y="-7.5" font-family="Helvetica,sans-Serif" font-size="10.00">sstream</text>
</a>
</g>
</g>
<!-- Node16&#45;&gt;Node17 -->
<g id="edge16" class="edge">
<title>Node16&#45;&gt;Node17</title>
<path fill="none" stroke="midnightblue" d="M201.83,-56.08C202.48,-49.01 203.42,-38.86 204.24,-29.99"/>
<polygon fill="midnightblue" stroke="midnightblue" points="207.75,-30.03 205.19,-19.75 200.78,-29.39 207.75,-30.03"/>
</g>
<!-- Node18 -->
<g id="node18" class="node">
<title>Node18</title>
<g id="a_node18"><a xlink:title=" ">
<polygon fill="white" stroke="#bfbfbf" points="94.5,-0.5 94.5,-19.5 159.5,-19.5 159.5,-0.5 94.5,-0.5"/>
<text text-anchor="middle" x="127" y="-7.5" font-family="Helvetica,sans-Serif" font-size="10.00">stdexcept</text>
</a>
</g>
</g>
<!-- Node16&#45;&gt;Node18 -->
<g id="edge17" class="edge">
<title>Node16&#45;&gt;Node18</title>
<path fill="none" stroke="midnightblue" d="M189.11,-56.32C177.85,-48.11 160.71,-35.6 147.29,-25.81"/>
<polygon fill="midnightblue" stroke="midnightblue" points="149.25,-22.9 139.11,-19.83 145.12,-28.56 149.25,-22.9"/>
</g>
<!-- Node22&#45;&gt;Node4 -->
<g id="edge28" class="edge">
<title>Node22&#45;&gt;Node4</title>
<path fill="none" stroke="midnightblue" d="M323.47,-168.44C355.17,-159.24 405.73,-144.56 440.77,-134.39"/>
<polygon fill="midnightblue" stroke="midnightblue" points="442.04,-137.67 450.67,-131.52 440.09,-130.94 442.04,-137.67"/>
</g>
<!-- Node22&#45;&gt;Node5 -->
<g id="edge30" class="edge">
<title>Node22&#45;&gt;Node5</title>
<path fill="none" stroke="midnightblue" d="M308.03,-168.49C319.84,-160.55 336.16,-147.62 345,-132 353.04,-117.8 355.85,-99.32 356.76,-85.7"/>
<polygon fill="midnightblue" stroke="midnightblue" points="360.26,-85.73 357.15,-75.6 353.27,-85.46 360.26,-85.73"/>
</g>
<!-- Node22&#45;&gt;Node7 -->
<g id="edge29" class="edge">
<title>Node22&#45;&gt;Node7</title>
<path fill="none" stroke="midnightblue" d="M279.05,-168.47C267.07,-160.7 251.13,-148 244,-132 235.51,-112.93 253.07,-93.91 269.09,-81.42"/>
<polygon fill="midnightblue" stroke="midnightblue" points="271.16,-84.24 277.18,-75.52 267.04,-78.58 271.16,-84.24"/>
</g>
<!-- Node22&#45;&gt;Node15 -->
<g id="edge32" class="edge">
<title>Node22&#45;&gt;Node15</title>
<path fill="none" stroke="midnightblue" d="M345.67,-168.86C460.14,-150.39 727.36,-104.68 757,-76 769.4,-64 773.83,-44.4 775.35,-29.85"/>
<polygon fill="midnightblue" stroke="midnightblue" points="778.86,-29.72 776.04,-19.51 771.88,-29.25 778.86,-29.72"/>
</g>
<!-- Node22&#45;&gt;Node16 -->
<g id="edge23" class="edge">
<title>Node22&#45;&gt;Node16</title>
<path fill="none" stroke="midnightblue" d="M280.05,-168.31C267.64,-160.08 249.57,-146.8 237,-132 224.89,-117.74 214.95,-98.78 208.6,-85.01"/>
<polygon fill="midnightblue" stroke="midnightblue" points="211.72,-83.4 204.48,-75.67 205.31,-86.23 211.72,-83.4"/>
</g>
<!-- Node23 -->
<g id="node23" class="node">
<title>Node23</title>
<g id="a_node23"><a xlink:href="_optional_8hpp.html" target="_top" xlink:title=" ">
<polygon fill="white" stroke="black" points="78.5,-112.5 78.5,-131.5 157.5,-131.5 157.5,-112.5 78.5,-112.5"/>
<text text-anchor="middle" x="118" y="-119.5" font-family="Helvetica,sans-Serif" font-size="10.00">Optional.hpp</text>
</a>
</g>
</g>
<!-- Node22&#45;&gt;Node23 -->
<g id="edge24" class="edge">
<title>Node22&#45;&gt;Node23</title>
<path fill="none" stroke="midnightblue" d="M266.11,-168.44C236.25,-159.28 188.69,-144.69 155.54,-134.52"/>
<polygon fill="midnightblue" stroke="midnightblue" points="156.34,-131.1 145.76,-131.52 154.29,-137.8 156.34,-131.1"/>
</g>
<!-- Node25 -->
<g id="node25" class="node">
<title>Node25</title>
<g id="a_node25"><a xlink:title=" ">
<polygon fill="white" stroke="#bfbfbf" points="252.5,-112.5 252.5,-131.5 335.5,-131.5 335.5,-112.5 252.5,-112.5"/>
<text text-anchor="middle" x="294" y="-119.5" font-family="Helvetica,sans-Serif" font-size="10.00">initializer_list</text>
</a>
</g>
</g>
<!-- Node22&#45;&gt;Node25 -->
<g id="edge31" class="edge">
<title>Node22&#45;&gt;Node25</title>
<path fill="none" stroke="midnightblue" d="M294,-168.08C294,-161.01 294,-150.86 294,-141.99"/>
<polygon fill="midnightblue" stroke="midnightblue" points="297.5,-141.75 294,-131.75 290.5,-141.75 297.5,-141.75"/>
</g>
<!-- Node26 -->
<g id="node26" class="node">
<title>Node26</title>
<g id="a_node26"><a xlink:title=" ">
<polygon fill="white" stroke="#bfbfbf" points="15.5,-112.5 15.5,-131.5 60.5,-131.5 60.5,-112.5 15.5,-112.5"/>
<text text-anchor="middle" x="38" y="-119.5" font-family="Helvetica,sans-Serif" font-size="10.00">utility</text>
</a>
</g>
</g>
<!-- Node22&#45;&gt;Node26 -->
<g id="edge33" class="edge">
<title>Node22&#45;&gt;Node26</title>
<path fill="none" stroke="midnightblue" d="M246.14,-168.47C202.76,-160.5 136.89,-147.79 70.47,-131.96"/>
<polygon fill="midnightblue" stroke="midnightblue" points="71.21,-128.54 60.67,-129.61 69.57,-135.35 71.21,-128.54"/>
</g>
<!-- Node23&#45;&gt;Node16 -->
<g id="edge25" class="edge">
<title>Node23&#45;&gt;Node16</title>
<path fill="none" stroke="midnightblue" d="M131.34,-112.32C144.16,-103.98 163.78,-91.21 178.94,-81.35"/>
<polygon fill="midnightblue" stroke="midnightblue" points="181.22,-84.04 187.7,-75.65 177.41,-78.17 181.22,-84.04"/>
</g>
<!-- Node23&#45;&gt;Node20 -->
<g id="edge27" class="edge">
<title>Node23&#45;&gt;Node20</title>
<path fill="none" stroke="midnightblue" d="M115.52,-112.08C113.51,-104.85 110.61,-94.41 108.11,-85.4"/>
<polygon fill="midnightblue" stroke="midnightblue" points="111.48,-84.45 105.43,-75.75 104.74,-86.32 111.48,-84.45"/>
</g>
<!-- Node24 -->
<g id="node24" class="node">
<title>Node24</title>
<g id="a_node24"><a xlink:title=" ">
<polygon fill="white" stroke="#bfbfbf" points="0,-56.5 0,-75.5 50,-75.5 50,-56.5 0,-56.5"/>
<text text-anchor="middle" x="25" y="-63.5" font-family="Helvetica,sans-Serif" font-size="10.00">cstring</text>
</a>
</g>
</g>
<!-- Node23&#45;&gt;Node24 -->
<g id="edge26" class="edge">
<title>Node23&#45;&gt;Node24</title>
<path fill="none" stroke="midnightblue" d="M103.06,-112.32C88.41,-103.82 65.87,-90.73 48.76,-80.8"/>
<polygon fill="midnightblue" stroke="midnightblue" points="50.31,-77.65 39.9,-75.65 46.8,-83.7 50.31,-77.65"/>
</g>
</g>
</svg>
