<?xml version="1.0" encoding="UTF-8" standalone="no"?>
<!DOCTYPE svg PUBLIC "-//W3C//DTD SVG 1.1//EN"
 "http://www.w3.org/Graphics/SVG/1.1/DTD/svg11.dtd">
<!-- Generated by graphviz version 2.43.0 (0)
 -->
<!-- Title: RefFakeQuantizationFloat32Workload Pages: 1 -->
<svg width="202pt" height="218pt"
 viewBox="0.00 0.00 202.00 218.00" xmlns="http://www.w3.org/2000/svg" xmlns:xlink="http://www.w3.org/1999/xlink">
<g id="graph0" class="graph" transform="scale(1 1) rotate(0) translate(4 214)">
<title>RefFakeQuantizationFloat32Workload</title>
<polygon fill="white" stroke="transparent" points="-4,4 -4,-214 198,-214 198,4 -4,4"/>
<!-- Node1 -->
<g id="node1" class="node">
<title>Node1</title>
<g id="a_node1"><a xlink:title=" ">
<polygon fill="#bfbfbf" stroke="black" points="20,-0.5 20,-30.5 174,-30.5 174,-0.5 20,-0.5"/>
<text text-anchor="start" x="28" y="-18.5" font-family="Helvetica,sans-Serif" font-size="10.00">RefFakeQuantizationFloat32</text>
<text text-anchor="middle" x="97" y="-7.5" font-family="Helvetica,sans-Serif" font-size="10.00">Workload</text>
</a>
</g>
</g>
<!-- Node2 -->
<g id="node2" class="node">
<title>Node2</title>
<g id="a_node2"><a xlink:href="classarmnn_1_1_typed_workload.html" target="_top" xlink:title=" ">
<polygon fill="white" stroke="black" points="0,-67.5 0,-97.5 194,-97.5 194,-67.5 0,-67.5"/>
<text text-anchor="start" x="8" y="-85.5" font-family="Helvetica,sans-Serif" font-size="10.00">Float32Workload&lt; FakeQuantization</text>
<text text-anchor="middle" x="97" y="-74.5" font-family="Helvetica,sans-Serif" font-size="10.00">QueueDescriptor &gt;</text>
</a>
</g>
</g>
<!-- Node2&#45;&gt;Node1 -->
<g id="edge1" class="edge">
<title>Node2&#45;&gt;Node1</title>
<path fill="none" stroke="midnightblue" d="M97,-57.11C97,-48.15 97,-38.32 97,-30.58"/>
<polygon fill="midnightblue" stroke="midnightblue" points="93.5,-57.4 97,-67.4 100.5,-57.4 93.5,-57.4"/>
</g>
<!-- Node3 -->
<g id="node3" class="node">
<title>Node3</title>
<g id="a_node3"><a xlink:href="classarmnn_1_1_base_workload.html" target="_top" xlink:title=" ">
<polygon fill="white" stroke="black" points="1.5,-134.5 1.5,-153.5 192.5,-153.5 192.5,-134.5 1.5,-134.5"/>
<text text-anchor="middle" x="97" y="-141.5" font-family="Helvetica,sans-Serif" font-size="10.00">BaseWorkload&lt; QueueDescriptor &gt;</text>
</a>
</g>
</g>
<!-- Node3&#45;&gt;Node2 -->
<g id="edge2" class="edge">
<title>Node3&#45;&gt;Node2</title>
<path fill="none" stroke="midnightblue" d="M97,-124.23C97,-115.59 97,-105.5 97,-97.52"/>
<polygon fill="midnightblue" stroke="midnightblue" points="93.5,-124.48 97,-134.48 100.5,-124.48 93.5,-124.48"/>
</g>
<!-- Node4 -->
<g id="node4" class="node">
<title>Node4</title>
<g id="a_node4"><a xlink:href="classarmnn_1_1_i_workload.html" target="_top" xlink:title="Workload interface to enqueue a layer computation.">
<polygon fill="white" stroke="black" points="64.5,-190.5 64.5,-209.5 129.5,-209.5 129.5,-190.5 64.5,-190.5"/>
<text text-anchor="middle" x="97" y="-197.5" font-family="Helvetica,sans-Serif" font-size="10.00">IWorkload</text>
</a>
</g>
</g>
<!-- Node4&#45;&gt;Node3 -->
<g id="edge3" class="edge">
<title>Node4&#45;&gt;Node3</title>
<path fill="none" stroke="midnightblue" d="M97,-179.8C97,-170.91 97,-160.78 97,-153.75"/>
<polygon fill="midnightblue" stroke="midnightblue" points="93.5,-180.08 97,-190.08 100.5,-180.08 93.5,-180.08"/>
</g>
</g>
</svg>
