<?xml version="1.0" encoding="UTF-8" standalone="no"?>
<!DOCTYPE svg PUBLIC "-//W3C//DTD SVG 1.1//EN"
 "http://www.w3.org/Graphics/SVG/1.1/DTD/svg11.dtd">
<!-- Generated by graphviz version 2.43.0 (0)
 -->
<!-- Title: TileLayer Pages: 1 -->
<svg width="289pt" height="288pt"
 viewBox="0.00 0.00 289.00 288.00" xmlns="http://www.w3.org/2000/svg" xmlns:xlink="http://www.w3.org/1999/xlink">
<g id="graph0" class="graph" transform="scale(1 1) rotate(0) translate(4 284)">
<title>TileLayer</title>
<polygon fill="white" stroke="transparent" points="-4,4 -4,-284 285,-284 285,4 -4,4"/>
<!-- Node1 -->
<g id="node1" class="node">
<title>Node1</title>
<g id="a_node1"><a xlink:title=" ">
<polygon fill="#bfbfbf" stroke="black" points="82.5,-0.5 82.5,-19.5 144.5,-19.5 144.5,-0.5 82.5,-0.5"/>
<text text-anchor="middle" x="113.5" y="-7.5" font-family="Helvetica,sans-Serif" font-size="10.00">TileLayer</text>
</a>
</g>
</g>
<!-- Node2 -->
<g id="node2" class="node">
<title>Node2</title>
<g id="a_node2"><a xlink:href="classarmnn_1_1_layer_with_parameters.html" target="_top" xlink:title=" ">
<polygon fill="white" stroke="black" points="52.5,-57.5 52.5,-87.5 174.5,-87.5 174.5,-57.5 52.5,-57.5"/>
<text text-anchor="start" x="60.5" y="-75.5" font-family="Helvetica,sans-Serif" font-size="10.00">LayerWithParameters</text>
<text text-anchor="middle" x="113.5" y="-64.5" font-family="Helvetica,sans-Serif" font-size="10.00">&lt; TileDescriptor &gt;</text>
</a>
</g>
</g>
<!-- Node2&#45;&gt;Node1 -->
<g id="edge1" class="edge">
<title>Node2&#45;&gt;Node1</title>
<path fill="none" stroke="midnightblue" d="M113.5,-47.35C113.5,-37.51 113.5,-26.78 113.5,-19.54"/>
<polygon fill="midnightblue" stroke="midnightblue" points="110,-47.47 113.5,-57.47 117,-47.47 110,-47.47"/>
</g>
<!-- Node3 -->
<g id="node3" class="node">
<title>Node3</title>
<g id="a_node3"><a xlink:href="classarmnn_1_1_layer.html" target="_top" xlink:title=" ">
<polygon fill="white" stroke="black" points="31.5,-203.5 31.5,-222.5 75.5,-222.5 75.5,-203.5 31.5,-203.5"/>
<text text-anchor="middle" x="53.5" y="-210.5" font-family="Helvetica,sans-Serif" font-size="10.00">Layer</text>
</a>
</g>
</g>
<!-- Node3&#45;&gt;Node2 -->
<g id="edge2" class="edge">
<title>Node3&#45;&gt;Node2</title>
<path fill="none" stroke="midnightblue" d="M45.79,-193.68C40.21,-177.55 35.01,-153.76 43.5,-135 52.7,-114.66 72.33,-98.38 88.46,-87.69"/>
<polygon fill="midnightblue" stroke="midnightblue" points="42.7,-195.39 49.55,-203.47 49.23,-192.88 42.7,-195.39"/>
</g>
<!-- Node7 -->
<g id="node7" class="node">
<title>Node7</title>
<g id="a_node7"><a xlink:href="classarmnn_1_1_layer_with_parameters.html" target="_top" xlink:title=" ">
<polygon fill="white" stroke="black" points="52.5,-135.5 52.5,-165.5 174.5,-165.5 174.5,-135.5 52.5,-135.5"/>
<text text-anchor="start" x="60.5" y="-153.5" font-family="Helvetica,sans-Serif" font-size="10.00">LayerWithParameters</text>
<text text-anchor="middle" x="113.5" y="-142.5" font-family="Helvetica,sans-Serif" font-size="10.00">&lt; Parameters &gt;</text>
</a>
</g>
</g>
<!-- Node3&#45;&gt;Node7 -->
<g id="edge7" class="edge">
<title>Node3&#45;&gt;Node7</title>
<path fill="none" stroke="midnightblue" d="M69.26,-196.11C78.6,-186.69 90.32,-174.87 99.36,-165.76"/>
<polygon fill="midnightblue" stroke="midnightblue" points="66.65,-193.77 62.1,-203.33 71.62,-198.7 66.65,-193.77"/>
</g>
<!-- Node4 -->
<g id="node4" class="node">
<title>Node4</title>
<g id="a_node4"><a xlink:href="classarmnn_1_1_i_connectable_layer.html" target="_top" xlink:title="Interface for a layer that is connectable to other layers via InputSlots and OutputSlots.">
<polygon fill="white" stroke="black" points="0,-260.5 0,-279.5 107,-279.5 107,-260.5 0,-260.5"/>
<text text-anchor="middle" x="53.5" y="-267.5" font-family="Helvetica,sans-Serif" font-size="10.00">IConnectableLayer</text>
</a>
</g>
</g>
<!-- Node4&#45;&gt;Node3 -->
<g id="edge3" class="edge">
<title>Node4&#45;&gt;Node3</title>
<path fill="none" stroke="midnightblue" d="M53.5,-250.12C53.5,-240.82 53.5,-230.06 53.5,-222.71"/>
<polygon fill="midnightblue" stroke="midnightblue" points="50,-250.41 53.5,-260.41 57,-250.41 50,-250.41"/>
</g>
<!-- Node5 -->
<g id="node5" class="node">
<title>Node5</title>
<g id="a_node5"><a xlink:href="structarmnn_1_1_tile_descriptor.html" target="_top" xlink:title=" ">
<polygon fill="white" stroke="black" points="193,-141 193,-160 278,-160 278,-141 193,-141"/>
<text text-anchor="middle" x="235.5" y="-148" font-family="Helvetica,sans-Serif" font-size="10.00">TileDescriptor</text>
</a>
</g>
</g>
<!-- Node5&#45;&gt;Node2 -->
<g id="edge4" class="edge">
<title>Node5&#45;&gt;Node2</title>
<path fill="none" stroke="#9a32cd" stroke-dasharray="5,2" d="M228.75,-131.48C224.66,-122.72 218.64,-112.66 210.5,-106 200.13,-97.5 187.43,-91.19 174.69,-86.52"/>
<polygon fill="#9a32cd" stroke="#9a32cd" points="225.6,-133.02 232.68,-140.9 232.06,-130.32 225.6,-133.02"/>
<text text-anchor="middle" x="245" y="-109" font-family="Helvetica,sans-Serif" font-size="10.00"> m_Param</text>
</g>
<!-- Node6 -->
<g id="node6" class="node">
<title>Node6</title>
<g id="a_node6"><a xlink:href="structarmnn_1_1_base_descriptor.html" target="_top" xlink:title="Base class for all descriptors.">
<polygon fill="white" stroke="black" points="190,-203.5 190,-222.5 281,-222.5 281,-203.5 190,-203.5"/>
<text text-anchor="middle" x="235.5" y="-210.5" font-family="Helvetica,sans-Serif" font-size="10.00">BaseDescriptor</text>
</a>
</g>
</g>
<!-- Node6&#45;&gt;Node5 -->
<g id="edge5" class="edge">
<title>Node6&#45;&gt;Node5</title>
<path fill="none" stroke="midnightblue" d="M235.5,-193C235.5,-182 235.5,-168.68 235.5,-160.15"/>
<polygon fill="midnightblue" stroke="midnightblue" points="232,-193.33 235.5,-203.33 239,-193.33 232,-193.33"/>
</g>
<!-- Node7&#45;&gt;Node2 -->
<g id="edge6" class="edge">
<title>Node7&#45;&gt;Node2</title>
<path fill="none" stroke="orange" stroke-dasharray="5,2" d="M113.5,-125.09C113.5,-112.76 113.5,-98.22 113.5,-87.73"/>
<polygon fill="orange" stroke="orange" points="110,-125.2 113.5,-135.2 117,-125.21 110,-125.2"/>
<text text-anchor="middle" x="160.5" y="-109" font-family="Helvetica,sans-Serif" font-size="10.00"> &lt; TileDescriptor &gt;</text>
</g>
</g>
</svg>
