<?xml version="1.0" encoding="UTF-8" standalone="no"?>
<!DOCTYPE svg PUBLIC "-//W3C//DTD SVG 1.1//EN"
 "http://www.w3.org/Graphics/SVG/1.1/DTD/svg11.dtd">
<!-- Generated by graphviz version 2.43.0 (0)
 -->
<!-- Title: ArgMinMaxLayer Pages: 1 -->
<svg width="330pt" height="288pt"
 viewBox="0.00 0.00 329.50 288.00" xmlns="http://www.w3.org/2000/svg" xmlns:xlink="http://www.w3.org/1999/xlink">
<g id="graph0" class="graph" transform="scale(1 1) rotate(0) translate(4 284)">
<title>ArgMinMaxLayer</title>
<polygon fill="white" stroke="transparent" points="-4,4 -4,-284 325.5,-284 325.5,4 -4,4"/>
<!-- Node1 -->
<g id="node1" class="node">
<title>Node1</title>
<g id="a_node1"><a xlink:title="This layer represents a ArgMinMax operation.">
<polygon fill="#bfbfbf" stroke="black" points="56,-0.5 56,-19.5 155,-19.5 155,-0.5 56,-0.5"/>
<text text-anchor="middle" x="105.5" y="-7.5" font-family="Helvetica,sans-Serif" font-size="10.00">ArgMinMaxLayer</text>
</a>
</g>
</g>
<!-- Node2 -->
<g id="node2" class="node">
<title>Node2</title>
<g id="a_node2"><a xlink:href="classarmnn_1_1_layer_with_parameters.html" target="_top" xlink:title=" ">
<polygon fill="white" stroke="black" points="33,-57.5 33,-87.5 178,-87.5 178,-57.5 33,-57.5"/>
<text text-anchor="start" x="41" y="-75.5" font-family="Helvetica,sans-Serif" font-size="10.00">LayerWithParameters</text>
<text text-anchor="middle" x="105.5" y="-64.5" font-family="Helvetica,sans-Serif" font-size="10.00">&lt; ArgMinMaxDescriptor &gt;</text>
</a>
</g>
</g>
<!-- Node2&#45;&gt;Node1 -->
<g id="edge1" class="edge">
<title>Node2&#45;&gt;Node1</title>
<path fill="none" stroke="midnightblue" d="M105.5,-47.35C105.5,-37.51 105.5,-26.78 105.5,-19.54"/>
<polygon fill="midnightblue" stroke="midnightblue" points="102,-47.47 105.5,-57.47 109,-47.47 102,-47.47"/>
</g>
<!-- Node3 -->
<g id="node3" class="node">
<title>Node3</title>
<g id="a_node3"><a xlink:href="classarmnn_1_1_layer.html" target="_top" xlink:title=" ">
<polygon fill="white" stroke="black" points="31.5,-203.5 31.5,-222.5 75.5,-222.5 75.5,-203.5 31.5,-203.5"/>
<text text-anchor="middle" x="53.5" y="-210.5" font-family="Helvetica,sans-Serif" font-size="10.00">Layer</text>
</a>
</g>
</g>
<!-- Node3&#45;&gt;Node2 -->
<g id="edge2" class="edge">
<title>Node3&#45;&gt;Node2</title>
<path fill="none" stroke="midnightblue" d="M45.9,-193.29C40.57,-177.24 35.67,-153.81 43.5,-135 51.72,-115.27 69.69,-98.61 84.18,-87.64"/>
<polygon fill="midnightblue" stroke="midnightblue" points="42.76,-194.9 49.5,-203.07 49.33,-192.48 42.76,-194.9"/>
</g>
<!-- Node7 -->
<g id="node7" class="node">
<title>Node7</title>
<g id="a_node7"><a xlink:href="classarmnn_1_1_layer_with_parameters.html" target="_top" xlink:title=" ">
<polygon fill="white" stroke="black" points="52.5,-135.5 52.5,-165.5 174.5,-165.5 174.5,-135.5 52.5,-135.5"/>
<text text-anchor="start" x="60.5" y="-153.5" font-family="Helvetica,sans-Serif" font-size="10.00">LayerWithParameters</text>
<text text-anchor="middle" x="113.5" y="-142.5" font-family="Helvetica,sans-Serif" font-size="10.00">&lt; Parameters &gt;</text>
</a>
</g>
</g>
<!-- Node3&#45;&gt;Node7 -->
<g id="edge7" class="edge">
<title>Node3&#45;&gt;Node7</title>
<path fill="none" stroke="midnightblue" d="M69.26,-196.11C78.6,-186.69 90.32,-174.87 99.36,-165.76"/>
<polygon fill="midnightblue" stroke="midnightblue" points="66.65,-193.77 62.1,-203.33 71.62,-198.7 66.65,-193.77"/>
</g>
<!-- Node4 -->
<g id="node4" class="node">
<title>Node4</title>
<g id="a_node4"><a xlink:href="classarmnn_1_1_i_connectable_layer.html" target="_top" xlink:title="Interface for a layer that is connectable to other layers via InputSlots and OutputSlots.">
<polygon fill="white" stroke="black" points="0,-260.5 0,-279.5 107,-279.5 107,-260.5 0,-260.5"/>
<text text-anchor="middle" x="53.5" y="-267.5" font-family="Helvetica,sans-Serif" font-size="10.00">IConnectableLayer</text>
</a>
</g>
</g>
<!-- Node4&#45;&gt;Node3 -->
<g id="edge3" class="edge">
<title>Node4&#45;&gt;Node3</title>
<path fill="none" stroke="midnightblue" d="M53.5,-250.12C53.5,-240.82 53.5,-230.06 53.5,-222.71"/>
<polygon fill="midnightblue" stroke="midnightblue" points="50,-250.41 53.5,-260.41 57,-250.41 50,-250.41"/>
</g>
<!-- Node5 -->
<g id="node5" class="node">
<title>Node5</title>
<g id="a_node5"><a xlink:href="structarmnn_1_1_arg_min_max_descriptor.html" target="_top" xlink:title="An ArgMinMaxDescriptor for ArgMinMaxLayer.">
<polygon fill="white" stroke="black" points="199.5,-141 199.5,-160 321.5,-160 321.5,-141 199.5,-141"/>
<text text-anchor="middle" x="260.5" y="-148" font-family="Helvetica,sans-Serif" font-size="10.00">ArgMinMaxDescriptor</text>
</a>
</g>
</g>
<!-- Node5&#45;&gt;Node2 -->
<g id="edge4" class="edge">
<title>Node5&#45;&gt;Node2</title>
<path fill="none" stroke="#9a32cd" stroke-dasharray="5,2" d="M255.27,-131.23C251.85,-122.39 246.5,-112.35 238.5,-106 221.37,-92.4 199.38,-84.38 178.23,-79.68"/>
<polygon fill="#9a32cd" stroke="#9a32cd" points="251.96,-132.36 258.44,-140.75 258.6,-130.15 251.96,-132.36"/>
<text text-anchor="middle" x="273" y="-109" font-family="Helvetica,sans-Serif" font-size="10.00"> m_Param</text>
</g>
<!-- Node6 -->
<g id="node6" class="node">
<title>Node6</title>
<g id="a_node6"><a xlink:href="structarmnn_1_1_base_descriptor.html" target="_top" xlink:title="Base class for all descriptors.">
<polygon fill="white" stroke="black" points="215,-203.5 215,-222.5 306,-222.5 306,-203.5 215,-203.5"/>
<text text-anchor="middle" x="260.5" y="-210.5" font-family="Helvetica,sans-Serif" font-size="10.00">BaseDescriptor</text>
</a>
</g>
</g>
<!-- Node6&#45;&gt;Node5 -->
<g id="edge5" class="edge">
<title>Node6&#45;&gt;Node5</title>
<path fill="none" stroke="midnightblue" d="M260.5,-193C260.5,-182 260.5,-168.68 260.5,-160.15"/>
<polygon fill="midnightblue" stroke="midnightblue" points="257,-193.33 260.5,-203.33 264,-193.33 257,-193.33"/>
</g>
<!-- Node7&#45;&gt;Node2 -->
<g id="edge6" class="edge">
<title>Node7&#45;&gt;Node2</title>
<path fill="none" stroke="orange" stroke-dasharray="5,2" d="M107.79,-125.45C107.27,-122.62 106.83,-119.75 106.5,-117 105.35,-107.25 105.11,-96.18 105.15,-87.65"/>
<polygon fill="orange" stroke="orange" points="104.39,-126.28 109.85,-135.36 111.24,-124.86 104.39,-126.28"/>
<text text-anchor="middle" x="172.5" y="-109" font-family="Helvetica,sans-Serif" font-size="10.00"> &lt; ArgMinMaxDescriptor &gt;</text>
</g>
</g>
</svg>
