<?xml version="1.0" encoding="UTF-8" standalone="no"?>
<!DOCTYPE svg PUBLIC "-//W3C//DTD SVG 1.1//EN"
 "http://www.w3.org/Graphics/SVG/1.1/DTD/svg11.dtd">
<!-- Generated by graphviz version 2.43.0 (0)
 -->
<!-- Title: ClDepthToSpaceWorkload Pages: 1 -->
<svg width="453pt" height="298pt"
 viewBox="0.00 0.00 453.19 298.00" xmlns="http://www.w3.org/2000/svg" xmlns:xlink="http://www.w3.org/1999/xlink">
<g id="graph0" class="graph" transform="scale(1 1) rotate(0) translate(4 294)">
<title>ClDepthToSpaceWorkload</title>
<polygon fill="white" stroke="transparent" points="-4,4 -4,-294 449.19,-294 449.19,4 -4,4"/>
<!-- Node1 -->
<g id="node1" class="node">
<title>Node1</title>
<g id="a_node1"><a xlink:title=" ">
<polygon fill="#bfbfbf" stroke="black" points="139.69,-0.5 139.69,-19.5 280.69,-19.5 280.69,-0.5 139.69,-0.5"/>
<text text-anchor="middle" x="210.19" y="-7.5" font-family="Helvetica,sans-Serif" font-size="10.00">ClDepthToSpaceWorkload</text>
</a>
</g>
</g>
<!-- Node2 -->
<g id="node2" class="node">
<title>Node2</title>
<g id="a_node2"><a xlink:href="classarmnn_1_1_cl_base_workload.html" target="_top" xlink:title=" ">
<polygon fill="white" stroke="black" points="122.19,-57.5 122.19,-87.5 298.19,-87.5 298.19,-57.5 122.19,-57.5"/>
<text text-anchor="start" x="130.19" y="-75.5" font-family="Helvetica,sans-Serif" font-size="10.00">ClBaseWorkload&lt; DepthToSpace</text>
<text text-anchor="middle" x="210.19" y="-64.5" font-family="Helvetica,sans-Serif" font-size="10.00">QueueDescriptor &gt;</text>
</a>
</g>
</g>
<!-- Node2&#45;&gt;Node1 -->
<g id="edge1" class="edge">
<title>Node2&#45;&gt;Node1</title>
<path fill="none" stroke="midnightblue" d="M210.19,-47.35C210.19,-37.51 210.19,-26.78 210.19,-19.54"/>
<polygon fill="midnightblue" stroke="midnightblue" points="206.69,-47.47 210.19,-57.47 213.69,-47.47 206.69,-47.47"/>
</g>
<!-- Node3 -->
<g id="node3" class="node">
<title>Node3</title>
<g id="a_node3"><a xlink:href="classarmnn_1_1_base_workload.html" target="_top" xlink:title=" ">
<polygon fill="white" stroke="black" points="26.69,-135.5 26.69,-165.5 193.69,-165.5 193.69,-135.5 26.69,-135.5"/>
<text text-anchor="start" x="34.69" y="-153.5" font-family="Helvetica,sans-Serif" font-size="10.00">BaseWorkload&lt; DepthToSpace</text>
<text text-anchor="middle" x="110.19" y="-142.5" font-family="Helvetica,sans-Serif" font-size="10.00">QueueDescriptor &gt;</text>
</a>
</g>
</g>
<!-- Node3&#45;&gt;Node2 -->
<g id="edge2" class="edge">
<title>Node3&#45;&gt;Node2</title>
<path fill="none" stroke="midnightblue" d="M137.02,-129.11C154.22,-116.04 176.13,-99.39 191.47,-87.73"/>
<polygon fill="midnightblue" stroke="midnightblue" points="134.85,-126.37 129,-135.2 139.08,-131.94 134.85,-126.37"/>
</g>
<!-- Node4 -->
<g id="node4" class="node">
<title>Node4</title>
<g id="a_node4"><a xlink:href="classarmnn_1_1_i_workload.html" target="_top" xlink:title="Workload interface to enqueue a layer computation.">
<polygon fill="white" stroke="black" points="77.69,-270.5 77.69,-289.5 142.69,-289.5 142.69,-270.5 77.69,-270.5"/>
<text text-anchor="middle" x="110.19" y="-277.5" font-family="Helvetica,sans-Serif" font-size="10.00">IWorkload</text>
</a>
</g>
</g>
<!-- Node4&#45;&gt;Node3 -->
<g id="edge3" class="edge">
<title>Node4&#45;&gt;Node3</title>
<path fill="none" stroke="midnightblue" d="M67.71,-271.87C45.04,-265.68 19.04,-254.19 5.19,-233 -14.38,-203.06 28.24,-179.5 64.92,-165.57"/>
<polygon fill="midnightblue" stroke="midnightblue" points="66.95,-275.29 77.5,-274.29 68.63,-268.5 66.95,-275.29"/>
</g>
<!-- Node5 -->
<g id="node5" class="node">
<title>Node5</title>
<g id="a_node5"><a xlink:href="classarmnn_1_1_base_workload.html" target="_top" xlink:title=" ">
<polygon fill="white" stroke="black" points="14.69,-213.5 14.69,-232.5 205.69,-232.5 205.69,-213.5 14.69,-213.5"/>
<text text-anchor="middle" x="110.19" y="-220.5" font-family="Helvetica,sans-Serif" font-size="10.00">BaseWorkload&lt; QueueDescriptor &gt;</text>
</a>
</g>
</g>
<!-- Node4&#45;&gt;Node5 -->
<g id="edge5" class="edge">
<title>Node4&#45;&gt;Node5</title>
<path fill="none" stroke="midnightblue" d="M110.19,-260.12C110.19,-250.82 110.19,-240.06 110.19,-232.71"/>
<polygon fill="midnightblue" stroke="midnightblue" points="106.69,-260.41 110.19,-270.41 113.69,-260.41 106.69,-260.41"/>
</g>
<!-- Node7 -->
<g id="node7" class="node">
<title>Node7</title>
<g id="a_node7"><a xlink:href="classarmnn_1_1_base_workload.html" target="_top" xlink:title=" ">
<polygon fill="white" stroke="black" points="223.69,-213.5 223.69,-232.5 414.69,-232.5 414.69,-213.5 223.69,-213.5"/>
<text text-anchor="middle" x="319.19" y="-220.5" font-family="Helvetica,sans-Serif" font-size="10.00">BaseWorkload&lt; QueueDescriptor &gt;</text>
</a>
</g>
</g>
<!-- Node4&#45;&gt;Node7 -->
<g id="edge8" class="edge">
<title>Node4&#45;&gt;Node7</title>
<path fill="none" stroke="midnightblue" d="M152.76,-267.8C192.43,-257.36 250.74,-242.01 286.77,-232.53"/>
<polygon fill="midnightblue" stroke="midnightblue" points="151.63,-264.48 142.85,-270.41 153.41,-271.25 151.63,-264.48"/>
</g>
<!-- Node5&#45;&gt;Node3 -->
<g id="edge4" class="edge">
<title>Node5&#45;&gt;Node3</title>
<path fill="none" stroke="orange" stroke-dasharray="5,2" d="M110.19,-203.24C110.19,-191.41 110.19,-176.38 110.19,-165.58"/>
<polygon fill="orange" stroke="orange" points="106.69,-203.36 110.19,-213.36 113.69,-203.36 106.69,-203.36"/>
<text text-anchor="middle" x="198.69" y="-187" font-family="Helvetica,sans-Serif" font-size="10.00"> &lt; DepthToSpaceQueueDescriptor &gt;</text>
</g>
<!-- Node6 -->
<g id="node6" class="node">
<title>Node6</title>
<g id="a_node6"><a xlink:href="classarmnn_1_1_cl_base_workload.html" target="_top" xlink:title=" ">
<polygon fill="white" stroke="black" points="214.19,-141 214.19,-160 414.19,-160 414.19,-141 214.19,-141"/>
<text text-anchor="middle" x="314.19" y="-148" font-family="Helvetica,sans-Serif" font-size="10.00">ClBaseWorkload&lt; QueueDescriptor &gt;</text>
</a>
</g>
</g>
<!-- Node6&#45;&gt;Node2 -->
<g id="edge6" class="edge">
<title>Node6&#45;&gt;Node2</title>
<path fill="none" stroke="orange" stroke-dasharray="5,2" d="M294.13,-134.84C275.45,-121.19 247.78,-100.97 229.38,-87.52"/>
<polygon fill="orange" stroke="orange" points="292.12,-137.71 302.26,-140.78 296.25,-132.06 292.12,-137.71"/>
<text text-anchor="middle" x="356.69" y="-109" font-family="Helvetica,sans-Serif" font-size="10.00"> &lt; DepthToSpaceQueueDescriptor &gt;</text>
</g>
<!-- Node7&#45;&gt;Node6 -->
<g id="edge7" class="edge">
<title>Node7&#45;&gt;Node6</title>
<path fill="none" stroke="midnightblue" d="M317.87,-203.36C316.88,-189.4 315.57,-170.93 314.81,-160.22"/>
<polygon fill="midnightblue" stroke="midnightblue" points="314.38,-203.63 318.58,-213.36 321.36,-203.13 314.38,-203.63"/>
</g>
</g>
</svg>
