<?xml version="1.0" encoding="UTF-8" standalone="no"?>
<!DOCTYPE svg PUBLIC "-//W3C//DTD SVG 1.1//EN"
 "http://www.w3.org/Graphics/SVG/1.1/DTD/svg11.dtd">
<!-- Generated by graphviz version 2.43.0 (0)
 -->
<!-- Title: ClElementwiseBinaryWorkload Pages: 1 -->
<svg width="1229pt" height="90pt"
 viewBox="0.00 0.00 1229.00 90.13" xmlns="http://www.w3.org/2000/svg" xmlns:xlink="http://www.w3.org/1999/xlink">
<g id="graph0" class="graph" transform="scale(1 1) rotate(0) translate(4 86.13)">
<title>ClElementwiseBinaryWorkload</title>
<polygon fill="white" stroke="transparent" points="-4,4 -4,-86.13 1225,-86.13 1225,4 -4,4"/>
<!-- Node1 -->
<g id="node1" class="node">
<title>Node1</title>
<g id="a_node1"><a xlink:title=" ">
<polygon fill="#bfbfbf" stroke="black" points="1054,-22.5 1054,-41.5 1221,-41.5 1221,-22.5 1054,-22.5"/>
<text text-anchor="middle" x="1137.5" y="-29.5" font-family="Helvetica,sans-Serif" font-size="10.00">ClElementwiseBinaryWorkload</text>
</a>
</g>
</g>
<!-- Node2 -->
<g id="node2" class="node">
<title>Node2</title>
<g id="a_node2"><a xlink:href="classarmnn_1_1_cl_base_workload.html" target="_top" xlink:title=" ">
<polygon fill="white" stroke="black" points="847,-17 847,-47 1017,-47 1017,-17 847,-17"/>
<text text-anchor="start" x="855" y="-35" font-family="Helvetica,sans-Serif" font-size="10.00">ClBaseWorkload&lt; Elementwise</text>
<text text-anchor="middle" x="932" y="-24" font-family="Helvetica,sans-Serif" font-size="10.00">BinaryQueueDescriptor &gt;</text>
</a>
</g>
</g>
<!-- Node2&#45;&gt;Node1 -->
<g id="edge1" class="edge">
<title>Node2&#45;&gt;Node1</title>
<path fill="none" stroke="midnightblue" d="M1027.26,-32C1036.17,-32 1045.17,-32 1053.96,-32"/>
<polygon fill="midnightblue" stroke="midnightblue" points="1027.24,-28.5 1017.24,-32 1027.24,-35.5 1027.24,-28.5"/>
</g>
<!-- Node3 -->
<g id="node3" class="node">
<title>Node3</title>
<g id="a_node3"><a xlink:href="classarmnn_1_1_base_workload.html" target="_top" xlink:title=" ">
<polygon fill="white" stroke="black" points="489.5,-39 489.5,-69 650.5,-69 650.5,-39 489.5,-39"/>
<text text-anchor="start" x="497.5" y="-57" font-family="Helvetica,sans-Serif" font-size="10.00">BaseWorkload&lt; Elementwise</text>
<text text-anchor="middle" x="570" y="-46" font-family="Helvetica,sans-Serif" font-size="10.00">BinaryQueueDescriptor &gt;</text>
</a>
</g>
</g>
<!-- Node3&#45;&gt;Node2 -->
<g id="edge2" class="edge">
<title>Node3&#45;&gt;Node2</title>
<path fill="none" stroke="midnightblue" d="M660.98,-48.5C717.95,-45.02 791.14,-40.55 846.94,-37.14"/>
<polygon fill="midnightblue" stroke="midnightblue" points="660.66,-45.01 650.9,-49.12 661.09,-52 660.66,-45.01"/>
</g>
<!-- Node4 -->
<g id="node4" class="node">
<title>Node4</title>
<g id="a_node4"><a xlink:href="classarmnn_1_1_i_workload.html" target="_top" xlink:title="Workload interface to enqueue a layer computation.">
<polygon fill="white" stroke="black" points="0,-38.5 0,-57.5 65,-57.5 65,-38.5 0,-38.5"/>
<text text-anchor="middle" x="32.5" y="-45.5" font-family="Helvetica,sans-Serif" font-size="10.00">IWorkload</text>
</a>
</g>
</g>
<!-- Node4&#45;&gt;Node3 -->
<g id="edge3" class="edge">
<title>Node4&#45;&gt;Node3</title>
<path fill="none" stroke="midnightblue" d="M71.39,-60.4C81.25,-63.1 91.93,-65.57 102,-67 256.04,-88.8 296.88,-83.86 452,-72 464.09,-71.08 476.82,-69.62 489.26,-67.93"/>
<polygon fill="midnightblue" stroke="midnightblue" points="72.06,-56.95 61.48,-57.53 70.11,-63.67 72.06,-56.95"/>
</g>
<!-- Node5 -->
<g id="node5" class="node">
<title>Node5</title>
<g id="a_node5"><a xlink:href="classarmnn_1_1_base_workload.html" target="_top" xlink:title=" ">
<polygon fill="white" stroke="black" points="102,-38.5 102,-57.5 293,-57.5 293,-38.5 102,-38.5"/>
<text text-anchor="middle" x="197.5" y="-45.5" font-family="Helvetica,sans-Serif" font-size="10.00">BaseWorkload&lt; QueueDescriptor &gt;</text>
</a>
</g>
</g>
<!-- Node4&#45;&gt;Node5 -->
<g id="edge5" class="edge">
<title>Node4&#45;&gt;Node5</title>
<path fill="none" stroke="midnightblue" d="M75.34,-48C83.59,-48 92.56,-48 101.75,-48"/>
<polygon fill="midnightblue" stroke="midnightblue" points="75.32,-44.5 65.31,-48 75.31,-51.5 75.32,-44.5"/>
</g>
<!-- Node7 -->
<g id="node7" class="node">
<title>Node7</title>
<g id="a_node7"><a xlink:href="classarmnn_1_1_base_workload.html" target="_top" xlink:title=" ">
<polygon fill="white" stroke="black" points="102,-0.5 102,-19.5 293,-19.5 293,-0.5 102,-0.5"/>
<text text-anchor="middle" x="197.5" y="-7.5" font-family="Helvetica,sans-Serif" font-size="10.00">BaseWorkload&lt; QueueDescriptor &gt;</text>
</a>
</g>
</g>
<!-- Node4&#45;&gt;Node7 -->
<g id="edge8" class="edge">
<title>Node4&#45;&gt;Node7</title>
<path fill="none" stroke="midnightblue" d="M74.89,-36C83.8,-33.56 93.19,-31.1 102,-29 116,-25.66 131.26,-22.41 145.35,-19.58"/>
<polygon fill="midnightblue" stroke="midnightblue" points="73.79,-32.67 65.09,-38.72 75.66,-39.42 73.79,-32.67"/>
</g>
<!-- Node5&#45;&gt;Node3 -->
<g id="edge4" class="edge">
<title>Node5&#45;&gt;Node3</title>
<path fill="none" stroke="orange" stroke-dasharray="5,2" d="M303.22,-48.21C348.92,-48.46 403.11,-48.97 452,-50 464.09,-50.25 476.88,-50.61 489.39,-51"/>
<polygon fill="orange" stroke="orange" points="303.03,-44.71 293.01,-48.16 302.99,-51.71 303.03,-44.71"/>
<text text-anchor="start" x="311" y="-64" font-family="Helvetica,sans-Serif" font-size="10.00"> &lt; ElementwiseBinaryQueue</text>
<text text-anchor="middle" x="381.5" y="-53" font-family="Helvetica,sans-Serif" font-size="10.00">Descriptor &gt;</text>
</g>
<!-- Node6 -->
<g id="node6" class="node">
<title>Node6</title>
<g id="a_node6"><a xlink:href="classarmnn_1_1_cl_base_workload.html" target="_top" xlink:title=" ">
<polygon fill="white" stroke="black" points="470,-0.5 470,-19.5 670,-19.5 670,-0.5 470,-0.5"/>
<text text-anchor="middle" x="570" y="-7.5" font-family="Helvetica,sans-Serif" font-size="10.00">ClBaseWorkload&lt; QueueDescriptor &gt;</text>
</a>
</g>
</g>
<!-- Node6&#45;&gt;Node2 -->
<g id="edge6" class="edge">
<title>Node6&#45;&gt;Node2</title>
<path fill="none" stroke="orange" stroke-dasharray="5,2" d="M680.44,-7.11C726.42,-6.98 780.4,-8.23 829,-13 838.68,-13.95 848.82,-15.35 858.78,-16.96"/>
<polygon fill="orange" stroke="orange" points="680.13,-3.61 670.15,-7.16 680.17,-10.61 680.13,-3.61"/>
<text text-anchor="start" x="688" y="-27" font-family="Helvetica,sans-Serif" font-size="10.00"> &lt; ElementwiseBinaryQueue</text>
<text text-anchor="middle" x="758.5" y="-16" font-family="Helvetica,sans-Serif" font-size="10.00">Descriptor &gt;</text>
</g>
<!-- Node7&#45;&gt;Node6 -->
<g id="edge7" class="edge">
<title>Node7&#45;&gt;Node6</title>
<path fill="none" stroke="midnightblue" d="M303.71,-10C355.86,-10 418.48,-10 469.79,-10"/>
<polygon fill="midnightblue" stroke="midnightblue" points="303.43,-6.5 293.43,-10 303.43,-13.5 303.43,-6.5"/>
</g>
</g>
</svg>
