<?xml version="1.0" encoding="UTF-8" standalone="no"?>
<!DOCTYPE svg PUBLIC "-//W3C//DTD SVG 1.1//EN"
 "http://www.w3.org/Graphics/SVG/1.1/DTD/svg11.dtd">
<!-- Generated by graphviz version 2.43.0 (0)
 -->
<!-- Title: Graphical Class Hierarchy Pages: 1 -->
<svg width="250pt" height="78pt"
 viewBox="0.00 0.00 250.00 77.50" xmlns="http://www.w3.org/2000/svg" xmlns:xlink="http://www.w3.org/1999/xlink">
<g id="graph0" class="graph" transform="scale(1 1) rotate(0) translate(4 73.5)">
<title>Graphical Class Hierarchy</title>
<polygon fill="white" stroke="transparent" points="-4,4 -4,-73.5 246,-73.5 246,4 -4,4"/>
<!-- Node973 -->
<g id="node1" class="node">
<title>Node973</title>
<g id="a_node1"><a xlink:title=" ">
<polygon fill="white" stroke="#bfbfbf" points="0,-28 0,-47 101,-47 101,-28 0,-28"/>
<text text-anchor="middle" x="50.5" y="-35" font-family="Helvetica,sans-Serif" font-size="10.00">integral_constant</text>
</a>
</g>
</g>
<!-- Node0 -->
<g id="node2" class="node">
<title>Node0</title>
<g id="a_node2"><a xlink:href="structarmnn_1_1_is_half_type.html" target="_top" xlink:title=" ">
<polygon fill="white" stroke="black" points="141.5,-50 141.5,-69 237.5,-69 237.5,-50 141.5,-50"/>
<text text-anchor="middle" x="189.5" y="-57" font-family="Helvetica,sans-Serif" font-size="10.00">IsHalfType&lt; T &gt;</text>
</a>
</g>
</g>
<!-- Node973&#45;&gt;Node0 -->
<g id="edge1" class="edge">
<title>Node973&#45;&gt;Node0</title>
<path fill="none" stroke="midnightblue" d="M111.25,-47.1C121.27,-48.7 131.55,-50.35 141.2,-51.9"/>
<polygon fill="midnightblue" stroke="midnightblue" points="111.78,-43.63 101.35,-45.5 110.67,-50.55 111.78,-43.63"/>
</g>
<!-- Node975 -->
<g id="node3" class="node">
<title>Node975</title>
<g id="a_node3"><a xlink:href="structstd_1_1is__floating__point_3_01armnn_1_1_half_01_4.html" target="_top" xlink:title=" ">
<polygon fill="white" stroke="black" points="137,-0.5 137,-30.5 242,-30.5 242,-0.5 137,-0.5"/>
<text text-anchor="start" x="145" y="-18.5" font-family="Helvetica,sans-Serif" font-size="10.00">is_floating_point&lt;</text>
<text text-anchor="middle" x="189.5" y="-7.5" font-family="Helvetica,sans-Serif" font-size="10.00"> armnn::Half &gt;</text>
</a>
</g>
</g>
<!-- Node973&#45;&gt;Node975 -->
<g id="edge2" class="edge">
<title>Node973&#45;&gt;Node975</title>
<path fill="none" stroke="midnightblue" d="M111.45,-27.87C119.84,-26.53 128.4,-25.15 136.62,-23.83"/>
<polygon fill="midnightblue" stroke="midnightblue" points="110.67,-24.45 101.35,-29.5 111.78,-31.37 110.67,-24.45"/>
</g>
</g>
</svg>
