<?xml version="1.0" encoding="UTF-8" standalone="no"?>
<!DOCTYPE svg PUBLIC "-//W3C//DTD SVG 1.1//EN"
 "http://www.w3.org/Graphics/SVG/1.1/DTD/svg11.dtd">
<!-- Generated by graphviz version 2.43.0 (0)
 -->
<!-- Title: NeonRankWorkload Pages: 1 -->
<svg width="1258pt" height="163pt"
 viewBox="0.00 0.00 1258.00 163.00" xmlns="http://www.w3.org/2000/svg" xmlns:xlink="http://www.w3.org/1999/xlink">
<g id="graph0" class="graph" transform="scale(1 1) rotate(0) translate(4 159)">
<title>NeonRankWorkload</title>
<polygon fill="white" stroke="transparent" points="-4,4 -4,-159 1254,-159 1254,4 -4,4"/>
<!-- Node1 -->
<g id="node1" class="node">
<title>Node1</title>
<g id="a_node1"><a xlink:title=" ">
<polygon fill="#bfbfbf" stroke="black" points="1137,-36.5 1137,-55.5 1250,-55.5 1250,-36.5 1137,-36.5"/>
<text text-anchor="middle" x="1193.5" y="-43.5" font-family="Helvetica,sans-Serif" font-size="10.00">NeonRankWorkload</text>
</a>
</g>
</g>
<!-- Node2 -->
<g id="node2" class="node">
<title>Node2</title>
<g id="a_node2"><a xlink:href="classarmnn_1_1_neon_base_workload.html" target="_top" xlink:title=" ">
<polygon fill="white" stroke="black" points="921,-31 921,-61 1100,-61 1100,-31 921,-31"/>
<text text-anchor="start" x="929" y="-49" font-family="Helvetica,sans-Serif" font-size="10.00">NeonBaseWorkload&lt; RankQueue</text>
<text text-anchor="middle" x="1010.5" y="-38" font-family="Helvetica,sans-Serif" font-size="10.00">Descriptor &gt;</text>
</a>
</g>
</g>
<!-- Node2&#45;&gt;Node1 -->
<g id="edge1" class="edge">
<title>Node2&#45;&gt;Node1</title>
<path fill="none" stroke="midnightblue" d="M1110.42,-46C1119.5,-46 1128.46,-46 1136.94,-46"/>
<polygon fill="midnightblue" stroke="midnightblue" points="1110.14,-42.5 1100.14,-46 1110.14,-49.5 1110.14,-42.5"/>
</g>
<!-- Node3 -->
<g id="node3" class="node">
<title>Node3</title>
<g id="a_node3"><a xlink:href="classarmnn_1_1_base_workload.html" target="_top" xlink:title=" ">
<polygon fill="white" stroke="black" points="536.5,-60.5 536.5,-79.5 751.5,-79.5 751.5,-60.5 536.5,-60.5"/>
<text text-anchor="middle" x="644" y="-67.5" font-family="Helvetica,sans-Serif" font-size="10.00">BaseWorkload&lt; RankQueueDescriptor &gt;</text>
</a>
</g>
</g>
<!-- Node3&#45;&gt;Node2 -->
<g id="edge2" class="edge">
<title>Node3&#45;&gt;Node2</title>
<path fill="none" stroke="midnightblue" d="M762.08,-62.29C813.55,-58.9 873.01,-54.99 920.73,-51.84"/>
<polygon fill="midnightblue" stroke="midnightblue" points="761.65,-58.81 751.9,-62.96 762.11,-65.8 761.65,-58.81"/>
</g>
<!-- Node4 -->
<g id="node4" class="node">
<title>Node4</title>
<g id="a_node4"><a xlink:href="classarmnn_1_1_i_workload.html" target="_top" xlink:title="Workload interface to enqueue a layer computation.">
<polygon fill="white" stroke="black" points="16.5,-38.5 16.5,-57.5 81.5,-57.5 81.5,-38.5 16.5,-38.5"/>
<text text-anchor="middle" x="49" y="-45.5" font-family="Helvetica,sans-Serif" font-size="10.00">IWorkload</text>
</a>
</g>
</g>
<!-- Node4&#45;&gt;Node3 -->
<g id="edge3" class="edge">
<title>Node4&#45;&gt;Node3</title>
<path fill="none" stroke="midnightblue" d="M91.88,-49.55C183.44,-52.95 403.81,-61.13 536.49,-66.05"/>
<polygon fill="midnightblue" stroke="midnightblue" points="92.01,-46.06 81.88,-49.18 91.75,-53.05 92.01,-46.06"/>
</g>
<!-- Node7 -->
<g id="node7" class="node">
<title>Node7</title>
<g id="a_node7"><a xlink:href="classarmnn_1_1_base_workload.html" target="_top" xlink:title=" ">
<polygon fill="white" stroke="black" points="176,-76.5 176,-95.5 367,-95.5 367,-76.5 176,-76.5"/>
<text text-anchor="middle" x="271.5" y="-83.5" font-family="Helvetica,sans-Serif" font-size="10.00">BaseWorkload&lt; QueueDescriptor &gt;</text>
</a>
</g>
</g>
<!-- Node4&#45;&gt;Node7 -->
<g id="edge7" class="edge">
<title>Node4&#45;&gt;Node7</title>
<path fill="none" stroke="midnightblue" d="M91.47,-55.15C126.41,-61.17 176.71,-69.84 215.1,-76.45"/>
<polygon fill="midnightblue" stroke="midnightblue" points="92.04,-51.69 81.59,-53.44 90.85,-58.59 92.04,-51.69"/>
</g>
<!-- Node9 -->
<g id="node9" class="node">
<title>Node9</title>
<g id="a_node9"><a xlink:href="classarmnn_1_1_base_workload.html" target="_top" xlink:title=" ">
<polygon fill="white" stroke="black" points="176,-0.5 176,-19.5 367,-19.5 367,-0.5 176,-0.5"/>
<text text-anchor="middle" x="271.5" y="-7.5" font-family="Helvetica,sans-Serif" font-size="10.00">BaseWorkload&lt; QueueDescriptor &gt;</text>
</a>
</g>
</g>
<!-- Node4&#45;&gt;Node9 -->
<g id="edge11" class="edge">
<title>Node4&#45;&gt;Node9</title>
<path fill="none" stroke="midnightblue" d="M91.76,-38.78C99.79,-37.11 108.14,-35.44 116,-34 144.7,-28.73 176.54,-23.65 203.82,-19.54"/>
<polygon fill="midnightblue" stroke="midnightblue" points="90.88,-35.39 81.82,-40.88 92.33,-42.24 90.88,-35.39"/>
</g>
<!-- Node5 -->
<g id="node5" class="node">
<title>Node5</title>
<g id="a_node5"><a xlink:href="structarmnn_1_1_rank_queue_descriptor.html" target="_top" xlink:title=" ">
<polygon fill="white" stroke="black" points="210,-135.5 210,-154.5 333,-154.5 333,-135.5 210,-135.5"/>
<text text-anchor="middle" x="271.5" y="-142.5" font-family="Helvetica,sans-Serif" font-size="10.00">RankQueueDescriptor</text>
</a>
</g>
</g>
<!-- Node5&#45;&gt;Node3 -->
<g id="edge4" class="edge">
<title>Node5&#45;&gt;Node3</title>
<path fill="none" stroke="#9a32cd" stroke-dasharray="5,2" d="M329.76,-133.41C402.91,-118.6 528.13,-93.25 595.98,-79.52"/>
<polygon fill="#9a32cd" stroke="#9a32cd" points="328.91,-130.01 319.8,-135.43 330.3,-136.87 328.91,-130.01"/>
<text text-anchor="middle" x="451.5" y="-123" font-family="Helvetica,sans-Serif" font-size="10.00"> m_Data</text>
</g>
<!-- Node6 -->
<g id="node6" class="node">
<title>Node6</title>
<g id="a_node6"><a xlink:href="structarmnn_1_1_queue_descriptor.html" target="_top" xlink:title=" ">
<polygon fill="white" stroke="black" points="0,-130.5 0,-149.5 98,-149.5 98,-130.5 0,-130.5"/>
<text text-anchor="middle" x="49" y="-137.5" font-family="Helvetica,sans-Serif" font-size="10.00">QueueDescriptor</text>
</a>
</g>
</g>
<!-- Node6&#45;&gt;Node5 -->
<g id="edge5" class="edge">
<title>Node6&#45;&gt;Node5</title>
<path fill="none" stroke="midnightblue" d="M106.56,-150.97C109.75,-151.37 112.91,-151.72 116,-152 146.89,-154.79 181.35,-153.63 209.88,-151.53"/>
<polygon fill="midnightblue" stroke="midnightblue" points="106.77,-147.46 96.37,-149.51 105.78,-154.39 106.77,-147.46"/>
</g>
<!-- Node6&#45;&gt;Node7 -->
<g id="edge8" class="edge">
<title>Node6&#45;&gt;Node7</title>
<path fill="none" stroke="#9a32cd" stroke-dasharray="5,2" d="M107.94,-129.04C124.19,-125.74 141.83,-121.94 158,-118 185.62,-111.27 216.68,-102.33 239.15,-95.61"/>
<polygon fill="#9a32cd" stroke="#9a32cd" points="107.14,-125.63 98.02,-131.03 108.52,-132.5 107.14,-125.63"/>
<text text-anchor="middle" x="137" y="-130" font-family="Helvetica,sans-Serif" font-size="10.00"> m_Data</text>
</g>
<!-- Node6&#45;&gt;Node9 -->
<g id="edge12" class="edge">
<title>Node6&#45;&gt;Node9</title>
<path fill="none" stroke="#9a32cd" stroke-dasharray="5,2" d="M74.88,-125.33C120.44,-98.47 216.09,-42.08 254.26,-19.57"/>
<polygon fill="#9a32cd" stroke="#9a32cd" points="73.05,-122.35 66.21,-130.44 76.61,-128.38 73.05,-122.35"/>
<text text-anchor="middle" x="137" y="-100" font-family="Helvetica,sans-Serif" font-size="10.00"> m_Data</text>
</g>
<!-- Node7&#45;&gt;Node3 -->
<g id="edge6" class="edge">
<title>Node7&#45;&gt;Node3</title>
<path fill="none" stroke="orange" stroke-dasharray="5,2" d="M377.55,-81.46C427.19,-79.32 486.35,-76.76 536.22,-74.61"/>
<polygon fill="orange" stroke="orange" points="377.27,-77.97 367.43,-81.9 377.57,-84.97 377.27,-77.97"/>
<text text-anchor="middle" x="451.5" y="-83" font-family="Helvetica,sans-Serif" font-size="10.00"> &lt; RankQueueDescriptor &gt;</text>
</g>
<!-- Node8 -->
<g id="node8" class="node">
<title>Node8</title>
<g id="a_node8"><a xlink:href="classarmnn_1_1_neon_base_workload.html" target="_top" xlink:title=" ">
<polygon fill="white" stroke="black" points="536,-17.5 536,-36.5 752,-36.5 752,-17.5 536,-17.5"/>
<text text-anchor="middle" x="644" y="-24.5" font-family="Helvetica,sans-Serif" font-size="10.00">NeonBaseWorkload&lt; QueueDescriptor &gt;</text>
</a>
</g>
</g>
<!-- Node8&#45;&gt;Node2 -->
<g id="edge9" class="edge">
<title>Node8&#45;&gt;Node2</title>
<path fill="none" stroke="orange" stroke-dasharray="5,2" d="M762.26,-30.42C806.4,-32 857.03,-34.17 903,-37 908.83,-37.36 914.84,-37.77 920.9,-38.2"/>
<polygon fill="orange" stroke="orange" points="762.18,-26.91 752.07,-30.06 761.94,-33.91 762.18,-26.91"/>
<text text-anchor="middle" x="836.5" y="-40" font-family="Helvetica,sans-Serif" font-size="10.00"> &lt; RankQueueDescriptor &gt;</text>
</g>
<!-- Node9&#45;&gt;Node8 -->
<g id="edge10" class="edge">
<title>Node9&#45;&gt;Node8</title>
<path fill="none" stroke="midnightblue" d="M377.53,-14.82C427.06,-17.09 486.08,-19.8 535.88,-22.09"/>
<polygon fill="midnightblue" stroke="midnightblue" points="377.58,-11.32 367.43,-14.36 377.26,-18.31 377.58,-11.32"/>
</g>
</g>
</svg>
