<?xml version="1.0" encoding="UTF-8" standalone="no"?>
<!DOCTYPE svg PUBLIC "-//W3C//DTD SVG 1.1//EN"
 "http://www.w3.org/Graphics/SVG/1.1/DTD/svg11.dtd">
<!-- Generated by graphviz version 2.43.0 (0)
 -->
<!-- Title: src/backends/cl/workloads/ClBatchNormalizationFloatWorkload.hpp Pages: 1 -->
<svg width="780pt" height="173pt"
 viewBox="0.00 0.00 780.00 173.00" xmlns="http://www.w3.org/2000/svg" xmlns:xlink="http://www.w3.org/1999/xlink">
<g id="graph0" class="graph" transform="scale(1 1) rotate(0) translate(4 169)">
<title>src/backends/cl/workloads/ClBatchNormalizationFloatWorkload.hpp</title>
<polygon fill="white" stroke="transparent" points="-4,4 -4,-169 776,-169 776,4 -4,4"/>
<!-- Node1 -->
<g id="node1" class="node">
<title>Node1</title>
<g id="a_node1"><a xlink:title=" ">
<polygon fill="#bfbfbf" stroke="black" points="278.5,-134.5 278.5,-164.5 496.5,-164.5 496.5,-134.5 278.5,-134.5"/>
<text text-anchor="start" x="286.5" y="-152.5" font-family="Helvetica,sans-Serif" font-size="10.00">src/backends/cl/workloads</text>
<text text-anchor="middle" x="387.5" y="-141.5" font-family="Helvetica,sans-Serif" font-size="10.00">/ClBatchNormalizationFloatWorkload.hpp</text>
</a>
</g>
</g>
<!-- Node2 -->
<g id="node2" class="node">
<title>Node2</title>
<g id="a_node2"><a xlink:href="_cl_backend_8cpp.html" target="_top" xlink:title=" ">
<polygon fill="white" stroke="black" points="0,-73 0,-92 165,-92 165,-73 0,-73"/>
<text text-anchor="middle" x="82.5" y="-80" font-family="Helvetica,sans-Serif" font-size="10.00">src/backends/cl/ClBackend.cpp</text>
</a>
</g>
</g>
<!-- Node1&#45;&gt;Node2 -->
<g id="edge1" class="edge">
<title>Node1&#45;&gt;Node2</title>
<path fill="none" stroke="midnightblue" d="M311.89,-132.39C251.93,-119.61 170.5,-102.25 122.52,-92.03"/>
<polygon fill="midnightblue" stroke="midnightblue" points="311.19,-135.81 321.7,-134.48 312.64,-128.97 311.19,-135.81"/>
</g>
<!-- Node3 -->
<g id="node3" class="node">
<title>Node3</title>
<g id="a_node3"><a xlink:href="_cl_layer_support_8cpp.html" target="_top" xlink:title=" ">
<polygon fill="white" stroke="black" points="183.5,-73 183.5,-92 371.5,-92 371.5,-73 183.5,-73"/>
<text text-anchor="middle" x="277.5" y="-80" font-family="Helvetica,sans-Serif" font-size="10.00">src/backends/cl/ClLayerSupport.cpp</text>
</a>
</g>
</g>
<!-- Node1&#45;&gt;Node3 -->
<g id="edge2" class="edge">
<title>Node1&#45;&gt;Node3</title>
<path fill="none" stroke="midnightblue" d="M355.02,-129.31C334.07,-116.93 307.84,-101.43 291.9,-92.01"/>
<polygon fill="midnightblue" stroke="midnightblue" points="353.24,-132.32 363.63,-134.4 356.8,-126.3 353.24,-132.32"/>
</g>
<!-- Node4 -->
<g id="node4" class="node">
<title>Node4</title>
<g id="a_node4"><a xlink:href="_cl_batch_normalization_float_workload_8cpp.html" target="_top" xlink:title=" ">
<polygon fill="white" stroke="black" points="390,-67.5 390,-97.5 607,-97.5 607,-67.5 390,-67.5"/>
<text text-anchor="start" x="398" y="-85.5" font-family="Helvetica,sans-Serif" font-size="10.00">src/backends/cl/workloads</text>
<text text-anchor="middle" x="498.5" y="-74.5" font-family="Helvetica,sans-Serif" font-size="10.00">/ClBatchNormalizationFloatWorkload.cpp</text>
</a>
</g>
</g>
<!-- Node1&#45;&gt;Node4 -->
<g id="edge3" class="edge">
<title>Node1&#45;&gt;Node4</title>
<path fill="none" stroke="midnightblue" d="M420.3,-129.3C437.66,-119.12 458.62,-106.85 474.46,-97.58"/>
<polygon fill="midnightblue" stroke="midnightblue" points="418.45,-126.32 411.59,-134.4 421.98,-132.36 418.45,-126.32"/>
</g>
<!-- Node5 -->
<g id="node5" class="node">
<title>Node5</title>
<g id="a_node5"><a xlink:href="_cl_workloads_8hpp.html" target="_top" xlink:title=" ">
<polygon fill="white" stroke="black" points="625.5,-67.5 625.5,-97.5 769.5,-97.5 769.5,-67.5 625.5,-67.5"/>
<text text-anchor="start" x="633.5" y="-85.5" font-family="Helvetica,sans-Serif" font-size="10.00">src/backends/cl/workloads</text>
<text text-anchor="middle" x="697.5" y="-74.5" font-family="Helvetica,sans-Serif" font-size="10.00">/ClWorkloads.hpp</text>
</a>
</g>
</g>
<!-- Node1&#45;&gt;Node5 -->
<g id="edge4" class="edge">
<title>Node1&#45;&gt;Node5</title>
<path fill="none" stroke="midnightblue" d="M464.37,-132.38C515.36,-121.69 581.63,-107.8 630.47,-97.55"/>
<polygon fill="midnightblue" stroke="midnightblue" points="463.45,-129 454.38,-134.48 464.89,-135.85 463.45,-129"/>
</g>
<!-- Node6 -->
<g id="node6" class="node">
<title>Node6</title>
<g id="a_node6"><a xlink:href="_cl_workload_factory_8cpp.html" target="_top" xlink:title=" ">
<polygon fill="white" stroke="black" points="623,-0.5 623,-30.5 772,-30.5 772,-0.5 623,-0.5"/>
<text text-anchor="start" x="631" y="-18.5" font-family="Helvetica,sans-Serif" font-size="10.00">src/backends/cl/ClWorkload</text>
<text text-anchor="middle" x="697.5" y="-7.5" font-family="Helvetica,sans-Serif" font-size="10.00">Factory.cpp</text>
</a>
</g>
</g>
<!-- Node5&#45;&gt;Node6 -->
<g id="edge5" class="edge">
<title>Node5&#45;&gt;Node6</title>
<path fill="none" stroke="midnightblue" d="M697.5,-57.11C697.5,-48.15 697.5,-38.32 697.5,-30.58"/>
<polygon fill="midnightblue" stroke="midnightblue" points="694,-57.4 697.5,-67.4 701,-57.4 694,-57.4"/>
</g>
</g>
</svg>
