<?xml version="1.0" encoding="UTF-8" standalone="no"?>
<!DOCTYPE svg PUBLIC "-//W3C//DTD SVG 1.1//EN"
 "http://www.w3.org/Graphics/SVG/1.1/DTD/svg11.dtd">
<!-- Generated by graphviz version 2.43.0 (0)
 -->
<!-- Title: src/armnnTestUtils/DataTypeUtils.hpp Pages: 1 -->
<svg width="1199pt" height="509pt"
 viewBox="0.00 0.00 1198.50 509.00" xmlns="http://www.w3.org/2000/svg" xmlns:xlink="http://www.w3.org/1999/xlink">
<g id="graph0" class="graph" transform="scale(1 1) rotate(0) translate(4 505)">
<title>src/armnnTestUtils/DataTypeUtils.hpp</title>
<polygon fill="white" stroke="transparent" points="-4,4 -4,-505 1194.5,-505 1194.5,4 -4,4"/>
<!-- Node1 -->
<g id="node1" class="node">
<title>Node1</title>
<g id="a_node1"><a xlink:title=" ">
<polygon fill="#bfbfbf" stroke="black" points="317.5,-470.5 317.5,-500.5 426.5,-500.5 426.5,-470.5 317.5,-470.5"/>
<text text-anchor="start" x="325.5" y="-488.5" font-family="Helvetica,sans-Serif" font-size="10.00">src/armnnTestUtils</text>
<text text-anchor="middle" x="372" y="-477.5" font-family="Helvetica,sans-Serif" font-size="10.00">/DataTypeUtils.hpp</text>
</a>
</g>
</g>
<!-- Node2 -->
<g id="node2" class="node">
<title>Node2</title>
<g id="a_node2"><a xlink:href="_resolve_type_8hpp.html" target="_top" xlink:title=" ">
<polygon fill="white" stroke="black" points="967.5,-168.5 967.5,-187.5 1066.5,-187.5 1066.5,-168.5 967.5,-168.5"/>
<text text-anchor="middle" x="1017" y="-175.5" font-family="Helvetica,sans-Serif" font-size="10.00">ResolveType.hpp</text>
</a>
</g>
</g>
<!-- Node1&#45;&gt;Node2 -->
<g id="edge1" class="edge">
<title>Node1&#45;&gt;Node2</title>
<path fill="none" stroke="midnightblue" d="M426.74,-480.14C588.81,-466.51 1055,-421.76 1055,-358 1055,-358 1055,-358 1055,-294.5 1055,-258.25 1037.91,-218.67 1026.65,-196.53"/>
<polygon fill="midnightblue" stroke="midnightblue" points="1029.73,-194.87 1021.97,-187.66 1023.54,-198.14 1029.73,-194.87"/>
</g>
<!-- Node14 -->
<g id="node14" class="node">
<title>Node14</title>
<g id="a_node14"><a xlink:title=" ">
<polygon fill="white" stroke="#bfbfbf" points="33.5,-0.5 33.5,-19.5 80.5,-19.5 80.5,-0.5 33.5,-0.5"/>
<text text-anchor="middle" x="57" y="-7.5" font-family="Helvetica,sans-Serif" font-size="10.00">vector</text>
</a>
</g>
</g>
<!-- Node1&#45;&gt;Node14 -->
<g id="edge69" class="edge">
<title>Node1&#45;&gt;Node14</title>
<path fill="none" stroke="midnightblue" d="M317.11,-477.48C213.63,-462.7 0,-424.17 0,-358 0,-358 0,-358 0,-121 0,-84.3 25.32,-47.66 42.21,-27.3"/>
<polygon fill="midnightblue" stroke="midnightblue" points="44.95,-29.48 48.83,-19.62 39.65,-24.9 44.95,-29.48"/>
</g>
<!-- Node25 -->
<g id="node25" class="node">
<title>Node25</title>
<g id="a_node25"><a xlink:href="_encoders_8hpp.html" target="_top" xlink:title=" ">
<polygon fill="white" stroke="black" points="314,-403.5 314,-433.5 430,-433.5 430,-403.5 314,-403.5"/>
<text text-anchor="start" x="322" y="-421.5" font-family="Helvetica,sans-Serif" font-size="10.00">reference/workloads</text>
<text text-anchor="middle" x="372" y="-410.5" font-family="Helvetica,sans-Serif" font-size="10.00">/Encoders.hpp</text>
</a>
</g>
</g>
<!-- Node1&#45;&gt;Node25 -->
<g id="edge27" class="edge">
<title>Node1&#45;&gt;Node25</title>
<path fill="none" stroke="midnightblue" d="M372,-470.4C372,-462.64 372,-452.81 372,-443.86"/>
<polygon fill="midnightblue" stroke="midnightblue" points="375.5,-443.58 372,-433.58 368.5,-443.58 375.5,-443.58"/>
</g>
<!-- Node3 -->
<g id="node3" class="node">
<title>Node3</title>
<g id="a_node3"><a xlink:href="_types_8hpp.html" target="_top" xlink:title=" ">
<polygon fill="white" stroke="black" points="346,-112.5 346,-131.5 446,-131.5 446,-112.5 346,-112.5"/>
<text text-anchor="middle" x="396" y="-119.5" font-family="Helvetica,sans-Serif" font-size="10.00">armnn/Types.hpp</text>
</a>
</g>
</g>
<!-- Node2&#45;&gt;Node3 -->
<g id="edge2" class="edge">
<title>Node2&#45;&gt;Node3</title>
<path fill="none" stroke="midnightblue" d="M967.49,-172.69C854.69,-162.89 578.91,-138.91 456.38,-128.25"/>
<polygon fill="midnightblue" stroke="midnightblue" points="456.33,-124.73 446.06,-127.35 455.72,-131.71 456.33,-124.73"/>
</g>
<!-- Node19 -->
<g id="node19" class="node">
<title>Node19</title>
<g id="a_node19"><a xlink:href="_b_float16_8hpp.html" target="_top" xlink:title=" ">
<polygon fill="white" stroke="black" points="791.5,-112.5 791.5,-131.5 872.5,-131.5 872.5,-112.5 791.5,-112.5"/>
<text text-anchor="middle" x="832" y="-119.5" font-family="Helvetica,sans-Serif" font-size="10.00">BFloat16.hpp</text>
</a>
</g>
</g>
<!-- Node2&#45;&gt;Node19 -->
<g id="edge19" class="edge">
<title>Node2&#45;&gt;Node19</title>
<path fill="none" stroke="midnightblue" d="M987.69,-168.44C956.16,-159.24 905.87,-144.56 871.01,-134.39"/>
<polygon fill="midnightblue" stroke="midnightblue" points="871.76,-130.96 861.18,-131.52 869.8,-137.68 871.76,-130.96"/>
</g>
<!-- Node22 -->
<g id="node22" class="node">
<title>Node22</title>
<g id="a_node22"><a xlink:href="_half_8hpp.html" target="_top" xlink:title=" ">
<polygon fill="white" stroke="black" points="1123.5,-112.5 1123.5,-131.5 1180.5,-131.5 1180.5,-112.5 1123.5,-112.5"/>
<text text-anchor="middle" x="1152" y="-119.5" font-family="Helvetica,sans-Serif" font-size="10.00">Half.hpp</text>
</a>
</g>
</g>
<!-- Node2&#45;&gt;Node22 -->
<g id="edge24" class="edge">
<title>Node2&#45;&gt;Node22</title>
<path fill="none" stroke="midnightblue" d="M1038.39,-168.44C1060.71,-159.52 1095.9,-145.44 1121.21,-135.32"/>
<polygon fill="midnightblue" stroke="midnightblue" points="1122.72,-138.48 1130.71,-131.52 1120.12,-131.98 1122.72,-138.48"/>
</g>
<!-- Node4 -->
<g id="node4" class="node">
<title>Node4</title>
<g id="a_node4"><a xlink:title=" ">
<polygon fill="white" stroke="#bfbfbf" points="104,-56.5 104,-75.5 146,-75.5 146,-56.5 104,-56.5"/>
<text text-anchor="middle" x="125" y="-63.5" font-family="Helvetica,sans-Serif" font-size="10.00">array</text>
</a>
</g>
</g>
<!-- Node3&#45;&gt;Node4 -->
<g id="edge3" class="edge">
<title>Node3&#45;&gt;Node4</title>
<path fill="none" stroke="midnightblue" d="M345.82,-113.24C299.04,-105.64 227.17,-93.05 156.23,-76.1"/>
<polygon fill="midnightblue" stroke="midnightblue" points="156.77,-72.63 146.23,-73.67 155.12,-79.43 156.77,-72.63"/>
</g>
<!-- Node5 -->
<g id="node5" class="node">
<title>Node5</title>
<g id="a_node5"><a xlink:title=" ">
<polygon fill="white" stroke="#bfbfbf" points="164.5,-56.5 164.5,-75.5 229.5,-75.5 229.5,-56.5 164.5,-56.5"/>
<text text-anchor="middle" x="197" y="-63.5" font-family="Helvetica,sans-Serif" font-size="10.00">functional</text>
</a>
</g>
</g>
<!-- Node3&#45;&gt;Node5 -->
<g id="edge4" class="edge">
<title>Node3&#45;&gt;Node5</title>
<path fill="none" stroke="midnightblue" d="M364.47,-112.44C330.41,-103.2 275.99,-88.44 238.48,-78.26"/>
<polygon fill="midnightblue" stroke="midnightblue" points="238.95,-74.76 228.38,-75.52 237.12,-81.51 238.95,-74.76"/>
</g>
<!-- Node6 -->
<g id="node6" class="node">
<title>Node6</title>
<g id="a_node6"><a xlink:title=" ">
<polygon fill="white" stroke="#bfbfbf" points="428.5,-56.5 428.5,-75.5 481.5,-75.5 481.5,-56.5 428.5,-56.5"/>
<text text-anchor="middle" x="455" y="-63.5" font-family="Helvetica,sans-Serif" font-size="10.00">stdint.h</text>
</a>
</g>
</g>
<!-- Node3&#45;&gt;Node6 -->
<g id="edge5" class="edge">
<title>Node3&#45;&gt;Node6</title>
<path fill="none" stroke="midnightblue" d="M405.48,-112.32C414.2,-104.34 427.34,-92.31 437.9,-82.65"/>
<polygon fill="midnightblue" stroke="midnightblue" points="440.33,-85.17 445.35,-75.83 435.61,-80 440.33,-85.17"/>
</g>
<!-- Node7 -->
<g id="node7" class="node">
<title>Node7</title>
<g id="a_node7"><a xlink:title=" ">
<polygon fill="white" stroke="#bfbfbf" points="248,-56.5 248,-75.5 298,-75.5 298,-56.5 248,-56.5"/>
<text text-anchor="middle" x="273" y="-63.5" font-family="Helvetica,sans-Serif" font-size="10.00">chrono</text>
</a>
</g>
</g>
<!-- Node3&#45;&gt;Node7 -->
<g id="edge6" class="edge">
<title>Node3&#45;&gt;Node7</title>
<path fill="none" stroke="midnightblue" d="M376.51,-112.44C356.36,-103.6 324.68,-89.69 301.67,-79.59"/>
<polygon fill="midnightblue" stroke="midnightblue" points="302.96,-76.33 292.4,-75.52 300.15,-82.74 302.96,-76.33"/>
</g>
<!-- Node8 -->
<g id="node8" class="node">
<title>Node8</title>
<g id="a_node8"><a xlink:href="_backend_id_8hpp.html" target="_top" xlink:title=" ">
<polygon fill="white" stroke="black" points="609,-56.5 609,-75.5 697,-75.5 697,-56.5 609,-56.5"/>
<text text-anchor="middle" x="653" y="-63.5" font-family="Helvetica,sans-Serif" font-size="10.00">BackendId.hpp</text>
</a>
</g>
</g>
<!-- Node3&#45;&gt;Node8 -->
<g id="edge7" class="edge">
<title>Node3&#45;&gt;Node8</title>
<path fill="none" stroke="midnightblue" d="M436.72,-112.44C481.65,-103 554,-87.8 602.5,-77.61"/>
<polygon fill="midnightblue" stroke="midnightblue" points="603.4,-81 612.47,-75.52 601.96,-74.15 603.4,-81"/>
</g>
<!-- Node15 -->
<g id="node15" class="node">
<title>Node15</title>
<g id="a_node15"><a xlink:href="_exceptions_8hpp.html" target="_top" xlink:title=" ">
<polygon fill="white" stroke="black" points="499.5,-56.5 499.5,-75.5 590.5,-75.5 590.5,-56.5 499.5,-56.5"/>
<text text-anchor="middle" x="545" y="-63.5" font-family="Helvetica,sans-Serif" font-size="10.00">Exceptions.hpp</text>
</a>
</g>
</g>
<!-- Node3&#45;&gt;Node15 -->
<g id="edge14" class="edge">
<title>Node3&#45;&gt;Node15</title>
<path fill="none" stroke="midnightblue" d="M419.61,-112.44C444.46,-103.44 483.77,-89.19 511.75,-79.05"/>
<polygon fill="midnightblue" stroke="midnightblue" points="513.29,-82.21 521.5,-75.52 510.91,-75.63 513.29,-82.21"/>
</g>
<!-- Node18 -->
<g id="node18" class="node">
<title>Node18</title>
<g id="a_node18"><a xlink:href="_deprecated_8hpp.html" target="_top" xlink:title=" ">
<polygon fill="white" stroke="black" points="316,-56.5 316,-75.5 410,-75.5 410,-56.5 316,-56.5"/>
<text text-anchor="middle" x="363" y="-63.5" font-family="Helvetica,sans-Serif" font-size="10.00">Deprecated.hpp</text>
</a>
</g>
</g>
<!-- Node3&#45;&gt;Node18 -->
<g id="edge18" class="edge">
<title>Node3&#45;&gt;Node18</title>
<path fill="none" stroke="midnightblue" d="M390.55,-112.08C385.99,-104.61 379.33,-93.72 373.71,-84.52"/>
<polygon fill="midnightblue" stroke="midnightblue" points="376.55,-82.46 368.35,-75.75 370.58,-86.11 376.55,-82.46"/>
</g>
<!-- Node9 -->
<g id="node9" class="node">
<title>Node9</title>
<g id="a_node9"><a xlink:title=" ">
<polygon fill="white" stroke="#bfbfbf" points="585,-0.5 585,-19.5 643,-19.5 643,-0.5 585,-0.5"/>
<text text-anchor="middle" x="614" y="-7.5" font-family="Helvetica,sans-Serif" font-size="10.00">memory</text>
</a>
</g>
</g>
<!-- Node8&#45;&gt;Node9 -->
<g id="edge8" class="edge">
<title>Node8&#45;&gt;Node9</title>
<path fill="none" stroke="midnightblue" d="M646.56,-56.08C641.05,-48.46 632.97,-37.26 626.24,-27.94"/>
<polygon fill="midnightblue" stroke="midnightblue" points="629.01,-25.81 620.32,-19.75 623.34,-29.91 629.01,-25.81"/>
</g>
<!-- Node10 -->
<g id="node10" class="node">
<title>Node10</title>
<g id="a_node10"><a xlink:title=" ">
<polygon fill="white" stroke="#bfbfbf" points="815.5,-0.5 815.5,-19.5 872.5,-19.5 872.5,-0.5 815.5,-0.5"/>
<text text-anchor="middle" x="844" y="-7.5" font-family="Helvetica,sans-Serif" font-size="10.00">ostream</text>
</a>
</g>
</g>
<!-- Node8&#45;&gt;Node10 -->
<g id="edge9" class="edge">
<title>Node8&#45;&gt;Node10</title>
<path fill="none" stroke="midnightblue" d="M683.26,-56.44C716.44,-47.07 769.72,-32 805.76,-21.81"/>
<polygon fill="midnightblue" stroke="midnightblue" points="806.77,-25.16 815.44,-19.08 804.86,-18.43 806.77,-25.16"/>
</g>
<!-- Node11 -->
<g id="node11" class="node">
<title>Node11</title>
<g id="a_node11"><a xlink:title=" ">
<polygon fill="white" stroke="#bfbfbf" points="765,-0.5 765,-19.5 797,-19.5 797,-0.5 765,-0.5"/>
<text text-anchor="middle" x="781" y="-7.5" font-family="Helvetica,sans-Serif" font-size="10.00">set</text>
</a>
</g>
</g>
<!-- Node8&#45;&gt;Node11 -->
<g id="edge10" class="edge">
<title>Node8&#45;&gt;Node11</title>
<path fill="none" stroke="midnightblue" d="M673.28,-56.44C695.59,-47.03 731.46,-31.9 755.62,-21.71"/>
<polygon fill="midnightblue" stroke="midnightblue" points="757.01,-24.92 764.87,-17.81 754.29,-18.47 757.01,-24.92"/>
</g>
<!-- Node12 -->
<g id="node12" class="node">
<title>Node12</title>
<g id="a_node12"><a xlink:title=" ">
<polygon fill="white" stroke="#bfbfbf" points="523,-0.5 523,-19.5 567,-19.5 567,-0.5 523,-0.5"/>
<text text-anchor="middle" x="545" y="-7.5" font-family="Helvetica,sans-Serif" font-size="10.00">string</text>
</a>
</g>
</g>
<!-- Node8&#45;&gt;Node12 -->
<g id="edge11" class="edge">
<title>Node8&#45;&gt;Node12</title>
<path fill="none" stroke="midnightblue" d="M635.65,-56.32C618.33,-47.66 591.48,-34.24 571.5,-24.25"/>
<polygon fill="midnightblue" stroke="midnightblue" points="572.82,-21 562.31,-19.65 569.69,-27.26 572.82,-21"/>
</g>
<!-- Node13 -->
<g id="node13" class="node">
<title>Node13</title>
<g id="a_node13"><a xlink:title=" ">
<polygon fill="white" stroke="#bfbfbf" points="661,-0.5 661,-19.5 747,-19.5 747,-0.5 661,-0.5"/>
<text text-anchor="middle" x="704" y="-7.5" font-family="Helvetica,sans-Serif" font-size="10.00">unordered_set</text>
</a>
</g>
</g>
<!-- Node8&#45;&gt;Node13 -->
<g id="edge12" class="edge">
<title>Node8&#45;&gt;Node13</title>
<path fill="none" stroke="midnightblue" d="M661.42,-56.08C668.85,-48.22 679.85,-36.57 688.81,-27.08"/>
<polygon fill="midnightblue" stroke="midnightblue" points="691.41,-29.42 695.74,-19.75 686.32,-24.62 691.41,-29.42"/>
</g>
<!-- Node8&#45;&gt;Node14 -->
<g id="edge13" class="edge">
<title>Node8&#45;&gt;Node14</title>
<path fill="none" stroke="midnightblue" d="M608.8,-57.2C605.82,-56.77 602.87,-56.36 600,-56 408.07,-31.8 176.27,-17.55 90.78,-12.79"/>
<polygon fill="midnightblue" stroke="midnightblue" points="90.8,-9.29 80.63,-12.23 90.42,-16.28 90.8,-9.29"/>
</g>
<!-- Node15&#45;&gt;Node12 -->
<g id="edge17" class="edge">
<title>Node15&#45;&gt;Node12</title>
<path fill="none" stroke="midnightblue" d="M545,-56.08C545,-49.01 545,-38.86 545,-29.99"/>
<polygon fill="midnightblue" stroke="midnightblue" points="548.5,-29.75 545,-19.75 541.5,-29.75 548.5,-29.75"/>
</g>
<!-- Node16 -->
<g id="node16" class="node">
<title>Node16</title>
<g id="a_node16"><a xlink:title=" ">
<polygon fill="white" stroke="#bfbfbf" points="449,-0.5 449,-19.5 505,-19.5 505,-0.5 449,-0.5"/>
<text text-anchor="middle" x="477" y="-7.5" font-family="Helvetica,sans-Serif" font-size="10.00">sstream</text>
</a>
</g>
</g>
<!-- Node15&#45;&gt;Node16 -->
<g id="edge15" class="edge">
<title>Node15&#45;&gt;Node16</title>
<path fill="none" stroke="midnightblue" d="M534.07,-56.32C523.83,-48.18 508.28,-35.84 496,-26.09"/>
<polygon fill="midnightblue" stroke="midnightblue" points="498.13,-23.31 488.12,-19.83 493.78,-28.79 498.13,-23.31"/>
</g>
<!-- Node17 -->
<g id="node17" class="node">
<title>Node17</title>
<g id="a_node17"><a xlink:title=" ">
<polygon fill="white" stroke="#bfbfbf" points="365.5,-0.5 365.5,-19.5 430.5,-19.5 430.5,-0.5 365.5,-0.5"/>
<text text-anchor="middle" x="398" y="-7.5" font-family="Helvetica,sans-Serif" font-size="10.00">stdexcept</text>
</a>
</g>
</g>
<!-- Node15&#45;&gt;Node17 -->
<g id="edge16" class="edge">
<title>Node15&#45;&gt;Node17</title>
<path fill="none" stroke="midnightblue" d="M521.71,-56.44C497.19,-47.44 458.4,-33.19 430.8,-23.05"/>
<polygon fill="midnightblue" stroke="midnightblue" points="431.78,-19.68 421.18,-19.52 429.36,-26.25 431.78,-19.68"/>
</g>
<!-- Node19&#45;&gt;Node6 -->
<g id="edge23" class="edge">
<title>Node19&#45;&gt;Node6</title>
<path fill="none" stroke="midnightblue" d="M791.47,-117.27C729,-111.17 605.3,-97.71 491.59,-76.12"/>
<polygon fill="midnightblue" stroke="midnightblue" points="492.16,-72.67 481.68,-74.21 490.84,-79.54 492.16,-72.67"/>
</g>
<!-- Node19&#45;&gt;Node10 -->
<g id="edge20" class="edge">
<title>Node19&#45;&gt;Node10</title>
<path fill="none" stroke="midnightblue" d="M836.62,-112.34C841.06,-103.49 847.45,-89.22 850,-76 852.95,-60.68 850.99,-43.04 848.55,-30"/>
<polygon fill="midnightblue" stroke="midnightblue" points="851.91,-28.96 846.39,-19.91 845.06,-30.42 851.91,-28.96"/>
</g>
<!-- Node20 -->
<g id="node20" class="node">
<title>Node20</title>
<g id="a_node20"><a xlink:title=" ">
<polygon fill="white" stroke="#bfbfbf" points="897.5,-56.5 897.5,-75.5 944.5,-75.5 944.5,-56.5 897.5,-56.5"/>
<text text-anchor="middle" x="921" y="-63.5" font-family="Helvetica,sans-Serif" font-size="10.00">cmath</text>
</a>
</g>
</g>
<!-- Node19&#45;&gt;Node20 -->
<g id="edge21" class="edge">
<title>Node19&#45;&gt;Node20</title>
<path fill="none" stroke="midnightblue" d="M846.3,-112.32C860.18,-103.9 881.49,-90.97 897.8,-81.07"/>
<polygon fill="midnightblue" stroke="midnightblue" points="900,-83.83 906.74,-75.65 896.37,-77.85 900,-83.83"/>
</g>
<!-- Node21 -->
<g id="node21" class="node">
<title>Node21</title>
<g id="a_node21"><a xlink:title=" ">
<polygon fill="white" stroke="#bfbfbf" points="791,-56.5 791,-75.5 841,-75.5 841,-56.5 791,-56.5"/>
<text text-anchor="middle" x="816" y="-63.5" font-family="Helvetica,sans-Serif" font-size="10.00">cstring</text>
</a>
</g>
</g>
<!-- Node19&#45;&gt;Node21 -->
<g id="edge22" class="edge">
<title>Node19&#45;&gt;Node21</title>
<path fill="none" stroke="midnightblue" d="M829.36,-112.08C827.21,-104.85 824.12,-94.41 821.45,-85.4"/>
<polygon fill="midnightblue" stroke="midnightblue" points="824.79,-84.34 818.59,-75.75 818.08,-86.33 824.79,-84.34"/>
</g>
<!-- Node23 -->
<g id="node23" class="node">
<title>Node23</title>
<g id="a_node23"><a xlink:title=" ">
<polygon fill="white" stroke="#bfbfbf" points="994.5,-56.5 994.5,-75.5 1063.5,-75.5 1063.5,-56.5 994.5,-56.5"/>
<text text-anchor="middle" x="1029" y="-63.5" font-family="Helvetica,sans-Serif" font-size="10.00">type_traits</text>
</a>
</g>
</g>
<!-- Node22&#45;&gt;Node23 -->
<g id="edge25" class="edge">
<title>Node22&#45;&gt;Node23</title>
<path fill="none" stroke="midnightblue" d="M1132.51,-112.44C1112.36,-103.6 1080.68,-89.69 1057.67,-79.59"/>
<polygon fill="midnightblue" stroke="midnightblue" points="1058.96,-76.33 1048.4,-75.52 1056.15,-82.74 1058.96,-76.33"/>
</g>
<!-- Node24 -->
<g id="node24" class="node">
<title>Node24</title>
<g id="a_node24"><a xlink:title=" ">
<polygon fill="white" stroke="#bfbfbf" points="1113.5,-56.5 1113.5,-75.5 1190.5,-75.5 1190.5,-56.5 1113.5,-56.5"/>
<text text-anchor="middle" x="1152" y="-63.5" font-family="Helvetica,sans-Serif" font-size="10.00">half/half.hpp</text>
</a>
</g>
</g>
<!-- Node22&#45;&gt;Node24 -->
<g id="edge26" class="edge">
<title>Node22&#45;&gt;Node24</title>
<path fill="none" stroke="midnightblue" d="M1152,-112.08C1152,-105.01 1152,-94.86 1152,-85.99"/>
<polygon fill="midnightblue" stroke="midnightblue" points="1155.5,-85.75 1152,-75.75 1148.5,-85.75 1155.5,-85.75"/>
</g>
<!-- Node26 -->
<g id="node26" class="node">
<title>Node26</title>
<g id="a_node26"><a xlink:href="_base_iterator_8hpp.html" target="_top" xlink:title=" ">
<polygon fill="white" stroke="black" points="532.5,-347.5 532.5,-366.5 629.5,-366.5 629.5,-347.5 532.5,-347.5"/>
<text text-anchor="middle" x="581" y="-354.5" font-family="Helvetica,sans-Serif" font-size="10.00">BaseIterator.hpp</text>
</a>
</g>
</g>
<!-- Node25&#45;&gt;Node26 -->
<g id="edge28" class="edge">
<title>Node25&#45;&gt;Node26</title>
<path fill="none" stroke="midnightblue" d="M421.27,-403.47C457.95,-393.03 507.38,-378.96 541.49,-369.25"/>
<polygon fill="midnightblue" stroke="midnightblue" points="542.46,-372.61 551.12,-366.51 540.54,-365.88 542.46,-372.61"/>
</g>
<!-- Node32 -->
<g id="node32" class="node">
<title>Node32</title>
<g id="a_node32"><a xlink:href="_assert_8hpp.html" target="_top" xlink:title=" ">
<polygon fill="white" stroke="black" points="356,-224.5 356,-243.5 490,-243.5 490,-224.5 356,-224.5"/>
<text text-anchor="middle" x="423" y="-231.5" font-family="Helvetica,sans-Serif" font-size="10.00">armnn/utility/Assert.hpp</text>
</a>
</g>
</g>
<!-- Node25&#45;&gt;Node32 -->
<g id="edge68" class="edge">
<title>Node25&#45;&gt;Node32</title>
<path fill="none" stroke="midnightblue" d="M375.92,-403.48C385.01,-370.96 407.53,-290.34 417.78,-253.68"/>
<polygon fill="midnightblue" stroke="midnightblue" points="421.21,-254.39 420.54,-243.82 414.47,-252.51 421.21,-254.39"/>
</g>
<!-- Node39 -->
<g id="node39" class="node">
<title>Node39</title>
<g id="a_node39"><a xlink:href="_tensor_utils_8hpp.html" target="_top" xlink:title=" ">
<polygon fill="white" stroke="black" points="177.5,-286 177.5,-305 326.5,-305 326.5,-286 177.5,-286"/>
<text text-anchor="middle" x="252" y="-293" font-family="Helvetica,sans-Serif" font-size="10.00">armnnUtils/TensorUtils.hpp</text>
</a>
</g>
</g>
<!-- Node25&#45;&gt;Node39 -->
<g id="edge67" class="edge">
<title>Node25&#45;&gt;Node39</title>
<path fill="none" stroke="midnightblue" d="M357.76,-403.14C335.12,-380.31 291.06,-335.88 267.59,-312.22"/>
<polygon fill="midnightblue" stroke="midnightblue" points="270.01,-309.69 260.48,-305.05 265.04,-314.62 270.01,-309.69"/>
</g>
<!-- Node26&#45;&gt;Node2 -->
<g id="edge66" class="edge">
<title>Node26&#45;&gt;Node2</title>
<path fill="none" stroke="midnightblue" d="M591.14,-347.41C625.55,-318.29 735.81,-225 738,-224 747.89,-219.47 877.89,-199.63 956.9,-187.86"/>
<polygon fill="midnightblue" stroke="midnightblue" points="957.84,-191.26 967.22,-186.33 956.81,-184.34 957.84,-191.26"/>
</g>
<!-- Node27 -->
<g id="node27" class="node">
<title>Node27</title>
<g id="a_node27"><a xlink:href="_types_utils_8hpp.html" target="_top" xlink:title=" ">
<polygon fill="white" stroke="black" points="526,-224.5 526,-243.5 648,-243.5 648,-224.5 526,-224.5"/>
<text text-anchor="middle" x="587" y="-231.5" font-family="Helvetica,sans-Serif" font-size="10.00">armnn/TypesUtils.hpp</text>
</a>
</g>
</g>
<!-- Node26&#45;&gt;Node27 -->
<g id="edge29" class="edge">
<title>Node26&#45;&gt;Node27</title>
<path fill="none" stroke="midnightblue" d="M591.71,-347.3C600.94,-339.07 613.59,-325.79 619,-311 623.73,-298.06 623.19,-293.12 619,-280 615.66,-269.54 608.9,-259.43 602.45,-251.45"/>
<polygon fill="midnightblue" stroke="midnightblue" points="604.94,-248.98 595.75,-243.71 599.65,-253.56 604.94,-248.98"/>
</g>
<!-- Node26&#45;&gt;Node32 -->
<g id="edge50" class="edge">
<title>Node26&#45;&gt;Node32</title>
<path fill="none" stroke="midnightblue" d="M532.42,-355.28C497.99,-351.96 453.69,-341.47 429,-311 416.14,-295.12 416.61,-270.76 419.01,-253.92"/>
<polygon fill="midnightblue" stroke="midnightblue" points="422.53,-254.11 420.83,-243.65 415.63,-252.88 422.53,-254.11"/>
</g>
<!-- Node34 -->
<g id="node34" class="node">
<title>Node34</title>
<g id="a_node34"><a xlink:href="_ignore_unused_8hpp.html" target="_top" xlink:title=" ">
<polygon fill="white" stroke="black" points="438.5,-286 438.5,-305 609.5,-305 609.5,-286 438.5,-286"/>
<text text-anchor="middle" x="524" y="-293" font-family="Helvetica,sans-Serif" font-size="10.00">armnn/utility/IgnoreUnused.hpp</text>
</a>
</g>
</g>
<!-- Node26&#45;&gt;Node34 -->
<g id="edge52" class="edge">
<title>Node26&#45;&gt;Node34</title>
<path fill="none" stroke="midnightblue" d="M572.83,-347.48C564.11,-338.37 550.1,-323.74 539.31,-312.48"/>
<polygon fill="midnightblue" stroke="midnightblue" points="541.6,-309.81 532.15,-305.01 536.54,-314.65 541.6,-309.81"/>
</g>
<!-- Node35 -->
<g id="node35" class="node">
<title>Node35</title>
<g id="a_node35"><a xlink:href="_numeric_cast_8hpp.html" target="_top" xlink:title=" ">
<polygon fill="white" stroke="black" points="860.5,-286 860.5,-305 1027.5,-305 1027.5,-286 860.5,-286"/>
<text text-anchor="middle" x="944" y="-293" font-family="Helvetica,sans-Serif" font-size="10.00">armnn/utility/NumericCast.hpp</text>
</a>
</g>
</g>
<!-- Node26&#45;&gt;Node35 -->
<g id="edge53" class="edge">
<title>Node26&#45;&gt;Node35</title>
<path fill="none" stroke="midnightblue" d="M629.58,-348.04C694.67,-337.37 810.25,-318.42 881.69,-306.71"/>
<polygon fill="midnightblue" stroke="midnightblue" points="882.59,-310.11 891.89,-305.04 881.46,-303.2 882.59,-310.11"/>
</g>
<!-- Node37 -->
<g id="node37" class="node">
<title>Node37</title>
<g id="a_node37"><a xlink:href="_floating_point_converter_8hpp.html" target="_top" xlink:title=" ">
<polygon fill="white" stroke="black" points="704,-280.5 704,-310.5 842,-310.5 842,-280.5 704,-280.5"/>
<text text-anchor="start" x="712" y="-298.5" font-family="Helvetica,sans-Serif" font-size="10.00">armnnUtils/FloatingPoint</text>
<text text-anchor="middle" x="773" y="-287.5" font-family="Helvetica,sans-Serif" font-size="10.00">Converter.hpp</text>
</a>
</g>
</g>
<!-- Node26&#45;&gt;Node37 -->
<g id="edge57" class="edge">
<title>Node26&#45;&gt;Node37</title>
<path fill="none" stroke="midnightblue" d="M608.51,-347.48C636.94,-338.66 682.1,-324.67 717.92,-313.57"/>
<polygon fill="midnightblue" stroke="midnightblue" points="719.23,-316.83 727.75,-310.52 717.16,-310.14 719.23,-316.83"/>
</g>
<!-- Node26&#45;&gt;Node39 -->
<g id="edge59" class="edge">
<title>Node26&#45;&gt;Node39</title>
<path fill="none" stroke="midnightblue" d="M533.86,-347.48C474.5,-336.74 372.58,-318.31 308.92,-306.79"/>
<polygon fill="midnightblue" stroke="midnightblue" points="309.51,-303.34 299.05,-305.01 308.27,-310.23 309.51,-303.34"/>
</g>
<!-- Node27&#45;&gt;Node3 -->
<g id="edge44" class="edge">
<title>Node27&#45;&gt;Node3</title>
<path fill="none" stroke="midnightblue" d="M549.42,-224.49C523.02,-217.39 487.63,-205.58 460,-188 439.64,-175.04 420.85,-154.48 408.96,-139.96"/>
<polygon fill="midnightblue" stroke="midnightblue" points="411.46,-137.48 402.51,-131.82 405.98,-141.83 411.46,-137.48"/>
</g>
<!-- Node27&#45;&gt;Node6 -->
<g id="edge45" class="edge">
<title>Node27&#45;&gt;Node6</title>
<path fill="none" stroke="midnightblue" d="M579.9,-224.08C558.77,-197.49 495.98,-118.54 468.33,-83.76"/>
<polygon fill="midnightblue" stroke="midnightblue" points="470.78,-81.22 461.81,-75.57 465.3,-85.57 470.78,-81.22"/>
</g>
<!-- Node27&#45;&gt;Node8 -->
<g id="edge30" class="edge">
<title>Node27&#45;&gt;Node8</title>
<path fill="none" stroke="midnightblue" d="M597.42,-224.33C615.73,-208.33 653.03,-172.14 667,-132 672.39,-116.52 667.49,-98.21 662.06,-84.97"/>
<polygon fill="midnightblue" stroke="midnightblue" points="665.11,-83.24 657.77,-75.6 658.75,-86.15 665.11,-83.24"/>
</g>
<!-- Node27&#45;&gt;Node10 -->
<g id="edge47" class="edge">
<title>Node27&#45;&gt;Node10</title>
<path fill="none" stroke="midnightblue" d="M609.58,-224.35C628.07,-216.58 654.32,-203.96 674,-188 732.88,-140.27 726.87,-108.03 782,-56 794.22,-44.47 809.48,-33.36 821.8,-25.06"/>
<polygon fill="midnightblue" stroke="midnightblue" points="823.74,-27.98 830.17,-19.55 819.89,-22.13 823.74,-27.98"/>
</g>
<!-- Node27&#45;&gt;Node11 -->
<g id="edge48" class="edge">
<title>Node27&#45;&gt;Node11</title>
<path fill="none" stroke="midnightblue" d="M603.05,-224.41C617.41,-216.25 638.51,-203.02 654,-188 657.5,-184.61 737.85,-71.71 768.91,-28.02"/>
<polygon fill="midnightblue" stroke="midnightblue" points="771.8,-30 774.74,-19.82 766.09,-25.94 771.8,-30"/>
</g>
<!-- Node27&#45;&gt;Node15 -->
<g id="edge31" class="edge">
<title>Node27&#45;&gt;Node15</title>
<path fill="none" stroke="midnightblue" d="M584.74,-224.08C578.13,-197.95 558.72,-121.21 549.7,-85.58"/>
<polygon fill="midnightblue" stroke="midnightblue" points="553.01,-84.4 547.17,-75.57 546.23,-86.12 553.01,-84.4"/>
</g>
<!-- Node27&#45;&gt;Node20 -->
<g id="edge46" class="edge">
<title>Node27&#45;&gt;Node20</title>
<path fill="none" stroke="midnightblue" d="M638.87,-224.45C677.68,-217.17 731.65,-205.13 777,-188 826.48,-169.31 843.67,-168.44 882,-132 896.12,-118.57 906.95,-98.94 913.58,-84.76"/>
<polygon fill="midnightblue" stroke="midnightblue" points="916.8,-86.13 917.64,-75.57 910.4,-83.3 916.8,-86.13"/>
</g>
<!-- Node27&#45;&gt;Node23 -->
<g id="edge49" class="edge">
<title>Node27&#45;&gt;Node23</title>
<path fill="none" stroke="midnightblue" d="M648.04,-226.55C695.26,-220.26 761.7,-208.56 817,-188 892.44,-159.96 972.61,-106.93 1008.99,-81.42"/>
<polygon fill="midnightblue" stroke="midnightblue" points="1011.12,-84.2 1017.26,-75.56 1007.08,-78.49 1011.12,-84.2"/>
</g>
<!-- Node28 -->
<g id="node28" class="node">
<title>Node28</title>
<g id="a_node28"><a xlink:href="_tensor_8hpp.html" target="_top" xlink:title=" ">
<polygon fill="white" stroke="black" points="196.5,-168.5 196.5,-187.5 299.5,-187.5 299.5,-168.5 196.5,-168.5"/>
<text text-anchor="middle" x="248" y="-175.5" font-family="Helvetica,sans-Serif" font-size="10.00">armnn/Tensor.hpp</text>
</a>
</g>
</g>
<!-- Node27&#45;&gt;Node28 -->
<g id="edge32" class="edge">
<title>Node27&#45;&gt;Node28</title>
<path fill="none" stroke="midnightblue" d="M533.28,-224.44C472.41,-214.75 373.37,-198.97 309.46,-188.79"/>
<polygon fill="midnightblue" stroke="midnightblue" points="309.95,-185.32 299.52,-187.21 308.85,-192.24 309.95,-185.32"/>
</g>
<!-- Node28&#45;&gt;Node3 -->
<g id="edge38" class="edge">
<title>Node28&#45;&gt;Node3</title>
<path fill="none" stroke="midnightblue" d="M271.45,-168.44C296.13,-159.44 335.19,-145.19 362.98,-135.05"/>
<polygon fill="midnightblue" stroke="midnightblue" points="364.46,-138.23 372.66,-131.52 362.06,-131.66 364.46,-138.23"/>
</g>
<!-- Node28&#45;&gt;Node4 -->
<g id="edge40" class="edge">
<title>Node28&#45;&gt;Node4</title>
<path fill="none" stroke="midnightblue" d="M238.19,-168.41C227.9,-159.37 211.27,-144.74 197,-132 178.31,-115.31 157.02,-96.07 142.47,-82.87"/>
<polygon fill="midnightblue" stroke="midnightblue" points="144.51,-80 134.75,-75.87 139.8,-85.18 144.51,-80"/>
</g>
<!-- Node28&#45;&gt;Node6 -->
<g id="edge39" class="edge">
<title>Node28&#45;&gt;Node6</title>
<path fill="none" stroke="midnightblue" d="M257.82,-168.45C273.62,-155.03 306.06,-128.8 337,-112 363.13,-97.81 394.69,-86.02 418.6,-78.08"/>
<polygon fill="midnightblue" stroke="midnightblue" points="419.91,-81.33 428.34,-74.91 417.74,-74.68 419.91,-81.33"/>
</g>
<!-- Node28&#45;&gt;Node14 -->
<g id="edge42" class="edge">
<title>Node28&#45;&gt;Node14</title>
<path fill="none" stroke="midnightblue" d="M229.1,-168.44C197.83,-153.5 134.83,-120.01 95,-76 82.28,-61.94 71.78,-42.95 65.06,-29.13"/>
<polygon fill="midnightblue" stroke="midnightblue" points="68.08,-27.32 60.69,-19.73 61.73,-30.28 68.08,-27.32"/>
</g>
<!-- Node28&#45;&gt;Node15 -->
<g id="edge33" class="edge">
<title>Node28&#45;&gt;Node15</title>
<path fill="none" stroke="midnightblue" d="M299.6,-171.75C342.63,-165.99 404.79,-154.41 455,-132 483.13,-119.44 511.22,-97.23 528.35,-82.31"/>
<polygon fill="midnightblue" stroke="midnightblue" points="530.7,-84.91 535.84,-75.64 526.04,-79.68 530.7,-84.91"/>
</g>
<!-- Node29 -->
<g id="node29" class="node">
<title>Node29</title>
<g id="a_node29"><a xlink:href="_optional_8hpp.html" target="_top" xlink:title=" ">
<polygon fill="white" stroke="black" points="578.5,-112.5 578.5,-131.5 657.5,-131.5 657.5,-112.5 578.5,-112.5"/>
<text text-anchor="middle" x="618" y="-119.5" font-family="Helvetica,sans-Serif" font-size="10.00">Optional.hpp</text>
</a>
</g>
</g>
<!-- Node28&#45;&gt;Node29 -->
<g id="edge34" class="edge">
<title>Node28&#45;&gt;Node29</title>
<path fill="none" stroke="midnightblue" d="M299.84,-169.43C371.11,-159.03 498.49,-140.44 568.51,-130.22"/>
<polygon fill="midnightblue" stroke="midnightblue" points="569.02,-133.69 578.41,-128.78 568.01,-126.76 569.02,-133.69"/>
</g>
<!-- Node30 -->
<g id="node30" class="node">
<title>Node30</title>
<g id="a_node30"><a xlink:title=" ">
<polygon fill="white" stroke="#bfbfbf" points="206.5,-112.5 206.5,-131.5 289.5,-131.5 289.5,-112.5 206.5,-112.5"/>
<text text-anchor="middle" x="248" y="-119.5" font-family="Helvetica,sans-Serif" font-size="10.00">initializer_list</text>
</a>
</g>
</g>
<!-- Node28&#45;&gt;Node30 -->
<g id="edge41" class="edge">
<title>Node28&#45;&gt;Node30</title>
<path fill="none" stroke="midnightblue" d="M248,-168.08C248,-161.01 248,-150.86 248,-141.99"/>
<polygon fill="midnightblue" stroke="midnightblue" points="251.5,-141.75 248,-131.75 244.5,-141.75 251.5,-141.75"/>
</g>
<!-- Node31 -->
<g id="node31" class="node">
<title>Node31</title>
<g id="a_node31"><a xlink:title=" ">
<polygon fill="white" stroke="#bfbfbf" points="66.5,-112.5 66.5,-131.5 111.5,-131.5 111.5,-112.5 66.5,-112.5"/>
<text text-anchor="middle" x="89" y="-119.5" font-family="Helvetica,sans-Serif" font-size="10.00">utility</text>
</a>
</g>
</g>
<!-- Node28&#45;&gt;Node31 -->
<g id="edge43" class="edge">
<title>Node28&#45;&gt;Node31</title>
<path fill="none" stroke="midnightblue" d="M222.81,-168.44C195.27,-159.09 151.09,-144.09 121.09,-133.9"/>
<polygon fill="midnightblue" stroke="midnightblue" points="122.1,-130.55 111.51,-130.64 119.85,-137.17 122.1,-130.55"/>
</g>
<!-- Node29&#45;&gt;Node15 -->
<g id="edge35" class="edge">
<title>Node29&#45;&gt;Node15</title>
<path fill="none" stroke="midnightblue" d="M606.27,-112.32C595.16,-104.11 578.26,-91.6 565.02,-81.81"/>
<polygon fill="midnightblue" stroke="midnightblue" points="567.06,-78.97 556.94,-75.83 562.9,-84.59 567.06,-78.97"/>
</g>
<!-- Node29&#45;&gt;Node21 -->
<g id="edge36" class="edge">
<title>Node29&#45;&gt;Node21</title>
<path fill="none" stroke="midnightblue" d="M649.37,-112.44C685.16,-102.68 743.52,-86.77 780.82,-76.6"/>
<polygon fill="midnightblue" stroke="midnightblue" points="782.02,-79.9 790.74,-73.89 780.17,-73.14 782.02,-79.9"/>
</g>
<!-- Node29&#45;&gt;Node23 -->
<g id="edge37" class="edge">
<title>Node29&#45;&gt;Node23</title>
<path fill="none" stroke="midnightblue" d="M657.78,-115.77C734.71,-105.67 903.37,-83.51 984.15,-72.89"/>
<polygon fill="midnightblue" stroke="midnightblue" points="985.02,-76.31 994.48,-71.54 984.11,-69.37 985.02,-76.31"/>
</g>
<!-- Node33 -->
<g id="node33" class="node">
<title>Node33</title>
<g id="a_node33"><a xlink:title=" ">
<polygon fill="white" stroke="#bfbfbf" points="356,-168.5 356,-187.5 408,-187.5 408,-168.5 356,-168.5"/>
<text text-anchor="middle" x="382" y="-175.5" font-family="Helvetica,sans-Serif" font-size="10.00">cassert</text>
</a>
</g>
</g>
<!-- Node32&#45;&gt;Node33 -->
<g id="edge51" class="edge">
<title>Node32&#45;&gt;Node33</title>
<path fill="none" stroke="midnightblue" d="M416.23,-224.08C410.44,-216.46 401.94,-205.26 394.86,-195.94"/>
<polygon fill="midnightblue" stroke="midnightblue" points="397.48,-193.6 388.64,-187.75 391.9,-197.83 397.48,-193.6"/>
</g>
<!-- Node35&#45;&gt;Node23 -->
<g id="edge55" class="edge">
<title>Node35&#45;&gt;Node23</title>
<path fill="none" stroke="midnightblue" d="M963.41,-285.81C994.03,-270.88 1052.5,-237.15 1076,-188 1093.4,-151.6 1063.48,-106.94 1043.92,-83.37"/>
<polygon fill="midnightblue" stroke="midnightblue" points="1046.47,-80.97 1037.28,-75.7 1041.17,-85.55 1046.47,-80.97"/>
</g>
<!-- Node35&#45;&gt;Node32 -->
<g id="edge54" class="edge">
<title>Node35&#45;&gt;Node32</title>
<path fill="none" stroke="midnightblue" d="M892.41,-285.99C878.95,-283.9 864.45,-281.75 851,-280 785.22,-271.42 604.74,-253.09 500.35,-242.66"/>
<polygon fill="midnightblue" stroke="midnightblue" points="500.48,-239.16 490.18,-241.65 499.79,-246.13 500.48,-239.16"/>
</g>
<!-- Node36 -->
<g id="node36" class="node">
<title>Node36</title>
<g id="a_node36"><a xlink:title=" ">
<polygon fill="white" stroke="#bfbfbf" points="922,-224.5 922,-243.5 966,-243.5 966,-224.5 922,-224.5"/>
<text text-anchor="middle" x="944" y="-231.5" font-family="Helvetica,sans-Serif" font-size="10.00">limits</text>
</a>
</g>
</g>
<!-- Node35&#45;&gt;Node36 -->
<g id="edge56" class="edge">
<title>Node35&#45;&gt;Node36</title>
<path fill="none" stroke="midnightblue" d="M944,-285.98C944,-277.58 944,-264.48 944,-253.66"/>
<polygon fill="midnightblue" stroke="midnightblue" points="947.5,-253.51 944,-243.51 940.5,-253.51 947.5,-253.51"/>
</g>
<!-- Node38 -->
<g id="node38" class="node">
<title>Node38</title>
<g id="a_node38"><a xlink:title=" ">
<polygon fill="white" stroke="#bfbfbf" points="746.5,-224.5 746.5,-243.5 799.5,-243.5 799.5,-224.5 746.5,-224.5"/>
<text text-anchor="middle" x="773" y="-231.5" font-family="Helvetica,sans-Serif" font-size="10.00">cstddef</text>
</a>
</g>
</g>
<!-- Node37&#45;&gt;Node38 -->
<g id="edge58" class="edge">
<title>Node37&#45;&gt;Node38</title>
<path fill="none" stroke="midnightblue" d="M773,-280.4C773,-272.47 773,-262.46 773,-253.86"/>
<polygon fill="midnightblue" stroke="midnightblue" points="776.5,-253.66 773,-243.66 769.5,-253.66 776.5,-253.66"/>
</g>
<!-- Node39&#45;&gt;Node3 -->
<g id="edge62" class="edge">
<title>Node39&#45;&gt;Node3</title>
<path fill="none" stroke="midnightblue" d="M257.72,-285.79C271.77,-264.65 309.57,-209.32 347,-168 356.48,-157.54 368.07,-146.81 377.6,-138.46"/>
<polygon fill="midnightblue" stroke="midnightblue" points="380.05,-140.97 385.34,-131.79 375.48,-135.66 380.05,-140.97"/>
</g>
<!-- Node39&#45;&gt;Node14 -->
<g id="edge65" class="edge">
<title>Node39&#45;&gt;Node14</title>
<path fill="none" stroke="midnightblue" d="M181.63,-285.95C119.26,-273.98 38,-245.6 38,-179 38,-179 38,-179 38,-121 38,-88.49 46.16,-51.35 51.78,-29.61"/>
<polygon fill="midnightblue" stroke="midnightblue" points="55.22,-30.32 54.44,-19.75 48.46,-28.5 55.22,-30.32"/>
</g>
<!-- Node39&#45;&gt;Node27 -->
<g id="edge60" class="edge">
<title>Node39&#45;&gt;Node27</title>
<path fill="none" stroke="midnightblue" d="M300,-285.98C360.45,-275.24 464.23,-256.81 529.04,-245.29"/>
<polygon fill="midnightblue" stroke="midnightblue" points="529.86,-248.7 539.09,-243.51 528.63,-241.81 529.86,-248.7"/>
</g>
<!-- Node39&#45;&gt;Node28 -->
<g id="edge61" class="edge">
<title>Node39&#45;&gt;Node28</title>
<path fill="none" stroke="midnightblue" d="M251.7,-285.82C251.06,-267.26 249.54,-223.34 248.66,-197.97"/>
<polygon fill="midnightblue" stroke="midnightblue" points="252.15,-197.65 248.3,-187.78 245.15,-197.9 252.15,-197.65"/>
</g>
<!-- Node39&#45;&gt;Node31 -->
<g id="edge64" class="edge">
<title>Node39&#45;&gt;Node31</title>
<path fill="none" stroke="midnightblue" d="M243.69,-285.76C217.75,-258.46 137.95,-174.5 104.26,-139.05"/>
<polygon fill="midnightblue" stroke="midnightblue" points="106.52,-136.36 97.1,-131.52 101.45,-141.18 106.52,-136.36"/>
</g>
<!-- Node39&#45;&gt;Node39 -->
<g id="edge63" class="edge">
<title>Node39&#45;&gt;Node39</title>
<path fill="none" stroke="midnightblue" d="M286.15,-305.03C314.69,-309.11 344.5,-305.93 344.5,-295.5 344.5,-286.29 321.26,-282.74 296.19,-284.83"/>
<polygon fill="midnightblue" stroke="midnightblue" points="295.7,-281.37 286.15,-285.97 296.48,-288.32 295.7,-281.37"/>
</g>
</g>
</svg>
