<?xml version="1.0" encoding="UTF-8" standalone="no"?>
<!DOCTYPE svg PUBLIC "-//W3C//DTD SVG 1.1//EN"
 "http://www.w3.org/Graphics/SVG/1.1/DTD/svg11.dtd">
<!-- Generated by graphviz version 2.43.0 (0)
 -->
<!-- Title: src/backends/reference/workloads/DepthToSpace.cpp Pages: 1 -->
<svg width="1067pt" height="375pt"
 viewBox="0.00 0.00 1066.50 375.00" xmlns="http://www.w3.org/2000/svg" xmlns:xlink="http://www.w3.org/1999/xlink">
<g id="graph0" class="graph" transform="scale(1 1) rotate(0) translate(4 371)">
<title>src/backends/reference/workloads/DepthToSpace.cpp</title>
<polygon fill="white" stroke="transparent" points="-4,4 -4,-371 1062.5,-371 1062.5,4 -4,4"/>
<!-- Node1 -->
<g id="node1" class="node">
<title>Node1</title>
<g id="a_node1"><a xlink:title=" ">
<polygon fill="#bfbfbf" stroke="black" points="556.5,-336.5 556.5,-366.5 718.5,-366.5 718.5,-336.5 556.5,-336.5"/>
<text text-anchor="start" x="564.5" y="-354.5" font-family="Helvetica,sans-Serif" font-size="10.00">src/backends/reference</text>
<text text-anchor="middle" x="637.5" y="-343.5" font-family="Helvetica,sans-Serif" font-size="10.00">/workloads/DepthToSpace.cpp</text>
</a>
</g>
</g>
<!-- Node2 -->
<g id="node2" class="node">
<title>Node2</title>
<g id="a_node2"><a xlink:href="_depth_to_space_8hpp.html" target="_top" xlink:title=" ">
<polygon fill="white" stroke="black" points="357,-280.5 357,-299.5 464,-299.5 464,-280.5 357,-280.5"/>
<text text-anchor="middle" x="410.5" y="-287.5" font-family="Helvetica,sans-Serif" font-size="10.00">DepthToSpace.hpp</text>
</a>
</g>
</g>
<!-- Node1&#45;&gt;Node2 -->
<g id="edge1" class="edge">
<title>Node1&#45;&gt;Node2</title>
<path fill="none" stroke="midnightblue" d="M583.99,-336.47C543.97,-325.99 489.99,-311.84 452.93,-302.12"/>
<polygon fill="midnightblue" stroke="midnightblue" points="453.51,-298.66 442.95,-299.51 451.74,-305.43 453.51,-298.66"/>
</g>
<!-- Node29 -->
<g id="node29" class="node">
<title>Node29</title>
<g id="a_node29"><a xlink:href="_data_layout_indexed_8hpp.html" target="_top" xlink:title=" ">
<polygon fill="white" stroke="black" points="482,-280.5 482,-299.5 671,-299.5 671,-280.5 482,-280.5"/>
<text text-anchor="middle" x="576.5" y="-287.5" font-family="Helvetica,sans-Serif" font-size="10.00">armnnUtils/DataLayoutIndexed.hpp</text>
</a>
</g>
</g>
<!-- Node1&#45;&gt;Node29 -->
<g id="edge40" class="edge">
<title>Node1&#45;&gt;Node29</title>
<path fill="none" stroke="midnightblue" d="M623.04,-336.4C613.91,-327.49 602.08,-315.95 592.64,-306.74"/>
<polygon fill="midnightblue" stroke="midnightblue" points="594.98,-304.13 585.38,-299.66 590.09,-309.15 594.98,-304.13"/>
</g>
<!-- Node30 -->
<g id="node30" class="node">
<title>Node30</title>
<g id="a_node30"><a xlink:href="_assert_8hpp.html" target="_top" xlink:title=" ">
<polygon fill="white" stroke="black" points="604.5,-224.5 604.5,-243.5 738.5,-243.5 738.5,-224.5 604.5,-224.5"/>
<text text-anchor="middle" x="671.5" y="-231.5" font-family="Helvetica,sans-Serif" font-size="10.00">armnn/utility/Assert.hpp</text>
</a>
</g>
</g>
<!-- Node1&#45;&gt;Node30 -->
<g id="edge49" class="edge">
<title>Node1&#45;&gt;Node30</title>
<path fill="none" stroke="midnightblue" d="M653.91,-336.4C663.38,-327.14 674.38,-314.16 679.5,-300 684.94,-284.96 681.99,-266.83 678.22,-253.54"/>
<polygon fill="midnightblue" stroke="midnightblue" points="681.44,-252.13 675.04,-243.7 674.78,-254.29 681.44,-252.13"/>
</g>
<!-- Node32 -->
<g id="node32" class="node">
<title>Node32</title>
<g id="a_node32"><a xlink:href="_permute_8hpp.html" target="_top" xlink:title=" ">
<polygon fill="white" stroke="black" points="804.5,-280.5 804.5,-299.5 940.5,-299.5 940.5,-280.5 804.5,-280.5"/>
<text text-anchor="middle" x="872.5" y="-287.5" font-family="Helvetica,sans-Serif" font-size="10.00">armnnUtils/Permute.hpp</text>
</a>
</g>
</g>
<!-- Node1&#45;&gt;Node32 -->
<g id="edge45" class="edge">
<title>Node1&#45;&gt;Node32</title>
<path fill="none" stroke="midnightblue" d="M692.89,-336.47C734.5,-325.94 790.68,-311.72 829.06,-302"/>
<polygon fill="midnightblue" stroke="midnightblue" points="830.07,-305.35 838.9,-299.51 828.35,-298.57 830.07,-305.35"/>
</g>
<!-- Node3 -->
<g id="node3" class="node">
<title>Node3</title>
<g id="a_node3"><a xlink:href="_descriptors_8hpp.html" target="_top" xlink:title=" ">
<polygon fill="white" stroke="black" points="243.5,-224.5 243.5,-243.5 371.5,-243.5 371.5,-224.5 243.5,-224.5"/>
<text text-anchor="middle" x="307.5" y="-231.5" font-family="Helvetica,sans-Serif" font-size="10.00">armnn/Descriptors.hpp</text>
</a>
</g>
</g>
<!-- Node2&#45;&gt;Node3 -->
<g id="edge2" class="edge">
<title>Node2&#45;&gt;Node3</title>
<path fill="none" stroke="midnightblue" d="M393.95,-280.32C377.51,-271.7 352.07,-258.36 333.03,-248.39"/>
<polygon fill="midnightblue" stroke="midnightblue" points="334.49,-245.2 324.01,-243.65 331.24,-251.4 334.49,-245.2"/>
</g>
<!-- Node6 -->
<g id="node6" class="node">
<title>Node6</title>
<g id="a_node6"><a xlink:href="_tensor_8hpp.html" target="_top" xlink:title=" ">
<polygon fill="white" stroke="black" points="442.5,-168.5 442.5,-187.5 510.5,-187.5 510.5,-168.5 442.5,-168.5"/>
<text text-anchor="middle" x="476.5" y="-175.5" font-family="Helvetica,sans-Serif" font-size="10.00">Tensor.hpp</text>
</a>
</g>
</g>
<!-- Node2&#45;&gt;Node6 -->
<g id="edge39" class="edge">
<title>Node2&#45;&gt;Node6</title>
<path fill="none" stroke="midnightblue" d="M415.68,-280.37C426.52,-262.3 451.79,-220.18 466.12,-196.31"/>
<polygon fill="midnightblue" stroke="midnightblue" points="469.2,-197.97 471.35,-187.59 463.2,-194.37 469.2,-197.97"/>
</g>
<!-- Node4 -->
<g id="node4" class="node">
<title>Node4</title>
<g id="a_node4"><a xlink:href="_deprecated_8hpp.html" target="_top" xlink:title=" ">
<polygon fill="white" stroke="black" points="396.5,-56.5 396.5,-75.5 490.5,-75.5 490.5,-56.5 396.5,-56.5"/>
<text text-anchor="middle" x="443.5" y="-63.5" font-family="Helvetica,sans-Serif" font-size="10.00">Deprecated.hpp</text>
</a>
</g>
</g>
<!-- Node3&#45;&gt;Node4 -->
<g id="edge3" class="edge">
<title>Node3&#45;&gt;Node4</title>
<path fill="none" stroke="midnightblue" d="M304.39,-224.35C297.3,-202.95 282.4,-146.74 307.5,-112 317.64,-97.96 356.99,-85.88 390.77,-77.78"/>
<polygon fill="midnightblue" stroke="midnightblue" points="391.63,-81.18 400.58,-75.5 390.05,-74.36 391.63,-81.18"/>
</g>
<!-- Node5 -->
<g id="node5" class="node">
<title>Node5</title>
<g id="a_node5"><a xlink:href="_descriptors_fwd_8hpp.html" target="_top" xlink:title=" ">
<polygon fill="white" stroke="black" points="71,-168.5 71,-187.5 184,-187.5 184,-168.5 71,-168.5"/>
<text text-anchor="middle" x="127.5" y="-175.5" font-family="Helvetica,sans-Serif" font-size="10.00">DescriptorsFwd.hpp</text>
</a>
</g>
</g>
<!-- Node3&#45;&gt;Node5 -->
<g id="edge4" class="edge">
<title>Node3&#45;&gt;Node5</title>
<path fill="none" stroke="midnightblue" d="M278.98,-224.44C248.43,-215.28 199.79,-200.69 165.9,-190.52"/>
<polygon fill="midnightblue" stroke="midnightblue" points="166.47,-187.04 155.89,-187.52 164.46,-193.74 166.47,-187.04"/>
</g>
<!-- Node3&#45;&gt;Node6 -->
<g id="edge5" class="edge">
<title>Node3&#45;&gt;Node6</title>
<path fill="none" stroke="midnightblue" d="M334.28,-224.44C362.83,-215.32 408.23,-200.81 440.04,-190.65"/>
<polygon fill="midnightblue" stroke="midnightblue" points="441.39,-193.89 449.85,-187.52 439.26,-187.23 441.39,-193.89"/>
</g>
<!-- Node7 -->
<g id="node7" class="node">
<title>Node7</title>
<g id="a_node7"><a xlink:href="_exceptions_8hpp.html" target="_top" xlink:title=" ">
<polygon fill="white" stroke="black" points="287,-56.5 287,-75.5 378,-75.5 378,-56.5 287,-56.5"/>
<text text-anchor="middle" x="332.5" y="-63.5" font-family="Helvetica,sans-Serif" font-size="10.00">Exceptions.hpp</text>
</a>
</g>
</g>
<!-- Node3&#45;&gt;Node7 -->
<g id="edge34" class="edge">
<title>Node3&#45;&gt;Node7</title>
<path fill="none" stroke="midnightblue" d="M298.48,-224.34C290.43,-215.93 279.2,-202.36 274.5,-188 263.99,-155.9 259.64,-142.33 274.5,-112 281.02,-98.68 293.6,-88.18 305.37,-80.68"/>
<polygon fill="midnightblue" stroke="midnightblue" points="307.27,-83.62 314.11,-75.53 303.72,-77.59 307.27,-83.62"/>
</g>
<!-- Node14 -->
<g id="node14" class="node">
<title>Node14</title>
<g id="a_node14"><a xlink:href="_types_8hpp.html" target="_top" xlink:title=" ">
<polygon fill="white" stroke="black" points="733,-112.5 733,-131.5 798,-131.5 798,-112.5 733,-112.5"/>
<text text-anchor="middle" x="765.5" y="-119.5" font-family="Helvetica,sans-Serif" font-size="10.00">Types.hpp</text>
</a>
</g>
</g>
<!-- Node3&#45;&gt;Node14 -->
<g id="edge33" class="edge">
<title>Node3&#45;&gt;Node14</title>
<path fill="none" stroke="midnightblue" d="M364.67,-224.47C407.88,-217.17 468.29,-205.1 519.5,-188 539.49,-181.32 542.54,-174.77 562.5,-168 591.69,-158.11 672.24,-141.39 722.66,-131.36"/>
<polygon fill="midnightblue" stroke="midnightblue" points="723.49,-134.76 732.62,-129.38 722.13,-127.89 723.49,-134.76"/>
</g>
<!-- Node24 -->
<g id="node24" class="node">
<title>Node24</title>
<g id="a_node24"><a xlink:title=" ">
<polygon fill="white" stroke="#bfbfbf" points="235,-0.5 235,-19.5 282,-19.5 282,-0.5 235,-0.5"/>
<text text-anchor="middle" x="258.5" y="-7.5" font-family="Helvetica,sans-Serif" font-size="10.00">vector</text>
</a>
</g>
</g>
<!-- Node3&#45;&gt;Node24 -->
<g id="edge38" class="edge">
<title>Node3&#45;&gt;Node24</title>
<path fill="none" stroke="midnightblue" d="M295.13,-224.25C284.83,-216.16 270.87,-203.14 264.5,-188 241.89,-134.26 249.48,-63.01 254.94,-29.68"/>
<polygon fill="midnightblue" stroke="midnightblue" points="258.44,-30.02 256.73,-19.56 251.54,-28.8 258.44,-30.02"/>
</g>
<!-- Node26 -->
<g id="node26" class="node">
<title>Node26</title>
<g id="a_node26"><a xlink:title=" ">
<polygon fill="white" stroke="#bfbfbf" points="317,-112.5 317,-131.5 362,-131.5 362,-112.5 317,-112.5"/>
<text text-anchor="middle" x="339.5" y="-119.5" font-family="Helvetica,sans-Serif" font-size="10.00">utility</text>
</a>
</g>
</g>
<!-- Node3&#45;&gt;Node26 -->
<g id="edge37" class="edge">
<title>Node3&#45;&gt;Node26</title>
<path fill="none" stroke="midnightblue" d="M310.01,-224.37C315.2,-206.54 327.2,-165.3 334.18,-141.27"/>
<polygon fill="midnightblue" stroke="midnightblue" points="337.57,-142.17 337,-131.59 330.85,-140.22 337.57,-142.17"/>
</g>
<!-- Node27 -->
<g id="node27" class="node">
<title>Node27</title>
<g id="a_node27"><a xlink:title=" ">
<polygon fill="white" stroke="#bfbfbf" points="354.5,-168.5 354.5,-187.5 404.5,-187.5 404.5,-168.5 354.5,-168.5"/>
<text text-anchor="middle" x="379.5" y="-175.5" font-family="Helvetica,sans-Serif" font-size="10.00">cstdint</text>
</a>
</g>
</g>
<!-- Node3&#45;&gt;Node27 -->
<g id="edge35" class="edge">
<title>Node3&#45;&gt;Node27</title>
<path fill="none" stroke="midnightblue" d="M319.07,-224.32C329.92,-216.18 346.38,-203.84 359.38,-194.09"/>
<polygon fill="midnightblue" stroke="midnightblue" points="361.82,-196.63 367.72,-187.83 357.62,-191.03 361.82,-196.63"/>
</g>
<!-- Node28 -->
<g id="node28" class="node">
<title>Node28</title>
<g id="a_node28"><a xlink:title=" ">
<polygon fill="white" stroke="#bfbfbf" points="0,-168.5 0,-187.5 53,-187.5 53,-168.5 0,-168.5"/>
<text text-anchor="middle" x="26.5" y="-175.5" font-family="Helvetica,sans-Serif" font-size="10.00">iterator</text>
</a>
</g>
</g>
<!-- Node3&#45;&gt;Node28 -->
<g id="edge36" class="edge">
<title>Node3&#45;&gt;Node28</title>
<path fill="none" stroke="midnightblue" d="M254.98,-224.5C207.27,-216.53 134.74,-203.79 63.28,-188.28"/>
<polygon fill="midnightblue" stroke="midnightblue" points="63.72,-184.8 53.21,-186.07 62.23,-191.63 63.72,-184.8"/>
</g>
<!-- Node6&#45;&gt;Node7 -->
<g id="edge6" class="edge">
<title>Node6&#45;&gt;Node7</title>
<path fill="none" stroke="midnightblue" d="M468.06,-168.47C455.03,-155.53 428.96,-130.46 404.5,-112 389.25,-100.49 370.99,-89.1 356.67,-80.66"/>
<polygon fill="midnightblue" stroke="midnightblue" points="358.31,-77.56 347.9,-75.57 354.79,-83.62 358.31,-77.56"/>
</g>
<!-- Node11 -->
<g id="node11" class="node">
<title>Node11</title>
<g id="a_node11"><a xlink:href="_optional_8hpp.html" target="_top" xlink:title=" ">
<polygon fill="white" stroke="black" points="457,-112.5 457,-131.5 536,-131.5 536,-112.5 457,-112.5"/>
<text text-anchor="middle" x="496.5" y="-119.5" font-family="Helvetica,sans-Serif" font-size="10.00">Optional.hpp</text>
</a>
</g>
</g>
<!-- Node6&#45;&gt;Node11 -->
<g id="edge10" class="edge">
<title>Node6&#45;&gt;Node11</title>
<path fill="none" stroke="midnightblue" d="M479.8,-168.08C482.48,-160.85 486.35,-150.41 489.69,-141.4"/>
<polygon fill="midnightblue" stroke="midnightblue" points="493.07,-142.34 493.26,-131.75 486.5,-139.91 493.07,-142.34"/>
</g>
<!-- Node6&#45;&gt;Node14 -->
<g id="edge14" class="edge">
<title>Node6&#45;&gt;Node14</title>
<path fill="none" stroke="midnightblue" d="M510.59,-170.6C515.26,-169.73 520,-168.84 524.5,-168 610.71,-151.92 632.32,-148.25 718.5,-132 719.95,-131.73 721.43,-131.45 722.93,-131.16"/>
<polygon fill="midnightblue" stroke="midnightblue" points="723.72,-134.58 732.89,-129.27 722.41,-127.7 723.72,-134.58"/>
</g>
<!-- Node15 -->
<g id="node15" class="node">
<title>Node15</title>
<g id="a_node15"><a xlink:title=" ">
<polygon fill="white" stroke="#bfbfbf" points="735.5,-56.5 735.5,-75.5 777.5,-75.5 777.5,-56.5 735.5,-56.5"/>
<text text-anchor="middle" x="756.5" y="-63.5" font-family="Helvetica,sans-Serif" font-size="10.00">array</text>
</a>
</g>
</g>
<!-- Node6&#45;&gt;Node15 -->
<g id="edge29" class="edge">
<title>Node6&#45;&gt;Node15</title>
<path fill="none" stroke="midnightblue" d="M510.78,-170.59C565.78,-160.15 669.17,-139.86 684.5,-132 707.8,-120.06 729.36,-98.64 742.69,-83.67"/>
<polygon fill="midnightblue" stroke="midnightblue" points="745.67,-85.58 749.55,-75.72 740.37,-81.01 745.67,-85.58"/>
</g>
<!-- Node17 -->
<g id="node17" class="node">
<title>Node17</title>
<g id="a_node17"><a xlink:title=" ">
<polygon fill="white" stroke="#bfbfbf" points="664,-56.5 664,-75.5 717,-75.5 717,-56.5 664,-56.5"/>
<text text-anchor="middle" x="690.5" y="-63.5" font-family="Helvetica,sans-Serif" font-size="10.00">stdint.h</text>
</a>
</g>
</g>
<!-- Node6&#45;&gt;Node17 -->
<g id="edge28" class="edge">
<title>Node6&#45;&gt;Node17</title>
<path fill="none" stroke="midnightblue" d="M489.32,-168.35C509.05,-155.25 548.27,-129.99 583.5,-112 607.94,-99.53 636.65,-87.59 658.17,-79.15"/>
<polygon fill="midnightblue" stroke="midnightblue" points="659.45,-82.41 667.51,-75.53 656.92,-75.88 659.45,-82.41"/>
</g>
<!-- Node6&#45;&gt;Node24 -->
<g id="edge31" class="edge">
<title>Node6&#45;&gt;Node24</title>
<path fill="none" stroke="midnightblue" d="M462.92,-168.48C436.5,-151.94 379.93,-116.67 370.5,-112 330.78,-92.34 307.48,-108.64 277.5,-76 265.95,-63.43 261.39,-44.21 259.61,-29.93"/>
<polygon fill="midnightblue" stroke="midnightblue" points="263.07,-29.4 258.69,-19.75 256.1,-30.03 263.07,-29.4"/>
</g>
<!-- Node25 -->
<g id="node25" class="node">
<title>Node25</title>
<g id="a_node25"><a xlink:title=" ">
<polygon fill="white" stroke="#bfbfbf" points="593,-112.5 593,-131.5 676,-131.5 676,-112.5 593,-112.5"/>
<text text-anchor="middle" x="634.5" y="-119.5" font-family="Helvetica,sans-Serif" font-size="10.00">initializer_list</text>
</a>
</g>
</g>
<!-- Node6&#45;&gt;Node25 -->
<g id="edge30" class="edge">
<title>Node6&#45;&gt;Node25</title>
<path fill="none" stroke="midnightblue" d="M501.54,-168.44C528.12,-159.36 570.31,-144.94 600.02,-134.78"/>
<polygon fill="midnightblue" stroke="midnightblue" points="601.25,-138.06 609.58,-131.52 598.99,-131.44 601.25,-138.06"/>
</g>
<!-- Node6&#45;&gt;Node26 -->
<g id="edge32" class="edge">
<title>Node6&#45;&gt;Node26</title>
<path fill="none" stroke="midnightblue" d="M454.79,-168.44C432.15,-159.52 396.43,-145.44 370.75,-135.32"/>
<polygon fill="midnightblue" stroke="midnightblue" points="371.69,-131.93 361.11,-131.52 369.13,-138.44 371.69,-131.93"/>
</g>
<!-- Node8 -->
<g id="node8" class="node">
<title>Node8</title>
<g id="a_node8"><a xlink:title=" ">
<polygon fill="white" stroke="#bfbfbf" points="302.5,-0.5 302.5,-19.5 358.5,-19.5 358.5,-0.5 302.5,-0.5"/>
<text text-anchor="middle" x="330.5" y="-7.5" font-family="Helvetica,sans-Serif" font-size="10.00">sstream</text>
</a>
</g>
</g>
<!-- Node7&#45;&gt;Node8 -->
<g id="edge7" class="edge">
<title>Node7&#45;&gt;Node8</title>
<path fill="none" stroke="midnightblue" d="M332.17,-56.08C331.91,-49.01 331.53,-38.86 331.2,-29.99"/>
<polygon fill="midnightblue" stroke="midnightblue" points="334.69,-29.61 330.82,-19.75 327.7,-29.87 334.69,-29.61"/>
</g>
<!-- Node9 -->
<g id="node9" class="node">
<title>Node9</title>
<g id="a_node9"><a xlink:title=" ">
<polygon fill="white" stroke="#bfbfbf" points="377,-0.5 377,-19.5 442,-19.5 442,-0.5 377,-0.5"/>
<text text-anchor="middle" x="409.5" y="-7.5" font-family="Helvetica,sans-Serif" font-size="10.00">stdexcept</text>
</a>
</g>
</g>
<!-- Node7&#45;&gt;Node9 -->
<g id="edge8" class="edge">
<title>Node7&#45;&gt;Node9</title>
<path fill="none" stroke="midnightblue" d="M344.87,-56.32C356.66,-48.06 374.63,-35.45 388.64,-25.63"/>
<polygon fill="midnightblue" stroke="midnightblue" points="390.98,-28.26 397.16,-19.65 386.96,-22.53 390.98,-28.26"/>
</g>
<!-- Node10 -->
<g id="node10" class="node">
<title>Node10</title>
<g id="a_node10"><a xlink:title=" ">
<polygon fill="white" stroke="#bfbfbf" points="600.5,-0.5 600.5,-19.5 644.5,-19.5 644.5,-0.5 600.5,-0.5"/>
<text text-anchor="middle" x="622.5" y="-7.5" font-family="Helvetica,sans-Serif" font-size="10.00">string</text>
</a>
</g>
</g>
<!-- Node7&#45;&gt;Node10 -->
<g id="edge9" class="edge">
<title>Node7&#45;&gt;Node10</title>
<path fill="none" stroke="midnightblue" d="M378.13,-56.5C437.23,-45.5 538.75,-26.6 590.35,-16.99"/>
<polygon fill="midnightblue" stroke="midnightblue" points="591.09,-20.41 600.28,-15.14 589.81,-13.53 591.09,-20.41"/>
</g>
<!-- Node11&#45;&gt;Node7 -->
<g id="edge11" class="edge">
<title>Node11&#45;&gt;Node7</title>
<path fill="none" stroke="midnightblue" d="M470.51,-112.44C442.8,-103.32 398.75,-88.81 367.88,-78.65"/>
<polygon fill="midnightblue" stroke="midnightblue" points="368.96,-75.32 358.36,-75.52 366.77,-81.97 368.96,-75.32"/>
</g>
<!-- Node12 -->
<g id="node12" class="node">
<title>Node12</title>
<g id="a_node12"><a xlink:title=" ">
<polygon fill="white" stroke="#bfbfbf" points="508.5,-56.5 508.5,-75.5 558.5,-75.5 558.5,-56.5 508.5,-56.5"/>
<text text-anchor="middle" x="533.5" y="-63.5" font-family="Helvetica,sans-Serif" font-size="10.00">cstring</text>
</a>
</g>
</g>
<!-- Node11&#45;&gt;Node12 -->
<g id="edge12" class="edge">
<title>Node11&#45;&gt;Node12</title>
<path fill="none" stroke="midnightblue" d="M502.61,-112.08C507.78,-104.53 515.35,-93.49 521.69,-84.23"/>
<polygon fill="midnightblue" stroke="midnightblue" points="524.74,-85.98 527.5,-75.75 518.96,-82.02 524.74,-85.98"/>
</g>
<!-- Node13 -->
<g id="node13" class="node">
<title>Node13</title>
<g id="a_node13"><a xlink:title=" ">
<polygon fill="white" stroke="#bfbfbf" points="577,-56.5 577,-75.5 646,-75.5 646,-56.5 577,-56.5"/>
<text text-anchor="middle" x="611.5" y="-63.5" font-family="Helvetica,sans-Serif" font-size="10.00">type_traits</text>
</a>
</g>
</g>
<!-- Node11&#45;&gt;Node13 -->
<g id="edge13" class="edge">
<title>Node11&#45;&gt;Node13</title>
<path fill="none" stroke="midnightblue" d="M514.72,-112.44C533.4,-103.68 562.66,-89.94 584.12,-79.86"/>
<polygon fill="midnightblue" stroke="midnightblue" points="585.8,-82.93 593.36,-75.52 582.82,-76.6 585.8,-82.93"/>
</g>
<!-- Node14&#45;&gt;Node4 -->
<g id="edge27" class="edge">
<title>Node14&#45;&gt;Node4</title>
<path fill="none" stroke="midnightblue" d="M732.85,-115.53C678.41,-106.39 568.39,-87.95 500.81,-76.61"/>
<polygon fill="midnightblue" stroke="midnightblue" points="501.19,-73.13 490.75,-74.92 500.03,-80.03 501.19,-73.13"/>
</g>
<!-- Node14&#45;&gt;Node7 -->
<g id="edge26" class="edge">
<title>Node14&#45;&gt;Node7</title>
<path fill="none" stroke="midnightblue" d="M732.73,-117.29C656.91,-108.66 470.25,-87.26 388.05,-76.01"/>
<polygon fill="midnightblue" stroke="midnightblue" points="388.48,-72.53 378.1,-74.62 387.52,-79.46 388.48,-72.53"/>
</g>
<!-- Node14&#45;&gt;Node15 -->
<g id="edge15" class="edge">
<title>Node14&#45;&gt;Node15</title>
<path fill="none" stroke="midnightblue" d="M764.01,-112.08C762.82,-104.93 761.11,-94.64 759.62,-85.69"/>
<polygon fill="midnightblue" stroke="midnightblue" points="763.05,-85.04 757.96,-75.75 756.15,-86.19 763.05,-85.04"/>
</g>
<!-- Node16 -->
<g id="node16" class="node">
<title>Node16</title>
<g id="a_node16"><a xlink:title=" ">
<polygon fill="white" stroke="#bfbfbf" points="970,-56.5 970,-75.5 1035,-75.5 1035,-56.5 970,-56.5"/>
<text text-anchor="middle" x="1002.5" y="-63.5" font-family="Helvetica,sans-Serif" font-size="10.00">functional</text>
</a>
</g>
</g>
<!-- Node14&#45;&gt;Node16 -->
<g id="edge16" class="edge">
<title>Node14&#45;&gt;Node16</title>
<path fill="none" stroke="midnightblue" d="M798.45,-113.49C840.55,-103.9 913.49,-87.28 959.8,-76.73"/>
<polygon fill="midnightblue" stroke="midnightblue" points="960.85,-80.08 969.83,-74.44 959.3,-73.25 960.85,-80.08"/>
</g>
<!-- Node14&#45;&gt;Node17 -->
<g id="edge17" class="edge">
<title>Node14&#45;&gt;Node17</title>
<path fill="none" stroke="midnightblue" d="M753.45,-112.32C742.04,-104.11 724.67,-91.6 711.07,-81.81"/>
<polygon fill="midnightblue" stroke="midnightblue" points="712.93,-78.84 702.77,-75.83 708.84,-84.52 712.93,-78.84"/>
</g>
<!-- Node18 -->
<g id="node18" class="node">
<title>Node18</title>
<g id="a_node18"><a xlink:title=" ">
<polygon fill="white" stroke="#bfbfbf" points="795.5,-56.5 795.5,-75.5 845.5,-75.5 845.5,-56.5 795.5,-56.5"/>
<text text-anchor="middle" x="820.5" y="-63.5" font-family="Helvetica,sans-Serif" font-size="10.00">chrono</text>
</a>
</g>
</g>
<!-- Node14&#45;&gt;Node18 -->
<g id="edge18" class="edge">
<title>Node14&#45;&gt;Node18</title>
<path fill="none" stroke="midnightblue" d="M774.58,-112.08C782.67,-104.14 794.7,-92.34 804.41,-82.8"/>
<polygon fill="midnightblue" stroke="midnightblue" points="806.9,-85.25 811.59,-75.75 802,-80.26 806.9,-85.25"/>
</g>
<!-- Node19 -->
<g id="node19" class="node">
<title>Node19</title>
<g id="a_node19"><a xlink:href="_backend_id_8hpp.html" target="_top" xlink:title=" ">
<polygon fill="white" stroke="black" points="863.5,-56.5 863.5,-75.5 951.5,-75.5 951.5,-56.5 863.5,-56.5"/>
<text text-anchor="middle" x="907.5" y="-63.5" font-family="Helvetica,sans-Serif" font-size="10.00">BackendId.hpp</text>
</a>
</g>
</g>
<!-- Node14&#45;&gt;Node19 -->
<g id="edge19" class="edge">
<title>Node14&#45;&gt;Node19</title>
<path fill="none" stroke="midnightblue" d="M788,-112.44C811.58,-103.48 848.82,-89.31 875.46,-79.18"/>
<polygon fill="midnightblue" stroke="midnightblue" points="877,-82.34 885.1,-75.52 874.51,-75.8 877,-82.34"/>
</g>
<!-- Node19&#45;&gt;Node10 -->
<g id="edge23" class="edge">
<title>Node19&#45;&gt;Node10</title>
<path fill="none" stroke="midnightblue" d="M863.28,-56.62C805.5,-45.67 705.7,-26.76 654.63,-17.09"/>
<polygon fill="midnightblue" stroke="midnightblue" points="655.28,-13.65 644.8,-15.23 653.97,-20.53 655.28,-13.65"/>
</g>
<!-- Node20 -->
<g id="node20" class="node">
<title>Node20</title>
<g id="a_node20"><a xlink:title=" ">
<polygon fill="white" stroke="#bfbfbf" points="770.5,-0.5 770.5,-19.5 828.5,-19.5 828.5,-0.5 770.5,-0.5"/>
<text text-anchor="middle" x="799.5" y="-7.5" font-family="Helvetica,sans-Serif" font-size="10.00">memory</text>
</a>
</g>
</g>
<!-- Node19&#45;&gt;Node20 -->
<g id="edge20" class="edge">
<title>Node19&#45;&gt;Node20</title>
<path fill="none" stroke="midnightblue" d="M890.15,-56.32C872.83,-47.66 845.98,-34.24 826,-24.25"/>
<polygon fill="midnightblue" stroke="midnightblue" points="827.32,-21 816.81,-19.65 824.19,-27.26 827.32,-21"/>
</g>
<!-- Node21 -->
<g id="node21" class="node">
<title>Node21</title>
<g id="a_node21"><a xlink:title=" ">
<polygon fill="white" stroke="#bfbfbf" points="847,-0.5 847,-19.5 904,-19.5 904,-0.5 847,-0.5"/>
<text text-anchor="middle" x="875.5" y="-7.5" font-family="Helvetica,sans-Serif" font-size="10.00">ostream</text>
</a>
</g>
</g>
<!-- Node19&#45;&gt;Node21 -->
<g id="edge21" class="edge">
<title>Node19&#45;&gt;Node21</title>
<path fill="none" stroke="midnightblue" d="M902.22,-56.08C897.79,-48.61 891.34,-37.72 885.88,-28.52"/>
<polygon fill="midnightblue" stroke="midnightblue" points="888.79,-26.57 880.69,-19.75 882.77,-30.14 888.79,-26.57"/>
</g>
<!-- Node22 -->
<g id="node22" class="node">
<title>Node22</title>
<g id="a_node22"><a xlink:title=" ">
<polygon fill="white" stroke="#bfbfbf" points="922.5,-0.5 922.5,-19.5 954.5,-19.5 954.5,-0.5 922.5,-0.5"/>
<text text-anchor="middle" x="938.5" y="-7.5" font-family="Helvetica,sans-Serif" font-size="10.00">set</text>
</a>
</g>
</g>
<!-- Node19&#45;&gt;Node22 -->
<g id="edge22" class="edge">
<title>Node19&#45;&gt;Node22</title>
<path fill="none" stroke="midnightblue" d="M912.62,-56.08C916.91,-48.61 923.16,-37.72 928.44,-28.52"/>
<polygon fill="midnightblue" stroke="midnightblue" points="931.53,-30.17 933.48,-19.75 925.46,-26.68 931.53,-30.17"/>
</g>
<!-- Node23 -->
<g id="node23" class="node">
<title>Node23</title>
<g id="a_node23"><a xlink:title=" ">
<polygon fill="white" stroke="#bfbfbf" points="972.5,-0.5 972.5,-19.5 1058.5,-19.5 1058.5,-0.5 972.5,-0.5"/>
<text text-anchor="middle" x="1015.5" y="-7.5" font-family="Helvetica,sans-Serif" font-size="10.00">unordered_set</text>
</a>
</g>
</g>
<!-- Node19&#45;&gt;Node23 -->
<g id="edge24" class="edge">
<title>Node19&#45;&gt;Node23</title>
<path fill="none" stroke="midnightblue" d="M924.85,-56.32C942.17,-47.66 969.02,-34.24 989,-24.25"/>
<polygon fill="midnightblue" stroke="midnightblue" points="990.81,-27.26 998.19,-19.65 987.68,-21 990.81,-27.26"/>
</g>
<!-- Node19&#45;&gt;Node24 -->
<g id="edge25" class="edge">
<title>Node19&#45;&gt;Node24</title>
<path fill="none" stroke="midnightblue" d="M863.3,-57.14C860.33,-56.72 857.37,-56.34 854.5,-56 606.34,-27.05 540.24,-59.28 293.5,-20 293.04,-19.93 292.57,-19.85 292.1,-19.77"/>
<polygon fill="midnightblue" stroke="midnightblue" points="292.6,-16.3 282.1,-17.71 291.18,-23.15 292.6,-16.3"/>
</g>
<!-- Node29&#45;&gt;Node6 -->
<g id="edge42" class="edge">
<title>Node29&#45;&gt;Node6</title>
<path fill="none" stroke="midnightblue" d="M568.65,-280.37C551.93,-261.97 512.56,-218.67 491.09,-195.05"/>
<polygon fill="midnightblue" stroke="midnightblue" points="493.63,-192.64 484.31,-187.59 488.45,-197.35 493.63,-192.64"/>
</g>
<!-- Node29&#45;&gt;Node14 -->
<g id="edge41" class="edge">
<title>Node29&#45;&gt;Node14</title>
<path fill="none" stroke="midnightblue" d="M578.03,-280.24C582.48,-257.58 597.68,-196.74 636.5,-168 662.03,-149.1 696.14,-137.66 722.87,-131.05"/>
<polygon fill="midnightblue" stroke="midnightblue" points="723.79,-134.43 732.73,-128.75 722.19,-127.62 723.79,-134.43"/>
</g>
<!-- Node29&#45;&gt;Node30 -->
<g id="edge43" class="edge">
<title>Node29&#45;&gt;Node30</title>
<path fill="none" stroke="midnightblue" d="M591.76,-280.32C606.72,-271.82 629.75,-258.73 647.23,-248.8"/>
<polygon fill="midnightblue" stroke="midnightblue" points="649.31,-251.64 656.27,-243.65 645.85,-245.55 649.31,-251.64"/>
</g>
<!-- Node31 -->
<g id="node31" class="node">
<title>Node31</title>
<g id="a_node31"><a xlink:title=" ">
<polygon fill="white" stroke="#bfbfbf" points="645.5,-168.5 645.5,-187.5 697.5,-187.5 697.5,-168.5 645.5,-168.5"/>
<text text-anchor="middle" x="671.5" y="-175.5" font-family="Helvetica,sans-Serif" font-size="10.00">cassert</text>
</a>
</g>
</g>
<!-- Node30&#45;&gt;Node31 -->
<g id="edge44" class="edge">
<title>Node30&#45;&gt;Node31</title>
<path fill="none" stroke="midnightblue" d="M671.5,-224.08C671.5,-217.01 671.5,-206.86 671.5,-197.99"/>
<polygon fill="midnightblue" stroke="midnightblue" points="675,-197.75 671.5,-187.75 668,-197.75 675,-197.75"/>
</g>
<!-- Node32&#45;&gt;Node14 -->
<g id="edge47" class="edge">
<title>Node32&#45;&gt;Node14</title>
<path fill="none" stroke="midnightblue" d="M905.46,-280.46C937.85,-270.31 980.18,-251.24 963.5,-224 929.79,-168.97 855.63,-142.74 808.25,-131.16"/>
<polygon fill="midnightblue" stroke="midnightblue" points="808.82,-127.7 798.28,-128.84 807.23,-134.52 808.82,-127.7"/>
</g>
<!-- Node33 -->
<g id="node33" class="node">
<title>Node33</title>
<g id="a_node33"><a xlink:href="_tensor_fwd_8hpp.html" target="_top" xlink:title=" ">
<polygon fill="white" stroke="black" points="756.5,-224.5 756.5,-243.5 880.5,-243.5 880.5,-224.5 756.5,-224.5"/>
<text text-anchor="middle" x="818.5" y="-231.5" font-family="Helvetica,sans-Serif" font-size="10.00">armnn/TensorFwd.hpp</text>
</a>
</g>
</g>
<!-- Node32&#45;&gt;Node33 -->
<g id="edge46" class="edge">
<title>Node32&#45;&gt;Node33</title>
<path fill="none" stroke="midnightblue" d="M863.58,-280.08C855.72,-272.22 844.07,-260.57 834.58,-251.08"/>
<polygon fill="midnightblue" stroke="midnightblue" points="836.8,-248.35 827.25,-243.75 831.85,-253.3 836.8,-248.35"/>
</g>
<!-- Node34 -->
<g id="node34" class="node">
<title>Node34</title>
<g id="a_node34"><a xlink:title=" ">
<polygon fill="white" stroke="#bfbfbf" points="898.5,-224.5 898.5,-243.5 954.5,-243.5 954.5,-224.5 898.5,-224.5"/>
<text text-anchor="middle" x="926.5" y="-231.5" font-family="Helvetica,sans-Serif" font-size="10.00">stddef.h</text>
</a>
</g>
</g>
<!-- Node32&#45;&gt;Node34 -->
<g id="edge48" class="edge">
<title>Node32&#45;&gt;Node34</title>
<path fill="none" stroke="midnightblue" d="M881.42,-280.08C889.28,-272.22 900.93,-260.57 910.42,-251.08"/>
<polygon fill="midnightblue" stroke="midnightblue" points="913.15,-253.3 917.75,-243.75 908.2,-248.35 913.15,-253.3"/>
</g>
</g>
</svg>
