<?xml version="1.0" encoding="UTF-8" standalone="no"?>
<!DOCTYPE svg PUBLIC "-//W3C//DTD SVG 1.1//EN"
 "http://www.w3.org/Graphics/SVG/1.1/DTD/svg11.dtd">
<!-- Generated by graphviz version 2.43.0 (0)
 -->
<!-- Title: src/backends/gpuFsa/GpuFsaTensorHandle.hpp Pages: 1 -->
<svg width="948pt" height="117pt"
 viewBox="0.00 0.00 947.50 117.00" xmlns="http://www.w3.org/2000/svg" xmlns:xlink="http://www.w3.org/1999/xlink">
<g id="graph0" class="graph" transform="scale(1 1) rotate(0) translate(4 113)">
<title>src/backends/gpuFsa/GpuFsaTensorHandle.hpp</title>
<polygon fill="white" stroke="transparent" points="-4,4 -4,-113 943.5,-113 943.5,4 -4,4"/>
<!-- Node1 -->
<g id="node1" class="node">
<title>Node1</title>
<g id="a_node1"><a xlink:title=" ">
<polygon fill="#bfbfbf" stroke="black" points="362,-78.5 362,-108.5 505,-108.5 505,-78.5 362,-78.5"/>
<text text-anchor="start" x="370" y="-96.5" font-family="Helvetica,sans-Serif" font-size="10.00">src/backends/gpuFsa</text>
<text text-anchor="middle" x="433.5" y="-85.5" font-family="Helvetica,sans-Serif" font-size="10.00">/GpuFsaTensorHandle.hpp</text>
</a>
</g>
</g>
<!-- Node2 -->
<g id="node2" class="node">
<title>Node2</title>
<g id="a_node2"><a xlink:href="_gpu_fsa_tensor_handle_8cpp.html" target="_top" xlink:title=" ">
<polygon fill="white" stroke="black" points="0,-6 0,-36 143,-36 143,-6 0,-6"/>
<text text-anchor="start" x="8" y="-24" font-family="Helvetica,sans-Serif" font-size="10.00">src/backends/gpuFsa</text>
<text text-anchor="middle" x="71.5" y="-13" font-family="Helvetica,sans-Serif" font-size="10.00">/GpuFsaTensorHandle.cpp</text>
</a>
</g>
</g>
<!-- Node1&#45;&gt;Node2 -->
<g id="edge1" class="edge">
<title>Node1&#45;&gt;Node2</title>
<path fill="none" stroke="midnightblue" d="M352.03,-79.28C295.79,-69.81 219.38,-56.25 152.5,-42 144,-40.19 135.03,-38.13 126.29,-36.03"/>
<polygon fill="midnightblue" stroke="midnightblue" points="351.5,-82.74 361.94,-80.94 352.65,-75.84 351.5,-82.74"/>
</g>
<!-- Node3 -->
<g id="node3" class="node">
<title>Node3</title>
<g id="a_node3"><a xlink:href="_gpu_fsa_tensor_handle_factory_8cpp.html" target="_top" xlink:title=" ">
<polygon fill="white" stroke="black" points="161.5,-6 161.5,-36 337.5,-36 337.5,-6 161.5,-6"/>
<text text-anchor="start" x="169.5" y="-24" font-family="Helvetica,sans-Serif" font-size="10.00">src/backends/gpuFsa</text>
<text text-anchor="middle" x="249.5" y="-13" font-family="Helvetica,sans-Serif" font-size="10.00">/GpuFsaTensorHandleFactory.cpp</text>
</a>
</g>
</g>
<!-- Node1&#45;&gt;Node3 -->
<g id="edge2" class="edge">
<title>Node1&#45;&gt;Node3</title>
<path fill="none" stroke="midnightblue" d="M387.33,-74.81C356.06,-62.83 315.3,-47.21 286.23,-36.07"/>
<polygon fill="midnightblue" stroke="midnightblue" points="386.12,-78.09 396.71,-78.4 388.62,-71.56 386.12,-78.09"/>
</g>
<!-- Node4 -->
<g id="node4" class="node">
<title>Node4</title>
<g id="a_node4"><a xlink:href="_gpu_fsa_workload_factory_8cpp.html" target="_top" xlink:title=" ">
<polygon fill="white" stroke="black" points="355.5,-6 355.5,-36 511.5,-36 511.5,-6 355.5,-6"/>
<text text-anchor="start" x="363.5" y="-24" font-family="Helvetica,sans-Serif" font-size="10.00">src/backends/gpuFsa</text>
<text text-anchor="middle" x="433.5" y="-13" font-family="Helvetica,sans-Serif" font-size="10.00">/GpuFsaWorkloadFactory.cpp</text>
</a>
</g>
</g>
<!-- Node1&#45;&gt;Node4 -->
<g id="edge3" class="edge">
<title>Node1&#45;&gt;Node4</title>
<path fill="none" stroke="midnightblue" d="M433.5,-68.23C433.5,-57.57 433.5,-45.41 433.5,-36.25"/>
<polygon fill="midnightblue" stroke="midnightblue" points="430,-68.23 433.5,-78.23 437,-68.23 430,-68.23"/>
</g>
<!-- Node5 -->
<g id="node5" class="node">
<title>Node5</title>
<g id="a_node5"><a xlink:href="_gpu_fsa_constant_workload_8cpp.html" target="_top" xlink:title=" ">
<polygon fill="white" stroke="black" points="530,-6 530,-36 749,-36 749,-6 530,-6"/>
<text text-anchor="start" x="538" y="-24" font-family="Helvetica,sans-Serif" font-size="10.00">src/backends/gpuFsa</text>
<text text-anchor="middle" x="639.5" y="-13" font-family="Helvetica,sans-Serif" font-size="10.00">/workloads/GpuFsaConstantWorkload.cpp</text>
</a>
</g>
</g>
<!-- Node1&#45;&gt;Node5 -->
<g id="edge4" class="edge">
<title>Node1&#45;&gt;Node5</title>
<path fill="none" stroke="midnightblue" d="M484.29,-75.12C519.41,-63.1 565.56,-47.31 598.38,-36.07"/>
<polygon fill="midnightblue" stroke="midnightblue" points="483.02,-71.85 474.69,-78.4 485.29,-78.48 483.02,-71.85"/>
</g>
<!-- Node6 -->
<g id="node6" class="node">
<title>Node6</title>
<g id="a_node6"><a xlink:href="_gpu_fsa_pre_compiled_workload_8cpp.html" target="_top" xlink:title=" ">
<polygon fill="white" stroke="black" points="767.5,-0.5 767.5,-41.5 939.5,-41.5 939.5,-0.5 767.5,-0.5"/>
<text text-anchor="start" x="775.5" y="-29.5" font-family="Helvetica,sans-Serif" font-size="10.00">src/backends/gpuFsa</text>
<text text-anchor="start" x="775.5" y="-18.5" font-family="Helvetica,sans-Serif" font-size="10.00">/workloads/GpuFsaPreCompiled</text>
<text text-anchor="middle" x="853.5" y="-7.5" font-family="Helvetica,sans-Serif" font-size="10.00">Workload.cpp</text>
</a>
</g>
</g>
<!-- Node1&#45;&gt;Node6 -->
<g id="edge5" class="edge">
<title>Node1&#45;&gt;Node6</title>
<path fill="none" stroke="midnightblue" d="M514.92,-81.08C580.78,-71.54 675.82,-57.12 758.5,-42 761.4,-41.47 764.35,-40.92 767.33,-40.35"/>
<polygon fill="midnightblue" stroke="midnightblue" points="514.41,-77.62 505.01,-82.51 515.41,-84.54 514.41,-77.62"/>
</g>
</g>
</svg>
