<?xml version="1.0" encoding="UTF-8" standalone="no"?>
<!DOCTYPE svg PUBLIC "-//W3C//DTD SVG 1.1//EN"
 "http://www.w3.org/Graphics/SVG/1.1/DTD/svg11.dtd">
<!-- Generated by graphviz version 2.43.0 (0)
 -->
<!-- Title: src/backends/reference/workloads/Softmax.cpp Pages: 1 -->
<svg width="1257pt" height="498pt"
 viewBox="0.00 0.00 1256.50 498.00" xmlns="http://www.w3.org/2000/svg" xmlns:xlink="http://www.w3.org/1999/xlink">
<g id="graph0" class="graph" transform="scale(1 1) rotate(0) translate(4 494)">
<title>src/backends/reference/workloads/Softmax.cpp</title>
<polygon fill="white" stroke="transparent" points="-4,4 -4,-494 1252.5,-494 1252.5,4 -4,4"/>
<!-- Node1 -->
<g id="node1" class="node">
<title>Node1</title>
<g id="a_node1"><a xlink:title=" ">
<polygon fill="#bfbfbf" stroke="black" points="731.5,-459.5 731.5,-489.5 865.5,-489.5 865.5,-459.5 731.5,-459.5"/>
<text text-anchor="start" x="739.5" y="-477.5" font-family="Helvetica,sans-Serif" font-size="10.00">src/backends/reference</text>
<text text-anchor="middle" x="798.5" y="-466.5" font-family="Helvetica,sans-Serif" font-size="10.00">/workloads/Softmax.cpp</text>
</a>
</g>
</g>
<!-- Node2 -->
<g id="node2" class="node">
<title>Node2</title>
<g id="a_node2"><a xlink:href="_softmax_8hpp.html" target="_top" xlink:title=" ">
<polygon fill="white" stroke="black" points="726.5,-403.5 726.5,-422.5 804.5,-422.5 804.5,-403.5 726.5,-403.5"/>
<text text-anchor="middle" x="765.5" y="-410.5" font-family="Helvetica,sans-Serif" font-size="10.00">Softmax.hpp</text>
</a>
</g>
</g>
<!-- Node1&#45;&gt;Node2 -->
<g id="edge1" class="edge">
<title>Node1&#45;&gt;Node2</title>
<path fill="none" stroke="midnightblue" d="M790.68,-459.4C786.03,-451.02 780.1,-440.33 775.16,-431.42"/>
<polygon fill="midnightblue" stroke="midnightblue" points="778.21,-429.71 770.3,-422.66 772.09,-433.1 778.21,-429.71"/>
</g>
<!-- Node11 -->
<g id="node11" class="node">
<title>Node11</title>
<g id="a_node11"><a xlink:title=" ">
<polygon fill="white" stroke="#bfbfbf" points="1168,-0.5 1168,-19.5 1215,-19.5 1215,-0.5 1168,-0.5"/>
<text text-anchor="middle" x="1191.5" y="-7.5" font-family="Helvetica,sans-Serif" font-size="10.00">vector</text>
</a>
</g>
</g>
<!-- Node1&#45;&gt;Node11 -->
<g id="edge69" class="edge">
<title>Node1&#45;&gt;Node11</title>
<path fill="none" stroke="midnightblue" d="M865.87,-470.16C991.4,-462.09 1248.5,-436.04 1248.5,-358 1248.5,-358 1248.5,-358 1248.5,-121 1248.5,-84.3 1223.18,-47.66 1206.29,-27.3"/>
<polygon fill="midnightblue" stroke="midnightblue" points="1208.85,-24.9 1199.67,-19.62 1203.55,-29.48 1208.85,-24.9"/>
</g>
<!-- Node27 -->
<g id="node27" class="node">
<title>Node27</title>
<g id="a_node27"><a xlink:title=" ">
<polygon fill="white" stroke="#bfbfbf" points="236,-56.5 236,-75.5 283,-75.5 283,-56.5 236,-56.5"/>
<text text-anchor="middle" x="259.5" y="-63.5" font-family="Helvetica,sans-Serif" font-size="10.00">cmath</text>
</a>
</g>
</g>
<!-- Node1&#45;&gt;Node27 -->
<g id="edge68" class="edge">
<title>Node1&#45;&gt;Node27</title>
<path fill="none" stroke="midnightblue" d="M731.47,-473.56C583.21,-471.87 240.5,-457.24 240.5,-358 240.5,-358 240.5,-358 240.5,-294.5 240.5,-216.92 251.61,-124.96 256.84,-85.98"/>
<polygon fill="midnightblue" stroke="midnightblue" points="260.36,-86.04 258.25,-75.66 253.43,-85.09 260.36,-86.04"/>
</g>
<!-- Node35 -->
<g id="node35" class="node">
<title>Node35</title>
<g id="a_node35"><a xlink:href="_tensor_utils_8hpp.html" target="_top" xlink:title=" ">
<polygon fill="white" stroke="black" points="758,-286 758,-305 907,-305 907,-286 758,-286"/>
<text text-anchor="middle" x="832.5" y="-293" font-family="Helvetica,sans-Serif" font-size="10.00">armnnUtils/TensorUtils.hpp</text>
</a>
</g>
</g>
<!-- Node1&#45;&gt;Node35 -->
<g id="edge67" class="edge">
<title>Node1&#45;&gt;Node35</title>
<path fill="none" stroke="midnightblue" d="M803.24,-459.49C806.49,-449.43 810.72,-435.5 813.5,-423 821.91,-385.2 827.68,-340.2 830.5,-315.35"/>
<polygon fill="midnightblue" stroke="midnightblue" points="834.01,-315.49 831.62,-305.17 827.05,-314.72 834.01,-315.49"/>
</g>
<!-- Node3 -->
<g id="node3" class="node">
<title>Node3</title>
<g id="a_node3"><a xlink:href="_base_iterator_8hpp.html" target="_top" xlink:title=" ">
<polygon fill="white" stroke="black" points="443,-347.5 443,-366.5 540,-366.5 540,-347.5 443,-347.5"/>
<text text-anchor="middle" x="491.5" y="-354.5" font-family="Helvetica,sans-Serif" font-size="10.00">BaseIterator.hpp</text>
</a>
</g>
</g>
<!-- Node2&#45;&gt;Node3 -->
<g id="edge2" class="edge">
<title>Node2&#45;&gt;Node3</title>
<path fill="none" stroke="midnightblue" d="M726.24,-404.26C678.56,-394.87 597.92,-378.97 544.69,-368.48"/>
<polygon fill="midnightblue" stroke="midnightblue" points="545.24,-365.02 534.75,-366.52 543.89,-371.89 545.24,-365.02"/>
</g>
<!-- Node15 -->
<g id="node15" class="node">
<title>Node15</title>
<g id="a_node15"><a xlink:href="_tensor_8hpp.html" target="_top" xlink:title=" ">
<polygon fill="white" stroke="black" points="870,-168.5 870,-187.5 973,-187.5 973,-168.5 870,-168.5"/>
<text text-anchor="middle" x="921.5" y="-175.5" font-family="Helvetica,sans-Serif" font-size="10.00">armnn/Tensor.hpp</text>
</a>
</g>
</g>
<!-- Node2&#45;&gt;Node15 -->
<g id="edge66" class="edge">
<title>Node2&#45;&gt;Node15</title>
<path fill="none" stroke="midnightblue" d="M797.38,-403.47C837.63,-390.8 905.15,-362.73 934.5,-311 955.06,-274.75 940.06,-223.79 929.49,-197.03"/>
<polygon fill="midnightblue" stroke="midnightblue" points="932.7,-195.62 925.62,-187.74 926.24,-198.32 932.7,-195.62"/>
</g>
<!-- Node4 -->
<g id="node4" class="node">
<title>Node4</title>
<g id="a_node4"><a xlink:href="_types_utils_8hpp.html" target="_top" xlink:title=" ">
<polygon fill="white" stroke="black" points="530.5,-224.5 530.5,-243.5 652.5,-243.5 652.5,-224.5 530.5,-224.5"/>
<text text-anchor="middle" x="591.5" y="-231.5" font-family="Helvetica,sans-Serif" font-size="10.00">armnn/TypesUtils.hpp</text>
</a>
</g>
</g>
<!-- Node3&#45;&gt;Node4 -->
<g id="edge3" class="edge">
<title>Node3&#45;&gt;Node4</title>
<path fill="none" stroke="midnightblue" d="M498.69,-347.3C515.27,-327.24 556.38,-277.49 577.89,-251.46"/>
<polygon fill="midnightblue" stroke="midnightblue" points="580.7,-253.56 584.37,-243.62 575.31,-249.1 580.7,-253.56"/>
</g>
<!-- Node28 -->
<g id="node28" class="node">
<title>Node28</title>
<g id="a_node28"><a xlink:href="_assert_8hpp.html" target="_top" xlink:title=" ">
<polygon fill="white" stroke="black" points="78.5,-224.5 78.5,-243.5 212.5,-243.5 212.5,-224.5 78.5,-224.5"/>
<text text-anchor="middle" x="145.5" y="-231.5" font-family="Helvetica,sans-Serif" font-size="10.00">armnn/utility/Assert.hpp</text>
</a>
</g>
</g>
<!-- Node3&#45;&gt;Node28 -->
<g id="edge40" class="edge">
<title>Node3&#45;&gt;Node28</title>
<path fill="none" stroke="midnightblue" d="M457.05,-347.42C424.61,-339.07 374.83,-325.54 332.5,-311 275.39,-291.38 210.45,-263.74 174.08,-247.77"/>
<polygon fill="midnightblue" stroke="midnightblue" points="175.18,-244.43 164.62,-243.59 172.35,-250.83 175.18,-244.43"/>
</g>
<!-- Node30 -->
<g id="node30" class="node">
<title>Node30</title>
<g id="a_node30"><a xlink:href="_ignore_unused_8hpp.html" target="_top" xlink:title=" ">
<polygon fill="white" stroke="black" points="569,-286 569,-305 740,-305 740,-286 569,-286"/>
<text text-anchor="middle" x="654.5" y="-293" font-family="Helvetica,sans-Serif" font-size="10.00">armnn/utility/IgnoreUnused.hpp</text>
</a>
</g>
</g>
<!-- Node3&#45;&gt;Node30 -->
<g id="edge42" class="edge">
<title>Node3&#45;&gt;Node30</title>
<path fill="none" stroke="midnightblue" d="M514.85,-347.48C542.81,-337.27 589.83,-320.11 621.49,-308.55"/>
<polygon fill="midnightblue" stroke="midnightblue" points="623,-311.73 631.19,-305.01 620.6,-305.15 623,-311.73"/>
</g>
<!-- Node31 -->
<g id="node31" class="node">
<title>Node31</title>
<g id="a_node31"><a xlink:href="_numeric_cast_8hpp.html" target="_top" xlink:title=" ">
<polygon fill="white" stroke="black" points="0,-286 0,-305 167,-305 167,-286 0,-286"/>
<text text-anchor="middle" x="83.5" y="-293" font-family="Helvetica,sans-Serif" font-size="10.00">armnn/utility/NumericCast.hpp</text>
</a>
</g>
</g>
<!-- Node3&#45;&gt;Node31 -->
<g id="edge43" class="edge">
<title>Node3&#45;&gt;Node31</title>
<path fill="none" stroke="midnightblue" d="M442.69,-348.88C370.3,-338.33 234.21,-318.48 151.91,-306.48"/>
<polygon fill="midnightblue" stroke="midnightblue" points="152.3,-303 141.9,-305.02 151.29,-309.92 152.3,-303"/>
</g>
<!-- Node33 -->
<g id="node33" class="node">
<title>Node33</title>
<g id="a_node33"><a xlink:href="_floating_point_converter_8hpp.html" target="_top" xlink:title=" ">
<polygon fill="white" stroke="black" points="374.5,-280.5 374.5,-310.5 512.5,-310.5 512.5,-280.5 374.5,-280.5"/>
<text text-anchor="start" x="382.5" y="-298.5" font-family="Helvetica,sans-Serif" font-size="10.00">armnnUtils/FloatingPoint</text>
<text text-anchor="middle" x="443.5" y="-287.5" font-family="Helvetica,sans-Serif" font-size="10.00">Converter.hpp</text>
</a>
</g>
</g>
<!-- Node3&#45;&gt;Node33 -->
<g id="edge47" class="edge">
<title>Node3&#45;&gt;Node33</title>
<path fill="none" stroke="midnightblue" d="M484.62,-347.48C478.55,-339.94 469.42,-328.63 461.3,-318.57"/>
<polygon fill="midnightblue" stroke="midnightblue" points="463.82,-316.11 454.81,-310.52 458.37,-320.5 463.82,-316.11"/>
</g>
<!-- Node3&#45;&gt;Node35 -->
<g id="edge49" class="edge">
<title>Node3&#45;&gt;Node35</title>
<path fill="none" stroke="midnightblue" d="M540,-347.54C591.86,-338.5 676.49,-323.74 749.5,-311 757.39,-309.62 765.7,-308.17 773.89,-306.74"/>
<polygon fill="midnightblue" stroke="midnightblue" points="774.54,-310.18 783.78,-305.01 773.33,-303.29 774.54,-310.18"/>
</g>
<!-- Node36 -->
<g id="node36" class="node">
<title>Node36</title>
<g id="a_node36"><a xlink:href="_resolve_type_8hpp.html" target="_top" xlink:title=" ">
<polygon fill="white" stroke="black" points="297,-168.5 297,-187.5 396,-187.5 396,-168.5 297,-168.5"/>
<text text-anchor="middle" x="346.5" y="-175.5" font-family="Helvetica,sans-Serif" font-size="10.00">ResolveType.hpp</text>
</a>
</g>
</g>
<!-- Node3&#45;&gt;Node36 -->
<g id="edge56" class="edge">
<title>Node3&#45;&gt;Node36</title>
<path fill="none" stroke="midnightblue" d="M442.93,-350.83C416.07,-345.36 384.39,-334.11 365.5,-311 338.84,-278.39 340.48,-225.46 343.66,-197.57"/>
<polygon fill="midnightblue" stroke="midnightblue" points="347.13,-197.95 344.99,-187.58 340.2,-197.03 347.13,-197.95"/>
</g>
<!-- Node5 -->
<g id="node5" class="node">
<title>Node5</title>
<g id="a_node5"><a xlink:href="_backend_id_8hpp.html" target="_top" xlink:title=" ">
<polygon fill="white" stroke="black" points="555.5,-56.5 555.5,-75.5 677.5,-75.5 677.5,-56.5 555.5,-56.5"/>
<text text-anchor="middle" x="616.5" y="-63.5" font-family="Helvetica,sans-Serif" font-size="10.00">armnn/BackendId.hpp</text>
</a>
</g>
</g>
<!-- Node4&#45;&gt;Node5 -->
<g id="edge4" class="edge">
<title>Node4&#45;&gt;Node5</title>
<path fill="none" stroke="midnightblue" d="M594.85,-224.18C598.12,-215.21 602.95,-200.84 605.5,-188 612.6,-152.26 615.13,-109.66 616.02,-85.73"/>
<polygon fill="midnightblue" stroke="midnightblue" points="619.52,-85.7 616.34,-75.6 612.53,-85.48 619.52,-85.7"/>
</g>
<!-- Node7 -->
<g id="node7" class="node">
<title>Node7</title>
<g id="a_node7"><a xlink:title=" ">
<polygon fill="white" stroke="#bfbfbf" points="389,-0.5 389,-19.5 446,-19.5 446,-0.5 389,-0.5"/>
<text text-anchor="middle" x="417.5" y="-7.5" font-family="Helvetica,sans-Serif" font-size="10.00">ostream</text>
</a>
</g>
</g>
<!-- Node4&#45;&gt;Node7 -->
<g id="edge37" class="edge">
<title>Node4&#45;&gt;Node7</title>
<path fill="none" stroke="midnightblue" d="M566.94,-224.41C531.78,-210.75 467.92,-180.53 436.5,-132 416.16,-100.58 414.81,-55.15 415.95,-29.84"/>
<polygon fill="midnightblue" stroke="midnightblue" points="419.45,-29.95 416.59,-19.75 412.46,-29.51 419.45,-29.95"/>
</g>
<!-- Node8 -->
<g id="node8" class="node">
<title>Node8</title>
<g id="a_node8"><a xlink:title=" ">
<polygon fill="white" stroke="#bfbfbf" points="483.5,-0.5 483.5,-19.5 515.5,-19.5 515.5,-0.5 483.5,-0.5"/>
<text text-anchor="middle" x="499.5" y="-7.5" font-family="Helvetica,sans-Serif" font-size="10.00">set</text>
</a>
</g>
</g>
<!-- Node4&#45;&gt;Node8 -->
<g id="edge38" class="edge">
<title>Node4&#45;&gt;Node8</title>
<path fill="none" stroke="midnightblue" d="M589.24,-224.41C583.28,-203.16 565.37,-147.26 533.5,-112 512.9,-89.21 489.54,-102.79 474.5,-76 465.76,-60.43 475.42,-41.2 485.16,-27.71"/>
<polygon fill="midnightblue" stroke="midnightblue" points="487.97,-29.8 491.38,-19.77 482.46,-25.48 487.97,-29.8"/>
</g>
<!-- Node12 -->
<g id="node12" class="node">
<title>Node12</title>
<g id="a_node12"><a xlink:href="_exceptions_8hpp.html" target="_top" xlink:title=" ">
<polygon fill="white" stroke="black" points="959,-56.5 959,-75.5 1084,-75.5 1084,-56.5 959,-56.5"/>
<text text-anchor="middle" x="1021.5" y="-63.5" font-family="Helvetica,sans-Serif" font-size="10.00">armnn/Exceptions.hpp</text>
</a>
</g>
</g>
<!-- Node4&#45;&gt;Node12 -->
<g id="edge11" class="edge">
<title>Node4&#45;&gt;Node12</title>
<path fill="none" stroke="midnightblue" d="M613.71,-224.42C684.86,-196.96 907.25,-111.11 990.04,-79.15"/>
<polygon fill="midnightblue" stroke="midnightblue" points="991.35,-82.39 999.42,-75.52 988.83,-75.86 991.35,-82.39"/>
</g>
<!-- Node4&#45;&gt;Node15 -->
<g id="edge15" class="edge">
<title>Node4&#45;&gt;Node15</title>
<path fill="none" stroke="midnightblue" d="M643.79,-224.44C702.49,-214.84 797.66,-199.26 859.92,-189.08"/>
<polygon fill="midnightblue" stroke="midnightblue" points="860.69,-192.5 870,-187.43 859.56,-185.59 860.69,-192.5"/>
</g>
<!-- Node18 -->
<g id="node18" class="node">
<title>Node18</title>
<g id="a_node18"><a xlink:title=" ">
<polygon fill="white" stroke="#bfbfbf" points="54,-56.5 54,-75.5 123,-75.5 123,-56.5 54,-56.5"/>
<text text-anchor="middle" x="88.5" y="-63.5" font-family="Helvetica,sans-Serif" font-size="10.00">type_traits</text>
</a>
</g>
</g>
<!-- Node4&#45;&gt;Node18 -->
<g id="edge39" class="edge">
<title>Node4&#45;&gt;Node18</title>
<path fill="none" stroke="midnightblue" d="M530.44,-227.93C468.48,-221.87 370.2,-209.7 287.5,-188 220.28,-170.36 197.8,-172.75 141.5,-132 123.7,-119.11 108.46,-98.83 98.96,-84.35"/>
<polygon fill="midnightblue" stroke="midnightblue" points="101.86,-82.4 93.57,-75.81 95.94,-86.13 101.86,-82.4"/>
</g>
<!-- Node19 -->
<g id="node19" class="node">
<title>Node19</title>
<g id="a_node19"><a xlink:href="_types_8hpp.html" target="_top" xlink:title=" ">
<polygon fill="white" stroke="black" points="701,-112.5 701,-131.5 766,-131.5 766,-112.5 701,-112.5"/>
<text text-anchor="middle" x="733.5" y="-119.5" font-family="Helvetica,sans-Serif" font-size="10.00">Types.hpp</text>
</a>
</g>
</g>
<!-- Node4&#45;&gt;Node19 -->
<g id="edge34" class="edge">
<title>Node4&#45;&gt;Node19</title>
<path fill="none" stroke="midnightblue" d="M602.64,-224.37C626.8,-205.65 684.25,-161.15 714.35,-137.83"/>
<polygon fill="midnightblue" stroke="midnightblue" points="716.65,-140.48 722.41,-131.59 712.36,-134.95 716.65,-140.48"/>
</g>
<!-- Node22 -->
<g id="node22" class="node">
<title>Node22</title>
<g id="a_node22"><a xlink:title=" ">
<polygon fill="white" stroke="#bfbfbf" points="484,-56.5 484,-75.5 537,-75.5 537,-56.5 484,-56.5"/>
<text text-anchor="middle" x="510.5" y="-63.5" font-family="Helvetica,sans-Serif" font-size="10.00">stdint.h</text>
</a>
</g>
</g>
<!-- Node4&#45;&gt;Node22 -->
<g id="edge35" class="edge">
<title>Node4&#45;&gt;Node22</title>
<path fill="none" stroke="midnightblue" d="M591.76,-224.36C591.99,-203.44 590.19,-149.08 567.5,-112 559.76,-99.36 547.11,-88.83 535.69,-81.15"/>
<polygon fill="midnightblue" stroke="midnightblue" points="537.24,-77.99 526.91,-75.61 533.5,-83.91 537.24,-77.99"/>
</g>
<!-- Node4&#45;&gt;Node27 -->
<g id="edge36" class="edge">
<title>Node4&#45;&gt;Node27</title>
<path fill="none" stroke="midnightblue" d="M560.72,-224.49C531.51,-216.14 486.54,-202.57 448.5,-188 428.44,-180.32 424.47,-175.91 404.5,-168 358.24,-149.68 337.22,-163.24 298.5,-132 283.34,-119.76 272.67,-99.94 266.37,-85.4"/>
<polygon fill="midnightblue" stroke="midnightblue" points="269.53,-83.89 262.55,-75.92 263.04,-86.51 269.53,-83.89"/>
</g>
<!-- Node6 -->
<g id="node6" class="node">
<title>Node6</title>
<g id="a_node6"><a xlink:title=" ">
<polygon fill="white" stroke="#bfbfbf" points="551.5,-0.5 551.5,-19.5 609.5,-19.5 609.5,-0.5 551.5,-0.5"/>
<text text-anchor="middle" x="580.5" y="-7.5" font-family="Helvetica,sans-Serif" font-size="10.00">memory</text>
</a>
</g>
</g>
<!-- Node5&#45;&gt;Node6 -->
<g id="edge5" class="edge">
<title>Node5&#45;&gt;Node6</title>
<path fill="none" stroke="midnightblue" d="M610.56,-56.08C605.52,-48.53 598.16,-37.49 591.99,-28.23"/>
<polygon fill="midnightblue" stroke="midnightblue" points="594.79,-26.13 586.33,-19.75 588.97,-30.01 594.79,-26.13"/>
</g>
<!-- Node5&#45;&gt;Node7 -->
<g id="edge6" class="edge">
<title>Node5&#45;&gt;Node7</title>
<path fill="none" stroke="midnightblue" d="M584.97,-56.44C550.11,-46.98 493.92,-31.74 456.37,-21.55"/>
<polygon fill="midnightblue" stroke="midnightblue" points="456.87,-18.06 446.3,-18.82 455.03,-24.81 456.87,-18.06"/>
</g>
<!-- Node5&#45;&gt;Node8 -->
<g id="edge7" class="edge">
<title>Node5&#45;&gt;Node8</title>
<path fill="none" stroke="midnightblue" d="M597.96,-56.44C578.2,-47.32 546.8,-32.83 524.78,-22.67"/>
<polygon fill="midnightblue" stroke="midnightblue" points="526.24,-19.49 515.69,-18.47 523.3,-25.84 526.24,-19.49"/>
</g>
<!-- Node9 -->
<g id="node9" class="node">
<title>Node9</title>
<g id="a_node9"><a xlink:title=" ">
<polygon fill="white" stroke="#bfbfbf" points="830.5,-0.5 830.5,-19.5 874.5,-19.5 874.5,-0.5 830.5,-0.5"/>
<text text-anchor="middle" x="852.5" y="-7.5" font-family="Helvetica,sans-Serif" font-size="10.00">string</text>
</a>
</g>
</g>
<!-- Node5&#45;&gt;Node9 -->
<g id="edge8" class="edge">
<title>Node5&#45;&gt;Node9</title>
<path fill="none" stroke="midnightblue" d="M653.89,-56.44C699.76,-45.95 776.75,-28.33 820.17,-18.4"/>
<polygon fill="midnightblue" stroke="midnightblue" points="821.23,-21.75 830.19,-16.1 819.66,-14.92 821.23,-21.75"/>
</g>
<!-- Node10 -->
<g id="node10" class="node">
<title>Node10</title>
<g id="a_node10"><a xlink:title=" ">
<polygon fill="white" stroke="#bfbfbf" points="627.5,-0.5 627.5,-19.5 713.5,-19.5 713.5,-0.5 627.5,-0.5"/>
<text text-anchor="middle" x="670.5" y="-7.5" font-family="Helvetica,sans-Serif" font-size="10.00">unordered_set</text>
</a>
</g>
</g>
<!-- Node5&#45;&gt;Node10 -->
<g id="edge9" class="edge">
<title>Node5&#45;&gt;Node10</title>
<path fill="none" stroke="midnightblue" d="M625.42,-56.08C633.28,-48.22 644.93,-36.57 654.42,-27.08"/>
<polygon fill="midnightblue" stroke="midnightblue" points="657.15,-29.3 661.75,-19.75 652.2,-24.35 657.15,-29.3"/>
</g>
<!-- Node5&#45;&gt;Node11 -->
<g id="edge10" class="edge">
<title>Node5&#45;&gt;Node11</title>
<path fill="none" stroke="midnightblue" d="M677.57,-57C680.59,-56.65 683.58,-56.31 686.5,-56 870.57,-36.19 917.16,-37.21 1101.5,-20 1120.14,-18.26 1140.95,-16.19 1157.85,-14.47"/>
<polygon fill="midnightblue" stroke="midnightblue" points="1158.23,-17.95 1167.82,-13.45 1157.52,-10.99 1158.23,-17.95"/>
</g>
<!-- Node12&#45;&gt;Node9 -->
<g id="edge14" class="edge">
<title>Node12&#45;&gt;Node9</title>
<path fill="none" stroke="midnightblue" d="M994.72,-56.44C964.74,-46.86 916.19,-31.35 884.3,-21.16"/>
<polygon fill="midnightblue" stroke="midnightblue" points="885.17,-17.76 874.58,-18.05 883.04,-24.43 885.17,-17.76"/>
</g>
<!-- Node13 -->
<g id="node13" class="node">
<title>Node13</title>
<g id="a_node13"><a xlink:title=" ">
<polygon fill="white" stroke="#bfbfbf" points="952.5,-0.5 952.5,-19.5 1008.5,-19.5 1008.5,-0.5 952.5,-0.5"/>
<text text-anchor="middle" x="980.5" y="-7.5" font-family="Helvetica,sans-Serif" font-size="10.00">sstream</text>
</a>
</g>
</g>
<!-- Node12&#45;&gt;Node13 -->
<g id="edge12" class="edge">
<title>Node12&#45;&gt;Node13</title>
<path fill="none" stroke="midnightblue" d="M1014.73,-56.08C1008.94,-48.46 1000.44,-37.26 993.36,-27.94"/>
<polygon fill="midnightblue" stroke="midnightblue" points="995.98,-25.6 987.14,-19.75 990.4,-29.83 995.98,-25.6"/>
</g>
<!-- Node14 -->
<g id="node14" class="node">
<title>Node14</title>
<g id="a_node14"><a xlink:title=" ">
<polygon fill="white" stroke="#bfbfbf" points="1027,-0.5 1027,-19.5 1092,-19.5 1092,-0.5 1027,-0.5"/>
<text text-anchor="middle" x="1059.5" y="-7.5" font-family="Helvetica,sans-Serif" font-size="10.00">stdexcept</text>
</a>
</g>
</g>
<!-- Node12&#45;&gt;Node14 -->
<g id="edge13" class="edge">
<title>Node12&#45;&gt;Node14</title>
<path fill="none" stroke="midnightblue" d="M1027.77,-56.08C1033.14,-48.46 1041.02,-37.26 1047.58,-27.94"/>
<polygon fill="midnightblue" stroke="midnightblue" points="1050.45,-29.94 1053.34,-19.75 1044.72,-25.91 1050.45,-29.94"/>
</g>
<!-- Node15&#45;&gt;Node11 -->
<g id="edge32" class="edge">
<title>Node15&#45;&gt;Node11</title>
<path fill="none" stroke="midnightblue" d="M969.15,-168.45C1001.68,-161.45 1045.12,-149.76 1080.5,-132 1117.05,-113.66 1126.45,-106.67 1153.5,-76 1166.04,-61.78 1176.57,-42.81 1183.34,-29.04"/>
<polygon fill="midnightblue" stroke="midnightblue" points="1186.65,-30.22 1187.75,-19.68 1180.32,-27.23 1186.65,-30.22"/>
</g>
<!-- Node15&#45;&gt;Node12 -->
<g id="edge16" class="edge">
<title>Node15&#45;&gt;Node12</title>
<path fill="none" stroke="midnightblue" d="M922.84,-168.06C925.26,-154.57 931.48,-128.82 945.5,-112 957.21,-97.96 974.5,-87.23 989.63,-79.78"/>
<polygon fill="midnightblue" stroke="midnightblue" points="991.11,-82.95 998.71,-75.56 988.16,-76.6 991.11,-82.95"/>
</g>
<!-- Node16 -->
<g id="node16" class="node">
<title>Node16</title>
<g id="a_node16"><a xlink:href="_optional_8hpp.html" target="_top" xlink:title=" ">
<polygon fill="white" stroke="black" points="446,-112.5 446,-131.5 525,-131.5 525,-112.5 446,-112.5"/>
<text text-anchor="middle" x="485.5" y="-119.5" font-family="Helvetica,sans-Serif" font-size="10.00">Optional.hpp</text>
</a>
</g>
</g>
<!-- Node15&#45;&gt;Node16 -->
<g id="edge17" class="edge">
<title>Node15&#45;&gt;Node16</title>
<path fill="none" stroke="midnightblue" d="M869.77,-170.59C785.21,-160.12 618.48,-139.47 535.24,-129.16"/>
<polygon fill="midnightblue" stroke="midnightblue" points="535.62,-125.68 525.27,-127.93 534.76,-132.63 535.62,-125.68"/>
</g>
<!-- Node15&#45;&gt;Node19 -->
<g id="edge21" class="edge">
<title>Node15&#45;&gt;Node19</title>
<path fill="none" stroke="midnightblue" d="M891.71,-168.44C859.67,-159.24 808.57,-144.56 773.15,-134.39"/>
<polygon fill="midnightblue" stroke="midnightblue" points="773.73,-130.91 763.15,-131.52 771.79,-137.64 773.73,-130.91"/>
</g>
<!-- Node20 -->
<g id="node20" class="node">
<title>Node20</title>
<g id="a_node20"><a xlink:title=" ">
<polygon fill="white" stroke="#bfbfbf" points="1102.5,-56.5 1102.5,-75.5 1144.5,-75.5 1144.5,-56.5 1102.5,-56.5"/>
<text text-anchor="middle" x="1123.5" y="-63.5" font-family="Helvetica,sans-Serif" font-size="10.00">array</text>
</a>
</g>
</g>
<!-- Node15&#45;&gt;Node20 -->
<g id="edge30" class="edge">
<title>Node15&#45;&gt;Node20</title>
<path fill="none" stroke="midnightblue" d="M926.83,-168.5C935.95,-154.65 955.86,-127.24 979.5,-112 981.96,-110.41 1051.2,-89.1 1092.76,-76.38"/>
<polygon fill="midnightblue" stroke="midnightblue" points="1093.88,-79.7 1102.42,-73.43 1091.83,-73.01 1093.88,-79.7"/>
</g>
<!-- Node15&#45;&gt;Node22 -->
<g id="edge29" class="edge">
<title>Node15&#45;&gt;Node22</title>
<path fill="none" stroke="midnightblue" d="M869.6,-169.07C822.85,-161.39 752.47,-148.5 692.5,-132 637.94,-116.99 576.28,-93.55 540.56,-79.3"/>
<polygon fill="midnightblue" stroke="midnightblue" points="541.78,-76.02 531.19,-75.54 539.17,-82.51 541.78,-76.02"/>
</g>
<!-- Node25 -->
<g id="node25" class="node">
<title>Node25</title>
<g id="a_node25"><a xlink:title=" ">
<polygon fill="white" stroke="#bfbfbf" points="988,-112.5 988,-131.5 1071,-131.5 1071,-112.5 988,-112.5"/>
<text text-anchor="middle" x="1029.5" y="-119.5" font-family="Helvetica,sans-Serif" font-size="10.00">initializer_list</text>
</a>
</g>
</g>
<!-- Node15&#45;&gt;Node25 -->
<g id="edge31" class="edge">
<title>Node15&#45;&gt;Node25</title>
<path fill="none" stroke="midnightblue" d="M938.85,-168.32C956.17,-159.66 983.02,-146.24 1003,-136.25"/>
<polygon fill="midnightblue" stroke="midnightblue" points="1004.81,-139.26 1012.19,-131.65 1001.68,-133 1004.81,-139.26"/>
</g>
<!-- Node26 -->
<g id="node26" class="node">
<title>Node26</title>
<g id="a_node26"><a xlink:title=" ">
<polygon fill="white" stroke="#bfbfbf" points="1137,-112.5 1137,-131.5 1182,-131.5 1182,-112.5 1137,-112.5"/>
<text text-anchor="middle" x="1159.5" y="-119.5" font-family="Helvetica,sans-Serif" font-size="10.00">utility</text>
</a>
</g>
</g>
<!-- Node15&#45;&gt;Node26 -->
<g id="edge33" class="edge">
<title>Node15&#45;&gt;Node26</title>
<path fill="none" stroke="midnightblue" d="M960.83,-168.42C1001.39,-159.52 1066.44,-145.09 1122.5,-132 1123.95,-131.66 1125.43,-131.31 1126.92,-130.96"/>
<polygon fill="midnightblue" stroke="midnightblue" points="1127.91,-134.32 1136.82,-128.59 1126.28,-127.51 1127.91,-134.32"/>
</g>
<!-- Node16&#45;&gt;Node12 -->
<g id="edge18" class="edge">
<title>Node16&#45;&gt;Node12</title>
<path fill="none" stroke="midnightblue" d="M525.04,-117.57C603.67,-110.67 785.46,-94.28 948.57,-76.19"/>
<polygon fill="midnightblue" stroke="midnightblue" points="949.24,-79.64 958.79,-75.05 948.47,-72.68 949.24,-79.64"/>
</g>
<!-- Node17 -->
<g id="node17" class="node">
<title>Node17</title>
<g id="a_node17"><a xlink:title=" ">
<polygon fill="white" stroke="#bfbfbf" points="339.5,-56.5 339.5,-75.5 389.5,-75.5 389.5,-56.5 339.5,-56.5"/>
<text text-anchor="middle" x="364.5" y="-63.5" font-family="Helvetica,sans-Serif" font-size="10.00">cstring</text>
</a>
</g>
</g>
<!-- Node16&#45;&gt;Node17 -->
<g id="edge19" class="edge">
<title>Node16&#45;&gt;Node17</title>
<path fill="none" stroke="midnightblue" d="M466.33,-112.44C446.59,-103.64 415.61,-89.81 393.01,-79.72"/>
<polygon fill="midnightblue" stroke="midnightblue" points="394.14,-76.4 383.58,-75.52 391.29,-82.79 394.14,-76.4"/>
</g>
<!-- Node16&#45;&gt;Node18 -->
<g id="edge20" class="edge">
<title>Node16&#45;&gt;Node18</title>
<path fill="none" stroke="midnightblue" d="M445.8,-117C381.95,-110.34 252.33,-95.88 133.21,-76.18"/>
<polygon fill="midnightblue" stroke="midnightblue" points="133.63,-72.7 123.19,-74.51 132.48,-79.61 133.63,-72.7"/>
</g>
<!-- Node19&#45;&gt;Node5 -->
<g id="edge26" class="edge">
<title>Node19&#45;&gt;Node5</title>
<path fill="none" stroke="midnightblue" d="M714.96,-112.44C695.88,-103.64 665.93,-89.81 644.06,-79.72"/>
<polygon fill="midnightblue" stroke="midnightblue" points="645.5,-76.53 634.95,-75.52 642.57,-82.88 645.5,-76.53"/>
</g>
<!-- Node19&#45;&gt;Node12 -->
<g id="edge27" class="edge">
<title>Node19&#45;&gt;Node12</title>
<path fill="none" stroke="midnightblue" d="M766.11,-114.73C770.94,-113.81 775.85,-112.88 780.5,-112 843.75,-100.04 916.38,-86.5 965.24,-77.43"/>
<polygon fill="midnightblue" stroke="midnightblue" points="966.09,-80.83 975.29,-75.56 964.82,-73.95 966.09,-80.83"/>
</g>
<!-- Node19&#45;&gt;Node20 -->
<g id="edge22" class="edge">
<title>Node19&#45;&gt;Node20</title>
<path fill="none" stroke="midnightblue" d="M766.07,-118.76C827.92,-114.12 966.67,-101.83 1092.15,-75.97"/>
<polygon fill="midnightblue" stroke="midnightblue" points="1093.24,-79.31 1102.31,-73.84 1091.8,-72.46 1093.24,-79.31"/>
</g>
<!-- Node21 -->
<g id="node21" class="node">
<title>Node21</title>
<g id="a_node21"><a xlink:title=" ">
<polygon fill="white" stroke="#bfbfbf" points="876,-56.5 876,-75.5 941,-75.5 941,-56.5 876,-56.5"/>
<text text-anchor="middle" x="908.5" y="-63.5" font-family="Helvetica,sans-Serif" font-size="10.00">functional</text>
</a>
</g>
</g>
<!-- Node19&#45;&gt;Node21 -->
<g id="edge23" class="edge">
<title>Node19&#45;&gt;Node21</title>
<path fill="none" stroke="midnightblue" d="M761.23,-112.44C790.93,-103.28 838.22,-88.69 871.17,-78.52"/>
<polygon fill="midnightblue" stroke="midnightblue" points="872.38,-81.81 880.9,-75.52 870.31,-75.12 872.38,-81.81"/>
</g>
<!-- Node19&#45;&gt;Node22 -->
<g id="edge24" class="edge">
<title>Node19&#45;&gt;Node22</title>
<path fill="none" stroke="midnightblue" d="M700.71,-113.2C665.33,-104.77 607.06,-90.82 547.23,-76.16"/>
<polygon fill="midnightblue" stroke="midnightblue" points="547.78,-72.69 537.23,-73.71 546.11,-79.49 547.78,-72.69"/>
</g>
<!-- Node23 -->
<g id="node23" class="node">
<title>Node23</title>
<g id="a_node23"><a xlink:title=" ">
<polygon fill="white" stroke="#bfbfbf" points="695.5,-56.5 695.5,-75.5 745.5,-75.5 745.5,-56.5 695.5,-56.5"/>
<text text-anchor="middle" x="720.5" y="-63.5" font-family="Helvetica,sans-Serif" font-size="10.00">chrono</text>
</a>
</g>
</g>
<!-- Node19&#45;&gt;Node23 -->
<g id="edge25" class="edge">
<title>Node19&#45;&gt;Node23</title>
<path fill="none" stroke="midnightblue" d="M731.35,-112.08C729.63,-104.93 727.15,-94.64 725,-85.69"/>
<polygon fill="midnightblue" stroke="midnightblue" points="728.35,-84.65 722.61,-75.75 721.54,-86.29 728.35,-84.65"/>
</g>
<!-- Node24 -->
<g id="node24" class="node">
<title>Node24</title>
<g id="a_node24"><a xlink:href="_deprecated_8hpp.html" target="_top" xlink:title=" ">
<polygon fill="white" stroke="black" points="763.5,-56.5 763.5,-75.5 857.5,-75.5 857.5,-56.5 763.5,-56.5"/>
<text text-anchor="middle" x="810.5" y="-63.5" font-family="Helvetica,sans-Serif" font-size="10.00">Deprecated.hpp</text>
</a>
</g>
</g>
<!-- Node19&#45;&gt;Node24 -->
<g id="edge28" class="edge">
<title>Node19&#45;&gt;Node24</title>
<path fill="none" stroke="midnightblue" d="M745.87,-112.32C757.66,-104.06 775.63,-91.45 789.64,-81.63"/>
<polygon fill="midnightblue" stroke="midnightblue" points="791.98,-84.26 798.16,-75.65 787.96,-78.53 791.98,-84.26"/>
</g>
<!-- Node29 -->
<g id="node29" class="node">
<title>Node29</title>
<g id="a_node29"><a xlink:title=" ">
<polygon fill="white" stroke="#bfbfbf" points="119.5,-168.5 119.5,-187.5 171.5,-187.5 171.5,-168.5 119.5,-168.5"/>
<text text-anchor="middle" x="145.5" y="-175.5" font-family="Helvetica,sans-Serif" font-size="10.00">cassert</text>
</a>
</g>
</g>
<!-- Node28&#45;&gt;Node29 -->
<g id="edge41" class="edge">
<title>Node28&#45;&gt;Node29</title>
<path fill="none" stroke="midnightblue" d="M145.5,-224.08C145.5,-217.01 145.5,-206.86 145.5,-197.99"/>
<polygon fill="midnightblue" stroke="midnightblue" points="149,-197.75 145.5,-187.75 142,-197.75 149,-197.75"/>
</g>
<!-- Node31&#45;&gt;Node18 -->
<g id="edge45" class="edge">
<title>Node31&#45;&gt;Node18</title>
<path fill="none" stroke="midnightblue" d="M59.88,-285.99C41.93,-278.13 18.5,-264.52 7.5,-244 3.3,-236.17 5.4,-232.64 7.5,-224 20.83,-169.08 56.94,-111.88 76.13,-84.13"/>
<polygon fill="midnightblue" stroke="midnightblue" points="79.24,-85.79 82.14,-75.6 73.52,-81.76 79.24,-85.79"/>
</g>
<!-- Node31&#45;&gt;Node28 -->
<g id="edge44" class="edge">
<title>Node31&#45;&gt;Node28</title>
<path fill="none" stroke="midnightblue" d="M92.38,-285.98C101.96,-276.78 117.41,-261.96 129.19,-250.66"/>
<polygon fill="midnightblue" stroke="midnightblue" points="131.84,-252.96 136.63,-243.51 126.99,-247.91 131.84,-252.96"/>
</g>
<!-- Node32 -->
<g id="node32" class="node">
<title>Node32</title>
<g id="a_node32"><a xlink:title=" ">
<polygon fill="white" stroke="#bfbfbf" points="16.5,-224.5 16.5,-243.5 60.5,-243.5 60.5,-224.5 16.5,-224.5"/>
<text text-anchor="middle" x="38.5" y="-231.5" font-family="Helvetica,sans-Serif" font-size="10.00">limits</text>
</a>
</g>
</g>
<!-- Node31&#45;&gt;Node32 -->
<g id="edge46" class="edge">
<title>Node31&#45;&gt;Node32</title>
<path fill="none" stroke="midnightblue" d="M77.05,-285.98C70.3,-277.05 59.53,-262.81 51.09,-251.64"/>
<polygon fill="midnightblue" stroke="midnightblue" points="53.76,-249.37 44.94,-243.51 48.18,-253.6 53.76,-249.37"/>
</g>
<!-- Node34 -->
<g id="node34" class="node">
<title>Node34</title>
<g id="a_node34"><a xlink:title=" ">
<polygon fill="white" stroke="#bfbfbf" points="417,-224.5 417,-243.5 470,-243.5 470,-224.5 417,-224.5"/>
<text text-anchor="middle" x="443.5" y="-231.5" font-family="Helvetica,sans-Serif" font-size="10.00">cstddef</text>
</a>
</g>
</g>
<!-- Node33&#45;&gt;Node34 -->
<g id="edge48" class="edge">
<title>Node33&#45;&gt;Node34</title>
<path fill="none" stroke="midnightblue" d="M443.5,-280.4C443.5,-272.47 443.5,-262.46 443.5,-253.86"/>
<polygon fill="midnightblue" stroke="midnightblue" points="447,-253.66 443.5,-243.66 440,-253.66 447,-253.66"/>
</g>
<!-- Node35&#45;&gt;Node4 -->
<g id="edge50" class="edge">
<title>Node35&#45;&gt;Node4</title>
<path fill="none" stroke="midnightblue" d="M797.97,-285.98C755.29,-275.44 682.58,-257.49 635.82,-245.94"/>
<polygon fill="midnightblue" stroke="midnightblue" points="636.51,-242.51 625.97,-243.51 634.83,-249.3 636.51,-242.51"/>
</g>
<!-- Node35&#45;&gt;Node11 -->
<g id="edge55" class="edge">
<title>Node35&#45;&gt;Node11</title>
<path fill="none" stroke="midnightblue" d="M907.18,-287C1017.34,-273.83 1210.5,-241.79 1210.5,-179 1210.5,-179 1210.5,-179 1210.5,-121 1210.5,-88.49 1202.34,-51.35 1196.72,-29.61"/>
<polygon fill="midnightblue" stroke="midnightblue" points="1200.04,-28.5 1194.06,-19.75 1193.28,-30.32 1200.04,-28.5"/>
</g>
<!-- Node35&#45;&gt;Node15 -->
<g id="edge51" class="edge">
<title>Node35&#45;&gt;Node15</title>
<path fill="none" stroke="midnightblue" d="M839.19,-285.82C853.88,-266.76 889.18,-220.95 908.43,-195.96"/>
<polygon fill="midnightblue" stroke="midnightblue" points="911.4,-197.84 914.73,-187.78 905.86,-193.57 911.4,-197.84"/>
</g>
<!-- Node35&#45;&gt;Node19 -->
<g id="edge52" class="edge">
<title>Node35&#45;&gt;Node19</title>
<path fill="none" stroke="midnightblue" d="M827.45,-285.76C811.9,-258.81 764.45,-176.62 743.56,-140.42"/>
<polygon fill="midnightblue" stroke="midnightblue" points="746.45,-138.43 738.42,-131.52 740.39,-141.93 746.45,-138.43"/>
</g>
<!-- Node35&#45;&gt;Node26 -->
<g id="edge54" class="edge">
<title>Node35&#45;&gt;Node26</title>
<path fill="none" stroke="midnightblue" d="M848.72,-286C901.67,-258.22 1069.8,-170.04 1134.13,-136.31"/>
<polygon fill="midnightblue" stroke="midnightblue" points="1135.96,-139.3 1143.19,-131.56 1132.7,-133.1 1135.96,-139.3"/>
</g>
<!-- Node35&#45;&gt;Node35 -->
<g id="edge53" class="edge">
<title>Node35&#45;&gt;Node35</title>
<path fill="none" stroke="midnightblue" d="M866.65,-305.03C895.19,-309.11 925,-305.93 925,-295.5 925,-286.29 901.76,-282.74 876.69,-284.83"/>
<polygon fill="midnightblue" stroke="midnightblue" points="876.2,-281.37 866.65,-285.97 876.98,-288.32 876.2,-281.37"/>
</g>
<!-- Node36&#45;&gt;Node19 -->
<g id="edge57" class="edge">
<title>Node36&#45;&gt;Node19</title>
<path fill="none" stroke="midnightblue" d="M396.3,-170.05C472.96,-159.35 618.57,-139.04 690.74,-128.97"/>
<polygon fill="midnightblue" stroke="midnightblue" points="691.42,-132.41 700.84,-127.56 690.45,-125.47 691.42,-132.41"/>
</g>
<!-- Node37 -->
<g id="node37" class="node">
<title>Node37</title>
<g id="a_node37"><a xlink:href="_b_float16_8hpp.html" target="_top" xlink:title=" ">
<polygon fill="white" stroke="black" points="308,-112.5 308,-131.5 389,-131.5 389,-112.5 308,-112.5"/>
<text text-anchor="middle" x="348.5" y="-119.5" font-family="Helvetica,sans-Serif" font-size="10.00">BFloat16.hpp</text>
</a>
</g>
</g>
<!-- Node36&#45;&gt;Node37 -->
<g id="edge58" class="edge">
<title>Node36&#45;&gt;Node37</title>
<path fill="none" stroke="midnightblue" d="M346.83,-168.08C347.09,-161.01 347.47,-150.86 347.8,-141.99"/>
<polygon fill="midnightblue" stroke="midnightblue" points="351.3,-141.87 348.18,-131.75 344.31,-141.61 351.3,-141.87"/>
</g>
<!-- Node38 -->
<g id="node38" class="node">
<title>Node38</title>
<g id="a_node38"><a xlink:href="_half_8hpp.html" target="_top" xlink:title=" ">
<polygon fill="white" stroke="black" points="151,-112.5 151,-131.5 208,-131.5 208,-112.5 151,-112.5"/>
<text text-anchor="middle" x="179.5" y="-119.5" font-family="Helvetica,sans-Serif" font-size="10.00">Half.hpp</text>
</a>
</g>
</g>
<!-- Node36&#45;&gt;Node38 -->
<g id="edge63" class="edge">
<title>Node36&#45;&gt;Node38</title>
<path fill="none" stroke="midnightblue" d="M320.04,-168.44C291.82,-159.32 246.96,-144.81 215.53,-134.65"/>
<polygon fill="midnightblue" stroke="midnightblue" points="216.43,-131.26 205.84,-131.52 214.28,-137.92 216.43,-131.26"/>
</g>
<!-- Node37&#45;&gt;Node7 -->
<g id="edge59" class="edge">
<title>Node37&#45;&gt;Node7</title>
<path fill="none" stroke="midnightblue" d="M342.08,-112.41C333.19,-99.38 319.42,-74.2 330.5,-56 341.09,-38.6 360.83,-27.63 378.83,-20.88"/>
<polygon fill="midnightblue" stroke="midnightblue" points="380.24,-24.09 388.58,-17.55 377.98,-17.47 380.24,-24.09"/>
</g>
<!-- Node37&#45;&gt;Node17 -->
<g id="edge61" class="edge">
<title>Node37&#45;&gt;Node17</title>
<path fill="none" stroke="midnightblue" d="M351.14,-112.08C353.29,-104.85 356.38,-94.41 359.05,-85.4"/>
<polygon fill="midnightblue" stroke="midnightblue" points="362.42,-86.33 361.91,-75.75 355.71,-84.34 362.42,-86.33"/>
</g>
<!-- Node37&#45;&gt;Node22 -->
<g id="edge62" class="edge">
<title>Node37&#45;&gt;Node22</title>
<path fill="none" stroke="midnightblue" d="M374.17,-112.44C401.42,-103.36 444.68,-88.94 475.15,-78.78"/>
<polygon fill="midnightblue" stroke="midnightblue" points="476.57,-82 484.95,-75.52 474.36,-75.36 476.57,-82"/>
</g>
<!-- Node37&#45;&gt;Node27 -->
<g id="edge60" class="edge">
<title>Node37&#45;&gt;Node27</title>
<path fill="none" stroke="midnightblue" d="M334.2,-112.32C320.32,-103.9 299.01,-90.97 282.7,-81.07"/>
<polygon fill="midnightblue" stroke="midnightblue" points="284.13,-77.85 273.76,-75.65 280.5,-83.83 284.13,-77.85"/>
</g>
<!-- Node38&#45;&gt;Node18 -->
<g id="edge64" class="edge">
<title>Node38&#45;&gt;Node18</title>
<path fill="none" stroke="midnightblue" d="M164.88,-112.32C150.55,-103.82 128.49,-90.73 111.75,-80.8"/>
<polygon fill="midnightblue" stroke="midnightblue" points="113.47,-77.75 103.08,-75.65 109.9,-83.77 113.47,-77.75"/>
</g>
<!-- Node39 -->
<g id="node39" class="node">
<title>Node39</title>
<g id="a_node39"><a xlink:title=" ">
<polygon fill="white" stroke="#bfbfbf" points="141,-56.5 141,-75.5 218,-75.5 218,-56.5 141,-56.5"/>
<text text-anchor="middle" x="179.5" y="-63.5" font-family="Helvetica,sans-Serif" font-size="10.00">half/half.hpp</text>
</a>
</g>
</g>
<!-- Node38&#45;&gt;Node39 -->
<g id="edge65" class="edge">
<title>Node38&#45;&gt;Node39</title>
<path fill="none" stroke="midnightblue" d="M179.5,-112.08C179.5,-105.01 179.5,-94.86 179.5,-85.99"/>
<polygon fill="midnightblue" stroke="midnightblue" points="183,-85.75 179.5,-75.75 176,-85.75 183,-85.75"/>
</g>
</g>
</svg>
