<?xml version="1.0" encoding="UTF-8" standalone="no"?>
<!DOCTYPE svg PUBLIC "-//W3C//DTD SVG 1.1//EN"
 "http://www.w3.org/Graphics/SVG/1.1/DTD/svg11.dtd">
<!-- Generated by graphviz version 2.43.0 (0)
 -->
<!-- Title: src/backends/reference/workloads/TensorBufferArrayView.hpp Pages: 1 -->
<svg width="622pt" height="195pt"
 viewBox="0.00 0.00 622.00 195.00" xmlns="http://www.w3.org/2000/svg" xmlns:xlink="http://www.w3.org/1999/xlink">
<g id="graph0" class="graph" transform="scale(1 1) rotate(0) translate(4 191)">
<title>src/backends/reference/workloads/TensorBufferArrayView.hpp</title>
<polygon fill="white" stroke="transparent" points="-4,4 -4,-191 618,-191 618,4 -4,4"/>
<!-- Node1 -->
<g id="node1" class="node">
<title>Node1</title>
<g id="a_node1"><a xlink:title=" ">
<polygon fill="#bfbfbf" stroke="black" points="267,-145.5 267,-186.5 427,-186.5 427,-145.5 267,-145.5"/>
<text text-anchor="start" x="275" y="-174.5" font-family="Helvetica,sans-Serif" font-size="10.00">src/backends/reference</text>
<text text-anchor="start" x="275" y="-163.5" font-family="Helvetica,sans-Serif" font-size="10.00">/workloads/TensorBufferArray</text>
<text text-anchor="middle" x="347" y="-152.5" font-family="Helvetica,sans-Serif" font-size="10.00">View.hpp</text>
</a>
</g>
</g>
<!-- Node2 -->
<g id="node2" class="node">
<title>Node2</title>
<g id="a_node2"><a xlink:href="_conv_impl_8hpp.html" target="_top" xlink:title=" ">
<polygon fill="white" stroke="black" points="201,-78.5 201,-108.5 341,-108.5 341,-78.5 201,-78.5"/>
<text text-anchor="start" x="209" y="-96.5" font-family="Helvetica,sans-Serif" font-size="10.00">src/backends/reference</text>
<text text-anchor="middle" x="271" y="-85.5" font-family="Helvetica,sans-Serif" font-size="10.00">/workloads/ConvImpl.hpp</text>
</a>
</g>
</g>
<!-- Node1&#45;&gt;Node2 -->
<g id="edge1" class="edge">
<title>Node1&#45;&gt;Node2</title>
<path fill="none" stroke="midnightblue" d="M318.23,-138.31C307.46,-128.32 295.64,-117.35 286.51,-108.89"/>
<polygon fill="midnightblue" stroke="midnightblue" points="316.12,-141.13 325.83,-145.36 320.88,-135.99 316.12,-141.13"/>
</g>
<!-- Node6 -->
<g id="node6" class="node">
<title>Node6</title>
<g id="a_node6"><a xlink:href="_resize_8cpp.html" target="_top" xlink:title=" ">
<polygon fill="white" stroke="black" points="359.5,-78.5 359.5,-108.5 488.5,-108.5 488.5,-78.5 359.5,-78.5"/>
<text text-anchor="start" x="367.5" y="-96.5" font-family="Helvetica,sans-Serif" font-size="10.00">src/backends/reference</text>
<text text-anchor="middle" x="424" y="-85.5" font-family="Helvetica,sans-Serif" font-size="10.00">/workloads/Resize.cpp</text>
</a>
</g>
</g>
<!-- Node1&#45;&gt;Node6 -->
<g id="edge5" class="edge">
<title>Node1&#45;&gt;Node6</title>
<path fill="none" stroke="midnightblue" d="M375.83,-138.6C386.83,-128.53 398.95,-117.44 408.28,-108.89"/>
<polygon fill="midnightblue" stroke="midnightblue" points="373.46,-136.03 368.45,-145.36 378.19,-141.19 373.46,-136.03"/>
</g>
<!-- Node3 -->
<g id="node3" class="node">
<title>Node3</title>
<g id="a_node3"><a xlink:href="_conv_impl_8cpp.html" target="_top" xlink:title=" ">
<polygon fill="white" stroke="black" points="0,-6 0,-36 140,-36 140,-6 0,-6"/>
<text text-anchor="start" x="8" y="-24" font-family="Helvetica,sans-Serif" font-size="10.00">src/backends/reference</text>
<text text-anchor="middle" x="70" y="-13" font-family="Helvetica,sans-Serif" font-size="10.00">/workloads/ConvImpl.cpp</text>
</a>
</g>
</g>
<!-- Node2&#45;&gt;Node3 -->
<g id="edge2" class="edge">
<title>Node2&#45;&gt;Node3</title>
<path fill="none" stroke="midnightblue" d="M221.01,-74.96C186.79,-62.96 142.01,-47.26 110.12,-36.07"/>
<polygon fill="midnightblue" stroke="midnightblue" points="220.21,-78.4 230.81,-78.4 222.53,-71.79 220.21,-78.4"/>
</g>
<!-- Node4 -->
<g id="node4" class="node">
<title>Node4</title>
<g id="a_node4"><a xlink:href="_ref_convolution2d_workload_8cpp.html" target="_top" xlink:title=" ">
<polygon fill="white" stroke="black" points="158,-6 158,-36 384,-36 384,-6 158,-6"/>
<text text-anchor="start" x="166" y="-24" font-family="Helvetica,sans-Serif" font-size="10.00">src/backends/reference</text>
<text text-anchor="middle" x="271" y="-13" font-family="Helvetica,sans-Serif" font-size="10.00">/workloads/RefConvolution2dWorkload.cpp</text>
</a>
</g>
</g>
<!-- Node2&#45;&gt;Node4 -->
<g id="edge3" class="edge">
<title>Node2&#45;&gt;Node4</title>
<path fill="none" stroke="midnightblue" d="M271,-68.23C271,-57.57 271,-45.41 271,-36.25"/>
<polygon fill="midnightblue" stroke="midnightblue" points="267.5,-68.23 271,-78.23 274.5,-68.23 267.5,-68.23"/>
</g>
<!-- Node5 -->
<g id="node5" class="node">
<title>Node5</title>
<g id="a_node5"><a xlink:href="_ref_depthwise_convolution2d_workload_8cpp.html" target="_top" xlink:title=" ">
<polygon fill="white" stroke="black" points="402,-0.5 402,-41.5 614,-41.5 614,-0.5 402,-0.5"/>
<text text-anchor="start" x="410" y="-29.5" font-family="Helvetica,sans-Serif" font-size="10.00">src/backends/reference</text>
<text text-anchor="start" x="410" y="-18.5" font-family="Helvetica,sans-Serif" font-size="10.00">/workloads/RefDepthwiseConvolution2d</text>
<text text-anchor="middle" x="508" y="-7.5" font-family="Helvetica,sans-Serif" font-size="10.00">Workload.cpp</text>
</a>
</g>
</g>
<!-- Node2&#45;&gt;Node5 -->
<g id="edge4" class="edge">
<title>Node2&#45;&gt;Node5</title>
<path fill="none" stroke="midnightblue" d="M327.99,-75.55C362.36,-65.32 406.28,-52.26 442.14,-41.59"/>
<polygon fill="midnightblue" stroke="midnightblue" points="326.69,-72.28 318.11,-78.49 328.69,-78.99 326.69,-72.28"/>
</g>
</g>
</svg>
