<?xml version="1.0" encoding="UTF-8" standalone="no"?>
<!DOCTYPE svg PUBLIC "-//W3C//DTD SVG 1.1//EN"
 "http://www.w3.org/Graphics/SVG/1.1/DTD/svg11.dtd">
<!-- Generated by graphviz version 2.43.0 (0)
 -->
<!-- Title: BooleanEncoder Pages: 1 -->
<svg width="270pt" height="231pt"
 viewBox="0.00 0.00 270.00 231.00" xmlns="http://www.w3.org/2000/svg" xmlns:xlink="http://www.w3.org/1999/xlink">
<g id="graph0" class="graph" transform="scale(1 1) rotate(0) translate(4 227)">
<title>BooleanEncoder</title>
<polygon fill="white" stroke="transparent" points="-4,4 -4,-227 266,-227 266,4 -4,4"/>
<!-- Node1 -->
<g id="node1" class="node">
<title>Node1</title>
<g id="a_node1"><a xlink:title=" ">
<polygon fill="#bfbfbf" stroke="black" points="73.5,-0.5 73.5,-19.5 168.5,-19.5 168.5,-0.5 73.5,-0.5"/>
<text text-anchor="middle" x="121" y="-7.5" font-family="Helvetica,sans-Serif" font-size="10.00">BooleanEncoder</text>
</a>
</g>
</g>
<!-- Node2 -->
<g id="node2" class="node">
<title>Node2</title>
<g id="a_node2"><a xlink:href="classarmnn_1_1_typed_iterator.html" target="_top" xlink:title=" ">
<polygon fill="white" stroke="black" points="58.5,-57.5 58.5,-87.5 183.5,-87.5 183.5,-57.5 58.5,-57.5"/>
<text text-anchor="start" x="66.5" y="-75.5" font-family="Helvetica,sans-Serif" font-size="10.00">TypedIterator&lt; uint8</text>
<text text-anchor="middle" x="121" y="-64.5" font-family="Helvetica,sans-Serif" font-size="10.00">_t, Encoder&lt; bool &gt; &gt;</text>
</a>
</g>
</g>
<!-- Node2&#45;&gt;Node1 -->
<g id="edge1" class="edge">
<title>Node2&#45;&gt;Node1</title>
<path fill="none" stroke="midnightblue" d="M121,-47.35C121,-37.51 121,-26.78 121,-19.54"/>
<polygon fill="midnightblue" stroke="midnightblue" points="117.5,-47.47 121,-57.47 124.5,-47.47 117.5,-47.47"/>
</g>
<!-- Node3 -->
<g id="node3" class="node">
<title>Node3</title>
<g id="a_node3"><a xlink:href="classarmnn_1_1_encoder.html" target="_top" xlink:title=" ">
<polygon fill="white" stroke="black" points="0,-146.5 0,-165.5 104,-165.5 104,-146.5 0,-146.5"/>
<text text-anchor="middle" x="52" y="-153.5" font-family="Helvetica,sans-Serif" font-size="10.00">Encoder&lt; IType &gt;</text>
</a>
</g>
</g>
<!-- Node3&#45;&gt;Node2 -->
<g id="edge2" class="edge">
<title>Node3&#45;&gt;Node2</title>
<path fill="none" stroke="midnightblue" d="M66.08,-138.37C78.74,-123.42 97.12,-101.71 109.06,-87.6"/>
<polygon fill="midnightblue" stroke="midnightblue" points="63.17,-136.38 59.38,-146.28 68.52,-140.91 63.17,-136.38"/>
</g>
<!-- Node4 -->
<g id="node4" class="node">
<title>Node4</title>
<g id="a_node4"><a xlink:href="classarmnn_1_1_base_iterator.html" target="_top" xlink:title=" ">
<polygon fill="white" stroke="black" points="13.5,-203.5 13.5,-222.5 90.5,-222.5 90.5,-203.5 13.5,-203.5"/>
<text text-anchor="middle" x="52" y="-210.5" font-family="Helvetica,sans-Serif" font-size="10.00">BaseIterator</text>
</a>
</g>
</g>
<!-- Node4&#45;&gt;Node3 -->
<g id="edge3" class="edge">
<title>Node4&#45;&gt;Node3</title>
<path fill="none" stroke="midnightblue" d="M52,-193.12C52,-183.82 52,-173.06 52,-165.71"/>
<polygon fill="midnightblue" stroke="midnightblue" points="48.5,-193.41 52,-203.41 55.5,-193.41 48.5,-193.41"/>
</g>
<!-- Node5 -->
<g id="node5" class="node">
<title>Node5</title>
<g id="a_node5"><a xlink:href="classarmnn_1_1_typed_iterator.html" target="_top" xlink:title=" ">
<polygon fill="white" stroke="black" points="122,-146.5 122,-165.5 262,-165.5 262,-146.5 122,-146.5"/>
<text text-anchor="middle" x="192" y="-153.5" font-family="Helvetica,sans-Serif" font-size="10.00">TypedIterator&lt; T, Base &gt;</text>
</a>
</g>
</g>
<!-- Node5&#45;&gt;Node2 -->
<g id="edge4" class="edge">
<title>Node5&#45;&gt;Node2</title>
<path fill="none" stroke="orange" stroke-dasharray="5,2" d="M177.51,-138.37C164.49,-123.42 145.58,-101.71 133.28,-87.6"/>
<polygon fill="orange" stroke="orange" points="175.19,-141.04 184.4,-146.28 180.47,-136.44 175.19,-141.04"/>
<text text-anchor="start" x="167" y="-120" font-family="Helvetica,sans-Serif" font-size="10.00"> &lt; uint8_t, Encoder</text>
<text text-anchor="middle" x="214" y="-109" font-family="Helvetica,sans-Serif" font-size="10.00">&lt; bool &gt; &gt;</text>
</g>
<!-- Node6 -->
<g id="node6" class="node">
<title>Node6</title>
<g id="a_node6"><a xlink:title=" ">
<polygon fill="white" stroke="#bfbfbf" points="171.5,-203.5 171.5,-222.5 212.5,-222.5 212.5,-203.5 171.5,-203.5"/>
<text text-anchor="middle" x="192" y="-210.5" font-family="Helvetica,sans-Serif" font-size="10.00">Base</text>
</a>
</g>
</g>
<!-- Node6&#45;&gt;Node5 -->
<g id="edge5" class="edge">
<title>Node6&#45;&gt;Node5</title>
<path fill="none" stroke="midnightblue" d="M192,-193.12C192,-183.82 192,-173.06 192,-165.71"/>
<polygon fill="midnightblue" stroke="midnightblue" points="188.5,-193.41 192,-203.41 195.5,-193.41 188.5,-193.41"/>
</g>
</g>
</svg>
