<?xml version="1.0" encoding="UTF-8" standalone="no"?>
<!DOCTYPE svg PUBLIC "-//W3C//DTD SVG 1.1//EN"
 "http://www.w3.org/Graphics/SVG/1.1/DTD/svg11.dtd">
<!-- Generated by graphviz version 14.0.2 (20251019.1705)
 -->
<!-- Title: OptimizeForTypeImpl&lt; Layer, Wrapped &gt; Pages: 1 -->
<svg width="267pt" height="179pt"
 viewBox="0.00 0.00 267.00 179.00" xmlns="http://www.w3.org/2000/svg" xmlns:xlink="http://www.w3.org/1999/xlink">
<g id="graph0" class="graph" transform="scale(1 1) rotate(0) translate(4 174.5)">
<title>OptimizeForTypeImpl&lt; Layer, Wrapped &gt;</title>
<!-- Node1 -->
<g id="Node000001" class="node">
<title>Node1</title>
<g id="a_Node000001"><a xlink:title="Specialization that calls Wrapped::Run() for any layer type.">
<polygon fill="#999999" stroke="#666666" points="169.88,-30.5 60.88,-30.5 60.88,0 169.88,0 169.88,-30.5"/>
<text xml:space="preserve" text-anchor="start" x="68.88" y="-17" font-family="Helvetica,sans-Serif" font-size="10.00">OptimizeForTypeImpl</text>
<text xml:space="preserve" text-anchor="middle" x="115.38" y="-5.75" font-family="Helvetica,sans-Serif" font-size="10.00">&lt; Layer, Wrapped &gt;</text>
</a>
</g>
</g>
<!-- Node2 -->
<g id="Node000002" class="node">
<title>Node2</title>
<g id="a_Node000002"><a xlink:href="classarmnn_1_1_optimization.html" target="_top" xlink:title=" ">
<polygon fill="white" stroke="#666666" points="70.75,-170.5 0,-170.5 0,-151.25 70.75,-151.25 70.75,-170.5"/>
<text xml:space="preserve" text-anchor="middle" x="35.38" y="-157" font-family="Helvetica,sans-Serif" font-size="10.00">Optimization</text>
</a>
</g>
</g>
<!-- Node2&#45;&gt;Node1 -->
<g id="edge1_Node000001_Node000002" class="edge">
<title>Node2&#45;&gt;Node1</title>
<g id="a_edge1_Node000001_Node000002"><a xlink:title=" ">
<path fill="none" stroke="#63b8ff" d="M33.56,-140.01C36.65,-124.21 44.39,-101.84 54.38,-83.75 65.24,-64.07 81.54,-43.96 94.87,-30.87"/>
<polygon fill="#63b8ff" stroke="#63b8ff" points="30.14,-139.19 32.32,-149.55 37.08,-140.09 30.14,-139.19"/>
</a>
</g>
</g>
<!-- Node2&#45;&gt;Node1 -->
<g id="edge3_Node000001_Node000002" class="edge">
<title>Node2&#45;&gt;Node1</title>
<g id="a_edge3_Node000001_Node000002"><a xlink:title=" ">
<path fill="none" stroke="#63b8ff" d="M47.78,-140.94C54.34,-125.1 62.19,-102.2 72.38,-83.75 83.24,-64.07 99.54,-43.96 109.1,-30.87"/>
<polygon fill="#63b8ff" stroke="#63b8ff" points="44.76,-139.12 43.84,-149.68 51.14,-142 44.76,-139.12"/>
</a>
</g>
</g>
<!-- Node4 -->
<g id="Node000004" class="node">
<title>Node4</title>
<g id="a_Node000004"><a xlink:href="classarmnn_1_1_optimize_for_type_impl.html" target="_top" xlink:title="Wrapper Optimization base class that calls Wrapped::Run() for every layer of type BaseType.">
<polygon fill="white" stroke="#666666" points="194.25,-114.25 72.5,-114.25 72.5,-83.75 194.25,-83.75 194.25,-114.25"/>
<text xml:space="preserve" text-anchor="start" x="80.5" y="-100.75" font-family="Helvetica,sans-Serif" font-size="10.00">OptimizeForTypeImpl</text>
<text xml:space="preserve" text-anchor="middle" x="133.38" y="-89.5" font-family="Helvetica,sans-Serif" font-size="10.00">&lt; BaseType, Wrapped &gt;</text>
</a>
</g>
</g>
<!-- Node2&#45;&gt;Node4 -->
<g id="edge6_Node000004_Node000002" class="edge">
<title>Node2&#45;&gt;Node4</title>
<g id="a_edge6_Node000004_Node000002"><a xlink:title=" ">
<path fill="none" stroke="#63b8ff" d="M59.99,-144.83C75.17,-135.56 94.54,-123.73 109.56,-114.55"/>
<polygon fill="#63b8ff" stroke="#63b8ff" points="58.26,-141.79 51.55,-149.99 61.91,-147.77 58.26,-141.79"/>
</a>
</g>
</g>
<!-- Node3 -->
<g id="Node000003" class="node">
<title>Node3</title>
<g id="a_Node000003"><a xlink:title=" ">
<polygon fill="white" stroke="#666666" points="258.5,-170.5 204.25,-170.5 204.25,-151.25 258.5,-151.25 258.5,-170.5"/>
<text xml:space="preserve" text-anchor="middle" x="231.38" y="-157" font-family="Helvetica,sans-Serif" font-size="10.00">Wrapped</text>
</a>
</g>
</g>
<!-- Node3&#45;&gt;Node1 -->
<g id="edge2_Node000001_Node000003" class="edge">
<title>Node3&#45;&gt;Node1</title>
<g id="a_edge2_Node000001_Node000003"><a xlink:title=" ">
<path fill="none" stroke="#63b8ff" d="M226.51,-139.66C224.43,-115.12 221.67,-73.9 199.38,-48.5 191.48,-39.51 180.96,-33.02 170.01,-28.35"/>
<polygon fill="#63b8ff" stroke="#63b8ff" points="222.99,-139.69 227.48,-149.29 229.96,-138.99 222.99,-139.69"/>
</a>
</g>
</g>
<!-- Node3&#45;&gt;Node1 -->
<g id="edge4_Node000001_Node000003" class="edge">
<title>Node3&#45;&gt;Node1</title>
<g id="a_edge4_Node000001_Node000003"><a xlink:title=" ">
<path fill="none" stroke="#63b8ff" d="M239.13,-139.66C242.43,-115.12 239.67,-73.9 217.38,-48.5 205.54,-35.01 187.77,-27.17 170.3,-22.6"/>
<polygon fill="#63b8ff" stroke="#63b8ff" points="235.72,-138.82 237.21,-149.31 242.59,-140.18 235.72,-138.82"/>
</a>
</g>
</g>
<!-- Node3&#45;&gt;Node4 -->
<g id="edge7_Node000004_Node000003" class="edge">
<title>Node3&#45;&gt;Node4</title>
<g id="a_edge7_Node000004_Node000003"><a xlink:title=" ">
<path fill="none" stroke="#63b8ff" d="M206.76,-144.83C191.58,-135.56 172.21,-123.73 157.19,-114.55"/>
<polygon fill="#63b8ff" stroke="#63b8ff" points="204.84,-147.77 215.2,-149.99 208.49,-141.79 204.84,-147.77"/>
</a>
</g>
</g>
<!-- Node4&#45;&gt;Node1 -->
<g id="edge5_Node000001_Node000004" class="edge">
<title>Node4&#45;&gt;Node1</title>
<g id="a_edge5_Node000001_Node000004"><a xlink:title=" ">
<path fill="none" stroke="orange" stroke-dasharray="5,2" d="M119.34,-73.18C118.36,-70.73 117.51,-68.22 116.88,-65.75 113.92,-54.26 113.72,-40.77 114.15,-30.78"/>
<polygon fill="orange" stroke="orange" points="116.11,-74.55 123.56,-82.09 122.44,-71.55 116.11,-74.55"/>
</a>
</g>
<text xml:space="preserve" text-anchor="start" x="119.88" y="-53.25" font-family="Helvetica,sans-Serif" font-size="10.00" fill="grey">&lt; Layer, Wrapped &gt;</text>
</g>
</g>
</svg>
