<?xml version="1.0" encoding="UTF-8" standalone="no"?>
<!DOCTYPE svg PUBLIC "-//W3C//DTD SVG 1.1//EN"
 "http://www.w3.org/Graphics/SVG/1.1/DTD/svg11.dtd">
<!-- Generated by graphviz version 14.0.2 (20251019.1705)
 -->
<!-- Title: ClTensorHandle Pages: 1 -->
<svg width="101pt" height="193pt"
 viewBox="0.00 0.00 101.00 193.00" xmlns="http://www.w3.org/2000/svg" xmlns:xlink="http://www.w3.org/1999/xlink">
<g id="graph0" class="graph" transform="scale(1 1) rotate(0) translate(4 189)">
<title>ClTensorHandle</title>
<!-- Node1 -->
<g id="Node000001" class="node">
<title>Node1</title>
<g id="a_Node000001"><a xlink:title=" ">
<polygon fill="#999999" stroke="#666666" points="89.5,-19.25 3.75,-19.25 3.75,0 89.5,0 89.5,-19.25"/>
<text xml:space="preserve" text-anchor="middle" x="46.62" y="-5.75" font-family="Helvetica,sans-Serif" font-size="10.00">ClTensorHandle</text>
</a>
</g>
</g>
<!-- Node2 -->
<g id="Node000002" class="node">
<title>Node2</title>
<g id="a_Node000002"><a xlink:href="classarmnn_1_1_i_cl_tensor_handle.html" target="_top" xlink:title=" ">
<polygon fill="white" stroke="#666666" points="91,-74.5 2.25,-74.5 2.25,-55.25 91,-55.25 91,-74.5"/>
<text xml:space="preserve" text-anchor="middle" x="46.62" y="-61" font-family="Helvetica,sans-Serif" font-size="10.00">IClTensorHandle</text>
</a>
</g>
</g>
<!-- Node2&#45;&gt;Node1 -->
<g id="edge1_Node000001_Node000002" class="edge">
<title>Node2&#45;&gt;Node1</title>
<g id="a_edge1_Node000001_Node000002"><a xlink:title=" ">
<path fill="none" stroke="#63b8ff" d="M46.62,-43.63C46.62,-35.34 46.62,-26.17 46.62,-19.61"/>
<polygon fill="#63b8ff" stroke="#63b8ff" points="43.13,-43.57 46.63,-53.57 50.13,-43.57 43.13,-43.57"/>
</a>
</g>
</g>
<!-- Node3 -->
<g id="Node000003" class="node">
<title>Node3</title>
<g id="a_Node000003"><a xlink:href="classarmnn_1_1_i_acl_tensor_handle.html" target="_top" xlink:title=" ">
<polygon fill="white" stroke="#666666" points="93.25,-129.75 0,-129.75 0,-110.5 93.25,-110.5 93.25,-129.75"/>
<text xml:space="preserve" text-anchor="middle" x="46.62" y="-116.25" font-family="Helvetica,sans-Serif" font-size="10.00">IAclTensorHandle</text>
</a>
</g>
</g>
<!-- Node3&#45;&gt;Node2 -->
<g id="edge2_Node000002_Node000003" class="edge">
<title>Node3&#45;&gt;Node2</title>
<g id="a_edge2_Node000002_Node000003"><a xlink:title=" ">
<path fill="none" stroke="#63b8ff" d="M46.62,-98.88C46.62,-90.59 46.62,-81.42 46.62,-74.86"/>
<polygon fill="#63b8ff" stroke="#63b8ff" points="43.13,-98.82 46.63,-108.82 50.13,-98.82 43.13,-98.82"/>
</a>
</g>
</g>
<!-- Node4 -->
<g id="Node000004" class="node">
<title>Node4</title>
<g id="a_Node000004"><a xlink:href="classarmnn_1_1_i_tensor_handle.html" target="_top" xlink:title=" ">
<polygon fill="white" stroke="#666666" points="86.12,-185 7.12,-185 7.12,-165.75 86.12,-165.75 86.12,-185"/>
<text xml:space="preserve" text-anchor="middle" x="46.62" y="-171.5" font-family="Helvetica,sans-Serif" font-size="10.00">ITensorHandle</text>
</a>
</g>
</g>
<!-- Node4&#45;&gt;Node3 -->
<g id="edge3_Node000003_Node000004" class="edge">
<title>Node4&#45;&gt;Node3</title>
<g id="a_edge3_Node000003_Node000004"><a xlink:title=" ">
<path fill="none" stroke="#63b8ff" d="M46.62,-154.13C46.62,-145.84 46.62,-136.67 46.62,-130.11"/>
<polygon fill="#63b8ff" stroke="#63b8ff" points="43.13,-154.07 46.63,-164.07 50.13,-154.07 43.13,-154.07"/>
</a>
</g>
</g>
</g>
</svg>
