<?xml version="1.0" encoding="UTF-8" standalone="no"?>
<!DOCTYPE svg PUBLIC "-//W3C//DTD SVG 1.1//EN"
 "http://www.w3.org/Graphics/SVG/1.1/DTD/svg11.dtd">
<!-- Generated by graphviz version 14.1.1 (20251213.1925)
 -->
<!-- Title: InvalidArgumentException Pages: 1 -->
<svg width="138pt" height="138pt"
 viewBox="0.00 0.00 138.00 138.00" xmlns="http://www.w3.org/2000/svg" xmlns:xlink="http://www.w3.org/1999/xlink">
<g id="graph0" class="graph" transform="scale(1 1) rotate(0) translate(4 133.75)">
<title>InvalidArgumentException</title>
<!-- Node1 -->
<g id="Node000001" class="node">
<title>Node1</title>
<g id="a_Node000001"><a xlink:title=" ">
<polygon fill="#999999" stroke="#666666" points="130,-19.25 0,-19.25 0,0 130,0 130,-19.25"/>
<text xml:space="preserve" text-anchor="middle" x="65" y="-5.75" font-family="Helvetica,sans-Serif" font-size="10.00">InvalidArgumentException</text>
</a>
</g>
</g>
<!-- Node2 -->
<g id="Node000002" class="node">
<title>Node2</title>
<g id="a_Node000002"><a xlink:href="classarmnn_1_1_exception.html" target="_top" xlink:title="Base class for all ArmNN exceptions so that users can filter to just those.">
<polygon fill="white" stroke="#666666" points="94.75,-74.5 35.25,-74.5 35.25,-55.25 94.75,-55.25 94.75,-74.5"/>
<text xml:space="preserve" text-anchor="middle" x="65" y="-61" font-family="Helvetica,sans-Serif" font-size="10.00">Exception</text>
</a>
</g>
</g>
<!-- Node2&#45;&gt;Node1 -->
<g id="edge1_Node000001_Node000002" class="edge">
<title>Node2&#45;&gt;Node1</title>
<g id="a_edge1_Node000001_Node000002"><a xlink:title=" ">
<path fill="none" stroke="#63b8ff" d="M65,-43.63C65,-35.34 65,-26.17 65,-19.61"/>
<polygon fill="#63b8ff" stroke="#63b8ff" points="61.5,-43.57 65,-53.57 68.5,-43.57 61.5,-43.57"/>
</a>
</g>
</g>
<!-- Node3 -->
<g id="Node000003" class="node">
<title>Node3</title>
<g id="a_Node000003"><a xlink:title=" ">
<polygon fill="white" stroke="#666666" points="94,-129.75 36,-129.75 36,-110.5 94,-110.5 94,-129.75"/>
<text xml:space="preserve" text-anchor="middle" x="65" y="-116.25" font-family="Helvetica,sans-Serif" font-size="10.00">exception</text>
</a>
</g>
</g>
<!-- Node3&#45;&gt;Node2 -->
<g id="edge2_Node000002_Node000003" class="edge">
<title>Node3&#45;&gt;Node2</title>
<g id="a_edge2_Node000002_Node000003"><a xlink:title=" ">
<path fill="none" stroke="#63b8ff" d="M65,-98.88C65,-90.59 65,-81.42 65,-74.86"/>
<polygon fill="#63b8ff" stroke="#63b8ff" points="61.5,-98.82 65,-108.82 68.5,-98.82 61.5,-98.82"/>
</a>
</g>
</g>
</g>
</svg>
