<?xml version="1.0" encoding="UTF-8" standalone="no"?>
<!DOCTYPE svg PUBLIC "-//W3C//DTD SVG 1.1//EN"
 "http://www.w3.org/Graphics/SVG/1.1/DTD/svg11.dtd">
<!-- Generated by graphviz version 2.43.0 (0)
 -->
<!-- Title: ClFillWorkload Pages: 1 -->
<svg width="432pt" height="287pt"
 viewBox="0.00 0.00 431.50 287.00" xmlns="http://www.w3.org/2000/svg" xmlns:xlink="http://www.w3.org/1999/xlink">
<g id="graph0" class="graph" transform="scale(1 1) rotate(0) translate(4 283)">
<title>ClFillWorkload</title>
<polygon fill="white" stroke="transparent" points="-4,4 -4,-283 427.5,-283 427.5,4 -4,4"/>
<!-- Node1 -->
<g id="node1" class="node">
<title>Node1</title>
<g id="a_node1"><a xlink:title=" ">
<polygon fill="#bfbfbf" stroke="black" points="169.5,-0.5 169.5,-19.5 255.5,-19.5 255.5,-0.5 169.5,-0.5"/>
<text text-anchor="middle" x="212.5" y="-7.5" font-family="Helvetica,sans-Serif" font-size="10.00">ClFillWorkload</text>
</a>
</g>
</g>
<!-- Node2 -->
<g id="node2" class="node">
<title>Node2</title>
<g id="a_node2"><a xlink:href="classarmnn_1_1_cl_base_workload.html" target="_top" xlink:title=" ">
<polygon fill="white" stroke="black" points="136,-57.5 136,-87.5 289,-87.5 289,-57.5 136,-57.5"/>
<text text-anchor="start" x="144" y="-75.5" font-family="Helvetica,sans-Serif" font-size="10.00">ClBaseWorkload&lt; FillQueue</text>
<text text-anchor="middle" x="212.5" y="-64.5" font-family="Helvetica,sans-Serif" font-size="10.00">Descriptor &gt;</text>
</a>
</g>
</g>
<!-- Node2&#45;&gt;Node1 -->
<g id="edge1" class="edge">
<title>Node2&#45;&gt;Node1</title>
<path fill="none" stroke="midnightblue" d="M212.5,-47.35C212.5,-37.51 212.5,-26.78 212.5,-19.54"/>
<polygon fill="midnightblue" stroke="midnightblue" points="209,-47.47 212.5,-57.47 216,-47.47 209,-47.47"/>
</g>
<!-- Node3 -->
<g id="node3" class="node">
<title>Node3</title>
<g id="a_node3"><a xlink:href="classarmnn_1_1_base_workload.html" target="_top" xlink:title=" ">
<polygon fill="white" stroke="black" points="0,-135.5 0,-154.5 205,-154.5 205,-135.5 0,-135.5"/>
<text text-anchor="middle" x="102.5" y="-142.5" font-family="Helvetica,sans-Serif" font-size="10.00">BaseWorkload&lt; FillQueueDescriptor &gt;</text>
</a>
</g>
</g>
<!-- Node3&#45;&gt;Node2 -->
<g id="edge2" class="edge">
<title>Node3&#45;&gt;Node2</title>
<path fill="none" stroke="midnightblue" d="M124.65,-129.8C143.83,-117.51 171.42,-99.83 190.54,-87.58"/>
<polygon fill="midnightblue" stroke="midnightblue" points="122.52,-127.01 115.99,-135.36 126.3,-132.91 122.52,-127.01"/>
</g>
<!-- Node4 -->
<g id="node4" class="node">
<title>Node4</title>
<g id="a_node4"><a xlink:href="classarmnn_1_1_i_workload.html" target="_top" xlink:title="Workload interface to enqueue a layer computation.">
<polygon fill="white" stroke="black" points="82,-259.5 82,-278.5 147,-278.5 147,-259.5 82,-259.5"/>
<text text-anchor="middle" x="114.5" y="-266.5" font-family="Helvetica,sans-Serif" font-size="10.00">IWorkload</text>
</a>
</g>
</g>
<!-- Node4&#45;&gt;Node3 -->
<g id="edge3" class="edge">
<title>Node4&#45;&gt;Node3</title>
<path fill="none" stroke="midnightblue" d="M72.02,-260.87C49.35,-254.68 23.35,-243.19 9.5,-222 -10.64,-191.19 41.2,-166.74 75.34,-154.52"/>
<polygon fill="midnightblue" stroke="midnightblue" points="71.26,-264.29 81.81,-263.29 72.94,-257.5 71.26,-264.29"/>
</g>
<!-- Node5 -->
<g id="node5" class="node">
<title>Node5</title>
<g id="a_node5"><a xlink:href="classarmnn_1_1_base_workload.html" target="_top" xlink:title=" ">
<polygon fill="white" stroke="black" points="19,-202.5 19,-221.5 210,-221.5 210,-202.5 19,-202.5"/>
<text text-anchor="middle" x="114.5" y="-209.5" font-family="Helvetica,sans-Serif" font-size="10.00">BaseWorkload&lt; QueueDescriptor &gt;</text>
</a>
</g>
</g>
<!-- Node4&#45;&gt;Node5 -->
<g id="edge5" class="edge">
<title>Node4&#45;&gt;Node5</title>
<path fill="none" stroke="midnightblue" d="M114.5,-249.12C114.5,-239.82 114.5,-229.06 114.5,-221.71"/>
<polygon fill="midnightblue" stroke="midnightblue" points="111,-249.41 114.5,-259.41 118,-249.41 111,-249.41"/>
</g>
<!-- Node7 -->
<g id="node7" class="node">
<title>Node7</title>
<g id="a_node7"><a xlink:href="classarmnn_1_1_base_workload.html" target="_top" xlink:title=" ">
<polygon fill="white" stroke="black" points="228,-202.5 228,-221.5 419,-221.5 419,-202.5 228,-202.5"/>
<text text-anchor="middle" x="323.5" y="-209.5" font-family="Helvetica,sans-Serif" font-size="10.00">BaseWorkload&lt; QueueDescriptor &gt;</text>
</a>
</g>
</g>
<!-- Node4&#45;&gt;Node7 -->
<g id="edge8" class="edge">
<title>Node4&#45;&gt;Node7</title>
<path fill="none" stroke="midnightblue" d="M157.07,-256.8C196.74,-246.36 255.05,-231.01 291.07,-221.53"/>
<polygon fill="midnightblue" stroke="midnightblue" points="155.94,-253.48 147.16,-259.41 157.72,-260.25 155.94,-253.48"/>
</g>
<!-- Node5&#45;&gt;Node3 -->
<g id="edge4" class="edge">
<title>Node5&#45;&gt;Node3</title>
<path fill="none" stroke="orange" stroke-dasharray="5,2" d="M111,-192.04C108.72,-179.67 105.85,-164.12 104.09,-154.63"/>
<polygon fill="orange" stroke="orange" points="107.62,-193.04 112.88,-202.23 114.51,-191.76 107.62,-193.04"/>
<text text-anchor="middle" x="170.5" y="-176" font-family="Helvetica,sans-Serif" font-size="10.00"> &lt; FillQueueDescriptor &gt;</text>
</g>
<!-- Node6 -->
<g id="node6" class="node">
<title>Node6</title>
<g id="a_node6"><a xlink:href="classarmnn_1_1_cl_base_workload.html" target="_top" xlink:title=" ">
<polygon fill="white" stroke="black" points="223.5,-135.5 223.5,-154.5 423.5,-154.5 423.5,-135.5 223.5,-135.5"/>
<text text-anchor="middle" x="323.5" y="-142.5" font-family="Helvetica,sans-Serif" font-size="10.00">ClBaseWorkload&lt; QueueDescriptor &gt;</text>
</a>
</g>
</g>
<!-- Node6&#45;&gt;Node2 -->
<g id="edge6" class="edge">
<title>Node6&#45;&gt;Node2</title>
<path fill="none" stroke="orange" stroke-dasharray="5,2" d="M301.41,-129.97C282.05,-117.67 254.05,-99.89 234.66,-87.58"/>
<polygon fill="orange" stroke="orange" points="299.57,-132.95 309.89,-135.36 303.32,-127.04 299.57,-132.95"/>
<text text-anchor="middle" x="338.5" y="-109" font-family="Helvetica,sans-Serif" font-size="10.00"> &lt; FillQueueDescriptor &gt;</text>
</g>
<!-- Node7&#45;&gt;Node6 -->
<g id="edge7" class="edge">
<title>Node7&#45;&gt;Node6</title>
<path fill="none" stroke="midnightblue" d="M323.5,-192.04C323.5,-179.67 323.5,-164.12 323.5,-154.63"/>
<polygon fill="midnightblue" stroke="midnightblue" points="320,-192.23 323.5,-202.23 327,-192.23 320,-192.23"/>
</g>
</g>
</svg>
