<?xml version="1.0" encoding="UTF-8" standalone="no"?>
<!DOCTYPE svg PUBLIC "-//W3C//DTD SVG 1.1//EN"
 "http://www.w3.org/Graphics/SVG/1.1/DTD/svg11.dtd">
<!-- Generated by graphviz version 14.1.1 (20251213.1925)
 -->
<!-- Title: ClImportSubTensorHandle Pages: 1 -->
<svg width="139pt" height="193pt"
 viewBox="0.00 0.00 139.00 193.00" xmlns="http://www.w3.org/2000/svg" xmlns:xlink="http://www.w3.org/1999/xlink">
<g id="graph0" class="graph" transform="scale(1 1) rotate(0) translate(4 189)">
<title>ClImportSubTensorHandle</title>
<!-- Node1 -->
<g id="Node000001" class="node">
<title>Node1</title>
<g id="a_Node000001"><a xlink:title=" ">
<polygon fill="#999999" stroke="#666666" points="130.75,-19.25 0,-19.25 0,0 130.75,0 130.75,-19.25"/>
<text xml:space="preserve" text-anchor="middle" x="65.38" y="-5.75" font-family="Helvetica,sans-Serif" font-size="10.00">ClImportSubTensorHandle</text>
</a>
</g>
</g>
<!-- Node2 -->
<g id="Node000002" class="node">
<title>Node2</title>
<g id="a_Node000002"><a xlink:href="classarmnn_1_1_i_cl_tensor_handle.html" target="_top" xlink:title=" ">
<polygon fill="white" stroke="#666666" points="109.75,-74.5 21,-74.5 21,-55.25 109.75,-55.25 109.75,-74.5"/>
<text xml:space="preserve" text-anchor="middle" x="65.38" y="-61" font-family="Helvetica,sans-Serif" font-size="10.00">IClTensorHandle</text>
</a>
</g>
</g>
<!-- Node2&#45;&gt;Node1 -->
<g id="edge1_Node000001_Node000002" class="edge">
<title>Node2&#45;&gt;Node1</title>
<g id="a_edge1_Node000001_Node000002"><a xlink:title=" ">
<path fill="none" stroke="#63b8ff" d="M65.38,-43.63C65.38,-35.34 65.38,-26.17 65.38,-19.61"/>
<polygon fill="#63b8ff" stroke="#63b8ff" points="61.88,-43.57 65.38,-53.57 68.88,-43.57 61.88,-43.57"/>
</a>
</g>
</g>
<!-- Node3 -->
<g id="Node000003" class="node">
<title>Node3</title>
<g id="a_Node000003"><a xlink:href="classarmnn_1_1_i_acl_tensor_handle.html" target="_top" xlink:title=" ">
<polygon fill="white" stroke="#666666" points="112,-129.75 18.75,-129.75 18.75,-110.5 112,-110.5 112,-129.75"/>
<text xml:space="preserve" text-anchor="middle" x="65.38" y="-116.25" font-family="Helvetica,sans-Serif" font-size="10.00">IAclTensorHandle</text>
</a>
</g>
</g>
<!-- Node3&#45;&gt;Node2 -->
<g id="edge2_Node000002_Node000003" class="edge">
<title>Node3&#45;&gt;Node2</title>
<g id="a_edge2_Node000002_Node000003"><a xlink:title=" ">
<path fill="none" stroke="#63b8ff" d="M65.38,-98.88C65.38,-90.59 65.38,-81.42 65.38,-74.86"/>
<polygon fill="#63b8ff" stroke="#63b8ff" points="61.88,-98.82 65.38,-108.82 68.88,-98.82 61.88,-98.82"/>
</a>
</g>
</g>
<!-- Node4 -->
<g id="Node000004" class="node">
<title>Node4</title>
<g id="a_Node000004"><a xlink:href="classarmnn_1_1_i_tensor_handle.html" target="_top" xlink:title=" ">
<polygon fill="white" stroke="#666666" points="104.88,-185 25.88,-185 25.88,-165.75 104.88,-165.75 104.88,-185"/>
<text xml:space="preserve" text-anchor="middle" x="65.38" y="-171.5" font-family="Helvetica,sans-Serif" font-size="10.00">ITensorHandle</text>
</a>
</g>
</g>
<!-- Node4&#45;&gt;Node3 -->
<g id="edge3_Node000003_Node000004" class="edge">
<title>Node4&#45;&gt;Node3</title>
<g id="a_edge3_Node000003_Node000004"><a xlink:title=" ">
<path fill="none" stroke="#63b8ff" d="M65.38,-154.13C65.38,-145.84 65.38,-136.67 65.38,-130.11"/>
<polygon fill="#63b8ff" stroke="#63b8ff" points="61.88,-154.07 65.38,-164.07 68.88,-154.07 61.88,-154.07"/>
</a>
</g>
</g>
</g>
</svg>
