<?xml version="1.0" encoding="UTF-8" standalone="no"?>
<!DOCTYPE svg PUBLIC "-//W3C//DTD SVG 1.1//EN"
 "http://www.w3.org/Graphics/SVG/1.1/DTD/svg11.dtd">
<!-- Generated by graphviz version 2.43.0 (0)
 -->
<!-- Title: RefLstmWorkload Pages: 1 -->
<svg width="448pt" height="287pt"
 viewBox="0.00 0.00 448.00 287.00" xmlns="http://www.w3.org/2000/svg" xmlns:xlink="http://www.w3.org/1999/xlink">
<g id="graph0" class="graph" transform="scale(1 1) rotate(0) translate(4 283)">
<title>RefLstmWorkload</title>
<polygon fill="white" stroke="transparent" points="-4,4 -4,-283 444,-283 444,4 -4,4"/>
<!-- Node1 -->
<g id="node1" class="node">
<title>Node1</title>
<g id="a_node1"><a xlink:title=" ">
<polygon fill="#bfbfbf" stroke="black" points="170,-0.5 170,-19.5 273,-19.5 273,-0.5 170,-0.5"/>
<text text-anchor="middle" x="221.5" y="-7.5" font-family="Helvetica,sans-Serif" font-size="10.00">RefLstmWorkload</text>
</a>
</g>
</g>
<!-- Node2 -->
<g id="node2" class="node">
<title>Node2</title>
<g id="a_node2"><a xlink:href="classarmnn_1_1_ref_base_workload.html" target="_top" xlink:title=" ">
<polygon fill="white" stroke="black" points="136.5,-57.5 136.5,-87.5 306.5,-87.5 306.5,-57.5 136.5,-57.5"/>
<text text-anchor="start" x="144.5" y="-75.5" font-family="Helvetica,sans-Serif" font-size="10.00">RefBaseWorkload&lt; LstmQueue</text>
<text text-anchor="middle" x="221.5" y="-64.5" font-family="Helvetica,sans-Serif" font-size="10.00">Descriptor &gt;</text>
</a>
</g>
</g>
<!-- Node2&#45;&gt;Node1 -->
<g id="edge1" class="edge">
<title>Node2&#45;&gt;Node1</title>
<path fill="none" stroke="midnightblue" d="M221.5,-47.35C221.5,-37.51 221.5,-26.78 221.5,-19.54"/>
<polygon fill="midnightblue" stroke="midnightblue" points="218,-47.47 221.5,-57.47 225,-47.47 218,-47.47"/>
</g>
<!-- Node3 -->
<g id="node3" class="node">
<title>Node3</title>
<g id="a_node3"><a xlink:href="classarmnn_1_1_base_workload.html" target="_top" xlink:title=" ">
<polygon fill="white" stroke="black" points="0,-135.5 0,-154.5 215,-154.5 215,-135.5 0,-135.5"/>
<text text-anchor="middle" x="107.5" y="-142.5" font-family="Helvetica,sans-Serif" font-size="10.00">BaseWorkload&lt; LstmQueueDescriptor &gt;</text>
</a>
</g>
</g>
<!-- Node3&#45;&gt;Node2 -->
<g id="edge2" class="edge">
<title>Node3&#45;&gt;Node2</title>
<path fill="none" stroke="midnightblue" d="M130.19,-129.97C150.07,-117.67 178.83,-99.89 198.74,-87.58"/>
<polygon fill="midnightblue" stroke="midnightblue" points="128.14,-127.12 121.48,-135.36 131.82,-133.07 128.14,-127.12"/>
</g>
<!-- Node4 -->
<g id="node4" class="node">
<title>Node4</title>
<g id="a_node4"><a xlink:href="classarmnn_1_1_i_workload.html" target="_top" xlink:title="Workload interface to enqueue a layer computation.">
<polygon fill="white" stroke="black" points="95,-259.5 95,-278.5 160,-278.5 160,-259.5 95,-259.5"/>
<text text-anchor="middle" x="127.5" y="-266.5" font-family="Helvetica,sans-Serif" font-size="10.00">IWorkload</text>
</a>
</g>
</g>
<!-- Node4&#45;&gt;Node3 -->
<g id="edge3" class="edge">
<title>Node4&#45;&gt;Node3</title>
<path fill="none" stroke="midnightblue" d="M85.02,-260.87C62.35,-254.68 36.35,-243.19 22.5,-222 3.17,-192.42 52.12,-167.14 83.53,-154.55"/>
<polygon fill="midnightblue" stroke="midnightblue" points="84.26,-264.29 94.81,-263.29 85.94,-257.5 84.26,-264.29"/>
</g>
<!-- Node5 -->
<g id="node5" class="node">
<title>Node5</title>
<g id="a_node5"><a xlink:href="classarmnn_1_1_base_workload.html" target="_top" xlink:title=" ">
<polygon fill="white" stroke="black" points="32,-202.5 32,-221.5 223,-221.5 223,-202.5 32,-202.5"/>
<text text-anchor="middle" x="127.5" y="-209.5" font-family="Helvetica,sans-Serif" font-size="10.00">BaseWorkload&lt; QueueDescriptor &gt;</text>
</a>
</g>
</g>
<!-- Node4&#45;&gt;Node5 -->
<g id="edge5" class="edge">
<title>Node4&#45;&gt;Node5</title>
<path fill="none" stroke="midnightblue" d="M127.5,-249.12C127.5,-239.82 127.5,-229.06 127.5,-221.71"/>
<polygon fill="midnightblue" stroke="midnightblue" points="124,-249.41 127.5,-259.41 131,-249.41 124,-249.41"/>
</g>
<!-- Node7 -->
<g id="node7" class="node">
<title>Node7</title>
<g id="a_node7"><a xlink:href="classarmnn_1_1_base_workload.html" target="_top" xlink:title=" ">
<polygon fill="white" stroke="black" points="241,-202.5 241,-221.5 432,-221.5 432,-202.5 241,-202.5"/>
<text text-anchor="middle" x="336.5" y="-209.5" font-family="Helvetica,sans-Serif" font-size="10.00">BaseWorkload&lt; QueueDescriptor &gt;</text>
</a>
</g>
</g>
<!-- Node4&#45;&gt;Node7 -->
<g id="edge8" class="edge">
<title>Node4&#45;&gt;Node7</title>
<path fill="none" stroke="midnightblue" d="M170.07,-256.8C209.74,-246.36 268.05,-231.01 304.07,-221.53"/>
<polygon fill="midnightblue" stroke="midnightblue" points="168.94,-253.48 160.16,-259.41 170.72,-260.25 168.94,-253.48"/>
</g>
<!-- Node5&#45;&gt;Node3 -->
<g id="edge4" class="edge">
<title>Node5&#45;&gt;Node3</title>
<path fill="none" stroke="orange" stroke-dasharray="5,2" d="M121.78,-192.41C117.96,-179.99 113.11,-164.22 110.15,-154.63"/>
<polygon fill="orange" stroke="orange" points="118.52,-193.71 124.8,-202.23 125.21,-191.65 118.52,-193.71"/>
<text text-anchor="middle" x="185.5" y="-176" font-family="Helvetica,sans-Serif" font-size="10.00"> &lt; LstmQueueDescriptor &gt;</text>
</g>
<!-- Node6 -->
<g id="node6" class="node">
<title>Node6</title>
<g id="a_node6"><a xlink:href="classarmnn_1_1_ref_base_workload.html" target="_top" xlink:title=" ">
<polygon fill="white" stroke="black" points="233,-135.5 233,-154.5 440,-154.5 440,-135.5 233,-135.5"/>
<text text-anchor="middle" x="336.5" y="-142.5" font-family="Helvetica,sans-Serif" font-size="10.00">RefBaseWorkload&lt; QueueDescriptor &gt;</text>
</a>
</g>
</g>
<!-- Node6&#45;&gt;Node2 -->
<g id="edge6" class="edge">
<title>Node6&#45;&gt;Node2</title>
<path fill="none" stroke="orange" stroke-dasharray="5,2" d="M313.61,-129.97C293.55,-117.67 264.54,-99.89 244.46,-87.58"/>
<polygon fill="orange" stroke="orange" points="312.04,-133.11 322.4,-135.36 315.7,-127.14 312.04,-133.11"/>
<text text-anchor="middle" x="354.5" y="-109" font-family="Helvetica,sans-Serif" font-size="10.00"> &lt; LstmQueueDescriptor &gt;</text>
</g>
<!-- Node7&#45;&gt;Node6 -->
<g id="edge7" class="edge">
<title>Node7&#45;&gt;Node6</title>
<path fill="none" stroke="midnightblue" d="M336.5,-192.04C336.5,-179.67 336.5,-164.12 336.5,-154.63"/>
<polygon fill="midnightblue" stroke="midnightblue" points="333,-192.23 336.5,-202.23 340,-192.23 333,-192.23"/>
</g>
</g>
</svg>
