<?xml version="1.0" encoding="UTF-8" standalone="no"?>
<!DOCTYPE svg PUBLIC "-//W3C//DTD SVG 1.1//EN"
 "http://www.w3.org/Graphics/SVG/1.1/DTD/svg11.dtd">
<!-- Generated by graphviz version 2.43.0 (0)
 -->
<!-- Title: NeonDepthwiseConvolutionWorkload Pages: 1 -->
<svg width="1236pt" height="90pt"
 viewBox="0.00 0.00 1236.00 89.69" xmlns="http://www.w3.org/2000/svg" xmlns:xlink="http://www.w3.org/1999/xlink">
<g id="graph0" class="graph" transform="scale(1 1) rotate(0) translate(4 85.69)">
<title>NeonDepthwiseConvolutionWorkload</title>
<polygon fill="white" stroke="transparent" points="-4,4 -4,-85.69 1232,-85.69 1232,4 -4,4"/>
<!-- Node1 -->
<g id="node1" class="node">
<title>Node1</title>
<g id="a_node1"><a xlink:title=" ">
<polygon fill="#bfbfbf" stroke="black" points="1076,-17 1076,-47 1228,-47 1228,-17 1076,-17"/>
<text text-anchor="start" x="1084" y="-35" font-family="Helvetica,sans-Serif" font-size="10.00">NeonDepthwiseConvolution</text>
<text text-anchor="middle" x="1152" y="-24" font-family="Helvetica,sans-Serif" font-size="10.00">Workload</text>
</a>
</g>
</g>
<!-- Node2 -->
<g id="node2" class="node">
<title>Node2</title>
<g id="a_node2"><a xlink:href="classarmnn_1_1_neon_base_workload.html" target="_top" xlink:title=" ">
<polygon fill="white" stroke="black" points="859,-17 859,-47 1039,-47 1039,-17 859,-17"/>
<text text-anchor="start" x="867" y="-35" font-family="Helvetica,sans-Serif" font-size="10.00">NeonBaseWorkload&lt; Depthwise</text>
<text text-anchor="middle" x="949" y="-24" font-family="Helvetica,sans-Serif" font-size="10.00">Convolution2dQueueDescriptor &gt;</text>
</a>
</g>
</g>
<!-- Node2&#45;&gt;Node1 -->
<g id="edge1" class="edge">
<title>Node2&#45;&gt;Node1</title>
<path fill="none" stroke="midnightblue" d="M1049.15,-32C1058.13,-32 1067.12,-32 1075.84,-32"/>
<polygon fill="midnightblue" stroke="midnightblue" points="1049.04,-28.5 1039.04,-32 1049.04,-35.5 1049.04,-28.5"/>
</g>
<!-- Node3 -->
<g id="node3" class="node">
<title>Node3</title>
<g id="a_node3"><a xlink:href="classarmnn_1_1_base_workload.html" target="_top" xlink:title=" ">
<polygon fill="white" stroke="black" points="466,-39 466,-69 686,-69 686,-39 466,-39"/>
<text text-anchor="start" x="474" y="-57" font-family="Helvetica,sans-Serif" font-size="10.00">BaseWorkload&lt; DepthwiseConvolution2d</text>
<text text-anchor="middle" x="576" y="-46" font-family="Helvetica,sans-Serif" font-size="10.00">QueueDescriptor &gt;</text>
</a>
</g>
</g>
<!-- Node3&#45;&gt;Node2 -->
<g id="edge2" class="edge">
<title>Node3&#45;&gt;Node2</title>
<path fill="none" stroke="midnightblue" d="M696.4,-46.92C749.14,-43.79 810.1,-40.18 858.8,-37.29"/>
<polygon fill="midnightblue" stroke="midnightblue" points="696.08,-43.43 686.31,-47.52 696.5,-50.42 696.08,-43.43"/>
</g>
<!-- Node4 -->
<g id="node4" class="node">
<title>Node4</title>
<g id="a_node4"><a xlink:href="classarmnn_1_1_i_workload.html" target="_top" xlink:title="Workload interface to enqueue a layer computation.">
<polygon fill="white" stroke="black" points="0,-38.5 0,-57.5 65,-57.5 65,-38.5 0,-38.5"/>
<text text-anchor="middle" x="32.5" y="-45.5" font-family="Helvetica,sans-Serif" font-size="10.00">IWorkload</text>
</a>
</g>
</g>
<!-- Node4&#45;&gt;Node3 -->
<g id="edge3" class="edge">
<title>Node4&#45;&gt;Node3</title>
<path fill="none" stroke="midnightblue" d="M71.39,-60.4C81.25,-63.1 91.93,-65.57 102,-67 254.28,-88.56 294.59,-82.82 448,-72 458.22,-71.28 468.87,-70.24 479.46,-69.01"/>
<polygon fill="midnightblue" stroke="midnightblue" points="72.06,-56.95 61.48,-57.53 70.11,-63.67 72.06,-56.95"/>
</g>
<!-- Node5 -->
<g id="node5" class="node">
<title>Node5</title>
<g id="a_node5"><a xlink:href="classarmnn_1_1_base_workload.html" target="_top" xlink:title=" ">
<polygon fill="white" stroke="black" points="102,-38.5 102,-57.5 293,-57.5 293,-38.5 102,-38.5"/>
<text text-anchor="middle" x="197.5" y="-45.5" font-family="Helvetica,sans-Serif" font-size="10.00">BaseWorkload&lt; QueueDescriptor &gt;</text>
</a>
</g>
</g>
<!-- Node4&#45;&gt;Node5 -->
<g id="edge5" class="edge">
<title>Node4&#45;&gt;Node5</title>
<path fill="none" stroke="midnightblue" d="M75.34,-48C83.59,-48 92.56,-48 101.75,-48"/>
<polygon fill="midnightblue" stroke="midnightblue" points="75.32,-44.5 65.31,-48 75.31,-51.5 75.32,-44.5"/>
</g>
<!-- Node7 -->
<g id="node7" class="node">
<title>Node7</title>
<g id="a_node7"><a xlink:href="classarmnn_1_1_base_workload.html" target="_top" xlink:title=" ">
<polygon fill="white" stroke="black" points="102,-0.5 102,-19.5 293,-19.5 293,-0.5 102,-0.5"/>
<text text-anchor="middle" x="197.5" y="-7.5" font-family="Helvetica,sans-Serif" font-size="10.00">BaseWorkload&lt; QueueDescriptor &gt;</text>
</a>
</g>
</g>
<!-- Node4&#45;&gt;Node7 -->
<g id="edge8" class="edge">
<title>Node4&#45;&gt;Node7</title>
<path fill="none" stroke="midnightblue" d="M74.89,-36C83.8,-33.56 93.19,-31.1 102,-29 116,-25.66 131.26,-22.41 145.35,-19.58"/>
<polygon fill="midnightblue" stroke="midnightblue" points="73.79,-32.67 65.09,-38.72 75.66,-39.42 73.79,-32.67"/>
</g>
<!-- Node5&#45;&gt;Node3 -->
<g id="edge4" class="edge">
<title>Node5&#45;&gt;Node3</title>
<path fill="none" stroke="orange" stroke-dasharray="5,2" d="M303.55,-48.3C348.1,-48.56 400.59,-49.06 448,-50 453.84,-50.12 459.84,-50.25 465.89,-50.4"/>
<polygon fill="orange" stroke="orange" points="303.31,-44.79 293.29,-48.24 303.27,-51.79 303.31,-44.79"/>
<text text-anchor="start" x="311" y="-64" font-family="Helvetica,sans-Serif" font-size="10.00"> &lt; DepthwiseConvolution2d</text>
<text text-anchor="middle" x="379.5" y="-53" font-family="Helvetica,sans-Serif" font-size="10.00">QueueDescriptor &gt;</text>
</g>
<!-- Node6 -->
<g id="node6" class="node">
<title>Node6</title>
<g id="a_node6"><a xlink:href="classarmnn_1_1_neon_base_workload.html" target="_top" xlink:title=" ">
<polygon fill="white" stroke="black" points="468,-0.5 468,-19.5 684,-19.5 684,-0.5 468,-0.5"/>
<text text-anchor="middle" x="576" y="-7.5" font-family="Helvetica,sans-Serif" font-size="10.00">NeonBaseWorkload&lt; QueueDescriptor &gt;</text>
</a>
</g>
</g>
<!-- Node6&#45;&gt;Node2 -->
<g id="edge6" class="edge">
<title>Node6&#45;&gt;Node2</title>
<path fill="none" stroke="orange" stroke-dasharray="5,2" d="M694.41,-7.21C740.24,-7.2 793.16,-8.51 841,-13 851.14,-13.95 861.77,-15.35 872.22,-16.96"/>
<polygon fill="orange" stroke="orange" points="694.14,-3.71 684.14,-7.23 694.15,-10.71 694.14,-3.71"/>
<text text-anchor="start" x="704" y="-27" font-family="Helvetica,sans-Serif" font-size="10.00"> &lt; DepthwiseConvolution2d</text>
<text text-anchor="middle" x="772.5" y="-16" font-family="Helvetica,sans-Serif" font-size="10.00">QueueDescriptor &gt;</text>
</g>
<!-- Node7&#45;&gt;Node6 -->
<g id="edge7" class="edge">
<title>Node7&#45;&gt;Node6</title>
<path fill="none" stroke="midnightblue" d="M303.14,-10C354.44,-10 416.15,-10 467.79,-10"/>
<polygon fill="midnightblue" stroke="midnightblue" points="303.02,-6.5 293.02,-10 303.02,-13.5 303.02,-6.5"/>
</g>
</g>
</svg>
