<?xml version="1.0" encoding="UTF-8" standalone="no"?>
<!DOCTYPE svg PUBLIC "-//W3C//DTD SVG 1.1//EN"
 "http://www.w3.org/Graphics/SVG/1.1/DTD/svg11.dtd">
<!-- Generated by graphviz version 14.0.2 (20251019.1705)
 -->
<!-- Title: QSymm8PerAxisDecoder Pages: 1 -->
<svg width="286pt" height="323pt"
 viewBox="0.00 0.00 286.00 323.00" xmlns="http://www.w3.org/2000/svg" xmlns:xlink="http://www.w3.org/1999/xlink">
<g id="graph0" class="graph" transform="scale(1 1) rotate(0) translate(4 318.5)">
<title>QSymm8PerAxisDecoder</title>
<!-- Node1 -->
<g id="Node000001" class="node">
<title>Node1</title>
<g id="a_Node000001"><a xlink:title=" ">
<polygon fill="#999999" stroke="#666666" points="196.88,-19.25 68.38,-19.25 68.38,0 196.88,0 196.88,-19.25"/>
<text xml:space="preserve" text-anchor="middle" x="132.62" y="-5.75" font-family="Helvetica,sans-Serif" font-size="10.00">QSymm8PerAxisDecoder</text>
</a>
</g>
</g>
<!-- Node2 -->
<g id="Node000002" class="node">
<title>Node2</title>
<g id="a_Node000002"><a xlink:href="classarmnn_1_1_per_axis_iterator.html" target="_top" xlink:title=" ">
<polygon fill="white" stroke="#666666" points="198.38,-86.75 66.88,-86.75 66.88,-56.25 198.38,-56.25 198.38,-86.75"/>
<text xml:space="preserve" text-anchor="start" x="74.88" y="-73.25" font-family="Helvetica,sans-Serif" font-size="10.00">PerAxisIterator&lt; const</text>
<text xml:space="preserve" text-anchor="middle" x="132.62" y="-62" font-family="Helvetica,sans-Serif" font-size="10.00"> int8_t, Decoder&lt; float &gt; &gt;</text>
</a>
</g>
</g>
<!-- Node2&#45;&gt;Node1 -->
<g id="edge1_Node000001_Node000002" class="edge">
<title>Node2&#45;&gt;Node1</title>
<g id="a_edge1_Node000001_Node000002"><a xlink:title=" ">
<path fill="none" stroke="#63b8ff" d="M132.62,-44.77C132.62,-35.79 132.62,-26.29 132.62,-19.6"/>
<polygon fill="#63b8ff" stroke="#63b8ff" points="129.13,-44.49 132.63,-54.49 136.13,-44.49 129.13,-44.49"/>
</a>
</g>
</g>
<!-- Node3 -->
<g id="Node000003" class="node">
<title>Node3</title>
<g id="a_Node000003"><a xlink:href="classarmnn_1_1_decoder.html" target="_top" xlink:title=" ">
<polygon fill="white" stroke="#666666" points="122.38,-180.12 32.88,-180.12 32.88,-160.88 122.38,-160.88 122.38,-180.12"/>
<text xml:space="preserve" text-anchor="middle" x="77.62" y="-166.62" font-family="Helvetica,sans-Serif" font-size="10.00">Decoder&lt; float &gt;</text>
</a>
</g>
</g>
<!-- Node3&#45;&gt;Node2 -->
<g id="edge2_Node000002_Node000003" class="edge">
<title>Node3&#45;&gt;Node2</title>
<g id="a_edge2_Node000002_Node000003"><a xlink:title=" ">
<path fill="none" stroke="#63b8ff" d="M88.34,-150.6C98.89,-132 114.77,-103.98 124.38,-87.05"/>
<polygon fill="#63b8ff" stroke="#63b8ff" points="85.34,-148.81 83.45,-159.23 91.42,-152.26 85.34,-148.81"/>
</a>
</g>
</g>
<!-- Node4 -->
<g id="Node000004" class="node">
<title>Node4</title>
<g id="a_Node000004"><a xlink:href="classarmnn_1_1_base_iterator.html" target="_top" xlink:title=" ">
<polygon fill="white" stroke="#666666" points="69.25,-314.5 0,-314.5 0,-295.25 69.25,-295.25 69.25,-314.5"/>
<text xml:space="preserve" text-anchor="middle" x="34.62" y="-301" font-family="Helvetica,sans-Serif" font-size="10.00">BaseIterator</text>
</a>
</g>
</g>
<!-- Node4&#45;&gt;Node3 -->
<g id="edge3_Node000003_Node000004" class="edge">
<title>Node4&#45;&gt;Node3</title>
<g id="a_edge3_Node000003_Node000004"><a xlink:title=" ">
<path fill="none" stroke="#63b8ff" d="M34.84,-283.46C35.46,-270.48 37.17,-253.45 41.62,-239 48.5,-216.66 62.94,-193.13 71.29,-180.61"/>
<polygon fill="#63b8ff" stroke="#63b8ff" points="31.35,-283.24 34.57,-293.33 38.34,-283.43 31.35,-283.24"/>
</a>
</g>
</g>
<!-- Node5 -->
<g id="Node000005" class="node">
<title>Node5</title>
<g id="a_Node000005"><a xlink:href="classarmnn_1_1_decoder.html" target="_top" xlink:title=" ">
<polygon fill="white" stroke="#666666" points="145,-258.25 50.25,-258.25 50.25,-239 145,-239 145,-258.25"/>
<text xml:space="preserve" text-anchor="middle" x="97.62" y="-244.75" font-family="Helvetica,sans-Serif" font-size="10.00">Decoder&lt; IType &gt;</text>
</a>
</g>
</g>
<!-- Node4&#45;&gt;Node5 -->
<g id="edge5_Node000005_Node000004" class="edge">
<title>Node4&#45;&gt;Node5</title>
<g id="a_edge5_Node000005_Node000004"><a xlink:title=" ">
<path fill="none" stroke="#63b8ff" d="M53.62,-287.52C64.73,-277.96 78.3,-266.26 87.42,-258.42"/>
<polygon fill="#63b8ff" stroke="#63b8ff" points="51.47,-284.75 46.18,-293.93 56.04,-290.06 51.47,-284.75"/>
</a>
</g>
</g>
<!-- Node5&#45;&gt;Node3 -->
<g id="edge4_Node000003_Node000005" class="edge">
<title>Node5&#45;&gt;Node3</title>
<g id="a_edge4_Node000003_Node000005"><a xlink:title=" ">
<path fill="none" stroke="orange" stroke-dasharray="5,2" d="M92.39,-227.7C88.38,-212.43 83.03,-192.07 79.99,-180.52"/>
<polygon fill="orange" stroke="orange" points="88.94,-228.35 94.87,-237.13 95.71,-226.57 88.94,-228.35"/>
</a>
</g>
<text xml:space="preserve" text-anchor="start" x="93.58" y="-208.5" font-family="Helvetica,sans-Serif" font-size="10.00" fill="grey">&lt; float &gt;</text>
</g>
<!-- Node6 -->
<g id="Node000006" class="node">
<title>Node6</title>
<g id="a_Node000006"><a xlink:href="classarmnn_1_1_per_axis_iterator.html" target="_top" xlink:title="PerAxisIterator for per&#45;axis quantization.">
<polygon fill="white" stroke="#666666" points="238.5,-185.75 140.75,-185.75 140.75,-155.25 238.5,-155.25 238.5,-185.75"/>
<text xml:space="preserve" text-anchor="start" x="148.75" y="-172.25" font-family="Helvetica,sans-Serif" font-size="10.00">PerAxisIterator&lt; T,</text>
<text xml:space="preserve" text-anchor="middle" x="189.62" y="-161" font-family="Helvetica,sans-Serif" font-size="10.00"> Base &gt;</text>
</a>
</g>
</g>
<!-- Node6&#45;&gt;Node2 -->
<g id="edge6_Node000002_Node000006" class="edge">
<title>Node6&#45;&gt;Node2</title>
<g id="a_edge6_Node000002_Node000006"><a xlink:title=" ">
<path fill="none" stroke="orange" stroke-dasharray="5,2" d="M175.27,-145.08C164.53,-126.79 150.19,-102.38 141.18,-87.05"/>
<polygon fill="orange" stroke="orange" points="172.12,-146.61 180.2,-153.46 178.15,-143.07 172.12,-146.61"/>
</a>
</g>
<text xml:space="preserve" text-anchor="start" x="172.56" y="-124.75" font-family="Helvetica,sans-Serif" font-size="10.00" fill="grey">&lt; const int8_t, Decoder</text>
<text xml:space="preserve" text-anchor="start" x="172.56" y="-109.5" font-family="Helvetica,sans-Serif" font-size="10.00" fill="grey">  &lt; float &gt; &gt;</text>
</g>
<!-- Node7 -->
<g id="Node000007" class="node">
<title>Node7</title>
<g id="a_Node000007"><a xlink:title=" ">
<polygon fill="white" stroke="#666666" points="208.88,-258.25 170.38,-258.25 170.38,-239 208.88,-239 208.88,-258.25"/>
<text xml:space="preserve" text-anchor="middle" x="189.62" y="-244.75" font-family="Helvetica,sans-Serif" font-size="10.00">Base</text>
</a>
</g>
</g>
<!-- Node7&#45;&gt;Node6 -->
<g id="edge7_Node000006_Node000007" class="edge">
<title>Node7&#45;&gt;Node6</title>
<g id="a_edge7_Node000006_Node000007"><a xlink:title=" ">
<path fill="none" stroke="#63b8ff" d="M189.62,-227.47C189.62,-214.42 189.62,-197.73 189.62,-185.98"/>
<polygon fill="#63b8ff" stroke="#63b8ff" points="186.13,-227.08 189.63,-237.08 193.13,-227.08 186.13,-227.08"/>
</a>
</g>
</g>
</g>
</svg>
