<?xml version="1.0" encoding="UTF-8" standalone="no"?>
<!DOCTYPE svg PUBLIC "-//W3C//DTD SVG 1.1//EN"
 "http://www.w3.org/Graphics/SVG/1.1/DTD/svg11.dtd">
<!-- Generated by graphviz version 2.43.0 (0)
 -->
<!-- Title: MultiTypedWorkload&lt; QueueDescriptor, InputDataType, OutputDataType &gt; Pages: 1 -->
<svg width="754pt" height="284pt"
 viewBox="0.00 0.00 754.00 284.00" xmlns="http://www.w3.org/2000/svg" xmlns:xlink="http://www.w3.org/1999/xlink">
<g id="graph0" class="graph" transform="scale(1 1) rotate(0) translate(4 280)">
<title>MultiTypedWorkload&lt; QueueDescriptor, InputDataType, OutputDataType &gt;</title>
<polygon fill="white" stroke="transparent" points="-4,4 -4,-280 750,-280 750,4 -4,4"/>
<!-- Node1 -->
<g id="node1" class="node">
<title>Node1</title>
<g id="a_node1"><a xlink:title=" ">
<polygon fill="#bfbfbf" stroke="black" points="328,-117 328,-158 492,-158 492,-117 328,-117"/>
<text text-anchor="start" x="336" y="-146" font-family="Helvetica,sans-Serif" font-size="10.00">MultiTypedWorkload</text>
<text text-anchor="start" x="336" y="-135" font-family="Helvetica,sans-Serif" font-size="10.00">&lt; QueueDescriptor, InputData</text>
<text text-anchor="middle" x="410" y="-124" font-family="Helvetica,sans-Serif" font-size="10.00">Type, OutputDataType &gt;</text>
</a>
</g>
</g>
<!-- Node4 -->
<g id="node4" class="node">
<title>Node4</title>
<g id="a_node4"><a xlink:href="classarmnn_1_1_cl_convert_fp16_to_fp32_workload.html" target="_top" xlink:title=" ">
<polygon fill="white" stroke="black" points="528,-245.5 528,-275.5 746,-275.5 746,-245.5 528,-245.5"/>
<text text-anchor="start" x="536" y="-263.5" font-family="Helvetica,sans-Serif" font-size="10.00">ClConvertFp16ToFp32Workload</text>
<text text-anchor="middle" x="637" y="-252.5" font-family="Helvetica,sans-Serif" font-size="10.00">&lt; ConvertFp16ToFp32QueueDescriptor &gt;</text>
</a>
</g>
</g>
<!-- Node1&#45;&gt;Node4 -->
<g id="edge3" class="edge">
<title>Node1&#45;&gt;Node4</title>
<path fill="none" stroke="midnightblue" d="M436.56,-165.63C458.61,-188.18 492.45,-218.87 528,-236.5 534.97,-239.96 542.44,-242.92 550.07,-245.46"/>
<polygon fill="midnightblue" stroke="midnightblue" points="438.99,-163.12 429.54,-158.33 433.94,-167.96 438.99,-163.12"/>
</g>
<!-- Node5 -->
<g id="node5" class="node">
<title>Node5</title>
<g id="a_node5"><a xlink:href="classarmnn_1_1_cl_convert_fp32_to_fp16_workload.html" target="_top" xlink:title=" ">
<polygon fill="white" stroke="black" points="528,-196.5 528,-226.5 746,-226.5 746,-196.5 528,-196.5"/>
<text text-anchor="start" x="536" y="-214.5" font-family="Helvetica,sans-Serif" font-size="10.00">ClConvertFp32ToFp16Workload</text>
<text text-anchor="middle" x="637" y="-203.5" font-family="Helvetica,sans-Serif" font-size="10.00">&lt; ConvertFp32ToFp16QueueDescriptor &gt;</text>
</a>
</g>
</g>
<!-- Node1&#45;&gt;Node5 -->
<g id="edge4" class="edge">
<title>Node1&#45;&gt;Node5</title>
<path fill="none" stroke="midnightblue" d="M463.12,-162.22C483.1,-171.05 506.31,-180.52 528,-187.5 538.24,-190.79 549.17,-193.8 559.99,-196.47"/>
<polygon fill="midnightblue" stroke="midnightblue" points="464.44,-158.98 453.89,-158.09 461.58,-165.37 464.44,-158.98"/>
</g>
<!-- Node6 -->
<g id="node6" class="node">
<title>Node6</title>
<g id="a_node6"><a xlink:href="classarmnn_1_1_neon_convert_fp16_to_fp32_workload.html" target="_top" xlink:title=" ">
<polygon fill="white" stroke="black" points="528,-147.5 528,-177.5 746,-177.5 746,-147.5 528,-147.5"/>
<text text-anchor="start" x="536" y="-165.5" font-family="Helvetica,sans-Serif" font-size="10.00">NeonConvertFp16ToFp32Workload</text>
<text text-anchor="middle" x="637" y="-154.5" font-family="Helvetica,sans-Serif" font-size="10.00">&lt; ConvertFp16ToFp32QueueDescriptor &gt;</text>
</a>
</g>
</g>
<!-- Node1&#45;&gt;Node6 -->
<g id="edge5" class="edge">
<title>Node1&#45;&gt;Node6</title>
<path fill="none" stroke="midnightblue" d="M502.38,-147.65C510.78,-148.59 519.34,-149.54 527.87,-150.49"/>
<polygon fill="midnightblue" stroke="midnightblue" points="502.56,-144.15 492.23,-146.53 501.78,-151.11 502.56,-144.15"/>
</g>
<!-- Node7 -->
<g id="node7" class="node">
<title>Node7</title>
<g id="a_node7"><a xlink:href="classarmnn_1_1_neon_convert_fp32_to_fp16_workload.html" target="_top" xlink:title=" ">
<polygon fill="white" stroke="black" points="528,-98.5 528,-128.5 746,-128.5 746,-98.5 528,-98.5"/>
<text text-anchor="start" x="536" y="-116.5" font-family="Helvetica,sans-Serif" font-size="10.00">NeonConvertFp32ToFp16Workload</text>
<text text-anchor="middle" x="637" y="-105.5" font-family="Helvetica,sans-Serif" font-size="10.00">&lt; ConvertFp32ToFp16QueueDescriptor &gt;</text>
</a>
</g>
</g>
<!-- Node1&#45;&gt;Node7 -->
<g id="edge6" class="edge">
<title>Node1&#45;&gt;Node7</title>
<path fill="none" stroke="midnightblue" d="M502.38,-127.75C510.78,-126.86 519.34,-125.94 527.87,-125.03"/>
<polygon fill="midnightblue" stroke="midnightblue" points="501.8,-124.29 492.23,-128.84 502.55,-131.25 501.8,-124.29"/>
</g>
<!-- Node8 -->
<g id="node8" class="node">
<title>Node8</title>
<g id="a_node8"><a xlink:href="classarmnn_1_1_ref_convert_fp16_to_fp32_workload.html" target="_top" xlink:title=" ">
<polygon fill="white" stroke="black" points="528,-49.5 528,-79.5 746,-79.5 746,-49.5 528,-49.5"/>
<text text-anchor="start" x="536" y="-67.5" font-family="Helvetica,sans-Serif" font-size="10.00">RefConvertFp16ToFp32Workload</text>
<text text-anchor="middle" x="637" y="-56.5" font-family="Helvetica,sans-Serif" font-size="10.00">&lt; ConvertFp16ToFp32QueueDescriptor &gt;</text>
</a>
</g>
</g>
<!-- Node1&#45;&gt;Node8 -->
<g id="edge7" class="edge">
<title>Node1&#45;&gt;Node8</title>
<path fill="none" stroke="midnightblue" d="M463.92,-112.99C483.73,-104.44 506.62,-95.29 528,-88.5 538.34,-85.21 549.38,-82.21 560.3,-79.52"/>
<polygon fill="midnightblue" stroke="midnightblue" points="462.51,-109.78 454.75,-116.99 465.32,-116.2 462.51,-109.78"/>
</g>
<!-- Node9 -->
<g id="node9" class="node">
<title>Node9</title>
<g id="a_node9"><a xlink:href="classarmnn_1_1_ref_convert_fp32_to_fp16_workload.html" target="_top" xlink:title=" ">
<polygon fill="white" stroke="black" points="528,-0.5 528,-30.5 746,-30.5 746,-0.5 528,-0.5"/>
<text text-anchor="start" x="536" y="-18.5" font-family="Helvetica,sans-Serif" font-size="10.00">RefConvertFp32ToFp16Workload</text>
<text text-anchor="middle" x="637" y="-7.5" font-family="Helvetica,sans-Serif" font-size="10.00">&lt; ConvertFp32ToFp16QueueDescriptor &gt;</text>
</a>
</g>
</g>
<!-- Node1&#45;&gt;Node9 -->
<g id="edge8" class="edge">
<title>Node1&#45;&gt;Node9</title>
<path fill="none" stroke="midnightblue" d="M436.61,-109.66C458.7,-87.35 492.55,-56.97 528,-39.5 534.98,-36.06 542.45,-33.11 550.09,-30.58"/>
<polygon fill="midnightblue" stroke="midnightblue" points="434.05,-107.28 429.59,-116.89 439.07,-112.16 434.05,-107.28"/>
</g>
<!-- Node2 -->
<g id="node2" class="node">
<title>Node2</title>
<g id="a_node2"><a xlink:href="classarmnn_1_1_base_workload.html" target="_top" xlink:title=" ">
<polygon fill="white" stroke="black" points="101,-128 101,-147 292,-147 292,-128 101,-128"/>
<text text-anchor="middle" x="196.5" y="-135" font-family="Helvetica,sans-Serif" font-size="10.00">BaseWorkload&lt; QueueDescriptor &gt;</text>
</a>
</g>
</g>
<!-- Node2&#45;&gt;Node1 -->
<g id="edge1" class="edge">
<title>Node2&#45;&gt;Node1</title>
<path fill="none" stroke="midnightblue" d="M302.17,-137.5C310.75,-137.5 319.34,-137.5 327.71,-137.5"/>
<polygon fill="midnightblue" stroke="midnightblue" points="302.12,-134 292.12,-137.5 302.12,-141 302.12,-134"/>
</g>
<!-- Node3 -->
<g id="node3" class="node">
<title>Node3</title>
<g id="a_node3"><a xlink:href="classarmnn_1_1_i_workload.html" target="_top" xlink:title="Workload interface to enqueue a layer computation.">
<polygon fill="white" stroke="black" points="0,-128 0,-147 65,-147 65,-128 0,-128"/>
<text text-anchor="middle" x="32.5" y="-135" font-family="Helvetica,sans-Serif" font-size="10.00">IWorkload</text>
</a>
</g>
</g>
<!-- Node3&#45;&gt;Node2 -->
<g id="edge2" class="edge">
<title>Node3&#45;&gt;Node2</title>
<path fill="none" stroke="midnightblue" d="M75.27,-137.5C83.31,-137.5 92.04,-137.5 101,-137.5"/>
<polygon fill="midnightblue" stroke="midnightblue" points="75.12,-134 65.12,-137.5 75.12,-141 75.12,-134"/>
</g>
</g>
</svg>
