<?xml version="1.0" encoding="UTF-8" standalone="no"?>
<!DOCTYPE svg PUBLIC "-//W3C//DTD SVG 1.1//EN"
 "http://www.w3.org/Graphics/SVG/1.1/DTD/svg11.dtd">
<!-- Generated by graphviz version 14.0.2 (20251019.1705)
 -->
<!-- Title: Int64Decoder Pages: 1 -->
<svg width="299pt" height="311pt"
 viewBox="0.00 0.00 299.00 311.00" xmlns="http://www.w3.org/2000/svg" xmlns:xlink="http://www.w3.org/1999/xlink">
<g id="graph0" class="graph" transform="scale(1 1) rotate(0) translate(4 307.25)">
<title>Int64Decoder</title>
<!-- Node1 -->
<g id="Node000001" class="node">
<title>Node1</title>
<g id="a_Node000001"><a xlink:title=" ">
<polygon fill="#999999" stroke="#666666" points="165.88,-19.25 91.38,-19.25 91.38,0 165.88,0 165.88,-19.25"/>
<text xml:space="preserve" text-anchor="middle" x="128.62" y="-5.75" font-family="Helvetica,sans-Serif" font-size="10.00">Int64Decoder</text>
</a>
</g>
</g>
<!-- Node2 -->
<g id="Node000002" class="node">
<title>Node2</title>
<g id="a_Node000002"><a xlink:href="classarmnn_1_1_typed_iterator.html" target="_top" xlink:title=" ">
<polygon fill="white" stroke="#666666" points="206,-86.75 51.25,-86.75 51.25,-56.25 206,-56.25 206,-86.75"/>
<text xml:space="preserve" text-anchor="start" x="59.25" y="-73.25" font-family="Helvetica,sans-Serif" font-size="10.00">TypedIterator&lt; const</text>
<text xml:space="preserve" text-anchor="middle" x="128.62" y="-62" font-family="Helvetica,sans-Serif" font-size="10.00"> int64_t, Decoder&lt; double_t &gt; &gt;</text>
</a>
</g>
</g>
<!-- Node2&#45;&gt;Node1 -->
<g id="edge1_Node000001_Node000002" class="edge">
<title>Node2&#45;&gt;Node1</title>
<g id="a_edge1_Node000001_Node000002"><a xlink:title=" ">
<path fill="none" stroke="#63b8ff" d="M128.62,-44.77C128.62,-35.79 128.62,-26.29 128.62,-19.6"/>
<polygon fill="#63b8ff" stroke="#63b8ff" points="125.13,-44.49 128.63,-54.49 132.13,-44.49 125.13,-44.49"/>
</a>
</g>
</g>
<!-- Node3 -->
<g id="Node000003" class="node">
<title>Node3</title>
<g id="a_Node000003"><a xlink:href="classarmnn_1_1_decoder.html" target="_top" xlink:title=" ">
<polygon fill="white" stroke="#666666" points="116.38,-174.5 8.88,-174.5 8.88,-155.25 116.38,-155.25 116.38,-174.5"/>
<text xml:space="preserve" text-anchor="middle" x="62.62" y="-161" font-family="Helvetica,sans-Serif" font-size="10.00">Decoder&lt; double_t &gt;</text>
</a>
</g>
</g>
<!-- Node3&#45;&gt;Node2 -->
<g id="edge2_Node000002_Node000003" class="edge">
<title>Node3&#45;&gt;Node2</title>
<g id="a_edge2_Node000002_Node000003"><a xlink:title=" ">
<path fill="none" stroke="#63b8ff" d="M75.74,-145.72C88.21,-128.46 106.71,-102.84 118.2,-86.93"/>
<polygon fill="#63b8ff" stroke="#63b8ff" points="73.1,-143.4 70.08,-153.55 78.77,-147.5 73.1,-143.4"/>
</a>
</g>
</g>
<!-- Node4 -->
<g id="Node000004" class="node">
<title>Node4</title>
<g id="a_Node000004"><a xlink:href="classarmnn_1_1_base_iterator.html" target="_top" xlink:title=" ">
<polygon fill="white" stroke="#666666" points="69.25,-303.25 0,-303.25 0,-284 69.25,-284 69.25,-303.25"/>
<text xml:space="preserve" text-anchor="middle" x="34.62" y="-289.75" font-family="Helvetica,sans-Serif" font-size="10.00">BaseIterator</text>
</a>
</g>
</g>
<!-- Node4&#45;&gt;Node3 -->
<g id="edge3_Node000003_Node000004" class="edge">
<title>Node4&#45;&gt;Node3</title>
<g id="a_edge3_Node000003_Node000004"><a xlink:title=" ">
<path fill="none" stroke="#63b8ff" d="M35.66,-272.42C36.6,-259.53 38.36,-242.52 41.62,-227.75 45.88,-208.48 54.05,-186.82 58.85,-174.92"/>
<polygon fill="#63b8ff" stroke="#63b8ff" points="32.18,-272 35.06,-282.2 39.17,-272.43 32.18,-272"/>
</a>
</g>
</g>
<!-- Node5 -->
<g id="Node000005" class="node">
<title>Node5</title>
<g id="a_Node000005"><a xlink:href="classarmnn_1_1_decoder.html" target="_top" xlink:title=" ">
<polygon fill="white" stroke="#666666" points="145,-247 50.25,-247 50.25,-227.75 145,-227.75 145,-247"/>
<text xml:space="preserve" text-anchor="middle" x="97.62" y="-233.5" font-family="Helvetica,sans-Serif" font-size="10.00">Decoder&lt; IType &gt;</text>
</a>
</g>
</g>
<!-- Node4&#45;&gt;Node5 -->
<g id="edge5_Node000005_Node000004" class="edge">
<title>Node4&#45;&gt;Node5</title>
<g id="a_edge5_Node000005_Node000004"><a xlink:title=" ">
<path fill="none" stroke="#63b8ff" d="M53.62,-276.27C64.73,-266.71 78.3,-255.01 87.42,-247.17"/>
<polygon fill="#63b8ff" stroke="#63b8ff" points="51.47,-273.5 46.18,-282.68 56.04,-278.81 51.47,-273.5"/>
</a>
</g>
</g>
<!-- Node5&#45;&gt;Node3 -->
<g id="edge4_Node000003_Node000005" class="edge">
<title>Node5&#45;&gt;Node3</title>
<g id="a_edge4_Node000003_Node000005"><a xlink:title=" ">
<path fill="none" stroke="orange" stroke-dasharray="5,2" d="M88.27,-217.54C81.43,-203.76 72.45,-185.67 67.13,-174.95"/>
<polygon fill="orange" stroke="orange" points="84.94,-218.69 92.52,-226.09 91.21,-215.58 84.94,-218.69"/>
</a>
</g>
<text xml:space="preserve" text-anchor="start" x="87.29" y="-197.25" font-family="Helvetica,sans-Serif" font-size="10.00" fill="grey">&lt; double_t &gt;</text>
</g>
<!-- Node6 -->
<g id="Node000006" class="node">
<title>Node6</title>
<g id="a_Node000006"><a xlink:href="classarmnn_1_1_typed_iterator.html" target="_top" xlink:title=" ">
<polygon fill="white" stroke="#666666" points="258.62,-174.5 134.62,-174.5 134.62,-155.25 258.62,-155.25 258.62,-174.5"/>
<text xml:space="preserve" text-anchor="middle" x="196.62" y="-161" font-family="Helvetica,sans-Serif" font-size="10.00">TypedIterator&lt; T, Base &gt;</text>
</a>
</g>
</g>
<!-- Node6&#45;&gt;Node2 -->
<g id="edge6_Node000002_Node000006" class="edge">
<title>Node6&#45;&gt;Node2</title>
<g id="a_edge6_Node000002_Node000006"><a xlink:title=" ">
<path fill="none" stroke="orange" stroke-dasharray="5,2" d="M183.11,-145.72C170.27,-128.46 151.2,-102.84 139.36,-86.93"/>
<polygon fill="orange" stroke="orange" points="180.17,-147.63 188.95,-153.57 185.79,-143.45 180.17,-147.63"/>
</a>
</g>
<text xml:space="preserve" text-anchor="start" x="179.53" y="-124.75" font-family="Helvetica,sans-Serif" font-size="10.00" fill="grey">&lt; const int64_t, Decoder</text>
<text xml:space="preserve" text-anchor="start" x="179.53" y="-109.5" font-family="Helvetica,sans-Serif" font-size="10.00" fill="grey">  &lt; double_t &gt; &gt;</text>
</g>
<!-- Node7 -->
<g id="Node000007" class="node">
<title>Node7</title>
<g id="a_Node000007"><a xlink:title=" ">
<polygon fill="white" stroke="#666666" points="215.88,-247 177.38,-247 177.38,-227.75 215.88,-227.75 215.88,-247"/>
<text xml:space="preserve" text-anchor="middle" x="196.62" y="-233.5" font-family="Helvetica,sans-Serif" font-size="10.00">Base</text>
</a>
</g>
</g>
<!-- Node7&#45;&gt;Node6 -->
<g id="edge7_Node000006_Node000007" class="edge">
<title>Node7&#45;&gt;Node6</title>
<g id="a_edge7_Node000006_Node000007"><a xlink:title=" ">
<path fill="none" stroke="#63b8ff" d="M196.62,-216.3C196.62,-202.69 196.62,-185.35 196.62,-174.95"/>
<polygon fill="#63b8ff" stroke="#63b8ff" points="193.13,-215.93 196.63,-225.93 200.13,-215.93 193.13,-215.93"/>
</a>
</g>
</g>
</g>
</svg>
