<?xml version="1.0" encoding="UTF-8" standalone="no"?>
<!DOCTYPE svg PUBLIC "-//W3C//DTD SVG 1.1//EN"
 "http://www.w3.org/Graphics/SVG/1.1/DTD/svg11.dtd">
<!-- Generated by graphviz version 14.1.1 (20251213.1925)
 -->
<!-- Title: BackendCapabilityException Pages: 1 -->
<svg width="149pt" height="138pt"
 viewBox="0.00 0.00 149.00 138.00" xmlns="http://www.w3.org/2000/svg" xmlns:xlink="http://www.w3.org/1999/xlink">
<g id="graph0" class="graph" transform="scale(1 1) rotate(0) translate(4 133.75)">
<title>BackendCapabilityException</title>
<!-- Node1 -->
<g id="Node000001" class="node">
<title>Node1</title>
<g id="a_Node000001"><a xlink:title=" ">
<polygon fill="#999999" stroke="#666666" points="141.25,-19.25 0,-19.25 0,0 141.25,0 141.25,-19.25"/>
<text xml:space="preserve" text-anchor="middle" x="70.62" y="-5.75" font-family="Helvetica,sans-Serif" font-size="10.00">BackendCapabilityException</text>
</a>
</g>
</g>
<!-- Node2 -->
<g id="Node000002" class="node">
<title>Node2</title>
<g id="a_Node000002"><a xlink:href="classarmnn_1_1_exception.html" target="_top" xlink:title="Base class for all ArmNN exceptions so that users can filter to just those.">
<polygon fill="white" stroke="#666666" points="100.38,-74.5 40.88,-74.5 40.88,-55.25 100.38,-55.25 100.38,-74.5"/>
<text xml:space="preserve" text-anchor="middle" x="70.62" y="-61" font-family="Helvetica,sans-Serif" font-size="10.00">Exception</text>
</a>
</g>
</g>
<!-- Node2&#45;&gt;Node1 -->
<g id="edge1_Node000001_Node000002" class="edge">
<title>Node2&#45;&gt;Node1</title>
<g id="a_edge1_Node000001_Node000002"><a xlink:title=" ">
<path fill="none" stroke="#63b8ff" d="M70.62,-43.63C70.62,-35.34 70.62,-26.17 70.62,-19.61"/>
<polygon fill="#63b8ff" stroke="#63b8ff" points="67.13,-43.57 70.63,-53.57 74.13,-43.57 67.13,-43.57"/>
</a>
</g>
</g>
<!-- Node3 -->
<g id="Node000003" class="node">
<title>Node3</title>
<g id="a_Node000003"><a xlink:title=" ">
<polygon fill="white" stroke="#666666" points="99.62,-129.75 41.62,-129.75 41.62,-110.5 99.62,-110.5 99.62,-129.75"/>
<text xml:space="preserve" text-anchor="middle" x="70.62" y="-116.25" font-family="Helvetica,sans-Serif" font-size="10.00">exception</text>
</a>
</g>
</g>
<!-- Node3&#45;&gt;Node2 -->
<g id="edge2_Node000002_Node000003" class="edge">
<title>Node3&#45;&gt;Node2</title>
<g id="a_edge2_Node000002_Node000003"><a xlink:title=" ">
<path fill="none" stroke="#63b8ff" d="M70.62,-98.88C70.62,-90.59 70.62,-81.42 70.62,-74.86"/>
<polygon fill="#63b8ff" stroke="#63b8ff" points="67.13,-98.82 70.63,-108.82 74.13,-98.82 67.13,-98.82"/>
</a>
</g>
</g>
</g>
</svg>
