<?xml version="1.0" encoding="UTF-8" standalone="no"?>
<!DOCTYPE svg PUBLIC "-//W3C//DTD SVG 1.1//EN"
 "http://www.w3.org/Graphics/SVG/1.1/DTD/svg11.dtd">
<!-- Generated by graphviz version 2.43.0 (0)
 -->
<!-- Title: include/armnnSerializer Pages: 1 -->
<svg width="134pt" height="151pt"
 viewBox="0.00 0.00 134.00 151.00" xmlns="http://www.w3.org/2000/svg" xmlns:xlink="http://www.w3.org/1999/xlink">
<g id="graph0" class="graph" transform="scale(1 1) rotate(0) translate(4 147)">
<title>include/armnnSerializer</title>
<polygon fill="white" stroke="transparent" points="-4,4 -4,-147 130,-147 130,4 -4,4"/>
<g id="clust1" class="cluster">
<title>clusterdir_d44c64559bbebec7f509842c48db8b23</title>
<g id="a_clust1"><a xlink:href="dir_d44c64559bbebec7f509842c48db8b23.html" target="_top" xlink:title="include">
<polygon fill="#ddddee" stroke="black" points="8,-64 8,-135 118,-135 118,-64 8,-64"/>
<text text-anchor="middle" x="63" y="-123" font-family="Helvetica,sans-Serif" font-size="10.00">include</text>
</a>
</g>
</g>
<!-- dir_e2b12e69186a743e61b71686529ee0e9 -->
<g id="node1" class="node">
<title>dir_e2b12e69186a743e61b71686529ee0e9</title>
<g id="a_node1"><a xlink:href="dir_e2b12e69186a743e61b71686529ee0e9.html" target="_top" xlink:title="armnnSerializer">
<polygon fill="#eeeeff" stroke="black" points="110,-108 16,-108 16,-72 110,-72 110,-108"/>
<text text-anchor="middle" x="63" y="-87.5" font-family="Helvetica,sans-Serif" font-size="10.00">armnnSerializer</text>
</a>
</g>
</g>
<!-- dir_2b72cc348e06937955e62ebdd8a13436 -->
<g id="node2" class="node">
<title>dir_2b72cc348e06937955e62ebdd8a13436</title>
<g id="a_node2"><a xlink:href="dir_2b72cc348e06937955e62ebdd8a13436.html" target="_top" xlink:title="armnn">
<polygon fill="white" stroke="red" points="90,-36 36,-36 36,0 90,0 90,-36"/>
<text text-anchor="middle" x="63" y="-15.5" font-family="Helvetica,sans-Serif" font-size="10.00">armnn</text>
</a>
</g>
</g>
<!-- dir_e2b12e69186a743e61b71686529ee0e9&#45;&gt;dir_2b72cc348e06937955e62ebdd8a13436 -->
<g id="edge1" class="edge">
<title>dir_e2b12e69186a743e61b71686529ee0e9&#45;&gt;dir_2b72cc348e06937955e62ebdd8a13436</title>
<path fill="none" stroke="black" d="M63,-71.7C63,-63.98 63,-54.71 63,-46.11"/>
<polygon fill="black" stroke="black" points="66.5,-46.1 63,-36.1 59.5,-46.1 66.5,-46.1"/>
<g id="a_edge1&#45;headlabel"><a xlink:href="dir_000016_000009.html" target="_top" xlink:title="3">
<text text-anchor="middle" x="69.34" y="-47.2" font-family="Helvetica,sans-Serif" font-size="10.00">3</text>
</a>
</g>
</g>
</g>
</svg>
