<?xml version="1.0" encoding="UTF-8" standalone="no"?>
<!DOCTYPE svg PUBLIC "-//W3C//DTD SVG 1.1//EN"
 "http://www.w3.org/Graphics/SVG/1.1/DTD/svg11.dtd">
<!-- Generated by graphviz version 2.43.0 (0)
 -->
<!-- Title: JsonChildObject Pages: 1 -->
<svg width="1214pt" height="135pt"
 viewBox="0.00 0.00 1214.00 135.24" xmlns="http://www.w3.org/2000/svg" xmlns:xlink="http://www.w3.org/1999/xlink">
<g id="graph0" class="graph" transform="scale(1 1) rotate(0) translate(4 131.24)">
<title>JsonChildObject</title>
<polygon fill="white" stroke="transparent" points="-4,4 -4,-131.24 1210,-131.24 1210,4 -4,4"/>
<!-- Node1 -->
<g id="node1" class="node">
<title>Node1</title>
<g id="a_node1"><a xlink:title=" ">
<polygon fill="#bfbfbf" stroke="black" points="1113,-54.5 1113,-73.5 1206,-73.5 1206,-54.5 1113,-54.5"/>
<text text-anchor="middle" x="1159.5" y="-61.5" font-family="Helvetica,sans-Serif" font-size="10.00">JsonChildObject</text>
</a>
</g>
</g>
<!-- Node2 -->
<g id="node2" class="node">
<title>Node2</title>
<g id="a_node2"><a xlink:href="classarmnn_1_1_optional.html" target="_top" xlink:title=" ">
<polygon fill="white" stroke="black" points="920,-49 920,-79 1036,-79 1036,-49 920,-49"/>
<text text-anchor="start" x="928" y="-67" font-family="Helvetica,sans-Serif" font-size="10.00">Optional&lt; arm::pipe</text>
<text text-anchor="middle" x="978" y="-56" font-family="Helvetica,sans-Serif" font-size="10.00">::ProfilingGuid &gt;</text>
</a>
</g>
</g>
<!-- Node2&#45;&gt;Node1 -->
<g id="edge1" class="edge">
<title>Node2&#45;&gt;Node1</title>
<path fill="none" stroke="#9a32cd" stroke-dasharray="5,2" d="M1046.32,-64C1068.5,-64 1092.63,-64 1112.81,-64"/>
<polygon fill="#9a32cd" stroke="#9a32cd" points="1046.29,-60.5 1036.29,-64 1046.29,-67.5 1046.29,-60.5"/>
<text text-anchor="middle" x="1074.5" y="-67" font-family="Helvetica,sans-Serif" font-size="10.00"> m_Guid</text>
</g>
<!-- Node3 -->
<g id="node3" class="node">
<title>Node3</title>
<g id="a_node3"><a xlink:href="classarmnn_1_1_optional_reference_switch.html" target="_top" xlink:title=" ">
<polygon fill="white" stroke="black" points="438,-61 438,-113 620,-113 620,-61 438,-61"/>
<text text-anchor="start" x="446" y="-101" font-family="Helvetica,sans-Serif" font-size="10.00">OptionalReferenceSwitch</text>
<text text-anchor="start" x="446" y="-90" font-family="Helvetica,sans-Serif" font-size="10.00">&lt; std::is_reference&lt; arm</text>
<text text-anchor="start" x="446" y="-79" font-family="Helvetica,sans-Serif" font-size="10.00">::pipe::ProfilingGuid &gt;</text>
<text text-anchor="middle" x="529" y="-68" font-family="Helvetica,sans-Serif" font-size="10.00">::value, arm::pipe::ProfilingGuid &gt;</text>
</a>
</g>
</g>
<!-- Node3&#45;&gt;Node2 -->
<g id="edge2" class="edge">
<title>Node3&#45;&gt;Node2</title>
<path fill="none" stroke="midnightblue" d="M630.59,-82.63C705.45,-79.26 810.14,-74.28 902,-69 907.73,-68.67 913.71,-68.31 919.68,-67.93"/>
<polygon fill="midnightblue" stroke="midnightblue" points="630.06,-79.15 620.23,-83.09 630.38,-86.14 630.06,-79.15"/>
</g>
<!-- Node4 -->
<g id="node4" class="node">
<title>Node4</title>
<g id="a_node4"><a xlink:href="classarmnn_1_1_optional_base.html" target="_top" xlink:title="OptionalBase is the common functionality between reference and non&#45;reference optional types.">
<polygon fill="white" stroke="black" points="0,-50.5 0,-69.5 82,-69.5 82,-50.5 0,-50.5"/>
<text text-anchor="middle" x="41" y="-57.5" font-family="Helvetica,sans-Serif" font-size="10.00">OptionalBase</text>
</a>
</g>
</g>
<!-- Node4&#45;&gt;Node3 -->
<g id="edge3" class="edge">
<title>Node4&#45;&gt;Node3</title>
<path fill="none" stroke="midnightblue" d="M76.29,-73.02C142.62,-96.58 293.17,-142.04 420,-122 432.65,-120 445.85,-116.76 458.48,-113.04"/>
<polygon fill="midnightblue" stroke="midnightblue" points="77.34,-69.68 66.75,-69.58 74.97,-76.27 77.34,-69.68"/>
</g>
<!-- Node5 -->
<g id="node5" class="node">
<title>Node5</title>
<g id="a_node5"><a xlink:href="classarmnn_1_1_optional_reference_switch.html" target="_top" xlink:title="The default implementation is the non&#45;reference case.">
<polygon fill="white" stroke="black" points="119,-45 119,-75 259,-75 259,-45 119,-45"/>
<text text-anchor="start" x="127" y="-63" font-family="Helvetica,sans-Serif" font-size="10.00">OptionalReferenceSwitch</text>
<text text-anchor="middle" x="189" y="-52" font-family="Helvetica,sans-Serif" font-size="10.00">&lt; IsReference, T &gt;</text>
</a>
</g>
</g>
<!-- Node4&#45;&gt;Node5 -->
<g id="edge5" class="edge">
<title>Node4&#45;&gt;Node5</title>
<path fill="none" stroke="midnightblue" d="M92.46,-60C101.03,-60 110.05,-60 118.99,-60"/>
<polygon fill="midnightblue" stroke="midnightblue" points="92.28,-56.5 82.28,-60 92.28,-63.5 92.28,-56.5"/>
</g>
<!-- Node7 -->
<g id="node7" class="node">
<title>Node7</title>
<g id="a_node7"><a xlink:href="classarmnn_1_1_optional_reference_switch.html" target="_top" xlink:title=" ">
<polygon fill="white" stroke="black" points="459,-0.5 459,-41.5 599,-41.5 599,-0.5 459,-0.5"/>
<text text-anchor="start" x="467" y="-29.5" font-family="Helvetica,sans-Serif" font-size="10.00">OptionalReferenceSwitch</text>
<text text-anchor="start" x="467" y="-18.5" font-family="Helvetica,sans-Serif" font-size="10.00">&lt; std::is_reference&lt; T</text>
<text text-anchor="middle" x="529" y="-7.5" font-family="Helvetica,sans-Serif" font-size="10.00"> &gt;::value, T &gt;</text>
</a>
</g>
</g>
<!-- Node4&#45;&gt;Node7 -->
<g id="edge8" class="edge">
<title>Node4&#45;&gt;Node7</title>
<path fill="none" stroke="midnightblue" d="M76.2,-47.01C89.39,-42.5 104.72,-37.86 119,-35 236.55,-11.41 376.85,-12.84 458.82,-16.55"/>
<polygon fill="midnightblue" stroke="midnightblue" points="74.85,-43.78 66.58,-50.41 77.17,-50.38 74.85,-43.78"/>
</g>
<!-- Node5&#45;&gt;Node3 -->
<g id="edge4" class="edge">
<title>Node5&#45;&gt;Node3</title>
<path fill="none" stroke="orange" stroke-dasharray="5,2" d="M269.33,-66.11C313.66,-69.55 369.91,-73.95 420,-78 425.81,-78.47 431.8,-78.96 437.84,-79.45"/>
<polygon fill="orange" stroke="orange" points="269.44,-62.61 259.2,-65.32 268.9,-69.59 269.44,-62.61"/>
<text text-anchor="start" x="277" y="-114" font-family="Helvetica,sans-Serif" font-size="10.00"> &lt; std::is_reference</text>
<text text-anchor="start" x="277" y="-103" font-family="Helvetica,sans-Serif" font-size="10.00">&lt; arm::pipe::ProfilingGuid</text>
<text text-anchor="start" x="277" y="-92" font-family="Helvetica,sans-Serif" font-size="10.00"> &gt;::value, arm::pipe::Profiling</text>
<text text-anchor="middle" x="348.5" y="-81" font-family="Helvetica,sans-Serif" font-size="10.00">Guid &gt;</text>
</g>
<!-- Node5&#45;&gt;Node7 -->
<g id="edge9" class="edge">
<title>Node5&#45;&gt;Node7</title>
<path fill="none" stroke="orange" stroke-dasharray="5,2" d="M260.28,-42.9C265.92,-41.81 271.54,-40.83 277,-40 338.14,-30.71 408.37,-25.89 458.97,-23.43"/>
<polygon fill="orange" stroke="orange" points="259.26,-39.53 250.15,-44.94 260.64,-46.39 259.26,-39.53"/>
<text text-anchor="start" x="300.5" y="-54" font-family="Helvetica,sans-Serif" font-size="10.00"> &lt; std::is_reference</text>
<text text-anchor="middle" x="348.5" y="-43" font-family="Helvetica,sans-Serif" font-size="10.00">&lt; T &gt;::value, T &gt;</text>
</g>
<!-- Node6 -->
<g id="node6" class="node">
<title>Node6</title>
<g id="a_node6"><a xlink:href="classarmnn_1_1_optional.html" target="_top" xlink:title=" ">
<polygon fill="white" stroke="black" points="657,-32.5 657,-51.5 743,-51.5 743,-32.5 657,-32.5"/>
<text text-anchor="middle" x="700" y="-39.5" font-family="Helvetica,sans-Serif" font-size="10.00">Optional&lt; T &gt;</text>
</a>
</g>
</g>
<!-- Node6&#45;&gt;Node2 -->
<g id="edge6" class="edge">
<title>Node6&#45;&gt;Node2</title>
<path fill="none" stroke="orange" stroke-dasharray="5,2" d="M753.54,-46.18C794.09,-49.4 851.6,-53.98 902,-58 907.73,-58.46 913.7,-58.93 919.67,-59.41"/>
<polygon fill="orange" stroke="orange" points="753.6,-42.67 743.35,-45.37 753.04,-49.65 753.6,-42.67"/>
<text text-anchor="middle" x="831.5" y="-61" font-family="Helvetica,sans-Serif" font-size="10.00"> &lt; arm::pipe::ProfilingGuid &gt;</text>
</g>
<!-- Node7&#45;&gt;Node6 -->
<g id="edge7" class="edge">
<title>Node7&#45;&gt;Node6</title>
<path fill="none" stroke="midnightblue" d="M609.36,-30.86C625.73,-32.9 642.36,-34.96 656.77,-36.75"/>
<polygon fill="midnightblue" stroke="midnightblue" points="609.58,-27.36 599.23,-29.6 608.72,-34.31 609.58,-27.36"/>
</g>
</g>
</svg>
