<?xml version="1.0" encoding="UTF-8" standalone="no"?>
<!DOCTYPE svg PUBLIC "-//W3C//DTD SVG 1.1//EN"
 "http://www.w3.org/Graphics/SVG/1.1/DTD/svg11.dtd">
<!-- Generated by graphviz version 2.43.0 (0)
 -->
<!-- Title: ElementwiseUnaryQueueDescriptor Pages: 1 -->
<svg width="934pt" height="103pt"
 viewBox="0.00 0.00 934.00 103.00" xmlns="http://www.w3.org/2000/svg" xmlns:xlink="http://www.w3.org/1999/xlink">
<g id="graph0" class="graph" transform="scale(1 1) rotate(0) translate(4 99)">
<title>ElementwiseUnaryQueueDescriptor</title>
<polygon fill="white" stroke="transparent" points="-4,4 -4,-99 930,-99 930,4 -4,4"/>
<!-- Node1 -->
<g id="node1" class="node">
<title>Node1</title>
<g id="a_node1"><a xlink:title=" ">
<polygon fill="#bfbfbf" stroke="black" points="735,-44.5 735,-63.5 926,-63.5 926,-44.5 735,-44.5"/>
<text text-anchor="middle" x="830.5" y="-51.5" font-family="Helvetica,sans-Serif" font-size="10.00">ElementwiseUnaryQueueDescriptor</text>
</a>
</g>
</g>
<!-- Node2 -->
<g id="node2" class="node">
<title>Node2</title>
<g id="a_node2"><a xlink:href="structarmnn_1_1_queue_descriptor_with_parameters.html" target="_top" xlink:title=" ">
<polygon fill="white" stroke="black" points="516,-39 516,-69 698,-69 698,-39 516,-39"/>
<text text-anchor="start" x="524" y="-57" font-family="Helvetica,sans-Serif" font-size="10.00">QueueDescriptorWithParameters</text>
<text text-anchor="middle" x="607" y="-46" font-family="Helvetica,sans-Serif" font-size="10.00">&lt; ElementwiseUnaryDescriptor &gt;</text>
</a>
</g>
</g>
<!-- Node2&#45;&gt;Node1 -->
<g id="edge1" class="edge">
<title>Node2&#45;&gt;Node1</title>
<path fill="none" stroke="midnightblue" d="M708.37,-54C717.16,-54 726.05,-54 734.8,-54"/>
<polygon fill="midnightblue" stroke="midnightblue" points="708.09,-50.5 698.09,-54 708.09,-57.5 708.09,-50.5"/>
</g>
<!-- Node3 -->
<g id="node3" class="node">
<title>Node3</title>
<g id="a_node3"><a xlink:href="structarmnn_1_1_queue_descriptor.html" target="_top" xlink:title=" ">
<polygon fill="white" stroke="black" points="0,-75.5 0,-94.5 98,-94.5 98,-75.5 0,-75.5"/>
<text text-anchor="middle" x="49" y="-82.5" font-family="Helvetica,sans-Serif" font-size="10.00">QueueDescriptor</text>
</a>
</g>
</g>
<!-- Node3&#45;&gt;Node2 -->
<g id="edge2" class="edge">
<title>Node3&#45;&gt;Node2</title>
<path fill="none" stroke="midnightblue" d="M108.23,-85.15C193.84,-84.86 358.6,-82.38 498,-69 503.84,-68.44 509.85,-67.79 515.9,-67.09"/>
<polygon fill="midnightblue" stroke="midnightblue" points="108.18,-81.65 98.19,-85.17 108.2,-88.65 108.18,-81.65"/>
</g>
<!-- Node6 -->
<g id="node6" class="node">
<title>Node6</title>
<g id="a_node6"><a xlink:href="structarmnn_1_1_queue_descriptor_with_parameters.html" target="_top" xlink:title=" ">
<polygon fill="white" stroke="black" points="135,-39 135,-69 311,-69 311,-39 135,-39"/>
<text text-anchor="start" x="143" y="-57" font-family="Helvetica,sans-Serif" font-size="10.00">QueueDescriptorWithParameters</text>
<text text-anchor="middle" x="223" y="-46" font-family="Helvetica,sans-Serif" font-size="10.00">&lt; LayerDescriptor &gt;</text>
</a>
</g>
</g>
<!-- Node3&#45;&gt;Node6 -->
<g id="edge6" class="edge">
<title>Node3&#45;&gt;Node6</title>
<path fill="none" stroke="midnightblue" d="M108.29,-74.49C118.02,-72.74 128.28,-70.89 138.49,-69.05"/>
<polygon fill="midnightblue" stroke="midnightblue" points="107.59,-71.06 98.37,-76.28 108.83,-77.95 107.59,-71.06"/>
</g>
<!-- Node4 -->
<g id="node4" class="node">
<title>Node4</title>
<g id="a_node4"><a xlink:href="structarmnn_1_1_elementwise_unary_descriptor.html" target="_top" xlink:title="A ElementwiseUnaryDescriptor for the ElementwiseUnaryLayer.">
<polygon fill="white" stroke="black" points="143.5,-0.5 143.5,-19.5 302.5,-19.5 302.5,-0.5 143.5,-0.5"/>
<text text-anchor="middle" x="223" y="-7.5" font-family="Helvetica,sans-Serif" font-size="10.00">ElementwiseUnaryDescriptor</text>
</a>
</g>
</g>
<!-- Node4&#45;&gt;Node2 -->
<g id="edge3" class="edge">
<title>Node4&#45;&gt;Node2</title>
<path fill="none" stroke="#9a32cd" stroke-dasharray="5,2" d="M312.79,-18.66C366.46,-24.08 436.22,-31.44 498,-39 503.82,-39.71 509.82,-40.47 515.87,-41.26"/>
<polygon fill="#9a32cd" stroke="#9a32cd" points="312.92,-15.15 302.62,-17.64 312.22,-22.12 312.92,-15.15"/>
<text text-anchor="middle" x="413.5" y="-42" font-family="Helvetica,sans-Serif" font-size="10.00"> m_Parameters</text>
</g>
<!-- Node5 -->
<g id="node5" class="node">
<title>Node5</title>
<g id="a_node5"><a xlink:href="structarmnn_1_1_base_descriptor.html" target="_top" xlink:title="Base class for all descriptors.">
<polygon fill="white" stroke="black" points="3.5,-0.5 3.5,-19.5 94.5,-19.5 94.5,-0.5 3.5,-0.5"/>
<text text-anchor="middle" x="49" y="-7.5" font-family="Helvetica,sans-Serif" font-size="10.00">BaseDescriptor</text>
</a>
</g>
</g>
<!-- Node5&#45;&gt;Node4 -->
<g id="edge4" class="edge">
<title>Node5&#45;&gt;Node4</title>
<path fill="none" stroke="midnightblue" d="M104.76,-10C116.98,-10 130.18,-10 143.17,-10"/>
<polygon fill="midnightblue" stroke="midnightblue" points="104.74,-6.5 94.74,-10 104.74,-13.5 104.74,-6.5"/>
</g>
<!-- Node6&#45;&gt;Node2 -->
<g id="edge5" class="edge">
<title>Node6&#45;&gt;Node2</title>
<path fill="none" stroke="orange" stroke-dasharray="5,2" d="M321.38,-54C381.25,-54 457.42,-54 515.9,-54"/>
<polygon fill="orange" stroke="orange" points="321.16,-50.5 311.16,-54 321.16,-57.5 321.16,-50.5"/>
<text text-anchor="middle" x="413.5" y="-57" font-family="Helvetica,sans-Serif" font-size="10.00"> &lt; ElementwiseUnaryDescriptor &gt;</text>
</g>
</g>
</svg>
