<?xml version="1.0" encoding="UTF-8" standalone="no"?>
<!DOCTYPE svg PUBLIC "-//W3C//DTD SVG 1.1//EN"
 "http://www.w3.org/Graphics/SVG/1.1/DTD/svg11.dtd">
<!-- Generated by graphviz version 2.43.0 (0)
 -->
<!-- Title: src/backends/reference/workloads/Activation.cpp Pages: 1 -->
<svg width="1226pt" height="498pt"
 viewBox="0.00 0.00 1226.20 498.00" xmlns="http://www.w3.org/2000/svg" xmlns:xlink="http://www.w3.org/1999/xlink">
<g id="graph0" class="graph" transform="scale(1 1) rotate(0) translate(4 494)">
<title>src/backends/reference/workloads/Activation.cpp</title>
<polygon fill="white" stroke="transparent" points="-4,4 -4,-494 1222.2,-494 1222.2,4 -4,4"/>
<!-- Node1 -->
<g id="node1" class="node">
<title>Node1</title>
<g id="a_node1"><a xlink:title=" ">
<polygon fill="#bfbfbf" stroke="black" points="569.2,-459.5 569.2,-489.5 712.2,-489.5 712.2,-459.5 569.2,-459.5"/>
<text text-anchor="start" x="577.2" y="-477.5" font-family="Helvetica,sans-Serif" font-size="10.00">src/backends/reference</text>
<text text-anchor="middle" x="640.7" y="-466.5" font-family="Helvetica,sans-Serif" font-size="10.00">/workloads/Activation.cpp</text>
</a>
</g>
</g>
<!-- Node2 -->
<g id="node2" class="node">
<title>Node2</title>
<g id="a_node2"><a xlink:href="_activation_8hpp.html" target="_top" xlink:title=" ">
<polygon fill="white" stroke="black" points="396.2,-403.5 396.2,-422.5 483.2,-422.5 483.2,-403.5 396.2,-403.5"/>
<text text-anchor="middle" x="439.7" y="-410.5" font-family="Helvetica,sans-Serif" font-size="10.00">Activation.hpp</text>
</a>
</g>
</g>
<!-- Node1&#45;&gt;Node2 -->
<g id="edge1" class="edge">
<title>Node1&#45;&gt;Node2</title>
<path fill="none" stroke="midnightblue" d="M593.32,-459.47C558.19,-449.08 510.9,-435.08 478.11,-425.37"/>
<polygon fill="midnightblue" stroke="midnightblue" points="479.02,-421.99 468.43,-422.51 477.03,-428.7 479.02,-421.99"/>
</g>
<!-- Node27 -->
<g id="node27" class="node">
<title>Node27</title>
<g id="a_node27"><a xlink:title=" ">
<polygon fill="white" stroke="#bfbfbf" points="919.2,-56.5 919.2,-75.5 966.2,-75.5 966.2,-56.5 919.2,-56.5"/>
<text text-anchor="middle" x="942.7" y="-63.5" font-family="Helvetica,sans-Serif" font-size="10.00">cmath</text>
</a>
</g>
</g>
<!-- Node1&#45;&gt;Node27 -->
<g id="edge67" class="edge">
<title>Node1&#45;&gt;Node27</title>
<path fill="none" stroke="midnightblue" d="M712.38,-463.76C811.6,-448.24 978.7,-413.81 978.7,-358 978.7,-358 978.7,-358 978.7,-177 978.7,-142.98 962.95,-105.85 952.29,-84.6"/>
<polygon fill="midnightblue" stroke="midnightblue" points="955.28,-82.77 947.55,-75.53 949.08,-86.01 955.28,-82.77"/>
</g>
<!-- Node3 -->
<g id="node3" class="node">
<title>Node3</title>
<g id="a_node3"><a xlink:href="_base_iterator_8hpp.html" target="_top" xlink:title=" ">
<polygon fill="white" stroke="black" points="580.2,-347.5 580.2,-366.5 677.2,-366.5 677.2,-347.5 580.2,-347.5"/>
<text text-anchor="middle" x="628.7" y="-354.5" font-family="Helvetica,sans-Serif" font-size="10.00">BaseIterator.hpp</text>
</a>
</g>
</g>
<!-- Node2&#45;&gt;Node3 -->
<g id="edge2" class="edge">
<title>Node2&#45;&gt;Node3</title>
<path fill="none" stroke="midnightblue" d="M469.65,-403.44C501.86,-394.24 553.23,-379.56 588.84,-369.39"/>
<polygon fill="midnightblue" stroke="midnightblue" points="590.24,-372.63 598.89,-366.52 588.31,-365.9 590.24,-372.63"/>
</g>
<!-- Node15 -->
<g id="node15" class="node">
<title>Node15</title>
<g id="a_node15"><a xlink:href="_tensor_8hpp.html" target="_top" xlink:title=" ">
<polygon fill="white" stroke="black" points="251.2,-168.5 251.2,-187.5 354.2,-187.5 354.2,-168.5 251.2,-168.5"/>
<text text-anchor="middle" x="302.7" y="-175.5" font-family="Helvetica,sans-Serif" font-size="10.00">armnn/Tensor.hpp</text>
</a>
</g>
</g>
<!-- Node2&#45;&gt;Node15 -->
<g id="edge65" class="edge">
<title>Node2&#45;&gt;Node15</title>
<path fill="none" stroke="midnightblue" d="M395.97,-411.67C324.35,-410.1 186.94,-402.43 156.7,-367 115.44,-318.66 118.95,-275.13 156.7,-224 176.02,-197.83 210.33,-186.41 240.84,-181.61"/>
<polygon fill="midnightblue" stroke="midnightblue" points="241.58,-185.04 251.01,-180.22 240.63,-178.1 241.58,-185.04"/>
</g>
<!-- Node19 -->
<g id="node19" class="node">
<title>Node19</title>
<g id="a_node19"><a xlink:href="_types_8hpp.html" target="_top" xlink:title=" ">
<polygon fill="white" stroke="black" points="388.2,-112.5 388.2,-131.5 453.2,-131.5 453.2,-112.5 388.2,-112.5"/>
<text text-anchor="middle" x="420.7" y="-119.5" font-family="Helvetica,sans-Serif" font-size="10.00">Types.hpp</text>
</a>
</g>
</g>
<!-- Node2&#45;&gt;Node19 -->
<g id="edge66" class="edge">
<title>Node2&#45;&gt;Node19</title>
<path fill="none" stroke="midnightblue" d="M395.71,-408.65C337.23,-401.55 235.9,-379.5 189.7,-311 168.08,-278.94 165.3,-254 189.7,-224 239.25,-163.07 294.69,-227.28 362.7,-188 382.87,-176.35 399.77,-155.19 410.02,-140.18"/>
<polygon fill="midnightblue" stroke="midnightblue" points="412.98,-142.05 415.52,-131.77 407.12,-138.22 412.98,-142.05"/>
</g>
<!-- Node4 -->
<g id="node4" class="node">
<title>Node4</title>
<g id="a_node4"><a xlink:href="_types_utils_8hpp.html" target="_top" xlink:title=" ">
<polygon fill="white" stroke="black" points="567.7,-224.5 567.7,-243.5 689.7,-243.5 689.7,-224.5 567.7,-224.5"/>
<text text-anchor="middle" x="628.7" y="-231.5" font-family="Helvetica,sans-Serif" font-size="10.00">armnn/TypesUtils.hpp</text>
</a>
</g>
</g>
<!-- Node3&#45;&gt;Node4 -->
<g id="edge3" class="edge">
<title>Node3&#45;&gt;Node4</title>
<path fill="none" stroke="midnightblue" d="M628.7,-347.3C628.7,-327.85 628.7,-280.49 628.7,-253.9"/>
<polygon fill="midnightblue" stroke="midnightblue" points="632.2,-253.62 628.7,-243.62 625.2,-253.62 632.2,-253.62"/>
</g>
<!-- Node28 -->
<g id="node28" class="node">
<title>Node28</title>
<g id="a_node28"><a xlink:href="_assert_8hpp.html" target="_top" xlink:title=" ">
<polygon fill="white" stroke="black" points="1006.7,-224.5 1006.7,-243.5 1140.7,-243.5 1140.7,-224.5 1006.7,-224.5"/>
<text text-anchor="middle" x="1073.7" y="-231.5" font-family="Helvetica,sans-Serif" font-size="10.00">armnn/utility/Assert.hpp</text>
</a>
</g>
</g>
<!-- Node3&#45;&gt;Node28 -->
<g id="edge40" class="edge">
<title>Node3&#45;&gt;Node28</title>
<path fill="none" stroke="midnightblue" d="M663.16,-347.46C698.69,-338.59 755.66,-324.19 804.7,-311 886.63,-288.95 982.13,-261.57 1034.44,-246.42"/>
<polygon fill="midnightblue" stroke="midnightblue" points="1035.68,-249.71 1044.31,-243.56 1033.73,-242.99 1035.68,-249.71"/>
</g>
<!-- Node30 -->
<g id="node30" class="node">
<title>Node30</title>
<g id="a_node30"><a xlink:href="_numeric_cast_8hpp.html" target="_top" xlink:title=" ">
<polygon fill="white" stroke="black" points="1051.2,-286 1051.2,-305 1218.2,-305 1218.2,-286 1051.2,-286"/>
<text text-anchor="middle" x="1134.7" y="-293" font-family="Helvetica,sans-Serif" font-size="10.00">armnn/utility/NumericCast.hpp</text>
</a>
</g>
</g>
<!-- Node3&#45;&gt;Node30 -->
<g id="edge42" class="edge">
<title>Node3&#45;&gt;Node30</title>
<path fill="none" stroke="midnightblue" d="M677.21,-350.29C763.72,-340.12 945.49,-318.75 1052.03,-306.22"/>
<polygon fill="midnightblue" stroke="midnightblue" points="1052.57,-309.68 1062.09,-305.04 1051.75,-302.73 1052.57,-309.68"/>
</g>
<!-- Node32 -->
<g id="node32" class="node">
<title>Node32</title>
<g id="a_node32"><a xlink:href="_floating_point_converter_8hpp.html" target="_top" xlink:title=" ">
<polygon fill="white" stroke="black" points="198.7,-280.5 198.7,-310.5 336.7,-310.5 336.7,-280.5 198.7,-280.5"/>
<text text-anchor="start" x="206.7" y="-298.5" font-family="Helvetica,sans-Serif" font-size="10.00">armnnUtils/FloatingPoint</text>
<text text-anchor="middle" x="267.7" y="-287.5" font-family="Helvetica,sans-Serif" font-size="10.00">Converter.hpp</text>
</a>
</g>
</g>
<!-- Node3&#45;&gt;Node32 -->
<g id="edge46" class="edge">
<title>Node3&#45;&gt;Node32</title>
<path fill="none" stroke="midnightblue" d="M580.06,-348.66C525.67,-340.37 434.69,-326.23 346.86,-311.18"/>
<polygon fill="midnightblue" stroke="midnightblue" points="347.45,-307.73 337,-309.48 346.27,-314.63 347.45,-307.73"/>
</g>
<!-- Node34 -->
<g id="node34" class="node">
<title>Node34</title>
<g id="a_node34"><a xlink:href="_tensor_utils_8hpp.html" target="_top" xlink:title=" ">
<polygon fill="white" stroke="black" points="355.2,-286 355.2,-305 504.2,-305 504.2,-286 355.2,-286"/>
<text text-anchor="middle" x="429.7" y="-293" font-family="Helvetica,sans-Serif" font-size="10.00">armnnUtils/TensorUtils.hpp</text>
</a>
</g>
</g>
<!-- Node3&#45;&gt;Node34 -->
<g id="edge48" class="edge">
<title>Node3&#45;&gt;Node34</title>
<path fill="none" stroke="midnightblue" d="M600.19,-347.48C565.46,-337.09 506.66,-319.51 468.01,-307.95"/>
<polygon fill="midnightblue" stroke="midnightblue" points="468.74,-304.52 458.16,-305.01 466.73,-311.23 468.74,-304.52"/>
</g>
<!-- Node35 -->
<g id="node35" class="node">
<title>Node35</title>
<g id="a_node35"><a xlink:href="_resolve_type_8hpp.html" target="_top" xlink:title=" ">
<polygon fill="white" stroke="black" points="813.2,-168.5 813.2,-187.5 912.2,-187.5 912.2,-168.5 813.2,-168.5"/>
<text text-anchor="middle" x="862.7" y="-175.5" font-family="Helvetica,sans-Serif" font-size="10.00">ResolveType.hpp</text>
</a>
</g>
</g>
<!-- Node3&#45;&gt;Node35 -->
<g id="edge55" class="edge">
<title>Node3&#45;&gt;Node35</title>
<path fill="none" stroke="midnightblue" d="M639.98,-347.46C677.12,-319.37 795.83,-229.58 843.05,-193.86"/>
<polygon fill="midnightblue" stroke="midnightblue" points="845.39,-196.48 851.25,-187.66 841.16,-190.9 845.39,-196.48"/>
</g>
<!-- Node5 -->
<g id="node5" class="node">
<title>Node5</title>
<g id="a_node5"><a xlink:href="_backend_id_8hpp.html" target="_top" xlink:title=" ">
<polygon fill="white" stroke="black" points="524.7,-56.5 524.7,-75.5 646.7,-75.5 646.7,-56.5 524.7,-56.5"/>
<text text-anchor="middle" x="585.7" y="-63.5" font-family="Helvetica,sans-Serif" font-size="10.00">armnn/BackendId.hpp</text>
</a>
</g>
</g>
<!-- Node4&#45;&gt;Node5 -->
<g id="edge4" class="edge">
<title>Node4&#45;&gt;Node5</title>
<path fill="none" stroke="midnightblue" d="M624.8,-224.29C617.27,-207.05 600.75,-167.2 592.7,-132 589.17,-116.6 587.41,-98.72 586.54,-85.62"/>
<polygon fill="midnightblue" stroke="midnightblue" points="590.03,-85.31 585.98,-75.52 583.04,-85.7 590.03,-85.31"/>
</g>
<!-- Node7 -->
<g id="node7" class="node">
<title>Node7</title>
<g id="a_node7"><a xlink:title=" ">
<polygon fill="white" stroke="#bfbfbf" points="773.2,-0.5 773.2,-19.5 830.2,-19.5 830.2,-0.5 773.2,-0.5"/>
<text text-anchor="middle" x="801.7" y="-7.5" font-family="Helvetica,sans-Serif" font-size="10.00">ostream</text>
</a>
</g>
</g>
<!-- Node4&#45;&gt;Node7 -->
<g id="edge37" class="edge">
<title>Node4&#45;&gt;Node7</title>
<path fill="none" stroke="midnightblue" d="M648.23,-224.36C664.11,-216.6 686.31,-203.98 701.7,-188 748.74,-139.13 781.51,-63.87 794.93,-29.39"/>
<polygon fill="midnightblue" stroke="midnightblue" points="798.32,-30.31 798.59,-19.72 791.78,-27.83 798.32,-30.31"/>
</g>
<!-- Node8 -->
<g id="node8" class="node">
<title>Node8</title>
<g id="a_node8"><a xlink:title=" ">
<polygon fill="white" stroke="#bfbfbf" points="722.7,-0.5 722.7,-19.5 754.7,-19.5 754.7,-0.5 722.7,-0.5"/>
<text text-anchor="middle" x="738.7" y="-7.5" font-family="Helvetica,sans-Serif" font-size="10.00">set</text>
</a>
</g>
</g>
<!-- Node4&#45;&gt;Node8 -->
<g id="edge38" class="edge">
<title>Node4&#45;&gt;Node8</title>
<path fill="none" stroke="midnightblue" d="M642.03,-224.42C653.81,-216.27 670.77,-203.04 681.7,-188 718.01,-138.02 731.88,-63.85 736.58,-29.59"/>
<polygon fill="midnightblue" stroke="midnightblue" points="740.06,-29.95 737.83,-19.6 733.11,-29.08 740.06,-29.95"/>
</g>
<!-- Node12 -->
<g id="node12" class="node">
<title>Node12</title>
<g id="a_node12"><a xlink:href="_exceptions_8hpp.html" target="_top" xlink:title=" ">
<polygon fill="white" stroke="black" points="381.2,-56.5 381.2,-75.5 506.2,-75.5 506.2,-56.5 381.2,-56.5"/>
<text text-anchor="middle" x="443.7" y="-63.5" font-family="Helvetica,sans-Serif" font-size="10.00">armnn/Exceptions.hpp</text>
</a>
</g>
</g>
<!-- Node4&#45;&gt;Node12 -->
<g id="edge11" class="edge">
<title>Node4&#45;&gt;Node12</title>
<path fill="none" stroke="midnightblue" d="M619.01,-224.31C589.29,-197.64 499.1,-116.72 460.99,-82.52"/>
<polygon fill="midnightblue" stroke="midnightblue" points="463.07,-79.68 453.29,-75.61 458.39,-84.89 463.07,-79.68"/>
</g>
<!-- Node4&#45;&gt;Node15 -->
<g id="edge15" class="edge">
<title>Node4&#45;&gt;Node15</title>
<path fill="none" stroke="midnightblue" d="M577.04,-224.44C519.22,-214.87 425.58,-199.36 364.07,-189.17"/>
<polygon fill="midnightblue" stroke="midnightblue" points="364.55,-185.7 354.11,-187.52 363.41,-192.6 364.55,-185.7"/>
</g>
<!-- Node18 -->
<g id="node18" class="node">
<title>Node18</title>
<g id="a_node18"><a xlink:title=" ">
<polygon fill="white" stroke="#bfbfbf" points="1079.2,-56.5 1079.2,-75.5 1148.2,-75.5 1148.2,-56.5 1079.2,-56.5"/>
<text text-anchor="middle" x="1113.7" y="-63.5" font-family="Helvetica,sans-Serif" font-size="10.00">type_traits</text>
</a>
</g>
</g>
<!-- Node4&#45;&gt;Node18 -->
<g id="edge39" class="edge">
<title>Node4&#45;&gt;Node18</title>
<path fill="none" stroke="midnightblue" d="M689.95,-228.89C753.76,-223.53 856.16,-211.86 941.7,-188 1003.08,-170.88 1025.38,-173.55 1073.7,-132 1088.57,-119.21 1099.62,-99.47 1106.29,-85.1"/>
<polygon fill="midnightblue" stroke="midnightblue" points="1109.58,-86.33 1110.37,-75.76 1103.16,-83.52 1109.58,-86.33"/>
</g>
<!-- Node4&#45;&gt;Node19 -->
<g id="edge34" class="edge">
<title>Node4&#45;&gt;Node19</title>
<path fill="none" stroke="midnightblue" d="M579.74,-224.44C550.07,-217.72 512.36,-206.35 482.7,-188 462.49,-175.5 444.37,-154.85 433.02,-140.18"/>
<polygon fill="midnightblue" stroke="midnightblue" points="435.65,-137.86 426.86,-131.95 430.05,-142.06 435.65,-137.86"/>
</g>
<!-- Node22 -->
<g id="node22" class="node">
<title>Node22</title>
<g id="a_node22"><a xlink:title=" ">
<polygon fill="white" stroke="#bfbfbf" points="665.2,-56.5 665.2,-75.5 718.2,-75.5 718.2,-56.5 665.2,-56.5"/>
<text text-anchor="middle" x="691.7" y="-63.5" font-family="Helvetica,sans-Serif" font-size="10.00">stdint.h</text>
</a>
</g>
</g>
<!-- Node4&#45;&gt;Node22 -->
<g id="edge35" class="edge">
<title>Node4&#45;&gt;Node22</title>
<path fill="none" stroke="midnightblue" d="M636.14,-224.29C649.82,-207.67 678.56,-169.72 689.7,-132 694.15,-116.93 694.35,-99.02 693.61,-85.83"/>
<polygon fill="midnightblue" stroke="midnightblue" points="697.08,-85.32 692.79,-75.63 690.1,-85.88 697.08,-85.32"/>
</g>
<!-- Node4&#45;&gt;Node27 -->
<g id="edge36" class="edge">
<title>Node4&#45;&gt;Node27</title>
<path fill="none" stroke="midnightblue" d="M689.79,-231.76C765.86,-228.87 889.73,-219.35 921.7,-188 949.14,-161.09 948.35,-112.09 945.48,-85.44"/>
<polygon fill="midnightblue" stroke="midnightblue" points="948.95,-84.99 944.2,-75.52 942.01,-85.89 948.95,-84.99"/>
</g>
<!-- Node6 -->
<g id="node6" class="node">
<title>Node6</title>
<g id="a_node6"><a xlink:title=" ">
<polygon fill="white" stroke="#bfbfbf" points="646.7,-0.5 646.7,-19.5 704.7,-19.5 704.7,-0.5 646.7,-0.5"/>
<text text-anchor="middle" x="675.7" y="-7.5" font-family="Helvetica,sans-Serif" font-size="10.00">memory</text>
</a>
</g>
</g>
<!-- Node5&#45;&gt;Node6 -->
<g id="edge5" class="edge">
<title>Node5&#45;&gt;Node6</title>
<path fill="none" stroke="midnightblue" d="M600.16,-56.32C614.2,-47.9 635.75,-34.97 652.24,-25.07"/>
<polygon fill="midnightblue" stroke="midnightblue" points="654.5,-27.8 661.27,-19.65 650.9,-21.8 654.5,-27.8"/>
</g>
<!-- Node5&#45;&gt;Node7 -->
<g id="edge6" class="edge">
<title>Node5&#45;&gt;Node7</title>
<path fill="none" stroke="midnightblue" d="M619.92,-56.44C658.96,-46.68 722.64,-30.76 763.33,-20.59"/>
<polygon fill="midnightblue" stroke="midnightblue" points="764.3,-23.96 773.15,-18.14 762.6,-17.17 764.3,-23.96"/>
</g>
<!-- Node5&#45;&gt;Node8 -->
<g id="edge7" class="edge">
<title>Node5&#45;&gt;Node8</title>
<path fill="none" stroke="midnightblue" d="M610.26,-56.43C634.17,-48.07 671.8,-34.88 712.9,-20.27"/>
<polygon fill="midnightblue" stroke="midnightblue" points="714.32,-23.48 722.57,-16.83 711.97,-16.88 714.32,-23.48"/>
</g>
<!-- Node9 -->
<g id="node9" class="node">
<title>Node9</title>
<g id="a_node9"><a xlink:title=" ">
<polygon fill="white" stroke="#bfbfbf" points="480.7,-0.5 480.7,-19.5 524.7,-19.5 524.7,-0.5 480.7,-0.5"/>
<text text-anchor="middle" x="502.7" y="-7.5" font-family="Helvetica,sans-Serif" font-size="10.00">string</text>
</a>
</g>
</g>
<!-- Node5&#45;&gt;Node9 -->
<g id="edge8" class="edge">
<title>Node5&#45;&gt;Node9</title>
<path fill="none" stroke="midnightblue" d="M572.36,-56.32C559.54,-47.98 539.91,-35.21 524.76,-25.35"/>
<polygon fill="midnightblue" stroke="midnightblue" points="526.29,-22.17 516,-19.65 522.47,-28.04 526.29,-22.17"/>
</g>
<!-- Node10 -->
<g id="node10" class="node">
<title>Node10</title>
<g id="a_node10"><a xlink:title=" ">
<polygon fill="white" stroke="#bfbfbf" points="542.7,-0.5 542.7,-19.5 628.7,-19.5 628.7,-0.5 542.7,-0.5"/>
<text text-anchor="middle" x="585.7" y="-7.5" font-family="Helvetica,sans-Serif" font-size="10.00">unordered_set</text>
</a>
</g>
</g>
<!-- Node5&#45;&gt;Node10 -->
<g id="edge9" class="edge">
<title>Node5&#45;&gt;Node10</title>
<path fill="none" stroke="midnightblue" d="M585.7,-56.08C585.7,-49.01 585.7,-38.86 585.7,-29.99"/>
<polygon fill="midnightblue" stroke="midnightblue" points="589.2,-29.75 585.7,-19.75 582.2,-29.75 589.2,-29.75"/>
</g>
<!-- Node11 -->
<g id="node11" class="node">
<title>Node11</title>
<g id="a_node11"><a xlink:title=" ">
<polygon fill="white" stroke="#bfbfbf" points="6.2,-0.5 6.2,-19.5 53.2,-19.5 53.2,-0.5 6.2,-0.5"/>
<text text-anchor="middle" x="29.7" y="-7.5" font-family="Helvetica,sans-Serif" font-size="10.00">vector</text>
</a>
</g>
</g>
<!-- Node5&#45;&gt;Node11 -->
<g id="edge10" class="edge">
<title>Node5&#45;&gt;Node11</title>
<path fill="none" stroke="midnightblue" d="M524.52,-57.11C521.2,-56.73 517.91,-56.35 514.7,-56 345.7,-37.45 143.02,-20.28 63.79,-13.77"/>
<polygon fill="midnightblue" stroke="midnightblue" points="63.7,-10.25 53.45,-12.92 63.13,-17.22 63.7,-10.25"/>
</g>
<!-- Node12&#45;&gt;Node9 -->
<g id="edge14" class="edge">
<title>Node12&#45;&gt;Node9</title>
<path fill="none" stroke="midnightblue" d="M453.18,-56.32C461.9,-48.34 475.04,-36.31 485.6,-26.65"/>
<polygon fill="midnightblue" stroke="midnightblue" points="488.03,-29.17 493.05,-19.83 483.31,-24 488.03,-29.17"/>
</g>
<!-- Node13 -->
<g id="node13" class="node">
<title>Node13</title>
<g id="a_node13"><a xlink:title=" ">
<polygon fill="white" stroke="#bfbfbf" points="406.7,-0.5 406.7,-19.5 462.7,-19.5 462.7,-0.5 406.7,-0.5"/>
<text text-anchor="middle" x="434.7" y="-7.5" font-family="Helvetica,sans-Serif" font-size="10.00">sstream</text>
</a>
</g>
</g>
<!-- Node12&#45;&gt;Node13 -->
<g id="edge12" class="edge">
<title>Node12&#45;&gt;Node13</title>
<path fill="none" stroke="midnightblue" d="M442.21,-56.08C441.02,-48.93 439.3,-38.64 437.81,-29.69"/>
<polygon fill="midnightblue" stroke="midnightblue" points="441.25,-29.04 436.16,-19.75 434.35,-30.19 441.25,-29.04"/>
</g>
<!-- Node14 -->
<g id="node14" class="node">
<title>Node14</title>
<g id="a_node14"><a xlink:title=" ">
<polygon fill="white" stroke="#bfbfbf" points="323.2,-0.5 323.2,-19.5 388.2,-19.5 388.2,-0.5 323.2,-0.5"/>
<text text-anchor="middle" x="355.7" y="-7.5" font-family="Helvetica,sans-Serif" font-size="10.00">stdexcept</text>
</a>
</g>
</g>
<!-- Node12&#45;&gt;Node14 -->
<g id="edge13" class="edge">
<title>Node12&#45;&gt;Node14</title>
<path fill="none" stroke="midnightblue" d="M429.56,-56.32C415.83,-47.9 394.76,-34.97 378.63,-25.07"/>
<polygon fill="midnightblue" stroke="midnightblue" points="380.15,-21.9 369.8,-19.65 376.49,-27.87 380.15,-21.9"/>
</g>
<!-- Node15&#45;&gt;Node11 -->
<g id="edge32" class="edge">
<title>Node15&#45;&gt;Node11</title>
<path fill="none" stroke="midnightblue" d="M270.95,-168.39C209.7,-151.17 78.64,-111.12 48.7,-76 37.62,-63.01 33,-43.85 31.07,-29.69"/>
<polygon fill="midnightblue" stroke="midnightblue" points="34.54,-29.21 30.03,-19.63 27.58,-29.93 34.54,-29.21"/>
</g>
<!-- Node15&#45;&gt;Node12 -->
<g id="edge16" class="edge">
<title>Node15&#45;&gt;Node12</title>
<path fill="none" stroke="midnightblue" d="M312.27,-168.26C326.43,-155.46 353.94,-131.08 378.7,-112 392.69,-101.21 409.05,-89.89 421.86,-81.31"/>
<polygon fill="midnightblue" stroke="midnightblue" points="424.08,-84.03 430.47,-75.58 420.2,-78.2 424.08,-84.03"/>
</g>
<!-- Node16 -->
<g id="node16" class="node">
<title>Node16</title>
<g id="a_node16"><a xlink:href="_optional_8hpp.html" target="_top" xlink:title=" ">
<polygon fill="white" stroke="black" points="601.2,-112.5 601.2,-131.5 680.2,-131.5 680.2,-112.5 601.2,-112.5"/>
<text text-anchor="middle" x="640.7" y="-119.5" font-family="Helvetica,sans-Serif" font-size="10.00">Optional.hpp</text>
</a>
</g>
</g>
<!-- Node15&#45;&gt;Node16 -->
<g id="edge17" class="edge">
<title>Node15&#45;&gt;Node16</title>
<path fill="none" stroke="midnightblue" d="M354.28,-168.95C411.2,-160.04 505.52,-145.2 586.7,-132 588.16,-131.76 589.65,-131.52 591.15,-131.27"/>
<polygon fill="midnightblue" stroke="midnightblue" points="591.89,-134.7 601.18,-129.62 590.75,-127.79 591.89,-134.7"/>
</g>
<!-- Node15&#45;&gt;Node19 -->
<g id="edge21" class="edge">
<title>Node15&#45;&gt;Node19</title>
<path fill="none" stroke="midnightblue" d="M321.4,-168.44C340.64,-159.64 370.85,-145.81 392.9,-135.72"/>
<polygon fill="midnightblue" stroke="midnightblue" points="394.45,-138.86 402.09,-131.52 391.54,-132.5 394.45,-138.86"/>
</g>
<!-- Node20 -->
<g id="node20" class="node">
<title>Node20</title>
<g id="a_node20"><a xlink:title=" ">
<polygon fill="white" stroke="#bfbfbf" points="57.7,-56.5 57.7,-75.5 99.7,-75.5 99.7,-56.5 57.7,-56.5"/>
<text text-anchor="middle" x="78.7" y="-63.5" font-family="Helvetica,sans-Serif" font-size="10.00">array</text>
</a>
</g>
</g>
<!-- Node15&#45;&gt;Node20 -->
<g id="edge30" class="edge">
<title>Node15&#45;&gt;Node20</title>
<path fill="none" stroke="midnightblue" d="M285.12,-168.37C246.03,-149.17 151.68,-102.84 105.32,-80.07"/>
<polygon fill="midnightblue" stroke="midnightblue" points="106.71,-76.86 96.19,-75.59 103.63,-83.14 106.71,-76.86"/>
</g>
<!-- Node15&#45;&gt;Node22 -->
<g id="edge29" class="edge">
<title>Node15&#45;&gt;Node22</title>
<path fill="none" stroke="midnightblue" d="M332.9,-168.46C403.54,-148.48 579.33,-98.78 655.52,-77.23"/>
<polygon fill="midnightblue" stroke="midnightblue" points="656.49,-80.59 665.16,-74.5 654.59,-73.86 656.49,-80.59"/>
</g>
<!-- Node25 -->
<g id="node25" class="node">
<title>Node25</title>
<g id="a_node25"><a xlink:title=" ">
<polygon fill="white" stroke="#bfbfbf" points="248.2,-112.5 248.2,-131.5 331.2,-131.5 331.2,-112.5 248.2,-112.5"/>
<text text-anchor="middle" x="289.7" y="-119.5" font-family="Helvetica,sans-Serif" font-size="10.00">initializer_list</text>
</a>
</g>
</g>
<!-- Node15&#45;&gt;Node25 -->
<g id="edge31" class="edge">
<title>Node15&#45;&gt;Node25</title>
<path fill="none" stroke="midnightblue" d="M300.55,-168.08C298.83,-160.93 296.35,-150.64 294.2,-141.69"/>
<polygon fill="midnightblue" stroke="midnightblue" points="297.55,-140.65 291.8,-131.75 290.74,-142.29 297.55,-140.65"/>
</g>
<!-- Node26 -->
<g id="node26" class="node">
<title>Node26</title>
<g id="a_node26"><a xlink:title=" ">
<polygon fill="white" stroke="#bfbfbf" points="20.2,-112.5 20.2,-131.5 65.2,-131.5 65.2,-112.5 20.2,-112.5"/>
<text text-anchor="middle" x="42.7" y="-119.5" font-family="Helvetica,sans-Serif" font-size="10.00">utility</text>
</a>
</g>
</g>
<!-- Node15&#45;&gt;Node26 -->
<g id="edge33" class="edge">
<title>Node15&#45;&gt;Node26</title>
<path fill="none" stroke="midnightblue" d="M257.74,-168.47C212.62,-159.78 141.19,-145.68 79.7,-132 78.25,-131.68 76.76,-131.34 75.27,-131"/>
<polygon fill="midnightblue" stroke="midnightblue" points="75.9,-127.55 65.36,-128.66 74.29,-134.36 75.9,-127.55"/>
</g>
<!-- Node16&#45;&gt;Node12 -->
<g id="edge18" class="edge">
<title>Node16&#45;&gt;Node12</title>
<path fill="none" stroke="midnightblue" d="M609.48,-112.44C575.76,-103.2 521.9,-88.44 484.77,-78.26"/>
<polygon fill="midnightblue" stroke="midnightblue" points="485.34,-74.78 474.77,-75.52 483.49,-81.54 485.34,-74.78"/>
</g>
<!-- Node17 -->
<g id="node17" class="node">
<title>Node17</title>
<g id="a_node17"><a xlink:title=" ">
<polygon fill="white" stroke="#bfbfbf" points="812.7,-56.5 812.7,-75.5 862.7,-75.5 862.7,-56.5 812.7,-56.5"/>
<text text-anchor="middle" x="837.7" y="-63.5" font-family="Helvetica,sans-Serif" font-size="10.00">cstring</text>
</a>
</g>
</g>
<!-- Node16&#45;&gt;Node17 -->
<g id="edge19" class="edge">
<title>Node16&#45;&gt;Node17</title>
<path fill="none" stroke="midnightblue" d="M671.91,-112.44C707.51,-102.68 765.58,-86.77 802.69,-76.6"/>
<polygon fill="midnightblue" stroke="midnightblue" points="803.85,-79.91 812.57,-73.89 802,-73.16 803.85,-79.91"/>
</g>
<!-- Node16&#45;&gt;Node18 -->
<g id="edge20" class="edge">
<title>Node16&#45;&gt;Node18</title>
<path fill="none" stroke="midnightblue" d="M680.3,-118.21C754.59,-112.7 920.11,-99.01 1068.8,-76.16"/>
<polygon fill="midnightblue" stroke="midnightblue" points="1069.68,-79.57 1079.02,-74.58 1068.6,-72.65 1069.68,-79.57"/>
</g>
<!-- Node19&#45;&gt;Node5 -->
<g id="edge26" class="edge">
<title>Node19&#45;&gt;Node5</title>
<path fill="none" stroke="midnightblue" d="M446.84,-112.44C474.72,-103.32 519.05,-88.81 550.1,-78.65"/>
<polygon fill="midnightblue" stroke="midnightblue" points="551.26,-81.95 559.68,-75.52 549.08,-75.3 551.26,-81.95"/>
</g>
<!-- Node19&#45;&gt;Node12 -->
<g id="edge27" class="edge">
<title>Node19&#45;&gt;Node12</title>
<path fill="none" stroke="midnightblue" d="M424.5,-112.08C427.61,-104.77 432.12,-94.18 435.99,-85.1"/>
<polygon fill="midnightblue" stroke="midnightblue" points="439.27,-86.32 439.97,-75.75 432.83,-83.58 439.27,-86.32"/>
</g>
<!-- Node19&#45;&gt;Node20 -->
<g id="edge22" class="edge">
<title>Node19&#45;&gt;Node20</title>
<path fill="none" stroke="midnightblue" d="M388.06,-116.92C322.8,-108.66 177.39,-89.74 110.02,-75.95"/>
<polygon fill="midnightblue" stroke="midnightblue" points="110.41,-72.46 99.9,-73.78 108.95,-79.3 110.41,-72.46"/>
</g>
<!-- Node21 -->
<g id="node21" class="node">
<title>Node21</title>
<g id="a_node21"><a xlink:title=" ">
<polygon fill="white" stroke="#bfbfbf" points="298.2,-56.5 298.2,-75.5 363.2,-75.5 363.2,-56.5 298.2,-56.5"/>
<text text-anchor="middle" x="330.7" y="-63.5" font-family="Helvetica,sans-Serif" font-size="10.00">functional</text>
</a>
</g>
</g>
<!-- Node19&#45;&gt;Node21 -->
<g id="edge23" class="edge">
<title>Node19&#45;&gt;Node21</title>
<path fill="none" stroke="midnightblue" d="M406.24,-112.32C392.2,-103.9 370.65,-90.97 354.15,-81.07"/>
<polygon fill="midnightblue" stroke="midnightblue" points="355.5,-77.8 345.12,-75.65 351.9,-83.8 355.5,-77.8"/>
</g>
<!-- Node19&#45;&gt;Node22 -->
<g id="edge24" class="edge">
<title>Node19&#45;&gt;Node22</title>
<path fill="none" stroke="midnightblue" d="M453.51,-115.31C497.18,-107.62 577,-93.09 655,-76.05"/>
<polygon fill="midnightblue" stroke="midnightblue" points="655.99,-79.42 665,-73.85 654.48,-72.58 655.99,-79.42"/>
</g>
<!-- Node23 -->
<g id="node23" class="node">
<title>Node23</title>
<g id="a_node23"><a xlink:title=" ">
<polygon fill="white" stroke="#bfbfbf" points="117.7,-56.5 117.7,-75.5 167.7,-75.5 167.7,-56.5 117.7,-56.5"/>
<text text-anchor="middle" x="142.7" y="-63.5" font-family="Helvetica,sans-Serif" font-size="10.00">chrono</text>
</a>
</g>
</g>
<!-- Node19&#45;&gt;Node23 -->
<g id="edge25" class="edge">
<title>Node19&#45;&gt;Node23</title>
<path fill="none" stroke="midnightblue" d="M388.17,-115.81C343.08,-108.45 258.85,-94.05 177.77,-76.11"/>
<polygon fill="midnightblue" stroke="midnightblue" points="178.42,-72.67 167.9,-73.9 176.89,-79.5 178.42,-72.67"/>
</g>
<!-- Node24 -->
<g id="node24" class="node">
<title>Node24</title>
<g id="a_node24"><a xlink:href="_deprecated_8hpp.html" target="_top" xlink:title=" ">
<polygon fill="white" stroke="black" points="185.7,-56.5 185.7,-75.5 279.7,-75.5 279.7,-56.5 185.7,-56.5"/>
<text text-anchor="middle" x="232.7" y="-63.5" font-family="Helvetica,sans-Serif" font-size="10.00">Deprecated.hpp</text>
</a>
</g>
</g>
<!-- Node19&#45;&gt;Node24 -->
<g id="edge28" class="edge">
<title>Node19&#45;&gt;Node24</title>
<path fill="none" stroke="midnightblue" d="M390.91,-112.44C358.87,-103.24 307.76,-88.56 272.34,-78.39"/>
<polygon fill="midnightblue" stroke="midnightblue" points="272.92,-74.91 262.35,-75.52 270.99,-81.64 272.92,-74.91"/>
</g>
<!-- Node29 -->
<g id="node29" class="node">
<title>Node29</title>
<g id="a_node29"><a xlink:title=" ">
<polygon fill="white" stroke="#bfbfbf" points="1120.7,-168.5 1120.7,-187.5 1172.7,-187.5 1172.7,-168.5 1120.7,-168.5"/>
<text text-anchor="middle" x="1146.7" y="-175.5" font-family="Helvetica,sans-Serif" font-size="10.00">cassert</text>
</a>
</g>
</g>
<!-- Node28&#45;&gt;Node29 -->
<g id="edge41" class="edge">
<title>Node28&#45;&gt;Node29</title>
<path fill="none" stroke="midnightblue" d="M1085.43,-224.32C1096.53,-216.11 1113.44,-203.6 1126.68,-193.81"/>
<polygon fill="midnightblue" stroke="midnightblue" points="1128.8,-196.59 1134.76,-187.83 1124.63,-190.97 1128.8,-196.59"/>
</g>
<!-- Node30&#45;&gt;Node18 -->
<g id="edge44" class="edge">
<title>Node30&#45;&gt;Node18</title>
<path fill="none" stroke="midnightblue" d="M1158.99,-285.92C1177.12,-278.07 1200.61,-264.54 1211.7,-244 1215.92,-236.18 1213.86,-232.62 1211.7,-224 1197.23,-166.35 1152.5,-110.04 1128.8,-83.23"/>
<polygon fill="midnightblue" stroke="midnightblue" points="1131.21,-80.68 1121.91,-75.6 1126.01,-85.37 1131.21,-80.68"/>
</g>
<!-- Node30&#45;&gt;Node28 -->
<g id="edge43" class="edge">
<title>Node30&#45;&gt;Node28</title>
<path fill="none" stroke="midnightblue" d="M1125.96,-285.98C1116.54,-276.78 1101.33,-261.96 1089.75,-250.66"/>
<polygon fill="midnightblue" stroke="midnightblue" points="1092.02,-247.99 1082.42,-243.51 1087.14,-253 1092.02,-247.99"/>
</g>
<!-- Node31 -->
<g id="node31" class="node">
<title>Node31</title>
<g id="a_node31"><a xlink:title=" ">
<polygon fill="white" stroke="#bfbfbf" points="1158.7,-224.5 1158.7,-243.5 1202.7,-243.5 1202.7,-224.5 1158.7,-224.5"/>
<text text-anchor="middle" x="1180.7" y="-231.5" font-family="Helvetica,sans-Serif" font-size="10.00">limits</text>
</a>
</g>
</g>
<!-- Node30&#45;&gt;Node31 -->
<g id="edge45" class="edge">
<title>Node30&#45;&gt;Node31</title>
<path fill="none" stroke="midnightblue" d="M1141.29,-285.98C1148.19,-277.05 1159.2,-262.81 1167.83,-251.64"/>
<polygon fill="midnightblue" stroke="midnightblue" points="1170.77,-253.56 1174.12,-243.51 1165.23,-249.28 1170.77,-253.56"/>
</g>
<!-- Node33 -->
<g id="node33" class="node">
<title>Node33</title>
<g id="a_node33"><a xlink:title=" ">
<polygon fill="white" stroke="#bfbfbf" points="199.2,-224.5 199.2,-243.5 252.2,-243.5 252.2,-224.5 199.2,-224.5"/>
<text text-anchor="middle" x="225.7" y="-231.5" font-family="Helvetica,sans-Serif" font-size="10.00">cstddef</text>
</a>
</g>
</g>
<!-- Node32&#45;&gt;Node33 -->
<g id="edge47" class="edge">
<title>Node32&#45;&gt;Node33</title>
<path fill="none" stroke="midnightblue" d="M257.74,-280.4C251.7,-271.84 243.96,-260.87 237.6,-251.86"/>
<polygon fill="midnightblue" stroke="midnightblue" points="240.44,-249.81 231.81,-243.66 234.72,-253.85 240.44,-249.81"/>
</g>
<!-- Node34&#45;&gt;Node4 -->
<g id="edge49" class="edge">
<title>Node34&#45;&gt;Node4</title>
<path fill="none" stroke="midnightblue" d="M458.21,-285.98C492.94,-275.59 551.73,-258.01 590.39,-246.45"/>
<polygon fill="midnightblue" stroke="midnightblue" points="591.66,-249.73 600.24,-243.51 589.66,-243.02 591.66,-249.73"/>
</g>
<!-- Node34&#45;&gt;Node11 -->
<g id="edge54" class="edge">
<title>Node34&#45;&gt;Node11</title>
<path fill="none" stroke="midnightblue" d="M402.75,-285.96C375.08,-276.84 331.06,-261.34 294.7,-244 278.87,-236.46 276.58,-231.42 260.7,-224 153.43,-173.89 78.1,-229.34 10.7,-132 -11.01,-100.66 7.01,-53.86 19.76,-28.64"/>
<polygon fill="midnightblue" stroke="midnightblue" points="22.99,-30.01 24.61,-19.53 16.82,-26.71 22.99,-30.01"/>
</g>
<!-- Node34&#45;&gt;Node15 -->
<g id="edge50" class="edge">
<title>Node34&#45;&gt;Node15</title>
<path fill="none" stroke="midnightblue" d="M420.15,-285.82C398.82,-266.42 347.04,-219.33 319.92,-194.66"/>
<polygon fill="midnightblue" stroke="midnightblue" points="322.11,-191.92 312.35,-187.78 317.4,-197.1 322.11,-191.92"/>
</g>
<!-- Node34&#45;&gt;Node19 -->
<g id="edge51" class="edge">
<title>Node34&#45;&gt;Node19</title>
<path fill="none" stroke="midnightblue" d="M429.24,-285.76C427.84,-259.15 423.62,-178.71 421.69,-141.84"/>
<polygon fill="midnightblue" stroke="midnightblue" points="425.16,-141.32 421.14,-131.52 418.17,-141.69 425.16,-141.32"/>
</g>
<!-- Node34&#45;&gt;Node26 -->
<g id="edge53" class="edge">
<title>Node34&#45;&gt;Node26</title>
<path fill="none" stroke="midnightblue" d="M414.56,-285.96C389.85,-272.16 339.14,-244.45 294.7,-224 217.15,-188.32 123.19,-152.57 74.86,-134.71"/>
<polygon fill="midnightblue" stroke="midnightblue" points="75.86,-131.35 65.26,-131.18 73.44,-137.92 75.86,-131.35"/>
</g>
<!-- Node34&#45;&gt;Node34 -->
<g id="edge52" class="edge">
<title>Node34&#45;&gt;Node34</title>
<path fill="none" stroke="midnightblue" d="M463.85,-305.03C492.38,-309.11 522.2,-305.93 522.2,-295.5 522.2,-286.29 498.96,-282.74 473.89,-284.83"/>
<polygon fill="midnightblue" stroke="midnightblue" points="473.4,-281.37 463.85,-285.97 474.18,-288.32 473.4,-281.37"/>
</g>
<!-- Node35&#45;&gt;Node19 -->
<g id="edge56" class="edge">
<title>Node35&#45;&gt;Node19</title>
<path fill="none" stroke="midnightblue" d="M812.85,-170.91C725.28,-160.21 545.3,-138.22 463.2,-128.19"/>
<polygon fill="midnightblue" stroke="midnightblue" points="463.57,-124.71 453.22,-126.97 462.73,-131.66 463.57,-124.71"/>
</g>
<!-- Node36 -->
<g id="node36" class="node">
<title>Node36</title>
<g id="a_node36"><a xlink:href="_b_float16_8hpp.html" target="_top" xlink:title=" ">
<polygon fill="white" stroke="black" points="822.2,-112.5 822.2,-131.5 903.2,-131.5 903.2,-112.5 822.2,-112.5"/>
<text text-anchor="middle" x="862.7" y="-119.5" font-family="Helvetica,sans-Serif" font-size="10.00">BFloat16.hpp</text>
</a>
</g>
</g>
<!-- Node35&#45;&gt;Node36 -->
<g id="edge57" class="edge">
<title>Node35&#45;&gt;Node36</title>
<path fill="none" stroke="midnightblue" d="M862.7,-168.08C862.7,-161.01 862.7,-150.86 862.7,-141.99"/>
<polygon fill="midnightblue" stroke="midnightblue" points="866.2,-141.75 862.7,-131.75 859.2,-141.75 866.2,-141.75"/>
</g>
<!-- Node37 -->
<g id="node37" class="node">
<title>Node37</title>
<g id="a_node37"><a xlink:href="_half_8hpp.html" target="_top" xlink:title=" ">
<polygon fill="white" stroke="black" points="1007.2,-112.5 1007.2,-131.5 1064.2,-131.5 1064.2,-112.5 1007.2,-112.5"/>
<text text-anchor="middle" x="1035.7" y="-119.5" font-family="Helvetica,sans-Serif" font-size="10.00">Half.hpp</text>
</a>
</g>
</g>
<!-- Node35&#45;&gt;Node37 -->
<g id="edge62" class="edge">
<title>Node35&#45;&gt;Node37</title>
<path fill="none" stroke="midnightblue" d="M890.11,-168.44C919.47,-159.28 966.22,-144.69 998.79,-134.52"/>
<polygon fill="midnightblue" stroke="midnightblue" points="999.91,-137.84 1008.41,-131.52 997.82,-131.16 999.91,-137.84"/>
</g>
<!-- Node36&#45;&gt;Node7 -->
<g id="edge58" class="edge">
<title>Node36&#45;&gt;Node7</title>
<path fill="none" stroke="midnightblue" d="M867.01,-112.41C872.89,-99.37 881.63,-74.2 871.7,-56 863.88,-41.68 849.34,-31.24 835.52,-24.04"/>
<polygon fill="midnightblue" stroke="midnightblue" points="836.7,-20.72 826.17,-19.56 833.68,-27.03 836.7,-20.72"/>
</g>
<!-- Node36&#45;&gt;Node17 -->
<g id="edge60" class="edge">
<title>Node36&#45;&gt;Node17</title>
<path fill="none" stroke="midnightblue" d="M858.57,-112.08C855.18,-104.77 850.28,-94.18 846.08,-85.1"/>
<polygon fill="midnightblue" stroke="midnightblue" points="849.13,-83.36 841.75,-75.75 842.77,-86.3 849.13,-83.36"/>
</g>
<!-- Node36&#45;&gt;Node22 -->
<g id="edge61" class="edge">
<title>Node36&#45;&gt;Node22</title>
<path fill="none" stroke="midnightblue" d="M835.6,-112.44C806.62,-103.29 760.5,-88.73 728.31,-78.56"/>
<polygon fill="midnightblue" stroke="midnightblue" points="728.97,-75.1 718.38,-75.43 726.87,-81.78 728.97,-75.1"/>
</g>
<!-- Node36&#45;&gt;Node27 -->
<g id="edge59" class="edge">
<title>Node36&#45;&gt;Node27</title>
<path fill="none" stroke="midnightblue" d="M875.55,-112.32C887.91,-103.98 906.83,-91.21 921.43,-81.35"/>
<polygon fill="midnightblue" stroke="midnightblue" points="923.55,-84.15 929.88,-75.65 919.63,-78.35 923.55,-84.15"/>
</g>
<!-- Node37&#45;&gt;Node18 -->
<g id="edge63" class="edge">
<title>Node37&#45;&gt;Node18</title>
<path fill="none" stroke="midnightblue" d="M1048.23,-112.32C1060.28,-103.98 1078.72,-91.21 1092.97,-81.35"/>
<polygon fill="midnightblue" stroke="midnightblue" points="1094.97,-84.22 1101.2,-75.65 1090.98,-78.47 1094.97,-84.22"/>
</g>
<!-- Node38 -->
<g id="node38" class="node">
<title>Node38</title>
<g id="a_node38"><a xlink:title=" ">
<polygon fill="white" stroke="#bfbfbf" points="984.2,-56.5 984.2,-75.5 1061.2,-75.5 1061.2,-56.5 984.2,-56.5"/>
<text text-anchor="middle" x="1022.7" y="-63.5" font-family="Helvetica,sans-Serif" font-size="10.00">half/half.hpp</text>
</a>
</g>
</g>
<!-- Node37&#45;&gt;Node38 -->
<g id="edge64" class="edge">
<title>Node37&#45;&gt;Node38</title>
<path fill="none" stroke="midnightblue" d="M1033.55,-112.08C1031.83,-104.93 1029.35,-94.64 1027.2,-85.69"/>
<polygon fill="midnightblue" stroke="midnightblue" points="1030.55,-84.65 1024.8,-75.75 1023.74,-86.29 1030.55,-84.65"/>
</g>
</g>
</svg>
