<?xml version="1.0" encoding="UTF-8" standalone="no"?>
<!DOCTYPE svg PUBLIC "-//W3C//DTD SVG 1.1//EN"
 "http://www.w3.org/Graphics/SVG/1.1/DTD/svg11.dtd">
<!-- Generated by graphviz version 2.43.0 (0)
 -->
<!-- Title: src/backends/cl/workloads/ClWorkloadUtils.hpp Pages: 1 -->
<svg width="2022pt" height="397pt"
 viewBox="0.00 0.00 2022.00 397.00" xmlns="http://www.w3.org/2000/svg" xmlns:xlink="http://www.w3.org/1999/xlink">
<g id="graph0" class="graph" transform="scale(1 1) rotate(0) translate(4 393)">
<title>src/backends/cl/workloads/ClWorkloadUtils.hpp</title>
<polygon fill="white" stroke="transparent" points="-4,4 -4,-393 2018,-393 2018,4 -4,4"/>
<!-- Node1 -->
<g id="node1" class="node">
<title>Node1</title>
<g id="a_node1"><a xlink:title=" ">
<polygon fill="#bfbfbf" stroke="black" points="1161.5,-358.5 1161.5,-388.5 1305.5,-388.5 1305.5,-358.5 1161.5,-358.5"/>
<text text-anchor="start" x="1169.5" y="-376.5" font-family="Helvetica,sans-Serif" font-size="10.00">src/backends/cl/workloads</text>
<text text-anchor="middle" x="1233.5" y="-365.5" font-family="Helvetica,sans-Serif" font-size="10.00">/ClWorkloadUtils.hpp</text>
</a>
</g>
</g>
<!-- Node2 -->
<g id="node2" class="node">
<title>Node2</title>
<g id="a_node2"><a xlink:href="_b_float16_8hpp.html" target="_top" xlink:title=" ">
<polygon fill="white" stroke="black" points="1532,-123.5 1532,-142.5 1613,-142.5 1613,-123.5 1532,-123.5"/>
<text text-anchor="middle" x="1572.5" y="-130.5" font-family="Helvetica,sans-Serif" font-size="10.00">BFloat16.hpp</text>
</a>
</g>
</g>
<!-- Node1&#45;&gt;Node2 -->
<g id="edge1" class="edge">
<title>Node1&#45;&gt;Node2</title>
<path fill="none" stroke="midnightblue" d="M1281.91,-358.37C1336.13,-340.76 1424.5,-306.57 1486.5,-255 1522.18,-225.32 1550.22,-177.52 1563.71,-151.78"/>
<polygon fill="midnightblue" stroke="midnightblue" points="1566.87,-153.29 1568.3,-142.79 1560.63,-150.1 1566.87,-153.29"/>
</g>
<!-- Node7 -->
<g id="node7" class="node">
<title>Node7</title>
<g id="a_node7"><a xlink:href="_half_8hpp.html" target="_top" xlink:title=" ">
<polygon fill="white" stroke="black" points="68,-235.5 68,-254.5 125,-254.5 125,-235.5 68,-235.5"/>
<text text-anchor="middle" x="96.5" y="-242.5" font-family="Helvetica,sans-Serif" font-size="10.00">Half.hpp</text>
</a>
</g>
</g>
<!-- Node1&#45;&gt;Node7 -->
<g id="edge6" class="edge">
<title>Node1&#45;&gt;Node7</title>
<path fill="none" stroke="midnightblue" d="M1161.06,-368.74C1039.4,-362.03 786.43,-346.36 573.5,-322 380.66,-299.94 329.91,-292.9 135.07,-254.98"/>
<polygon fill="midnightblue" stroke="midnightblue" points="135.56,-251.51 125.08,-253.03 134.22,-258.38 135.56,-251.51"/>
</g>
<!-- Node10 -->
<g id="node10" class="node">
<title>Node10</title>
<g id="a_node10"><a xlink:href="_arm_compute_tensor_utils_8hpp.html" target="_top" xlink:title=" ">
<polygon fill="white" stroke="black" points="582.5,-291.5 582.5,-321.5 756.5,-321.5 756.5,-291.5 582.5,-291.5"/>
<text text-anchor="start" x="590.5" y="-309.5" font-family="Helvetica,sans-Serif" font-size="10.00">aclCommon/ArmComputeTensor</text>
<text text-anchor="middle" x="669.5" y="-298.5" font-family="Helvetica,sans-Serif" font-size="10.00">Utils.hpp</text>
</a>
</g>
</g>
<!-- Node1&#45;&gt;Node10 -->
<g id="edge9" class="edge">
<title>Node1&#45;&gt;Node10</title>
<path fill="none" stroke="midnightblue" d="M1161.49,-364.2C1061.17,-352.64 879.06,-331.65 766.76,-318.71"/>
<polygon fill="midnightblue" stroke="midnightblue" points="767.12,-315.23 756.78,-317.56 766.32,-322.18 767.12,-315.23"/>
</g>
<!-- Node13 -->
<g id="node13" class="node">
<title>Node13</title>
<g id="a_node13"><a xlink:title=" ">
<polygon fill="white" stroke="#bfbfbf" points="290.5,-0.5 290.5,-19.5 346.5,-19.5 346.5,-0.5 290.5,-0.5"/>
<text text-anchor="middle" x="318.5" y="-7.5" font-family="Helvetica,sans-Serif" font-size="10.00">sstream</text>
</a>
</g>
</g>
<!-- Node1&#45;&gt;Node13 -->
<g id="edge82" class="edge">
<title>Node1&#45;&gt;Node13</title>
<path fill="none" stroke="midnightblue" d="M1161.32,-371.11C932.79,-366.46 234.37,-350.08 136.5,-322 70.31,-303.01 1.5,-314.85 1.5,-246 1.5,-246 1.5,-246 1.5,-132 1.5,-97.07 -4.49,-79.34 21.5,-56 58.86,-22.43 208.13,-13.9 279.76,-11.74"/>
<polygon fill="midnightblue" stroke="midnightblue" points="280.25,-15.22 290.15,-11.45 280.06,-8.23 280.25,-15.22"/>
</g>
<!-- Node37 -->
<g id="node37" class="node">
<title>Node37</title>
<g id="a_node37"><a xlink:href="_open_cl_timer_8hpp.html" target="_top" xlink:title=" ">
<polygon fill="white" stroke="black" points="175.5,-123.5 175.5,-142.5 287.5,-142.5 287.5,-123.5 175.5,-123.5"/>
<text text-anchor="middle" x="231.5" y="-130.5" font-family="Helvetica,sans-Serif" font-size="10.00">cl/OpenClTimer.hpp</text>
</a>
</g>
</g>
<!-- Node1&#45;&gt;Node37 -->
<g id="edge48" class="edge">
<title>Node1&#45;&gt;Node37</title>
<path fill="none" stroke="midnightblue" d="M1161.47,-371.16C916.63,-365.84 127.79,-342.01 59.5,-255 18.41,-202.66 123,-163.52 186.67,-145.31"/>
<polygon fill="midnightblue" stroke="midnightblue" points="187.81,-148.62 196.51,-142.57 185.93,-141.88 187.81,-148.62"/>
</g>
<!-- Node42 -->
<g id="node42" class="node">
<title>Node42</title>
<g id="a_node42"><a xlink:href="_tensor_handle_8hpp.html" target="_top" xlink:title=" ">
<polygon fill="white" stroke="black" points="1140,-297 1140,-316 1327,-316 1327,-297 1140,-297"/>
<text text-anchor="middle" x="1233.5" y="-304" font-family="Helvetica,sans-Serif" font-size="10.00">armnn/backends/TensorHandle.hpp</text>
</a>
</g>
</g>
<!-- Node1&#45;&gt;Node42 -->
<g id="edge56" class="edge">
<title>Node1&#45;&gt;Node42</title>
<path fill="none" stroke="midnightblue" d="M1233.5,-358.4C1233.5,-349.06 1233.5,-336.71 1233.5,-326.52"/>
<polygon fill="midnightblue" stroke="midnightblue" points="1237,-326.19 1233.5,-316.19 1230,-326.19 1237,-326.19"/>
</g>
<!-- Node49 -->
<g id="node49" class="node">
<title>Node49</title>
<g id="a_node49"><a xlink:href="_utils_8hpp.html" target="_top" xlink:title=" ">
<polygon fill="white" stroke="black" points="1670,-123.5 1670,-142.5 1765,-142.5 1765,-123.5 1670,-123.5"/>
<text text-anchor="middle" x="1717.5" y="-130.5" font-family="Helvetica,sans-Serif" font-size="10.00">armnn/Utils.hpp</text>
</a>
</g>
</g>
<!-- Node1&#45;&gt;Node49 -->
<g id="edge77" class="edge">
<title>Node1&#45;&gt;Node49</title>
<path fill="none" stroke="midnightblue" d="M1305.36,-358.42C1340.88,-350.14 1383.86,-338.1 1420.5,-322 1533.37,-272.4 1653.06,-184 1698.51,-148.93"/>
<polygon fill="midnightblue" stroke="midnightblue" points="1700.84,-151.55 1706.59,-142.65 1696.54,-146.03 1700.84,-151.55"/>
</g>
<!-- Node50 -->
<g id="node50" class="node">
<title>Node50</title>
<g id="a_node50"><a xlink:title=" ">
<polygon fill="white" stroke="#bfbfbf" points="1746,-291.5 1746,-321.5 1871,-321.5 1871,-291.5 1746,-291.5"/>
<text text-anchor="start" x="1754" y="-309.5" font-family="Helvetica,sans-Serif" font-size="10.00">arm_compute/runtime</text>
<text text-anchor="middle" x="1808.5" y="-298.5" font-family="Helvetica,sans-Serif" font-size="10.00">/CL/CLTensor.h</text>
</a>
</g>
</g>
<!-- Node1&#45;&gt;Node50 -->
<g id="edge80" class="edge">
<title>Node1&#45;&gt;Node50</title>
<path fill="none" stroke="midnightblue" d="M1305.89,-367.1C1403.03,-359.42 1580.77,-343.79 1731.5,-322 1732.97,-321.79 1734.46,-321.57 1735.95,-321.34"/>
<polygon fill="midnightblue" stroke="midnightblue" points="1736.63,-324.77 1745.95,-319.74 1735.53,-317.86 1736.63,-324.77"/>
</g>
<!-- Node51 -->
<g id="node51" class="node">
<title>Node51</title>
<g id="a_node51"><a xlink:title=" ">
<polygon fill="white" stroke="#bfbfbf" points="1889,-291.5 1889,-321.5 2014,-321.5 2014,-291.5 1889,-291.5"/>
<text text-anchor="start" x="1897" y="-309.5" font-family="Helvetica,sans-Serif" font-size="10.00">arm_compute/runtime</text>
<text text-anchor="middle" x="1951.5" y="-298.5" font-family="Helvetica,sans-Serif" font-size="10.00">/IFunction.h</text>
</a>
</g>
</g>
<!-- Node1&#45;&gt;Node51 -->
<g id="edge81" class="edge">
<title>Node1&#45;&gt;Node51</title>
<path fill="none" stroke="midnightblue" d="M1305.62,-369.78C1423.59,-364.69 1665.27,-351.59 1878.71,-322.15"/>
<polygon fill="midnightblue" stroke="midnightblue" points="1879.43,-325.58 1888.85,-320.73 1878.46,-318.65 1879.43,-325.58"/>
</g>
<!-- Node3 -->
<g id="node3" class="node">
<title>Node3</title>
<g id="a_node3"><a xlink:title=" ">
<polygon fill="white" stroke="#bfbfbf" points="1602,-0.5 1602,-19.5 1659,-19.5 1659,-0.5 1602,-0.5"/>
<text text-anchor="middle" x="1630.5" y="-7.5" font-family="Helvetica,sans-Serif" font-size="10.00">ostream</text>
</a>
</g>
</g>
<!-- Node2&#45;&gt;Node3 -->
<g id="edge2" class="edge">
<title>Node2&#45;&gt;Node3</title>
<path fill="none" stroke="midnightblue" d="M1595.95,-123.41C1611.66,-116.28 1631.11,-104.46 1640.5,-87 1650.21,-68.92 1644.59,-45.04 1638.59,-28.91"/>
<polygon fill="midnightblue" stroke="midnightblue" points="1641.79,-27.49 1634.74,-19.57 1635.31,-30.15 1641.79,-27.49"/>
</g>
<!-- Node4 -->
<g id="node4" class="node">
<title>Node4</title>
<g id="a_node4"><a xlink:title=" ">
<polygon fill="white" stroke="#bfbfbf" points="1693,-62 1693,-81 1740,-81 1740,-62 1693,-62"/>
<text text-anchor="middle" x="1716.5" y="-69" font-family="Helvetica,sans-Serif" font-size="10.00">cmath</text>
</a>
</g>
</g>
<!-- Node2&#45;&gt;Node4 -->
<g id="edge3" class="edge">
<title>Node2&#45;&gt;Node4</title>
<path fill="none" stroke="midnightblue" d="M1593.13,-123.48C1617.61,-113.36 1658.64,-96.4 1686.6,-84.85"/>
<polygon fill="midnightblue" stroke="midnightblue" points="1688,-88.06 1695.9,-81.01 1685.32,-81.59 1688,-88.06"/>
</g>
<!-- Node5 -->
<g id="node5" class="node">
<title>Node5</title>
<g id="a_node5"><a xlink:title=" ">
<polygon fill="white" stroke="#bfbfbf" points="1008.5,-62 1008.5,-81 1058.5,-81 1058.5,-62 1008.5,-62"/>
<text text-anchor="middle" x="1033.5" y="-69" font-family="Helvetica,sans-Serif" font-size="10.00">cstring</text>
</a>
</g>
</g>
<!-- Node2&#45;&gt;Node5 -->
<g id="edge4" class="edge">
<title>Node2&#45;&gt;Node5</title>
<path fill="none" stroke="midnightblue" d="M1531.91,-130.03C1428.18,-124.72 1155.32,-109.05 1067.5,-87 1065.13,-86.41 1062.72,-85.67 1060.33,-84.85"/>
<polygon fill="midnightblue" stroke="midnightblue" points="1061.37,-81.49 1050.78,-81.11 1058.82,-88.01 1061.37,-81.49"/>
</g>
<!-- Node6 -->
<g id="node6" class="node">
<title>Node6</title>
<g id="a_node6"><a xlink:title=" ">
<polygon fill="white" stroke="#bfbfbf" points="1401,-62 1401,-81 1454,-81 1454,-62 1401,-62"/>
<text text-anchor="middle" x="1427.5" y="-69" font-family="Helvetica,sans-Serif" font-size="10.00">stdint.h</text>
</a>
</g>
</g>
<!-- Node2&#45;&gt;Node6 -->
<g id="edge5" class="edge">
<title>Node2&#45;&gt;Node6</title>
<path fill="none" stroke="midnightblue" d="M1551.72,-123.48C1527.06,-113.36 1485.75,-96.4 1457.59,-84.85"/>
<polygon fill="midnightblue" stroke="midnightblue" points="1458.81,-81.57 1448.23,-81.01 1456.15,-88.04 1458.81,-81.57"/>
</g>
<!-- Node8 -->
<g id="node8" class="node">
<title>Node8</title>
<g id="a_node8"><a xlink:title=" ">
<polygon fill="white" stroke="#bfbfbf" points="767,-62 767,-81 836,-81 836,-62 767,-62"/>
<text text-anchor="middle" x="801.5" y="-69" font-family="Helvetica,sans-Serif" font-size="10.00">type_traits</text>
</a>
</g>
</g>
<!-- Node7&#45;&gt;Node8 -->
<g id="edge7" class="edge">
<title>Node7&#45;&gt;Node8</title>
<path fill="none" stroke="midnightblue" d="M122.82,-235.36C189.52,-213.74 370.86,-156.62 525.5,-123 627.89,-100.74 656.7,-111.83 758.5,-87 761.89,-86.17 765.4,-85.2 768.88,-84.15"/>
<polygon fill="midnightblue" stroke="midnightblue" points="770.05,-87.45 778.5,-81.07 767.91,-80.78 770.05,-87.45"/>
</g>
<!-- Node9 -->
<g id="node9" class="node">
<title>Node9</title>
<g id="a_node9"><a xlink:title=" ">
<polygon fill="white" stroke="#bfbfbf" points="344,-179.5 344,-198.5 421,-198.5 421,-179.5 344,-179.5"/>
<text text-anchor="middle" x="382.5" y="-186.5" font-family="Helvetica,sans-Serif" font-size="10.00">half/half.hpp</text>
</a>
</g>
</g>
<!-- Node7&#45;&gt;Node9 -->
<g id="edge8" class="edge">
<title>Node7&#45;&gt;Node9</title>
<path fill="none" stroke="midnightblue" d="M125.09,-237.06C128.26,-236.34 131.44,-235.64 134.5,-235 171.65,-227.24 272.32,-209.33 333.37,-198.6"/>
<polygon fill="midnightblue" stroke="midnightblue" points="334.3,-201.98 343.55,-196.81 333.09,-195.09 334.3,-201.98"/>
</g>
<!-- Node10&#45;&gt;Node7 -->
<g id="edge47" class="edge">
<title>Node10&#45;&gt;Node7</title>
<path fill="none" stroke="midnightblue" d="M582.38,-300.99C478.28,-294.77 298.77,-281.39 135.29,-254.89"/>
<polygon fill="midnightblue" stroke="midnightblue" points="135.48,-251.37 125.04,-253.21 134.34,-258.28 135.48,-251.37"/>
</g>
<!-- Node11 -->
<g id="node11" class="node">
<title>Node11</title>
<g id="a_node11"><a xlink:href="_tensor_8hpp.html" target="_top" xlink:title=" ">
<polygon fill="white" stroke="black" points="1023,-179.5 1023,-198.5 1126,-198.5 1126,-179.5 1023,-179.5"/>
<text text-anchor="middle" x="1074.5" y="-186.5" font-family="Helvetica,sans-Serif" font-size="10.00">armnn/Tensor.hpp</text>
</a>
</g>
</g>
<!-- Node10&#45;&gt;Node11 -->
<g id="edge10" class="edge">
<title>Node10&#45;&gt;Node11</title>
<path fill="none" stroke="midnightblue" d="M756.57,-303.07C894.1,-298.32 1148.91,-285.47 1176.5,-255 1198.07,-231.17 1157.36,-212.59 1121.14,-201.51"/>
<polygon fill="midnightblue" stroke="midnightblue" points="1121.68,-198.02 1111.1,-198.59 1119.72,-204.74 1121.68,-198.02"/>
</g>
<!-- Node29 -->
<g id="node29" class="node">
<title>Node29</title>
<g id="a_node29"><a xlink:href="_descriptors_fwd_8hpp.html" target="_top" xlink:title=" ">
<polygon fill="white" stroke="black" points="683.5,-235.5 683.5,-254.5 831.5,-254.5 831.5,-235.5 683.5,-235.5"/>
<text text-anchor="middle" x="757.5" y="-242.5" font-family="Helvetica,sans-Serif" font-size="10.00">armnn/DescriptorsFwd.hpp</text>
</a>
</g>
</g>
<!-- Node10&#45;&gt;Node29 -->
<g id="edge38" class="edge">
<title>Node10&#45;&gt;Node29</title>
<path fill="none" stroke="midnightblue" d="M690.35,-291.4C704.19,-282.04 722.31,-269.79 736.23,-260.38"/>
<polygon fill="midnightblue" stroke="midnightblue" points="738.37,-263.16 744.69,-254.66 734.45,-257.36 738.37,-263.16"/>
</g>
<!-- Node30 -->
<g id="node30" class="node">
<title>Node30</title>
<g id="a_node30"><a xlink:href="_numeric_cast_8hpp.html" target="_top" xlink:title=" ">
<polygon fill="white" stroke="black" points="498,-235.5 498,-254.5 665,-254.5 665,-235.5 498,-235.5"/>
<text text-anchor="middle" x="581.5" y="-242.5" font-family="Helvetica,sans-Serif" font-size="10.00">armnn/utility/NumericCast.hpp</text>
</a>
</g>
</g>
<!-- Node10&#45;&gt;Node30 -->
<g id="edge39" class="edge">
<title>Node10&#45;&gt;Node30</title>
<path fill="none" stroke="midnightblue" d="M648.64,-291.4C634.8,-282.04 616.68,-269.79 602.76,-260.38"/>
<polygon fill="midnightblue" stroke="midnightblue" points="604.54,-257.36 594.3,-254.66 600.62,-263.16 604.54,-257.36"/>
</g>
<!-- Node34 -->
<g id="node34" class="node">
<title>Node34</title>
<g id="a_node34"><a xlink:title=" ">
<polygon fill="white" stroke="#bfbfbf" points="849.5,-235.5 849.5,-254.5 1003.5,-254.5 1003.5,-235.5 849.5,-235.5"/>
<text text-anchor="middle" x="926.5" y="-242.5" font-family="Helvetica,sans-Serif" font-size="10.00">arm_compute/core/ITensor.h</text>
</a>
</g>
</g>
<!-- Node10&#45;&gt;Node34 -->
<g id="edge44" class="edge">
<title>Node10&#45;&gt;Node34</title>
<path fill="none" stroke="midnightblue" d="M730.08,-291.47C775.87,-280.87 837.8,-266.53 879.79,-256.81"/>
<polygon fill="midnightblue" stroke="midnightblue" points="880.8,-260.17 889.75,-254.51 879.22,-253.35 880.8,-260.17"/>
</g>
<!-- Node35 -->
<g id="node35" class="node">
<title>Node35</title>
<g id="a_node35"><a xlink:title=" ">
<polygon fill="white" stroke="#bfbfbf" points="143.5,-235.5 143.5,-254.5 313.5,-254.5 313.5,-235.5 143.5,-235.5"/>
<text text-anchor="middle" x="228.5" y="-242.5" font-family="Helvetica,sans-Serif" font-size="10.00">arm_compute/core/TensorInfo.h</text>
</a>
</g>
</g>
<!-- Node10&#45;&gt;Node35 -->
<g id="edge45" class="edge">
<title>Node10&#45;&gt;Node35</title>
<path fill="none" stroke="midnightblue" d="M582.37,-293.74C500.33,-282.68 378.83,-266.28 301.68,-255.87"/>
<polygon fill="midnightblue" stroke="midnightblue" points="301.95,-252.38 291.57,-254.51 301.01,-259.32 301.95,-252.38"/>
</g>
<!-- Node36 -->
<g id="node36" class="node">
<title>Node36</title>
<g id="a_node36"><a xlink:title=" ">
<polygon fill="white" stroke="#bfbfbf" points="331.5,-235.5 331.5,-254.5 479.5,-254.5 479.5,-235.5 331.5,-235.5"/>
<text text-anchor="middle" x="405.5" y="-242.5" font-family="Helvetica,sans-Serif" font-size="10.00">arm_compute/core/Types.h</text>
</a>
</g>
</g>
<!-- Node10&#45;&gt;Node36 -->
<g id="edge46" class="edge">
<title>Node10&#45;&gt;Node36</title>
<path fill="none" stroke="midnightblue" d="M607.27,-291.47C560.13,-280.85 496.34,-266.47 453.2,-256.75"/>
<polygon fill="midnightblue" stroke="midnightblue" points="453.76,-253.29 443.24,-254.51 452.22,-260.12 453.76,-253.29"/>
</g>
<!-- Node11&#45;&gt;Node6 -->
<g id="edge33" class="edge">
<title>Node11&#45;&gt;Node6</title>
<path fill="none" stroke="midnightblue" d="M1126.17,-180.13C1205.92,-167.93 1350.39,-145.57 1355.5,-143 1380.54,-130.38 1402.45,-105.92 1415.34,-89.4"/>
<polygon fill="midnightblue" stroke="midnightblue" points="1418.32,-91.26 1421.53,-81.16 1412.72,-87.05 1418.32,-91.26"/>
</g>
<!-- Node12 -->
<g id="node12" class="node">
<title>Node12</title>
<g id="a_node12"><a xlink:href="_exceptions_8hpp.html" target="_top" xlink:title=" ">
<polygon fill="white" stroke="black" points="899,-62 899,-81 990,-81 990,-62 899,-62"/>
<text text-anchor="middle" x="944.5" y="-69" font-family="Helvetica,sans-Serif" font-size="10.00">Exceptions.hpp</text>
</a>
</g>
</g>
<!-- Node11&#45;&gt;Node12 -->
<g id="edge11" class="edge">
<title>Node11&#45;&gt;Node12</title>
<path fill="none" stroke="midnightblue" d="M1074.04,-179.35C1072.88,-165.77 1068.81,-139.34 1054.5,-123 1037.97,-104.14 1012.95,-91.89 990.94,-84.18"/>
<polygon fill="midnightblue" stroke="midnightblue" points="992,-80.85 981.41,-81.05 989.82,-87.5 992,-80.85"/>
</g>
<!-- Node16 -->
<g id="node16" class="node">
<title>Node16</title>
<g id="a_node16"><a xlink:href="_optional_8hpp.html" target="_top" xlink:title=" ">
<polygon fill="white" stroke="black" points="1102,-123.5 1102,-142.5 1181,-142.5 1181,-123.5 1102,-123.5"/>
<text text-anchor="middle" x="1141.5" y="-130.5" font-family="Helvetica,sans-Serif" font-size="10.00">Optional.hpp</text>
</a>
</g>
</g>
<!-- Node11&#45;&gt;Node16 -->
<g id="edge15" class="edge">
<title>Node11&#45;&gt;Node16</title>
<path fill="none" stroke="midnightblue" d="M1085.26,-179.32C1095.26,-171.26 1110.38,-159.08 1122.43,-149.37"/>
<polygon fill="midnightblue" stroke="midnightblue" points="1124.95,-151.83 1130.54,-142.83 1120.55,-146.38 1124.95,-151.83"/>
</g>
<!-- Node17 -->
<g id="node17" class="node">
<title>Node17</title>
<g id="a_node17"><a xlink:href="_types_8hpp.html" target="_top" xlink:title=" ">
<polygon fill="white" stroke="black" points="1281,-123.5 1281,-142.5 1346,-142.5 1346,-123.5 1281,-123.5"/>
<text text-anchor="middle" x="1313.5" y="-130.5" font-family="Helvetica,sans-Serif" font-size="10.00">Types.hpp</text>
</a>
</g>
</g>
<!-- Node11&#45;&gt;Node17 -->
<g id="edge19" class="edge">
<title>Node11&#45;&gt;Node17</title>
<path fill="none" stroke="midnightblue" d="M1112.37,-179.44C1155.56,-169.68 1226.02,-153.77 1271.04,-143.59"/>
<polygon fill="midnightblue" stroke="midnightblue" points="1271.81,-147.01 1280.8,-141.39 1270.27,-140.18 1271.81,-147.01"/>
</g>
<!-- Node18 -->
<g id="node18" class="node">
<title>Node18</title>
<g id="a_node18"><a xlink:title=" ">
<polygon fill="white" stroke="#bfbfbf" points="1076.5,-62 1076.5,-81 1118.5,-81 1118.5,-62 1076.5,-62"/>
<text text-anchor="middle" x="1097.5" y="-69" font-family="Helvetica,sans-Serif" font-size="10.00">array</text>
</a>
</g>
</g>
<!-- Node11&#45;&gt;Node18 -->
<g id="edge34" class="edge">
<title>Node11&#45;&gt;Node18</title>
<path fill="none" stroke="midnightblue" d="M1126.13,-181.35C1149.89,-175.43 1175.97,-164.21 1190.5,-143 1195.52,-135.67 1195.04,-130.64 1190.5,-123 1186.71,-116.64 1150.82,-98.26 1124.75,-85.53"/>
<polygon fill="midnightblue" stroke="midnightblue" points="1126.2,-82.34 1115.67,-81.12 1123.14,-88.64 1126.2,-82.34"/>
</g>
<!-- Node25 -->
<g id="node25" class="node">
<title>Node25</title>
<g id="a_node25"><a xlink:title=" ">
<polygon fill="white" stroke="#bfbfbf" points="764,-0.5 764,-19.5 811,-19.5 811,-0.5 764,-0.5"/>
<text text-anchor="middle" x="787.5" y="-7.5" font-family="Helvetica,sans-Serif" font-size="10.00">vector</text>
</a>
</g>
</g>
<!-- Node11&#45;&gt;Node25 -->
<g id="edge36" class="edge">
<title>Node11&#45;&gt;Node25</title>
<path fill="none" stroke="midnightblue" d="M1022.78,-180.25C975.8,-172.36 910.85,-159.01 890.5,-143 856.28,-116.08 873.34,-89.46 845.5,-56 835.49,-43.98 821.75,-33.14 810.15,-25.12"/>
<polygon fill="midnightblue" stroke="midnightblue" points="812.06,-22.18 801.8,-19.55 808.18,-28.01 812.06,-22.18"/>
</g>
<!-- Node27 -->
<g id="node27" class="node">
<title>Node27</title>
<g id="a_node27"><a xlink:title=" ">
<polygon fill="white" stroke="#bfbfbf" points="899,-123.5 899,-142.5 982,-142.5 982,-123.5 899,-123.5"/>
<text text-anchor="middle" x="940.5" y="-130.5" font-family="Helvetica,sans-Serif" font-size="10.00">initializer_list</text>
</a>
</g>
</g>
<!-- Node11&#45;&gt;Node27 -->
<g id="edge35" class="edge">
<title>Node11&#45;&gt;Node27</title>
<path fill="none" stroke="midnightblue" d="M1053.26,-179.44C1031.11,-170.52 996.18,-156.44 971.06,-146.32"/>
<polygon fill="midnightblue" stroke="midnightblue" points="972.21,-143.01 961.63,-142.52 969.6,-149.5 972.21,-143.01"/>
</g>
<!-- Node28 -->
<g id="node28" class="node">
<title>Node28</title>
<g id="a_node28"><a xlink:title=" ">
<polygon fill="white" stroke="#bfbfbf" points="1000,-123.5 1000,-142.5 1045,-142.5 1045,-123.5 1000,-123.5"/>
<text text-anchor="middle" x="1022.5" y="-130.5" font-family="Helvetica,sans-Serif" font-size="10.00">utility</text>
</a>
</g>
</g>
<!-- Node11&#45;&gt;Node28 -->
<g id="edge37" class="edge">
<title>Node11&#45;&gt;Node28</title>
<path fill="none" stroke="midnightblue" d="M1065.91,-179.08C1058.34,-171.22 1047.12,-159.57 1037.98,-150.08"/>
<polygon fill="midnightblue" stroke="midnightblue" points="1040.38,-147.53 1030.92,-142.75 1035.34,-152.38 1040.38,-147.53"/>
</g>
<!-- Node12&#45;&gt;Node13 -->
<g id="edge12" class="edge">
<title>Node12&#45;&gt;Node13</title>
<path fill="none" stroke="midnightblue" d="M898.73,-63.21C882.01,-60.7 862.92,-58.02 845.5,-56 662.92,-34.85 443.69,-19.27 356.73,-13.47"/>
<polygon fill="midnightblue" stroke="midnightblue" points="356.76,-9.97 346.55,-12.8 356.3,-16.95 356.76,-9.97"/>
</g>
<!-- Node14 -->
<g id="node14" class="node">
<title>Node14</title>
<g id="a_node14"><a xlink:title=" ">
<polygon fill="white" stroke="#bfbfbf" points="912,-0.5 912,-19.5 977,-19.5 977,-0.5 912,-0.5"/>
<text text-anchor="middle" x="944.5" y="-7.5" font-family="Helvetica,sans-Serif" font-size="10.00">stdexcept</text>
</a>
</g>
</g>
<!-- Node12&#45;&gt;Node14 -->
<g id="edge13" class="edge">
<title>Node12&#45;&gt;Node14</title>
<path fill="none" stroke="midnightblue" d="M944.5,-61.98C944.5,-53.58 944.5,-40.48 944.5,-29.66"/>
<polygon fill="midnightblue" stroke="midnightblue" points="948,-29.51 944.5,-19.51 941,-29.51 948,-29.51"/>
</g>
<!-- Node15 -->
<g id="node15" class="node">
<title>Node15</title>
<g id="a_node15"><a xlink:title=" ">
<polygon fill="white" stroke="#bfbfbf" points="1177.5,-0.5 1177.5,-19.5 1221.5,-19.5 1221.5,-0.5 1177.5,-0.5"/>
<text text-anchor="middle" x="1199.5" y="-7.5" font-family="Helvetica,sans-Serif" font-size="10.00">string</text>
</a>
</g>
</g>
<!-- Node12&#45;&gt;Node15 -->
<g id="edge14" class="edge">
<title>Node12&#45;&gt;Node15</title>
<path fill="none" stroke="midnightblue" d="M976.15,-61.94C983.78,-59.94 991.92,-57.85 999.5,-56 1058.53,-41.58 1127.78,-26.38 1167.37,-17.85"/>
<polygon fill="midnightblue" stroke="midnightblue" points="1168.2,-21.25 1177.24,-15.73 1166.72,-14.41 1168.2,-21.25"/>
</g>
<!-- Node16&#45;&gt;Node5 -->
<g id="edge17" class="edge">
<title>Node16&#45;&gt;Node5</title>
<path fill="none" stroke="midnightblue" d="M1126.02,-123.48C1108.22,-113.67 1078.76,-97.43 1057.86,-85.92"/>
<polygon fill="midnightblue" stroke="midnightblue" points="1059.39,-82.77 1048.94,-81.01 1056.01,-88.9 1059.39,-82.77"/>
</g>
<!-- Node16&#45;&gt;Node8 -->
<g id="edge18" class="edge">
<title>Node16&#45;&gt;Node8</title>
<path fill="none" stroke="midnightblue" d="M1101.83,-125.06C1038.06,-113.9 913.15,-92.04 846.27,-80.34"/>
<polygon fill="midnightblue" stroke="midnightblue" points="846.51,-76.82 836.06,-78.55 845.31,-83.72 846.51,-76.82"/>
</g>
<!-- Node16&#45;&gt;Node12 -->
<g id="edge16" class="edge">
<title>Node16&#45;&gt;Node12</title>
<path fill="none" stroke="midnightblue" d="M1113.27,-123.48C1078.89,-113.09 1020.69,-95.51 982.42,-83.95"/>
<polygon fill="midnightblue" stroke="midnightblue" points="983.25,-80.55 972.67,-81.01 981.23,-87.25 983.25,-80.55"/>
</g>
<!-- Node17&#45;&gt;Node6 -->
<g id="edge22" class="edge">
<title>Node17&#45;&gt;Node6</title>
<path fill="none" stroke="midnightblue" d="M1329.83,-123.48C1348.71,-113.62 1380,-97.29 1402.07,-85.77"/>
<polygon fill="midnightblue" stroke="midnightblue" points="1403.95,-88.74 1411.19,-81.01 1400.71,-82.53 1403.95,-88.74"/>
</g>
<!-- Node17&#45;&gt;Node12 -->
<g id="edge31" class="edge">
<title>Node17&#45;&gt;Node12</title>
<path fill="none" stroke="midnightblue" d="M1280.92,-125.52C1276.09,-124.63 1271.17,-123.76 1266.5,-123 1148.32,-103.73 1116.95,-110.31 999.5,-87 994.42,-85.99 989.12,-84.79 983.89,-83.51"/>
<polygon fill="midnightblue" stroke="midnightblue" points="984.58,-80.08 974.03,-81 982.85,-86.86 984.58,-80.08"/>
</g>
<!-- Node17&#45;&gt;Node18 -->
<g id="edge20" class="edge">
<title>Node17&#45;&gt;Node18</title>
<path fill="none" stroke="midnightblue" d="M1280.93,-124.9C1235.73,-114.9 1156.41,-96.81 1128.5,-87 1126.88,-86.43 1125.23,-85.81 1123.58,-85.14"/>
<polygon fill="midnightblue" stroke="midnightblue" points="1124.86,-81.89 1114.3,-81.1 1122.07,-88.3 1124.86,-81.89"/>
</g>
<!-- Node19 -->
<g id="node19" class="node">
<title>Node19</title>
<g id="a_node19"><a xlink:title=" ">
<polygon fill="white" stroke="#bfbfbf" points="1137,-62 1137,-81 1202,-81 1202,-62 1137,-62"/>
<text text-anchor="middle" x="1169.5" y="-69" font-family="Helvetica,sans-Serif" font-size="10.00">functional</text>
</a>
</g>
</g>
<!-- Node17&#45;&gt;Node19 -->
<g id="edge21" class="edge">
<title>Node17&#45;&gt;Node19</title>
<path fill="none" stroke="midnightblue" d="M1292.86,-123.48C1268.38,-113.36 1227.35,-96.4 1199.39,-84.85"/>
<polygon fill="midnightblue" stroke="midnightblue" points="1200.67,-81.59 1190.09,-81.01 1197.99,-88.06 1200.67,-81.59"/>
</g>
<!-- Node20 -->
<g id="node20" class="node">
<title>Node20</title>
<g id="a_node20"><a xlink:title=" ">
<polygon fill="white" stroke="#bfbfbf" points="1220.5,-62 1220.5,-81 1270.5,-81 1270.5,-62 1220.5,-62"/>
<text text-anchor="middle" x="1245.5" y="-69" font-family="Helvetica,sans-Serif" font-size="10.00">chrono</text>
</a>
</g>
</g>
<!-- Node17&#45;&gt;Node20 -->
<g id="edge23" class="edge">
<title>Node17&#45;&gt;Node20</title>
<path fill="none" stroke="midnightblue" d="M1303.75,-123.48C1293.15,-114.2 1275.98,-99.17 1263.02,-87.83"/>
<polygon fill="midnightblue" stroke="midnightblue" points="1265.05,-84.96 1255.22,-81.01 1260.44,-90.23 1265.05,-84.96"/>
</g>
<!-- Node21 -->
<g id="node21" class="node">
<title>Node21</title>
<g id="a_node21"><a xlink:href="_backend_id_8hpp.html" target="_top" xlink:title=" ">
<polygon fill="white" stroke="black" points="1510.5,-62 1510.5,-81 1598.5,-81 1598.5,-62 1510.5,-62"/>
<text text-anchor="middle" x="1554.5" y="-69" font-family="Helvetica,sans-Serif" font-size="10.00">BackendId.hpp</text>
</a>
</g>
</g>
<!-- Node17&#45;&gt;Node21 -->
<g id="edge24" class="edge">
<title>Node17&#45;&gt;Node21</title>
<path fill="none" stroke="midnightblue" d="M1346,-123.98C1388.34,-113.52 1462.56,-95.2 1510.07,-83.47"/>
<polygon fill="midnightblue" stroke="midnightblue" points="1510.91,-86.86 1519.78,-81.07 1509.24,-80.07 1510.91,-86.86"/>
</g>
<!-- Node26 -->
<g id="node26" class="node">
<title>Node26</title>
<g id="a_node26"><a xlink:href="_deprecated_8hpp.html" target="_top" xlink:title=" ">
<polygon fill="white" stroke="black" points="1288.5,-62 1288.5,-81 1382.5,-81 1382.5,-62 1288.5,-62"/>
<text text-anchor="middle" x="1335.5" y="-69" font-family="Helvetica,sans-Serif" font-size="10.00">Deprecated.hpp</text>
</a>
</g>
</g>
<!-- Node17&#45;&gt;Node26 -->
<g id="edge32" class="edge">
<title>Node17&#45;&gt;Node26</title>
<path fill="none" stroke="midnightblue" d="M1316.65,-123.48C1319.82,-114.9 1324.8,-101.43 1328.85,-90.48"/>
<polygon fill="midnightblue" stroke="midnightblue" points="1332.16,-91.6 1332.35,-81.01 1325.6,-89.17 1332.16,-91.6"/>
</g>
<!-- Node21&#45;&gt;Node3 -->
<g id="edge26" class="edge">
<title>Node21&#45;&gt;Node3</title>
<path fill="none" stroke="midnightblue" d="M1565.38,-61.98C1577.46,-52.52 1597.16,-37.1 1611.74,-25.69"/>
<polygon fill="midnightblue" stroke="midnightblue" points="1613.91,-28.43 1619.63,-19.51 1609.6,-22.92 1613.91,-28.43"/>
</g>
<!-- Node21&#45;&gt;Node15 -->
<g id="edge28" class="edge">
<title>Node21&#45;&gt;Node15</title>
<path fill="none" stroke="midnightblue" d="M1522.71,-61.98C1514.23,-59.86 1505.04,-57.71 1496.5,-56 1400.86,-36.84 1286.44,-21.66 1231.73,-14.87"/>
<polygon fill="midnightblue" stroke="midnightblue" points="1231.96,-11.37 1221.6,-13.62 1231.1,-18.32 1231.96,-11.37"/>
</g>
<!-- Node22 -->
<g id="node22" class="node">
<title>Node22</title>
<g id="a_node22"><a xlink:title=" ">
<polygon fill="white" stroke="#bfbfbf" points="1525.5,-0.5 1525.5,-19.5 1583.5,-19.5 1583.5,-0.5 1525.5,-0.5"/>
<text text-anchor="middle" x="1554.5" y="-7.5" font-family="Helvetica,sans-Serif" font-size="10.00">memory</text>
</a>
</g>
</g>
<!-- Node21&#45;&gt;Node22 -->
<g id="edge25" class="edge">
<title>Node21&#45;&gt;Node22</title>
<path fill="none" stroke="midnightblue" d="M1554.5,-61.98C1554.5,-53.58 1554.5,-40.48 1554.5,-29.66"/>
<polygon fill="midnightblue" stroke="midnightblue" points="1558,-29.51 1554.5,-19.51 1551,-29.51 1558,-29.51"/>
</g>
<!-- Node23 -->
<g id="node23" class="node">
<title>Node23</title>
<g id="a_node23"><a xlink:title=" ">
<polygon fill="white" stroke="#bfbfbf" points="1727.5,-0.5 1727.5,-19.5 1759.5,-19.5 1759.5,-0.5 1727.5,-0.5"/>
<text text-anchor="middle" x="1743.5" y="-7.5" font-family="Helvetica,sans-Serif" font-size="10.00">set</text>
</a>
</g>
</g>
<!-- Node21&#45;&gt;Node23 -->
<g id="edge27" class="edge">
<title>Node21&#45;&gt;Node23</title>
<path fill="none" stroke="midnightblue" d="M1581.57,-61.98C1617.9,-50.54 1681.95,-30.37 1717.64,-19.14"/>
<polygon fill="midnightblue" stroke="midnightblue" points="1718.84,-22.43 1727.33,-16.09 1716.74,-15.75 1718.84,-22.43"/>
</g>
<!-- Node24 -->
<g id="node24" class="node">
<title>Node24</title>
<g id="a_node24"><a xlink:title=" ">
<polygon fill="white" stroke="#bfbfbf" points="1421.5,-0.5 1421.5,-19.5 1507.5,-19.5 1507.5,-0.5 1421.5,-0.5"/>
<text text-anchor="middle" x="1464.5" y="-7.5" font-family="Helvetica,sans-Serif" font-size="10.00">unordered_set</text>
</a>
</g>
</g>
<!-- Node21&#45;&gt;Node24 -->
<g id="edge29" class="edge">
<title>Node21&#45;&gt;Node24</title>
<path fill="none" stroke="midnightblue" d="M1541.6,-61.98C1527.03,-52.34 1503.09,-36.52 1485.75,-25.05"/>
<polygon fill="midnightblue" stroke="midnightblue" points="1487.64,-22.1 1477.37,-19.51 1483.78,-27.94 1487.64,-22.1"/>
</g>
<!-- Node21&#45;&gt;Node25 -->
<g id="edge30" class="edge">
<title>Node21&#45;&gt;Node25</title>
<path fill="none" stroke="midnightblue" d="M1510.18,-62.58C1495.37,-60.17 1478.76,-57.7 1463.5,-56 1215.63,-28.35 1152.27,-37.65 903.5,-20 875.71,-18.03 844.21,-15.57 821.05,-13.72"/>
<polygon fill="midnightblue" stroke="midnightblue" points="821.29,-10.23 811.04,-12.92 820.73,-17.21 821.29,-10.23"/>
</g>
<!-- Node30&#45;&gt;Node8 -->
<g id="edge42" class="edge">
<title>Node30&#45;&gt;Node8</title>
<path fill="none" stroke="midnightblue" d="M565.76,-235.24C553.61,-227.48 537.68,-214.93 530.5,-199 522.28,-180.79 527.17,-134.56 538.5,-123 573.17,-87.62 710.42,-98.95 758.5,-87 761.89,-86.16 765.39,-85.17 768.87,-84.12"/>
<polygon fill="midnightblue" stroke="midnightblue" points="770.04,-87.42 778.49,-81.03 767.9,-80.75 770.04,-87.42"/>
</g>
<!-- Node31 -->
<g id="node31" class="node">
<title>Node31</title>
<g id="a_node31"><a xlink:href="_assert_8hpp.html" target="_top" xlink:title=" ">
<polygon fill="white" stroke="black" points="539.5,-179.5 539.5,-198.5 607.5,-198.5 607.5,-179.5 539.5,-179.5"/>
<text text-anchor="middle" x="573.5" y="-186.5" font-family="Helvetica,sans-Serif" font-size="10.00">Assert.hpp</text>
</a>
</g>
</g>
<!-- Node30&#45;&gt;Node31 -->
<g id="edge40" class="edge">
<title>Node30&#45;&gt;Node31</title>
<path fill="none" stroke="midnightblue" d="M580.17,-235.08C579.11,-227.93 577.59,-217.64 576.26,-208.69"/>
<polygon fill="midnightblue" stroke="midnightblue" points="579.72,-208.13 574.79,-198.75 572.8,-209.16 579.72,-208.13"/>
</g>
<!-- Node33 -->
<g id="node33" class="node">
<title>Node33</title>
<g id="a_node33"><a xlink:title=" ">
<polygon fill="white" stroke="#bfbfbf" points="439.5,-179.5 439.5,-198.5 483.5,-198.5 483.5,-179.5 439.5,-179.5"/>
<text text-anchor="middle" x="461.5" y="-186.5" font-family="Helvetica,sans-Serif" font-size="10.00">limits</text>
</a>
</g>
</g>
<!-- Node30&#45;&gt;Node33 -->
<g id="edge43" class="edge">
<title>Node30&#45;&gt;Node33</title>
<path fill="none" stroke="midnightblue" d="M562.48,-235.44C542.91,-226.64 512.19,-212.81 489.77,-202.72"/>
<polygon fill="midnightblue" stroke="midnightblue" points="490.98,-199.43 480.42,-198.52 488.1,-205.81 490.98,-199.43"/>
</g>
<!-- Node32 -->
<g id="node32" class="node">
<title>Node32</title>
<g id="a_node32"><a xlink:title=" ">
<polygon fill="white" stroke="#bfbfbf" points="547.5,-123.5 547.5,-142.5 599.5,-142.5 599.5,-123.5 547.5,-123.5"/>
<text text-anchor="middle" x="573.5" y="-130.5" font-family="Helvetica,sans-Serif" font-size="10.00">cassert</text>
</a>
</g>
</g>
<!-- Node31&#45;&gt;Node32 -->
<g id="edge41" class="edge">
<title>Node31&#45;&gt;Node32</title>
<path fill="none" stroke="midnightblue" d="M573.5,-179.08C573.5,-172.01 573.5,-161.86 573.5,-152.99"/>
<polygon fill="midnightblue" stroke="midnightblue" points="577,-152.75 573.5,-142.75 570,-152.75 577,-152.75"/>
</g>
<!-- Node37&#45;&gt;Node25 -->
<g id="edge54" class="edge">
<title>Node37&#45;&gt;Node25</title>
<path fill="none" stroke="midnightblue" d="M270.59,-123.49C374.58,-100.86 656.63,-39.48 753.95,-18.3"/>
<polygon fill="midnightblue" stroke="midnightblue" points="754.81,-21.7 763.83,-16.15 753.32,-14.86 754.81,-21.7"/>
</g>
<!-- Node38 -->
<g id="node38" class="node">
<title>Node38</title>
<g id="a_node38"><a xlink:href="_instrument_8hpp.html" target="_top" xlink:title=" ">
<polygon fill="white" stroke="black" points="658,-62 658,-81 749,-81 749,-62 658,-62"/>
<text text-anchor="middle" x="703.5" y="-69" font-family="Helvetica,sans-Serif" font-size="10.00">Instrument.hpp</text>
</a>
</g>
</g>
<!-- Node37&#45;&gt;Node38 -->
<g id="edge49" class="edge">
<title>Node37&#45;&gt;Node38</title>
<path fill="none" stroke="midnightblue" d="M287.66,-124.76C292.34,-124.17 297,-123.57 301.5,-123 425.21,-107.28 570.37,-89.11 647.94,-79.43"/>
<polygon fill="midnightblue" stroke="midnightblue" points="648.48,-82.89 657.97,-78.17 647.62,-75.94 648.48,-82.89"/>
</g>
<!-- Node39 -->
<g id="node39" class="node">
<title>Node39</title>
<g id="a_node39"><a xlink:title=" ">
<polygon fill="white" stroke="#bfbfbf" points="30,-56.5 30,-86.5 155,-86.5 155,-56.5 30,-56.5"/>
<text text-anchor="start" x="38" y="-74.5" font-family="Helvetica,sans-Serif" font-size="10.00">arm_compute/runtime</text>
<text text-anchor="middle" x="92.5" y="-63.5" font-family="Helvetica,sans-Serif" font-size="10.00">/CL/CLScheduler.h</text>
</a>
</g>
</g>
<!-- Node37&#45;&gt;Node39 -->
<g id="edge52" class="edge">
<title>Node37&#45;&gt;Node39</title>
<path fill="none" stroke="midnightblue" d="M211.58,-123.48C191.61,-114.93 160.25,-101.5 134.72,-90.57"/>
<polygon fill="midnightblue" stroke="midnightblue" points="135.83,-87.24 125.26,-86.52 133.07,-93.68 135.83,-87.24"/>
</g>
<!-- Node40 -->
<g id="node40" class="node">
<title>Node40</title>
<g id="a_node40"><a xlink:title=" ">
<polygon fill="white" stroke="#bfbfbf" points="173,-56.5 173,-86.5 296,-86.5 296,-56.5 173,-56.5"/>
<text text-anchor="start" x="181" y="-74.5" font-family="Helvetica,sans-Serif" font-size="10.00">arm_compute/core/CL</text>
<text text-anchor="middle" x="234.5" y="-63.5" font-family="Helvetica,sans-Serif" font-size="10.00">/OpenCL.h</text>
</a>
</g>
</g>
<!-- Node37&#45;&gt;Node40 -->
<g id="edge53" class="edge">
<title>Node37&#45;&gt;Node40</title>
<path fill="none" stroke="midnightblue" d="M231.93,-123.48C232.28,-116.47 232.8,-106.19 233.28,-96.7"/>
<polygon fill="midnightblue" stroke="midnightblue" points="236.78,-96.69 233.79,-86.52 229.79,-96.33 236.78,-96.69"/>
</g>
<!-- Node41 -->
<g id="node41" class="node">
<title>Node41</title>
<g id="a_node41"><a xlink:title=" ">
<polygon fill="white" stroke="#bfbfbf" points="314.5,-62 314.5,-81 346.5,-81 346.5,-62 314.5,-62"/>
<text text-anchor="middle" x="330.5" y="-69" font-family="Helvetica,sans-Serif" font-size="10.00">list</text>
</a>
</g>
</g>
<!-- Node37&#45;&gt;Node41 -->
<g id="edge55" class="edge">
<title>Node37&#45;&gt;Node41</title>
<path fill="none" stroke="midnightblue" d="M245.68,-123.48C261.85,-113.75 288.52,-97.73 307.64,-86.24"/>
<polygon fill="midnightblue" stroke="midnightblue" points="309.57,-89.16 316.34,-81.01 305.96,-83.16 309.57,-89.16"/>
</g>
<!-- Node38&#45;&gt;Node15 -->
<g id="edge50" class="edge">
<title>Node38&#45;&gt;Node15</title>
<path fill="none" stroke="midnightblue" d="M732.42,-61.97C740.77,-59.75 749.95,-57.55 758.5,-56 909.74,-28.52 1093.45,-16.53 1166.88,-12.58"/>
<polygon fill="midnightblue" stroke="midnightblue" points="1167.5,-16.06 1177.3,-12.04 1167.13,-9.07 1167.5,-16.06"/>
</g>
<!-- Node38&#45;&gt;Node25 -->
<g id="edge51" class="edge">
<title>Node38&#45;&gt;Node25</title>
<path fill="none" stroke="midnightblue" d="M715.53,-61.98C729,-52.43 751.06,-36.81 767.21,-25.37"/>
<polygon fill="midnightblue" stroke="midnightblue" points="769.35,-28.15 775.48,-19.51 765.3,-22.43 769.35,-28.15"/>
</g>
<!-- Node42&#45;&gt;Node31 -->
<g id="edge73" class="edge">
<title>Node42&#45;&gt;Node31</title>
<path fill="none" stroke="midnightblue" d="M1193.69,-296.92C1156.31,-288.29 1099.15,-273.61 1051.5,-255 1033.35,-247.91 1031.2,-240.43 1012.5,-235 843.19,-185.88 791.89,-224.7 617.5,-199 617.39,-198.99 617.29,-198.97 617.19,-198.95"/>
<polygon fill="midnightblue" stroke="midnightblue" points="617.98,-195.54 607.54,-197.35 616.83,-202.44 617.98,-195.54"/>
</g>
<!-- Node43 -->
<g id="node43" class="node">
<title>Node43</title>
<g id="a_node43"><a xlink:href="_i_tensor_handle_8hpp.html" target="_top" xlink:title=" ">
<polygon fill="white" stroke="black" points="1060,-235.5 1060,-254.5 1167,-254.5 1167,-235.5 1060,-235.5"/>
<text text-anchor="middle" x="1113.5" y="-242.5" font-family="Helvetica,sans-Serif" font-size="10.00">ITensorHandle.hpp</text>
</a>
</g>
</g>
<!-- Node42&#45;&gt;Node43 -->
<g id="edge57" class="edge">
<title>Node42&#45;&gt;Node43</title>
<path fill="none" stroke="midnightblue" d="M1216.3,-296.98C1196.25,-287.03 1162.9,-270.49 1139.64,-258.96"/>
<polygon fill="midnightblue" stroke="midnightblue" points="1141.17,-255.82 1130.66,-254.51 1138.06,-262.09 1141.17,-255.82"/>
</g>
<!-- Node46 -->
<g id="node46" class="node">
<title>Node46</title>
<g id="a_node46"><a xlink:href="_types_utils_8hpp.html" target="_top" xlink:title=" ">
<polygon fill="white" stroke="black" points="1355.5,-235.5 1355.5,-254.5 1477.5,-254.5 1477.5,-235.5 1355.5,-235.5"/>
<text text-anchor="middle" x="1416.5" y="-242.5" font-family="Helvetica,sans-Serif" font-size="10.00">armnn/TypesUtils.hpp</text>
</a>
</g>
</g>
<!-- Node42&#45;&gt;Node46 -->
<g id="edge63" class="edge">
<title>Node42&#45;&gt;Node46</title>
<path fill="none" stroke="midnightblue" d="M1259.72,-296.98C1291.51,-286.64 1345.26,-269.16 1380.81,-257.6"/>
<polygon fill="midnightblue" stroke="midnightblue" points="1381.9,-260.93 1390.32,-254.51 1379.73,-254.27 1381.9,-260.93"/>
</g>
<!-- Node47 -->
<g id="node47" class="node">
<title>Node47</title>
<g id="a_node47"><a xlink:href="_compatible_types_8hpp.html" target="_top" xlink:title=" ">
<polygon fill="white" stroke="black" points="1144,-179.5 1144,-198.5 1323,-198.5 1323,-179.5 1144,-179.5"/>
<text text-anchor="middle" x="1233.5" y="-186.5" font-family="Helvetica,sans-Serif" font-size="10.00">armnnUtils/CompatibleTypes.hpp</text>
</a>
</g>
</g>
<!-- Node42&#45;&gt;Node47 -->
<g id="edge74" class="edge">
<title>Node42&#45;&gt;Node47</title>
<path fill="none" stroke="midnightblue" d="M1233.5,-296.82C1233.5,-278.26 1233.5,-234.34 1233.5,-208.97"/>
<polygon fill="midnightblue" stroke="midnightblue" points="1237,-208.78 1233.5,-198.78 1230,-208.78 1237,-208.78"/>
</g>
<!-- Node48 -->
<g id="node48" class="node">
<title>Node48</title>
<g id="a_node48"><a xlink:title=" ">
<polygon fill="white" stroke="#bfbfbf" points="1261.5,-235.5 1261.5,-254.5 1325.5,-254.5 1325.5,-235.5 1261.5,-235.5"/>
<text text-anchor="middle" x="1293.5" y="-242.5" font-family="Helvetica,sans-Serif" font-size="10.00">algorithm</text>
</a>
</g>
</g>
<!-- Node42&#45;&gt;Node48 -->
<g id="edge76" class="edge">
<title>Node42&#45;&gt;Node48</title>
<path fill="none" stroke="midnightblue" d="M1242.09,-296.98C1251.36,-287.78 1266.31,-272.96 1277.71,-261.66"/>
<polygon fill="midnightblue" stroke="midnightblue" points="1280.28,-264.04 1284.92,-254.51 1275.35,-259.07 1280.28,-264.04"/>
</g>
<!-- Node43&#45;&gt;Node11 -->
<g id="edge62" class="edge">
<title>Node43&#45;&gt;Node11</title>
<path fill="none" stroke="midnightblue" d="M1107.06,-235.08C1101.55,-227.46 1093.46,-216.26 1086.73,-206.94"/>
<polygon fill="midnightblue" stroke="midnightblue" points="1089.51,-204.81 1080.82,-198.75 1083.83,-208.91 1089.51,-204.81"/>
</g>
<!-- Node44 -->
<g id="node44" class="node">
<title>Node44</title>
<g id="a_node44"><a xlink:href="_memory_sources_8hpp.html" target="_top" xlink:title=" ">
<polygon fill="white" stroke="black" points="815,-179.5 815,-198.5 966,-198.5 966,-179.5 815,-179.5"/>
<text text-anchor="middle" x="890.5" y="-186.5" font-family="Helvetica,sans-Serif" font-size="10.00">armnn/MemorySources.hpp</text>
</a>
</g>
</g>
<!-- Node43&#45;&gt;Node44 -->
<g id="edge58" class="edge">
<title>Node43&#45;&gt;Node44</title>
<path fill="none" stroke="midnightblue" d="M1078.16,-235.44C1039.59,-226.1 977.71,-211.12 935.64,-200.93"/>
<polygon fill="midnightblue" stroke="midnightblue" points="936.21,-197.47 925.67,-198.52 934.56,-204.27 936.21,-197.47"/>
</g>
<!-- Node45 -->
<g id="node45" class="node">
<title>Node45</title>
<g id="a_node45"><a xlink:href="_ignore_unused_8hpp.html" target="_top" xlink:title=" ">
<polygon fill="white" stroke="black" points="626,-179.5 626,-198.5 797,-198.5 797,-179.5 626,-179.5"/>
<text text-anchor="middle" x="711.5" y="-186.5" font-family="Helvetica,sans-Serif" font-size="10.00">armnn/utility/IgnoreUnused.hpp</text>
</a>
</g>
</g>
<!-- Node43&#45;&gt;Node45 -->
<g id="edge61" class="edge">
<title>Node43&#45;&gt;Node45</title>
<path fill="none" stroke="midnightblue" d="M1059.7,-236.77C988.91,-227.26 864.21,-210.51 784.83,-199.85"/>
<polygon fill="midnightblue" stroke="midnightblue" points="785.28,-196.38 774.91,-198.52 784.35,-203.32 785.28,-196.38"/>
</g>
<!-- Node44&#45;&gt;Node8 -->
<g id="edge60" class="edge">
<title>Node44&#45;&gt;Node8</title>
<path fill="none" stroke="midnightblue" d="M868,-179.43C851.84,-172.14 830.82,-160.1 818.5,-143 807.59,-127.86 803.61,-106.62 802.2,-91.42"/>
<polygon fill="midnightblue" stroke="midnightblue" points="805.67,-90.93 801.54,-81.17 798.69,-91.37 805.67,-90.93"/>
</g>
<!-- Node44&#45;&gt;Node17 -->
<g id="edge59" class="edge">
<title>Node44&#45;&gt;Node17</title>
<path fill="none" stroke="midnightblue" d="M957.52,-179.44C1045.34,-168.23 1196.81,-148.9 1270.6,-139.48"/>
<polygon fill="midnightblue" stroke="midnightblue" points="1271.43,-142.9 1280.9,-138.16 1270.54,-135.96 1271.43,-142.9"/>
</g>
<!-- Node46&#45;&gt;Node3 -->
<g id="edge70" class="edge">
<title>Node46&#45;&gt;Node3</title>
<path fill="none" stroke="midnightblue" d="M1424.66,-235.48C1433.21,-226.5 1446.96,-211.91 1458.5,-199 1488.11,-165.86 1487.69,-149.33 1523.5,-123 1556.22,-98.94 1580.41,-117.27 1607.5,-87 1621.69,-71.14 1627.13,-46.77 1629.21,-29.92"/>
<polygon fill="midnightblue" stroke="midnightblue" points="1632.72,-29.94 1630.18,-19.66 1625.75,-29.28 1632.72,-29.94"/>
</g>
<!-- Node46&#45;&gt;Node4 -->
<g id="edge69" class="edge">
<title>Node46&#45;&gt;Node4</title>
<path fill="none" stroke="midnightblue" d="M1436.81,-235.45C1457.35,-226.69 1489.9,-212.49 1517.5,-199 1565.01,-175.78 1577.88,-171.39 1622.5,-143 1649.98,-125.51 1679.76,-102.4 1698.27,-87.5"/>
<polygon fill="midnightblue" stroke="midnightblue" points="1700.61,-90.11 1706.16,-81.09 1696.19,-84.67 1700.61,-90.11"/>
</g>
<!-- Node46&#45;&gt;Node6 -->
<g id="edge68" class="edge">
<title>Node46&#45;&gt;Node6</title>
<path fill="none" stroke="midnightblue" d="M1417.06,-235.26C1418.76,-208.65 1423.92,-128.21 1426.29,-91.34"/>
<polygon fill="midnightblue" stroke="midnightblue" points="1429.8,-91.22 1426.95,-81.02 1422.82,-90.77 1429.8,-91.22"/>
</g>
<!-- Node46&#45;&gt;Node8 -->
<g id="edge72" class="edge">
<title>Node46&#45;&gt;Node8</title>
<path fill="none" stroke="midnightblue" d="M1355.37,-237.23C1243.39,-224.81 1016.52,-199.61 1014.5,-199 995.84,-193.38 993.44,-186.57 975.5,-179 929.27,-159.5 910.8,-169.98 868.5,-143 846.12,-128.73 825.97,-105.41 813.74,-89.53"/>
<polygon fill="midnightblue" stroke="midnightblue" points="816.29,-87.09 807.5,-81.17 810.67,-91.28 816.29,-87.09"/>
</g>
<!-- Node46&#45;&gt;Node11 -->
<g id="edge66" class="edge">
<title>Node46&#45;&gt;Node11</title>
<path fill="none" stroke="midnightblue" d="M1362.3,-235.44C1300.8,-225.73 1200.69,-209.92 1136.22,-199.75"/>
<polygon fill="midnightblue" stroke="midnightblue" points="1136.62,-196.27 1126.19,-198.16 1135.53,-203.18 1136.62,-196.27"/>
</g>
<!-- Node46&#45;&gt;Node12 -->
<g id="edge65" class="edge">
<title>Node46&#45;&gt;Node12</title>
<path fill="none" stroke="midnightblue" d="M1407.3,-235.45C1392.48,-222.01 1361.99,-195.77 1332.5,-179 1199.03,-103.09 1149.27,-120.81 999.5,-87 994.81,-85.94 989.91,-84.76 985.06,-83.54"/>
<polygon fill="midnightblue" stroke="midnightblue" points="985.79,-80.12 975.23,-81.02 984.05,-86.9 985.79,-80.12"/>
</g>
<!-- Node46&#45;&gt;Node17 -->
<g id="edge67" class="edge">
<title>Node46&#45;&gt;Node17</title>
<path fill="none" stroke="midnightblue" d="M1410.39,-235.16C1401.29,-222.23 1383.31,-197.69 1365.5,-179 1355.33,-168.33 1342.88,-157.49 1332.71,-149.12"/>
<polygon fill="midnightblue" stroke="midnightblue" points="1334.78,-146.3 1324.8,-142.73 1330.38,-151.74 1334.78,-146.3"/>
</g>
<!-- Node46&#45;&gt;Node21 -->
<g id="edge64" class="edge">
<title>Node46&#45;&gt;Node21</title>
<path fill="none" stroke="midnightblue" d="M1420.33,-235.38C1429.89,-214.5 1456.41,-160.23 1489.5,-123 1501.91,-109.03 1518.61,-96.15 1531.98,-86.89"/>
<polygon fill="midnightblue" stroke="midnightblue" points="1534.25,-89.58 1540.6,-81.1 1530.35,-83.77 1534.25,-89.58"/>
</g>
<!-- Node46&#45;&gt;Node23 -->
<g id="edge71" class="edge">
<title>Node46&#45;&gt;Node23</title>
<path fill="none" stroke="midnightblue" d="M1477.77,-235.65C1570.3,-221.65 1738.74,-190.24 1774.5,-143 1800.68,-108.41 1773.1,-55.22 1755.6,-28.13"/>
<polygon fill="midnightblue" stroke="midnightblue" points="1758.42,-26.06 1749.93,-19.71 1752.61,-29.96 1758.42,-26.06"/>
</g>
<!-- Node47&#45;&gt;Node17 -->
<g id="edge75" class="edge">
<title>Node47&#45;&gt;Node17</title>
<path fill="none" stroke="midnightblue" d="M1246.35,-179.32C1258.71,-170.98 1277.63,-158.21 1292.23,-148.35"/>
<polygon fill="midnightblue" stroke="midnightblue" points="1294.34,-151.15 1300.67,-142.65 1290.43,-145.35 1294.34,-151.15"/>
</g>
<!-- Node49&#45;&gt;Node4 -->
<g id="edge79" class="edge">
<title>Node49&#45;&gt;Node4</title>
<path fill="none" stroke="midnightblue" d="M1717.35,-123.48C1717.21,-115.08 1716.99,-101.98 1716.81,-91.16"/>
<polygon fill="midnightblue" stroke="midnightblue" points="1720.31,-90.95 1716.64,-81.01 1713.31,-91.07 1720.31,-90.95"/>
</g>
<!-- Node49&#45;&gt;Node15 -->
<g id="edge78" class="edge">
<title>Node49&#45;&gt;Node15</title>
<path fill="none" stroke="midnightblue" d="M1669.93,-128.63C1624.72,-123.94 1555.78,-112.88 1501.5,-87 1481.82,-77.62 1483.34,-65.02 1463.5,-56 1385.65,-20.62 1283.39,-12.85 1231.98,-11.28"/>
<polygon fill="midnightblue" stroke="midnightblue" points="1231.9,-7.78 1221.81,-11.03 1231.72,-14.77 1231.9,-7.78"/>
</g>
</g>
</svg>
