<?xml version="1.0" encoding="UTF-8" standalone="no"?>
<!DOCTYPE svg PUBLIC "-//W3C//DTD SVG 1.1//EN"
 "http://www.w3.org/Graphics/SVG/1.1/DTD/svg11.dtd">
<!-- Generated by graphviz version 2.43.0 (0)
 -->
<!-- Title: src/backends/reference/workloads/Concatenate.hpp Pages: 1 -->
<svg width="1498pt" height="442pt"
 viewBox="0.00 0.00 1497.50 442.00" xmlns="http://www.w3.org/2000/svg" xmlns:xlink="http://www.w3.org/1999/xlink">
<g id="graph0" class="graph" transform="scale(1 1) rotate(0) translate(4 438)">
<title>src/backends/reference/workloads/Concatenate.hpp</title>
<polygon fill="white" stroke="transparent" points="-4,4 -4,-438 1493.5,-438 1493.5,4 -4,4"/>
<!-- Node1 -->
<g id="node1" class="node">
<title>Node1</title>
<g id="a_node1"><a xlink:title=" ">
<polygon fill="#bfbfbf" stroke="black" points="537,-403.5 537,-433.5 692,-433.5 692,-403.5 537,-403.5"/>
<text text-anchor="start" x="545" y="-421.5" font-family="Helvetica,sans-Serif" font-size="10.00">src/backends/reference</text>
<text text-anchor="middle" x="614.5" y="-410.5" font-family="Helvetica,sans-Serif" font-size="10.00">/workloads/Concatenate.hpp</text>
</a>
</g>
</g>
<!-- Node2 -->
<g id="node2" class="node">
<title>Node2</title>
<g id="a_node2"><a xlink:href="_workload_data_8hpp.html" target="_top" xlink:title=" ">
<polygon fill="white" stroke="black" points="836.5,-347.5 836.5,-366.5 1026.5,-366.5 1026.5,-347.5 836.5,-347.5"/>
<text text-anchor="middle" x="931.5" y="-354.5" font-family="Helvetica,sans-Serif" font-size="10.00">armnn/backends/WorkloadData.hpp</text>
</a>
</g>
</g>
<!-- Node1&#45;&gt;Node2 -->
<g id="edge1" class="edge">
<title>Node1&#45;&gt;Node2</title>
<path fill="none" stroke="midnightblue" d="M689.22,-403.47C746.54,-392.72 824.37,-378.11 876.18,-368.38"/>
<polygon fill="midnightblue" stroke="midnightblue" points="877,-371.79 886.18,-366.51 875.71,-364.91 877,-371.79"/>
</g>
<!-- Node24 -->
<g id="node24" class="node">
<title>Node24</title>
<g id="a_node24"><a xlink:href="_tensor_8hpp.html" target="_top" xlink:title=" ">
<polygon fill="white" stroke="black" points="475,-168.5 475,-187.5 578,-187.5 578,-168.5 475,-168.5"/>
<text text-anchor="middle" x="526.5" y="-175.5" font-family="Helvetica,sans-Serif" font-size="10.00">armnn/Tensor.hpp</text>
</a>
</g>
</g>
<!-- Node1&#45;&gt;Node24 -->
<g id="edge66" class="edge">
<title>Node1&#45;&gt;Node24</title>
<path fill="none" stroke="midnightblue" d="M577.99,-403.45C523.71,-380.11 424.95,-327.48 395.5,-244 392.54,-235.62 390.34,-231.23 395.5,-224 405.25,-210.34 443.3,-198.2 475.9,-189.98"/>
<polygon fill="midnightblue" stroke="midnightblue" points="476.92,-193.34 485.81,-187.56 475.26,-186.54 476.92,-193.34"/>
</g>
<!-- Node3 -->
<g id="node3" class="node">
<title>Node3</title>
<g id="a_node3"><a xlink:href="_tensor_handle_8hpp.html" target="_top" xlink:title=" ">
<polygon fill="white" stroke="black" points="566.5,-286 566.5,-305 670.5,-305 670.5,-286 566.5,-286"/>
<text text-anchor="middle" x="618.5" y="-293" font-family="Helvetica,sans-Serif" font-size="10.00">TensorHandle.hpp</text>
</a>
</g>
</g>
<!-- Node2&#45;&gt;Node3 -->
<g id="edge2" class="edge">
<title>Node2&#45;&gt;Node3</title>
<path fill="none" stroke="midnightblue" d="M886.65,-347.48C830.41,-336.78 734.01,-318.46 673.41,-306.94"/>
<polygon fill="midnightblue" stroke="midnightblue" points="673.74,-303.44 663.26,-305.01 672.43,-310.32 673.74,-303.44"/>
</g>
<!-- Node6 -->
<g id="node6" class="node">
<title>Node6</title>
<g id="a_node6"><a xlink:href="_types_8hpp.html" target="_top" xlink:title=" ">
<polygon fill="white" stroke="black" points="580.5,-112.5 580.5,-131.5 680.5,-131.5 680.5,-112.5 580.5,-112.5"/>
<text text-anchor="middle" x="630.5" y="-119.5" font-family="Helvetica,sans-Serif" font-size="10.00">armnn/Types.hpp</text>
</a>
</g>
</g>
<!-- Node2&#45;&gt;Node6 -->
<g id="edge63" class="edge">
<title>Node2&#45;&gt;Node6</title>
<path fill="none" stroke="midnightblue" d="M939.71,-347.18C947.04,-338.66 957.26,-325.02 961.5,-311 972.7,-273.99 976.91,-259.46 961.5,-224 946.96,-190.55 934.22,-184.12 901.5,-168 834.44,-134.96 747.9,-125.51 690.88,-123.15"/>
<polygon fill="midnightblue" stroke="midnightblue" points="690.71,-119.64 680.59,-122.79 690.46,-126.64 690.71,-119.64"/>
</g>
<!-- Node18 -->
<g id="node18" class="node">
<title>Node18</title>
<g id="a_node18"><a xlink:href="_exceptions_8hpp.html" target="_top" xlink:title=" ">
<polygon fill="white" stroke="black" points="750,-56.5 750,-75.5 841,-75.5 841,-56.5 750,-56.5"/>
<text text-anchor="middle" x="795.5" y="-63.5" font-family="Helvetica,sans-Serif" font-size="10.00">Exceptions.hpp</text>
</a>
</g>
</g>
<!-- Node2&#45;&gt;Node18 -->
<g id="edge62" class="edge">
<title>Node2&#45;&gt;Node18</title>
<path fill="none" stroke="midnightblue" d="M943.96,-347.26C968.02,-329.25 1018.5,-285.45 1018.5,-235 1018.5,-235 1018.5,-235 1018.5,-177 1018.5,-137.05 901.92,-97.36 837.34,-78.45"/>
<polygon fill="midnightblue" stroke="midnightblue" points="838.03,-75 827.45,-75.59 836.09,-81.73 838.03,-75"/>
</g>
<!-- Node21 -->
<g id="node21" class="node">
<title>Node21</title>
<g id="a_node21"><a xlink:href="_deprecated_8hpp.html" target="_top" xlink:title=" ">
<polygon fill="white" stroke="black" points="1395.5,-56.5 1395.5,-75.5 1489.5,-75.5 1489.5,-56.5 1395.5,-56.5"/>
<text text-anchor="middle" x="1442.5" y="-63.5" font-family="Helvetica,sans-Serif" font-size="10.00">Deprecated.hpp</text>
</a>
</g>
</g>
<!-- Node2&#45;&gt;Node21 -->
<g id="edge51" class="edge">
<title>Node2&#45;&gt;Node21</title>
<path fill="none" stroke="midnightblue" d="M1026.5,-354.36C1183.63,-349.05 1480.5,-326.87 1480.5,-235 1480.5,-235 1480.5,-235 1480.5,-177 1480.5,-142.81 1463.9,-105.76 1452.64,-84.57"/>
<polygon fill="midnightblue" stroke="midnightblue" points="1455.68,-82.83 1447.78,-75.77 1449.55,-86.22 1455.68,-82.83"/>
</g>
<!-- Node2&#45;&gt;Node24 -->
<g id="edge64" class="edge">
<title>Node2&#45;&gt;Node24</title>
<path fill="none" stroke="midnightblue" d="M836.37,-351.21C697.39,-341.84 450.25,-315.32 403.5,-244 384.52,-215.04 425.36,-198.13 464.99,-188.86"/>
<polygon fill="midnightblue" stroke="midnightblue" points="465.98,-192.23 475,-186.66 464.48,-185.39 465.98,-192.23"/>
</g>
<!-- Node35 -->
<g id="node35" class="node">
<title>Node35</title>
<g id="a_node35"><a xlink:href="_descriptors_8hpp.html" target="_top" xlink:title=" ">
<polygon fill="white" stroke="black" points="1065.5,-224.5 1065.5,-243.5 1193.5,-243.5 1193.5,-224.5 1065.5,-224.5"/>
<text text-anchor="middle" x="1129.5" y="-231.5" font-family="Helvetica,sans-Serif" font-size="10.00">armnn/Descriptors.hpp</text>
</a>
</g>
</g>
<!-- Node2&#45;&gt;Node35 -->
<g id="edge52" class="edge">
<title>Node2&#45;&gt;Node35</title>
<path fill="none" stroke="midnightblue" d="M955.17,-347.36C976.18,-339.26 1007.34,-326.15 1032.5,-311 1062.54,-292.92 1093.88,-266.84 1112.53,-250.41"/>
<polygon fill="midnightblue" stroke="midnightblue" points="1115.03,-252.87 1120.16,-243.61 1110.37,-247.65 1115.03,-252.87"/>
</g>
<!-- Node39 -->
<g id="node39" class="node">
<title>Node39</title>
<g id="a_node39"><a xlink:title=" ">
<polygon fill="white" stroke="#bfbfbf" points="812.5,-280.5 812.5,-310.5 952.5,-310.5 952.5,-280.5 812.5,-280.5"/>
<text text-anchor="start" x="820.5" y="-298.5" font-family="Helvetica,sans-Serif" font-size="10.00">common/include/Profiling</text>
<text text-anchor="middle" x="882.5" y="-287.5" font-family="Helvetica,sans-Serif" font-size="10.00">Guid.hpp</text>
</a>
</g>
</g>
<!-- Node2&#45;&gt;Node39 -->
<g id="edge65" class="edge">
<title>Node2&#45;&gt;Node39</title>
<path fill="none" stroke="midnightblue" d="M924.48,-347.48C918.22,-339.87 908.77,-328.4 900.42,-318.26"/>
<polygon fill="midnightblue" stroke="midnightblue" points="903.11,-316.02 894.05,-310.52 897.7,-320.47 903.11,-316.02"/>
</g>
<!-- Node4 -->
<g id="node4" class="node">
<title>Node4</title>
<g id="a_node4"><a xlink:href="_i_tensor_handle_8hpp.html" target="_top" xlink:title=" ">
<polygon fill="white" stroke="black" points="495,-224.5 495,-243.5 602,-243.5 602,-224.5 495,-224.5"/>
<text text-anchor="middle" x="548.5" y="-231.5" font-family="Helvetica,sans-Serif" font-size="10.00">ITensorHandle.hpp</text>
</a>
</g>
</g>
<!-- Node3&#45;&gt;Node4 -->
<g id="edge3" class="edge">
<title>Node3&#45;&gt;Node4</title>
<path fill="none" stroke="midnightblue" d="M608.47,-285.98C597.45,-276.61 579.54,-261.38 566.16,-250.01"/>
<polygon fill="midnightblue" stroke="midnightblue" points="568.4,-247.32 558.51,-243.51 563.86,-252.65 568.4,-247.32"/>
</g>
<!-- Node29 -->
<g id="node29" class="node">
<title>Node29</title>
<g id="a_node29"><a xlink:href="_types_utils_8hpp.html" target="_top" xlink:title=" ">
<polygon fill="white" stroke="black" points="158.5,-224.5 158.5,-243.5 280.5,-243.5 280.5,-224.5 158.5,-224.5"/>
<text text-anchor="middle" x="219.5" y="-231.5" font-family="Helvetica,sans-Serif" font-size="10.00">armnn/TypesUtils.hpp</text>
</a>
</g>
</g>
<!-- Node3&#45;&gt;Node29 -->
<g id="edge36" class="edge">
<title>Node3&#45;&gt;Node29</title>
<path fill="none" stroke="midnightblue" d="M566.34,-286.72C494.67,-276.03 365.69,-256.8 286.82,-245.04"/>
<polygon fill="midnightblue" stroke="midnightblue" points="286.92,-241.51 276.51,-243.5 285.89,-248.44 286.92,-241.51"/>
</g>
<!-- Node31 -->
<g id="node31" class="node">
<title>Node31</title>
<g id="a_node31"><a xlink:href="_assert_8hpp.html" target="_top" xlink:title=" ">
<polygon fill="white" stroke="black" points="620.5,-224.5 620.5,-243.5 754.5,-243.5 754.5,-224.5 620.5,-224.5"/>
<text text-anchor="middle" x="687.5" y="-231.5" font-family="Helvetica,sans-Serif" font-size="10.00">armnn/utility/Assert.hpp</text>
</a>
</g>
</g>
<!-- Node3&#45;&gt;Node31 -->
<g id="edge46" class="edge">
<title>Node3&#45;&gt;Node31</title>
<path fill="none" stroke="midnightblue" d="M628.39,-285.98C639.15,-276.7 656.57,-261.67 669.72,-250.33"/>
<polygon fill="midnightblue" stroke="midnightblue" points="672.34,-252.69 677.63,-243.51 667.77,-247.39 672.34,-252.69"/>
</g>
<!-- Node33 -->
<g id="node33" class="node">
<title>Node33</title>
<g id="a_node33"><a xlink:href="_compatible_types_8hpp.html" target="_top" xlink:title=" ">
<polygon fill="white" stroke="black" points="773,-224.5 773,-243.5 952,-243.5 952,-224.5 773,-224.5"/>
<text text-anchor="middle" x="862.5" y="-231.5" font-family="Helvetica,sans-Serif" font-size="10.00">armnnUtils/CompatibleTypes.hpp</text>
</a>
</g>
</g>
<!-- Node3&#45;&gt;Node33 -->
<g id="edge48" class="edge">
<title>Node3&#45;&gt;Node33</title>
<path fill="none" stroke="midnightblue" d="M653.46,-285.98C696.67,-275.44 770.29,-257.49 817.63,-245.94"/>
<polygon fill="midnightblue" stroke="midnightblue" points="818.72,-249.28 827.61,-243.51 817.06,-242.48 818.72,-249.28"/>
</g>
<!-- Node34 -->
<g id="node34" class="node">
<title>Node34</title>
<g id="a_node34"><a xlink:title=" ">
<polygon fill="white" stroke="#bfbfbf" points="412.5,-224.5 412.5,-243.5 476.5,-243.5 476.5,-224.5 412.5,-224.5"/>
<text text-anchor="middle" x="444.5" y="-231.5" font-family="Helvetica,sans-Serif" font-size="10.00">algorithm</text>
</a>
</g>
</g>
<!-- Node3&#45;&gt;Node34 -->
<g id="edge50" class="edge">
<title>Node3&#45;&gt;Node34</title>
<path fill="none" stroke="midnightblue" d="M593.57,-285.98C563.46,-275.68 512.67,-258.31 478.86,-246.75"/>
<polygon fill="midnightblue" stroke="midnightblue" points="479.98,-243.43 469.38,-243.51 477.71,-250.06 479.98,-243.43"/>
</g>
<!-- Node5 -->
<g id="node5" class="node">
<title>Node5</title>
<g id="a_node5"><a xlink:href="_memory_sources_8hpp.html" target="_top" xlink:title=" ">
<polygon fill="white" stroke="black" points="267,-168.5 267,-187.5 418,-187.5 418,-168.5 267,-168.5"/>
<text text-anchor="middle" x="342.5" y="-175.5" font-family="Helvetica,sans-Serif" font-size="10.00">armnn/MemorySources.hpp</text>
</a>
</g>
</g>
<!-- Node4&#45;&gt;Node5 -->
<g id="edge4" class="edge">
<title>Node4&#45;&gt;Node5</title>
<path fill="none" stroke="midnightblue" d="M515.86,-224.44C480.45,-215.16 423.79,-200.31 384.95,-190.13"/>
<polygon fill="midnightblue" stroke="midnightblue" points="385.55,-186.67 374.99,-187.52 383.77,-193.44 385.55,-186.67"/>
</g>
<!-- Node23 -->
<g id="node23" class="node">
<title>Node23</title>
<g id="a_node23"><a xlink:href="_ignore_unused_8hpp.html" target="_top" xlink:title=" ">
<polygon fill="white" stroke="black" points="635,-168.5 635,-187.5 806,-187.5 806,-168.5 635,-168.5"/>
<text text-anchor="middle" x="720.5" y="-175.5" font-family="Helvetica,sans-Serif" font-size="10.00">armnn/utility/IgnoreUnused.hpp</text>
</a>
</g>
</g>
<!-- Node4&#45;&gt;Node23 -->
<g id="edge23" class="edge">
<title>Node4&#45;&gt;Node23</title>
<path fill="none" stroke="midnightblue" d="M575.75,-224.44C604.94,-215.28 651.42,-200.69 683.81,-190.52"/>
<polygon fill="midnightblue" stroke="midnightblue" points="684.88,-193.85 693.37,-187.52 682.78,-187.17 684.88,-193.85"/>
</g>
<!-- Node4&#45;&gt;Node24 -->
<g id="edge24" class="edge">
<title>Node4&#45;&gt;Node24</title>
<path fill="none" stroke="midnightblue" d="M544.87,-224.08C541.89,-216.77 537.57,-206.18 533.88,-197.1"/>
<polygon fill="midnightblue" stroke="midnightblue" points="537.08,-195.69 530.07,-187.75 530.6,-198.33 537.08,-195.69"/>
</g>
<!-- Node5&#45;&gt;Node6 -->
<g id="edge5" class="edge">
<title>Node5&#45;&gt;Node6</title>
<path fill="none" stroke="midnightblue" d="M388.13,-168.44C438.8,-158.94 520.57,-143.61 574.93,-133.42"/>
<polygon fill="midnightblue" stroke="midnightblue" points="575.9,-136.8 585.08,-131.52 574.61,-129.92 575.9,-136.8"/>
</g>
<!-- Node22 -->
<g id="node22" class="node">
<title>Node22</title>
<g id="a_node22"><a xlink:title=" ">
<polygon fill="white" stroke="#bfbfbf" points="90,-56.5 90,-75.5 159,-75.5 159,-56.5 90,-56.5"/>
<text text-anchor="middle" x="124.5" y="-63.5" font-family="Helvetica,sans-Serif" font-size="10.00">type_traits</text>
</a>
</g>
</g>
<!-- Node5&#45;&gt;Node22 -->
<g id="edge22" class="edge">
<title>Node5&#45;&gt;Node22</title>
<path fill="none" stroke="midnightblue" d="M312.8,-168.43C287.34,-160.55 250.03,-147.71 219.5,-132 191.28,-117.47 161.5,-95.95 142.97,-81.7"/>
<polygon fill="midnightblue" stroke="midnightblue" points="145.1,-78.92 135.06,-75.54 140.8,-84.45 145.1,-78.92"/>
</g>
<!-- Node7 -->
<g id="node7" class="node">
<title>Node7</title>
<g id="a_node7"><a xlink:title=" ">
<polygon fill="white" stroke="#bfbfbf" points="537.5,-56.5 537.5,-75.5 579.5,-75.5 579.5,-56.5 537.5,-56.5"/>
<text text-anchor="middle" x="558.5" y="-63.5" font-family="Helvetica,sans-Serif" font-size="10.00">array</text>
</a>
</g>
</g>
<!-- Node6&#45;&gt;Node7 -->
<g id="edge6" class="edge">
<title>Node6&#45;&gt;Node7</title>
<path fill="none" stroke="midnightblue" d="M618.93,-112.32C608.08,-104.18 591.62,-91.84 578.62,-82.09"/>
<polygon fill="midnightblue" stroke="midnightblue" points="580.38,-79.03 570.28,-75.83 576.18,-84.63 580.38,-79.03"/>
</g>
<!-- Node8 -->
<g id="node8" class="node">
<title>Node8</title>
<g id="a_node8"><a xlink:title=" ">
<polygon fill="white" stroke="#bfbfbf" points="598,-56.5 598,-75.5 663,-75.5 663,-56.5 598,-56.5"/>
<text text-anchor="middle" x="630.5" y="-63.5" font-family="Helvetica,sans-Serif" font-size="10.00">functional</text>
</a>
</g>
</g>
<!-- Node6&#45;&gt;Node8 -->
<g id="edge7" class="edge">
<title>Node6&#45;&gt;Node8</title>
<path fill="none" stroke="midnightblue" d="M630.5,-112.08C630.5,-105.01 630.5,-94.86 630.5,-85.99"/>
<polygon fill="midnightblue" stroke="midnightblue" points="634,-85.75 630.5,-75.75 627,-85.75 634,-85.75"/>
</g>
<!-- Node9 -->
<g id="node9" class="node">
<title>Node9</title>
<g id="a_node9"><a xlink:title=" ">
<polygon fill="white" stroke="#bfbfbf" points="352,-56.5 352,-75.5 405,-75.5 405,-56.5 352,-56.5"/>
<text text-anchor="middle" x="378.5" y="-63.5" font-family="Helvetica,sans-Serif" font-size="10.00">stdint.h</text>
</a>
</g>
</g>
<!-- Node6&#45;&gt;Node9 -->
<g id="edge8" class="edge">
<title>Node6&#45;&gt;Node9</title>
<path fill="none" stroke="midnightblue" d="M590.57,-112.44C542.31,-102.1 461.8,-84.85 415.09,-74.84"/>
<polygon fill="midnightblue" stroke="midnightblue" points="415.61,-71.37 405.1,-72.7 414.15,-78.22 415.61,-71.37"/>
</g>
<!-- Node10 -->
<g id="node10" class="node">
<title>Node10</title>
<g id="a_node10"><a xlink:title=" ">
<polygon fill="white" stroke="#bfbfbf" points="681.5,-56.5 681.5,-75.5 731.5,-75.5 731.5,-56.5 681.5,-56.5"/>
<text text-anchor="middle" x="706.5" y="-63.5" font-family="Helvetica,sans-Serif" font-size="10.00">chrono</text>
</a>
</g>
</g>
<!-- Node6&#45;&gt;Node10 -->
<g id="edge9" class="edge">
<title>Node6&#45;&gt;Node10</title>
<path fill="none" stroke="midnightblue" d="M642.71,-112.32C654.28,-104.11 671.88,-91.6 685.66,-81.81"/>
<polygon fill="midnightblue" stroke="midnightblue" points="687.94,-84.48 694.07,-75.83 683.89,-78.77 687.94,-84.48"/>
</g>
<!-- Node11 -->
<g id="node11" class="node">
<title>Node11</title>
<g id="a_node11"><a xlink:href="_backend_id_8hpp.html" target="_top" xlink:title=" ">
<polygon fill="white" stroke="black" points="177.5,-56.5 177.5,-75.5 265.5,-75.5 265.5,-56.5 177.5,-56.5"/>
<text text-anchor="middle" x="221.5" y="-63.5" font-family="Helvetica,sans-Serif" font-size="10.00">BackendId.hpp</text>
</a>
</g>
</g>
<!-- Node6&#45;&gt;Node11 -->
<g id="edge10" class="edge">
<title>Node6&#45;&gt;Node11</title>
<path fill="none" stroke="midnightblue" d="M580.3,-115.33C513.23,-107.62 390.47,-92.96 275.73,-76.13"/>
<polygon fill="midnightblue" stroke="midnightblue" points="276.13,-72.65 265.72,-74.65 275.11,-79.58 276.13,-72.65"/>
</g>
<!-- Node6&#45;&gt;Node18 -->
<g id="edge17" class="edge">
<title>Node6&#45;&gt;Node18</title>
<path fill="none" stroke="midnightblue" d="M656.64,-112.44C684.52,-103.32 728.85,-88.81 759.9,-78.65"/>
<polygon fill="midnightblue" stroke="midnightblue" points="761.06,-81.95 769.48,-75.52 758.88,-75.3 761.06,-81.95"/>
</g>
<!-- Node6&#45;&gt;Node21 -->
<g id="edge21" class="edge">
<title>Node6&#45;&gt;Node21</title>
<path fill="none" stroke="midnightblue" d="M680.68,-117.66C823.91,-108.14 1234.04,-80.86 1385.44,-70.79"/>
<polygon fill="midnightblue" stroke="midnightblue" points="1385.72,-74.28 1395.46,-70.13 1385.25,-67.3 1385.72,-74.28"/>
</g>
<!-- Node12 -->
<g id="node12" class="node">
<title>Node12</title>
<g id="a_node12"><a xlink:title=" ">
<polygon fill="white" stroke="#bfbfbf" points="252.5,-0.5 252.5,-19.5 310.5,-19.5 310.5,-0.5 252.5,-0.5"/>
<text text-anchor="middle" x="281.5" y="-7.5" font-family="Helvetica,sans-Serif" font-size="10.00">memory</text>
</a>
</g>
</g>
<!-- Node11&#45;&gt;Node12 -->
<g id="edge11" class="edge">
<title>Node11&#45;&gt;Node12</title>
<path fill="none" stroke="midnightblue" d="M231.14,-56.32C240.01,-48.34 253.37,-36.31 264.11,-26.65"/>
<polygon fill="midnightblue" stroke="midnightblue" points="266.59,-29.13 271.68,-19.83 261.91,-23.92 266.59,-29.13"/>
</g>
<!-- Node13 -->
<g id="node13" class="node">
<title>Node13</title>
<g id="a_node13"><a xlink:title=" ">
<polygon fill="white" stroke="#bfbfbf" points="0,-0.5 0,-19.5 57,-19.5 57,-0.5 0,-0.5"/>
<text text-anchor="middle" x="28.5" y="-7.5" font-family="Helvetica,sans-Serif" font-size="10.00">ostream</text>
</a>
</g>
</g>
<!-- Node11&#45;&gt;Node13 -->
<g id="edge12" class="edge">
<title>Node11&#45;&gt;Node13</title>
<path fill="none" stroke="midnightblue" d="M190.92,-56.44C157.3,-47.04 103.24,-31.91 66.82,-21.72"/>
<polygon fill="midnightblue" stroke="midnightblue" points="67.62,-18.31 57.05,-18.99 65.74,-25.05 67.62,-18.31"/>
</g>
<!-- Node14 -->
<g id="node14" class="node">
<title>Node14</title>
<g id="a_node14"><a xlink:title=" ">
<polygon fill="white" stroke="#bfbfbf" points="90.5,-0.5 90.5,-19.5 122.5,-19.5 122.5,-0.5 90.5,-0.5"/>
<text text-anchor="middle" x="106.5" y="-7.5" font-family="Helvetica,sans-Serif" font-size="10.00">set</text>
</a>
</g>
</g>
<!-- Node11&#45;&gt;Node14 -->
<g id="edge13" class="edge">
<title>Node11&#45;&gt;Node14</title>
<path fill="none" stroke="midnightblue" d="M203.28,-56.44C184.06,-47.42 153.61,-33.12 132.01,-22.98"/>
<polygon fill="midnightblue" stroke="midnightblue" points="133.32,-19.73 122.78,-18.64 130.34,-26.06 133.32,-19.73"/>
</g>
<!-- Node15 -->
<g id="node15" class="node">
<title>Node15</title>
<g id="a_node15"><a xlink:title=" ">
<polygon fill="white" stroke="#bfbfbf" points="376.5,-0.5 376.5,-19.5 420.5,-19.5 420.5,-0.5 376.5,-0.5"/>
<text text-anchor="middle" x="398.5" y="-7.5" font-family="Helvetica,sans-Serif" font-size="10.00">string</text>
</a>
</g>
</g>
<!-- Node11&#45;&gt;Node15 -->
<g id="edge14" class="edge">
<title>Node11&#45;&gt;Node15</title>
<path fill="none" stroke="midnightblue" d="M249.55,-56.44C281.44,-46.71 333.39,-30.86 366.74,-20.69"/>
<polygon fill="midnightblue" stroke="midnightblue" points="367.91,-23.99 376.46,-17.73 365.87,-17.3 367.91,-23.99"/>
</g>
<!-- Node16 -->
<g id="node16" class="node">
<title>Node16</title>
<g id="a_node16"><a xlink:title=" ">
<polygon fill="white" stroke="#bfbfbf" points="148.5,-0.5 148.5,-19.5 234.5,-19.5 234.5,-0.5 148.5,-0.5"/>
<text text-anchor="middle" x="191.5" y="-7.5" font-family="Helvetica,sans-Serif" font-size="10.00">unordered_set</text>
</a>
</g>
</g>
<!-- Node11&#45;&gt;Node16 -->
<g id="edge15" class="edge">
<title>Node11&#45;&gt;Node16</title>
<path fill="none" stroke="midnightblue" d="M216.55,-56.08C212.4,-48.61 206.35,-37.72 201.23,-28.52"/>
<polygon fill="midnightblue" stroke="midnightblue" points="204.28,-26.79 196.36,-19.75 198.16,-30.19 204.28,-26.79"/>
</g>
<!-- Node17 -->
<g id="node17" class="node">
<title>Node17</title>
<g id="a_node17"><a xlink:title=" ">
<polygon fill="white" stroke="#bfbfbf" points="486,-0.5 486,-19.5 533,-19.5 533,-0.5 486,-0.5"/>
<text text-anchor="middle" x="509.5" y="-7.5" font-family="Helvetica,sans-Serif" font-size="10.00">vector</text>
</a>
</g>
</g>
<!-- Node11&#45;&gt;Node17 -->
<g id="edge16" class="edge">
<title>Node11&#45;&gt;Node17</title>
<path fill="none" stroke="midnightblue" d="M265.55,-56.74C323.34,-45.9 423.5,-27.12 475.69,-17.34"/>
<polygon fill="midnightblue" stroke="midnightblue" points="476.58,-20.73 485.76,-15.45 475.29,-13.85 476.58,-20.73"/>
</g>
<!-- Node18&#45;&gt;Node15 -->
<g id="edge20" class="edge">
<title>Node18&#45;&gt;Node15</title>
<path fill="none" stroke="midnightblue" d="M749.9,-57.42C746.72,-56.93 743.56,-56.45 740.5,-56 626.76,-39.22 491.29,-22.3 430.63,-14.89"/>
<polygon fill="midnightblue" stroke="midnightblue" points="430.89,-11.39 420.54,-13.66 430.04,-18.34 430.89,-11.39"/>
</g>
<!-- Node19 -->
<g id="node19" class="node">
<title>Node19</title>
<g id="a_node19"><a xlink:title=" ">
<polygon fill="white" stroke="#bfbfbf" points="727.5,-0.5 727.5,-19.5 783.5,-19.5 783.5,-0.5 727.5,-0.5"/>
<text text-anchor="middle" x="755.5" y="-7.5" font-family="Helvetica,sans-Serif" font-size="10.00">sstream</text>
</a>
</g>
</g>
<!-- Node18&#45;&gt;Node19 -->
<g id="edge18" class="edge">
<title>Node18&#45;&gt;Node19</title>
<path fill="none" stroke="midnightblue" d="M788.89,-56.08C783.24,-48.46 774.96,-37.26 768.05,-27.94"/>
<polygon fill="midnightblue" stroke="midnightblue" points="770.75,-25.7 761.98,-19.75 765.12,-29.87 770.75,-25.7"/>
</g>
<!-- Node20 -->
<g id="node20" class="node">
<title>Node20</title>
<g id="a_node20"><a xlink:title=" ">
<polygon fill="white" stroke="#bfbfbf" points="802,-0.5 802,-19.5 867,-19.5 867,-0.5 802,-0.5"/>
<text text-anchor="middle" x="834.5" y="-7.5" font-family="Helvetica,sans-Serif" font-size="10.00">stdexcept</text>
</a>
</g>
</g>
<!-- Node18&#45;&gt;Node20 -->
<g id="edge19" class="edge">
<title>Node18&#45;&gt;Node20</title>
<path fill="none" stroke="midnightblue" d="M801.94,-56.08C807.45,-48.46 815.53,-37.26 822.26,-27.94"/>
<polygon fill="midnightblue" stroke="midnightblue" points="825.16,-29.91 828.18,-19.75 819.49,-25.81 825.16,-29.91"/>
</g>
<!-- Node24&#45;&gt;Node6 -->
<g id="edge30" class="edge">
<title>Node24&#45;&gt;Node6</title>
<path fill="none" stroke="midnightblue" d="M543.21,-168.32C559.81,-159.7 585.5,-146.36 604.72,-136.39"/>
<polygon fill="midnightblue" stroke="midnightblue" points="606.57,-139.37 613.83,-131.65 603.34,-133.16 606.57,-139.37"/>
</g>
<!-- Node24&#45;&gt;Node7 -->
<g id="edge32" class="edge">
<title>Node24&#45;&gt;Node7</title>
<path fill="none" stroke="midnightblue" d="M529.01,-168.37C534.2,-150.54 546.2,-109.3 553.18,-85.27"/>
<polygon fill="midnightblue" stroke="midnightblue" points="556.57,-86.17 556,-75.59 549.85,-84.22 556.57,-86.17"/>
</g>
<!-- Node24&#45;&gt;Node9 -->
<g id="edge31" class="edge">
<title>Node24&#45;&gt;Node9</title>
<path fill="none" stroke="midnightblue" d="M474.72,-171.65C446.91,-166.12 414.19,-154.86 393.5,-132 382.22,-119.53 378.91,-100.3 378.16,-85.99"/>
<polygon fill="midnightblue" stroke="midnightblue" points="381.65,-85.73 378,-75.78 374.65,-85.84 381.65,-85.73"/>
</g>
<!-- Node24&#45;&gt;Node17 -->
<g id="edge34" class="edge">
<title>Node24&#45;&gt;Node17</title>
<path fill="none" stroke="midnightblue" d="M525.59,-168.08C522.91,-141.95 515.05,-65.21 511.4,-29.58"/>
<polygon fill="midnightblue" stroke="midnightblue" points="514.88,-29.16 510.38,-19.57 507.91,-29.87 514.88,-29.16"/>
</g>
<!-- Node24&#45;&gt;Node18 -->
<g id="edge25" class="edge">
<title>Node24&#45;&gt;Node18</title>
<path fill="none" stroke="midnightblue" d="M570.18,-168.44C603.67,-161.06 650.59,-148.9 689.5,-132 721.41,-118.14 755.15,-95.97 775.77,-81.45"/>
<polygon fill="midnightblue" stroke="midnightblue" points="777.92,-84.22 784.02,-75.55 773.84,-78.52 777.92,-84.22"/>
</g>
<!-- Node25 -->
<g id="node25" class="node">
<title>Node25</title>
<g id="a_node25"><a xlink:href="_optional_8hpp.html" target="_top" xlink:title=" ">
<polygon fill="white" stroke="black" points="229,-112.5 229,-131.5 308,-131.5 308,-112.5 229,-112.5"/>
<text text-anchor="middle" x="268.5" y="-119.5" font-family="Helvetica,sans-Serif" font-size="10.00">Optional.hpp</text>
</a>
</g>
</g>
<!-- Node24&#45;&gt;Node25 -->
<g id="edge26" class="edge">
<title>Node24&#45;&gt;Node25</title>
<path fill="none" stroke="midnightblue" d="M485.62,-168.44C440.25,-158.95 367.03,-143.62 318.34,-133.43"/>
<polygon fill="midnightblue" stroke="midnightblue" points="318.85,-129.96 308.34,-131.34 317.41,-136.81 318.85,-129.96"/>
</g>
<!-- Node27 -->
<g id="node27" class="node">
<title>Node27</title>
<g id="a_node27"><a xlink:title=" ">
<polygon fill="white" stroke="#bfbfbf" points="403,-112.5 403,-131.5 486,-131.5 486,-112.5 403,-112.5"/>
<text text-anchor="middle" x="444.5" y="-119.5" font-family="Helvetica,sans-Serif" font-size="10.00">initializer_list</text>
</a>
</g>
</g>
<!-- Node24&#45;&gt;Node27 -->
<g id="edge33" class="edge">
<title>Node24&#45;&gt;Node27</title>
<path fill="none" stroke="midnightblue" d="M513.33,-168.32C500.65,-159.98 481.27,-147.21 466.29,-137.35"/>
<polygon fill="midnightblue" stroke="midnightblue" points="467.92,-134.23 457.64,-131.65 464.07,-140.08 467.92,-134.23"/>
</g>
<!-- Node28 -->
<g id="node28" class="node">
<title>Node28</title>
<g id="a_node28"><a xlink:title=" ">
<polygon fill="white" stroke="#bfbfbf" points="860,-112.5 860,-131.5 905,-131.5 905,-112.5 860,-112.5"/>
<text text-anchor="middle" x="882.5" y="-119.5" font-family="Helvetica,sans-Serif" font-size="10.00">utility</text>
</a>
</g>
</g>
<!-- Node24&#45;&gt;Node28 -->
<g id="edge35" class="edge">
<title>Node24&#45;&gt;Node28</title>
<path fill="none" stroke="midnightblue" d="M578.27,-169.15C652.64,-157.87 787.6,-137.39 849.67,-127.98"/>
<polygon fill="midnightblue" stroke="midnightblue" points="850.32,-131.42 859.68,-126.46 849.27,-124.5 850.32,-131.42"/>
</g>
<!-- Node25&#45;&gt;Node18 -->
<g id="edge27" class="edge">
<title>Node25&#45;&gt;Node18</title>
<path fill="none" stroke="midnightblue" d="M308.07,-118.13C387.72,-112.16 573.26,-97.27 739.98,-75.98"/>
<polygon fill="midnightblue" stroke="midnightblue" points="740.44,-79.45 749.92,-74.7 739.55,-72.51 740.44,-79.45"/>
</g>
<!-- Node25&#45;&gt;Node22 -->
<g id="edge29" class="edge">
<title>Node25&#45;&gt;Node22</title>
<path fill="none" stroke="midnightblue" d="M245.68,-112.44C221.67,-103.44 183.67,-89.19 156.63,-79.05"/>
<polygon fill="midnightblue" stroke="midnightblue" points="157.8,-75.75 147.21,-75.52 155.34,-82.3 157.8,-75.75"/>
</g>
<!-- Node26 -->
<g id="node26" class="node">
<title>Node26</title>
<g id="a_node26"><a xlink:title=" ">
<polygon fill="white" stroke="#bfbfbf" points="283.5,-56.5 283.5,-75.5 333.5,-75.5 333.5,-56.5 283.5,-56.5"/>
<text text-anchor="middle" x="308.5" y="-63.5" font-family="Helvetica,sans-Serif" font-size="10.00">cstring</text>
</a>
</g>
</g>
<!-- Node25&#45;&gt;Node26 -->
<g id="edge28" class="edge">
<title>Node25&#45;&gt;Node26</title>
<path fill="none" stroke="midnightblue" d="M275.11,-112.08C280.76,-104.46 289.04,-93.26 295.95,-83.94"/>
<polygon fill="midnightblue" stroke="midnightblue" points="298.88,-85.87 302.02,-75.75 293.25,-81.7 298.88,-85.87"/>
</g>
<!-- Node29&#45;&gt;Node6 -->
<g id="edge40" class="edge">
<title>Node29&#45;&gt;Node6</title>
<path fill="none" stroke="midnightblue" d="M278.18,-224.43C320.25,-217.28 377.85,-205.42 426.5,-188 444.84,-181.43 447.34,-175.05 465.5,-168 503.01,-153.45 547.03,-141.7 580.16,-133.86"/>
<polygon fill="midnightblue" stroke="midnightblue" points="581.13,-137.22 590.08,-131.55 579.54,-130.41 581.13,-137.22"/>
</g>
<!-- Node29&#45;&gt;Node9 -->
<g id="edge41" class="edge">
<title>Node29&#45;&gt;Node9</title>
<path fill="none" stroke="midnightblue" d="M223.01,-224.1C228.66,-210.67 240.84,-184.98 257.5,-168 279.02,-146.08 292.58,-151.28 316.5,-132 334.8,-117.25 353.04,-97.34 364.95,-83.45"/>
<polygon fill="midnightblue" stroke="midnightblue" points="367.73,-85.59 371.49,-75.69 362.37,-81.08 367.73,-85.59"/>
</g>
<!-- Node29&#45;&gt;Node11 -->
<g id="edge37" class="edge">
<title>Node29&#45;&gt;Node11</title>
<path fill="none" stroke="midnightblue" d="M219.37,-224.49C219.1,-204.73 218.56,-154.21 219.5,-112 219.69,-103.39 220.09,-93.86 220.48,-85.8"/>
<polygon fill="midnightblue" stroke="midnightblue" points="223.98,-85.79 221,-75.62 216.99,-85.43 223.98,-85.79"/>
</g>
<!-- Node29&#45;&gt;Node13 -->
<g id="edge43" class="edge">
<title>Node29&#45;&gt;Node13</title>
<path fill="none" stroke="midnightblue" d="M159.96,-224.46C116.99,-217.01 64.06,-204.77 49.5,-188 10.32,-142.88 18.3,-65.12 24.58,-29.63"/>
<polygon fill="midnightblue" stroke="midnightblue" points="28.05,-30.17 26.5,-19.69 21.17,-28.85 28.05,-30.17"/>
</g>
<!-- Node29&#45;&gt;Node14 -->
<g id="edge44" class="edge">
<title>Node29&#45;&gt;Node14</title>
<path fill="none" stroke="midnightblue" d="M158.47,-229.78C128.99,-224.78 96.06,-213.35 77.5,-188 67.12,-173.83 26.61,-246.73 80.5,-56 83.29,-46.14 88.72,-36.17 93.9,-28.13"/>
<polygon fill="midnightblue" stroke="midnightblue" points="96.91,-29.93 99.69,-19.7 91.14,-25.96 96.91,-29.93"/>
</g>
<!-- Node29&#45;&gt;Node18 -->
<g id="edge38" class="edge">
<title>Node29&#45;&gt;Node18</title>
<path fill="none" stroke="midnightblue" d="M280.61,-232.02C354.57,-229.37 482.18,-220.03 586.5,-188 605.12,-182.28 607.67,-175.85 625.5,-168 667.59,-149.48 683.09,-155.7 722.5,-132 744.87,-118.55 766.71,-97.8 780.58,-83.37"/>
<polygon fill="midnightblue" stroke="midnightblue" points="783.48,-85.4 787.77,-75.71 778.38,-80.61 783.48,-85.4"/>
</g>
<!-- Node29&#45;&gt;Node22 -->
<g id="edge45" class="edge">
<title>Node29&#45;&gt;Node22</title>
<path fill="none" stroke="midnightblue" d="M214.39,-224.08C199.31,-197.72 154.76,-119.88 134.61,-84.66"/>
<polygon fill="midnightblue" stroke="midnightblue" points="137.41,-82.51 129.4,-75.57 131.33,-85.99 137.41,-82.51"/>
</g>
<!-- Node29&#45;&gt;Node24 -->
<g id="edge39" class="edge">
<title>Node29&#45;&gt;Node24</title>
<path fill="none" stroke="midnightblue" d="M268.15,-224.44C322.37,-214.9 410.05,-199.48 467.98,-189.29"/>
<polygon fill="midnightblue" stroke="midnightblue" points="468.84,-192.7 478.08,-187.52 467.63,-185.8 468.84,-192.7"/>
</g>
<!-- Node30 -->
<g id="node30" class="node">
<title>Node30</title>
<g id="a_node30"><a xlink:title=" ">
<polygon fill="white" stroke="#bfbfbf" points="87,-168.5 87,-187.5 134,-187.5 134,-168.5 87,-168.5"/>
<text text-anchor="middle" x="110.5" y="-175.5" font-family="Helvetica,sans-Serif" font-size="10.00">cmath</text>
</a>
</g>
</g>
<!-- Node29&#45;&gt;Node30 -->
<g id="edge42" class="edge">
<title>Node29&#45;&gt;Node30</title>
<path fill="none" stroke="midnightblue" d="M201.99,-224.32C184.43,-215.62 157.17,-202.12 136.97,-192.11"/>
<polygon fill="midnightblue" stroke="midnightblue" points="138.48,-188.96 127.97,-187.65 135.38,-195.23 138.48,-188.96"/>
</g>
<!-- Node32 -->
<g id="node32" class="node">
<title>Node32</title>
<g id="a_node32"><a xlink:title=" ">
<polygon fill="white" stroke="#bfbfbf" points="824.5,-168.5 824.5,-187.5 876.5,-187.5 876.5,-168.5 824.5,-168.5"/>
<text text-anchor="middle" x="850.5" y="-175.5" font-family="Helvetica,sans-Serif" font-size="10.00">cassert</text>
</a>
</g>
</g>
<!-- Node31&#45;&gt;Node32 -->
<g id="edge47" class="edge">
<title>Node31&#45;&gt;Node32</title>
<path fill="none" stroke="midnightblue" d="M713.33,-224.44C740.75,-215.36 784.28,-200.94 814.93,-190.78"/>
<polygon fill="midnightblue" stroke="midnightblue" points="816.4,-193.98 824.79,-187.52 814.2,-187.34 816.4,-193.98"/>
</g>
<!-- Node33&#45;&gt;Node6 -->
<g id="edge49" class="edge">
<title>Node33&#45;&gt;Node6</title>
<path fill="none" stroke="midnightblue" d="M870.29,-224.47C881.58,-211.07 899.66,-184.87 885.5,-168 861.14,-138.97 758.27,-128.66 690.86,-125"/>
<polygon fill="midnightblue" stroke="midnightblue" points="690.94,-121.5 680.78,-124.49 690.59,-128.49 690.94,-121.5"/>
</g>
<!-- Node35&#45;&gt;Node6 -->
<g id="edge56" class="edge">
<title>Node35&#45;&gt;Node6</title>
<path fill="none" stroke="midnightblue" d="M1099.22,-224.45C1071.51,-216.26 1029.61,-202.97 994.5,-188 976.94,-180.51 974.67,-173.84 956.5,-168 866.79,-139.18 757.36,-128.82 690.86,-125.09"/>
<polygon fill="midnightblue" stroke="midnightblue" points="690.73,-121.58 680.56,-124.55 690.36,-128.57 690.73,-121.58"/>
</g>
<!-- Node35&#45;&gt;Node17 -->
<g id="edge61" class="edge">
<title>Node35&#45;&gt;Node17</title>
<path fill="none" stroke="midnightblue" d="M1124.92,-224.2C1112.9,-201.94 1078.18,-142.98 1032.5,-112 951.38,-56.98 645.95,-23.82 543.35,-14.05"/>
<polygon fill="midnightblue" stroke="midnightblue" points="543.52,-10.55 533.24,-13.1 542.87,-17.52 543.52,-10.55"/>
</g>
<!-- Node35&#45;&gt;Node18 -->
<g id="edge57" class="edge">
<title>Node35&#45;&gt;Node18</title>
<path fill="none" stroke="midnightblue" d="M1183.4,-224.43C1226.62,-215.18 1276.56,-197.64 1253.5,-168 1204.52,-105.06 962.34,-79.31 851.3,-70.68"/>
<polygon fill="midnightblue" stroke="midnightblue" points="851.53,-67.19 841.3,-69.92 851,-74.17 851.53,-67.19"/>
</g>
<!-- Node35&#45;&gt;Node21 -->
<g id="edge53" class="edge">
<title>Node35&#45;&gt;Node21</title>
<path fill="none" stroke="midnightblue" d="M1193.53,-231.77C1270.14,-228.88 1392.04,-219.34 1423.5,-188 1450.66,-160.95 1448.99,-112 1445.63,-85.41"/>
<polygon fill="midnightblue" stroke="midnightblue" points="1449.09,-84.89 1444.16,-75.51 1442.16,-85.91 1449.09,-84.89"/>
</g>
<!-- Node35&#45;&gt;Node24 -->
<g id="edge55" class="edge">
<title>Node35&#45;&gt;Node24</title>
<path fill="none" stroke="midnightblue" d="M1065.45,-227.31C969.72,-218.81 783.64,-202.25 625.5,-188 613.48,-186.92 600.64,-185.75 588.33,-184.64"/>
<polygon fill="midnightblue" stroke="midnightblue" points="588.41,-181.13 578.14,-183.71 587.78,-188.1 588.41,-181.13"/>
</g>
<!-- Node35&#45;&gt;Node28 -->
<g id="edge60" class="edge">
<title>Node35&#45;&gt;Node28</title>
<path fill="none" stroke="midnightblue" d="M1112.62,-224.42C1087.23,-211.63 1037.58,-187 994.5,-168 967.78,-156.21 936.95,-143.92 914.42,-135.17"/>
<polygon fill="midnightblue" stroke="midnightblue" points="915.58,-131.87 905,-131.53 913.06,-138.4 915.58,-131.87"/>
</g>
<!-- Node36 -->
<g id="node36" class="node">
<title>Node36</title>
<g id="a_node36"><a xlink:href="_descriptors_fwd_8hpp.html" target="_top" xlink:title=" ">
<polygon fill="white" stroke="black" points="1301,-168.5 1301,-187.5 1414,-187.5 1414,-168.5 1301,-168.5"/>
<text text-anchor="middle" x="1357.5" y="-175.5" font-family="Helvetica,sans-Serif" font-size="10.00">DescriptorsFwd.hpp</text>
</a>
</g>
</g>
<!-- Node35&#45;&gt;Node36 -->
<g id="edge54" class="edge">
<title>Node35&#45;&gt;Node36</title>
<path fill="none" stroke="midnightblue" d="M1165.63,-224.44C1205.15,-215.08 1268.6,-200.06 1311.61,-189.87"/>
<polygon fill="midnightblue" stroke="midnightblue" points="1312.62,-193.23 1321.54,-187.52 1311,-186.42 1312.62,-193.23"/>
</g>
<!-- Node37 -->
<g id="node37" class="node">
<title>Node37</title>
<g id="a_node37"><a xlink:title=" ">
<polygon fill="white" stroke="#bfbfbf" points="1122.5,-168.5 1122.5,-187.5 1172.5,-187.5 1172.5,-168.5 1122.5,-168.5"/>
<text text-anchor="middle" x="1147.5" y="-175.5" font-family="Helvetica,sans-Serif" font-size="10.00">cstdint</text>
</a>
</g>
</g>
<!-- Node35&#45;&gt;Node37 -->
<g id="edge58" class="edge">
<title>Node35&#45;&gt;Node37</title>
<path fill="none" stroke="midnightblue" d="M1132.47,-224.08C1134.88,-216.85 1138.36,-206.41 1141.37,-197.4"/>
<polygon fill="midnightblue" stroke="midnightblue" points="1144.74,-198.34 1144.58,-187.75 1138.1,-196.13 1144.74,-198.34"/>
</g>
<!-- Node38 -->
<g id="node38" class="node">
<title>Node38</title>
<g id="a_node38"><a xlink:title=" ">
<polygon fill="white" stroke="#bfbfbf" points="1191,-168.5 1191,-187.5 1244,-187.5 1244,-168.5 1191,-168.5"/>
<text text-anchor="middle" x="1217.5" y="-175.5" font-family="Helvetica,sans-Serif" font-size="10.00">iterator</text>
</a>
</g>
</g>
<!-- Node35&#45;&gt;Node38 -->
<g id="edge59" class="edge">
<title>Node35&#45;&gt;Node38</title>
<path fill="none" stroke="midnightblue" d="M1143.64,-224.32C1157.37,-215.9 1178.44,-202.97 1194.56,-193.07"/>
<polygon fill="midnightblue" stroke="midnightblue" points="1196.7,-195.87 1203.4,-187.65 1193.04,-189.9 1196.7,-195.87"/>
</g>
</g>
</svg>
