<?xml version="1.0" encoding="UTF-8" standalone="no"?>
<!DOCTYPE svg PUBLIC "-//W3C//DTD SVG 1.1//EN"
 "http://www.w3.org/Graphics/SVG/1.1/DTD/svg11.dtd">
<!-- Generated by graphviz version 2.43.0 (0)
 -->
<!-- Title: src/armnn/DeviceSpec.hpp Pages: 1 -->
<svg width="728pt" height="196pt"
 viewBox="0.00 0.00 727.50 196.00" xmlns="http://www.w3.org/2000/svg" xmlns:xlink="http://www.w3.org/1999/xlink">
<g id="graph0" class="graph" transform="scale(1 1) rotate(0) translate(4 192)">
<title>src/armnn/DeviceSpec.hpp</title>
<polygon fill="white" stroke="transparent" points="-4,4 -4,-192 723.5,-192 723.5,4 -4,4"/>
<!-- Node1 -->
<g id="node1" class="node">
<title>Node1</title>
<g id="a_node1"><a xlink:title=" ">
<polygon fill="#bfbfbf" stroke="black" points="573.5,-168.5 573.5,-187.5 719.5,-187.5 719.5,-168.5 573.5,-168.5"/>
<text text-anchor="middle" x="646.5" y="-175.5" font-family="Helvetica,sans-Serif" font-size="10.00">src/armnn/DeviceSpec.hpp</text>
</a>
</g>
</g>
<!-- Node2 -->
<g id="node2" class="node">
<title>Node2</title>
<g id="a_node2"><a xlink:href="_types_8hpp.html" target="_top" xlink:title=" ">
<polygon fill="white" stroke="black" points="342.5,-112.5 342.5,-131.5 442.5,-131.5 442.5,-112.5 342.5,-112.5"/>
<text text-anchor="middle" x="392.5" y="-119.5" font-family="Helvetica,sans-Serif" font-size="10.00">armnn/Types.hpp</text>
</a>
</g>
</g>
<!-- Node1&#45;&gt;Node2 -->
<g id="edge1" class="edge">
<title>Node1&#45;&gt;Node2</title>
<path fill="none" stroke="midnightblue" d="M606.25,-168.44C561.85,-159 490.35,-143.8 442.41,-133.61"/>
<polygon fill="midnightblue" stroke="midnightblue" points="443.07,-130.17 432.56,-131.52 441.61,-137.02 443.07,-130.17"/>
</g>
<!-- Node10 -->
<g id="node10" class="node">
<title>Node10</title>
<g id="a_node10"><a xlink:title=" ">
<polygon fill="white" stroke="#bfbfbf" points="610.5,-0.5 610.5,-19.5 642.5,-19.5 642.5,-0.5 610.5,-0.5"/>
<text text-anchor="middle" x="626.5" y="-7.5" font-family="Helvetica,sans-Serif" font-size="10.00">set</text>
</a>
</g>
</g>
<!-- Node1&#45;&gt;Node10 -->
<g id="edge18" class="edge">
<title>Node1&#45;&gt;Node10</title>
<path fill="none" stroke="midnightblue" d="M645.42,-168.08C642.28,-141.95 633.03,-65.21 628.74,-29.58"/>
<polygon fill="midnightblue" stroke="midnightblue" points="632.2,-29.08 627.53,-19.57 625.25,-29.92 632.2,-29.08"/>
</g>
<!-- Node13 -->
<g id="node13" class="node">
<title>Node13</title>
<g id="a_node13"><a xlink:title=" ">
<polygon fill="white" stroke="#bfbfbf" points="661,-0.5 661,-19.5 708,-19.5 708,-0.5 661,-0.5"/>
<text text-anchor="middle" x="684.5" y="-7.5" font-family="Helvetica,sans-Serif" font-size="10.00">vector</text>
</a>
</g>
</g>
<!-- Node1&#45;&gt;Node13 -->
<g id="edge19" class="edge">
<title>Node1&#45;&gt;Node13</title>
<path fill="none" stroke="midnightblue" d="M648.54,-168.08C654.52,-141.95 672.09,-65.21 680.25,-29.58"/>
<polygon fill="midnightblue" stroke="midnightblue" points="683.72,-30.1 682.54,-19.57 676.9,-28.53 683.72,-30.1"/>
</g>
<!-- Node3 -->
<g id="node3" class="node">
<title>Node3</title>
<g id="a_node3"><a xlink:title=" ">
<polygon fill="white" stroke="#bfbfbf" points="576.5,-56.5 576.5,-75.5 618.5,-75.5 618.5,-56.5 576.5,-56.5"/>
<text text-anchor="middle" x="597.5" y="-63.5" font-family="Helvetica,sans-Serif" font-size="10.00">array</text>
</a>
</g>
</g>
<!-- Node2&#45;&gt;Node3 -->
<g id="edge2" class="edge">
<title>Node2&#45;&gt;Node3</title>
<path fill="none" stroke="midnightblue" d="M427.47,-112.44C460.87,-104.17 512.84,-91.06 566.54,-76.19"/>
<polygon fill="midnightblue" stroke="midnightblue" points="567.53,-79.55 576.23,-73.5 565.65,-72.81 567.53,-79.55"/>
</g>
<!-- Node4 -->
<g id="node4" class="node">
<title>Node4</title>
<g id="a_node4"><a xlink:title=" ">
<polygon fill="white" stroke="#bfbfbf" points="248,-56.5 248,-75.5 313,-75.5 313,-56.5 248,-56.5"/>
<text text-anchor="middle" x="280.5" y="-63.5" font-family="Helvetica,sans-Serif" font-size="10.00">functional</text>
</a>
</g>
</g>
<!-- Node2&#45;&gt;Node4 -->
<g id="edge3" class="edge">
<title>Node2&#45;&gt;Node4</title>
<path fill="none" stroke="midnightblue" d="M374.51,-112.32C356.46,-103.62 328.45,-90.12 307.7,-80.11"/>
<polygon fill="midnightblue" stroke="midnightblue" points="308.98,-76.84 298.45,-75.65 305.94,-83.15 308.98,-76.84"/>
</g>
<!-- Node5 -->
<g id="node5" class="node">
<title>Node5</title>
<g id="a_node5"><a xlink:title=" ">
<polygon fill="white" stroke="#bfbfbf" points="331,-56.5 331,-75.5 384,-75.5 384,-56.5 331,-56.5"/>
<text text-anchor="middle" x="357.5" y="-63.5" font-family="Helvetica,sans-Serif" font-size="10.00">stdint.h</text>
</a>
</g>
</g>
<!-- Node2&#45;&gt;Node5 -->
<g id="edge4" class="edge">
<title>Node2&#45;&gt;Node5</title>
<path fill="none" stroke="midnightblue" d="M386.72,-112.08C381.83,-104.53 374.67,-93.49 368.67,-84.23"/>
<polygon fill="midnightblue" stroke="midnightblue" points="371.55,-82.24 363.17,-75.75 365.67,-86.05 371.55,-82.24"/>
</g>
<!-- Node6 -->
<g id="node6" class="node">
<title>Node6</title>
<g id="a_node6"><a xlink:title=" ">
<polygon fill="white" stroke="#bfbfbf" points="402.5,-56.5 402.5,-75.5 452.5,-75.5 452.5,-56.5 402.5,-56.5"/>
<text text-anchor="middle" x="427.5" y="-63.5" font-family="Helvetica,sans-Serif" font-size="10.00">chrono</text>
</a>
</g>
</g>
<!-- Node2&#45;&gt;Node6 -->
<g id="edge5" class="edge">
<title>Node2&#45;&gt;Node6</title>
<path fill="none" stroke="midnightblue" d="M398.28,-112.08C403.17,-104.53 410.33,-93.49 416.33,-84.23"/>
<polygon fill="midnightblue" stroke="midnightblue" points="419.33,-86.05 421.83,-75.75 413.45,-82.24 419.33,-86.05"/>
</g>
<!-- Node7 -->
<g id="node7" class="node">
<title>Node7</title>
<g id="a_node7"><a xlink:href="_backend_id_8hpp.html" target="_top" xlink:title=" ">
<polygon fill="white" stroke="black" points="470.5,-56.5 470.5,-75.5 558.5,-75.5 558.5,-56.5 470.5,-56.5"/>
<text text-anchor="middle" x="514.5" y="-63.5" font-family="Helvetica,sans-Serif" font-size="10.00">BackendId.hpp</text>
</a>
</g>
</g>
<!-- Node2&#45;&gt;Node7 -->
<g id="edge6" class="edge">
<title>Node2&#45;&gt;Node7</title>
<path fill="none" stroke="midnightblue" d="M411.83,-112.44C431.82,-103.6 463.24,-89.69 486.06,-79.59"/>
<polygon fill="midnightblue" stroke="midnightblue" points="487.53,-82.76 495.26,-75.52 484.7,-76.36 487.53,-82.76"/>
</g>
<!-- Node14 -->
<g id="node14" class="node">
<title>Node14</title>
<g id="a_node14"><a xlink:href="_exceptions_8hpp.html" target="_top" xlink:title=" ">
<polygon fill="white" stroke="black" points="26,-56.5 26,-75.5 117,-75.5 117,-56.5 26,-56.5"/>
<text text-anchor="middle" x="71.5" y="-63.5" font-family="Helvetica,sans-Serif" font-size="10.00">Exceptions.hpp</text>
</a>
</g>
</g>
<!-- Node2&#45;&gt;Node14 -->
<g id="edge13" class="edge">
<title>Node2&#45;&gt;Node14</title>
<path fill="none" stroke="midnightblue" d="M342.34,-112.56C284,-102.75 187.96,-86.59 127.31,-76.39"/>
<polygon fill="midnightblue" stroke="midnightblue" points="127.59,-72.89 117.15,-74.68 126.43,-79.79 127.59,-72.89"/>
</g>
<!-- Node17 -->
<g id="node17" class="node">
<title>Node17</title>
<g id="a_node17"><a xlink:href="_deprecated_8hpp.html" target="_top" xlink:title=" ">
<polygon fill="white" stroke="black" points="135.5,-56.5 135.5,-75.5 229.5,-75.5 229.5,-56.5 135.5,-56.5"/>
<text text-anchor="middle" x="182.5" y="-63.5" font-family="Helvetica,sans-Serif" font-size="10.00">Deprecated.hpp</text>
</a>
</g>
</g>
<!-- Node2&#45;&gt;Node17 -->
<g id="edge17" class="edge">
<title>Node2&#45;&gt;Node17</title>
<path fill="none" stroke="midnightblue" d="M359.22,-112.44C323.05,-103.14 265.12,-88.25 225.52,-78.06"/>
<polygon fill="midnightblue" stroke="midnightblue" points="226.18,-74.62 215.62,-75.52 224.43,-81.4 226.18,-74.62"/>
</g>
<!-- Node8 -->
<g id="node8" class="node">
<title>Node8</title>
<g id="a_node8"><a xlink:title=" ">
<polygon fill="white" stroke="#bfbfbf" points="354.5,-0.5 354.5,-19.5 412.5,-19.5 412.5,-0.5 354.5,-0.5"/>
<text text-anchor="middle" x="383.5" y="-7.5" font-family="Helvetica,sans-Serif" font-size="10.00">memory</text>
</a>
</g>
</g>
<!-- Node7&#45;&gt;Node8 -->
<g id="edge7" class="edge">
<title>Node7&#45;&gt;Node8</title>
<path fill="none" stroke="midnightblue" d="M493.74,-56.44C472.18,-47.56 438.24,-33.56 413.71,-23.45"/>
<polygon fill="midnightblue" stroke="midnightblue" points="414.74,-20.09 404.16,-19.52 412.07,-26.56 414.74,-20.09"/>
</g>
<!-- Node9 -->
<g id="node9" class="node">
<title>Node9</title>
<g id="a_node9"><a xlink:title=" ">
<polygon fill="white" stroke="#bfbfbf" points="431,-0.5 431,-19.5 488,-19.5 488,-0.5 431,-0.5"/>
<text text-anchor="middle" x="459.5" y="-7.5" font-family="Helvetica,sans-Serif" font-size="10.00">ostream</text>
</a>
</g>
</g>
<!-- Node7&#45;&gt;Node9 -->
<g id="edge8" class="edge">
<title>Node7&#45;&gt;Node9</title>
<path fill="none" stroke="midnightblue" d="M505.42,-56.08C497.33,-48.14 485.3,-36.34 475.59,-26.8"/>
<polygon fill="midnightblue" stroke="midnightblue" points="478,-24.26 468.41,-19.75 473.1,-29.25 478,-24.26"/>
</g>
<!-- Node7&#45;&gt;Node10 -->
<g id="edge9" class="edge">
<title>Node7&#45;&gt;Node10</title>
<path fill="none" stroke="midnightblue" d="M532.49,-56.32C551.07,-47.37 580.21,-33.32 601.13,-23.23"/>
<polygon fill="midnightblue" stroke="midnightblue" points="602.88,-26.27 610.37,-18.78 599.84,-19.97 602.88,-26.27"/>
</g>
<!-- Node11 -->
<g id="node11" class="node">
<title>Node11</title>
<g id="a_node11"><a xlink:title=" ">
<polygon fill="white" stroke="#bfbfbf" points="225.5,-0.5 225.5,-19.5 269.5,-19.5 269.5,-0.5 225.5,-0.5"/>
<text text-anchor="middle" x="247.5" y="-7.5" font-family="Helvetica,sans-Serif" font-size="10.00">string</text>
</a>
</g>
</g>
<!-- Node7&#45;&gt;Node11 -->
<g id="edge10" class="edge">
<title>Node7&#45;&gt;Node11</title>
<path fill="none" stroke="midnightblue" d="M472.19,-56.44C418.63,-45.61 327.55,-27.19 279.45,-17.46"/>
<polygon fill="midnightblue" stroke="midnightblue" points="280.08,-14.02 269.58,-15.47 278.69,-20.88 280.08,-14.02"/>
</g>
<!-- Node12 -->
<g id="node12" class="node">
<title>Node12</title>
<g id="a_node12"><a xlink:title=" ">
<polygon fill="white" stroke="#bfbfbf" points="506.5,-0.5 506.5,-19.5 592.5,-19.5 592.5,-0.5 506.5,-0.5"/>
<text text-anchor="middle" x="549.5" y="-7.5" font-family="Helvetica,sans-Serif" font-size="10.00">unordered_set</text>
</a>
</g>
</g>
<!-- Node7&#45;&gt;Node12 -->
<g id="edge11" class="edge">
<title>Node7&#45;&gt;Node12</title>
<path fill="none" stroke="midnightblue" d="M520.28,-56.08C525.17,-48.53 532.33,-37.49 538.33,-28.23"/>
<polygon fill="midnightblue" stroke="midnightblue" points="541.33,-30.05 543.83,-19.75 535.45,-26.24 541.33,-30.05"/>
</g>
<!-- Node7&#45;&gt;Node13 -->
<g id="edge12" class="edge">
<title>Node7&#45;&gt;Node13</title>
<path fill="none" stroke="midnightblue" d="M541.44,-56.44C571.17,-47 619.07,-31.78 651.16,-21.59"/>
<polygon fill="midnightblue" stroke="midnightblue" points="652.5,-24.84 660.97,-18.47 650.38,-18.16 652.5,-24.84"/>
</g>
<!-- Node14&#45;&gt;Node11 -->
<g id="edge16" class="edge">
<title>Node14&#45;&gt;Node11</title>
<path fill="none" stroke="midnightblue" d="M99.39,-56.44C131.01,-46.74 182.47,-30.95 215.65,-20.77"/>
<polygon fill="midnightblue" stroke="midnightblue" points="216.78,-24.09 225.32,-17.81 214.73,-17.39 216.78,-24.09"/>
</g>
<!-- Node15 -->
<g id="node15" class="node">
<title>Node15</title>
<g id="a_node15"><a xlink:title=" ">
<polygon fill="white" stroke="#bfbfbf" points="83.5,-0.5 83.5,-19.5 139.5,-19.5 139.5,-0.5 83.5,-0.5"/>
<text text-anchor="middle" x="111.5" y="-7.5" font-family="Helvetica,sans-Serif" font-size="10.00">sstream</text>
</a>
</g>
</g>
<!-- Node14&#45;&gt;Node15 -->
<g id="edge14" class="edge">
<title>Node14&#45;&gt;Node15</title>
<path fill="none" stroke="midnightblue" d="M78.11,-56.08C83.76,-48.46 92.04,-37.26 98.95,-27.94"/>
<polygon fill="midnightblue" stroke="midnightblue" points="101.88,-29.87 105.02,-19.75 96.25,-25.7 101.88,-29.87"/>
</g>
<!-- Node16 -->
<g id="node16" class="node">
<title>Node16</title>
<g id="a_node16"><a xlink:title=" ">
<polygon fill="white" stroke="#bfbfbf" points="0,-0.5 0,-19.5 65,-19.5 65,-0.5 0,-0.5"/>
<text text-anchor="middle" x="32.5" y="-7.5" font-family="Helvetica,sans-Serif" font-size="10.00">stdexcept</text>
</a>
</g>
</g>
<!-- Node14&#45;&gt;Node16 -->
<g id="edge15" class="edge">
<title>Node14&#45;&gt;Node16</title>
<path fill="none" stroke="midnightblue" d="M65.06,-56.08C59.55,-48.46 51.47,-37.26 44.74,-27.94"/>
<polygon fill="midnightblue" stroke="midnightblue" points="47.51,-25.81 38.82,-19.75 41.84,-29.91 47.51,-25.81"/>
</g>
</g>
</svg>
