<?xml version="1.0" encoding="UTF-8" standalone="no"?>
<!DOCTYPE svg PUBLIC "-//W3C//DTD SVG 1.1//EN"
 "http://www.w3.org/Graphics/SVG/1.1/DTD/svg11.dtd">
<!-- Generated by graphviz version 2.43.0 (0)
 -->
<!-- Title: src/backends/reference/workloads/Encoders.hpp Pages: 1 -->
<svg width="1334pt" height="442pt"
 viewBox="0.00 0.00 1334.00 442.00" xmlns="http://www.w3.org/2000/svg" xmlns:xlink="http://www.w3.org/1999/xlink">
<g id="graph0" class="graph" transform="scale(1 1) rotate(0) translate(4 438)">
<title>src/backends/reference/workloads/Encoders.hpp</title>
<polygon fill="white" stroke="transparent" points="-4,4 -4,-438 1330,-438 1330,4 -4,4"/>
<!-- Node1 -->
<g id="node1" class="node">
<title>Node1</title>
<g id="a_node1"><a xlink:title=" ">
<polygon fill="#bfbfbf" stroke="black" points="472,-403.5 472,-433.5 610,-433.5 610,-403.5 472,-403.5"/>
<text text-anchor="start" x="480" y="-421.5" font-family="Helvetica,sans-Serif" font-size="10.00">src/backends/reference</text>
<text text-anchor="middle" x="541" y="-410.5" font-family="Helvetica,sans-Serif" font-size="10.00">/workloads/Encoders.hpp</text>
</a>
</g>
</g>
<!-- Node2 -->
<g id="node2" class="node">
<title>Node2</title>
<g id="a_node2"><a xlink:href="_base_iterator_8hpp.html" target="_top" xlink:title=" ">
<polygon fill="white" stroke="black" points="454.5,-347.5 454.5,-366.5 551.5,-366.5 551.5,-347.5 454.5,-347.5"/>
<text text-anchor="middle" x="503" y="-354.5" font-family="Helvetica,sans-Serif" font-size="10.00">BaseIterator.hpp</text>
</a>
</g>
</g>
<!-- Node1&#45;&gt;Node2 -->
<g id="edge1" class="edge">
<title>Node1&#45;&gt;Node2</title>
<path fill="none" stroke="midnightblue" d="M531.99,-403.4C526.59,-394.93 519.67,-384.1 513.95,-375.14"/>
<polygon fill="midnightblue" stroke="midnightblue" points="516.86,-373.2 508.53,-366.66 510.96,-376.97 516.86,-373.2"/>
</g>
<!-- Node33 -->
<g id="node33" class="node">
<title>Node33</title>
<g id="a_node33"><a xlink:href="_tensor_utils_8hpp.html" target="_top" xlink:title=" ">
<polygon fill="white" stroke="black" points="867.5,-286 867.5,-305 1016.5,-305 1016.5,-286 867.5,-286"/>
<text text-anchor="middle" x="942" y="-293" font-family="Helvetica,sans-Serif" font-size="10.00">armnnUtils/TensorUtils.hpp</text>
</a>
</g>
</g>
<!-- Node1&#45;&gt;Node33 -->
<g id="edge64" class="edge">
<title>Node1&#45;&gt;Node33</title>
<path fill="none" stroke="midnightblue" d="M587.78,-403.38C667.99,-379.18 830.23,-330.23 903.98,-307.97"/>
<polygon fill="midnightblue" stroke="midnightblue" points="905.21,-311.26 913.78,-305.02 903.19,-304.55 905.21,-311.26"/>
</g>
<!-- Node3 -->
<g id="node3" class="node">
<title>Node3</title>
<g id="a_node3"><a xlink:href="_types_utils_8hpp.html" target="_top" xlink:title=" ">
<polygon fill="white" stroke="black" points="542,-224.5 542,-243.5 664,-243.5 664,-224.5 542,-224.5"/>
<text text-anchor="middle" x="603" y="-231.5" font-family="Helvetica,sans-Serif" font-size="10.00">armnn/TypesUtils.hpp</text>
</a>
</g>
</g>
<!-- Node2&#45;&gt;Node3 -->
<g id="edge2" class="edge">
<title>Node2&#45;&gt;Node3</title>
<path fill="none" stroke="midnightblue" d="M510.19,-347.3C526.77,-327.24 567.88,-277.49 589.39,-251.46"/>
<polygon fill="midnightblue" stroke="midnightblue" points="592.2,-253.56 595.87,-243.62 586.81,-249.1 592.2,-253.56"/>
</g>
<!-- Node27 -->
<g id="node27" class="node">
<title>Node27</title>
<g id="a_node27"><a xlink:href="_assert_8hpp.html" target="_top" xlink:title=" ">
<polygon fill="white" stroke="black" points="0,-224.5 0,-243.5 134,-243.5 134,-224.5 0,-224.5"/>
<text text-anchor="middle" x="67" y="-231.5" font-family="Helvetica,sans-Serif" font-size="10.00">armnn/utility/Assert.hpp</text>
</a>
</g>
</g>
<!-- Node2&#45;&gt;Node27 -->
<g id="edge39" class="edge">
<title>Node2&#45;&gt;Node27</title>
<path fill="none" stroke="midnightblue" d="M454.35,-355.12C364.42,-352.71 176.29,-343.78 121,-311 98.55,-297.69 82.96,-270.99 74.49,-253.06"/>
<polygon fill="midnightblue" stroke="midnightblue" points="77.68,-251.62 70.43,-243.9 71.28,-254.46 77.68,-251.62"/>
</g>
<!-- Node29 -->
<g id="node29" class="node">
<title>Node29</title>
<g id="a_node29"><a xlink:href="_numeric_cast_8hpp.html" target="_top" xlink:title=" ">
<polygon fill="white" stroke="black" points="129.5,-286 129.5,-305 296.5,-305 296.5,-286 129.5,-286"/>
<text text-anchor="middle" x="213" y="-293" font-family="Helvetica,sans-Serif" font-size="10.00">armnn/utility/NumericCast.hpp</text>
</a>
</g>
</g>
<!-- Node2&#45;&gt;Node29 -->
<g id="edge41" class="edge">
<title>Node2&#45;&gt;Node29</title>
<path fill="none" stroke="midnightblue" d="M461.45,-347.48C409.55,-336.83 320.76,-318.61 264.57,-307.08"/>
<polygon fill="midnightblue" stroke="midnightblue" points="264.97,-303.59 254.47,-305.01 263.57,-310.45 264.97,-303.59"/>
</g>
<!-- Node31 -->
<g id="node31" class="node">
<title>Node31</title>
<g id="a_node31"><a xlink:href="_floating_point_converter_8hpp.html" target="_top" xlink:title=" ">
<polygon fill="white" stroke="black" points="337,-280.5 337,-310.5 475,-310.5 475,-280.5 337,-280.5"/>
<text text-anchor="start" x="345" y="-298.5" font-family="Helvetica,sans-Serif" font-size="10.00">armnnUtils/FloatingPoint</text>
<text text-anchor="middle" x="406" y="-287.5" font-family="Helvetica,sans-Serif" font-size="10.00">Converter.hpp</text>
</a>
</g>
</g>
<!-- Node2&#45;&gt;Node31 -->
<g id="edge45" class="edge">
<title>Node2&#45;&gt;Node31</title>
<path fill="none" stroke="midnightblue" d="M489.1,-347.48C475.72,-339.27 455,-326.56 437.6,-315.88"/>
<polygon fill="midnightblue" stroke="midnightblue" points="439.22,-312.77 428.86,-310.52 435.56,-318.74 439.22,-312.77"/>
</g>
<!-- Node2&#45;&gt;Node33 -->
<g id="edge47" class="edge">
<title>Node2&#45;&gt;Node33</title>
<path fill="none" stroke="midnightblue" d="M551.66,-349.41C628.61,-338.98 778.88,-318.61 868.87,-306.41"/>
<polygon fill="midnightblue" stroke="midnightblue" points="869.55,-309.85 878.99,-305.04 868.61,-302.91 869.55,-309.85"/>
</g>
<!-- Node34 -->
<g id="node34" class="node">
<title>Node34</title>
<g id="a_node34"><a xlink:href="_resolve_type_8hpp.html" target="_top" xlink:title=" ">
<polygon fill="white" stroke="black" points="337.5,-168.5 337.5,-187.5 436.5,-187.5 436.5,-168.5 337.5,-168.5"/>
<text text-anchor="middle" x="387" y="-175.5" font-family="Helvetica,sans-Serif" font-size="10.00">ResolveType.hpp</text>
</a>
</g>
</g>
<!-- Node2&#45;&gt;Node34 -->
<g id="edge54" class="edge">
<title>Node2&#45;&gt;Node34</title>
<path fill="none" stroke="midnightblue" d="M501.95,-347.18C499.98,-332.61 494.87,-302.84 484,-280 466.49,-243.21 430.33,-211.3 407.45,-193.65"/>
<polygon fill="midnightblue" stroke="midnightblue" points="409.5,-190.81 399.4,-187.61 405.29,-196.41 409.5,-190.81"/>
</g>
<!-- Node4 -->
<g id="node4" class="node">
<title>Node4</title>
<g id="a_node4"><a xlink:href="_backend_id_8hpp.html" target="_top" xlink:title=" ">
<polygon fill="white" stroke="black" points="670,-56.5 670,-75.5 792,-75.5 792,-56.5 670,-56.5"/>
<text text-anchor="middle" x="731" y="-63.5" font-family="Helvetica,sans-Serif" font-size="10.00">armnn/BackendId.hpp</text>
</a>
</g>
</g>
<!-- Node3&#45;&gt;Node4 -->
<g id="edge3" class="edge">
<title>Node3&#45;&gt;Node4</title>
<path fill="none" stroke="midnightblue" d="M618.55,-224.47C644.29,-209.46 695.37,-175.72 720,-132 727.99,-117.82 730.5,-99.34 731.15,-85.71"/>
<polygon fill="midnightblue" stroke="midnightblue" points="734.65,-85.67 731.34,-75.6 727.65,-85.54 734.65,-85.67"/>
</g>
<!-- Node6 -->
<g id="node6" class="node">
<title>Node6</title>
<g id="a_node6"><a xlink:title=" ">
<polygon fill="white" stroke="#bfbfbf" points="473.5,-0.5 473.5,-19.5 530.5,-19.5 530.5,-0.5 473.5,-0.5"/>
<text text-anchor="middle" x="502" y="-7.5" font-family="Helvetica,sans-Serif" font-size="10.00">ostream</text>
</a>
</g>
</g>
<!-- Node3&#45;&gt;Node6 -->
<g id="edge36" class="edge">
<title>Node3&#45;&gt;Node6</title>
<path fill="none" stroke="midnightblue" d="M541.7,-229.63C466.59,-224.49 344.65,-212.58 307,-188 257.65,-155.78 252.43,-132.6 236,-76 233.52,-67.46 230.26,-62.79 236,-56 264.62,-22.13 396.45,-13.74 463.14,-11.67"/>
<polygon fill="midnightblue" stroke="midnightblue" points="463.36,-15.17 473.26,-11.39 463.16,-8.17 463.36,-15.17"/>
</g>
<!-- Node7 -->
<g id="node7" class="node">
<title>Node7</title>
<g id="a_node7"><a xlink:title=" ">
<polygon fill="white" stroke="#bfbfbf" points="293,-0.5 293,-19.5 325,-19.5 325,-0.5 293,-0.5"/>
<text text-anchor="middle" x="309" y="-7.5" font-family="Helvetica,sans-Serif" font-size="10.00">set</text>
</a>
</g>
</g>
<!-- Node3&#45;&gt;Node7 -->
<g id="edge37" class="edge">
<title>Node3&#45;&gt;Node7</title>
<path fill="none" stroke="midnightblue" d="M541.85,-230.68C459.83,-226.54 319.56,-215.56 277,-188 224.47,-153.98 196.26,-109.93 228,-56 239.83,-35.9 264.23,-24.14 283.17,-17.71"/>
<polygon fill="midnightblue" stroke="midnightblue" points="284.24,-21.05 292.75,-14.75 282.17,-14.36 284.24,-21.05"/>
</g>
<!-- Node11 -->
<g id="node11" class="node">
<title>Node11</title>
<g id="a_node11"><a xlink:href="_exceptions_8hpp.html" target="_top" xlink:title=" ">
<polygon fill="white" stroke="black" points="1074.5,-56.5 1074.5,-75.5 1199.5,-75.5 1199.5,-56.5 1074.5,-56.5"/>
<text text-anchor="middle" x="1137" y="-63.5" font-family="Helvetica,sans-Serif" font-size="10.00">armnn/Exceptions.hpp</text>
</a>
</g>
</g>
<!-- Node3&#45;&gt;Node11 -->
<g id="edge10" class="edge">
<title>Node3&#45;&gt;Node11</title>
<path fill="none" stroke="midnightblue" d="M640.61,-224.49C677,-216.04 733.6,-202.31 782,-188 902.07,-152.51 1042.06,-102.06 1104.3,-79.16"/>
<polygon fill="midnightblue" stroke="midnightblue" points="1105.78,-82.34 1113.95,-75.59 1103.36,-75.77 1105.78,-82.34"/>
</g>
<!-- Node14 -->
<g id="node14" class="node">
<title>Node14</title>
<g id="a_node14"><a xlink:href="_tensor_8hpp.html" target="_top" xlink:title=" ">
<polygon fill="white" stroke="black" points="970.5,-168.5 970.5,-187.5 1073.5,-187.5 1073.5,-168.5 970.5,-168.5"/>
<text text-anchor="middle" x="1022" y="-175.5" font-family="Helvetica,sans-Serif" font-size="10.00">armnn/Tensor.hpp</text>
</a>
</g>
</g>
<!-- Node3&#45;&gt;Node14 -->
<g id="edge14" class="edge">
<title>Node3&#45;&gt;Node14</title>
<path fill="none" stroke="midnightblue" d="M664.37,-225.09C743.56,-214.88 880.55,-197.23 960.02,-186.99"/>
<polygon fill="midnightblue" stroke="midnightblue" points="960.9,-190.4 970.37,-185.65 960,-183.46 960.9,-190.4"/>
</g>
<!-- Node17 -->
<g id="node17" class="node">
<title>Node17</title>
<g id="a_node17"><a xlink:title=" ">
<polygon fill="white" stroke="#bfbfbf" points="244.5,-56.5 244.5,-75.5 313.5,-75.5 313.5,-56.5 244.5,-56.5"/>
<text text-anchor="middle" x="279" y="-63.5" font-family="Helvetica,sans-Serif" font-size="10.00">type_traits</text>
</a>
</g>
</g>
<!-- Node3&#45;&gt;Node17 -->
<g id="edge38" class="edge">
<title>Node3&#45;&gt;Node17</title>
<path fill="none" stroke="midnightblue" d="M541.88,-229.8C471.39,-224.96 361.1,-213.47 329,-188 296.91,-162.53 285.22,-112.94 281.11,-85.82"/>
<polygon fill="midnightblue" stroke="midnightblue" points="284.56,-85.17 279.78,-75.71 277.62,-86.08 284.56,-85.17"/>
</g>
<!-- Node18 -->
<g id="node18" class="node">
<title>Node18</title>
<g id="a_node18"><a xlink:href="_types_8hpp.html" target="_top" xlink:title=" ">
<polygon fill="white" stroke="black" points="810.5,-112.5 810.5,-131.5 875.5,-131.5 875.5,-112.5 810.5,-112.5"/>
<text text-anchor="middle" x="843" y="-119.5" font-family="Helvetica,sans-Serif" font-size="10.00">Types.hpp</text>
</a>
</g>
</g>
<!-- Node3&#45;&gt;Node18 -->
<g id="edge33" class="edge">
<title>Node3&#45;&gt;Node18</title>
<path fill="none" stroke="midnightblue" d="M644.5,-224.49C675.42,-217.23 718.14,-205.21 753,-188 780.33,-174.51 808.23,-152.89 825.58,-138.32"/>
<polygon fill="midnightblue" stroke="midnightblue" points="827.87,-140.97 833.19,-131.81 823.32,-135.65 827.87,-140.97"/>
</g>
<!-- Node21 -->
<g id="node21" class="node">
<title>Node21</title>
<g id="a_node21"><a xlink:title=" ">
<polygon fill="white" stroke="#bfbfbf" points="598.5,-56.5 598.5,-75.5 651.5,-75.5 651.5,-56.5 598.5,-56.5"/>
<text text-anchor="middle" x="625" y="-63.5" font-family="Helvetica,sans-Serif" font-size="10.00">stdint.h</text>
</a>
</g>
</g>
<!-- Node3&#45;&gt;Node21 -->
<g id="edge34" class="edge">
<title>Node3&#45;&gt;Node21</title>
<path fill="none" stroke="midnightblue" d="M604.18,-224.08C607.65,-197.95 617.82,-121.21 622.54,-85.58"/>
<polygon fill="midnightblue" stroke="midnightblue" points="626.02,-85.94 623.86,-75.57 619.08,-85.02 626.02,-85.94"/>
</g>
<!-- Node26 -->
<g id="node26" class="node">
<title>Node26</title>
<g id="a_node26"><a xlink:title=" ">
<polygon fill="white" stroke="#bfbfbf" points="426.5,-56.5 426.5,-75.5 473.5,-75.5 473.5,-56.5 426.5,-56.5"/>
<text text-anchor="middle" x="450" y="-63.5" font-family="Helvetica,sans-Serif" font-size="10.00">cmath</text>
</a>
</g>
</g>
<!-- Node3&#45;&gt;Node26 -->
<g id="edge35" class="edge">
<title>Node3&#45;&gt;Node26</title>
<path fill="none" stroke="midnightblue" d="M589.93,-224.28C566.58,-208.2 517.15,-171.89 485,-132 473.33,-117.53 463.65,-98.59 457.45,-84.89"/>
<polygon fill="midnightblue" stroke="midnightblue" points="460.61,-83.38 453.41,-75.6 454.19,-86.17 460.61,-83.38"/>
</g>
<!-- Node5 -->
<g id="node5" class="node">
<title>Node5</title>
<g id="a_node5"><a xlink:title=" ">
<polygon fill="white" stroke="#bfbfbf" points="657,-0.5 657,-19.5 715,-19.5 715,-0.5 657,-0.5"/>
<text text-anchor="middle" x="686" y="-7.5" font-family="Helvetica,sans-Serif" font-size="10.00">memory</text>
</a>
</g>
</g>
<!-- Node4&#45;&gt;Node5 -->
<g id="edge4" class="edge">
<title>Node4&#45;&gt;Node5</title>
<path fill="none" stroke="midnightblue" d="M723.57,-56.08C717.15,-48.38 707.69,-37.03 699.88,-27.65"/>
<polygon fill="midnightblue" stroke="midnightblue" points="702.38,-25.19 693.29,-19.75 697.01,-29.67 702.38,-25.19"/>
</g>
<!-- Node4&#45;&gt;Node6 -->
<g id="edge5" class="edge">
<title>Node4&#45;&gt;Node6</title>
<path fill="none" stroke="midnightblue" d="M694.71,-56.44C652.57,-46.5 583.33,-30.18 540.33,-20.04"/>
<polygon fill="midnightblue" stroke="midnightblue" points="541.06,-16.61 530.52,-17.73 539.45,-23.43 541.06,-16.61"/>
</g>
<!-- Node4&#45;&gt;Node7 -->
<g id="edge6" class="edge">
<title>Node4&#45;&gt;Node7</title>
<path fill="none" stroke="midnightblue" d="M669.92,-57.14C666.9,-56.76 663.92,-56.37 661,-56 539.29,-40.4 393.91,-21.83 335.35,-14.36"/>
<polygon fill="midnightblue" stroke="midnightblue" points="335.5,-10.85 325.14,-13.06 334.62,-17.8 335.5,-10.85"/>
</g>
<!-- Node8 -->
<g id="node8" class="node">
<title>Node8</title>
<g id="a_node8"><a xlink:title=" ">
<polygon fill="white" stroke="#bfbfbf" points="923,-0.5 923,-19.5 967,-19.5 967,-0.5 923,-0.5"/>
<text text-anchor="middle" x="945" y="-7.5" font-family="Helvetica,sans-Serif" font-size="10.00">string</text>
</a>
</g>
</g>
<!-- Node4&#45;&gt;Node8 -->
<g id="edge7" class="edge">
<title>Node4&#45;&gt;Node8</title>
<path fill="none" stroke="midnightblue" d="M764.91,-56.44C805.57,-46.18 873.19,-29.12 912.99,-19.08"/>
<polygon fill="midnightblue" stroke="midnightblue" points="913.87,-22.46 922.71,-16.62 912.16,-15.68 913.87,-22.46"/>
</g>
<!-- Node9 -->
<g id="node9" class="node">
<title>Node9</title>
<g id="a_node9"><a xlink:title=" ">
<polygon fill="white" stroke="#bfbfbf" points="733,-0.5 733,-19.5 819,-19.5 819,-0.5 733,-0.5"/>
<text text-anchor="middle" x="776" y="-7.5" font-family="Helvetica,sans-Serif" font-size="10.00">unordered_set</text>
</a>
</g>
</g>
<!-- Node4&#45;&gt;Node9 -->
<g id="edge8" class="edge">
<title>Node4&#45;&gt;Node9</title>
<path fill="none" stroke="midnightblue" d="M738.43,-56.08C744.85,-48.38 754.31,-37.03 762.12,-27.65"/>
<polygon fill="midnightblue" stroke="midnightblue" points="764.99,-29.67 768.71,-19.75 759.62,-25.19 764.99,-29.67"/>
</g>
<!-- Node10 -->
<g id="node10" class="node">
<title>Node10</title>
<g id="a_node10"><a xlink:title=" ">
<polygon fill="white" stroke="#bfbfbf" points="1264.5,-0.5 1264.5,-19.5 1311.5,-19.5 1311.5,-0.5 1264.5,-0.5"/>
<text text-anchor="middle" x="1288" y="-7.5" font-family="Helvetica,sans-Serif" font-size="10.00">vector</text>
</a>
</g>
</g>
<!-- Node4&#45;&gt;Node10 -->
<g id="edge9" class="edge">
<title>Node4&#45;&gt;Node10</title>
<path fill="none" stroke="midnightblue" d="M792.17,-57.09C795.5,-56.71 798.79,-56.34 802,-56 984.76,-36.44 1031.19,-39.1 1214,-20 1227.17,-18.62 1241.64,-16.91 1254.26,-15.35"/>
<polygon fill="midnightblue" stroke="midnightblue" points="1254.87,-18.8 1264.36,-14.08 1254,-11.85 1254.87,-18.8"/>
</g>
<!-- Node11&#45;&gt;Node8 -->
<g id="edge13" class="edge">
<title>Node11&#45;&gt;Node8</title>
<path fill="none" stroke="midnightblue" d="M1106.58,-56.44C1071.26,-46.51 1013.25,-30.2 977.19,-20.05"/>
<polygon fill="midnightblue" stroke="midnightblue" points="977.77,-16.58 967.2,-17.24 975.88,-23.32 977.77,-16.58"/>
</g>
<!-- Node12 -->
<g id="node12" class="node">
<title>Node12</title>
<g id="a_node12"><a xlink:title=" ">
<polygon fill="white" stroke="#bfbfbf" points="1149,-0.5 1149,-19.5 1205,-19.5 1205,-0.5 1149,-0.5"/>
<text text-anchor="middle" x="1177" y="-7.5" font-family="Helvetica,sans-Serif" font-size="10.00">sstream</text>
</a>
</g>
</g>
<!-- Node11&#45;&gt;Node12 -->
<g id="edge11" class="edge">
<title>Node11&#45;&gt;Node12</title>
<path fill="none" stroke="midnightblue" d="M1143.61,-56.08C1149.26,-48.46 1157.54,-37.26 1164.45,-27.94"/>
<polygon fill="midnightblue" stroke="midnightblue" points="1167.38,-29.87 1170.52,-19.75 1161.75,-25.7 1167.38,-29.87"/>
</g>
<!-- Node13 -->
<g id="node13" class="node">
<title>Node13</title>
<g id="a_node13"><a xlink:title=" ">
<polygon fill="white" stroke="#bfbfbf" points="1065.5,-0.5 1065.5,-19.5 1130.5,-19.5 1130.5,-0.5 1065.5,-0.5"/>
<text text-anchor="middle" x="1098" y="-7.5" font-family="Helvetica,sans-Serif" font-size="10.00">stdexcept</text>
</a>
</g>
</g>
<!-- Node11&#45;&gt;Node13 -->
<g id="edge12" class="edge">
<title>Node11&#45;&gt;Node13</title>
<path fill="none" stroke="midnightblue" d="M1130.56,-56.08C1125.05,-48.46 1116.97,-37.26 1110.24,-27.94"/>
<polygon fill="midnightblue" stroke="midnightblue" points="1113.01,-25.81 1104.32,-19.75 1107.34,-29.91 1113.01,-25.81"/>
</g>
<!-- Node14&#45;&gt;Node10 -->
<g id="edge31" class="edge">
<title>Node14&#45;&gt;Node10</title>
<path fill="none" stroke="midnightblue" d="M1073.7,-171.34C1131.31,-162.07 1222.46,-137.95 1269,-76 1279.04,-62.63 1283.79,-44.06 1286.03,-30.19"/>
<polygon fill="midnightblue" stroke="midnightblue" points="1289.55,-30.23 1287.38,-19.87 1282.61,-29.33 1289.55,-30.23"/>
</g>
<!-- Node14&#45;&gt;Node11 -->
<g id="edge15" class="edge">
<title>Node14&#45;&gt;Node11</title>
<path fill="none" stroke="midnightblue" d="M1023.11,-168.37C1025.27,-154.83 1031.2,-128.45 1046,-112 1059.53,-96.96 1079.21,-86.37 1096.81,-79.25"/>
<polygon fill="midnightblue" stroke="midnightblue" points="1098.22,-82.46 1106.33,-75.65 1095.74,-75.92 1098.22,-82.46"/>
</g>
<!-- Node15 -->
<g id="node15" class="node">
<title>Node15</title>
<g id="a_node15"><a xlink:href="_optional_8hpp.html" target="_top" xlink:title=" ">
<polygon fill="white" stroke="black" points="631.5,-112.5 631.5,-131.5 710.5,-131.5 710.5,-112.5 631.5,-112.5"/>
<text text-anchor="middle" x="671" y="-119.5" font-family="Helvetica,sans-Serif" font-size="10.00">Optional.hpp</text>
</a>
</g>
</g>
<!-- Node14&#45;&gt;Node15 -->
<g id="edge16" class="edge">
<title>Node14&#45;&gt;Node15</title>
<path fill="none" stroke="midnightblue" d="M970.21,-169.03C903.14,-158.71 787.04,-140.85 720.91,-130.68"/>
<polygon fill="midnightblue" stroke="midnightblue" points="721.15,-127.17 710.74,-129.11 720.09,-134.09 721.15,-127.17"/>
</g>
<!-- Node14&#45;&gt;Node18 -->
<g id="edge20" class="edge">
<title>Node14&#45;&gt;Node18</title>
<path fill="none" stroke="midnightblue" d="M993.64,-168.44C963.26,-159.28 914.89,-144.69 881.18,-134.52"/>
<polygon fill="midnightblue" stroke="midnightblue" points="881.82,-131.05 871.23,-131.52 879.79,-137.76 881.82,-131.05"/>
</g>
<!-- Node19 -->
<g id="node19" class="node">
<title>Node19</title>
<g id="a_node19"><a xlink:title=" ">
<polygon fill="white" stroke="#bfbfbf" points="1218,-56.5 1218,-75.5 1260,-75.5 1260,-56.5 1218,-56.5"/>
<text text-anchor="middle" x="1239" y="-63.5" font-family="Helvetica,sans-Serif" font-size="10.00">array</text>
</a>
</g>
</g>
<!-- Node14&#45;&gt;Node19 -->
<g id="edge29" class="edge">
<title>Node14&#45;&gt;Node19</title>
<path fill="none" stroke="midnightblue" d="M1027.28,-168.41C1036.33,-154.45 1056.12,-126.88 1080,-112 1127.95,-82.12 1149.58,-91.44 1208.01,-76.12"/>
<polygon fill="midnightblue" stroke="midnightblue" points="1209,-79.48 1217.71,-73.44 1207.14,-72.73 1209,-79.48"/>
</g>
<!-- Node14&#45;&gt;Node21 -->
<g id="edge28" class="edge">
<title>Node14&#45;&gt;Node21</title>
<path fill="none" stroke="midnightblue" d="M970.35,-168.7C925.43,-160.94 858.81,-148.14 802,-132 749.12,-116.97 689.46,-93.69 654.66,-79.45"/>
<polygon fill="midnightblue" stroke="midnightblue" points="655.69,-76.09 645.11,-75.52 653.02,-82.56 655.69,-76.09"/>
</g>
<!-- Node24 -->
<g id="node24" class="node">
<title>Node24</title>
<g id="a_node24"><a xlink:title=" ">
<polygon fill="white" stroke="#bfbfbf" points="1088.5,-112.5 1088.5,-131.5 1171.5,-131.5 1171.5,-112.5 1088.5,-112.5"/>
<text text-anchor="middle" x="1130" y="-119.5" font-family="Helvetica,sans-Serif" font-size="10.00">initializer_list</text>
</a>
</g>
</g>
<!-- Node14&#45;&gt;Node24 -->
<g id="edge30" class="edge">
<title>Node14&#45;&gt;Node24</title>
<path fill="none" stroke="midnightblue" d="M1039.35,-168.32C1056.67,-159.66 1083.52,-146.24 1103.5,-136.25"/>
<polygon fill="midnightblue" stroke="midnightblue" points="1105.31,-139.26 1112.69,-131.65 1102.18,-133 1105.31,-139.26"/>
</g>
<!-- Node25 -->
<g id="node25" class="node">
<title>Node25</title>
<g id="a_node25"><a xlink:title=" ">
<polygon fill="white" stroke="#bfbfbf" points="1252.5,-112.5 1252.5,-131.5 1297.5,-131.5 1297.5,-112.5 1252.5,-112.5"/>
<text text-anchor="middle" x="1275" y="-119.5" font-family="Helvetica,sans-Serif" font-size="10.00">utility</text>
</a>
</g>
</g>
<!-- Node14&#45;&gt;Node25 -->
<g id="edge32" class="edge">
<title>Node14&#45;&gt;Node25</title>
<path fill="none" stroke="midnightblue" d="M1065.12,-168.45C1108.79,-159.7 1178.22,-145.49 1238,-132 1239.45,-131.67 1240.93,-131.33 1242.43,-130.99"/>
<polygon fill="midnightblue" stroke="midnightblue" points="1243.41,-134.35 1252.33,-128.64 1241.79,-127.54 1243.41,-134.35"/>
</g>
<!-- Node15&#45;&gt;Node11 -->
<g id="edge17" class="edge">
<title>Node15&#45;&gt;Node11</title>
<path fill="none" stroke="midnightblue" d="M710.72,-116.6C780.07,-108.9 928,-92.33 1063.99,-76.11"/>
<polygon fill="midnightblue" stroke="midnightblue" points="1064.66,-79.55 1074.18,-74.89 1063.83,-72.6 1064.66,-79.55"/>
</g>
<!-- Node16 -->
<g id="node16" class="node">
<title>Node16</title>
<g id="a_node16"><a xlink:title=" ">
<polygon fill="white" stroke="#bfbfbf" points="530,-56.5 530,-75.5 580,-75.5 580,-56.5 530,-56.5"/>
<text text-anchor="middle" x="555" y="-63.5" font-family="Helvetica,sans-Serif" font-size="10.00">cstring</text>
</a>
</g>
</g>
<!-- Node15&#45;&gt;Node16 -->
<g id="edge18" class="edge">
<title>Node15&#45;&gt;Node16</title>
<path fill="none" stroke="midnightblue" d="M652.62,-112.44C633.78,-103.68 604.27,-89.94 582.62,-79.86"/>
<polygon fill="midnightblue" stroke="midnightblue" points="583.84,-76.56 573.29,-75.52 580.88,-82.91 583.84,-76.56"/>
</g>
<!-- Node15&#45;&gt;Node17 -->
<g id="edge19" class="edge">
<title>Node15&#45;&gt;Node17</title>
<path fill="none" stroke="midnightblue" d="M631.46,-116.84C568.53,-110.01 441.51,-95.39 323.47,-75.96"/>
<polygon fill="midnightblue" stroke="midnightblue" points="323.98,-72.5 313.54,-74.31 322.83,-79.41 323.98,-72.5"/>
</g>
<!-- Node18&#45;&gt;Node4 -->
<g id="edge25" class="edge">
<title>Node18&#45;&gt;Node4</title>
<path fill="none" stroke="midnightblue" d="M825.01,-112.32C806.96,-103.62 778.95,-90.12 758.2,-80.11"/>
<polygon fill="midnightblue" stroke="midnightblue" points="759.48,-76.84 748.95,-75.65 756.44,-83.15 759.48,-76.84"/>
</g>
<!-- Node18&#45;&gt;Node11 -->
<g id="edge26" class="edge">
<title>Node18&#45;&gt;Node11</title>
<path fill="none" stroke="midnightblue" d="M875.61,-114.72C880.43,-113.8 885.35,-112.87 890,-112 954.94,-99.87 1029.56,-86.33 1079.64,-77.3"/>
<polygon fill="midnightblue" stroke="midnightblue" points="1080.4,-80.72 1089.63,-75.5 1079.16,-73.83 1080.4,-80.72"/>
</g>
<!-- Node18&#45;&gt;Node19 -->
<g id="edge21" class="edge">
<title>Node18&#45;&gt;Node19</title>
<path fill="none" stroke="midnightblue" d="M875.62,-118.85C938.3,-114.32 1080.01,-102.15 1207.85,-75.92"/>
<polygon fill="midnightblue" stroke="midnightblue" points="1208.74,-79.31 1217.81,-73.84 1207.3,-72.46 1208.74,-79.31"/>
</g>
<!-- Node20 -->
<g id="node20" class="node">
<title>Node20</title>
<g id="a_node20"><a xlink:title=" ">
<polygon fill="white" stroke="#bfbfbf" points="810.5,-56.5 810.5,-75.5 875.5,-75.5 875.5,-56.5 810.5,-56.5"/>
<text text-anchor="middle" x="843" y="-63.5" font-family="Helvetica,sans-Serif" font-size="10.00">functional</text>
</a>
</g>
</g>
<!-- Node18&#45;&gt;Node20 -->
<g id="edge22" class="edge">
<title>Node18&#45;&gt;Node20</title>
<path fill="none" stroke="midnightblue" d="M843,-112.08C843,-105.01 843,-94.86 843,-85.99"/>
<polygon fill="midnightblue" stroke="midnightblue" points="846.5,-85.75 843,-75.75 839.5,-85.75 846.5,-85.75"/>
</g>
<!-- Node18&#45;&gt;Node21 -->
<g id="edge23" class="edge">
<title>Node18&#45;&gt;Node21</title>
<path fill="none" stroke="midnightblue" d="M810.45,-112.98C775.95,-104.47 719.62,-90.56 661.46,-76.11"/>
<polygon fill="midnightblue" stroke="midnightblue" points="662.28,-72.71 651.73,-73.69 660.59,-79.5 662.28,-72.71"/>
</g>
<!-- Node22 -->
<g id="node22" class="node">
<title>Node22</title>
<g id="a_node22"><a xlink:title=" ">
<polygon fill="white" stroke="#bfbfbf" points="894,-56.5 894,-75.5 944,-75.5 944,-56.5 894,-56.5"/>
<text text-anchor="middle" x="919" y="-63.5" font-family="Helvetica,sans-Serif" font-size="10.00">chrono</text>
</a>
</g>
</g>
<!-- Node18&#45;&gt;Node22 -->
<g id="edge24" class="edge">
<title>Node18&#45;&gt;Node22</title>
<path fill="none" stroke="midnightblue" d="M855.21,-112.32C866.78,-104.11 884.38,-91.6 898.16,-81.81"/>
<polygon fill="midnightblue" stroke="midnightblue" points="900.44,-84.48 906.57,-75.83 896.39,-78.77 900.44,-84.48"/>
</g>
<!-- Node23 -->
<g id="node23" class="node">
<title>Node23</title>
<g id="a_node23"><a xlink:href="_deprecated_8hpp.html" target="_top" xlink:title=" ">
<polygon fill="white" stroke="black" points="962,-56.5 962,-75.5 1056,-75.5 1056,-56.5 962,-56.5"/>
<text text-anchor="middle" x="1009" y="-63.5" font-family="Helvetica,sans-Serif" font-size="10.00">Deprecated.hpp</text>
</a>
</g>
</g>
<!-- Node18&#45;&gt;Node23 -->
<g id="edge27" class="edge">
<title>Node18&#45;&gt;Node23</title>
<path fill="none" stroke="midnightblue" d="M869.3,-112.44C897.35,-103.32 941.94,-88.81 973.18,-78.65"/>
<polygon fill="midnightblue" stroke="midnightblue" points="974.39,-81.94 982.82,-75.52 972.23,-75.28 974.39,-81.94"/>
</g>
<!-- Node28 -->
<g id="node28" class="node">
<title>Node28</title>
<g id="a_node28"><a xlink:title=" ">
<polygon fill="white" stroke="#bfbfbf" points="41,-168.5 41,-187.5 93,-187.5 93,-168.5 41,-168.5"/>
<text text-anchor="middle" x="67" y="-175.5" font-family="Helvetica,sans-Serif" font-size="10.00">cassert</text>
</a>
</g>
</g>
<!-- Node27&#45;&gt;Node28 -->
<g id="edge40" class="edge">
<title>Node27&#45;&gt;Node28</title>
<path fill="none" stroke="midnightblue" d="M67,-224.08C67,-217.01 67,-206.86 67,-197.99"/>
<polygon fill="midnightblue" stroke="midnightblue" points="70.5,-197.75 67,-187.75 63.5,-197.75 70.5,-197.75"/>
</g>
<!-- Node29&#45;&gt;Node17 -->
<g id="edge43" class="edge">
<title>Node29&#45;&gt;Node17</title>
<path fill="none" stroke="midnightblue" d="M215.51,-285.86C225.19,-252.5 260.25,-131.64 273.7,-85.28"/>
<polygon fill="midnightblue" stroke="midnightblue" points="277.07,-86.23 276.49,-75.65 270.34,-84.28 277.07,-86.23"/>
</g>
<!-- Node29&#45;&gt;Node27 -->
<g id="edge42" class="edge">
<title>Node29&#45;&gt;Node27</title>
<path fill="none" stroke="midnightblue" d="M192.08,-285.98C167.25,-275.86 125.66,-258.9 97.31,-247.35"/>
<polygon fill="midnightblue" stroke="midnightblue" points="98.46,-244.04 87.88,-243.51 95.82,-250.52 98.46,-244.04"/>
</g>
<!-- Node30 -->
<g id="node30" class="node">
<title>Node30</title>
<g id="a_node30"><a xlink:title=" ">
<polygon fill="white" stroke="#bfbfbf" points="152,-224.5 152,-243.5 196,-243.5 196,-224.5 152,-224.5"/>
<text text-anchor="middle" x="174" y="-231.5" font-family="Helvetica,sans-Serif" font-size="10.00">limits</text>
</a>
</g>
</g>
<!-- Node29&#45;&gt;Node30 -->
<g id="edge44" class="edge">
<title>Node29&#45;&gt;Node30</title>
<path fill="none" stroke="midnightblue" d="M207.41,-285.98C201.62,-277.14 192.41,-263.09 185.13,-251.98"/>
<polygon fill="midnightblue" stroke="midnightblue" points="187.99,-249.95 179.58,-243.51 182.13,-253.79 187.99,-249.95"/>
</g>
<!-- Node32 -->
<g id="node32" class="node">
<title>Node32</title>
<g id="a_node32"><a xlink:title=" ">
<polygon fill="white" stroke="#bfbfbf" points="379.5,-224.5 379.5,-243.5 432.5,-243.5 432.5,-224.5 379.5,-224.5"/>
<text text-anchor="middle" x="406" y="-231.5" font-family="Helvetica,sans-Serif" font-size="10.00">cstddef</text>
</a>
</g>
</g>
<!-- Node31&#45;&gt;Node32 -->
<g id="edge46" class="edge">
<title>Node31&#45;&gt;Node32</title>
<path fill="none" stroke="midnightblue" d="M406,-280.4C406,-272.47 406,-262.46 406,-253.86"/>
<polygon fill="midnightblue" stroke="midnightblue" points="409.5,-253.66 406,-243.66 402.5,-253.66 409.5,-253.66"/>
</g>
<!-- Node33&#45;&gt;Node3 -->
<g id="edge48" class="edge">
<title>Node33&#45;&gt;Node3</title>
<path fill="none" stroke="midnightblue" d="M893.43,-285.98C832.26,-275.24 727.24,-256.81 661.66,-245.29"/>
<polygon fill="midnightblue" stroke="midnightblue" points="661.93,-241.79 651.48,-243.51 660.72,-248.69 661.93,-241.79"/>
</g>
<!-- Node33&#45;&gt;Node10 -->
<g id="edge53" class="edge">
<title>Node33&#45;&gt;Node10</title>
<path fill="none" stroke="midnightblue" d="M1016.95,-287.33C1128.7,-274.52 1326,-242.87 1326,-179 1326,-179 1326,-179 1326,-121 1326,-86.81 1309.4,-49.76 1298.14,-28.57"/>
<polygon fill="midnightblue" stroke="midnightblue" points="1301.18,-26.83 1293.28,-19.77 1295.05,-30.22 1301.18,-26.83"/>
</g>
<!-- Node33&#45;&gt;Node14 -->
<g id="edge49" class="edge">
<title>Node33&#45;&gt;Node14</title>
<path fill="none" stroke="midnightblue" d="M948.01,-285.82C961.16,-266.84 992.67,-221.35 1010.03,-196.29"/>
<polygon fill="midnightblue" stroke="midnightblue" points="1013.1,-198 1015.92,-187.78 1007.35,-194.01 1013.1,-198"/>
</g>
<!-- Node33&#45;&gt;Node18 -->
<g id="edge50" class="edge">
<title>Node33&#45;&gt;Node18</title>
<path fill="none" stroke="midnightblue" d="M936.95,-285.76C921.4,-258.81 873.95,-176.62 853.06,-140.42"/>
<polygon fill="midnightblue" stroke="midnightblue" points="855.95,-138.43 847.92,-131.52 849.89,-141.93 855.95,-138.43"/>
</g>
<!-- Node33&#45;&gt;Node25 -->
<g id="edge52" class="edge">
<title>Node33&#45;&gt;Node25</title>
<path fill="none" stroke="midnightblue" d="M958.51,-286C1012.44,-258.22 1183.65,-170.04 1249.16,-136.31"/>
<polygon fill="midnightblue" stroke="midnightblue" points="1251.1,-139.25 1258.39,-131.56 1247.89,-133.02 1251.1,-139.25"/>
</g>
<!-- Node33&#45;&gt;Node33 -->
<g id="edge51" class="edge">
<title>Node33&#45;&gt;Node33</title>
<path fill="none" stroke="midnightblue" d="M976.15,-305.03C1004.69,-309.11 1034.5,-305.93 1034.5,-295.5 1034.5,-286.29 1011.26,-282.74 986.19,-284.83"/>
<polygon fill="midnightblue" stroke="midnightblue" points="985.7,-281.37 976.15,-285.97 986.48,-288.32 985.7,-281.37"/>
</g>
<!-- Node34&#45;&gt;Node18 -->
<g id="edge55" class="edge">
<title>Node34&#45;&gt;Node18</title>
<path fill="none" stroke="midnightblue" d="M436.67,-171.12C526.74,-160.45 715.55,-138.09 800.26,-128.06"/>
<polygon fill="midnightblue" stroke="midnightblue" points="800.79,-131.52 810.31,-126.87 799.96,-124.57 800.79,-131.52"/>
</g>
<!-- Node35 -->
<g id="node35" class="node">
<title>Node35</title>
<g id="a_node35"><a xlink:href="_b_float16_8hpp.html" target="_top" xlink:title=" ">
<polygon fill="white" stroke="black" points="493.5,-112.5 493.5,-131.5 574.5,-131.5 574.5,-112.5 493.5,-112.5"/>
<text text-anchor="middle" x="534" y="-119.5" font-family="Helvetica,sans-Serif" font-size="10.00">BFloat16.hpp</text>
</a>
</g>
</g>
<!-- Node34&#45;&gt;Node35 -->
<g id="edge56" class="edge">
<title>Node34&#45;&gt;Node35</title>
<path fill="none" stroke="midnightblue" d="M410.29,-168.44C434.81,-159.44 473.6,-145.19 501.2,-135.05"/>
<polygon fill="midnightblue" stroke="midnightblue" points="502.64,-138.25 510.82,-131.52 500.22,-131.68 502.64,-138.25"/>
</g>
<!-- Node36 -->
<g id="node36" class="node">
<title>Node36</title>
<g id="a_node36"><a xlink:href="_half_8hpp.html" target="_top" xlink:title=" ">
<polygon fill="white" stroke="black" points="341.5,-112.5 341.5,-131.5 398.5,-131.5 398.5,-112.5 341.5,-112.5"/>
<text text-anchor="middle" x="370" y="-119.5" font-family="Helvetica,sans-Serif" font-size="10.00">Half.hpp</text>
</a>
</g>
</g>
<!-- Node34&#45;&gt;Node36 -->
<g id="edge61" class="edge">
<title>Node34&#45;&gt;Node36</title>
<path fill="none" stroke="midnightblue" d="M384.19,-168.08C381.92,-160.85 378.63,-150.41 375.79,-141.4"/>
<polygon fill="midnightblue" stroke="midnightblue" points="379.1,-140.24 372.75,-131.75 372.42,-142.34 379.1,-140.24"/>
</g>
<!-- Node35&#45;&gt;Node6 -->
<g id="edge57" class="edge">
<title>Node35&#45;&gt;Node6</title>
<path fill="none" stroke="midnightblue" d="M531.49,-112.37C526.3,-94.54 514.3,-53.3 507.32,-29.27"/>
<polygon fill="midnightblue" stroke="midnightblue" points="510.65,-28.22 504.5,-19.59 503.93,-30.17 510.65,-28.22"/>
</g>
<!-- Node35&#45;&gt;Node16 -->
<g id="edge59" class="edge">
<title>Node35&#45;&gt;Node16</title>
<path fill="none" stroke="midnightblue" d="M537.47,-112.08C540.31,-104.77 544.43,-94.18 547.96,-85.1"/>
<polygon fill="midnightblue" stroke="midnightblue" points="551.23,-86.34 551.6,-75.75 544.71,-83.8 551.23,-86.34"/>
</g>
<!-- Node35&#45;&gt;Node21 -->
<g id="edge60" class="edge">
<title>Node35&#45;&gt;Node21</title>
<path fill="none" stroke="midnightblue" d="M548.62,-112.32C562.95,-103.82 585.01,-90.73 601.75,-80.8"/>
<polygon fill="midnightblue" stroke="midnightblue" points="603.6,-83.77 610.42,-75.65 600.03,-77.75 603.6,-83.77"/>
</g>
<!-- Node35&#45;&gt;Node26 -->
<g id="edge58" class="edge">
<title>Node35&#45;&gt;Node26</title>
<path fill="none" stroke="midnightblue" d="M520.5,-112.32C507.4,-103.9 487.29,-90.97 471.89,-81.07"/>
<polygon fill="midnightblue" stroke="midnightblue" points="473.77,-78.12 463.46,-75.65 469.98,-84.01 473.77,-78.12"/>
</g>
<!-- Node36&#45;&gt;Node17 -->
<g id="edge62" class="edge">
<title>Node36&#45;&gt;Node17</title>
<path fill="none" stroke="midnightblue" d="M355.38,-112.32C341.05,-103.82 318.99,-90.73 302.25,-80.8"/>
<polygon fill="midnightblue" stroke="midnightblue" points="303.97,-77.75 293.58,-75.65 300.4,-83.77 303.97,-77.75"/>
</g>
<!-- Node37 -->
<g id="node37" class="node">
<title>Node37</title>
<g id="a_node37"><a xlink:title=" ">
<polygon fill="white" stroke="#bfbfbf" points="331.5,-56.5 331.5,-75.5 408.5,-75.5 408.5,-56.5 331.5,-56.5"/>
<text text-anchor="middle" x="370" y="-63.5" font-family="Helvetica,sans-Serif" font-size="10.00">half/half.hpp</text>
</a>
</g>
</g>
<!-- Node36&#45;&gt;Node37 -->
<g id="edge63" class="edge">
<title>Node36&#45;&gt;Node37</title>
<path fill="none" stroke="midnightblue" d="M370,-112.08C370,-105.01 370,-94.86 370,-85.99"/>
<polygon fill="midnightblue" stroke="midnightblue" points="373.5,-85.75 370,-75.75 366.5,-85.75 373.5,-85.75"/>
</g>
</g>
</svg>
