<?xml version="1.0" encoding="UTF-8" standalone="no"?>
<!DOCTYPE svg PUBLIC "-//W3C//DTD SVG 1.1//EN"
 "http://www.w3.org/Graphics/SVG/1.1/DTD/svg11.dtd">
<!-- Generated by graphviz version 2.43.0 (0)
 -->
<!-- Title: src/backends/neon/workloads/NeonInstanceNormalizationWorkload.hpp Pages: 1 -->
<svg width="599pt" height="173pt"
 viewBox="0.00 0.00 598.50 173.00" xmlns="http://www.w3.org/2000/svg" xmlns:xlink="http://www.w3.org/1999/xlink">
<g id="graph0" class="graph" transform="scale(1 1) rotate(0) translate(4 169)">
<title>src/backends/neon/workloads/NeonInstanceNormalizationWorkload.hpp</title>
<polygon fill="white" stroke="transparent" points="-4,4 -4,-169 594.5,-169 594.5,4 -4,4"/>
<!-- Node1 -->
<g id="node1" class="node">
<title>Node1</title>
<g id="a_node1"><a xlink:title=" ">
<polygon fill="#bfbfbf" stroke="black" points="180,-134.5 180,-164.5 402,-164.5 402,-134.5 180,-134.5"/>
<text text-anchor="start" x="188" y="-152.5" font-family="Helvetica,sans-Serif" font-size="10.00">src/backends/neon/workloads</text>
<text text-anchor="middle" x="291" y="-141.5" font-family="Helvetica,sans-Serif" font-size="10.00">/NeonInstanceNormalizationWorkload.hpp</text>
</a>
</g>
</g>
<!-- Node2 -->
<g id="node2" class="node">
<title>Node2</title>
<g id="a_node2"><a xlink:href="_neon_layer_support_8cpp.html" target="_top" xlink:title=" ">
<polygon fill="white" stroke="black" points="0,-67.5 0,-97.5 162,-97.5 162,-67.5 0,-67.5"/>
<text text-anchor="start" x="8" y="-85.5" font-family="Helvetica,sans-Serif" font-size="10.00">src/backends/neon/NeonLayer</text>
<text text-anchor="middle" x="81" y="-74.5" font-family="Helvetica,sans-Serif" font-size="10.00">Support.cpp</text>
</a>
</g>
</g>
<!-- Node1&#45;&gt;Node2 -->
<g id="edge1" class="edge">
<title>Node1&#45;&gt;Node2</title>
<path fill="none" stroke="midnightblue" d="M235.9,-131.44C201.86,-120.91 158.7,-107.55 126.59,-97.61"/>
<polygon fill="midnightblue" stroke="midnightblue" points="235.1,-134.86 245.69,-134.48 237.17,-128.18 235.1,-134.86"/>
</g>
<!-- Node3 -->
<g id="node3" class="node">
<title>Node3</title>
<g id="a_node3"><a xlink:href="_neon_instance_normalization_workload_8cpp.html" target="_top" xlink:title=" ">
<polygon fill="white" stroke="black" points="180.5,-67.5 180.5,-97.5 401.5,-97.5 401.5,-67.5 180.5,-67.5"/>
<text text-anchor="start" x="188.5" y="-85.5" font-family="Helvetica,sans-Serif" font-size="10.00">src/backends/neon/workloads</text>
<text text-anchor="middle" x="291" y="-74.5" font-family="Helvetica,sans-Serif" font-size="10.00">/NeonInstanceNormalizationWorkload.cpp</text>
</a>
</g>
</g>
<!-- Node1&#45;&gt;Node3 -->
<g id="edge2" class="edge">
<title>Node1&#45;&gt;Node3</title>
<path fill="none" stroke="midnightblue" d="M291,-124.11C291,-115.15 291,-105.32 291,-97.58"/>
<polygon fill="midnightblue" stroke="midnightblue" points="287.5,-124.4 291,-134.4 294.5,-124.4 287.5,-124.4"/>
</g>
<!-- Node4 -->
<g id="node4" class="node">
<title>Node4</title>
<g id="a_node4"><a xlink:href="_neon_workloads_8hpp.html" target="_top" xlink:title=" ">
<polygon fill="white" stroke="black" points="420,-67.5 420,-97.5 580,-97.5 580,-67.5 420,-67.5"/>
<text text-anchor="start" x="428" y="-85.5" font-family="Helvetica,sans-Serif" font-size="10.00">src/backends/neon/workloads</text>
<text text-anchor="middle" x="500" y="-74.5" font-family="Helvetica,sans-Serif" font-size="10.00">/NeonWorkloads.hpp</text>
</a>
</g>
</g>
<!-- Node1&#45;&gt;Node4 -->
<g id="edge3" class="edge">
<title>Node1&#45;&gt;Node4</title>
<path fill="none" stroke="midnightblue" d="M345.84,-131.44C379.72,-120.91 422.67,-107.55 454.63,-97.61"/>
<polygon fill="midnightblue" stroke="midnightblue" points="344.6,-128.16 336.09,-134.48 346.68,-134.85 344.6,-128.16"/>
</g>
<!-- Node5 -->
<g id="node5" class="node">
<title>Node5</title>
<g id="a_node5"><a xlink:href="_neon_workload_factory_8cpp.html" target="_top" xlink:title=" ">
<polygon fill="white" stroke="black" points="409.5,-0.5 409.5,-30.5 590.5,-30.5 590.5,-0.5 409.5,-0.5"/>
<text text-anchor="start" x="417.5" y="-18.5" font-family="Helvetica,sans-Serif" font-size="10.00">src/backends/neon/NeonWorkload</text>
<text text-anchor="middle" x="500" y="-7.5" font-family="Helvetica,sans-Serif" font-size="10.00">Factory.cpp</text>
</a>
</g>
</g>
<!-- Node4&#45;&gt;Node5 -->
<g id="edge4" class="edge">
<title>Node4&#45;&gt;Node5</title>
<path fill="none" stroke="midnightblue" d="M500,-57.11C500,-48.15 500,-38.32 500,-30.58"/>
<polygon fill="midnightblue" stroke="midnightblue" points="496.5,-57.4 500,-67.4 503.5,-57.4 496.5,-57.4"/>
</g>
</g>
</svg>
