<?xml version="1.0" encoding="UTF-8" standalone="no"?>
<!DOCTYPE svg PUBLIC "-//W3C//DTD SVG 1.1//EN"
 "http://www.w3.org/Graphics/SVG/1.1/DTD/svg11.dtd">
<!-- Generated by graphviz version 2.43.0 (0)
 -->
<!-- Title: src/backends/reference/workloads/Pooling3d.cpp Pages: 1 -->
<svg width="1567pt" height="498pt"
 viewBox="0.00 0.00 1567.00 498.00" xmlns="http://www.w3.org/2000/svg" xmlns:xlink="http://www.w3.org/1999/xlink">
<g id="graph0" class="graph" transform="scale(1 1) rotate(0) translate(4 494)">
<title>src/backends/reference/workloads/Pooling3d.cpp</title>
<polygon fill="white" stroke="transparent" points="-4,4 -4,-494 1563,-494 1563,4 -4,4"/>
<!-- Node1 -->
<g id="node1" class="node">
<title>Node1</title>
<g id="a_node1"><a xlink:title=" ">
<polygon fill="#bfbfbf" stroke="black" points="933.5,-459.5 933.5,-489.5 1074.5,-489.5 1074.5,-459.5 933.5,-459.5"/>
<text text-anchor="start" x="941.5" y="-477.5" font-family="Helvetica,sans-Serif" font-size="10.00">src/backends/reference</text>
<text text-anchor="middle" x="1004" y="-466.5" font-family="Helvetica,sans-Serif" font-size="10.00">/workloads/Pooling3d.cpp</text>
</a>
</g>
</g>
<!-- Node2 -->
<g id="node2" class="node">
<title>Node2</title>
<g id="a_node2"><a xlink:href="_pooling3d_8hpp.html" target="_top" xlink:title=" ">
<polygon fill="white" stroke="black" points="452,-403.5 452,-422.5 538,-422.5 538,-403.5 452,-403.5"/>
<text text-anchor="middle" x="495" y="-410.5" font-family="Helvetica,sans-Serif" font-size="10.00">Pooling3d.hpp</text>
</a>
</g>
</g>
<!-- Node1&#45;&gt;Node2 -->
<g id="edge1" class="edge">
<title>Node1&#45;&gt;Node2</title>
<path fill="none" stroke="midnightblue" d="M933.49,-465.26C830.23,-453.19 640.17,-430.97 547.95,-420.19"/>
<polygon fill="midnightblue" stroke="midnightblue" points="548.34,-416.71 538,-419.03 547.53,-423.66 548.34,-416.71"/>
</g>
<!-- Node7 -->
<g id="node7" class="node">
<title>Node7</title>
<g id="a_node7"><a xlink:href="_exceptions_8hpp.html" target="_top" xlink:title=" ">
<polygon fill="white" stroke="black" points="613.5,-56.5 613.5,-75.5 704.5,-75.5 704.5,-56.5 613.5,-56.5"/>
<text text-anchor="middle" x="659" y="-63.5" font-family="Helvetica,sans-Serif" font-size="10.00">Exceptions.hpp</text>
</a>
</g>
</g>
<!-- Node1&#45;&gt;Node7 -->
<g id="edge76" class="edge">
<title>Node1&#45;&gt;Node7</title>
<path fill="none" stroke="midnightblue" d="M933.8,-459.47C849.7,-440.6 720,-404.04 720,-358 720,-358 720,-358 720,-233 720,-178.42 722.7,-161.17 699,-112 693.69,-100.98 684.88,-90.64 676.87,-82.65"/>
<polygon fill="midnightblue" stroke="midnightblue" points="678.98,-79.82 669.3,-75.51 674.18,-84.92 678.98,-79.82"/>
</g>
<!-- Node14 -->
<g id="node14" class="node">
<title>Node14</title>
<g id="a_node14"><a xlink:href="_types_8hpp.html" target="_top" xlink:title=" ">
<polygon fill="white" stroke="black" points="769.5,-112.5 769.5,-131.5 834.5,-131.5 834.5,-112.5 769.5,-112.5"/>
<text text-anchor="middle" x="802" y="-119.5" font-family="Helvetica,sans-Serif" font-size="10.00">Types.hpp</text>
</a>
</g>
</g>
<!-- Node1&#45;&gt;Node14 -->
<g id="edge77" class="edge">
<title>Node1&#45;&gt;Node14</title>
<path fill="none" stroke="midnightblue" d="M993.41,-459.29C979.55,-439.71 955.98,-402.8 947,-367 937.59,-329.49 966.52,-313.38 947,-280 930.52,-251.83 906.95,-266.17 883,-244 849.73,-213.22 823.33,-166.2 810.5,-140.79"/>
<polygon fill="midnightblue" stroke="midnightblue" points="813.54,-139.04 805.98,-131.61 807.26,-142.13 813.54,-139.04"/>
</g>
<!-- Node16 -->
<g id="node16" class="node">
<title>Node16</title>
<g id="a_node16"><a xlink:title=" ">
<polygon fill="white" stroke="#bfbfbf" points="897.5,-56.5 897.5,-75.5 962.5,-75.5 962.5,-56.5 897.5,-56.5"/>
<text text-anchor="middle" x="930" y="-63.5" font-family="Helvetica,sans-Serif" font-size="10.00">functional</text>
</a>
</g>
</g>
<!-- Node1&#45;&gt;Node16 -->
<g id="edge85" class="edge">
<title>Node1&#45;&gt;Node16</title>
<path fill="none" stroke="midnightblue" d="M1017.11,-459.17C1036.22,-436.56 1068.76,-390.69 1062,-347 1045.27,-238.87 971.66,-125.63 942.22,-83.8"/>
<polygon fill="midnightblue" stroke="midnightblue" points="945.01,-81.67 936.35,-75.57 939.31,-85.74 945.01,-81.67"/>
</g>
<!-- Node34 -->
<g id="node34" class="node">
<title>Node34</title>
<g id="a_node34"><a xlink:href="_numeric_cast_8hpp.html" target="_top" xlink:title=" ">
<polygon fill="white" stroke="black" points="1145.5,-286 1145.5,-305 1312.5,-305 1312.5,-286 1145.5,-286"/>
<text text-anchor="middle" x="1229" y="-293" font-family="Helvetica,sans-Serif" font-size="10.00">armnn/utility/NumericCast.hpp</text>
</a>
</g>
</g>
<!-- Node1&#45;&gt;Node34 -->
<g id="edge82" class="edge">
<title>Node1&#45;&gt;Node34</title>
<path fill="none" stroke="midnightblue" d="M1033.82,-459.35C1052.16,-450.07 1075.75,-437.08 1095,-423 1142.32,-388.38 1190.57,-338.49 1214.16,-312.94"/>
<polygon fill="midnightblue" stroke="midnightblue" points="1217.01,-315.01 1221.18,-305.27 1211.85,-310.28 1217.01,-315.01"/>
</g>
<!-- Node35 -->
<g id="node35" class="node">
<title>Node35</title>
<g id="a_node35"><a xlink:title=" ">
<polygon fill="white" stroke="#bfbfbf" points="1515,-224.5 1515,-243.5 1559,-243.5 1559,-224.5 1515,-224.5"/>
<text text-anchor="middle" x="1537" y="-231.5" font-family="Helvetica,sans-Serif" font-size="10.00">limits</text>
</a>
</g>
</g>
<!-- Node1&#45;&gt;Node35 -->
<g id="edge83" class="edge">
<title>Node1&#45;&gt;Node35</title>
<path fill="none" stroke="midnightblue" d="M1036.85,-459.5C1060.33,-449.45 1092.67,-435.52 1121,-423 1267.53,-358.27 1442,-278.56 1508.95,-247.87"/>
<polygon fill="midnightblue" stroke="midnightblue" points="1510.76,-250.89 1518.39,-243.55 1507.84,-244.53 1510.76,-250.89"/>
</g>
<!-- Node43 -->
<g id="node43" class="node">
<title>Node43</title>
<g id="a_node43"><a xlink:href="_data_layout_indexed_8hpp.html" target="_top" xlink:title=" ">
<polygon fill="white" stroke="black" points="748.5,-286 748.5,-305 937.5,-305 937.5,-286 748.5,-286"/>
<text text-anchor="middle" x="843" y="-293" font-family="Helvetica,sans-Serif" font-size="10.00">armnnUtils/DataLayoutIndexed.hpp</text>
</a>
</g>
</g>
<!-- Node1&#45;&gt;Node43 -->
<g id="edge78" class="edge">
<title>Node1&#45;&gt;Node43</title>
<path fill="none" stroke="midnightblue" d="M968.11,-459.3C949.97,-450.8 928.58,-438.6 913,-423 881.04,-391 859.39,-341.38 849.37,-314.8"/>
<polygon fill="midnightblue" stroke="midnightblue" points="852.6,-313.43 845.9,-305.23 846.02,-315.82 852.6,-313.43"/>
</g>
<!-- Node44 -->
<g id="node44" class="node">
<title>Node44</title>
<g id="a_node44"><a xlink:title=" ">
<polygon fill="white" stroke="#bfbfbf" points="1368,-403.5 1368,-422.5 1432,-422.5 1432,-403.5 1368,-403.5"/>
<text text-anchor="middle" x="1400" y="-410.5" font-family="Helvetica,sans-Serif" font-size="10.00">algorithm</text>
</a>
</g>
</g>
<!-- Node1&#45;&gt;Node44 -->
<g id="edge84" class="edge">
<title>Node1&#45;&gt;Node44</title>
<path fill="none" stroke="midnightblue" d="M1074.55,-464.37C1145.35,-454.97 1257.46,-439.4 1354,-423 1355.26,-422.79 1356.55,-422.56 1357.84,-422.33"/>
<polygon fill="midnightblue" stroke="midnightblue" points="1358.66,-425.74 1367.87,-420.5 1357.4,-418.86 1358.66,-425.74"/>
</g>
<!-- Node3 -->
<g id="node3" class="node">
<title>Node3</title>
<g id="a_node3"><a xlink:href="_descriptors_8hpp.html" target="_top" xlink:title=" ">
<polygon fill="white" stroke="black" points="185,-224.5 185,-243.5 313,-243.5 313,-224.5 185,-224.5"/>
<text text-anchor="middle" x="249" y="-231.5" font-family="Helvetica,sans-Serif" font-size="10.00">armnn/Descriptors.hpp</text>
</a>
</g>
</g>
<!-- Node2&#45;&gt;Node3 -->
<g id="edge2" class="edge">
<title>Node2&#45;&gt;Node3</title>
<path fill="none" stroke="midnightblue" d="M451.72,-409.41C415.24,-405.27 363.31,-394.57 327,-367 287.9,-337.31 264.65,-281.89 254.71,-253.22"/>
<polygon fill="midnightblue" stroke="midnightblue" points="258.01,-252.05 251.55,-243.65 251.36,-254.24 258.01,-252.05"/>
</g>
<!-- Node6 -->
<g id="node6" class="node">
<title>Node6</title>
<g id="a_node6"><a xlink:href="_tensor_8hpp.html" target="_top" xlink:title=" ">
<polygon fill="white" stroke="black" points="599,-168.5 599,-187.5 667,-187.5 667,-168.5 599,-168.5"/>
<text text-anchor="middle" x="633" y="-175.5" font-family="Helvetica,sans-Serif" font-size="10.00">Tensor.hpp</text>
</a>
</g>
</g>
<!-- Node2&#45;&gt;Node6 -->
<g id="edge39" class="edge">
<title>Node2&#45;&gt;Node6</title>
<path fill="none" stroke="midnightblue" d="M472.16,-403.4C428.53,-385.43 339.44,-340.52 360,-280 370.09,-250.29 376.32,-240.52 403,-224 433.51,-205.1 531.19,-190.88 588.97,-183.86"/>
<polygon fill="midnightblue" stroke="midnightblue" points="589.41,-187.34 598.93,-182.68 588.59,-180.39 589.41,-187.34"/>
</g>
<!-- Node29 -->
<g id="node29" class="node">
<title>Node29</title>
<g id="a_node29"><a xlink:href="_base_iterator_8hpp.html" target="_top" xlink:title=" ">
<polygon fill="white" stroke="black" points="955.5,-347.5 955.5,-366.5 1052.5,-366.5 1052.5,-347.5 955.5,-347.5"/>
<text text-anchor="middle" x="1004" y="-354.5" font-family="Helvetica,sans-Serif" font-size="10.00">BaseIterator.hpp</text>
</a>
</g>
</g>
<!-- Node2&#45;&gt;Node29 -->
<g id="edge40" class="edge">
<title>Node2&#45;&gt;Node29</title>
<path fill="none" stroke="midnightblue" d="M538.4,-407.4C629.72,-397.71 841.81,-375.21 945.21,-364.24"/>
<polygon fill="midnightblue" stroke="midnightblue" points="945.59,-367.72 955.17,-363.18 944.86,-360.76 945.59,-367.72"/>
</g>
<!-- Node4 -->
<g id="node4" class="node">
<title>Node4</title>
<g id="a_node4"><a xlink:href="_deprecated_8hpp.html" target="_top" xlink:title=" ">
<polygon fill="white" stroke="black" points="371,-56.5 371,-75.5 465,-75.5 465,-56.5 371,-56.5"/>
<text text-anchor="middle" x="418" y="-63.5" font-family="Helvetica,sans-Serif" font-size="10.00">Deprecated.hpp</text>
</a>
</g>
</g>
<!-- Node3&#45;&gt;Node4 -->
<g id="edge3" class="edge">
<title>Node3&#45;&gt;Node4</title>
<path fill="none" stroke="midnightblue" d="M294.44,-224.45C318.27,-217.94 346.47,-206.78 366,-188 395.42,-159.69 409.1,-112 414.68,-85.74"/>
<polygon fill="midnightblue" stroke="midnightblue" points="418.18,-86.11 416.65,-75.62 411.31,-84.77 418.18,-86.11"/>
</g>
<!-- Node5 -->
<g id="node5" class="node">
<title>Node5</title>
<g id="a_node5"><a xlink:href="_descriptors_fwd_8hpp.html" target="_top" xlink:title=" ">
<polygon fill="white" stroke="black" points="243.5,-168.5 243.5,-187.5 356.5,-187.5 356.5,-168.5 243.5,-168.5"/>
<text text-anchor="middle" x="300" y="-175.5" font-family="Helvetica,sans-Serif" font-size="10.00">DescriptorsFwd.hpp</text>
</a>
</g>
</g>
<!-- Node3&#45;&gt;Node5 -->
<g id="edge4" class="edge">
<title>Node3&#45;&gt;Node5</title>
<path fill="none" stroke="midnightblue" d="M257.42,-224.08C264.85,-216.22 275.85,-204.57 284.81,-195.08"/>
<polygon fill="midnightblue" stroke="midnightblue" points="287.41,-197.42 291.74,-187.75 282.32,-192.62 287.41,-197.42"/>
</g>
<!-- Node3&#45;&gt;Node6 -->
<g id="edge5" class="edge">
<title>Node3&#45;&gt;Node6</title>
<path fill="none" stroke="midnightblue" d="M313.07,-224.48C378.84,-215.66 484.13,-201.32 575,-188 579.49,-187.34 584.17,-186.64 588.84,-185.93"/>
<polygon fill="midnightblue" stroke="midnightblue" points="589.62,-189.35 598.97,-184.38 588.56,-182.43 589.62,-189.35"/>
</g>
<!-- Node3&#45;&gt;Node7 -->
<g id="edge34" class="edge">
<title>Node3&#45;&gt;Node7</title>
<path fill="none" stroke="midnightblue" d="M300.46,-224.44C328.35,-217.9 362.25,-206.72 388,-188 421.72,-163.48 408.01,-134.67 443,-112 456.39,-103.32 543.84,-86.88 603.28,-76.45"/>
<polygon fill="midnightblue" stroke="midnightblue" points="604.05,-79.87 613.3,-74.71 602.85,-72.98 604.05,-79.87"/>
</g>
<!-- Node3&#45;&gt;Node14 -->
<g id="edge33" class="edge">
<title>Node3&#45;&gt;Node14</title>
<path fill="none" stroke="midnightblue" d="M291.93,-224.46C395.1,-203.94 656.01,-152.04 759.12,-131.53"/>
<polygon fill="midnightblue" stroke="midnightblue" points="760.05,-134.91 769.18,-129.53 758.69,-128.05 760.05,-134.91"/>
</g>
<!-- Node24 -->
<g id="node24" class="node">
<title>Node24</title>
<g id="a_node24"><a xlink:title=" ">
<polygon fill="white" stroke="#bfbfbf" points="254.5,-0.5 254.5,-19.5 301.5,-19.5 301.5,-0.5 254.5,-0.5"/>
<text text-anchor="middle" x="278" y="-7.5" font-family="Helvetica,sans-Serif" font-size="10.00">vector</text>
</a>
</g>
</g>
<!-- Node3&#45;&gt;Node24 -->
<g id="edge38" class="edge">
<title>Node3&#45;&gt;Node24</title>
<path fill="none" stroke="midnightblue" d="M184.98,-230.95C130.17,-226.24 63.15,-211.7 84,-168 118.42,-95.87 203.96,-46.17 249.08,-24.03"/>
<polygon fill="midnightblue" stroke="midnightblue" points="250.82,-27.08 258.33,-19.6 247.8,-20.76 250.82,-27.08"/>
</g>
<!-- Node26 -->
<g id="node26" class="node">
<title>Node26</title>
<g id="a_node26"><a xlink:title=" ">
<polygon fill="white" stroke="#bfbfbf" points="451.5,-112.5 451.5,-131.5 496.5,-131.5 496.5,-112.5 451.5,-112.5"/>
<text text-anchor="middle" x="474" y="-119.5" font-family="Helvetica,sans-Serif" font-size="10.00">utility</text>
</a>
</g>
</g>
<!-- Node3&#45;&gt;Node26 -->
<g id="edge37" class="edge">
<title>Node3&#45;&gt;Node26</title>
<path fill="none" stroke="midnightblue" d="M184.93,-226.75C130.14,-218.95 64.6,-202.23 95,-168 117.86,-142.26 353.4,-128.65 441.22,-124.45"/>
<polygon fill="midnightblue" stroke="midnightblue" points="441.59,-127.93 451.42,-123.97 441.26,-120.94 441.59,-127.93"/>
</g>
<!-- Node27 -->
<g id="node27" class="node">
<title>Node27</title>
<g id="a_node27"><a xlink:title=" ">
<polygon fill="white" stroke="#bfbfbf" points="104,-168.5 104,-187.5 154,-187.5 154,-168.5 104,-168.5"/>
<text text-anchor="middle" x="129" y="-175.5" font-family="Helvetica,sans-Serif" font-size="10.00">cstdint</text>
</a>
</g>
</g>
<!-- Node3&#45;&gt;Node27 -->
<g id="edge35" class="edge">
<title>Node3&#45;&gt;Node27</title>
<path fill="none" stroke="midnightblue" d="M229.99,-224.44C210.41,-215.64 179.69,-201.81 157.27,-191.72"/>
<polygon fill="midnightblue" stroke="midnightblue" points="158.48,-188.43 147.93,-187.52 155.61,-194.81 158.48,-188.43"/>
</g>
<!-- Node28 -->
<g id="node28" class="node">
<title>Node28</title>
<g id="a_node28"><a xlink:title=" ">
<polygon fill="white" stroke="#bfbfbf" points="172.5,-168.5 172.5,-187.5 225.5,-187.5 225.5,-168.5 172.5,-168.5"/>
<text text-anchor="middle" x="199" y="-175.5" font-family="Helvetica,sans-Serif" font-size="10.00">iterator</text>
</a>
</g>
</g>
<!-- Node3&#45;&gt;Node28 -->
<g id="edge36" class="edge">
<title>Node3&#45;&gt;Node28</title>
<path fill="none" stroke="midnightblue" d="M240.74,-224.08C233.54,-216.3 222.89,-204.8 214.15,-195.37"/>
<polygon fill="midnightblue" stroke="midnightblue" points="216.47,-192.71 207.1,-187.75 211.33,-197.47 216.47,-192.71"/>
</g>
<!-- Node6&#45;&gt;Node7 -->
<g id="edge6" class="edge">
<title>Node6&#45;&gt;Node7</title>
<path fill="none" stroke="midnightblue" d="M648.73,-168.24C660.89,-160.48 676.81,-147.93 684,-132 691.27,-115.88 682.08,-96.97 672.86,-83.71"/>
<polygon fill="midnightblue" stroke="midnightblue" points="675.5,-81.4 666.67,-75.54 669.92,-85.63 675.5,-81.4"/>
</g>
<!-- Node11 -->
<g id="node11" class="node">
<title>Node11</title>
<g id="a_node11"><a xlink:href="_optional_8hpp.html" target="_top" xlink:title=" ">
<polygon fill="white" stroke="black" points="1128.5,-112.5 1128.5,-131.5 1207.5,-131.5 1207.5,-112.5 1128.5,-112.5"/>
<text text-anchor="middle" x="1168" y="-119.5" font-family="Helvetica,sans-Serif" font-size="10.00">Optional.hpp</text>
</a>
</g>
</g>
<!-- Node6&#45;&gt;Node11 -->
<g id="edge10" class="edge">
<title>Node6&#45;&gt;Node11</title>
<path fill="none" stroke="midnightblue" d="M667.28,-173.54C759.01,-164.28 1010.41,-138.91 1118.04,-128.04"/>
<polygon fill="midnightblue" stroke="midnightblue" points="1118.7,-131.49 1128.3,-127.01 1118,-124.53 1118.7,-131.49"/>
</g>
<!-- Node6&#45;&gt;Node14 -->
<g id="edge14" class="edge">
<title>Node6&#45;&gt;Node14</title>
<path fill="none" stroke="midnightblue" d="M659.78,-168.44C688.33,-159.32 733.73,-144.81 765.54,-134.65"/>
<polygon fill="midnightblue" stroke="midnightblue" points="766.89,-137.89 775.35,-131.52 764.76,-131.23 766.89,-137.89"/>
</g>
<!-- Node15 -->
<g id="node15" class="node">
<title>Node15</title>
<g id="a_node15"><a xlink:title=" ">
<polygon fill="white" stroke="#bfbfbf" points="553,-56.5 553,-75.5 595,-75.5 595,-56.5 553,-56.5"/>
<text text-anchor="middle" x="574" y="-63.5" font-family="Helvetica,sans-Serif" font-size="10.00">array</text>
</a>
</g>
</g>
<!-- Node6&#45;&gt;Node15 -->
<g id="edge29" class="edge">
<title>Node6&#45;&gt;Node15</title>
<path fill="none" stroke="midnightblue" d="M618.6,-168.2C606.97,-160.26 591.21,-147.47 583,-132 575.41,-117.69 573.47,-99.22 573.25,-85.63"/>
<polygon fill="midnightblue" stroke="midnightblue" points="576.75,-85.61 573.39,-75.56 569.75,-85.52 576.75,-85.61"/>
</g>
<!-- Node17 -->
<g id="node17" class="node">
<title>Node17</title>
<g id="a_node17"><a xlink:title=" ">
<polygon fill="white" stroke="#bfbfbf" points="980.5,-56.5 980.5,-75.5 1033.5,-75.5 1033.5,-56.5 980.5,-56.5"/>
<text text-anchor="middle" x="1007" y="-63.5" font-family="Helvetica,sans-Serif" font-size="10.00">stdint.h</text>
</a>
</g>
</g>
<!-- Node6&#45;&gt;Node17 -->
<g id="edge28" class="edge">
<title>Node6&#45;&gt;Node17</title>
<path fill="none" stroke="midnightblue" d="M667.07,-171.57C709.16,-164.44 782.71,-150.61 844,-132 892.61,-117.24 947.05,-94.13 979.1,-79.81"/>
<polygon fill="midnightblue" stroke="midnightblue" points="980.62,-82.97 988.3,-75.67 977.75,-76.58 980.62,-82.97"/>
</g>
<!-- Node6&#45;&gt;Node24 -->
<g id="edge31" class="edge">
<title>Node6&#45;&gt;Node24</title>
<path fill="none" stroke="midnightblue" d="M621.24,-168.46C608.91,-159.47 589,-144.86 572,-132 528.04,-98.75 523.81,-79.61 474,-56 420.57,-30.67 352.05,-19.16 311.79,-14.27"/>
<polygon fill="midnightblue" stroke="midnightblue" points="312.04,-10.78 301.71,-13.11 311.24,-17.73 312.04,-10.78"/>
</g>
<!-- Node25 -->
<g id="node25" class="node">
<title>Node25</title>
<g id="a_node25"><a xlink:title=" ">
<polygon fill="white" stroke="#bfbfbf" points="591.5,-112.5 591.5,-131.5 674.5,-131.5 674.5,-112.5 591.5,-112.5"/>
<text text-anchor="middle" x="633" y="-119.5" font-family="Helvetica,sans-Serif" font-size="10.00">initializer_list</text>
</a>
</g>
</g>
<!-- Node6&#45;&gt;Node25 -->
<g id="edge30" class="edge">
<title>Node6&#45;&gt;Node25</title>
<path fill="none" stroke="midnightblue" d="M633,-168.08C633,-161.01 633,-150.86 633,-141.99"/>
<polygon fill="midnightblue" stroke="midnightblue" points="636.5,-141.75 633,-131.75 629.5,-141.75 636.5,-141.75"/>
</g>
<!-- Node6&#45;&gt;Node26 -->
<g id="edge32" class="edge">
<title>Node6&#45;&gt;Node26</title>
<path fill="none" stroke="midnightblue" d="M607.81,-168.44C580.27,-159.09 536.09,-144.09 506.09,-133.9"/>
<polygon fill="midnightblue" stroke="midnightblue" points="507.1,-130.55 496.51,-130.64 504.85,-137.17 507.1,-130.55"/>
</g>
<!-- Node8 -->
<g id="node8" class="node">
<title>Node8</title>
<g id="a_node8"><a xlink:title=" ">
<polygon fill="white" stroke="#bfbfbf" points="556,-0.5 556,-19.5 612,-19.5 612,-0.5 556,-0.5"/>
<text text-anchor="middle" x="584" y="-7.5" font-family="Helvetica,sans-Serif" font-size="10.00">sstream</text>
</a>
</g>
</g>
<!-- Node7&#45;&gt;Node8 -->
<g id="edge7" class="edge">
<title>Node7&#45;&gt;Node8</title>
<path fill="none" stroke="midnightblue" d="M646.95,-56.32C635.54,-48.11 618.17,-35.6 604.57,-25.81"/>
<polygon fill="midnightblue" stroke="midnightblue" points="606.43,-22.84 596.27,-19.83 602.34,-28.52 606.43,-22.84"/>
</g>
<!-- Node9 -->
<g id="node9" class="node">
<title>Node9</title>
<g id="a_node9"><a xlink:title=" ">
<polygon fill="white" stroke="#bfbfbf" points="630.5,-0.5 630.5,-19.5 695.5,-19.5 695.5,-0.5 630.5,-0.5"/>
<text text-anchor="middle" x="663" y="-7.5" font-family="Helvetica,sans-Serif" font-size="10.00">stdexcept</text>
</a>
</g>
</g>
<!-- Node7&#45;&gt;Node9 -->
<g id="edge8" class="edge">
<title>Node7&#45;&gt;Node9</title>
<path fill="none" stroke="midnightblue" d="M659.66,-56.08C660.18,-49.01 660.94,-38.86 661.59,-29.99"/>
<polygon fill="midnightblue" stroke="midnightblue" points="665.1,-29.98 662.35,-19.75 658.12,-29.47 665.1,-29.98"/>
</g>
<!-- Node10 -->
<g id="node10" class="node">
<title>Node10</title>
<g id="a_node10"><a xlink:title=" ">
<polygon fill="white" stroke="#bfbfbf" points="719,-0.5 719,-19.5 763,-19.5 763,-0.5 719,-0.5"/>
<text text-anchor="middle" x="741" y="-7.5" font-family="Helvetica,sans-Serif" font-size="10.00">string</text>
</a>
</g>
</g>
<!-- Node7&#45;&gt;Node10 -->
<g id="edge9" class="edge">
<title>Node7&#45;&gt;Node10</title>
<path fill="none" stroke="midnightblue" d="M672.17,-56.32C684.85,-47.98 704.23,-35.21 719.21,-25.35"/>
<polygon fill="midnightblue" stroke="midnightblue" points="721.43,-28.08 727.86,-19.65 717.58,-22.23 721.43,-28.08"/>
</g>
<!-- Node11&#45;&gt;Node7 -->
<g id="edge11" class="edge">
<title>Node11&#45;&gt;Node7</title>
<path fill="none" stroke="midnightblue" d="M1128.43,-117.93C1051.08,-111.74 874.2,-96.68 714.59,-75.99"/>
<polygon fill="midnightblue" stroke="midnightblue" points="714.95,-72.51 704.59,-74.69 714.05,-79.45 714.95,-72.51"/>
</g>
<!-- Node12 -->
<g id="node12" class="node">
<title>Node12</title>
<g id="a_node12"><a xlink:title=" ">
<polygon fill="white" stroke="#bfbfbf" points="1144,-56.5 1144,-75.5 1194,-75.5 1194,-56.5 1144,-56.5"/>
<text text-anchor="middle" x="1169" y="-63.5" font-family="Helvetica,sans-Serif" font-size="10.00">cstring</text>
</a>
</g>
</g>
<!-- Node11&#45;&gt;Node12 -->
<g id="edge12" class="edge">
<title>Node11&#45;&gt;Node12</title>
<path fill="none" stroke="midnightblue" d="M1168.17,-112.08C1168.3,-105.01 1168.48,-94.86 1168.65,-85.99"/>
<polygon fill="midnightblue" stroke="midnightblue" points="1172.15,-85.81 1168.84,-75.75 1165.15,-85.68 1172.15,-85.81"/>
</g>
<!-- Node13 -->
<g id="node13" class="node">
<title>Node13</title>
<g id="a_node13"><a xlink:title=" ">
<polygon fill="white" stroke="#bfbfbf" points="1414.5,-56.5 1414.5,-75.5 1483.5,-75.5 1483.5,-56.5 1414.5,-56.5"/>
<text text-anchor="middle" x="1449" y="-63.5" font-family="Helvetica,sans-Serif" font-size="10.00">type_traits</text>
</a>
</g>
</g>
<!-- Node11&#45;&gt;Node13 -->
<g id="edge13" class="edge">
<title>Node11&#45;&gt;Node13</title>
<path fill="none" stroke="midnightblue" d="M1207.7,-113.59C1261.34,-103.56 1355.13,-85.97 1404.46,-76.27"/>
<polygon fill="midnightblue" stroke="midnightblue" points="1405.15,-79.7 1414.28,-74.33 1403.79,-72.84 1405.15,-79.7"/>
</g>
<!-- Node14&#45;&gt;Node4 -->
<g id="edge27" class="edge">
<title>Node14&#45;&gt;Node4</title>
<path fill="none" stroke="midnightblue" d="M769.26,-116.4C703.95,-107.21 556.75,-86.51 475.16,-75.04"/>
<polygon fill="midnightblue" stroke="midnightblue" points="475.45,-71.55 465.06,-73.62 474.48,-78.48 475.45,-71.55"/>
</g>
<!-- Node14&#45;&gt;Node7 -->
<g id="edge26" class="edge">
<title>Node14&#45;&gt;Node7</title>
<path fill="none" stroke="midnightblue" d="M779.34,-112.44C755.6,-103.48 718.09,-89.31 691.26,-79.18"/>
<polygon fill="midnightblue" stroke="midnightblue" points="692.14,-75.77 681.55,-75.52 689.67,-82.32 692.14,-75.77"/>
</g>
<!-- Node14&#45;&gt;Node15 -->
<g id="edge15" class="edge">
<title>Node14&#45;&gt;Node15</title>
<path fill="none" stroke="midnightblue" d="M769.44,-114.17C730.26,-105.81 662.56,-90.92 605,-76 604.9,-75.97 604.8,-75.95 604.7,-75.92"/>
<polygon fill="midnightblue" stroke="midnightblue" points="605.87,-72.61 595.3,-73.36 604.03,-79.37 605.87,-72.61"/>
</g>
<!-- Node14&#45;&gt;Node16 -->
<g id="edge16" class="edge">
<title>Node14&#45;&gt;Node16</title>
<path fill="none" stroke="midnightblue" d="M822.28,-112.44C843.35,-103.56 876.52,-89.56 900.49,-79.45"/>
<polygon fill="midnightblue" stroke="midnightblue" points="901.96,-82.63 909.81,-75.52 899.24,-76.18 901.96,-82.63"/>
</g>
<!-- Node14&#45;&gt;Node17 -->
<g id="edge17" class="edge">
<title>Node14&#45;&gt;Node17</title>
<path fill="none" stroke="midnightblue" d="M834.48,-112.44C871.48,-102.7 931.79,-86.81 970.42,-76.64"/>
<polygon fill="midnightblue" stroke="midnightblue" points="971.44,-79.99 980.22,-74.05 969.66,-73.22 971.44,-79.99"/>
</g>
<!-- Node18 -->
<g id="node18" class="node">
<title>Node18</title>
<g id="a_node18"><a xlink:title=" ">
<polygon fill="white" stroke="#bfbfbf" points="723,-56.5 723,-75.5 773,-75.5 773,-56.5 723,-56.5"/>
<text text-anchor="middle" x="748" y="-63.5" font-family="Helvetica,sans-Serif" font-size="10.00">chrono</text>
</a>
</g>
</g>
<!-- Node14&#45;&gt;Node18 -->
<g id="edge18" class="edge">
<title>Node14&#45;&gt;Node18</title>
<path fill="none" stroke="midnightblue" d="M793.08,-112.08C785.22,-104.22 773.57,-92.57 764.08,-83.08"/>
<polygon fill="midnightblue" stroke="midnightblue" points="766.3,-80.35 756.75,-75.75 761.35,-85.3 766.3,-80.35"/>
</g>
<!-- Node19 -->
<g id="node19" class="node">
<title>Node19</title>
<g id="a_node19"><a xlink:href="_backend_id_8hpp.html" target="_top" xlink:title=" ">
<polygon fill="white" stroke="black" points="791,-56.5 791,-75.5 879,-75.5 879,-56.5 791,-56.5"/>
<text text-anchor="middle" x="835" y="-63.5" font-family="Helvetica,sans-Serif" font-size="10.00">BackendId.hpp</text>
</a>
</g>
</g>
<!-- Node14&#45;&gt;Node19 -->
<g id="edge19" class="edge">
<title>Node14&#45;&gt;Node19</title>
<path fill="none" stroke="midnightblue" d="M807.45,-112.08C812.01,-104.61 818.67,-93.72 824.29,-84.52"/>
<polygon fill="midnightblue" stroke="midnightblue" points="827.42,-86.11 829.65,-75.75 821.45,-82.46 827.42,-86.11"/>
</g>
<!-- Node19&#45;&gt;Node10 -->
<g id="edge23" class="edge">
<title>Node19&#45;&gt;Node10</title>
<path fill="none" stroke="midnightblue" d="M819.9,-56.32C805.1,-47.82 782.31,-34.73 765.02,-24.8"/>
<polygon fill="midnightblue" stroke="midnightblue" points="766.48,-21.6 756.07,-19.65 762.99,-27.67 766.48,-21.6"/>
</g>
<!-- Node20 -->
<g id="node20" class="node">
<title>Node20</title>
<g id="a_node20"><a xlink:title=" ">
<polygon fill="white" stroke="#bfbfbf" points="789,-0.5 789,-19.5 847,-19.5 847,-0.5 789,-0.5"/>
<text text-anchor="middle" x="818" y="-7.5" font-family="Helvetica,sans-Serif" font-size="10.00">memory</text>
</a>
</g>
</g>
<!-- Node19&#45;&gt;Node20 -->
<g id="edge20" class="edge">
<title>Node19&#45;&gt;Node20</title>
<path fill="none" stroke="midnightblue" d="M832.19,-56.08C829.92,-48.85 826.63,-38.41 823.79,-29.4"/>
<polygon fill="midnightblue" stroke="midnightblue" points="827.1,-28.24 820.75,-19.75 820.42,-30.34 827.1,-28.24"/>
</g>
<!-- Node21 -->
<g id="node21" class="node">
<title>Node21</title>
<g id="a_node21"><a xlink:title=" ">
<polygon fill="white" stroke="#bfbfbf" points="1071.5,-0.5 1071.5,-19.5 1128.5,-19.5 1128.5,-0.5 1071.5,-0.5"/>
<text text-anchor="middle" x="1100" y="-7.5" font-family="Helvetica,sans-Serif" font-size="10.00">ostream</text>
</a>
</g>
</g>
<!-- Node19&#45;&gt;Node21 -->
<g id="edge21" class="edge">
<title>Node19&#45;&gt;Node21</title>
<path fill="none" stroke="midnightblue" d="M876.99,-56.44C927.68,-46.12 1012.21,-28.89 1061.35,-18.88"/>
<polygon fill="midnightblue" stroke="midnightblue" points="1062.17,-22.28 1071.27,-16.85 1060.78,-15.42 1062.17,-22.28"/>
</g>
<!-- Node22 -->
<g id="node22" class="node">
<title>Node22</title>
<g id="a_node22"><a xlink:title=" ">
<polygon fill="white" stroke="#bfbfbf" points="995,-0.5 995,-19.5 1027,-19.5 1027,-0.5 995,-0.5"/>
<text text-anchor="middle" x="1011" y="-7.5" font-family="Helvetica,sans-Serif" font-size="10.00">set</text>
</a>
</g>
</g>
<!-- Node19&#45;&gt;Node22 -->
<g id="edge22" class="edge">
<title>Node19&#45;&gt;Node22</title>
<path fill="none" stroke="midnightblue" d="M862.89,-56.44C896.47,-46.14 952.44,-28.97 985.11,-18.94"/>
<polygon fill="midnightblue" stroke="midnightblue" points="986.3,-22.24 994.84,-15.96 984.25,-15.55 986.3,-22.24"/>
</g>
<!-- Node23 -->
<g id="node23" class="node">
<title>Node23</title>
<g id="a_node23"><a xlink:title=" ">
<polygon fill="white" stroke="#bfbfbf" points="865,-0.5 865,-19.5 951,-19.5 951,-0.5 865,-0.5"/>
<text text-anchor="middle" x="908" y="-7.5" font-family="Helvetica,sans-Serif" font-size="10.00">unordered_set</text>
</a>
</g>
</g>
<!-- Node19&#45;&gt;Node23 -->
<g id="edge24" class="edge">
<title>Node19&#45;&gt;Node23</title>
<path fill="none" stroke="midnightblue" d="M846.73,-56.32C857.84,-48.11 874.74,-35.6 887.98,-25.81"/>
<polygon fill="midnightblue" stroke="midnightblue" points="890.1,-28.59 896.06,-19.83 885.94,-22.97 890.1,-28.59"/>
</g>
<!-- Node19&#45;&gt;Node24 -->
<g id="edge25" class="edge">
<title>Node19&#45;&gt;Node24</title>
<path fill="none" stroke="midnightblue" d="M790.79,-57.22C787.82,-56.78 784.87,-56.37 782,-56 605.65,-33.19 393.09,-18.32 311.83,-13.09"/>
<polygon fill="midnightblue" stroke="midnightblue" points="311.89,-9.59 301.69,-12.45 311.45,-16.57 311.89,-9.59"/>
</g>
<!-- Node30 -->
<g id="node30" class="node">
<title>Node30</title>
<g id="a_node30"><a xlink:href="_types_utils_8hpp.html" target="_top" xlink:title=" ">
<polygon fill="white" stroke="black" points="892,-224.5 892,-243.5 1014,-243.5 1014,-224.5 892,-224.5"/>
<text text-anchor="middle" x="953" y="-231.5" font-family="Helvetica,sans-Serif" font-size="10.00">armnn/TypesUtils.hpp</text>
</a>
</g>
</g>
<!-- Node29&#45;&gt;Node30 -->
<g id="edge41" class="edge">
<title>Node29&#45;&gt;Node30</title>
<path fill="none" stroke="midnightblue" d="M1001.97,-347.32C998.45,-332.95 990.57,-303.47 980,-280 975.7,-270.45 969.81,-260.4 964.63,-252.22"/>
<polygon fill="midnightblue" stroke="midnightblue" points="967.42,-250.09 959.02,-243.63 961.56,-253.92 967.42,-250.09"/>
</g>
<!-- Node32 -->
<g id="node32" class="node">
<title>Node32</title>
<g id="a_node32"><a xlink:href="_assert_8hpp.html" target="_top" xlink:title=" ">
<polygon fill="white" stroke="black" points="1135,-224.5 1135,-243.5 1269,-243.5 1269,-224.5 1135,-224.5"/>
<text text-anchor="middle" x="1202" y="-231.5" font-family="Helvetica,sans-Serif" font-size="10.00">armnn/utility/Assert.hpp</text>
</a>
</g>
</g>
<!-- Node29&#45;&gt;Node32 -->
<g id="edge51" class="edge">
<title>Node29&#45;&gt;Node32</title>
<path fill="none" stroke="midnightblue" d="M1023.44,-347.39C1042,-338.91 1070.53,-325.2 1094,-311 1114.16,-298.8 1117.76,-293.59 1137,-280 1151.61,-269.68 1168.2,-258.2 1180.96,-249.42"/>
<polygon fill="midnightblue" stroke="midnightblue" points="1183.23,-252.1 1189.49,-243.56 1179.27,-246.33 1183.23,-252.1"/>
</g>
<!-- Node29&#45;&gt;Node34 -->
<g id="edge53" class="edge">
<title>Node29&#45;&gt;Node34</title>
<path fill="none" stroke="midnightblue" d="M1036.24,-347.48C1075.92,-336.98 1143.4,-319.14 1187.07,-307.59"/>
<polygon fill="midnightblue" stroke="midnightblue" points="1188.05,-310.95 1196.82,-305.01 1186.26,-304.18 1188.05,-310.95"/>
</g>
<!-- Node36 -->
<g id="node36" class="node">
<title>Node36</title>
<g id="a_node36"><a xlink:href="_floating_point_converter_8hpp.html" target="_top" xlink:title=" ">
<polygon fill="white" stroke="black" points="369,-280.5 369,-310.5 507,-310.5 507,-280.5 369,-280.5"/>
<text text-anchor="start" x="377" y="-298.5" font-family="Helvetica,sans-Serif" font-size="10.00">armnnUtils/FloatingPoint</text>
<text text-anchor="middle" x="438" y="-287.5" font-family="Helvetica,sans-Serif" font-size="10.00">Converter.hpp</text>
</a>
</g>
</g>
<!-- Node29&#45;&gt;Node36 -->
<g id="edge57" class="edge">
<title>Node29&#45;&gt;Node36</title>
<path fill="none" stroke="midnightblue" d="M955.45,-352.96C869.38,-347.25 684.23,-333.55 517.26,-310.94"/>
<polygon fill="midnightblue" stroke="midnightblue" points="517.69,-307.47 507.31,-309.58 516.74,-314.41 517.69,-307.47"/>
</g>
<!-- Node38 -->
<g id="node38" class="node">
<title>Node38</title>
<g id="a_node38"><a xlink:href="_tensor_utils_8hpp.html" target="_top" xlink:title=" ">
<polygon fill="white" stroke="black" points="525.5,-286 525.5,-305 674.5,-305 674.5,-286 525.5,-286"/>
<text text-anchor="middle" x="600" y="-293" font-family="Helvetica,sans-Serif" font-size="10.00">armnnUtils/TensorUtils.hpp</text>
</a>
</g>
</g>
<!-- Node29&#45;&gt;Node38 -->
<g id="edge59" class="edge">
<title>Node29&#45;&gt;Node38</title>
<path fill="none" stroke="midnightblue" d="M955.27,-348.82C883.62,-338.27 749.56,-318.53 668.18,-306.54"/>
<polygon fill="midnightblue" stroke="midnightblue" points="668.44,-303.04 658.04,-305.05 667.42,-309.97 668.44,-303.04"/>
</g>
<!-- Node39 -->
<g id="node39" class="node">
<title>Node39</title>
<g id="a_node39"><a xlink:href="_resolve_type_8hpp.html" target="_top" xlink:title=" ">
<polygon fill="white" stroke="black" points="1168.5,-168.5 1168.5,-187.5 1267.5,-187.5 1267.5,-168.5 1168.5,-168.5"/>
<text text-anchor="middle" x="1218" y="-175.5" font-family="Helvetica,sans-Serif" font-size="10.00">ResolveType.hpp</text>
</a>
</g>
</g>
<!-- Node29&#45;&gt;Node39 -->
<g id="edge66" class="edge">
<title>Node29&#45;&gt;Node39</title>
<path fill="none" stroke="midnightblue" d="M1010.24,-347.25C1026.86,-324.47 1074.43,-262.38 1126,-224 1144.14,-210.5 1166.95,-199.31 1185.32,-191.47"/>
<polygon fill="midnightblue" stroke="midnightblue" points="1186.85,-194.62 1194.75,-187.57 1184.17,-188.16 1186.85,-194.62"/>
</g>
<!-- Node30&#45;&gt;Node6 -->
<g id="edge44" class="edge">
<title>Node30&#45;&gt;Node6</title>
<path fill="none" stroke="midnightblue" d="M902.3,-224.44C840.28,-213.98 736.31,-196.43 677.35,-186.48"/>
<polygon fill="midnightblue" stroke="midnightblue" points="677.68,-182.99 667.23,-184.78 676.51,-189.89 677.68,-182.99"/>
</g>
<!-- Node30&#45;&gt;Node7 -->
<g id="edge43" class="edge">
<title>Node30&#45;&gt;Node7</title>
<path fill="none" stroke="midnightblue" d="M947.87,-224.37C934.12,-202.01 894.01,-141.85 844,-112 822.38,-99.1 760.99,-85.62 714.81,-76.82"/>
<polygon fill="midnightblue" stroke="midnightblue" points="715.39,-73.36 704.92,-74.96 714.1,-80.24 715.39,-73.36"/>
</g>
<!-- Node30&#45;&gt;Node13 -->
<g id="edge50" class="edge">
<title>Node30&#45;&gt;Node13</title>
<path fill="none" stroke="midnightblue" d="M1014.31,-230.53C1085.22,-226.44 1204.9,-215.73 1304,-188 1363.01,-171.48 1389.66,-178.13 1430,-132 1441.24,-119.15 1445.84,-99.97 1447.72,-85.77"/>
<polygon fill="midnightblue" stroke="midnightblue" points="1451.22,-85.96 1448.72,-75.67 1444.25,-85.28 1451.22,-85.96"/>
</g>
<!-- Node30&#45;&gt;Node14 -->
<g id="edge45" class="edge">
<title>Node30&#45;&gt;Node14</title>
<path fill="none" stroke="midnightblue" d="M941.15,-224.37C915.35,-205.57 853.85,-160.77 821.95,-137.53"/>
<polygon fill="midnightblue" stroke="midnightblue" points="823.94,-134.65 813.79,-131.59 819.82,-140.31 823.94,-134.65"/>
</g>
<!-- Node30&#45;&gt;Node17 -->
<g id="edge46" class="edge">
<title>Node30&#45;&gt;Node17</title>
<path fill="none" stroke="midnightblue" d="M955.9,-224.08C964.44,-197.83 989.58,-120.55 1001.11,-85.12"/>
<polygon fill="midnightblue" stroke="midnightblue" points="1004.45,-86.16 1004.21,-75.57 997.79,-83.99 1004.45,-86.16"/>
</g>
<!-- Node30&#45;&gt;Node19 -->
<g id="edge42" class="edge">
<title>Node30&#45;&gt;Node19</title>
<path fill="none" stroke="midnightblue" d="M953.28,-224.33C953.52,-202.88 951.33,-146.57 924,-112 911.97,-96.79 893.43,-86.27 876.38,-79.25"/>
<polygon fill="midnightblue" stroke="midnightblue" points="877.16,-75.81 866.57,-75.52 874.67,-82.35 877.16,-75.81"/>
</g>
<!-- Node30&#45;&gt;Node21 -->
<g id="edge48" class="edge">
<title>Node30&#45;&gt;Node21</title>
<path fill="none" stroke="midnightblue" d="M965.93,-224.49C977.87,-216.19 995.57,-202.69 1008,-188 1050.99,-137.18 1081.28,-62.9 1093.72,-29.03"/>
<polygon fill="midnightblue" stroke="midnightblue" points="1097.04,-30.13 1097.12,-19.54 1090.45,-27.77 1097.04,-30.13"/>
</g>
<!-- Node30&#45;&gt;Node22 -->
<g id="edge49" class="edge">
<title>Node30&#45;&gt;Node22</title>
<path fill="none" stroke="midnightblue" d="M960.45,-224.23C979.13,-201.59 1027.54,-138.52 1043,-76 1045.13,-67.37 1045.7,-64.47 1043,-56 1039.66,-45.54 1032.9,-35.43 1026.45,-27.45"/>
<polygon fill="midnightblue" stroke="midnightblue" points="1028.94,-24.98 1019.75,-19.71 1023.65,-29.56 1028.94,-24.98"/>
</g>
<!-- Node31 -->
<g id="node31" class="node">
<title>Node31</title>
<g id="a_node31"><a xlink:title=" ">
<polygon fill="white" stroke="#bfbfbf" points="1253.5,-56.5 1253.5,-75.5 1300.5,-75.5 1300.5,-56.5 1253.5,-56.5"/>
<text text-anchor="middle" x="1277" y="-63.5" font-family="Helvetica,sans-Serif" font-size="10.00">cmath</text>
</a>
</g>
</g>
<!-- Node30&#45;&gt;Node31 -->
<g id="edge47" class="edge">
<title>Node30&#45;&gt;Node31</title>
<path fill="none" stroke="midnightblue" d="M1014.28,-230.3C1095.67,-225.73 1234.16,-214.28 1277,-188 1309.36,-168.15 1329.27,-147.57 1316,-112 1311.83,-100.81 1303.48,-90.56 1295.58,-82.68"/>
<polygon fill="midnightblue" stroke="midnightblue" points="1297.7,-79.87 1287.99,-75.63 1292.94,-85 1297.7,-79.87"/>
</g>
<!-- Node33 -->
<g id="node33" class="node">
<title>Node33</title>
<g id="a_node33"><a xlink:title=" ">
<polygon fill="white" stroke="#bfbfbf" points="1407,-168.5 1407,-187.5 1459,-187.5 1459,-168.5 1407,-168.5"/>
<text text-anchor="middle" x="1433" y="-175.5" font-family="Helvetica,sans-Serif" font-size="10.00">cassert</text>
</a>
</g>
</g>
<!-- Node32&#45;&gt;Node33 -->
<g id="edge52" class="edge">
<title>Node32&#45;&gt;Node33</title>
<path fill="none" stroke="midnightblue" d="M1238.6,-224.44C1282.06,-214.28 1354.07,-197.45 1397.18,-187.37"/>
<polygon fill="midnightblue" stroke="midnightblue" points="1398.02,-190.77 1406.96,-185.09 1396.43,-183.95 1398.02,-190.77"/>
</g>
<!-- Node34&#45;&gt;Node13 -->
<g id="edge55" class="edge">
<title>Node34&#45;&gt;Node13</title>
<path fill="none" stroke="midnightblue" d="M1290.62,-285.99C1347.56,-274.49 1429.04,-248.01 1468,-188 1488.66,-156.18 1471.29,-109.94 1458.87,-84.84"/>
<polygon fill="midnightblue" stroke="midnightblue" points="1461.86,-83 1454.13,-75.76 1455.65,-86.24 1461.86,-83"/>
</g>
<!-- Node34&#45;&gt;Node32 -->
<g id="edge54" class="edge">
<title>Node34&#45;&gt;Node32</title>
<path fill="none" stroke="midnightblue" d="M1225.13,-285.98C1221.2,-277.32 1215,-263.65 1210.01,-252.65"/>
<polygon fill="midnightblue" stroke="midnightblue" points="1213.18,-251.17 1205.86,-243.51 1206.81,-254.06 1213.18,-251.17"/>
</g>
<!-- Node34&#45;&gt;Node35 -->
<g id="edge56" class="edge">
<title>Node34&#45;&gt;Node35</title>
<path fill="none" stroke="midnightblue" d="M1280.07,-285.98C1334.87,-276.62 1424.39,-260.67 1501,-244 1502.27,-243.72 1503.57,-243.43 1504.88,-243.13"/>
<polygon fill="midnightblue" stroke="midnightblue" points="1506.05,-246.46 1514.97,-240.74 1504.43,-239.65 1506.05,-246.46"/>
</g>
<!-- Node37 -->
<g id="node37" class="node">
<title>Node37</title>
<g id="a_node37"><a xlink:title=" ">
<polygon fill="white" stroke="#bfbfbf" points="411.5,-224.5 411.5,-243.5 464.5,-243.5 464.5,-224.5 411.5,-224.5"/>
<text text-anchor="middle" x="438" y="-231.5" font-family="Helvetica,sans-Serif" font-size="10.00">cstddef</text>
</a>
</g>
</g>
<!-- Node36&#45;&gt;Node37 -->
<g id="edge58" class="edge">
<title>Node36&#45;&gt;Node37</title>
<path fill="none" stroke="midnightblue" d="M438,-280.4C438,-272.47 438,-262.46 438,-253.86"/>
<polygon fill="midnightblue" stroke="midnightblue" points="441.5,-253.66 438,-243.66 434.5,-253.66 441.5,-253.66"/>
</g>
<!-- Node38&#45;&gt;Node6 -->
<g id="edge61" class="edge">
<title>Node38&#45;&gt;Node6</title>
<path fill="none" stroke="midnightblue" d="M602.48,-285.82C607.81,-267.17 620.44,-222.94 627.68,-197.63"/>
<polygon fill="midnightblue" stroke="midnightblue" points="631.11,-198.36 630.49,-187.78 624.38,-196.44 631.11,-198.36"/>
</g>
<!-- Node38&#45;&gt;Node14 -->
<g id="edge62" class="edge">
<title>Node38&#45;&gt;Node14</title>
<path fill="none" stroke="midnightblue" d="M610.02,-286C642.12,-258.74 742.77,-173.28 784.06,-138.23"/>
<polygon fill="midnightblue" stroke="midnightblue" points="786.56,-140.7 791.92,-131.56 782.03,-135.36 786.56,-140.7"/>
</g>
<!-- Node38&#45;&gt;Node24 -->
<g id="edge65" class="edge">
<title>Node38&#45;&gt;Node24</title>
<path fill="none" stroke="midnightblue" d="M553.87,-285.98C541.59,-283.86 528.31,-281.71 516,-280 400.27,-263.9 0,-295.84 0,-179 0,-179 0,-179 0,-121 0,-69.05 169.94,-31.09 244.09,-17"/>
<polygon fill="midnightblue" stroke="midnightblue" points="245.11,-20.37 254.3,-15.1 243.83,-13.49 245.11,-20.37"/>
</g>
<!-- Node38&#45;&gt;Node26 -->
<g id="edge64" class="edge">
<title>Node38&#45;&gt;Node26</title>
<path fill="none" stroke="midnightblue" d="M593.58,-285.76C573.69,-258.69 512.87,-175.91 486.46,-139.96"/>
<polygon fill="midnightblue" stroke="midnightblue" points="489,-137.51 480.26,-131.52 483.36,-141.65 489,-137.51"/>
</g>
<!-- Node38&#45;&gt;Node30 -->
<g id="edge60" class="edge">
<title>Node38&#45;&gt;Node30</title>
<path fill="none" stroke="midnightblue" d="M650.58,-285.98C714.4,-275.22 824.08,-256.73 892.34,-245.22"/>
<polygon fill="midnightblue" stroke="midnightblue" points="893.24,-248.62 902.52,-243.51 892.07,-241.72 893.24,-248.62"/>
</g>
<!-- Node38&#45;&gt;Node38 -->
<g id="edge63" class="edge">
<title>Node38&#45;&gt;Node38</title>
<path fill="none" stroke="midnightblue" d="M634.15,-305.03C662.69,-309.11 692.5,-305.93 692.5,-295.5 692.5,-286.29 669.26,-282.74 644.19,-284.83"/>
<polygon fill="midnightblue" stroke="midnightblue" points="643.7,-281.37 634.15,-285.97 644.48,-288.32 643.7,-281.37"/>
</g>
<!-- Node39&#45;&gt;Node14 -->
<g id="edge67" class="edge">
<title>Node39&#45;&gt;Node14</title>
<path fill="none" stroke="midnightblue" d="M1168.23,-170.54C1085.84,-159.85 922.51,-138.64 844.89,-128.57"/>
<polygon fill="midnightblue" stroke="midnightblue" points="844.89,-125.04 834.52,-127.22 843.99,-131.98 844.89,-125.04"/>
</g>
<!-- Node40 -->
<g id="node40" class="node">
<title>Node40</title>
<g id="a_node40"><a xlink:href="_b_float16_8hpp.html" target="_top" xlink:title=" ">
<polygon fill="white" stroke="black" points="1225.5,-112.5 1225.5,-131.5 1306.5,-131.5 1306.5,-112.5 1225.5,-112.5"/>
<text text-anchor="middle" x="1266" y="-119.5" font-family="Helvetica,sans-Serif" font-size="10.00">BFloat16.hpp</text>
</a>
</g>
</g>
<!-- Node39&#45;&gt;Node40 -->
<g id="edge68" class="edge">
<title>Node39&#45;&gt;Node40</title>
<path fill="none" stroke="midnightblue" d="M1225.93,-168.08C1232.85,-160.3 1243.07,-148.8 1251.45,-139.37"/>
<polygon fill="midnightblue" stroke="midnightblue" points="1254.19,-141.55 1258.22,-131.75 1248.96,-136.9 1254.19,-141.55"/>
</g>
<!-- Node41 -->
<g id="node41" class="node">
<title>Node41</title>
<g id="a_node41"><a xlink:href="_half_8hpp.html" target="_top" xlink:title=" ">
<polygon fill="white" stroke="black" points="1363.5,-112.5 1363.5,-131.5 1420.5,-131.5 1420.5,-112.5 1363.5,-112.5"/>
<text text-anchor="middle" x="1392" y="-119.5" font-family="Helvetica,sans-Serif" font-size="10.00">Half.hpp</text>
</a>
</g>
</g>
<!-- Node39&#45;&gt;Node41 -->
<g id="edge73" class="edge">
<title>Node39&#45;&gt;Node41</title>
<path fill="none" stroke="midnightblue" d="M1245.57,-168.44C1275.1,-159.28 1322.12,-144.69 1354.88,-134.52"/>
<polygon fill="midnightblue" stroke="midnightblue" points="1356.04,-137.82 1364.56,-131.52 1353.97,-131.14 1356.04,-137.82"/>
</g>
<!-- Node40&#45;&gt;Node12 -->
<g id="edge71" class="edge">
<title>Node40&#45;&gt;Node12</title>
<path fill="none" stroke="midnightblue" d="M1250.42,-112.32C1235,-103.74 1211.19,-90.49 1193.29,-80.52"/>
<polygon fill="midnightblue" stroke="midnightblue" points="1194.99,-77.46 1184.55,-75.65 1191.58,-83.58 1194.99,-77.46"/>
</g>
<!-- Node40&#45;&gt;Node17 -->
<g id="edge72" class="edge">
<title>Node40&#45;&gt;Node17</title>
<path fill="none" stroke="midnightblue" d="M1225.25,-112.5C1175.34,-102.1 1091.57,-84.63 1043.62,-74.64"/>
<polygon fill="midnightblue" stroke="midnightblue" points="1044.18,-71.18 1033.68,-72.56 1042.75,-78.03 1044.18,-71.18"/>
</g>
<!-- Node40&#45;&gt;Node21 -->
<g id="edge69" class="edge">
<title>Node40&#45;&gt;Node21</title>
<path fill="none" stroke="midnightblue" d="M1259.49,-112.38C1248.91,-98.85 1226.76,-72.48 1203,-56 1182.74,-41.95 1157.4,-30.81 1136.92,-23.13"/>
<polygon fill="midnightblue" stroke="midnightblue" points="1137.89,-19.76 1127.3,-19.63 1135.5,-26.34 1137.89,-19.76"/>
</g>
<!-- Node40&#45;&gt;Node31 -->
<g id="edge70" class="edge">
<title>Node40&#45;&gt;Node31</title>
<path fill="none" stroke="midnightblue" d="M1267.82,-112.08C1269.27,-104.93 1271.37,-94.64 1273.19,-85.69"/>
<polygon fill="midnightblue" stroke="midnightblue" points="1276.65,-86.25 1275.22,-75.75 1269.79,-84.85 1276.65,-86.25"/>
</g>
<!-- Node41&#45;&gt;Node13 -->
<g id="edge74" class="edge">
<title>Node41&#45;&gt;Node13</title>
<path fill="none" stroke="midnightblue" d="M1401.16,-112.32C1409.5,-104.42 1422.03,-92.55 1432.18,-82.94"/>
<polygon fill="midnightblue" stroke="midnightblue" points="1434.82,-85.25 1439.68,-75.83 1430.01,-80.17 1434.82,-85.25"/>
</g>
<!-- Node42 -->
<g id="node42" class="node">
<title>Node42</title>
<g id="a_node42"><a xlink:title=" ">
<polygon fill="white" stroke="#bfbfbf" points="1319.5,-56.5 1319.5,-75.5 1396.5,-75.5 1396.5,-56.5 1319.5,-56.5"/>
<text text-anchor="middle" x="1358" y="-63.5" font-family="Helvetica,sans-Serif" font-size="10.00">half/half.hpp</text>
</a>
</g>
</g>
<!-- Node41&#45;&gt;Node42 -->
<g id="edge75" class="edge">
<title>Node41&#45;&gt;Node42</title>
<path fill="none" stroke="midnightblue" d="M1386.39,-112.08C1381.63,-104.53 1374.68,-93.49 1368.85,-84.23"/>
<polygon fill="midnightblue" stroke="midnightblue" points="1371.8,-82.35 1363.51,-75.75 1365.88,-86.08 1371.8,-82.35"/>
</g>
<!-- Node43&#45;&gt;Node6 -->
<g id="edge80" class="edge">
<title>Node43&#45;&gt;Node6</title>
<path fill="none" stroke="midnightblue" d="M827.22,-285.82C790.87,-265.83 701.05,-216.43 657.48,-192.47"/>
<polygon fill="midnightblue" stroke="midnightblue" points="659.13,-189.38 648.68,-187.62 655.76,-195.51 659.13,-189.38"/>
</g>
<!-- Node43&#45;&gt;Node14 -->
<g id="edge79" class="edge">
<title>Node43&#45;&gt;Node14</title>
<path fill="none" stroke="midnightblue" d="M840.91,-285.76C834.52,-259.04 815.15,-178.02 806.39,-141.36"/>
<polygon fill="midnightblue" stroke="midnightblue" points="809.77,-140.43 804.04,-131.52 802.96,-142.06 809.77,-140.43"/>
</g>
<!-- Node43&#45;&gt;Node32 -->
<g id="edge81" class="edge">
<title>Node43&#45;&gt;Node32</title>
<path fill="none" stroke="midnightblue" d="M894.44,-285.98C959.48,-275.19 1071.35,-256.65 1140.74,-245.15"/>
<polygon fill="midnightblue" stroke="midnightblue" points="1141.37,-248.6 1150.66,-243.51 1140.22,-241.69 1141.37,-248.6"/>
</g>
</g>
</svg>
