<?xml version="1.0" encoding="UTF-8" standalone="no"?>
<!DOCTYPE svg PUBLIC "-//W3C//DTD SVG 1.1//EN"
 "http://www.w3.org/Graphics/SVG/1.1/DTD/svg11.dtd">
<!-- Generated by graphviz version 2.43.0 (0)
 -->
<!-- Title: src/armnn/RangeTracker.hpp Pages: 1 -->
<svg width="1970pt" height="431pt"
 viewBox="0.00 0.00 1970.00 431.00" xmlns="http://www.w3.org/2000/svg" xmlns:xlink="http://www.w3.org/1999/xlink">
<g id="graph0" class="graph" transform="scale(1 1) rotate(0) translate(4 427)">
<title>src/armnn/RangeTracker.hpp</title>
<polygon fill="white" stroke="transparent" points="-4,4 -4,-427 1966,-427 1966,4 -4,4"/>
<!-- Node1 -->
<g id="node1" class="node">
<title>Node1</title>
<g id="a_node1"><a xlink:title=" ">
<polygon fill="#bfbfbf" stroke="black" points="1397,-403.5 1397,-422.5 1551,-422.5 1551,-403.5 1397,-403.5"/>
<text text-anchor="middle" x="1474" y="-410.5" font-family="Helvetica,sans-Serif" font-size="10.00">src/armnn/RangeTracker.hpp</text>
</a>
</g>
</g>
<!-- Node2 -->
<g id="node2" class="node">
<title>Node2</title>
<g id="a_node2"><a xlink:href="_i_network_8hpp.html" target="_top" xlink:title=" ">
<polygon fill="white" stroke="black" points="1416,-342 1416,-361 1532,-361 1532,-342 1416,-342"/>
<text text-anchor="middle" x="1474" y="-349" font-family="Helvetica,sans-Serif" font-size="10.00">armnn/INetwork.hpp</text>
</a>
</g>
</g>
<!-- Node1&#45;&gt;Node2 -->
<g id="edge1" class="edge">
<title>Node1&#45;&gt;Node2</title>
<path fill="none" stroke="midnightblue" d="M1474,-403.48C1474,-395.08 1474,-381.98 1474,-371.16"/>
<polygon fill="midnightblue" stroke="midnightblue" points="1477.5,-371.01 1474,-361.01 1470.5,-371.01 1477.5,-371.01"/>
</g>
<!-- Node18 -->
<g id="node18" class="node">
<title>Node18</title>
<g id="a_node18"><a xlink:href="_types_8hpp.html" target="_top" xlink:title=" ">
<polygon fill="white" stroke="black" points="1280,-112.5 1280,-131.5 1380,-131.5 1380,-112.5 1280,-112.5"/>
<text text-anchor="middle" x="1330" y="-119.5" font-family="Helvetica,sans-Serif" font-size="10.00">armnn/Types.hpp</text>
</a>
</g>
</g>
<!-- Node1&#45;&gt;Node18 -->
<g id="edge79" class="edge">
<title>Node1&#45;&gt;Node18</title>
<path fill="none" stroke="midnightblue" d="M1451.21,-403.47C1435.67,-396.32 1416.29,-384.44 1407,-367 1377.11,-310.91 1367.14,-273.5 1407,-224 1455.57,-163.69 1621.5,-227.56 1572,-168 1549.31,-140.7 1454.17,-129.88 1390.16,-125.65"/>
<polygon fill="midnightblue" stroke="midnightblue" points="1390.37,-122.16 1380.17,-125.03 1389.93,-129.14 1390.37,-122.16"/>
</g>
<!-- Node34 -->
<g id="node34" class="node">
<title>Node34</title>
<g id="a_node34"><a xlink:title=" ">
<polygon fill="white" stroke="#bfbfbf" points="488.5,-112.5 488.5,-131.5 533.5,-131.5 533.5,-112.5 488.5,-112.5"/>
<text text-anchor="middle" x="511" y="-119.5" font-family="Helvetica,sans-Serif" font-size="10.00">utility</text>
</a>
</g>
</g>
<!-- Node1&#45;&gt;Node34 -->
<g id="edge81" class="edge">
<title>Node1&#45;&gt;Node34</title>
<path fill="none" stroke="midnightblue" d="M1396.99,-411.53C1148.65,-409 385,-392.95 385,-291 385,-291 385,-291 385,-233 385,-183.15 441.65,-150.7 478.98,-134.72"/>
<polygon fill="midnightblue" stroke="midnightblue" points="480.55,-137.86 488.47,-130.83 477.89,-131.38 480.55,-137.86"/>
</g>
<!-- Node44 -->
<g id="node44" class="node">
<title>Node44</title>
<g id="a_node44"><a xlink:title=" ">
<polygon fill="white" stroke="#bfbfbf" points="1550,-336.5 1550,-366.5 1690,-366.5 1690,-336.5 1550,-336.5"/>
<text text-anchor="start" x="1558" y="-354.5" font-family="Helvetica,sans-Serif" font-size="10.00">common/include/Profiling</text>
<text text-anchor="middle" x="1620" y="-343.5" font-family="Helvetica,sans-Serif" font-size="10.00">Guid.hpp</text>
</a>
</g>
</g>
<!-- Node1&#45;&gt;Node44 -->
<g id="edge80" class="edge">
<title>Node1&#45;&gt;Node44</title>
<path fill="none" stroke="midnightblue" d="M1494.92,-403.48C1515.99,-394.89 1549.13,-381.38 1576.01,-370.43"/>
<polygon fill="midnightblue" stroke="midnightblue" points="1577.65,-373.54 1585.59,-366.52 1575.01,-367.06 1577.65,-373.54"/>
</g>
<!-- Node45 -->
<g id="node45" class="node">
<title>Node45</title>
<g id="a_node45"><a xlink:title=" ">
<polygon fill="white" stroke="#bfbfbf" points="1708.5,-342 1708.5,-361 1801.5,-361 1801.5,-342 1708.5,-342"/>
<text text-anchor="middle" x="1755" y="-349" font-family="Helvetica,sans-Serif" font-size="10.00">unordered_map</text>
</a>
</g>
</g>
<!-- Node1&#45;&gt;Node45 -->
<g id="edge82" class="edge">
<title>Node1&#45;&gt;Node45</title>
<path fill="none" stroke="midnightblue" d="M1520.7,-403.45C1566.32,-394.91 1637.65,-381.07 1699,-367 1703.71,-365.92 1708.62,-364.74 1713.5,-363.52"/>
<polygon fill="midnightblue" stroke="midnightblue" points="1714.55,-366.87 1723.39,-361.02 1712.83,-360.08 1714.55,-366.87"/>
</g>
<!-- Node3 -->
<g id="node3" class="node">
<title>Node3</title>
<g id="a_node3"><a xlink:href="_backend_options_8hpp.html" target="_top" xlink:title=" ">
<polygon fill="white" stroke="black" points="878.5,-224.5 878.5,-243.5 1029.5,-243.5 1029.5,-224.5 878.5,-224.5"/>
<text text-anchor="middle" x="954" y="-231.5" font-family="Helvetica,sans-Serif" font-size="10.00">armnn/BackendOptions.hpp</text>
</a>
</g>
</g>
<!-- Node2&#45;&gt;Node3 -->
<g id="edge2" class="edge">
<title>Node2&#45;&gt;Node3</title>
<path fill="none" stroke="midnightblue" d="M1415.9,-348.85C1338.92,-345.33 1199.63,-334.34 1086,-300 1045.45,-287.75 1002.05,-264.1 976.51,-248.95"/>
<polygon fill="midnightblue" stroke="midnightblue" points="978.01,-245.77 967.63,-243.61 974.39,-251.77 978.01,-245.77"/>
</g>
<!-- Node5 -->
<g id="node5" class="node">
<title>Node5</title>
<g id="a_node5"><a xlink:title=" ">
<polygon fill="white" stroke="#bfbfbf" points="1217,-0.5 1217,-19.5 1275,-19.5 1275,-0.5 1217,-0.5"/>
<text text-anchor="middle" x="1246" y="-7.5" font-family="Helvetica,sans-Serif" font-size="10.00">memory</text>
</a>
</g>
</g>
<!-- Node2&#45;&gt;Node5 -->
<g id="edge77" class="edge">
<title>Node2&#45;&gt;Node5</title>
<path fill="none" stroke="midnightblue" d="M1510.03,-341.97C1520.02,-339.81 1530.9,-337.64 1541,-336 1635.97,-320.62 1962,-331.21 1962,-235 1962,-235 1962,-235 1962,-121 1962,-51.99 1435.7,-20.46 1285.55,-12.86"/>
<polygon fill="midnightblue" stroke="midnightblue" points="1285.56,-9.36 1275.4,-12.36 1285.22,-16.35 1285.56,-9.36"/>
</g>
<!-- Node10 -->
<g id="node10" class="node">
<title>Node10</title>
<g id="a_node10"><a xlink:title=" ">
<polygon fill="white" stroke="#bfbfbf" points="247.5,-0.5 247.5,-19.5 294.5,-19.5 294.5,-0.5 247.5,-0.5"/>
<text text-anchor="middle" x="271" y="-7.5" font-family="Helvetica,sans-Serif" font-size="10.00">vector</text>
</a>
</g>
</g>
<!-- Node2&#45;&gt;Node10 -->
<g id="edge78" class="edge">
<title>Node2&#45;&gt;Node10</title>
<path fill="none" stroke="midnightblue" d="M1415.76,-349.04C1142.43,-341.82 0,-307.31 0,-235 0,-235 0,-235 0,-121 0,-85.61 16.32,-75.28 46,-56 105.19,-17.54 190.24,-10.76 236.99,-10.23"/>
<polygon fill="midnightblue" stroke="midnightblue" points="237.2,-13.73 247.19,-10.21 237.18,-6.73 237.2,-13.73"/>
</g>
<!-- Node15 -->
<g id="node15" class="node">
<title>Node15</title>
<g id="a_node15"><a xlink:href="_deprecated_8hpp.html" target="_top" xlink:title=" ">
<polygon fill="white" stroke="black" points="1436,-56.5 1436,-75.5 1564,-75.5 1564,-56.5 1436,-56.5"/>
<text text-anchor="middle" x="1500" y="-63.5" font-family="Helvetica,sans-Serif" font-size="10.00">armnn/Deprecated.hpp</text>
</a>
</g>
</g>
<!-- Node2&#45;&gt;Node15 -->
<g id="edge15" class="edge">
<title>Node2&#45;&gt;Node15</title>
<path fill="none" stroke="midnightblue" d="M1512.95,-341.98C1522.14,-339.99 1531.91,-337.9 1541,-336 1704.33,-301.81 1805.46,-377.92 1905,-244 1994.03,-124.21 1713.97,-84.27 1574.29,-72"/>
<polygon fill="midnightblue" stroke="midnightblue" points="1574.34,-68.49 1564.07,-71.13 1573.74,-75.46 1574.34,-68.49"/>
</g>
<!-- Node16 -->
<g id="node16" class="node">
<title>Node16</title>
<g id="a_node16"><a xlink:href="_descriptors_fwd_8hpp.html" target="_top" xlink:title=" ">
<polygon fill="white" stroke="black" points="1416,-224.5 1416,-243.5 1564,-243.5 1564,-224.5 1416,-224.5"/>
<text text-anchor="middle" x="1490" y="-231.5" font-family="Helvetica,sans-Serif" font-size="10.00">armnn/DescriptorsFwd.hpp</text>
</a>
</g>
</g>
<!-- Node2&#45;&gt;Node16 -->
<g id="edge16" class="edge">
<title>Node2&#45;&gt;Node16</title>
<path fill="none" stroke="midnightblue" d="M1475.2,-341.82C1477.77,-323.26 1483.86,-279.34 1487.37,-253.97"/>
<polygon fill="midnightblue" stroke="midnightblue" points="1490.88,-254.17 1488.78,-243.78 1483.94,-253.21 1490.88,-254.17"/>
</g>
<!-- Node17 -->
<g id="node17" class="node">
<title>Node17</title>
<g id="a_node17"><a xlink:href="_i_strategy_8hpp.html" target="_top" xlink:title=" ">
<polygon fill="white" stroke="black" points="1534.5,-280.5 1534.5,-299.5 1649.5,-299.5 1649.5,-280.5 1534.5,-280.5"/>
<text text-anchor="middle" x="1592" y="-287.5" font-family="Helvetica,sans-Serif" font-size="10.00">armnn/IStrategy.hpp</text>
</a>
</g>
</g>
<!-- Node2&#45;&gt;Node17 -->
<g id="edge17" class="edge">
<title>Node2&#45;&gt;Node17</title>
<path fill="none" stroke="midnightblue" d="M1490.91,-341.98C1510.53,-332.08 1543.13,-315.64 1565.99,-304.12"/>
<polygon fill="midnightblue" stroke="midnightblue" points="1567.77,-307.14 1575.12,-299.51 1564.62,-300.89 1567.77,-307.14"/>
</g>
<!-- Node23 -->
<g id="node23" class="node">
<title>Node23</title>
<g id="a_node23"><a xlink:href="_network_fwd_8hpp.html" target="_top" xlink:title=" ">
<polygon fill="white" stroke="black" points="1620,-224.5 1620,-243.5 1754,-243.5 1754,-224.5 1620,-224.5"/>
<text text-anchor="middle" x="1687" y="-231.5" font-family="Helvetica,sans-Serif" font-size="10.00">armnn/NetworkFwd.hpp</text>
</a>
</g>
</g>
<!-- Node2&#45;&gt;Node23 -->
<g id="edge29" class="edge">
<title>Node2&#45;&gt;Node23</title>
<path fill="none" stroke="midnightblue" d="M1511.94,-342C1562.74,-330.34 1647.82,-309.72 1659,-300 1672.75,-288.06 1679.96,-268.15 1683.6,-253.51"/>
<polygon fill="midnightblue" stroke="midnightblue" points="1687.06,-254.07 1685.73,-243.56 1680.22,-252.6 1687.06,-254.07"/>
</g>
<!-- Node24 -->
<g id="node24" class="node">
<title>Node24</title>
<g id="a_node24"><a xlink:href="_tensor_fwd_8hpp.html" target="_top" xlink:title=" ">
<polygon fill="white" stroke="black" points="1772,-224.5 1772,-243.5 1896,-243.5 1896,-224.5 1772,-224.5"/>
<text text-anchor="middle" x="1834" y="-231.5" font-family="Helvetica,sans-Serif" font-size="10.00">armnn/TensorFwd.hpp</text>
</a>
</g>
</g>
<!-- Node2&#45;&gt;Node24 -->
<g id="edge34" class="edge">
<title>Node2&#45;&gt;Node24</title>
<path fill="none" stroke="midnightblue" d="M1511.91,-341.97C1562.43,-330.47 1649.07,-310.25 1680,-300 1725.74,-284.85 1776.93,-262.01 1807.25,-247.83"/>
<polygon fill="midnightblue" stroke="midnightblue" points="1808.78,-250.98 1816.34,-243.55 1805.8,-244.64 1808.78,-250.98"/>
</g>
<!-- Node25 -->
<g id="node25" class="node">
<title>Node25</title>
<g id="a_node25"><a xlink:href="_optional_8hpp.html" target="_top" xlink:title=" ">
<polygon fill="white" stroke="black" points="704.5,-112.5 704.5,-131.5 817.5,-131.5 817.5,-112.5 704.5,-112.5"/>
<text text-anchor="middle" x="761" y="-119.5" font-family="Helvetica,sans-Serif" font-size="10.00">armnn/Optional.hpp</text>
</a>
</g>
</g>
<!-- Node2&#45;&gt;Node25 -->
<g id="edge30" class="edge">
<title>Node2&#45;&gt;Node25</title>
<path fill="none" stroke="midnightblue" d="M1415.86,-350.57C1221.43,-349.41 599.42,-334.17 481,-188 475.4,-181.09 475.23,-174.77 481,-168 507.84,-136.5 620.15,-126.97 694.12,-124.13"/>
<polygon fill="midnightblue" stroke="midnightblue" points="694.42,-127.62 704.29,-123.78 694.17,-120.63 694.42,-127.62"/>
</g>
<!-- Node28 -->
<g id="node28" class="node">
<title>Node28</title>
<g id="a_node28"><a xlink:href="_logging_8hpp.html" target="_top" xlink:title=" ">
<polygon fill="white" stroke="black" points="247,-168.5 247,-187.5 357,-187.5 357,-168.5 247,-168.5"/>
<text text-anchor="middle" x="302" y="-175.5" font-family="Helvetica,sans-Serif" font-size="10.00">armnn/Logging.hpp</text>
</a>
</g>
</g>
<!-- Node2&#45;&gt;Node28 -->
<g id="edge35" class="edge">
<title>Node2&#45;&gt;Node28</title>
<path fill="none" stroke="midnightblue" d="M1415.69,-349.79C1211.63,-347 537.16,-335.21 447,-300 389.68,-277.62 338.47,-223.01 315.22,-195.47"/>
<polygon fill="midnightblue" stroke="midnightblue" points="317.75,-193.03 308.68,-187.55 312.35,-197.49 317.75,-193.03"/>
</g>
<!-- Node35 -->
<g id="node35" class="node">
<title>Node35</title>
<g id="a_node35"><a xlink:href="_tensor_handle_8hpp.html" target="_top" xlink:title=" ">
<polygon fill="white" stroke="black" points="1094.5,-280.5 1094.5,-299.5 1281.5,-299.5 1281.5,-280.5 1094.5,-280.5"/>
<text text-anchor="middle" x="1188" y="-287.5" font-family="Helvetica,sans-Serif" font-size="10.00">armnn/backends/TensorHandle.hpp</text>
</a>
</g>
</g>
<!-- Node2&#45;&gt;Node35 -->
<g id="edge47" class="edge">
<title>Node2&#45;&gt;Node35</title>
<path fill="none" stroke="midnightblue" d="M1433.02,-341.98C1381.84,-331.33 1294.27,-313.11 1238.86,-301.58"/>
<polygon fill="midnightblue" stroke="midnightblue" points="1239.4,-298.12 1228.9,-299.51 1237.98,-304.97 1239.4,-298.12"/>
</g>
<!-- Node4 -->
<g id="node4" class="node">
<title>Node4</title>
<g id="a_node4"><a xlink:href="_backend_id_8hpp.html" target="_top" xlink:title=" ">
<polygon fill="white" stroke="black" points="1031,-56.5 1031,-75.5 1119,-75.5 1119,-56.5 1031,-56.5"/>
<text text-anchor="middle" x="1075" y="-63.5" font-family="Helvetica,sans-Serif" font-size="10.00">BackendId.hpp</text>
</a>
</g>
</g>
<!-- Node3&#45;&gt;Node4 -->
<g id="edge3" class="edge">
<title>Node3&#45;&gt;Node4</title>
<path fill="none" stroke="midnightblue" d="M1010.61,-224.44C1051.37,-216.98 1101.32,-204.73 1114,-188 1138.21,-156.04 1108.41,-108.5 1089.07,-83.59"/>
<polygon fill="midnightblue" stroke="midnightblue" points="1091.55,-81.08 1082.54,-75.51 1086.1,-85.48 1091.55,-81.08"/>
</g>
<!-- Node11 -->
<g id="node11" class="node">
<title>Node11</title>
<g id="a_node11"><a xlink:href="_exceptions_8hpp.html" target="_top" xlink:title=" ">
<polygon fill="white" stroke="black" points="613.5,-56.5 613.5,-75.5 738.5,-75.5 738.5,-56.5 613.5,-56.5"/>
<text text-anchor="middle" x="676" y="-63.5" font-family="Helvetica,sans-Serif" font-size="10.00">armnn/Exceptions.hpp</text>
</a>
</g>
</g>
<!-- Node3&#45;&gt;Node11 -->
<g id="edge10" class="edge">
<title>Node3&#45;&gt;Node11</title>
<path fill="none" stroke="midnightblue" d="M894.2,-224.46C833.9,-215.39 745.25,-200.63 713,-188 691.24,-179.48 635.3,-152.46 624,-132 613.43,-112.87 633.5,-93.65 651.7,-81.13"/>
<polygon fill="midnightblue" stroke="midnightblue" points="653.84,-83.92 660.34,-75.55 650.04,-78.04 653.84,-83.92"/>
</g>
<!-- Node14 -->
<g id="node14" class="node">
<title>Node14</title>
<g id="a_node14"><a xlink:title=" ">
<polygon fill="white" stroke="#bfbfbf" points="1161,-168.5 1161,-187.5 1213,-187.5 1213,-168.5 1161,-168.5"/>
<text text-anchor="middle" x="1187" y="-175.5" font-family="Helvetica,sans-Serif" font-size="10.00">cassert</text>
</a>
</g>
</g>
<!-- Node3&#45;&gt;Node14 -->
<g id="edge14" class="edge">
<title>Node3&#45;&gt;Node14</title>
<path fill="none" stroke="midnightblue" d="M990.92,-224.44C1034.76,-214.28 1107.39,-197.45 1150.87,-187.37"/>
<polygon fill="midnightblue" stroke="midnightblue" points="1151.79,-190.75 1160.74,-185.09 1150.21,-183.93 1151.79,-190.75"/>
</g>
<!-- Node4&#45;&gt;Node5 -->
<g id="edge4" class="edge">
<title>Node4&#45;&gt;Node5</title>
<path fill="none" stroke="midnightblue" d="M1102.1,-56.44C1130.99,-47.32 1176.92,-32.81 1209.11,-22.65"/>
<polygon fill="midnightblue" stroke="midnightblue" points="1210.55,-25.87 1219.03,-19.52 1208.44,-19.19 1210.55,-25.87"/>
</g>
<!-- Node6 -->
<g id="node6" class="node">
<title>Node6</title>
<g id="a_node6"><a xlink:title=" ">
<polygon fill="white" stroke="#bfbfbf" points="1091.5,-0.5 1091.5,-19.5 1148.5,-19.5 1148.5,-0.5 1091.5,-0.5"/>
<text text-anchor="middle" x="1120" y="-7.5" font-family="Helvetica,sans-Serif" font-size="10.00">ostream</text>
</a>
</g>
</g>
<!-- Node4&#45;&gt;Node6 -->
<g id="edge5" class="edge">
<title>Node4&#45;&gt;Node6</title>
<path fill="none" stroke="midnightblue" d="M1082.43,-56.08C1088.85,-48.38 1098.31,-37.03 1106.12,-27.65"/>
<polygon fill="midnightblue" stroke="midnightblue" points="1108.99,-29.67 1112.71,-19.75 1103.62,-25.19 1108.99,-29.67"/>
</g>
<!-- Node7 -->
<g id="node7" class="node">
<title>Node7</title>
<g id="a_node7"><a xlink:title=" ">
<polygon fill="white" stroke="#bfbfbf" points="1167,-0.5 1167,-19.5 1199,-19.5 1199,-0.5 1167,-0.5"/>
<text text-anchor="middle" x="1183" y="-7.5" font-family="Helvetica,sans-Serif" font-size="10.00">set</text>
</a>
</g>
</g>
<!-- Node4&#45;&gt;Node7 -->
<g id="edge6" class="edge">
<title>Node4&#45;&gt;Node7</title>
<path fill="none" stroke="midnightblue" d="M1092.35,-56.32C1109.98,-47.51 1137.47,-33.76 1157.56,-23.72"/>
<polygon fill="midnightblue" stroke="midnightblue" points="1159.37,-26.73 1166.75,-19.12 1156.24,-20.47 1159.37,-26.73"/>
</g>
<!-- Node8 -->
<g id="node8" class="node">
<title>Node8</title>
<g id="a_node8"><a xlink:title=" ">
<polygon fill="white" stroke="#bfbfbf" points="458,-0.5 458,-19.5 502,-19.5 502,-0.5 458,-0.5"/>
<text text-anchor="middle" x="480" y="-7.5" font-family="Helvetica,sans-Serif" font-size="10.00">string</text>
</a>
</g>
</g>
<!-- Node4&#45;&gt;Node8 -->
<g id="edge7" class="edge">
<title>Node4&#45;&gt;Node8</title>
<path fill="none" stroke="midnightblue" d="M1030.8,-57.2C1027.82,-56.77 1024.87,-56.36 1022,-56 971.46,-49.62 620.94,-22.02 512.14,-13.51"/>
<polygon fill="midnightblue" stroke="midnightblue" points="512.34,-10.01 502.09,-12.72 511.79,-16.99 512.34,-10.01"/>
</g>
<!-- Node9 -->
<g id="node9" class="node">
<title>Node9</title>
<g id="a_node9"><a xlink:title=" ">
<polygon fill="white" stroke="#bfbfbf" points="987,-0.5 987,-19.5 1073,-19.5 1073,-0.5 987,-0.5"/>
<text text-anchor="middle" x="1030" y="-7.5" font-family="Helvetica,sans-Serif" font-size="10.00">unordered_set</text>
</a>
</g>
</g>
<!-- Node4&#45;&gt;Node9 -->
<g id="edge8" class="edge">
<title>Node4&#45;&gt;Node9</title>
<path fill="none" stroke="midnightblue" d="M1067.57,-56.08C1061.15,-48.38 1051.69,-37.03 1043.88,-27.65"/>
<polygon fill="midnightblue" stroke="midnightblue" points="1046.38,-25.19 1037.29,-19.75 1041.01,-29.67 1046.38,-25.19"/>
</g>
<!-- Node4&#45;&gt;Node10 -->
<g id="edge9" class="edge">
<title>Node4&#45;&gt;Node10</title>
<path fill="none" stroke="midnightblue" d="M1030.8,-57.13C1027.83,-56.71 1024.87,-56.33 1022,-56 950.3,-47.79 442.64,-20.21 305.23,-12.83"/>
<polygon fill="midnightblue" stroke="midnightblue" points="305.07,-9.32 294.89,-12.28 304.69,-16.31 305.07,-9.32"/>
</g>
<!-- Node11&#45;&gt;Node8 -->
<g id="edge13" class="edge">
<title>Node11&#45;&gt;Node8</title>
<path fill="none" stroke="midnightblue" d="M644.94,-56.44C608.54,-46.41 548.51,-29.88 511.79,-19.76"/>
<polygon fill="midnightblue" stroke="midnightblue" points="512.66,-16.37 502.09,-17.09 510.8,-23.12 512.66,-16.37"/>
</g>
<!-- Node12 -->
<g id="node12" class="node">
<title>Node12</title>
<g id="a_node12"><a xlink:title=" ">
<polygon fill="white" stroke="#bfbfbf" points="608,-0.5 608,-19.5 664,-19.5 664,-0.5 608,-0.5"/>
<text text-anchor="middle" x="636" y="-7.5" font-family="Helvetica,sans-Serif" font-size="10.00">sstream</text>
</a>
</g>
</g>
<!-- Node11&#45;&gt;Node12 -->
<g id="edge11" class="edge">
<title>Node11&#45;&gt;Node12</title>
<path fill="none" stroke="midnightblue" d="M669.39,-56.08C663.74,-48.46 655.46,-37.26 648.55,-27.94"/>
<polygon fill="midnightblue" stroke="midnightblue" points="651.25,-25.7 642.48,-19.75 645.62,-29.87 651.25,-25.7"/>
</g>
<!-- Node13 -->
<g id="node13" class="node">
<title>Node13</title>
<g id="a_node13"><a xlink:title=" ">
<polygon fill="white" stroke="#bfbfbf" points="682.5,-0.5 682.5,-19.5 747.5,-19.5 747.5,-0.5 682.5,-0.5"/>
<text text-anchor="middle" x="715" y="-7.5" font-family="Helvetica,sans-Serif" font-size="10.00">stdexcept</text>
</a>
</g>
</g>
<!-- Node11&#45;&gt;Node13 -->
<g id="edge12" class="edge">
<title>Node11&#45;&gt;Node13</title>
<path fill="none" stroke="midnightblue" d="M682.44,-56.08C687.95,-48.46 696.03,-37.26 702.76,-27.94"/>
<polygon fill="midnightblue" stroke="midnightblue" points="705.66,-29.91 708.68,-19.75 699.99,-25.81 705.66,-29.91"/>
</g>
<!-- Node17&#45;&gt;Node16 -->
<g id="edge18" class="edge">
<title>Node17&#45;&gt;Node16</title>
<path fill="none" stroke="midnightblue" d="M1575.61,-280.32C1559.33,-271.7 1534.13,-258.36 1515.28,-248.39"/>
<polygon fill="midnightblue" stroke="midnightblue" points="1516.82,-245.24 1506.35,-243.65 1513.55,-251.43 1516.82,-245.24"/>
</g>
<!-- Node17&#45;&gt;Node18 -->
<g id="edge19" class="edge">
<title>Node17&#45;&gt;Node18</title>
<path fill="none" stroke="midnightblue" d="M1593.32,-280.11C1595.52,-267.13 1600.75,-242.52 1611,-224 1624.88,-198.92 1661.77,-189.66 1643,-168 1610.98,-131.05 1471.97,-123.73 1390.37,-122.7"/>
<polygon fill="midnightblue" stroke="midnightblue" points="1390.26,-119.2 1380.23,-122.6 1390.2,-126.2 1390.26,-119.2"/>
</g>
<!-- Node17&#45;&gt;Node23 -->
<g id="edge27" class="edge">
<title>Node17&#45;&gt;Node23</title>
<path fill="none" stroke="midnightblue" d="M1607.26,-280.32C1622.22,-271.82 1645.25,-258.73 1662.73,-248.8"/>
<polygon fill="midnightblue" stroke="midnightblue" points="1664.81,-251.64 1671.77,-243.65 1661.35,-245.55 1664.81,-251.64"/>
</g>
<!-- Node17&#45;&gt;Node24 -->
<g id="edge28" class="edge">
<title>Node17&#45;&gt;Node24</title>
<path fill="none" stroke="midnightblue" d="M1630.35,-280.44C1672.47,-271.04 1740.21,-255.93 1785.87,-245.74"/>
<polygon fill="midnightblue" stroke="midnightblue" points="1786.84,-249.11 1795.83,-243.52 1785.31,-242.28 1786.84,-249.11"/>
</g>
<!-- Node18&#45;&gt;Node4 -->
<g id="edge24" class="edge">
<title>Node18&#45;&gt;Node4</title>
<path fill="none" stroke="midnightblue" d="M1289.59,-112.44C1245.02,-103 1173.23,-87.8 1125.11,-77.61"/>
<polygon fill="midnightblue" stroke="midnightblue" points="1125.72,-74.16 1115.22,-75.52 1124.27,-81.01 1125.72,-74.16"/>
</g>
<!-- Node18&#45;&gt;Node11 -->
<g id="edge25" class="edge">
<title>Node18&#45;&gt;Node11</title>
<path fill="none" stroke="midnightblue" d="M1279.72,-117.91C1180.41,-111.65 951.88,-96.36 748.77,-76.03"/>
<polygon fill="midnightblue" stroke="midnightblue" points="749.11,-72.55 738.81,-75.03 748.41,-79.51 749.11,-72.55"/>
</g>
<!-- Node18&#45;&gt;Node15 -->
<g id="edge26" class="edge">
<title>Node18&#45;&gt;Node15</title>
<path fill="none" stroke="midnightblue" d="M1356.94,-112.44C1385.66,-103.32 1431.33,-88.81 1463.32,-78.65"/>
<polygon fill="midnightblue" stroke="midnightblue" points="1464.72,-81.88 1473.19,-75.52 1462.6,-75.21 1464.72,-81.88"/>
</g>
<!-- Node19 -->
<g id="node19" class="node">
<title>Node19</title>
<g id="a_node19"><a xlink:title=" ">
<polygon fill="white" stroke="#bfbfbf" points="971,-56.5 971,-75.5 1013,-75.5 1013,-56.5 971,-56.5"/>
<text text-anchor="middle" x="992" y="-63.5" font-family="Helvetica,sans-Serif" font-size="10.00">array</text>
</a>
</g>
</g>
<!-- Node18&#45;&gt;Node19 -->
<g id="edge20" class="edge">
<title>Node18&#45;&gt;Node19</title>
<path fill="none" stroke="midnightblue" d="M1279.98,-115.97C1220.74,-109.51 1118.99,-96.83 1023.06,-75.96"/>
<polygon fill="midnightblue" stroke="midnightblue" points="1023.72,-72.52 1013.2,-73.78 1022.21,-79.36 1023.72,-72.52"/>
</g>
<!-- Node20 -->
<g id="node20" class="node">
<title>Node20</title>
<g id="a_node20"><a xlink:title=" ">
<polygon fill="white" stroke="#bfbfbf" points="1246.5,-56.5 1246.5,-75.5 1311.5,-75.5 1311.5,-56.5 1246.5,-56.5"/>
<text text-anchor="middle" x="1279" y="-63.5" font-family="Helvetica,sans-Serif" font-size="10.00">functional</text>
</a>
</g>
</g>
<!-- Node18&#45;&gt;Node20 -->
<g id="edge21" class="edge">
<title>Node18&#45;&gt;Node20</title>
<path fill="none" stroke="midnightblue" d="M1321.58,-112.08C1314.15,-104.22 1303.15,-92.57 1294.19,-83.08"/>
<polygon fill="midnightblue" stroke="midnightblue" points="1296.68,-80.62 1287.26,-75.75 1291.59,-85.42 1296.68,-80.62"/>
</g>
<!-- Node21 -->
<g id="node21" class="node">
<title>Node21</title>
<g id="a_node21"><a xlink:title=" ">
<polygon fill="white" stroke="#bfbfbf" points="1175.5,-56.5 1175.5,-75.5 1228.5,-75.5 1228.5,-56.5 1175.5,-56.5"/>
<text text-anchor="middle" x="1202" y="-63.5" font-family="Helvetica,sans-Serif" font-size="10.00">stdint.h</text>
</a>
</g>
</g>
<!-- Node18&#45;&gt;Node21 -->
<g id="edge22" class="edge">
<title>Node18&#45;&gt;Node21</title>
<path fill="none" stroke="midnightblue" d="M1309.72,-112.44C1288.65,-103.56 1255.48,-89.56 1231.51,-79.45"/>
<polygon fill="midnightblue" stroke="midnightblue" points="1232.76,-76.18 1222.19,-75.52 1230.04,-82.63 1232.76,-76.18"/>
</g>
<!-- Node22 -->
<g id="node22" class="node">
<title>Node22</title>
<g id="a_node22"><a xlink:title=" ">
<polygon fill="white" stroke="#bfbfbf" points="1330,-56.5 1330,-75.5 1380,-75.5 1380,-56.5 1330,-56.5"/>
<text text-anchor="middle" x="1355" y="-63.5" font-family="Helvetica,sans-Serif" font-size="10.00">chrono</text>
</a>
</g>
</g>
<!-- Node18&#45;&gt;Node22 -->
<g id="edge23" class="edge">
<title>Node18&#45;&gt;Node22</title>
<path fill="none" stroke="midnightblue" d="M1334.13,-112.08C1337.51,-104.77 1342.42,-94.18 1346.62,-85.1"/>
<polygon fill="midnightblue" stroke="midnightblue" points="1349.92,-86.3 1350.95,-75.75 1343.57,-83.36 1349.92,-86.3"/>
</g>
<!-- Node25&#45;&gt;Node11 -->
<g id="edge31" class="edge">
<title>Node25&#45;&gt;Node11</title>
<path fill="none" stroke="midnightblue" d="M747.34,-112.32C734.08,-103.9 713.73,-90.97 698.15,-81.07"/>
<polygon fill="midnightblue" stroke="midnightblue" points="699.94,-78.06 689.62,-75.65 696.19,-83.97 699.94,-78.06"/>
</g>
<!-- Node26 -->
<g id="node26" class="node">
<title>Node26</title>
<g id="a_node26"><a xlink:title=" ">
<polygon fill="white" stroke="#bfbfbf" points="757,-56.5 757,-75.5 807,-75.5 807,-56.5 757,-56.5"/>
<text text-anchor="middle" x="782" y="-63.5" font-family="Helvetica,sans-Serif" font-size="10.00">cstring</text>
</a>
</g>
</g>
<!-- Node25&#45;&gt;Node26 -->
<g id="edge32" class="edge">
<title>Node25&#45;&gt;Node26</title>
<path fill="none" stroke="midnightblue" d="M764.47,-112.08C767.31,-104.77 771.43,-94.18 774.96,-85.1"/>
<polygon fill="midnightblue" stroke="midnightblue" points="778.23,-86.34 778.6,-75.75 771.71,-83.8 778.23,-86.34"/>
</g>
<!-- Node27 -->
<g id="node27" class="node">
<title>Node27</title>
<g id="a_node27"><a xlink:title=" ">
<polygon fill="white" stroke="#bfbfbf" points="883.5,-56.5 883.5,-75.5 952.5,-75.5 952.5,-56.5 883.5,-56.5"/>
<text text-anchor="middle" x="918" y="-63.5" font-family="Helvetica,sans-Serif" font-size="10.00">type_traits</text>
</a>
</g>
</g>
<!-- Node25&#45;&gt;Node27 -->
<g id="edge33" class="edge">
<title>Node25&#45;&gt;Node27</title>
<path fill="none" stroke="midnightblue" d="M785.88,-112.44C812.29,-103.36 854.22,-88.94 883.74,-78.78"/>
<polygon fill="midnightblue" stroke="midnightblue" points="884.92,-82.08 893.24,-75.52 882.64,-75.46 884.92,-82.08"/>
</g>
<!-- Node28&#45;&gt;Node5 -->
<g id="edge42" class="edge">
<title>Node28&#45;&gt;Node5</title>
<path fill="none" stroke="midnightblue" d="M357.23,-173.48C482.88,-165.3 782.71,-144.72 827,-132 845.72,-126.62 847.42,-117.85 866,-112 978.11,-76.68 1016.43,-112.98 1128,-76 1137.81,-72.75 1190.31,-43.01 1221.88,-24.91"/>
<polygon fill="midnightblue" stroke="midnightblue" points="1224.01,-27.72 1230.94,-19.7 1220.52,-21.65 1224.01,-27.72"/>
</g>
<!-- Node28&#45;&gt;Node8 -->
<g id="edge43" class="edge">
<title>Node28&#45;&gt;Node8</title>
<path fill="none" stroke="midnightblue" d="M246.84,-177.4C172.42,-175.98 53.64,-165.61 95,-112 138.67,-55.4 363.23,-24.32 447.76,-14.47"/>
<polygon fill="midnightblue" stroke="midnightblue" points="448.28,-17.94 457.82,-13.33 447.49,-10.98 448.28,-17.94"/>
</g>
<!-- Node28&#45;&gt;Node10 -->
<g id="edge45" class="edge">
<title>Node28&#45;&gt;Node10</title>
<path fill="none" stroke="midnightblue" d="M246.73,-174.56C183.3,-170.47 85.01,-159.73 62,-132 40.43,-106.01 40.78,-82.28 62,-56 83.64,-29.2 183.79,-17.61 237.21,-13.26"/>
<polygon fill="midnightblue" stroke="midnightblue" points="237.53,-16.74 247.23,-12.48 236.99,-9.76 237.53,-16.74"/>
</g>
<!-- Node28&#45;&gt;Node11 -->
<g id="edge46" class="edge">
<title>Node28&#45;&gt;Node11</title>
<path fill="none" stroke="midnightblue" d="M311.42,-168.4C327.6,-154.15 362.3,-125.86 397,-112 415.94,-104.43 527.99,-87.71 604.2,-76.92"/>
<polygon fill="midnightblue" stroke="midnightblue" points="604.82,-80.37 614.23,-75.5 603.84,-73.43 604.82,-80.37"/>
</g>
<!-- Node29 -->
<g id="node29" class="node">
<title>Node29</title>
<g id="a_node29"><a xlink:href="_utils_8hpp.html" target="_top" xlink:title=" ">
<polygon fill="white" stroke="black" points="254.5,-112.5 254.5,-131.5 349.5,-131.5 349.5,-112.5 254.5,-112.5"/>
<text text-anchor="middle" x="302" y="-119.5" font-family="Helvetica,sans-Serif" font-size="10.00">armnn/Utils.hpp</text>
</a>
</g>
</g>
<!-- Node28&#45;&gt;Node29 -->
<g id="edge36" class="edge">
<title>Node28&#45;&gt;Node29</title>
<path fill="none" stroke="midnightblue" d="M302,-168.08C302,-161.01 302,-150.86 302,-141.99"/>
<polygon fill="midnightblue" stroke="midnightblue" points="305.5,-141.75 302,-131.75 298.5,-141.75 305.5,-141.75"/>
</g>
<!-- Node31 -->
<g id="node31" class="node">
<title>Node31</title>
<g id="a_node31"><a xlink:title=" ">
<polygon fill="white" stroke="#bfbfbf" points="104.5,-112.5 104.5,-131.5 157.5,-131.5 157.5,-112.5 104.5,-112.5"/>
<text text-anchor="middle" x="131" y="-119.5" font-family="Helvetica,sans-Serif" font-size="10.00">ctype.h</text>
</a>
</g>
</g>
<!-- Node28&#45;&gt;Node31 -->
<g id="edge39" class="edge">
<title>Node28&#45;&gt;Node31</title>
<path fill="none" stroke="midnightblue" d="M274.9,-168.44C245.93,-159.29 199.8,-144.73 167.61,-134.56"/>
<polygon fill="midnightblue" stroke="midnightblue" points="168.28,-131.1 157.69,-131.43 166.17,-137.78 168.28,-131.1"/>
</g>
<!-- Node32 -->
<g id="node32" class="node">
<title>Node32</title>
<g id="a_node32"><a xlink:title=" ">
<polygon fill="white" stroke="#bfbfbf" points="176,-112.5 176,-131.5 236,-131.5 236,-112.5 176,-112.5"/>
<text text-anchor="middle" x="206" y="-119.5" font-family="Helvetica,sans-Serif" font-size="10.00">iostream</text>
</a>
</g>
</g>
<!-- Node28&#45;&gt;Node32 -->
<g id="edge40" class="edge">
<title>Node28&#45;&gt;Node32</title>
<path fill="none" stroke="midnightblue" d="M286.58,-168.32C271.46,-159.82 248.18,-146.73 230.53,-136.8"/>
<polygon fill="midnightblue" stroke="midnightblue" points="231.82,-133.51 221.39,-131.65 228.39,-139.61 231.82,-133.51"/>
</g>
<!-- Node33 -->
<g id="node33" class="node">
<title>Node33</title>
<g id="a_node33"><a xlink:title=" ">
<polygon fill="white" stroke="#bfbfbf" points="406,-112.5 406,-131.5 470,-131.5 470,-112.5 406,-112.5"/>
<text text-anchor="middle" x="438" y="-119.5" font-family="Helvetica,sans-Serif" font-size="10.00">algorithm</text>
</a>
</g>
</g>
<!-- Node28&#45;&gt;Node33 -->
<g id="edge41" class="edge">
<title>Node28&#45;&gt;Node33</title>
<path fill="none" stroke="midnightblue" d="M323.55,-168.44C346.03,-159.52 381.49,-145.44 406.98,-135.32"/>
<polygon fill="midnightblue" stroke="midnightblue" points="408.55,-138.46 416.55,-131.52 405.97,-131.95 408.55,-138.46"/>
</g>
<!-- Node28&#45;&gt;Node34 -->
<g id="edge44" class="edge">
<title>Node28&#45;&gt;Node34</title>
<path fill="none" stroke="midnightblue" d="M336.66,-168.46C370.37,-160.1 423.27,-146.81 478.35,-132.12"/>
<polygon fill="midnightblue" stroke="midnightblue" points="479.54,-135.43 488.29,-129.46 477.73,-128.67 479.54,-135.43"/>
</g>
<!-- Node29&#45;&gt;Node8 -->
<g id="edge37" class="edge">
<title>Node29&#45;&gt;Node8</title>
<path fill="none" stroke="midnightblue" d="M315.97,-112.37C346.64,-93.41 420.13,-48 457.44,-24.94"/>
<polygon fill="midnightblue" stroke="midnightblue" points="459.43,-27.83 466.1,-19.59 455.75,-21.87 459.43,-27.83"/>
</g>
<!-- Node30 -->
<g id="node30" class="node">
<title>Node30</title>
<g id="a_node30"><a xlink:title=" ">
<polygon fill="white" stroke="#bfbfbf" points="548.5,-56.5 548.5,-75.5 595.5,-75.5 595.5,-56.5 548.5,-56.5"/>
<text text-anchor="middle" x="572" y="-63.5" font-family="Helvetica,sans-Serif" font-size="10.00">cmath</text>
</a>
</g>
</g>
<!-- Node29&#45;&gt;Node30 -->
<g id="edge38" class="edge">
<title>Node29&#45;&gt;Node30</title>
<path fill="none" stroke="midnightblue" d="M344.78,-112.44C398.39,-101.72 489.17,-83.57 538.19,-73.76"/>
<polygon fill="midnightblue" stroke="midnightblue" points="539.15,-77.14 548.27,-71.75 537.78,-70.27 539.15,-77.14"/>
</g>
<!-- Node35&#45;&gt;Node33 -->
<g id="edge76" class="edge">
<title>Node35&#45;&gt;Node33</title>
<path fill="none" stroke="midnightblue" d="M1094.33,-285.7C925.62,-278.15 579.07,-254.76 481,-188 464.1,-176.49 452.17,-155.92 445.23,-140.99"/>
<polygon fill="midnightblue" stroke="midnightblue" points="448.41,-139.53 441.22,-131.75 441.98,-142.31 448.41,-139.53"/>
</g>
<!-- Node36 -->
<g id="node36" class="node">
<title>Node36</title>
<g id="a_node36"><a xlink:href="_i_tensor_handle_8hpp.html" target="_top" xlink:title=" ">
<polygon fill="white" stroke="black" points="753.5,-224.5 753.5,-243.5 860.5,-243.5 860.5,-224.5 753.5,-224.5"/>
<text text-anchor="middle" x="807" y="-231.5" font-family="Helvetica,sans-Serif" font-size="10.00">ITensorHandle.hpp</text>
</a>
</g>
</g>
<!-- Node35&#45;&gt;Node36 -->
<g id="edge48" class="edge">
<title>Node35&#45;&gt;Node36</title>
<path fill="none" stroke="midnightblue" d="M1127.63,-280.48C1065.84,-271.76 966.76,-257.75 870.79,-244.11"/>
<polygon fill="midnightblue" stroke="midnightblue" points="871.01,-240.61 860.62,-242.66 870.02,-247.54 871.01,-240.61"/>
</g>
<!-- Node41 -->
<g id="node41" class="node">
<title>Node41</title>
<g id="a_node41"><a xlink:href="_types_utils_8hpp.html" target="_top" xlink:title=" ">
<polygon fill="white" stroke="black" points="1200,-224.5 1200,-243.5 1322,-243.5 1322,-224.5 1200,-224.5"/>
<text text-anchor="middle" x="1261" y="-231.5" font-family="Helvetica,sans-Serif" font-size="10.00">armnn/TypesUtils.hpp</text>
</a>
</g>
</g>
<!-- Node35&#45;&gt;Node41 -->
<g id="edge62" class="edge">
<title>Node35&#45;&gt;Node41</title>
<path fill="none" stroke="midnightblue" d="M1199.73,-280.32C1210.84,-272.11 1227.74,-259.6 1240.98,-249.81"/>
<polygon fill="midnightblue" stroke="midnightblue" points="1243.1,-252.59 1249.06,-243.83 1238.94,-246.97 1243.1,-252.59"/>
</g>
<!-- Node42 -->
<g id="node42" class="node">
<title>Node42</title>
<g id="a_node42"><a xlink:href="_assert_8hpp.html" target="_top" xlink:title=" ">
<polygon fill="white" stroke="black" points="1048,-224.5 1048,-243.5 1182,-243.5 1182,-224.5 1048,-224.5"/>
<text text-anchor="middle" x="1115" y="-231.5" font-family="Helvetica,sans-Serif" font-size="10.00">armnn/utility/Assert.hpp</text>
</a>
</g>
</g>
<!-- Node35&#45;&gt;Node42 -->
<g id="edge72" class="edge">
<title>Node35&#45;&gt;Node42</title>
<path fill="none" stroke="midnightblue" d="M1176.27,-280.32C1165.16,-272.11 1148.26,-259.6 1135.02,-249.81"/>
<polygon fill="midnightblue" stroke="midnightblue" points="1137.06,-246.97 1126.94,-243.83 1132.9,-252.59 1137.06,-246.97"/>
</g>
<!-- Node43 -->
<g id="node43" class="node">
<title>Node43</title>
<g id="a_node43"><a xlink:href="_compatible_types_8hpp.html" target="_top" xlink:title=" ">
<polygon fill="white" stroke="black" points="1383.5,-168.5 1383.5,-187.5 1562.5,-187.5 1562.5,-168.5 1383.5,-168.5"/>
<text text-anchor="middle" x="1473" y="-175.5" font-family="Helvetica,sans-Serif" font-size="10.00">armnnUtils/CompatibleTypes.hpp</text>
</a>
</g>
</g>
<!-- Node35&#45;&gt;Node43 -->
<g id="edge74" class="edge">
<title>Node35&#45;&gt;Node43</title>
<path fill="none" stroke="midnightblue" d="M1219.09,-280.49C1248.33,-272.18 1293.15,-258.69 1331,-244 1350.65,-236.38 1354.85,-232.81 1374,-224 1397.77,-213.07 1424.82,-200.79 1444.63,-191.82"/>
<polygon fill="midnightblue" stroke="midnightblue" points="1446.33,-194.89 1454,-187.58 1443.44,-188.51 1446.33,-194.89"/>
</g>
<!-- Node37 -->
<g id="node37" class="node">
<title>Node37</title>
<g id="a_node37"><a xlink:href="_memory_sources_8hpp.html" target="_top" xlink:title=" ">
<polygon fill="white" stroke="black" points="953.5,-168.5 953.5,-187.5 1104.5,-187.5 1104.5,-168.5 953.5,-168.5"/>
<text text-anchor="middle" x="1029" y="-175.5" font-family="Helvetica,sans-Serif" font-size="10.00">armnn/MemorySources.hpp</text>
</a>
</g>
</g>
<!-- Node36&#45;&gt;Node37 -->
<g id="edge49" class="edge">
<title>Node36&#45;&gt;Node37</title>
<path fill="none" stroke="midnightblue" d="M842.18,-224.44C880.58,-215.1 942.18,-200.12 984.06,-189.93"/>
<polygon fill="midnightblue" stroke="midnightblue" points="985.1,-193.28 993.99,-187.52 983.44,-186.48 985.1,-193.28"/>
</g>
<!-- Node38 -->
<g id="node38" class="node">
<title>Node38</title>
<g id="a_node38"><a xlink:href="_ignore_unused_8hpp.html" target="_top" xlink:title=" ">
<polygon fill="white" stroke="black" points="489.5,-168.5 489.5,-187.5 660.5,-187.5 660.5,-168.5 489.5,-168.5"/>
<text text-anchor="middle" x="575" y="-175.5" font-family="Helvetica,sans-Serif" font-size="10.00">armnn/utility/IgnoreUnused.hpp</text>
</a>
</g>
</g>
<!-- Node36&#45;&gt;Node38 -->
<g id="edge52" class="edge">
<title>Node36&#45;&gt;Node38</title>
<path fill="none" stroke="midnightblue" d="M770.24,-224.44C729.94,-215.06 665.19,-199.99 621.42,-189.8"/>
<polygon fill="midnightblue" stroke="midnightblue" points="622.12,-186.37 611.59,-187.52 620.54,-193.19 622.12,-186.37"/>
</g>
<!-- Node39 -->
<g id="node39" class="node">
<title>Node39</title>
<g id="a_node39"><a xlink:href="_tensor_8hpp.html" target="_top" xlink:title=" ">
<polygon fill="white" stroke="black" points="755.5,-168.5 755.5,-187.5 858.5,-187.5 858.5,-168.5 755.5,-168.5"/>
<text text-anchor="middle" x="807" y="-175.5" font-family="Helvetica,sans-Serif" font-size="10.00">armnn/Tensor.hpp</text>
</a>
</g>
</g>
<!-- Node36&#45;&gt;Node39 -->
<g id="edge53" class="edge">
<title>Node36&#45;&gt;Node39</title>
<path fill="none" stroke="midnightblue" d="M807,-224.08C807,-217.01 807,-206.86 807,-197.99"/>
<polygon fill="midnightblue" stroke="midnightblue" points="810.5,-197.75 807,-187.75 803.5,-197.75 810.5,-197.75"/>
</g>
<!-- Node37&#45;&gt;Node18 -->
<g id="edge50" class="edge">
<title>Node37&#45;&gt;Node18</title>
<path fill="none" stroke="midnightblue" d="M1076.69,-168.44C1129.86,-158.9 1215.82,-143.48 1272.63,-133.29"/>
<polygon fill="midnightblue" stroke="midnightblue" points="1273.3,-136.73 1282.53,-131.52 1272.07,-129.84 1273.3,-136.73"/>
</g>
<!-- Node37&#45;&gt;Node27 -->
<g id="edge51" class="edge">
<title>Node37&#45;&gt;Node27</title>
<path fill="none" stroke="midnightblue" d="M1043.27,-168.3C1062.06,-155.75 1091.02,-131.89 1076,-112 1069,-102.73 1007,-87.05 962.78,-76.86"/>
<polygon fill="midnightblue" stroke="midnightblue" points="963.34,-73.4 952.81,-74.59 961.78,-80.22 963.34,-73.4"/>
</g>
<!-- Node39&#45;&gt;Node10 -->
<g id="edge60" class="edge">
<title>Node39&#45;&gt;Node10</title>
<path fill="none" stroke="midnightblue" d="M779.31,-168.42C688.94,-140.44 402.76,-51.81 304.5,-21.38"/>
<polygon fill="midnightblue" stroke="midnightblue" points="305.38,-17.98 294.8,-18.37 303.31,-24.67 305.38,-17.98"/>
</g>
<!-- Node39&#45;&gt;Node11 -->
<g id="edge54" class="edge">
<title>Node39&#45;&gt;Node11</title>
<path fill="none" stroke="midnightblue" d="M762.25,-168.45C739.58,-161.98 713.29,-150.85 696,-132 684.42,-119.37 679.54,-100.15 677.49,-85.89"/>
<polygon fill="midnightblue" stroke="midnightblue" points="680.94,-85.29 676.37,-75.73 673.98,-86.05 680.94,-85.29"/>
</g>
<!-- Node39&#45;&gt;Node18 -->
<g id="edge56" class="edge">
<title>Node39&#45;&gt;Node18</title>
<path fill="none" stroke="midnightblue" d="M858.58,-171.67C955.97,-161.62 1166.43,-139.89 1269.98,-129.2"/>
<polygon fill="midnightblue" stroke="midnightblue" points="1270.37,-132.68 1279.96,-128.17 1269.65,-125.71 1270.37,-132.68"/>
</g>
<!-- Node39&#45;&gt;Node19 -->
<g id="edge58" class="edge">
<title>Node39&#45;&gt;Node19</title>
<path fill="none" stroke="midnightblue" d="M858.51,-174.27C893.05,-169.88 937.46,-158.92 967,-132 980.25,-119.93 986.54,-100.05 989.48,-85.45"/>
<polygon fill="midnightblue" stroke="midnightblue" points="992.94,-85.97 991.14,-75.52 986.04,-84.81 992.94,-85.97"/>
</g>
<!-- Node39&#45;&gt;Node21 -->
<g id="edge57" class="edge">
<title>Node39&#45;&gt;Node21</title>
<path fill="none" stroke="midnightblue" d="M843.34,-168.46C879.79,-159.77 937.47,-145.67 987,-132 1050.16,-114.57 1123.03,-92.02 1165.66,-78.58"/>
<polygon fill="midnightblue" stroke="midnightblue" points="1166.83,-81.88 1175.31,-75.53 1164.72,-75.2 1166.83,-81.88"/>
</g>
<!-- Node39&#45;&gt;Node25 -->
<g id="edge55" class="edge">
<title>Node39&#45;&gt;Node25</title>
<path fill="none" stroke="midnightblue" d="M799.4,-168.08C792.77,-160.3 782.98,-148.8 774.94,-139.37"/>
<polygon fill="midnightblue" stroke="midnightblue" points="777.6,-137.09 768.45,-131.75 772.27,-141.63 777.6,-137.09"/>
</g>
<!-- Node39&#45;&gt;Node34 -->
<g id="edge61" class="edge">
<title>Node39&#45;&gt;Node34</title>
<path fill="none" stroke="midnightblue" d="M760.1,-168.44C699.7,-157.43 596.29,-138.56 543.73,-128.97"/>
<polygon fill="midnightblue" stroke="midnightblue" points="544.09,-125.48 533.62,-127.13 542.83,-132.37 544.09,-125.48"/>
</g>
<!-- Node40 -->
<g id="node40" class="node">
<title>Node40</title>
<g id="a_node40"><a xlink:title=" ">
<polygon fill="white" stroke="#bfbfbf" points="874.5,-112.5 874.5,-131.5 957.5,-131.5 957.5,-112.5 874.5,-112.5"/>
<text text-anchor="middle" x="916" y="-119.5" font-family="Helvetica,sans-Serif" font-size="10.00">initializer_list</text>
</a>
</g>
</g>
<!-- Node39&#45;&gt;Node40 -->
<g id="edge59" class="edge">
<title>Node39&#45;&gt;Node40</title>
<path fill="none" stroke="midnightblue" d="M824.51,-168.32C842.07,-159.62 869.33,-146.12 889.53,-136.11"/>
<polygon fill="midnightblue" stroke="midnightblue" points="891.12,-139.23 898.53,-131.65 888.02,-132.96 891.12,-139.23"/>
</g>
<!-- Node41&#45;&gt;Node4 -->
<g id="edge63" class="edge">
<title>Node41&#45;&gt;Node4</title>
<path fill="none" stroke="midnightblue" d="M1257.22,-224.22C1251.2,-210.94 1238.41,-185.45 1222,-168 1185.86,-129.57 1132.72,-97.55 1101.21,-80.44"/>
<polygon fill="midnightblue" stroke="midnightblue" points="1102.64,-77.24 1092.16,-75.62 1099.34,-83.41 1102.64,-77.24"/>
</g>
<!-- Node41&#45;&gt;Node6 -->
<g id="edge69" class="edge">
<title>Node41&#45;&gt;Node6</title>
<path fill="none" stroke="midnightblue" d="M1280.78,-224.42C1310.7,-210.2 1366.4,-178.61 1389,-132 1403.73,-101.61 1410.97,-81.66 1389,-56 1356.99,-18.62 1224.09,-28.72 1158.82,-19.71"/>
<polygon fill="midnightblue" stroke="midnightblue" points="1159.02,-16.2 1148.58,-18.02 1157.88,-23.11 1159.02,-16.2"/>
</g>
<!-- Node41&#45;&gt;Node7 -->
<g id="edge70" class="edge">
<title>Node41&#45;&gt;Node7</title>
<path fill="none" stroke="midnightblue" d="M1322.33,-228.37C1408.25,-221.27 1555.83,-206.51 1572,-188 1610.6,-143.82 1612.4,-99.47 1573,-56 1520.19,2.27 1303.51,-35.09 1209.06,-19.43"/>
<polygon fill="midnightblue" stroke="midnightblue" points="1209.72,-15.99 1199.23,-17.5 1208.37,-22.86 1209.72,-15.99"/>
</g>
<!-- Node41&#45;&gt;Node11 -->
<g id="edge64" class="edge">
<title>Node41&#45;&gt;Node11</title>
<path fill="none" stroke="midnightblue" d="M1199.94,-224.98C1196.92,-224.63 1193.92,-224.31 1191,-224 1092.55,-213.69 838.61,-225.5 747,-188 711.08,-173.3 697.51,-166.64 680,-132 672.75,-117.65 672.32,-99.19 673.37,-85.61"/>
<polygon fill="midnightblue" stroke="midnightblue" points="676.86,-85.87 674.48,-75.55 669.9,-85.1 676.86,-85.87"/>
</g>
<!-- Node41&#45;&gt;Node18 -->
<g id="edge66" class="edge">
<title>Node41&#45;&gt;Node18</title>
<path fill="none" stroke="midnightblue" d="M1267.65,-224.22C1274.31,-215.28 1284.75,-200.93 1293,-188 1303.02,-172.3 1313.42,-153.79 1320.64,-140.54"/>
<polygon fill="midnightblue" stroke="midnightblue" points="1323.81,-142.04 1325.48,-131.57 1317.65,-138.71 1323.81,-142.04"/>
</g>
<!-- Node41&#45;&gt;Node21 -->
<g id="edge67" class="edge">
<title>Node41&#45;&gt;Node21</title>
<path fill="none" stroke="midnightblue" d="M1261.17,-224.41C1261.2,-211.81 1260.45,-187.66 1255,-168 1246.22,-136.35 1226.57,-103.32 1213.82,-83.98"/>
<polygon fill="midnightblue" stroke="midnightblue" points="1216.69,-81.98 1208.19,-75.65 1210.89,-85.89 1216.69,-81.98"/>
</g>
<!-- Node41&#45;&gt;Node27 -->
<g id="edge71" class="edge">
<title>Node41&#45;&gt;Node27</title>
<path fill="none" stroke="midnightblue" d="M1199.82,-224.79C1108.54,-212.48 947.08,-190.4 945,-188 939.17,-181.29 939.98,-175.33 945,-168 972.27,-128.2 1065.48,-151.66 1038,-112 1028.98,-98.98 992.86,-86.52 962.59,-78.03"/>
<polygon fill="midnightblue" stroke="midnightblue" points="963.16,-74.56 952.59,-75.3 961.32,-81.31 963.16,-74.56"/>
</g>
<!-- Node41&#45;&gt;Node30 -->
<g id="edge68" class="edge">
<title>Node41&#45;&gt;Node30</title>
<path fill="none" stroke="midnightblue" d="M1199.99,-225.06C1106.47,-212.82 938.16,-190.48 936,-188 912.04,-160.49 991.49,-139.04 967,-112 914.7,-54.24 700.76,-88.02 605.84,-75.57"/>
<polygon fill="midnightblue" stroke="midnightblue" points="606.11,-72.07 595.68,-73.97 605.02,-78.98 606.11,-72.07"/>
</g>
<!-- Node41&#45;&gt;Node39 -->
<g id="edge65" class="edge">
<title>Node41&#45;&gt;Node39</title>
<path fill="none" stroke="midnightblue" d="M1199.92,-225.09C1196.91,-224.72 1193.92,-224.35 1191,-224 1049.79,-206.93 1014.14,-205.61 873,-188 871.53,-187.82 870.04,-187.63 868.54,-187.44"/>
<polygon fill="midnightblue" stroke="midnightblue" points="868.87,-183.95 858.51,-186.14 867.98,-190.89 868.87,-183.95"/>
</g>
<!-- Node42&#45;&gt;Node14 -->
<g id="edge73" class="edge">
<title>Node42&#45;&gt;Node14</title>
<path fill="none" stroke="midnightblue" d="M1126.57,-224.32C1137.42,-216.18 1153.88,-203.84 1166.88,-194.09"/>
<polygon fill="midnightblue" stroke="midnightblue" points="1169.32,-196.63 1175.22,-187.83 1165.12,-191.03 1169.32,-196.63"/>
</g>
<!-- Node43&#45;&gt;Node18 -->
<g id="edge75" class="edge">
<title>Node43&#45;&gt;Node18</title>
<path fill="none" stroke="midnightblue" d="M1450.34,-168.44C1426.6,-159.48 1389.09,-145.31 1362.26,-135.18"/>
<polygon fill="midnightblue" stroke="midnightblue" points="1363.14,-131.77 1352.55,-131.52 1360.67,-138.32 1363.14,-131.77"/>
</g>
</g>
</svg>
