<?xml version="1.0" encoding="UTF-8" standalone="no"?>
<!DOCTYPE svg PUBLIC "-//W3C//DTD SVG 1.1//EN"
 "http://www.w3.org/Graphics/SVG/1.1/DTD/svg11.dtd">
<!-- Generated by graphviz version 2.43.0 (0)
 -->
<!-- Title: src/backends/reference/workloads/Tile.hpp Pages: 1 -->
<svg width="1508pt" height="498pt"
 viewBox="0.00 0.00 1508.00 498.00" xmlns="http://www.w3.org/2000/svg" xmlns:xlink="http://www.w3.org/1999/xlink">
<g id="graph0" class="graph" transform="scale(1 1) rotate(0) translate(4 494)">
<title>src/backends/reference/workloads/Tile.hpp</title>
<polygon fill="white" stroke="transparent" points="-4,4 -4,-494 1504,-494 1504,4 -4,4"/>
<!-- Node1 -->
<g id="node1" class="node">
<title>Node1</title>
<g id="a_node1"><a xlink:title=" ">
<polygon fill="#bfbfbf" stroke="black" points="797.5,-459.5 797.5,-489.5 926.5,-489.5 926.5,-459.5 797.5,-459.5"/>
<text text-anchor="start" x="805.5" y="-477.5" font-family="Helvetica,sans-Serif" font-size="10.00">src/backends/reference</text>
<text text-anchor="middle" x="862" y="-466.5" font-family="Helvetica,sans-Serif" font-size="10.00">/workloads/Tile.hpp</text>
</a>
</g>
</g>
<!-- Node2 -->
<g id="node2" class="node">
<title>Node2</title>
<g id="a_node2"><a xlink:href="_tensor_8hpp.html" target="_top" xlink:title=" ">
<polygon fill="white" stroke="black" points="779.5,-168.5 779.5,-187.5 882.5,-187.5 882.5,-168.5 779.5,-168.5"/>
<text text-anchor="middle" x="831" y="-175.5" font-family="Helvetica,sans-Serif" font-size="10.00">armnn/Tensor.hpp</text>
</a>
</g>
</g>
<!-- Node1&#45;&gt;Node2 -->
<g id="edge1" class="edge">
<title>Node1&#45;&gt;Node2</title>
<path fill="none" stroke="midnightblue" d="M820.08,-459.42C778.51,-442.5 721,-409.74 721,-358 721,-358 721,-358 721,-294.5 721,-246.61 771.19,-210.72 803.77,-192.47"/>
<polygon fill="midnightblue" stroke="midnightblue" points="805.69,-195.41 812.84,-187.58 802.37,-189.24 805.69,-195.41"/>
</g>
<!-- Node24 -->
<g id="node24" class="node">
<title>Node24</title>
<g id="a_node24"><a xlink:href="_encoders_8hpp.html" target="_top" xlink:title=" ">
<polygon fill="white" stroke="black" points="771,-403.5 771,-422.5 853,-422.5 853,-403.5 771,-403.5"/>
<text text-anchor="middle" x="812" y="-410.5" font-family="Helvetica,sans-Serif" font-size="10.00">Encoders.hpp</text>
</a>
</g>
</g>
<!-- Node1&#45;&gt;Node24 -->
<g id="edge29" class="edge">
<title>Node1&#45;&gt;Node24</title>
<path fill="none" stroke="midnightblue" d="M850.15,-459.4C842.89,-450.75 833.55,-439.64 825.93,-430.58"/>
<polygon fill="midnightblue" stroke="midnightblue" points="828.39,-428.06 819.28,-422.66 823.03,-432.57 828.39,-428.06"/>
</g>
<!-- Node39 -->
<g id="node39" class="node">
<title>Node39</title>
<g id="a_node39"><a xlink:href="_decoders_8hpp.html" target="_top" xlink:title=" ">
<polygon fill="white" stroke="black" points="871.5,-403.5 871.5,-422.5 954.5,-422.5 954.5,-403.5 871.5,-403.5"/>
<text text-anchor="middle" x="913" y="-410.5" font-family="Helvetica,sans-Serif" font-size="10.00">Decoders.hpp</text>
</a>
</g>
</g>
<!-- Node1&#45;&gt;Node39 -->
<g id="edge67" class="edge">
<title>Node1&#45;&gt;Node39</title>
<path fill="none" stroke="midnightblue" d="M874.09,-459.4C881.57,-450.66 891.22,-439.41 899.03,-430.3"/>
<polygon fill="midnightblue" stroke="midnightblue" points="901.73,-432.53 905.58,-422.66 896.41,-427.97 901.73,-432.53"/>
</g>
<!-- Node40 -->
<g id="node40" class="node">
<title>Node40</title>
<g id="a_node40"><a xlink:href="_descriptors_8hpp.html" target="_top" xlink:title=" ">
<polygon fill="white" stroke="black" points="1119,-224.5 1119,-243.5 1247,-243.5 1247,-224.5 1119,-224.5"/>
<text text-anchor="middle" x="1183" y="-231.5" font-family="Helvetica,sans-Serif" font-size="10.00">armnn/Descriptors.hpp</text>
</a>
</g>
</g>
<!-- Node1&#45;&gt;Node40 -->
<g id="edge71" class="edge">
<title>Node1&#45;&gt;Node40</title>
<path fill="none" stroke="midnightblue" d="M896.89,-459.33C952.33,-435.45 1061.55,-382.69 1133,-311 1150.36,-293.58 1165.1,-269.24 1173.98,-252.84"/>
<polygon fill="midnightblue" stroke="midnightblue" points="1177.18,-254.27 1178.73,-243.79 1170.98,-251.02 1177.18,-254.27"/>
</g>
<!-- Node3 -->
<g id="node3" class="node">
<title>Node3</title>
<g id="a_node3"><a xlink:href="_exceptions_8hpp.html" target="_top" xlink:title=" ">
<polygon fill="white" stroke="black" points="701.5,-56.5 701.5,-75.5 792.5,-75.5 792.5,-56.5 701.5,-56.5"/>
<text text-anchor="middle" x="747" y="-63.5" font-family="Helvetica,sans-Serif" font-size="10.00">Exceptions.hpp</text>
</a>
</g>
</g>
<!-- Node2&#45;&gt;Node3 -->
<g id="edge2" class="edge">
<title>Node2&#45;&gt;Node3</title>
<path fill="none" stroke="midnightblue" d="M817.86,-168.28C806.21,-160.02 789.34,-146.73 778,-132 767.05,-117.77 758.63,-99.05 753.35,-85.36"/>
<polygon fill="midnightblue" stroke="midnightblue" points="756.51,-83.83 749.79,-75.63 749.94,-86.23 756.51,-83.83"/>
</g>
<!-- Node7 -->
<g id="node7" class="node">
<title>Node7</title>
<g id="a_node7"><a xlink:href="_optional_8hpp.html" target="_top" xlink:title=" ">
<polygon fill="white" stroke="black" points="574.5,-112.5 574.5,-131.5 653.5,-131.5 653.5,-112.5 574.5,-112.5"/>
<text text-anchor="middle" x="614" y="-119.5" font-family="Helvetica,sans-Serif" font-size="10.00">Optional.hpp</text>
</a>
</g>
</g>
<!-- Node2&#45;&gt;Node7 -->
<g id="edge6" class="edge">
<title>Node2&#45;&gt;Node7</title>
<path fill="none" stroke="midnightblue" d="M796.62,-168.44C759.08,-159.1 698.87,-144.12 657.93,-133.93"/>
<polygon fill="midnightblue" stroke="midnightblue" points="658.77,-130.53 648.22,-131.52 657.08,-137.33 658.77,-130.53"/>
</g>
<!-- Node10 -->
<g id="node10" class="node">
<title>Node10</title>
<g id="a_node10"><a xlink:href="_types_8hpp.html" target="_top" xlink:title=" ">
<polygon fill="white" stroke="black" points="887.5,-112.5 887.5,-131.5 952.5,-131.5 952.5,-112.5 887.5,-112.5"/>
<text text-anchor="middle" x="920" y="-119.5" font-family="Helvetica,sans-Serif" font-size="10.00">Types.hpp</text>
</a>
</g>
</g>
<!-- Node2&#45;&gt;Node10 -->
<g id="edge10" class="edge">
<title>Node2&#45;&gt;Node10</title>
<path fill="none" stroke="midnightblue" d="M845.3,-168.32C859.18,-159.9 880.49,-146.97 896.8,-137.07"/>
<polygon fill="midnightblue" stroke="midnightblue" points="899,-139.83 905.74,-131.65 895.37,-133.85 899,-139.83"/>
</g>
<!-- Node11 -->
<g id="node11" class="node">
<title>Node11</title>
<g id="a_node11"><a xlink:title=" ">
<polygon fill="white" stroke="#bfbfbf" points="962,-56.5 962,-75.5 1004,-75.5 1004,-56.5 962,-56.5"/>
<text text-anchor="middle" x="983" y="-63.5" font-family="Helvetica,sans-Serif" font-size="10.00">array</text>
</a>
</g>
</g>
<!-- Node2&#45;&gt;Node11 -->
<g id="edge25" class="edge">
<title>Node2&#45;&gt;Node11</title>
<path fill="none" stroke="midnightblue" d="M882.58,-170.49C909.47,-164.59 941.03,-153.36 962,-132 974.06,-119.71 979.2,-100.46 981.38,-86.09"/>
<polygon fill="midnightblue" stroke="midnightblue" points="984.9,-86.18 982.58,-75.84 977.94,-85.36 984.9,-86.18"/>
</g>
<!-- Node13 -->
<g id="node13" class="node">
<title>Node13</title>
<g id="a_node13"><a xlink:title=" ">
<polygon fill="white" stroke="#bfbfbf" points="523.5,-56.5 523.5,-75.5 576.5,-75.5 576.5,-56.5 523.5,-56.5"/>
<text text-anchor="middle" x="550" y="-63.5" font-family="Helvetica,sans-Serif" font-size="10.00">stdint.h</text>
</a>
</g>
</g>
<!-- Node2&#45;&gt;Node13 -->
<g id="edge24" class="edge">
<title>Node2&#45;&gt;Node13</title>
<path fill="none" stroke="midnightblue" d="M808.95,-168.37C759.4,-148.97 639.08,-101.87 581.59,-79.37"/>
<polygon fill="midnightblue" stroke="midnightblue" points="582.53,-75.98 571.95,-75.59 579.98,-82.5 582.53,-75.98"/>
</g>
<!-- Node20 -->
<g id="node20" class="node">
<title>Node20</title>
<g id="a_node20"><a xlink:title=" ">
<polygon fill="white" stroke="#bfbfbf" points="1206.5,-0.5 1206.5,-19.5 1253.5,-19.5 1253.5,-0.5 1206.5,-0.5"/>
<text text-anchor="middle" x="1230" y="-7.5" font-family="Helvetica,sans-Serif" font-size="10.00">vector</text>
</a>
</g>
</g>
<!-- Node2&#45;&gt;Node20 -->
<g id="edge27" class="edge">
<title>Node2&#45;&gt;Node20</title>
<path fill="none" stroke="midnightblue" d="M865.23,-168.4C921.29,-153.64 1035.41,-120.68 1125,-76 1155.58,-60.75 1188.79,-39.29 1209.5,-25.26"/>
<polygon fill="midnightblue" stroke="midnightblue" points="1211.54,-28.11 1217.82,-19.57 1207.59,-22.33 1211.54,-28.11"/>
</g>
<!-- Node22 -->
<g id="node22" class="node">
<title>Node22</title>
<g id="a_node22"><a xlink:title=" ">
<polygon fill="white" stroke="#bfbfbf" points="786.5,-112.5 786.5,-131.5 869.5,-131.5 869.5,-112.5 786.5,-112.5"/>
<text text-anchor="middle" x="828" y="-119.5" font-family="Helvetica,sans-Serif" font-size="10.00">initializer_list</text>
</a>
</g>
</g>
<!-- Node2&#45;&gt;Node22 -->
<g id="edge26" class="edge">
<title>Node2&#45;&gt;Node22</title>
<path fill="none" stroke="midnightblue" d="M830.5,-168.08C830.11,-161.01 829.55,-150.86 829.05,-141.99"/>
<polygon fill="midnightblue" stroke="midnightblue" points="832.54,-141.54 828.49,-131.75 825.55,-141.93 832.54,-141.54"/>
</g>
<!-- Node23 -->
<g id="node23" class="node">
<title>Node23</title>
<g id="a_node23"><a xlink:title=" ">
<polygon fill="white" stroke="#bfbfbf" points="1085.5,-112.5 1085.5,-131.5 1130.5,-131.5 1130.5,-112.5 1085.5,-112.5"/>
<text text-anchor="middle" x="1108" y="-119.5" font-family="Helvetica,sans-Serif" font-size="10.00">utility</text>
</a>
</g>
</g>
<!-- Node2&#45;&gt;Node23 -->
<g id="edge28" class="edge">
<title>Node2&#45;&gt;Node23</title>
<path fill="none" stroke="midnightblue" d="M874.89,-168.44C930.72,-157.56 1025.84,-139.02 1075.55,-129.33"/>
<polygon fill="midnightblue" stroke="midnightblue" points="1076.3,-132.75 1085.44,-127.4 1074.96,-125.88 1076.3,-132.75"/>
</g>
<!-- Node4 -->
<g id="node4" class="node">
<title>Node4</title>
<g id="a_node4"><a xlink:title=" ">
<polygon fill="white" stroke="#bfbfbf" points="767,-0.5 767,-19.5 823,-19.5 823,-0.5 767,-0.5"/>
<text text-anchor="middle" x="795" y="-7.5" font-family="Helvetica,sans-Serif" font-size="10.00">sstream</text>
</a>
</g>
</g>
<!-- Node3&#45;&gt;Node4 -->
<g id="edge3" class="edge">
<title>Node3&#45;&gt;Node4</title>
<path fill="none" stroke="midnightblue" d="M754.93,-56.08C761.85,-48.3 772.07,-36.8 780.45,-27.37"/>
<polygon fill="midnightblue" stroke="midnightblue" points="783.19,-29.55 787.22,-19.75 777.96,-24.9 783.19,-29.55"/>
</g>
<!-- Node5 -->
<g id="node5" class="node">
<title>Node5</title>
<g id="a_node5"><a xlink:title=" ">
<polygon fill="white" stroke="#bfbfbf" points="841.5,-0.5 841.5,-19.5 906.5,-19.5 906.5,-0.5 841.5,-0.5"/>
<text text-anchor="middle" x="874" y="-7.5" font-family="Helvetica,sans-Serif" font-size="10.00">stdexcept</text>
</a>
</g>
</g>
<!-- Node3&#45;&gt;Node5 -->
<g id="edge4" class="edge">
<title>Node3&#45;&gt;Node5</title>
<path fill="none" stroke="midnightblue" d="M767.12,-56.44C788.02,-47.56 820.93,-33.56 844.72,-23.45"/>
<polygon fill="midnightblue" stroke="midnightblue" points="846.14,-26.65 853.97,-19.52 843.4,-20.21 846.14,-26.65"/>
</g>
<!-- Node6 -->
<g id="node6" class="node">
<title>Node6</title>
<g id="a_node6"><a xlink:title=" ">
<polygon fill="white" stroke="#bfbfbf" points="705,-0.5 705,-19.5 749,-19.5 749,-0.5 705,-0.5"/>
<text text-anchor="middle" x="727" y="-7.5" font-family="Helvetica,sans-Serif" font-size="10.00">string</text>
</a>
</g>
</g>
<!-- Node3&#45;&gt;Node6 -->
<g id="edge5" class="edge">
<title>Node3&#45;&gt;Node6</title>
<path fill="none" stroke="midnightblue" d="M743.7,-56.08C741.02,-48.85 737.15,-38.41 733.81,-29.4"/>
<polygon fill="midnightblue" stroke="midnightblue" points="737,-27.91 730.24,-19.75 730.43,-30.34 737,-27.91"/>
</g>
<!-- Node7&#45;&gt;Node3 -->
<g id="edge7" class="edge">
<title>Node7&#45;&gt;Node3</title>
<path fill="none" stroke="midnightblue" d="M635.07,-112.44C657.06,-103.52 691.73,-89.44 716.66,-79.32"/>
<polygon fill="midnightblue" stroke="midnightblue" points="718.08,-82.52 726.02,-75.52 715.44,-76.04 718.08,-82.52"/>
</g>
<!-- Node8 -->
<g id="node8" class="node">
<title>Node8</title>
<g id="a_node8"><a xlink:title=" ">
<polygon fill="white" stroke="#bfbfbf" points="417,-56.5 417,-75.5 467,-75.5 467,-56.5 417,-56.5"/>
<text text-anchor="middle" x="442" y="-63.5" font-family="Helvetica,sans-Serif" font-size="10.00">cstring</text>
</a>
</g>
</g>
<!-- Node7&#45;&gt;Node8 -->
<g id="edge8" class="edge">
<title>Node7&#45;&gt;Node8</title>
<path fill="none" stroke="midnightblue" d="M586.75,-112.44C557.09,-103.13 509.57,-88.21 477.13,-78.03"/>
<polygon fill="midnightblue" stroke="midnightblue" points="477.76,-74.56 467.17,-74.9 475.66,-81.24 477.76,-74.56"/>
</g>
<!-- Node9 -->
<g id="node9" class="node">
<title>Node9</title>
<g id="a_node9"><a xlink:title=" ">
<polygon fill="white" stroke="#bfbfbf" points="131.5,-56.5 131.5,-75.5 200.5,-75.5 200.5,-56.5 131.5,-56.5"/>
<text text-anchor="middle" x="166" y="-63.5" font-family="Helvetica,sans-Serif" font-size="10.00">type_traits</text>
</a>
</g>
</g>
<!-- Node7&#45;&gt;Node9 -->
<g id="edge9" class="edge">
<title>Node7&#45;&gt;Node9</title>
<path fill="none" stroke="midnightblue" d="M574.45,-117.87C503.49,-111.98 349.69,-97.98 210.66,-76.14"/>
<polygon fill="midnightblue" stroke="midnightblue" points="211.11,-72.67 200.68,-74.56 210.01,-79.58 211.11,-72.67"/>
</g>
<!-- Node10&#45;&gt;Node3 -->
<g id="edge22" class="edge">
<title>Node10&#45;&gt;Node3</title>
<path fill="none" stroke="midnightblue" d="M892.59,-112.44C863.23,-103.28 816.48,-88.69 783.9,-78.52"/>
<polygon fill="midnightblue" stroke="midnightblue" points="784.87,-75.16 774.28,-75.52 782.79,-81.84 784.87,-75.16"/>
</g>
<!-- Node10&#45;&gt;Node11 -->
<g id="edge11" class="edge">
<title>Node10&#45;&gt;Node11</title>
<path fill="none" stroke="midnightblue" d="M930.12,-112.32C939.53,-104.26 953.74,-92.08 965.07,-82.37"/>
<polygon fill="midnightblue" stroke="midnightblue" points="967.38,-85 972.69,-75.83 962.82,-79.68 967.38,-85"/>
</g>
<!-- Node12 -->
<g id="node12" class="node">
<title>Node12</title>
<g id="a_node12"><a xlink:title=" ">
<polygon fill="white" stroke="#bfbfbf" points="810.5,-56.5 810.5,-75.5 875.5,-75.5 875.5,-56.5 810.5,-56.5"/>
<text text-anchor="middle" x="843" y="-63.5" font-family="Helvetica,sans-Serif" font-size="10.00">functional</text>
</a>
</g>
</g>
<!-- Node10&#45;&gt;Node12 -->
<g id="edge12" class="edge">
<title>Node10&#45;&gt;Node12</title>
<path fill="none" stroke="midnightblue" d="M907.63,-112.32C895.84,-104.06 877.87,-91.45 863.86,-81.63"/>
<polygon fill="midnightblue" stroke="midnightblue" points="865.54,-78.53 855.34,-75.65 861.52,-84.26 865.54,-78.53"/>
</g>
<!-- Node10&#45;&gt;Node13 -->
<g id="edge13" class="edge">
<title>Node10&#45;&gt;Node13</title>
<path fill="none" stroke="midnightblue" d="M887.38,-113.55C884.55,-112.99 881.73,-112.47 879,-112 752.83,-90.45 716.75,-99.48 586.61,-75.89"/>
<polygon fill="midnightblue" stroke="midnightblue" points="587.13,-72.42 576.66,-74.05 585.86,-79.31 587.13,-72.42"/>
</g>
<!-- Node14 -->
<g id="node14" class="node">
<title>Node14</title>
<g id="a_node14"><a xlink:title=" ">
<polygon fill="white" stroke="#bfbfbf" points="894,-56.5 894,-75.5 944,-75.5 944,-56.5 894,-56.5"/>
<text text-anchor="middle" x="919" y="-63.5" font-family="Helvetica,sans-Serif" font-size="10.00">chrono</text>
</a>
</g>
</g>
<!-- Node10&#45;&gt;Node14 -->
<g id="edge14" class="edge">
<title>Node10&#45;&gt;Node14</title>
<path fill="none" stroke="midnightblue" d="M919.83,-112.08C919.7,-105.01 919.52,-94.86 919.35,-85.99"/>
<polygon fill="midnightblue" stroke="midnightblue" points="922.85,-85.68 919.16,-75.75 915.85,-85.81 922.85,-85.68"/>
</g>
<!-- Node15 -->
<g id="node15" class="node">
<title>Node15</title>
<g id="a_node15"><a xlink:href="_backend_id_8hpp.html" target="_top" xlink:title=" ">
<polygon fill="white" stroke="black" points="595,-56.5 595,-75.5 683,-75.5 683,-56.5 595,-56.5"/>
<text text-anchor="middle" x="639" y="-63.5" font-family="Helvetica,sans-Serif" font-size="10.00">BackendId.hpp</text>
</a>
</g>
</g>
<!-- Node10&#45;&gt;Node15 -->
<g id="edge15" class="edge">
<title>Node10&#45;&gt;Node15</title>
<path fill="none" stroke="midnightblue" d="M887.35,-113.74C884.53,-113.14 881.71,-112.55 879,-112 815.4,-99.06 742.02,-85.5 693.32,-76.69"/>
<polygon fill="midnightblue" stroke="midnightblue" points="693.78,-73.22 683.31,-74.89 692.53,-80.11 693.78,-73.22"/>
</g>
<!-- Node21 -->
<g id="node21" class="node">
<title>Node21</title>
<g id="a_node21"><a xlink:href="_deprecated_8hpp.html" target="_top" xlink:title=" ">
<polygon fill="white" stroke="black" points="1022,-56.5 1022,-75.5 1116,-75.5 1116,-56.5 1022,-56.5"/>
<text text-anchor="middle" x="1069" y="-63.5" font-family="Helvetica,sans-Serif" font-size="10.00">Deprecated.hpp</text>
</a>
</g>
</g>
<!-- Node10&#45;&gt;Node21 -->
<g id="edge23" class="edge">
<title>Node10&#45;&gt;Node21</title>
<path fill="none" stroke="midnightblue" d="M943.61,-112.44C968.46,-103.44 1007.77,-89.19 1035.75,-79.05"/>
<polygon fill="midnightblue" stroke="midnightblue" points="1037.29,-82.21 1045.5,-75.52 1034.91,-75.63 1037.29,-82.21"/>
</g>
<!-- Node15&#45;&gt;Node6 -->
<g id="edge19" class="edge">
<title>Node15&#45;&gt;Node6</title>
<path fill="none" stroke="midnightblue" d="M653.14,-56.32C666.87,-47.9 687.94,-34.97 704.06,-25.07"/>
<polygon fill="midnightblue" stroke="midnightblue" points="706.2,-27.87 712.9,-19.65 702.54,-21.9 706.2,-27.87"/>
</g>
<!-- Node16 -->
<g id="node16" class="node">
<title>Node16</title>
<g id="a_node16"><a xlink:title=" ">
<polygon fill="white" stroke="#bfbfbf" points="525,-0.5 525,-19.5 583,-19.5 583,-0.5 525,-0.5"/>
<text text-anchor="middle" x="554" y="-7.5" font-family="Helvetica,sans-Serif" font-size="10.00">memory</text>
</a>
</g>
</g>
<!-- Node15&#45;&gt;Node16 -->
<g id="edge16" class="edge">
<title>Node15&#45;&gt;Node16</title>
<path fill="none" stroke="midnightblue" d="M625.34,-56.32C612.08,-47.9 591.73,-34.97 576.15,-25.07"/>
<polygon fill="midnightblue" stroke="midnightblue" points="577.94,-22.06 567.62,-19.65 574.19,-27.97 577.94,-22.06"/>
</g>
<!-- Node17 -->
<g id="node17" class="node">
<title>Node17</title>
<g id="a_node17"><a xlink:title=" ">
<polygon fill="white" stroke="#bfbfbf" points="360.5,-0.5 360.5,-19.5 417.5,-19.5 417.5,-0.5 360.5,-0.5"/>
<text text-anchor="middle" x="389" y="-7.5" font-family="Helvetica,sans-Serif" font-size="10.00">ostream</text>
</a>
</g>
</g>
<!-- Node15&#45;&gt;Node17 -->
<g id="edge17" class="edge">
<title>Node15&#45;&gt;Node17</title>
<path fill="none" stroke="midnightblue" d="M599.39,-56.44C552.28,-46.27 474.19,-29.4 427.56,-19.33"/>
<polygon fill="midnightblue" stroke="midnightblue" points="428.05,-15.86 417.54,-17.16 426.58,-22.7 428.05,-15.86"/>
</g>
<!-- Node18 -->
<g id="node18" class="node">
<title>Node18</title>
<g id="a_node18"><a xlink:title=" ">
<polygon fill="white" stroke="#bfbfbf" points="475,-0.5 475,-19.5 507,-19.5 507,-0.5 475,-0.5"/>
<text text-anchor="middle" x="491" y="-7.5" font-family="Helvetica,sans-Serif" font-size="10.00">set</text>
</a>
</g>
</g>
<!-- Node15&#45;&gt;Node18 -->
<g id="edge18" class="edge">
<title>Node15&#45;&gt;Node18</title>
<path fill="none" stroke="midnightblue" d="M615.55,-56.44C588.54,-46.59 544.34,-30.46 516.5,-20.3"/>
<polygon fill="midnightblue" stroke="midnightblue" points="517.64,-16.99 507.04,-16.85 515.24,-23.57 517.64,-16.99"/>
</g>
<!-- Node19 -->
<g id="node19" class="node">
<title>Node19</title>
<g id="a_node19"><a xlink:title=" ">
<polygon fill="white" stroke="#bfbfbf" points="601,-0.5 601,-19.5 687,-19.5 687,-0.5 601,-0.5"/>
<text text-anchor="middle" x="644" y="-7.5" font-family="Helvetica,sans-Serif" font-size="10.00">unordered_set</text>
</a>
</g>
</g>
<!-- Node15&#45;&gt;Node19 -->
<g id="edge20" class="edge">
<title>Node15&#45;&gt;Node19</title>
<path fill="none" stroke="midnightblue" d="M639.83,-56.08C640.48,-49.01 641.42,-38.86 642.24,-29.99"/>
<polygon fill="midnightblue" stroke="midnightblue" points="645.75,-30.03 643.19,-19.75 638.78,-29.39 645.75,-30.03"/>
</g>
<!-- Node15&#45;&gt;Node20 -->
<g id="edge21" class="edge">
<title>Node15&#45;&gt;Node20</title>
<path fill="none" stroke="midnightblue" d="M683.2,-57.21C686.18,-56.77 689.13,-56.36 692,-56 881.94,-31.97 1111.29,-17.64 1196.23,-12.83"/>
<polygon fill="midnightblue" stroke="midnightblue" points="1196.54,-16.32 1206.33,-12.26 1196.15,-9.33 1196.54,-16.32"/>
</g>
<!-- Node25 -->
<g id="node25" class="node">
<title>Node25</title>
<g id="a_node25"><a xlink:href="_base_iterator_8hpp.html" target="_top" xlink:title=" ">
<polygon fill="white" stroke="black" points="749.5,-347.5 749.5,-366.5 846.5,-366.5 846.5,-347.5 749.5,-347.5"/>
<text text-anchor="middle" x="798" y="-354.5" font-family="Helvetica,sans-Serif" font-size="10.00">BaseIterator.hpp</text>
</a>
</g>
</g>
<!-- Node24&#45;&gt;Node25 -->
<g id="edge30" class="edge">
<title>Node24&#45;&gt;Node25</title>
<path fill="none" stroke="midnightblue" d="M809.69,-403.08C807.83,-395.93 805.16,-385.64 802.85,-376.69"/>
<polygon fill="midnightblue" stroke="midnightblue" points="806.17,-375.55 800.27,-366.75 799.39,-377.31 806.17,-375.55"/>
</g>
<!-- Node34 -->
<g id="node34" class="node">
<title>Node34</title>
<g id="a_node34"><a xlink:href="_tensor_utils_8hpp.html" target="_top" xlink:title=" ">
<polygon fill="white" stroke="black" points="800.5,-286 800.5,-305 949.5,-305 949.5,-286 800.5,-286"/>
<text text-anchor="middle" x="875" y="-293" font-family="Helvetica,sans-Serif" font-size="10.00">armnnUtils/TensorUtils.hpp</text>
</a>
</g>
</g>
<!-- Node24&#45;&gt;Node34 -->
<g id="edge66" class="edge">
<title>Node24&#45;&gt;Node34</title>
<path fill="none" stroke="midnightblue" d="M823.42,-403.22C833.43,-394.93 847.66,-381.61 856,-367 865.21,-350.86 870.11,-330.08 872.6,-315.27"/>
<polygon fill="midnightblue" stroke="midnightblue" points="876.08,-315.69 874.08,-305.29 869.16,-314.67 876.08,-315.69"/>
</g>
<!-- Node26 -->
<g id="node26" class="node">
<title>Node26</title>
<g id="a_node26"><a xlink:href="_types_utils_8hpp.html" target="_top" xlink:title=" ">
<polygon fill="white" stroke="black" points="485,-224.5 485,-243.5 607,-243.5 607,-224.5 485,-224.5"/>
<text text-anchor="middle" x="546" y="-231.5" font-family="Helvetica,sans-Serif" font-size="10.00">armnn/TypesUtils.hpp</text>
</a>
</g>
</g>
<!-- Node25&#45;&gt;Node26 -->
<g id="edge31" class="edge">
<title>Node25&#45;&gt;Node26</title>
<path fill="none" stroke="midnightblue" d="M780.28,-347.49C736.92,-326.67 625.23,-273.04 573.3,-248.11"/>
<polygon fill="midnightblue" stroke="midnightblue" points="574.57,-244.83 564.04,-243.66 571.54,-251.14 574.57,-244.83"/>
</g>
<!-- Node28 -->
<g id="node28" class="node">
<title>Node28</title>
<g id="a_node28"><a xlink:href="_assert_8hpp.html" target="_top" xlink:title=" ">
<polygon fill="white" stroke="black" points="0,-224.5 0,-243.5 134,-243.5 134,-224.5 0,-224.5"/>
<text text-anchor="middle" x="67" y="-231.5" font-family="Helvetica,sans-Serif" font-size="10.00">armnn/utility/Assert.hpp</text>
</a>
</g>
</g>
<!-- Node25&#45;&gt;Node28 -->
<g id="edge41" class="edge">
<title>Node25&#45;&gt;Node28</title>
<path fill="none" stroke="midnightblue" d="M749.38,-355.44C601.67,-353.37 164.88,-344.46 111,-311 90.31,-298.15 78.31,-271.74 72.21,-253.7"/>
<polygon fill="midnightblue" stroke="midnightblue" points="75.5,-252.51 69.21,-243.98 68.81,-254.57 75.5,-252.51"/>
</g>
<!-- Node30 -->
<g id="node30" class="node">
<title>Node30</title>
<g id="a_node30"><a xlink:href="_numeric_cast_8hpp.html" target="_top" xlink:title=" ">
<polygon fill="white" stroke="black" points="120.5,-286 120.5,-305 287.5,-305 287.5,-286 120.5,-286"/>
<text text-anchor="middle" x="204" y="-293" font-family="Helvetica,sans-Serif" font-size="10.00">armnn/utility/NumericCast.hpp</text>
</a>
</g>
</g>
<!-- Node25&#45;&gt;Node30 -->
<g id="edge43" class="edge">
<title>Node25&#45;&gt;Node30</title>
<path fill="none" stroke="midnightblue" d="M749.39,-351.13C650.79,-341.25 425.78,-318.72 297.72,-305.89"/>
<polygon fill="midnightblue" stroke="midnightblue" points="297.83,-302.38 287.53,-304.87 297.13,-309.35 297.83,-302.38"/>
</g>
<!-- Node32 -->
<g id="node32" class="node">
<title>Node32</title>
<g id="a_node32"><a xlink:href="_floating_point_converter_8hpp.html" target="_top" xlink:title=" ">
<polygon fill="white" stroke="black" points="986,-280.5 986,-310.5 1124,-310.5 1124,-280.5 986,-280.5"/>
<text text-anchor="start" x="994" y="-298.5" font-family="Helvetica,sans-Serif" font-size="10.00">armnnUtils/FloatingPoint</text>
<text text-anchor="middle" x="1055" y="-287.5" font-family="Helvetica,sans-Serif" font-size="10.00">Converter.hpp</text>
</a>
</g>
</g>
<!-- Node25&#45;&gt;Node32 -->
<g id="edge47" class="edge">
<title>Node25&#45;&gt;Node32</title>
<path fill="none" stroke="midnightblue" d="M834.82,-347.48C873.78,-338.46 936.19,-324.01 984.63,-312.79"/>
<polygon fill="midnightblue" stroke="midnightblue" points="985.48,-316.19 994.43,-310.52 983.9,-309.37 985.48,-316.19"/>
</g>
<!-- Node25&#45;&gt;Node34 -->
<g id="edge49" class="edge">
<title>Node25&#45;&gt;Node34</title>
<path fill="none" stroke="midnightblue" d="M809.03,-347.48C821.27,-338.02 841.23,-322.6 855.99,-311.19"/>
<polygon fill="midnightblue" stroke="midnightblue" points="858.22,-313.89 863.99,-305.01 853.94,-308.35 858.22,-313.89"/>
</g>
<!-- Node35 -->
<g id="node35" class="node">
<title>Node35</title>
<g id="a_node35"><a xlink:href="_resolve_type_8hpp.html" target="_top" xlink:title=" ">
<polygon fill="white" stroke="black" points="342.5,-168.5 342.5,-187.5 441.5,-187.5 441.5,-168.5 342.5,-168.5"/>
<text text-anchor="middle" x="392" y="-175.5" font-family="Helvetica,sans-Serif" font-size="10.00">ResolveType.hpp</text>
</a>
</g>
</g>
<!-- Node25&#45;&gt;Node35 -->
<g id="edge56" class="edge">
<title>Node25&#45;&gt;Node35</title>
<path fill="none" stroke="midnightblue" d="M758.8,-347.46C696.06,-332.71 570.53,-298.67 476,-244 450.99,-229.54 425.13,-208.43 408.82,-194.23"/>
<polygon fill="midnightblue" stroke="midnightblue" points="411.03,-191.51 401.23,-187.5 406.39,-196.75 411.03,-191.51"/>
</g>
<!-- Node26&#45;&gt;Node2 -->
<g id="edge34" class="edge">
<title>Node26&#45;&gt;Node2</title>
<path fill="none" stroke="midnightblue" d="M591.16,-224.44C641.29,-214.94 722.22,-199.61 776.01,-189.42"/>
<polygon fill="midnightblue" stroke="midnightblue" points="776.88,-192.82 786.05,-187.52 775.58,-185.94 776.88,-192.82"/>
</g>
<!-- Node26&#45;&gt;Node3 -->
<g id="edge33" class="edge">
<title>Node26&#45;&gt;Node3</title>
<path fill="none" stroke="midnightblue" d="M556.52,-224.31C588.95,-197.53 687.63,-116.03 728.73,-82.09"/>
<polygon fill="midnightblue" stroke="midnightblue" points="731.1,-84.67 736.58,-75.61 726.64,-79.27 731.1,-84.67"/>
</g>
<!-- Node26&#45;&gt;Node9 -->
<g id="edge40" class="edge">
<title>Node26&#45;&gt;Node9</title>
<path fill="none" stroke="midnightblue" d="M484.69,-228.27C413.42,-219.84 295.78,-196.49 219,-132 202.35,-118.02 187.1,-98.24 177.27,-84.18"/>
<polygon fill="midnightblue" stroke="midnightblue" points="180.15,-82.19 171.64,-75.88 174.36,-86.12 180.15,-82.19"/>
</g>
<!-- Node26&#45;&gt;Node10 -->
<g id="edge35" class="edge">
<title>Node26&#45;&gt;Node10</title>
<path fill="none" stroke="midnightblue" d="M575.04,-224.46C641.67,-204.86 805.6,-156.65 880.96,-134.48"/>
<polygon fill="midnightblue" stroke="midnightblue" points="882.38,-137.71 890.98,-131.53 880.4,-131 882.38,-137.71"/>
</g>
<!-- Node26&#45;&gt;Node13 -->
<g id="edge36" class="edge">
<title>Node26&#45;&gt;Node13</title>
<path fill="none" stroke="midnightblue" d="M542.4,-224.22C538.94,-215.28 533.97,-200.94 532,-188 526.93,-154.61 525.61,-145.17 532,-112 533.79,-102.7 537.48,-92.89 541.06,-84.8"/>
<polygon fill="midnightblue" stroke="midnightblue" points="544.27,-86.2 545.38,-75.66 537.94,-83.21 544.27,-86.2"/>
</g>
<!-- Node26&#45;&gt;Node15 -->
<g id="edge32" class="edge">
<title>Node26&#45;&gt;Node15</title>
<path fill="none" stroke="midnightblue" d="M545.02,-224.2C543.11,-202.94 540.98,-147.87 565,-112 574.61,-97.65 590.49,-87.12 605.08,-79.87"/>
<polygon fill="midnightblue" stroke="midnightblue" points="606.79,-82.94 614.4,-75.57 603.86,-76.58 606.79,-82.94"/>
</g>
<!-- Node26&#45;&gt;Node17 -->
<g id="edge38" class="edge">
<title>Node26&#45;&gt;Node17</title>
<path fill="none" stroke="midnightblue" d="M484.85,-233.59C384,-230.68 187.45,-207.61 122,-76 118.04,-68.04 116.26,-62.79 122,-56 150.74,-22.01 283.06,-13.68 349.99,-11.65"/>
<polygon fill="midnightblue" stroke="midnightblue" points="350.25,-15.15 360.15,-11.38 350.06,-8.15 350.25,-15.15"/>
</g>
<!-- Node26&#45;&gt;Node18 -->
<g id="edge39" class="edge">
<title>Node26&#45;&gt;Node18</title>
<path fill="none" stroke="midnightblue" d="M541.41,-224.26C536.91,-215.36 530.13,-201.04 526,-188 508.23,-131.88 497.69,-62.78 493.34,-29.99"/>
<polygon fill="midnightblue" stroke="midnightblue" points="496.76,-29.12 492.01,-19.64 489.81,-30.01 496.76,-29.12"/>
</g>
<!-- Node27 -->
<g id="node27" class="node">
<title>Node27</title>
<g id="a_node27"><a xlink:title=" ">
<polygon fill="white" stroke="#bfbfbf" points="313.5,-56.5 313.5,-75.5 360.5,-75.5 360.5,-56.5 313.5,-56.5"/>
<text text-anchor="middle" x="337" y="-63.5" font-family="Helvetica,sans-Serif" font-size="10.00">cmath</text>
</a>
</g>
</g>
<!-- Node26&#45;&gt;Node27 -->
<g id="edge37" class="edge">
<title>Node26&#45;&gt;Node27</title>
<path fill="none" stroke="midnightblue" d="M484.79,-228.49C428.78,-222.94 351.83,-211.23 333,-188 309.26,-158.71 320.75,-111.06 329.76,-85.16"/>
<polygon fill="midnightblue" stroke="midnightblue" points="333.14,-86.1 333.36,-75.51 326.58,-83.66 333.14,-86.1"/>
</g>
<!-- Node29 -->
<g id="node29" class="node">
<title>Node29</title>
<g id="a_node29"><a xlink:title=" ">
<polygon fill="white" stroke="#bfbfbf" points="23,-168.5 23,-187.5 75,-187.5 75,-168.5 23,-168.5"/>
<text text-anchor="middle" x="49" y="-175.5" font-family="Helvetica,sans-Serif" font-size="10.00">cassert</text>
</a>
</g>
</g>
<!-- Node28&#45;&gt;Node29 -->
<g id="edge42" class="edge">
<title>Node28&#45;&gt;Node29</title>
<path fill="none" stroke="midnightblue" d="M64.03,-224.08C61.62,-216.85 58.14,-206.41 55.13,-197.4"/>
<polygon fill="midnightblue" stroke="midnightblue" points="58.4,-196.13 51.92,-187.75 51.76,-198.34 58.4,-196.13"/>
</g>
<!-- Node30&#45;&gt;Node9 -->
<g id="edge45" class="edge">
<title>Node30&#45;&gt;Node9</title>
<path fill="none" stroke="midnightblue" d="M198.97,-285.9C193.52,-276.11 185.05,-259.47 181,-244 166.33,-187.93 165.11,-118.8 165.51,-86"/>
<polygon fill="midnightblue" stroke="midnightblue" points="169.01,-85.71 165.7,-75.65 162.01,-85.58 169.01,-85.71"/>
</g>
<!-- Node30&#45;&gt;Node28 -->
<g id="edge44" class="edge">
<title>Node30&#45;&gt;Node28</title>
<path fill="none" stroke="midnightblue" d="M184.37,-285.98C161.18,-275.9 122.38,-259.05 95.79,-247.5"/>
<polygon fill="midnightblue" stroke="midnightblue" points="97.16,-244.28 86.59,-243.51 94.37,-250.7 97.16,-244.28"/>
</g>
<!-- Node31 -->
<g id="node31" class="node">
<title>Node31</title>
<g id="a_node31"><a xlink:title=" ">
<polygon fill="white" stroke="#bfbfbf" points="190,-224.5 190,-243.5 234,-243.5 234,-224.5 190,-224.5"/>
<text text-anchor="middle" x="212" y="-231.5" font-family="Helvetica,sans-Serif" font-size="10.00">limits</text>
</a>
</g>
</g>
<!-- Node30&#45;&gt;Node31 -->
<g id="edge46" class="edge">
<title>Node30&#45;&gt;Node31</title>
<path fill="none" stroke="midnightblue" d="M205.15,-285.98C206.27,-277.58 208.04,-264.48 209.49,-253.66"/>
<polygon fill="midnightblue" stroke="midnightblue" points="212.99,-253.89 210.86,-243.51 206.05,-252.95 212.99,-253.89"/>
</g>
<!-- Node33 -->
<g id="node33" class="node">
<title>Node33</title>
<g id="a_node33"><a xlink:title=" ">
<polygon fill="white" stroke="#bfbfbf" points="1047.5,-224.5 1047.5,-243.5 1100.5,-243.5 1100.5,-224.5 1047.5,-224.5"/>
<text text-anchor="middle" x="1074" y="-231.5" font-family="Helvetica,sans-Serif" font-size="10.00">cstddef</text>
</a>
</g>
</g>
<!-- Node32&#45;&gt;Node33 -->
<g id="edge48" class="edge">
<title>Node32&#45;&gt;Node33</title>
<path fill="none" stroke="midnightblue" d="M1059.5,-280.4C1062.09,-272.29 1065.38,-262.01 1068.16,-253.28"/>
<polygon fill="midnightblue" stroke="midnightblue" points="1071.53,-254.25 1071.24,-243.66 1064.86,-252.12 1071.53,-254.25"/>
</g>
<!-- Node34&#45;&gt;Node2 -->
<g id="edge51" class="edge">
<title>Node34&#45;&gt;Node2</title>
<path fill="none" stroke="midnightblue" d="M871.69,-285.82C864.56,-267.09 847.59,-222.55 837.97,-197.29"/>
<polygon fill="midnightblue" stroke="midnightblue" points="841.18,-195.88 834.35,-187.78 834.63,-198.37 841.18,-195.88"/>
</g>
<!-- Node34&#45;&gt;Node10 -->
<g id="edge52" class="edge">
<title>Node34&#45;&gt;Node10</title>
<path fill="none" stroke="midnightblue" d="M877.29,-285.76C884.31,-259.04 905.56,-178.02 915.18,-141.36"/>
<polygon fill="midnightblue" stroke="midnightblue" points="918.61,-142.08 917.76,-131.52 911.84,-140.3 918.61,-142.08"/>
</g>
<!-- Node34&#45;&gt;Node20 -->
<g id="edge55" class="edge">
<title>Node34&#45;&gt;Node20</title>
<path fill="none" stroke="midnightblue" d="M934.04,-285.97C948.12,-283.98 963.09,-281.89 977,-280 1094.3,-264.1 1500,-297.37 1500,-179 1500,-179 1500,-179 1500,-121 1500,-70.59 1336.52,-32.03 1263.97,-17.4"/>
<polygon fill="midnightblue" stroke="midnightblue" points="1264.45,-13.92 1253.96,-15.41 1263.09,-20.79 1264.45,-13.92"/>
</g>
<!-- Node34&#45;&gt;Node23 -->
<g id="edge54" class="edge">
<title>Node34&#45;&gt;Node23</title>
<path fill="none" stroke="midnightblue" d="M886.55,-286C923.82,-258.57 1041.15,-172.21 1088.19,-137.58"/>
<polygon fill="midnightblue" stroke="midnightblue" points="1090.4,-140.3 1096.38,-131.56 1086.25,-134.67 1090.4,-140.3"/>
</g>
<!-- Node34&#45;&gt;Node26 -->
<g id="edge50" class="edge">
<title>Node34&#45;&gt;Node26</title>
<path fill="none" stroke="midnightblue" d="M827.86,-285.98C768.5,-275.24 666.58,-256.81 602.92,-245.29"/>
<polygon fill="midnightblue" stroke="midnightblue" points="603.51,-241.84 593.05,-243.51 602.27,-248.73 603.51,-241.84"/>
</g>
<!-- Node34&#45;&gt;Node34 -->
<g id="edge53" class="edge">
<title>Node34&#45;&gt;Node34</title>
<path fill="none" stroke="midnightblue" d="M909.15,-305.03C937.69,-309.11 967.5,-305.93 967.5,-295.5 967.5,-286.29 944.26,-282.74 919.19,-284.83"/>
<polygon fill="midnightblue" stroke="midnightblue" points="918.7,-281.37 909.15,-285.97 919.48,-288.32 918.7,-281.37"/>
</g>
<!-- Node35&#45;&gt;Node10 -->
<g id="edge57" class="edge">
<title>Node35&#45;&gt;Node10</title>
<path fill="none" stroke="midnightblue" d="M441.68,-174.45C528.24,-169.56 712.46,-157.19 877.08,-132.13"/>
<polygon fill="midnightblue" stroke="midnightblue" points="878.05,-135.52 887.4,-130.54 876.98,-128.6 878.05,-135.52"/>
</g>
<!-- Node36 -->
<g id="node36" class="node">
<title>Node36</title>
<g id="a_node36"><a xlink:href="_b_float16_8hpp.html" target="_top" xlink:title=" ">
<polygon fill="white" stroke="black" points="351.5,-112.5 351.5,-131.5 432.5,-131.5 432.5,-112.5 351.5,-112.5"/>
<text text-anchor="middle" x="392" y="-119.5" font-family="Helvetica,sans-Serif" font-size="10.00">BFloat16.hpp</text>
</a>
</g>
</g>
<!-- Node35&#45;&gt;Node36 -->
<g id="edge58" class="edge">
<title>Node35&#45;&gt;Node36</title>
<path fill="none" stroke="midnightblue" d="M392,-168.08C392,-161.01 392,-150.86 392,-141.99"/>
<polygon fill="midnightblue" stroke="midnightblue" points="395.5,-141.75 392,-131.75 388.5,-141.75 395.5,-141.75"/>
</g>
<!-- Node37 -->
<g id="node37" class="node">
<title>Node37</title>
<g id="a_node37"><a xlink:href="_half_8hpp.html" target="_top" xlink:title=" ">
<polygon fill="white" stroke="black" points="228.5,-112.5 228.5,-131.5 285.5,-131.5 285.5,-112.5 228.5,-112.5"/>
<text text-anchor="middle" x="257" y="-119.5" font-family="Helvetica,sans-Serif" font-size="10.00">Half.hpp</text>
</a>
</g>
</g>
<!-- Node35&#45;&gt;Node37 -->
<g id="edge63" class="edge">
<title>Node35&#45;&gt;Node37</title>
<path fill="none" stroke="midnightblue" d="M370.61,-168.44C348.29,-159.52 313.1,-145.44 287.79,-135.32"/>
<polygon fill="midnightblue" stroke="midnightblue" points="288.88,-131.98 278.29,-131.52 286.28,-138.48 288.88,-131.98"/>
</g>
<!-- Node36&#45;&gt;Node8 -->
<g id="edge61" class="edge">
<title>Node36&#45;&gt;Node8</title>
<path fill="none" stroke="midnightblue" d="M400.26,-112.08C407.46,-104.3 418.11,-92.8 426.85,-83.37"/>
<polygon fill="midnightblue" stroke="midnightblue" points="429.67,-85.47 433.9,-75.75 424.53,-80.71 429.67,-85.47"/>
</g>
<!-- Node36&#45;&gt;Node13 -->
<g id="edge62" class="edge">
<title>Node36&#45;&gt;Node13</title>
<path fill="none" stroke="midnightblue" d="M417.04,-112.44C443.62,-103.36 485.81,-88.94 515.52,-78.78"/>
<polygon fill="midnightblue" stroke="midnightblue" points="516.75,-82.06 525.08,-75.52 514.49,-75.44 516.75,-82.06"/>
</g>
<!-- Node36&#45;&gt;Node17 -->
<g id="edge59" class="edge">
<title>Node36&#45;&gt;Node17</title>
<path fill="none" stroke="midnightblue" d="M391.76,-112.37C391.28,-94.62 390.16,-53.67 389.51,-29.6"/>
<polygon fill="midnightblue" stroke="midnightblue" points="393.01,-29.49 389.23,-19.59 386.01,-29.68 393.01,-29.49"/>
</g>
<!-- Node36&#45;&gt;Node27 -->
<g id="edge60" class="edge">
<title>Node36&#45;&gt;Node27</title>
<path fill="none" stroke="midnightblue" d="M382.92,-112.08C374.83,-104.14 362.8,-92.34 353.09,-82.8"/>
<polygon fill="midnightblue" stroke="midnightblue" points="355.5,-80.26 345.91,-75.75 350.6,-85.25 355.5,-80.26"/>
</g>
<!-- Node37&#45;&gt;Node9 -->
<g id="edge64" class="edge">
<title>Node37&#45;&gt;Node9</title>
<path fill="none" stroke="midnightblue" d="M242.38,-112.32C228.05,-103.82 205.99,-90.73 189.25,-80.8"/>
<polygon fill="midnightblue" stroke="midnightblue" points="190.97,-77.75 180.58,-75.65 187.4,-83.77 190.97,-77.75"/>
</g>
<!-- Node38 -->
<g id="node38" class="node">
<title>Node38</title>
<g id="a_node38"><a xlink:title=" ">
<polygon fill="white" stroke="#bfbfbf" points="218.5,-56.5 218.5,-75.5 295.5,-75.5 295.5,-56.5 218.5,-56.5"/>
<text text-anchor="middle" x="257" y="-63.5" font-family="Helvetica,sans-Serif" font-size="10.00">half/half.hpp</text>
</a>
</g>
</g>
<!-- Node37&#45;&gt;Node38 -->
<g id="edge65" class="edge">
<title>Node37&#45;&gt;Node38</title>
<path fill="none" stroke="midnightblue" d="M257,-112.08C257,-105.01 257,-94.86 257,-85.99"/>
<polygon fill="midnightblue" stroke="midnightblue" points="260.5,-85.75 257,-75.75 253.5,-85.75 260.5,-85.75"/>
</g>
<!-- Node39&#45;&gt;Node25 -->
<g id="edge68" class="edge">
<title>Node39&#45;&gt;Node25</title>
<path fill="none" stroke="midnightblue" d="M894.78,-403.44C876.1,-394.68 846.84,-380.94 825.38,-370.86"/>
<polygon fill="midnightblue" stroke="midnightblue" points="826.68,-367.6 816.14,-366.52 823.7,-373.93 826.68,-367.6"/>
</g>
<!-- Node39&#45;&gt;Node32 -->
<g id="edge69" class="edge">
<title>Node39&#45;&gt;Node32</title>
<path fill="none" stroke="midnightblue" d="M923.67,-403.32C946.05,-385.11 998.42,-342.52 1029.84,-316.96"/>
<polygon fill="midnightblue" stroke="midnightblue" points="1032.18,-319.57 1037.73,-310.55 1027.77,-314.14 1032.18,-319.57"/>
</g>
<!-- Node39&#45;&gt;Node34 -->
<g id="edge70" class="edge">
<title>Node39&#45;&gt;Node34</title>
<path fill="none" stroke="midnightblue" d="M910.14,-403.32C903.98,-384.59 889.33,-340.05 881.02,-314.79"/>
<polygon fill="midnightblue" stroke="midnightblue" points="884.34,-313.69 877.89,-305.28 877.69,-315.87 884.34,-313.69"/>
</g>
<!-- Node40&#45;&gt;Node2 -->
<g id="edge74" class="edge">
<title>Node40&#45;&gt;Node2</title>
<path fill="none" stroke="midnightblue" d="M1127.22,-224.44C1063.24,-214.63 958.65,-198.58 892.4,-188.42"/>
<polygon fill="midnightblue" stroke="midnightblue" points="892.92,-184.96 882.51,-186.9 891.86,-191.88 892.92,-184.96"/>
</g>
<!-- Node40&#45;&gt;Node3 -->
<g id="edge76" class="edge">
<title>Node40&#45;&gt;Node3</title>
<path fill="none" stroke="midnightblue" d="M1170.2,-224.2C1137.23,-201.96 1046.12,-143.05 962,-112 933.35,-101.42 856.38,-86.47 802.78,-76.75"/>
<polygon fill="midnightblue" stroke="midnightblue" points="803.18,-73.27 792.72,-74.94 801.94,-80.16 803.18,-73.27"/>
</g>
<!-- Node40&#45;&gt;Node10 -->
<g id="edge75" class="edge">
<title>Node40&#45;&gt;Node10</title>
<path fill="none" stroke="midnightblue" d="M1140.69,-224.46C1107.99,-217.05 1062.03,-204.86 1024,-188 992.77,-174.16 959.84,-152.14 939.6,-137.63"/>
<polygon fill="midnightblue" stroke="midnightblue" points="941.4,-134.6 931.25,-131.54 937.27,-140.26 941.4,-134.6"/>
</g>
<!-- Node40&#45;&gt;Node20 -->
<g id="edge80" class="edge">
<title>Node40&#45;&gt;Node20</title>
<path fill="none" stroke="midnightblue" d="M1245.42,-224.45C1267.33,-218.12 1289.76,-207.11 1303,-188 1340,-134.6 1277.96,-59.58 1246.54,-27.07"/>
<polygon fill="midnightblue" stroke="midnightblue" points="1248.81,-24.39 1239.29,-19.76 1243.84,-29.32 1248.81,-24.39"/>
</g>
<!-- Node40&#45;&gt;Node21 -->
<g id="edge72" class="edge">
<title>Node40&#45;&gt;Node21</title>
<path fill="none" stroke="midnightblue" d="M1180.75,-224.46C1174.18,-200 1154.6,-130.29 1140,-112 1129.1,-98.34 1112.85,-87.61 1098.66,-80.06"/>
<polygon fill="midnightblue" stroke="midnightblue" points="1100.21,-76.92 1089.7,-75.56 1097.06,-83.18 1100.21,-76.92"/>
</g>
<!-- Node40&#45;&gt;Node23 -->
<g id="edge79" class="edge">
<title>Node40&#45;&gt;Node23</title>
<path fill="none" stroke="midnightblue" d="M1172.28,-224.24C1162.41,-215.76 1147.86,-202.14 1138,-188 1127.79,-173.36 1119.6,-154.69 1114.37,-141.12"/>
<polygon fill="midnightblue" stroke="midnightblue" points="1117.57,-139.68 1110.83,-131.5 1111,-142.1 1117.57,-139.68"/>
</g>
<!-- Node41 -->
<g id="node41" class="node">
<title>Node41</title>
<g id="a_node41"><a xlink:href="_descriptors_fwd_8hpp.html" target="_top" xlink:title=" ">
<polygon fill="white" stroke="black" points="1180.5,-168.5 1180.5,-187.5 1293.5,-187.5 1293.5,-168.5 1180.5,-168.5"/>
<text text-anchor="middle" x="1237" y="-175.5" font-family="Helvetica,sans-Serif" font-size="10.00">DescriptorsFwd.hpp</text>
</a>
</g>
</g>
<!-- Node40&#45;&gt;Node41 -->
<g id="edge73" class="edge">
<title>Node40&#45;&gt;Node41</title>
<path fill="none" stroke="midnightblue" d="M1191.92,-224.08C1199.78,-216.22 1211.43,-204.57 1220.92,-195.08"/>
<polygon fill="midnightblue" stroke="midnightblue" points="1223.65,-197.3 1228.25,-187.75 1218.7,-192.35 1223.65,-197.3"/>
</g>
<!-- Node42 -->
<g id="node42" class="node">
<title>Node42</title>
<g id="a_node42"><a xlink:title=" ">
<polygon fill="white" stroke="#bfbfbf" points="1350,-168.5 1350,-187.5 1400,-187.5 1400,-168.5 1350,-168.5"/>
<text text-anchor="middle" x="1375" y="-175.5" font-family="Helvetica,sans-Serif" font-size="10.00">cstdint</text>
</a>
</g>
</g>
<!-- Node40&#45;&gt;Node42 -->
<g id="edge77" class="edge">
<title>Node40&#45;&gt;Node42</title>
<path fill="none" stroke="midnightblue" d="M1213.42,-224.44C1247.93,-214.74 1304.08,-198.95 1340.28,-188.77"/>
<polygon fill="midnightblue" stroke="midnightblue" points="1341.24,-192.13 1349.92,-186.05 1339.35,-185.39 1341.24,-192.13"/>
</g>
<!-- Node43 -->
<g id="node43" class="node">
<title>Node43</title>
<g id="a_node43"><a xlink:title=" ">
<polygon fill="white" stroke="#bfbfbf" points="1418.5,-168.5 1418.5,-187.5 1471.5,-187.5 1471.5,-168.5 1418.5,-168.5"/>
<text text-anchor="middle" x="1445" y="-175.5" font-family="Helvetica,sans-Serif" font-size="10.00">iterator</text>
</a>
</g>
</g>
<!-- Node40&#45;&gt;Node43 -->
<g id="edge78" class="edge">
<title>Node40&#45;&gt;Node43</title>
<path fill="none" stroke="midnightblue" d="M1229.45,-224.43C1273.09,-216.23 1340.45,-203.18 1408.29,-188.07"/>
<polygon fill="midnightblue" stroke="midnightblue" points="1409.31,-191.43 1418.3,-185.83 1407.77,-184.6 1409.31,-191.43"/>
</g>
</g>
</svg>
