<?xml version="1.0" encoding="UTF-8" standalone="no"?>
<!DOCTYPE svg PUBLIC "-//W3C//DTD SVG 1.1//EN"
 "http://www.w3.org/Graphics/SVG/1.1/DTD/svg11.dtd">
<!-- Generated by graphviz version 2.43.0 (0)
 -->
<!-- Title: OptimizeForConnection&lt; BaseType, ChildType, Wrapped &gt; Pages: 1 -->
<svg width="856pt" height="124pt"
 viewBox="0.00 0.00 856.00 124.16" xmlns="http://www.w3.org/2000/svg" xmlns:xlink="http://www.w3.org/1999/xlink">
<g id="graph0" class="graph" transform="scale(1 1) rotate(0) translate(4 120.16)">
<title>OptimizeForConnection&lt; BaseType, ChildType, Wrapped &gt;</title>
<polygon fill="white" stroke="transparent" points="-4,4 -4,-120.16 852,-120.16 852,4 -4,4"/>
<!-- Node1 -->
<g id="node1" class="node">
<title>Node1</title>
<g id="a_node1"><a xlink:title=" ">
<polygon fill="#bfbfbf" stroke="black" points="717,-51.5 717,-92.5 848,-92.5 848,-51.5 717,-51.5"/>
<text text-anchor="start" x="725" y="-80.5" font-family="Helvetica,sans-Serif" font-size="10.00">OptimizeForConnection</text>
<text text-anchor="start" x="725" y="-69.5" font-family="Helvetica,sans-Serif" font-size="10.00">&lt; BaseType, ChildType,</text>
<text text-anchor="middle" x="782.5" y="-58.5" font-family="Helvetica,sans-Serif" font-size="10.00"> Wrapped &gt;</text>
</a>
</g>
</g>
<!-- Node2 -->
<g id="node2" class="node">
<title>Node2</title>
<g id="a_node2"><a xlink:href="classarmnn_1_1_optimize_for_type_impl.html" target="_top" xlink:title=" ">
<polygon fill="white" stroke="black" points="486,-46 486,-98 680,-98 680,-46 486,-46"/>
<text text-anchor="start" x="494" y="-86" font-family="Helvetica,sans-Serif" font-size="10.00">OptimizeForTypeImpl</text>
<text text-anchor="start" x="494" y="-75" font-family="Helvetica,sans-Serif" font-size="10.00">&lt; BaseType, OptimizeForConnection</text>
<text text-anchor="start" x="494" y="-64" font-family="Helvetica,sans-Serif" font-size="10.00">Impl&lt; BaseType, ChildType,</text>
<text text-anchor="middle" x="583" y="-53" font-family="Helvetica,sans-Serif" font-size="10.00"> Wrapped &gt; &gt;</text>
</a>
</g>
</g>
<!-- Node2&#45;&gt;Node1 -->
<g id="edge1" class="edge">
<title>Node2&#45;&gt;Node1</title>
<path fill="none" stroke="midnightblue" d="M690.36,-72C699.39,-72 708.34,-72 716.89,-72"/>
<polygon fill="midnightblue" stroke="midnightblue" points="690.15,-68.5 680.15,-72 690.15,-75.5 690.15,-68.5"/>
</g>
<!-- Node3 -->
<g id="node3" class="node">
<title>Node3</title>
<g id="a_node3"><a xlink:href="classarmnn_1_1_optimization.html" target="_top" xlink:title=" ">
<polygon fill="white" stroke="black" points="0,-84.5 0,-103.5 80,-103.5 80,-84.5 0,-84.5"/>
<text text-anchor="middle" x="40" y="-91.5" font-family="Helvetica,sans-Serif" font-size="10.00">Optimization</text>
</a>
</g>
</g>
<!-- Node3&#45;&gt;Node2 -->
<g id="edge2" class="edge">
<title>Node3&#45;&gt;Node2</title>
<path fill="none" stroke="midnightblue" d="M90.37,-100.88C170.22,-110.77 332.45,-125.78 468,-106 480.36,-104.2 493.25,-101.34 505.72,-98.04"/>
<polygon fill="midnightblue" stroke="midnightblue" points="90.48,-97.36 80.12,-99.58 89.6,-104.31 90.48,-97.36"/>
</g>
<!-- Node6 -->
<g id="node6" class="node">
<title>Node6</title>
<g id="a_node6"><a xlink:href="classarmnn_1_1_optimize_for_type_impl.html" target="_top" xlink:title="Wrapper Optimization base class that calls Wrapped::Run() for every layer of type BaseType.">
<polygon fill="white" stroke="black" points="125.5,-61 125.5,-91 260.5,-91 260.5,-61 125.5,-61"/>
<text text-anchor="start" x="133.5" y="-79" font-family="Helvetica,sans-Serif" font-size="10.00">OptimizeForTypeImpl</text>
<text text-anchor="middle" x="193" y="-68" font-family="Helvetica,sans-Serif" font-size="10.00">&lt; BaseType, Wrapped &gt;</text>
</a>
</g>
</g>
<!-- Node3&#45;&gt;Node6 -->
<g id="edge6" class="edge">
<title>Node3&#45;&gt;Node6</title>
<path fill="none" stroke="midnightblue" d="M90.3,-88.12C101.52,-86.79 113.62,-85.34 125.43,-83.94"/>
<polygon fill="midnightblue" stroke="midnightblue" points="89.79,-84.66 80.28,-89.32 90.62,-91.61 89.79,-84.66"/>
</g>
<!-- Node4 -->
<g id="node4" class="node">
<title>Node4</title>
<g id="a_node4"><a xlink:href="classarmnn_1_1_optimize_for_connection_impl.html" target="_top" xlink:title="Wrapper Optimization class that calls Wrapped::Run for every connection BaseType &#45;&gt; ChildType.">
<polygon fill="white" stroke="black" points="117,-0.5 117,-41.5 269,-41.5 269,-0.5 117,-0.5"/>
<text text-anchor="start" x="125" y="-29.5" font-family="Helvetica,sans-Serif" font-size="10.00">OptimizeForConnectionImpl</text>
<text text-anchor="start" x="125" y="-18.5" font-family="Helvetica,sans-Serif" font-size="10.00">&lt; BaseType, ChildType,</text>
<text text-anchor="middle" x="193" y="-7.5" font-family="Helvetica,sans-Serif" font-size="10.00"> Wrapped &gt;</text>
</a>
</g>
</g>
<!-- Node4&#45;&gt;Node2 -->
<g id="edge3" class="edge">
<title>Node4&#45;&gt;Node2</title>
<path fill="none" stroke="midnightblue" d="M279.26,-32.21C340.3,-40.23 422.56,-51.04 485.93,-59.37"/>
<polygon fill="midnightblue" stroke="midnightblue" points="279.64,-28.73 269.27,-30.89 278.73,-35.67 279.64,-28.73"/>
</g>
<!-- Node5 -->
<g id="node5" class="node">
<title>Node5</title>
<g id="a_node5"><a xlink:title=" ">
<polygon fill="white" stroke="#bfbfbf" points="10,-40.5 10,-59.5 70,-59.5 70,-40.5 10,-40.5"/>
<text text-anchor="middle" x="40" y="-47.5" font-family="Helvetica,sans-Serif" font-size="10.00">Wrapped</text>
</a>
</g>
</g>
<!-- Node5&#45;&gt;Node4 -->
<g id="edge4" class="edge">
<title>Node5&#45;&gt;Node4</title>
<path fill="none" stroke="midnightblue" d="M80.06,-42.5C91.38,-40.32 104.13,-37.88 116.87,-35.43"/>
<polygon fill="midnightblue" stroke="midnightblue" points="79.27,-39.09 70.11,-44.41 80.59,-45.96 79.27,-39.09"/>
</g>
<!-- Node5&#45;&gt;Node6 -->
<g id="edge7" class="edge">
<title>Node5&#45;&gt;Node6</title>
<path fill="none" stroke="midnightblue" d="M80.23,-56.75C94.05,-59.13 110,-61.88 125.44,-64.54"/>
<polygon fill="midnightblue" stroke="midnightblue" points="80.56,-53.26 70.11,-55.01 79.38,-60.16 80.56,-53.26"/>
</g>
<!-- Node6&#45;&gt;Node2 -->
<g id="edge5" class="edge">
<title>Node6&#45;&gt;Node2</title>
<path fill="none" stroke="orange" stroke-dasharray="5,2" d="M270.57,-73.35C276.13,-73.22 281.65,-73.1 287,-73 353.31,-71.82 428.03,-71.58 485.67,-71.63"/>
<polygon fill="orange" stroke="orange" points="270.45,-69.86 260.54,-73.62 270.63,-76.85 270.45,-69.86"/>
<text text-anchor="start" x="287" y="-98" font-family="Helvetica,sans-Serif" font-size="10.00"> &lt; BaseType, OptimizeForConnection</text>
<text text-anchor="start" x="287" y="-87" font-family="Helvetica,sans-Serif" font-size="10.00">Impl&lt; BaseType, ChildType,</text>
<text text-anchor="middle" x="377.5" y="-76" font-family="Helvetica,sans-Serif" font-size="10.00"> Wrapped &gt; &gt;</text>
</g>
</g>
</svg>
