<?xml version="1.0" encoding="UTF-8" standalone="no"?>
<!DOCTYPE svg PUBLIC "-//W3C//DTD SVG 1.1//EN"
 "http://www.w3.org/Graphics/SVG/1.1/DTD/svg11.dtd">
<!-- Generated by graphviz version 2.43.0 (0)
 -->
<!-- Title: LstmLayer Pages: 1 -->
<svg width="937pt" height="255pt"
 viewBox="0.00 0.00 937.00 255.00" xmlns="http://www.w3.org/2000/svg" xmlns:xlink="http://www.w3.org/1999/xlink">
<g id="graph0" class="graph" transform="scale(1 1) rotate(0) translate(4 251)">
<title>LstmLayer</title>
<polygon fill="white" stroke="transparent" points="-4,4 -4,-251 933,-251 933,4 -4,4"/>
<!-- Node1 -->
<g id="node1" class="node">
<title>Node1</title>
<g id="a_node1"><a xlink:title="This layer represents a LSTM operation.">
<polygon fill="#bfbfbf" stroke="black" points="861,-95.5 861,-114.5 929,-114.5 929,-95.5 861,-95.5"/>
<text text-anchor="middle" x="895" y="-102.5" font-family="Helvetica,sans-Serif" font-size="10.00">LstmLayer</text>
</a>
</g>
</g>
<!-- Node2 -->
<g id="node2" class="node">
<title>Node2</title>
<g id="a_node2"><a xlink:href="classarmnn_1_1_layer_with_parameters.html" target="_top" xlink:title=" ">
<polygon fill="white" stroke="black" points="552.5,-191 552.5,-221 674.5,-221 674.5,-191 552.5,-191"/>
<text text-anchor="start" x="560.5" y="-209" font-family="Helvetica,sans-Serif" font-size="10.00">LayerWithParameters</text>
<text text-anchor="middle" x="613.5" y="-198" font-family="Helvetica,sans-Serif" font-size="10.00">&lt; LstmDescriptor &gt;</text>
</a>
</g>
</g>
<!-- Node2&#45;&gt;Node1 -->
<g id="edge1" class="edge">
<title>Node2&#45;&gt;Node1</title>
<path fill="none" stroke="midnightblue" d="M685.05,-207.99C732.65,-206.31 795.25,-198.04 843,-170 865.51,-156.78 881.79,-129.51 889.32,-114.84"/>
<polygon fill="midnightblue" stroke="midnightblue" points="684.73,-204.49 674.82,-208.25 684.91,-211.49 684.73,-204.49"/>
</g>
<!-- Node3 -->
<g id="node3" class="node">
<title>Node3</title>
<g id="a_node3"><a xlink:href="classarmnn_1_1_layer.html" target="_top" xlink:title=" ">
<polygon fill="white" stroke="black" points="167.5,-227.5 167.5,-246.5 211.5,-246.5 211.5,-227.5 167.5,-227.5"/>
<text text-anchor="middle" x="189.5" y="-234.5" font-family="Helvetica,sans-Serif" font-size="10.00">Layer</text>
</a>
</g>
</g>
<!-- Node3&#45;&gt;Node2 -->
<g id="edge2" class="edge">
<title>Node3&#45;&gt;Node2</title>
<path fill="none" stroke="midnightblue" d="M221.83,-236.63C232.08,-236.48 243.53,-236.27 254,-236 368.82,-233.05 397.92,-234.33 512,-221 525.05,-219.47 539.02,-217.57 552.27,-215.63"/>
<polygon fill="midnightblue" stroke="midnightblue" points="221.62,-233.13 211.67,-236.77 221.72,-240.13 221.62,-233.13"/>
</g>
<!-- Node7 -->
<g id="node7" class="node">
<title>Node7</title>
<g id="a_node7"><a xlink:href="classarmnn_1_1_layer_with_parameters.html" target="_top" xlink:title=" ">
<polygon fill="white" stroke="black" points="272,-191 272,-221 394,-221 394,-191 272,-191"/>
<text text-anchor="start" x="280" y="-209" font-family="Helvetica,sans-Serif" font-size="10.00">LayerWithParameters</text>
<text text-anchor="middle" x="333" y="-198" font-family="Helvetica,sans-Serif" font-size="10.00">&lt; Parameters &gt;</text>
</a>
</g>
</g>
<!-- Node3&#45;&gt;Node7 -->
<g id="edge7" class="edge">
<title>Node3&#45;&gt;Node7</title>
<path fill="none" stroke="midnightblue" d="M221.75,-230.15C236.47,-226.93 254.55,-222.97 271.77,-219.2"/>
<polygon fill="midnightblue" stroke="midnightblue" points="220.7,-226.8 211.68,-232.36 222.2,-233.64 220.7,-226.8"/>
</g>
<!-- Node4 -->
<g id="node4" class="node">
<title>Node4</title>
<g id="a_node4"><a xlink:href="classarmnn_1_1_i_connectable_layer.html" target="_top" xlink:title="Interface for a layer that is connectable to other layers via InputSlots and OutputSlots.">
<polygon fill="white" stroke="black" points="0,-227.5 0,-246.5 107,-246.5 107,-227.5 0,-227.5"/>
<text text-anchor="middle" x="53.5" y="-234.5" font-family="Helvetica,sans-Serif" font-size="10.00">IConnectableLayer</text>
</a>
</g>
</g>
<!-- Node4&#45;&gt;Node3 -->
<g id="edge3" class="edge">
<title>Node4&#45;&gt;Node3</title>
<path fill="none" stroke="midnightblue" d="M117.27,-237C135.22,-237 153.59,-237 167.17,-237"/>
<polygon fill="midnightblue" stroke="midnightblue" points="117.08,-233.5 107.08,-237 117.08,-240.5 117.08,-233.5"/>
</g>
<!-- Node5 -->
<g id="node5" class="node">
<title>Node5</title>
<g id="a_node5"><a xlink:href="structarmnn_1_1_lstm_descriptor.html" target="_top" xlink:title="An LstmDescriptor for the LstmLayer.">
<polygon fill="white" stroke="black" points="287.5,-152.5 287.5,-171.5 378.5,-171.5 378.5,-152.5 287.5,-152.5"/>
<text text-anchor="middle" x="333" y="-159.5" font-family="Helvetica,sans-Serif" font-size="10.00">LstmDescriptor</text>
</a>
</g>
</g>
<!-- Node5&#45;&gt;Node2 -->
<g id="edge4" class="edge">
<title>Node5&#45;&gt;Node2</title>
<path fill="none" stroke="#9a32cd" stroke-dasharray="5,2" d="M388.76,-170.65C435.85,-178.09 503.67,-188.81 552.28,-196.49"/>
<polygon fill="#9a32cd" stroke="#9a32cd" points="389.17,-167.17 378.75,-169.07 388.08,-174.09 389.17,-167.17"/>
<text text-anchor="middle" x="462" y="-192" font-family="Helvetica,sans-Serif" font-size="10.00"> m_Param</text>
</g>
<!-- Node6 -->
<g id="node6" class="node">
<title>Node6</title>
<g id="a_node6"><a xlink:href="structarmnn_1_1_base_descriptor.html" target="_top" xlink:title="Base class for all descriptors.">
<polygon fill="white" stroke="black" points="144,-152.5 144,-171.5 235,-171.5 235,-152.5 144,-152.5"/>
<text text-anchor="middle" x="189.5" y="-159.5" font-family="Helvetica,sans-Serif" font-size="10.00">BaseDescriptor</text>
</a>
</g>
</g>
<!-- Node6&#45;&gt;Node5 -->
<g id="edge5" class="edge">
<title>Node6&#45;&gt;Node5</title>
<path fill="none" stroke="midnightblue" d="M245.57,-162C259.3,-162 273.86,-162 287.03,-162"/>
<polygon fill="midnightblue" stroke="midnightblue" points="245.27,-158.5 235.27,-162 245.27,-165.5 245.27,-158.5"/>
</g>
<!-- Node7&#45;&gt;Node2 -->
<g id="edge6" class="edge">
<title>Node7&#45;&gt;Node2</title>
<path fill="none" stroke="orange" stroke-dasharray="5,2" d="M404.19,-206C449.76,-206 508.54,-206 552.04,-206"/>
<polygon fill="orange" stroke="orange" points="404.09,-202.5 394.09,-206 404.09,-209.5 404.09,-202.5"/>
<text text-anchor="middle" x="462" y="-209" font-family="Helvetica,sans-Serif" font-size="10.00"> &lt; LstmDescriptor &gt;</text>
</g>
<!-- Node8 -->
<g id="node8" class="node">
<title>Node8</title>
<g id="a_node8"><a xlink:href="structarmnn_1_1_lstm_opt_projection_parameters.html" target="_top" xlink:title=" ">
<polygon fill="white" stroke="black" points="532.5,-152.5 532.5,-171.5 694.5,-171.5 694.5,-152.5 532.5,-152.5"/>
<text text-anchor="middle" x="613.5" y="-159.5" font-family="Helvetica,sans-Serif" font-size="10.00">LstmOptProjectionParameters</text>
</a>
</g>
</g>
<!-- Node8&#45;&gt;Node1 -->
<g id="edge8" class="edge">
<title>Node8&#45;&gt;Node1</title>
<path fill="none" stroke="#9a32cd" stroke-dasharray="5,2" d="M704.8,-156.79C747.44,-152.55 798.61,-144.89 843,-131 855.52,-127.08 868.69,-120.29 878.51,-114.63"/>
<polygon fill="#9a32cd" stroke="#9a32cd" points="704.34,-153.31 694.71,-157.74 705,-160.28 704.34,-153.31"/>
<text text-anchor="middle" x="779" y="-158" font-family="Helvetica,sans-Serif" font-size="10.00"> m_ProjectionParameters</text>
</g>
<!-- Node9 -->
<g id="node9" class="node">
<title>Node9</title>
<g id="a_node9"><a xlink:href="structarmnn_1_1_lstm_basic_parameters.html" target="_top" xlink:title=" ">
<polygon fill="white" stroke="black" points="552.5,-114.5 552.5,-133.5 674.5,-133.5 674.5,-114.5 552.5,-114.5"/>
<text text-anchor="middle" x="613.5" y="-121.5" font-family="Helvetica,sans-Serif" font-size="10.00">LstmBasicParameters</text>
</a>
</g>
</g>
<!-- Node9&#45;&gt;Node1 -->
<g id="edge9" class="edge">
<title>Node9&#45;&gt;Node1</title>
<path fill="none" stroke="#9a32cd" stroke-dasharray="5,2" d="M685.08,-119.2C741.41,-115.37 817.8,-110.18 860.88,-107.25"/>
<polygon fill="#9a32cd" stroke="#9a32cd" points="684.54,-115.73 674.8,-119.9 685.02,-122.71 684.54,-115.73"/>
<text text-anchor="middle" x="779" y="-119" font-family="Helvetica,sans-Serif" font-size="10.00"> m_BasicParameters</text>
</g>
<!-- Node10 -->
<g id="node10" class="node">
<title>Node10</title>
<g id="a_node10"><a xlink:href="structarmnn_1_1_lstm_opt_peephole_parameters.html" target="_top" xlink:title=" ">
<polygon fill="white" stroke="black" points="534.5,-76.5 534.5,-95.5 692.5,-95.5 692.5,-76.5 534.5,-76.5"/>
<text text-anchor="middle" x="613.5" y="-83.5" font-family="Helvetica,sans-Serif" font-size="10.00">LstmOptPeepholeParameters</text>
</a>
</g>
</g>
<!-- Node10&#45;&gt;Node1 -->
<g id="edge10" class="edge">
<title>Node10&#45;&gt;Node1</title>
<path fill="none" stroke="#9a32cd" stroke-dasharray="5,2" d="M702.6,-84.59C745.18,-84.95 796.92,-86.94 843,-93 848.86,-93.77 855.03,-94.92 860.98,-96.22"/>
<polygon fill="#9a32cd" stroke="#9a32cd" points="702.57,-81.09 692.55,-84.53 702.53,-88.09 702.57,-81.09"/>
<text text-anchor="middle" x="779" y="-96" font-family="Helvetica,sans-Serif" font-size="10.00"> m_PeepholeParameters</text>
</g>
<!-- Node11 -->
<g id="node11" class="node">
<title>Node11</title>
<g id="a_node11"><a xlink:href="structarmnn_1_1_lstm_opt_layer_norm_parameters.html" target="_top" xlink:title=" ">
<polygon fill="white" stroke="black" points="530,-38.5 530,-57.5 697,-57.5 697,-38.5 530,-38.5"/>
<text text-anchor="middle" x="613.5" y="-45.5" font-family="Helvetica,sans-Serif" font-size="10.00">LstmOptLayerNormParameters</text>
</a>
</g>
</g>
<!-- Node11&#45;&gt;Node1 -->
<g id="edge11" class="edge">
<title>Node11&#45;&gt;Node1</title>
<path fill="none" stroke="#9a32cd" stroke-dasharray="5,2" d="M707.2,-45.68C749.72,-47.33 800.09,-53.18 843,-69 858.86,-74.85 874.33,-86.94 884,-95.49"/>
<polygon fill="#9a32cd" stroke="#9a32cd" points="707.24,-42.18 697.13,-45.37 707.02,-49.18 707.24,-42.18"/>
<text text-anchor="middle" x="779" y="-72" font-family="Helvetica,sans-Serif" font-size="10.00"> m_LayerNormParameters</text>
</g>
<!-- Node12 -->
<g id="node12" class="node">
<title>Node12</title>
<g id="a_node12"><a xlink:href="structarmnn_1_1_lstm_opt_cifg_parameters.html" target="_top" xlink:title=" ">
<polygon fill="white" stroke="black" points="547,-0.5 547,-19.5 680,-19.5 680,-0.5 547,-0.5"/>
<text text-anchor="middle" x="613.5" y="-7.5" font-family="Helvetica,sans-Serif" font-size="10.00">LstmOptCifgParameters</text>
</a>
</g>
</g>
<!-- Node12&#45;&gt;Node1 -->
<g id="edge12" class="edge">
<title>Node12&#45;&gt;Node1</title>
<path fill="none" stroke="#9a32cd" stroke-dasharray="5,2" d="M690.15,-1.36C737.18,0.4 797.19,-4.19 843,-31 868.32,-45.82 883.95,-78.78 890.48,-95.25"/>
<polygon fill="#9a32cd" stroke="#9a32cd" points="689.84,2.13 680.02,-1.84 690.18,-4.86 689.84,2.13"/>
<text text-anchor="middle" x="779" y="-34" font-family="Helvetica,sans-Serif" font-size="10.00"> m_CifgParameters</text>
</g>
</g>
</svg>
