<?xml version="1.0" encoding="UTF-8" standalone="no"?>
<!DOCTYPE svg PUBLIC "-//W3C//DTD SVG 1.1//EN"
 "http://www.w3.org/Graphics/SVG/1.1/DTD/svg11.dtd">
<!-- Generated by graphviz version 2.43.0 (0)
 -->
<!-- Title: NeonCastWorkload Pages: 1 -->
<svg width="1246pt" height="163pt"
 viewBox="0.00 0.00 1246.00 163.00" xmlns="http://www.w3.org/2000/svg" xmlns:xlink="http://www.w3.org/1999/xlink">
<g id="graph0" class="graph" transform="scale(1 1) rotate(0) translate(4 159)">
<title>NeonCastWorkload</title>
<polygon fill="white" stroke="transparent" points="-4,4 -4,-159 1242,-159 1242,4 -4,4"/>
<!-- Node1 -->
<g id="node1" class="node">
<title>Node1</title>
<g id="a_node1"><a xlink:title=" ">
<polygon fill="#bfbfbf" stroke="black" points="1128,-36.5 1128,-55.5 1238,-55.5 1238,-36.5 1128,-36.5"/>
<text text-anchor="middle" x="1183" y="-43.5" font-family="Helvetica,sans-Serif" font-size="10.00">NeonCastWorkload</text>
</a>
</g>
</g>
<!-- Node2 -->
<g id="node2" class="node">
<title>Node2</title>
<g id="a_node2"><a xlink:href="classarmnn_1_1_neon_base_workload.html" target="_top" xlink:title=" ">
<polygon fill="white" stroke="black" points="915,-31 915,-61 1091,-61 1091,-31 915,-31"/>
<text text-anchor="start" x="923" y="-49" font-family="Helvetica,sans-Serif" font-size="10.00">NeonBaseWorkload&lt; CastQueue</text>
<text text-anchor="middle" x="1003" y="-38" font-family="Helvetica,sans-Serif" font-size="10.00">Descriptor &gt;</text>
</a>
</g>
</g>
<!-- Node2&#45;&gt;Node1 -->
<g id="edge1" class="edge">
<title>Node2&#45;&gt;Node1</title>
<path fill="none" stroke="midnightblue" d="M1101.43,-46C1110.48,-46 1119.42,-46 1127.85,-46"/>
<polygon fill="midnightblue" stroke="midnightblue" points="1101.17,-42.5 1091.17,-46 1101.17,-49.5 1101.17,-42.5"/>
</g>
<!-- Node3 -->
<g id="node3" class="node">
<title>Node3</title>
<g id="a_node3"><a xlink:href="classarmnn_1_1_base_workload.html" target="_top" xlink:title=" ">
<polygon fill="white" stroke="black" points="535,-60.5 535,-79.5 747,-79.5 747,-60.5 535,-60.5"/>
<text text-anchor="middle" x="641" y="-67.5" font-family="Helvetica,sans-Serif" font-size="10.00">BaseWorkload&lt; CastQueueDescriptor &gt;</text>
</a>
</g>
</g>
<!-- Node3&#45;&gt;Node2 -->
<g id="edge2" class="edge">
<title>Node3&#45;&gt;Node2</title>
<path fill="none" stroke="midnightblue" d="M757.21,-62.32C808.38,-58.91 867.61,-54.96 914.98,-51.8"/>
<polygon fill="midnightblue" stroke="midnightblue" points="756.84,-58.84 747.09,-62.99 757.31,-65.82 756.84,-58.84"/>
</g>
<!-- Node4 -->
<g id="node4" class="node">
<title>Node4</title>
<g id="a_node4"><a xlink:href="classarmnn_1_1_i_workload.html" target="_top" xlink:title="Workload interface to enqueue a layer computation.">
<polygon fill="white" stroke="black" points="16.5,-38.5 16.5,-57.5 81.5,-57.5 81.5,-38.5 16.5,-38.5"/>
<text text-anchor="middle" x="49" y="-45.5" font-family="Helvetica,sans-Serif" font-size="10.00">IWorkload</text>
</a>
</g>
</g>
<!-- Node4&#45;&gt;Node3 -->
<g id="edge3" class="edge">
<title>Node4&#45;&gt;Node3</title>
<path fill="none" stroke="midnightblue" d="M91.97,-49.57C183.45,-52.98 403.14,-61.17 534.91,-66.08"/>
<polygon fill="midnightblue" stroke="midnightblue" points="91.84,-46.06 81.72,-49.18 91.58,-53.05 91.84,-46.06"/>
</g>
<!-- Node7 -->
<g id="node7" class="node">
<title>Node7</title>
<g id="a_node7"><a xlink:href="classarmnn_1_1_base_workload.html" target="_top" xlink:title=" ">
<polygon fill="white" stroke="black" points="176,-76.5 176,-95.5 367,-95.5 367,-76.5 176,-76.5"/>
<text text-anchor="middle" x="271.5" y="-83.5" font-family="Helvetica,sans-Serif" font-size="10.00">BaseWorkload&lt; QueueDescriptor &gt;</text>
</a>
</g>
</g>
<!-- Node4&#45;&gt;Node7 -->
<g id="edge7" class="edge">
<title>Node4&#45;&gt;Node7</title>
<path fill="none" stroke="midnightblue" d="M91.47,-55.15C126.41,-61.17 176.71,-69.84 215.1,-76.45"/>
<polygon fill="midnightblue" stroke="midnightblue" points="92.04,-51.69 81.59,-53.44 90.85,-58.59 92.04,-51.69"/>
</g>
<!-- Node9 -->
<g id="node9" class="node">
<title>Node9</title>
<g id="a_node9"><a xlink:href="classarmnn_1_1_base_workload.html" target="_top" xlink:title=" ">
<polygon fill="white" stroke="black" points="176,-0.5 176,-19.5 367,-19.5 367,-0.5 176,-0.5"/>
<text text-anchor="middle" x="271.5" y="-7.5" font-family="Helvetica,sans-Serif" font-size="10.00">BaseWorkload&lt; QueueDescriptor &gt;</text>
</a>
</g>
</g>
<!-- Node4&#45;&gt;Node9 -->
<g id="edge11" class="edge">
<title>Node4&#45;&gt;Node9</title>
<path fill="none" stroke="midnightblue" d="M91.76,-38.78C99.79,-37.11 108.14,-35.44 116,-34 144.7,-28.73 176.54,-23.65 203.82,-19.54"/>
<polygon fill="midnightblue" stroke="midnightblue" points="90.88,-35.39 81.82,-40.88 92.33,-42.24 90.88,-35.39"/>
</g>
<!-- Node5 -->
<g id="node5" class="node">
<title>Node5</title>
<g id="a_node5"><a xlink:href="structarmnn_1_1_cast_queue_descriptor.html" target="_top" xlink:title=" ">
<polygon fill="white" stroke="black" points="211.5,-135.5 211.5,-154.5 331.5,-154.5 331.5,-135.5 211.5,-135.5"/>
<text text-anchor="middle" x="271.5" y="-142.5" font-family="Helvetica,sans-Serif" font-size="10.00">CastQueueDescriptor</text>
</a>
</g>
</g>
<!-- Node5&#45;&gt;Node3 -->
<g id="edge4" class="edge">
<title>Node5&#45;&gt;Node3</title>
<path fill="none" stroke="#9a32cd" stroke-dasharray="5,2" d="M329.3,-133.41C401.86,-118.6 526.06,-93.25 593.36,-79.52"/>
<polygon fill="#9a32cd" stroke="#9a32cd" points="328.52,-130 319.42,-135.43 329.92,-136.85 328.52,-130"/>
<text text-anchor="middle" x="450" y="-123" font-family="Helvetica,sans-Serif" font-size="10.00"> m_Data</text>
</g>
<!-- Node6 -->
<g id="node6" class="node">
<title>Node6</title>
<g id="a_node6"><a xlink:href="structarmnn_1_1_queue_descriptor.html" target="_top" xlink:title=" ">
<polygon fill="white" stroke="black" points="0,-130.5 0,-149.5 98,-149.5 98,-130.5 0,-130.5"/>
<text text-anchor="middle" x="49" y="-137.5" font-family="Helvetica,sans-Serif" font-size="10.00">QueueDescriptor</text>
</a>
</g>
</g>
<!-- Node6&#45;&gt;Node5 -->
<g id="edge5" class="edge">
<title>Node6&#45;&gt;Node5</title>
<path fill="none" stroke="midnightblue" d="M106.56,-150.97C109.75,-151.37 112.91,-151.72 116,-152 147.42,-154.83 182.55,-153.59 211.36,-151.42"/>
<polygon fill="midnightblue" stroke="midnightblue" points="106.77,-147.46 96.37,-149.51 105.78,-154.39 106.77,-147.46"/>
</g>
<!-- Node6&#45;&gt;Node7 -->
<g id="edge8" class="edge">
<title>Node6&#45;&gt;Node7</title>
<path fill="none" stroke="#9a32cd" stroke-dasharray="5,2" d="M107.94,-129.04C124.19,-125.74 141.83,-121.94 158,-118 185.62,-111.27 216.68,-102.33 239.15,-95.61"/>
<polygon fill="#9a32cd" stroke="#9a32cd" points="107.14,-125.63 98.02,-131.03 108.52,-132.5 107.14,-125.63"/>
<text text-anchor="middle" x="137" y="-130" font-family="Helvetica,sans-Serif" font-size="10.00"> m_Data</text>
</g>
<!-- Node6&#45;&gt;Node9 -->
<g id="edge12" class="edge">
<title>Node6&#45;&gt;Node9</title>
<path fill="none" stroke="#9a32cd" stroke-dasharray="5,2" d="M74.88,-125.33C120.44,-98.47 216.09,-42.08 254.26,-19.57"/>
<polygon fill="#9a32cd" stroke="#9a32cd" points="73.05,-122.35 66.21,-130.44 76.61,-128.38 73.05,-122.35"/>
<text text-anchor="middle" x="137" y="-100" font-family="Helvetica,sans-Serif" font-size="10.00"> m_Data</text>
</g>
<!-- Node7&#45;&gt;Node3 -->
<g id="edge6" class="edge">
<title>Node7&#45;&gt;Node3</title>
<path fill="none" stroke="orange" stroke-dasharray="5,2" d="M377.22,-81.44C426.66,-79.29 485.52,-76.73 535,-74.57"/>
<polygon fill="orange" stroke="orange" points="376.98,-77.95 367.14,-81.88 377.28,-84.94 376.98,-77.95"/>
<text text-anchor="middle" x="450" y="-83" font-family="Helvetica,sans-Serif" font-size="10.00"> &lt; CastQueueDescriptor &gt;</text>
</g>
<!-- Node8 -->
<g id="node8" class="node">
<title>Node8</title>
<g id="a_node8"><a xlink:href="classarmnn_1_1_neon_base_workload.html" target="_top" xlink:title=" ">
<polygon fill="white" stroke="black" points="533,-17.5 533,-36.5 749,-36.5 749,-17.5 533,-17.5"/>
<text text-anchor="middle" x="641" y="-24.5" font-family="Helvetica,sans-Serif" font-size="10.00">NeonBaseWorkload&lt; QueueDescriptor &gt;</text>
</a>
</g>
</g>
<!-- Node8&#45;&gt;Node2 -->
<g id="edge9" class="edge">
<title>Node8&#45;&gt;Node2</title>
<path fill="none" stroke="orange" stroke-dasharray="5,2" d="M759.08,-30.45C802.43,-32.03 851.98,-34.19 897,-37 902.84,-37.36 908.87,-37.78 914.93,-38.22"/>
<polygon fill="orange" stroke="orange" points="759.19,-26.96 749.07,-30.1 758.94,-33.95 759.19,-26.96"/>
<text text-anchor="middle" x="832" y="-40" font-family="Helvetica,sans-Serif" font-size="10.00"> &lt; CastQueueDescriptor &gt;</text>
</g>
<!-- Node9&#45;&gt;Node8 -->
<g id="edge10" class="edge">
<title>Node9&#45;&gt;Node8</title>
<path fill="none" stroke="midnightblue" d="M377.38,-14.85C426.01,-17.1 483.76,-19.77 532.69,-22.04"/>
<polygon fill="midnightblue" stroke="midnightblue" points="377.29,-11.34 367.14,-14.38 376.97,-18.34 377.29,-11.34"/>
</g>
</g>
</svg>
