<?xml version="1.0" encoding="UTF-8" standalone="no"?>
<!DOCTYPE svg PUBLIC "-//W3C//DTD SVG 1.1//EN"
 "http://www.w3.org/Graphics/SVG/1.1/DTD/svg11.dtd">
<!-- Generated by graphviz version 2.43.0 (0)
 -->
<!-- Title: ClArgMinMaxWorkload Pages: 1 -->
<svg width="443pt" height="298pt"
 viewBox="0.00 0.00 443.15 298.00" xmlns="http://www.w3.org/2000/svg" xmlns:xlink="http://www.w3.org/1999/xlink">
<g id="graph0" class="graph" transform="scale(1 1) rotate(0) translate(4 294)">
<title>ClArgMinMaxWorkload</title>
<polygon fill="white" stroke="transparent" points="-4,4 -4,-294 439.15,-294 439.15,4 -4,4"/>
<!-- Node1 -->
<g id="node1" class="node">
<title>Node1</title>
<g id="a_node1"><a xlink:title=" ">
<polygon fill="#bfbfbf" stroke="black" points="149.15,-0.5 149.15,-19.5 277.15,-19.5 277.15,-0.5 149.15,-0.5"/>
<text text-anchor="middle" x="213.15" y="-7.5" font-family="Helvetica,sans-Serif" font-size="10.00">ClArgMinMaxWorkload</text>
</a>
</g>
</g>
<!-- Node2 -->
<g id="node2" class="node">
<title>Node2</title>
<g id="a_node2"><a xlink:href="classarmnn_1_1_cl_base_workload.html" target="_top" xlink:title=" ">
<polygon fill="white" stroke="black" points="131.65,-57.5 131.65,-87.5 294.65,-87.5 294.65,-57.5 131.65,-57.5"/>
<text text-anchor="start" x="139.65" y="-75.5" font-family="Helvetica,sans-Serif" font-size="10.00">ClBaseWorkload&lt; ArgMinMax</text>
<text text-anchor="middle" x="213.15" y="-64.5" font-family="Helvetica,sans-Serif" font-size="10.00">QueueDescriptor &gt;</text>
</a>
</g>
</g>
<!-- Node2&#45;&gt;Node1 -->
<g id="edge1" class="edge">
<title>Node2&#45;&gt;Node1</title>
<path fill="none" stroke="midnightblue" d="M213.15,-47.35C213.15,-37.51 213.15,-26.78 213.15,-19.54"/>
<polygon fill="midnightblue" stroke="midnightblue" points="209.65,-47.47 213.15,-57.47 216.65,-47.47 209.65,-47.47"/>
</g>
<!-- Node3 -->
<g id="node3" class="node">
<title>Node3</title>
<g id="a_node3"><a xlink:href="classarmnn_1_1_base_workload.html" target="_top" xlink:title=" ">
<polygon fill="white" stroke="black" points="15.65,-135.5 15.65,-165.5 200.65,-165.5 200.65,-135.5 15.65,-135.5"/>
<text text-anchor="start" x="23.65" y="-153.5" font-family="Helvetica,sans-Serif" font-size="10.00">BaseWorkload&lt; ArgMinMaxQueue</text>
<text text-anchor="middle" x="108.15" y="-142.5" font-family="Helvetica,sans-Serif" font-size="10.00">Descriptor &gt;</text>
</a>
</g>
</g>
<!-- Node3&#45;&gt;Node2 -->
<g id="edge2" class="edge">
<title>Node3&#45;&gt;Node2</title>
<path fill="none" stroke="midnightblue" d="M136.32,-129.11C154.39,-116.04 177.39,-99.39 193.49,-87.73"/>
<polygon fill="midnightblue" stroke="midnightblue" points="133.95,-126.51 127.9,-135.2 138.06,-132.18 133.95,-126.51"/>
</g>
<!-- Node4 -->
<g id="node4" class="node">
<title>Node4</title>
<g id="a_node4"><a xlink:href="classarmnn_1_1_i_workload.html" target="_top" xlink:title="Workload interface to enqueue a layer computation.">
<polygon fill="white" stroke="black" points="77.65,-270.5 77.65,-289.5 142.65,-289.5 142.65,-270.5 77.65,-270.5"/>
<text text-anchor="middle" x="110.15" y="-277.5" font-family="Helvetica,sans-Serif" font-size="10.00">IWorkload</text>
</a>
</g>
</g>
<!-- Node4&#45;&gt;Node3 -->
<g id="edge3" class="edge">
<title>Node4&#45;&gt;Node3</title>
<path fill="none" stroke="midnightblue" d="M67.67,-271.87C45.01,-265.68 19,-254.19 5.15,-233 -14.25,-203.32 27.92,-179.63 64.03,-165.6"/>
<polygon fill="midnightblue" stroke="midnightblue" points="66.91,-275.29 77.46,-274.29 68.59,-268.5 66.91,-275.29"/>
</g>
<!-- Node5 -->
<g id="node5" class="node">
<title>Node5</title>
<g id="a_node5"><a xlink:href="classarmnn_1_1_base_workload.html" target="_top" xlink:title=" ">
<polygon fill="white" stroke="black" points="14.65,-213.5 14.65,-232.5 205.65,-232.5 205.65,-213.5 14.65,-213.5"/>
<text text-anchor="middle" x="110.15" y="-220.5" font-family="Helvetica,sans-Serif" font-size="10.00">BaseWorkload&lt; QueueDescriptor &gt;</text>
</a>
</g>
</g>
<!-- Node4&#45;&gt;Node5 -->
<g id="edge5" class="edge">
<title>Node4&#45;&gt;Node5</title>
<path fill="none" stroke="midnightblue" d="M110.15,-260.12C110.15,-250.82 110.15,-240.06 110.15,-232.71"/>
<polygon fill="midnightblue" stroke="midnightblue" points="106.65,-260.41 110.15,-270.41 113.65,-260.41 106.65,-260.41"/>
</g>
<!-- Node7 -->
<g id="node7" class="node">
<title>Node7</title>
<g id="a_node7"><a xlink:href="classarmnn_1_1_base_workload.html" target="_top" xlink:title=" ">
<polygon fill="white" stroke="black" points="223.65,-213.5 223.65,-232.5 414.65,-232.5 414.65,-213.5 223.65,-213.5"/>
<text text-anchor="middle" x="319.15" y="-220.5" font-family="Helvetica,sans-Serif" font-size="10.00">BaseWorkload&lt; QueueDescriptor &gt;</text>
</a>
</g>
</g>
<!-- Node4&#45;&gt;Node7 -->
<g id="edge8" class="edge">
<title>Node4&#45;&gt;Node7</title>
<path fill="none" stroke="midnightblue" d="M152.72,-267.8C192.39,-257.36 250.7,-242.01 286.73,-232.53"/>
<polygon fill="midnightblue" stroke="midnightblue" points="151.59,-264.48 142.81,-270.41 153.37,-271.25 151.59,-264.48"/>
</g>
<!-- Node5&#45;&gt;Node3 -->
<g id="edge4" class="edge">
<title>Node5&#45;&gt;Node3</title>
<path fill="none" stroke="orange" stroke-dasharray="5,2" d="M109.62,-203.24C109.29,-191.41 108.86,-176.38 108.55,-165.58"/>
<polygon fill="orange" stroke="orange" points="106.13,-203.46 109.91,-213.36 113.12,-203.26 106.13,-203.46"/>
<text text-anchor="middle" x="191.65" y="-187" font-family="Helvetica,sans-Serif" font-size="10.00"> &lt; ArgMinMaxQueueDescriptor &gt;</text>
</g>
<!-- Node6 -->
<g id="node6" class="node">
<title>Node6</title>
<g id="a_node6"><a xlink:href="classarmnn_1_1_cl_base_workload.html" target="_top" xlink:title=" ">
<polygon fill="white" stroke="black" points="219.15,-141 219.15,-160 419.15,-160 419.15,-141 219.15,-141"/>
<text text-anchor="middle" x="319.15" y="-148" font-family="Helvetica,sans-Serif" font-size="10.00">ClBaseWorkload&lt; QueueDescriptor &gt;</text>
</a>
</g>
</g>
<!-- Node6&#45;&gt;Node2 -->
<g id="edge6" class="edge">
<title>Node6&#45;&gt;Node2</title>
<path fill="none" stroke="orange" stroke-dasharray="5,2" d="M298.71,-134.84C279.66,-121.19 251.46,-100.97 232.71,-87.52"/>
<polygon fill="orange" stroke="orange" points="296.83,-137.8 306.99,-140.78 300.91,-132.11 296.83,-137.8"/>
<text text-anchor="middle" x="353.65" y="-109" font-family="Helvetica,sans-Serif" font-size="10.00"> &lt; ArgMinMaxQueueDescriptor &gt;</text>
</g>
<!-- Node7&#45;&gt;Node6 -->
<g id="edge7" class="edge">
<title>Node7&#45;&gt;Node6</title>
<path fill="none" stroke="midnightblue" d="M319.15,-202.94C319.15,-189.03 319.15,-170.82 319.15,-160.22"/>
<polygon fill="midnightblue" stroke="midnightblue" points="315.65,-203.36 319.15,-213.36 322.65,-203.36 315.65,-203.36"/>
</g>
</g>
</svg>
