<?xml version="1.0" encoding="UTF-8" standalone="no"?>
<!DOCTYPE svg PUBLIC "-//W3C//DTD SVG 1.1//EN"
 "http://www.w3.org/Graphics/SVG/1.1/DTD/svg11.dtd">
<!-- Generated by graphviz version 2.43.0 (0)
 -->
<!-- Title: DepthwiseConvolution2dLayer Pages: 1 -->
<svg width="296pt" height="299pt"
 viewBox="0.00 0.00 296.00 299.00" xmlns="http://www.w3.org/2000/svg" xmlns:xlink="http://www.w3.org/1999/xlink">
<g id="graph0" class="graph" transform="scale(1 1) rotate(0) translate(4 295)">
<title>DepthwiseConvolution2dLayer</title>
<polygon fill="white" stroke="transparent" points="-4,4 -4,-295 292,-295 292,4 -4,4"/>
<!-- Node1 -->
<g id="node1" class="node">
<title>Node1</title>
<g id="a_node1"><a xlink:title="This layer represents a depthwise convolution 2d operation.">
<polygon fill="#bfbfbf" stroke="black" points="23,-0.5 23,-19.5 189,-19.5 189,-0.5 23,-0.5"/>
<text text-anchor="middle" x="106" y="-7.5" font-family="Helvetica,sans-Serif" font-size="10.00">DepthwiseConvolution2dLayer</text>
</a>
</g>
</g>
<!-- Node2 -->
<g id="node2" class="node">
<title>Node2</title>
<g id="a_node2"><a xlink:href="classarmnn_1_1_layer_with_parameters.html" target="_top" xlink:title=" ">
<polygon fill="white" stroke="black" points="0,-57.5 0,-87.5 212,-87.5 212,-57.5 0,-57.5"/>
<text text-anchor="start" x="8" y="-75.5" font-family="Helvetica,sans-Serif" font-size="10.00">LayerWithParameters</text>
<text text-anchor="middle" x="106" y="-64.5" font-family="Helvetica,sans-Serif" font-size="10.00">&lt; DepthwiseConvolution2dDescriptor &gt;</text>
</a>
</g>
</g>
<!-- Node2&#45;&gt;Node1 -->
<g id="edge1" class="edge">
<title>Node2&#45;&gt;Node1</title>
<path fill="none" stroke="midnightblue" d="M106,-47.35C106,-37.51 106,-26.78 106,-19.54"/>
<polygon fill="midnightblue" stroke="midnightblue" points="102.5,-47.47 106,-57.47 109.5,-47.47 102.5,-47.47"/>
</g>
<!-- Node3 -->
<g id="node3" class="node">
<title>Node3</title>
<g id="a_node3"><a xlink:href="classarmnn_1_1_layer.html" target="_top" xlink:title=" ">
<polygon fill="white" stroke="black" points="80,-214.5 80,-233.5 124,-233.5 124,-214.5 80,-214.5"/>
<text text-anchor="middle" x="102" y="-221.5" font-family="Helvetica,sans-Serif" font-size="10.00">Layer</text>
</a>
</g>
</g>
<!-- Node3&#45;&gt;Node2 -->
<g id="edge2" class="edge">
<title>Node3&#45;&gt;Node2</title>
<path fill="none" stroke="midnightblue" d="M102.51,-203.95C103.32,-173.5 104.9,-114.55 105.62,-87.59"/>
<polygon fill="midnightblue" stroke="midnightblue" points="99.01,-204.01 102.24,-214.1 106,-204.19 99.01,-204.01"/>
</g>
<!-- Node5 -->
<g id="node5" class="node">
<title>Node5</title>
<g id="a_node5"><a xlink:href="classarmnn_1_1_layer_with_parameters.html" target="_top" xlink:title=" ">
<polygon fill="white" stroke="black" points="118,-146.5 118,-176.5 240,-176.5 240,-146.5 118,-146.5"/>
<text text-anchor="start" x="126" y="-164.5" font-family="Helvetica,sans-Serif" font-size="10.00">LayerWithParameters</text>
<text text-anchor="middle" x="179" y="-153.5" font-family="Helvetica,sans-Serif" font-size="10.00">&lt; Parameters &gt;</text>
</a>
</g>
</g>
<!-- Node3&#45;&gt;Node5 -->
<g id="edge5" class="edge">
<title>Node3&#45;&gt;Node5</title>
<path fill="none" stroke="midnightblue" d="M121.22,-207.9C133.45,-198.29 149.19,-185.92 161.15,-176.53"/>
<polygon fill="midnightblue" stroke="midnightblue" points="118.73,-205.4 113.03,-214.33 123.06,-210.91 118.73,-205.4"/>
</g>
<!-- Node4 -->
<g id="node4" class="node">
<title>Node4</title>
<g id="a_node4"><a xlink:href="classarmnn_1_1_i_connectable_layer.html" target="_top" xlink:title="Interface for a layer that is connectable to other layers via InputSlots and OutputSlots.">
<polygon fill="white" stroke="black" points="48.5,-271.5 48.5,-290.5 155.5,-290.5 155.5,-271.5 48.5,-271.5"/>
<text text-anchor="middle" x="102" y="-278.5" font-family="Helvetica,sans-Serif" font-size="10.00">IConnectableLayer</text>
</a>
</g>
</g>
<!-- Node4&#45;&gt;Node3 -->
<g id="edge3" class="edge">
<title>Node4&#45;&gt;Node3</title>
<path fill="none" stroke="midnightblue" d="M102,-261.12C102,-251.82 102,-241.06 102,-233.71"/>
<polygon fill="midnightblue" stroke="midnightblue" points="98.5,-261.41 102,-271.41 105.5,-261.41 98.5,-261.41"/>
</g>
<!-- Node5&#45;&gt;Node2 -->
<g id="edge4" class="edge">
<title>Node5&#45;&gt;Node2</title>
<path fill="none" stroke="orange" stroke-dasharray="5,2" d="M160.39,-138.32C147,-122.36 129.34,-101.31 117.83,-87.6"/>
<polygon fill="orange" stroke="orange" points="157.84,-140.72 166.95,-146.13 163.2,-136.22 157.84,-140.72"/>
<text text-anchor="start" x="151" y="-120" font-family="Helvetica,sans-Serif" font-size="10.00"> &lt; DepthwiseConvolution2d</text>
<text text-anchor="middle" x="219.5" y="-109" font-family="Helvetica,sans-Serif" font-size="10.00">Descriptor &gt;</text>
</g>
</g>
</svg>
