<?xml version="1.0" encoding="UTF-8" standalone="no"?>
<!DOCTYPE svg PUBLIC "-//W3C//DTD SVG 1.1//EN"
 "http://www.w3.org/Graphics/SVG/1.1/DTD/svg11.dtd">
<!-- Generated by graphviz version 2.43.0 (0)
 -->
<!-- Title: src/backends/reference/workloads/Dequantize.hpp Pages: 1 -->
<svg width="386pt" height="106pt"
 viewBox="0.00 0.00 386.00 106.00" xmlns="http://www.w3.org/2000/svg" xmlns:xlink="http://www.w3.org/1999/xlink">
<g id="graph0" class="graph" transform="scale(1 1) rotate(0) translate(4 102)">
<title>src/backends/reference/workloads/Dequantize.hpp</title>
<polygon fill="white" stroke="transparent" points="-4,4 -4,-102 382,-102 382,4 -4,4"/>
<!-- Node1 -->
<g id="node1" class="node">
<title>Node1</title>
<g id="a_node1"><a xlink:title=" ">
<polygon fill="#bfbfbf" stroke="black" points="99,-67.5 99,-97.5 248,-97.5 248,-67.5 99,-67.5"/>
<text text-anchor="start" x="107" y="-85.5" font-family="Helvetica,sans-Serif" font-size="10.00">src/backends/reference</text>
<text text-anchor="middle" x="173.5" y="-74.5" font-family="Helvetica,sans-Serif" font-size="10.00">/workloads/Dequantize.hpp</text>
</a>
</g>
</g>
<!-- Node2 -->
<g id="node2" class="node">
<title>Node2</title>
<g id="a_node2"><a xlink:href="_dequantize_8cpp.html" target="_top" xlink:title=" ">
<polygon fill="white" stroke="black" points="0,-0.5 0,-30.5 149,-30.5 149,-0.5 0,-0.5"/>
<text text-anchor="start" x="8" y="-18.5" font-family="Helvetica,sans-Serif" font-size="10.00">src/backends/reference</text>
<text text-anchor="middle" x="74.5" y="-7.5" font-family="Helvetica,sans-Serif" font-size="10.00">/workloads/Dequantize.cpp</text>
</a>
</g>
</g>
<!-- Node1&#45;&gt;Node2 -->
<g id="edge1" class="edge">
<title>Node1&#45;&gt;Node2</title>
<path fill="none" stroke="midnightblue" d="M143.39,-61.73C128.08,-51.68 109.81,-39.68 95.94,-30.58"/>
<polygon fill="midnightblue" stroke="midnightblue" points="141.74,-64.83 152.02,-67.4 145.58,-58.98 141.74,-64.83"/>
</g>
<!-- Node3 -->
<g id="node3" class="node">
<title>Node3</title>
<g id="a_node3"><a xlink:href="_ref_dequantize_workload_8cpp.html" target="_top" xlink:title=" ">
<polygon fill="white" stroke="black" points="167,-0.5 167,-30.5 378,-30.5 378,-0.5 167,-0.5"/>
<text text-anchor="start" x="175" y="-18.5" font-family="Helvetica,sans-Serif" font-size="10.00">src/backends/reference</text>
<text text-anchor="middle" x="272.5" y="-7.5" font-family="Helvetica,sans-Serif" font-size="10.00">/workloads/RefDequantizeWorkload.cpp</text>
</a>
</g>
</g>
<!-- Node1&#45;&gt;Node3 -->
<g id="edge2" class="edge">
<title>Node1&#45;&gt;Node3</title>
<path fill="none" stroke="midnightblue" d="M203.61,-61.73C218.92,-51.68 237.19,-39.68 251.06,-30.58"/>
<polygon fill="midnightblue" stroke="midnightblue" points="201.42,-58.98 194.98,-67.4 205.26,-64.83 201.42,-58.98"/>
</g>
</g>
</svg>
