<?xml version="1.0" encoding="UTF-8" standalone="no"?>
<!DOCTYPE svg PUBLIC "-//W3C//DTD SVG 1.1//EN"
 "http://www.w3.org/Graphics/SVG/1.1/DTD/svg11.dtd">
<!-- Generated by graphviz version 2.43.0 (0)
 -->
<!-- Title: include/armnnSerializer/ISerializer.hpp Pages: 1 -->
<svg width="1825pt" height="431pt"
 viewBox="0.00 0.00 1825.00 431.00" xmlns="http://www.w3.org/2000/svg" xmlns:xlink="http://www.w3.org/1999/xlink">
<g id="graph0" class="graph" transform="scale(1 1) rotate(0) translate(4 427)">
<title>include/armnnSerializer/ISerializer.hpp</title>
<polygon fill="white" stroke="transparent" points="-4,4 -4,-427 1821,-427 1821,4 -4,4"/>
<!-- Node1 -->
<g id="node1" class="node">
<title>Node1</title>
<g id="a_node1"><a xlink:title=" ">
<polygon fill="#bfbfbf" stroke="black" points="432,-392.5 432,-422.5 564,-422.5 564,-392.5 432,-392.5"/>
<text text-anchor="start" x="440" y="-410.5" font-family="Helvetica,sans-Serif" font-size="10.00">include/armnnSerializer</text>
<text text-anchor="middle" x="498" y="-399.5" font-family="Helvetica,sans-Serif" font-size="10.00">/ISerializer.hpp</text>
</a>
</g>
</g>
<!-- Node2 -->
<g id="node2" class="node">
<title>Node2</title>
<g id="a_node2"><a xlink:href="_i_network_8hpp.html" target="_top" xlink:title=" ">
<polygon fill="white" stroke="black" points="440,-336.5 440,-355.5 556,-355.5 556,-336.5 440,-336.5"/>
<text text-anchor="middle" x="498" y="-343.5" font-family="Helvetica,sans-Serif" font-size="10.00">armnn/INetwork.hpp</text>
</a>
</g>
</g>
<!-- Node1&#45;&gt;Node2 -->
<g id="edge1" class="edge">
<title>Node1&#45;&gt;Node2</title>
<path fill="none" stroke="midnightblue" d="M498,-392.4C498,-384.47 498,-374.46 498,-365.86"/>
<polygon fill="midnightblue" stroke="midnightblue" points="501.5,-365.66 498,-355.66 494.5,-365.66 501.5,-365.66"/>
</g>
<!-- Node18 -->
<g id="node18" class="node">
<title>Node18</title>
<g id="a_node18"><a xlink:href="_types_8hpp.html" target="_top" xlink:title=" ">
<polygon fill="white" stroke="black" points="1305,-112.5 1305,-131.5 1405,-131.5 1405,-112.5 1305,-112.5"/>
<text text-anchor="middle" x="1355" y="-119.5" font-family="Helvetica,sans-Serif" font-size="10.00">armnn/Types.hpp</text>
</a>
</g>
</g>
<!-- Node1&#45;&gt;Node18 -->
<g id="edge80" class="edge">
<title>Node1&#45;&gt;Node18</title>
<path fill="none" stroke="midnightblue" d="M564.31,-404.21C831.78,-394.53 1817,-354.57 1817,-291 1817,-291 1817,-291 1817,-233 1817,-194.58 1794.07,-185.77 1760,-168 1701.46,-137.47 1513,-127.54 1415.18,-124.4"/>
<polygon fill="midnightblue" stroke="midnightblue" points="1415.25,-120.9 1405.15,-124.09 1415.03,-127.89 1415.25,-120.9"/>
</g>
<!-- Node23 -->
<g id="node23" class="node">
<title>Node23</title>
<g id="a_node23"><a xlink:href="_network_fwd_8hpp.html" target="_top" xlink:title=" ">
<polygon fill="white" stroke="black" points="374,-224.5 374,-243.5 508,-243.5 508,-224.5 374,-224.5"/>
<text text-anchor="middle" x="441" y="-231.5" font-family="Helvetica,sans-Serif" font-size="10.00">armnn/NetworkFwd.hpp</text>
</a>
</g>
</g>
<!-- Node1&#45;&gt;Node23 -->
<g id="edge79" class="edge">
<title>Node1&#45;&gt;Node23</title>
<path fill="none" stroke="midnightblue" d="M460.63,-392.4C423.89,-376.28 369.95,-346.02 346,-300 332.64,-274.33 364.8,-256.9 395.25,-246.6"/>
<polygon fill="midnightblue" stroke="midnightblue" points="396.54,-249.87 405.02,-243.51 394.43,-243.19 396.54,-249.87"/>
</g>
<!-- Node3 -->
<g id="node3" class="node">
<title>Node3</title>
<g id="a_node3"><a xlink:href="_backend_options_8hpp.html" target="_top" xlink:title=" ">
<polygon fill="white" stroke="black" points="1441.5,-224.5 1441.5,-243.5 1592.5,-243.5 1592.5,-224.5 1441.5,-224.5"/>
<text text-anchor="middle" x="1517" y="-231.5" font-family="Helvetica,sans-Serif" font-size="10.00">armnn/BackendOptions.hpp</text>
</a>
</g>
</g>
<!-- Node2&#45;&gt;Node3 -->
<g id="edge2" class="edge">
<title>Node2&#45;&gt;Node3</title>
<path fill="none" stroke="midnightblue" d="M556.15,-343.7C674.82,-340.49 953.28,-330.15 1185,-300 1288.17,-286.58 1407.52,-260.61 1471.27,-245.88"/>
<polygon fill="midnightblue" stroke="midnightblue" points="1472.43,-249.21 1481.38,-243.53 1470.85,-242.39 1472.43,-249.21"/>
</g>
<!-- Node5 -->
<g id="node5" class="node">
<title>Node5</title>
<g id="a_node5"><a xlink:title=" ">
<polygon fill="white" stroke="#bfbfbf" points="1429,-0.5 1429,-19.5 1487,-19.5 1487,-0.5 1429,-0.5"/>
<text text-anchor="middle" x="1458" y="-7.5" font-family="Helvetica,sans-Serif" font-size="10.00">memory</text>
</a>
</g>
</g>
<!-- Node2&#45;&gt;Node5 -->
<g id="edge77" class="edge">
<title>Node2&#45;&gt;Node5</title>
<path fill="none" stroke="midnightblue" d="M556.38,-344.85C793.46,-343.62 1675.44,-333.07 1758,-244 1861.08,-132.79 1648.57,-79.99 1600,-56 1581.8,-47.01 1532.51,-32.12 1497.12,-21.95"/>
<polygon fill="midnightblue" stroke="midnightblue" points="1497.66,-18.47 1487.08,-19.09 1495.74,-25.2 1497.66,-18.47"/>
</g>
<!-- Node10 -->
<g id="node10" class="node">
<title>Node10</title>
<g id="a_node10"><a xlink:title=" ">
<polygon fill="white" stroke="#bfbfbf" points="586.5,-0.5 586.5,-19.5 633.5,-19.5 633.5,-0.5 586.5,-0.5"/>
<text text-anchor="middle" x="610" y="-7.5" font-family="Helvetica,sans-Serif" font-size="10.00">vector</text>
</a>
</g>
</g>
<!-- Node2&#45;&gt;Node10 -->
<g id="edge78" class="edge">
<title>Node2&#45;&gt;Node10</title>
<path fill="none" stroke="midnightblue" d="M439.9,-344.3C308.53,-341.13 0,-324.21 0,-235 0,-235 0,-235 0,-121 0,-34.27 99.41,-75.13 184,-56 327.17,-23.62 502.79,-14.42 575.73,-11.91"/>
<polygon fill="midnightblue" stroke="midnightblue" points="576.25,-15.39 586.13,-11.57 576.02,-8.39 576.25,-15.39"/>
</g>
<!-- Node15 -->
<g id="node15" class="node">
<title>Node15</title>
<g id="a_node15"><a xlink:href="_deprecated_8hpp.html" target="_top" xlink:title=" ">
<polygon fill="white" stroke="black" points="1074,-56.5 1074,-75.5 1202,-75.5 1202,-56.5 1074,-56.5"/>
<text text-anchor="middle" x="1138" y="-63.5" font-family="Helvetica,sans-Serif" font-size="10.00">armnn/Deprecated.hpp</text>
</a>
</g>
</g>
<!-- Node2&#45;&gt;Node15 -->
<g id="edge15" class="edge">
<title>Node2&#45;&gt;Node15</title>
<path fill="none" stroke="midnightblue" d="M503.33,-336.46C508.89,-327.47 517.78,-312.87 525,-300 557.38,-242.26 539.77,-205.97 594,-168 693.17,-98.56 748.46,-168.15 864,-132 882.59,-126.18 884.58,-118.34 903,-112 933.91,-101.36 1015.64,-86.79 1074.02,-77.15"/>
<polygon fill="midnightblue" stroke="midnightblue" points="1074.6,-80.6 1083.9,-75.53 1073.47,-73.69 1074.6,-80.6"/>
</g>
<!-- Node16 -->
<g id="node16" class="node">
<title>Node16</title>
<g id="a_node16"><a xlink:href="_descriptors_fwd_8hpp.html" target="_top" xlink:title=" ">
<polygon fill="white" stroke="black" points="66,-224.5 66,-243.5 214,-243.5 214,-224.5 66,-224.5"/>
<text text-anchor="middle" x="140" y="-231.5" font-family="Helvetica,sans-Serif" font-size="10.00">armnn/DescriptorsFwd.hpp</text>
</a>
</g>
</g>
<!-- Node2&#45;&gt;Node16 -->
<g id="edge16" class="edge">
<title>Node2&#45;&gt;Node16</title>
<path fill="none" stroke="midnightblue" d="M459.5,-336.43C423.24,-328.08 367.55,-314.56 320,-300 266.86,-283.73 206.31,-260.97 170.73,-247.15"/>
<polygon fill="midnightblue" stroke="midnightblue" points="171.97,-243.88 161.38,-243.5 169.42,-250.4 171.97,-243.88"/>
</g>
<!-- Node17 -->
<g id="node17" class="node">
<title>Node17</title>
<g id="a_node17"><a xlink:href="_i_strategy_8hpp.html" target="_top" xlink:title=" ">
<polygon fill="white" stroke="black" points="354.5,-280.5 354.5,-299.5 469.5,-299.5 469.5,-280.5 354.5,-280.5"/>
<text text-anchor="middle" x="412" y="-287.5" font-family="Helvetica,sans-Serif" font-size="10.00">armnn/IStrategy.hpp</text>
</a>
</g>
</g>
<!-- Node2&#45;&gt;Node17 -->
<g id="edge17" class="edge">
<title>Node2&#45;&gt;Node17</title>
<path fill="none" stroke="midnightblue" d="M484.18,-336.32C470.77,-327.9 450.18,-314.97 434.41,-305.07"/>
<polygon fill="midnightblue" stroke="midnightblue" points="436.11,-302.01 425.78,-299.65 432.39,-307.94 436.11,-302.01"/>
</g>
<!-- Node2&#45;&gt;Node23 -->
<g id="edge29" class="edge">
<title>Node2&#45;&gt;Node23</title>
<path fill="none" stroke="midnightblue" d="M496.62,-336.14C494.34,-323.2 489.01,-298.64 479,-280 473.34,-269.46 464.92,-259.15 457.44,-251.07"/>
<polygon fill="midnightblue" stroke="midnightblue" points="459.88,-248.56 450.41,-243.8 454.84,-253.42 459.88,-248.56"/>
</g>
<!-- Node24 -->
<g id="node24" class="node">
<title>Node24</title>
<g id="a_node24"><a xlink:href="_tensor_fwd_8hpp.html" target="_top" xlink:title=" ">
<polygon fill="white" stroke="black" points="232,-224.5 232,-243.5 356,-243.5 356,-224.5 232,-224.5"/>
<text text-anchor="middle" x="294" y="-231.5" font-family="Helvetica,sans-Serif" font-size="10.00">armnn/TensorFwd.hpp</text>
</a>
</g>
</g>
<!-- Node2&#45;&gt;Node24 -->
<g id="edge34" class="edge">
<title>Node2&#45;&gt;Node24</title>
<path fill="none" stroke="midnightblue" d="M440.3,-336.48C410.28,-330.01 374.09,-318.89 346,-300 327.7,-287.7 312.74,-266.97 303.64,-252.23"/>
<polygon fill="midnightblue" stroke="midnightblue" points="306.63,-250.4 298.53,-243.56 300.6,-253.95 306.63,-250.4"/>
</g>
<!-- Node25 -->
<g id="node25" class="node">
<title>Node25</title>
<g id="a_node25"><a xlink:href="_optional_8hpp.html" target="_top" xlink:title=" ">
<polygon fill="white" stroke="black" points="741.5,-112.5 741.5,-131.5 854.5,-131.5 854.5,-112.5 741.5,-112.5"/>
<text text-anchor="middle" x="798" y="-119.5" font-family="Helvetica,sans-Serif" font-size="10.00">armnn/Optional.hpp</text>
</a>
</g>
</g>
<!-- Node2&#45;&gt;Node25 -->
<g id="edge30" class="edge">
<title>Node2&#45;&gt;Node25</title>
<path fill="none" stroke="midnightblue" d="M499.82,-336.43C506.81,-304.25 532.97,-191.25 560,-168 585.22,-146.31 670.15,-134.24 731.37,-128.19"/>
<polygon fill="midnightblue" stroke="midnightblue" points="731.73,-131.67 741.36,-127.23 731.07,-124.7 731.73,-131.67"/>
</g>
<!-- Node28 -->
<g id="node28" class="node">
<title>Node28</title>
<g id="a_node28"><a xlink:href="_logging_8hpp.html" target="_top" xlink:title=" ">
<polygon fill="white" stroke="black" points="360,-112.5 360,-131.5 470,-131.5 470,-112.5 360,-112.5"/>
<text text-anchor="middle" x="415" y="-119.5" font-family="Helvetica,sans-Serif" font-size="10.00">armnn/Logging.hpp</text>
</a>
</g>
</g>
<!-- Node2&#45;&gt;Node28 -->
<g id="edge35" class="edge">
<title>Node2&#45;&gt;Node28</title>
<path fill="none" stroke="midnightblue" d="M439.76,-340.67C330.77,-331.21 102.82,-304.5 57,-244 -20.06,-142.26 226.71,-125.27 349.66,-122.98"/>
<polygon fill="midnightblue" stroke="midnightblue" points="349.79,-126.48 359.73,-122.82 349.67,-119.48 349.79,-126.48"/>
</g>
<!-- Node35 -->
<g id="node35" class="node">
<title>Node35</title>
<g id="a_node35"><a xlink:href="_tensor_handle_8hpp.html" target="_top" xlink:title=" ">
<polygon fill="white" stroke="black" points="988.5,-280.5 988.5,-299.5 1175.5,-299.5 1175.5,-280.5 988.5,-280.5"/>
<text text-anchor="middle" x="1082" y="-287.5" font-family="Helvetica,sans-Serif" font-size="10.00">armnn/backends/TensorHandle.hpp</text>
</a>
</g>
</g>
<!-- Node2&#45;&gt;Node35 -->
<g id="edge47" class="edge">
<title>Node2&#45;&gt;Node35</title>
<path fill="none" stroke="midnightblue" d="M556.13,-339.62C654.98,-330.48 857.02,-311.8 979.87,-300.44"/>
<polygon fill="midnightblue" stroke="midnightblue" points="980.41,-303.91 990.04,-299.5 979.76,-296.94 980.41,-303.91"/>
</g>
<!-- Node4 -->
<g id="node4" class="node">
<title>Node4</title>
<g id="a_node4"><a xlink:href="_backend_id_8hpp.html" target="_top" xlink:title=" ">
<polygon fill="white" stroke="black" points="1503,-56.5 1503,-75.5 1591,-75.5 1591,-56.5 1503,-56.5"/>
<text text-anchor="middle" x="1547" y="-63.5" font-family="Helvetica,sans-Serif" font-size="10.00">BackendId.hpp</text>
</a>
</g>
</g>
<!-- Node3&#45;&gt;Node4 -->
<g id="edge3" class="edge">
<title>Node3&#45;&gt;Node4</title>
<path fill="none" stroke="midnightblue" d="M1533.63,-224.46C1546.49,-216.84 1563.34,-204.36 1571,-188 1585.33,-157.41 1579.19,-144.77 1571,-112 1568.56,-102.25 1563.56,-92.29 1558.76,-84.23"/>
<polygon fill="midnightblue" stroke="midnightblue" points="1561.69,-82.32 1553.37,-75.77 1555.79,-86.08 1561.69,-82.32"/>
</g>
<!-- Node11 -->
<g id="node11" class="node">
<title>Node11</title>
<g id="a_node11"><a xlink:href="_exceptions_8hpp.html" target="_top" xlink:title=" ">
<polygon fill="white" stroke="black" points="930.5,-56.5 930.5,-75.5 1055.5,-75.5 1055.5,-56.5 930.5,-56.5"/>
<text text-anchor="middle" x="993" y="-63.5" font-family="Helvetica,sans-Serif" font-size="10.00">armnn/Exceptions.hpp</text>
</a>
</g>
</g>
<!-- Node3&#45;&gt;Node11 -->
<g id="edge10" class="edge">
<title>Node3&#45;&gt;Node11</title>
<path fill="none" stroke="midnightblue" d="M1507.45,-224.43C1491.39,-210.49 1457.45,-182.94 1424,-168 1389.16,-152.44 1149,-100.24 1043.04,-77.61"/>
<polygon fill="midnightblue" stroke="midnightblue" points="1043.73,-74.18 1033.22,-75.52 1042.27,-81.02 1043.73,-74.18"/>
</g>
<!-- Node14 -->
<g id="node14" class="node">
<title>Node14</title>
<g id="a_node14"><a xlink:title=" ">
<polygon fill="white" stroke="#bfbfbf" points="1699,-168.5 1699,-187.5 1751,-187.5 1751,-168.5 1699,-168.5"/>
<text text-anchor="middle" x="1725" y="-175.5" font-family="Helvetica,sans-Serif" font-size="10.00">cassert</text>
</a>
</g>
</g>
<!-- Node3&#45;&gt;Node14 -->
<g id="edge14" class="edge">
<title>Node3&#45;&gt;Node14</title>
<path fill="none" stroke="midnightblue" d="M1549.96,-224.44C1587.81,-214.62 1649.72,-198.54 1688.87,-188.38"/>
<polygon fill="midnightblue" stroke="midnightblue" points="1689.98,-191.71 1698.78,-185.81 1688.22,-184.93 1689.98,-191.71"/>
</g>
<!-- Node4&#45;&gt;Node5 -->
<g id="edge4" class="edge">
<title>Node4&#45;&gt;Node5</title>
<path fill="none" stroke="midnightblue" d="M1532.7,-56.32C1518.82,-47.9 1497.51,-34.97 1481.2,-25.07"/>
<polygon fill="midnightblue" stroke="midnightblue" points="1482.63,-21.85 1472.26,-19.65 1479,-27.83 1482.63,-21.85"/>
</g>
<!-- Node6 -->
<g id="node6" class="node">
<title>Node6</title>
<g id="a_node6"><a xlink:title=" ">
<polygon fill="white" stroke="#bfbfbf" points="1612.5,-0.5 1612.5,-19.5 1669.5,-19.5 1669.5,-0.5 1612.5,-0.5"/>
<text text-anchor="middle" x="1641" y="-7.5" font-family="Helvetica,sans-Serif" font-size="10.00">ostream</text>
</a>
</g>
</g>
<!-- Node4&#45;&gt;Node6 -->
<g id="edge5" class="edge">
<title>Node4&#45;&gt;Node6</title>
<path fill="none" stroke="midnightblue" d="M1562.1,-56.32C1576.9,-47.82 1599.69,-34.73 1616.98,-24.8"/>
<polygon fill="midnightblue" stroke="midnightblue" points="1619.01,-27.67 1625.93,-19.65 1615.52,-21.6 1619.01,-27.67"/>
</g>
<!-- Node7 -->
<g id="node7" class="node">
<title>Node7</title>
<g id="a_node7"><a xlink:title=" ">
<polygon fill="white" stroke="#bfbfbf" points="1690,-0.5 1690,-19.5 1722,-19.5 1722,-0.5 1690,-0.5"/>
<text text-anchor="middle" x="1706" y="-7.5" font-family="Helvetica,sans-Serif" font-size="10.00">set</text>
</a>
</g>
</g>
<!-- Node4&#45;&gt;Node7 -->
<g id="edge6" class="edge">
<title>Node4&#45;&gt;Node7</title>
<path fill="none" stroke="midnightblue" d="M1572.19,-56.44C1601.65,-46.44 1650.15,-29.97 1679.96,-19.84"/>
<polygon fill="midnightblue" stroke="midnightblue" points="1681.32,-23.08 1689.66,-16.55 1679.07,-16.45 1681.32,-23.08"/>
</g>
<!-- Node8 -->
<g id="node8" class="node">
<title>Node8</title>
<g id="a_node8"><a xlink:title=" ">
<polygon fill="white" stroke="#bfbfbf" points="734,-0.5 734,-19.5 778,-19.5 778,-0.5 734,-0.5"/>
<text text-anchor="middle" x="756" y="-7.5" font-family="Helvetica,sans-Serif" font-size="10.00">string</text>
</a>
</g>
</g>
<!-- Node4&#45;&gt;Node8 -->
<g id="edge7" class="edge">
<title>Node4&#45;&gt;Node8</title>
<path fill="none" stroke="midnightblue" d="M1502.8,-57.13C1499.83,-56.71 1496.87,-56.33 1494,-56 1458.5,-51.92 926.18,-20.88 788.38,-12.88"/>
<polygon fill="midnightblue" stroke="midnightblue" points="788.25,-9.36 778.07,-12.28 787.85,-16.35 788.25,-9.36"/>
</g>
<!-- Node9 -->
<g id="node9" class="node">
<title>Node9</title>
<g id="a_node9"><a xlink:title=" ">
<polygon fill="white" stroke="#bfbfbf" points="1505,-0.5 1505,-19.5 1591,-19.5 1591,-0.5 1505,-0.5"/>
<text text-anchor="middle" x="1548" y="-7.5" font-family="Helvetica,sans-Serif" font-size="10.00">unordered_set</text>
</a>
</g>
</g>
<!-- Node4&#45;&gt;Node9 -->
<g id="edge8" class="edge">
<title>Node4&#45;&gt;Node9</title>
<path fill="none" stroke="midnightblue" d="M1547.17,-56.08C1547.3,-49.01 1547.48,-38.86 1547.65,-29.99"/>
<polygon fill="midnightblue" stroke="midnightblue" points="1551.15,-29.81 1547.84,-19.75 1544.15,-29.68 1551.15,-29.81"/>
</g>
<!-- Node4&#45;&gt;Node10 -->
<g id="edge9" class="edge">
<title>Node4&#45;&gt;Node10</title>
<path fill="none" stroke="midnightblue" d="M1502.81,-57.08C1499.83,-56.68 1496.88,-56.31 1494,-56 1153.82,-19.29 1066.49,-41.35 725,-20 697.74,-18.3 666.88,-15.85 644,-13.94"/>
<polygon fill="midnightblue" stroke="midnightblue" points="644.03,-10.43 633.77,-13.08 643.44,-17.41 644.03,-10.43"/>
</g>
<!-- Node11&#45;&gt;Node8 -->
<g id="edge13" class="edge">
<title>Node11&#45;&gt;Node8</title>
<path fill="none" stroke="midnightblue" d="M955.45,-56.44C909.17,-45.9 831.33,-28.16 787.85,-18.26"/>
<polygon fill="midnightblue" stroke="midnightblue" points="788.61,-14.84 778.08,-16.03 787.06,-21.67 788.61,-14.84"/>
</g>
<!-- Node12 -->
<g id="node12" class="node">
<title>Node12</title>
<g id="a_node12"><a xlink:title=" ">
<polygon fill="white" stroke="#bfbfbf" points="1005,-0.5 1005,-19.5 1061,-19.5 1061,-0.5 1005,-0.5"/>
<text text-anchor="middle" x="1033" y="-7.5" font-family="Helvetica,sans-Serif" font-size="10.00">sstream</text>
</a>
</g>
</g>
<!-- Node11&#45;&gt;Node12 -->
<g id="edge11" class="edge">
<title>Node11&#45;&gt;Node12</title>
<path fill="none" stroke="midnightblue" d="M999.61,-56.08C1005.26,-48.46 1013.54,-37.26 1020.45,-27.94"/>
<polygon fill="midnightblue" stroke="midnightblue" points="1023.38,-29.87 1026.52,-19.75 1017.75,-25.7 1023.38,-29.87"/>
</g>
<!-- Node13 -->
<g id="node13" class="node">
<title>Node13</title>
<g id="a_node13"><a xlink:title=" ">
<polygon fill="white" stroke="#bfbfbf" points="921.5,-0.5 921.5,-19.5 986.5,-19.5 986.5,-0.5 921.5,-0.5"/>
<text text-anchor="middle" x="954" y="-7.5" font-family="Helvetica,sans-Serif" font-size="10.00">stdexcept</text>
</a>
</g>
</g>
<!-- Node11&#45;&gt;Node13 -->
<g id="edge12" class="edge">
<title>Node11&#45;&gt;Node13</title>
<path fill="none" stroke="midnightblue" d="M986.56,-56.08C981.05,-48.46 972.97,-37.26 966.24,-27.94"/>
<polygon fill="midnightblue" stroke="midnightblue" points="969.01,-25.81 960.32,-19.75 963.34,-29.91 969.01,-25.81"/>
</g>
<!-- Node17&#45;&gt;Node16 -->
<g id="edge18" class="edge">
<title>Node17&#45;&gt;Node16</title>
<path fill="none" stroke="midnightblue" d="M368.9,-280.44C321.15,-270.96 244.14,-255.67 192.81,-245.48"/>
<polygon fill="midnightblue" stroke="midnightblue" points="193.39,-242.03 182.9,-243.52 192.02,-248.9 193.39,-242.03"/>
</g>
<!-- Node17&#45;&gt;Node18 -->
<g id="edge19" class="edge">
<title>Node17&#45;&gt;Node18</title>
<path fill="none" stroke="midnightblue" d="M469.55,-289.94C578.1,-290.57 819.96,-286.51 1018,-244 1114.64,-223.26 1133.93,-201.28 1227,-168 1258.72,-156.66 1294.95,-143.94 1320.75,-134.93"/>
<polygon fill="midnightblue" stroke="midnightblue" points="1322.15,-138.15 1330.43,-131.55 1319.84,-131.54 1322.15,-138.15"/>
</g>
<!-- Node17&#45;&gt;Node23 -->
<g id="edge27" class="edge">
<title>Node17&#45;&gt;Node23</title>
<path fill="none" stroke="midnightblue" d="M416.79,-280.08C420.76,-272.69 426.53,-261.95 431.43,-252.81"/>
<polygon fill="midnightblue" stroke="midnightblue" points="434.65,-254.22 436.3,-243.75 428.49,-250.91 434.65,-254.22"/>
</g>
<!-- Node17&#45;&gt;Node24 -->
<g id="edge28" class="edge">
<title>Node17&#45;&gt;Node24</title>
<path fill="none" stroke="midnightblue" d="M393.3,-280.44C374.06,-271.64 343.85,-257.81 321.8,-247.72"/>
<polygon fill="midnightblue" stroke="midnightblue" points="323.16,-244.5 312.61,-243.52 320.25,-250.86 323.16,-244.5"/>
</g>
<!-- Node18&#45;&gt;Node4 -->
<g id="edge24" class="edge">
<title>Node18&#45;&gt;Node4</title>
<path fill="none" stroke="midnightblue" d="M1385.42,-112.44C1418.28,-103.2 1470.78,-88.44 1506.97,-78.26"/>
<polygon fill="midnightblue" stroke="midnightblue" points="1508.04,-81.59 1516.72,-75.52 1506.15,-74.85 1508.04,-81.59"/>
</g>
<!-- Node18&#45;&gt;Node11 -->
<g id="edge25" class="edge">
<title>Node18&#45;&gt;Node11</title>
<path fill="none" stroke="midnightblue" d="M1304.67,-113.49C1240.97,-103.99 1131.04,-87.59 1060.22,-77.03"/>
<polygon fill="midnightblue" stroke="midnightblue" points="1060.47,-73.53 1050.06,-75.51 1059.43,-80.45 1060.47,-73.53"/>
</g>
<!-- Node18&#45;&gt;Node15 -->
<g id="edge26" class="edge">
<title>Node18&#45;&gt;Node15</title>
<path fill="none" stroke="midnightblue" d="M1320.62,-112.44C1283.08,-103.1 1222.87,-88.12 1181.93,-77.93"/>
<polygon fill="midnightblue" stroke="midnightblue" points="1182.77,-74.53 1172.22,-75.52 1181.08,-81.33 1182.77,-74.53"/>
</g>
<!-- Node19 -->
<g id="node19" class="node">
<title>Node19</title>
<g id="a_node19"><a xlink:title=" ">
<polygon fill="white" stroke="#bfbfbf" points="1220,-56.5 1220,-75.5 1262,-75.5 1262,-56.5 1220,-56.5"/>
<text text-anchor="middle" x="1241" y="-63.5" font-family="Helvetica,sans-Serif" font-size="10.00">array</text>
</a>
</g>
</g>
<!-- Node18&#45;&gt;Node19 -->
<g id="edge20" class="edge">
<title>Node18&#45;&gt;Node19</title>
<path fill="none" stroke="midnightblue" d="M1336.94,-112.44C1318.43,-103.68 1289.42,-89.94 1268.14,-79.86"/>
<polygon fill="midnightblue" stroke="midnightblue" points="1269.51,-76.63 1258.98,-75.52 1266.52,-82.96 1269.51,-76.63"/>
</g>
<!-- Node20 -->
<g id="node20" class="node">
<title>Node20</title>
<g id="a_node20"><a xlink:title=" ">
<polygon fill="white" stroke="#bfbfbf" points="1348.5,-56.5 1348.5,-75.5 1413.5,-75.5 1413.5,-56.5 1348.5,-56.5"/>
<text text-anchor="middle" x="1381" y="-63.5" font-family="Helvetica,sans-Serif" font-size="10.00">functional</text>
</a>
</g>
</g>
<!-- Node18&#45;&gt;Node20 -->
<g id="edge21" class="edge">
<title>Node18&#45;&gt;Node20</title>
<path fill="none" stroke="midnightblue" d="M1359.29,-112.08C1362.85,-104.69 1368.02,-93.95 1372.42,-84.81"/>
<polygon fill="midnightblue" stroke="midnightblue" points="1375.6,-86.28 1376.79,-75.75 1369.29,-83.24 1375.6,-86.28"/>
</g>
<!-- Node21 -->
<g id="node21" class="node">
<title>Node21</title>
<g id="a_node21"><a xlink:title=" ">
<polygon fill="white" stroke="#bfbfbf" points="1431.5,-56.5 1431.5,-75.5 1484.5,-75.5 1484.5,-56.5 1431.5,-56.5"/>
<text text-anchor="middle" x="1458" y="-63.5" font-family="Helvetica,sans-Serif" font-size="10.00">stdint.h</text>
</a>
</g>
</g>
<!-- Node18&#45;&gt;Node21 -->
<g id="edge22" class="edge">
<title>Node18&#45;&gt;Node21</title>
<path fill="none" stroke="midnightblue" d="M1371.55,-112.32C1387.99,-103.7 1413.43,-90.36 1432.47,-80.39"/>
<polygon fill="midnightblue" stroke="midnightblue" points="1434.26,-83.4 1441.49,-75.65 1431.01,-77.2 1434.26,-83.4"/>
</g>
<!-- Node22 -->
<g id="node22" class="node">
<title>Node22</title>
<g id="a_node22"><a xlink:title=" ">
<polygon fill="white" stroke="#bfbfbf" points="1280,-56.5 1280,-75.5 1330,-75.5 1330,-56.5 1280,-56.5"/>
<text text-anchor="middle" x="1305" y="-63.5" font-family="Helvetica,sans-Serif" font-size="10.00">chrono</text>
</a>
</g>
</g>
<!-- Node18&#45;&gt;Node22 -->
<g id="edge23" class="edge">
<title>Node18&#45;&gt;Node22</title>
<path fill="none" stroke="midnightblue" d="M1346.74,-112.08C1339.54,-104.3 1328.89,-92.8 1320.15,-83.37"/>
<polygon fill="midnightblue" stroke="midnightblue" points="1322.47,-80.71 1313.1,-75.75 1317.33,-85.47 1322.47,-80.71"/>
</g>
<!-- Node25&#45;&gt;Node11 -->
<g id="edge31" class="edge">
<title>Node25&#45;&gt;Node11</title>
<path fill="none" stroke="midnightblue" d="M828.9,-112.44C862.27,-103.2 915.59,-88.44 952.35,-78.26"/>
<polygon fill="midnightblue" stroke="midnightblue" points="953.54,-81.56 962.25,-75.52 951.67,-74.81 953.54,-81.56"/>
</g>
<!-- Node26 -->
<g id="node26" class="node">
<title>Node26</title>
<g id="a_node26"><a xlink:title=" ">
<polygon fill="white" stroke="#bfbfbf" points="773,-56.5 773,-75.5 823,-75.5 823,-56.5 773,-56.5"/>
<text text-anchor="middle" x="798" y="-63.5" font-family="Helvetica,sans-Serif" font-size="10.00">cstring</text>
</a>
</g>
</g>
<!-- Node25&#45;&gt;Node26 -->
<g id="edge32" class="edge">
<title>Node25&#45;&gt;Node26</title>
<path fill="none" stroke="midnightblue" d="M798,-112.08C798,-105.01 798,-94.86 798,-85.99"/>
<polygon fill="midnightblue" stroke="midnightblue" points="801.5,-85.75 798,-75.75 794.5,-85.75 801.5,-85.75"/>
</g>
<!-- Node27 -->
<g id="node27" class="node">
<title>Node27</title>
<g id="a_node27"><a xlink:title=" ">
<polygon fill="white" stroke="#bfbfbf" points="843.5,-56.5 843.5,-75.5 912.5,-75.5 912.5,-56.5 843.5,-56.5"/>
<text text-anchor="middle" x="878" y="-63.5" font-family="Helvetica,sans-Serif" font-size="10.00">type_traits</text>
</a>
</g>
</g>
<!-- Node25&#45;&gt;Node27 -->
<g id="edge33" class="edge">
<title>Node25&#45;&gt;Node27</title>
<path fill="none" stroke="midnightblue" d="M810.85,-112.32C823.22,-103.98 842.13,-91.21 856.74,-81.35"/>
<polygon fill="midnightblue" stroke="midnightblue" points="858.85,-84.15 865.18,-75.65 854.93,-78.35 858.85,-84.15"/>
</g>
<!-- Node28&#45;&gt;Node5 -->
<g id="edge42" class="edge">
<title>Node28&#45;&gt;Node5</title>
<path fill="none" stroke="midnightblue" d="M435.65,-112.5C456.92,-103.66 490.97,-89.29 520,-76 538.43,-67.56 541.37,-61.06 561,-56 644.68,-34.46 1255.92,-16.48 1418.42,-12.05"/>
<polygon fill="midnightblue" stroke="midnightblue" points="1419,-15.53 1428.9,-11.77 1418.81,-8.54 1419,-15.53"/>
</g>
<!-- Node28&#45;&gt;Node8 -->
<g id="edge43" class="edge">
<title>Node28&#45;&gt;Node8</title>
<path fill="none" stroke="midnightblue" d="M426.88,-112.39C446.79,-98.39 488.58,-70.77 528,-56 595.16,-30.84 678.98,-18.93 723.94,-13.99"/>
<polygon fill="midnightblue" stroke="midnightblue" points="724.4,-17.46 733.98,-12.94 723.67,-10.5 724.4,-17.46"/>
</g>
<!-- Node28&#45;&gt;Node10 -->
<g id="edge45" class="edge">
<title>Node28&#45;&gt;Node10</title>
<path fill="none" stroke="midnightblue" d="M402.07,-112.39C384.34,-99.54 356.37,-74.86 372,-56 397.56,-25.15 516.94,-15.29 576.31,-12.27"/>
<polygon fill="midnightblue" stroke="midnightblue" points="576.49,-15.77 586.32,-11.8 576.16,-8.77 576.49,-15.77"/>
</g>
<!-- Node28&#45;&gt;Node11 -->
<g id="edge46" class="edge">
<title>Node28&#45;&gt;Node11</title>
<path fill="none" stroke="midnightblue" d="M470.21,-116.78C561.61,-109.65 750.37,-94.29 920.17,-76.16"/>
<polygon fill="midnightblue" stroke="midnightblue" points="920.73,-79.63 930.3,-75.08 919.98,-72.67 920.73,-79.63"/>
</g>
<!-- Node29 -->
<g id="node29" class="node">
<title>Node29</title>
<g id="a_node29"><a xlink:href="_utils_8hpp.html" target="_top" xlink:title=" ">
<polygon fill="white" stroke="black" points="380.5,-56.5 380.5,-75.5 475.5,-75.5 475.5,-56.5 380.5,-56.5"/>
<text text-anchor="middle" x="428" y="-63.5" font-family="Helvetica,sans-Serif" font-size="10.00">armnn/Utils.hpp</text>
</a>
</g>
</g>
<!-- Node28&#45;&gt;Node29 -->
<g id="edge36" class="edge">
<title>Node28&#45;&gt;Node29</title>
<path fill="none" stroke="midnightblue" d="M417.15,-112.08C418.87,-104.93 421.35,-94.64 423.5,-85.69"/>
<polygon fill="midnightblue" stroke="midnightblue" points="426.96,-86.29 425.89,-75.75 420.15,-84.65 426.96,-86.29"/>
</g>
<!-- Node31 -->
<g id="node31" class="node">
<title>Node31</title>
<g id="a_node31"><a xlink:title=" ">
<polygon fill="white" stroke="#bfbfbf" points="192.5,-56.5 192.5,-75.5 245.5,-75.5 245.5,-56.5 192.5,-56.5"/>
<text text-anchor="middle" x="219" y="-63.5" font-family="Helvetica,sans-Serif" font-size="10.00">ctype.h</text>
</a>
</g>
</g>
<!-- Node28&#45;&gt;Node31 -->
<g id="edge39" class="edge">
<title>Node28&#45;&gt;Node31</title>
<path fill="none" stroke="midnightblue" d="M383.94,-112.44C349.02,-102.82 292.36,-87.21 255.38,-77.02"/>
<polygon fill="midnightblue" stroke="midnightblue" points="256.08,-73.59 245.51,-74.3 254.22,-80.33 256.08,-73.59"/>
</g>
<!-- Node32 -->
<g id="node32" class="node">
<title>Node32</title>
<g id="a_node32"><a xlink:title=" ">
<polygon fill="white" stroke="#bfbfbf" points="264,-56.5 264,-75.5 324,-75.5 324,-56.5 264,-56.5"/>
<text text-anchor="middle" x="294" y="-63.5" font-family="Helvetica,sans-Serif" font-size="10.00">iostream</text>
</a>
</g>
</g>
<!-- Node28&#45;&gt;Node32 -->
<g id="edge40" class="edge">
<title>Node28&#45;&gt;Node32</title>
<path fill="none" stroke="midnightblue" d="M395.83,-112.44C376.09,-103.64 345.11,-89.81 322.51,-79.72"/>
<polygon fill="midnightblue" stroke="midnightblue" points="323.64,-76.4 313.08,-75.52 320.79,-82.79 323.64,-76.4"/>
</g>
<!-- Node33 -->
<g id="node33" class="node">
<title>Node33</title>
<g id="a_node33"><a xlink:title=" ">
<polygon fill="white" stroke="#bfbfbf" points="570,-56.5 570,-75.5 634,-75.5 634,-56.5 570,-56.5"/>
<text text-anchor="middle" x="602" y="-63.5" font-family="Helvetica,sans-Serif" font-size="10.00">algorithm</text>
</a>
</g>
</g>
<!-- Node28&#45;&gt;Node33 -->
<g id="edge41" class="edge">
<title>Node28&#45;&gt;Node33</title>
<path fill="none" stroke="midnightblue" d="M444.63,-112.44C476.5,-103.24 527.33,-88.56 562.56,-78.39"/>
<polygon fill="midnightblue" stroke="midnightblue" points="563.87,-81.65 572.51,-75.52 561.93,-74.93 563.87,-81.65"/>
</g>
<!-- Node34 -->
<g id="node34" class="node">
<title>Node34</title>
<g id="a_node34"><a xlink:title=" ">
<polygon fill="white" stroke="#bfbfbf" points="652.5,-56.5 652.5,-75.5 697.5,-75.5 697.5,-56.5 652.5,-56.5"/>
<text text-anchor="middle" x="675" y="-63.5" font-family="Helvetica,sans-Serif" font-size="10.00">utility</text>
</a>
</g>
</g>
<!-- Node28&#45;&gt;Node34 -->
<g id="edge44" class="edge">
<title>Node28&#45;&gt;Node34</title>
<path fill="none" stroke="midnightblue" d="M464.17,-112.46C508.34,-104.53 575.15,-91.88 642.41,-75.98"/>
<polygon fill="midnightblue" stroke="midnightblue" points="643.42,-79.34 652.33,-73.61 641.79,-72.53 643.42,-79.34"/>
</g>
<!-- Node29&#45;&gt;Node8 -->
<g id="edge37" class="edge">
<title>Node29&#45;&gt;Node8</title>
<path fill="none" stroke="midnightblue" d="M475.69,-57.15C543.44,-46 665.73,-25.86 723.76,-16.31"/>
<polygon fill="midnightblue" stroke="midnightblue" points="724.52,-19.73 733.82,-14.65 723.38,-12.82 724.52,-19.73"/>
</g>
<!-- Node30 -->
<g id="node30" class="node">
<title>Node30</title>
<g id="a_node30"><a xlink:title=" ">
<polygon fill="white" stroke="#bfbfbf" points="272.5,-0.5 272.5,-19.5 319.5,-19.5 319.5,-0.5 272.5,-0.5"/>
<text text-anchor="middle" x="296" y="-7.5" font-family="Helvetica,sans-Serif" font-size="10.00">cmath</text>
</a>
</g>
</g>
<!-- Node29&#45;&gt;Node30 -->
<g id="edge38" class="edge">
<title>Node29&#45;&gt;Node30</title>
<path fill="none" stroke="midnightblue" d="M407.08,-56.44C385.26,-47.52 350.85,-33.44 326.11,-23.32"/>
<polygon fill="midnightblue" stroke="midnightblue" points="327.4,-20.06 316.82,-19.52 324.75,-26.54 327.4,-20.06"/>
</g>
<!-- Node35&#45;&gt;Node33 -->
<g id="edge76" class="edge">
<title>Node35&#45;&gt;Node33</title>
<path fill="none" stroke="midnightblue" d="M988.31,-283.3C860.78,-273.36 642.75,-247.88 594,-188 570.05,-158.59 583.78,-110.64 594.01,-84.82"/>
<polygon fill="midnightblue" stroke="midnightblue" points="597.27,-86.08 597.93,-75.51 590.82,-83.36 597.27,-86.08"/>
</g>
<!-- Node36 -->
<g id="node36" class="node">
<title>Node36</title>
<g id="a_node36"><a xlink:href="_i_tensor_handle_8hpp.html" target="_top" xlink:title=" ">
<polygon fill="white" stroke="black" points="901.5,-224.5 901.5,-243.5 1008.5,-243.5 1008.5,-224.5 901.5,-224.5"/>
<text text-anchor="middle" x="955" y="-231.5" font-family="Helvetica,sans-Serif" font-size="10.00">ITensorHandle.hpp</text>
</a>
</g>
</g>
<!-- Node35&#45;&gt;Node36 -->
<g id="edge48" class="edge">
<title>Node35&#45;&gt;Node36</title>
<path fill="none" stroke="midnightblue" d="M1061.88,-280.44C1040.98,-271.56 1008.07,-257.56 984.28,-247.45"/>
<polygon fill="midnightblue" stroke="midnightblue" points="985.6,-244.21 975.03,-243.52 982.86,-250.65 985.6,-244.21"/>
</g>
<!-- Node41 -->
<g id="node41" class="node">
<title>Node41</title>
<g id="a_node41"><a xlink:href="_types_utils_8hpp.html" target="_top" xlink:title=" ">
<polygon fill="white" stroke="black" points="1293,-224.5 1293,-243.5 1415,-243.5 1415,-224.5 1293,-224.5"/>
<text text-anchor="middle" x="1354" y="-231.5" font-family="Helvetica,sans-Serif" font-size="10.00">armnn/TypesUtils.hpp</text>
</a>
</g>
</g>
<!-- Node35&#45;&gt;Node41 -->
<g id="edge62" class="edge">
<title>Node35&#45;&gt;Node41</title>
<path fill="none" stroke="midnightblue" d="M1125.1,-280.44C1172.85,-270.96 1249.86,-255.67 1301.19,-245.48"/>
<polygon fill="midnightblue" stroke="midnightblue" points="1301.98,-248.9 1311.1,-243.52 1300.61,-242.03 1301.98,-248.9"/>
</g>
<!-- Node42 -->
<g id="node42" class="node">
<title>Node42</title>
<g id="a_node42"><a xlink:href="_assert_8hpp.html" target="_top" xlink:title=" ">
<polygon fill="white" stroke="black" points="1615,-224.5 1615,-243.5 1749,-243.5 1749,-224.5 1615,-224.5"/>
<text text-anchor="middle" x="1682" y="-231.5" font-family="Helvetica,sans-Serif" font-size="10.00">armnn/utility/Assert.hpp</text>
</a>
</g>
</g>
<!-- Node35&#45;&gt;Node42 -->
<g id="edge72" class="edge">
<title>Node35&#45;&gt;Node42</title>
<path fill="none" stroke="midnightblue" d="M1175.53,-281.63C1279.68,-273.26 1452.99,-258.83 1602,-244 1602.91,-243.91 1603.83,-243.82 1604.75,-243.72"/>
<polygon fill="midnightblue" stroke="midnightblue" points="1605.21,-247.2 1614.79,-242.69 1604.49,-240.23 1605.21,-247.2"/>
</g>
<!-- Node43 -->
<g id="node43" class="node">
<title>Node43</title>
<g id="a_node43"><a xlink:href="_compatible_types_8hpp.html" target="_top" xlink:title=" ">
<polygon fill="white" stroke="black" points="1235.5,-168.5 1235.5,-187.5 1414.5,-187.5 1414.5,-168.5 1235.5,-168.5"/>
<text text-anchor="middle" x="1325" y="-175.5" font-family="Helvetica,sans-Serif" font-size="10.00">armnnUtils/CompatibleTypes.hpp</text>
</a>
</g>
</g>
<!-- Node35&#45;&gt;Node43 -->
<g id="edge74" class="edge">
<title>Node35&#45;&gt;Node43</title>
<path fill="none" stroke="midnightblue" d="M1116.31,-280.43C1144.99,-272.67 1186.62,-260.01 1221,-244 1251.94,-229.59 1284.9,-207.75 1305.23,-193.42"/>
<polygon fill="midnightblue" stroke="midnightblue" points="1307.27,-196.27 1313.38,-187.61 1303.2,-190.57 1307.27,-196.27"/>
</g>
<!-- Node37 -->
<g id="node37" class="node">
<title>Node37</title>
<g id="a_node37"><a xlink:href="_memory_sources_8hpp.html" target="_top" xlink:title=" ">
<polygon fill="white" stroke="black" points="951.5,-168.5 951.5,-187.5 1102.5,-187.5 1102.5,-168.5 951.5,-168.5"/>
<text text-anchor="middle" x="1027" y="-175.5" font-family="Helvetica,sans-Serif" font-size="10.00">armnn/MemorySources.hpp</text>
</a>
</g>
</g>
<!-- Node36&#45;&gt;Node37 -->
<g id="edge49" class="edge">
<title>Node36&#45;&gt;Node37</title>
<path fill="none" stroke="midnightblue" d="M966.57,-224.32C977.42,-216.18 993.88,-203.84 1006.88,-194.09"/>
<polygon fill="midnightblue" stroke="midnightblue" points="1009.32,-196.63 1015.22,-187.83 1005.12,-191.03 1009.32,-196.63"/>
</g>
<!-- Node38 -->
<g id="node38" class="node">
<title>Node38</title>
<g id="a_node38"><a xlink:href="_ignore_unused_8hpp.html" target="_top" xlink:title=" ">
<polygon fill="white" stroke="black" points="602.5,-168.5 602.5,-187.5 773.5,-187.5 773.5,-168.5 602.5,-168.5"/>
<text text-anchor="middle" x="688" y="-175.5" font-family="Helvetica,sans-Serif" font-size="10.00">armnn/utility/IgnoreUnused.hpp</text>
</a>
</g>
</g>
<!-- Node36&#45;&gt;Node38 -->
<g id="edge52" class="edge">
<title>Node36&#45;&gt;Node38</title>
<path fill="none" stroke="midnightblue" d="M912.69,-224.44C865.92,-214.98 790.54,-199.74 740.15,-189.55"/>
<polygon fill="midnightblue" stroke="midnightblue" points="740.6,-186.07 730.11,-187.52 739.22,-192.93 740.6,-186.07"/>
</g>
<!-- Node39 -->
<g id="node39" class="node">
<title>Node39</title>
<g id="a_node39"><a xlink:href="_tensor_8hpp.html" target="_top" xlink:title=" ">
<polygon fill="white" stroke="black" points="830.5,-168.5 830.5,-187.5 933.5,-187.5 933.5,-168.5 830.5,-168.5"/>
<text text-anchor="middle" x="882" y="-175.5" font-family="Helvetica,sans-Serif" font-size="10.00">armnn/Tensor.hpp</text>
</a>
</g>
</g>
<!-- Node36&#45;&gt;Node39 -->
<g id="edge53" class="edge">
<title>Node36&#45;&gt;Node39</title>
<path fill="none" stroke="midnightblue" d="M943.27,-224.32C932.16,-216.11 915.26,-203.6 902.02,-193.81"/>
<polygon fill="midnightblue" stroke="midnightblue" points="904.06,-190.97 893.94,-187.83 899.9,-196.59 904.06,-190.97"/>
</g>
<!-- Node37&#45;&gt;Node18 -->
<g id="edge50" class="edge">
<title>Node37&#45;&gt;Node18</title>
<path fill="none" stroke="midnightblue" d="M1078.97,-168.44C1137.66,-158.78 1233.02,-143.08 1294.88,-132.9"/>
<polygon fill="midnightblue" stroke="midnightblue" points="1295.59,-136.33 1304.88,-131.25 1294.45,-129.42 1295.59,-136.33"/>
</g>
<!-- Node37&#45;&gt;Node27 -->
<g id="edge51" class="edge">
<title>Node37&#45;&gt;Node27</title>
<path fill="none" stroke="midnightblue" d="M1026.26,-168.17C1024.63,-154.35 1019.55,-127.6 1004,-112 992.09,-100.05 953.12,-87.17 921.64,-78.27"/>
<polygon fill="midnightblue" stroke="midnightblue" points="922.29,-74.82 911.72,-75.52 920.43,-81.56 922.29,-74.82"/>
</g>
<!-- Node39&#45;&gt;Node10 -->
<g id="edge60" class="edge">
<title>Node39&#45;&gt;Node10</title>
<path fill="none" stroke="midnightblue" d="M838.5,-168.46C800.18,-160.14 748.17,-146.63 733,-132 707.3,-107.22 730.89,-82.53 707,-56 690.24,-37.39 664.2,-25.89 643.32,-19.19"/>
<polygon fill="midnightblue" stroke="midnightblue" points="644.13,-15.77 633.55,-16.27 642.13,-22.48 644.13,-15.77"/>
</g>
<!-- Node39&#45;&gt;Node11 -->
<g id="edge54" class="edge">
<title>Node39&#45;&gt;Node11</title>
<path fill="none" stroke="midnightblue" d="M918.39,-168.46C950.55,-160.08 993.9,-146.49 1004,-132 1013.58,-118.25 1008.6,-98.96 1002.58,-84.97"/>
<polygon fill="midnightblue" stroke="midnightblue" points="1005.7,-83.37 998.21,-75.87 999.39,-86.4 1005.7,-83.37"/>
</g>
<!-- Node39&#45;&gt;Node18 -->
<g id="edge56" class="edge">
<title>Node39&#45;&gt;Node18</title>
<path fill="none" stroke="midnightblue" d="M933.56,-169.23C936.75,-168.8 939.92,-168.39 943,-168 1097.28,-148.65 1136.65,-150.83 1291,-132 1292.25,-131.85 1293.52,-131.69 1294.8,-131.53"/>
<polygon fill="midnightblue" stroke="midnightblue" points="1295.25,-135 1304.71,-130.25 1294.35,-128.06 1295.25,-135"/>
</g>
<!-- Node39&#45;&gt;Node19 -->
<g id="edge58" class="edge">
<title>Node39&#45;&gt;Node19</title>
<path fill="none" stroke="midnightblue" d="M909.87,-168.46C975.84,-148.25 1141.17,-97.59 1210.09,-76.47"/>
<polygon fill="midnightblue" stroke="midnightblue" points="1211.37,-79.74 1219.91,-73.46 1209.32,-73.05 1211.37,-79.74"/>
</g>
<!-- Node39&#45;&gt;Node21 -->
<g id="edge57" class="edge">
<title>Node39&#45;&gt;Node21</title>
<path fill="none" stroke="midnightblue" d="M933.7,-168.54C1028.56,-152.75 1236.87,-116.89 1421.41,-76.25"/>
<polygon fill="midnightblue" stroke="midnightblue" points="1422.28,-79.64 1431.29,-74.06 1420.77,-72.81 1422.28,-79.64"/>
</g>
<!-- Node39&#45;&gt;Node25 -->
<g id="edge55" class="edge">
<title>Node39&#45;&gt;Node25</title>
<path fill="none" stroke="midnightblue" d="M868.5,-168.32C855.4,-159.9 835.29,-146.97 819.89,-137.07"/>
<polygon fill="midnightblue" stroke="midnightblue" points="821.77,-134.12 811.46,-131.65 817.98,-140.01 821.77,-134.12"/>
</g>
<!-- Node39&#45;&gt;Node34 -->
<g id="edge61" class="edge">
<title>Node39&#45;&gt;Node34</title>
<path fill="none" stroke="midnightblue" d="M830.11,-169.76C783.05,-162.24 718.21,-149.16 699,-132 685.7,-120.12 679.76,-100.21 677.11,-85.55"/>
<polygon fill="midnightblue" stroke="midnightblue" points="680.56,-84.97 675.66,-75.58 673.64,-85.98 680.56,-84.97"/>
</g>
<!-- Node40 -->
<g id="node40" class="node">
<title>Node40</title>
<g id="a_node40"><a xlink:title=" ">
<polygon fill="white" stroke="#bfbfbf" points="911.5,-112.5 911.5,-131.5 994.5,-131.5 994.5,-112.5 911.5,-112.5"/>
<text text-anchor="middle" x="953" y="-119.5" font-family="Helvetica,sans-Serif" font-size="10.00">initializer_list</text>
</a>
</g>
</g>
<!-- Node39&#45;&gt;Node40 -->
<g id="edge59" class="edge">
<title>Node39&#45;&gt;Node40</title>
<path fill="none" stroke="midnightblue" d="M893.41,-168.32C904.11,-160.18 920.34,-147.84 933.16,-138.09"/>
<polygon fill="midnightblue" stroke="midnightblue" points="935.54,-140.67 941.39,-131.83 931.31,-135.1 935.54,-140.67"/>
</g>
<!-- Node41&#45;&gt;Node4 -->
<g id="edge63" class="edge">
<title>Node41&#45;&gt;Node4</title>
<path fill="none" stroke="midnightblue" d="M1384.97,-224.38C1406.95,-217.18 1436.3,-205.28 1458,-188 1494.92,-158.6 1524.12,-110.3 1538.06,-84.51"/>
<polygon fill="midnightblue" stroke="midnightblue" points="1541.23,-86.01 1542.79,-75.53 1535.03,-82.75 1541.23,-86.01"/>
</g>
<!-- Node41&#45;&gt;Node6 -->
<g id="edge69" class="edge">
<title>Node41&#45;&gt;Node6</title>
<path fill="none" stroke="midnightblue" d="M1390.85,-224.48C1417.46,-217.3 1453.56,-205.38 1482,-188 1543.69,-150.29 1554.14,-131.9 1600,-76 1612.26,-61.06 1623.77,-42.22 1631.46,-28.67"/>
<polygon fill="midnightblue" stroke="midnightblue" points="1634.55,-30.32 1636.33,-19.88 1628.42,-26.92 1634.55,-30.32"/>
</g>
<!-- Node41&#45;&gt;Node7 -->
<g id="edge70" class="edge">
<title>Node41&#45;&gt;Node7</title>
<path fill="none" stroke="midnightblue" d="M1403.85,-224.46C1435.81,-217.62 1477.44,-206.12 1511,-188 1590.74,-144.94 1663.89,-62.46 1692.86,-27.41"/>
<polygon fill="midnightblue" stroke="midnightblue" points="1695.65,-29.53 1699.25,-19.57 1690.22,-25.11 1695.65,-29.53"/>
</g>
<!-- Node41&#45;&gt;Node11 -->
<g id="edge64" class="edge">
<title>Node41&#45;&gt;Node11</title>
<path fill="none" stroke="midnightblue" d="M1323.37,-224.48C1297.09,-216.63 1258.58,-203.82 1227,-188 1172.55,-160.73 1167.2,-139.76 1113,-112 1086.54,-98.45 1055.02,-86.79 1030.92,-78.73"/>
<polygon fill="midnightblue" stroke="midnightblue" points="1032.01,-75.4 1021.42,-75.61 1029.83,-82.06 1032.01,-75.4"/>
</g>
<!-- Node41&#45;&gt;Node18 -->
<g id="edge66" class="edge">
<title>Node41&#45;&gt;Node18</title>
<path fill="none" stroke="midnightblue" d="M1378.47,-224.44C1394.57,-217.38 1414.38,-205.63 1424,-188 1435.91,-166.19 1409.78,-147.5 1386.33,-135.84"/>
<polygon fill="midnightblue" stroke="midnightblue" points="1387.77,-132.65 1377.23,-131.57 1384.8,-138.98 1387.77,-132.65"/>
</g>
<!-- Node41&#45;&gt;Node21 -->
<g id="edge67" class="edge">
<title>Node41&#45;&gt;Node21</title>
<path fill="none" stroke="midnightblue" d="M1384.66,-224.49C1403.32,-217.69 1426,-206.21 1439,-188 1460.85,-157.38 1461.58,-111.3 1459.94,-85.74"/>
<polygon fill="midnightblue" stroke="midnightblue" points="1463.41,-85.25 1459.09,-75.58 1456.43,-85.84 1463.41,-85.25"/>
</g>
<!-- Node41&#45;&gt;Node27 -->
<g id="edge71" class="edge">
<title>Node41&#45;&gt;Node27</title>
<path fill="none" stroke="midnightblue" d="M1316.01,-224.42C1282.41,-216.4 1232.32,-203.38 1190,-188 1113.74,-160.29 1099.82,-140.9 1024,-112 989.52,-98.86 949.41,-86.71 919.96,-78.36"/>
<polygon fill="midnightblue" stroke="midnightblue" points="920.59,-74.9 910.02,-75.57 918.7,-81.64 920.59,-74.9"/>
</g>
<!-- Node41&#45;&gt;Node30 -->
<g id="edge68" class="edge">
<title>Node41&#45;&gt;Node30</title>
<path fill="none" stroke="midnightblue" d="M1292.58,-230.79C1172.08,-225.98 908.88,-212.9 822,-188 803.27,-182.63 801.73,-173.36 783,-168 597.76,-115.03 539.7,-170.91 351,-132 274.33,-116.19 229.72,-139.55 184,-76 161.06,-44.12 221.59,-25.48 262.34,-16.86"/>
<polygon fill="midnightblue" stroke="midnightblue" points="263.1,-20.28 272.22,-14.88 261.72,-13.41 263.1,-20.28"/>
</g>
<!-- Node41&#45;&gt;Node39 -->
<g id="edge65" class="edge">
<title>Node41&#45;&gt;Node39</title>
<path fill="none" stroke="midnightblue" d="M1292.98,-227.04C1214.69,-219.23 1074.41,-204.7 943.76,-188.05"/>
<polygon fill="midnightblue" stroke="midnightblue" points="943.93,-184.55 933.57,-186.75 943.04,-191.49 943.93,-184.55"/>
</g>
<!-- Node42&#45;&gt;Node14 -->
<g id="edge73" class="edge">
<title>Node42&#45;&gt;Node14</title>
<path fill="none" stroke="midnightblue" d="M1689.1,-224.08C1695.24,-216.38 1704.27,-205.03 1711.74,-195.65"/>
<polygon fill="midnightblue" stroke="midnightblue" points="1714.54,-197.75 1718.03,-187.75 1709.06,-193.39 1714.54,-197.75"/>
</g>
<!-- Node43&#45;&gt;Node18 -->
<g id="edge75" class="edge">
<title>Node43&#45;&gt;Node18</title>
<path fill="none" stroke="midnightblue" d="M1329.95,-168.08C1334.1,-160.61 1340.15,-149.72 1345.27,-140.52"/>
<polygon fill="midnightblue" stroke="midnightblue" points="1348.34,-142.19 1350.14,-131.75 1342.22,-138.79 1348.34,-142.19"/>
</g>
</g>
</svg>
