<?xml version="1.0" encoding="UTF-8" standalone="no"?>
<!DOCTYPE svg PUBLIC "-//W3C//DTD SVG 1.1//EN"
 "http://www.w3.org/Graphics/SVG/1.1/DTD/svg11.dtd">
<!-- Generated by graphviz version 2.43.0 (0)
 -->
<!-- Title: src/timelineDecoder/JSONTimelineDecoder.cpp Pages: 1 -->
<svg width="670pt" height="218pt"
 viewBox="0.00 0.00 669.50 218.00" xmlns="http://www.w3.org/2000/svg" xmlns:xlink="http://www.w3.org/1999/xlink">
<g id="graph0" class="graph" transform="scale(1 1) rotate(0) translate(4 214)">
<title>src/timelineDecoder/JSONTimelineDecoder.cpp</title>
<polygon fill="white" stroke="transparent" points="-4,4 -4,-214 665.5,-214 665.5,4 -4,4"/>
<!-- Node1 -->
<g id="node1" class="node">
<title>Node1</title>
<g id="a_node1"><a xlink:title=" ">
<polygon fill="#bfbfbf" stroke="black" points="413,-179.5 413,-209.5 559,-209.5 559,-179.5 413,-179.5"/>
<text text-anchor="start" x="421" y="-197.5" font-family="Helvetica,sans-Serif" font-size="10.00">src/timelineDecoder</text>
<text text-anchor="middle" x="486" y="-186.5" font-family="Helvetica,sans-Serif" font-size="10.00">/JSONTimelineDecoder.cpp</text>
</a>
</g>
</g>
<!-- Node2 -->
<g id="node2" class="node">
<title>Node2</title>
<g id="a_node2"><a xlink:href="_j_s_o_n_timeline_decoder_8hpp.html" target="_top" xlink:title=" ">
<polygon fill="white" stroke="black" points="301,-123.5 301,-142.5 445,-142.5 445,-123.5 301,-123.5"/>
<text text-anchor="middle" x="373" y="-130.5" font-family="Helvetica,sans-Serif" font-size="10.00">JSONTimelineDecoder.hpp</text>
</a>
</g>
</g>
<!-- Node1&#45;&gt;Node2 -->
<g id="edge1" class="edge">
<title>Node1&#45;&gt;Node2</title>
<path fill="none" stroke="midnightblue" d="M459.22,-179.4C440.94,-169.77 416.85,-157.09 398.79,-147.58"/>
<polygon fill="midnightblue" stroke="midnightblue" points="399.92,-144.22 389.44,-142.66 396.66,-150.41 399.92,-144.22"/>
</g>
<!-- Node6 -->
<g id="node6" class="node">
<title>Node6</title>
<g id="a_node6"><a xlink:title=" ">
<polygon fill="white" stroke="#bfbfbf" points="399,-0.5 399,-19.5 443,-19.5 443,-0.5 399,-0.5"/>
<text text-anchor="middle" x="421" y="-7.5" font-family="Helvetica,sans-Serif" font-size="10.00">string</text>
</a>
</g>
</g>
<!-- Node1&#45;&gt;Node6 -->
<g id="edge9" class="edge">
<title>Node1&#45;&gt;Node6</title>
<path fill="none" stroke="midnightblue" d="M486.78,-179.37C487.62,-153.45 486.66,-97.18 466,-56 460.24,-44.51 450.41,-34.16 441.41,-26.3"/>
<polygon fill="midnightblue" stroke="midnightblue" points="443.47,-23.46 433.52,-19.81 439.02,-28.87 443.47,-23.46"/>
</g>
<!-- Node9 -->
<g id="node9" class="node">
<title>Node9</title>
<g id="a_node9"><a xlink:title=" ">
<polygon fill="white" stroke="#bfbfbf" points="514.5,-123.5 514.5,-142.5 661.5,-142.5 661.5,-123.5 514.5,-123.5"/>
<text text-anchor="middle" x="588" y="-130.5" font-family="Helvetica,sans-Serif" font-size="10.00">client/src/ProfilingUtils.hpp</text>
</a>
</g>
</g>
<!-- Node1&#45;&gt;Node9 -->
<g id="edge8" class="edge">
<title>Node1&#45;&gt;Node9</title>
<path fill="none" stroke="midnightblue" d="M510.17,-179.4C526.52,-169.86 548.01,-157.32 564.27,-147.84"/>
<polygon fill="midnightblue" stroke="midnightblue" points="566.28,-150.72 573.16,-142.66 562.76,-144.67 566.28,-150.72"/>
</g>
<!-- Node3 -->
<g id="node3" class="node">
<title>Node3</title>
<g id="a_node3"><a xlink:title=" ">
<polygon fill="white" stroke="#bfbfbf" points="0,-56.5 0,-86.5 170,-86.5 170,-56.5 0,-56.5"/>
<text text-anchor="start" x="8" y="-74.5" font-family="Helvetica,sans-Serif" font-size="10.00">server/include/timelineDecoder</text>
<text text-anchor="middle" x="85" y="-63.5" font-family="Helvetica,sans-Serif" font-size="10.00">/ITimelineDecoder.hpp</text>
</a>
</g>
</g>
<!-- Node2&#45;&gt;Node3 -->
<g id="edge2" class="edge">
<title>Node2&#45;&gt;Node3</title>
<path fill="none" stroke="midnightblue" d="M331.74,-123.48C287.81,-114.4 217.27,-99.83 162.84,-88.58"/>
<polygon fill="midnightblue" stroke="midnightblue" points="163.38,-85.12 152.88,-86.52 161.96,-91.97 163.38,-85.12"/>
</g>
<!-- Node4 -->
<g id="node4" class="node">
<title>Node4</title>
<g id="a_node4"><a xlink:href="_filesystem_8hpp.html" target="_top" xlink:title=" ">
<polygon fill="white" stroke="black" points="188,-62 188,-81 336,-81 336,-62 188,-62"/>
<text text-anchor="middle" x="262" y="-69" font-family="Helvetica,sans-Serif" font-size="10.00">armnnUtils/Filesystem.hpp</text>
</a>
</g>
</g>
<!-- Node2&#45;&gt;Node4 -->
<g id="edge3" class="edge">
<title>Node2&#45;&gt;Node4</title>
<path fill="none" stroke="midnightblue" d="M357.1,-123.48C338.72,-113.62 308.24,-97.29 286.76,-85.77"/>
<polygon fill="midnightblue" stroke="midnightblue" points="288.34,-82.65 277.87,-81.01 285.03,-88.82 288.34,-82.65"/>
</g>
<!-- Node7 -->
<g id="node7" class="node">
<title>Node7</title>
<g id="a_node7"><a xlink:title=" ">
<polygon fill="white" stroke="#bfbfbf" points="354,-62 354,-81 392,-81 392,-62 354,-62"/>
<text text-anchor="middle" x="373" y="-69" font-family="Helvetica,sans-Serif" font-size="10.00">map</text>
</a>
</g>
</g>
<!-- Node2&#45;&gt;Node7 -->
<g id="edge6" class="edge">
<title>Node2&#45;&gt;Node7</title>
<path fill="none" stroke="midnightblue" d="M373,-123.48C373,-115.08 373,-101.98 373,-91.16"/>
<polygon fill="midnightblue" stroke="midnightblue" points="376.5,-91.01 373,-81.01 369.5,-91.01 376.5,-91.01"/>
</g>
<!-- Node8 -->
<g id="node8" class="node">
<title>Node8</title>
<g id="a_node8"><a xlink:title=" ">
<polygon fill="white" stroke="#bfbfbf" points="410.5,-62 410.5,-81 457.5,-81 457.5,-62 410.5,-62"/>
<text text-anchor="middle" x="434" y="-69" font-family="Helvetica,sans-Serif" font-size="10.00">vector</text>
</a>
</g>
</g>
<!-- Node2&#45;&gt;Node8 -->
<g id="edge7" class="edge">
<title>Node2&#45;&gt;Node8</title>
<path fill="none" stroke="midnightblue" d="M381.74,-123.48C391.16,-114.28 406.36,-99.46 417.95,-88.16"/>
<polygon fill="midnightblue" stroke="midnightblue" points="420.56,-90.5 425.28,-81.01 415.67,-85.49 420.56,-90.5"/>
</g>
<!-- Node5 -->
<g id="node5" class="node">
<title>Node5</title>
<g id="a_node5"><a xlink:title=" ">
<polygon fill="white" stroke="#bfbfbf" points="207.5,-0.5 207.5,-19.5 316.5,-19.5 316.5,-0.5 207.5,-0.5"/>
<text text-anchor="middle" x="262" y="-7.5" font-family="Helvetica,sans-Serif" font-size="10.00">ghc/filesystem.hpp</text>
</a>
</g>
</g>
<!-- Node4&#45;&gt;Node5 -->
<g id="edge4" class="edge">
<title>Node4&#45;&gt;Node5</title>
<path fill="none" stroke="midnightblue" d="M262,-61.98C262,-53.58 262,-40.48 262,-29.66"/>
<polygon fill="midnightblue" stroke="midnightblue" points="265.5,-29.51 262,-19.51 258.5,-29.51 265.5,-29.51"/>
</g>
<!-- Node4&#45;&gt;Node6 -->
<g id="edge5" class="edge">
<title>Node4&#45;&gt;Node6</title>
<path fill="none" stroke="midnightblue" d="M284.78,-61.98C312.21,-51.71 358.43,-34.41 389.33,-22.85"/>
<polygon fill="midnightblue" stroke="midnightblue" points="390.64,-26.1 398.77,-19.32 388.18,-19.54 390.64,-26.1"/>
</g>
</g>
</svg>
