<?xml version="1.0" encoding="UTF-8" standalone="no"?>
<!DOCTYPE svg PUBLIC "-//W3C//DTD SVG 1.1//EN"
 "http://www.w3.org/Graphics/SVG/1.1/DTD/svg11.dtd">
<!-- Generated by graphviz version 2.43.0 (0)
 -->
<!-- Title: src/backends/tosaCommon/operatorMappings/LeakyReluOperator.hpp Pages: 1 -->
<svg width="800pt" height="251pt"
 viewBox="0.00 0.00 799.50 251.00" xmlns="http://www.w3.org/2000/svg" xmlns:xlink="http://www.w3.org/1999/xlink">
<g id="graph0" class="graph" transform="scale(1 1) rotate(0) translate(4 247)">
<title>src/backends/tosaCommon/operatorMappings/LeakyReluOperator.hpp</title>
<polygon fill="white" stroke="transparent" points="-4,4 -4,-247 795.5,-247 795.5,4 -4,4"/>
<!-- Node1 -->
<g id="node1" class="node">
<title>Node1</title>
<g id="a_node1"><a xlink:title=" ">
<polygon fill="#bfbfbf" stroke="black" points="228,-212.5 228,-242.5 452,-242.5 452,-212.5 228,-212.5"/>
<text text-anchor="start" x="236" y="-230.5" font-family="Helvetica,sans-Serif" font-size="10.00">src/backends/tosaCommon</text>
<text text-anchor="middle" x="340" y="-219.5" font-family="Helvetica,sans-Serif" font-size="10.00">/operatorMappings/LeakyReluOperator.hpp</text>
</a>
</g>
</g>
<!-- Node2 -->
<g id="node2" class="node">
<title>Node2</title>
<g id="a_node2"><a xlink:href="_leaky_relu_operator_8cpp.html" target="_top" xlink:title=" ">
<polygon fill="white" stroke="black" points="0,-140 0,-170 224,-170 224,-140 0,-140"/>
<text text-anchor="start" x="8" y="-158" font-family="Helvetica,sans-Serif" font-size="10.00">src/backends/tosaCommon</text>
<text text-anchor="middle" x="112" y="-147" font-family="Helvetica,sans-Serif" font-size="10.00">/operatorMappings/LeakyReluOperator.cpp</text>
</a>
</g>
</g>
<!-- Node1&#45;&gt;Node2 -->
<g id="edge1" class="edge">
<title>Node1&#45;&gt;Node2</title>
<path fill="none" stroke="midnightblue" d="M285.06,-209.51C246.07,-197.46 194.34,-181.46 157.62,-170.11"/>
<polygon fill="midnightblue" stroke="midnightblue" points="284.09,-212.88 294.68,-212.49 286.16,-206.19 284.09,-212.88"/>
</g>
<!-- Node3 -->
<g id="node3" class="node">
<title>Node3</title>
<g id="a_node3"><a xlink:href="_relu_operator_8cpp.html" target="_top" xlink:title=" ">
<polygon fill="white" stroke="black" points="242.5,-140 242.5,-170 437.5,-170 437.5,-140 242.5,-140"/>
<text text-anchor="start" x="250.5" y="-158" font-family="Helvetica,sans-Serif" font-size="10.00">src/backends/tosaCommon</text>
<text text-anchor="middle" x="340" y="-147" font-family="Helvetica,sans-Serif" font-size="10.00">/operatorMappings/ReluOperator.cpp</text>
</a>
</g>
</g>
<!-- Node1&#45;&gt;Node3 -->
<g id="edge2" class="edge">
<title>Node1&#45;&gt;Node3</title>
<path fill="none" stroke="midnightblue" d="M340,-202.23C340,-191.57 340,-179.41 340,-170.25"/>
<polygon fill="midnightblue" stroke="midnightblue" points="336.5,-202.23 340,-212.23 343.5,-202.23 336.5,-202.23"/>
</g>
<!-- Node4 -->
<g id="node4" class="node">
<title>Node4</title>
<g id="a_node4"><a xlink:href="_tosa_common_operators_8hpp.html" target="_top" xlink:title=" ">
<polygon fill="white" stroke="black" points="455.5,-134.5 455.5,-175.5 632.5,-175.5 632.5,-134.5 455.5,-134.5"/>
<text text-anchor="start" x="463.5" y="-163.5" font-family="Helvetica,sans-Serif" font-size="10.00">src/backends/tosaCommon</text>
<text text-anchor="start" x="463.5" y="-152.5" font-family="Helvetica,sans-Serif" font-size="10.00">/operatorMappings/TosaCommon</text>
<text text-anchor="middle" x="544" y="-141.5" font-family="Helvetica,sans-Serif" font-size="10.00">Operators.hpp</text>
</a>
</g>
</g>
<!-- Node1&#45;&gt;Node4 -->
<g id="edge3" class="edge">
<title>Node1&#45;&gt;Node4</title>
<path fill="none" stroke="midnightblue" d="M390.45,-209.07C419.86,-198.9 457.04,-186.05 487.44,-175.55"/>
<polygon fill="midnightblue" stroke="midnightblue" points="389.1,-205.83 380.79,-212.4 391.39,-212.44 389.1,-205.83"/>
</g>
<!-- Node5 -->
<g id="node5" class="node">
<title>Node5</title>
<g id="a_node5"><a xlink:href="_tosa_mappings_8hpp.html" target="_top" xlink:title=" ">
<polygon fill="white" stroke="black" points="470,-67.5 470,-97.5 618,-97.5 618,-67.5 470,-67.5"/>
<text text-anchor="start" x="478" y="-85.5" font-family="Helvetica,sans-Serif" font-size="10.00">src/backends/tosaCommon</text>
<text text-anchor="middle" x="544" y="-74.5" font-family="Helvetica,sans-Serif" font-size="10.00">/TosaMappings.hpp</text>
</a>
</g>
</g>
<!-- Node4&#45;&gt;Node5 -->
<g id="edge4" class="edge">
<title>Node4&#45;&gt;Node5</title>
<path fill="none" stroke="midnightblue" d="M544,-124.08C544,-115.01 544,-105.45 544,-97.89"/>
<polygon fill="midnightblue" stroke="midnightblue" points="540.5,-124.36 544,-134.36 547.5,-124.36 540.5,-124.36"/>
</g>
<!-- Node6 -->
<g id="node6" class="node">
<title>Node6</title>
<g id="a_node6"><a xlink:href="_tosa_mappings_8cpp.html" target="_top" xlink:title=" ">
<polygon fill="white" stroke="black" points="301,-0.5 301,-30.5 449,-30.5 449,-0.5 301,-0.5"/>
<text text-anchor="start" x="309" y="-18.5" font-family="Helvetica,sans-Serif" font-size="10.00">src/backends/tosaCommon</text>
<text text-anchor="middle" x="375" y="-7.5" font-family="Helvetica,sans-Serif" font-size="10.00">/TosaMappings.cpp</text>
</a>
</g>
</g>
<!-- Node5&#45;&gt;Node6 -->
<g id="edge5" class="edge">
<title>Node5&#45;&gt;Node6</title>
<path fill="none" stroke="midnightblue" d="M497.67,-63.68C470.57,-53.26 436.83,-40.28 411.6,-30.58"/>
<polygon fill="midnightblue" stroke="midnightblue" points="496.74,-67.07 507.33,-67.4 499.25,-60.54 496.74,-67.07"/>
</g>
<!-- Node7 -->
<g id="node7" class="node">
<title>Node7</title>
<g id="a_node7"><a xlink:href="_tosa_ref_backend_8cpp.html" target="_top" xlink:title=" ">
<polygon fill="white" stroke="black" points="467.5,-0.5 467.5,-30.5 620.5,-30.5 620.5,-0.5 467.5,-0.5"/>
<text text-anchor="start" x="475.5" y="-18.5" font-family="Helvetica,sans-Serif" font-size="10.00">src/backends/tosaReference</text>
<text text-anchor="middle" x="544" y="-7.5" font-family="Helvetica,sans-Serif" font-size="10.00">/TosaRefBackend.cpp</text>
</a>
</g>
</g>
<!-- Node5&#45;&gt;Node7 -->
<g id="edge6" class="edge">
<title>Node5&#45;&gt;Node7</title>
<path fill="none" stroke="midnightblue" d="M544,-57.11C544,-48.15 544,-38.32 544,-30.58"/>
<polygon fill="midnightblue" stroke="midnightblue" points="540.5,-57.4 544,-67.4 547.5,-57.4 540.5,-57.4"/>
</g>
<!-- Node8 -->
<g id="node8" class="node">
<title>Node8</title>
<g id="a_node8"><a xlink:href="_tosa_ref_layer_support_8cpp.html" target="_top" xlink:title=" ">
<polygon fill="white" stroke="black" points="638.5,-0.5 638.5,-30.5 791.5,-30.5 791.5,-0.5 638.5,-0.5"/>
<text text-anchor="start" x="646.5" y="-18.5" font-family="Helvetica,sans-Serif" font-size="10.00">src/backends/tosaReference</text>
<text text-anchor="middle" x="715" y="-7.5" font-family="Helvetica,sans-Serif" font-size="10.00">/TosaRefLayerSupport.cpp</text>
</a>
</g>
</g>
<!-- Node5&#45;&gt;Node8 -->
<g id="edge7" class="edge">
<title>Node5&#45;&gt;Node8</title>
<path fill="none" stroke="midnightblue" d="M590.52,-63.82C618,-53.37 652.33,-40.32 677.97,-30.58"/>
<polygon fill="midnightblue" stroke="midnightblue" points="589.21,-60.57 581.1,-67.4 591.7,-67.11 589.21,-60.57"/>
</g>
</g>
</svg>
