<?xml version="1.0" encoding="UTF-8" standalone="no"?>
<!DOCTYPE svg PUBLIC "-//W3C//DTD SVG 1.1//EN"
 "http://www.w3.org/Graphics/SVG/1.1/DTD/svg11.dtd">
<!-- Generated by graphviz version 2.43.0 (0)
 -->
<!-- Title: src/backends/reference/workloads/Maximum.hpp Pages: 1 -->
<svg width="720pt" height="251pt"
 viewBox="0.00 0.00 720.00 251.00" xmlns="http://www.w3.org/2000/svg" xmlns:xlink="http://www.w3.org/1999/xlink">
<g id="graph0" class="graph" transform="scale(1 1) rotate(0) translate(4 247)">
<title>src/backends/reference/workloads/Maximum.hpp</title>
<polygon fill="white" stroke="transparent" points="-4,4 -4,-247 716,-247 716,4 -4,4"/>
<!-- Node1 -->
<g id="node1" class="node">
<title>Node1</title>
<g id="a_node1"><a xlink:title=" ">
<polygon fill="#bfbfbf" stroke="black" points="236,-212.5 236,-242.5 379,-242.5 379,-212.5 236,-212.5"/>
<text text-anchor="start" x="244" y="-230.5" font-family="Helvetica,sans-Serif" font-size="10.00">src/backends/reference</text>
<text text-anchor="middle" x="307.5" y="-219.5" font-family="Helvetica,sans-Serif" font-size="10.00">/workloads/Maximum.hpp</text>
</a>
</g>
</g>
<!-- Node2 -->
<g id="node2" class="node">
<title>Node2</title>
<g id="a_node2"><a xlink:href="_elementwise_function_8cpp.html" target="_top" xlink:title=" ">
<polygon fill="white" stroke="black" points="0,-140 0,-170 197,-170 197,-140 0,-140"/>
<text text-anchor="start" x="8" y="-158" font-family="Helvetica,sans-Serif" font-size="10.00">src/backends/reference</text>
<text text-anchor="middle" x="98.5" y="-147" font-family="Helvetica,sans-Serif" font-size="10.00">/workloads/ElementwiseFunction.cpp</text>
</a>
</g>
</g>
<!-- Node1&#45;&gt;Node2 -->
<g id="edge1" class="edge">
<title>Node1&#45;&gt;Node2</title>
<path fill="none" stroke="midnightblue" d="M256.23,-209.2C220.59,-197.18 173.69,-181.36 140.32,-170.11"/>
<polygon fill="midnightblue" stroke="midnightblue" points="255.36,-212.61 265.96,-212.49 257.6,-205.97 255.36,-212.61"/>
</g>
<!-- Node3 -->
<g id="node3" class="node">
<title>Node3</title>
<g id="a_node3"><a xlink:href="_ref_elementwise_binary_workload_8cpp.html" target="_top" xlink:title=" ">
<polygon fill="white" stroke="black" points="215.5,-134.5 215.5,-175.5 399.5,-175.5 399.5,-134.5 215.5,-134.5"/>
<text text-anchor="start" x="223.5" y="-163.5" font-family="Helvetica,sans-Serif" font-size="10.00">src/backends/reference</text>
<text text-anchor="start" x="223.5" y="-152.5" font-family="Helvetica,sans-Serif" font-size="10.00">/workloads/RefElementwiseBinary</text>
<text text-anchor="middle" x="307.5" y="-141.5" font-family="Helvetica,sans-Serif" font-size="10.00">Workload.cpp</text>
</a>
</g>
</g>
<!-- Node1&#45;&gt;Node3 -->
<g id="edge2" class="edge">
<title>Node1&#45;&gt;Node3</title>
<path fill="none" stroke="midnightblue" d="M307.5,-201.98C307.5,-193.35 307.5,-183.76 307.5,-175.59"/>
<polygon fill="midnightblue" stroke="midnightblue" points="304,-202.23 307.5,-212.23 311,-202.23 304,-202.23"/>
</g>
<!-- Node4 -->
<g id="node4" class="node">
<title>Node4</title>
<g id="a_node4"><a xlink:href="_ref_elementwise_workload_8hpp.html" target="_top" xlink:title=" ">
<polygon fill="white" stroke="black" points="418,-140 418,-170 637,-170 637,-140 418,-140"/>
<text text-anchor="start" x="426" y="-158" font-family="Helvetica,sans-Serif" font-size="10.00">src/backends/reference</text>
<text text-anchor="middle" x="527.5" y="-147" font-family="Helvetica,sans-Serif" font-size="10.00">/workloads/RefElementwiseWorkload.hpp</text>
</a>
</g>
</g>
<!-- Node1&#45;&gt;Node4 -->
<g id="edge3" class="edge">
<title>Node1&#45;&gt;Node4</title>
<path fill="none" stroke="midnightblue" d="M360.99,-209.36C398.56,-197.32 448.2,-181.41 483.48,-170.11"/>
<polygon fill="midnightblue" stroke="midnightblue" points="359.68,-206.1 351.23,-212.49 361.82,-212.77 359.68,-206.1"/>
</g>
<!-- Node5 -->
<g id="node5" class="node">
<title>Node5</title>
<g id="a_node5"><a xlink:href="_ref_elementwise_workload_8cpp.html" target="_top" xlink:title=" ">
<polygon fill="white" stroke="black" points="314.5,-67.5 314.5,-97.5 532.5,-97.5 532.5,-67.5 314.5,-67.5"/>
<text text-anchor="start" x="322.5" y="-85.5" font-family="Helvetica,sans-Serif" font-size="10.00">src/backends/reference</text>
<text text-anchor="middle" x="423.5" y="-74.5" font-family="Helvetica,sans-Serif" font-size="10.00">/workloads/RefElementwiseWorkload.cpp</text>
</a>
</g>
</g>
<!-- Node4&#45;&gt;Node5 -->
<g id="edge4" class="edge">
<title>Node4&#45;&gt;Node5</title>
<path fill="none" stroke="midnightblue" d="M497.89,-133.93C480.73,-122.29 459.53,-107.92 444.16,-97.5"/>
<polygon fill="midnightblue" stroke="midnightblue" points="496.21,-137.02 506.45,-139.73 500.14,-131.23 496.21,-137.02"/>
</g>
<!-- Node6 -->
<g id="node6" class="node">
<title>Node6</title>
<g id="a_node6"><a xlink:href="_ref_workloads_8hpp.html" target="_top" xlink:title=" ">
<polygon fill="white" stroke="black" points="551,-67.5 551,-97.5 712,-97.5 712,-67.5 551,-67.5"/>
<text text-anchor="start" x="559" y="-85.5" font-family="Helvetica,sans-Serif" font-size="10.00">src/backends/reference</text>
<text text-anchor="middle" x="631.5" y="-74.5" font-family="Helvetica,sans-Serif" font-size="10.00">/workloads/RefWorkloads.hpp</text>
</a>
</g>
</g>
<!-- Node4&#45;&gt;Node6 -->
<g id="edge5" class="edge">
<title>Node4&#45;&gt;Node6</title>
<path fill="none" stroke="midnightblue" d="M557.11,-133.93C574.27,-122.29 595.47,-107.92 610.84,-97.5"/>
<polygon fill="midnightblue" stroke="midnightblue" points="554.86,-131.23 548.55,-139.73 558.79,-137.02 554.86,-131.23"/>
</g>
<!-- Node7 -->
<g id="node7" class="node">
<title>Node7</title>
<g id="a_node7"><a xlink:href="_ref_workload_factory_8cpp.html" target="_top" xlink:title=" ">
<polygon fill="white" stroke="black" points="563.5,-0.5 563.5,-30.5 699.5,-30.5 699.5,-0.5 563.5,-0.5"/>
<text text-anchor="start" x="571.5" y="-18.5" font-family="Helvetica,sans-Serif" font-size="10.00">src/backends/reference</text>
<text text-anchor="middle" x="631.5" y="-7.5" font-family="Helvetica,sans-Serif" font-size="10.00">/RefWorkloadFactory.cpp</text>
</a>
</g>
</g>
<!-- Node6&#45;&gt;Node7 -->
<g id="edge6" class="edge">
<title>Node6&#45;&gt;Node7</title>
<path fill="none" stroke="midnightblue" d="M631.5,-57.11C631.5,-48.15 631.5,-38.32 631.5,-30.58"/>
<polygon fill="midnightblue" stroke="midnightblue" points="628,-57.4 631.5,-67.4 635,-57.4 628,-57.4"/>
</g>
</g>
</svg>
