<?xml version="1.0" encoding="UTF-8" standalone="no"?>
<!DOCTYPE svg PUBLIC "-//W3C//DTD SVG 1.1//EN"
 "http://www.w3.org/Graphics/SVG/1.1/DTD/svg11.dtd">
<!-- Generated by graphviz version 2.43.0 (0)
 -->
<!-- Title: src/backends/backendsCommon/MemoryManager.hpp Pages: 1 -->
<svg width="510pt" height="363pt"
 viewBox="0.00 0.00 510.00 363.00" xmlns="http://www.w3.org/2000/svg" xmlns:xlink="http://www.w3.org/1999/xlink">
<g id="graph0" class="graph" transform="scale(1 1) rotate(0) translate(4 359)">
<title>src/backends/backendsCommon/MemoryManager.hpp</title>
<polygon fill="white" stroke="transparent" points="-4,4 -4,-359 506,-359 506,4 -4,4"/>
<!-- Node1 -->
<g id="node1" class="node">
<title>Node1</title>
<g id="a_node1"><a xlink:title=" ">
<polygon fill="#bfbfbf" stroke="black" points="173,-324.5 173,-354.5 346,-354.5 346,-324.5 173,-324.5"/>
<text text-anchor="start" x="181" y="-342.5" font-family="Helvetica,sans-Serif" font-size="10.00">src/backends/backendsCommon</text>
<text text-anchor="middle" x="259.5" y="-331.5" font-family="Helvetica,sans-Serif" font-size="10.00">/MemoryManager.hpp</text>
</a>
</g>
</g>
<!-- Node2 -->
<g id="node2" class="node">
<title>Node2</title>
<g id="a_node2"><a xlink:href="_loaded_network_8hpp.html" target="_top" xlink:title=" ">
<polygon fill="white" stroke="black" points="82.5,-263 82.5,-282 248.5,-282 248.5,-263 82.5,-263"/>
<text text-anchor="middle" x="165.5" y="-270" font-family="Helvetica,sans-Serif" font-size="10.00">src/armnn/LoadedNetwork.hpp</text>
</a>
</g>
</g>
<!-- Node1&#45;&gt;Node2 -->
<g id="edge1" class="edge">
<title>Node1&#45;&gt;Node2</title>
<path fill="none" stroke="midnightblue" d="M230.78,-318.64C213.04,-306.37 191.19,-291.26 177.8,-282.01"/>
<polygon fill="midnightblue" stroke="midnightblue" points="228.89,-321.59 239.1,-324.4 232.87,-315.83 228.89,-321.59"/>
</g>
<!-- Node11 -->
<g id="node11" class="node">
<title>Node11</title>
<g id="a_node11"><a xlink:href="_memory_manager_8cpp.html" target="_top" xlink:title=" ">
<polygon fill="white" stroke="black" points="267,-257.5 267,-287.5 440,-287.5 440,-257.5 267,-257.5"/>
<text text-anchor="start" x="275" y="-275.5" font-family="Helvetica,sans-Serif" font-size="10.00">src/backends/backendsCommon</text>
<text text-anchor="middle" x="353.5" y="-264.5" font-family="Helvetica,sans-Serif" font-size="10.00">/MemoryManager.cpp</text>
</a>
</g>
</g>
<!-- Node1&#45;&gt;Node11 -->
<g id="edge10" class="edge">
<title>Node1&#45;&gt;Node11</title>
<path fill="none" stroke="midnightblue" d="M288.49,-318.45C302.95,-308.45 320.09,-296.6 333.14,-287.58"/>
<polygon fill="midnightblue" stroke="midnightblue" points="286.13,-315.83 279.9,-324.4 290.11,-321.59 286.13,-315.83"/>
</g>
<!-- Node3 -->
<g id="node3" class="node">
<title>Node3</title>
<g id="a_node3"><a xlink:href="_loaded_network_8cpp.html" target="_top" xlink:title=" ">
<polygon fill="white" stroke="black" points="0,-201.5 0,-220.5 165,-220.5 165,-201.5 0,-201.5"/>
<text text-anchor="middle" x="82.5" y="-208.5" font-family="Helvetica,sans-Serif" font-size="10.00">src/armnn/LoadedNetwork.cpp</text>
</a>
</g>
</g>
<!-- Node2&#45;&gt;Node3 -->
<g id="edge2" class="edge">
<title>Node2&#45;&gt;Node3</title>
<path fill="none" stroke="midnightblue" d="M145.43,-257.11C129.47,-245.67 107.67,-230.05 94.37,-220.51"/>
<polygon fill="midnightblue" stroke="midnightblue" points="143.44,-259.99 153.61,-262.98 147.52,-254.3 143.44,-259.99"/>
</g>
<!-- Node4 -->
<g id="node4" class="node">
<title>Node4</title>
<g id="a_node4"><a xlink:href="_runtime_8hpp.html" target="_top" xlink:title=" ">
<polygon fill="white" stroke="black" points="183,-201.5 183,-220.5 314,-220.5 314,-201.5 183,-201.5"/>
<text text-anchor="middle" x="248.5" y="-208.5" font-family="Helvetica,sans-Serif" font-size="10.00">src/armnn/Runtime.hpp</text>
</a>
</g>
</g>
<!-- Node2&#45;&gt;Node4 -->
<g id="edge3" class="edge">
<title>Node2&#45;&gt;Node4</title>
<path fill="none" stroke="midnightblue" d="M185.57,-257.11C201.53,-245.67 223.33,-230.05 236.63,-220.51"/>
<polygon fill="midnightblue" stroke="midnightblue" points="183.48,-254.3 177.39,-262.98 187.56,-259.99 183.48,-254.3"/>
</g>
<!-- Node5 -->
<g id="node5" class="node">
<title>Node5</title>
<g id="a_node5"><a xlink:href="_runtime_8cpp.html" target="_top" xlink:title=" ">
<polygon fill="white" stroke="black" points="115.5,-140 115.5,-159 245.5,-159 245.5,-140 115.5,-140"/>
<text text-anchor="middle" x="180.5" y="-147" font-family="Helvetica,sans-Serif" font-size="10.00">src/armnn/Runtime.cpp</text>
</a>
</g>
</g>
<!-- Node4&#45;&gt;Node5 -->
<g id="edge4" class="edge">
<title>Node4&#45;&gt;Node5</title>
<path fill="none" stroke="midnightblue" d="M230.96,-194.65C217.99,-183.31 200.82,-168.28 190.22,-159.01"/>
<polygon fill="midnightblue" stroke="midnightblue" points="228.93,-197.52 238.76,-201.48 233.54,-192.26 228.93,-197.52"/>
</g>
<!-- Node6 -->
<g id="node6" class="node">
<title>Node6</title>
<g id="a_node6"><a xlink:href="_test_utils_8hpp.html" target="_top" xlink:title=" ">
<polygon fill="white" stroke="black" points="264,-134.5 264,-164.5 371,-164.5 371,-134.5 264,-134.5"/>
<text text-anchor="start" x="272" y="-152.5" font-family="Helvetica,sans-Serif" font-size="10.00">src/armnnTestUtils</text>
<text text-anchor="middle" x="317.5" y="-141.5" font-family="Helvetica,sans-Serif" font-size="10.00">/TestUtils.hpp</text>
</a>
</g>
</g>
<!-- Node4&#45;&gt;Node6 -->
<g id="edge5" class="edge">
<title>Node4&#45;&gt;Node6</title>
<path fill="none" stroke="midnightblue" d="M265.99,-194.92C276.82,-185.58 290.64,-173.66 301.24,-164.52"/>
<polygon fill="midnightblue" stroke="midnightblue" points="263.67,-192.29 258.39,-201.48 268.24,-197.6 263.67,-192.29"/>
</g>
<!-- Node7 -->
<g id="node7" class="node">
<title>Node7</title>
<g id="a_node7"><a xlink:href="_common_test_utils_8hpp.html" target="_top" xlink:title=" ">
<polygon fill="white" stroke="black" points="113,-67.5 113,-97.5 240,-97.5 240,-67.5 113,-67.5"/>
<text text-anchor="start" x="121" y="-85.5" font-family="Helvetica,sans-Serif" font-size="10.00">src/armnnTestUtils</text>
<text text-anchor="middle" x="176.5" y="-74.5" font-family="Helvetica,sans-Serif" font-size="10.00">/CommonTestUtils.hpp</text>
</a>
</g>
</g>
<!-- Node6&#45;&gt;Node7 -->
<g id="edge6" class="edge">
<title>Node6&#45;&gt;Node7</title>
<path fill="none" stroke="midnightblue" d="M277.65,-130.13C255.25,-119.8 227.72,-107.11 207.04,-97.58"/>
<polygon fill="midnightblue" stroke="midnightblue" points="276.36,-133.39 286.91,-134.4 279.29,-127.03 276.36,-133.39"/>
</g>
<!-- Node9 -->
<g id="node9" class="node">
<title>Node9</title>
<g id="a_node9"><a xlink:href="_create_workload_8hpp.html" target="_top" xlink:title=" ">
<polygon fill="white" stroke="black" points="258,-67.5 258,-97.5 377,-97.5 377,-67.5 258,-67.5"/>
<text text-anchor="start" x="266" y="-85.5" font-family="Helvetica,sans-Serif" font-size="10.00">src/armnnTestUtils</text>
<text text-anchor="middle" x="317.5" y="-74.5" font-family="Helvetica,sans-Serif" font-size="10.00">/CreateWorkload.hpp</text>
</a>
</g>
</g>
<!-- Node6&#45;&gt;Node9 -->
<g id="edge8" class="edge">
<title>Node6&#45;&gt;Node9</title>
<path fill="none" stroke="midnightblue" d="M317.5,-124.11C317.5,-115.15 317.5,-105.32 317.5,-97.58"/>
<polygon fill="midnightblue" stroke="midnightblue" points="314,-124.4 317.5,-134.4 321,-124.4 314,-124.4"/>
</g>
<!-- Node10 -->
<g id="node10" class="node">
<title>Node10</title>
<g id="a_node10"><a xlink:href="_test_utils_8cpp.html" target="_top" xlink:title=" ">
<polygon fill="white" stroke="black" points="395,-67.5 395,-97.5 502,-97.5 502,-67.5 395,-67.5"/>
<text text-anchor="start" x="403" y="-85.5" font-family="Helvetica,sans-Serif" font-size="10.00">src/armnnTestUtils</text>
<text text-anchor="middle" x="448.5" y="-74.5" font-family="Helvetica,sans-Serif" font-size="10.00">/TestUtils.cpp</text>
</a>
</g>
</g>
<!-- Node6&#45;&gt;Node10 -->
<g id="edge9" class="edge">
<title>Node6&#45;&gt;Node10</title>
<path fill="none" stroke="midnightblue" d="M355.08,-129.85C375.79,-119.58 401.09,-107.03 420.13,-97.58"/>
<polygon fill="midnightblue" stroke="midnightblue" points="353.33,-126.82 345.93,-134.4 356.44,-133.09 353.33,-126.82"/>
</g>
<!-- Node8 -->
<g id="node8" class="node">
<title>Node8</title>
<g id="a_node8"><a xlink:href="_common_test_utils_8cpp.html" target="_top" xlink:title=" ">
<polygon fill="white" stroke="black" points="113.5,-0.5 113.5,-30.5 239.5,-30.5 239.5,-0.5 113.5,-0.5"/>
<text text-anchor="start" x="121.5" y="-18.5" font-family="Helvetica,sans-Serif" font-size="10.00">src/armnnTestUtils</text>
<text text-anchor="middle" x="176.5" y="-7.5" font-family="Helvetica,sans-Serif" font-size="10.00">/CommonTestUtils.cpp</text>
</a>
</g>
</g>
<!-- Node7&#45;&gt;Node8 -->
<g id="edge7" class="edge">
<title>Node7&#45;&gt;Node8</title>
<path fill="none" stroke="midnightblue" d="M176.5,-57.11C176.5,-48.15 176.5,-38.32 176.5,-30.58"/>
<polygon fill="midnightblue" stroke="midnightblue" points="173,-57.4 176.5,-67.4 180,-57.4 173,-57.4"/>
</g>
</g>
</svg>
