<?xml version="1.0" encoding="UTF-8" standalone="no"?>
<!DOCTYPE svg PUBLIC "-//W3C//DTD SVG 1.1//EN"
 "http://www.w3.org/Graphics/SVG/1.1/DTD/svg11.dtd">
<!-- Generated by graphviz version 2.43.0 (0)
 -->
<!-- Title: src/armnn/Network.hpp Pages: 1 -->
<svg width="714pt" height="352pt"
 viewBox="0.00 0.00 713.50 352.00" xmlns="http://www.w3.org/2000/svg" xmlns:xlink="http://www.w3.org/1999/xlink">
<g id="graph0" class="graph" transform="scale(1 1) rotate(0) translate(4 348)">
<title>src/armnn/Network.hpp</title>
<polygon fill="white" stroke="transparent" points="-4,4 -4,-348 709.5,-348 709.5,4 -4,4"/>
<!-- Node1 -->
<g id="node1" class="node">
<title>Node1</title>
<g id="a_node1"><a xlink:title=" ">
<polygon fill="#bfbfbf" stroke="black" points="350,-324.5 350,-343.5 481,-343.5 481,-324.5 350,-324.5"/>
<text text-anchor="middle" x="415.5" y="-331.5" font-family="Helvetica,sans-Serif" font-size="10.00">src/armnn/Network.hpp</text>
</a>
</g>
</g>
<!-- Node2 -->
<g id="node2" class="node">
<title>Node2</title>
<g id="a_node2"><a xlink:href="_loaded_network_8hpp.html" target="_top" xlink:title=" ">
<polygon fill="white" stroke="black" points="165.5,-263 165.5,-282 331.5,-282 331.5,-263 165.5,-263"/>
<text text-anchor="middle" x="248.5" y="-270" font-family="Helvetica,sans-Serif" font-size="10.00">src/armnn/LoadedNetwork.hpp</text>
</a>
</g>
</g>
<!-- Node1&#45;&gt;Node2 -->
<g id="edge1" class="edge">
<title>Node1&#45;&gt;Node2</title>
<path fill="none" stroke="midnightblue" d="M382.05,-321.08C349.59,-309.52 301.13,-292.25 272.38,-282.01"/>
<polygon fill="midnightblue" stroke="midnightblue" points="380.98,-324.42 391.57,-324.48 383.33,-317.82 380.98,-324.42"/>
</g>
<!-- Node9 -->
<g id="node9" class="node">
<title>Node9</title>
<g id="a_node9"><a xlink:href="_create_workload_8hpp.html" target="_top" xlink:title=" ">
<polygon fill="white" stroke="black" points="315,-67.5 315,-97.5 434,-97.5 434,-67.5 315,-67.5"/>
<text text-anchor="start" x="323" y="-85.5" font-family="Helvetica,sans-Serif" font-size="10.00">src/armnnTestUtils</text>
<text text-anchor="middle" x="374.5" y="-74.5" font-family="Helvetica,sans-Serif" font-size="10.00">/CreateWorkload.hpp</text>
</a>
</g>
</g>
<!-- Node1&#45;&gt;Node9 -->
<g id="edge11" class="edge">
<title>Node1&#45;&gt;Node9</title>
<path fill="none" stroke="midnightblue" d="M402.78,-316.14C397.39,-308.06 391.63,-297.98 388.5,-288 366.9,-219.25 370.71,-131.31 373.25,-97.55"/>
<polygon fill="midnightblue" stroke="midnightblue" points="399.92,-318.16 408.56,-324.3 405.64,-314.12 399.92,-318.16"/>
</g>
<!-- Node11 -->
<g id="node11" class="node">
<title>Node11</title>
<g id="a_node11"><a xlink:href="_network_8cpp.html" target="_top" xlink:title=" ">
<polygon fill="white" stroke="black" points="397.5,-263 397.5,-282 527.5,-282 527.5,-263 397.5,-263"/>
<text text-anchor="middle" x="462.5" y="-270" font-family="Helvetica,sans-Serif" font-size="10.00">src/armnn/Network.cpp</text>
</a>
</g>
</g>
<!-- Node1&#45;&gt;Node11 -->
<g id="edge10" class="edge">
<title>Node1&#45;&gt;Node11</title>
<path fill="none" stroke="midnightblue" d="M428.66,-316.34C437.48,-305.17 448.73,-290.93 455.78,-282.01"/>
<polygon fill="midnightblue" stroke="midnightblue" points="425.69,-314.46 422.23,-324.48 431.18,-318.8 425.69,-314.46"/>
</g>
<!-- Node12 -->
<g id="node12" class="node">
<title>Node12</title>
<g id="a_node12"><a xlink:href="_parser_prototxt_fixture_8hpp.html" target="_top" xlink:title=" ">
<polygon fill="white" stroke="black" points="545.5,-257.5 545.5,-287.5 705.5,-287.5 705.5,-257.5 545.5,-257.5"/>
<text text-anchor="start" x="553.5" y="-275.5" font-family="Helvetica,sans-Serif" font-size="10.00">src/armnnUtils/ParserPrototxt</text>
<text text-anchor="middle" x="625.5" y="-264.5" font-family="Helvetica,sans-Serif" font-size="10.00">Fixture.hpp</text>
</a>
</g>
</g>
<!-- Node1&#45;&gt;Node12 -->
<g id="edge12" class="edge">
<title>Node1&#45;&gt;Node12</title>
<path fill="none" stroke="midnightblue" d="M455.26,-321.73C489.53,-312.02 539.17,-297.96 576.01,-287.52"/>
<polygon fill="midnightblue" stroke="midnightblue" points="454.26,-318.38 445.59,-324.48 456.16,-325.12 454.26,-318.38"/>
</g>
<!-- Node3 -->
<g id="node3" class="node">
<title>Node3</title>
<g id="a_node3"><a xlink:href="_loaded_network_8cpp.html" target="_top" xlink:title=" ">
<polygon fill="white" stroke="black" points="0,-201.5 0,-220.5 165,-220.5 165,-201.5 0,-201.5"/>
<text text-anchor="middle" x="82.5" y="-208.5" font-family="Helvetica,sans-Serif" font-size="10.00">src/armnn/LoadedNetwork.cpp</text>
</a>
</g>
</g>
<!-- Node2&#45;&gt;Node3 -->
<g id="edge2" class="edge">
<title>Node2&#45;&gt;Node3</title>
<path fill="none" stroke="midnightblue" d="M215.25,-259.58C182.98,-248.02 134.82,-230.75 106.24,-220.51"/>
<polygon fill="midnightblue" stroke="midnightblue" points="214.12,-262.9 224.72,-262.98 216.48,-256.31 214.12,-262.9"/>
</g>
<!-- Node4 -->
<g id="node4" class="node">
<title>Node4</title>
<g id="a_node4"><a xlink:href="_runtime_8hpp.html" target="_top" xlink:title=" ">
<polygon fill="white" stroke="black" points="183,-201.5 183,-220.5 314,-220.5 314,-201.5 183,-201.5"/>
<text text-anchor="middle" x="248.5" y="-208.5" font-family="Helvetica,sans-Serif" font-size="10.00">src/armnn/Runtime.hpp</text>
</a>
</g>
</g>
<!-- Node2&#45;&gt;Node4 -->
<g id="edge3" class="edge">
<title>Node2&#45;&gt;Node4</title>
<path fill="none" stroke="midnightblue" d="M248.5,-252.82C248.5,-242 248.5,-228.9 248.5,-220.51"/>
<polygon fill="midnightblue" stroke="midnightblue" points="245,-252.98 248.5,-262.98 252,-252.98 245,-252.98"/>
</g>
<!-- Node5 -->
<g id="node5" class="node">
<title>Node5</title>
<g id="a_node5"><a xlink:href="_runtime_8cpp.html" target="_top" xlink:title=" ">
<polygon fill="white" stroke="black" points="46.5,-140 46.5,-159 176.5,-159 176.5,-140 46.5,-140"/>
<text text-anchor="middle" x="111.5" y="-147" font-family="Helvetica,sans-Serif" font-size="10.00">src/armnn/Runtime.cpp</text>
</a>
</g>
</g>
<!-- Node4&#45;&gt;Node5 -->
<g id="edge4" class="edge">
<title>Node4&#45;&gt;Node5</title>
<path fill="none" stroke="midnightblue" d="M219.67,-197.48C193.06,-185.92 154.27,-169.08 131.09,-159.01"/>
<polygon fill="midnightblue" stroke="midnightblue" points="218.3,-200.7 228.87,-201.48 221.09,-194.28 218.3,-200.7"/>
</g>
<!-- Node6 -->
<g id="node6" class="node">
<title>Node6</title>
<g id="a_node6"><a xlink:href="_test_utils_8hpp.html" target="_top" xlink:title=" ">
<polygon fill="white" stroke="black" points="195,-134.5 195,-164.5 302,-164.5 302,-134.5 195,-134.5"/>
<text text-anchor="start" x="203" y="-152.5" font-family="Helvetica,sans-Serif" font-size="10.00">src/armnnTestUtils</text>
<text text-anchor="middle" x="248.5" y="-141.5" font-family="Helvetica,sans-Serif" font-size="10.00">/TestUtils.hpp</text>
</a>
</g>
</g>
<!-- Node4&#45;&gt;Node6 -->
<g id="edge5" class="edge">
<title>Node4&#45;&gt;Node6</title>
<path fill="none" stroke="midnightblue" d="M248.5,-191.23C248.5,-182.59 248.5,-172.5 248.5,-164.52"/>
<polygon fill="midnightblue" stroke="midnightblue" points="245,-191.48 248.5,-201.48 252,-191.48 245,-191.48"/>
</g>
<!-- Node7 -->
<g id="node7" class="node">
<title>Node7</title>
<g id="a_node7"><a xlink:href="_common_test_utils_8hpp.html" target="_top" xlink:title=" ">
<polygon fill="white" stroke="black" points="45,-67.5 45,-97.5 172,-97.5 172,-67.5 45,-67.5"/>
<text text-anchor="start" x="53" y="-85.5" font-family="Helvetica,sans-Serif" font-size="10.00">src/armnnTestUtils</text>
<text text-anchor="middle" x="108.5" y="-74.5" font-family="Helvetica,sans-Serif" font-size="10.00">/CommonTestUtils.hpp</text>
</a>
</g>
</g>
<!-- Node6&#45;&gt;Node7 -->
<g id="edge6" class="edge">
<title>Node6&#45;&gt;Node7</title>
<path fill="none" stroke="midnightblue" d="M208.93,-130.13C186.69,-119.8 159.35,-107.11 138.82,-97.58"/>
<polygon fill="midnightblue" stroke="midnightblue" points="207.58,-133.36 218.12,-134.4 210.53,-127.01 207.58,-133.36"/>
</g>
<!-- Node6&#45;&gt;Node9 -->
<g id="edge8" class="edge">
<title>Node6&#45;&gt;Node9</title>
<path fill="none" stroke="midnightblue" d="M284.92,-129.71C304.79,-119.46 328.98,-106.98 347.21,-97.58"/>
<polygon fill="midnightblue" stroke="midnightblue" points="283.12,-126.7 275.84,-134.4 286.33,-132.92 283.12,-126.7"/>
</g>
<!-- Node10 -->
<g id="node10" class="node">
<title>Node10</title>
<g id="a_node10"><a xlink:href="_test_utils_8cpp.html" target="_top" xlink:title=" ">
<polygon fill="white" stroke="black" points="190,-67.5 190,-97.5 297,-97.5 297,-67.5 190,-67.5"/>
<text text-anchor="start" x="198" y="-85.5" font-family="Helvetica,sans-Serif" font-size="10.00">src/armnnTestUtils</text>
<text text-anchor="middle" x="243.5" y="-74.5" font-family="Helvetica,sans-Serif" font-size="10.00">/TestUtils.cpp</text>
</a>
</g>
</g>
<!-- Node6&#45;&gt;Node10 -->
<g id="edge9" class="edge">
<title>Node6&#45;&gt;Node10</title>
<path fill="none" stroke="midnightblue" d="M246.65,-124.4C245.95,-115.37 245.19,-105.41 244.58,-97.58"/>
<polygon fill="midnightblue" stroke="midnightblue" points="243.16,-124.69 247.42,-134.4 250.14,-124.16 243.16,-124.69"/>
</g>
<!-- Node8 -->
<g id="node8" class="node">
<title>Node8</title>
<g id="a_node8"><a xlink:href="_common_test_utils_8cpp.html" target="_top" xlink:title=" ">
<polygon fill="white" stroke="black" points="45.5,-0.5 45.5,-30.5 171.5,-30.5 171.5,-0.5 45.5,-0.5"/>
<text text-anchor="start" x="53.5" y="-18.5" font-family="Helvetica,sans-Serif" font-size="10.00">src/armnnTestUtils</text>
<text text-anchor="middle" x="108.5" y="-7.5" font-family="Helvetica,sans-Serif" font-size="10.00">/CommonTestUtils.cpp</text>
</a>
</g>
</g>
<!-- Node7&#45;&gt;Node8 -->
<g id="edge7" class="edge">
<title>Node7&#45;&gt;Node8</title>
<path fill="none" stroke="midnightblue" d="M108.5,-57.11C108.5,-48.15 108.5,-38.32 108.5,-30.58"/>
<polygon fill="midnightblue" stroke="midnightblue" points="105,-57.4 108.5,-67.4 112,-57.4 105,-57.4"/>
</g>
</g>
</svg>
