<?xml version="1.0" encoding="UTF-8" standalone="no"?>
<!DOCTYPE svg PUBLIC "-//W3C//DTD SVG 1.1//EN"
 "http://www.w3.org/Graphics/SVG/1.1/DTD/svg11.dtd">
<!-- Generated by graphviz version 2.43.0 (0)
 -->
<!-- Title: include/armnnUtils/QuantizeHelper.hpp Pages: 1 -->
<svg width="1549pt" height="319pt"
 viewBox="0.00 0.00 1549.00 319.00" xmlns="http://www.w3.org/2000/svg" xmlns:xlink="http://www.w3.org/1999/xlink">
<g id="graph0" class="graph" transform="scale(1 1) rotate(0) translate(4 315)">
<title>include/armnnUtils/QuantizeHelper.hpp</title>
<polygon fill="white" stroke="transparent" points="-4,4 -4,-315 1545,-315 1545,4 -4,4"/>
<!-- Node1 -->
<g id="node1" class="node">
<title>Node1</title>
<g id="a_node1"><a xlink:title=" ">
<polygon fill="#bfbfbf" stroke="black" points="1044.5,-280.5 1044.5,-310.5 1160.5,-310.5 1160.5,-280.5 1044.5,-280.5"/>
<text text-anchor="start" x="1052.5" y="-298.5" font-family="Helvetica,sans-Serif" font-size="10.00">include/armnnUtils</text>
<text text-anchor="middle" x="1102.5" y="-287.5" font-family="Helvetica,sans-Serif" font-size="10.00">/QuantizeHelper.hpp</text>
</a>
</g>
</g>
<!-- Node2 -->
<g id="node2" class="node">
<title>Node2</title>
<g id="a_node2"><a xlink:href="_ignore_unused_8hpp.html" target="_top" xlink:title=" ">
<polygon fill="white" stroke="black" points="0,-224.5 0,-243.5 171,-243.5 171,-224.5 0,-224.5"/>
<text text-anchor="middle" x="85.5" y="-231.5" font-family="Helvetica,sans-Serif" font-size="10.00">armnn/utility/IgnoreUnused.hpp</text>
</a>
</g>
</g>
<!-- Node1&#45;&gt;Node2 -->
<g id="edge1" class="edge">
<title>Node1&#45;&gt;Node2</title>
<path fill="none" stroke="midnightblue" d="M1044.4,-292.15C900.21,-286.12 514.19,-268.92 181.37,-244.11"/>
<polygon fill="midnightblue" stroke="midnightblue" points="181.28,-240.6 171.04,-243.34 180.76,-247.58 181.28,-240.6"/>
</g>
<!-- Node3 -->
<g id="node3" class="node">
<title>Node3</title>
<g id="a_node3"><a xlink:href="_numeric_cast_8hpp.html" target="_top" xlink:title=" ">
<polygon fill="white" stroke="black" points="189,-224.5 189,-243.5 356,-243.5 356,-224.5 189,-224.5"/>
<text text-anchor="middle" x="272.5" y="-231.5" font-family="Helvetica,sans-Serif" font-size="10.00">armnn/utility/NumericCast.hpp</text>
</a>
</g>
</g>
<!-- Node1&#45;&gt;Node3 -->
<g id="edge2" class="edge">
<title>Node1&#45;&gt;Node3</title>
<path fill="none" stroke="midnightblue" d="M1044.18,-291.06C921.11,-283.69 625.57,-265.33 366.13,-244.03"/>
<polygon fill="midnightblue" stroke="midnightblue" points="366.4,-240.54 356.14,-243.21 365.82,-247.52 366.4,-240.54"/>
</g>
<!-- Node8 -->
<g id="node8" class="node">
<title>Node8</title>
<g id="a_node8"><a xlink:href="_types_utils_8hpp.html" target="_top" xlink:title=" ">
<polygon fill="white" stroke="black" points="848.5,-224.5 848.5,-243.5 970.5,-243.5 970.5,-224.5 848.5,-224.5"/>
<text text-anchor="middle" x="909.5" y="-231.5" font-family="Helvetica,sans-Serif" font-size="10.00">armnn/TypesUtils.hpp</text>
</a>
</g>
</g>
<!-- Node1&#45;&gt;Node8 -->
<g id="edge7" class="edge">
<title>Node1&#45;&gt;Node8</title>
<path fill="none" stroke="midnightblue" d="M1056.76,-280.4C1023.27,-270.07 978.37,-256.23 946.98,-246.56"/>
<polygon fill="midnightblue" stroke="midnightblue" points="947.89,-243.17 937.3,-243.57 945.83,-249.86 947.89,-243.17"/>
</g>
<!-- Node15 -->
<g id="node15" class="node">
<title>Node15</title>
<g id="a_node15"><a xlink:title=" ">
<polygon fill="white" stroke="#bfbfbf" points="1062,-0.5 1062,-19.5 1109,-19.5 1109,-0.5 1062,-0.5"/>
<text text-anchor="middle" x="1085.5" y="-7.5" font-family="Helvetica,sans-Serif" font-size="10.00">vector</text>
</a>
</g>
</g>
<!-- Node1&#45;&gt;Node15 -->
<g id="edge54" class="edge">
<title>Node1&#45;&gt;Node15</title>
<path fill="none" stroke="midnightblue" d="M1160.65,-287.87C1261.81,-274.71 1459.5,-241.05 1459.5,-179 1459.5,-179 1459.5,-179 1459.5,-121 1459.5,-90.9 1463.54,-75.36 1440.5,-56 1387.53,-11.49 1204.33,-31.76 1119.09,-19.58"/>
<polygon fill="midnightblue" stroke="midnightblue" points="1119.63,-16.13 1109.19,-17.93 1118.48,-23.03 1119.63,-16.13"/>
</g>
<!-- Node28 -->
<g id="node28" class="node">
<title>Node28</title>
<g id="a_node28"><a xlink:title=" ">
<polygon fill="white" stroke="#bfbfbf" points="1097,-112.5 1097,-131.5 1180,-131.5 1180,-112.5 1097,-112.5"/>
<text text-anchor="middle" x="1138.5" y="-119.5" font-family="Helvetica,sans-Serif" font-size="10.00">initializer_list</text>
</a>
</g>
</g>
<!-- Node1&#45;&gt;Node28 -->
<g id="edge52" class="edge">
<title>Node1&#45;&gt;Node28</title>
<path fill="none" stroke="midnightblue" d="M1105.45,-280.47C1111.9,-249.7 1127.31,-176.33 1134.57,-141.7"/>
<polygon fill="midnightblue" stroke="midnightblue" points="1138.07,-142.07 1136.7,-131.56 1131.22,-140.63 1138.07,-142.07"/>
</g>
<!-- Node31 -->
<g id="node31" class="node">
<title>Node31</title>
<g id="a_node31"><a xlink:href="_b_float16_8hpp.html" target="_top" xlink:title=" ">
<polygon fill="white" stroke="black" points="1262,-112.5 1262,-131.5 1343,-131.5 1343,-112.5 1262,-112.5"/>
<text text-anchor="middle" x="1302.5" y="-119.5" font-family="Helvetica,sans-Serif" font-size="10.00">BFloat16.hpp</text>
</a>
</g>
</g>
<!-- Node1&#45;&gt;Node31 -->
<g id="edge44" class="edge">
<title>Node1&#45;&gt;Node31</title>
<path fill="none" stroke="midnightblue" d="M1118.87,-280.47C1155.99,-248.63 1246.32,-171.17 1284.74,-138.23"/>
<polygon fill="midnightblue" stroke="midnightblue" points="1287.2,-140.73 1292.52,-131.56 1282.65,-135.41 1287.2,-140.73"/>
</g>
<!-- Node32 -->
<g id="node32" class="node">
<title>Node32</title>
<g id="a_node32"><a xlink:href="_half_8hpp.html" target="_top" xlink:title=" ">
<polygon fill="white" stroke="black" points="374,-224.5 374,-243.5 431,-243.5 431,-224.5 374,-224.5"/>
<text text-anchor="middle" x="402.5" y="-231.5" font-family="Helvetica,sans-Serif" font-size="10.00">Half.hpp</text>
</a>
</g>
</g>
<!-- Node1&#45;&gt;Node32 -->
<g id="edge49" class="edge">
<title>Node1&#45;&gt;Node32</title>
<path fill="none" stroke="midnightblue" d="M1044.32,-289.55C905.61,-277.76 558.32,-248.24 441.52,-238.32"/>
<polygon fill="midnightblue" stroke="midnightblue" points="441.53,-234.81 431.27,-237.45 440.94,-241.78 441.53,-234.81"/>
</g>
<!-- Node34 -->
<g id="node34" class="node">
<title>Node34</title>
<g id="a_node34"><a xlink:title=" ">
<polygon fill="white" stroke="#bfbfbf" points="1488,-224.5 1488,-243.5 1541,-243.5 1541,-224.5 1488,-224.5"/>
<text text-anchor="middle" x="1514.5" y="-231.5" font-family="Helvetica,sans-Serif" font-size="10.00">iterator</text>
</a>
</g>
</g>
<!-- Node1&#45;&gt;Node34 -->
<g id="edge53" class="edge">
<title>Node1&#45;&gt;Node34</title>
<path fill="none" stroke="midnightblue" d="M1160.56,-288.07C1233.78,-279.62 1363.41,-263.54 1473.5,-244 1474.79,-243.77 1476.1,-243.53 1477.43,-243.28"/>
<polygon fill="midnightblue" stroke="midnightblue" points="1478.54,-246.62 1487.66,-241.22 1477.16,-239.76 1478.54,-246.62"/>
</g>
<!-- Node4 -->
<g id="node4" class="node">
<title>Node4</title>
<g id="a_node4"><a xlink:href="_assert_8hpp.html" target="_top" xlink:title=" ">
<polygon fill="white" stroke="black" points="188.5,-168.5 188.5,-187.5 256.5,-187.5 256.5,-168.5 188.5,-168.5"/>
<text text-anchor="middle" x="222.5" y="-175.5" font-family="Helvetica,sans-Serif" font-size="10.00">Assert.hpp</text>
</a>
</g>
</g>
<!-- Node3&#45;&gt;Node4 -->
<g id="edge3" class="edge">
<title>Node3&#45;&gt;Node4</title>
<path fill="none" stroke="midnightblue" d="M264.24,-224.08C257.04,-216.3 246.39,-204.8 237.65,-195.37"/>
<polygon fill="midnightblue" stroke="midnightblue" points="239.97,-192.71 230.6,-187.75 234.83,-197.47 239.97,-192.71"/>
</g>
<!-- Node6 -->
<g id="node6" class="node">
<title>Node6</title>
<g id="a_node6"><a xlink:title=" ">
<polygon fill="white" stroke="#bfbfbf" points="343,-56.5 343,-75.5 412,-75.5 412,-56.5 343,-56.5"/>
<text text-anchor="middle" x="377.5" y="-63.5" font-family="Helvetica,sans-Serif" font-size="10.00">type_traits</text>
</a>
</g>
</g>
<!-- Node3&#45;&gt;Node6 -->
<g id="edge5" class="edge">
<title>Node3&#45;&gt;Node6</title>
<path fill="none" stroke="midnightblue" d="M276.27,-224.39C285.39,-204 309.91,-151.49 337.5,-112 344.59,-101.85 353.69,-91.45 361.42,-83.21"/>
<polygon fill="midnightblue" stroke="midnightblue" points="364.15,-85.42 368.56,-75.78 359.11,-80.57 364.15,-85.42"/>
</g>
<!-- Node7 -->
<g id="node7" class="node">
<title>Node7</title>
<g id="a_node7"><a xlink:title=" ">
<polygon fill="white" stroke="#bfbfbf" points="126.5,-168.5 126.5,-187.5 170.5,-187.5 170.5,-168.5 126.5,-168.5"/>
<text text-anchor="middle" x="148.5" y="-175.5" font-family="Helvetica,sans-Serif" font-size="10.00">limits</text>
</a>
</g>
</g>
<!-- Node3&#45;&gt;Node7 -->
<g id="edge6" class="edge">
<title>Node3&#45;&gt;Node7</title>
<path fill="none" stroke="midnightblue" d="M252.85,-224.44C232.54,-215.6 200.6,-201.69 177.4,-191.59"/>
<polygon fill="midnightblue" stroke="midnightblue" points="178.62,-188.3 168.06,-187.52 175.83,-194.72 178.62,-188.3"/>
</g>
<!-- Node5 -->
<g id="node5" class="node">
<title>Node5</title>
<g id="a_node5"><a xlink:title=" ">
<polygon fill="white" stroke="#bfbfbf" points="196.5,-112.5 196.5,-131.5 248.5,-131.5 248.5,-112.5 196.5,-112.5"/>
<text text-anchor="middle" x="222.5" y="-119.5" font-family="Helvetica,sans-Serif" font-size="10.00">cassert</text>
</a>
</g>
</g>
<!-- Node4&#45;&gt;Node5 -->
<g id="edge4" class="edge">
<title>Node4&#45;&gt;Node5</title>
<path fill="none" stroke="midnightblue" d="M222.5,-168.08C222.5,-161.01 222.5,-150.86 222.5,-141.99"/>
<polygon fill="midnightblue" stroke="midnightblue" points="226,-141.75 222.5,-131.75 219,-141.75 226,-141.75"/>
</g>
<!-- Node8&#45;&gt;Node6 -->
<g id="edge43" class="edge">
<title>Node8&#45;&gt;Node6</title>
<path fill="none" stroke="midnightblue" d="M848.37,-232.12C745.48,-229.73 542.86,-220.87 480.5,-188 435.51,-164.29 401.9,-111.97 386.61,-84.55"/>
<polygon fill="midnightblue" stroke="midnightblue" points="389.65,-82.81 381.82,-75.68 383.49,-86.14 389.65,-82.81"/>
</g>
<!-- Node9 -->
<g id="node9" class="node">
<title>Node9</title>
<g id="a_node9"><a xlink:href="_backend_id_8hpp.html" target="_top" xlink:title=" ">
<polygon fill="white" stroke="black" points="1167.5,-56.5 1167.5,-75.5 1289.5,-75.5 1289.5,-56.5 1167.5,-56.5"/>
<text text-anchor="middle" x="1228.5" y="-63.5" font-family="Helvetica,sans-Serif" font-size="10.00">armnn/BackendId.hpp</text>
</a>
</g>
</g>
<!-- Node8&#45;&gt;Node9 -->
<g id="edge8" class="edge">
<title>Node8&#45;&gt;Node9</title>
<path fill="none" stroke="midnightblue" d="M920.14,-224.19C946.88,-202.43 1019.69,-145.47 1088.5,-112 1118.66,-97.33 1154.73,-85.87 1182.71,-78.18"/>
<polygon fill="midnightblue" stroke="midnightblue" points="1183.87,-81.49 1192.62,-75.52 1182.06,-74.73 1183.87,-81.49"/>
</g>
<!-- Node11 -->
<g id="node11" class="node">
<title>Node11</title>
<g id="a_node11"><a xlink:title=" ">
<polygon fill="white" stroke="#bfbfbf" points="1308,-0.5 1308,-19.5 1365,-19.5 1365,-0.5 1308,-0.5"/>
<text text-anchor="middle" x="1336.5" y="-7.5" font-family="Helvetica,sans-Serif" font-size="10.00">ostream</text>
</a>
</g>
</g>
<!-- Node8&#45;&gt;Node11 -->
<g id="edge41" class="edge">
<title>Node8&#45;&gt;Node11</title>
<path fill="none" stroke="midnightblue" d="M938.15,-224.45C1018.4,-200.03 1243.17,-128.39 1298.5,-76 1312.55,-62.69 1323.06,-43.03 1329.43,-28.82"/>
<polygon fill="midnightblue" stroke="midnightblue" points="1332.65,-30.18 1333.32,-19.61 1326.2,-27.46 1332.65,-30.18"/>
</g>
<!-- Node12 -->
<g id="node12" class="node">
<title>Node12</title>
<g id="a_node12"><a xlink:title=" ">
<polygon fill="white" stroke="#bfbfbf" points="728.5,-0.5 728.5,-19.5 760.5,-19.5 760.5,-0.5 728.5,-0.5"/>
<text text-anchor="middle" x="744.5" y="-7.5" font-family="Helvetica,sans-Serif" font-size="10.00">set</text>
</a>
</g>
</g>
<!-- Node8&#45;&gt;Node12 -->
<g id="edge42" class="edge">
<title>Node8&#45;&gt;Node12</title>
<path fill="none" stroke="midnightblue" d="M848.41,-233.5C785.76,-231.85 686.83,-223.11 609.5,-188 550.07,-161.01 529.95,-139.42 514.5,-76 512.4,-67.36 508.85,-62.86 514.5,-56 527.44,-40.29 660.68,-21.64 718.24,-14.25"/>
<polygon fill="midnightblue" stroke="midnightblue" points="718.9,-17.7 728.38,-12.97 718.02,-10.75 718.9,-17.7"/>
</g>
<!-- Node16 -->
<g id="node16" class="node">
<title>Node16</title>
<g id="a_node16"><a xlink:href="_exceptions_8hpp.html" target="_top" xlink:title=" ">
<polygon fill="white" stroke="black" points="523,-56.5 523,-75.5 648,-75.5 648,-56.5 523,-56.5"/>
<text text-anchor="middle" x="585.5" y="-63.5" font-family="Helvetica,sans-Serif" font-size="10.00">armnn/Exceptions.hpp</text>
</a>
</g>
</g>
<!-- Node8&#45;&gt;Node16 -->
<g id="edge15" class="edge">
<title>Node8&#45;&gt;Node16</title>
<path fill="none" stroke="midnightblue" d="M848.35,-224.66C756.01,-210.67 587.96,-179.28 552.5,-132 540.95,-116.6 554.78,-96.54 567.91,-82.81"/>
<polygon fill="midnightblue" stroke="midnightblue" points="570.65,-85.03 575.36,-75.53 565.76,-80.02 570.65,-85.03"/>
</g>
<!-- Node19 -->
<g id="node19" class="node">
<title>Node19</title>
<g id="a_node19"><a xlink:href="_tensor_8hpp.html" target="_top" xlink:title=" ">
<polygon fill="white" stroke="black" points="753,-168.5 753,-187.5 856,-187.5 856,-168.5 753,-168.5"/>
<text text-anchor="middle" x="804.5" y="-175.5" font-family="Helvetica,sans-Serif" font-size="10.00">armnn/Tensor.hpp</text>
</a>
</g>
</g>
<!-- Node8&#45;&gt;Node19 -->
<g id="edge19" class="edge">
<title>Node8&#45;&gt;Node19</title>
<path fill="none" stroke="midnightblue" d="M892.63,-224.32C875.79,-215.66 849.69,-202.24 830.26,-192.25"/>
<polygon fill="midnightblue" stroke="midnightblue" points="831.82,-189.12 821.33,-187.65 828.62,-195.34 831.82,-189.12"/>
</g>
<!-- Node22 -->
<g id="node22" class="node">
<title>Node22</title>
<g id="a_node22"><a xlink:href="_types_8hpp.html" target="_top" xlink:title=" ">
<polygon fill="white" stroke="black" points="913,-112.5 913,-131.5 978,-131.5 978,-112.5 913,-112.5"/>
<text text-anchor="middle" x="945.5" y="-119.5" font-family="Helvetica,sans-Serif" font-size="10.00">Types.hpp</text>
</a>
</g>
</g>
<!-- Node8&#45;&gt;Node22 -->
<g id="edge38" class="edge">
<title>Node8&#45;&gt;Node22</title>
<path fill="none" stroke="midnightblue" d="M912.32,-224.37C918.16,-206.54 931.66,-165.3 939.52,-141.27"/>
<polygon fill="midnightblue" stroke="midnightblue" points="942.9,-142.18 942.69,-131.59 936.25,-140.01 942.9,-142.18"/>
</g>
<!-- Node25 -->
<g id="node25" class="node">
<title>Node25</title>
<g id="a_node25"><a xlink:title=" ">
<polygon fill="white" stroke="#bfbfbf" points="833,-56.5 833,-75.5 886,-75.5 886,-56.5 833,-56.5"/>
<text text-anchor="middle" x="859.5" y="-63.5" font-family="Helvetica,sans-Serif" font-size="10.00">stdint.h</text>
</a>
</g>
</g>
<!-- Node8&#45;&gt;Node25 -->
<g id="edge39" class="edge">
<title>Node8&#45;&gt;Node25</title>
<path fill="none" stroke="midnightblue" d="M906.81,-224.08C898.94,-197.95 875.83,-121.21 865.1,-85.58"/>
<polygon fill="midnightblue" stroke="midnightblue" points="868.32,-84.13 862.08,-75.57 861.61,-86.15 868.32,-84.13"/>
</g>
<!-- Node30 -->
<g id="node30" class="node">
<title>Node30</title>
<g id="a_node30"><a xlink:title=" ">
<polygon fill="white" stroke="#bfbfbf" points="1384,-56.5 1384,-75.5 1431,-75.5 1431,-56.5 1384,-56.5"/>
<text text-anchor="middle" x="1407.5" y="-63.5" font-family="Helvetica,sans-Serif" font-size="10.00">cmath</text>
</a>
</g>
</g>
<!-- Node8&#45;&gt;Node30 -->
<g id="edge40" class="edge">
<title>Node8&#45;&gt;Node30</title>
<path fill="none" stroke="midnightblue" d="M970.77,-231.38C1039.6,-228.08 1153.95,-218.09 1247.5,-188 1297.85,-171.81 1311.35,-165.23 1352.5,-132 1369.67,-118.14 1385.52,-98.34 1395.75,-84.24"/>
<polygon fill="midnightblue" stroke="midnightblue" points="1398.71,-86.11 1401.62,-75.92 1392.99,-82.07 1398.71,-86.11"/>
</g>
<!-- Node10 -->
<g id="node10" class="node">
<title>Node10</title>
<g id="a_node10"><a xlink:title=" ">
<polygon fill="white" stroke="#bfbfbf" points="1127.5,-0.5 1127.5,-19.5 1185.5,-19.5 1185.5,-0.5 1127.5,-0.5"/>
<text text-anchor="middle" x="1156.5" y="-7.5" font-family="Helvetica,sans-Serif" font-size="10.00">memory</text>
</a>
</g>
</g>
<!-- Node9&#45;&gt;Node10 -->
<g id="edge9" class="edge">
<title>Node9&#45;&gt;Node10</title>
<path fill="none" stroke="midnightblue" d="M1216.93,-56.32C1206.08,-48.18 1189.62,-35.84 1176.62,-26.09"/>
<polygon fill="midnightblue" stroke="midnightblue" points="1178.38,-23.03 1168.28,-19.83 1174.18,-28.63 1178.38,-23.03"/>
</g>
<!-- Node9&#45;&gt;Node11 -->
<g id="edge10" class="edge">
<title>Node9&#45;&gt;Node11</title>
<path fill="none" stroke="midnightblue" d="M1245.85,-56.32C1263.17,-47.66 1290.02,-34.24 1310,-24.25"/>
<polygon fill="midnightblue" stroke="midnightblue" points="1311.81,-27.26 1319.19,-19.65 1308.68,-21 1311.81,-27.26"/>
</g>
<!-- Node9&#45;&gt;Node12 -->
<g id="edge11" class="edge">
<title>Node9&#45;&gt;Node12</title>
<path fill="none" stroke="midnightblue" d="M1167.43,-57.08C1164.41,-56.71 1161.42,-56.35 1158.5,-56 1012.24,-38.65 836.6,-20.42 770.95,-13.69"/>
<polygon fill="midnightblue" stroke="midnightblue" points="770.99,-10.18 760.69,-12.64 770.28,-17.14 770.99,-10.18"/>
</g>
<!-- Node13 -->
<g id="node13" class="node">
<title>Node13</title>
<g id="a_node13"><a xlink:title=" ">
<polygon fill="white" stroke="#bfbfbf" points="925.5,-0.5 925.5,-19.5 969.5,-19.5 969.5,-0.5 925.5,-0.5"/>
<text text-anchor="middle" x="947.5" y="-7.5" font-family="Helvetica,sans-Serif" font-size="10.00">string</text>
</a>
</g>
</g>
<!-- Node9&#45;&gt;Node13 -->
<g id="edge12" class="edge">
<title>Node9&#45;&gt;Node13</title>
<path fill="none" stroke="midnightblue" d="M1183.97,-56.44C1127.05,-45.5 1029.86,-26.83 979.65,-17.18"/>
<polygon fill="midnightblue" stroke="midnightblue" points="980.16,-13.71 969.68,-15.26 978.84,-20.59 980.16,-13.71"/>
</g>
<!-- Node14 -->
<g id="node14" class="node">
<title>Node14</title>
<g id="a_node14"><a xlink:title=" ">
<polygon fill="white" stroke="#bfbfbf" points="1203.5,-0.5 1203.5,-19.5 1289.5,-19.5 1289.5,-0.5 1203.5,-0.5"/>
<text text-anchor="middle" x="1246.5" y="-7.5" font-family="Helvetica,sans-Serif" font-size="10.00">unordered_set</text>
</a>
</g>
</g>
<!-- Node9&#45;&gt;Node14 -->
<g id="edge13" class="edge">
<title>Node9&#45;&gt;Node14</title>
<path fill="none" stroke="midnightblue" d="M1231.47,-56.08C1233.88,-48.85 1237.36,-38.41 1240.37,-29.4"/>
<polygon fill="midnightblue" stroke="midnightblue" points="1243.74,-30.34 1243.58,-19.75 1237.1,-28.13 1243.74,-30.34"/>
</g>
<!-- Node9&#45;&gt;Node15 -->
<g id="edge14" class="edge">
<title>Node9&#45;&gt;Node15</title>
<path fill="none" stroke="midnightblue" d="M1205.84,-56.44C1182.1,-47.48 1144.59,-33.31 1117.76,-23.18"/>
<polygon fill="midnightblue" stroke="midnightblue" points="1118.64,-19.77 1108.05,-19.52 1116.17,-26.32 1118.64,-19.77"/>
</g>
<!-- Node16&#45;&gt;Node13 -->
<g id="edge18" class="edge">
<title>Node16&#45;&gt;Node13</title>
<path fill="none" stroke="midnightblue" d="M642.86,-56.44C719.78,-44.97 853.77,-24.98 915.13,-15.83"/>
<polygon fill="midnightblue" stroke="midnightblue" points="916,-19.24 925.37,-14.3 914.97,-12.31 916,-19.24"/>
</g>
<!-- Node17 -->
<g id="node17" class="node">
<title>Node17</title>
<g id="a_node17"><a xlink:title=" ">
<polygon fill="white" stroke="#bfbfbf" points="517.5,-0.5 517.5,-19.5 573.5,-19.5 573.5,-0.5 517.5,-0.5"/>
<text text-anchor="middle" x="545.5" y="-7.5" font-family="Helvetica,sans-Serif" font-size="10.00">sstream</text>
</a>
</g>
</g>
<!-- Node16&#45;&gt;Node17 -->
<g id="edge16" class="edge">
<title>Node16&#45;&gt;Node17</title>
<path fill="none" stroke="midnightblue" d="M578.89,-56.08C573.24,-48.46 564.96,-37.26 558.05,-27.94"/>
<polygon fill="midnightblue" stroke="midnightblue" points="560.75,-25.7 551.98,-19.75 555.12,-29.87 560.75,-25.7"/>
</g>
<!-- Node18 -->
<g id="node18" class="node">
<title>Node18</title>
<g id="a_node18"><a xlink:title=" ">
<polygon fill="white" stroke="#bfbfbf" points="592,-0.5 592,-19.5 657,-19.5 657,-0.5 592,-0.5"/>
<text text-anchor="middle" x="624.5" y="-7.5" font-family="Helvetica,sans-Serif" font-size="10.00">stdexcept</text>
</a>
</g>
</g>
<!-- Node16&#45;&gt;Node18 -->
<g id="edge17" class="edge">
<title>Node16&#45;&gt;Node18</title>
<path fill="none" stroke="midnightblue" d="M591.94,-56.08C597.45,-48.46 605.53,-37.26 612.26,-27.94"/>
<polygon fill="midnightblue" stroke="midnightblue" points="615.16,-29.91 618.18,-19.75 609.49,-25.81 615.16,-29.91"/>
</g>
<!-- Node19&#45;&gt;Node15 -->
<g id="edge36" class="edge">
<title>Node19&#45;&gt;Node15</title>
<path fill="none" stroke="midnightblue" d="M796.44,-168.28C777.47,-146.7 733.8,-90.14 763.5,-56 772.93,-45.16 971.05,-23.1 1051.75,-14.52"/>
<polygon fill="midnightblue" stroke="midnightblue" points="1052.3,-17.98 1061.88,-13.45 1051.56,-11.02 1052.3,-17.98"/>
</g>
<!-- Node19&#45;&gt;Node16 -->
<g id="edge20" class="edge">
<title>Node19&#45;&gt;Node16</title>
<path fill="none" stroke="midnightblue" d="M778.08,-168.39C754.15,-160.21 718.21,-146.96 688.5,-132 658.53,-116.91 626.14,-95.55 605.84,-81.49"/>
<polygon fill="midnightblue" stroke="midnightblue" points="607.62,-78.46 597.42,-75.6 603.6,-84.2 607.62,-78.46"/>
</g>
<!-- Node20 -->
<g id="node20" class="node">
<title>Node20</title>
<g id="a_node20"><a xlink:href="_optional_8hpp.html" target="_top" xlink:title=" ">
<polygon fill="white" stroke="black" points="561,-112.5 561,-131.5 640,-131.5 640,-112.5 561,-112.5"/>
<text text-anchor="middle" x="600.5" y="-119.5" font-family="Helvetica,sans-Serif" font-size="10.00">Optional.hpp</text>
</a>
</g>
</g>
<!-- Node19&#45;&gt;Node20 -->
<g id="edge21" class="edge">
<title>Node19&#45;&gt;Node20</title>
<path fill="none" stroke="midnightblue" d="M772.18,-168.44C737.11,-159.16 681,-144.31 642.54,-134.13"/>
<polygon fill="midnightblue" stroke="midnightblue" points="643.24,-130.69 632.67,-131.52 641.44,-137.46 643.24,-130.69"/>
</g>
<!-- Node19&#45;&gt;Node22 -->
<g id="edge25" class="edge">
<title>Node19&#45;&gt;Node22</title>
<path fill="none" stroke="midnightblue" d="M826.84,-168.44C850.25,-159.48 887.24,-145.31 913.69,-135.18"/>
<polygon fill="midnightblue" stroke="midnightblue" points="915.18,-138.36 923.26,-131.52 912.67,-131.82 915.18,-138.36"/>
</g>
<!-- Node23 -->
<g id="node23" class="node">
<title>Node23</title>
<g id="a_node23"><a xlink:title=" ">
<polygon fill="white" stroke="#bfbfbf" points="772.5,-56.5 772.5,-75.5 814.5,-75.5 814.5,-56.5 772.5,-56.5"/>
<text text-anchor="middle" x="793.5" y="-63.5" font-family="Helvetica,sans-Serif" font-size="10.00">array</text>
</a>
</g>
</g>
<!-- Node19&#45;&gt;Node23 -->
<g id="edge34" class="edge">
<title>Node19&#45;&gt;Node23</title>
<path fill="none" stroke="midnightblue" d="M803.64,-168.37C801.86,-150.62 797.77,-109.67 795.36,-85.6"/>
<polygon fill="midnightblue" stroke="midnightblue" points="798.84,-85.19 794.36,-75.59 791.87,-85.89 798.84,-85.19"/>
</g>
<!-- Node19&#45;&gt;Node25 -->
<g id="edge33" class="edge">
<title>Node19&#45;&gt;Node25</title>
<path fill="none" stroke="midnightblue" d="M808.82,-168.37C817.81,-150.38 838.72,-108.55 850.69,-84.63"/>
<polygon fill="midnightblue" stroke="midnightblue" points="853.86,-86.1 855.2,-75.59 847.6,-82.97 853.86,-86.1"/>
</g>
<!-- Node19&#45;&gt;Node28 -->
<g id="edge35" class="edge">
<title>Node19&#45;&gt;Node28</title>
<path fill="none" stroke="midnightblue" d="M856.32,-168.62C919.07,-158.48 1024.11,-141.49 1086.8,-131.36"/>
<polygon fill="midnightblue" stroke="midnightblue" points="1087.55,-134.78 1096.86,-129.73 1086.43,-127.87 1087.55,-134.78"/>
</g>
<!-- Node29 -->
<g id="node29" class="node">
<title>Node29</title>
<g id="a_node29"><a xlink:title=" ">
<polygon fill="white" stroke="#bfbfbf" points="697,-112.5 697,-131.5 742,-131.5 742,-112.5 697,-112.5"/>
<text text-anchor="middle" x="719.5" y="-119.5" font-family="Helvetica,sans-Serif" font-size="10.00">utility</text>
</a>
</g>
</g>
<!-- Node19&#45;&gt;Node29 -->
<g id="edge37" class="edge">
<title>Node19&#45;&gt;Node29</title>
<path fill="none" stroke="midnightblue" d="M790.84,-168.32C777.58,-159.9 757.23,-146.97 741.65,-137.07"/>
<polygon fill="midnightblue" stroke="midnightblue" points="743.44,-134.06 733.12,-131.65 739.69,-139.97 743.44,-134.06"/>
</g>
<!-- Node20&#45;&gt;Node6 -->
<g id="edge24" class="edge">
<title>Node20&#45;&gt;Node6</title>
<path fill="none" stroke="midnightblue" d="M565.16,-112.44C526.48,-103.07 464.35,-88.03 422.28,-77.84"/>
<polygon fill="midnightblue" stroke="midnightblue" points="422.85,-74.38 412.3,-75.43 421.2,-81.18 422.85,-74.38"/>
</g>
<!-- Node20&#45;&gt;Node16 -->
<g id="edge22" class="edge">
<title>Node20&#45;&gt;Node16</title>
<path fill="none" stroke="midnightblue" d="M598.02,-112.08C596.01,-104.85 593.11,-94.41 590.61,-85.4"/>
<polygon fill="midnightblue" stroke="midnightblue" points="593.98,-84.45 587.93,-75.75 587.24,-86.32 593.98,-84.45"/>
</g>
<!-- Node21 -->
<g id="node21" class="node">
<title>Node21</title>
<g id="a_node21"><a xlink:title=" ">
<polygon fill="white" stroke="#bfbfbf" points="666.5,-56.5 666.5,-75.5 716.5,-75.5 716.5,-56.5 666.5,-56.5"/>
<text text-anchor="middle" x="691.5" y="-63.5" font-family="Helvetica,sans-Serif" font-size="10.00">cstring</text>
</a>
</g>
</g>
<!-- Node20&#45;&gt;Node21 -->
<g id="edge23" class="edge">
<title>Node20&#45;&gt;Node21</title>
<path fill="none" stroke="midnightblue" d="M615.12,-112.32C629.45,-103.82 651.51,-90.73 668.25,-80.8"/>
<polygon fill="midnightblue" stroke="midnightblue" points="670.1,-83.77 676.92,-75.65 666.53,-77.75 670.1,-83.77"/>
</g>
<!-- Node22&#45;&gt;Node9 -->
<g id="edge30" class="edge">
<title>Node22&#45;&gt;Node9</title>
<path fill="none" stroke="midnightblue" d="M978.24,-114.75C1026.01,-105.64 1115.41,-88.58 1173.41,-77.51"/>
<polygon fill="midnightblue" stroke="midnightblue" points="1174.34,-80.9 1183.5,-75.59 1173.03,-74.02 1174.34,-80.9"/>
</g>
<!-- Node22&#45;&gt;Node16 -->
<g id="edge31" class="edge">
<title>Node22&#45;&gt;Node16</title>
<path fill="none" stroke="midnightblue" d="M912.92,-116.11C854.28,-107.32 729.89,-88.66 652.43,-77.04"/>
<polygon fill="midnightblue" stroke="midnightblue" points="652.7,-73.54 642.29,-75.52 651.66,-80.46 652.7,-73.54"/>
</g>
<!-- Node22&#45;&gt;Node23 -->
<g id="edge26" class="edge">
<title>Node22&#45;&gt;Node23</title>
<path fill="none" stroke="midnightblue" d="M921.42,-112.44C895.06,-103.08 852.74,-88.05 824.06,-77.86"/>
<polygon fill="midnightblue" stroke="midnightblue" points="825.13,-74.52 814.54,-74.47 822.79,-81.12 825.13,-74.52"/>
</g>
<!-- Node24 -->
<g id="node24" class="node">
<title>Node24</title>
<g id="a_node24"><a xlink:title=" ">
<polygon fill="white" stroke="#bfbfbf" points="904,-56.5 904,-75.5 969,-75.5 969,-56.5 904,-56.5"/>
<text text-anchor="middle" x="936.5" y="-63.5" font-family="Helvetica,sans-Serif" font-size="10.00">functional</text>
</a>
</g>
</g>
<!-- Node22&#45;&gt;Node24 -->
<g id="edge27" class="edge">
<title>Node22&#45;&gt;Node24</title>
<path fill="none" stroke="midnightblue" d="M944.01,-112.08C942.82,-104.93 941.11,-94.64 939.62,-85.69"/>
<polygon fill="midnightblue" stroke="midnightblue" points="943.05,-85.04 937.96,-75.75 936.15,-86.19 943.05,-85.04"/>
</g>
<!-- Node22&#45;&gt;Node25 -->
<g id="edge28" class="edge">
<title>Node22&#45;&gt;Node25</title>
<path fill="none" stroke="midnightblue" d="M931.68,-112.32C918.27,-103.9 897.68,-90.97 881.91,-81.07"/>
<polygon fill="midnightblue" stroke="midnightblue" points="883.61,-78.01 873.28,-75.65 879.89,-83.94 883.61,-78.01"/>
</g>
<!-- Node26 -->
<g id="node26" class="node">
<title>Node26</title>
<g id="a_node26"><a xlink:title=" ">
<polygon fill="white" stroke="#bfbfbf" points="987.5,-56.5 987.5,-75.5 1037.5,-75.5 1037.5,-56.5 987.5,-56.5"/>
<text text-anchor="middle" x="1012.5" y="-63.5" font-family="Helvetica,sans-Serif" font-size="10.00">chrono</text>
</a>
</g>
</g>
<!-- Node22&#45;&gt;Node26 -->
<g id="edge29" class="edge">
<title>Node22&#45;&gt;Node26</title>
<path fill="none" stroke="midnightblue" d="M956.26,-112.32C966.27,-104.26 981.39,-92.08 993.43,-82.37"/>
<polygon fill="midnightblue" stroke="midnightblue" points="995.95,-84.83 1001.54,-75.83 991.56,-79.38 995.95,-84.83"/>
</g>
<!-- Node27 -->
<g id="node27" class="node">
<title>Node27</title>
<g id="a_node27"><a xlink:href="_deprecated_8hpp.html" target="_top" xlink:title=" ">
<polygon fill="white" stroke="black" points="1055.5,-56.5 1055.5,-75.5 1149.5,-75.5 1149.5,-56.5 1055.5,-56.5"/>
<text text-anchor="middle" x="1102.5" y="-63.5" font-family="Helvetica,sans-Serif" font-size="10.00">Deprecated.hpp</text>
</a>
</g>
</g>
<!-- Node22&#45;&gt;Node27 -->
<g id="edge32" class="edge">
<title>Node22&#45;&gt;Node27</title>
<path fill="none" stroke="midnightblue" d="M970.38,-112.44C996.79,-103.36 1038.72,-88.94 1068.24,-78.78"/>
<polygon fill="midnightblue" stroke="midnightblue" points="1069.42,-82.08 1077.74,-75.52 1067.14,-75.46 1069.42,-82.08"/>
</g>
<!-- Node31&#45;&gt;Node11 -->
<g id="edge45" class="edge">
<title>Node31&#45;&gt;Node11</title>
<path fill="none" stroke="midnightblue" d="M1309.94,-112.38C1316.87,-103.8 1326.82,-89.92 1331.5,-76 1336.53,-61.07 1337.56,-43.15 1337.47,-29.92"/>
<polygon fill="midnightblue" stroke="midnightblue" points="1340.96,-29.57 1337.16,-19.68 1333.96,-29.78 1340.96,-29.57"/>
</g>
<!-- Node31&#45;&gt;Node21 -->
<g id="edge47" class="edge">
<title>Node31&#45;&gt;Node21</title>
<path fill="none" stroke="midnightblue" d="M1261.71,-117.69C1144.61,-108.18 812.59,-81.12 763.5,-76 751.6,-74.76 738.63,-73.2 727.01,-71.73"/>
<polygon fill="midnightblue" stroke="midnightblue" points="727.16,-68.22 716.79,-70.42 726.27,-75.17 727.16,-68.22"/>
</g>
<!-- Node31&#45;&gt;Node25 -->
<g id="edge48" class="edge">
<title>Node31&#45;&gt;Node25</title>
<path fill="none" stroke="midnightblue" d="M1261.98,-117.22C1177.02,-109.19 981.78,-90.13 896.26,-75.85"/>
<polygon fill="midnightblue" stroke="midnightblue" points="896.6,-72.36 886.15,-74.09 895.4,-79.25 896.6,-72.36"/>
</g>
<!-- Node31&#45;&gt;Node30 -->
<g id="edge46" class="edge">
<title>Node31&#45;&gt;Node30</title>
<path fill="none" stroke="midnightblue" d="M1319.37,-112.32C1336.21,-103.66 1362.31,-90.24 1381.74,-80.25"/>
<polygon fill="midnightblue" stroke="midnightblue" points="1383.38,-83.34 1390.67,-75.65 1380.18,-77.12 1383.38,-83.34"/>
</g>
<!-- Node32&#45;&gt;Node6 -->
<g id="edge50" class="edge">
<title>Node32&#45;&gt;Node6</title>
<path fill="none" stroke="midnightblue" d="M383.2,-224.48C369.07,-217.08 350.94,-204.89 342.5,-188 325.06,-153.12 348.9,-108.12 364.97,-84.02"/>
<polygon fill="midnightblue" stroke="midnightblue" points="368,-85.81 370.85,-75.61 362.25,-81.8 368,-85.81"/>
</g>
<!-- Node33 -->
<g id="node33" class="node">
<title>Node33</title>
<g id="a_node33"><a xlink:title=" ">
<polygon fill="white" stroke="#bfbfbf" points="351,-168.5 351,-187.5 428,-187.5 428,-168.5 351,-168.5"/>
<text text-anchor="middle" x="389.5" y="-175.5" font-family="Helvetica,sans-Serif" font-size="10.00">half/half.hpp</text>
</a>
</g>
</g>
<!-- Node32&#45;&gt;Node33 -->
<g id="edge51" class="edge">
<title>Node32&#45;&gt;Node33</title>
<path fill="none" stroke="midnightblue" d="M400.35,-224.08C398.63,-216.93 396.15,-206.64 394,-197.69"/>
<polygon fill="midnightblue" stroke="midnightblue" points="397.35,-196.65 391.61,-187.75 390.54,-198.29 397.35,-196.65"/>
</g>
</g>
</svg>
