<?xml version="1.0" encoding="UTF-8" standalone="no"?>
<!DOCTYPE svg PUBLIC "-//W3C//DTD SVG 1.1//EN"
 "http://www.w3.org/Graphics/SVG/1.1/DTD/svg11.dtd">
<!-- Generated by graphviz version 2.43.0 (0)
 -->
<!-- Title: src/backends/reference/workloads/Reduce.hpp Pages: 1 -->
<svg width="1199pt" height="498pt"
 viewBox="0.00 0.00 1198.62 498.00" xmlns="http://www.w3.org/2000/svg" xmlns:xlink="http://www.w3.org/1999/xlink">
<g id="graph0" class="graph" transform="scale(1 1) rotate(0) translate(4 494)">
<title>src/backends/reference/workloads/Reduce.hpp</title>
<polygon fill="white" stroke="transparent" points="-4,4 -4,-494 1194.62,-494 1194.62,4 -4,4"/>
<!-- Node1 -->
<g id="node1" class="node">
<title>Node1</title>
<g id="a_node1"><a xlink:title=" ">
<polygon fill="#bfbfbf" stroke="black" points="856.41,-459.5 856.41,-489.5 986.41,-489.5 986.41,-459.5 856.41,-459.5"/>
<text text-anchor="start" x="864.41" y="-477.5" font-family="Helvetica,sans-Serif" font-size="10.00">src/backends/reference</text>
<text text-anchor="middle" x="921.41" y="-466.5" font-family="Helvetica,sans-Serif" font-size="10.00">/workloads/Reduce.hpp</text>
</a>
</g>
</g>
<!-- Node2 -->
<g id="node2" class="node">
<title>Node2</title>
<g id="a_node2"><a xlink:href="_base_iterator_8hpp.html" target="_top" xlink:title=" ">
<polygon fill="white" stroke="black" points="753.91,-347.5 753.91,-366.5 850.91,-366.5 850.91,-347.5 753.91,-347.5"/>
<text text-anchor="middle" x="802.41" y="-354.5" font-family="Helvetica,sans-Serif" font-size="10.00">BaseIterator.hpp</text>
</a>
</g>
</g>
<!-- Node1&#45;&gt;Node2 -->
<g id="edge1" class="edge">
<title>Node1&#45;&gt;Node2</title>
<path fill="none" stroke="midnightblue" d="M875.3,-459.44C856.22,-451.51 835.33,-439.75 821.41,-423 810.49,-409.88 805.85,-390.73 803.87,-376.62"/>
<polygon fill="midnightblue" stroke="midnightblue" points="807.34,-376.15 802.79,-366.59 800.38,-376.9 807.34,-376.15"/>
</g>
<!-- Node14 -->
<g id="node14" class="node">
<title>Node14</title>
<g id="a_node14"><a xlink:href="_tensor_8hpp.html" target="_top" xlink:title=" ">
<polygon fill="white" stroke="black" points="873.91,-168.5 873.91,-187.5 976.91,-187.5 976.91,-168.5 873.91,-168.5"/>
<text text-anchor="middle" x="925.41" y="-175.5" font-family="Helvetica,sans-Serif" font-size="10.00">armnn/Tensor.hpp</text>
</a>
</g>
</g>
<!-- Node1&#45;&gt;Node14 -->
<g id="edge70" class="edge">
<title>Node1&#45;&gt;Node14</title>
<path fill="none" stroke="midnightblue" d="M986.62,-472.65C1065.95,-467.77 1189.41,-446.03 1189.41,-358 1189.41,-358 1189.41,-358 1189.41,-294.5 1189.41,-262.05 1194.27,-245.99 1170.41,-224 1144.31,-199.95 1050.99,-188.24 987.35,-182.94"/>
<polygon fill="midnightblue" stroke="midnightblue" points="987.27,-179.42 977.02,-182.11 986.71,-186.4 987.27,-179.42"/>
</g>
<!-- Node38 -->
<g id="node38" class="node">
<title>Node38</title>
<g id="a_node38"><a xlink:href="_decoders_8hpp.html" target="_top" xlink:title=" ">
<polygon fill="white" stroke="black" points="930.91,-403.5 930.91,-422.5 1013.91,-422.5 1013.91,-403.5 930.91,-403.5"/>
<text text-anchor="middle" x="972.41" y="-410.5" font-family="Helvetica,sans-Serif" font-size="10.00">Decoders.hpp</text>
</a>
</g>
</g>
<!-- Node1&#45;&gt;Node38 -->
<g id="edge63" class="edge">
<title>Node1&#45;&gt;Node38</title>
<path fill="none" stroke="midnightblue" d="M933.49,-459.4C940.98,-450.66 950.62,-439.41 958.44,-430.3"/>
<polygon fill="midnightblue" stroke="midnightblue" points="961.13,-432.53 964.98,-422.66 955.82,-427.97 961.13,-432.53"/>
</g>
<!-- Node39 -->
<g id="node39" class="node">
<title>Node39</title>
<g id="a_node39"><a xlink:href="_encoders_8hpp.html" target="_top" xlink:title=" ">
<polygon fill="white" stroke="black" points="830.41,-403.5 830.41,-422.5 912.41,-422.5 912.41,-403.5 830.41,-403.5"/>
<text text-anchor="middle" x="871.41" y="-410.5" font-family="Helvetica,sans-Serif" font-size="10.00">Encoders.hpp</text>
</a>
</g>
</g>
<!-- Node1&#45;&gt;Node39 -->
<g id="edge67" class="edge">
<title>Node1&#45;&gt;Node39</title>
<path fill="none" stroke="midnightblue" d="M909.56,-459.4C902.29,-450.75 892.95,-439.64 885.34,-430.58"/>
<polygon fill="midnightblue" stroke="midnightblue" points="887.79,-428.06 878.68,-422.66 882.44,-432.57 887.79,-428.06"/>
</g>
<!-- Node3 -->
<g id="node3" class="node">
<title>Node3</title>
<g id="a_node3"><a xlink:href="_types_utils_8hpp.html" target="_top" xlink:title=" ">
<polygon fill="white" stroke="black" points="523.41,-224.5 523.41,-243.5 645.41,-243.5 645.41,-224.5 523.41,-224.5"/>
<text text-anchor="middle" x="584.41" y="-231.5" font-family="Helvetica,sans-Serif" font-size="10.00">armnn/TypesUtils.hpp</text>
</a>
</g>
</g>
<!-- Node2&#45;&gt;Node3 -->
<g id="edge2" class="edge">
<title>Node2&#45;&gt;Node3</title>
<path fill="none" stroke="midnightblue" d="M787.08,-347.49C749.8,-326.8 654.15,-273.71 608.87,-248.58"/>
<polygon fill="midnightblue" stroke="midnightblue" points="610.45,-245.45 600.01,-243.66 607.05,-251.57 610.45,-245.45"/>
</g>
<!-- Node27 -->
<g id="node27" class="node">
<title>Node27</title>
<g id="a_node27"><a xlink:href="_numeric_cast_8hpp.html" target="_top" xlink:title=" ">
<polygon fill="white" stroke="black" points="6.91,-286 6.91,-305 173.91,-305 173.91,-286 6.91,-286"/>
<text text-anchor="middle" x="90.41" y="-293" font-family="Helvetica,sans-Serif" font-size="10.00">armnn/utility/NumericCast.hpp</text>
</a>
</g>
</g>
<!-- Node2&#45;&gt;Node27 -->
<g id="edge39" class="edge">
<title>Node2&#45;&gt;Node27</title>
<path fill="none" stroke="midnightblue" d="M753.75,-351.93C636.72,-342.15 337.9,-317.18 184.45,-304.36"/>
<polygon fill="midnightblue" stroke="midnightblue" points="184.37,-300.84 174.11,-303.49 183.78,-307.82 184.37,-300.84"/>
</g>
<!-- Node31 -->
<g id="node31" class="node">
<title>Node31</title>
<g id="a_node31"><a xlink:href="_floating_point_converter_8hpp.html" target="_top" xlink:title=" ">
<polygon fill="white" stroke="black" points="990.41,-280.5 990.41,-310.5 1128.41,-310.5 1128.41,-280.5 990.41,-280.5"/>
<text text-anchor="start" x="998.41" y="-298.5" font-family="Helvetica,sans-Serif" font-size="10.00">armnnUtils/FloatingPoint</text>
<text text-anchor="middle" x="1059.41" y="-287.5" font-family="Helvetica,sans-Serif" font-size="10.00">Converter.hpp</text>
</a>
</g>
</g>
<!-- Node2&#45;&gt;Node31 -->
<g id="edge44" class="edge">
<title>Node2&#45;&gt;Node31</title>
<path fill="none" stroke="midnightblue" d="M839.23,-347.48C878.18,-338.46 940.59,-324.01 989.03,-312.79"/>
<polygon fill="midnightblue" stroke="midnightblue" points="989.88,-316.19 998.84,-310.52 988.3,-309.37 989.88,-316.19"/>
</g>
<!-- Node33 -->
<g id="node33" class="node">
<title>Node33</title>
<g id="a_node33"><a xlink:href="_tensor_utils_8hpp.html" target="_top" xlink:title=" ">
<polygon fill="white" stroke="black" points="804.91,-286 804.91,-305 953.91,-305 953.91,-286 804.91,-286"/>
<text text-anchor="middle" x="879.41" y="-293" font-family="Helvetica,sans-Serif" font-size="10.00">armnnUtils/TensorUtils.hpp</text>
</a>
</g>
</g>
<!-- Node2&#45;&gt;Node33 -->
<g id="edge46" class="edge">
<title>Node2&#45;&gt;Node33</title>
<path fill="none" stroke="midnightblue" d="M813.44,-347.48C825.67,-338.02 845.63,-322.6 860.4,-311.19"/>
<polygon fill="midnightblue" stroke="midnightblue" points="862.62,-313.89 868.39,-305.01 858.34,-308.35 862.62,-313.89"/>
</g>
<!-- Node34 -->
<g id="node34" class="node">
<title>Node34</title>
<g id="a_node34"><a xlink:href="_resolve_type_8hpp.html" target="_top" xlink:title=" ">
<polygon fill="white" stroke="black" points="326.91,-168.5 326.91,-187.5 425.91,-187.5 425.91,-168.5 326.91,-168.5"/>
<text text-anchor="middle" x="376.41" y="-175.5" font-family="Helvetica,sans-Serif" font-size="10.00">ResolveType.hpp</text>
</a>
</g>
</g>
<!-- Node2&#45;&gt;Node34 -->
<g id="edge53" class="edge">
<title>Node2&#45;&gt;Node34</title>
<path fill="none" stroke="midnightblue" d="M772.79,-347.44C744.43,-339 700.57,-325.32 663.41,-311 564.81,-273.01 452.07,-217.44 402.32,-192.27"/>
<polygon fill="midnightblue" stroke="midnightblue" points="403.73,-189.06 393.23,-187.65 400.56,-195.3 403.73,-189.06"/>
</g>
<!-- Node4 -->
<g id="node4" class="node">
<title>Node4</title>
<g id="a_node4"><a xlink:href="_backend_id_8hpp.html" target="_top" xlink:title=" ">
<polygon fill="white" stroke="black" points="523.41,-56.5 523.41,-75.5 645.41,-75.5 645.41,-56.5 523.41,-56.5"/>
<text text-anchor="middle" x="584.41" y="-63.5" font-family="Helvetica,sans-Serif" font-size="10.00">armnn/BackendId.hpp</text>
</a>
</g>
</g>
<!-- Node3&#45;&gt;Node4 -->
<g id="edge3" class="edge">
<title>Node3&#45;&gt;Node4</title>
<path fill="none" stroke="midnightblue" d="M584.41,-224.08C584.41,-197.95 584.41,-121.21 584.41,-85.58"/>
<polygon fill="midnightblue" stroke="midnightblue" points="587.91,-85.57 584.41,-75.57 580.91,-85.57 587.91,-85.57"/>
</g>
<!-- Node6 -->
<g id="node6" class="node">
<title>Node6</title>
<g id="a_node6"><a xlink:title=" ">
<polygon fill="white" stroke="#bfbfbf" points="394.91,-0.5 394.91,-19.5 451.91,-19.5 451.91,-0.5 394.91,-0.5"/>
<text text-anchor="middle" x="423.41" y="-7.5" font-family="Helvetica,sans-Serif" font-size="10.00">ostream</text>
</a>
</g>
</g>
<!-- Node3&#45;&gt;Node6 -->
<g id="edge36" class="edge">
<title>Node3&#45;&gt;Node6</title>
<path fill="none" stroke="midnightblue" d="M575.23,-224.24C565.99,-215.31 551.41,-200.98 539.41,-188 509.22,-155.37 503.35,-145.73 474.41,-112 460.66,-95.98 453.62,-94.48 443.41,-76 435.38,-61.47 430.13,-43.29 427.04,-29.85"/>
<polygon fill="midnightblue" stroke="midnightblue" points="430.42,-28.93 424.93,-19.87 423.57,-30.37 430.42,-28.93"/>
</g>
<!-- Node7 -->
<g id="node7" class="node">
<title>Node7</title>
<g id="a_node7"><a xlink:title=" ">
<polygon fill="white" stroke="#bfbfbf" points="271.41,-0.5 271.41,-19.5 303.41,-19.5 303.41,-0.5 271.41,-0.5"/>
<text text-anchor="middle" x="287.41" y="-7.5" font-family="Helvetica,sans-Serif" font-size="10.00">set</text>
</a>
</g>
</g>
<!-- Node3&#45;&gt;Node7 -->
<g id="edge37" class="edge">
<title>Node3&#45;&gt;Node7</title>
<path fill="none" stroke="midnightblue" d="M523.21,-229.89C449.01,-225.06 329.39,-213.48 293.41,-188 240.82,-150.76 206.07,-114.36 233.41,-56 239.53,-42.92 251.54,-32.32 262.67,-24.69"/>
<polygon fill="midnightblue" stroke="midnightblue" points="264.72,-27.54 271.29,-19.23 260.97,-21.63 264.72,-27.54"/>
</g>
<!-- Node11 -->
<g id="node11" class="node">
<title>Node11</title>
<g id="a_node11"><a xlink:href="_exceptions_8hpp.html" target="_top" xlink:title=" ">
<polygon fill="white" stroke="black" points="927.91,-56.5 927.91,-75.5 1052.91,-75.5 1052.91,-56.5 927.91,-56.5"/>
<text text-anchor="middle" x="990.41" y="-63.5" font-family="Helvetica,sans-Serif" font-size="10.00">armnn/Exceptions.hpp</text>
</a>
</g>
</g>
<!-- Node3&#45;&gt;Node11 -->
<g id="edge10" class="edge">
<title>Node3&#45;&gt;Node11</title>
<path fill="none" stroke="midnightblue" d="M605.38,-224.42C672.34,-197.05 881.19,-111.65 959.94,-79.45"/>
<polygon fill="midnightblue" stroke="midnightblue" points="961.38,-82.65 969.31,-75.62 958.73,-76.17 961.38,-82.65"/>
</g>
<!-- Node3&#45;&gt;Node14 -->
<g id="edge14" class="edge">
<title>Node3&#45;&gt;Node14</title>
<path fill="none" stroke="midnightblue" d="M638.44,-224.44C699.76,-214.73 799.58,-198.92 863.86,-188.75"/>
<polygon fill="midnightblue" stroke="midnightblue" points="864.53,-192.18 873.86,-187.16 863.43,-185.27 864.53,-192.18"/>
</g>
<!-- Node17 -->
<g id="node17" class="node">
<title>Node17</title>
<g id="a_node17"><a xlink:title=" ">
<polygon fill="white" stroke="#bfbfbf" points="20.91,-56.5 20.91,-75.5 89.91,-75.5 89.91,-56.5 20.91,-56.5"/>
<text text-anchor="middle" x="55.41" y="-63.5" font-family="Helvetica,sans-Serif" font-size="10.00">type_traits</text>
</a>
</g>
</g>
<!-- Node3&#45;&gt;Node17 -->
<g id="edge38" class="edge">
<title>Node3&#45;&gt;Node17</title>
<path fill="none" stroke="midnightblue" d="M523.16,-229.46C429.94,-223.46 257.18,-209.79 199.41,-188 142.06,-166.37 91.4,-111.42 68.44,-83.63"/>
<polygon fill="midnightblue" stroke="midnightblue" points="71,-81.22 61.99,-75.64 65.55,-85.62 71,-81.22"/>
</g>
<!-- Node18 -->
<g id="node18" class="node">
<title>Node18</title>
<g id="a_node18"><a xlink:href="_types_8hpp.html" target="_top" xlink:title=" ">
<polygon fill="white" stroke="black" points="713.91,-112.5 713.91,-131.5 778.91,-131.5 778.91,-112.5 713.91,-112.5"/>
<text text-anchor="middle" x="746.41" y="-119.5" font-family="Helvetica,sans-Serif" font-size="10.00">Types.hpp</text>
</a>
</g>
</g>
<!-- Node3&#45;&gt;Node18 -->
<g id="edge33" class="edge">
<title>Node3&#45;&gt;Node18</title>
<path fill="none" stroke="midnightblue" d="M597.12,-224.37C624.92,-205.49 691.35,-160.38 725.44,-137.24"/>
<polygon fill="midnightblue" stroke="midnightblue" points="727.45,-140.1 733.75,-131.59 723.51,-134.31 727.45,-140.1"/>
</g>
<!-- Node21 -->
<g id="node21" class="node">
<title>Node21</title>
<g id="a_node21"><a xlink:title=" ">
<polygon fill="white" stroke="#bfbfbf" points="451.91,-56.5 451.91,-75.5 504.91,-75.5 504.91,-56.5 451.91,-56.5"/>
<text text-anchor="middle" x="478.41" y="-63.5" font-family="Helvetica,sans-Serif" font-size="10.00">stdint.h</text>
</a>
</g>
</g>
<!-- Node3&#45;&gt;Node21 -->
<g id="edge34" class="edge">
<title>Node3&#45;&gt;Node21</title>
<path fill="none" stroke="midnightblue" d="M579.01,-224.48C566.47,-204.7 534.4,-154.15 507.41,-112 501.51,-102.79 494.9,-92.53 489.49,-84.14"/>
<polygon fill="midnightblue" stroke="midnightblue" points="492.35,-82.12 483.98,-75.62 486.47,-85.92 492.35,-82.12"/>
</g>
<!-- Node26 -->
<g id="node26" class="node">
<title>Node26</title>
<g id="a_node26"><a xlink:title=" ">
<polygon fill="white" stroke="#bfbfbf" points="241.91,-56.5 241.91,-75.5 288.91,-75.5 288.91,-56.5 241.91,-56.5"/>
<text text-anchor="middle" x="265.41" y="-63.5" font-family="Helvetica,sans-Serif" font-size="10.00">cmath</text>
</a>
</g>
</g>
<!-- Node3&#45;&gt;Node26 -->
<g id="edge35" class="edge">
<title>Node3&#45;&gt;Node26</title>
<path fill="none" stroke="midnightblue" d="M523.24,-228.07C455.58,-221.69 351.71,-208.84 318.41,-188 283.03,-165.87 271.17,-114.08 267.27,-85.97"/>
<polygon fill="midnightblue" stroke="midnightblue" points="270.72,-85.35 266.06,-75.83 263.77,-86.18 270.72,-85.35"/>
</g>
<!-- Node5 -->
<g id="node5" class="node">
<title>Node5</title>
<g id="a_node5"><a xlink:title=" ">
<polygon fill="white" stroke="#bfbfbf" points="610.41,-0.5 610.41,-19.5 668.41,-19.5 668.41,-0.5 610.41,-0.5"/>
<text text-anchor="middle" x="639.41" y="-7.5" font-family="Helvetica,sans-Serif" font-size="10.00">memory</text>
</a>
</g>
</g>
<!-- Node4&#45;&gt;Node5 -->
<g id="edge4" class="edge">
<title>Node4&#45;&gt;Node5</title>
<path fill="none" stroke="midnightblue" d="M593.49,-56.08C601.58,-48.14 613.6,-36.34 623.32,-26.8"/>
<polygon fill="midnightblue" stroke="midnightblue" points="625.81,-29.25 630.49,-19.75 620.9,-24.26 625.81,-29.25"/>
</g>
<!-- Node4&#45;&gt;Node6 -->
<g id="edge5" class="edge">
<title>Node4&#45;&gt;Node6</title>
<path fill="none" stroke="midnightblue" d="M558.89,-56.44C531.81,-47.36 488.82,-32.94 458.54,-22.78"/>
<polygon fill="midnightblue" stroke="midnightblue" points="459.39,-19.38 448.8,-19.52 457.17,-26.01 459.39,-19.38"/>
</g>
<!-- Node4&#45;&gt;Node7 -->
<g id="edge6" class="edge">
<title>Node4&#45;&gt;Node7</title>
<path fill="none" stroke="midnightblue" d="M537.35,-56.44C474.11,-44.95 363.85,-24.9 313.65,-15.77"/>
<polygon fill="midnightblue" stroke="midnightblue" points="314.08,-12.29 303.61,-13.95 312.82,-19.18 314.08,-12.29"/>
</g>
<!-- Node8 -->
<g id="node8" class="node">
<title>Node8</title>
<g id="a_node8"><a xlink:title=" ">
<polygon fill="white" stroke="#bfbfbf" points="792.41,-0.5 792.41,-19.5 836.41,-19.5 836.41,-0.5 792.41,-0.5"/>
<text text-anchor="middle" x="814.41" y="-7.5" font-family="Helvetica,sans-Serif" font-size="10.00">string</text>
</a>
</g>
</g>
<!-- Node4&#45;&gt;Node8 -->
<g id="edge7" class="edge">
<title>Node4&#45;&gt;Node8</title>
<path fill="none" stroke="midnightblue" d="M620.85,-56.44C665.43,-45.98 740.19,-28.42 782.57,-18.47"/>
<polygon fill="midnightblue" stroke="midnightblue" points="783.42,-21.87 792.35,-16.18 781.82,-15.06 783.42,-21.87"/>
</g>
<!-- Node9 -->
<g id="node9" class="node">
<title>Node9</title>
<g id="a_node9"><a xlink:title=" ">
<polygon fill="white" stroke="#bfbfbf" points="506.41,-0.5 506.41,-19.5 592.41,-19.5 592.41,-0.5 506.41,-0.5"/>
<text text-anchor="middle" x="549.41" y="-7.5" font-family="Helvetica,sans-Serif" font-size="10.00">unordered_set</text>
</a>
</g>
</g>
<!-- Node4&#45;&gt;Node9 -->
<g id="edge8" class="edge">
<title>Node4&#45;&gt;Node9</title>
<path fill="none" stroke="midnightblue" d="M578.63,-56.08C573.73,-48.53 566.58,-37.49 560.57,-28.23"/>
<polygon fill="midnightblue" stroke="midnightblue" points="563.45,-26.24 555.08,-19.75 557.58,-30.05 563.45,-26.24"/>
</g>
<!-- Node10 -->
<g id="node10" class="node">
<title>Node10</title>
<g id="a_node10"><a xlink:title=" ">
<polygon fill="white" stroke="#bfbfbf" points="1117.91,-0.5 1117.91,-19.5 1164.91,-19.5 1164.91,-0.5 1117.91,-0.5"/>
<text text-anchor="middle" x="1141.41" y="-7.5" font-family="Helvetica,sans-Serif" font-size="10.00">vector</text>
</a>
</g>
</g>
<!-- Node4&#45;&gt;Node10 -->
<g id="edge9" class="edge">
<title>Node4&#45;&gt;Node10</title>
<path fill="none" stroke="midnightblue" d="M645.58,-57.09C648.9,-56.71 652.19,-56.34 655.41,-56 839.5,-36.36 886.31,-39.64 1070.41,-20 1082.64,-18.69 1096.03,-17.05 1107.85,-15.53"/>
<polygon fill="midnightblue" stroke="midnightblue" points="1108.3,-19 1117.77,-14.23 1107.4,-12.06 1108.3,-19"/>
</g>
<!-- Node11&#45;&gt;Node8 -->
<g id="edge13" class="edge">
<title>Node11&#45;&gt;Node8</title>
<path fill="none" stroke="midnightblue" d="M962.52,-56.44C930.9,-46.74 879.43,-30.95 846.26,-20.77"/>
<polygon fill="midnightblue" stroke="midnightblue" points="847.18,-17.39 836.59,-17.81 845.12,-24.09 847.18,-17.39"/>
</g>
<!-- Node12 -->
<g id="node12" class="node">
<title>Node12</title>
<g id="a_node12"><a xlink:title=" ">
<polygon fill="white" stroke="#bfbfbf" points="921.41,-0.5 921.41,-19.5 977.41,-19.5 977.41,-0.5 921.41,-0.5"/>
<text text-anchor="middle" x="949.41" y="-7.5" font-family="Helvetica,sans-Serif" font-size="10.00">sstream</text>
</a>
</g>
</g>
<!-- Node11&#45;&gt;Node12 -->
<g id="edge11" class="edge">
<title>Node11&#45;&gt;Node12</title>
<path fill="none" stroke="midnightblue" d="M983.64,-56.08C977.84,-48.46 969.35,-37.26 962.27,-27.94"/>
<polygon fill="midnightblue" stroke="midnightblue" points="964.88,-25.6 956.05,-19.75 959.31,-29.83 964.88,-25.6"/>
</g>
<!-- Node13 -->
<g id="node13" class="node">
<title>Node13</title>
<g id="a_node13"><a xlink:title=" ">
<polygon fill="white" stroke="#bfbfbf" points="995.91,-0.5 995.91,-19.5 1060.91,-19.5 1060.91,-0.5 995.91,-0.5"/>
<text text-anchor="middle" x="1028.41" y="-7.5" font-family="Helvetica,sans-Serif" font-size="10.00">stdexcept</text>
</a>
</g>
</g>
<!-- Node11&#45;&gt;Node13 -->
<g id="edge12" class="edge">
<title>Node11&#45;&gt;Node13</title>
<path fill="none" stroke="midnightblue" d="M996.68,-56.08C1002.05,-48.46 1009.92,-37.26 1016.48,-27.94"/>
<polygon fill="midnightblue" stroke="midnightblue" points="1019.36,-29.94 1022.25,-19.75 1013.63,-25.91 1019.36,-29.94"/>
</g>
<!-- Node14&#45;&gt;Node10 -->
<g id="edge31" class="edge">
<title>Node14&#45;&gt;Node10</title>
<path fill="none" stroke="midnightblue" d="M964.9,-168.49C1010.82,-156.36 1085.08,-129.39 1122.41,-76 1131.98,-62.3 1136.78,-43.77 1139.16,-29.99"/>
<polygon fill="midnightblue" stroke="midnightblue" points="1142.67,-30.15 1140.63,-19.76 1135.74,-29.16 1142.67,-30.15"/>
</g>
<!-- Node14&#45;&gt;Node11 -->
<g id="edge15" class="edge">
<title>Node14&#45;&gt;Node11</title>
<path fill="none" stroke="midnightblue" d="M921.7,-168.38C916.69,-155.3 909.46,-130.07 919.41,-112 927.29,-97.66 941.89,-87.25 955.81,-80.08"/>
<polygon fill="midnightblue" stroke="midnightblue" points="957.7,-83.06 965.24,-75.62 954.71,-76.73 957.7,-83.06"/>
</g>
<!-- Node15 -->
<g id="node15" class="node">
<title>Node15</title>
<g id="a_node15"><a xlink:href="_optional_8hpp.html" target="_top" xlink:title=" ">
<polygon fill="white" stroke="black" points="385.91,-112.5 385.91,-131.5 464.91,-131.5 464.91,-112.5 385.91,-112.5"/>
<text text-anchor="middle" x="425.41" y="-119.5" font-family="Helvetica,sans-Serif" font-size="10.00">Optional.hpp</text>
</a>
</g>
</g>
<!-- Node14&#45;&gt;Node15 -->
<g id="edge16" class="edge">
<title>Node14&#45;&gt;Node15</title>
<path fill="none" stroke="midnightblue" d="M873.78,-171.42C777.22,-161 570.47,-138.67 475.27,-128.39"/>
<polygon fill="midnightblue" stroke="midnightblue" points="475.36,-124.88 465.05,-127.28 474.61,-131.83 475.36,-124.88"/>
</g>
<!-- Node14&#45;&gt;Node18 -->
<g id="edge20" class="edge">
<title>Node14&#45;&gt;Node18</title>
<path fill="none" stroke="midnightblue" d="M897.04,-168.44C866.67,-159.28 818.3,-144.69 784.59,-134.52"/>
<polygon fill="midnightblue" stroke="midnightblue" points="785.22,-131.05 774.64,-131.52 783.2,-137.76 785.22,-131.05"/>
</g>
<!-- Node19 -->
<g id="node19" class="node">
<title>Node19</title>
<g id="a_node19"><a xlink:title=" ">
<polygon fill="white" stroke="#bfbfbf" points="1071.41,-56.5 1071.41,-75.5 1113.41,-75.5 1113.41,-56.5 1071.41,-56.5"/>
<text text-anchor="middle" x="1092.41" y="-63.5" font-family="Helvetica,sans-Serif" font-size="10.00">array</text>
</a>
</g>
</g>
<!-- Node14&#45;&gt;Node19 -->
<g id="edge29" class="edge">
<title>Node14&#45;&gt;Node19</title>
<path fill="none" stroke="midnightblue" d="M948.28,-168.38C968.17,-160.37 997.33,-147.4 1020.41,-132 1041.72,-117.78 1063.13,-97.5 1076.99,-83.39"/>
<polygon fill="midnightblue" stroke="midnightblue" points="1079.81,-85.52 1084.23,-75.89 1074.77,-80.66 1079.81,-85.52"/>
</g>
<!-- Node14&#45;&gt;Node21 -->
<g id="edge28" class="edge">
<title>Node14&#45;&gt;Node21</title>
<path fill="none" stroke="midnightblue" d="M878.39,-168.47C833.69,-160.11 764.66,-146.52 705.41,-132 637.62,-115.39 559.61,-92.13 514.94,-78.4"/>
<polygon fill="midnightblue" stroke="midnightblue" points="515.72,-74.98 505.13,-75.38 513.66,-81.67 515.72,-74.98"/>
</g>
<!-- Node24 -->
<g id="node24" class="node">
<title>Node24</title>
<g id="a_node24"><a xlink:title=" ">
<polygon fill="white" stroke="#bfbfbf" points="927.91,-112.5 927.91,-131.5 1010.91,-131.5 1010.91,-112.5 927.91,-112.5"/>
<text text-anchor="middle" x="969.41" y="-119.5" font-family="Helvetica,sans-Serif" font-size="10.00">initializer_list</text>
</a>
</g>
</g>
<!-- Node14&#45;&gt;Node24 -->
<g id="edge30" class="edge">
<title>Node14&#45;&gt;Node24</title>
<path fill="none" stroke="midnightblue" d="M932.67,-168.08C938.95,-160.38 948.19,-149.03 955.84,-139.65"/>
<polygon fill="midnightblue" stroke="midnightblue" points="958.67,-141.71 962.28,-131.75 953.25,-137.29 958.67,-141.71"/>
</g>
<!-- Node25 -->
<g id="node25" class="node">
<title>Node25</title>
<g id="a_node25"><a xlink:title=" ">
<polygon fill="white" stroke="#bfbfbf" points="1105.91,-112.5 1105.91,-131.5 1150.91,-131.5 1150.91,-112.5 1105.91,-112.5"/>
<text text-anchor="middle" x="1128.41" y="-119.5" font-family="Helvetica,sans-Serif" font-size="10.00">utility</text>
</a>
</g>
</g>
<!-- Node14&#45;&gt;Node25 -->
<g id="edge32" class="edge">
<title>Node14&#45;&gt;Node25</title>
<path fill="none" stroke="midnightblue" d="M957.57,-168.44C995.38,-158.39 1057.78,-141.79 1095.79,-131.68"/>
<polygon fill="midnightblue" stroke="midnightblue" points="1097.05,-134.96 1105.82,-129.01 1095.25,-128.2 1097.05,-134.96"/>
</g>
<!-- Node15&#45;&gt;Node11 -->
<g id="edge17" class="edge">
<title>Node15&#45;&gt;Node11</title>
<path fill="none" stroke="midnightblue" d="M465.07,-117.83C547.28,-111.17 742.45,-94.84 917.43,-76.07"/>
<polygon fill="midnightblue" stroke="midnightblue" points="918.02,-79.53 927.59,-74.98 917.27,-72.57 918.02,-79.53"/>
</g>
<!-- Node16 -->
<g id="node16" class="node">
<title>Node16</title>
<g id="a_node16"><a xlink:title=" ">
<polygon fill="white" stroke="#bfbfbf" points="345.41,-56.5 345.41,-75.5 395.41,-75.5 395.41,-56.5 345.41,-56.5"/>
<text text-anchor="middle" x="370.41" y="-63.5" font-family="Helvetica,sans-Serif" font-size="10.00">cstring</text>
</a>
</g>
</g>
<!-- Node15&#45;&gt;Node16 -->
<g id="edge18" class="edge">
<title>Node15&#45;&gt;Node16</title>
<path fill="none" stroke="midnightblue" d="M416.32,-112.08C408.23,-104.14 396.21,-92.34 386.5,-82.8"/>
<polygon fill="midnightblue" stroke="midnightblue" points="388.91,-80.26 379.32,-75.75 384,-85.25 388.91,-80.26"/>
</g>
<!-- Node15&#45;&gt;Node17 -->
<g id="edge19" class="edge">
<title>Node15&#45;&gt;Node17</title>
<path fill="none" stroke="midnightblue" d="M385.88,-113.4C383.02,-112.91 380.17,-112.44 377.41,-112 257.17,-92.99 223.45,-96.61 100.3,-76.21"/>
<polygon fill="midnightblue" stroke="midnightblue" points="100.54,-72.7 90.1,-74.5 99.38,-79.61 100.54,-72.7"/>
</g>
<!-- Node18&#45;&gt;Node4 -->
<g id="edge25" class="edge">
<title>Node18&#45;&gt;Node4</title>
<path fill="none" stroke="midnightblue" d="M720.74,-112.44C693.48,-103.36 650.22,-88.94 619.76,-78.78"/>
<polygon fill="midnightblue" stroke="midnightblue" points="620.55,-75.36 609.96,-75.52 618.34,-82 620.55,-75.36"/>
</g>
<!-- Node18&#45;&gt;Node11 -->
<g id="edge26" class="edge">
<title>Node18&#45;&gt;Node11</title>
<path fill="none" stroke="midnightblue" d="M779.06,-113.77C820.89,-104.52 893.73,-88.4 942.01,-77.71"/>
<polygon fill="midnightblue" stroke="midnightblue" points="942.91,-81.1 951.92,-75.52 941.4,-74.26 942.91,-81.1"/>
</g>
<!-- Node18&#45;&gt;Node19 -->
<g id="edge21" class="edge">
<title>Node18&#45;&gt;Node19</title>
<path fill="none" stroke="midnightblue" d="M778.99,-117.99C834.94,-112.47 952.94,-99.3 1061.41,-75.93"/>
<polygon fill="midnightblue" stroke="midnightblue" points="1062.18,-79.35 1071.2,-73.79 1060.69,-72.51 1062.18,-79.35"/>
</g>
<!-- Node20 -->
<g id="node20" class="node">
<title>Node20</title>
<g id="a_node20"><a xlink:title=" ">
<polygon fill="white" stroke="#bfbfbf" points="663.91,-56.5 663.91,-75.5 728.91,-75.5 728.91,-56.5 663.91,-56.5"/>
<text text-anchor="middle" x="696.41" y="-63.5" font-family="Helvetica,sans-Serif" font-size="10.00">functional</text>
</a>
</g>
</g>
<!-- Node18&#45;&gt;Node20 -->
<g id="edge22" class="edge">
<title>Node18&#45;&gt;Node20</title>
<path fill="none" stroke="midnightblue" d="M738.15,-112.08C730.94,-104.3 720.3,-92.8 711.56,-83.37"/>
<polygon fill="midnightblue" stroke="midnightblue" points="713.87,-80.71 704.51,-75.75 708.73,-85.47 713.87,-80.71"/>
</g>
<!-- Node18&#45;&gt;Node21 -->
<g id="edge23" class="edge">
<title>Node18&#45;&gt;Node21</title>
<path fill="none" stroke="midnightblue" d="M713.63,-115.21C670.44,-107.46 591.89,-92.94 514.96,-76.03"/>
<polygon fill="midnightblue" stroke="midnightblue" points="515.62,-72.59 505.1,-73.84 514.11,-79.42 515.62,-72.59"/>
</g>
<!-- Node22 -->
<g id="node22" class="node">
<title>Node22</title>
<g id="a_node22"><a xlink:title=" ">
<polygon fill="white" stroke="#bfbfbf" points="747.41,-56.5 747.41,-75.5 797.41,-75.5 797.41,-56.5 747.41,-56.5"/>
<text text-anchor="middle" x="772.41" y="-63.5" font-family="Helvetica,sans-Serif" font-size="10.00">chrono</text>
</a>
</g>
</g>
<!-- Node18&#45;&gt;Node22 -->
<g id="edge24" class="edge">
<title>Node18&#45;&gt;Node22</title>
<path fill="none" stroke="midnightblue" d="M750.7,-112.08C754.26,-104.69 759.43,-93.95 763.83,-84.81"/>
<polygon fill="midnightblue" stroke="midnightblue" points="767.01,-86.28 768.19,-75.75 760.7,-83.24 767.01,-86.28"/>
</g>
<!-- Node23 -->
<g id="node23" class="node">
<title>Node23</title>
<g id="a_node23"><a xlink:href="_deprecated_8hpp.html" target="_top" xlink:title=" ">
<polygon fill="white" stroke="black" points="815.41,-56.5 815.41,-75.5 909.41,-75.5 909.41,-56.5 815.41,-56.5"/>
<text text-anchor="middle" x="862.41" y="-63.5" font-family="Helvetica,sans-Serif" font-size="10.00">Deprecated.hpp</text>
</a>
</g>
</g>
<!-- Node18&#45;&gt;Node23 -->
<g id="edge27" class="edge">
<title>Node18&#45;&gt;Node23</title>
<path fill="none" stroke="midnightblue" d="M764.79,-112.44C783.62,-103.68 813.14,-89.94 834.79,-79.86"/>
<polygon fill="midnightblue" stroke="midnightblue" points="836.52,-82.91 844.11,-75.52 833.57,-76.56 836.52,-82.91"/>
</g>
<!-- Node27&#45;&gt;Node17 -->
<g id="edge42" class="edge">
<title>Node27&#45;&gt;Node17</title>
<path fill="none" stroke="midnightblue" d="M64.42,-285.85C45.71,-278.1 21.82,-264.71 10.41,-244 -19.13,-190.42 21.42,-117.06 43.19,-84.17"/>
<polygon fill="midnightblue" stroke="midnightblue" points="46.24,-85.9 49,-75.67 40.46,-81.95 46.24,-85.9"/>
</g>
<!-- Node28 -->
<g id="node28" class="node">
<title>Node28</title>
<g id="a_node28"><a xlink:href="_assert_8hpp.html" target="_top" xlink:title=" ">
<polygon fill="white" stroke="black" points="19.41,-224.5 19.41,-243.5 87.41,-243.5 87.41,-224.5 19.41,-224.5"/>
<text text-anchor="middle" x="53.41" y="-231.5" font-family="Helvetica,sans-Serif" font-size="10.00">Assert.hpp</text>
</a>
</g>
</g>
<!-- Node27&#45;&gt;Node28 -->
<g id="edge40" class="edge">
<title>Node27&#45;&gt;Node28</title>
<path fill="none" stroke="midnightblue" d="M85.1,-285.98C79.66,-277.23 71.05,-263.37 64.17,-252.31"/>
<polygon fill="midnightblue" stroke="midnightblue" points="66.95,-250.15 58.7,-243.51 61.01,-253.85 66.95,-250.15"/>
</g>
<!-- Node30 -->
<g id="node30" class="node">
<title>Node30</title>
<g id="a_node30"><a xlink:title=" ">
<polygon fill="white" stroke="#bfbfbf" points="105.41,-224.5 105.41,-243.5 149.41,-243.5 149.41,-224.5 105.41,-224.5"/>
<text text-anchor="middle" x="127.41" y="-231.5" font-family="Helvetica,sans-Serif" font-size="10.00">limits</text>
</a>
</g>
</g>
<!-- Node27&#45;&gt;Node30 -->
<g id="edge43" class="edge">
<title>Node27&#45;&gt;Node30</title>
<path fill="none" stroke="midnightblue" d="M95.71,-285.98C101.15,-277.23 109.76,-263.37 116.64,-252.31"/>
<polygon fill="midnightblue" stroke="midnightblue" points="119.81,-253.85 122.11,-243.51 113.86,-250.15 119.81,-253.85"/>
</g>
<!-- Node29 -->
<g id="node29" class="node">
<title>Node29</title>
<g id="a_node29"><a xlink:title=" ">
<polygon fill="white" stroke="#bfbfbf" points="19.41,-168.5 19.41,-187.5 71.41,-187.5 71.41,-168.5 19.41,-168.5"/>
<text text-anchor="middle" x="45.41" y="-175.5" font-family="Helvetica,sans-Serif" font-size="10.00">cassert</text>
</a>
</g>
</g>
<!-- Node28&#45;&gt;Node29 -->
<g id="edge41" class="edge">
<title>Node28&#45;&gt;Node29</title>
<path fill="none" stroke="midnightblue" d="M52.08,-224.08C51.02,-216.93 49.5,-206.64 48.17,-197.69"/>
<polygon fill="midnightblue" stroke="midnightblue" points="51.63,-197.13 46.7,-187.75 44.71,-198.16 51.63,-197.13"/>
</g>
<!-- Node32 -->
<g id="node32" class="node">
<title>Node32</title>
<g id="a_node32"><a xlink:title=" ">
<polygon fill="white" stroke="#bfbfbf" points="1107.91,-224.5 1107.91,-243.5 1160.91,-243.5 1160.91,-224.5 1107.91,-224.5"/>
<text text-anchor="middle" x="1134.41" y="-231.5" font-family="Helvetica,sans-Serif" font-size="10.00">cstddef</text>
</a>
</g>
</g>
<!-- Node31&#45;&gt;Node32 -->
<g id="edge45" class="edge">
<title>Node31&#45;&gt;Node32</title>
<path fill="none" stroke="midnightblue" d="M1077.18,-280.4C1088.75,-271.22 1103.83,-259.26 1115.6,-249.92"/>
<polygon fill="midnightblue" stroke="midnightblue" points="1117.83,-252.61 1123.49,-243.66 1113.48,-247.13 1117.83,-252.61"/>
</g>
<!-- Node33&#45;&gt;Node3 -->
<g id="edge47" class="edge">
<title>Node33&#45;&gt;Node3</title>
<path fill="none" stroke="midnightblue" d="M837.14,-285.98C784.24,-275.3 693.65,-257.03 636.51,-245.51"/>
<polygon fill="midnightblue" stroke="midnightblue" points="637.09,-242.06 626.59,-243.51 635.7,-248.92 637.09,-242.06"/>
</g>
<!-- Node33&#45;&gt;Node10 -->
<g id="edge52" class="edge">
<title>Node33&#45;&gt;Node10</title>
<path fill="none" stroke="midnightblue" d="M916.7,-286C980.51,-269.19 1108.75,-224.98 1160.41,-132 1178.75,-98.98 1162.49,-53.53 1150.82,-28.8"/>
<polygon fill="midnightblue" stroke="midnightblue" points="1153.8,-26.94 1146.21,-19.56 1147.54,-30.07 1153.8,-26.94"/>
</g>
<!-- Node33&#45;&gt;Node14 -->
<g id="edge48" class="edge">
<title>Node33&#45;&gt;Node14</title>
<path fill="none" stroke="midnightblue" d="M882.86,-285.82C890.32,-267.09 908.06,-222.55 918.12,-197.29"/>
<polygon fill="midnightblue" stroke="midnightblue" points="921.46,-198.37 921.91,-187.78 914.96,-195.78 921.46,-198.37"/>
</g>
<!-- Node33&#45;&gt;Node18 -->
<g id="edge49" class="edge">
<title>Node33&#45;&gt;Node18</title>
<path fill="none" stroke="midnightblue" d="M872.63,-285.76C851.55,-258.58 786.89,-175.21 759.21,-139.51"/>
<polygon fill="midnightblue" stroke="midnightblue" points="761.91,-137.28 753.01,-131.52 756.38,-141.57 761.91,-137.28"/>
</g>
<!-- Node33&#45;&gt;Node25 -->
<g id="edge51" class="edge">
<title>Node33&#45;&gt;Node25</title>
<path fill="none" stroke="midnightblue" d="M891.75,-286C931.66,-258.51 1057.48,-171.85 1107.55,-137.36"/>
<polygon fill="midnightblue" stroke="midnightblue" points="1109.73,-140.11 1115.98,-131.56 1105.76,-134.35 1109.73,-140.11"/>
</g>
<!-- Node33&#45;&gt;Node33 -->
<g id="edge50" class="edge">
<title>Node33&#45;&gt;Node33</title>
<path fill="none" stroke="midnightblue" d="M913.56,-305.03C942.09,-309.11 971.91,-305.93 971.91,-295.5 971.91,-286.29 948.67,-282.74 923.59,-284.83"/>
<polygon fill="midnightblue" stroke="midnightblue" points="923.1,-281.37 913.56,-285.97 923.89,-288.32 923.1,-281.37"/>
</g>
<!-- Node34&#45;&gt;Node18 -->
<g id="edge54" class="edge">
<title>Node34&#45;&gt;Node18</title>
<path fill="none" stroke="midnightblue" d="M425.92,-169.77C498.97,-159.11 634.4,-139.35 703.47,-129.27"/>
<polygon fill="midnightblue" stroke="midnightblue" points="704.18,-132.7 713.57,-127.79 703.17,-125.77 704.18,-132.7"/>
</g>
<!-- Node35 -->
<g id="node35" class="node">
<title>Node35</title>
<g id="a_node35"><a xlink:href="_b_float16_8hpp.html" target="_top" xlink:title=" ">
<polygon fill="white" stroke="black" points="286.91,-112.5 286.91,-131.5 367.91,-131.5 367.91,-112.5 286.91,-112.5"/>
<text text-anchor="middle" x="327.41" y="-119.5" font-family="Helvetica,sans-Serif" font-size="10.00">BFloat16.hpp</text>
</a>
</g>
</g>
<!-- Node34&#45;&gt;Node35 -->
<g id="edge55" class="edge">
<title>Node34&#45;&gt;Node35</title>
<path fill="none" stroke="midnightblue" d="M368.31,-168.08C361.25,-160.3 350.82,-148.8 342.26,-139.37"/>
<polygon fill="midnightblue" stroke="midnightblue" points="344.66,-136.8 335.35,-131.75 339.47,-141.51 344.66,-136.8"/>
</g>
<!-- Node36 -->
<g id="node36" class="node">
<title>Node36</title>
<g id="a_node36"><a xlink:href="_half_8hpp.html" target="_top" xlink:title=" ">
<polygon fill="white" stroke="black" points="127.91,-112.5 127.91,-131.5 184.91,-131.5 184.91,-112.5 127.91,-112.5"/>
<text text-anchor="middle" x="156.41" y="-119.5" font-family="Helvetica,sans-Serif" font-size="10.00">Half.hpp</text>
</a>
</g>
</g>
<!-- Node34&#45;&gt;Node36 -->
<g id="edge60" class="edge">
<title>Node34&#45;&gt;Node36</title>
<path fill="none" stroke="midnightblue" d="M341.55,-168.44C301.59,-158.64 236.29,-142.61 194.87,-132.44"/>
<polygon fill="midnightblue" stroke="midnightblue" points="195.69,-129.04 185.14,-130.05 194.02,-135.84 195.69,-129.04"/>
</g>
<!-- Node35&#45;&gt;Node6 -->
<g id="edge56" class="edge">
<title>Node35&#45;&gt;Node6</title>
<path fill="none" stroke="midnightblue" d="M326.23,-112.09C324.94,-98.64 324.43,-72.93 336.41,-56 348.09,-39.48 367.7,-28.6 385.35,-21.68"/>
<polygon fill="midnightblue" stroke="midnightblue" points="386.68,-24.92 394.89,-18.23 384.3,-18.34 386.68,-24.92"/>
</g>
<!-- Node35&#45;&gt;Node16 -->
<g id="edge58" class="edge">
<title>Node35&#45;&gt;Node16</title>
<path fill="none" stroke="midnightblue" d="M334.51,-112.08C340.64,-104.38 349.68,-93.03 357.15,-83.65"/>
<polygon fill="midnightblue" stroke="midnightblue" points="359.95,-85.75 363.44,-75.75 354.47,-81.39 359.95,-85.75"/>
</g>
<!-- Node35&#45;&gt;Node21 -->
<g id="edge59" class="edge">
<title>Node35&#45;&gt;Node21</title>
<path fill="none" stroke="midnightblue" d="M351.33,-112.44C376.62,-103.4 416.71,-89.06 445.09,-78.92"/>
<polygon fill="midnightblue" stroke="midnightblue" points="446.35,-82.18 454.59,-75.52 444,-75.59 446.35,-82.18"/>
</g>
<!-- Node35&#45;&gt;Node26 -->
<g id="edge57" class="edge">
<title>Node35&#45;&gt;Node26</title>
<path fill="none" stroke="midnightblue" d="M317.44,-112.32C308.28,-104.34 294.47,-92.31 283.38,-82.65"/>
<polygon fill="midnightblue" stroke="midnightblue" points="285.39,-79.76 275.55,-75.83 280.79,-85.04 285.39,-79.76"/>
</g>
<!-- Node36&#45;&gt;Node17 -->
<g id="edge61" class="edge">
<title>Node36&#45;&gt;Node17</title>
<path fill="none" stroke="midnightblue" d="M140.18,-112.32C124.05,-103.7 99.11,-90.36 80.44,-80.39"/>
<polygon fill="midnightblue" stroke="midnightblue" points="82.06,-77.28 71.59,-75.65 78.76,-83.46 82.06,-77.28"/>
</g>
<!-- Node37 -->
<g id="node37" class="node">
<title>Node37</title>
<g id="a_node37"><a xlink:title=" ">
<polygon fill="white" stroke="#bfbfbf" points="107.91,-56.5 107.91,-75.5 184.91,-75.5 184.91,-56.5 107.91,-56.5"/>
<text text-anchor="middle" x="146.41" y="-63.5" font-family="Helvetica,sans-Serif" font-size="10.00">half/half.hpp</text>
</a>
</g>
</g>
<!-- Node36&#45;&gt;Node37 -->
<g id="edge62" class="edge">
<title>Node36&#45;&gt;Node37</title>
<path fill="none" stroke="midnightblue" d="M154.75,-112.08C153.43,-104.93 151.52,-94.64 149.87,-85.69"/>
<polygon fill="midnightblue" stroke="midnightblue" points="153.29,-84.95 148.03,-75.75 146.41,-86.22 153.29,-84.95"/>
</g>
<!-- Node38&#45;&gt;Node2 -->
<g id="edge64" class="edge">
<title>Node38&#45;&gt;Node2</title>
<path fill="none" stroke="midnightblue" d="M945.47,-403.44C916.75,-394.32 871.08,-379.81 839.08,-369.65"/>
<polygon fill="midnightblue" stroke="midnightblue" points="839.81,-366.21 829.22,-366.52 837.69,-372.88 839.81,-366.21"/>
</g>
<!-- Node38&#45;&gt;Node31 -->
<g id="edge65" class="edge">
<title>Node38&#45;&gt;Node31</title>
<path fill="none" stroke="midnightblue" d="M978.94,-403.32C992.37,-385.5 1023.38,-344.32 1042.75,-318.61"/>
<polygon fill="midnightblue" stroke="midnightblue" points="1045.61,-320.64 1048.83,-310.55 1040.01,-316.43 1045.61,-320.64"/>
</g>
<!-- Node38&#45;&gt;Node33 -->
<g id="edge66" class="edge">
<title>Node38&#45;&gt;Node33</title>
<path fill="none" stroke="midnightblue" d="M965.42,-403.32C950,-384.17 912.86,-338.04 892.8,-313.13"/>
<polygon fill="midnightblue" stroke="midnightblue" points="895.47,-310.88 886.48,-305.28 890.02,-315.27 895.47,-310.88"/>
</g>
<!-- Node39&#45;&gt;Node2 -->
<g id="edge68" class="edge">
<title>Node39&#45;&gt;Node2</title>
<path fill="none" stroke="midnightblue" d="M860.32,-403.32C849.92,-395.18 834.15,-382.84 821.68,-373.09"/>
<polygon fill="midnightblue" stroke="midnightblue" points="823.73,-370.24 813.69,-366.83 819.41,-375.75 823.73,-370.24"/>
</g>
<!-- Node39&#45;&gt;Node33 -->
<g id="edge69" class="edge">
<title>Node39&#45;&gt;Node33</title>
<path fill="none" stroke="midnightblue" d="M872.01,-403.32C873.29,-384.76 876.33,-340.84 878.09,-315.47"/>
<polygon fill="midnightblue" stroke="midnightblue" points="881.6,-315.5 878.8,-305.28 874.61,-315.02 881.6,-315.5"/>
</g>
</g>
</svg>
