<?xml version="1.0" encoding="UTF-8" standalone="no"?>
<!DOCTYPE svg PUBLIC "-//W3C//DTD SVG 1.1//EN"
 "http://www.w3.org/Graphics/SVG/1.1/DTD/svg11.dtd">
<!-- Generated by graphviz version 2.43.0 (0)
 -->
<!-- Title: src/backends/reference/workloads/RefLogicalUnaryWorkload.hpp Pages: 1 -->
<svg width="406pt" height="173pt"
 viewBox="0.00 0.00 406.00 173.00" xmlns="http://www.w3.org/2000/svg" xmlns:xlink="http://www.w3.org/1999/xlink">
<g id="graph0" class="graph" transform="scale(1 1) rotate(0) translate(4 169)">
<title>src/backends/reference/workloads/RefLogicalUnaryWorkload.hpp</title>
<polygon fill="white" stroke="transparent" points="-4,4 -4,-169 402,-169 402,4 -4,4"/>
<!-- Node1 -->
<g id="node1" class="node">
<title>Node1</title>
<g id="a_node1"><a xlink:title=" ">
<polygon fill="#bfbfbf" stroke="black" points="103.5,-134.5 103.5,-164.5 323.5,-164.5 323.5,-134.5 103.5,-134.5"/>
<text text-anchor="start" x="111.5" y="-152.5" font-family="Helvetica,sans-Serif" font-size="10.00">src/backends/reference</text>
<text text-anchor="middle" x="213.5" y="-141.5" font-family="Helvetica,sans-Serif" font-size="10.00">/workloads/RefLogicalUnaryWorkload.hpp</text>
</a>
</g>
</g>
<!-- Node2 -->
<g id="node2" class="node">
<title>Node2</title>
<g id="a_node2"><a xlink:href="_ref_logical_unary_workload_8cpp.html" target="_top" xlink:title=" ">
<polygon fill="white" stroke="black" points="0,-67.5 0,-97.5 219,-97.5 219,-67.5 0,-67.5"/>
<text text-anchor="start" x="8" y="-85.5" font-family="Helvetica,sans-Serif" font-size="10.00">src/backends/reference</text>
<text text-anchor="middle" x="109.5" y="-74.5" font-family="Helvetica,sans-Serif" font-size="10.00">/workloads/RefLogicalUnaryWorkload.cpp</text>
</a>
</g>
</g>
<!-- Node1&#45;&gt;Node2 -->
<g id="edge1" class="edge">
<title>Node1&#45;&gt;Node2</title>
<path fill="none" stroke="midnightblue" d="M182.32,-129.02C166.14,-118.9 146.73,-106.77 132.02,-97.58"/>
<polygon fill="midnightblue" stroke="midnightblue" points="180.6,-132.06 190.93,-134.4 184.31,-126.13 180.6,-132.06"/>
</g>
<!-- Node3 -->
<g id="node3" class="node">
<title>Node3</title>
<g id="a_node3"><a xlink:href="_ref_workloads_8hpp.html" target="_top" xlink:title=" ">
<polygon fill="white" stroke="black" points="237,-67.5 237,-97.5 398,-97.5 398,-67.5 237,-67.5"/>
<text text-anchor="start" x="245" y="-85.5" font-family="Helvetica,sans-Serif" font-size="10.00">src/backends/reference</text>
<text text-anchor="middle" x="317.5" y="-74.5" font-family="Helvetica,sans-Serif" font-size="10.00">/workloads/RefWorkloads.hpp</text>
</a>
</g>
</g>
<!-- Node1&#45;&gt;Node3 -->
<g id="edge2" class="edge">
<title>Node1&#45;&gt;Node3</title>
<path fill="none" stroke="midnightblue" d="M244.68,-129.02C260.86,-118.9 280.27,-106.77 294.98,-97.58"/>
<polygon fill="midnightblue" stroke="midnightblue" points="242.69,-126.13 236.07,-134.4 246.4,-132.06 242.69,-126.13"/>
</g>
<!-- Node4 -->
<g id="node4" class="node">
<title>Node4</title>
<g id="a_node4"><a xlink:href="_ref_workload_factory_8cpp.html" target="_top" xlink:title=" ">
<polygon fill="white" stroke="black" points="249.5,-0.5 249.5,-30.5 385.5,-30.5 385.5,-0.5 249.5,-0.5"/>
<text text-anchor="start" x="257.5" y="-18.5" font-family="Helvetica,sans-Serif" font-size="10.00">src/backends/reference</text>
<text text-anchor="middle" x="317.5" y="-7.5" font-family="Helvetica,sans-Serif" font-size="10.00">/RefWorkloadFactory.cpp</text>
</a>
</g>
</g>
<!-- Node3&#45;&gt;Node4 -->
<g id="edge3" class="edge">
<title>Node3&#45;&gt;Node4</title>
<path fill="none" stroke="midnightblue" d="M317.5,-57.11C317.5,-48.15 317.5,-38.32 317.5,-30.58"/>
<polygon fill="midnightblue" stroke="midnightblue" points="314,-57.4 317.5,-67.4 321,-57.4 314,-57.4"/>
</g>
</g>
</svg>
