<?xml version="1.0" encoding="UTF-8" standalone="no"?>
<!DOCTYPE svg PUBLIC "-//W3C//DTD SVG 1.1//EN"
 "http://www.w3.org/Graphics/SVG/1.1/DTD/svg11.dtd">
<!-- Generated by graphviz version 2.43.0 (0)
 -->
<!-- Title: src/backends/reference/workloads/RefFullyConnectedWorkload.hpp Pages: 1 -->
<svg width="352pt" height="195pt"
 viewBox="0.00 0.00 351.50 195.00" xmlns="http://www.w3.org/2000/svg" xmlns:xlink="http://www.w3.org/1999/xlink">
<g id="graph0" class="graph" transform="scale(1 1) rotate(0) translate(4 191)">
<title>src/backends/reference/workloads/RefFullyConnectedWorkload.hpp</title>
<polygon fill="white" stroke="transparent" points="-4,4 -4,-191 347.5,-191 347.5,4 -4,4"/>
<!-- Node1 -->
<g id="node1" class="node">
<title>Node1</title>
<g id="a_node1"><a xlink:title=" ">
<polygon fill="#bfbfbf" stroke="black" points="90,-145.5 90,-186.5 254,-186.5 254,-145.5 90,-145.5"/>
<text text-anchor="start" x="98" y="-174.5" font-family="Helvetica,sans-Serif" font-size="10.00">src/backends/reference</text>
<text text-anchor="start" x="98" y="-163.5" font-family="Helvetica,sans-Serif" font-size="10.00">/workloads/RefFullyConnected</text>
<text text-anchor="middle" x="172" y="-152.5" font-family="Helvetica,sans-Serif" font-size="10.00">Workload.hpp</text>
</a>
</g>
</g>
<!-- Node2 -->
<g id="node2" class="node">
<title>Node2</title>
<g id="a_node2"><a xlink:href="_ref_fully_connected_workload_8cpp.html" target="_top" xlink:title=" ">
<polygon fill="white" stroke="black" points="0,-67.5 0,-108.5 164,-108.5 164,-67.5 0,-67.5"/>
<text text-anchor="start" x="8" y="-96.5" font-family="Helvetica,sans-Serif" font-size="10.00">src/backends/reference</text>
<text text-anchor="start" x="8" y="-85.5" font-family="Helvetica,sans-Serif" font-size="10.00">/workloads/RefFullyConnected</text>
<text text-anchor="middle" x="82" y="-74.5" font-family="Helvetica,sans-Serif" font-size="10.00">Workload.cpp</text>
</a>
</g>
</g>
<!-- Node1&#45;&gt;Node2 -->
<g id="edge1" class="edge">
<title>Node1&#45;&gt;Node2</title>
<path fill="none" stroke="midnightblue" d="M140.95,-138.78C129.18,-128.84 116.01,-117.72 105.1,-108.51"/>
<polygon fill="midnightblue" stroke="midnightblue" points="138.92,-141.65 148.82,-145.43 143.44,-136.3 138.92,-141.65"/>
</g>
<!-- Node3 -->
<g id="node3" class="node">
<title>Node3</title>
<g id="a_node3"><a xlink:href="_ref_workloads_8hpp.html" target="_top" xlink:title=" ">
<polygon fill="white" stroke="black" points="182.5,-73 182.5,-103 343.5,-103 343.5,-73 182.5,-73"/>
<text text-anchor="start" x="190.5" y="-91" font-family="Helvetica,sans-Serif" font-size="10.00">src/backends/reference</text>
<text text-anchor="middle" x="263" y="-80" font-family="Helvetica,sans-Serif" font-size="10.00">/workloads/RefWorkloads.hpp</text>
</a>
</g>
</g>
<!-- Node1&#45;&gt;Node3 -->
<g id="edge2" class="edge">
<title>Node1&#45;&gt;Node3</title>
<path fill="none" stroke="midnightblue" d="M203.14,-138.99C217.48,-127.02 233.94,-113.27 245.97,-103.23"/>
<polygon fill="midnightblue" stroke="midnightblue" points="200.87,-136.33 195.43,-145.43 205.35,-141.7 200.87,-136.33"/>
</g>
<!-- Node4 -->
<g id="node4" class="node">
<title>Node4</title>
<g id="a_node4"><a xlink:href="_ref_workload_factory_8cpp.html" target="_top" xlink:title=" ">
<polygon fill="white" stroke="black" points="195,-0.5 195,-30.5 331,-30.5 331,-0.5 195,-0.5"/>
<text text-anchor="start" x="203" y="-18.5" font-family="Helvetica,sans-Serif" font-size="10.00">src/backends/reference</text>
<text text-anchor="middle" x="263" y="-7.5" font-family="Helvetica,sans-Serif" font-size="10.00">/RefWorkloadFactory.cpp</text>
</a>
</g>
</g>
<!-- Node3&#45;&gt;Node4 -->
<g id="edge3" class="edge">
<title>Node3&#45;&gt;Node4</title>
<path fill="none" stroke="midnightblue" d="M263,-62.73C263,-52.07 263,-39.91 263,-30.75"/>
<polygon fill="midnightblue" stroke="midnightblue" points="259.5,-62.73 263,-72.73 266.5,-62.73 259.5,-62.73"/>
</g>
</g>
</svg>
