<?xml version="1.0" encoding="UTF-8" standalone="no"?>
<!DOCTYPE svg PUBLIC "-//W3C//DTD SVG 1.1//EN"
 "http://www.w3.org/Graphics/SVG/1.1/DTD/svg11.dtd">
<!-- Generated by graphviz version 2.43.0 (0)
 -->
<!-- Title: src/backends/reference/workloads/RefElementwiseBinaryWorkload.hpp Pages: 1 -->
<svg width="372pt" height="195pt"
 viewBox="0.00 0.00 371.50 195.00" xmlns="http://www.w3.org/2000/svg" xmlns:xlink="http://www.w3.org/1999/xlink">
<g id="graph0" class="graph" transform="scale(1 1) rotate(0) translate(4 191)">
<title>src/backends/reference/workloads/RefElementwiseBinaryWorkload.hpp</title>
<polygon fill="white" stroke="transparent" points="-4,4 -4,-191 367.5,-191 367.5,4 -4,4"/>
<!-- Node1 -->
<g id="node1" class="node">
<title>Node1</title>
<g id="a_node1"><a xlink:title=" ">
<polygon fill="#bfbfbf" stroke="black" points="95,-145.5 95,-186.5 279,-186.5 279,-145.5 95,-145.5"/>
<text text-anchor="start" x="103" y="-174.5" font-family="Helvetica,sans-Serif" font-size="10.00">src/backends/reference</text>
<text text-anchor="start" x="103" y="-163.5" font-family="Helvetica,sans-Serif" font-size="10.00">/workloads/RefElementwiseBinary</text>
<text text-anchor="middle" x="187" y="-152.5" font-family="Helvetica,sans-Serif" font-size="10.00">Workload.hpp</text>
</a>
</g>
</g>
<!-- Node2 -->
<g id="node2" class="node">
<title>Node2</title>
<g id="a_node2"><a xlink:href="_ref_elementwise_binary_workload_8cpp.html" target="_top" xlink:title=" ">
<polygon fill="white" stroke="black" points="0,-67.5 0,-108.5 184,-108.5 184,-67.5 0,-67.5"/>
<text text-anchor="start" x="8" y="-96.5" font-family="Helvetica,sans-Serif" font-size="10.00">src/backends/reference</text>
<text text-anchor="start" x="8" y="-85.5" font-family="Helvetica,sans-Serif" font-size="10.00">/workloads/RefElementwiseBinary</text>
<text text-anchor="middle" x="92" y="-74.5" font-family="Helvetica,sans-Serif" font-size="10.00">Workload.cpp</text>
</a>
</g>
</g>
<!-- Node1&#45;&gt;Node2 -->
<g id="edge1" class="edge">
<title>Node1&#45;&gt;Node2</title>
<path fill="none" stroke="midnightblue" d="M154.58,-139.06C142.07,-129.06 128.01,-117.8 116.38,-108.51"/>
<polygon fill="midnightblue" stroke="midnightblue" points="152.54,-141.91 162.54,-145.43 156.91,-136.45 152.54,-141.91"/>
</g>
<!-- Node3 -->
<g id="node3" class="node">
<title>Node3</title>
<g id="a_node3"><a xlink:href="_ref_workloads_8hpp.html" target="_top" xlink:title=" ">
<polygon fill="white" stroke="black" points="202.5,-73 202.5,-103 363.5,-103 363.5,-73 202.5,-73"/>
<text text-anchor="start" x="210.5" y="-91" font-family="Helvetica,sans-Serif" font-size="10.00">src/backends/reference</text>
<text text-anchor="middle" x="283" y="-80" font-family="Helvetica,sans-Serif" font-size="10.00">/workloads/RefWorkloads.hpp</text>
</a>
</g>
</g>
<!-- Node1&#45;&gt;Node3 -->
<g id="edge2" class="edge">
<title>Node1&#45;&gt;Node3</title>
<path fill="none" stroke="midnightblue" d="M219.85,-138.99C234.98,-127.02 252.34,-113.27 265.03,-103.23"/>
<polygon fill="midnightblue" stroke="midnightblue" points="217.39,-136.48 211.72,-145.43 221.74,-141.97 217.39,-136.48"/>
</g>
<!-- Node4 -->
<g id="node4" class="node">
<title>Node4</title>
<g id="a_node4"><a xlink:href="_ref_workload_factory_8cpp.html" target="_top" xlink:title=" ">
<polygon fill="white" stroke="black" points="215,-0.5 215,-30.5 351,-30.5 351,-0.5 215,-0.5"/>
<text text-anchor="start" x="223" y="-18.5" font-family="Helvetica,sans-Serif" font-size="10.00">src/backends/reference</text>
<text text-anchor="middle" x="283" y="-7.5" font-family="Helvetica,sans-Serif" font-size="10.00">/RefWorkloadFactory.cpp</text>
</a>
</g>
</g>
<!-- Node3&#45;&gt;Node4 -->
<g id="edge3" class="edge">
<title>Node3&#45;&gt;Node4</title>
<path fill="none" stroke="midnightblue" d="M283,-62.73C283,-52.07 283,-39.91 283,-30.75"/>
<polygon fill="midnightblue" stroke="midnightblue" points="279.5,-62.73 283,-72.73 286.5,-62.73 279.5,-62.73"/>
</g>
</g>
</svg>
