<?xml version="1.0" encoding="UTF-8" standalone="no"?>
<!DOCTYPE svg PUBLIC "-//W3C//DTD SVG 1.1//EN"
 "http://www.w3.org/Graphics/SVG/1.1/DTD/svg11.dtd">
<!-- Generated by graphviz version 2.43.0 (0)
 -->
<!-- Title: src/backends/reference/workloads/RefConcatWorkload.hpp Pages: 1 -->
<svg width="376pt" height="173pt"
 viewBox="0.00 0.00 376.00 173.00" xmlns="http://www.w3.org/2000/svg" xmlns:xlink="http://www.w3.org/1999/xlink">
<g id="graph0" class="graph" transform="scale(1 1) rotate(0) translate(4 169)">
<title>src/backends/reference/workloads/RefConcatWorkload.hpp</title>
<polygon fill="white" stroke="transparent" points="-4,4 -4,-169 372,-169 372,4 -4,4"/>
<!-- Node1 -->
<g id="node1" class="node">
<title>Node1</title>
<g id="a_node1"><a xlink:title=" ">
<polygon fill="#bfbfbf" stroke="black" points="95.5,-134.5 95.5,-164.5 285.5,-164.5 285.5,-134.5 95.5,-134.5"/>
<text text-anchor="start" x="103.5" y="-152.5" font-family="Helvetica,sans-Serif" font-size="10.00">src/backends/reference</text>
<text text-anchor="middle" x="190.5" y="-141.5" font-family="Helvetica,sans-Serif" font-size="10.00">/workloads/RefConcatWorkload.hpp</text>
</a>
</g>
</g>
<!-- Node2 -->
<g id="node2" class="node">
<title>Node2</title>
<g id="a_node2"><a xlink:href="_ref_concat_workload_8cpp.html" target="_top" xlink:title=" ">
<polygon fill="white" stroke="black" points="0,-67.5 0,-97.5 189,-97.5 189,-67.5 0,-67.5"/>
<text text-anchor="start" x="8" y="-85.5" font-family="Helvetica,sans-Serif" font-size="10.00">src/backends/reference</text>
<text text-anchor="middle" x="94.5" y="-74.5" font-family="Helvetica,sans-Serif" font-size="10.00">/workloads/RefConcatWorkload.cpp</text>
</a>
</g>
</g>
<!-- Node1&#45;&gt;Node2 -->
<g id="edge1" class="edge">
<title>Node1&#45;&gt;Node2</title>
<path fill="none" stroke="midnightblue" d="M161.31,-128.73C146.45,-118.68 128.74,-106.68 115.29,-97.58"/>
<polygon fill="midnightblue" stroke="midnightblue" points="159.43,-131.69 169.67,-134.4 163.35,-125.89 159.43,-131.69"/>
</g>
<!-- Node3 -->
<g id="node3" class="node">
<title>Node3</title>
<g id="a_node3"><a xlink:href="_ref_workloads_8hpp.html" target="_top" xlink:title=" ">
<polygon fill="white" stroke="black" points="207,-67.5 207,-97.5 368,-97.5 368,-67.5 207,-67.5"/>
<text text-anchor="start" x="215" y="-85.5" font-family="Helvetica,sans-Serif" font-size="10.00">src/backends/reference</text>
<text text-anchor="middle" x="287.5" y="-74.5" font-family="Helvetica,sans-Serif" font-size="10.00">/workloads/RefWorkloads.hpp</text>
</a>
</g>
</g>
<!-- Node1&#45;&gt;Node3 -->
<g id="edge2" class="edge">
<title>Node1&#45;&gt;Node3</title>
<path fill="none" stroke="midnightblue" d="M220,-128.73C235.01,-118.68 252.9,-106.68 266.49,-97.58"/>
<polygon fill="midnightblue" stroke="midnightblue" points="217.91,-125.92 211.55,-134.4 221.8,-131.74 217.91,-125.92"/>
</g>
<!-- Node4 -->
<g id="node4" class="node">
<title>Node4</title>
<g id="a_node4"><a xlink:href="_ref_workload_factory_8cpp.html" target="_top" xlink:title=" ">
<polygon fill="white" stroke="black" points="219.5,-0.5 219.5,-30.5 355.5,-30.5 355.5,-0.5 219.5,-0.5"/>
<text text-anchor="start" x="227.5" y="-18.5" font-family="Helvetica,sans-Serif" font-size="10.00">src/backends/reference</text>
<text text-anchor="middle" x="287.5" y="-7.5" font-family="Helvetica,sans-Serif" font-size="10.00">/RefWorkloadFactory.cpp</text>
</a>
</g>
</g>
<!-- Node3&#45;&gt;Node4 -->
<g id="edge3" class="edge">
<title>Node3&#45;&gt;Node4</title>
<path fill="none" stroke="midnightblue" d="M287.5,-57.11C287.5,-48.15 287.5,-38.32 287.5,-30.58"/>
<polygon fill="midnightblue" stroke="midnightblue" points="284,-57.4 287.5,-67.4 291,-57.4 284,-57.4"/>
</g>
</g>
</svg>
