<?xml version="1.0" encoding="UTF-8" standalone="no"?>
<!DOCTYPE svg PUBLIC "-//W3C//DTD SVG 1.1//EN"
 "http://www.w3.org/Graphics/SVG/1.1/DTD/svg11.dtd">
<!-- Generated by graphviz version 2.43.0 (0)
 -->
<!-- Title: src/backends/tosaCommon/operatorMappings/RsqrtOperator.hpp Pages: 1 -->
<svg width="561pt" height="251pt"
 viewBox="0.00 0.00 561.00 251.00" xmlns="http://www.w3.org/2000/svg" xmlns:xlink="http://www.w3.org/1999/xlink">
<g id="graph0" class="graph" transform="scale(1 1) rotate(0) translate(4 247)">
<title>src/backends/tosaCommon/operatorMappings/RsqrtOperator.hpp</title>
<polygon fill="white" stroke="transparent" points="-4,4 -4,-247 557,-247 557,4 -4,4"/>
<!-- Node1 -->
<g id="node1" class="node">
<title>Node1</title>
<g id="a_node1"><a xlink:title=" ">
<polygon fill="#bfbfbf" stroke="black" points="102.5,-212.5 102.5,-242.5 302.5,-242.5 302.5,-212.5 102.5,-212.5"/>
<text text-anchor="start" x="110.5" y="-230.5" font-family="Helvetica,sans-Serif" font-size="10.00">src/backends/tosaCommon</text>
<text text-anchor="middle" x="202.5" y="-219.5" font-family="Helvetica,sans-Serif" font-size="10.00">/operatorMappings/RsqrtOperator.hpp</text>
</a>
</g>
</g>
<!-- Node2 -->
<g id="node2" class="node">
<title>Node2</title>
<g id="a_node2"><a xlink:href="_rsqrt_operator_8cpp.html" target="_top" xlink:title=" ">
<polygon fill="white" stroke="black" points="0,-140 0,-170 199,-170 199,-140 0,-140"/>
<text text-anchor="start" x="8" y="-158" font-family="Helvetica,sans-Serif" font-size="10.00">src/backends/tosaCommon</text>
<text text-anchor="middle" x="99.5" y="-147" font-family="Helvetica,sans-Serif" font-size="10.00">/operatorMappings/RsqrtOperator.cpp</text>
</a>
</g>
</g>
<!-- Node1&#45;&gt;Node2 -->
<g id="edge1" class="edge">
<title>Node1&#45;&gt;Node2</title>
<path fill="none" stroke="midnightblue" d="M173.18,-206.43C156.18,-194.79 135.18,-180.42 119.96,-170"/>
<polygon fill="midnightblue" stroke="midnightblue" points="171.43,-209.47 181.66,-212.23 175.38,-203.7 171.43,-209.47"/>
</g>
<!-- Node3 -->
<g id="node3" class="node">
<title>Node3</title>
<g id="a_node3"><a xlink:href="_tosa_common_operators_8hpp.html" target="_top" xlink:title=" ">
<polygon fill="white" stroke="black" points="217,-134.5 217,-175.5 394,-175.5 394,-134.5 217,-134.5"/>
<text text-anchor="start" x="225" y="-163.5" font-family="Helvetica,sans-Serif" font-size="10.00">src/backends/tosaCommon</text>
<text text-anchor="start" x="225" y="-152.5" font-family="Helvetica,sans-Serif" font-size="10.00">/operatorMappings/TosaCommon</text>
<text text-anchor="middle" x="305.5" y="-141.5" font-family="Helvetica,sans-Serif" font-size="10.00">Operators.hpp</text>
</a>
</g>
</g>
<!-- Node1&#45;&gt;Node3 -->
<g id="edge2" class="edge">
<title>Node1&#45;&gt;Node3</title>
<path fill="none" stroke="midnightblue" d="M231.74,-206.48C245.89,-196.8 262.82,-185.22 276.88,-175.59"/>
<polygon fill="midnightblue" stroke="midnightblue" points="229.62,-203.7 223.34,-212.23 233.57,-209.47 229.62,-203.7"/>
</g>
<!-- Node4 -->
<g id="node4" class="node">
<title>Node4</title>
<g id="a_node4"><a xlink:href="_tosa_mappings_8hpp.html" target="_top" xlink:title=" ">
<polygon fill="white" stroke="black" points="231.5,-67.5 231.5,-97.5 379.5,-97.5 379.5,-67.5 231.5,-67.5"/>
<text text-anchor="start" x="239.5" y="-85.5" font-family="Helvetica,sans-Serif" font-size="10.00">src/backends/tosaCommon</text>
<text text-anchor="middle" x="305.5" y="-74.5" font-family="Helvetica,sans-Serif" font-size="10.00">/TosaMappings.hpp</text>
</a>
</g>
</g>
<!-- Node3&#45;&gt;Node4 -->
<g id="edge3" class="edge">
<title>Node3&#45;&gt;Node4</title>
<path fill="none" stroke="midnightblue" d="M305.5,-124.08C305.5,-115.01 305.5,-105.45 305.5,-97.89"/>
<polygon fill="midnightblue" stroke="midnightblue" points="302,-124.36 305.5,-134.36 309,-124.36 302,-124.36"/>
</g>
<!-- Node5 -->
<g id="node5" class="node">
<title>Node5</title>
<g id="a_node5"><a xlink:href="_tosa_mappings_8cpp.html" target="_top" xlink:title=" ">
<polygon fill="white" stroke="black" points="62.5,-0.5 62.5,-30.5 210.5,-30.5 210.5,-0.5 62.5,-0.5"/>
<text text-anchor="start" x="70.5" y="-18.5" font-family="Helvetica,sans-Serif" font-size="10.00">src/backends/tosaCommon</text>
<text text-anchor="middle" x="136.5" y="-7.5" font-family="Helvetica,sans-Serif" font-size="10.00">/TosaMappings.cpp</text>
</a>
</g>
</g>
<!-- Node4&#45;&gt;Node5 -->
<g id="edge4" class="edge">
<title>Node4&#45;&gt;Node5</title>
<path fill="none" stroke="midnightblue" d="M259.17,-63.68C232.07,-53.26 198.33,-40.28 173.1,-30.58"/>
<polygon fill="midnightblue" stroke="midnightblue" points="258.24,-67.07 268.83,-67.4 260.75,-60.54 258.24,-67.07"/>
</g>
<!-- Node6 -->
<g id="node6" class="node">
<title>Node6</title>
<g id="a_node6"><a xlink:href="_tosa_ref_backend_8cpp.html" target="_top" xlink:title=" ">
<polygon fill="white" stroke="black" points="229,-0.5 229,-30.5 382,-30.5 382,-0.5 229,-0.5"/>
<text text-anchor="start" x="237" y="-18.5" font-family="Helvetica,sans-Serif" font-size="10.00">src/backends/tosaReference</text>
<text text-anchor="middle" x="305.5" y="-7.5" font-family="Helvetica,sans-Serif" font-size="10.00">/TosaRefBackend.cpp</text>
</a>
</g>
</g>
<!-- Node4&#45;&gt;Node6 -->
<g id="edge5" class="edge">
<title>Node4&#45;&gt;Node6</title>
<path fill="none" stroke="midnightblue" d="M305.5,-57.11C305.5,-48.15 305.5,-38.32 305.5,-30.58"/>
<polygon fill="midnightblue" stroke="midnightblue" points="302,-57.4 305.5,-67.4 309,-57.4 302,-57.4"/>
</g>
<!-- Node7 -->
<g id="node7" class="node">
<title>Node7</title>
<g id="a_node7"><a xlink:href="_tosa_ref_layer_support_8cpp.html" target="_top" xlink:title=" ">
<polygon fill="white" stroke="black" points="400,-0.5 400,-30.5 553,-30.5 553,-0.5 400,-0.5"/>
<text text-anchor="start" x="408" y="-18.5" font-family="Helvetica,sans-Serif" font-size="10.00">src/backends/tosaReference</text>
<text text-anchor="middle" x="476.5" y="-7.5" font-family="Helvetica,sans-Serif" font-size="10.00">/TosaRefLayerSupport.cpp</text>
</a>
</g>
</g>
<!-- Node4&#45;&gt;Node7 -->
<g id="edge6" class="edge">
<title>Node4&#45;&gt;Node7</title>
<path fill="none" stroke="midnightblue" d="M352.02,-63.82C379.5,-53.37 413.83,-40.32 439.47,-30.58"/>
<polygon fill="midnightblue" stroke="midnightblue" points="350.71,-60.57 342.6,-67.4 353.2,-67.11 350.71,-60.57"/>
</g>
</g>
</svg>
