<?xml version="1.0" encoding="UTF-8" standalone="no"?>
<!DOCTYPE svg PUBLIC "-//W3C//DTD SVG 1.1//EN"
 "http://www.w3.org/Graphics/SVG/1.1/DTD/svg11.dtd">
<!-- Generated by graphviz version 2.43.0 (0)
 -->
<!-- Title: src/backends/tosaReference/workloads/TosaRefPreCompiledWorkload.hpp Pages: 1 -->
<svg width="448pt" height="173pt"
 viewBox="0.00 0.00 448.00 173.00" xmlns="http://www.w3.org/2000/svg" xmlns:xlink="http://www.w3.org/1999/xlink">
<g id="graph0" class="graph" transform="scale(1 1) rotate(0) translate(4 169)">
<title>src/backends/tosaReference/workloads/TosaRefPreCompiledWorkload.hpp</title>
<polygon fill="white" stroke="transparent" points="-4,4 -4,-169 444,-169 444,4 -4,4"/>
<!-- Node1 -->
<g id="node1" class="node">
<title>Node1</title>
<g id="a_node1"><a xlink:title=" ">
<polygon fill="#bfbfbf" stroke="black" points="113.5,-134.5 113.5,-164.5 353.5,-164.5 353.5,-134.5 113.5,-134.5"/>
<text text-anchor="start" x="121.5" y="-152.5" font-family="Helvetica,sans-Serif" font-size="10.00">src/backends/tosaReference</text>
<text text-anchor="middle" x="233.5" y="-141.5" font-family="Helvetica,sans-Serif" font-size="10.00">/workloads/TosaRefPreCompiledWorkload.hpp</text>
</a>
</g>
</g>
<!-- Node2 -->
<g id="node2" class="node">
<title>Node2</title>
<g id="a_node2"><a xlink:href="_tosa_ref_pre_compiled_workload_8cpp.html" target="_top" xlink:title=" ">
<polygon fill="white" stroke="black" points="0,-67.5 0,-97.5 239,-97.5 239,-67.5 0,-67.5"/>
<text text-anchor="start" x="8" y="-85.5" font-family="Helvetica,sans-Serif" font-size="10.00">src/backends/tosaReference</text>
<text text-anchor="middle" x="119.5" y="-74.5" font-family="Helvetica,sans-Serif" font-size="10.00">/workloads/TosaRefPreCompiledWorkload.cpp</text>
</a>
</g>
</g>
<!-- Node1&#45;&gt;Node2 -->
<g id="edge1" class="edge">
<title>Node1&#45;&gt;Node2</title>
<path fill="none" stroke="midnightblue" d="M199.82,-129.3C181.98,-119.12 160.46,-106.85 144.19,-97.58"/>
<polygon fill="midnightblue" stroke="midnightblue" points="198.34,-132.48 208.76,-134.4 201.81,-126.4 198.34,-132.48"/>
</g>
<!-- Node3 -->
<g id="node3" class="node">
<title>Node3</title>
<g id="a_node3"><a xlink:href="_tosa_ref_workloads_8hpp.html" target="_top" xlink:title=" ">
<polygon fill="white" stroke="black" points="257,-67.5 257,-97.5 440,-97.5 440,-67.5 257,-67.5"/>
<text text-anchor="start" x="265" y="-85.5" font-family="Helvetica,sans-Serif" font-size="10.00">src/backends/tosaReference</text>
<text text-anchor="middle" x="348.5" y="-74.5" font-family="Helvetica,sans-Serif" font-size="10.00">/workloads/TosaRefWorkloads.hpp</text>
</a>
</g>
</g>
<!-- Node1&#45;&gt;Node3 -->
<g id="edge2" class="edge">
<title>Node1&#45;&gt;Node3</title>
<path fill="none" stroke="midnightblue" d="M267.48,-129.3C285.47,-119.12 307.18,-106.85 323.6,-97.58"/>
<polygon fill="midnightblue" stroke="midnightblue" points="265.44,-126.43 258.45,-134.4 268.88,-132.52 265.44,-126.43"/>
</g>
<!-- Node4 -->
<g id="node4" class="node">
<title>Node4</title>
<g id="a_node4"><a xlink:href="_tosa_ref_workload_factory_8cpp.html" target="_top" xlink:title=" ">
<polygon fill="white" stroke="black" points="269.5,-0.5 269.5,-30.5 427.5,-30.5 427.5,-0.5 269.5,-0.5"/>
<text text-anchor="start" x="277.5" y="-18.5" font-family="Helvetica,sans-Serif" font-size="10.00">src/backends/tosaReference</text>
<text text-anchor="middle" x="348.5" y="-7.5" font-family="Helvetica,sans-Serif" font-size="10.00">/TosaRefWorkloadFactory.cpp</text>
</a>
</g>
</g>
<!-- Node3&#45;&gt;Node4 -->
<g id="edge3" class="edge">
<title>Node3&#45;&gt;Node4</title>
<path fill="none" stroke="midnightblue" d="M348.5,-57.11C348.5,-48.15 348.5,-38.32 348.5,-30.58"/>
<polygon fill="midnightblue" stroke="midnightblue" points="345,-57.4 348.5,-67.4 352,-57.4 345,-57.4"/>
</g>
</g>
</svg>
