<?xml version="1.0" encoding="UTF-8" standalone="no"?>
<!DOCTYPE svg PUBLIC "-//W3C//DTD SVG 1.1//EN"
 "http://www.w3.org/Graphics/SVG/1.1/DTD/svg11.dtd">
<!-- Generated by graphviz version 2.43.0 (0)
 -->
<!-- Title: DetectionPostProcessLayer Pages: 1 -->
<svg width="328pt" height="288pt"
 viewBox="0.00 0.00 327.50 288.00" xmlns="http://www.w3.org/2000/svg" xmlns:xlink="http://www.w3.org/1999/xlink">
<g id="graph0" class="graph" transform="scale(1 1) rotate(0) translate(4 284)">
<title>DetectionPostProcessLayer</title>
<polygon fill="white" stroke="transparent" points="-4,4 -4,-284 323.5,-284 323.5,4 -4,4"/>
<!-- Node1 -->
<g id="node1" class="node">
<title>Node1</title>
<g id="a_node1"><a xlink:title="This layer represents a detection postprocess operator.">
<polygon fill="#bfbfbf" stroke="black" points="23,-0.5 23,-19.5 172,-19.5 172,-0.5 23,-0.5"/>
<text text-anchor="middle" x="97.5" y="-7.5" font-family="Helvetica,sans-Serif" font-size="10.00">DetectionPostProcessLayer</text>
</a>
</g>
</g>
<!-- Node2 -->
<g id="node2" class="node">
<title>Node2</title>
<g id="a_node2"><a xlink:href="classarmnn_1_1_layer_with_parameters.html" target="_top" xlink:title=" ">
<polygon fill="white" stroke="black" points="0,-57.5 0,-87.5 195,-87.5 195,-57.5 0,-57.5"/>
<text text-anchor="start" x="8" y="-75.5" font-family="Helvetica,sans-Serif" font-size="10.00">LayerWithParameters</text>
<text text-anchor="middle" x="97.5" y="-64.5" font-family="Helvetica,sans-Serif" font-size="10.00">&lt; DetectionPostProcessDescriptor &gt;</text>
</a>
</g>
</g>
<!-- Node2&#45;&gt;Node1 -->
<g id="edge1" class="edge">
<title>Node2&#45;&gt;Node1</title>
<path fill="none" stroke="midnightblue" d="M97.5,-47.35C97.5,-37.51 97.5,-26.78 97.5,-19.54"/>
<polygon fill="midnightblue" stroke="midnightblue" points="94,-47.47 97.5,-57.47 101,-47.47 94,-47.47"/>
</g>
<!-- Node3 -->
<g id="node3" class="node">
<title>Node3</title>
<g id="a_node3"><a xlink:href="classarmnn_1_1_layer.html" target="_top" xlink:title=" ">
<polygon fill="white" stroke="black" points="71.5,-203.5 71.5,-222.5 115.5,-222.5 115.5,-203.5 71.5,-203.5"/>
<text text-anchor="middle" x="93.5" y="-210.5" font-family="Helvetica,sans-Serif" font-size="10.00">Layer</text>
</a>
</g>
</g>
<!-- Node3&#45;&gt;Node2 -->
<g id="edge2" class="edge">
<title>Node3&#45;&gt;Node2</title>
<path fill="none" stroke="midnightblue" d="M94.04,-193.25C94.85,-165.19 96.36,-112.88 97.09,-87.73"/>
<polygon fill="midnightblue" stroke="midnightblue" points="90.54,-193.24 93.75,-203.34 97.54,-193.44 90.54,-193.24"/>
</g>
<!-- Node5 -->
<g id="node5" class="node">
<title>Node5</title>
<g id="a_node5"><a xlink:href="classarmnn_1_1_layer_with_parameters.html" target="_top" xlink:title=" ">
<polygon fill="white" stroke="black" points="109.5,-135.5 109.5,-165.5 231.5,-165.5 231.5,-135.5 109.5,-135.5"/>
<text text-anchor="start" x="117.5" y="-153.5" font-family="Helvetica,sans-Serif" font-size="10.00">LayerWithParameters</text>
<text text-anchor="middle" x="170.5" y="-142.5" font-family="Helvetica,sans-Serif" font-size="10.00">&lt; Parameters &gt;</text>
</a>
</g>
</g>
<!-- Node3&#45;&gt;Node5 -->
<g id="edge5" class="edge">
<title>Node3&#45;&gt;Node5</title>
<path fill="none" stroke="midnightblue" d="M112.72,-196.9C124.95,-187.29 140.69,-174.92 152.65,-165.53"/>
<polygon fill="midnightblue" stroke="midnightblue" points="110.23,-194.4 104.53,-203.33 114.56,-199.91 110.23,-194.4"/>
</g>
<!-- Node4 -->
<g id="node4" class="node">
<title>Node4</title>
<g id="a_node4"><a xlink:href="classarmnn_1_1_i_connectable_layer.html" target="_top" xlink:title="Interface for a layer that is connectable to other layers via InputSlots and OutputSlots.">
<polygon fill="white" stroke="black" points="40,-260.5 40,-279.5 147,-279.5 147,-260.5 40,-260.5"/>
<text text-anchor="middle" x="93.5" y="-267.5" font-family="Helvetica,sans-Serif" font-size="10.00">IConnectableLayer</text>
</a>
</g>
</g>
<!-- Node4&#45;&gt;Node3 -->
<g id="edge3" class="edge">
<title>Node4&#45;&gt;Node3</title>
<path fill="none" stroke="midnightblue" d="M93.5,-250.12C93.5,-240.82 93.5,-230.06 93.5,-222.71"/>
<polygon fill="midnightblue" stroke="midnightblue" points="90,-250.41 93.5,-260.41 97,-250.41 90,-250.41"/>
</g>
<!-- Node5&#45;&gt;Node2 -->
<g id="edge4" class="edge">
<title>Node5&#45;&gt;Node2</title>
<path fill="none" stroke="orange" stroke-dasharray="5,2" d="M149.53,-127.67C137.2,-114.83 121.96,-98.97 111.17,-87.73"/>
<polygon fill="orange" stroke="orange" points="147.32,-130.42 156.77,-135.2 152.37,-125.57 147.32,-130.42"/>
<text text-anchor="middle" x="228.5" y="-109" font-family="Helvetica,sans-Serif" font-size="10.00"> &lt; DetectionPostProcessDescriptor &gt;</text>
</g>
</g>
</svg>
