<?xml version="1.0" encoding="UTF-8" standalone="no"?>
<!DOCTYPE svg PUBLIC "-//W3C//DTD SVG 1.1//EN"
 "http://www.w3.org/Graphics/SVG/1.1/DTD/svg11.dtd">
<!-- Generated by graphviz version 2.43.0 (0)
 -->
<!-- Title: RefTransposeWorkload&lt; DataType &gt; Pages: 1 -->
<svg width="320pt" height="310pt"
 viewBox="0.00 0.00 319.50 310.00" xmlns="http://www.w3.org/2000/svg" xmlns:xlink="http://www.w3.org/1999/xlink">
<g id="graph0" class="graph" transform="scale(1 1) rotate(0) translate(4 306)">
<title>RefTransposeWorkload&lt; DataType &gt;</title>
<polygon fill="white" stroke="transparent" points="-4,4 -4,-306 315.5,-306 315.5,4 -4,4"/>
<!-- Node1 -->
<g id="node1" class="node">
<title>Node1</title>
<g id="a_node1"><a xlink:title=" ">
<polygon fill="#bfbfbf" stroke="black" points="35.5,-0.5 35.5,-30.5 163.5,-30.5 163.5,-0.5 35.5,-0.5"/>
<text text-anchor="start" x="43.5" y="-18.5" font-family="Helvetica,sans-Serif" font-size="10.00">RefTransposeWorkload</text>
<text text-anchor="middle" x="99.5" y="-7.5" font-family="Helvetica,sans-Serif" font-size="10.00">&lt; DataType &gt;</text>
</a>
</g>
</g>
<!-- Node2 -->
<g id="node2" class="node">
<title>Node2</title>
<g id="a_node2"><a xlink:href="classarmnn_1_1_typed_workload.html" target="_top" xlink:title=" ">
<polygon fill="white" stroke="black" points="19,-68.5 19,-98.5 180,-98.5 180,-68.5 19,-68.5"/>
<text text-anchor="start" x="27" y="-86.5" font-family="Helvetica,sans-Serif" font-size="10.00">TypedWorkload&lt; Transpose</text>
<text text-anchor="middle" x="99.5" y="-75.5" font-family="Helvetica,sans-Serif" font-size="10.00">QueueDescriptor, DataType &gt;</text>
</a>
</g>
</g>
<!-- Node2&#45;&gt;Node1 -->
<g id="edge1" class="edge">
<title>Node2&#45;&gt;Node1</title>
<path fill="none" stroke="midnightblue" d="M99.5,-58.03C99.5,-48.86 99.5,-38.74 99.5,-30.79"/>
<polygon fill="midnightblue" stroke="midnightblue" points="96,-58.18 99.5,-68.18 103,-58.18 96,-58.18"/>
</g>
<!-- Node3 -->
<g id="node3" class="node">
<title>Node3</title>
<g id="a_node3"><a xlink:href="classarmnn_1_1_base_workload.html" target="_top" xlink:title=" ">
<polygon fill="white" stroke="black" points="0,-225.5 0,-244.5 191,-244.5 191,-225.5 0,-225.5"/>
<text text-anchor="middle" x="95.5" y="-232.5" font-family="Helvetica,sans-Serif" font-size="10.00">BaseWorkload&lt; QueueDescriptor &gt;</text>
</a>
</g>
</g>
<!-- Node3&#45;&gt;Node2 -->
<g id="edge2" class="edge">
<title>Node3&#45;&gt;Node2</title>
<path fill="none" stroke="midnightblue" d="M96.01,-214.95C96.82,-184.5 98.4,-125.55 99.12,-98.59"/>
<polygon fill="midnightblue" stroke="midnightblue" points="92.51,-215.01 95.74,-225.1 99.5,-215.19 92.51,-215.01"/>
</g>
<!-- Node5 -->
<g id="node5" class="node">
<title>Node5</title>
<g id="a_node5"><a xlink:href="classarmnn_1_1_typed_workload.html" target="_top" xlink:title=" ">
<polygon fill="white" stroke="black" points="111,-157.5 111,-187.5 298,-187.5 298,-157.5 111,-157.5"/>
<text text-anchor="start" x="119" y="-175.5" font-family="Helvetica,sans-Serif" font-size="10.00">TypedWorkload&lt; QueueDescriptor,</text>
<text text-anchor="middle" x="204.5" y="-164.5" font-family="Helvetica,sans-Serif" font-size="10.00"> DataTypes &gt;</text>
</a>
</g>
</g>
<!-- Node3&#45;&gt;Node5 -->
<g id="edge5" class="edge">
<title>Node3&#45;&gt;Node5</title>
<path fill="none" stroke="midnightblue" d="M120.22,-220.28C137.85,-210.5 161.48,-197.38 179.23,-187.53"/>
<polygon fill="midnightblue" stroke="midnightblue" points="118.16,-217.42 111.12,-225.33 121.56,-223.54 118.16,-217.42"/>
</g>
<!-- Node4 -->
<g id="node4" class="node">
<title>Node4</title>
<g id="a_node4"><a xlink:href="classarmnn_1_1_i_workload.html" target="_top" xlink:title="Workload interface to enqueue a layer computation.">
<polygon fill="white" stroke="black" points="63,-282.5 63,-301.5 128,-301.5 128,-282.5 63,-282.5"/>
<text text-anchor="middle" x="95.5" y="-289.5" font-family="Helvetica,sans-Serif" font-size="10.00">IWorkload</text>
</a>
</g>
</g>
<!-- Node4&#45;&gt;Node3 -->
<g id="edge3" class="edge">
<title>Node4&#45;&gt;Node3</title>
<path fill="none" stroke="midnightblue" d="M95.5,-272.12C95.5,-262.82 95.5,-252.06 95.5,-244.71"/>
<polygon fill="midnightblue" stroke="midnightblue" points="92,-272.41 95.5,-282.41 99,-272.41 92,-272.41"/>
</g>
<!-- Node5&#45;&gt;Node2 -->
<g id="edge4" class="edge">
<title>Node5&#45;&gt;Node2</title>
<path fill="none" stroke="orange" stroke-dasharray="5,2" d="M179.3,-150.62C159.87,-134.52 133.52,-112.69 116.52,-98.6"/>
<polygon fill="orange" stroke="orange" points="177.23,-153.45 187.16,-157.13 181.69,-148.06 177.23,-153.45"/>
<text text-anchor="start" x="163.5" y="-131" font-family="Helvetica,sans-Serif" font-size="10.00"> &lt; TransposeQueueDescriptor,</text>
<text text-anchor="middle" x="237.5" y="-120" font-family="Helvetica,sans-Serif" font-size="10.00"> DataType &gt;</text>
</g>
</g>
</svg>
