<?xml version="1.0" encoding="UTF-8" standalone="no"?>
<!DOCTYPE svg PUBLIC "-//W3C//DTD SVG 1.1//EN"
 "http://www.w3.org/Graphics/SVG/1.1/DTD/svg11.dtd">
<!-- Generated by graphviz version 2.43.0 (0)
 -->
<!-- Title: BindableLayer Pages: 1 -->
<svg width="356pt" height="263pt"
 viewBox="0.00 0.00 356.00 263.00" xmlns="http://www.w3.org/2000/svg" xmlns:xlink="http://www.w3.org/1999/xlink">
<g id="graph0" class="graph" transform="scale(1 1) rotate(0) translate(4 259)">
<title>BindableLayer</title>
<polygon fill="white" stroke="transparent" points="-4,4 -4,-259 352,-259 352,4 -4,4"/>
<!-- Node1 -->
<g id="node1" class="node">
<title>Node1</title>
<g id="a_node1"><a xlink:title=" ">
<polygon fill="#bfbfbf" stroke="black" points="138,-123.5 138,-142.5 224,-142.5 224,-123.5 138,-123.5"/>
<text text-anchor="middle" x="181" y="-130.5" font-family="Helvetica,sans-Serif" font-size="10.00">BindableLayer</text>
</a>
</g>
</g>
<!-- Node4 -->
<g id="node4" class="node">
<title>Node4</title>
<g id="a_node4"><a xlink:href="classarmnn_1_1_input_layer.html" target="_top" xlink:title="A layer user&#45;provided data can be bound to (e.g. inputs, outputs).">
<polygon fill="white" stroke="black" points="102,-67.5 102,-86.5 170,-86.5 170,-67.5 102,-67.5"/>
<text text-anchor="middle" x="136" y="-74.5" font-family="Helvetica,sans-Serif" font-size="10.00">InputLayer</text>
</a>
</g>
</g>
<!-- Node1&#45;&gt;Node4 -->
<g id="edge3" class="edge">
<title>Node1&#45;&gt;Node4</title>
<path fill="none" stroke="midnightblue" d="M166.95,-115.14C159.11,-105.74 149.67,-94.4 143.29,-86.75"/>
<polygon fill="midnightblue" stroke="midnightblue" points="164.48,-117.64 173.57,-123.08 169.86,-113.16 164.48,-117.64"/>
</g>
<!-- Node6 -->
<g id="node6" class="node">
<title>Node6</title>
<g id="a_node6"><a xlink:href="classarmnn_1_1_output_layer.html" target="_top" xlink:title="A layer user&#45;provided data can be bound to (e.g. inputs, outputs).">
<polygon fill="white" stroke="black" points="211.5,-67.5 211.5,-86.5 288.5,-86.5 288.5,-67.5 211.5,-67.5"/>
<text text-anchor="middle" x="250" y="-74.5" font-family="Helvetica,sans-Serif" font-size="10.00">OutputLayer</text>
</a>
</g>
</g>
<!-- Node1&#45;&gt;Node6 -->
<g id="edge5" class="edge">
<title>Node1&#45;&gt;Node6</title>
<path fill="none" stroke="midnightblue" d="M200.04,-117.1C212.46,-107.38 228.24,-95.03 238.71,-86.83"/>
<polygon fill="midnightblue" stroke="midnightblue" points="197.8,-114.4 192.09,-123.32 202.12,-119.92 197.8,-114.4"/>
</g>
<!-- Node2 -->
<g id="node2" class="node">
<title>Node2</title>
<g id="a_node2"><a xlink:href="classarmnn_1_1_layer.html" target="_top" xlink:title=" ">
<polygon fill="white" stroke="black" points="159,-179.5 159,-198.5 203,-198.5 203,-179.5 159,-179.5"/>
<text text-anchor="middle" x="181" y="-186.5" font-family="Helvetica,sans-Serif" font-size="10.00">Layer</text>
</a>
</g>
</g>
<!-- Node2&#45;&gt;Node1 -->
<g id="edge1" class="edge">
<title>Node2&#45;&gt;Node1</title>
<path fill="none" stroke="midnightblue" d="M181,-168.8C181,-159.91 181,-149.78 181,-142.75"/>
<polygon fill="midnightblue" stroke="midnightblue" points="177.5,-169.08 181,-179.08 184.5,-169.08 177.5,-169.08"/>
</g>
<!-- Node3 -->
<g id="node3" class="node">
<title>Node3</title>
<g id="a_node3"><a xlink:href="classarmnn_1_1_i_connectable_layer.html" target="_top" xlink:title="Interface for a layer that is connectable to other layers via InputSlots and OutputSlots.">
<polygon fill="white" stroke="black" points="127.5,-235.5 127.5,-254.5 234.5,-254.5 234.5,-235.5 127.5,-235.5"/>
<text text-anchor="middle" x="181" y="-242.5" font-family="Helvetica,sans-Serif" font-size="10.00">IConnectableLayer</text>
</a>
</g>
</g>
<!-- Node3&#45;&gt;Node2 -->
<g id="edge2" class="edge">
<title>Node3&#45;&gt;Node2</title>
<path fill="none" stroke="midnightblue" d="M181,-224.8C181,-215.91 181,-205.78 181,-198.75"/>
<polygon fill="midnightblue" stroke="midnightblue" points="177.5,-225.08 181,-235.08 184.5,-225.08 177.5,-225.08"/>
</g>
<!-- Node5 -->
<g id="node5" class="node">
<title>Node5</title>
<g id="a_node5"><a xlink:title=" ">
<polygon fill="white" stroke="#bfbfbf" points="0,-6 0,-25 180,-25 180,-6 0,-6"/>
<text text-anchor="middle" x="90" y="-13" font-family="Helvetica,sans-Serif" font-size="10.00">LayerInGraphBase&lt; InputLayer &gt;</text>
</a>
</g>
</g>
<!-- Node4&#45;&gt;Node5 -->
<g id="edge4" class="edge">
<title>Node4&#45;&gt;Node5</title>
<path fill="none" stroke="midnightblue" d="M123.12,-59.34C114.48,-48.17 103.47,-33.93 96.58,-25.01"/>
<polygon fill="midnightblue" stroke="midnightblue" points="120.52,-61.7 129.41,-67.48 126.06,-57.42 120.52,-61.7"/>
</g>
<!-- Node7 -->
<g id="node7" class="node">
<title>Node7</title>
<g id="a_node7"><a xlink:title=" ">
<polygon fill="white" stroke="#bfbfbf" points="198,-0.5 198,-30.5 348,-30.5 348,-0.5 198,-0.5"/>
<text text-anchor="start" x="206" y="-18.5" font-family="Helvetica,sans-Serif" font-size="10.00">LayerInGraphBase&lt; Output</text>
<text text-anchor="middle" x="273" y="-7.5" font-family="Helvetica,sans-Serif" font-size="10.00">Layer &gt;</text>
</a>
</g>
</g>
<!-- Node6&#45;&gt;Node7 -->
<g id="edge6" class="edge">
<title>Node6&#45;&gt;Node7</title>
<path fill="none" stroke="midnightblue" d="M256.92,-58.1C260.33,-49.27 264.39,-38.77 267.58,-30.52"/>
<polygon fill="midnightblue" stroke="midnightblue" points="253.64,-56.89 253.3,-67.48 260.17,-59.41 253.64,-56.89"/>
</g>
</g>
</svg>
