<?xml version="1.0" encoding="UTF-8" standalone="no"?>
<!DOCTYPE svg PUBLIC "-//W3C//DTD SVG 1.1//EN"
 "http://www.w3.org/Graphics/SVG/1.1/DTD/svg11.dtd">
<!-- Generated by graphviz version 2.43.0 (0)
 -->
<!-- Title: AddedLayerObservable Pages: 1 -->
<svg width="258pt" height="230pt"
 viewBox="0.00 0.00 258.00 230.00" xmlns="http://www.w3.org/2000/svg" xmlns:xlink="http://www.w3.org/1999/xlink">
<g id="graph0" class="graph" transform="scale(1 1) rotate(0) translate(4 226)">
<title>AddedLayerObservable</title>
<polygon fill="white" stroke="transparent" points="-4,4 -4,-226 254,-226 254,4 -4,4"/>
<!-- Node1 -->
<g id="node1" class="node">
<title>Node1</title>
<g id="a_node1"><a xlink:title=" ">
<polygon fill="#bfbfbf" stroke="black" points="14.5,-0.5 14.5,-19.5 144.5,-19.5 144.5,-0.5 14.5,-0.5"/>
<text text-anchor="middle" x="79.5" y="-7.5" font-family="Helvetica,sans-Serif" font-size="10.00">AddedLayerObservable</text>
</a>
</g>
</g>
<!-- Node2 -->
<g id="node2" class="node">
<title>Node2</title>
<g id="a_node2"><a xlink:href="classarmnn_1_1_graph_observable.html" target="_top" xlink:title=" ">
<polygon fill="white" stroke="black" points="0,-57.5 0,-76.5 159,-76.5 159,-57.5 0,-57.5"/>
<text text-anchor="middle" x="79.5" y="-64.5" font-family="Helvetica,sans-Serif" font-size="10.00">GraphObservable&lt; Layer * &gt;</text>
</a>
</g>
</g>
<!-- Node2&#45;&gt;Node1 -->
<g id="edge1" class="edge">
<title>Node2&#45;&gt;Node1</title>
<path fill="none" stroke="midnightblue" d="M79.5,-47.12C79.5,-37.82 79.5,-27.06 79.5,-19.71"/>
<polygon fill="midnightblue" stroke="midnightblue" points="76,-47.41 79.5,-57.41 83,-47.41 76,-47.41"/>
</g>
<!-- Node3 -->
<g id="node3" class="node">
<title>Node3</title>
<g id="a_node3"><a xlink:href="classarmnn_1_1_i_graph_observable.html" target="_top" xlink:title=" ">
<polygon fill="white" stroke="black" points="18.5,-202.5 18.5,-221.5 122.5,-221.5 122.5,-202.5 18.5,-202.5"/>
<text text-anchor="middle" x="70.5" y="-209.5" font-family="Helvetica,sans-Serif" font-size="10.00">IGraphObservable</text>
</a>
</g>
</g>
<!-- Node3&#45;&gt;Node2 -->
<g id="edge2" class="edge">
<title>Node3&#45;&gt;Node2</title>
<path fill="none" stroke="midnightblue" d="M71.69,-192.1C73.66,-160.77 77.53,-99.31 78.96,-76.65"/>
<polygon fill="midnightblue" stroke="midnightblue" points="68.17,-192.28 71.04,-202.48 75.16,-192.72 68.17,-192.28"/>
</g>
<!-- Node4 -->
<g id="node4" class="node">
<title>Node4</title>
<g id="a_node4"><a xlink:href="classarmnn_1_1_graph_observable.html" target="_top" xlink:title=" ">
<polygon fill="white" stroke="black" points="91,-124.5 91,-154.5 250,-154.5 250,-124.5 91,-124.5"/>
<text text-anchor="start" x="99" y="-142.5" font-family="Helvetica,sans-Serif" font-size="10.00">GraphObservable&lt; Observed</text>
<text text-anchor="middle" x="170.5" y="-131.5" font-family="Helvetica,sans-Serif" font-size="10.00">Type &gt;</text>
</a>
</g>
</g>
<!-- Node3&#45;&gt;Node4 -->
<g id="edge4" class="edge">
<title>Node3&#45;&gt;Node4</title>
<path fill="none" stroke="midnightblue" d="M91.12,-196.47C108.53,-184.19 133.31,-166.72 150.53,-154.58"/>
<polygon fill="midnightblue" stroke="midnightblue" points="88.92,-193.73 82.76,-202.36 92.95,-199.45 88.92,-193.73"/>
</g>
<!-- Node4&#45;&gt;Node2 -->
<g id="edge3" class="edge">
<title>Node4&#45;&gt;Node2</title>
<path fill="none" stroke="orange" stroke-dasharray="5,2" d="M143.84,-117.84C126.16,-104.15 103.88,-86.89 90.72,-76.69"/>
<polygon fill="orange" stroke="orange" points="142.04,-120.88 152.08,-124.23 146.32,-115.34 142.04,-120.88"/>
<text text-anchor="middle" x="158" y="-98" font-family="Helvetica,sans-Serif" font-size="10.00"> &lt; Layer * &gt;</text>
</g>
<!-- Node5 -->
<g id="node5" class="node">
<title>Node5</title>
<g id="a_node5"><a xlink:href="classarmnn_1_1_graph.html" target="_top" xlink:title=" ">
<polygon fill="white" stroke="black" points="147.5,-202.5 147.5,-221.5 193.5,-221.5 193.5,-202.5 147.5,-202.5"/>
<text text-anchor="middle" x="170.5" y="-209.5" font-family="Helvetica,sans-Serif" font-size="10.00">Graph</text>
</a>
</g>
</g>
<!-- Node5&#45;&gt;Node4 -->
<g id="edge5" class="edge">
<title>Node5&#45;&gt;Node4</title>
<path fill="none" stroke="#9a32cd" stroke-dasharray="5,2" d="M170.5,-192.24C170.5,-180.41 170.5,-165.38 170.5,-154.58"/>
<polygon fill="#9a32cd" stroke="#9a32cd" points="167,-192.36 170.5,-202.36 174,-192.36 167,-192.36"/>
<text text-anchor="middle" x="198" y="-176" font-family="Helvetica,sans-Serif" font-size="10.00"> m_Subject</text>
</g>
</g>
</svg>
