<?xml version="1.0" encoding="UTF-8" standalone="no"?>
<!DOCTYPE svg PUBLIC "-//W3C//DTD SVG 1.1//EN"
 "http://www.w3.org/Graphics/SVG/1.1/DTD/svg11.dtd">
<!-- Generated by graphviz version 2.43.0 (0)
 -->
<!-- Title: QSymm8PerAxisDecoder Pages: 1 -->
<svg width="309pt" height="309pt"
 viewBox="0.00 0.00 308.50 309.00" xmlns="http://www.w3.org/2000/svg" xmlns:xlink="http://www.w3.org/1999/xlink">
<g id="graph0" class="graph" transform="scale(1 1) rotate(0) translate(4 305)">
<title>QSymm8PerAxisDecoder</title>
<polygon fill="white" stroke="transparent" points="-4,4 -4,-305 304.5,-305 304.5,4 -4,4"/>
<!-- Node1 -->
<g id="node1" class="node">
<title>Node1</title>
<g id="a_node1"><a xlink:title=" ">
<polygon fill="#bfbfbf" stroke="black" points="74,-0.5 74,-19.5 213,-19.5 213,-0.5 74,-0.5"/>
<text text-anchor="middle" x="143.5" y="-7.5" font-family="Helvetica,sans-Serif" font-size="10.00">QSymm8PerAxisDecoder</text>
</a>
</g>
</g>
<!-- Node2 -->
<g id="node2" class="node">
<title>Node2</title>
<g id="a_node2"><a xlink:href="classarmnn_1_1_per_axis_iterator.html" target="_top" xlink:title=" ">
<polygon fill="white" stroke="black" points="69,-57.5 69,-87.5 218,-87.5 218,-57.5 69,-57.5"/>
<text text-anchor="start" x="77" y="-75.5" font-family="Helvetica,sans-Serif" font-size="10.00">PerAxisIterator&lt; const</text>
<text text-anchor="middle" x="143.5" y="-64.5" font-family="Helvetica,sans-Serif" font-size="10.00"> int8_t, Decoder&lt; float &gt; &gt;</text>
</a>
</g>
</g>
<!-- Node2&#45;&gt;Node1 -->
<g id="edge1" class="edge">
<title>Node2&#45;&gt;Node1</title>
<path fill="none" stroke="midnightblue" d="M143.5,-47.35C143.5,-37.51 143.5,-26.78 143.5,-19.54"/>
<polygon fill="midnightblue" stroke="midnightblue" points="140,-47.47 143.5,-57.47 147,-47.47 140,-47.47"/>
</g>
<!-- Node3 -->
<g id="node3" class="node">
<title>Node3</title>
<g id="a_node3"><a xlink:href="classarmnn_1_1_decoder.html" target="_top" xlink:title=" ">
<polygon fill="white" stroke="black" points="32,-152 32,-171 133,-171 133,-152 32,-152"/>
<text text-anchor="middle" x="82.5" y="-159" font-family="Helvetica,sans-Serif" font-size="10.00">Decoder&lt; float &gt;</text>
</a>
</g>
</g>
<!-- Node3&#45;&gt;Node2 -->
<g id="edge2" class="edge">
<title>Node3&#45;&gt;Node2</title>
<path fill="none" stroke="midnightblue" d="M94.58,-143.27C106.03,-126.95 123,-102.73 133.65,-87.55"/>
<polygon fill="midnightblue" stroke="midnightblue" points="91.45,-141.64 88.57,-151.84 97.18,-145.66 91.45,-141.64"/>
</g>
<!-- Node4 -->
<g id="node4" class="node">
<title>Node4</title>
<g id="a_node4"><a xlink:href="classarmnn_1_1_base_iterator.html" target="_top" xlink:title=" ">
<polygon fill="white" stroke="black" points="0,-281.5 0,-300.5 77,-300.5 77,-281.5 0,-281.5"/>
<text text-anchor="middle" x="38.5" y="-288.5" font-family="Helvetica,sans-Serif" font-size="10.00">BaseIterator</text>
</a>
</g>
</g>
<!-- Node4&#45;&gt;Node3 -->
<g id="edge3" class="edge">
<title>Node4&#45;&gt;Node3</title>
<path fill="none" stroke="midnightblue" d="M38.36,-270.82C38.78,-257.39 40.4,-239.21 45.5,-224 52.4,-203.44 67.01,-182.42 75.67,-171.06"/>
<polygon fill="midnightblue" stroke="midnightblue" points="34.85,-271.16 38.24,-281.2 41.85,-271.24 34.85,-271.16"/>
</g>
<!-- Node5 -->
<g id="node5" class="node">
<title>Node5</title>
<g id="a_node5"><a xlink:href="classarmnn_1_1_decoder.html" target="_top" xlink:title=" ">
<polygon fill="white" stroke="black" points="55,-224.5 55,-243.5 160,-243.5 160,-224.5 55,-224.5"/>
<text text-anchor="middle" x="107.5" y="-231.5" font-family="Helvetica,sans-Serif" font-size="10.00">Decoder&lt; IType &gt;</text>
</a>
</g>
</g>
<!-- Node4&#45;&gt;Node5 -->
<g id="edge5" class="edge">
<title>Node4&#45;&gt;Node5</title>
<path fill="none" stroke="midnightblue" d="M57.32,-275C69.91,-264.96 86.04,-252.1 96.57,-243.71"/>
<polygon fill="midnightblue" stroke="midnightblue" points="54.92,-272.44 49.28,-281.41 59.28,-277.91 54.92,-272.44"/>
</g>
<!-- Node5&#45;&gt;Node3 -->
<g id="edge4" class="edge">
<title>Node5&#45;&gt;Node3</title>
<path fill="none" stroke="orange" stroke-dasharray="5,2" d="M101.04,-214.77C96.07,-200.76 89.43,-182.03 85.59,-171.22"/>
<polygon fill="orange" stroke="orange" points="97.79,-216.1 104.43,-224.36 104.39,-213.76 97.79,-216.1"/>
<text text-anchor="middle" x="121.5" y="-198" font-family="Helvetica,sans-Serif" font-size="10.00"> &lt; float &gt;</text>
</g>
<!-- Node6 -->
<g id="node6" class="node">
<title>Node6</title>
<g id="a_node6"><a xlink:href="classarmnn_1_1_per_axis_iterator.html" target="_top" xlink:title="PerAxisIterator for per&#45;axis quantization.">
<polygon fill="white" stroke="black" points="151.5,-146.5 151.5,-176.5 261.5,-176.5 261.5,-146.5 151.5,-146.5"/>
<text text-anchor="start" x="159.5" y="-164.5" font-family="Helvetica,sans-Serif" font-size="10.00">PerAxisIterator&lt; T,</text>
<text text-anchor="middle" x="206.5" y="-153.5" font-family="Helvetica,sans-Serif" font-size="10.00"> Base &gt;</text>
</a>
</g>
</g>
<!-- Node6&#45;&gt;Node2 -->
<g id="edge6" class="edge">
<title>Node6&#45;&gt;Node2</title>
<path fill="none" stroke="orange" stroke-dasharray="5,2" d="M190.12,-137.88C178.6,-121.97 163.55,-101.19 153.71,-87.6"/>
<polygon fill="orange" stroke="orange" points="187.4,-140.09 196.1,-146.13 193.07,-135.98 187.4,-140.09"/>
<text text-anchor="start" x="182.5" y="-120" font-family="Helvetica,sans-Serif" font-size="10.00"> &lt; const int8_t, Decoder</text>
<text text-anchor="middle" x="241.5" y="-109" font-family="Helvetica,sans-Serif" font-size="10.00">&lt; float &gt; &gt;</text>
</g>
<!-- Node7 -->
<g id="node7" class="node">
<title>Node7</title>
<g id="a_node7"><a xlink:title=" ">
<polygon fill="white" stroke="#bfbfbf" points="186,-224.5 186,-243.5 227,-243.5 227,-224.5 186,-224.5"/>
<text text-anchor="middle" x="206.5" y="-231.5" font-family="Helvetica,sans-Serif" font-size="10.00">Base</text>
</a>
</g>
</g>
<!-- Node7&#45;&gt;Node6 -->
<g id="edge7" class="edge">
<title>Node7&#45;&gt;Node6</title>
<path fill="none" stroke="midnightblue" d="M206.5,-214.24C206.5,-202.41 206.5,-187.38 206.5,-176.58"/>
<polygon fill="midnightblue" stroke="midnightblue" points="203,-214.36 206.5,-224.36 210,-214.36 203,-214.36"/>
</g>
</g>
</svg>
