<?xml version="1.0" encoding="UTF-8" standalone="no"?>
<!DOCTYPE svg PUBLIC "-//W3C//DTD SVG 1.1//EN"
 "http://www.w3.org/Graphics/SVG/1.1/DTD/svg11.dtd">
<!-- Generated by graphviz version 2.43.0 (0)
 -->
<!-- Title: ClConvertFp16ToFp32Workload Pages: 1 -->
<svg width="226pt" height="220pt"
 viewBox="0.00 0.00 226.00 220.00" xmlns="http://www.w3.org/2000/svg" xmlns:xlink="http://www.w3.org/1999/xlink">
<g id="graph0" class="graph" transform="scale(1 1) rotate(0) translate(4 216)">
<title>ClConvertFp16ToFp32Workload</title>
<polygon fill="white" stroke="transparent" points="-4,4 -4,-216 222,-216 222,4 -4,4"/>
<!-- Node1 -->
<g id="node1" class="node">
<title>Node1</title>
<g id="a_node1"><a xlink:title=" ">
<polygon fill="#bfbfbf" stroke="black" points="24.5,-0.5 24.5,-19.5 193.5,-19.5 193.5,-0.5 24.5,-0.5"/>
<text text-anchor="middle" x="109" y="-7.5" font-family="Helvetica,sans-Serif" font-size="10.00">ClConvertFp16ToFp32Workload</text>
</a>
</g>
</g>
<!-- Node2 -->
<g id="node2" class="node">
<title>Node2</title>
<g id="a_node2"><a xlink:href="classarmnn_1_1_multi_typed_workload.html" target="_top" xlink:title=" ">
<polygon fill="white" stroke="black" points="0,-57.5 0,-87.5 218,-87.5 218,-57.5 0,-57.5"/>
<text text-anchor="start" x="8" y="-75.5" font-family="Helvetica,sans-Serif" font-size="10.00">Float16ToFloat32Workload</text>
<text text-anchor="middle" x="109" y="-64.5" font-family="Helvetica,sans-Serif" font-size="10.00">&lt; ConvertFp16ToFp32QueueDescriptor &gt;</text>
</a>
</g>
</g>
<!-- Node2&#45;&gt;Node1 -->
<g id="edge1" class="edge">
<title>Node2&#45;&gt;Node1</title>
<path fill="none" stroke="midnightblue" d="M109,-47.35C109,-37.51 109,-26.78 109,-19.54"/>
<polygon fill="midnightblue" stroke="midnightblue" points="105.5,-47.47 109,-57.47 112.5,-47.47 105.5,-47.47"/>
</g>
<!-- Node3 -->
<g id="node3" class="node">
<title>Node3</title>
<g id="a_node3"><a xlink:href="classarmnn_1_1_base_workload.html" target="_top" xlink:title=" ">
<polygon fill="white" stroke="black" points="13.5,-125.5 13.5,-144.5 204.5,-144.5 204.5,-125.5 13.5,-125.5"/>
<text text-anchor="middle" x="109" y="-132.5" font-family="Helvetica,sans-Serif" font-size="10.00">BaseWorkload&lt; QueueDescriptor &gt;</text>
</a>
</g>
</g>
<!-- Node3&#45;&gt;Node2 -->
<g id="edge2" class="edge">
<title>Node3&#45;&gt;Node2</title>
<path fill="none" stroke="midnightblue" d="M109,-115.22C109,-106.36 109,-95.96 109,-87.76"/>
<polygon fill="midnightblue" stroke="midnightblue" points="105.5,-115.33 109,-125.33 112.5,-115.33 105.5,-115.33"/>
</g>
<!-- Node4 -->
<g id="node4" class="node">
<title>Node4</title>
<g id="a_node4"><a xlink:href="classarmnn_1_1_i_workload.html" target="_top" xlink:title="Workload interface to enqueue a layer computation.">
<polygon fill="white" stroke="black" points="26.5,-192.5 26.5,-211.5 91.5,-211.5 91.5,-192.5 26.5,-192.5"/>
<text text-anchor="middle" x="59" y="-199.5" font-family="Helvetica,sans-Serif" font-size="10.00">IWorkload</text>
</a>
</g>
</g>
<!-- Node4&#45;&gt;Node3 -->
<g id="edge3" class="edge">
<title>Node4&#45;&gt;Node3</title>
<path fill="none" stroke="midnightblue" d="M71.87,-184.27C81.62,-171.6 94.61,-154.7 102.36,-144.63"/>
<polygon fill="midnightblue" stroke="midnightblue" points="69.07,-182.17 65.74,-192.23 74.61,-186.44 69.07,-182.17"/>
</g>
<!-- Node5 -->
<g id="node5" class="node">
<title>Node5</title>
<g id="a_node5"><a xlink:href="structarmnn_1_1_queue_descriptor.html" target="_top" xlink:title=" ">
<polygon fill="white" stroke="black" points="110,-192.5 110,-211.5 208,-211.5 208,-192.5 110,-192.5"/>
<text text-anchor="middle" x="159" y="-199.5" font-family="Helvetica,sans-Serif" font-size="10.00">QueueDescriptor</text>
</a>
</g>
</g>
<!-- Node5&#45;&gt;Node3 -->
<g id="edge4" class="edge">
<title>Node5&#45;&gt;Node3</title>
<path fill="none" stroke="#9a32cd" stroke-dasharray="5,2" d="M146.13,-184.27C136.38,-171.6 123.39,-154.7 115.64,-144.63"/>
<polygon fill="#9a32cd" stroke="#9a32cd" points="143.39,-186.44 152.26,-192.23 148.93,-182.17 143.39,-186.44"/>
<text text-anchor="middle" x="157" y="-166" font-family="Helvetica,sans-Serif" font-size="10.00"> m_Data</text>
</g>
</g>
</svg>
