<?xml version="1.0" encoding="UTF-8" standalone="no"?>
<!DOCTYPE svg PUBLIC "-//W3C//DTD SVG 1.1//EN"
 "http://www.w3.org/Graphics/SVG/1.1/DTD/svg11.dtd">
<!-- Generated by graphviz version 2.43.0 (0)
 -->
<!-- Title: GraphObservable&lt; ObservedType &gt; Pages: 1 -->
<svg width="337pt" height="231pt"
 viewBox="0.00 0.00 337.00 231.00" xmlns="http://www.w3.org/2000/svg" xmlns:xlink="http://www.w3.org/1999/xlink">
<g id="graph0" class="graph" transform="scale(1 1) rotate(0) translate(4 227)">
<title>GraphObservable&lt; ObservedType &gt;</title>
<polygon fill="white" stroke="transparent" points="-4,4 -4,-227 333,-227 333,4 -4,4"/>
<!-- Node1 -->
<g id="node1" class="node">
<title>Node1</title>
<g id="a_node1"><a xlink:title=" ">
<polygon fill="#bfbfbf" stroke="black" points="87,-135.5 87,-165.5 246,-165.5 246,-135.5 87,-135.5"/>
<text text-anchor="start" x="95" y="-153.5" font-family="Helvetica,sans-Serif" font-size="10.00">GraphObservable&lt; Observed</text>
<text text-anchor="middle" x="166.5" y="-142.5" font-family="Helvetica,sans-Serif" font-size="10.00">Type &gt;</text>
</a>
</g>
</g>
<!-- Node3 -->
<g id="node3" class="node">
<title>Node3</title>
<g id="a_node3"><a xlink:href="classarmnn_1_1_graph_observable.html" target="_top" xlink:title=" ">
<polygon fill="white" stroke="black" points="21.5,-57.5 21.5,-87.5 149.5,-87.5 149.5,-57.5 21.5,-57.5"/>
<text text-anchor="start" x="29.5" y="-75.5" font-family="Helvetica,sans-Serif" font-size="10.00">GraphObservable&lt; std</text>
<text text-anchor="middle" x="85.5" y="-64.5" font-family="Helvetica,sans-Serif" font-size="10.00">::string &gt;</text>
</a>
</g>
</g>
<!-- Node1&#45;&gt;Node3 -->
<g id="edge2" class="edge">
<title>Node1&#45;&gt;Node3</title>
<path fill="none" stroke="orange" stroke-dasharray="5,2" d="M143.62,-128.03C129.87,-115.13 112.75,-99.07 100.67,-87.73"/>
<polygon fill="orange" stroke="orange" points="141.58,-130.91 151.26,-135.2 146.37,-125.81 141.58,-130.91"/>
<text text-anchor="middle" x="169" y="-109" font-family="Helvetica,sans-Serif" font-size="10.00"> &lt; std::string &gt;</text>
</g>
<!-- Node5 -->
<g id="node5" class="node">
<title>Node5</title>
<g id="a_node5"><a xlink:href="classarmnn_1_1_graph_observable.html" target="_top" xlink:title=" ">
<polygon fill="white" stroke="black" points="170,-63 170,-82 329,-82 329,-63 170,-63"/>
<text text-anchor="middle" x="249.5" y="-70" font-family="Helvetica,sans-Serif" font-size="10.00">GraphObservable&lt; Layer * &gt;</text>
</a>
</g>
</g>
<!-- Node1&#45;&gt;Node5 -->
<g id="edge4" class="edge">
<title>Node1&#45;&gt;Node5</title>
<path fill="none" stroke="orange" stroke-dasharray="5,2" d="M195.72,-129.22C200.8,-125.34 205.91,-121.18 210.5,-117 222.66,-105.94 235.04,-91.46 242.5,-82.32"/>
<polygon fill="orange" stroke="orange" points="193.28,-126.67 187.33,-135.44 197.45,-132.3 193.28,-126.67"/>
<text text-anchor="middle" x="251" y="-109" font-family="Helvetica,sans-Serif" font-size="10.00"> &lt; Layer * &gt;</text>
</g>
<!-- Node2 -->
<g id="node2" class="node">
<title>Node2</title>
<g id="a_node2"><a xlink:href="classarmnn_1_1_i_graph_observable.html" target="_top" xlink:title=" ">
<polygon fill="white" stroke="black" points="114.5,-203.5 114.5,-222.5 218.5,-222.5 218.5,-203.5 114.5,-203.5"/>
<text text-anchor="middle" x="166.5" y="-210.5" font-family="Helvetica,sans-Serif" font-size="10.00">IGraphObservable</text>
</a>
</g>
</g>
<!-- Node2&#45;&gt;Node1 -->
<g id="edge1" class="edge">
<title>Node2&#45;&gt;Node1</title>
<path fill="none" stroke="midnightblue" d="M166.5,-193.22C166.5,-184.36 166.5,-173.96 166.5,-165.76"/>
<polygon fill="midnightblue" stroke="midnightblue" points="163,-193.33 166.5,-203.33 170,-193.33 163,-193.33"/>
</g>
<!-- Node4 -->
<g id="node4" class="node">
<title>Node4</title>
<g id="a_node4"><a xlink:href="classarmnn_1_1_erased_layer_names_observable.html" target="_top" xlink:title=" ">
<polygon fill="white" stroke="black" points="0,-0.5 0,-19.5 167,-19.5 167,-0.5 0,-0.5"/>
<text text-anchor="middle" x="83.5" y="-7.5" font-family="Helvetica,sans-Serif" font-size="10.00">ErasedLayerNamesObservable</text>
</a>
</g>
</g>
<!-- Node3&#45;&gt;Node4 -->
<g id="edge3" class="edge">
<title>Node3&#45;&gt;Node4</title>
<path fill="none" stroke="midnightblue" d="M84.7,-47.35C84.38,-37.51 84.02,-26.78 83.78,-19.54"/>
<polygon fill="midnightblue" stroke="midnightblue" points="81.21,-47.59 85.04,-57.47 88.2,-47.36 81.21,-47.59"/>
</g>
<!-- Node6 -->
<g id="node6" class="node">
<title>Node6</title>
<g id="a_node6"><a xlink:href="classarmnn_1_1_added_layer_observable.html" target="_top" xlink:title=" ">
<polygon fill="white" stroke="black" points="185.5,-0.5 185.5,-19.5 315.5,-19.5 315.5,-0.5 185.5,-0.5"/>
<text text-anchor="middle" x="250.5" y="-7.5" font-family="Helvetica,sans-Serif" font-size="10.00">AddedLayerObservable</text>
</a>
</g>
</g>
<!-- Node5&#45;&gt;Node6 -->
<g id="edge5" class="edge">
<title>Node5&#45;&gt;Node6</title>
<path fill="none" stroke="midnightblue" d="M249.81,-52.5C250,-41.5 250.22,-28.18 250.36,-19.65"/>
<polygon fill="midnightblue" stroke="midnightblue" points="246.31,-52.78 249.64,-62.83 253.31,-52.89 246.31,-52.78"/>
</g>
</g>
</svg>
