<?xml version="1.0" encoding="UTF-8" standalone="no"?>
<!DOCTYPE svg PUBLIC "-//W3C//DTD SVG 1.1//EN"
 "http://www.w3.org/Graphics/SVG/1.1/DTD/svg11.dtd">
<!-- Generated by graphviz version 2.43.0 (0)
 -->
<!-- Title: src/backends Pages: 1 -->
<svg width="718pt" height="319pt"
 viewBox="0.00 0.00 717.98 319.00" xmlns="http://www.w3.org/2000/svg" xmlns:xlink="http://www.w3.org/1999/xlink">
<g id="graph0" class="graph" transform="scale(1 1) rotate(0) translate(4 315)">
<title>src/backends</title>
<polygon fill="white" stroke="transparent" points="-4,4 -4,-315 713.98,-315 713.98,4 -4,4"/>
<g id="clust1" class="cluster">
<title>clusterdir_68267d1309a1af8e8297ef4c3efbcdba</title>
<g id="a_clust1"><a xlink:href="dir_68267d1309a1af8e8297ef4c3efbcdba.html" target="_top" xlink:title="src">
<polygon fill="#ddddee" stroke="black" points="8,-8 8,-303 500,-303 500,-8 8,-8"/>
<text text-anchor="middle" x="254" y="-291" font-family="Helvetica,sans-Serif" font-size="10.00">src</text>
</a>
</g>
</g>
<g id="clust2" class="cluster">
<title>clusterdir_0f3cdec46afbc61a1ded8e1687c9c9a0</title>
<g id="a_clust2"><a xlink:href="dir_0f3cdec46afbc61a1ded8e1687c9c9a0.html" target="_top">
<polygon fill="#eeeeff" stroke="black" points="48,-80 48,-276 412,-276 412,-80 48,-80"/>
</a>
</g>
</g>
<!-- dir_5d9c764a006d252ff232a5efbbd99a46 -->
<g id="node1" class="node">
<title>dir_5d9c764a006d252ff232a5efbbd99a46</title>
<g id="a_node1"><a xlink:href="dir_5d9c764a006d252ff232a5efbbd99a46.html" target="_top" xlink:title="armnnUtils">
<polygon fill="none" stroke="black" points="491.5,-124 420.5,-124 420.5,-88 491.5,-88 491.5,-124"/>
<text text-anchor="middle" x="456" y="-103.5" font-family="Helvetica,sans-Serif" font-size="10.00">armnnUtils</text>
</a>
</g>
</g>
<!-- dir_e0a84d05c80a2ef4231141dcbbeac5c8 -->
<g id="node2" class="node">
<title>dir_e0a84d05c80a2ef4231141dcbbeac5c8</title>
<g id="a_node2"><a xlink:href="dir_e0a84d05c80a2ef4231141dcbbeac5c8.html" target="_top" xlink:title="armnn">
<polygon fill="white" stroke="red" points="265,-52 211,-52 211,-16 265,-16 265,-52"/>
<text text-anchor="middle" x="238" y="-31.5" font-family="Helvetica,sans-Serif" font-size="10.00">armnn</text>
</a>
</g>
</g>
<!-- dir_5d9c764a006d252ff232a5efbbd99a46&#45;&gt;dir_e0a84d05c80a2ef4231141dcbbeac5c8 -->
<g id="edge23" class="edge">
<title>dir_5d9c764a006d252ff232a5efbbd99a46&#45;&gt;dir_e0a84d05c80a2ef4231141dcbbeac5c8</title>
<path fill="none" stroke="black" d="M422.42,-87.89C417.35,-84.97 412.12,-82.18 407,-80 363.42,-61.42 310.45,-49.24 275.44,-42.3"/>
<polygon fill="black" stroke="black" points="275.66,-38.78 265.18,-40.31 274.33,-45.65 275.66,-38.78"/>
<g id="a_edge23&#45;headlabel"><a xlink:href="dir_000028_000020.html" target="_top" xlink:title="1">
<text text-anchor="middle" x="279.73" y="-34.18" font-family="Helvetica,sans-Serif" font-size="10.00">1</text>
</a>
</g>
</g>
<!-- dir_d44c64559bbebec7f509842c48db8b23 -->
<g id="node12" class="node">
<title>dir_d44c64559bbebec7f509842c48db8b23</title>
<g id="a_node12"><a xlink:href="dir_d44c64559bbebec7f509842c48db8b23.html" target="_top" xlink:title="include">
<polygon fill="white" stroke="red" points="573,-52 519,-52 519,-16 573,-16 573,-52"/>
<text text-anchor="middle" x="546" y="-31.5" font-family="Helvetica,sans-Serif" font-size="10.00">include</text>
</a>
</g>
</g>
<!-- dir_5d9c764a006d252ff232a5efbbd99a46&#45;&gt;dir_d44c64559bbebec7f509842c48db8b23 -->
<g id="edge22" class="edge">
<title>dir_5d9c764a006d252ff232a5efbbd99a46&#45;&gt;dir_d44c64559bbebec7f509842c48db8b23</title>
<path fill="none" stroke="black" d="M472.33,-87.7C483.01,-78.66 497.22,-67.5 510.36,-57.77"/>
<polygon fill="black" stroke="black" points="512.77,-60.34 518.78,-51.62 508.64,-54.69 512.77,-60.34"/>
<g id="a_edge22&#45;headlabel"><a xlink:href="dir_000028_000008.html" target="_top" xlink:title="34">
<text text-anchor="middle" x="511.54" y="-62.25" font-family="Helvetica,sans-Serif" font-size="10.00">34</text>
</a>
</g>
</g>
<!-- dir_e0a84d05c80a2ef4231141dcbbeac5c8&#45;&gt;dir_5d9c764a006d252ff232a5efbbd99a46 -->
<g id="edge25" class="edge">
<title>dir_e0a84d05c80a2ef4231141dcbbeac5c8&#45;&gt;dir_5d9c764a006d252ff232a5efbbd99a46</title>
<path fill="none" stroke="black" d="M265.18,-38.22C302.7,-43.81 371.05,-56.99 425,-80 427.08,-80.89 429.18,-81.87 431.25,-82.93"/>
<polygon fill="black" stroke="black" points="429.65,-86.04 440.09,-87.89 433.08,-79.94 429.65,-86.04"/>
<g id="a_edge25&#45;headlabel"><a xlink:href="dir_000020_000028.html" target="_top" xlink:title="6">
<text text-anchor="middle" x="425.13" y="-84.26" font-family="Helvetica,sans-Serif" font-size="10.00">6</text>
</a>
</g>
</g>
<!-- dir_0f3cdec46afbc61a1ded8e1687c9c9a0 -->
<g id="node3" class="node">
<title>dir_0f3cdec46afbc61a1ded8e1687c9c9a0</title>
<text text-anchor="middle" x="87" y="-247.5" font-family="Helvetica,sans-Serif" font-size="10.00">backends</text>
</g>
<!-- dir_e0a84d05c80a2ef4231141dcbbeac5c8&#45;&gt;dir_0f3cdec46afbc61a1ded8e1687c9c9a0 -->
<g id="edge24" class="edge">
<title>dir_e0a84d05c80a2ef4231141dcbbeac5c8&#45;&gt;dir_0f3cdec46afbc61a1ded8e1687c9c9a0</title>
<path fill="none" stroke="black" d="M210.89,-35.21C174.74,-36.92 110.68,-45.1 71,-80 30.75,-115.4 18.46,-146.09 38,-196 42.2,-206.72 49.69,-216.57 57.58,-224.8"/>
<polygon fill="black" stroke="black" points="55.24,-227.41 64.85,-231.87 60.12,-222.39 55.24,-227.41"/>
<g id="a_edge24&#45;headlabel"><a xlink:href="dir_000020_000029.html" target="_top" xlink:title="15">
<text text-anchor="middle" x="50.68" y="-224.43" font-family="Helvetica,sans-Serif" font-size="10.00">15</text>
</a>
</g>
</g>
<!-- dir_797a213d7d01b98ef12d53b0820ea64e -->
<g id="node5" class="node">
<title>dir_797a213d7d01b98ef12d53b0820ea64e</title>
<g id="a_node5"><a xlink:href="dir_797a213d7d01b98ef12d53b0820ea64e.html" target="_top" xlink:title="backendsCommon">
<polygon fill="white" stroke="red" points="374.5,-124 267.5,-124 267.5,-88 374.5,-88 374.5,-124"/>
<text text-anchor="middle" x="321" y="-103.5" font-family="Helvetica,sans-Serif" font-size="10.00">backendsCommon</text>
</a>
</g>
</g>
<!-- dir_e0a84d05c80a2ef4231141dcbbeac5c8&#45;&gt;dir_797a213d7d01b98ef12d53b0820ea64e -->
<g id="edge26" class="edge">
<title>dir_e0a84d05c80a2ef4231141dcbbeac5c8&#45;&gt;dir_797a213d7d01b98ef12d53b0820ea64e</title>
<path fill="none" stroke="black" d="M264.18,-52.1C275.3,-60.72 288.05,-71.32 298.71,-80.76"/>
<polygon fill="black" stroke="black" points="296.63,-83.59 306.4,-87.7 301.32,-78.4 296.63,-83.59"/>
<g id="a_edge26&#45;headlabel"><a xlink:href="dir_000020_000031.html" target="_top" xlink:title="15">
<text text-anchor="middle" x="292.06" y="-80.79" font-family="Helvetica,sans-Serif" font-size="10.00">15</text>
</a>
</g>
</g>
<!-- dir_e0a84d05c80a2ef4231141dcbbeac5c8&#45;&gt;dir_d44c64559bbebec7f509842c48db8b23 -->
<g id="edge27" class="edge">
<title>dir_e0a84d05c80a2ef4231141dcbbeac5c8&#45;&gt;dir_d44c64559bbebec7f509842c48db8b23</title>
<path fill="none" stroke="black" d="M265.07,-34C346.19,-34 427.31,-34 508.43,-34"/>
<polygon fill="black" stroke="black" points="508.84,-37.5 518.84,-34 508.84,-30.5 508.84,-37.5"/>
<g id="a_edge27&#45;headlabel"><a xlink:href="dir_000020_000008.html" target="_top" xlink:title="431">
<text text-anchor="middle" x="505.25" y="-37.84" font-family="Helvetica,sans-Serif" font-size="10.00">431</text>
</a>
</g>
</g>
<!-- dir_c13beb47b846b3a63741c705c772cf8d -->
<g id="node4" class="node">
<title>dir_c13beb47b846b3a63741c705c772cf8d</title>
<g id="a_node4"><a xlink:href="dir_c13beb47b846b3a63741c705c772cf8d.html" target="_top" xlink:title="aclCommon">
<polygon fill="white" stroke="black" points="404.5,-268 329.5,-268 329.5,-232 404.5,-232 404.5,-268"/>
<text text-anchor="middle" x="367" y="-247.5" font-family="Helvetica,sans-Serif" font-size="10.00">aclCommon</text>
</a>
</g>
</g>
<!-- dir_c13beb47b846b3a63741c705c772cf8d&#45;&gt;dir_5d9c764a006d252ff232a5efbbd99a46 -->
<g id="edge2" class="edge">
<title>dir_c13beb47b846b3a63741c705c772cf8d&#45;&gt;dir_5d9c764a006d252ff232a5efbbd99a46</title>
<path fill="none" stroke="black" d="M384.01,-231.8C393.28,-221.86 404.56,-208.82 413,-196 426.06,-176.17 437.57,-151.77 445.38,-133.54"/>
<polygon fill="black" stroke="black" points="448.69,-134.69 449.33,-124.12 442.24,-131.99 448.69,-134.69"/>
<g id="a_edge2&#45;headlabel"><a xlink:href="dir_000030_000028.html" target="_top" xlink:title="1">
<text text-anchor="middle" x="449.92" y="-136.6" font-family="Helvetica,sans-Serif" font-size="10.00">1</text>
</a>
</g>
</g>
<!-- dir_c13beb47b846b3a63741c705c772cf8d&#45;&gt;dir_797a213d7d01b98ef12d53b0820ea64e -->
<g id="edge3" class="edge">
<title>dir_c13beb47b846b3a63741c705c772cf8d&#45;&gt;dir_797a213d7d01b98ef12d53b0820ea64e</title>
<path fill="none" stroke="black" d="M329.5,-239.18C307.72,-231.34 282.07,-217.93 269,-196 260.81,-182.26 262.95,-174.81 269,-160 273.49,-149.02 281.47,-139.08 289.85,-130.86"/>
<polygon fill="black" stroke="black" points="292.24,-133.42 297.25,-124.09 287.51,-128.26 292.24,-133.42"/>
<g id="a_edge3&#45;headlabel"><a xlink:href="dir_000030_000031.html" target="_top" xlink:title="1">
<text text-anchor="middle" x="291.5" y="-135.45" font-family="Helvetica,sans-Serif" font-size="10.00">1</text>
</a>
</g>
</g>
<!-- dir_1ad86c6d39ab715a831555571b9e98a5 -->
<g id="node6" class="node">
<title>dir_1ad86c6d39ab715a831555571b9e98a5</title>
<g id="a_node6"><a xlink:href="dir_1ad86c6d39ab715a831555571b9e98a5.html" target="_top" xlink:title="cl">
<polygon fill="white" stroke="red" points="332,-196 278,-196 278,-160 332,-160 332,-196"/>
<text text-anchor="middle" x="305" y="-175.5" font-family="Helvetica,sans-Serif" font-size="10.00">cl</text>
</a>
</g>
</g>
<!-- dir_c13beb47b846b3a63741c705c772cf8d&#45;&gt;dir_1ad86c6d39ab715a831555571b9e98a5 -->
<g id="edge1" class="edge">
<title>dir_c13beb47b846b3a63741c705c772cf8d&#45;&gt;dir_1ad86c6d39ab715a831555571b9e98a5</title>
<path fill="none" stroke="black" d="M345.76,-231.7C337.54,-223.39 328.39,-213.28 320.76,-204.14"/>
<polygon fill="black" stroke="black" points="323.27,-201.67 314.25,-196.1 317.83,-206.08 323.27,-201.67"/>
<g id="a_edge1&#45;headlabel"><a xlink:href="dir_000030_000034.html" target="_top" xlink:title="1">
<text text-anchor="middle" x="327.74" y="-200.18" font-family="Helvetica,sans-Serif" font-size="10.00">1</text>
</a>
</g>
</g>
<!-- dir_d86eb514662c7c08e168285f21d00ea1 -->
<g id="node8" class="node">
<title>dir_d86eb514662c7c08e168285f21d00ea1</title>
<g id="a_node8"><a xlink:href="dir_d86eb514662c7c08e168285f21d00ea1.html" target="_top" xlink:title="neon">
<polygon fill="white" stroke="red" points="404,-196 350,-196 350,-160 404,-160 404,-196"/>
<text text-anchor="middle" x="377" y="-175.5" font-family="Helvetica,sans-Serif" font-size="10.00">neon</text>
</a>
</g>
</g>
<!-- dir_c13beb47b846b3a63741c705c772cf8d&#45;&gt;dir_d86eb514662c7c08e168285f21d00ea1 -->
<g id="edge5" class="edge">
<title>dir_c13beb47b846b3a63741c705c772cf8d&#45;&gt;dir_d86eb514662c7c08e168285f21d00ea1</title>
<path fill="none" stroke="black" d="M363.56,-231.7C363.86,-223.98 364.96,-214.71 366.53,-206.11"/>
<polygon fill="black" stroke="black" points="370,-206.61 368.66,-196.1 363.16,-205.16 370,-206.61"/>
<g id="a_edge5&#45;headlabel"><a xlink:href="dir_000030_000038.html" target="_top" xlink:title="1">
<text text-anchor="middle" x="372.03" y="-208.22" font-family="Helvetica,sans-Serif" font-size="10.00">1</text>
</a>
</g>
</g>
<!-- dir_c13beb47b846b3a63741c705c772cf8d&#45;&gt;dir_d44c64559bbebec7f509842c48db8b23 -->
<g id="edge4" class="edge">
<title>dir_c13beb47b846b3a63741c705c772cf8d&#45;&gt;dir_d44c64559bbebec7f509842c48db8b23</title>
<path fill="none" stroke="black" d="M404.62,-248.57C481.04,-246.81 650.29,-238.13 686,-196 719.33,-156.67 716.37,-121.66 686,-80 662.73,-48.07 616.43,-38.3 583.45,-35.57"/>
<polygon fill="black" stroke="black" points="583.47,-32.06 573.26,-34.91 583.01,-39.05 583.47,-32.06"/>
<g id="a_edge4&#45;headlabel"><a xlink:href="dir_000030_000008.html" target="_top" xlink:title="18">
<text text-anchor="middle" x="587.24" y="-26.96" font-family="Helvetica,sans-Serif" font-size="10.00">18</text>
</a>
</g>
</g>
<!-- dir_797a213d7d01b98ef12d53b0820ea64e&#45;&gt;dir_5d9c764a006d252ff232a5efbbd99a46 -->
<g id="edge9" class="edge">
<title>dir_797a213d7d01b98ef12d53b0820ea64e&#45;&gt;dir_5d9c764a006d252ff232a5efbbd99a46</title>
<path fill="none" stroke="black" d="M374.53,-106C386.46,-106 398.39,-106 410.33,-106"/>
<polygon fill="black" stroke="black" points="410.35,-109.5 420.35,-106 410.35,-102.5 410.35,-109.5"/>
<g id="a_edge9&#45;headlabel"><a xlink:href="dir_000031_000028.html" target="_top" xlink:title="1">
<text text-anchor="middle" x="406.76" y="-109.84" font-family="Helvetica,sans-Serif" font-size="10.00">1</text>
</a>
</g>
</g>
<!-- dir_797a213d7d01b98ef12d53b0820ea64e&#45;&gt;dir_e0a84d05c80a2ef4231141dcbbeac5c8 -->
<g id="edge11" class="edge">
<title>dir_797a213d7d01b98ef12d53b0820ea64e&#45;&gt;dir_e0a84d05c80a2ef4231141dcbbeac5c8</title>
<path fill="none" stroke="black" d="M294.57,-87.7C283.42,-79.05 270.68,-68.45 260.04,-59.03"/>
<polygon fill="black" stroke="black" points="262.15,-56.21 252.39,-52.1 257.46,-61.41 262.15,-56.21"/>
<g id="a_edge11&#45;headlabel"><a xlink:href="dir_000031_000020.html" target="_top" xlink:title="6">
<text text-anchor="middle" x="266.72" y="-54.02" font-family="Helvetica,sans-Serif" font-size="10.00">6</text>
</a>
</g>
</g>
<!-- dir_797a213d7d01b98ef12d53b0820ea64e&#45;&gt;dir_d44c64559bbebec7f509842c48db8b23 -->
<g id="edge10" class="edge">
<title>dir_797a213d7d01b98ef12d53b0820ea64e&#45;&gt;dir_d44c64559bbebec7f509842c48db8b23</title>
<path fill="none" stroke="black" d="M357.08,-87.92C363.93,-85.03 371.12,-82.25 378,-80 432.53,-62.17 449.22,-69.04 504,-52 505.65,-51.49 507.33,-50.93 509.02,-50.36"/>
<polygon fill="black" stroke="black" points="510.49,-53.55 518.67,-46.82 508.08,-46.97 510.49,-53.55"/>
<g id="a_edge10&#45;headlabel"><a xlink:href="dir_000031_000008.html" target="_top" xlink:title="77">
<text text-anchor="middle" x="508.09" y="-54.95" font-family="Helvetica,sans-Serif" font-size="10.00">77</text>
</a>
</g>
</g>
<!-- dir_1ad86c6d39ab715a831555571b9e98a5&#45;&gt;dir_5d9c764a006d252ff232a5efbbd99a46 -->
<g id="edge34" class="edge">
<title>dir_1ad86c6d39ab715a831555571b9e98a5&#45;&gt;dir_5d9c764a006d252ff232a5efbbd99a46</title>
<path fill="none" stroke="black" d="M332.11,-164.16C335.11,-162.75 338.12,-161.34 341,-160 364.17,-149.19 390.02,-137.27 411.33,-127.47"/>
<polygon fill="black" stroke="black" points="412.85,-130.62 420.47,-123.27 409.93,-124.26 412.85,-130.62"/>
<g id="a_edge34&#45;headlabel"><a xlink:href="dir_000034_000028.html" target="_top" xlink:title="6">
<text text-anchor="middle" x="410.77" y="-132.2" font-family="Helvetica,sans-Serif" font-size="10.00">6</text>
</a>
</g>
</g>
<!-- dir_1ad86c6d39ab715a831555571b9e98a5&#45;&gt;dir_e0a84d05c80a2ef4231141dcbbeac5c8 -->
<g id="edge38" class="edge">
<title>dir_1ad86c6d39ab715a831555571b9e98a5&#45;&gt;dir_e0a84d05c80a2ef4231141dcbbeac5c8</title>
<path fill="none" stroke="black" d="M277.8,-161.14C264.87,-152.03 250.6,-139.35 243,-124 233.53,-104.87 232.81,-80.52 234.16,-62.13"/>
<polygon fill="black" stroke="black" points="237.66,-62.36 235.15,-52.07 230.69,-61.68 237.66,-62.36"/>
<g id="a_edge38&#45;headlabel"><a xlink:href="dir_000034_000020.html" target="_top" xlink:title="6">
<text text-anchor="middle" x="240.13" y="-63.72" font-family="Helvetica,sans-Serif" font-size="10.00">6</text>
</a>
</g>
</g>
<!-- dir_1ad86c6d39ab715a831555571b9e98a5&#45;&gt;dir_c13beb47b846b3a63741c705c772cf8d -->
<g id="edge36" class="edge">
<title>dir_1ad86c6d39ab715a831555571b9e98a5&#45;&gt;dir_c13beb47b846b3a63741c705c772cf8d</title>
<path fill="none" stroke="black" d="M326.04,-196.1C334.33,-204.47 343.59,-214.69 351.29,-223.92"/>
<polygon fill="black" stroke="black" points="348.58,-226.13 357.59,-231.7 354.01,-221.72 348.58,-226.13"/>
<g id="a_edge36&#45;headlabel"><a xlink:href="dir_000034_000030.html" target="_top" xlink:title="108">
<text text-anchor="middle" x="344.11" y="-222.62" font-family="Helvetica,sans-Serif" font-size="10.00">108</text>
</a>
</g>
</g>
<!-- dir_1ad86c6d39ab715a831555571b9e98a5&#45;&gt;dir_797a213d7d01b98ef12d53b0820ea64e -->
<g id="edge35" class="edge">
<title>dir_1ad86c6d39ab715a831555571b9e98a5&#45;&gt;dir_797a213d7d01b98ef12d53b0820ea64e</title>
<path fill="none" stroke="black" d="M308.96,-159.7C310.72,-151.98 312.84,-142.71 314.8,-134.11"/>
<polygon fill="black" stroke="black" points="318.27,-134.63 317.09,-124.1 311.45,-133.07 318.27,-134.63"/>
<g id="a_edge35&#45;headlabel"><a xlink:href="dir_000034_000031.html" target="_top" xlink:title="13">
<text text-anchor="middle" x="320.24" y="-136.27" font-family="Helvetica,sans-Serif" font-size="10.00">13</text>
</a>
</g>
</g>
<!-- dir_1ad86c6d39ab715a831555571b9e98a5&#45;&gt;dir_d44c64559bbebec7f509842c48db8b23 -->
<g id="edge37" class="edge">
<title>dir_1ad86c6d39ab715a831555571b9e98a5&#45;&gt;dir_d44c64559bbebec7f509842c48db8b23</title>
<path fill="none" stroke="black" d="M332.19,-163.17C335.12,-161.98 338.09,-160.89 341,-160 390.66,-144.75 538.21,-163.46 572,-124 587.25,-106.19 576.72,-79.82 564.82,-60.41"/>
<polygon fill="black" stroke="black" points="567.74,-58.49 559.34,-52.04 561.89,-62.32 567.74,-58.49"/>
<g id="a_edge37&#45;headlabel"><a xlink:href="dir_000034_000008.html" target="_top" xlink:title="155">
<text text-anchor="middle" x="572.09" y="-57.44" font-family="Helvetica,sans-Serif" font-size="10.00">155</text>
</a>
</g>
</g>
<!-- dir_f234204b1f126bf9b6cfe31d58f18cc7 -->
<g id="node7" class="node">
<title>dir_f234204b1f126bf9b6cfe31d58f18cc7</title>
<g id="a_node7"><a xlink:href="dir_f234204b1f126bf9b6cfe31d58f18cc7.html" target="_top" xlink:title="dynamic">
<polygon fill="white" stroke="red" points="300.5,-268 241.5,-268 241.5,-232 300.5,-232 300.5,-268"/>
<text text-anchor="middle" x="271" y="-247.5" font-family="Helvetica,sans-Serif" font-size="10.00">dynamic</text>
</a>
</g>
</g>
<!-- dir_efae4012d0e357ebeaba7d02491d70e5 -->
<g id="node9" class="node">
<title>dir_efae4012d0e357ebeaba7d02491d70e5</title>
<g id="a_node9"><a xlink:href="dir_efae4012d0e357ebeaba7d02491d70e5.html" target="_top" xlink:title="reference">
<polygon fill="white" stroke="red" points="239.5,-196 176.5,-196 176.5,-160 239.5,-160 239.5,-196"/>
<text text-anchor="middle" x="208" y="-175.5" font-family="Helvetica,sans-Serif" font-size="10.00">reference</text>
</a>
</g>
</g>
<!-- dir_f234204b1f126bf9b6cfe31d58f18cc7&#45;&gt;dir_efae4012d0e357ebeaba7d02491d70e5 -->
<g id="edge17" class="edge">
<title>dir_f234204b1f126bf9b6cfe31d58f18cc7&#45;&gt;dir_efae4012d0e357ebeaba7d02491d70e5</title>
<path fill="none" stroke="black" d="M255.43,-231.7C247.8,-223.22 238.48,-212.86 230.12,-203.58"/>
<polygon fill="black" stroke="black" points="232.69,-201.2 223.39,-196.1 227.48,-205.88 232.69,-201.2"/>
<g id="a_edge17&#45;headlabel"><a xlink:href="dir_000036_000041.html" target="_top" xlink:title="1">
<text text-anchor="middle" x="237.2" y="-199.47" font-family="Helvetica,sans-Serif" font-size="10.00">1</text>
</a>
</g>
</g>
<!-- dir_d86eb514662c7c08e168285f21d00ea1&#45;&gt;dir_5d9c764a006d252ff232a5efbbd99a46 -->
<g id="edge12" class="edge">
<title>dir_d86eb514662c7c08e168285f21d00ea1&#45;&gt;dir_5d9c764a006d252ff232a5efbbd99a46</title>
<path fill="none" stroke="black" d="M396.53,-159.7C406.38,-150.97 418.49,-140.24 429.2,-130.75"/>
<polygon fill="black" stroke="black" points="431.53,-133.36 436.7,-124.1 426.89,-128.12 431.53,-133.36"/>
<g id="a_edge12&#45;headlabel"><a xlink:href="dir_000038_000028.html" target="_top" xlink:title="9">
<text text-anchor="middle" x="430.73" y="-135.36" font-family="Helvetica,sans-Serif" font-size="10.00">9</text>
</a>
</g>
</g>
<!-- dir_d86eb514662c7c08e168285f21d00ea1&#45;&gt;dir_e0a84d05c80a2ef4231141dcbbeac5c8 -->
<g id="edge16" class="edge">
<title>dir_d86eb514662c7c08e168285f21d00ea1&#45;&gt;dir_e0a84d05c80a2ef4231141dcbbeac5c8</title>
<path fill="none" stroke="black" d="M349.92,-164.1C346.91,-162.7 343.9,-161.31 341,-160 304.37,-143.41 283.63,-154.98 258,-124 250.29,-114.68 244.66,-84.78 241.37,-62.18"/>
<polygon fill="black" stroke="black" points="244.81,-61.54 239.99,-52.11 237.88,-62.49 244.81,-61.54"/>
<g id="a_edge16&#45;headlabel"><a xlink:href="dir_000038_000020.html" target="_top" xlink:title="9">
<text text-anchor="middle" x="248.12" y="-62.22" font-family="Helvetica,sans-Serif" font-size="10.00">9</text>
</a>
</g>
</g>
<!-- dir_d86eb514662c7c08e168285f21d00ea1&#45;&gt;dir_c13beb47b846b3a63741c705c772cf8d -->
<g id="edge14" class="edge">
<title>dir_d86eb514662c7c08e168285f21d00ea1&#45;&gt;dir_c13beb47b846b3a63741c705c772cf8d</title>
<path fill="none" stroke="black" d="M380.45,-196.1C380.16,-203.79 379.07,-213.05 377.51,-221.67"/>
<polygon fill="black" stroke="black" points="374.03,-221.19 375.39,-231.7 380.88,-222.64 374.03,-221.19"/>
<g id="a_edge14&#45;headlabel"><a xlink:href="dir_000038_000030.html" target="_top" xlink:title="115">
<text text-anchor="middle" x="372" y="-214.58" font-family="Helvetica,sans-Serif" font-size="10.00">115</text>
</a>
</g>
</g>
<!-- dir_d86eb514662c7c08e168285f21d00ea1&#45;&gt;dir_797a213d7d01b98ef12d53b0820ea64e -->
<g id="edge13" class="edge">
<title>dir_d86eb514662c7c08e168285f21d00ea1&#45;&gt;dir_797a213d7d01b98ef12d53b0820ea64e</title>
<path fill="none" stroke="black" d="M363.16,-159.7C356.51,-151.39 348.42,-141.28 341.11,-132.14"/>
<polygon fill="black" stroke="black" points="343.66,-129.73 334.68,-124.1 338.2,-134.1 343.66,-129.73"/>
<g id="a_edge13&#45;headlabel"><a xlink:href="dir_000038_000031.html" target="_top" xlink:title="17">
<text text-anchor="middle" x="348.13" y="-128.26" font-family="Helvetica,sans-Serif" font-size="10.00">17</text>
</a>
</g>
</g>
<!-- dir_d86eb514662c7c08e168285f21d00ea1&#45;&gt;dir_d44c64559bbebec7f509842c48db8b23 -->
<g id="edge15" class="edge">
<title>dir_d86eb514662c7c08e168285f21d00ea1&#45;&gt;dir_d44c64559bbebec7f509842c48db8b23</title>
<path fill="none" stroke="black" d="M404.36,-174.94C460.27,-170.11 584.51,-155.94 610,-124 622.2,-108.72 619.01,-97.35 610,-80 603.87,-68.21 593.08,-58.85 582.09,-51.8"/>
<polygon fill="black" stroke="black" points="583.7,-48.69 573.31,-46.63 580.15,-54.72 583.7,-48.69"/>
<g id="a_edge15&#45;headlabel"><a xlink:href="dir_000038_000008.html" target="_top" xlink:title="171">
<text text-anchor="middle" x="588.24" y="-45.57" font-family="Helvetica,sans-Serif" font-size="10.00">171</text>
</a>
</g>
</g>
<!-- dir_efae4012d0e357ebeaba7d02491d70e5&#45;&gt;dir_5d9c764a006d252ff232a5efbbd99a46 -->
<g id="edge21" class="edge">
<title>dir_efae4012d0e357ebeaba7d02491d70e5&#45;&gt;dir_5d9c764a006d252ff232a5efbbd99a46</title>
<path fill="none" stroke="black" d="M239.61,-167.99C249.05,-165.35 259.43,-162.51 269,-160 330.89,-143.8 350.29,-145.05 410.71,-125.65"/>
<polygon fill="black" stroke="black" points="411.93,-128.93 420.35,-122.49 409.75,-122.28 411.93,-128.93"/>
<g id="a_edge21&#45;headlabel"><a xlink:href="dir_000041_000028.html" target="_top" xlink:title="6">
<text text-anchor="middle" x="409.4" y="-130.25" font-family="Helvetica,sans-Serif" font-size="10.00">6</text>
</a>
</g>
</g>
<!-- dir_efae4012d0e357ebeaba7d02491d70e5&#45;&gt;dir_e0a84d05c80a2ef4231141dcbbeac5c8 -->
<g id="edge20" class="edge">
<title>dir_efae4012d0e357ebeaba7d02491d70e5&#45;&gt;dir_e0a84d05c80a2ef4231141dcbbeac5c8</title>
<path fill="none" stroke="black" d="M209.79,-159.66C212.01,-140.12 216.34,-107.49 223,-80 224.44,-74.05 226.31,-67.77 228.23,-61.84"/>
<polygon fill="black" stroke="black" points="231.56,-62.92 231.47,-52.32 224.94,-60.67 231.56,-62.92"/>
<g id="a_edge20&#45;headlabel"><a xlink:href="dir_000041_000020.html" target="_top" xlink:title="55">
<text text-anchor="middle" x="233.1" y="-64.74" font-family="Helvetica,sans-Serif" font-size="10.00">55</text>
</a>
</g>
</g>
<!-- dir_efae4012d0e357ebeaba7d02491d70e5&#45;&gt;dir_797a213d7d01b98ef12d53b0820ea64e -->
<g id="edge18" class="edge">
<title>dir_efae4012d0e357ebeaba7d02491d70e5&#45;&gt;dir_797a213d7d01b98ef12d53b0820ea64e</title>
<path fill="none" stroke="black" d="M235.64,-159.88C250.42,-150.72 268.79,-139.34 284.7,-129.48"/>
<polygon fill="black" stroke="black" points="286.59,-132.43 293.25,-124.19 282.91,-126.48 286.59,-132.43"/>
<g id="a_edge18&#45;headlabel"><a xlink:href="dir_000041_000031.html" target="_top" xlink:title="7">
<text text-anchor="middle" x="285.03" y="-134.24" font-family="Helvetica,sans-Serif" font-size="10.00">7</text>
</a>
</g>
</g>
<!-- dir_efae4012d0e357ebeaba7d02491d70e5&#45;&gt;dir_d44c64559bbebec7f509842c48db8b23 -->
<g id="edge19" class="edge">
<title>dir_efae4012d0e357ebeaba7d02491d70e5&#45;&gt;dir_d44c64559bbebec7f509842c48db8b23</title>
<path fill="none" stroke="black" d="M239.77,-167.26C249.12,-164.63 259.42,-161.98 269,-160 327.2,-147.99 492,-166.04 534,-124 549.88,-108.11 551.68,-81.9 550.23,-62.04"/>
<polygon fill="black" stroke="black" points="553.7,-61.62 549.19,-52.04 546.74,-62.34 553.7,-61.62"/>
<g id="a_edge19&#45;headlabel"><a xlink:href="dir_000041_000008.html" target="_top" xlink:title="230">
<text text-anchor="middle" x="556.9" y="-62.4" font-family="Helvetica,sans-Serif" font-size="10.00">230</text>
</a>
</g>
</g>
<!-- dir_3eeadfb79f8e6e284b92aba47a7684a1 -->
<g id="node10" class="node">
<title>dir_3eeadfb79f8e6e284b92aba47a7684a1</title>
<g id="a_node10"><a xlink:href="dir_3eeadfb79f8e6e284b92aba47a7684a1.html" target="_top" xlink:title="tosaCommon">
<polygon fill="white" stroke="red" points="138,-196 56,-196 56,-160 138,-160 138,-196"/>
<text text-anchor="middle" x="97" y="-175.5" font-family="Helvetica,sans-Serif" font-size="10.00">tosaCommon</text>
</a>
</g>
</g>
<!-- dir_3eeadfb79f8e6e284b92aba47a7684a1&#45;&gt;dir_e0a84d05c80a2ef4231141dcbbeac5c8 -->
<g id="edge8" class="edge">
<title>dir_3eeadfb79f8e6e284b92aba47a7684a1&#45;&gt;dir_e0a84d05c80a2ef4231141dcbbeac5c8</title>
<path fill="none" stroke="black" d="M114.01,-159.87C138.89,-134.82 185.32,-88.05 213.77,-59.41"/>
<polygon fill="black" stroke="black" points="216.37,-61.75 220.93,-52.19 211.4,-56.82 216.37,-61.75"/>
<g id="a_edge8&#45;headlabel"><a xlink:href="dir_000043_000020.html" target="_top" xlink:title="14">
<text text-anchor="middle" x="215.85" y="-63.8" font-family="Helvetica,sans-Serif" font-size="10.00">14</text>
</a>
</g>
</g>
<!-- dir_3eeadfb79f8e6e284b92aba47a7684a1&#45;&gt;dir_797a213d7d01b98ef12d53b0820ea64e -->
<g id="edge6" class="edge">
<title>dir_3eeadfb79f8e6e284b92aba47a7684a1&#45;&gt;dir_797a213d7d01b98ef12d53b0820ea64e</title>
<path fill="none" stroke="black" d="M138.09,-164.16C171.48,-153.73 219.15,-138.83 257.46,-126.86"/>
<polygon fill="black" stroke="black" points="258.99,-130.05 267.49,-123.72 256.9,-123.36 258.99,-130.05"/>
<g id="a_edge6&#45;headlabel"><a xlink:href="dir_000043_000031.html" target="_top" xlink:title="1">
<text text-anchor="middle" x="256.4" y="-131.33" font-family="Helvetica,sans-Serif" font-size="10.00">1</text>
</a>
</g>
</g>
<!-- dir_3eeadfb79f8e6e284b92aba47a7684a1&#45;&gt;dir_d44c64559bbebec7f509842c48db8b23 -->
<g id="edge7" class="edge">
<title>dir_3eeadfb79f8e6e284b92aba47a7684a1&#45;&gt;dir_d44c64559bbebec7f509842c48db8b23</title>
<path fill="none" stroke="black" d="M138.27,-166.02C147.66,-163.79 157.64,-161.63 167,-160 241.2,-147.08 442.62,-167.65 504,-124 514.84,-116.29 528.04,-85.02 536.71,-61.71"/>
<polygon fill="black" stroke="black" points="540,-62.89 540.13,-52.3 533.43,-60.5 540,-62.89"/>
<g id="a_edge7&#45;headlabel"><a xlink:href="dir_000043_000008.html" target="_top" xlink:title="5">
<text text-anchor="middle" x="541.45" y="-64.74" font-family="Helvetica,sans-Serif" font-size="10.00">5</text>
</a>
</g>
</g>
<!-- dir_1cbeeacd5feb3dda3e9a1c9b48ce5f80 -->
<g id="node11" class="node">
<title>dir_1cbeeacd5feb3dda3e9a1c9b48ce5f80</title>
<g id="a_node11"><a xlink:href="dir_1cbeeacd5feb3dda3e9a1c9b48ce5f80.html" target="_top" xlink:title="tosaReference">
<polygon fill="white" stroke="red" points="223.5,-268 136.5,-268 136.5,-232 223.5,-232 223.5,-268"/>
<text text-anchor="middle" x="180" y="-247.5" font-family="Helvetica,sans-Serif" font-size="10.00">tosaReference</text>
</a>
</g>
</g>
<!-- dir_1cbeeacd5feb3dda3e9a1c9b48ce5f80&#45;&gt;dir_e0a84d05c80a2ef4231141dcbbeac5c8 -->
<g id="edge33" class="edge">
<title>dir_1cbeeacd5feb3dda3e9a1c9b48ce5f80&#45;&gt;dir_e0a84d05c80a2ef4231141dcbbeac5c8</title>
<path fill="none" stroke="black" d="M136.4,-234.36C99.71,-221.61 52.39,-203.95 47,-196 38.02,-182.76 40.07,-174.42 47,-160 76.91,-97.77 154.57,-62.35 201.13,-46.07"/>
<polygon fill="black" stroke="black" points="202.49,-49.3 210.85,-42.79 200.26,-42.67 202.49,-49.3"/>
<g id="a_edge33&#45;headlabel"><a xlink:href="dir_000045_000020.html" target="_top" xlink:title="2">
<text text-anchor="middle" x="199.99" y="-50.64" font-family="Helvetica,sans-Serif" font-size="10.00">2</text>
</a>
</g>
</g>
<!-- dir_1cbeeacd5feb3dda3e9a1c9b48ce5f80&#45;&gt;dir_797a213d7d01b98ef12d53b0820ea64e -->
<g id="edge31" class="edge">
<title>dir_1cbeeacd5feb3dda3e9a1c9b48ce5f80&#45;&gt;dir_797a213d7d01b98ef12d53b0820ea64e</title>
<path fill="none" stroke="black" d="M170.89,-231.91C162,-212.63 151.86,-181.23 167,-160 169.9,-155.94 216.44,-140.24 257.6,-126.97"/>
<polygon fill="black" stroke="black" points="258.92,-130.22 267.37,-123.83 256.78,-123.56 258.92,-130.22"/>
<g id="a_edge31&#45;headlabel"><a xlink:href="dir_000045_000031.html" target="_top" xlink:title="6">
<text text-anchor="middle" x="256.37" y="-131.52" font-family="Helvetica,sans-Serif" font-size="10.00">6</text>
</a>
</g>
</g>
<!-- dir_1cbeeacd5feb3dda3e9a1c9b48ce5f80&#45;&gt;dir_3eeadfb79f8e6e284b92aba47a7684a1 -->
<g id="edge30" class="edge">
<title>dir_1cbeeacd5feb3dda3e9a1c9b48ce5f80&#45;&gt;dir_3eeadfb79f8e6e284b92aba47a7684a1</title>
<path fill="none" stroke="black" d="M159.48,-231.7C149.13,-222.97 136.41,-212.24 125.16,-202.75"/>
<polygon fill="black" stroke="black" points="127.18,-199.88 117.28,-196.1 122.67,-205.23 127.18,-199.88"/>
<g id="a_edge30&#45;headlabel"><a xlink:href="dir_000045_000043.html" target="_top" xlink:title="2">
<text text-anchor="middle" x="131.76" y="-197.52" font-family="Helvetica,sans-Serif" font-size="10.00">2</text>
</a>
</g>
</g>
<!-- dir_1cbeeacd5feb3dda3e9a1c9b48ce5f80&#45;&gt;dir_d44c64559bbebec7f509842c48db8b23 -->
<g id="edge32" class="edge">
<title>dir_1cbeeacd5feb3dda3e9a1c9b48ce5f80&#45;&gt;dir_d44c64559bbebec7f509842c48db8b23</title>
<path fill="none" stroke="black" d="M223.58,-234.33C226.42,-233.51 229.24,-232.72 232,-232 408.06,-185.89 520.79,-271.79 627,-124 638.41,-108.12 636.92,-96.85 627,-80 617.38,-63.66 599.45,-52.82 582.9,-45.89"/>
<polygon fill="black" stroke="black" points="583.98,-42.56 573.39,-42.25 581.47,-49.09 583.98,-42.56"/>
<g id="a_edge32&#45;headlabel"><a xlink:href="dir_000045_000008.html" target="_top" xlink:title="20">
<text text-anchor="middle" x="588.35" y="-38.69" font-family="Helvetica,sans-Serif" font-size="10.00">20</text>
</a>
</g>
</g>
<!-- dir_d44c64559bbebec7f509842c48db8b23&#45;&gt;dir_5d9c764a006d252ff232a5efbbd99a46 -->
<g id="edge28" class="edge">
<title>dir_d44c64559bbebec7f509842c48db8b23&#45;&gt;dir_5d9c764a006d252ff232a5efbbd99a46</title>
<path fill="none" stroke="black" d="M529.9,-52.1C519.43,-60.97 505.5,-71.94 492.51,-81.59"/>
<polygon fill="black" stroke="black" points="490.17,-78.97 484.16,-87.7 494.3,-84.62 490.17,-78.97"/>
<g id="a_edge28&#45;headlabel"><a xlink:href="dir_000008_000028.html" target="_top" xlink:title="2">
<text text-anchor="middle" x="491.39" y="-72.05" font-family="Helvetica,sans-Serif" font-size="10.00">2</text>
</a>
</g>
</g>
<!-- dir_d44c64559bbebec7f509842c48db8b23&#45;&gt;dir_e0a84d05c80a2ef4231141dcbbeac5c8 -->
<g id="edge29" class="edge">
<title>dir_d44c64559bbebec7f509842c48db8b23&#45;&gt;dir_e0a84d05c80a2ef4231141dcbbeac5c8</title>
<path fill="none" stroke="black" d="M518.84,-34C437.72,-34 356.6,-34 275.48,-34"/>
<polygon fill="black" stroke="black" points="275.07,-30.5 265.07,-34 275.07,-37.5 275.07,-30.5"/>
<g id="a_edge29&#45;headlabel"><a xlink:href="dir_000008_000020.html" target="_top" xlink:title="2">
<text text-anchor="middle" x="278.66" y="-25.16" font-family="Helvetica,sans-Serif" font-size="10.00">2</text>
</a>
</g>
</g>
</g>
</svg>
