<?xml version="1.0" encoding="UTF-8" standalone="no"?>
<!DOCTYPE svg PUBLIC "-//W3C//DTD SVG 1.1//EN"
 "http://www.w3.org/Graphics/SVG/1.1/DTD/svg11.dtd">
<!-- Generated by graphviz version 2.43.0 (0)
 -->
<!-- Title: src/backends/tosaCommon Pages: 1 -->
<svg width="232pt" height="303pt"
 viewBox="0.00 0.00 231.89 303.00" xmlns="http://www.w3.org/2000/svg" xmlns:xlink="http://www.w3.org/1999/xlink">
<g id="graph0" class="graph" transform="scale(1 1) rotate(0) translate(4 299)">
<title>src/backends/tosaCommon</title>
<polygon fill="white" stroke="transparent" points="-4,4 -4,-299 227.89,-299 227.89,4 -4,4"/>
<g id="clust1" class="cluster">
<title>clusterdir_0f3cdec46afbc61a1ded8e1687c9c9a0</title>
<g id="a_clust1"><a xlink:href="dir_0f3cdec46afbc61a1ded8e1687c9c9a0.html" target="_top" xlink:title="backends">
<polygon fill="#ddddee" stroke="black" points="8,-64 8,-287 146,-287 146,-64 8,-64"/>
<text text-anchor="middle" x="77" y="-275" font-family="Helvetica,sans-Serif" font-size="10.00">backends</text>
</a>
</g>
</g>
<g id="clust2" class="cluster">
<title>clusterdir_3eeadfb79f8e6e284b92aba47a7684a1</title>
<g id="a_clust2"><a xlink:href="dir_3eeadfb79f8e6e284b92aba47a7684a1.html" target="_top">
<polygon fill="#eeeeff" stroke="black" points="16,-136 16,-260 138,-260 138,-136 16,-136"/>
</a>
</g>
</g>
<!-- dir_797a213d7d01b98ef12d53b0820ea64e -->
<g id="node1" class="node">
<title>dir_797a213d7d01b98ef12d53b0820ea64e</title>
<g id="a_node1"><a xlink:href="dir_797a213d7d01b98ef12d53b0820ea64e.html" target="_top" xlink:title="backendsCommon">
<polygon fill="white" stroke="red" points="135.5,-108 28.5,-108 28.5,-72 135.5,-72 135.5,-108"/>
<text text-anchor="middle" x="82" y="-87.5" font-family="Helvetica,sans-Serif" font-size="10.00">backendsCommon</text>
</a>
</g>
</g>
<!-- dir_d44c64559bbebec7f509842c48db8b23 -->
<g id="node4" class="node">
<title>dir_d44c64559bbebec7f509842c48db8b23</title>
<g id="a_node4"><a xlink:href="dir_d44c64559bbebec7f509842c48db8b23.html" target="_top" xlink:title="include">
<polygon fill="white" stroke="red" points="208,-108 154,-108 154,-72 208,-72 208,-108"/>
<text text-anchor="middle" x="181" y="-87.5" font-family="Helvetica,sans-Serif" font-size="10.00">include</text>
</a>
</g>
</g>
<!-- dir_797a213d7d01b98ef12d53b0820ea64e&#45;&gt;dir_d44c64559bbebec7f509842c48db8b23 -->
<g id="edge2" class="edge">
<title>dir_797a213d7d01b98ef12d53b0820ea64e&#45;&gt;dir_d44c64559bbebec7f509842c48db8b23</title>
<path fill="none" stroke="black" d="M135.75,-90C138.38,-90 141.01,-90 143.64,-90"/>
<polygon fill="black" stroke="black" points="143.78,-93.5 153.78,-90 143.78,-86.5 143.78,-93.5"/>
<g id="a_edge2&#45;headlabel"><a xlink:href="dir_000031_000008.html" target="_top" xlink:title="77">
<text text-anchor="middle" x="140.19" y="-93.84" font-family="Helvetica,sans-Serif" font-size="10.00">77</text>
</a>
</g>
</g>
<!-- dir_e0a84d05c80a2ef4231141dcbbeac5c8 -->
<g id="node5" class="node">
<title>dir_e0a84d05c80a2ef4231141dcbbeac5c8</title>
<g id="a_node5"><a xlink:href="dir_e0a84d05c80a2ef4231141dcbbeac5c8.html" target="_top" xlink:title="armnn">
<polygon fill="white" stroke="red" points="208,-36 154,-36 154,0 208,0 208,-36"/>
<text text-anchor="middle" x="181" y="-15.5" font-family="Helvetica,sans-Serif" font-size="10.00">armnn</text>
</a>
</g>
</g>
<!-- dir_797a213d7d01b98ef12d53b0820ea64e&#45;&gt;dir_e0a84d05c80a2ef4231141dcbbeac5c8 -->
<g id="edge3" class="edge">
<title>dir_797a213d7d01b98ef12d53b0820ea64e&#45;&gt;dir_e0a84d05c80a2ef4231141dcbbeac5c8</title>
<path fill="none" stroke="black" d="M100.56,-71.7C113.16,-62.08 130.06,-50.06 145.17,-39.92"/>
<polygon fill="black" stroke="black" points="147.41,-42.64 153.82,-34.2 143.55,-36.8 147.41,-42.64"/>
<g id="a_edge3&#45;headlabel"><a xlink:href="dir_000031_000020.html" target="_top" xlink:title="6">
<text text-anchor="middle" x="145.98" y="-44.49" font-family="Helvetica,sans-Serif" font-size="10.00">6</text>
</a>
</g>
</g>
<!-- dir_3eeadfb79f8e6e284b92aba47a7684a1 -->
<g id="node2" class="node">
<title>dir_3eeadfb79f8e6e284b92aba47a7684a1</title>
<text text-anchor="middle" x="77" y="-231.5" font-family="Helvetica,sans-Serif" font-size="10.00">tosaCommon</text>
</g>
<!-- dir_44a5c203710327e1068d2575c20cb7c6 -->
<g id="node3" class="node">
<title>dir_44a5c203710327e1068d2575c20cb7c6</title>
<g id="a_node3"><a xlink:href="dir_44a5c203710327e1068d2575c20cb7c6.html" target="_top" xlink:title="operatorMappings">
<polygon fill="white" stroke="black" points="129.5,-180 24.5,-180 24.5,-144 129.5,-144 129.5,-180"/>
<text text-anchor="middle" x="77" y="-159.5" font-family="Helvetica,sans-Serif" font-size="10.00">operatorMappings</text>
</a>
</g>
</g>
<!-- dir_3eeadfb79f8e6e284b92aba47a7684a1&#45;&gt;dir_44a5c203710327e1068d2575c20cb7c6 -->
<g id="edge1" class="edge">
<title>dir_3eeadfb79f8e6e284b92aba47a7684a1&#45;&gt;dir_44a5c203710327e1068d2575c20cb7c6</title>
<path fill="none" stroke="black" d="M77,-215.7C77,-207.98 77,-198.71 77,-190.11"/>
<polygon fill="black" stroke="black" points="80.5,-190.1 77,-180.1 73.5,-190.1 80.5,-190.1"/>
<g id="a_edge1&#45;headlabel"><a xlink:href="dir_000043_000044.html" target="_top" xlink:title="1">
<text text-anchor="middle" x="83.34" y="-191.2" font-family="Helvetica,sans-Serif" font-size="10.00">1</text>
</a>
</g>
</g>
<!-- dir_44a5c203710327e1068d2575c20cb7c6&#45;&gt;dir_797a213d7d01b98ef12d53b0820ea64e -->
<g id="edge7" class="edge">
<title>dir_44a5c203710327e1068d2575c20cb7c6&#45;&gt;dir_797a213d7d01b98ef12d53b0820ea64e</title>
<path fill="none" stroke="black" d="M78.24,-143.7C78.79,-135.98 79.45,-126.71 80.06,-118.11"/>
<polygon fill="black" stroke="black" points="83.56,-118.33 80.78,-108.1 76.57,-117.83 83.56,-118.33"/>
<g id="a_edge7&#45;headlabel"><a xlink:href="dir_000044_000031.html" target="_top" xlink:title="1">
<text text-anchor="middle" x="86.13" y="-119.62" font-family="Helvetica,sans-Serif" font-size="10.00">1</text>
</a>
</g>
</g>
<!-- dir_44a5c203710327e1068d2575c20cb7c6&#45;&gt;dir_d44c64559bbebec7f509842c48db8b23 -->
<g id="edge8" class="edge">
<title>dir_44a5c203710327e1068d2575c20cb7c6&#45;&gt;dir_d44c64559bbebec7f509842c48db8b23</title>
<path fill="none" stroke="black" d="M102.44,-143.88C115.79,-134.89 132.32,-123.76 146.78,-114.03"/>
<polygon fill="black" stroke="black" points="149.12,-116.68 155.46,-108.19 145.21,-110.87 149.12,-116.68"/>
<g id="a_edge8&#45;headlabel"><a xlink:href="dir_000044_000008.html" target="_top" xlink:title="5">
<text text-anchor="middle" x="147.72" y="-118.54" font-family="Helvetica,sans-Serif" font-size="10.00">5</text>
</a>
</g>
</g>
<!-- dir_44a5c203710327e1068d2575c20cb7c6&#45;&gt;dir_e0a84d05c80a2ef4231141dcbbeac5c8 -->
<g id="edge9" class="edge">
<title>dir_44a5c203710327e1068d2575c20cb7c6&#45;&gt;dir_e0a84d05c80a2ef4231141dcbbeac5c8</title>
<path fill="none" stroke="black" d="M129.65,-155.68C160.61,-149.54 197.43,-136.33 217,-108 228.11,-91.91 223.47,-82.45 217,-64 214.5,-56.86 210.33,-50.01 205.7,-43.91"/>
<polygon fill="black" stroke="black" points="208.29,-41.55 199.22,-36.08 202.9,-46.01 208.29,-41.55"/>
<g id="a_edge9&#45;headlabel"><a xlink:href="dir_000044_000020.html" target="_top" xlink:title="13">
<text text-anchor="middle" x="212.77" y="-40" font-family="Helvetica,sans-Serif" font-size="10.00">13</text>
</a>
</g>
</g>
<!-- dir_d44c64559bbebec7f509842c48db8b23&#45;&gt;dir_e0a84d05c80a2ef4231141dcbbeac5c8 -->
<g id="edge6" class="edge">
<title>dir_d44c64559bbebec7f509842c48db8b23&#45;&gt;dir_e0a84d05c80a2ef4231141dcbbeac5c8</title>
<path fill="none" stroke="black" d="M175.08,-71.7C174.29,-63.98 174.06,-54.71 174.4,-46.11"/>
<polygon fill="black" stroke="black" points="177.9,-46.32 175.1,-36.1 170.92,-45.84 177.9,-46.32"/>
<g id="a_edge6&#45;headlabel"><a xlink:href="dir_000008_000020.html" target="_top" xlink:title="2">
<text text-anchor="middle" x="180.48" y="-47.61" font-family="Helvetica,sans-Serif" font-size="10.00">2</text>
</a>
</g>
</g>
<!-- dir_e0a84d05c80a2ef4231141dcbbeac5c8&#45;&gt;dir_797a213d7d01b98ef12d53b0820ea64e -->
<g id="edge4" class="edge">
<title>dir_e0a84d05c80a2ef4231141dcbbeac5c8&#45;&gt;dir_797a213d7d01b98ef12d53b0820ea64e</title>
<path fill="none" stroke="black" d="M162.59,-36.19C150.7,-45.27 134.93,-56.53 120.45,-66.31"/>
<polygon fill="black" stroke="black" points="118.49,-63.41 112.12,-71.88 122.38,-69.24 118.49,-63.41"/>
<g id="a_edge4&#45;headlabel"><a xlink:href="dir_000020_000031.html" target="_top" xlink:title="15">
<text text-anchor="middle" x="119.9" y="-56.56" font-family="Helvetica,sans-Serif" font-size="10.00">15</text>
</a>
</g>
</g>
<!-- dir_e0a84d05c80a2ef4231141dcbbeac5c8&#45;&gt;dir_d44c64559bbebec7f509842c48db8b23 -->
<g id="edge5" class="edge">
<title>dir_e0a84d05c80a2ef4231141dcbbeac5c8&#45;&gt;dir_d44c64559bbebec7f509842c48db8b23</title>
<path fill="none" stroke="black" d="M186.9,-36.1C187.7,-43.79 187.94,-53.05 187.6,-61.67"/>
<polygon fill="black" stroke="black" points="184.11,-61.48 186.92,-71.7 191.09,-61.96 184.11,-61.48"/>
<g id="a_edge5&#45;headlabel"><a xlink:href="dir_000020_000008.html" target="_top" xlink:title="431">
<text text-anchor="middle" x="181.52" y="-55.2" font-family="Helvetica,sans-Serif" font-size="10.00">431</text>
</a>
</g>
</g>
</g>
</svg>
