<?xml version="1.0" encoding="UTF-8" standalone="no"?>
<!DOCTYPE svg PUBLIC "-//W3C//DTD SVG 1.1//EN"
 "http://www.w3.org/Graphics/SVG/1.1/DTD/svg11.dtd">
<!-- Generated by graphviz version 2.43.0 (0)
 -->
<!-- Title: include/armnnOnnxParser Pages: 1 -->
<svg width="144pt" height="167pt"
 viewBox="0.00 0.00 144.00 167.00" xmlns="http://www.w3.org/2000/svg" xmlns:xlink="http://www.w3.org/1999/xlink">
<g id="graph0" class="graph" transform="scale(1 1) rotate(0) translate(4 163)">
<title>include/armnnOnnxParser</title>
<polygon fill="white" stroke="transparent" points="-4,4 -4,-163 140,-163 140,4 -4,4"/>
<g id="clust1" class="cluster">
<title>clusterdir_d44c64559bbebec7f509842c48db8b23</title>
<g id="a_clust1"><a xlink:href="dir_d44c64559bbebec7f509842c48db8b23.html" target="_top" xlink:title="include">
<polygon fill="#ddddee" stroke="black" points="8,-8 8,-151 128,-151 128,-8 8,-8"/>
<text text-anchor="middle" x="68" y="-139" font-family="Helvetica,sans-Serif" font-size="10.00">include</text>
</a>
</g>
</g>
<!-- dir_2b72cc348e06937955e62ebdd8a13436 -->
<g id="node1" class="node">
<title>dir_2b72cc348e06937955e62ebdd8a13436</title>
<g id="a_node1"><a xlink:href="dir_2b72cc348e06937955e62ebdd8a13436.html" target="_top" xlink:title="armnn">
<polygon fill="white" stroke="red" points="95,-52 41,-52 41,-16 95,-16 95,-52"/>
<text text-anchor="middle" x="68" y="-31.5" font-family="Helvetica,sans-Serif" font-size="10.00">armnn</text>
</a>
</g>
</g>
<!-- dir_35b8a8e2169e1915ab55c4d59871f115 -->
<g id="node2" class="node">
<title>dir_35b8a8e2169e1915ab55c4d59871f115</title>
<g id="a_node2"><a xlink:href="dir_35b8a8e2169e1915ab55c4d59871f115.html" target="_top" xlink:title="armnnOnnxParser">
<polygon fill="#eeeeff" stroke="black" points="120,-124 16,-124 16,-88 120,-88 120,-124"/>
<text text-anchor="middle" x="68" y="-103.5" font-family="Helvetica,sans-Serif" font-size="10.00">armnnOnnxParser</text>
</a>
</g>
</g>
<!-- dir_35b8a8e2169e1915ab55c4d59871f115&#45;&gt;dir_2b72cc348e06937955e62ebdd8a13436 -->
<g id="edge1" class="edge">
<title>dir_35b8a8e2169e1915ab55c4d59871f115&#45;&gt;dir_2b72cc348e06937955e62ebdd8a13436</title>
<path fill="none" stroke="black" d="M68,-87.7C68,-79.98 68,-70.71 68,-62.11"/>
<polygon fill="black" stroke="black" points="71.5,-62.1 68,-52.1 64.5,-62.1 71.5,-62.1"/>
<g id="a_edge1&#45;headlabel"><a xlink:href="dir_000013_000009.html" target="_top" xlink:title="2">
<text text-anchor="middle" x="74.34" y="-63.2" font-family="Helvetica,sans-Serif" font-size="10.00">2</text>
</a>
</g>
</g>
</g>
</svg>
