<?xml version="1.0" encoding="UTF-8" standalone="no"?>
<!DOCTYPE svg PUBLIC "-//W3C//DTD SVG 1.1//EN"
 "http://www.w3.org/Graphics/SVG/1.1/DTD/svg11.dtd">
<!-- Generated by graphviz version 2.43.0 (0)
 -->
<!-- Title: include/armnnUtils Pages: 1 -->
<svg width="166pt" height="167pt"
 viewBox="0.00 0.00 166.00 167.00" xmlns="http://www.w3.org/2000/svg" xmlns:xlink="http://www.w3.org/1999/xlink">
<g id="graph0" class="graph" transform="scale(1 1) rotate(0) translate(4 163)">
<title>include/armnnUtils</title>
<polygon fill="white" stroke="transparent" points="-4,4 -4,-163 162,-163 162,4 -4,4"/>
<g id="clust1" class="cluster">
<title>clusterdir_d44c64559bbebec7f509842c48db8b23</title>
<g id="a_clust1"><a xlink:href="dir_d44c64559bbebec7f509842c48db8b23.html" target="_top" xlink:title="include">
<polygon fill="#ddddee" stroke="black" points="8,-8 8,-151 96,-151 96,-8 8,-8"/>
<text text-anchor="middle" x="52" y="-139" font-family="Helvetica,sans-Serif" font-size="10.00">include</text>
</a>
</g>
</g>
<!-- dir_2b72cc348e06937955e62ebdd8a13436 -->
<g id="node1" class="node">
<title>dir_2b72cc348e06937955e62ebdd8a13436</title>
<g id="a_node1"><a xlink:href="dir_2b72cc348e06937955e62ebdd8a13436.html" target="_top" xlink:title="armnn">
<polygon fill="white" stroke="red" points="82,-52 28,-52 28,-16 82,-16 82,-52"/>
<text text-anchor="middle" x="55" y="-31.5" font-family="Helvetica,sans-Serif" font-size="10.00">armnn</text>
</a>
</g>
</g>
<!-- dir_68267d1309a1af8e8297ef4c3efbcdba -->
<g id="node3" class="node">
<title>dir_68267d1309a1af8e8297ef4c3efbcdba</title>
<g id="a_node3"><a xlink:href="dir_68267d1309a1af8e8297ef4c3efbcdba.html" target="_top" xlink:title="src">
<polygon fill="white" stroke="red" points="158,-52 104,-52 104,-16 158,-16 158,-52"/>
<text text-anchor="middle" x="131" y="-31.5" font-family="Helvetica,sans-Serif" font-size="10.00">src</text>
</a>
</g>
</g>
<!-- dir_2b72cc348e06937955e62ebdd8a13436&#45;&gt;dir_68267d1309a1af8e8297ef4c3efbcdba -->
<g id="edge4" class="edge">
<title>dir_2b72cc348e06937955e62ebdd8a13436&#45;&gt;dir_68267d1309a1af8e8297ef4c3efbcdba</title>
<path fill="none" stroke="black" d="M82.02,-34C85.88,-34 89.74,-34 93.6,-34"/>
<polygon fill="black" stroke="black" points="93.83,-37.5 103.83,-34 93.83,-30.5 93.83,-37.5"/>
<g id="a_edge4&#45;headlabel"><a xlink:href="dir_000009_000019.html" target="_top" xlink:title="2">
<text text-anchor="middle" x="90.23" y="-37.84" font-family="Helvetica,sans-Serif" font-size="10.00">2</text>
</a>
</g>
</g>
<!-- dir_894b299b2fb62aaf3af7c8a8a585d2d9 -->
<g id="node2" class="node">
<title>dir_894b299b2fb62aaf3af7c8a8a585d2d9</title>
<g id="a_node2"><a xlink:href="dir_894b299b2fb62aaf3af7c8a8a585d2d9.html" target="_top" xlink:title="armnnUtils">
<polygon fill="#eeeeff" stroke="black" points="87.5,-124 16.5,-124 16.5,-88 87.5,-88 87.5,-124"/>
<text text-anchor="middle" x="52" y="-103.5" font-family="Helvetica,sans-Serif" font-size="10.00">armnnUtils</text>
</a>
</g>
</g>
<!-- dir_894b299b2fb62aaf3af7c8a8a585d2d9&#45;&gt;dir_2b72cc348e06937955e62ebdd8a13436 -->
<g id="edge2" class="edge">
<title>dir_894b299b2fb62aaf3af7c8a8a585d2d9&#45;&gt;dir_2b72cc348e06937955e62ebdd8a13436</title>
<path fill="none" stroke="black" d="M52.74,-87.7C53.07,-79.98 53.47,-70.71 53.84,-62.11"/>
<polygon fill="black" stroke="black" points="57.34,-62.25 54.27,-52.1 50.34,-61.95 57.34,-62.25"/>
<g id="a_edge2&#45;headlabel"><a xlink:href="dir_000017_000009.html" target="_top" xlink:title="15">
<text text-anchor="middle" x="60.02" y="-63.46" font-family="Helvetica,sans-Serif" font-size="10.00">15</text>
</a>
</g>
</g>
<!-- dir_894b299b2fb62aaf3af7c8a8a585d2d9&#45;&gt;dir_68267d1309a1af8e8297ef4c3efbcdba -->
<g id="edge3" class="edge">
<title>dir_894b299b2fb62aaf3af7c8a8a585d2d9&#45;&gt;dir_68267d1309a1af8e8297ef4c3efbcdba</title>
<path fill="none" stroke="black" d="M71.53,-87.7C81.38,-78.97 93.49,-68.24 104.2,-58.75"/>
<polygon fill="black" stroke="black" points="106.53,-61.36 111.7,-52.1 101.89,-56.12 106.53,-61.36"/>
<g id="a_edge3&#45;headlabel"><a xlink:href="dir_000017_000019.html" target="_top" xlink:title="2">
<text text-anchor="middle" x="105.73" y="-63.36" font-family="Helvetica,sans-Serif" font-size="10.00">2</text>
</a>
</g>
</g>
<!-- dir_68267d1309a1af8e8297ef4c3efbcdba&#45;&gt;dir_2b72cc348e06937955e62ebdd8a13436 -->
<g id="edge1" class="edge">
<title>dir_68267d1309a1af8e8297ef4c3efbcdba&#45;&gt;dir_2b72cc348e06937955e62ebdd8a13436</title>
<path fill="none" stroke="black" d="M103.83,-34C99.97,-34 96.1,-34 92.24,-34"/>
<polygon fill="black" stroke="black" points="92.02,-30.5 82.02,-34 92.02,-37.5 92.02,-30.5"/>
<g id="a_edge1&#45;headlabel"><a xlink:href="dir_000019_000009.html" target="_top" xlink:title="1126">
<text text-anchor="middle" x="95.61" y="-25.16" font-family="Helvetica,sans-Serif" font-size="10.00">1126</text>
</a>
</g>
</g>
</g>
</svg>
