<?xml version="1.0" encoding="UTF-8" standalone="no"?>
<!DOCTYPE svg PUBLIC "-//W3C//DTD SVG 1.1//EN"
 "http://www.w3.org/Graphics/SVG/1.1/DTD/svg11.dtd">
<!-- Generated by graphviz version 2.43.0 (0)
 -->
<!-- Title: src/backends/backendsCommon Pages: 1 -->
<svg width="434pt" height="254pt"
 viewBox="0.00 0.00 433.50 253.58" xmlns="http://www.w3.org/2000/svg" xmlns:xlink="http://www.w3.org/1999/xlink">
<g id="graph0" class="graph" transform="scale(1 1) rotate(0) translate(4 249.58)">
<title>src/backends/backendsCommon</title>
<polygon fill="white" stroke="transparent" points="-4,4 -4,-249.58 429.5,-249.58 429.5,4 -4,4"/>
<g id="clust1" class="cluster">
<title>clusterdir_0f3cdec46afbc61a1ded8e1687c9c9a0</title>
<g id="a_clust1"><a xlink:href="dir_0f3cdec46afbc61a1ded8e1687c9c9a0.html" target="_top" xlink:title="backends">
<polygon fill="#ddddee" stroke="black" points="8,-128 8,-215 346,-215 346,-128 8,-128"/>
<text text-anchor="middle" x="177" y="-203" font-family="Helvetica,sans-Serif" font-size="10.00">backends</text>
</a>
</g>
</g>
<g id="clust2" class="cluster">
<title>clusterdir_797a213d7d01b98ef12d53b0820ea64e</title>
<g id="a_clust2"><a xlink:href="dir_797a213d7d01b98ef12d53b0820ea64e.html" target="_top">
<polygon fill="#eeeeff" stroke="black" points="16,-136 16,-188 338,-188 338,-136 16,-136"/>
</a>
</g>
</g>
<!-- dir_797a213d7d01b98ef12d53b0820ea64e -->
<g id="node1" class="node">
<title>dir_797a213d7d01b98ef12d53b0820ea64e</title>
<text text-anchor="middle" x="77" y="-159.5" font-family="Helvetica,sans-Serif" font-size="10.00">backendsCommon</text>
</g>
<!-- dir_5d9c764a006d252ff232a5efbbd99a46 -->
<g id="node3" class="node">
<title>dir_5d9c764a006d252ff232a5efbbd99a46</title>
<g id="a_node3"><a xlink:href="dir_5d9c764a006d252ff232a5efbbd99a46.html" target="_top" xlink:title="armnnUtils">
<polygon fill="none" stroke="black" points="425.5,-180 354.5,-180 354.5,-144 425.5,-144 425.5,-180"/>
<text text-anchor="middle" x="390" y="-159.5" font-family="Helvetica,sans-Serif" font-size="10.00">armnnUtils</text>
</a>
</g>
</g>
<!-- dir_797a213d7d01b98ef12d53b0820ea64e&#45;&gt;dir_5d9c764a006d252ff232a5efbbd99a46 -->
<g id="edge1" class="edge">
<title>dir_797a213d7d01b98ef12d53b0820ea64e&#45;&gt;dir_5d9c764a006d252ff232a5efbbd99a46</title>
<path fill="none" stroke="black" d="M89.05,-180.29C101.65,-197.58 123.17,-222.41 149,-233 186.83,-248.52 296.13,-250.68 333,-233 351.94,-223.91 366.58,-205.12 376.28,-189.16"/>
<polygon fill="black" stroke="black" points="379.49,-190.59 381.41,-180.17 373.41,-187.12 379.49,-190.59"/>
<g id="a_edge1&#45;headlabel"><a xlink:href="dir_000031_000028.html" target="_top" xlink:title="1">
<text text-anchor="middle" x="380.17" y="-192.62" font-family="Helvetica,sans-Serif" font-size="10.00">1</text>
</a>
</g>
</g>
<!-- dir_d44c64559bbebec7f509842c48db8b23 -->
<g id="node4" class="node">
<title>dir_d44c64559bbebec7f509842c48db8b23</title>
<g id="a_node4"><a xlink:href="dir_d44c64559bbebec7f509842c48db8b23.html" target="_top" xlink:title="include">
<polygon fill="white" stroke="red" points="321,-108 267,-108 267,-72 321,-72 321,-108"/>
<text text-anchor="middle" x="294" y="-87.5" font-family="Helvetica,sans-Serif" font-size="10.00">include</text>
</a>
</g>
</g>
<!-- dir_797a213d7d01b98ef12d53b0820ea64e&#45;&gt;dir_d44c64559bbebec7f509842c48db8b23 -->
<g id="edge2" class="edge">
<title>dir_797a213d7d01b98ef12d53b0820ea64e&#45;&gt;dir_d44c64559bbebec7f509842c48db8b23</title>
<path fill="none" stroke="black" d="M106.11,-143.84C116.54,-138.2 128.56,-132.3 140,-128 178.74,-113.46 225.15,-103.23 256.83,-97.26"/>
<polygon fill="black" stroke="black" points="257.77,-100.65 266.97,-95.4 256.5,-93.76 257.77,-100.65"/>
<g id="a_edge2&#45;headlabel"><a xlink:href="dir_000031_000008.html" target="_top" xlink:title="77">
<text text-anchor="middle" x="254.74" y="-101.59" font-family="Helvetica,sans-Serif" font-size="10.00">77</text>
</a>
</g>
</g>
<!-- dir_e0a84d05c80a2ef4231141dcbbeac5c8 -->
<g id="node5" class="node">
<title>dir_e0a84d05c80a2ef4231141dcbbeac5c8</title>
<g id="a_node5"><a xlink:href="dir_e0a84d05c80a2ef4231141dcbbeac5c8.html" target="_top" xlink:title="armnn">
<polygon fill="white" stroke="red" points="321,-36 267,-36 267,0 321,0 321,-36"/>
<text text-anchor="middle" x="294" y="-15.5" font-family="Helvetica,sans-Serif" font-size="10.00">armnn</text>
</a>
</g>
</g>
<!-- dir_797a213d7d01b98ef12d53b0820ea64e&#45;&gt;dir_e0a84d05c80a2ef4231141dcbbeac5c8 -->
<g id="edge3" class="edge">
<title>dir_797a213d7d01b98ef12d53b0820ea64e&#45;&gt;dir_e0a84d05c80a2ef4231141dcbbeac5c8</title>
<path fill="none" stroke="black" d="M90.5,-143.91C106.68,-124.35 135.47,-92.39 166,-72 194.37,-53.04 230.61,-38.82 257.28,-29.91"/>
<polygon fill="black" stroke="black" points="258.57,-33.17 267,-26.75 256.41,-26.51 258.57,-33.17"/>
<g id="a_edge3&#45;headlabel"><a xlink:href="dir_000031_000020.html" target="_top" xlink:title="6">
<text text-anchor="middle" x="256.03" y="-34.48" font-family="Helvetica,sans-Serif" font-size="10.00">6</text>
</a>
</g>
</g>
<!-- dir_222b9efbf86b09050d83daeffd81e1d1 -->
<g id="node2" class="node">
<title>dir_222b9efbf86b09050d83daeffd81e1d1</title>
<g id="a_node2"><a xlink:href="dir_222b9efbf86b09050d83daeffd81e1d1.html" target="_top" xlink:title="memoryOptimizerStrategyLibrary">
<polygon fill="white" stroke="red" points="329.5,-180 148.5,-180 148.5,-144 329.5,-144 329.5,-180"/>
<text text-anchor="middle" x="239" y="-159.5" font-family="Helvetica,sans-Serif" font-size="10.00">memoryOptimizerStrategyLibrary</text>
</a>
</g>
</g>
<!-- dir_222b9efbf86b09050d83daeffd81e1d1&#45;&gt;dir_d44c64559bbebec7f509842c48db8b23 -->
<g id="edge4" class="edge">
<title>dir_222b9efbf86b09050d83daeffd81e1d1&#45;&gt;dir_d44c64559bbebec7f509842c48db8b23</title>
<path fill="none" stroke="black" d="M252.6,-143.7C259.12,-135.39 267.07,-125.28 274.25,-116.14"/>
<polygon fill="black" stroke="black" points="277.13,-118.13 280.56,-108.1 271.63,-113.81 277.13,-118.13"/>
<g id="a_edge4&#45;headlabel"><a xlink:href="dir_000032_000008.html" target="_top" xlink:title="9">
<text text-anchor="middle" x="277.15" y="-120.21" font-family="Helvetica,sans-Serif" font-size="10.00">9</text>
</a>
</g>
</g>
<!-- dir_5d9c764a006d252ff232a5efbbd99a46&#45;&gt;dir_d44c64559bbebec7f509842c48db8b23 -->
<g id="edge5" class="edge">
<title>dir_5d9c764a006d252ff232a5efbbd99a46&#45;&gt;dir_d44c64559bbebec7f509842c48db8b23</title>
<path fill="none" stroke="black" d="M360.62,-143.88C347.61,-135.06 332.51,-124.18 319.93,-114.59"/>
<polygon fill="black" stroke="black" points="321.72,-111.55 311.67,-108.19 317.43,-117.08 321.72,-111.55"/>
<g id="a_edge5&#45;headlabel"><a xlink:href="dir_000028_000008.html" target="_top" xlink:title="34">
<text text-anchor="middle" x="326.3" y="-109" font-family="Helvetica,sans-Serif" font-size="10.00">34</text>
</a>
</g>
</g>
<!-- dir_5d9c764a006d252ff232a5efbbd99a46&#45;&gt;dir_e0a84d05c80a2ef4231141dcbbeac5c8 -->
<g id="edge6" class="edge">
<title>dir_5d9c764a006d252ff232a5efbbd99a46&#45;&gt;dir_e0a84d05c80a2ef4231141dcbbeac5c8</title>
<path fill="none" stroke="black" d="M371.8,-143.93C357.45,-126 337.92,-97 321,-72 315.05,-63.21 308.53,-53.6 303.16,-45.01"/>
<polygon fill="black" stroke="black" points="306.01,-42.95 297.87,-36.18 300,-46.55 306.01,-42.95"/>
<g id="a_edge6&#45;headlabel"><a xlink:href="dir_000028_000020.html" target="_top" xlink:title="1">
<text text-anchor="middle" x="310.29" y="-42.08" font-family="Helvetica,sans-Serif" font-size="10.00">1</text>
</a>
</g>
</g>
<!-- dir_d44c64559bbebec7f509842c48db8b23&#45;&gt;dir_5d9c764a006d252ff232a5efbbd99a46 -->
<g id="edge11" class="edge">
<title>dir_d44c64559bbebec7f509842c48db8b23&#45;&gt;dir_5d9c764a006d252ff232a5efbbd99a46</title>
<path fill="none" stroke="black" d="M321.23,-106.67C334.65,-115.69 350.67,-127.2 363.93,-137.3"/>
<polygon fill="black" stroke="black" points="362.14,-140.34 372.19,-143.7 366.42,-134.81 362.14,-140.34"/>
<g id="a_edge11&#45;headlabel"><a xlink:href="dir_000008_000028.html" target="_top" xlink:title="2">
<text text-anchor="middle" x="357.56" y="-137.89" font-family="Helvetica,sans-Serif" font-size="10.00">2</text>
</a>
</g>
</g>
<!-- dir_d44c64559bbebec7f509842c48db8b23&#45;&gt;dir_e0a84d05c80a2ef4231141dcbbeac5c8 -->
<g id="edge12" class="edge">
<title>dir_d44c64559bbebec7f509842c48db8b23&#45;&gt;dir_e0a84d05c80a2ef4231141dcbbeac5c8</title>
<path fill="none" stroke="black" d="M288.08,-71.7C287.29,-63.98 287.06,-54.71 287.4,-46.11"/>
<polygon fill="black" stroke="black" points="290.9,-46.32 288.1,-36.1 283.92,-45.84 290.9,-46.32"/>
<g id="a_edge12&#45;headlabel"><a xlink:href="dir_000008_000020.html" target="_top" xlink:title="2">
<text text-anchor="middle" x="293.48" y="-47.61" font-family="Helvetica,sans-Serif" font-size="10.00">2</text>
</a>
</g>
</g>
<!-- dir_e0a84d05c80a2ef4231141dcbbeac5c8&#45;&gt;dir_797a213d7d01b98ef12d53b0820ea64e -->
<g id="edge9" class="edge">
<title>dir_e0a84d05c80a2ef4231141dcbbeac5c8&#45;&gt;dir_797a213d7d01b98ef12d53b0820ea64e</title>
<path fill="none" stroke="black" d="M267.73,-36.19C228.66,-61.76 155.17,-109.85 111.71,-138.29"/>
<polygon fill="black" stroke="black" points="109.63,-135.47 103.18,-143.87 113.46,-141.32 109.63,-135.47"/>
<g id="a_edge9&#45;headlabel"><a xlink:href="dir_000020_000031.html" target="_top" xlink:title="15">
<text text-anchor="middle" x="111.08" y="-128.62" font-family="Helvetica,sans-Serif" font-size="10.00">15</text>
</a>
</g>
</g>
<!-- dir_e0a84d05c80a2ef4231141dcbbeac5c8&#45;&gt;dir_222b9efbf86b09050d83daeffd81e1d1 -->
<g id="edge7" class="edge">
<title>dir_e0a84d05c80a2ef4231141dcbbeac5c8&#45;&gt;dir_222b9efbf86b09050d83daeffd81e1d1</title>
<path fill="none" stroke="black" d="M279.84,-36.15C272.31,-46.07 263.5,-59.11 258,-72 249.59,-91.71 244.76,-115.51 242.07,-133.54"/>
<polygon fill="black" stroke="black" points="238.57,-133.29 240.7,-143.67 245.51,-134.24 238.57,-133.29"/>
<g id="a_edge7&#45;headlabel"><a xlink:href="dir_000020_000032.html" target="_top" xlink:title="2">
<text text-anchor="middle" x="236.24" y="-126.85" font-family="Helvetica,sans-Serif" font-size="10.00">2</text>
</a>
</g>
</g>
<!-- dir_e0a84d05c80a2ef4231141dcbbeac5c8&#45;&gt;dir_5d9c764a006d252ff232a5efbbd99a46 -->
<g id="edge8" class="edge">
<title>dir_e0a84d05c80a2ef4231141dcbbeac5c8&#45;&gt;dir_5d9c764a006d252ff232a5efbbd99a46</title>
<path fill="none" stroke="black" d="M313.51,-36.18C321.74,-46.54 330.9,-60.02 339,-72 353.28,-93.1 369.41,-117.04 379.98,-134.77"/>
<polygon fill="black" stroke="black" points="377.22,-136.99 385.23,-143.93 383.29,-133.51 377.22,-136.99"/>
<g id="a_edge8&#45;headlabel"><a xlink:href="dir_000020_000028.html" target="_top" xlink:title="6">
<text text-anchor="middle" x="372.97" y="-132.79" font-family="Helvetica,sans-Serif" font-size="10.00">6</text>
</a>
</g>
</g>
<!-- dir_e0a84d05c80a2ef4231141dcbbeac5c8&#45;&gt;dir_d44c64559bbebec7f509842c48db8b23 -->
<g id="edge10" class="edge">
<title>dir_e0a84d05c80a2ef4231141dcbbeac5c8&#45;&gt;dir_d44c64559bbebec7f509842c48db8b23</title>
<path fill="none" stroke="black" d="M299.9,-36.1C300.7,-43.79 300.94,-53.05 300.6,-61.67"/>
<polygon fill="black" stroke="black" points="297.11,-61.48 299.92,-71.7 304.09,-61.96 297.11,-61.48"/>
<g id="a_edge10&#45;headlabel"><a xlink:href="dir_000020_000008.html" target="_top" xlink:title="431">
<text text-anchor="middle" x="294.52" y="-55.2" font-family="Helvetica,sans-Serif" font-size="10.00">431</text>
</a>
</g>
</g>
</g>
</svg>
