<?xml version="1.0" encoding="UTF-8" standalone="no"?>
<!DOCTYPE svg PUBLIC "-//W3C//DTD SVG 1.1//EN"
 "http://www.w3.org/Graphics/SVG/1.1/DTD/svg11.dtd">
<!-- Generated by graphviz version 2.43.0 (0)
 -->
<!-- Title: include/armnnSerializer Pages: 1 -->
<svg width="134pt" height="167pt"
 viewBox="0.00 0.00 134.00 167.00" xmlns="http://www.w3.org/2000/svg" xmlns:xlink="http://www.w3.org/1999/xlink">
<g id="graph0" class="graph" transform="scale(1 1) rotate(0) translate(4 163)">
<title>include/armnnSerializer</title>
<polygon fill="white" stroke="transparent" points="-4,4 -4,-163 130,-163 130,4 -4,4"/>
<g id="clust1" class="cluster">
<title>clusterdir_d44c64559bbebec7f509842c48db8b23</title>
<g id="a_clust1"><a xlink:href="dir_d44c64559bbebec7f509842c48db8b23.html" target="_top" xlink:title="include">
<polygon fill="#ddddee" stroke="black" points="8,-8 8,-151 118,-151 118,-8 8,-8"/>
<text text-anchor="middle" x="63" y="-139" font-family="Helvetica,sans-Serif" font-size="10.00">include</text>
</a>
</g>
</g>
<!-- dir_2b72cc348e06937955e62ebdd8a13436 -->
<g id="node1" class="node">
<title>dir_2b72cc348e06937955e62ebdd8a13436</title>
<g id="a_node1"><a xlink:href="dir_2b72cc348e06937955e62ebdd8a13436.html" target="_top" xlink:title="armnn">
<polygon fill="white" stroke="red" points="90,-52 36,-52 36,-16 90,-16 90,-52"/>
<text text-anchor="middle" x="63" y="-31.5" font-family="Helvetica,sans-Serif" font-size="10.00">armnn</text>
</a>
</g>
</g>
<!-- dir_e2b12e69186a743e61b71686529ee0e9 -->
<g id="node2" class="node">
<title>dir_e2b12e69186a743e61b71686529ee0e9</title>
<g id="a_node2"><a xlink:href="dir_e2b12e69186a743e61b71686529ee0e9.html" target="_top" xlink:title="armnnSerializer">
<polygon fill="#eeeeff" stroke="black" points="110,-124 16,-124 16,-88 110,-88 110,-124"/>
<text text-anchor="middle" x="63" y="-103.5" font-family="Helvetica,sans-Serif" font-size="10.00">armnnSerializer</text>
</a>
</g>
</g>
<!-- dir_e2b12e69186a743e61b71686529ee0e9&#45;&gt;dir_2b72cc348e06937955e62ebdd8a13436 -->
<g id="edge1" class="edge">
<title>dir_e2b12e69186a743e61b71686529ee0e9&#45;&gt;dir_2b72cc348e06937955e62ebdd8a13436</title>
<path fill="none" stroke="black" d="M63,-87.7C63,-79.98 63,-70.71 63,-62.11"/>
<polygon fill="black" stroke="black" points="66.5,-62.1 63,-52.1 59.5,-62.1 66.5,-62.1"/>
<g id="a_edge1&#45;headlabel"><a xlink:href="dir_000016_000009.html" target="_top" xlink:title="3">
<text text-anchor="middle" x="69.34" y="-63.2" font-family="Helvetica,sans-Serif" font-size="10.00">3</text>
</a>
</g>
</g>
</g>
</svg>
