<?xml version="1.0" encoding="UTF-8" standalone="no"?>
<!DOCTYPE svg PUBLIC "-//W3C//DTD SVG 1.1//EN"
 "http://www.w3.org/Graphics/SVG/1.1/DTD/svg11.dtd">
<!-- Generated by graphviz version 2.43.0 (0)
 -->
<!-- Title: BatchNormalizationQueueDescriptor Pages: 1 -->
<svg width="373pt" height="274pt"
 viewBox="0.00 0.00 373.00 274.00" xmlns="http://www.w3.org/2000/svg" xmlns:xlink="http://www.w3.org/1999/xlink">
<g id="graph0" class="graph" transform="scale(1 1) rotate(0) translate(4 270)">
<title>BatchNormalizationQueueDescriptor</title>
<polygon fill="white" stroke="transparent" points="-4,4 -4,-270 369,-270 369,4 -4,4"/>
<!-- Node1 -->
<g id="node1" class="node">
<title>Node1</title>
<g id="a_node1"><a xlink:title=" ">
<polygon fill="#bfbfbf" stroke="black" points="117.5,-0.5 117.5,-19.5 312.5,-19.5 312.5,-0.5 117.5,-0.5"/>
<text text-anchor="middle" x="215" y="-7.5" font-family="Helvetica,sans-Serif" font-size="10.00">BatchNormalizationQueueDescriptor</text>
</a>
</g>
</g>
<!-- Node2 -->
<g id="node2" class="node">
<title>Node2</title>
<g id="a_node2"><a xlink:href="structarmnn_1_1_queue_descriptor_with_parameters.html" target="_top" xlink:title=" ">
<polygon fill="white" stroke="black" points="40,-100.5 40,-130.5 226,-130.5 226,-100.5 40,-100.5"/>
<text text-anchor="start" x="48" y="-118.5" font-family="Helvetica,sans-Serif" font-size="10.00">QueueDescriptorWithParameters</text>
<text text-anchor="middle" x="133" y="-107.5" font-family="Helvetica,sans-Serif" font-size="10.00">&lt; BatchNormalizationDescriptor &gt;</text>
</a>
</g>
</g>
<!-- Node2&#45;&gt;Node1 -->
<g id="edge1" class="edge">
<title>Node2&#45;&gt;Node1</title>
<path fill="none" stroke="midnightblue" d="M150.83,-92C168.86,-69.24 195.79,-35.25 208.24,-19.53"/>
<polygon fill="midnightblue" stroke="midnightblue" points="147.87,-90.1 144.4,-100.11 153.36,-94.44 147.87,-90.1"/>
</g>
<!-- Node3 -->
<g id="node3" class="node">
<title>Node3</title>
<g id="a_node3"><a xlink:href="structarmnn_1_1_queue_descriptor.html" target="_top" xlink:title=" ">
<polygon fill="white" stroke="black" points="0,-246.5 0,-265.5 98,-265.5 98,-246.5 0,-246.5"/>
<text text-anchor="middle" x="49" y="-253.5" font-family="Helvetica,sans-Serif" font-size="10.00">QueueDescriptor</text>
</a>
</g>
</g>
<!-- Node3&#45;&gt;Node2 -->
<g id="edge2" class="edge">
<title>Node3&#45;&gt;Node2</title>
<path fill="none" stroke="midnightblue" d="M46.72,-235.86C45.68,-219.52 46.38,-195.88 56,-178 67.11,-157.36 88.38,-141.2 105.75,-130.63"/>
<polygon fill="midnightblue" stroke="midnightblue" points="43.28,-236.66 47.69,-246.29 50.25,-236.01 43.28,-236.66"/>
</g>
<!-- Node4 -->
<g id="node4" class="node">
<title>Node4</title>
<g id="a_node4"><a xlink:href="structarmnn_1_1_queue_descriptor_with_parameters.html" target="_top" xlink:title=" ">
<polygon fill="white" stroke="black" points="65,-178.5 65,-208.5 241,-208.5 241,-178.5 65,-178.5"/>
<text text-anchor="start" x="73" y="-196.5" font-family="Helvetica,sans-Serif" font-size="10.00">QueueDescriptorWithParameters</text>
<text text-anchor="middle" x="153" y="-185.5" font-family="Helvetica,sans-Serif" font-size="10.00">&lt; LayerDescriptor &gt;</text>
</a>
</g>
</g>
<!-- Node3&#45;&gt;Node4 -->
<g id="edge4" class="edge">
<title>Node3&#45;&gt;Node4</title>
<path fill="none" stroke="midnightblue" d="M72.58,-241.28C89.41,-231.5 111.95,-218.38 128.89,-208.53"/>
<polygon fill="midnightblue" stroke="midnightblue" points="70.78,-238.28 63.9,-246.33 74.3,-244.33 70.78,-238.28"/>
</g>
<!-- Node4&#45;&gt;Node2 -->
<g id="edge3" class="edge">
<title>Node4&#45;&gt;Node2</title>
<path fill="none" stroke="orange" stroke-dasharray="5,2" d="M140.28,-169.18C139,-166.16 137.86,-163.05 137,-160 134.33,-150.51 133.34,-139.44 133.01,-130.84"/>
<polygon fill="orange" stroke="orange" points="137.2,-170.86 144.65,-178.39 143.52,-167.86 137.2,-170.86"/>
<text text-anchor="middle" x="223.5" y="-152" font-family="Helvetica,sans-Serif" font-size="10.00"> &lt; BatchNormalizationDescriptor &gt;</text>
</g>
<!-- Node5 -->
<g id="node5" class="node">
<title>Node5</title>
<g id="a_node5"><a xlink:href="classarmnn_1_1_const_tensor_handle.html" target="_top" xlink:title=" ">
<polygon fill="white" stroke="black" points="255,-106 255,-125 365,-125 365,-106 255,-106"/>
<text text-anchor="middle" x="310" y="-113" font-family="Helvetica,sans-Serif" font-size="10.00">ConstTensorHandle</text>
</a>
</g>
</g>
<!-- Node5&#45;&gt;Node1 -->
<g id="edge5" class="edge">
<title>Node5&#45;&gt;Node1</title>
<path fill="none" stroke="#9a32cd" stroke-dasharray="5,2" d="M294.87,-98.02C274.38,-75.7 238.57,-36.67 222.81,-19.51"/>
<polygon fill="#9a32cd" stroke="#9a32cd" points="292.56,-100.68 301.9,-105.68 297.72,-95.94 292.56,-100.68"/>
<text text-anchor="middle" x="308" y="-74" font-family="Helvetica,sans-Serif" font-size="10.00"> m_Beta</text>
<text text-anchor="middle" x="308" y="-63" font-family="Helvetica,sans-Serif" font-size="10.00">m_Gamma</text>
<text text-anchor="middle" x="308" y="-52" font-family="Helvetica,sans-Serif" font-size="10.00">m_Mean</text>
<text text-anchor="middle" x="308" y="-41" font-family="Helvetica,sans-Serif" font-size="10.00">m_Variance</text>
</g>
<!-- Node6 -->
<g id="node6" class="node">
<title>Node6</title>
<g id="a_node6"><a xlink:href="classarmnn_1_1_i_tensor_handle.html" target="_top" xlink:title=" ">
<polygon fill="white" stroke="black" points="278,-184 278,-203 364,-203 364,-184 278,-184"/>
<text text-anchor="middle" x="321" y="-191" font-family="Helvetica,sans-Serif" font-size="10.00">ITensorHandle</text>
</a>
</g>
</g>
<!-- Node6&#45;&gt;Node5 -->
<g id="edge6" class="edge">
<title>Node6&#45;&gt;Node5</title>
<path fill="none" stroke="midnightblue" d="M318.28,-173.72C316.04,-158.2 312.95,-136.86 311.25,-125.12"/>
<polygon fill="midnightblue" stroke="midnightblue" points="314.84,-174.39 319.74,-183.78 321.77,-173.38 314.84,-174.39"/>
</g>
</g>
</svg>
