<?xml version="1.0" encoding="UTF-8" standalone="no"?>
<!DOCTYPE svg PUBLIC "-//W3C//DTD SVG 1.1//EN"
 "http://www.w3.org/Graphics/SVG/1.1/DTD/svg11.dtd">
<!-- Generated by graphviz version 2.43.0 (0)
 -->
<!-- Title: OptimizationViews::SubstitutionPair Pages: 1 -->
<svg width="203pt" height="185pt"
 viewBox="0.00 0.00 203.00 185.00" xmlns="http://www.w3.org/2000/svg" xmlns:xlink="http://www.w3.org/1999/xlink">
<g id="graph0" class="graph" transform="scale(1 1) rotate(0) translate(4 181)">
<title>OptimizationViews::SubstitutionPair</title>
<polygon fill="white" stroke="transparent" points="-4,4 -4,-181 199,-181 199,4 -4,4"/>
<!-- Node1 -->
<g id="node1" class="node">
<title>Node1</title>
<g id="a_node1"><a xlink:title=" ">
<polygon fill="#bfbfbf" stroke="black" points="8.5,-0.5 8.5,-30.5 123.5,-30.5 123.5,-0.5 8.5,-0.5"/>
<text text-anchor="start" x="16.5" y="-18.5" font-family="Helvetica,sans-Serif" font-size="10.00">OptimizationViews::</text>
<text text-anchor="middle" x="66" y="-7.5" font-family="Helvetica,sans-Serif" font-size="10.00">SubstitutionPair</text>
</a>
</g>
</g>
<!-- Node2 -->
<g id="node2" class="node">
<title>Node2</title>
<g id="a_node2"><a xlink:href="classarmnn_1_1_subgraph_view.html" target="_top" xlink:title="The SubgraphView class represents a subgraph of a Graph.">
<polygon fill="white" stroke="black" points="23,-89.5 23,-108.5 109,-108.5 109,-89.5 23,-89.5"/>
<text text-anchor="middle" x="66" y="-96.5" font-family="Helvetica,sans-Serif" font-size="10.00">SubgraphView</text>
</a>
</g>
</g>
<!-- Node2&#45;&gt;Node1 -->
<g id="edge1" class="edge">
<title>Node2&#45;&gt;Node1</title>
<path fill="none" stroke="#9a32cd" stroke-dasharray="5,2" d="M66,-79.23C66,-64.41 66,-44.05 66,-30.6"/>
<polygon fill="#9a32cd" stroke="#9a32cd" points="62.5,-79.28 66,-89.28 69.5,-79.28 62.5,-79.28"/>
<text text-anchor="middle" x="130.5" y="-63" font-family="Helvetica,sans-Serif" font-size="10.00"> m_ReplacementSubgraph</text>
<text text-anchor="middle" x="130.5" y="-52" font-family="Helvetica,sans-Serif" font-size="10.00">m_SubstitutableSubgraph</text>
</g>
<!-- Node3 -->
<g id="node3" class="node">
<title>Node3</title>
<g id="a_node3"><a xlink:title=" ">
<polygon fill="white" stroke="#bfbfbf" points="0,-146.5 0,-176.5 132,-176.5 132,-146.5 0,-146.5"/>
<text text-anchor="start" x="8" y="-164.5" font-family="Helvetica,sans-Serif" font-size="10.00">enable_shared_from</text>
<text text-anchor="middle" x="66" y="-153.5" font-family="Helvetica,sans-Serif" font-size="10.00">_this&lt; SubgraphView &gt;</text>
</a>
</g>
</g>
<!-- Node3&#45;&gt;Node2 -->
<g id="edge2" class="edge">
<title>Node3&#45;&gt;Node2</title>
<path fill="none" stroke="midnightblue" d="M66,-136.35C66,-126.51 66,-115.78 66,-108.54"/>
<polygon fill="midnightblue" stroke="midnightblue" points="62.5,-136.47 66,-146.47 69.5,-136.47 62.5,-136.47"/>
</g>
</g>
</svg>
