<?xml version="1.0" encoding="UTF-8" standalone="no"?>
<!DOCTYPE svg PUBLIC "-//W3C//DTD SVG 1.1//EN"
 "http://www.w3.org/Graphics/SVG/1.1/DTD/svg11.dtd">
<!-- Generated by graphviz version 2.43.0 (0)
 -->
<!-- Title: GatherQueueDescriptor Pages: 1 -->
<svg width="284pt" height="231pt"
 viewBox="0.00 0.00 284.00 231.00" xmlns="http://www.w3.org/2000/svg" xmlns:xlink="http://www.w3.org/1999/xlink">
<g id="graph0" class="graph" transform="scale(1 1) rotate(0) translate(4 227)">
<title>GatherQueueDescriptor</title>
<polygon fill="white" stroke="transparent" points="-4,4 -4,-227 280,-227 280,4 -4,4"/>
<!-- Node1 -->
<g id="node1" class="node">
<title>Node1</title>
<g id="a_node1"><a xlink:title=" ">
<polygon fill="#bfbfbf" stroke="black" points="22.5,-0.5 22.5,-19.5 153.5,-19.5 153.5,-0.5 22.5,-0.5"/>
<text text-anchor="middle" x="88" y="-7.5" font-family="Helvetica,sans-Serif" font-size="10.00">GatherQueueDescriptor</text>
</a>
</g>
</g>
<!-- Node2 -->
<g id="node2" class="node">
<title>Node2</title>
<g id="a_node2"><a xlink:href="structarmnn_1_1_queue_descriptor_with_parameters.html" target="_top" xlink:title=" ">
<polygon fill="white" stroke="black" points="0,-57.5 0,-87.5 176,-87.5 176,-57.5 0,-57.5"/>
<text text-anchor="start" x="8" y="-75.5" font-family="Helvetica,sans-Serif" font-size="10.00">QueueDescriptorWithParameters</text>
<text text-anchor="middle" x="88" y="-64.5" font-family="Helvetica,sans-Serif" font-size="10.00">&lt; GatherDescriptor &gt;</text>
</a>
</g>
</g>
<!-- Node2&#45;&gt;Node1 -->
<g id="edge1" class="edge">
<title>Node2&#45;&gt;Node1</title>
<path fill="none" stroke="midnightblue" d="M88,-47.35C88,-37.51 88,-26.78 88,-19.54"/>
<polygon fill="midnightblue" stroke="midnightblue" points="84.5,-47.47 88,-57.47 91.5,-47.47 84.5,-47.47"/>
</g>
<!-- Node3 -->
<g id="node3" class="node">
<title>Node3</title>
<g id="a_node3"><a xlink:href="structarmnn_1_1_queue_descriptor.html" target="_top" xlink:title=" ">
<polygon fill="white" stroke="black" points="35,-203.5 35,-222.5 133,-222.5 133,-203.5 35,-203.5"/>
<text text-anchor="middle" x="84" y="-210.5" font-family="Helvetica,sans-Serif" font-size="10.00">QueueDescriptor</text>
</a>
</g>
</g>
<!-- Node3&#45;&gt;Node2 -->
<g id="edge2" class="edge">
<title>Node3&#45;&gt;Node2</title>
<path fill="none" stroke="midnightblue" d="M84.54,-193.25C85.35,-165.19 86.86,-112.88 87.59,-87.73"/>
<polygon fill="midnightblue" stroke="midnightblue" points="81.04,-193.24 84.25,-203.34 88.04,-193.44 81.04,-193.24"/>
</g>
<!-- Node4 -->
<g id="node4" class="node">
<title>Node4</title>
<g id="a_node4"><a xlink:href="structarmnn_1_1_queue_descriptor_with_parameters.html" target="_top" xlink:title=" ">
<polygon fill="white" stroke="black" points="100,-135.5 100,-165.5 276,-165.5 276,-135.5 100,-135.5"/>
<text text-anchor="start" x="108" y="-153.5" font-family="Helvetica,sans-Serif" font-size="10.00">QueueDescriptorWithParameters</text>
<text text-anchor="middle" x="188" y="-142.5" font-family="Helvetica,sans-Serif" font-size="10.00">&lt; LayerDescriptor &gt;</text>
</a>
</g>
</g>
<!-- Node3&#45;&gt;Node4 -->
<g id="edge4" class="edge">
<title>Node3&#45;&gt;Node4</title>
<path fill="none" stroke="midnightblue" d="M107.58,-198.28C124.41,-188.5 146.95,-175.38 163.89,-165.53"/>
<polygon fill="midnightblue" stroke="midnightblue" points="105.78,-195.28 98.9,-203.33 109.3,-201.33 105.78,-195.28"/>
</g>
<!-- Node4&#45;&gt;Node2 -->
<g id="edge3" class="edge">
<title>Node4&#45;&gt;Node2</title>
<path fill="none" stroke="orange" stroke-dasharray="5,2" d="M161.17,-129.11C143.97,-116.04 122.07,-99.39 106.72,-87.73"/>
<polygon fill="orange" stroke="orange" points="159.11,-131.94 169.19,-135.2 163.35,-126.37 159.11,-131.94"/>
<text text-anchor="middle" x="197.5" y="-109" font-family="Helvetica,sans-Serif" font-size="10.00"> &lt; GatherDescriptor &gt;</text>
</g>
</g>
</svg>
