<?xml version="1.0" encoding="UTF-8" standalone="no"?>
<!DOCTYPE svg PUBLIC "-//W3C//DTD SVG 1.1//EN"
 "http://www.w3.org/Graphics/SVG/1.1/DTD/svg11.dtd">
<!-- Generated by graphviz version 14.0.2 (20251019.1705)
 -->
<!-- Title: src/backends/reference/workloads/Broadcast.hpp Pages: 1 -->
<svg width="693pt" height="105pt"
 viewBox="0.00 0.00 693.00 105.00" xmlns="http://www.w3.org/2000/svg" xmlns:xlink="http://www.w3.org/1999/xlink">
<g id="graph0" class="graph" transform="scale(1 1) rotate(0) translate(4 101)">
<title>src/backends/reference/workloads/Broadcast.hpp</title>
<!-- Node1 -->
<g id="Node000001" class="node">
<title>Node1</title>
<g id="a_Node000001"><a xlink:title=" ">
<polygon fill="#999999" stroke="#666666" points="386.25,-97 257,-97 257,-66.5 386.25,-66.5 386.25,-97"/>
<text xml:space="preserve" text-anchor="start" x="265" y="-83.5" font-family="Helvetica,sans-Serif" font-size="10.00">src/backends/reference</text>
<text xml:space="preserve" text-anchor="middle" x="321.62" y="-72.25" font-family="Helvetica,sans-Serif" font-size="10.00">/workloads/Broadcast.hpp</text>
</a>
</g>
</g>
<!-- Node2 -->
<g id="Node000002" class="node">
<title>Node2</title>
<g id="a_Node000002"><a xlink:href="_broadcast_8cpp.html" target="_top" xlink:title=" ">
<polygon fill="white" stroke="#666666" points="129.25,-30.5 0,-30.5 0,0 129.25,0 129.25,-30.5"/>
<text xml:space="preserve" text-anchor="start" x="8" y="-17" font-family="Helvetica,sans-Serif" font-size="10.00">src/backends/reference</text>
<text xml:space="preserve" text-anchor="middle" x="64.62" y="-5.75" font-family="Helvetica,sans-Serif" font-size="10.00">/workloads/Broadcast.cpp</text>
</a>
</g>
</g>
<!-- Node1&#45;&gt;Node2 -->
<g id="edge1_Node000001_Node000002" class="edge">
<title>Node1&#45;&gt;Node2</title>
<g id="a_edge1_Node000001_Node000002"><a xlink:title=" ">
<path fill="none" stroke="#63b8ff" d="M251.88,-63.25C211.51,-53.11 161.28,-40.51 123.01,-30.9"/>
<polygon fill="#63b8ff" stroke="#63b8ff" points="250.97,-66.63 261.52,-65.66 252.67,-59.84 250.97,-66.63"/>
</a>
</g>
</g>
<!-- Node3 -->
<g id="Node000003" class="node">
<title>Node3</title>
<g id="a_Node000003"><a xlink:href="_elementwise_function_8cpp.html" target="_top" xlink:title=" ">
<polygon fill="white" stroke="#666666" points="326,-30.5 147.25,-30.5 147.25,0 326,0 326,-30.5"/>
<text xml:space="preserve" text-anchor="start" x="155.25" y="-17" font-family="Helvetica,sans-Serif" font-size="10.00">src/backends/reference</text>
<text xml:space="preserve" text-anchor="middle" x="236.62" y="-5.75" font-family="Helvetica,sans-Serif" font-size="10.00">/workloads/ElementwiseFunction.cpp</text>
</a>
</g>
</g>
<!-- Node1&#45;&gt;Node3 -->
<g id="edge2_Node000001_Node000003" class="edge">
<title>Node1&#45;&gt;Node3</title>
<g id="a_edge2_Node000001_Node000003"><a xlink:title=" ">
<path fill="none" stroke="#63b8ff" d="M293.35,-59.29C281.03,-49.94 266.91,-39.23 255.84,-30.83"/>
<polygon fill="#63b8ff" stroke="#63b8ff" points="291.05,-61.94 301.13,-65.2 295.28,-56.37 291.05,-61.94"/>
</a>
</g>
</g>
<!-- Node4 -->
<g id="Node000004" class="node">
<title>Node4</title>
<g id="a_Node000004"><a xlink:href="_prelu_impl_8cpp.html" target="_top" xlink:title=" ">
<polygon fill="white" stroke="#666666" points="470.75,-30.5 344.5,-30.5 344.5,0 470.75,0 470.75,-30.5"/>
<text xml:space="preserve" text-anchor="start" x="352.5" y="-17" font-family="Helvetica,sans-Serif" font-size="10.00">src/backends/reference</text>
<text xml:space="preserve" text-anchor="middle" x="407.62" y="-5.75" font-family="Helvetica,sans-Serif" font-size="10.00">/workloads/PreluImpl.cpp</text>
</a>
</g>
</g>
<!-- Node1&#45;&gt;Node4 -->
<g id="edge3_Node000001_Node000004" class="edge">
<title>Node1&#45;&gt;Node4</title>
<g id="a_edge3_Node000001_Node000004"><a xlink:title=" ">
<path fill="none" stroke="#63b8ff" d="M350.23,-59.29C362.7,-49.94 376.99,-39.23 388.19,-30.83"/>
<polygon fill="#63b8ff" stroke="#63b8ff" points="348.25,-56.41 342.35,-65.21 352.45,-62.01 348.25,-56.41"/>
</a>
</g>
</g>
<!-- Node5 -->
<g id="Node000005" class="node">
<title>Node5</title>
<g id="a_Node000005"><a xlink:href="_ref_broadcast_to_workload_8cpp.html" target="_top" xlink:title=" ">
<polygon fill="white" stroke="#666666" points="684.62,-30.5 488.62,-30.5 488.62,0 684.62,0 684.62,-30.5"/>
<text xml:space="preserve" text-anchor="start" x="496.62" y="-17" font-family="Helvetica,sans-Serif" font-size="10.00">src/backends/reference</text>
<text xml:space="preserve" text-anchor="middle" x="586.62" y="-5.75" font-family="Helvetica,sans-Serif" font-size="10.00">/workloads/RefBroadcastToWorkload.cpp</text>
</a>
</g>
</g>
<!-- Node1&#45;&gt;Node5 -->
<g id="edge4_Node000001_Node000005" class="edge">
<title>Node1&#45;&gt;Node5</title>
<g id="a_edge4_Node000001_Node000005"><a xlink:title=" ">
<path fill="none" stroke="#63b8ff" d="M393.27,-63.31C434.95,-53.17 486.87,-40.53 526.42,-30.9"/>
<polygon fill="#63b8ff" stroke="#63b8ff" points="392.45,-59.91 383.56,-65.68 394.1,-66.71 392.45,-59.91"/>
</a>
</g>
</g>
</g>
</svg>
