<?xml version="1.0" encoding="UTF-8" standalone="no"?>
<!DOCTYPE svg PUBLIC "-//W3C//DTD SVG 1.1//EN"
 "http://www.w3.org/Graphics/SVG/1.1/DTD/svg11.dtd">
<!-- Generated by graphviz version 14.0.2 (20251019.1705)
 -->
<!-- Title: src/backends/cl/ClBackend.hpp Pages: 1 -->
<svg width="316pt" height="94pt"
 viewBox="0.00 0.00 316.00 94.00" xmlns="http://www.w3.org/2000/svg" xmlns:xlink="http://www.w3.org/1999/xlink">
<g id="graph0" class="graph" transform="scale(1 1) rotate(0) translate(4 89.75)">
<title>src/backends/cl/ClBackend.hpp</title>
<!-- Node1 -->
<g id="Node000001" class="node">
<title>Node1</title>
<g id="a_Node000001"><a xlink:title=" ">
<polygon fill="#999999" stroke="#666666" points="235.75,-85.75 81,-85.75 81,-66.5 235.75,-66.5 235.75,-85.75"/>
<text xml:space="preserve" text-anchor="middle" x="158.38" y="-72.25" font-family="Helvetica,sans-Serif" font-size="10.00">src/backends/cl/ClBackend.hpp</text>
</a>
</g>
</g>
<!-- Node2 -->
<g id="Node000002" class="node">
<title>Node2</title>
<g id="a_Node000002"><a xlink:href="_cl_backend_8cpp.html" target="_top" xlink:title=" ">
<polygon fill="white" stroke="#666666" points="154.75,-24.88 0,-24.88 0,-5.63 154.75,-5.63 154.75,-24.88"/>
<text xml:space="preserve" text-anchor="middle" x="77.38" y="-11.38" font-family="Helvetica,sans-Serif" font-size="10.00">src/backends/cl/ClBackend.cpp</text>
</a>
</g>
</g>
<!-- Node1&#45;&gt;Node2 -->
<g id="edge1_Node000001_Node000002" class="edge">
<title>Node1&#45;&gt;Node2</title>
<g id="a_edge1_Node000001_Node000002"><a xlink:title=" ">
<path fill="none" stroke="#63b8ff" d="M136.97,-59.56C121.92,-48.63 102.33,-34.39 89.79,-25.28"/>
<polygon fill="#63b8ff" stroke="#63b8ff" points="134.7,-62.24 144.85,-65.29 138.82,-56.58 134.7,-62.24"/>
</a>
</g>
</g>
<!-- Node3 -->
<g id="Node000003" class="node">
<title>Node3</title>
<g id="a_Node000003"><a xlink:href="_cl_registry_initializer_8cpp.html" target="_top" xlink:title=" ">
<polygon fill="white" stroke="#666666" points="307.62,-30.5 173.12,-30.5 173.12,0 307.62,0 307.62,-30.5"/>
<text xml:space="preserve" text-anchor="start" x="181.12" y="-17" font-family="Helvetica,sans-Serif" font-size="10.00">src/backends/cl/ClRegistry</text>
<text xml:space="preserve" text-anchor="middle" x="240.38" y="-5.75" font-family="Helvetica,sans-Serif" font-size="10.00">Initializer.cpp</text>
</a>
</g>
</g>
<!-- Node1&#45;&gt;Node3 -->
<g id="edge2_Node000001_Node000003" class="edge">
<title>Node1&#45;&gt;Node3</title>
<g id="a_edge2_Node000001_Node000003"><a xlink:title=" ">
<path fill="none" stroke="#63b8ff" d="M180.01,-59.59C192.44,-50.67 207.95,-39.53 220.13,-30.78"/>
<polygon fill="#63b8ff" stroke="#63b8ff" points="178.14,-56.63 172.06,-65.3 182.22,-62.31 178.14,-56.63"/>
</a>
</g>
</g>
</g>
</svg>
