<?xml version="1.0" encoding="UTF-8" standalone="no"?>
<!DOCTYPE svg PUBLIC "-//W3C//DTD SVG 1.1//EN"
 "http://www.w3.org/Graphics/SVG/1.1/DTD/svg11.dtd">
<!-- Generated by graphviz version 14.0.2 (20251019.1705)
 -->
<!-- Title: src/backends/cl/workloads/ClConvolution3dWorkload.hpp Pages: 1 -->
<svg width="503pt" height="172pt"
 viewBox="0.00 0.00 503.00 172.00" xmlns="http://www.w3.org/2000/svg" xmlns:xlink="http://www.w3.org/1999/xlink">
<g id="graph0" class="graph" transform="scale(1 1) rotate(0) translate(4 167.5)">
<title>src/backends/cl/workloads/ClConvolution3dWorkload.hpp</title>
<!-- Node1 -->
<g id="Node000001" class="node">
<title>Node1</title>
<g id="a_Node000001"><a xlink:title=" ">
<polygon fill="#999999" stroke="#666666" points="342.25,-163.5 192,-163.5 192,-133 342.25,-133 342.25,-163.5"/>
<text xml:space="preserve" text-anchor="start" x="200" y="-150" font-family="Helvetica,sans-Serif" font-size="10.00">src/backends/cl/workloads</text>
<text xml:space="preserve" text-anchor="middle" x="267.12" y="-138.75" font-family="Helvetica,sans-Serif" font-size="10.00">/ClConvolution3dWorkload.hpp</text>
</a>
</g>
</g>
<!-- Node2 -->
<g id="Node000002" class="node">
<title>Node2</title>
<g id="a_Node000002"><a xlink:href="_cl_layer_support_8cpp.html" target="_top" xlink:title=" ">
<polygon fill="white" stroke="#666666" points="174.25,-91.38 0,-91.38 0,-72.12 174.25,-72.12 174.25,-91.38"/>
<text xml:space="preserve" text-anchor="middle" x="87.12" y="-77.88" font-family="Helvetica,sans-Serif" font-size="10.00">src/backends/cl/ClLayerSupport.cpp</text>
</a>
</g>
</g>
<!-- Node1&#45;&gt;Node2 -->
<g id="edge1_Node000001_Node000002" class="edge">
<title>Node1&#45;&gt;Node2</title>
<g id="a_edge1_Node000001_Node000002"><a xlink:title=" ">
<path fill="none" stroke="#63b8ff" d="M215.66,-128.81C181.9,-116.71 139.21,-101.41 112.53,-91.85"/>
<polygon fill="#63b8ff" stroke="#63b8ff" points="214.26,-132.02 224.86,-132.1 216.62,-125.44 214.26,-132.02"/>
</a>
</g>
</g>
<!-- Node3 -->
<g id="Node000003" class="node">
<title>Node3</title>
<g id="a_Node000003"><a xlink:href="_cl_convolution3d_workload_8cpp.html" target="_top" xlink:title=" ">
<polygon fill="white" stroke="#666666" points="342.25,-97 192,-97 192,-66.5 342.25,-66.5 342.25,-97"/>
<text xml:space="preserve" text-anchor="start" x="200" y="-83.5" font-family="Helvetica,sans-Serif" font-size="10.00">src/backends/cl/workloads</text>
<text xml:space="preserve" text-anchor="middle" x="267.12" y="-72.25" font-family="Helvetica,sans-Serif" font-size="10.00">/ClConvolution3dWorkload.cpp</text>
</a>
</g>
</g>
<!-- Node1&#45;&gt;Node3 -->
<g id="edge2_Node000001_Node000003" class="edge">
<title>Node1&#45;&gt;Node3</title>
<g id="a_edge2_Node000001_Node000003"><a xlink:title=" ">
<path fill="none" stroke="#63b8ff" d="M267.12,-121.31C267.12,-113.14 267.12,-104.41 267.12,-97.33"/>
<polygon fill="#63b8ff" stroke="#63b8ff" points="263.63,-121.1 267.13,-131.1 270.63,-121.1 263.63,-121.1"/>
</a>
</g>
</g>
<!-- Node4 -->
<g id="Node000004" class="node">
<title>Node4</title>
<g id="a_Node000004"><a xlink:href="_cl_workloads_8hpp.html" target="_top" xlink:title=" ">
<polygon fill="white" stroke="#666666" points="492.25,-97 360,-97 360,-66.5 492.25,-66.5 492.25,-97"/>
<text xml:space="preserve" text-anchor="start" x="368" y="-83.5" font-family="Helvetica,sans-Serif" font-size="10.00">src/backends/cl/workloads</text>
<text xml:space="preserve" text-anchor="middle" x="426.12" y="-72.25" font-family="Helvetica,sans-Serif" font-size="10.00">/ClWorkloads.hpp</text>
</a>
</g>
</g>
<!-- Node1&#45;&gt;Node4 -->
<g id="edge3_Node000001_Node000004" class="edge">
<title>Node1&#45;&gt;Node4</title>
<g id="a_edge3_Node000001_Node000004"><a xlink:title=" ">
<path fill="none" stroke="#63b8ff" d="M313.64,-128.38C337.96,-118.51 367.3,-106.61 389.91,-97.44"/>
<polygon fill="#63b8ff" stroke="#63b8ff" points="312.56,-125.04 304.61,-132.04 315.19,-131.53 312.56,-125.04"/>
</a>
</g>
</g>
<!-- Node5 -->
<g id="Node000005" class="node">
<title>Node5</title>
<g id="a_Node000005"><a xlink:href="_cl_workload_factory_8cpp.html" target="_top" xlink:title=" ">
<polygon fill="white" stroke="#666666" points="495.25,-30.5 357,-30.5 357,0 495.25,0 495.25,-30.5"/>
<text xml:space="preserve" text-anchor="start" x="365" y="-17" font-family="Helvetica,sans-Serif" font-size="10.00">src/backends/cl/ClWorkload</text>
<text xml:space="preserve" text-anchor="middle" x="426.12" y="-5.75" font-family="Helvetica,sans-Serif" font-size="10.00">Factory.cpp</text>
</a>
</g>
</g>
<!-- Node4&#45;&gt;Node5 -->
<g id="edge4_Node000004_Node000005" class="edge">
<title>Node4&#45;&gt;Node5</title>
<g id="a_edge4_Node000004_Node000005"><a xlink:title=" ">
<path fill="none" stroke="#63b8ff" d="M426.12,-54.81C426.12,-46.64 426.12,-37.91 426.12,-30.83"/>
<polygon fill="#63b8ff" stroke="#63b8ff" points="422.63,-54.6 426.13,-64.6 429.63,-54.6 422.63,-54.6"/>
</a>
</g>
</g>
</g>
</svg>
