<?xml version="1.0" encoding="UTF-8" standalone="no"?>
<!DOCTYPE svg PUBLIC "-//W3C//DTD SVG 1.1//EN"
 "http://www.w3.org/Graphics/SVG/1.1/DTD/svg11.dtd">
<!-- Generated by graphviz version 14.0.2 (20251019.1705)
 -->
<!-- Title: src/armnnTestUtils/DataTypeUtils.hpp Pages: 1 -->
<svg width="1162pt" height="503pt"
 viewBox="0.00 0.00 1162.00 503.00" xmlns="http://www.w3.org/2000/svg" xmlns:xlink="http://www.w3.org/1999/xlink">
<g id="graph0" class="graph" transform="scale(1 1) rotate(0) translate(4 499)">
<title>src/armnnTestUtils/DataTypeUtils.hpp</title>
<!-- Node1 -->
<g id="Node000001" class="node">
<title>Node1</title>
<g id="a_Node000001"><a xlink:title=" ">
<polygon fill="#999999" stroke="#666666" points="742.62,-495 642.62,-495 642.62,-464.5 742.62,-464.5 742.62,-495"/>
<text xml:space="preserve" text-anchor="start" x="650.62" y="-481.5" font-family="Helvetica,sans-Serif" font-size="10.00">src/armnnTestUtils</text>
<text xml:space="preserve" text-anchor="middle" x="692.62" y="-470.25" font-family="Helvetica,sans-Serif" font-size="10.00">/DataTypeUtils.hpp</text>
</a>
</g>
</g>
<!-- Node2 -->
<g id="Node000002" class="node">
<title>Node2</title>
<g id="a_Node000002"><a xlink:href="_resolve_type_8hpp.html" target="_top" xlink:title=" ">
<polygon fill="white" stroke="#666666" points="249.5,-185 157.75,-185 157.75,-165.75 249.5,-165.75 249.5,-185"/>
<text xml:space="preserve" text-anchor="middle" x="203.62" y="-171.5" font-family="Helvetica,sans-Serif" font-size="10.00">ResolveType.hpp</text>
</a>
</g>
</g>
<!-- Node1&#45;&gt;Node2 -->
<g id="edge1_Node000001_Node000002" class="edge">
<title>Node1&#45;&gt;Node2</title>
<g id="a_edge1_Node000001_Node000002"><a xlink:title=" ">
<path fill="none" stroke="#63b8ff" d="M642.15,-475.08C526.58,-465.28 252.62,-433.6 252.62,-353.38 252.62,-353.38 252.62,-353.38 252.62,-290.5 252.62,-254.18 231.41,-216.25 216.9,-194.55"/>
<polygon fill="#63b8ff" stroke="#63b8ff" points="219.89,-192.72 211.3,-186.52 214.15,-196.73 219.89,-192.72"/>
</a>
</g>
</g>
<!-- Node14 -->
<g id="Node000014" class="node">
<title>Node14</title>
<g id="a_Node000014"><a xlink:title=" ">
<polygon fill="#e0e0e0" stroke="#999999" points="1118.12,-19.25 1075.12,-19.25 1075.12,0 1118.12,0 1118.12,-19.25"/>
<text xml:space="preserve" text-anchor="middle" x="1096.62" y="-5.75" font-family="Helvetica,sans-Serif" font-size="10.00">vector</text>
</a>
</g>
</g>
<!-- Node1&#45;&gt;Node14 -->
<g id="edge66_Node000001_Node000014" class="edge">
<title>Node1&#45;&gt;Node14</title>
<g id="a_edge66_Node000001_Node000014"><a xlink:title=" ">
<path fill="none" stroke="#63b8ff" d="M742.84,-475.74C862.32,-467.21 1153.62,-437.77 1153.62,-353.38 1153.62,-353.38 1153.62,-353.38 1153.62,-119.12 1153.62,-83.67 1129.48,-48.41 1112.62,-28.1"/>
<polygon fill="#63b8ff" stroke="#63b8ff" points="1115.47,-26.05 1106.27,-20.79 1110.18,-30.63 1115.47,-26.05"/>
</a>
</g>
</g>
<!-- Node25 -->
<g id="Node000025" class="node">
<title>Node25</title>
<g id="a_Node000025"><a xlink:href="_encoders_8hpp.html" target="_top" xlink:title=" ">
<polygon fill="white" stroke="#666666" points="744.5,-428.5 640.75,-428.5 640.75,-398 744.5,-398 744.5,-428.5"/>
<text xml:space="preserve" text-anchor="start" x="648.75" y="-415" font-family="Helvetica,sans-Serif" font-size="10.00">reference/workloads</text>
<text xml:space="preserve" text-anchor="middle" x="692.62" y="-403.75" font-family="Helvetica,sans-Serif" font-size="10.00">/Encoders.hpp</text>
</a>
</g>
</g>
<!-- Node1&#45;&gt;Node25 -->
<g id="edge27_Node000001_Node000025" class="edge">
<title>Node1&#45;&gt;Node25</title>
<g id="a_edge27_Node000001_Node000025"><a xlink:title=" ">
<path fill="none" stroke="#63b8ff" d="M692.62,-464.11C692.62,-457.02 692.62,-448.29 692.62,-440.13"/>
<polygon fill="#63b8ff" stroke="#63b8ff" points="696.13,-440.34 692.63,-430.34 689.13,-440.34 696.13,-440.34"/>
</a>
</g>
</g>
<!-- Node3 -->
<g id="Node000003" class="node">
<title>Node3</title>
<g id="a_Node000003"><a xlink:href="_types_8hpp.html" target="_top" xlink:title=" ">
<polygon fill="white" stroke="#666666" points="761.12,-129.75 670.12,-129.75 670.12,-110.5 761.12,-110.5 761.12,-129.75"/>
<text xml:space="preserve" text-anchor="middle" x="715.62" y="-116.25" font-family="Helvetica,sans-Serif" font-size="10.00">armnn/Types.hpp</text>
</a>
</g>
</g>
<!-- Node2&#45;&gt;Node3 -->
<g id="edge2_Node000002_Node000003" class="edge">
<title>Node2&#45;&gt;Node3</title>
<g id="a_edge2_Node000002_Node000003"><a xlink:title=" ">
<path fill="none" stroke="#63b8ff" d="M249.96,-169.56C343.83,-159.79 556.15,-137.71 658.44,-127.07"/>
<polygon fill="#63b8ff" stroke="#63b8ff" points="658.67,-130.57 668.25,-126.05 657.95,-123.61 658.67,-130.57"/>
</a>
</g>
</g>
<!-- Node19 -->
<g id="Node000019" class="node">
<title>Node19</title>
<g id="a_Node000019"><a xlink:href="_b_float16_8hpp.html" target="_top" xlink:title=" ">
<polygon fill="white" stroke="#666666" points="411.5,-129.75 337.75,-129.75 337.75,-110.5 411.5,-110.5 411.5,-129.75"/>
<text xml:space="preserve" text-anchor="middle" x="374.62" y="-116.25" font-family="Helvetica,sans-Serif" font-size="10.00">BFloat16.hpp</text>
</a>
</g>
</g>
<!-- Node2&#45;&gt;Node19 -->
<g id="edge19_Node000002_Node000019" class="edge">
<title>Node2&#45;&gt;Node19</title>
<g id="a_edge19_Node000002_Node000019"><a xlink:title=" ">
<path fill="none" stroke="#63b8ff" d="M232.63,-165.34C260.64,-156.62 303.28,-143.34 334.53,-133.61"/>
<polygon fill="#63b8ff" stroke="#63b8ff" points="335.52,-136.97 344.03,-130.65 333.44,-130.28 335.52,-136.97"/>
</a>
</g>
</g>
<!-- Node22 -->
<g id="Node000022" class="node">
<title>Node22</title>
<g id="a_Node000022"><a xlink:href="_half_8hpp.html" target="_top" xlink:title=" ">
<polygon fill="white" stroke="#666666" points="230,-129.75 177.25,-129.75 177.25,-110.5 230,-110.5 230,-129.75"/>
<text xml:space="preserve" text-anchor="middle" x="203.62" y="-116.25" font-family="Helvetica,sans-Serif" font-size="10.00">Half.hpp</text>
</a>
</g>
</g>
<!-- Node2&#45;&gt;Node22 -->
<g id="edge24_Node000002_Node000022" class="edge">
<title>Node2&#45;&gt;Node22</title>
<g id="a_edge24_Node000002_Node000022"><a xlink:title=" ">
<path fill="none" stroke="#63b8ff" d="M203.62,-165.58C203.62,-159.07 203.62,-149.92 203.62,-141.62"/>
<polygon fill="#63b8ff" stroke="#63b8ff" points="207.13,-141.62 203.63,-131.62 200.13,-141.62 207.13,-141.62"/>
</a>
</g>
</g>
<!-- Node4 -->
<g id="Node000004" class="node">
<title>Node4</title>
<g id="a_Node000004"><a xlink:title=" ">
<polygon fill="#e0e0e0" stroke="#999999" points="1049.5,-74.5 1011.75,-74.5 1011.75,-55.25 1049.5,-55.25 1049.5,-74.5"/>
<text xml:space="preserve" text-anchor="middle" x="1030.62" y="-61" font-family="Helvetica,sans-Serif" font-size="10.00">array</text>
</a>
</g>
</g>
<!-- Node3&#45;&gt;Node4 -->
<g id="edge3_Node000003_Node000004" class="edge">
<title>Node3&#45;&gt;Node4</title>
<g id="a_edge3_Node000003_Node000004"><a xlink:title=" ">
<path fill="none" stroke="#63b8ff" d="M761.25,-114.1C815.91,-107.62 910.4,-94.99 1000.23,-74.75"/>
<polygon fill="#63b8ff" stroke="#63b8ff" points="1001,-78.17 1009.97,-72.52 999.44,-71.35 1001,-78.17"/>
</a>
</g>
</g>
<!-- Node5 -->
<g id="Node000005" class="node">
<title>Node5</title>
<g id="a_Node000005"><a xlink:title=" ">
<polygon fill="#e0e0e0" stroke="#999999" points="725.62,-74.5 667.62,-74.5 667.62,-55.25 725.62,-55.25 725.62,-74.5"/>
<text xml:space="preserve" text-anchor="middle" x="696.62" y="-61" font-family="Helvetica,sans-Serif" font-size="10.00">functional</text>
</a>
</g>
</g>
<!-- Node3&#45;&gt;Node5 -->
<g id="edge4_Node000003_Node000005" class="edge">
<title>Node3&#45;&gt;Node5</title>
<g id="a_edge4_Node000003_Node000005"><a xlink:title=" ">
<path fill="none" stroke="#63b8ff" d="M712.49,-110.33C710.08,-103.59 706.67,-94.02 703.62,-85.49"/>
<polygon fill="#63b8ff" stroke="#63b8ff" points="707,-84.53 700.34,-76.28 700.4,-86.88 707,-84.53"/>
</a>
</g>
</g>
<!-- Node6 -->
<g id="Node000006" class="node">
<title>Node6</title>
<g id="a_Node000006"><a xlink:title=" ">
<polygon fill="#e0e0e0" stroke="#999999" points="549.75,-74.5 501.5,-74.5 501.5,-55.25 549.75,-55.25 549.75,-74.5"/>
<text xml:space="preserve" text-anchor="middle" x="525.62" y="-61" font-family="Helvetica,sans-Serif" font-size="10.00">stdint.h</text>
</a>
</g>
</g>
<!-- Node3&#45;&gt;Node6 -->
<g id="edge5_Node000003_Node000006" class="edge">
<title>Node3&#45;&gt;Node6</title>
<g id="a_edge5_Node000003_Node000006"><a xlink:title=" ">
<path fill="none" stroke="#63b8ff" d="M683.39,-110.09C649.38,-100.56 595.95,-85.58 560.85,-75.75"/>
<polygon fill="#63b8ff" stroke="#63b8ff" points="562.17,-72.48 551.6,-73.15 560.28,-79.22 562.17,-72.48"/>
</a>
</g>
</g>
<!-- Node7 -->
<g id="Node000007" class="node">
<title>Node7</title>
<g id="a_Node000007"><a xlink:title=" ">
<polygon fill="#e0e0e0" stroke="#999999" points="789.25,-74.5 744,-74.5 744,-55.25 789.25,-55.25 789.25,-74.5"/>
<text xml:space="preserve" text-anchor="middle" x="766.62" y="-61" font-family="Helvetica,sans-Serif" font-size="10.00">chrono</text>
</a>
</g>
</g>
<!-- Node3&#45;&gt;Node7 -->
<g id="edge6_Node000003_Node000007" class="edge">
<title>Node3&#45;&gt;Node7</title>
<g id="a_edge6_Node000003_Node000007"><a xlink:title=" ">
<path fill="none" stroke="#63b8ff" d="M724.05,-110.33C731.16,-102.9 741.57,-92.04 750.31,-82.91"/>
<polygon fill="#63b8ff" stroke="#63b8ff" points="752.58,-85.6 756.97,-75.95 747.53,-80.75 752.58,-85.6"/>
</a>
</g>
</g>
<!-- Node8 -->
<g id="Node000008" class="node">
<title>Node8</title>
<g id="a_Node000008"><a xlink:href="_backend_id_8hpp.html" target="_top" xlink:title=" ">
<polygon fill="white" stroke="#666666" points="649.25,-74.5 568,-74.5 568,-55.25 649.25,-55.25 649.25,-74.5"/>
<text xml:space="preserve" text-anchor="middle" x="608.62" y="-61" font-family="Helvetica,sans-Serif" font-size="10.00">BackendId.hpp</text>
</a>
</g>
</g>
<!-- Node3&#45;&gt;Node8 -->
<g id="edge7_Node000003_Node000008" class="edge">
<title>Node3&#45;&gt;Node8</title>
<g id="a_edge7_Node000003_Node000008"><a xlink:title=" ">
<path fill="none" stroke="#63b8ff" d="M697.47,-110.09C680.95,-101.87 656.28,-89.59 637.13,-80.06"/>
<polygon fill="#63b8ff" stroke="#63b8ff" points="638.73,-76.95 628.22,-75.63 635.61,-83.22 638.73,-76.95"/>
</a>
</g>
</g>
<!-- Node15 -->
<g id="Node000015" class="node">
<title>Node15</title>
<g id="a_Node000015"><a xlink:href="_exceptions_8hpp.html" target="_top" xlink:title=" ">
<polygon fill="white" stroke="#666666" points="993.38,-74.5 909.88,-74.5 909.88,-55.25 993.38,-55.25 993.38,-74.5"/>
<text xml:space="preserve" text-anchor="middle" x="951.62" y="-61" font-family="Helvetica,sans-Serif" font-size="10.00">Exceptions.hpp</text>
</a>
</g>
</g>
<!-- Node3&#45;&gt;Node15 -->
<g id="edge14_Node000003_Node000015" class="edge">
<title>Node3&#45;&gt;Node15</title>
<g id="a_edge14_Node000003_Node000015"><a xlink:title=" ">
<path fill="none" stroke="#63b8ff" d="M755.93,-110.03C795.81,-101.03 857,-87.23 900.33,-77.45"/>
<polygon fill="#63b8ff" stroke="#63b8ff" points="901.03,-80.88 910.01,-75.26 899.49,-74.05 901.03,-80.88"/>
</a>
</g>
</g>
<!-- Node18 -->
<g id="Node000018" class="node">
<title>Node18</title>
<g id="a_Node000018"><a xlink:href="_deprecated_8hpp.html" target="_top" xlink:title=" ">
<polygon fill="white" stroke="#666666" points="892.12,-74.5 807.12,-74.5 807.12,-55.25 892.12,-55.25 892.12,-74.5"/>
<text xml:space="preserve" text-anchor="middle" x="849.62" y="-61" font-family="Helvetica,sans-Serif" font-size="10.00">Deprecated.hpp</text>
</a>
</g>
</g>
<!-- Node3&#45;&gt;Node18 -->
<g id="edge18_Node000003_Node000018" class="edge">
<title>Node3&#45;&gt;Node18</title>
<g id="a_edge18_Node000003_Node000018"><a xlink:title=" ">
<path fill="none" stroke="#63b8ff" d="M738.36,-110.09C759.72,-101.6 791.97,-88.79 816.25,-79.14"/>
<polygon fill="#63b8ff" stroke="#63b8ff" points="817.38,-82.46 825.38,-75.51 814.79,-75.95 817.38,-82.46"/>
</a>
</g>
</g>
<!-- Node9 -->
<g id="Node000009" class="node">
<title>Node9</title>
<g id="a_Node000009"><a xlink:title=" ">
<polygon fill="#e0e0e0" stroke="#999999" points="596.25,-19.25 545,-19.25 545,0 596.25,0 596.25,-19.25"/>
<text xml:space="preserve" text-anchor="middle" x="570.62" y="-5.75" font-family="Helvetica,sans-Serif" font-size="10.00">memory</text>
</a>
</g>
</g>
<!-- Node8&#45;&gt;Node9 -->
<g id="edge8_Node000008_Node000009" class="edge">
<title>Node8&#45;&gt;Node9</title>
<g id="a_edge8_Node000008_Node000009"><a xlink:title=" ">
<path fill="none" stroke="#63b8ff" d="M602.35,-55.08C597.27,-47.96 589.93,-37.68 583.59,-28.8"/>
<polygon fill="#63b8ff" stroke="#63b8ff" points="586.57,-26.95 577.92,-20.84 580.88,-31.01 586.57,-26.95"/>
</a>
</g>
</g>
<!-- Node10 -->
<g id="Node000010" class="node">
<title>Node10</title>
<g id="a_Node000010"><a xlink:title=" ">
<polygon fill="#e0e0e0" stroke="#999999" points="397.25,-19.25 346,-19.25 346,0 397.25,0 397.25,-19.25"/>
<text xml:space="preserve" text-anchor="middle" x="371.62" y="-5.75" font-family="Helvetica,sans-Serif" font-size="10.00">ostream</text>
</a>
</g>
</g>
<!-- Node8&#45;&gt;Node10 -->
<g id="edge9_Node000008_Node000010" class="edge">
<title>Node8&#45;&gt;Node10</title>
<g id="a_edge9_Node000008_Node000010"><a xlink:title=" ">
<path fill="none" stroke="#63b8ff" d="M568.15,-54.78C523.47,-44.74 452.13,-28.71 408.8,-18.98"/>
<polygon fill="#63b8ff" stroke="#63b8ff" points="409.64,-15.58 399.11,-16.8 408.1,-22.41 409.64,-15.58"/>
</a>
</g>
</g>
<!-- Node11 -->
<g id="Node000011" class="node">
<title>Node11</title>
<g id="a_Node000011"><a xlink:title=" ">
<polygon fill="#e0e0e0" stroke="#999999" points="507.38,-19.25 477.88,-19.25 477.88,0 507.38,0 507.38,-19.25"/>
<text xml:space="preserve" text-anchor="middle" x="492.62" y="-5.75" font-family="Helvetica,sans-Serif" font-size="10.00">set</text>
</a>
</g>
</g>
<!-- Node8&#45;&gt;Node11 -->
<g id="edge10_Node000008_Node000011" class="edge">
<title>Node8&#45;&gt;Node11</title>
<g id="a_edge10_Node000008_Node000011"><a xlink:title=" ">
<path fill="none" stroke="#63b8ff" d="M588.95,-54.84C569.35,-45.85 539.19,-32 517.85,-22.2"/>
<polygon fill="#63b8ff" stroke="#63b8ff" points="519.52,-19.12 508.97,-18.13 516.6,-25.48 519.52,-19.12"/>
</a>
</g>
</g>
<!-- Node12 -->
<g id="Node000012" class="node">
<title>Node12</title>
<g id="a_Node000012"><a xlink:title=" ">
<polygon fill="#e0e0e0" stroke="#999999" points="820.62,-19.25 780.62,-19.25 780.62,0 820.62,0 820.62,-19.25"/>
<text xml:space="preserve" text-anchor="middle" x="800.62" y="-5.75" font-family="Helvetica,sans-Serif" font-size="10.00">string</text>
</a>
</g>
</g>
<!-- Node8&#45;&gt;Node12 -->
<g id="edge11_Node000008_Node000012" class="edge">
<title>Node8&#45;&gt;Node12</title>
<g id="a_edge11_Node000008_Node000012"><a xlink:title=" ">
<path fill="none" stroke="#63b8ff" d="M641.2,-54.84C676.95,-44.92 733.96,-29.11 769.24,-19.33"/>
<polygon fill="#63b8ff" stroke="#63b8ff" points="770.15,-22.71 778.85,-16.66 768.28,-15.96 770.15,-22.71"/>
</a>
</g>
</g>
<!-- Node13 -->
<g id="Node000013" class="node">
<title>Node13</title>
<g id="a_Node000013"><a xlink:title=" ">
<polygon fill="#e0e0e0" stroke="#999999" points="691.38,-19.25 613.88,-19.25 613.88,0 691.38,0 691.38,-19.25"/>
<text xml:space="preserve" text-anchor="middle" x="652.62" y="-5.75" font-family="Helvetica,sans-Serif" font-size="10.00">unordered_set</text>
</a>
</g>
</g>
<!-- Node8&#45;&gt;Node13 -->
<g id="edge12_Node000008_Node000013" class="edge">
<title>Node8&#45;&gt;Node13</title>
<g id="a_edge12_Node000008_Node000013"><a xlink:title=" ">
<path fill="none" stroke="#63b8ff" d="M615.89,-55.08C621.91,-47.8 630.64,-37.23 638.08,-28.23"/>
<polygon fill="#63b8ff" stroke="#63b8ff" points="640.57,-30.71 644.24,-20.78 635.17,-26.26 640.57,-30.71"/>
</a>
</g>
</g>
<!-- Node8&#45;&gt;Node14 -->
<g id="edge13_Node000008_Node000014" class="edge">
<title>Node8&#45;&gt;Node14</title>
<g id="a_edge13_Node000008_Node000014"><a xlink:title=" ">
<path fill="none" stroke="#63b8ff" d="M649.52,-56.58C652.6,-56.1 655.66,-55.65 658.62,-55.25 817.51,-33.61 858.14,-35.95 1017.62,-19.25 1032.74,-17.67 1049.47,-15.85 1063.64,-14.29"/>
<polygon fill="#63b8ff" stroke="#63b8ff" points="1063.77,-17.8 1073.33,-13.22 1063.01,-10.84 1063.77,-17.8"/>
</a>
</g>
</g>
<!-- Node15&#45;&gt;Node12 -->
<g id="edge17_Node000015_Node000012" class="edge">
<title>Node15&#45;&gt;Node12</title>
<g id="a_edge17_Node000015_Node000012"><a xlink:title=" ">
<path fill="none" stroke="#63b8ff" d="M926.01,-54.84C899.98,-45.66 859.63,-31.43 831.76,-21.61"/>
<polygon fill="#63b8ff" stroke="#63b8ff" points="833.05,-18.35 822.46,-18.32 830.72,-24.95 833.05,-18.35"/>
</a>
</g>
</g>
<!-- Node16 -->
<g id="Node000016" class="node">
<title>Node16</title>
<g id="a_Node000016"><a xlink:title=" ">
<polygon fill="#e0e0e0" stroke="#999999" points="932.25,-19.25 881,-19.25 881,0 932.25,0 932.25,-19.25"/>
<text xml:space="preserve" text-anchor="middle" x="906.62" y="-5.75" font-family="Helvetica,sans-Serif" font-size="10.00">sstream</text>
</a>
</g>
</g>
<!-- Node15&#45;&gt;Node16 -->
<g id="edge15_Node000015_Node000016" class="edge">
<title>Node15&#45;&gt;Node16</title>
<g id="a_edge15_Node000015_Node000016"><a xlink:title=" ">
<path fill="none" stroke="#63b8ff" d="M944.19,-55.08C938.04,-47.8 929.11,-37.23 921.5,-28.23"/>
<polygon fill="#63b8ff" stroke="#63b8ff" points="924.32,-26.14 915.19,-20.77 918.98,-30.66 924.32,-26.14"/>
</a>
</g>
</g>
<!-- Node17 -->
<g id="Node000017" class="node">
<title>Node17</title>
<g id="a_Node000017"><a xlink:title=" ">
<polygon fill="#e0e0e0" stroke="#999999" points="1009,-19.25 950.25,-19.25 950.25,0 1009,0 1009,-19.25"/>
<text xml:space="preserve" text-anchor="middle" x="979.62" y="-5.75" font-family="Helvetica,sans-Serif" font-size="10.00">stdexcept</text>
</a>
</g>
</g>
<!-- Node15&#45;&gt;Node17 -->
<g id="edge16_Node000015_Node000017" class="edge">
<title>Node15&#45;&gt;Node17</title>
<g id="a_edge16_Node000015_Node000017"><a xlink:title=" ">
<path fill="none" stroke="#63b8ff" d="M956.25,-55.08C959.87,-48.19 965.05,-38.34 969.62,-29.66"/>
<polygon fill="#63b8ff" stroke="#63b8ff" points="972.64,-31.43 974.2,-20.95 966.44,-28.17 972.64,-31.43"/>
</a>
</g>
</g>
<!-- Node19&#45;&gt;Node6 -->
<g id="edge23_Node000019_Node000006" class="edge">
<title>Node19&#45;&gt;Node6</title>
<g id="a_edge23_Node000019_Node000006"><a xlink:title=" ">
<path fill="none" stroke="#63b8ff" d="M400.24,-110.09C425.01,-101.36 462.76,-88.04 490.37,-78.31"/>
<polygon fill="#63b8ff" stroke="#63b8ff" points="491.44,-81.64 499.71,-75.01 489.12,-75.04 491.44,-81.64"/>
</a>
</g>
</g>
<!-- Node19&#45;&gt;Node10 -->
<g id="edge20_Node000019_Node000010" class="edge">
<title>Node19&#45;&gt;Node10</title>
<g id="a_edge20_Node000019_Node000010"><a xlink:title=" ">
<path fill="none" stroke="#63b8ff" d="M374.38,-110.25C373.9,-93 372.84,-54.58 372.18,-30.81"/>
<polygon fill="#63b8ff" stroke="#63b8ff" points="375.69,-31.04 371.92,-21.14 368.69,-31.23 375.69,-31.04"/>
</a>
</g>
</g>
<!-- Node20 -->
<g id="Node000020" class="node">
<title>Node20</title>
<g id="a_Node000020"><a xlink:title=" ">
<polygon fill="#e0e0e0" stroke="#999999" points="343.12,-74.5 300.12,-74.5 300.12,-55.25 343.12,-55.25 343.12,-74.5"/>
<text xml:space="preserve" text-anchor="middle" x="321.62" y="-61" font-family="Helvetica,sans-Serif" font-size="10.00">cmath</text>
</a>
</g>
</g>
<!-- Node19&#45;&gt;Node20 -->
<g id="edge21_Node000019_Node000020" class="edge">
<title>Node19&#45;&gt;Node20</title>
<g id="a_edge21_Node000019_Node000020"><a xlink:title=" ">
<path fill="none" stroke="#63b8ff" d="M365.87,-110.33C358.48,-102.9 347.66,-92.04 338.58,-82.91"/>
<polygon fill="#63b8ff" stroke="#63b8ff" points="341.17,-80.55 331.63,-75.93 336.21,-85.49 341.17,-80.55"/>
</a>
</g>
</g>
<!-- Node21 -->
<g id="Node000021" class="node">
<title>Node21</title>
<g id="a_Node000021"><a xlink:title=" ">
<polygon fill="#e0e0e0" stroke="#999999" points="445.25,-74.5 400,-74.5 400,-55.25 445.25,-55.25 445.25,-74.5"/>
<text xml:space="preserve" text-anchor="middle" x="422.62" y="-61" font-family="Helvetica,sans-Serif" font-size="10.00">cstring</text>
</a>
</g>
</g>
<!-- Node19&#45;&gt;Node21 -->
<g id="edge22_Node000019_Node000021" class="edge">
<title>Node19&#45;&gt;Node21</title>
<g id="a_edge22_Node000019_Node000021"><a xlink:title=" ">
<path fill="none" stroke="#63b8ff" d="M382.55,-110.33C389.18,-102.98 398.84,-92.26 407.01,-83.19"/>
<polygon fill="#63b8ff" stroke="#63b8ff" points="409.42,-85.75 413.51,-75.98 404.22,-81.07 409.42,-85.75"/>
</a>
</g>
</g>
<!-- Node23 -->
<g id="Node000023" class="node">
<title>Node23</title>
<g id="a_Node000023"><a xlink:title=" ">
<polygon fill="#e0e0e0" stroke="#999999" points="155.5,-74.5 93.75,-74.5 93.75,-55.25 155.5,-55.25 155.5,-74.5"/>
<text xml:space="preserve" text-anchor="middle" x="124.62" y="-61" font-family="Helvetica,sans-Serif" font-size="10.00">type_traits</text>
</a>
</g>
</g>
<!-- Node22&#45;&gt;Node23 -->
<g id="edge25_Node000022_Node000023" class="edge">
<title>Node22&#45;&gt;Node23</title>
<g id="a_edge25_Node000022_Node000023"><a xlink:title=" ">
<path fill="none" stroke="#63b8ff" d="M190.22,-110.09C178.53,-102.21 161.32,-90.61 147.46,-81.27"/>
<polygon fill="#63b8ff" stroke="#63b8ff" points="149.6,-78.49 139.35,-75.8 145.68,-84.29 149.6,-78.49"/>
</a>
</g>
</g>
<!-- Node24 -->
<g id="Node000024" class="node">
<title>Node24</title>
<g id="a_Node000024"><a xlink:title=" ">
<polygon fill="#e0e0e0" stroke="#999999" points="243.25,-74.5 174,-74.5 174,-55.25 243.25,-55.25 243.25,-74.5"/>
<text xml:space="preserve" text-anchor="middle" x="208.62" y="-61" font-family="Helvetica,sans-Serif" font-size="10.00">half/half.hpp</text>
</a>
</g>
</g>
<!-- Node22&#45;&gt;Node24 -->
<g id="edge26_Node000022_Node000024" class="edge">
<title>Node22&#45;&gt;Node24</title>
<g id="a_edge26_Node000022_Node000024"><a xlink:title=" ">
<path fill="none" stroke="#63b8ff" d="M204.45,-110.33C205.07,-103.74 205.94,-94.46 206.73,-86.07"/>
<polygon fill="#63b8ff" stroke="#63b8ff" points="210.19,-86.65 207.64,-76.37 203.22,-86 210.19,-86.65"/>
</a>
</g>
</g>
<!-- Node26 -->
<g id="Node000026" class="node">
<title>Node26</title>
<g id="a_Node000026"><a xlink:href="_base_iterator_8hpp.html" target="_top" xlink:title=" ">
<polygon fill="white" stroke="#666666" points="574.25,-362 487,-362 487,-342.75 574.25,-342.75 574.25,-362"/>
<text xml:space="preserve" text-anchor="middle" x="530.62" y="-348.5" font-family="Helvetica,sans-Serif" font-size="10.00">BaseIterator.hpp</text>
</a>
</g>
</g>
<!-- Node25&#45;&gt;Node26 -->
<g id="edge28_Node000025_Node000026" class="edge">
<title>Node25&#45;&gt;Node26</title>
<g id="a_edge28_Node000025_Node000026"><a xlink:title=" ">
<path fill="none" stroke="#63b8ff" d="M652.16,-397.55C625.71,-387.93 591.49,-375.5 566.11,-366.27"/>
<polygon fill="#63b8ff" stroke="#63b8ff" points="567.49,-363.05 556.89,-362.92 565.09,-369.63 567.49,-363.05"/>
</a>
</g>
</g>
<!-- Node38 -->
<g id="Node000038" class="node">
<title>Node38</title>
<g id="a_Node000038"><a xlink:href="_tensor_utils_8hpp.html" target="_top" xlink:title=" ">
<polygon fill="white" stroke="#666666" points="882.88,-301.12 748.38,-301.12 748.38,-281.88 882.88,-281.88 882.88,-301.12"/>
<text xml:space="preserve" text-anchor="middle" x="815.62" y="-287.62" font-family="Helvetica,sans-Serif" font-size="10.00">armnnUtils/TensorUtils.hpp</text>
</a>
</g>
</g>
<!-- Node25&#45;&gt;Node38 -->
<g id="edge65_Node000025_Node000038" class="edge">
<title>Node25&#45;&gt;Node38</title>
<g id="a_edge65_Node000025_Node000038"><a xlink:title=" ">
<path fill="none" stroke="#63b8ff" d="M707.71,-397.57C730.67,-375.21 774.29,-332.74 798.45,-309.22"/>
<polygon fill="#63b8ff" stroke="#63b8ff" points="800.58,-312.03 805.31,-302.54 795.7,-307.01 800.58,-312.03"/>
</a>
</g>
</g>
<!-- Node26&#45;&gt;Node2 -->
<g id="edge64_Node000026_Node000002" class="edge">
<title>Node26&#45;&gt;Node2</title>
<g id="a_edge64_Node000026_Node000002"><a xlink:title=" ">
<path fill="none" stroke="#63b8ff" d="M504.04,-342.33C480.78,-334.08 446.33,-321.03 417.62,-306.75 344.68,-270.46 263.94,-217.5 225.85,-191.68"/>
<polygon fill="#63b8ff" stroke="#63b8ff" points="228.18,-189.03 217.94,-186.29 224.23,-194.81 228.18,-189.03"/>
</a>
</g>
</g>
<!-- Node27 -->
<g id="Node000027" class="node">
<title>Node27</title>
<g id="a_Node000027"><a xlink:href="_types_utils_8hpp.html" target="_top" xlink:title=" ">
<polygon fill="white" stroke="#666666" points="640.25,-240.25 529,-240.25 529,-221 640.25,-221 640.25,-240.25"/>
<text xml:space="preserve" text-anchor="middle" x="584.62" y="-226.75" font-family="Helvetica,sans-Serif" font-size="10.00">armnn/TypesUtils.hpp</text>
</a>
</g>
</g>
<!-- Node26&#45;&gt;Node27 -->
<g id="edge29_Node000026_Node000027" class="edge">
<title>Node26&#45;&gt;Node27</title>
<g id="a_edge29_Node000026_Node000027"><a xlink:title=" ">
<path fill="none" stroke="#63b8ff" d="M537.34,-342.55C543.73,-333.82 553.29,-319.9 559.62,-306.75 568.28,-288.77 575.16,-267.02 579.49,-251.56"/>
<polygon fill="#63b8ff" stroke="#63b8ff" points="582.8,-252.73 582.02,-242.16 576.04,-250.91 582.8,-252.73"/>
</a>
</g>
</g>
<!-- Node32 -->
<g id="Node000032" class="node">
<title>Node32</title>
<g id="a_Node000032"><a xlink:href="_numeric_cast_8hpp.html" target="_top" xlink:title=" ">
<polygon fill="white" stroke="#666666" points="190,-301.12 41.25,-301.12 41.25,-281.88 190,-281.88 190,-301.12"/>
<text xml:space="preserve" text-anchor="middle" x="115.62" y="-287.62" font-family="Helvetica,sans-Serif" font-size="10.00">armnn/utility/NumericCast.hpp</text>
</a>
</g>
</g>
<!-- Node26&#45;&gt;Node32 -->
<g id="edge50_Node000026_Node000032" class="edge">
<title>Node26&#45;&gt;Node32</title>
<g id="a_edge50_Node000026_Node000032"><a xlink:title=" ">
<path fill="none" stroke="#63b8ff" d="M486.61,-345.13C416.23,-335.15 277.54,-315.47 191.11,-303.21"/>
<polygon fill="#63b8ff" stroke="#63b8ff" points="191.68,-299.76 181.29,-301.82 190.7,-306.69 191.68,-299.76"/>
</a>
</g>
</g>
<!-- Node36 -->
<g id="Node000036" class="node">
<title>Node36</title>
<g id="a_Node000036"><a xlink:href="_floating_point_converter_8hpp.html" target="_top" xlink:title=" ">
<polygon fill="white" stroke="#666666" points="550.25,-306.75 427,-306.75 427,-276.25 550.25,-276.25 550.25,-306.75"/>
<text xml:space="preserve" text-anchor="start" x="435" y="-293.25" font-family="Helvetica,sans-Serif" font-size="10.00">armnnUtils/FloatingPoint</text>
<text xml:space="preserve" text-anchor="middle" x="488.62" y="-282" font-family="Helvetica,sans-Serif" font-size="10.00">Converter.hpp</text>
</a>
</g>
</g>
<!-- Node26&#45;&gt;Node36 -->
<g id="edge55_Node000026_Node000036" class="edge">
<title>Node26&#45;&gt;Node36</title>
<g id="a_edge55_Node000026_Node000036"><a xlink:title=" ">
<path fill="none" stroke="#63b8ff" d="M524.25,-342.43C519.27,-335.46 512.13,-325.45 505.54,-316.21"/>
<polygon fill="#63b8ff" stroke="#63b8ff" points="508.53,-314.37 499.87,-308.26 502.83,-318.44 508.53,-314.37"/>
</a>
</g>
</g>
<!-- Node26&#45;&gt;Node38 -->
<g id="edge57_Node000026_Node000038" class="edge">
<title>Node26&#45;&gt;Node38</title>
<g id="a_edge57_Node000026_Node000038"><a xlink:title=" ">
<path fill="none" stroke="#63b8ff" d="M574.53,-342.3C624.53,-331.98 706.3,-315.08 760.53,-303.88"/>
<polygon fill="#63b8ff" stroke="#63b8ff" points="761.1,-307.34 770.19,-301.89 759.68,-300.48 761.1,-307.34"/>
</a>
</g>
</g>
<!-- Node27&#45;&gt;Node3 -->
<g id="edge44_Node000027_Node000003" class="edge">
<title>Node27&#45;&gt;Node3</title>
<g id="a_edge44_Node000027_Node000003"><a xlink:title=" ">
<path fill="none" stroke="#63b8ff" d="M595.35,-220.75C617.42,-202.47 668.2,-160.4 696.21,-137.21"/>
<polygon fill="#63b8ff" stroke="#63b8ff" points="698.12,-140.17 703.59,-131.09 693.66,-134.78 698.12,-140.17"/>
</a>
</g>
</g>
<!-- Node27&#45;&gt;Node6 -->
<g id="edge45_Node000027_Node000006" class="edge">
<title>Node27&#45;&gt;Node6</title>
<g id="a_edge45_Node000027_Node000006"><a xlink:title=" ">
<path fill="none" stroke="#63b8ff" d="M581.45,-220.82C572.25,-195.28 545.38,-120.7 532.57,-85.15"/>
<polygon fill="#63b8ff" stroke="#63b8ff" points="536.01,-84.37 529.33,-76.15 529.42,-86.74 536.01,-84.37"/>
</a>
</g>
</g>
<!-- Node27&#45;&gt;Node8 -->
<g id="edge30_Node000027_Node000008" class="edge">
<title>Node27&#45;&gt;Node8</title>
<g id="a_edge30_Node000027_Node000008"><a xlink:title=" ">
<path fill="none" stroke="#63b8ff" d="M585.92,-220.82C589.63,-195.5 600.4,-122 605.66,-86.09"/>
<polygon fill="#63b8ff" stroke="#63b8ff" points="609.12,-86.62 607.11,-76.22 602.2,-85.61 609.12,-86.62"/>
</a>
</g>
</g>
<!-- Node27&#45;&gt;Node10 -->
<g id="edge47_Node000027_Node000010" class="edge">
<title>Node27&#45;&gt;Node10</title>
<g id="a_edge47_Node000027_Node000010"><a xlink:title=" ">
<path fill="none" stroke="#63b8ff" d="M529.68,-220.52C479.06,-211.59 408.08,-197.52 382.62,-185 348.3,-168.11 339.76,-160.22 316.62,-129.75 295.51,-101.93 273.94,-85.37 291.62,-55.25 301.14,-39.05 318.91,-28.3 335.28,-21.42"/>
<polygon fill="#63b8ff" stroke="#63b8ff" points="336.23,-24.8 344.33,-17.97 333.74,-18.26 336.23,-24.8"/>
</a>
</g>
</g>
<!-- Node27&#45;&gt;Node11 -->
<g id="edge48_Node000027_Node000011" class="edge">
<title>Node27&#45;&gt;Node11</title>
<g id="a_edge48_Node000027_Node000011"><a xlink:title=" ">
<path fill="none" stroke="#63b8ff" d="M578.46,-220.69C559.28,-192.69 501.44,-106.66 492.62,-74.5 488.71,-60.22 488.88,-43.47 489.94,-30.7"/>
<polygon fill="#63b8ff" stroke="#63b8ff" points="493.39,-31.33 491.01,-21 486.43,-30.56 493.39,-31.33"/>
</a>
</g>
</g>
<!-- Node27&#45;&gt;Node15 -->
<g id="edge31_Node000027_Node000015" class="edge">
<title>Node27&#45;&gt;Node15</title>
<g id="a_edge31_Node000027_Node000015"><a xlink:title=" ">
<path fill="none" stroke="#63b8ff" d="M602.29,-220.61C642.85,-200.02 746.01,-148.44 834.62,-110.5 861.42,-99.03 892.24,-87.33 915.51,-78.8"/>
<polygon fill="#63b8ff" stroke="#63b8ff" points="916.67,-82.1 924.86,-75.39 914.27,-75.52 916.67,-82.1"/>
</a>
</g>
</g>
<!-- Node27&#45;&gt;Node20 -->
<g id="edge46_Node000027_Node000020" class="edge">
<title>Node27&#45;&gt;Node20</title>
<g id="a_edge46_Node000027_Node000020"><a xlink:title=" ">
<path fill="none" stroke="#63b8ff" d="M548.6,-220.51C484.87,-203.61 356.31,-165.86 328.62,-129.75 319.17,-117.41 317.93,-99.58 318.77,-85.89"/>
<polygon fill="#63b8ff" stroke="#63b8ff" points="322.22,-86.58 319.79,-76.27 315.26,-85.84 322.22,-86.58"/>
</a>
</g>
</g>
<!-- Node27&#45;&gt;Node23 -->
<g id="edge49_Node000027_Node000023" class="edge">
<title>Node27&#45;&gt;Node23</title>
<g id="a_edge49_Node000027_Node000023"><a xlink:title=" ">
<path fill="none" stroke="#63b8ff" d="M528.62,-222.07C525.58,-221.7 522.57,-221.34 519.62,-221 437.33,-211.55 210.11,-240.51 148.62,-185 121.04,-160.09 120.05,-113.05 122.12,-86.14"/>
<polygon fill="#63b8ff" stroke="#63b8ff" points="125.6,-86.53 123.13,-76.23 118.64,-85.83 125.6,-86.53"/>
</a>
</g>
</g>
<!-- Node28 -->
<g id="Node000028" class="node">
<title>Node28</title>
<g id="a_Node000028"><a xlink:href="_tensor_8hpp.html" target="_top" xlink:title=" ">
<polygon fill="white" stroke="#666666" points="937.25,-185 844,-185 844,-165.75 937.25,-165.75 937.25,-185"/>
<text xml:space="preserve" text-anchor="middle" x="890.62" y="-171.5" font-family="Helvetica,sans-Serif" font-size="10.00">armnn/Tensor.hpp</text>
</a>
</g>
</g>
<!-- Node27&#45;&gt;Node28 -->
<g id="edge32_Node000027_Node000028" class="edge">
<title>Node27&#45;&gt;Node28</title>
<g id="a_edge32_Node000027_Node000028"><a xlink:title=" ">
<path fill="none" stroke="#63b8ff" d="M636.88,-220.53C691.18,-211.08 775.95,-196.33 832.37,-186.51"/>
<polygon fill="#63b8ff" stroke="#63b8ff" points="832.86,-189.98 842.11,-184.82 831.66,-183.08 832.86,-189.98"/>
</a>
</g>
</g>
<!-- Node28&#45;&gt;Node3 -->
<g id="edge38_Node000028_Node000003" class="edge">
<title>Node28&#45;&gt;Node3</title>
<g id="a_edge38_Node000028_Node000003"><a xlink:title=" ">
<path fill="none" stroke="#63b8ff" d="M860.94,-165.34C832.15,-156.58 788.26,-143.23 756.24,-133.48"/>
<polygon fill="#63b8ff" stroke="#63b8ff" points="757.49,-130.21 746.9,-130.64 755.45,-136.9 757.49,-130.21"/>
</a>
</g>
</g>
<!-- Node28&#45;&gt;Node4 -->
<g id="edge40_Node000028_Node000004" class="edge">
<title>Node28&#45;&gt;Node4</title>
<g id="a_edge40_Node000028_Node000004"><a xlink:title=" ">
<path fill="none" stroke="#63b8ff" d="M902.08,-165.5C925.77,-147.14 980.41,-104.79 1010.26,-81.66"/>
<polygon fill="#63b8ff" stroke="#63b8ff" points="1012.05,-84.7 1017.81,-75.8 1007.77,-79.16 1012.05,-84.7"/>
</a>
</g>
</g>
<!-- Node28&#45;&gt;Node6 -->
<g id="edge39_Node000028_Node000006" class="edge">
<title>Node28&#45;&gt;Node6</title>
<g id="a_edge39_Node000028_Node000006"><a xlink:title=" ">
<path fill="none" stroke="#63b8ff" d="M843.72,-168.69C796.82,-162.2 723.04,-149.81 661.62,-129.75 621.74,-116.72 578.29,-94.85 551.5,-80.39"/>
<polygon fill="#63b8ff" stroke="#63b8ff" points="553.21,-77.33 542.75,-75.6 549.85,-83.48 553.21,-77.33"/>
</a>
</g>
</g>
<!-- Node28&#45;&gt;Node14 -->
<g id="edge42_Node000028_Node000014" class="edge">
<title>Node28&#45;&gt;Node14</title>
<g id="a_edge42_Node000028_Node000014"><a xlink:title=" ">
<path fill="none" stroke="#63b8ff" d="M913.93,-165.35C949.04,-150.79 1015.95,-119.14 1058.62,-74.5 1071.16,-61.38 1081.39,-43.4 1088.07,-29.86"/>
<polygon fill="#63b8ff" stroke="#63b8ff" points="1091.1,-31.64 1092.17,-21.1 1084.76,-28.67 1091.1,-31.64"/>
</a>
</g>
</g>
<!-- Node28&#45;&gt;Node15 -->
<g id="edge33_Node000028_Node000015" class="edge">
<title>Node28&#45;&gt;Node15</title>
<g id="a_edge33_Node000028_Node000015"><a xlink:title=" ">
<path fill="none" stroke="#63b8ff" d="M898.65,-165.28C906.04,-156.59 917,-142.89 924.62,-129.75 932.86,-115.56 939.97,-98.37 944.83,-85.41"/>
<polygon fill="#63b8ff" stroke="#63b8ff" points="948.01,-86.91 948.11,-76.31 941.43,-84.53 948.01,-86.91"/>
</a>
</g>
</g>
<!-- Node29 -->
<g id="Node000029" class="node">
<title>Node29</title>
<g id="a_Node000029"><a xlink:href="_optional_8hpp.html" target="_top" xlink:title=" ">
<polygon fill="white" stroke="#666666" points="500,-129.75 429.25,-129.75 429.25,-110.5 500,-110.5 500,-129.75"/>
<text xml:space="preserve" text-anchor="middle" x="464.62" y="-116.25" font-family="Helvetica,sans-Serif" font-size="10.00">Optional.hpp</text>
</a>
</g>
</g>
<!-- Node28&#45;&gt;Node29 -->
<g id="edge34_Node000028_Node000029" class="edge">
<title>Node28&#45;&gt;Node29</title>
<g id="a_edge34_Node000028_Node000029"><a xlink:title=" ">
<path fill="none" stroke="#63b8ff" d="M843.82,-168.52C761.95,-158.29 593.68,-137.26 511.65,-127"/>
<polygon fill="#63b8ff" stroke="#63b8ff" points="512.29,-123.56 501.94,-125.79 511.43,-130.5 512.29,-123.56"/>
</a>
</g>
</g>
<!-- Node30 -->
<g id="Node000030" class="node">
<title>Node30</title>
<g id="a_Node000030"><a xlink:title=" ">
<polygon fill="#e0e0e0" stroke="#999999" points="915.75,-129.75 843.5,-129.75 843.5,-110.5 915.75,-110.5 915.75,-129.75"/>
<text xml:space="preserve" text-anchor="middle" x="879.62" y="-116.25" font-family="Helvetica,sans-Serif" font-size="10.00">initializer_list</text>
</a>
</g>
</g>
<!-- Node28&#45;&gt;Node30 -->
<g id="edge41_Node000028_Node000030" class="edge">
<title>Node28&#45;&gt;Node30</title>
<g id="a_edge41_Node000028_Node000030"><a xlink:title=" ">
<path fill="none" stroke="#63b8ff" d="M888.81,-165.58C887.45,-158.99 885.53,-149.71 883.8,-141.32"/>
<polygon fill="#63b8ff" stroke="#63b8ff" points="887.24,-140.68 881.79,-131.59 880.38,-142.09 887.24,-140.68"/>
</a>
</g>
</g>
<!-- Node31 -->
<g id="Node000031" class="node">
<title>Node31</title>
<g id="a_Node000031"><a xlink:title=" ">
<polygon fill="#e0e0e0" stroke="#999999" points="1087.25,-129.75 1048,-129.75 1048,-110.5 1087.25,-110.5 1087.25,-129.75"/>
<text xml:space="preserve" text-anchor="middle" x="1067.62" y="-116.25" font-family="Helvetica,sans-Serif" font-size="10.00">utility</text>
</a>
</g>
</g>
<!-- Node28&#45;&gt;Node31 -->
<g id="edge43_Node000028_Node000031" class="edge">
<title>Node28&#45;&gt;Node31</title>
<g id="a_edge43_Node000028_Node000031"><a xlink:title=" ">
<path fill="none" stroke="#63b8ff" d="M920.65,-165.34C953.03,-155.6 1004.31,-140.17 1036.94,-130.36"/>
<polygon fill="#63b8ff" stroke="#63b8ff" points="1037.63,-133.8 1046.2,-127.57 1035.61,-127.1 1037.63,-133.8"/>
</a>
</g>
</g>
<!-- Node29&#45;&gt;Node15 -->
<g id="edge35_Node000029_Node000015" class="edge">
<title>Node29&#45;&gt;Node15</title>
<g id="a_edge35_Node000029_Node000015"><a xlink:title=" ">
<path fill="none" stroke="#63b8ff" d="M500.41,-116.31C573.39,-110.4 744.87,-95.58 898.61,-74.84"/>
<polygon fill="#63b8ff" stroke="#63b8ff" points="898.71,-78.36 908.15,-73.54 897.76,-71.42 898.71,-78.36"/>
</a>
</g>
</g>
<!-- Node29&#45;&gt;Node21 -->
<g id="edge36_Node000029_Node000021" class="edge">
<title>Node29&#45;&gt;Node21</title>
<g id="a_edge36_Node000029_Node000021"><a xlink:title=" ">
<path fill="none" stroke="#63b8ff" d="M457.69,-110.33C452.01,-103.13 443.79,-92.71 436.73,-83.76"/>
<polygon fill="#63b8ff" stroke="#63b8ff" points="439.59,-81.73 430.65,-76.05 434.09,-86.07 439.59,-81.73"/>
</a>
</g>
</g>
<!-- Node29&#45;&gt;Node23 -->
<g id="edge37_Node000029_Node000023" class="edge">
<title>Node29&#45;&gt;Node23</title>
<g id="a_edge37_Node000029_Node000023"><a xlink:title=" ">
<path fill="none" stroke="#63b8ff" d="M429.11,-111.99C426.24,-111.47 423.39,-110.96 420.62,-110.5 310.86,-92.04 279.68,-94.45 166.78,-74.76"/>
<polygon fill="#63b8ff" stroke="#63b8ff" points="167.54,-71.34 157.08,-73.05 166.32,-78.23 167.54,-71.34"/>
</a>
</g>
</g>
<!-- Node32&#45;&gt;Node23 -->
<g id="edge53_Node000032_Node000023" class="edge">
<title>Node32&#45;&gt;Node23</title>
<g id="a_edge53_Node000032_Node000023"><a xlink:title=" ">
<path fill="none" stroke="#63b8ff" d="M114.47,-281.62C113.23,-271.6 111.35,-254.79 110.62,-240.25 108.46,-196.58 115.03,-134.1 117.62,-110.5 118.51,-102.41 119.83,-93.55 121.09,-85.87"/>
<polygon fill="#63b8ff" stroke="#63b8ff" points="124.5,-86.67 122.73,-76.22 117.6,-85.49 124.5,-86.67"/>
</a>
</g>
</g>
<!-- Node33 -->
<g id="Node000033" class="node">
<title>Node33</title>
<g id="a_Node000033"><a xlink:href="_assert_8hpp.html" target="_top" xlink:title=" ">
<polygon fill="white" stroke="#666666" points="63.25,-240.25 0,-240.25 0,-221 63.25,-221 63.25,-240.25"/>
<text xml:space="preserve" text-anchor="middle" x="31.62" y="-226.75" font-family="Helvetica,sans-Serif" font-size="10.00">Assert.hpp</text>
</a>
</g>
</g>
<!-- Node32&#45;&gt;Node33 -->
<g id="edge51_Node000032_Node000033" class="edge">
<title>Node32&#45;&gt;Node33</title>
<g id="a_edge51_Node000032_Node000033"><a xlink:title=" ">
<path fill="none" stroke="#63b8ff" d="M102.87,-281.56C89.79,-272.39 69.21,-257.97 53.53,-246.98"/>
<polygon fill="#63b8ff" stroke="#63b8ff" points="55.94,-244.39 45.74,-241.52 51.92,-250.13 55.94,-244.39"/>
</a>
</g>
</g>
<!-- Node35 -->
<g id="Node000035" class="node">
<title>Node35</title>
<g id="a_Node000035"><a xlink:title=" ">
<polygon fill="#e0e0e0" stroke="#999999" points="159.25,-240.25 120,-240.25 120,-221 159.25,-221 159.25,-240.25"/>
<text xml:space="preserve" text-anchor="middle" x="139.62" y="-226.75" font-family="Helvetica,sans-Serif" font-size="10.00">limits</text>
</a>
</g>
</g>
<!-- Node32&#45;&gt;Node35 -->
<g id="edge54_Node000032_Node000035" class="edge">
<title>Node32&#45;&gt;Node35</title>
<g id="a_edge54_Node000032_Node000035"><a xlink:title=" ">
<path fill="none" stroke="#63b8ff" d="M119.27,-281.56C122.55,-273.52 127.48,-261.43 131.66,-251.16"/>
<polygon fill="#63b8ff" stroke="#63b8ff" points="134.84,-252.63 135.37,-242.05 128.36,-249.99 134.84,-252.63"/>
</a>
</g>
</g>
<!-- Node34 -->
<g id="Node000034" class="node">
<title>Node34</title>
<g id="a_Node000034"><a xlink:title=" ">
<polygon fill="#e0e0e0" stroke="#999999" points="55.75,-185 7.5,-185 7.5,-165.75 55.75,-165.75 55.75,-185"/>
<text xml:space="preserve" text-anchor="middle" x="31.62" y="-171.5" font-family="Helvetica,sans-Serif" font-size="10.00">cassert</text>
</a>
</g>
</g>
<!-- Node33&#45;&gt;Node34 -->
<g id="edge52_Node000033_Node000034" class="edge">
<title>Node33&#45;&gt;Node34</title>
<g id="a_edge52_Node000033_Node000034"><a xlink:title=" ">
<path fill="none" stroke="#63b8ff" d="M31.62,-220.83C31.62,-214.32 31.62,-205.17 31.62,-196.87"/>
<polygon fill="#63b8ff" stroke="#63b8ff" points="35.13,-196.87 31.63,-186.87 28.13,-196.87 35.13,-196.87"/>
</a>
</g>
</g>
<!-- Node37 -->
<g id="Node000037" class="node">
<title>Node37</title>
<g id="a_Node000037"><a xlink:title=" ">
<polygon fill="#e0e0e0" stroke="#999999" points="510.75,-240.25 462.5,-240.25 462.5,-221 510.75,-221 510.75,-240.25"/>
<text xml:space="preserve" text-anchor="middle" x="486.62" y="-226.75" font-family="Helvetica,sans-Serif" font-size="10.00">cstddef</text>
</a>
</g>
</g>
<!-- Node36&#45;&gt;Node37 -->
<g id="edge56_Node000036_Node000037" class="edge">
<title>Node36&#45;&gt;Node37</title>
<g id="a_edge56_Node000036_Node000037"><a xlink:title=" ">
<path fill="none" stroke="#63b8ff" d="M488.13,-275.95C487.88,-268.71 487.58,-259.84 487.32,-251.94"/>
<polygon fill="#63b8ff" stroke="#63b8ff" points="490.82,-252.09 486.98,-242.21 483.83,-252.33 490.82,-252.09"/>
</a>
</g>
</g>
<!-- Node38&#45;&gt;Node3 -->
<g id="edge60_Node000038_Node000003" class="edge">
<title>Node38&#45;&gt;Node3</title>
<g id="a_edge60_Node000038_Node000003"><a xlink:title=" ">
<path fill="none" stroke="#63b8ff" d="M810.25,-281.39C794.44,-254.62 747.88,-175.76 726.54,-139.61"/>
<polygon fill="#63b8ff" stroke="#63b8ff" points="729.65,-138 721.56,-131.17 723.63,-141.56 729.65,-138"/>
</a>
</g>
</g>
<!-- Node38&#45;&gt;Node14 -->
<g id="edge63_Node000038_Node000014" class="edge">
<title>Node38&#45;&gt;Node14</title>
<g id="a_edge63_Node000038_Node000014"><a xlink:title=" ">
<path fill="none" stroke="#63b8ff" d="M869.61,-281.39C955.98,-265.26 1115.62,-228.41 1115.62,-176.38 1115.62,-176.38 1115.62,-176.38 1115.62,-119.12 1115.62,-87.79 1107.84,-52.12 1102.24,-30.5"/>
<polygon fill="#63b8ff" stroke="#63b8ff" points="1105.66,-29.73 1099.66,-21 1098.9,-31.56 1105.66,-29.73"/>
</a>
</g>
</g>
<!-- Node38&#45;&gt;Node27 -->
<g id="edge58_Node000038_Node000027" class="edge">
<title>Node38&#45;&gt;Node27</title>
<g id="a_edge58_Node000038_Node000027"><a xlink:title=" ">
<path fill="none" stroke="#63b8ff" d="M780.04,-281.43C740.1,-271.25 675.17,-254.7 631.22,-243.5"/>
<polygon fill="#63b8ff" stroke="#63b8ff" points="632.27,-240.16 621.72,-241.08 630.55,-246.94 632.27,-240.16"/>
</a>
</g>
</g>
<!-- Node38&#45;&gt;Node28 -->
<g id="edge59_Node000038_Node000028" class="edge">
<title>Node38&#45;&gt;Node28</title>
<g id="a_edge59_Node000038_Node000028"><a xlink:title=" ">
<path fill="none" stroke="#63b8ff" d="M821.51,-281.54C833.78,-262.88 862.3,-219.48 878.61,-194.66"/>
<polygon fill="#63b8ff" stroke="#63b8ff" points="881.37,-196.83 883.94,-186.55 875.52,-192.99 881.37,-196.83"/>
</a>
</g>
</g>
<!-- Node38&#45;&gt;Node31 -->
<g id="edge62_Node000038_Node000031" class="edge">
<title>Node38&#45;&gt;Node31</title>
<g id="a_edge62_Node000038_Node000031"><a xlink:title=" ">
<path fill="none" stroke="#63b8ff" d="M829.17,-281.39C870.2,-253.82 993.43,-170.99 1044.78,-136.48"/>
<polygon fill="#63b8ff" stroke="#63b8ff" points="1046.71,-139.4 1053.06,-130.92 1042.81,-133.59 1046.71,-139.4"/>
</a>
</g>
</g>
<!-- Node38&#45;&gt;Node38 -->
<g id="edge61_Node000038_Node000038" class="edge">
<title>Node38&#45;&gt;Node38</title>
<g id="a_edge61_Node000038_Node000038"><a xlink:title=" ">
<path fill="none" stroke="#63b8ff" d="M849.76,-301.57C875.22,-305.08 900.88,-301.73 900.88,-291.5 900.88,-282.79 882.27,-279.07 861.03,-280.32"/>
<polygon fill="#63b8ff" stroke="#63b8ff" points="860.88,-276.82 851.27,-281.29 861.57,-283.79 860.88,-276.82"/>
</a>
</g>
</g>
</g>
</svg>
