<?xml version="1.0" encoding="UTF-8" standalone="no"?>
<!DOCTYPE svg PUBLIC "-//W3C//DTD SVG 1.1//EN"
 "http://www.w3.org/Graphics/SVG/1.1/DTD/svg11.dtd">
<!-- Generated by graphviz version 14.0.2 (20251019.1705)
 -->
<!-- Title: src/armnn/ILayerSupport.cpp Pages: 1 -->
<svg width="1331pt" height="370pt"
 viewBox="0.00 0.00 1331.00 370.00" xmlns="http://www.w3.org/2000/svg" xmlns:xlink="http://www.w3.org/1999/xlink">
<g id="graph0" class="graph" transform="scale(1 1) rotate(0) translate(4 366)">
<title>src/armnn/ILayerSupport.cpp</title>
<!-- Node1 -->
<g id="Node000001" class="node">
<title>Node1</title>
<g id="a_Node000001"><a xlink:title=" ">
<polygon fill="#999999" stroke="#666666" points="753.88,-362 611.88,-362 611.88,-342.75 753.88,-342.75 753.88,-362"/>
<text xml:space="preserve" text-anchor="middle" x="682.88" y="-348.5" font-family="Helvetica,sans-Serif" font-size="10.00">src/armnn/ILayerSupport.cpp</text>
</a>
</g>
</g>
<!-- Node2 -->
<g id="Node000002" class="node">
<title>Node2</title>
<g id="a_Node000002"><a xlink:href="_types_8hpp.html" target="_top" xlink:title=" ">
<polygon fill="white" stroke="#666666" points="211.38,-135.38 120.38,-135.38 120.38,-116.12 211.38,-116.12 211.38,-135.38"/>
<text xml:space="preserve" text-anchor="middle" x="165.88" y="-121.88" font-family="Helvetica,sans-Serif" font-size="10.00">armnn/Types.hpp</text>
</a>
</g>
</g>
<!-- Node1&#45;&gt;Node2 -->
<g id="edge1_Node000001_Node000002" class="edge">
<title>Node1&#45;&gt;Node2</title>
<g id="a_edge1_Node000001_Node000002"><a xlink:title=" ">
<path fill="none" stroke="#63b8ff" d="M611.54,-343.15C470.48,-325.25 164.19,-277.7 102.88,-196.25 87.69,-176.08 114.01,-154.84 137.13,-141.24"/>
<polygon fill="#63b8ff" stroke="#63b8ff" points="138.68,-144.38 145.71,-136.46 135.27,-138.26 138.68,-144.38"/>
</a>
</g>
</g>
<!-- Node18 -->
<g id="Node000018" class="node">
<title>Node18</title>
<g id="a_Node000018"><a xlink:href="_polymorphic_downcast_8hpp.html" target="_top" xlink:title=" ">
<polygon fill="white" stroke="#666666" points="1219,-141 1092.75,-141 1092.75,-110.5 1219,-110.5 1219,-141"/>
<text xml:space="preserve" text-anchor="start" x="1100.75" y="-127.5" font-family="Helvetica,sans-Serif" font-size="10.00">armnn/utility/Polymorphic</text>
<text xml:space="preserve" text-anchor="middle" x="1155.88" y="-116.25" font-family="Helvetica,sans-Serif" font-size="10.00">Downcast.hpp</text>
</a>
</g>
</g>
<!-- Node1&#45;&gt;Node18 -->
<g id="edge18_Node000001_Node000018" class="edge">
<title>Node1&#45;&gt;Node18</title>
<g id="a_edge18_Node000001_Node000018"><a xlink:title=" ">
<path fill="none" stroke="#63b8ff" d="M754.13,-343.78C863.79,-330.68 1066.72,-300.46 1118.88,-251.5 1146.13,-225.91 1153.61,-181.27 1155.49,-152.9"/>
<polygon fill="#63b8ff" stroke="#63b8ff" points="1158.98,-153.15 1155.94,-143 1151.99,-152.84 1158.98,-153.15"/>
</a>
</g>
</g>
<!-- Node22 -->
<g id="Node000022" class="node">
<title>Node22</title>
<g id="a_Node000022"><a xlink:href="_tensor_8hpp.html" target="_top" xlink:title=" ">
<polygon fill="white" stroke="#666666" points="214.5,-196.25 121.25,-196.25 121.25,-177 214.5,-177 214.5,-196.25"/>
<text xml:space="preserve" text-anchor="middle" x="167.88" y="-182.75" font-family="Helvetica,sans-Serif" font-size="10.00">armnn/Tensor.hpp</text>
</a>
</g>
</g>
<!-- Node1&#45;&gt;Node22 -->
<g id="edge24_Node000001_Node000022" class="edge">
<title>Node1&#45;&gt;Node22</title>
<g id="a_edge24_Node000001_Node000022"><a xlink:title=" ">
<path fill="none" stroke="#63b8ff" d="M654.45,-342.34C567.86,-314.8 307.13,-231.9 207.33,-200.17"/>
<polygon fill="#63b8ff" stroke="#63b8ff" points="208.56,-196.89 197.97,-197.19 206.44,-203.56 208.56,-196.89"/>
</a>
</g>
</g>
<!-- Node27 -->
<g id="Node000027" class="node">
<title>Node27</title>
<g id="a_Node000027"><a xlink:href="_i_layer_support_8hpp.html" target="_top" xlink:title=" ">
<polygon fill="white" stroke="#666666" points="768.12,-306.75 597.62,-306.75 597.62,-287.5 768.12,-287.5 768.12,-306.75"/>
<text xml:space="preserve" text-anchor="middle" x="682.88" y="-293.25" font-family="Helvetica,sans-Serif" font-size="10.00">armnn/backends/ILayerSupport.hpp</text>
</a>
</g>
</g>
<!-- Node1&#45;&gt;Node27 -->
<g id="edge36_Node000001_Node000027" class="edge">
<title>Node1&#45;&gt;Node27</title>
<g id="a_edge36_Node000001_Node000027"><a xlink:title=" ">
<path fill="none" stroke="#63b8ff" d="M682.88,-342.58C682.88,-336.07 682.88,-326.92 682.88,-318.62"/>
<polygon fill="#63b8ff" stroke="#63b8ff" points="686.38,-318.62 682.88,-308.62 679.38,-318.62 686.38,-318.62"/>
</a>
</g>
</g>
<!-- Node36 -->
<g id="Node000036" class="node">
<title>Node36</title>
<g id="a_Node000036"><a xlink:href="_ignore_unused_8hpp.html" target="_top" xlink:title=" ">
<polygon fill="white" stroke="#666666" points="1322.75,-306.75 1171,-306.75 1171,-287.5 1322.75,-287.5 1322.75,-306.75"/>
<text xml:space="preserve" text-anchor="middle" x="1246.88" y="-293.25" font-family="Helvetica,sans-Serif" font-size="10.00">armnn/utility/IgnoreUnused.hpp</text>
</a>
</g>
</g>
<!-- Node1&#45;&gt;Node36 -->
<g id="edge59_Node000001_Node000036" class="edge">
<title>Node1&#45;&gt;Node36</title>
<g id="a_edge59_Node000001_Node000036"><a xlink:title=" ">
<path fill="none" stroke="#63b8ff" d="M754.35,-344.68C847.14,-335.99 1014.11,-320.31 1156.88,-306.75 1157.72,-306.67 1158.58,-306.59 1159.44,-306.51"/>
<polygon fill="#63b8ff" stroke="#63b8ff" points="1159.64,-310 1169.26,-305.57 1158.97,-303.03 1159.64,-310"/>
</a>
</g>
</g>
<!-- Node3 -->
<g id="Node000003" class="node">
<title>Node3</title>
<g id="a_Node000003"><a xlink:title=" ">
<polygon fill="#e0e0e0" stroke="#999999" points="37.75,-74.5 0,-74.5 0,-55.25 37.75,-55.25 37.75,-74.5"/>
<text xml:space="preserve" text-anchor="middle" x="18.88" y="-61" font-family="Helvetica,sans-Serif" font-size="10.00">array</text>
</a>
</g>
</g>
<!-- Node2&#45;&gt;Node3 -->
<g id="edge2_Node000002_Node000003" class="edge">
<title>Node2&#45;&gt;Node3</title>
<g id="a_edge2_Node000002_Node000003"><a xlink:title=" ">
<path fill="none" stroke="#63b8ff" d="M143.23,-115.68C117.78,-105.49 76.36,-88.9 48.39,-77.7"/>
<polygon fill="#63b8ff" stroke="#63b8ff" points="50.02,-74.58 39.44,-74.11 47.42,-81.08 50.02,-74.58"/>
</a>
</g>
</g>
<!-- Node4 -->
<g id="Node000004" class="node">
<title>Node4</title>
<g id="a_Node000004"><a xlink:title=" ">
<polygon fill="#e0e0e0" stroke="#999999" points="120.88,-74.5 62.88,-74.5 62.88,-55.25 120.88,-55.25 120.88,-74.5"/>
<text xml:space="preserve" text-anchor="middle" x="91.88" y="-61" font-family="Helvetica,sans-Serif" font-size="10.00">functional</text>
</a>
</g>
</g>
<!-- Node2&#45;&gt;Node4 -->
<g id="edge3_Node000002_Node000004" class="edge">
<title>Node2&#45;&gt;Node4</title>
<g id="a_edge3_Node000002_Node000004"><a xlink:title=" ">
<path fill="none" stroke="#63b8ff" d="M154.64,-115.81C143.34,-106.82 125.67,-92.76 111.96,-81.85"/>
<polygon fill="#63b8ff" stroke="#63b8ff" points="114.41,-79.33 104.4,-75.84 110.05,-84.81 114.41,-79.33"/>
</a>
</g>
</g>
<!-- Node5 -->
<g id="Node000005" class="node">
<title>Node5</title>
<g id="a_Node000005"><a xlink:title=" ">
<polygon fill="#e0e0e0" stroke="#999999" points="354,-74.5 305.75,-74.5 305.75,-55.25 354,-55.25 354,-74.5"/>
<text xml:space="preserve" text-anchor="middle" x="329.88" y="-61" font-family="Helvetica,sans-Serif" font-size="10.00">stdint.h</text>
</a>
</g>
</g>
<!-- Node2&#45;&gt;Node5 -->
<g id="edge4_Node000002_Node000005" class="edge">
<title>Node2&#45;&gt;Node5</title>
<g id="a_edge4_Node000002_Node000005"><a xlink:title=" ">
<path fill="none" stroke="#63b8ff" d="M191.14,-115.68C218.83,-105.74 263.44,-89.72 294.58,-78.55"/>
<polygon fill="#63b8ff" stroke="#63b8ff" points="295.73,-81.85 303.96,-75.18 293.37,-75.26 295.73,-81.85"/>
</a>
</g>
</g>
<!-- Node6 -->
<g id="Node000006" class="node">
<title>Node6</title>
<g id="a_Node000006"><a xlink:title=" ">
<polygon fill="#e0e0e0" stroke="#999999" points="287.5,-74.5 242.25,-74.5 242.25,-55.25 287.5,-55.25 287.5,-74.5"/>
<text xml:space="preserve" text-anchor="middle" x="264.88" y="-61" font-family="Helvetica,sans-Serif" font-size="10.00">chrono</text>
</a>
</g>
</g>
<!-- Node2&#45;&gt;Node6 -->
<g id="edge5_Node000002_Node000006" class="edge">
<title>Node2&#45;&gt;Node6</title>
<g id="a_edge5_Node000002_Node000006"><a xlink:title=" ">
<path fill="none" stroke="#63b8ff" d="M180.91,-115.81C196.54,-106.51 221.26,-91.81 239.84,-80.76"/>
<polygon fill="#63b8ff" stroke="#63b8ff" points="241.59,-83.79 248.4,-75.67 238.01,-77.78 241.59,-83.79"/>
</a>
</g>
</g>
<!-- Node7 -->
<g id="Node000007" class="node">
<title>Node7</title>
<g id="a_Node000007"><a xlink:href="_backend_id_8hpp.html" target="_top" xlink:title=" ">
<polygon fill="white" stroke="#666666" points="224.5,-74.5 143.25,-74.5 143.25,-55.25 224.5,-55.25 224.5,-74.5"/>
<text xml:space="preserve" text-anchor="middle" x="183.88" y="-61" font-family="Helvetica,sans-Serif" font-size="10.00">BackendId.hpp</text>
</a>
</g>
</g>
<!-- Node2&#45;&gt;Node7 -->
<g id="edge6_Node000002_Node000007" class="edge">
<title>Node2&#45;&gt;Node7</title>
<g id="a_edge6_Node000002_Node000007"><a xlink:title=" ">
<path fill="none" stroke="#63b8ff" d="M168.61,-115.81C171.04,-107.85 174.68,-95.94 177.8,-85.74"/>
<polygon fill="#63b8ff" stroke="#63b8ff" points="181.1,-86.93 180.67,-76.35 174.4,-84.89 181.1,-86.93"/>
</a>
</g>
</g>
<!-- Node14 -->
<g id="Node000014" class="node">
<title>Node14</title>
<g id="a_Node000014"><a xlink:href="_exceptions_8hpp.html" target="_top" xlink:title=" ">
<polygon fill="white" stroke="#666666" points="756.62,-74.5 673.12,-74.5 673.12,-55.25 756.62,-55.25 756.62,-74.5"/>
<text xml:space="preserve" text-anchor="middle" x="714.88" y="-61" font-family="Helvetica,sans-Serif" font-size="10.00">Exceptions.hpp</text>
</a>
</g>
</g>
<!-- Node2&#45;&gt;Node14 -->
<g id="edge13_Node000002_Node000014" class="edge">
<title>Node2&#45;&gt;Node14</title>
<g id="a_edge13_Node000002_Node000014"><a xlink:title=" ">
<path fill="none" stroke="#63b8ff" d="M197.38,-115.64C205.02,-113.69 213.2,-111.83 220.88,-110.5 398.95,-79.73 445.94,-91.22 625.88,-74.5 637.35,-73.43 649.66,-72.26 661.35,-71.13"/>
<polygon fill="#63b8ff" stroke="#63b8ff" points="661.66,-74.62 671.27,-70.17 660.98,-67.65 661.66,-74.62"/>
</a>
</g>
</g>
<!-- Node17 -->
<g id="Node000017" class="node">
<title>Node17</title>
<g id="a_Node000017"><a xlink:href="_deprecated_8hpp.html" target="_top" xlink:title=" ">
<polygon fill="white" stroke="#666666" points="616.38,-74.5 531.38,-74.5 531.38,-55.25 616.38,-55.25 616.38,-74.5"/>
<text xml:space="preserve" text-anchor="middle" x="573.88" y="-61" font-family="Helvetica,sans-Serif" font-size="10.00">Deprecated.hpp</text>
</a>
</g>
</g>
<!-- Node2&#45;&gt;Node17 -->
<g id="edge17_Node000002_Node000017" class="edge">
<title>Node2&#45;&gt;Node17</title>
<g id="a_edge17_Node000002_Node000017"><a xlink:title=" ">
<path fill="none" stroke="#63b8ff" d="M198,-115.69C205.47,-113.79 213.42,-111.93 220.88,-110.5 325.89,-90.34 450.3,-77.04 519.85,-70.54"/>
<polygon fill="#63b8ff" stroke="#63b8ff" points="519.8,-74.06 529.43,-69.66 519.16,-67.09 519.8,-74.06"/>
</a>
</g>
</g>
<!-- Node8 -->
<g id="Node000008" class="node">
<title>Node8</title>
<g id="a_Node000008"><a xlink:title=" ">
<polygon fill="#e0e0e0" stroke="#999999" points="1090.5,-19.25 1039.25,-19.25 1039.25,0 1090.5,0 1090.5,-19.25"/>
<text xml:space="preserve" text-anchor="middle" x="1064.88" y="-5.75" font-family="Helvetica,sans-Serif" font-size="10.00">memory</text>
</a>
</g>
</g>
<!-- Node7&#45;&gt;Node8 -->
<g id="edge7_Node000007_Node000008" class="edge">
<title>Node7&#45;&gt;Node8</title>
<g id="a_edge7_Node000007_Node000008"><a xlink:title=" ">
<path fill="none" stroke="#63b8ff" d="M224.99,-56.27C227.66,-55.89 230.3,-55.54 232.88,-55.25 390.15,-37.26 886.66,-17.41 1027.37,-12.03"/>
<polygon fill="#63b8ff" stroke="#63b8ff" points="1027.38,-15.54 1037.24,-11.66 1027.11,-8.54 1027.38,-15.54"/>
</a>
</g>
</g>
<!-- Node9 -->
<g id="Node000009" class="node">
<title>Node9</title>
<g id="a_Node000009"><a xlink:title=" ">
<polygon fill="#e0e0e0" stroke="#999999" points="291.5,-19.25 240.25,-19.25 240.25,0 291.5,0 291.5,-19.25"/>
<text xml:space="preserve" text-anchor="middle" x="265.88" y="-5.75" font-family="Helvetica,sans-Serif" font-size="10.00">ostream</text>
</a>
</g>
</g>
<!-- Node7&#45;&gt;Node9 -->
<g id="edge8_Node000007_Node000009" class="edge">
<title>Node7&#45;&gt;Node9</title>
<g id="a_edge8_Node000007_Node000009"><a xlink:title=" ">
<path fill="none" stroke="#63b8ff" d="M197.79,-54.84C210.04,-46.89 228.13,-35.14 242.59,-25.75"/>
<polygon fill="#63b8ff" stroke="#63b8ff" points="244.15,-28.91 250.63,-20.53 240.33,-23.04 244.15,-28.91"/>
</a>
</g>
</g>
<!-- Node10 -->
<g id="Node000010" class="node">
<title>Node10</title>
<g id="a_Node000010"><a xlink:title=" ">
<polygon fill="#e0e0e0" stroke="#999999" points="126.62,-19.25 97.12,-19.25 97.12,0 126.62,0 126.62,-19.25"/>
<text xml:space="preserve" text-anchor="middle" x="111.88" y="-5.75" font-family="Helvetica,sans-Serif" font-size="10.00">set</text>
</a>
</g>
</g>
<!-- Node7&#45;&gt;Node10 -->
<g id="edge9_Node000007_Node000010" class="edge">
<title>Node7&#45;&gt;Node10</title>
<g id="a_edge9_Node000007_Node000010"><a xlink:title=" ">
<path fill="none" stroke="#63b8ff" d="M171.66,-54.84C161.05,-46.99 145.44,-35.45 132.83,-26.12"/>
<polygon fill="#63b8ff" stroke="#63b8ff" points="135.25,-23.56 125.13,-20.42 131.08,-29.19 135.25,-23.56"/>
</a>
</g>
</g>
<!-- Node11 -->
<g id="Node000011" class="node">
<title>Node11</title>
<g id="a_Node000011"><a xlink:title=" ">
<polygon fill="#e0e0e0" stroke="#999999" points="589.88,-19.25 549.88,-19.25 549.88,0 589.88,0 589.88,-19.25"/>
<text xml:space="preserve" text-anchor="middle" x="569.88" y="-5.75" font-family="Helvetica,sans-Serif" font-size="10.00">string</text>
</a>
</g>
</g>
<!-- Node7&#45;&gt;Node11 -->
<g id="edge10_Node000007_Node000011" class="edge">
<title>Node7&#45;&gt;Node11</title>
<g id="a_edge10_Node000007_Node000011"><a xlink:title=" ">
<path fill="none" stroke="#63b8ff" d="M224.76,-56.54C227.5,-56.09 230.23,-55.66 232.88,-55.25 345.01,-37.96 478.79,-21.47 538.45,-14.33"/>
<polygon fill="#63b8ff" stroke="#63b8ff" points="538.68,-17.83 548.2,-13.17 537.85,-10.88 538.68,-17.83"/>
</a>
</g>
</g>
<!-- Node12 -->
<g id="Node000012" class="node">
<title>Node12</title>
<g id="a_Node000012"><a xlink:title=" ">
<polygon fill="#e0e0e0" stroke="#999999" points="222.62,-19.25 145.12,-19.25 145.12,0 222.62,0 222.62,-19.25"/>
<text xml:space="preserve" text-anchor="middle" x="183.88" y="-5.75" font-family="Helvetica,sans-Serif" font-size="10.00">unordered_set</text>
</a>
</g>
</g>
<!-- Node7&#45;&gt;Node12 -->
<g id="edge11_Node000007_Node000012" class="edge">
<title>Node7&#45;&gt;Node12</title>
<g id="a_edge11_Node000007_Node000012"><a xlink:title=" ">
<path fill="none" stroke="#63b8ff" d="M183.88,-55.08C183.88,-48.57 183.88,-39.42 183.88,-31.12"/>
<polygon fill="#63b8ff" stroke="#63b8ff" points="187.38,-31.12 183.88,-21.12 180.38,-31.12 187.38,-31.12"/>
</a>
</g>
</g>
<!-- Node13 -->
<g id="Node000013" class="node">
<title>Node13</title>
<g id="a_Node000013"><a xlink:title=" ">
<polygon fill="#e0e0e0" stroke="#999999" points="468.38,-19.25 425.38,-19.25 425.38,0 468.38,0 468.38,-19.25"/>
<text xml:space="preserve" text-anchor="middle" x="446.88" y="-5.75" font-family="Helvetica,sans-Serif" font-size="10.00">vector</text>
</a>
</g>
</g>
<!-- Node7&#45;&gt;Node13 -->
<g id="edge12_Node000007_Node000013" class="edge">
<title>Node7&#45;&gt;Node13</title>
<g id="a_edge12_Node000007_Node000013"><a xlink:title=" ">
<path fill="none" stroke="#63b8ff" d="M224.97,-55.55C277.04,-45.01 365.78,-27.04 413.75,-17.33"/>
<polygon fill="#63b8ff" stroke="#63b8ff" points="414.43,-20.77 423.53,-15.35 413.04,-13.91 414.43,-20.77"/>
</a>
</g>
</g>
<!-- Node14&#45;&gt;Node11 -->
<g id="edge16_Node000014_Node000011" class="edge">
<title>Node14&#45;&gt;Node11</title>
<g id="a_edge16_Node000014_Node000011"><a xlink:title=" ">
<path fill="none" stroke="#63b8ff" d="M690.28,-54.84C665.67,-45.81 627.75,-31.88 601.05,-22.07"/>
<polygon fill="#63b8ff" stroke="#63b8ff" points="602.38,-18.83 591.79,-18.67 599.97,-25.4 602.38,-18.83"/>
</a>
</g>
</g>
<!-- Node15 -->
<g id="Node000015" class="node">
<title>Node15</title>
<g id="a_Node000015"><a xlink:title=" ">
<polygon fill="#e0e0e0" stroke="#999999" points="777.5,-19.25 726.25,-19.25 726.25,0 777.5,0 777.5,-19.25"/>
<text xml:space="preserve" text-anchor="middle" x="751.88" y="-5.75" font-family="Helvetica,sans-Serif" font-size="10.00">sstream</text>
</a>
</g>
</g>
<!-- Node14&#45;&gt;Node15 -->
<g id="edge14_Node000014_Node000015" class="edge">
<title>Node14&#45;&gt;Node15</title>
<g id="a_edge14_Node000014_Node000015"><a xlink:title=" ">
<path fill="none" stroke="#63b8ff" d="M720.98,-55.08C725.94,-47.96 733.08,-37.68 739.25,-28.8"/>
<polygon fill="#63b8ff" stroke="#63b8ff" points="741.94,-31.06 744.77,-20.85 736.19,-27.07 741.94,-31.06"/>
</a>
</g>
</g>
<!-- Node16 -->
<g id="Node000016" class="node">
<title>Node16</title>
<g id="a_Node000016"><a xlink:title=" ">
<polygon fill="#e0e0e0" stroke="#999999" points="708.25,-19.25 649.5,-19.25 649.5,0 708.25,0 708.25,-19.25"/>
<text xml:space="preserve" text-anchor="middle" x="678.88" y="-5.75" font-family="Helvetica,sans-Serif" font-size="10.00">stdexcept</text>
</a>
</g>
</g>
<!-- Node14&#45;&gt;Node16 -->
<g id="edge15_Node000014_Node000016" class="edge">
<title>Node14&#45;&gt;Node16</title>
<g id="a_edge15_Node000014_Node000016"><a xlink:title=" ">
<path fill="none" stroke="#63b8ff" d="M708.93,-55.08C704.16,-48.03 697.31,-37.9 691.35,-29.08"/>
<polygon fill="#63b8ff" stroke="#63b8ff" points="694.3,-27.19 685.8,-20.86 688.5,-31.11 694.3,-27.19"/>
</a>
</g>
</g>
<!-- Node18&#45;&gt;Node8 -->
<g id="edge22_Node000018_Node000008" class="edge">
<title>Node18&#45;&gt;Node8</title>
<g id="a_edge22_Node000018_Node000008"><a xlink:title=" ">
<path fill="none" stroke="#63b8ff" d="M1162.64,-110.2C1168.51,-95.22 1174.55,-71.78 1163.88,-55.25 1150.2,-34.08 1123.8,-22.85 1101.71,-16.95"/>
<polygon fill="#63b8ff" stroke="#63b8ff" points="1102.64,-13.58 1092.11,-14.68 1101.03,-20.39 1102.64,-13.58"/>
</a>
</g>
</g>
<!-- Node18&#45;&gt;Node14 -->
<g id="edge21_Node000018_Node000014" class="edge">
<title>Node18&#45;&gt;Node14</title>
<g id="a_edge21_Node000018_Node000014"><a xlink:title=" ">
<path fill="none" stroke="#63b8ff" d="M1092.44,-117.45C1017.34,-108.61 888.21,-92.83 768.09,-74.93"/>
<polygon fill="#63b8ff" stroke="#63b8ff" points="768.77,-71.5 758.36,-73.48 767.73,-78.42 768.77,-71.5"/>
</a>
</g>
</g>
<!-- Node19 -->
<g id="Node000019" class="node">
<title>Node19</title>
<g id="a_Node000019"><a xlink:href="_assert_8hpp.html" target="_top" xlink:title=" ">
<polygon fill="white" stroke="#666666" points="1274.5,-74.5 1211.25,-74.5 1211.25,-55.25 1274.5,-55.25 1274.5,-74.5"/>
<text xml:space="preserve" text-anchor="middle" x="1242.88" y="-61" font-family="Helvetica,sans-Serif" font-size="10.00">Assert.hpp</text>
</a>
</g>
</g>
<!-- Node18&#45;&gt;Node19 -->
<g id="edge19_Node000018_Node000019" class="edge">
<title>Node18&#45;&gt;Node19</title>
<g id="a_edge19_Node000018_Node000019"><a xlink:title=" ">
<path fill="none" stroke="#63b8ff" d="M1177.38,-110.2C1190.37,-101.4 1206.92,-90.21 1220.13,-81.27"/>
<polygon fill="#63b8ff" stroke="#63b8ff" points="1221.89,-84.3 1228.21,-75.8 1217.97,-78.51 1221.89,-84.3"/>
</a>
</g>
</g>
<!-- Node21 -->
<g id="Node000021" class="node">
<title>Node21</title>
<g id="a_Node000021"><a xlink:title=" ">
<polygon fill="#e0e0e0" stroke="#999999" points="1154.75,-74.5 1093,-74.5 1093,-55.25 1154.75,-55.25 1154.75,-74.5"/>
<text xml:space="preserve" text-anchor="middle" x="1123.88" y="-61" font-family="Helvetica,sans-Serif" font-size="10.00">type_traits</text>
</a>
</g>
</g>
<!-- Node18&#45;&gt;Node21 -->
<g id="edge23_Node000018_Node000021" class="edge">
<title>Node18&#45;&gt;Node21</title>
<g id="a_edge23_Node000018_Node000021"><a xlink:title=" ">
<path fill="none" stroke="#63b8ff" d="M1147.96,-110.2C1143.84,-102.61 1138.75,-93.24 1134.31,-85.07"/>
<polygon fill="#63b8ff" stroke="#63b8ff" points="1137.38,-83.4 1129.53,-76.28 1131.23,-86.74 1137.38,-83.4"/>
</a>
</g>
</g>
<!-- Node20 -->
<g id="Node000020" class="node">
<title>Node20</title>
<g id="a_Node000020"><a xlink:title=" ">
<polygon fill="#e0e0e0" stroke="#999999" points="1267,-19.25 1218.75,-19.25 1218.75,0 1267,0 1267,-19.25"/>
<text xml:space="preserve" text-anchor="middle" x="1242.88" y="-5.75" font-family="Helvetica,sans-Serif" font-size="10.00">cassert</text>
</a>
</g>
</g>
<!-- Node19&#45;&gt;Node20 -->
<g id="edge20_Node000019_Node000020" class="edge">
<title>Node19&#45;&gt;Node20</title>
<g id="a_edge20_Node000019_Node000020"><a xlink:title=" ">
<path fill="none" stroke="#63b8ff" d="M1242.88,-55.08C1242.88,-48.57 1242.88,-39.42 1242.88,-31.12"/>
<polygon fill="#63b8ff" stroke="#63b8ff" points="1246.38,-31.12 1242.88,-21.12 1239.38,-31.12 1246.38,-31.12"/>
</a>
</g>
</g>
<!-- Node22&#45;&gt;Node2 -->
<g id="edge30_Node000022_Node000002" class="edge">
<title>Node22&#45;&gt;Node2</title>
<g id="a_edge30_Node000022_Node000002"><a xlink:title=" ">
<path fill="none" stroke="#63b8ff" d="M167.57,-176.68C167.3,-168.82 166.91,-157.07 166.56,-146.95"/>
<polygon fill="#63b8ff" stroke="#63b8ff" points="170.07,-147.16 166.23,-137.29 163.07,-147.4 170.07,-147.16"/>
</a>
</g>
</g>
<!-- Node22&#45;&gt;Node3 -->
<g id="edge32_Node000022_Node000003" class="edge">
<title>Node22&#45;&gt;Node3</title>
<g id="a_edge32_Node000022_Node000003"><a xlink:title=" ">
<path fill="none" stroke="#63b8ff" d="M156.47,-176.8C144.92,-167.85 126.58,-153.56 110.88,-141 85.78,-120.93 57.14,-97.46 38.58,-82.16"/>
<polygon fill="#63b8ff" stroke="#63b8ff" points="40.97,-79.6 31.03,-75.93 36.52,-85 40.97,-79.6"/>
</a>
</g>
</g>
<!-- Node22&#45;&gt;Node5 -->
<g id="edge31_Node000022_Node000005" class="edge">
<title>Node22&#45;&gt;Node5</title>
<g id="a_edge31_Node000022_Node000005"><a xlink:title=" ">
<path fill="none" stroke="#63b8ff" d="M213.14,-176.54C249.74,-168.31 297.33,-155.31 310.88,-141 324.88,-126.21 328.96,-102.63 329.96,-85.84"/>
<polygon fill="#63b8ff" stroke="#63b8ff" points="333.46,-86.18 330.2,-76.09 326.46,-86 333.46,-86.18"/>
</a>
</g>
</g>
<!-- Node22&#45;&gt;Node13 -->
<g id="edge34_Node000022_Node000013" class="edge">
<title>Node22&#45;&gt;Node13</title>
<g id="a_edge34_Node000022_Node000013"><a xlink:title=" ">
<path fill="none" stroke="#63b8ff" d="M212.77,-176.56C254.43,-167.59 312.93,-153.46 332.88,-141 379.69,-111.77 417.98,-57.43 435.9,-29.02"/>
<polygon fill="#63b8ff" stroke="#63b8ff" points="438.7,-31.14 440.95,-20.79 432.74,-27.48 438.7,-31.14"/>
</a>
</g>
</g>
<!-- Node22&#45;&gt;Node14 -->
<g id="edge25_Node000022_Node000014" class="edge">
<title>Node22&#45;&gt;Node14</title>
<g id="a_edge25_Node000022_Node000014"><a xlink:title=" ">
<path fill="none" stroke="#63b8ff" d="M214.91,-177.71C278.66,-166.84 386.57,-147.84 403.88,-141 427.38,-131.71 428.28,-119.57 451.88,-110.5 489.24,-96.13 596.07,-80.82 661.51,-72.39"/>
<polygon fill="#63b8ff" stroke="#63b8ff" points="661.85,-75.88 671.32,-71.14 660.96,-68.93 661.85,-75.88"/>
</a>
</g>
</g>
<!-- Node23 -->
<g id="Node000023" class="node">
<title>Node23</title>
<g id="a_Node000023"><a xlink:href="_optional_8hpp.html" target="_top" xlink:title=" ">
<polygon fill="white" stroke="#666666" points="819.25,-135.38 748.5,-135.38 748.5,-116.12 819.25,-116.12 819.25,-135.38"/>
<text xml:space="preserve" text-anchor="middle" x="783.88" y="-121.88" font-family="Helvetica,sans-Serif" font-size="10.00">Optional.hpp</text>
</a>
</g>
</g>
<!-- Node22&#45;&gt;Node23 -->
<g id="edge26_Node000022_Node000023" class="edge">
<title>Node22&#45;&gt;Node23</title>
<g id="a_edge26_Node000022_Node000023"><a xlink:title=" ">
<path fill="none" stroke="#63b8ff" d="M214.9,-178.16C217.93,-177.75 220.95,-177.36 223.88,-177 413.4,-153.93 640.21,-136.78 736.7,-129.97"/>
<polygon fill="#63b8ff" stroke="#63b8ff" points="736.85,-133.47 746.58,-129.28 736.36,-126.48 736.85,-133.47"/>
</a>
</g>
</g>
<!-- Node25 -->
<g id="Node000025" class="node">
<title>Node25</title>
<g id="a_Node000025"><a xlink:title=" ">
<polygon fill="#e0e0e0" stroke="#999999" points="302,-135.38 229.75,-135.38 229.75,-116.12 302,-116.12 302,-135.38"/>
<text xml:space="preserve" text-anchor="middle" x="265.88" y="-121.88" font-family="Helvetica,sans-Serif" font-size="10.00">initializer_list</text>
</a>
</g>
</g>
<!-- Node22&#45;&gt;Node25 -->
<g id="edge33_Node000022_Node000025" class="edge">
<title>Node22&#45;&gt;Node25</title>
<g id="a_edge33_Node000022_Node000025"><a xlink:title=" ">
<path fill="none" stroke="#63b8ff" d="M182.76,-176.68C198.23,-167.39 222.7,-152.69 241.1,-141.64"/>
<polygon fill="#63b8ff" stroke="#63b8ff" points="242.78,-144.71 249.55,-136.56 239.18,-138.71 242.78,-144.71"/>
</a>
</g>
</g>
<!-- Node26 -->
<g id="Node000026" class="node">
<title>Node26</title>
<g id="a_Node000026"><a xlink:title=" ">
<polygon fill="#e0e0e0" stroke="#999999" points="500.5,-135.38 461.25,-135.38 461.25,-116.12 500.5,-116.12 500.5,-135.38"/>
<text xml:space="preserve" text-anchor="middle" x="480.88" y="-121.88" font-family="Helvetica,sans-Serif" font-size="10.00">utility</text>
</a>
</g>
</g>
<!-- Node22&#45;&gt;Node26 -->
<g id="edge35_Node000022_Node000026" class="edge">
<title>Node22&#45;&gt;Node26</title>
<g id="a_edge35_Node000022_Node000026"><a xlink:title=" ">
<path fill="none" stroke="#63b8ff" d="M214.7,-178.35C290.77,-166.5 433.88,-144.02 444.88,-141 446.62,-140.52 448.39,-139.98 450.17,-139.41"/>
<polygon fill="#63b8ff" stroke="#63b8ff" points="451.31,-142.72 459.53,-136.04 448.94,-136.13 451.31,-142.72"/>
</a>
</g>
</g>
<!-- Node23&#45;&gt;Node14 -->
<g id="edge27_Node000023_Node000014" class="edge">
<title>Node23&#45;&gt;Node14</title>
<g id="a_edge27_Node000023_Node000014"><a xlink:title=" ">
<path fill="none" stroke="#63b8ff" d="M773.4,-115.81C762.96,-106.9 746.7,-93.03 733.97,-82.17"/>
<polygon fill="#63b8ff" stroke="#63b8ff" points="736.48,-79.71 726.6,-75.88 731.94,-85.04 736.48,-79.71"/>
</a>
</g>
</g>
<!-- Node23&#45;&gt;Node21 -->
<g id="edge29_Node000023_Node000021" class="edge">
<title>Node23&#45;&gt;Node21</title>
<g id="a_edge29_Node000023_Node000021"><a xlink:title=" ">
<path fill="none" stroke="#63b8ff" d="M819.62,-118.56C882.8,-107.62 1013.9,-84.92 1081.51,-73.21"/>
<polygon fill="#63b8ff" stroke="#63b8ff" points="1081.84,-76.71 1091.09,-71.55 1080.64,-69.81 1081.84,-76.71"/>
</a>
</g>
</g>
<!-- Node24 -->
<g id="Node000024" class="node">
<title>Node24</title>
<g id="a_Node000024"><a xlink:title=" ">
<polygon fill="#e0e0e0" stroke="#999999" points="819.5,-74.5 774.25,-74.5 774.25,-55.25 819.5,-55.25 819.5,-74.5"/>
<text xml:space="preserve" text-anchor="middle" x="796.88" y="-61" font-family="Helvetica,sans-Serif" font-size="10.00">cstring</text>
</a>
</g>
</g>
<!-- Node23&#45;&gt;Node24 -->
<g id="edge28_Node000023_Node000024" class="edge">
<title>Node23&#45;&gt;Node24</title>
<g id="a_edge28_Node000023_Node000024"><a xlink:title=" ">
<path fill="none" stroke="#63b8ff" d="M785.85,-115.81C787.59,-107.94 790.18,-96.2 792.41,-86.07"/>
<polygon fill="#63b8ff" stroke="#63b8ff" points="795.82,-86.9 794.56,-76.38 788.98,-85.39 795.82,-86.9"/>
</a>
</g>
</g>
<!-- Node27&#45;&gt;Node4 -->
<g id="edge56_Node000027_Node000004" class="edge">
<title>Node27&#45;&gt;Node4</title>
<g id="a_edge56_Node000027_Node000004"><a xlink:title=" ">
<path fill="none" stroke="#63b8ff" d="M597.23,-293.87C452.18,-288.1 167.6,-267.73 102.88,-196.25 75.52,-166.03 81.11,-114.12 86.9,-85.77"/>
<polygon fill="#63b8ff" stroke="#63b8ff" points="90.23,-86.89 89.04,-76.36 83.41,-85.33 90.23,-86.89"/>
</a>
</g>
</g>
<!-- Node27&#45;&gt;Node8 -->
<g id="edge57_Node000027_Node000008" class="edge">
<title>Node27&#45;&gt;Node8</title>
<g id="a_edge57_Node000027_Node000008"><a xlink:title=" ">
<path fill="none" stroke="#63b8ff" d="M768.39,-292.63C880.4,-287.16 1065.1,-274.71 1085.88,-251.5 1093.2,-243.32 1074.53,-87.65 1067.46,-31.01"/>
<polygon fill="#63b8ff" stroke="#63b8ff" points="1070.94,-30.68 1066.22,-21.19 1064,-31.55 1070.94,-30.68"/>
</a>
</g>
</g>
<!-- Node27&#45;&gt;Node13 -->
<g id="edge58_Node000027_Node000013" class="edge">
<title>Node27&#45;&gt;Node13</title>
<g id="a_edge58_Node000027_Node000013"><a xlink:title=" ">
<path fill="none" stroke="#63b8ff" d="M683.75,-287.16C686.66,-252.06 692.33,-122.5 625.88,-55.25 605.68,-34.82 525.9,-21.11 479.95,-14.73"/>
<polygon fill="#63b8ff" stroke="#63b8ff" points="480.66,-11.3 470.28,-13.44 479.73,-18.23 480.66,-11.3"/>
</a>
</g>
</g>
<!-- Node27&#45;&gt;Node17 -->
<g id="edge37_Node000027_Node000017" class="edge">
<title>Node27&#45;&gt;Node17</title>
<g id="a_edge37_Node000027_Node000017"><a xlink:title=" ">
<path fill="none" stroke="#63b8ff" d="M668.54,-287.19C656.82,-279.18 640.65,-266.43 630.88,-251.5 621.59,-237.32 591.72,-130.88 579.34,-85.87"/>
<polygon fill="#63b8ff" stroke="#63b8ff" points="582.76,-85.11 576.74,-76.39 576.01,-86.96 582.76,-85.11"/>
</a>
</g>
</g>
<!-- Node27&#45;&gt;Node23 -->
<g id="edge51_Node000027_Node000023" class="edge">
<title>Node27&#45;&gt;Node23</title>
<g id="a_edge51_Node000027_Node000023"><a xlink:title=" ">
<path fill="none" stroke="#63b8ff" d="M684.47,-287.05C686.95,-274.29 692.46,-250.56 701.88,-232.25 719.46,-198.05 748.65,-163.91 767.04,-144.09"/>
<polygon fill="#63b8ff" stroke="#63b8ff" points="769.51,-146.58 773.84,-136.91 764.43,-141.76 769.51,-146.58"/>
</a>
</g>
</g>
<!-- Node28 -->
<g id="Node000028" class="node">
<title>Node28</title>
<g id="a_Node000028"><a xlink:href="_descriptors_8hpp.html" target="_top" xlink:title=" ">
<polygon fill="white" stroke="#666666" points="524.38,-251.5 409.38,-251.5 409.38,-232.25 524.38,-232.25 524.38,-251.5"/>
<text xml:space="preserve" text-anchor="middle" x="466.88" y="-238" font-family="Helvetica,sans-Serif" font-size="10.00">armnn/Descriptors.hpp</text>
</a>
</g>
</g>
<!-- Node27&#45;&gt;Node28 -->
<g id="edge38_Node000027_Node000028" class="edge">
<title>Node27&#45;&gt;Node28</title>
<g id="a_edge38_Node000027_Node000028"><a xlink:title=" ">
<path fill="none" stroke="#63b8ff" d="M646.23,-287.09C610,-278.16 554.39,-264.45 514.69,-254.66"/>
<polygon fill="#63b8ff" stroke="#63b8ff" points="515.71,-251.31 505.17,-252.31 514.04,-258.11 515.71,-251.31"/>
</a>
</g>
</g>
<!-- Node32 -->
<g id="Node000032" class="node">
<title>Node32</title>
<g id="a_Node000032"><a xlink:href="_lstm_params_8hpp.html" target="_top" xlink:title=" ">
<polygon fill="white" stroke="#666666" points="895,-251.5 774.75,-251.5 774.75,-232.25 895,-232.25 895,-251.5"/>
<text xml:space="preserve" text-anchor="middle" x="834.88" y="-238" font-family="Helvetica,sans-Serif" font-size="10.00">armnn/LstmParams.hpp</text>
</a>
</g>
</g>
<!-- Node27&#45;&gt;Node32 -->
<g id="edge48_Node000027_Node000032" class="edge">
<title>Node27&#45;&gt;Node32</title>
<g id="a_edge48_Node000027_Node000032"><a xlink:title=" ">
<path fill="none" stroke="#63b8ff" d="M708.66,-287.09C733.23,-278.49 770.46,-265.44 798.13,-255.75"/>
<polygon fill="#63b8ff" stroke="#63b8ff" points="799.25,-259.06 807.54,-252.45 796.94,-252.46 799.25,-259.06"/>
</a>
</g>
</g>
<!-- Node34 -->
<g id="Node000034" class="node">
<title>Node34</title>
<g id="a_Node000034"><a xlink:href="_quantized_lstm_params_8hpp.html" target="_top" xlink:title=" ">
<polygon fill="white" stroke="#666666" points="1077.12,-251.5 912.62,-251.5 912.62,-232.25 1077.12,-232.25 1077.12,-251.5"/>
<text xml:space="preserve" text-anchor="middle" x="994.88" y="-238" font-family="Helvetica,sans-Serif" font-size="10.00">armnn/QuantizedLstmParams.hpp</text>
</a>
</g>
</g>
<!-- Node27&#45;&gt;Node34 -->
<g id="edge52_Node000027_Node000034" class="edge">
<title>Node27&#45;&gt;Node34</title>
<g id="a_edge52_Node000027_Node000034"><a xlink:title=" ">
<path fill="none" stroke="#63b8ff" d="M736.16,-287.03C789.92,-277.86 872.98,-263.68 930.42,-253.88"/>
<polygon fill="#63b8ff" stroke="#63b8ff" points="930.79,-257.36 940.06,-252.23 929.62,-250.46 930.79,-257.36"/>
</a>
</g>
</g>
<!-- Node35 -->
<g id="Node000035" class="node">
<title>Node35</title>
<g id="a_Node000035"><a xlink:title=" ">
<polygon fill="#e0e0e0" stroke="#999999" points="756.5,-251.5 711.25,-251.5 711.25,-232.25 756.5,-232.25 756.5,-251.5"/>
<text xml:space="preserve" text-anchor="middle" x="733.88" y="-238" font-family="Helvetica,sans-Serif" font-size="10.00">cctype</text>
</a>
</g>
</g>
<!-- Node27&#45;&gt;Node35 -->
<g id="edge55_Node000027_Node000035" class="edge">
<title>Node27&#45;&gt;Node35</title>
<g id="a_edge55_Node000027_Node000035"><a xlink:title=" ">
<path fill="none" stroke="#63b8ff" d="M691.3,-287.33C698.41,-279.9 708.82,-269.04 717.56,-259.91"/>
<polygon fill="#63b8ff" stroke="#63b8ff" points="719.83,-262.6 724.22,-252.95 714.78,-257.75 719.83,-262.6"/>
</a>
</g>
</g>
<!-- Node28&#45;&gt;Node2 -->
<g id="edge42_Node000028_Node000002" class="edge">
<title>Node28&#45;&gt;Node2</title>
<g id="a_edge42_Node000028_Node000002"><a xlink:title=" ">
<path fill="none" stroke="#63b8ff" d="M409.13,-237.74C313.59,-231.95 131.19,-218.14 111.88,-196.25 96.08,-178.35 119.68,-156.41 140.48,-142.03"/>
<polygon fill="#63b8ff" stroke="#63b8ff" points="142.26,-145.04 148.71,-136.64 138.42,-139.19 142.26,-145.04"/>
</a>
</g>
</g>
<!-- Node28&#45;&gt;Node13 -->
<g id="edge47_Node000028_Node000013" class="edge">
<title>Node28&#45;&gt;Node13</title>
<g id="a_edge47_Node000028_Node000013"><a xlink:title=" ">
<path fill="none" stroke="#63b8ff" d="M473.82,-231.78C489.08,-210.65 523.18,-156.52 509.88,-110.5 500.66,-78.63 477.93,-47.15 462.45,-28.3"/>
<polygon fill="#63b8ff" stroke="#63b8ff" points="465.24,-26.18 456.1,-20.81 459.9,-30.7 465.24,-26.18"/>
</a>
</g>
</g>
<!-- Node28&#45;&gt;Node14 -->
<g id="edge43_Node000028_Node000014" class="edge">
<title>Node28&#45;&gt;Node14</title>
<g id="a_edge43_Node000028_Node000014"><a xlink:title=" ">
<path fill="none" stroke="#63b8ff" d="M491.37,-231.84C511.6,-223.86 540.65,-211.19 563.88,-196.25 617.52,-161.74 672.13,-109.4 698.56,-82.75"/>
<polygon fill="#63b8ff" stroke="#63b8ff" points="700.83,-85.43 705.33,-75.84 695.83,-80.53 700.83,-85.43"/>
</a>
</g>
</g>
<!-- Node28&#45;&gt;Node17 -->
<g id="edge39_Node000028_Node000017" class="edge">
<title>Node28&#45;&gt;Node17</title>
<g id="a_edge39_Node000028_Node000017"><a xlink:title=" ">
<path fill="none" stroke="#63b8ff" d="M494.31,-231.76C511.37,-224.69 532.38,-213.21 544.88,-196.25 569.22,-163.21 573.76,-113.55 574.25,-86.03"/>
<polygon fill="#63b8ff" stroke="#63b8ff" points="577.75,-86.29 574.24,-76.29 570.75,-86.3 577.75,-86.29"/>
</a>
</g>
</g>
<!-- Node28&#45;&gt;Node22 -->
<g id="edge41_Node000028_Node000022" class="edge">
<title>Node28&#45;&gt;Node22</title>
<g id="a_edge41_Node000028_Node000022"><a xlink:title=" ">
<path fill="none" stroke="#63b8ff" d="M415.81,-231.78C363.07,-222.39 280.9,-207.75 225.78,-197.94"/>
<polygon fill="#63b8ff" stroke="#63b8ff" points="226.73,-194.55 216.28,-196.24 225.51,-201.44 226.73,-194.55"/>
</a>
</g>
</g>
<!-- Node28&#45;&gt;Node26 -->
<g id="edge46_Node000028_Node000026" class="edge">
<title>Node28&#45;&gt;Node26</title>
<g id="a_edge46_Node000028_Node000026"><a xlink:title=" ">
<path fill="none" stroke="#63b8ff" d="M468.41,-232.01C469.94,-223.02 472.27,-208.69 473.88,-196.25 476.01,-179.67 477.87,-160.8 479.14,-146.91"/>
<polygon fill="#63b8ff" stroke="#63b8ff" points="482.6,-147.54 479.99,-137.27 475.63,-146.92 482.6,-147.54"/>
</a>
</g>
</g>
<!-- Node29 -->
<g id="Node000029" class="node">
<title>Node29</title>
<g id="a_Node000029"><a xlink:href="_descriptors_fwd_8hpp.html" target="_top" xlink:title=" ">
<polygon fill="white" stroke="#666666" points="336.75,-196.25 233,-196.25 233,-177 336.75,-177 336.75,-196.25"/>
<text xml:space="preserve" text-anchor="middle" x="284.88" y="-182.75" font-family="Helvetica,sans-Serif" font-size="10.00">DescriptorsFwd.hpp</text>
</a>
</g>
</g>
<!-- Node28&#45;&gt;Node29 -->
<g id="edge40_Node000028_Node000029" class="edge">
<title>Node28&#45;&gt;Node29</title>
<g id="a_edge40_Node000028_Node000029"><a xlink:title=" ">
<path fill="none" stroke="#63b8ff" d="M436,-231.84C405.93,-223.04 360.01,-209.61 326.68,-199.86"/>
<polygon fill="#63b8ff" stroke="#63b8ff" points="327.93,-196.58 317.35,-197.13 325.97,-203.29 327.93,-196.58"/>
</a>
</g>
</g>
<!-- Node30 -->
<g id="Node000030" class="node">
<title>Node30</title>
<g id="a_Node000030"><a xlink:title=" ">
<polygon fill="#e0e0e0" stroke="#999999" points="400.5,-196.25 355.25,-196.25 355.25,-177 400.5,-177 400.5,-196.25"/>
<text xml:space="preserve" text-anchor="middle" x="377.88" y="-182.75" font-family="Helvetica,sans-Serif" font-size="10.00">cstdint</text>
</a>
</g>
</g>
<!-- Node28&#45;&gt;Node30 -->
<g id="edge44_Node000028_Node000030" class="edge">
<title>Node28&#45;&gt;Node30</title>
<g id="a_edge44_Node000028_Node000030"><a xlink:title=" ">
<path fill="none" stroke="#63b8ff" d="M451.78,-231.84C438.35,-223.81 418.46,-211.91 402.7,-202.48"/>
<polygon fill="#63b8ff" stroke="#63b8ff" points="404.72,-199.61 394.35,-197.48 401.13,-205.62 404.72,-199.61"/>
</a>
</g>
</g>
<!-- Node31 -->
<g id="Node000031" class="node">
<title>Node31</title>
<g id="a_Node000031"><a xlink:title=" ">
<polygon fill="#e0e0e0" stroke="#999999" points="464.88,-196.25 418.88,-196.25 418.88,-177 464.88,-177 464.88,-196.25"/>
<text xml:space="preserve" text-anchor="middle" x="441.88" y="-182.75" font-family="Helvetica,sans-Serif" font-size="10.00">iterator</text>
</a>
</g>
</g>
<!-- Node28&#45;&gt;Node31 -->
<g id="edge45_Node000028_Node000031" class="edge">
<title>Node28&#45;&gt;Node31</title>
<g id="a_edge45_Node000028_Node000031"><a xlink:title=" ">
<path fill="none" stroke="#63b8ff" d="M462.75,-232.08C459.55,-225.26 454.99,-215.56 450.95,-206.95"/>
<polygon fill="#63b8ff" stroke="#63b8ff" points="454.15,-205.54 446.74,-197.98 447.82,-208.52 454.15,-205.54"/>
</a>
</g>
</g>
<!-- Node32&#45;&gt;Node14 -->
<g id="edge50_Node000032_Node000014" class="edge">
<title>Node32&#45;&gt;Node14</title>
<g id="a_edge50_Node000032_Node000014"><a xlink:title=" ">
<path fill="none" stroke="#63b8ff" d="M823.54,-231.9C803.84,-215.73 763.16,-179.77 739.88,-141 729.49,-123.71 722.79,-101.55 718.97,-85.79"/>
<polygon fill="#63b8ff" stroke="#63b8ff" points="722.43,-85.21 716.84,-76.21 715.6,-86.74 722.43,-85.21"/>
</a>
</g>
</g>
<!-- Node33 -->
<g id="Node000033" class="node">
<title>Node33</title>
<g id="a_Node000033"><a xlink:href="_tensor_fwd_8hpp.html" target="_top" xlink:title=" ">
<polygon fill="white" stroke="#666666" points="899.25,-196.25 816.5,-196.25 816.5,-177 899.25,-177 899.25,-196.25"/>
<text xml:space="preserve" text-anchor="middle" x="857.88" y="-182.75" font-family="Helvetica,sans-Serif" font-size="10.00">TensorFwd.hpp</text>
</a>
</g>
</g>
<!-- Node32&#45;&gt;Node33 -->
<g id="edge49_Node000032_Node000033" class="edge">
<title>Node32&#45;&gt;Node33</title>
<g id="a_edge49_Node000032_Node000033"><a xlink:title=" ">
<path fill="none" stroke="#63b8ff" d="M838.67,-232.08C841.62,-225.26 845.81,-215.56 849.53,-206.95"/>
<polygon fill="#63b8ff" stroke="#63b8ff" points="852.64,-208.57 853.39,-198 846.22,-205.79 852.64,-208.57"/>
</a>
</g>
</g>
<!-- Node34&#45;&gt;Node14 -->
<g id="edge54_Node000034_Node000014" class="edge">
<title>Node34&#45;&gt;Node14</title>
<g id="a_edge54_Node000034_Node000014"><a xlink:title=" ">
<path fill="none" stroke="#63b8ff" d="M985.43,-231.87C961.04,-209.02 893.33,-147.93 827.88,-110.5 804.85,-97.33 777.18,-86.33 754.98,-78.55"/>
<polygon fill="#63b8ff" stroke="#63b8ff" points="756.28,-75.29 745.68,-75.37 754.01,-81.92 756.28,-75.29"/>
</a>
</g>
</g>
<!-- Node34&#45;&gt;Node33 -->
<g id="edge53_Node000034_Node000033" class="edge">
<title>Node34&#45;&gt;Node33</title>
<g id="a_edge53_Node000034_Node000033"><a xlink:title=" ">
<path fill="none" stroke="#63b8ff" d="M971.63,-231.84C949.69,-223.31 916.53,-210.42 891.66,-200.76"/>
<polygon fill="#63b8ff" stroke="#63b8ff" points="893.23,-197.61 882.64,-197.25 890.69,-204.14 893.23,-197.61"/>
</a>
</g>
</g>
</g>
</svg>
