<?xml version="1.0" encoding="UTF-8" standalone="no"?>
<!DOCTYPE svg PUBLIC "-//W3C//DTD SVG 1.1//EN"
 "http://www.w3.org/Graphics/SVG/1.1/DTD/svg11.dtd">
<!-- Generated by graphviz version 14.0.2 (20251019.1705)
 -->
<!-- Title: include/armnn/backends/ITensorHandleFactory.hpp Pages: 1 -->
<svg width="861pt" height="315pt"
 viewBox="0.00 0.00 861.00 315.00" xmlns="http://www.w3.org/2000/svg" xmlns:xlink="http://www.w3.org/1999/xlink">
<g id="graph0" class="graph" transform="scale(1 1) rotate(0) translate(4 310.75)">
<title>include/armnn/backends/ITensorHandleFactory.hpp</title>
<!-- Node1 -->
<g id="Node000001" class="node">
<title>Node1</title>
<g id="a_Node000001"><a xlink:title=" ">
<polygon fill="#999999" stroke="#666666" points="621,-306.75 488.75,-306.75 488.75,-276.25 621,-276.25 621,-306.75"/>
<text xml:space="preserve" text-anchor="start" x="496.75" y="-293.25" font-family="Helvetica,sans-Serif" font-size="10.00">include/armnn/backends</text>
<text xml:space="preserve" text-anchor="middle" x="554.88" y="-282" font-family="Helvetica,sans-Serif" font-size="10.00">/ITensorHandleFactory.hpp</text>
</a>
</g>
</g>
<!-- Node2 -->
<g id="Node000002" class="node">
<title>Node2</title>
<g id="a_Node000002"><a xlink:href="_i_tensor_handle_8hpp.html" target="_top" xlink:title=" ">
<polygon fill="white" stroke="#666666" points="489.75,-240.25 392,-240.25 392,-221 489.75,-221 489.75,-240.25"/>
<text xml:space="preserve" text-anchor="middle" x="440.88" y="-226.75" font-family="Helvetica,sans-Serif" font-size="10.00">ITensorHandle.hpp</text>
</a>
</g>
</g>
<!-- Node1&#45;&gt;Node2 -->
<g id="edge1_Node000001_Node000002" class="edge">
<title>Node1&#45;&gt;Node2</title>
<g id="a_edge1_Node000001_Node000002"><a xlink:title=" ">
<path fill="none" stroke="#63b8ff" d="M526.4,-275.8C508.71,-266.66 486.07,-254.97 468.53,-245.91"/>
<polygon fill="#63b8ff" stroke="#63b8ff" points="470.19,-242.83 459.7,-241.35 466.98,-249.05 470.19,-242.83"/>
</a>
</g>
</g>
<!-- Node3 -->
<g id="Node000003" class="node">
<title>Node3</title>
<g id="a_Node000003"><a xlink:href="_memory_sources_8hpp.html" target="_top" xlink:title=" ">
<polygon fill="white" stroke="#666666" points="319.88,-185 183.88,-185 183.88,-165.75 319.88,-165.75 319.88,-185"/>
<text xml:space="preserve" text-anchor="middle" x="251.88" y="-171.5" font-family="Helvetica,sans-Serif" font-size="10.00">armnn/MemorySources.hpp</text>
</a>
</g>
</g>
<!-- Node1&#45;&gt;Node3 -->
<g id="edge34_Node000001_Node000003" class="edge">
<title>Node1&#45;&gt;Node3</title>
<g id="a_edge34_Node000001_Node000003"><a xlink:title=" ">
<path fill="none" stroke="#63b8ff" d="M489.67,-275.76C455,-267.06 412,-254.89 374.88,-240.25 339.58,-226.33 301.11,-205.33 276.75,-191.25"/>
<polygon fill="#63b8ff" stroke="#63b8ff" points="278.63,-188.29 268.23,-186.26 275.1,-194.33 278.63,-188.29"/>
</a>
</g>
</g>
<!-- Node4 -->
<g id="Node000004" class="node">
<title>Node4</title>
<g id="a_Node000004"><a xlink:href="_types_8hpp.html" target="_top" xlink:title=" ">
<polygon fill="white" stroke="#666666" points="440.38,-129.75 349.38,-129.75 349.38,-110.5 440.38,-110.5 440.38,-129.75"/>
<text xml:space="preserve" text-anchor="middle" x="394.88" y="-116.25" font-family="Helvetica,sans-Serif" font-size="10.00">armnn/Types.hpp</text>
</a>
</g>
</g>
<!-- Node1&#45;&gt;Node4 -->
<g id="edge36_Node000001_Node000004" class="edge">
<title>Node1&#45;&gt;Node4</title>
<g id="a_edge36_Node000001_Node000004"><a xlink:title=" ">
<path fill="none" stroke="#63b8ff" d="M551.95,-275.8C546.14,-250.21 530.86,-197.21 498.88,-165.75 483.89,-151.01 463.26,-140.79 444.32,-133.9"/>
<polygon fill="#63b8ff" stroke="#63b8ff" points="445.46,-130.59 434.86,-130.7 443.21,-137.22 445.46,-130.59"/>
</a>
</g>
</g>
<!-- Node10 -->
<g id="Node000010" class="node">
<title>Node10</title>
<g id="a_Node000010"><a xlink:title=" ">
<polygon fill="#e0e0e0" stroke="#999999" points="852.5,-19.25 801.25,-19.25 801.25,0 852.5,0 852.5,-19.25"/>
<text xml:space="preserve" text-anchor="middle" x="826.88" y="-5.75" font-family="Helvetica,sans-Serif" font-size="10.00">memory</text>
</a>
</g>
</g>
<!-- Node1&#45;&gt;Node10 -->
<g id="edge38_Node000001_Node000010" class="edge">
<title>Node1&#45;&gt;Node10</title>
<g id="a_edge38_Node000001_Node000010"><a xlink:title=" ">
<path fill="none" stroke="#63b8ff" d="M621.46,-290.85C703.71,-287.37 832.88,-267.42 832.88,-176.38 832.88,-176.38 832.88,-176.38 832.88,-119.12 832.88,-88.36 830.44,-52.76 828.67,-30.97"/>
<polygon fill="#63b8ff" stroke="#63b8ff" points="832.17,-30.79 827.84,-21.13 825.2,-31.39 832.17,-30.79"/>
</a>
</g>
</g>
<!-- Node13 -->
<g id="Node000013" class="node">
<title>Node13</title>
<g id="a_Node000013"><a xlink:title=" ">
<polygon fill="#e0e0e0" stroke="#999999" points="520.88,-19.25 480.88,-19.25 480.88,0 520.88,0 520.88,-19.25"/>
<text xml:space="preserve" text-anchor="middle" x="500.88" y="-5.75" font-family="Helvetica,sans-Serif" font-size="10.00">string</text>
</a>
</g>
</g>
<!-- Node1&#45;&gt;Node13 -->
<g id="edge39_Node000001_Node000013" class="edge">
<title>Node1&#45;&gt;Node13</title>
<g id="a_edge39_Node000001_Node000013"><a xlink:title=" ">
<path fill="none" stroke="#63b8ff" d="M576.43,-275.87C630.29,-237.57 762.1,-132.03 699.88,-55.25 653.43,2.06 608.91,-34.62 532.15,-19.38"/>
<polygon fill="#63b8ff" stroke="#63b8ff" points="533.1,-16 522.57,-17.2 531.55,-22.83 533.1,-16"/>
</a>
</g>
</g>
<!-- Node15 -->
<g id="Node000015" class="node">
<title>Node15</title>
<g id="a_Node000015"><a xlink:title=" ">
<polygon fill="#e0e0e0" stroke="#999999" points="778.38,-19.25 735.38,-19.25 735.38,0 778.38,0 778.38,-19.25"/>
<text xml:space="preserve" text-anchor="middle" x="756.88" y="-5.75" font-family="Helvetica,sans-Serif" font-size="10.00">vector</text>
</a>
</g>
</g>
<!-- Node1&#45;&gt;Node15 -->
<g id="edge40_Node000001_Node000015" class="edge">
<title>Node1&#45;&gt;Node15</title>
<g id="a_edge40_Node000001_Node000015"><a xlink:title=" ">
<path fill="none" stroke="#63b8ff" d="M621.41,-286.68C692.44,-278.59 794.88,-253.54 794.88,-176.38 794.88,-176.38 794.88,-176.38 794.88,-119.12 794.88,-86.13 779.03,-50.51 767.81,-29.41"/>
<polygon fill="#63b8ff" stroke="#63b8ff" points="770.97,-27.9 763.05,-20.86 764.85,-31.3 770.97,-27.9"/>
</a>
</g>
</g>
<!-- Node21 -->
<g id="Node000021" class="node">
<title>Node21</title>
<g id="a_Node000021"><a xlink:href="_ignore_unused_8hpp.html" target="_top" xlink:title=" ">
<polygon fill="white" stroke="#666666" points="489.75,-185 338,-185 338,-165.75 489.75,-165.75 489.75,-185"/>
<text xml:space="preserve" text-anchor="middle" x="413.88" y="-171.5" font-family="Helvetica,sans-Serif" font-size="10.00">armnn/utility/IgnoreUnused.hpp</text>
</a>
</g>
</g>
<!-- Node1&#45;&gt;Node21 -->
<g id="edge37_Node000001_Node000021" class="edge">
<title>Node1&#45;&gt;Node21</title>
<g id="a_edge37_Node000001_Node000021"><a xlink:title=" ">
<path fill="none" stroke="#63b8ff" d="M488.52,-279.54C445.79,-270.97 395.89,-257.61 382.88,-240.25 371.96,-225.69 383.95,-206.67 396.05,-193.19"/>
<polygon fill="#63b8ff" stroke="#63b8ff" points="398.27,-195.93 402.73,-186.31 393.25,-191.05 398.27,-195.93"/>
</a>
</g>
</g>
<!-- Node22 -->
<g id="Node000022" class="node">
<title>Node22</title>
<g id="a_Node000022"><a xlink:href="_tensor_8hpp.html" target="_top" xlink:title=" ">
<polygon fill="white" stroke="#666666" points="639.5,-185 546.25,-185 546.25,-165.75 639.5,-165.75 639.5,-185"/>
<text xml:space="preserve" text-anchor="middle" x="592.88" y="-171.5" font-family="Helvetica,sans-Serif" font-size="10.00">armnn/Tensor.hpp</text>
</a>
</g>
</g>
<!-- Node1&#45;&gt;Node22 -->
<g id="edge35_Node000001_Node000022" class="edge">
<title>Node1&#45;&gt;Node22</title>
<g id="a_edge35_Node000001_Node000022"><a xlink:title=" ">
<path fill="none" stroke="#63b8ff" d="M559.69,-276.05C566.43,-255.81 578.69,-218.97 586.28,-196.19"/>
<polygon fill="#63b8ff" stroke="#63b8ff" points="589.54,-197.48 589.38,-186.88 582.9,-195.27 589.54,-197.48"/>
</a>
</g>
</g>
<!-- Node2&#45;&gt;Node3 -->
<g id="edge2_Node000002_Node000003" class="edge">
<title>Node2&#45;&gt;Node3</title>
<g id="a_edge2_Node000002_Node000003"><a xlink:title=" ">
<path fill="none" stroke="#63b8ff" d="M408.81,-220.59C377.45,-211.76 329.49,-198.24 294.84,-188.48"/>
<polygon fill="#63b8ff" stroke="#63b8ff" points="296.12,-185.21 285.55,-185.86 294.23,-191.94 296.12,-185.21"/>
</a>
</g>
</g>
<!-- Node2&#45;&gt;Node21 -->
<g id="edge21_Node000002_Node000021" class="edge">
<title>Node2&#45;&gt;Node21</title>
<g id="a_edge21_Node000002_Node000021"><a xlink:title=" ">
<path fill="none" stroke="#63b8ff" d="M436.42,-220.83C432.92,-213.94 427.93,-204.09 423.53,-195.41"/>
<polygon fill="#63b8ff" stroke="#63b8ff" points="426.76,-194.05 419.11,-186.71 420.52,-197.21 426.76,-194.05"/>
</a>
</g>
</g>
<!-- Node2&#45;&gt;Node22 -->
<g id="edge22_Node000002_Node000022" class="edge">
<title>Node2&#45;&gt;Node22</title>
<g id="a_edge22_Node000002_Node000022"><a xlink:title=" ">
<path fill="none" stroke="#63b8ff" d="M466.66,-220.59C491.23,-211.99 528.46,-198.94 556.13,-189.25"/>
<polygon fill="#63b8ff" stroke="#63b8ff" points="557.25,-192.56 565.54,-185.95 554.94,-185.96 557.25,-192.56"/>
</a>
</g>
</g>
<!-- Node3&#45;&gt;Node4 -->
<g id="edge3_Node000003_Node000004" class="edge">
<title>Node3&#45;&gt;Node4</title>
<g id="a_edge3_Node000003_Node000004"><a xlink:title=" ">
<path fill="none" stroke="#63b8ff" d="M276.13,-165.34C299.14,-156.77 333.97,-143.81 359.96,-134.13"/>
<polygon fill="#63b8ff" stroke="#63b8ff" points="360.93,-137.5 369.08,-130.73 358.49,-130.94 360.93,-137.5"/>
</a>
</g>
</g>
<!-- Node20 -->
<g id="Node000020" class="node">
<title>Node20</title>
<g id="a_Node000020"><a xlink:title=" ">
<polygon fill="#e0e0e0" stroke="#999999" points="61.75,-74.5 0,-74.5 0,-55.25 61.75,-55.25 61.75,-74.5"/>
<text xml:space="preserve" text-anchor="middle" x="30.88" y="-61" font-family="Helvetica,sans-Serif" font-size="10.00">type_traits</text>
</a>
</g>
</g>
<!-- Node3&#45;&gt;Node20 -->
<g id="edge20_Node000003_Node000020" class="edge">
<title>Node3&#45;&gt;Node20</title>
<g id="a_edge20_Node000003_Node000020"><a xlink:title=" ">
<path fill="none" stroke="#63b8ff" d="M214.51,-165.3C186.91,-157.81 148.91,-145.8 117.88,-129.75 92.32,-116.53 66.12,-96.19 49.24,-82.02"/>
<polygon fill="#63b8ff" stroke="#63b8ff" points="51.91,-79.7 42.04,-75.86 47.36,-85.02 51.91,-79.7"/>
</a>
</g>
</g>
<!-- Node5 -->
<g id="Node000005" class="node">
<title>Node5</title>
<g id="a_Node000005"><a xlink:title=" ">
<polygon fill="#e0e0e0" stroke="#999999" points="624.75,-74.5 587,-74.5 587,-55.25 624.75,-55.25 624.75,-74.5"/>
<text xml:space="preserve" text-anchor="middle" x="605.88" y="-61" font-family="Helvetica,sans-Serif" font-size="10.00">array</text>
</a>
</g>
</g>
<!-- Node4&#45;&gt;Node5 -->
<g id="edge4_Node000004_Node000005" class="edge">
<title>Node4&#45;&gt;Node5</title>
<g id="a_edge4_Node000004_Node000005"><a xlink:title=" ">
<path fill="none" stroke="#63b8ff" d="M435.04,-110.06C469.91,-102.02 521.99,-89.64 575.85,-74.94"/>
<polygon fill="#63b8ff" stroke="#63b8ff" points="576.47,-78.4 585.18,-72.37 574.61,-71.65 576.47,-78.4"/>
</a>
</g>
</g>
<!-- Node6 -->
<g id="Node000006" class="node">
<title>Node6</title>
<g id="a_Node000006"><a xlink:title=" ">
<polygon fill="#e0e0e0" stroke="#999999" points="405.88,-74.5 347.88,-74.5 347.88,-55.25 405.88,-55.25 405.88,-74.5"/>
<text xml:space="preserve" text-anchor="middle" x="376.88" y="-61" font-family="Helvetica,sans-Serif" font-size="10.00">functional</text>
</a>
</g>
</g>
<!-- Node4&#45;&gt;Node6 -->
<g id="edge5_Node000004_Node000006" class="edge">
<title>Node4&#45;&gt;Node6</title>
<g id="a_edge5_Node000004_Node000006"><a xlink:title=" ">
<path fill="none" stroke="#63b8ff" d="M391.9,-110.33C389.62,-103.59 386.39,-94.02 383.51,-85.49"/>
<polygon fill="#63b8ff" stroke="#63b8ff" points="386.91,-84.65 380.4,-76.29 380.28,-86.89 386.91,-84.65"/>
</a>
</g>
</g>
<!-- Node7 -->
<g id="Node000007" class="node">
<title>Node7</title>
<g id="a_Node000007"><a xlink:title=" ">
<polygon fill="#e0e0e0" stroke="#999999" points="691,-74.5 642.75,-74.5 642.75,-55.25 691,-55.25 691,-74.5"/>
<text xml:space="preserve" text-anchor="middle" x="666.88" y="-61" font-family="Helvetica,sans-Serif" font-size="10.00">stdint.h</text>
</a>
</g>
</g>
<!-- Node4&#45;&gt;Node7 -->
<g id="edge6_Node000004_Node000007" class="edge">
<title>Node4&#45;&gt;Node7</title>
<g id="a_edge6_Node000004_Node000007"><a xlink:title=" ">
<path fill="none" stroke="#63b8ff" d="M440.44,-111.61C486.33,-103.82 559.37,-90.82 631.34,-74.94"/>
<polygon fill="#63b8ff" stroke="#63b8ff" points="631.94,-78.4 640.94,-72.8 630.41,-71.56 631.94,-78.4"/>
</a>
</g>
</g>
<!-- Node8 -->
<g id="Node000008" class="node">
<title>Node8</title>
<g id="a_Node000008"><a xlink:title=" ">
<polygon fill="#e0e0e0" stroke="#999999" points="469.5,-74.5 424.25,-74.5 424.25,-55.25 469.5,-55.25 469.5,-74.5"/>
<text xml:space="preserve" text-anchor="middle" x="446.88" y="-61" font-family="Helvetica,sans-Serif" font-size="10.00">chrono</text>
</a>
</g>
</g>
<!-- Node4&#45;&gt;Node8 -->
<g id="edge7_Node000004_Node000008" class="edge">
<title>Node4&#45;&gt;Node8</title>
<g id="a_edge7_Node000004_Node000008"><a xlink:title=" ">
<path fill="none" stroke="#63b8ff" d="M403.46,-110.33C410.72,-102.9 421.33,-92.04 430.24,-82.91"/>
<polygon fill="#63b8ff" stroke="#63b8ff" points="432.56,-85.54 437.04,-75.94 427.55,-80.65 432.56,-85.54"/>
</a>
</g>
</g>
<!-- Node9 -->
<g id="Node000009" class="node">
<title>Node9</title>
<g id="a_Node000009"><a xlink:href="_backend_id_8hpp.html" target="_top" xlink:title=" ">
<polygon fill="white" stroke="#666666" points="568.5,-74.5 487.25,-74.5 487.25,-55.25 568.5,-55.25 568.5,-74.5"/>
<text xml:space="preserve" text-anchor="middle" x="527.88" y="-61" font-family="Helvetica,sans-Serif" font-size="10.00">BackendId.hpp</text>
</a>
</g>
</g>
<!-- Node4&#45;&gt;Node9 -->
<g id="edge8_Node000004_Node000009" class="edge">
<title>Node4&#45;&gt;Node9</title>
<g id="a_edge8_Node000004_Node000009"><a xlink:title=" ">
<path fill="none" stroke="#63b8ff" d="M417.44,-110.09C438.65,-101.6 470.65,-88.79 494.75,-79.14"/>
<polygon fill="#63b8ff" stroke="#63b8ff" points="495.81,-82.48 503.8,-75.52 493.21,-75.98 495.81,-82.48"/>
</a>
</g>
</g>
<!-- Node16 -->
<g id="Node000016" class="node">
<title>Node16</title>
<g id="a_Node000016"><a xlink:href="_exceptions_8hpp.html" target="_top" xlink:title=" ">
<polygon fill="white" stroke="#666666" points="226.62,-74.5 143.12,-74.5 143.12,-55.25 226.62,-55.25 226.62,-74.5"/>
<text xml:space="preserve" text-anchor="middle" x="184.88" y="-61" font-family="Helvetica,sans-Serif" font-size="10.00">Exceptions.hpp</text>
</a>
</g>
</g>
<!-- Node4&#45;&gt;Node16 -->
<g id="edge15_Node000004_Node000016" class="edge">
<title>Node4&#45;&gt;Node16</title>
<g id="a_edge15_Node000004_Node000016"><a xlink:title=" ">
<path fill="none" stroke="#63b8ff" d="M359.25,-110.09C324.1,-101.18 270.19,-87.51 231.61,-77.73"/>
<polygon fill="#63b8ff" stroke="#63b8ff" points="232.69,-74.39 222.14,-75.32 230.97,-81.18 232.69,-74.39"/>
</a>
</g>
</g>
<!-- Node19 -->
<g id="Node000019" class="node">
<title>Node19</title>
<g id="a_Node000019"><a xlink:href="_deprecated_8hpp.html" target="_top" xlink:title=" ">
<polygon fill="white" stroke="#666666" points="329.38,-74.5 244.38,-74.5 244.38,-55.25 329.38,-55.25 329.38,-74.5"/>
<text xml:space="preserve" text-anchor="middle" x="286.88" y="-61" font-family="Helvetica,sans-Serif" font-size="10.00">Deprecated.hpp</text>
</a>
</g>
</g>
<!-- Node4&#45;&gt;Node19 -->
<g id="edge19_Node000004_Node000019" class="edge">
<title>Node4&#45;&gt;Node19</title>
<g id="a_edge19_Node000004_Node000019"><a xlink:title=" ">
<path fill="none" stroke="#63b8ff" d="M376.55,-110.09C359.8,-101.83 334.74,-89.48 315.37,-79.93"/>
<polygon fill="#63b8ff" stroke="#63b8ff" points="317.16,-76.9 306.64,-75.62 314.06,-83.18 317.16,-76.9"/>
</a>
</g>
</g>
<!-- Node9&#45;&gt;Node10 -->
<g id="edge9_Node000009_Node000010" class="edge">
<title>Node9&#45;&gt;Node10</title>
<g id="a_edge9_Node000009_Node000010"><a xlink:title=" ">
<path fill="none" stroke="#63b8ff" d="M568.8,-56.81C571.87,-56.28 574.92,-55.76 577.88,-55.25 671.2,-39.2 694.95,-37.48 787.88,-19.25 788.53,-19.12 789.2,-18.99 789.87,-18.85"/>
<polygon fill="#63b8ff" stroke="#63b8ff" points="790.34,-22.33 799.42,-16.86 788.91,-15.48 790.34,-22.33"/>
</a>
</g>
</g>
<!-- Node11 -->
<g id="Node000011" class="node">
<title>Node11</title>
<g id="a_Node000011"><a xlink:title=" ">
<polygon fill="#e0e0e0" stroke="#999999" points="462.5,-19.25 411.25,-19.25 411.25,0 462.5,0 462.5,-19.25"/>
<text xml:space="preserve" text-anchor="middle" x="436.88" y="-5.75" font-family="Helvetica,sans-Serif" font-size="10.00">ostream</text>
</a>
</g>
</g>
<!-- Node9&#45;&gt;Node11 -->
<g id="edge10_Node000009_Node000011" class="edge">
<title>Node9&#45;&gt;Node11</title>
<g id="a_edge10_Node000009_Node000011"><a xlink:title=" ">
<path fill="none" stroke="#63b8ff" d="M512.44,-54.84C498.71,-46.81 478.38,-34.91 462.26,-25.48"/>
<polygon fill="#63b8ff" stroke="#63b8ff" points="464.09,-22.5 453.69,-20.47 460.56,-28.54 464.09,-22.5"/>
</a>
</g>
</g>
<!-- Node12 -->
<g id="Node000012" class="node">
<title>Node12</title>
<g id="a_Node000012"><a xlink:title=" ">
<polygon fill="#e0e0e0" stroke="#999999" points="568.62,-19.25 539.12,-19.25 539.12,0 568.62,0 568.62,-19.25"/>
<text xml:space="preserve" text-anchor="middle" x="553.88" y="-5.75" font-family="Helvetica,sans-Serif" font-size="10.00">set</text>
</a>
</g>
</g>
<!-- Node9&#45;&gt;Node12 -->
<g id="edge11_Node000009_Node000012" class="edge">
<title>Node9&#45;&gt;Node12</title>
<g id="a_edge11_Node000009_Node000012"><a xlink:title=" ">
<path fill="none" stroke="#63b8ff" d="M532.17,-55.08C535.5,-48.26 540.24,-38.56 544.44,-29.95"/>
<polygon fill="#63b8ff" stroke="#63b8ff" points="547.58,-31.49 548.82,-20.97 541.29,-28.42 547.58,-31.49"/>
</a>
</g>
</g>
<!-- Node9&#45;&gt;Node13 -->
<g id="edge12_Node000009_Node000013" class="edge">
<title>Node9&#45;&gt;Node13</title>
<g id="a_edge12_Node000009_Node000013"><a xlink:title=" ">
<path fill="none" stroke="#63b8ff" d="M523.42,-55.08C519.92,-48.19 514.93,-38.34 510.53,-29.66"/>
<polygon fill="#63b8ff" stroke="#63b8ff" points="513.76,-28.3 506.11,-20.96 507.52,-31.46 513.76,-28.3"/>
</a>
</g>
</g>
<!-- Node14 -->
<g id="Node000014" class="node">
<title>Node14</title>
<g id="a_Node000014"><a xlink:title=" ">
<polygon fill="#e0e0e0" stroke="#999999" points="664.62,-19.25 587.12,-19.25 587.12,0 664.62,0 664.62,-19.25"/>
<text xml:space="preserve" text-anchor="middle" x="625.88" y="-5.75" font-family="Helvetica,sans-Serif" font-size="10.00">unordered_set</text>
</a>
</g>
</g>
<!-- Node9&#45;&gt;Node14 -->
<g id="edge13_Node000009_Node000014" class="edge">
<title>Node9&#45;&gt;Node14</title>
<g id="a_edge13_Node000009_Node000014"><a xlink:title=" ">
<path fill="none" stroke="#63b8ff" d="M544.5,-54.84C559.56,-46.66 582.02,-34.46 599.53,-24.94"/>
<polygon fill="#63b8ff" stroke="#63b8ff" points="600.72,-28.27 607.84,-20.43 597.38,-22.12 600.72,-28.27"/>
</a>
</g>
</g>
<!-- Node9&#45;&gt;Node15 -->
<g id="edge14_Node000009_Node000015" class="edge">
<title>Node9&#45;&gt;Node15</title>
<g id="a_edge14_Node000009_Node000015"><a xlink:title=" ">
<path fill="none" stroke="#63b8ff" d="M566.98,-54.78C611.14,-44.51 682.23,-27.98 723.76,-18.32"/>
<polygon fill="#63b8ff" stroke="#63b8ff" points="724.47,-21.75 733.42,-16.08 722.88,-14.94 724.47,-21.75"/>
</a>
</g>
</g>
<!-- Node16&#45;&gt;Node13 -->
<g id="edge18_Node000016_Node000013" class="edge">
<title>Node16&#45;&gt;Node13</title>
<g id="a_edge18_Node000016_Node000013"><a xlink:title=" ">
<path fill="none" stroke="#63b8ff" d="M226.88,-56.57C229.58,-56.12 232.27,-55.67 234.88,-55.25 336.55,-38.76 365.96,-42.23 469.73,-19.46"/>
<polygon fill="#63b8ff" stroke="#63b8ff" points="470.21,-22.94 479.21,-17.35 468.69,-16.1 470.21,-22.94"/>
</a>
</g>
</g>
<!-- Node17 -->
<g id="Node000017" class="node">
<title>Node17</title>
<g id="a_Node000017"><a xlink:title=" ">
<polygon fill="#e0e0e0" stroke="#999999" points="246.5,-19.25 195.25,-19.25 195.25,0 246.5,0 246.5,-19.25"/>
<text xml:space="preserve" text-anchor="middle" x="220.88" y="-5.75" font-family="Helvetica,sans-Serif" font-size="10.00">sstream</text>
</a>
</g>
</g>
<!-- Node16&#45;&gt;Node17 -->
<g id="edge16_Node000016_Node000017" class="edge">
<title>Node16&#45;&gt;Node17</title>
<g id="a_edge16_Node000016_Node000017"><a xlink:title=" ">
<path fill="none" stroke="#63b8ff" d="M190.82,-55.08C195.59,-48.03 202.44,-37.9 208.4,-29.08"/>
<polygon fill="#63b8ff" stroke="#63b8ff" points="211.25,-31.11 213.95,-20.86 205.45,-27.19 211.25,-31.11"/>
</a>
</g>
</g>
<!-- Node18 -->
<g id="Node000018" class="node">
<title>Node18</title>
<g id="a_Node000018"><a xlink:title=" ">
<polygon fill="#e0e0e0" stroke="#999999" points="177.25,-19.25 118.5,-19.25 118.5,0 177.25,0 177.25,-19.25"/>
<text xml:space="preserve" text-anchor="middle" x="147.88" y="-5.75" font-family="Helvetica,sans-Serif" font-size="10.00">stdexcept</text>
</a>
</g>
</g>
<!-- Node16&#45;&gt;Node18 -->
<g id="edge17_Node000016_Node000018" class="edge">
<title>Node16&#45;&gt;Node18</title>
<g id="a_edge17_Node000016_Node000018"><a xlink:title=" ">
<path fill="none" stroke="#63b8ff" d="M178.77,-55.08C173.81,-47.96 166.67,-37.68 160.5,-28.8"/>
<polygon fill="#63b8ff" stroke="#63b8ff" points="163.56,-27.07 154.98,-20.85 157.81,-31.06 163.56,-27.07"/>
</a>
</g>
</g>
<!-- Node22&#45;&gt;Node4 -->
<g id="edge28_Node000022_Node000004" class="edge">
<title>Node22&#45;&gt;Node4</title>
<g id="a_edge28_Node000022_Node000004"><a xlink:title=" ">
<path fill="none" stroke="#63b8ff" d="M559.29,-165.34C526.29,-156.47 475.75,-142.87 439.41,-133.1"/>
<polygon fill="#63b8ff" stroke="#63b8ff" points="440.66,-129.81 430.09,-130.6 438.84,-136.57 440.66,-129.81"/>
</a>
</g>
</g>
<!-- Node22&#45;&gt;Node5 -->
<g id="edge30_Node000022_Node000005" class="edge">
<title>Node22&#45;&gt;Node5</title>
<g id="a_edge30_Node000022_Node000005"><a xlink:title=" ">
<path fill="none" stroke="#63b8ff" d="M593.94,-165.5C596.01,-148.25 600.61,-109.83 603.46,-86.06"/>
<polygon fill="#63b8ff" stroke="#63b8ff" points="606.9,-86.72 604.62,-76.38 599.95,-85.89 606.9,-86.72"/>
</a>
</g>
</g>
<!-- Node22&#45;&gt;Node7 -->
<g id="edge29_Node000022_Node000007" class="edge">
<title>Node22&#45;&gt;Node7</title>
<g id="a_edge29_Node000022_Node000007"><a xlink:title=" ">
<path fill="none" stroke="#63b8ff" d="M598.93,-165.5C611.02,-147.77 638.35,-107.69 654.43,-84.13"/>
<polygon fill="#63b8ff" stroke="#63b8ff" points="657.14,-86.36 659.88,-76.13 651.36,-82.42 657.14,-86.36"/>
</a>
</g>
</g>
<!-- Node22&#45;&gt;Node15 -->
<g id="edge32_Node000022_Node000015" class="edge">
<title>Node22&#45;&gt;Node15</title>
<g id="a_edge32_Node000022_Node000015"><a xlink:title=" ">
<path fill="none" stroke="#63b8ff" d="M603.59,-165.33C614.02,-156.44 630.26,-142.4 643.88,-129.75 669.49,-105.95 675.78,-99.83 699.88,-74.5 714.55,-59.07 730.64,-40.91 741.98,-27.91"/>
<polygon fill="#63b8ff" stroke="#63b8ff" points="744.4,-30.45 748.31,-20.61 739.12,-25.87 744.4,-30.45"/>
</a>
</g>
</g>
<!-- Node22&#45;&gt;Node16 -->
<g id="edge23_Node000022_Node000016" class="edge">
<title>Node22&#45;&gt;Node16</title>
<g id="a_edge23_Node000022_Node000016"><a xlink:title=" ">
<path fill="none" stroke="#63b8ff" d="M546.21,-169.14C495.11,-162.71 411.08,-150.09 340.88,-129.75 295.06,-116.48 244.35,-94.22 213.55,-79.79"/>
<polygon fill="#63b8ff" stroke="#63b8ff" points="215.05,-76.63 204.51,-75.51 212.05,-82.95 215.05,-76.63"/>
</a>
</g>
</g>
<!-- Node23 -->
<g id="Node000023" class="node">
<title>Node23</title>
<g id="a_Node000023"><a xlink:href="_optional_8hpp.html" target="_top" xlink:title=" ">
<polygon fill="white" stroke="#666666" points="197.25,-129.75 126.5,-129.75 126.5,-110.5 197.25,-110.5 197.25,-129.75"/>
<text xml:space="preserve" text-anchor="middle" x="161.88" y="-116.25" font-family="Helvetica,sans-Serif" font-size="10.00">Optional.hpp</text>
</a>
</g>
</g>
<!-- Node22&#45;&gt;Node23 -->
<g id="edge24_Node000022_Node000023" class="edge">
<title>Node22&#45;&gt;Node23</title>
<g id="a_edge24_Node000022_Node000023"><a xlink:title=" ">
<path fill="none" stroke="#63b8ff" d="M545.93,-168.57C463.08,-158.34 291.87,-137.19 208.94,-126.94"/>
<polygon fill="#63b8ff" stroke="#63b8ff" points="209.46,-123.48 199.1,-125.72 208.6,-130.42 209.46,-123.48"/>
</a>
</g>
</g>
<!-- Node25 -->
<g id="Node000025" class="node">
<title>Node25</title>
<g id="a_Node000025"><a xlink:title=" ">
<polygon fill="#e0e0e0" stroke="#999999" points="531,-129.75 458.75,-129.75 458.75,-110.5 531,-110.5 531,-129.75"/>
<text xml:space="preserve" text-anchor="middle" x="494.88" y="-116.25" font-family="Helvetica,sans-Serif" font-size="10.00">initializer_list</text>
</a>
</g>
</g>
<!-- Node22&#45;&gt;Node25 -->
<g id="edge31_Node000022_Node000025" class="edge">
<title>Node22&#45;&gt;Node25</title>
<g id="a_edge31_Node000022_Node000025"><a xlink:title=" ">
<path fill="none" stroke="#63b8ff" d="M576.25,-165.34C561.19,-157.16 538.73,-144.96 521.22,-135.44"/>
<polygon fill="#63b8ff" stroke="#63b8ff" points="523.37,-132.62 512.91,-130.93 520.03,-138.77 523.37,-132.62"/>
</a>
</g>
</g>
<!-- Node26 -->
<g id="Node000026" class="node">
<title>Node26</title>
<g id="a_Node000026"><a xlink:title=" ">
<polygon fill="#e0e0e0" stroke="#999999" points="588.5,-129.75 549.25,-129.75 549.25,-110.5 588.5,-110.5 588.5,-129.75"/>
<text xml:space="preserve" text-anchor="middle" x="568.88" y="-116.25" font-family="Helvetica,sans-Serif" font-size="10.00">utility</text>
</a>
</g>
</g>
<!-- Node22&#45;&gt;Node26 -->
<g id="edge33_Node000022_Node000026" class="edge">
<title>Node22&#45;&gt;Node26</title>
<g id="a_edge33_Node000022_Node000026"><a xlink:title=" ">
<path fill="none" stroke="#63b8ff" d="M588.91,-165.58C585.84,-158.76 581.46,-149.06 577.59,-140.45"/>
<polygon fill="#63b8ff" stroke="#63b8ff" points="580.85,-139.17 573.55,-131.49 574.46,-142.04 580.85,-139.17"/>
</a>
</g>
</g>
<!-- Node23&#45;&gt;Node16 -->
<g id="edge25_Node000023_Node000016" class="edge">
<title>Node23&#45;&gt;Node16</title>
<g id="a_edge25_Node000023_Node000016"><a xlink:title=" ">
<path fill="none" stroke="#63b8ff" d="M165.67,-110.33C168.62,-103.51 172.81,-93.81 176.53,-85.2"/>
<polygon fill="#63b8ff" stroke="#63b8ff" points="179.64,-86.82 180.39,-76.25 173.22,-84.04 179.64,-86.82"/>
</a>
</g>
</g>
<!-- Node23&#45;&gt;Node20 -->
<g id="edge27_Node000023_Node000020" class="edge">
<title>Node23&#45;&gt;Node20</title>
<g id="a_edge27_Node000023_Node000020"><a xlink:title=" ">
<path fill="none" stroke="#63b8ff" d="M139.65,-110.09C118.86,-101.64 87.53,-88.9 63.82,-79.27"/>
<polygon fill="#63b8ff" stroke="#63b8ff" points="65.19,-76.05 54.61,-75.52 62.55,-82.53 65.19,-76.05"/>
</a>
</g>
</g>
<!-- Node24 -->
<g id="Node000024" class="node">
<title>Node24</title>
<g id="a_Node000024"><a xlink:title=" ">
<polygon fill="#e0e0e0" stroke="#999999" points="125.5,-74.5 80.25,-74.5 80.25,-55.25 125.5,-55.25 125.5,-74.5"/>
<text xml:space="preserve" text-anchor="middle" x="102.88" y="-61" font-family="Helvetica,sans-Serif" font-size="10.00">cstring</text>
</a>
</g>
</g>
<!-- Node23&#45;&gt;Node24 -->
<g id="edge26_Node000023_Node000024" class="edge">
<title>Node23&#45;&gt;Node24</title>
<g id="a_edge26_Node000023_Node000024"><a xlink:title=" ">
<path fill="none" stroke="#63b8ff" d="M151.87,-110.09C143.51,-102.55 131.38,-91.6 121.27,-82.48"/>
<polygon fill="#63b8ff" stroke="#63b8ff" points="123.63,-79.89 113.86,-75.79 118.94,-85.09 123.63,-79.89"/>
</a>
</g>
</g>
</g>
</svg>
