<?xml version="1.0" encoding="UTF-8" standalone="no"?>
<!DOCTYPE svg PUBLIC "-//W3C//DTD SVG 1.1//EN"
 "http://www.w3.org/Graphics/SVG/1.1/DTD/svg11.dtd">
<!-- Generated by graphviz version 14.0.2 (20251019.1705)
 -->
<!-- Title: src/armnn/LayerSupportCommon.hpp Pages: 1 -->
<svg width="810pt" height="248pt"
 viewBox="0.00 0.00 810.00 248.00" xmlns="http://www.w3.org/2000/svg" xmlns:xlink="http://www.w3.org/1999/xlink">
<g id="graph0" class="graph" transform="scale(1 1) rotate(0) translate(4 244.25)">
<title>src/armnn/LayerSupportCommon.hpp</title>
<!-- Node1 -->
<g id="Node000001" class="node">
<title>Node1</title>
<g id="a_Node000001"><a xlink:title=" ">
<polygon fill="#999999" stroke="#666666" points="519.12,-240.25 340.38,-240.25 340.38,-221 519.12,-221 519.12,-240.25"/>
<text xml:space="preserve" text-anchor="middle" x="429.75" y="-226.75" font-family="Helvetica,sans-Serif" font-size="10.00">src/armnn/LayerSupportCommon.hpp</text>
</a>
</g>
</g>
<!-- Node2 -->
<g id="Node000002" class="node">
<title>Node2</title>
<g id="a_Node000002"><a xlink:href="_ignore_unused_8hpp.html" target="_top" xlink:title=" ">
<polygon fill="white" stroke="#666666" points="249.62,-185 97.88,-185 97.88,-165.75 249.62,-165.75 249.62,-185"/>
<text xml:space="preserve" text-anchor="middle" x="173.75" y="-171.5" font-family="Helvetica,sans-Serif" font-size="10.00">armnn/utility/IgnoreUnused.hpp</text>
</a>
</g>
</g>
<!-- Node1&#45;&gt;Node2 -->
<g id="edge1_Node000001_Node000002" class="edge">
<title>Node1&#45;&gt;Node2</title>
<g id="a_edge1_Node000001_Node000002"><a xlink:title=" ">
<path fill="none" stroke="#63b8ff" d="M386.03,-220.53C342.5,-211.48 275.54,-197.55 228.49,-187.76"/>
<polygon fill="#63b8ff" stroke="#63b8ff" points="229.27,-184.35 218.77,-185.74 227.85,-191.2 229.27,-184.35"/>
</a>
</g>
</g>
<!-- Node3 -->
<g id="Node000003" class="node">
<title>Node3</title>
<g id="a_Node000003"><a xlink:href="_descriptors_fwd_8hpp.html" target="_top" xlink:title=" ">
<polygon fill="white" stroke="#666666" points="401.62,-185 267.88,-185 267.88,-165.75 401.62,-165.75 401.62,-185"/>
<text xml:space="preserve" text-anchor="middle" x="334.75" y="-171.5" font-family="Helvetica,sans-Serif" font-size="10.00">armnn/DescriptorsFwd.hpp</text>
</a>
</g>
</g>
<!-- Node1&#45;&gt;Node3 -->
<g id="edge2_Node000001_Node000003" class="edge">
<title>Node1&#45;&gt;Node3</title>
<g id="a_edge2_Node000001_Node000003"><a xlink:title=" ">
<path fill="none" stroke="#63b8ff" d="M413.63,-220.59C399.17,-212.48 377.67,-200.43 360.77,-190.96"/>
<polygon fill="#63b8ff" stroke="#63b8ff" points="362.7,-188.03 352.26,-186.19 359.28,-194.14 362.7,-188.03"/>
</a>
</g>
</g>
<!-- Node4 -->
<g id="Node000004" class="node">
<title>Node4</title>
<g id="a_Node000004"><a xlink:href="_types_8hpp.html" target="_top" xlink:title=" ">
<polygon fill="white" stroke="#666666" points="381.25,-129.75 290.25,-129.75 290.25,-110.5 381.25,-110.5 381.25,-129.75"/>
<text xml:space="preserve" text-anchor="middle" x="335.75" y="-116.25" font-family="Helvetica,sans-Serif" font-size="10.00">armnn/Types.hpp</text>
</a>
</g>
</g>
<!-- Node1&#45;&gt;Node4 -->
<g id="edge3_Node000001_Node000004" class="edge">
<title>Node1&#45;&gt;Node4</title>
<g id="a_edge3_Node000001_Node000004"><a xlink:title=" ">
<path fill="none" stroke="#63b8ff" d="M429.15,-220.86C427.83,-207.64 423.69,-182.36 410.75,-165.75 400.34,-152.38 384.71,-142.17 370.41,-134.92"/>
<polygon fill="#63b8ff" stroke="#63b8ff" points="372.23,-131.91 361.69,-130.8 369.24,-138.24 372.23,-131.91"/>
</a>
</g>
</g>
<!-- Node20 -->
<g id="Node000020" class="node">
<title>Node20</title>
<g id="a_Node000020"><a xlink:href="_tensor_8hpp.html" target="_top" xlink:title=" ">
<polygon fill="white" stroke="#666666" points="551.38,-185 458.12,-185 458.12,-165.75 551.38,-165.75 551.38,-185"/>
<text xml:space="preserve" text-anchor="middle" x="504.75" y="-171.5" font-family="Helvetica,sans-Serif" font-size="10.00">armnn/Tensor.hpp</text>
</a>
</g>
</g>
<!-- Node1&#45;&gt;Node20 -->
<g id="edge20_Node000001_Node000020" class="edge">
<title>Node1&#45;&gt;Node20</title>
<g id="a_edge20_Node000001_Node000020"><a xlink:title=" ">
<path fill="none" stroke="#63b8ff" d="M442.47,-220.59C453.46,-212.79 469.59,-201.34 482.68,-192.04"/>
<polygon fill="#63b8ff" stroke="#63b8ff" points="484.6,-194.97 490.73,-186.33 480.55,-189.26 484.6,-194.97"/>
</a>
</g>
</g>
<!-- Node21 -->
<g id="Node000021" class="node">
<title>Node21</title>
<g id="a_Node000021"><a xlink:href="_optional_8hpp.html" target="_top" xlink:title=" ">
<polygon fill="white" stroke="#666666" points="770.12,-129.75 699.38,-129.75 699.38,-110.5 770.12,-110.5 770.12,-129.75"/>
<text xml:space="preserve" text-anchor="middle" x="734.75" y="-116.25" font-family="Helvetica,sans-Serif" font-size="10.00">Optional.hpp</text>
</a>
</g>
</g>
<!-- Node1&#45;&gt;Node21 -->
<g id="edge32_Node000001_Node000021" class="edge">
<title>Node1&#45;&gt;Node21</title>
<g id="a_edge32_Node000001_Node000021"><a xlink:title=" ">
<path fill="none" stroke="#63b8ff" d="M456.91,-220.58C483.45,-211.69 524.96,-197.66 560.75,-185 609.2,-167.86 664.92,-147.24 699.98,-134.16"/>
<polygon fill="#63b8ff" stroke="#63b8ff" points="701.05,-137.5 709.19,-130.72 698.6,-130.94 701.05,-137.5"/>
</a>
</g>
</g>
<!-- Node5 -->
<g id="Node000005" class="node">
<title>Node5</title>
<g id="a_Node000005"><a xlink:title=" ">
<polygon fill="#e0e0e0" stroke="#999999" points="391.62,-74.5 353.88,-74.5 353.88,-55.25 391.62,-55.25 391.62,-74.5"/>
<text xml:space="preserve" text-anchor="middle" x="372.75" y="-61" font-family="Helvetica,sans-Serif" font-size="10.00">array</text>
</a>
</g>
</g>
<!-- Node4&#45;&gt;Node5 -->
<g id="edge4_Node000004_Node000005" class="edge">
<title>Node4&#45;&gt;Node5</title>
<g id="a_edge4_Node000004_Node000005"><a xlink:title=" ">
<path fill="none" stroke="#63b8ff" d="M341.86,-110.33C346.81,-103.21 353.95,-92.93 360.12,-84.05"/>
<polygon fill="#63b8ff" stroke="#63b8ff" points="362.81,-86.31 365.64,-76.1 357.06,-82.32 362.81,-86.31"/>
</a>
</g>
</g>
<!-- Node6 -->
<g id="Node000006" class="node">
<title>Node6</title>
<g id="a_Node000006"><a xlink:title=" ">
<polygon fill="#e0e0e0" stroke="#999999" points="271.75,-74.5 213.75,-74.5 213.75,-55.25 271.75,-55.25 271.75,-74.5"/>
<text xml:space="preserve" text-anchor="middle" x="242.75" y="-61" font-family="Helvetica,sans-Serif" font-size="10.00">functional</text>
</a>
</g>
</g>
<!-- Node4&#45;&gt;Node6 -->
<g id="edge5_Node000004_Node000006" class="edge">
<title>Node4&#45;&gt;Node6</title>
<g id="a_edge5_Node000004_Node000006"><a xlink:title=" ">
<path fill="none" stroke="#63b8ff" d="M319.97,-110.09C305.81,-101.98 284.77,-89.93 268.22,-80.46"/>
<polygon fill="#63b8ff" stroke="#63b8ff" points="270.33,-77.64 259.92,-75.7 266.86,-83.71 270.33,-77.64"/>
</a>
</g>
</g>
<!-- Node7 -->
<g id="Node000007" class="node">
<title>Node7</title>
<g id="a_Node000007"><a xlink:title=" ">
<polygon fill="#e0e0e0" stroke="#999999" points="457.88,-74.5 409.62,-74.5 409.62,-55.25 457.88,-55.25 457.88,-74.5"/>
<text xml:space="preserve" text-anchor="middle" x="433.75" y="-61" font-family="Helvetica,sans-Serif" font-size="10.00">stdint.h</text>
</a>
</g>
</g>
<!-- Node4&#45;&gt;Node7 -->
<g id="edge6_Node000004_Node000007" class="edge">
<title>Node4&#45;&gt;Node7</title>
<g id="a_edge6_Node000004_Node000007"><a xlink:title=" ">
<path fill="none" stroke="#63b8ff" d="M352.37,-110.09C367.44,-101.91 389.89,-89.71 407.4,-80.19"/>
<polygon fill="#63b8ff" stroke="#63b8ff" points="408.6,-83.52 415.71,-75.68 405.26,-77.37 408.6,-83.52"/>
</a>
</g>
</g>
<!-- Node8 -->
<g id="Node000008" class="node">
<title>Node8</title>
<g id="a_Node000008"><a xlink:title=" ">
<polygon fill="#e0e0e0" stroke="#999999" points="335.38,-74.5 290.12,-74.5 290.12,-55.25 335.38,-55.25 335.38,-74.5"/>
<text xml:space="preserve" text-anchor="middle" x="312.75" y="-61" font-family="Helvetica,sans-Serif" font-size="10.00">chrono</text>
</a>
</g>
</g>
<!-- Node4&#45;&gt;Node8 -->
<g id="edge7_Node000004_Node000008" class="edge">
<title>Node4&#45;&gt;Node8</title>
<g id="a_edge7_Node000004_Node000008"><a xlink:title=" ">
<path fill="none" stroke="#63b8ff" d="M331.95,-110.33C329.01,-103.51 324.81,-93.81 321.1,-85.2"/>
<polygon fill="#63b8ff" stroke="#63b8ff" points="324.41,-84.04 317.23,-76.25 317.98,-86.82 324.41,-84.04"/>
</a>
</g>
</g>
<!-- Node9 -->
<g id="Node000009" class="node">
<title>Node9</title>
<g id="a_Node000009"><a xlink:href="_backend_id_8hpp.html" target="_top" xlink:title=" ">
<polygon fill="white" stroke="#666666" points="195.38,-74.5 114.12,-74.5 114.12,-55.25 195.38,-55.25 195.38,-74.5"/>
<text xml:space="preserve" text-anchor="middle" x="154.75" y="-61" font-family="Helvetica,sans-Serif" font-size="10.00">BackendId.hpp</text>
</a>
</g>
</g>
<!-- Node4&#45;&gt;Node9 -->
<g id="edge8_Node000004_Node000009" class="edge">
<title>Node4&#45;&gt;Node9</title>
<g id="a_edge8_Node000004_Node000009"><a xlink:title=" ">
<path fill="none" stroke="#63b8ff" d="M305.05,-110.09C275.14,-101.29 229.47,-87.86 196.33,-78.11"/>
<polygon fill="#63b8ff" stroke="#63b8ff" points="197.64,-74.84 187.06,-75.38 195.66,-81.56 197.64,-74.84"/>
</a>
</g>
</g>
<!-- Node16 -->
<g id="Node000016" class="node">
<title>Node16</title>
<g id="a_Node000016"><a xlink:href="_exceptions_8hpp.html" target="_top" xlink:title=" ">
<polygon fill="white" stroke="#666666" points="597.5,-74.5 514,-74.5 514,-55.25 597.5,-55.25 597.5,-74.5"/>
<text xml:space="preserve" text-anchor="middle" x="555.75" y="-61" font-family="Helvetica,sans-Serif" font-size="10.00">Exceptions.hpp</text>
</a>
</g>
</g>
<!-- Node4&#45;&gt;Node16 -->
<g id="edge15_Node000004_Node000016" class="edge">
<title>Node4&#45;&gt;Node16</title>
<g id="a_edge15_Node000004_Node000016"><a xlink:title=" ">
<path fill="none" stroke="#63b8ff" d="M373.07,-110.09C410.05,-101.14 466.86,-87.39 507.3,-77.6"/>
<polygon fill="#63b8ff" stroke="#63b8ff" points="507.88,-81.06 516.78,-75.31 506.23,-74.26 507.88,-81.06"/>
</a>
</g>
</g>
<!-- Node19 -->
<g id="Node000019" class="node">
<title>Node19</title>
<g id="a_Node000019"><a xlink:href="_deprecated_8hpp.html" target="_top" xlink:title=" ">
<polygon fill="white" stroke="#666666" points="96.25,-74.5 11.25,-74.5 11.25,-55.25 96.25,-55.25 96.25,-74.5"/>
<text xml:space="preserve" text-anchor="middle" x="53.75" y="-61" font-family="Helvetica,sans-Serif" font-size="10.00">Deprecated.hpp</text>
</a>
</g>
</g>
<!-- Node4&#45;&gt;Node19 -->
<g id="edge19_Node000004_Node000019" class="edge">
<title>Node4&#45;&gt;Node19</title>
<g id="a_edge19_Node000004_Node000019"><a xlink:title=" ">
<path fill="none" stroke="#63b8ff" d="M289.81,-110.45C239.94,-101.03 160.37,-86.01 107.59,-76.04"/>
<polygon fill="#63b8ff" stroke="#63b8ff" points="108.4,-72.63 97.92,-74.22 107.1,-79.51 108.4,-72.63"/>
</a>
</g>
</g>
<!-- Node10 -->
<g id="Node000010" class="node">
<title>Node10</title>
<g id="a_Node000010"><a xlink:title=" ">
<polygon fill="#e0e0e0" stroke="#999999" points="146.38,-19.25 95.12,-19.25 95.12,0 146.38,0 146.38,-19.25"/>
<text xml:space="preserve" text-anchor="middle" x="120.75" y="-5.75" font-family="Helvetica,sans-Serif" font-size="10.00">memory</text>
</a>
</g>
</g>
<!-- Node9&#45;&gt;Node10 -->
<g id="edge9_Node000009_Node000010" class="edge">
<title>Node9&#45;&gt;Node10</title>
<g id="a_edge9_Node000009_Node000010"><a xlink:title=" ">
<path fill="none" stroke="#63b8ff" d="M149.14,-55.08C144.63,-48.03 138.16,-37.9 132.54,-29.08"/>
<polygon fill="#63b8ff" stroke="#63b8ff" points="135.63,-27.43 127.3,-20.88 129.73,-31.2 135.63,-27.43"/>
</a>
</g>
</g>
<!-- Node11 -->
<g id="Node000011" class="node">
<title>Node11</title>
<g id="a_Node000011"><a xlink:title=" ">
<polygon fill="#e0e0e0" stroke="#999999" points="215.38,-19.25 164.12,-19.25 164.12,0 215.38,0 215.38,-19.25"/>
<text xml:space="preserve" text-anchor="middle" x="189.75" y="-5.75" font-family="Helvetica,sans-Serif" font-size="10.00">ostream</text>
</a>
</g>
</g>
<!-- Node9&#45;&gt;Node11 -->
<g id="edge10_Node000009_Node000011" class="edge">
<title>Node9&#45;&gt;Node11</title>
<g id="a_edge10_Node000009_Node000011"><a xlink:title=" ">
<path fill="none" stroke="#63b8ff" d="M160.53,-55.08C165.16,-48.03 171.82,-37.9 177.62,-29.08"/>
<polygon fill="#63b8ff" stroke="#63b8ff" points="180.45,-31.15 183.01,-20.87 174.6,-27.31 180.45,-31.15"/>
</a>
</g>
</g>
<!-- Node12 -->
<g id="Node000012" class="node">
<title>Node12</title>
<g id="a_Node000012"><a xlink:title=" ">
<polygon fill="#e0e0e0" stroke="#999999" points="262.5,-19.25 233,-19.25 233,0 262.5,0 262.5,-19.25"/>
<text xml:space="preserve" text-anchor="middle" x="247.75" y="-5.75" font-family="Helvetica,sans-Serif" font-size="10.00">set</text>
</a>
</g>
</g>
<!-- Node9&#45;&gt;Node12 -->
<g id="edge11_Node000009_Node000012" class="edge">
<title>Node9&#45;&gt;Node12</title>
<g id="a_edge11_Node000009_Node000012"><a xlink:title=" ">
<path fill="none" stroke="#63b8ff" d="M170.53,-54.84C184.86,-46.63 206.24,-34.39 222.88,-24.87"/>
<polygon fill="#63b8ff" stroke="#63b8ff" points="224.26,-28.11 231.2,-20.1 220.78,-22.03 224.26,-28.11"/>
</a>
</g>
</g>
<!-- Node13 -->
<g id="Node000013" class="node">
<title>Node13</title>
<g id="a_Node000013"><a xlink:title=" ">
<polygon fill="#e0e0e0" stroke="#999999" points="468.75,-19.25 428.75,-19.25 428.75,0 468.75,0 468.75,-19.25"/>
<text xml:space="preserve" text-anchor="middle" x="448.75" y="-5.75" font-family="Helvetica,sans-Serif" font-size="10.00">string</text>
</a>
</g>
</g>
<!-- Node9&#45;&gt;Node13 -->
<g id="edge12_Node000009_Node000013" class="edge">
<title>Node9&#45;&gt;Node13</title>
<g id="a_edge12_Node000009_Node000013"><a xlink:title=" ">
<path fill="none" stroke="#63b8ff" d="M195.68,-56.77C262.15,-45.23 388.21,-23.27 408.75,-19.25 411.56,-18.7 414.47,-18.11 417.38,-17.51"/>
<polygon fill="#63b8ff" stroke="#63b8ff" points="417.9,-20.98 426.95,-15.48 416.44,-14.13 417.9,-20.98"/>
</a>
</g>
</g>
<!-- Node14 -->
<g id="Node000014" class="node">
<title>Node14</title>
<g id="a_Node000014"><a xlink:title=" ">
<polygon fill="#e0e0e0" stroke="#999999" points="77.5,-19.25 0,-19.25 0,0 77.5,0 77.5,-19.25"/>
<text xml:space="preserve" text-anchor="middle" x="38.75" y="-5.75" font-family="Helvetica,sans-Serif" font-size="10.00">unordered_set</text>
</a>
</g>
</g>
<!-- Node9&#45;&gt;Node14 -->
<g id="edge13_Node000009_Node000014" class="edge">
<title>Node9&#45;&gt;Node14</title>
<g id="a_edge13_Node000009_Node000014"><a xlink:title=" ">
<path fill="none" stroke="#63b8ff" d="M135.07,-54.84C116.91,-46.5 89.67,-34 68.78,-24.41"/>
<polygon fill="#63b8ff" stroke="#63b8ff" points="70.45,-21.33 59.9,-20.33 67.53,-27.69 70.45,-21.33"/>
</a>
</g>
</g>
<!-- Node15 -->
<g id="Node000015" class="node">
<title>Node15</title>
<g id="a_Node000015"><a xlink:title=" ">
<polygon fill="#e0e0e0" stroke="#999999" points="399.25,-19.25 356.25,-19.25 356.25,0 399.25,0 399.25,-19.25"/>
<text xml:space="preserve" text-anchor="middle" x="377.75" y="-5.75" font-family="Helvetica,sans-Serif" font-size="10.00">vector</text>
</a>
</g>
</g>
<!-- Node9&#45;&gt;Node15 -->
<g id="edge14_Node000009_Node000015" class="edge">
<title>Node9&#45;&gt;Node15</title>
<g id="a_edge14_Node000009_Node000015"><a xlink:title=" ">
<path fill="none" stroke="#63b8ff" d="M192.83,-54.78C235.63,-44.56 304.41,-28.14 344.92,-18.46"/>
<polygon fill="#63b8ff" stroke="#63b8ff" points="345.66,-21.89 354.57,-16.16 344.03,-15.08 345.66,-21.89"/>
</a>
</g>
</g>
<!-- Node16&#45;&gt;Node13 -->
<g id="edge18_Node000016_Node000013" class="edge">
<title>Node16&#45;&gt;Node13</title>
<g id="a_edge18_Node000016_Node000013"><a xlink:title=" ">
<path fill="none" stroke="#63b8ff" d="M537.6,-54.84C521.07,-46.62 496.41,-34.34 477.25,-24.81"/>
<polygon fill="#63b8ff" stroke="#63b8ff" points="478.86,-21.7 468.35,-20.38 475.74,-27.97 478.86,-21.7"/>
</a>
</g>
</g>
<!-- Node17 -->
<g id="Node000017" class="node">
<title>Node17</title>
<g id="a_Node000017"><a xlink:title=" ">
<polygon fill="#e0e0e0" stroke="#999999" points="544.38,-19.25 493.12,-19.25 493.12,0 544.38,0 544.38,-19.25"/>
<text xml:space="preserve" text-anchor="middle" x="518.75" y="-5.75" font-family="Helvetica,sans-Serif" font-size="10.00">sstream</text>
</a>
</g>
</g>
<!-- Node16&#45;&gt;Node17 -->
<g id="edge16_Node000016_Node000017" class="edge">
<title>Node16&#45;&gt;Node17</title>
<g id="a_edge16_Node000016_Node000017"><a xlink:title=" ">
<path fill="none" stroke="#63b8ff" d="M549.64,-55.08C544.69,-47.96 537.55,-37.68 531.38,-28.8"/>
<polygon fill="#63b8ff" stroke="#63b8ff" points="534.44,-27.07 525.86,-20.85 528.69,-31.06 534.44,-27.07"/>
</a>
</g>
</g>
<!-- Node18 -->
<g id="Node000018" class="node">
<title>Node18</title>
<g id="a_Node000018"><a xlink:title=" ">
<polygon fill="#e0e0e0" stroke="#999999" points="621.12,-19.25 562.38,-19.25 562.38,0 621.12,0 621.12,-19.25"/>
<text xml:space="preserve" text-anchor="middle" x="591.75" y="-5.75" font-family="Helvetica,sans-Serif" font-size="10.00">stdexcept</text>
</a>
</g>
</g>
<!-- Node16&#45;&gt;Node18 -->
<g id="edge17_Node000016_Node000018" class="edge">
<title>Node16&#45;&gt;Node18</title>
<g id="a_edge17_Node000016_Node000018"><a xlink:title=" ">
<path fill="none" stroke="#63b8ff" d="M561.69,-55.08C566.46,-48.03 573.31,-37.9 579.27,-29.08"/>
<polygon fill="#63b8ff" stroke="#63b8ff" points="582.13,-31.11 584.83,-20.86 576.33,-27.19 582.13,-31.11"/>
</a>
</g>
</g>
<!-- Node20&#45;&gt;Node4 -->
<g id="edge26_Node000020_Node000004" class="edge">
<title>Node20&#45;&gt;Node4</title>
<g id="a_edge26_Node000020_Node000004"><a xlink:title=" ">
<path fill="none" stroke="#63b8ff" d="M476.08,-165.34C448.4,-156.62 406.26,-143.34 375.38,-133.61"/>
<polygon fill="#63b8ff" stroke="#63b8ff" points="376.59,-130.32 366,-130.66 374.49,-137 376.59,-130.32"/>
</a>
</g>
</g>
<!-- Node20&#45;&gt;Node5 -->
<g id="edge28_Node000020_Node000005" class="edge">
<title>Node20&#45;&gt;Node5</title>
<g id="a_edge28_Node000020_Node000005"><a xlink:title=" ">
<path fill="none" stroke="#63b8ff" d="M493.95,-165.5C471.71,-147.22 420.54,-105.15 392.32,-81.96"/>
<polygon fill="#63b8ff" stroke="#63b8ff" points="394.82,-79.48 384.87,-75.84 390.37,-84.89 394.82,-79.48"/>
</a>
</g>
</g>
<!-- Node20&#45;&gt;Node7 -->
<g id="edge27_Node000020_Node000007" class="edge">
<title>Node20&#45;&gt;Node7</title>
<g id="a_edge27_Node000020_Node000007"><a xlink:title=" ">
<path fill="none" stroke="#63b8ff" d="M497.65,-165.34C490.77,-156.46 480.18,-142.43 471.75,-129.75 461.92,-114.96 451.67,-97.6 444.3,-84.72"/>
<polygon fill="#63b8ff" stroke="#63b8ff" points="447.36,-83.02 439.39,-76.04 441.27,-86.47 447.36,-83.02"/>
</a>
</g>
</g>
<!-- Node20&#45;&gt;Node15 -->
<g id="edge30_Node000020_Node000015" class="edge">
<title>Node20&#45;&gt;Node15</title>
<g id="a_edge30_Node000020_Node000015"><a xlink:title=" ">
<path fill="none" stroke="#63b8ff" d="M504.22,-165.48C502.5,-144.02 495.39,-88.74 466.75,-55.25 452.08,-38.09 429.2,-26.82 410.32,-19.9"/>
<polygon fill="#63b8ff" stroke="#63b8ff" points="411.5,-16.61 400.91,-16.72 409.26,-23.24 411.5,-16.61"/>
</a>
</g>
</g>
<!-- Node20&#45;&gt;Node16 -->
<g id="edge21_Node000020_Node000016" class="edge">
<title>Node20&#45;&gt;Node16</title>
<g id="a_edge21_Node000020_Node000016"><a xlink:title=" ">
<path fill="none" stroke="#63b8ff" d="M508.92,-165.5C517.14,-148.01 535.59,-108.77 546.72,-85.09"/>
<polygon fill="#63b8ff" stroke="#63b8ff" points="549.79,-86.79 550.87,-76.25 543.45,-83.81 549.79,-86.79"/>
</a>
</g>
</g>
<!-- Node20&#45;&gt;Node21 -->
<g id="edge22_Node000020_Node000021" class="edge">
<title>Node20&#45;&gt;Node21</title>
<g id="a_edge22_Node000020_Node000021"><a xlink:title=" ">
<path fill="none" stroke="#63b8ff" d="M544.03,-165.28C583.87,-156.06 645.54,-141.78 687.9,-131.97"/>
<polygon fill="#63b8ff" stroke="#63b8ff" points="688.61,-135.4 697.56,-129.73 687.03,-128.58 688.61,-135.4"/>
</a>
</g>
</g>
<!-- Node24 -->
<g id="Node000024" class="node">
<title>Node24</title>
<g id="a_Node000024"><a xlink:title=" ">
<polygon fill="#e0e0e0" stroke="#999999" points="623.88,-129.75 551.62,-129.75 551.62,-110.5 623.88,-110.5 623.88,-129.75"/>
<text xml:space="preserve" text-anchor="middle" x="587.75" y="-116.25" font-family="Helvetica,sans-Serif" font-size="10.00">initializer_list</text>
</a>
</g>
</g>
<!-- Node20&#45;&gt;Node24 -->
<g id="edge29_Node000020_Node000024" class="edge">
<title>Node20&#45;&gt;Node24</title>
<g id="a_edge29_Node000020_Node000024"><a xlink:title=" ">
<path fill="none" stroke="#63b8ff" d="M518.83,-165.34C531.23,-157.39 549.54,-145.64 564.18,-136.25"/>
<polygon fill="#63b8ff" stroke="#63b8ff" points="565.8,-139.37 572.33,-131.02 562.02,-133.47 565.8,-139.37"/>
</a>
</g>
</g>
<!-- Node25 -->
<g id="Node000025" class="node">
<title>Node25</title>
<g id="a_Node000025"><a xlink:title=" ">
<polygon fill="#e0e0e0" stroke="#999999" points="681.38,-129.75 642.12,-129.75 642.12,-110.5 681.38,-110.5 681.38,-129.75"/>
<text xml:space="preserve" text-anchor="middle" x="661.75" y="-116.25" font-family="Helvetica,sans-Serif" font-size="10.00">utility</text>
</a>
</g>
</g>
<!-- Node20&#45;&gt;Node25 -->
<g id="edge31_Node000020_Node000025" class="edge">
<title>Node20&#45;&gt;Node25</title>
<g id="a_edge31_Node000020_Node000025"><a xlink:title=" ">
<path fill="none" stroke="#63b8ff" d="M531.38,-165.34C559.03,-155.96 602.22,-141.32 631.23,-131.48"/>
<polygon fill="#63b8ff" stroke="#63b8ff" points="632.18,-134.85 640.53,-128.32 629.94,-128.22 632.18,-134.85"/>
</a>
</g>
</g>
<!-- Node21&#45;&gt;Node16 -->
<g id="edge23_Node000021_Node000016" class="edge">
<title>Node21&#45;&gt;Node16</title>
<g id="a_edge23_Node000021_Node000016"><a xlink:title=" ">
<path fill="none" stroke="#63b8ff" d="M704.39,-110.09C674.94,-101.33 630.04,-87.98 597.29,-78.23"/>
<polygon fill="#63b8ff" stroke="#63b8ff" points="598.3,-74.88 587.71,-75.38 596.3,-81.59 598.3,-74.88"/>
</a>
</g>
</g>
<!-- Node22 -->
<g id="Node000022" class="node">
<title>Node22</title>
<g id="a_Node000022"><a xlink:title=" ">
<polygon fill="#e0e0e0" stroke="#999999" points="721.38,-74.5 676.12,-74.5 676.12,-55.25 721.38,-55.25 721.38,-74.5"/>
<text xml:space="preserve" text-anchor="middle" x="698.75" y="-61" font-family="Helvetica,sans-Serif" font-size="10.00">cstring</text>
</a>
</g>
</g>
<!-- Node21&#45;&gt;Node22 -->
<g id="edge24_Node000021_Node000022" class="edge">
<title>Node21&#45;&gt;Node22</title>
<g id="a_edge24_Node000021_Node000022"><a xlink:title=" ">
<path fill="none" stroke="#63b8ff" d="M728.81,-110.33C724.04,-103.28 717.19,-93.15 711.23,-84.33"/>
<polygon fill="#63b8ff" stroke="#63b8ff" points="714.17,-82.44 705.67,-76.11 708.37,-86.36 714.17,-82.44"/>
</a>
</g>
</g>
<!-- Node23 -->
<g id="Node000023" class="node">
<title>Node23</title>
<g id="a_Node000023"><a xlink:title=" ">
<polygon fill="#e0e0e0" stroke="#999999" points="801.62,-74.5 739.88,-74.5 739.88,-55.25 801.62,-55.25 801.62,-74.5"/>
<text xml:space="preserve" text-anchor="middle" x="770.75" y="-61" font-family="Helvetica,sans-Serif" font-size="10.00">type_traits</text>
</a>
</g>
</g>
<!-- Node21&#45;&gt;Node23 -->
<g id="edge25_Node000021_Node000023" class="edge">
<title>Node21&#45;&gt;Node23</title>
<g id="a_edge25_Node000021_Node000023"><a xlink:title=" ">
<path fill="none" stroke="#63b8ff" d="M740.69,-110.33C745.46,-103.28 752.31,-93.15 758.27,-84.33"/>
<polygon fill="#63b8ff" stroke="#63b8ff" points="761.13,-86.36 763.83,-76.11 755.33,-82.44 761.13,-86.36"/>
</a>
</g>
</g>
</g>
</svg>
