<?xml version="1.0" encoding="UTF-8" standalone="no"?>
<!DOCTYPE svg PUBLIC "-//W3C//DTD SVG 1.1//EN"
 "http://www.w3.org/Graphics/SVG/1.1/DTD/svg11.dtd">
<!-- Generated by graphviz version 14.0.2 (20251019.1705)
 -->
<!-- Title: src/armnn/LoadedNetwork.hpp Pages: 1 -->
<svg width="468pt" height="282pt"
 viewBox="0.00 0.00 468.00 282.00" xmlns="http://www.w3.org/2000/svg" xmlns:xlink="http://www.w3.org/1999/xlink">
<g id="graph0" class="graph" transform="scale(1 1) rotate(0) translate(4 278)">
<title>src/armnn/LoadedNetwork.hpp</title>
<!-- Node1 -->
<g id="Node000001" class="node">
<title>Node1</title>
<g id="a_Node000001"><a xlink:title=" ">
<polygon fill="#999999" stroke="#666666" points="225.5,-274 76,-274 76,-254.75 225.5,-254.75 225.5,-274"/>
<text xml:space="preserve" text-anchor="middle" x="150.75" y="-260.5" font-family="Helvetica,sans-Serif" font-size="10.00">src/armnn/LoadedNetwork.hpp</text>
</a>
</g>
</g>
<!-- Node2 -->
<g id="Node000002" class="node">
<title>Node2</title>
<g id="a_Node000002"><a xlink:href="_loaded_network_8cpp.html" target="_top" xlink:title=" ">
<polygon fill="white" stroke="#666666" points="149.5,-218.75 0,-218.75 0,-199.5 149.5,-199.5 149.5,-218.75"/>
<text xml:space="preserve" text-anchor="middle" x="74.75" y="-205.25" font-family="Helvetica,sans-Serif" font-size="10.00">src/armnn/LoadedNetwork.cpp</text>
</a>
</g>
</g>
<!-- Node1&#45;&gt;Node2 -->
<g id="edge1_Node000001_Node000002" class="edge">
<title>Node1&#45;&gt;Node2</title>
<g id="a_edge1_Node000001_Node000002"><a xlink:title=" ">
<path fill="none" stroke="#63b8ff" d="M128.46,-247.76C115.21,-238.47 98.86,-227.02 87.71,-219.2"/>
<polygon fill="#63b8ff" stroke="#63b8ff" points="126.42,-250.6 136.62,-253.47 130.44,-244.87 126.42,-250.6"/>
</a>
</g>
</g>
<!-- Node3 -->
<g id="Node000003" class="node">
<title>Node3</title>
<g id="a_Node000003"><a xlink:href="_runtime_8hpp.html" target="_top" xlink:title=" ">
<polygon fill="white" stroke="#666666" points="285.75,-218.75 167.75,-218.75 167.75,-199.5 285.75,-199.5 285.75,-218.75"/>
<text xml:space="preserve" text-anchor="middle" x="226.75" y="-205.25" font-family="Helvetica,sans-Serif" font-size="10.00">src/armnn/Runtime.hpp</text>
</a>
</g>
</g>
<!-- Node1&#45;&gt;Node3 -->
<g id="edge2_Node000001_Node000003" class="edge">
<title>Node1&#45;&gt;Node3</title>
<g id="a_edge2_Node000001_Node000003"><a xlink:title=" ">
<path fill="none" stroke="#63b8ff" d="M173.04,-247.76C186.29,-238.47 202.64,-227.02 213.79,-219.2"/>
<polygon fill="#63b8ff" stroke="#63b8ff" points="171.06,-244.87 164.88,-253.47 175.08,-250.6 171.06,-244.87"/>
</a>
</g>
</g>
<!-- Node4 -->
<g id="Node000004" class="node">
<title>Node4</title>
<g id="a_Node000004"><a xlink:href="_runtime_8cpp.html" target="_top" xlink:title=" ">
<polygon fill="white" stroke="#666666" points="222.75,-157.88 104.75,-157.88 104.75,-138.62 222.75,-138.62 222.75,-157.88"/>
<text xml:space="preserve" text-anchor="middle" x="163.75" y="-144.38" font-family="Helvetica,sans-Serif" font-size="10.00">src/armnn/Runtime.cpp</text>
</a>
</g>
</g>
<!-- Node3&#45;&gt;Node4 -->
<g id="edge3_Node000003_Node000004" class="edge">
<title>Node3&#45;&gt;Node4</title>
<g id="a_edge3_Node000003_Node000004"><a xlink:title=" ">
<path fill="none" stroke="#63b8ff" d="M209.09,-191.62C197.53,-180.82 182.88,-167.12 173.41,-158.28"/>
<polygon fill="#63b8ff" stroke="#63b8ff" points="206.38,-193.88 216.08,-198.15 211.16,-188.76 206.38,-193.88"/>
</a>
</g>
</g>
<!-- Node5 -->
<g id="Node000005" class="node">
<title>Node5</title>
<g id="a_Node000005"><a xlink:href="_test_utils_8hpp.html" target="_top" xlink:title=" ">
<polygon fill="white" stroke="#666666" points="339,-163.5 240.5,-163.5 240.5,-133 339,-133 339,-163.5"/>
<text xml:space="preserve" text-anchor="start" x="248.5" y="-150" font-family="Helvetica,sans-Serif" font-size="10.00">src/armnnTestUtils</text>
<text xml:space="preserve" text-anchor="middle" x="289.75" y="-138.75" font-family="Helvetica,sans-Serif" font-size="10.00">/TestUtils.hpp</text>
</a>
</g>
</g>
<!-- Node3&#45;&gt;Node5 -->
<g id="edge4_Node000003_Node000005" class="edge">
<title>Node3&#45;&gt;Node5</title>
<g id="a_edge4_Node000003_Node000005"><a xlink:title=" ">
<path fill="none" stroke="#63b8ff" d="M244.52,-191.52C253.86,-182.79 265.21,-172.18 274.2,-163.78"/>
<polygon fill="#63b8ff" stroke="#63b8ff" points="242.34,-188.76 237.42,-198.15 247.12,-193.88 242.34,-188.76"/>
</a>
</g>
</g>
<!-- Node6 -->
<g id="Node000006" class="node">
<title>Node6</title>
<g id="a_Node000006"><a xlink:href="_common_test_utils_8hpp.html" target="_top" xlink:title=" ">
<polygon fill="white" stroke="#666666" points="218,-97 101.5,-97 101.5,-66.5 218,-66.5 218,-97"/>
<text xml:space="preserve" text-anchor="start" x="109.5" y="-83.5" font-family="Helvetica,sans-Serif" font-size="10.00">src/armnnTestUtils</text>
<text xml:space="preserve" text-anchor="middle" x="159.75" y="-72.25" font-family="Helvetica,sans-Serif" font-size="10.00">/CommonTestUtils.hpp</text>
</a>
</g>
</g>
<!-- Node5&#45;&gt;Node6 -->
<g id="edge5_Node000005_Node000006" class="edge">
<title>Node5&#45;&gt;Node6</title>
<g id="a_edge5_Node000005_Node000006"><a xlink:title=" ">
<path fill="none" stroke="#63b8ff" d="M250.07,-127.56C230.43,-117.82 207.14,-106.26 189.13,-97.33"/>
<polygon fill="#63b8ff" stroke="#63b8ff" points="248.38,-130.63 258.9,-131.94 251.49,-124.36 248.38,-130.63"/>
</a>
</g>
</g>
<!-- Node8 -->
<g id="Node000008" class="node">
<title>Node8</title>
<g id="a_Node000008"><a xlink:href="_create_workload_8hpp.html" target="_top" xlink:title=" ">
<polygon fill="white" stroke="#666666" points="343.5,-97 236,-97 236,-66.5 343.5,-66.5 343.5,-97"/>
<text xml:space="preserve" text-anchor="start" x="244" y="-83.5" font-family="Helvetica,sans-Serif" font-size="10.00">src/armnnTestUtils</text>
<text xml:space="preserve" text-anchor="middle" x="289.75" y="-72.25" font-family="Helvetica,sans-Serif" font-size="10.00">/CreateWorkload.hpp</text>
</a>
</g>
</g>
<!-- Node5&#45;&gt;Node8 -->
<g id="edge7_Node000005_Node000008" class="edge">
<title>Node5&#45;&gt;Node8</title>
<g id="a_edge7_Node000005_Node000008"><a xlink:title=" ">
<path fill="none" stroke="#63b8ff" d="M289.75,-121.31C289.75,-113.14 289.75,-104.41 289.75,-97.33"/>
<polygon fill="#63b8ff" stroke="#63b8ff" points="286.25,-121.1 289.75,-131.1 293.25,-121.1 286.25,-121.1"/>
</a>
</g>
</g>
<!-- Node9 -->
<g id="Node000009" class="node">
<title>Node9</title>
<g id="a_Node000009"><a xlink:href="_test_utils_8cpp.html" target="_top" xlink:title=" ">
<polygon fill="white" stroke="#666666" points="460,-97 361.5,-97 361.5,-66.5 460,-66.5 460,-97"/>
<text xml:space="preserve" text-anchor="start" x="369.5" y="-83.5" font-family="Helvetica,sans-Serif" font-size="10.00">src/armnnTestUtils</text>
<text xml:space="preserve" text-anchor="middle" x="410.75" y="-72.25" font-family="Helvetica,sans-Serif" font-size="10.00">/TestUtils.cpp</text>
</a>
</g>
</g>
<!-- Node5&#45;&gt;Node9 -->
<g id="edge8_Node000005_Node000009" class="edge">
<title>Node5&#45;&gt;Node9</title>
<g id="a_edge8_Node000005_Node000009"><a xlink:title=" ">
<path fill="none" stroke="#63b8ff" d="M327.19,-127.29C345.36,-117.61 366.79,-106.18 383.4,-97.33"/>
<polygon fill="#63b8ff" stroke="#63b8ff" points="325.72,-124.11 318.54,-131.9 329.01,-130.29 325.72,-124.11"/>
</a>
</g>
</g>
<!-- Node7 -->
<g id="Node000007" class="node">
<title>Node7</title>
<g id="a_Node000007"><a xlink:href="_common_test_utils_8cpp.html" target="_top" xlink:title=" ">
<polygon fill="white" stroke="#666666" points="218,-30.5 101.5,-30.5 101.5,0 218,0 218,-30.5"/>
<text xml:space="preserve" text-anchor="start" x="109.5" y="-17" font-family="Helvetica,sans-Serif" font-size="10.00">src/armnnTestUtils</text>
<text xml:space="preserve" text-anchor="middle" x="159.75" y="-5.75" font-family="Helvetica,sans-Serif" font-size="10.00">/CommonTestUtils.cpp</text>
</a>
</g>
</g>
<!-- Node6&#45;&gt;Node7 -->
<g id="edge6_Node000006_Node000007" class="edge">
<title>Node6&#45;&gt;Node7</title>
<g id="a_edge6_Node000006_Node000007"><a xlink:title=" ">
<path fill="none" stroke="#63b8ff" d="M159.75,-54.81C159.75,-46.64 159.75,-37.91 159.75,-30.83"/>
<polygon fill="#63b8ff" stroke="#63b8ff" points="156.25,-54.6 159.75,-64.6 163.25,-54.6 156.25,-54.6"/>
</a>
</g>
</g>
</g>
</svg>
