<?xml version="1.0" encoding="UTF-8" standalone="no"?>
<!DOCTYPE svg PUBLIC "-//W3C//DTD SVG 1.1//EN"
 "http://www.w3.org/Graphics/SVG/1.1/DTD/svg11.dtd">
<!-- Generated by graphviz version 14.0.2 (20251019.1705)
 -->
<!-- Title: src/backends/tosaCommon/operatorMappings/LogOperator.hpp Pages: 1 -->
<svg width="506pt" height="249pt"
 viewBox="0.00 0.00 506.00 249.00" xmlns="http://www.w3.org/2000/svg" xmlns:xlink="http://www.w3.org/1999/xlink">
<g id="graph0" class="graph" transform="scale(1 1) rotate(0) translate(4 245.25)">
<title>src/backends/tosaCommon/operatorMappings/LogOperator.hpp</title>
<!-- Node1 -->
<g id="Node000001" class="node">
<title>Node1</title>
<g id="a_Node000001"><a xlink:title=" ">
<polygon fill="#999999" stroke="#666666" points="261.5,-241.25 91,-241.25 91,-210.75 261.5,-210.75 261.5,-241.25"/>
<text xml:space="preserve" text-anchor="start" x="99" y="-227.75" font-family="Helvetica,sans-Serif" font-size="10.00">src/backends/tosaCommon</text>
<text xml:space="preserve" text-anchor="middle" x="176.25" y="-216.5" font-family="Helvetica,sans-Serif" font-size="10.00">/operatorMappings/LogOperator.hpp</text>
</a>
</g>
</g>
<!-- Node2 -->
<g id="Node000002" class="node">
<title>Node2</title>
<g id="a_Node000002"><a xlink:href="_log_operator_8cpp.html" target="_top" xlink:title=" ">
<polygon fill="white" stroke="#666666" points="170.5,-169.12 0,-169.12 0,-138.62 170.5,-138.62 170.5,-169.12"/>
<text xml:space="preserve" text-anchor="start" x="8" y="-155.62" font-family="Helvetica,sans-Serif" font-size="10.00">src/backends/tosaCommon</text>
<text xml:space="preserve" text-anchor="middle" x="85.25" y="-144.38" font-family="Helvetica,sans-Serif" font-size="10.00">/operatorMappings/LogOperator.cpp</text>
</a>
</g>
</g>
<!-- Node1&#45;&gt;Node2 -->
<g id="edge1_Node000001_Node000002" class="edge">
<title>Node1&#45;&gt;Node2</title>
<g id="a_edge1_Node000001_Node000002"><a xlink:title=" ">
<path fill="none" stroke="#63b8ff" d="M148.42,-203.56C134.05,-192.48 116.89,-179.25 104.08,-169.39"/>
<polygon fill="#63b8ff" stroke="#63b8ff" points="146.14,-206.21 156.2,-209.55 150.41,-200.67 146.14,-206.21"/>
</a>
</g>
</g>
<!-- Node3 -->
<g id="Node000003" class="node">
<title>Node3</title>
<g id="a_Node000003"><a xlink:href="_tosa_common_operators_8hpp.html" target="_top" xlink:title=" ">
<polygon fill="white" stroke="#666666" points="348.25,-174.75 188.25,-174.75 188.25,-133 348.25,-133 348.25,-174.75"/>
<text xml:space="preserve" text-anchor="start" x="196.25" y="-161.25" font-family="Helvetica,sans-Serif" font-size="10.00">src/backends/tosaCommon</text>
<text xml:space="preserve" text-anchor="start" x="196.25" y="-150" font-family="Helvetica,sans-Serif" font-size="10.00">/operatorMappings/TosaCommon</text>
<text xml:space="preserve" text-anchor="middle" x="268.25" y="-138.75" font-family="Helvetica,sans-Serif" font-size="10.00">Operators.hpp</text>
</a>
</g>
</g>
<!-- Node1&#45;&gt;Node3 -->
<g id="edge2_Node000001_Node000003" class="edge">
<title>Node1&#45;&gt;Node3</title>
<g id="a_edge2_Node000001_Node000003"><a xlink:title=" ">
<path fill="none" stroke="#63b8ff" d="M204.32,-203.6C216.15,-194.58 229.86,-184.14 241.54,-175.24"/>
<polygon fill="#63b8ff" stroke="#63b8ff" points="202.35,-200.71 196.52,-209.55 206.59,-206.27 202.35,-200.71"/>
</a>
</g>
</g>
<!-- Node4 -->
<g id="Node000004" class="node">
<title>Node4</title>
<g id="a_Node000004"><a xlink:href="_tosa_mappings_8hpp.html" target="_top" xlink:title=" ">
<polygon fill="white" stroke="#666666" points="336.25,-97 200.25,-97 200.25,-66.5 336.25,-66.5 336.25,-97"/>
<text xml:space="preserve" text-anchor="start" x="208.25" y="-83.5" font-family="Helvetica,sans-Serif" font-size="10.00">src/backends/tosaCommon</text>
<text xml:space="preserve" text-anchor="middle" x="268.25" y="-72.25" font-family="Helvetica,sans-Serif" font-size="10.00">/TosaMappings.hpp</text>
</a>
</g>
</g>
<!-- Node3&#45;&gt;Node4 -->
<g id="edge3_Node000003_Node000004" class="edge">
<title>Node3&#45;&gt;Node4</title>
<g id="a_edge3_Node000003_Node000004"><a xlink:title=" ">
<path fill="none" stroke="#63b8ff" d="M268.25,-121.13C268.25,-112.77 268.25,-104.15 268.25,-97.2"/>
<polygon fill="#63b8ff" stroke="#63b8ff" points="264.75,-121.08 268.25,-131.08 271.75,-121.08 264.75,-121.08"/>
</a>
</g>
</g>
<!-- Node5 -->
<g id="Node000005" class="node">
<title>Node5</title>
<g id="a_Node000005"><a xlink:href="_tosa_mappings_8cpp.html" target="_top" xlink:title=" ">
<polygon fill="white" stroke="#666666" points="179.25,-30.5 43.25,-30.5 43.25,0 179.25,0 179.25,-30.5"/>
<text xml:space="preserve" text-anchor="start" x="51.25" y="-17" font-family="Helvetica,sans-Serif" font-size="10.00">src/backends/tosaCommon</text>
<text xml:space="preserve" text-anchor="middle" x="111.25" y="-5.75" font-family="Helvetica,sans-Serif" font-size="10.00">/TosaMappings.cpp</text>
</a>
</g>
</g>
<!-- Node4&#45;&gt;Node5 -->
<g id="edge4_Node000004_Node000005" class="edge">
<title>Node4&#45;&gt;Node5</title>
<g id="a_edge4_Node000004_Node000005"><a xlink:title=" ">
<path fill="none" stroke="#63b8ff" d="M222,-61.75C198.04,-51.91 169.23,-40.07 147.01,-30.94"/>
<polygon fill="#63b8ff" stroke="#63b8ff" points="220.64,-64.98 231.22,-65.54 223.3,-58.5 220.64,-64.98"/>
</a>
</g>
</g>
<!-- Node6 -->
<g id="Node000006" class="node">
<title>Node6</title>
<g id="a_Node000006"><a xlink:href="_tosa_ref_backend_8cpp.html" target="_top" xlink:title=" ">
<polygon fill="white" stroke="#666666" points="338.88,-30.5 197.62,-30.5 197.62,0 338.88,0 338.88,-30.5"/>
<text xml:space="preserve" text-anchor="start" x="205.62" y="-17" font-family="Helvetica,sans-Serif" font-size="10.00">src/backends/tosaReference</text>
<text xml:space="preserve" text-anchor="middle" x="268.25" y="-5.75" font-family="Helvetica,sans-Serif" font-size="10.00">/TosaRefBackend.cpp</text>
</a>
</g>
</g>
<!-- Node4&#45;&gt;Node6 -->
<g id="edge5_Node000004_Node000006" class="edge">
<title>Node4&#45;&gt;Node6</title>
<g id="a_edge5_Node000004_Node000006"><a xlink:title=" ">
<path fill="none" stroke="#63b8ff" d="M268.25,-54.81C268.25,-46.64 268.25,-37.91 268.25,-30.83"/>
<polygon fill="#63b8ff" stroke="#63b8ff" points="264.75,-54.6 268.25,-64.6 271.75,-54.6 264.75,-54.6"/>
</a>
</g>
</g>
<!-- Node7 -->
<g id="Node000007" class="node">
<title>Node7</title>
<g id="a_Node000007"><a xlink:href="_tosa_ref_layer_support_8cpp.html" target="_top" xlink:title=" ">
<polygon fill="white" stroke="#666666" points="497.88,-30.5 356.62,-30.5 356.62,0 497.88,0 497.88,-30.5"/>
<text xml:space="preserve" text-anchor="start" x="364.62" y="-17" font-family="Helvetica,sans-Serif" font-size="10.00">src/backends/tosaReference</text>
<text xml:space="preserve" text-anchor="middle" x="427.25" y="-5.75" font-family="Helvetica,sans-Serif" font-size="10.00">/TosaRefLayerSupport.cpp</text>
</a>
</g>
</g>
<!-- Node4&#45;&gt;Node7 -->
<g id="edge6_Node000004_Node000007" class="edge">
<title>Node4&#45;&gt;Node7</title>
<g id="a_edge6_Node000004_Node000007"><a xlink:title=" ">
<path fill="none" stroke="#63b8ff" d="M314.76,-61.88C339.09,-52.01 368.42,-40.11 391.04,-30.94"/>
<polygon fill="#63b8ff" stroke="#63b8ff" points="313.68,-58.54 305.73,-65.54 316.31,-65.03 313.68,-58.54"/>
</a>
</g>
</g>
</g>
</svg>
