<?xml version="1.0" encoding="UTF-8" standalone="no"?>
<!DOCTYPE svg PUBLIC "-//W3C//DTD SVG 1.1//EN"
 "http://www.w3.org/Graphics/SVG/1.1/DTD/svg11.dtd">
<!-- Generated by graphviz version 14.0.2 (20251019.1705)
 -->
<!-- Title: src/backends/neon/NeonInterceptorScheduler.hpp Pages: 1 -->
<svg width="742pt" height="216pt"
 viewBox="0.00 0.00 742.00 216.00" xmlns="http://www.w3.org/2000/svg" xmlns:xlink="http://www.w3.org/1999/xlink">
<g id="graph0" class="graph" transform="scale(1 1) rotate(0) translate(4 211.5)">
<title>src/backends/neon/NeonInterceptorScheduler.hpp</title>
<!-- Node1 -->
<g id="Node000001" class="node">
<title>Node1</title>
<g id="a_Node000001"><a xlink:title=" ">
<polygon fill="#999999" stroke="#666666" points="487.25,-207.5 316,-207.5 316,-177 487.25,-177 487.25,-207.5"/>
<text xml:space="preserve" text-anchor="start" x="324" y="-194" font-family="Helvetica,sans-Serif" font-size="10.00">src/backends/neon/NeonInterceptor</text>
<text xml:space="preserve" text-anchor="middle" x="401.62" y="-182.75" font-family="Helvetica,sans-Serif" font-size="10.00">Scheduler.hpp</text>
</a>
</g>
</g>
<!-- Node2 -->
<g id="Node000002" class="node">
<title>Node2</title>
<g id="a_Node000002"><a xlink:href="_neon_timer_8hpp.html" target="_top" xlink:title=" ">
<polygon fill="white" stroke="#666666" points="442.62,-141 360.62,-141 360.62,-121.75 442.62,-121.75 442.62,-141"/>
<text xml:space="preserve" text-anchor="middle" x="401.62" y="-127.5" font-family="Helvetica,sans-Serif" font-size="10.00">NeonTimer.hpp</text>
</a>
</g>
</g>
<!-- Node1&#45;&gt;Node2 -->
<g id="edge1_Node000001_Node000002" class="edge">
<title>Node1&#45;&gt;Node2</title>
<g id="a_edge1_Node000001_Node000002"><a xlink:title=" ">
<path fill="none" stroke="#63b8ff" d="M401.62,-176.7C401.62,-169.46 401.62,-160.59 401.62,-152.69"/>
<polygon fill="#63b8ff" stroke="#63b8ff" points="405.13,-152.96 401.63,-142.96 398.13,-152.96 405.13,-152.96"/>
</a>
</g>
</g>
<!-- Node6 -->
<g id="Node000006" class="node">
<title>Node6</title>
<g id="a_Node000006"><a xlink:title=" ">
<polygon fill="#e0e0e0" stroke="#999999" points="365.88,-85.75 255.38,-85.75 255.38,-55.25 365.88,-55.25 365.88,-85.75"/>
<text xml:space="preserve" text-anchor="start" x="263.38" y="-72.25" font-family="Helvetica,sans-Serif" font-size="10.00">arm_compute/runtime</text>
<text xml:space="preserve" text-anchor="middle" x="310.62" y="-61" font-family="Helvetica,sans-Serif" font-size="10.00">/IScheduler.h</text>
</a>
</g>
</g>
<!-- Node1&#45;&gt;Node6 -->
<g id="edge15_Node000001_Node000006" class="edge">
<title>Node1&#45;&gt;Node6</title>
<g id="a_edge15_Node000001_Node000006"><a xlink:title=" ">
<path fill="none" stroke="#63b8ff" d="M385.25,-176.78C374.94,-167.2 361.71,-154.05 351.62,-141 340.81,-127.01 330.69,-109.91 323.21,-96.18"/>
<polygon fill="#63b8ff" stroke="#63b8ff" points="326.3,-94.54 318.52,-87.35 320.12,-97.82 326.3,-94.54"/>
</a>
</g>
</g>
<!-- Node7 -->
<g id="Node000007" class="node">
<title>Node7</title>
<g id="a_Node000007"><a xlink:title=" ">
<polygon fill="#e0e0e0" stroke="#999999" points="594.88,-85.75 484.38,-85.75 484.38,-55.25 594.88,-55.25 594.88,-85.75"/>
<text xml:space="preserve" text-anchor="start" x="492.38" y="-72.25" font-family="Helvetica,sans-Serif" font-size="10.00">arm_compute/runtime</text>
<text xml:space="preserve" text-anchor="middle" x="539.62" y="-61" font-family="Helvetica,sans-Serif" font-size="10.00">/Scheduler.h</text>
</a>
</g>
</g>
<!-- Node1&#45;&gt;Node7 -->
<g id="edge16_Node000001_Node000007" class="edge">
<title>Node1&#45;&gt;Node7</title>
<g id="a_edge16_Node000001_Node000007"><a xlink:title=" ">
<path fill="none" stroke="#63b8ff" d="M418.55,-176.57C442.58,-155.71 486.75,-117.38 514.58,-93.23"/>
<polygon fill="#63b8ff" stroke="#63b8ff" points="516.59,-96.12 521.85,-86.92 512.01,-90.83 516.59,-96.12"/>
</a>
</g>
</g>
<!-- Node8 -->
<g id="Node000008" class="node">
<title>Node8</title>
<g id="a_Node000008"><a xlink:title=" ">
<polygon fill="#e0e0e0" stroke="#999999" points="734.12,-85.75 613.12,-85.75 613.12,-55.25 734.12,-55.25 734.12,-85.75"/>
<text xml:space="preserve" text-anchor="start" x="621.12" y="-72.25" font-family="Helvetica,sans-Serif" font-size="10.00">arm_compute/core/CPP</text>
<text xml:space="preserve" text-anchor="middle" x="673.62" y="-61" font-family="Helvetica,sans-Serif" font-size="10.00">/ICPPKernel.h</text>
</a>
</g>
</g>
<!-- Node1&#45;&gt;Node8 -->
<g id="edge17_Node000001_Node000008" class="edge">
<title>Node1&#45;&gt;Node8</title>
<g id="a_edge17_Node000001_Node000008"><a xlink:title=" ">
<path fill="none" stroke="#63b8ff" d="M434.98,-176.57C484.05,-154.96 575.76,-114.59 630.08,-90.67"/>
<polygon fill="#63b8ff" stroke="#63b8ff" points="631.3,-93.96 639.04,-86.73 628.48,-87.55 631.3,-93.96"/>
</a>
</g>
</g>
<!-- Node12 -->
<g id="Node000012" class="node">
<title>Node12</title>
<g id="a_Node000012"><a xlink:href="_wall_clock_timer_8hpp.html" target="_top" xlink:title=" ">
<polygon fill="white" stroke="#666666" points="226.12,-141 123.12,-141 123.12,-121.75 226.12,-121.75 226.12,-141"/>
<text xml:space="preserve" text-anchor="middle" x="174.62" y="-127.5" font-family="Helvetica,sans-Serif" font-size="10.00">WallClockTimer.hpp</text>
</a>
</g>
</g>
<!-- Node1&#45;&gt;Node12 -->
<g id="edge11_Node000001_Node000012" class="edge">
<title>Node1&#45;&gt;Node12</title>
<g id="a_edge11_Node000001_Node000012"><a xlink:title=" ">
<path fill="none" stroke="#63b8ff" d="M344.93,-176.55C306.65,-166.62 256.77,-153.68 220.89,-144.38"/>
<polygon fill="#63b8ff" stroke="#63b8ff" points="221.8,-140.99 211.24,-141.87 220.04,-147.77 221.8,-140.99"/>
</a>
</g>
</g>
<!-- Node3 -->
<g id="Node000003" class="node">
<title>Node3</title>
<g id="a_Node000003"><a xlink:href="_instrument_8hpp.html" target="_top" xlink:title=" ">
<polygon fill="white" stroke="#666666" points="174.25,-80.12 93,-80.12 93,-60.88 174.25,-60.88 174.25,-80.12"/>
<text xml:space="preserve" text-anchor="middle" x="133.62" y="-66.62" font-family="Helvetica,sans-Serif" font-size="10.00">Instrument.hpp</text>
</a>
</g>
</g>
<!-- Node2&#45;&gt;Node3 -->
<g id="edge2_Node000002_Node000003" class="edge">
<title>Node2&#45;&gt;Node3</title>
<g id="a_edge2_Node000002_Node000003"><a xlink:title=" ">
<path fill="none" stroke="#63b8ff" d="M360.23,-122.99C316.02,-114.85 244.03,-100.91 182.62,-85.75 179.88,-85.07 177.05,-84.34 174.21,-83.58"/>
<polygon fill="#63b8ff" stroke="#63b8ff" points="175.35,-80.26 164.78,-80.96 173.48,-87.01 175.35,-80.26"/>
</a>
</g>
</g>
<!-- Node2&#45;&gt;Node6 -->
<g id="edge5_Node000002_Node000006" class="edge">
<title>Node2&#45;&gt;Node6</title>
<g id="a_edge5_Node000002_Node000006"><a xlink:title=" ">
<path fill="none" stroke="#63b8ff" d="M387.8,-121.43C375.78,-113.65 357.9,-102.09 342.37,-92.04"/>
<polygon fill="#63b8ff" stroke="#63b8ff" points="344.65,-89.35 334.36,-86.85 340.85,-95.22 344.65,-89.35"/>
</a>
</g>
</g>
<!-- Node2&#45;&gt;Node7 -->
<g id="edge6_Node000002_Node000007" class="edge">
<title>Node2&#45;&gt;Node7</title>
<g id="a_edge6_Node000002_Node000007"><a xlink:title=" ">
<path fill="none" stroke="#63b8ff" d="M422.89,-121.3C441.98,-113.16 470.66,-100.92 494.8,-90.62"/>
<polygon fill="#63b8ff" stroke="#63b8ff" points="495.96,-93.93 503.79,-86.79 493.22,-87.49 495.96,-93.93"/>
</a>
</g>
</g>
<!-- Node2&#45;&gt;Node8 -->
<g id="edge7_Node000002_Node000008" class="edge">
<title>Node2&#45;&gt;Node8</title>
<g id="a_edge7_Node000002_Node000008"><a xlink:title=" ">
<path fill="none" stroke="#63b8ff" d="M442.94,-121.43C484.94,-112.34 550.86,-98.07 601.5,-87.11"/>
<polygon fill="#63b8ff" stroke="#63b8ff" points="602.2,-90.54 611.23,-85.01 600.72,-83.7 602.2,-90.54"/>
</a>
</g>
</g>
<!-- Node9 -->
<g id="Node000009" class="node">
<title>Node9</title>
<g id="a_Node000009"><a xlink:title=" ">
<polygon fill="#e0e0e0" stroke="#999999" points="237.25,-80.12 192,-80.12 192,-60.88 237.25,-60.88 237.25,-80.12"/>
<text xml:space="preserve" text-anchor="middle" x="214.62" y="-66.62" font-family="Helvetica,sans-Serif" font-size="10.00">chrono</text>
</a>
</g>
</g>
<!-- Node2&#45;&gt;Node9 -->
<g id="edge8_Node000002_Node000009" class="edge">
<title>Node2&#45;&gt;Node9</title>
<g id="a_edge8_Node000002_Node000009"><a xlink:title=" ">
<path fill="none" stroke="#63b8ff" d="M364.84,-121.32C333.14,-113.16 286.35,-100.23 246.62,-85.75 245.83,-85.46 245.03,-85.16 244.23,-84.85"/>
<polygon fill="#63b8ff" stroke="#63b8ff" points="245.72,-81.68 235.14,-81.11 243.05,-88.15 245.72,-81.68"/>
</a>
</g>
</g>
<!-- Node10 -->
<g id="Node000010" class="node">
<title>Node10</title>
<g id="a_Node000010"><a xlink:title=" ">
<polygon fill="#e0e0e0" stroke="#999999" points="419,-80.12 384.25,-80.12 384.25,-60.88 419,-60.88 419,-80.12"/>
<text xml:space="preserve" text-anchor="middle" x="401.62" y="-66.62" font-family="Helvetica,sans-Serif" font-size="10.00">map</text>
</a>
</g>
</g>
<!-- Node2&#45;&gt;Node10 -->
<g id="edge9_Node000002_Node000010" class="edge">
<title>Node2&#45;&gt;Node10</title>
<g id="a_edge9_Node000002_Node000010"><a xlink:title=" ">
<path fill="none" stroke="#63b8ff" d="M401.62,-121.43C401.62,-113.65 401.62,-102.08 401.62,-92.03"/>
<polygon fill="#63b8ff" stroke="#63b8ff" points="405.13,-92.04 401.63,-82.04 398.13,-92.04 405.13,-92.04"/>
</a>
</g>
</g>
<!-- Node11 -->
<g id="Node000011" class="node">
<title>Node11</title>
<g id="a_Node000011"><a xlink:title=" ">
<polygon fill="#e0e0e0" stroke="#999999" points="466.02,-80.12 437.23,-80.12 437.23,-60.88 466.02,-60.88 466.02,-80.12"/>
<text xml:space="preserve" text-anchor="middle" x="451.62" y="-66.62" font-family="Helvetica,sans-Serif" font-size="10.00">list</text>
</a>
</g>
</g>
<!-- Node2&#45;&gt;Node11 -->
<g id="edge10_Node000002_Node000011" class="edge">
<title>Node2&#45;&gt;Node11</title>
<g id="a_edge10_Node000002_Node000011"><a xlink:title=" ">
<path fill="none" stroke="#63b8ff" d="M409.22,-121.43C416.49,-112.87 427.65,-99.73 436.7,-89.07"/>
<polygon fill="#63b8ff" stroke="#63b8ff" points="439.17,-91.57 442.98,-81.68 433.84,-87.04 439.17,-91.57"/>
</a>
</g>
</g>
<!-- Node4 -->
<g id="Node000004" class="node">
<title>Node4</title>
<g id="a_Node000004"><a xlink:title=" ">
<polygon fill="#e0e0e0" stroke="#999999" points="123.62,-19.25 83.62,-19.25 83.62,0 123.62,0 123.62,-19.25"/>
<text xml:space="preserve" text-anchor="middle" x="103.62" y="-5.75" font-family="Helvetica,sans-Serif" font-size="10.00">string</text>
</a>
</g>
</g>
<!-- Node3&#45;&gt;Node4 -->
<g id="edge3_Node000003_Node000004" class="edge">
<title>Node3&#45;&gt;Node4</title>
<g id="a_edge3_Node000003_Node000004"><a xlink:title=" ">
<path fill="none" stroke="#63b8ff" d="M129.07,-60.56C124.93,-52.43 118.68,-40.17 113.41,-29.83"/>
<polygon fill="#63b8ff" stroke="#63b8ff" points="116.57,-28.32 108.91,-21 110.33,-31.5 116.57,-28.32"/>
</a>
</g>
</g>
<!-- Node5 -->
<g id="Node000005" class="node">
<title>Node5</title>
<g id="a_Node000005"><a xlink:title=" ">
<polygon fill="#e0e0e0" stroke="#999999" points="185.12,-19.25 142.12,-19.25 142.12,0 185.12,0 185.12,-19.25"/>
<text xml:space="preserve" text-anchor="middle" x="163.62" y="-5.75" font-family="Helvetica,sans-Serif" font-size="10.00">vector</text>
</a>
</g>
</g>
<!-- Node3&#45;&gt;Node5 -->
<g id="edge4_Node000003_Node000005" class="edge">
<title>Node3&#45;&gt;Node5</title>
<g id="a_edge4_Node000003_Node000005"><a xlink:title=" ">
<path fill="none" stroke="#63b8ff" d="M138.18,-60.56C142.32,-52.43 148.57,-40.17 153.84,-29.83"/>
<polygon fill="#63b8ff" stroke="#63b8ff" points="156.92,-31.5 158.34,-21 150.68,-28.32 156.92,-31.5"/>
</a>
</g>
</g>
<!-- Node12&#45;&gt;Node3 -->
<g id="edge12_Node000012_Node000003" class="edge">
<title>Node12&#45;&gt;Node3</title>
<g id="a_edge12_Node000012_Node000003"><a xlink:title=" ">
<path fill="none" stroke="#63b8ff" d="M168.4,-121.43C162.56,-113.05 153.65,-100.26 146.31,-89.72"/>
<polygon fill="#63b8ff" stroke="#63b8ff" points="149.36,-87.97 140.78,-81.77 143.62,-91.97 149.36,-87.97"/>
</a>
</g>
</g>
<!-- Node12&#45;&gt;Node9 -->
<g id="edge13_Node000012_Node000009" class="edge">
<title>Node12&#45;&gt;Node9</title>
<g id="a_edge13_Node000012_Node000009"><a xlink:title=" ">
<path fill="none" stroke="#63b8ff" d="M180.7,-121.43C186.34,-113.13 194.91,-100.52 202.02,-90.05"/>
<polygon fill="#63b8ff" stroke="#63b8ff" points="204.92,-92.02 207.64,-81.78 199.13,-88.08 204.92,-92.02"/>
</a>
</g>
</g>
<!-- Node13 -->
<g id="Node000013" class="node">
<title>Node13</title>
<g id="a_Node000013"><a xlink:href="_dll_export_8hpp.html" target="_top" xlink:title=" ">
<polygon fill="white" stroke="#666666" points="75.25,-80.12 0,-80.12 0,-60.88 75.25,-60.88 75.25,-80.12"/>
<text xml:space="preserve" text-anchor="middle" x="37.62" y="-66.62" font-family="Helvetica,sans-Serif" font-size="10.00">DllExport.hpp</text>
</a>
</g>
</g>
<!-- Node12&#45;&gt;Node13 -->
<g id="edge14_Node000012_Node000013" class="edge">
<title>Node12&#45;&gt;Node13</title>
<g id="a_edge14_Node000012_Node000013"><a xlink:title=" ">
<path fill="none" stroke="#63b8ff" d="M153.52,-121.3C130.93,-111.6 94.84,-96.09 68.94,-84.96"/>
<polygon fill="#63b8ff" stroke="#63b8ff" points="70.49,-81.81 59.92,-81.08 67.73,-88.25 70.49,-81.81"/>
</a>
</g>
</g>
</g>
</svg>
