<?xml version="1.0" encoding="UTF-8" standalone="no"?>
<!DOCTYPE svg PUBLIC "-//W3C//DTD SVG 1.1//EN"
 "http://www.w3.org/Graphics/SVG/1.1/DTD/svg11.dtd">
<!-- Generated by graphviz version 14.0.2 (20251019.1705)
 -->
<!-- Title: src/backends/neon/workloads/NeonConvolution3dWorkload.hpp Pages: 1 -->
<svg width="512pt" height="172pt"
 viewBox="0.00 0.00 512.00 172.00" xmlns="http://www.w3.org/2000/svg" xmlns:xlink="http://www.w3.org/1999/xlink">
<g id="graph0" class="graph" transform="scale(1 1) rotate(0) translate(4 167.5)">
<title>src/backends/neon/workloads/NeonConvolution3dWorkload.hpp</title>
<!-- Node1 -->
<g id="Node000001" class="node">
<title>Node1</title>
<g id="a_Node000001"><a xlink:title=" ">
<polygon fill="#999999" stroke="#666666" points="330.25,-163.5 166.5,-163.5 166.5,-133 330.25,-133 330.25,-163.5"/>
<text xml:space="preserve" text-anchor="start" x="174.5" y="-150" font-family="Helvetica,sans-Serif" font-size="10.00">src/backends/neon/workloads</text>
<text xml:space="preserve" text-anchor="middle" x="248.38" y="-138.75" font-family="Helvetica,sans-Serif" font-size="10.00">/NeonConvolution3dWorkload.hpp</text>
</a>
</g>
</g>
<!-- Node2 -->
<g id="Node000002" class="node">
<title>Node2</title>
<g id="a_Node000002"><a xlink:href="_neon_layer_support_8cpp.html" target="_top" xlink:title=" ">
<polygon fill="white" stroke="#666666" points="148.75,-97 0,-97 0,-66.5 148.75,-66.5 148.75,-97"/>
<text xml:space="preserve" text-anchor="start" x="8" y="-83.5" font-family="Helvetica,sans-Serif" font-size="10.00">src/backends/neon/NeonLayer</text>
<text xml:space="preserve" text-anchor="middle" x="74.38" y="-72.25" font-family="Helvetica,sans-Serif" font-size="10.00">Support.cpp</text>
</a>
</g>
</g>
<!-- Node1&#45;&gt;Node2 -->
<g id="edge1_Node000001_Node000002" class="edge">
<title>Node1&#45;&gt;Node2</title>
<g id="a_edge1_Node000001_Node000002"><a xlink:title=" ">
<path fill="none" stroke="#63b8ff" d="M198.19,-128.65C171.43,-118.73 138.97,-106.7 114,-97.44"/>
<polygon fill="#63b8ff" stroke="#63b8ff" points="196.88,-131.89 207.47,-132.09 199.31,-125.33 196.88,-131.89"/>
</a>
</g>
</g>
<!-- Node3 -->
<g id="Node000003" class="node">
<title>Node3</title>
<g id="a_Node000003"><a xlink:href="_neon_convolution3d_workload_8cpp.html" target="_top" xlink:title=" ">
<polygon fill="white" stroke="#666666" points="330.25,-97 166.5,-97 166.5,-66.5 330.25,-66.5 330.25,-97"/>
<text xml:space="preserve" text-anchor="start" x="174.5" y="-83.5" font-family="Helvetica,sans-Serif" font-size="10.00">src/backends/neon/workloads</text>
<text xml:space="preserve" text-anchor="middle" x="248.38" y="-72.25" font-family="Helvetica,sans-Serif" font-size="10.00">/NeonConvolution3dWorkload.cpp</text>
</a>
</g>
</g>
<!-- Node1&#45;&gt;Node3 -->
<g id="edge2_Node000001_Node000003" class="edge">
<title>Node1&#45;&gt;Node3</title>
<g id="a_edge2_Node000001_Node000003"><a xlink:title=" ">
<path fill="none" stroke="#63b8ff" d="M248.38,-121.31C248.38,-113.14 248.38,-104.41 248.38,-97.33"/>
<polygon fill="#63b8ff" stroke="#63b8ff" points="244.88,-121.1 248.38,-131.1 251.88,-121.1 244.88,-121.1"/>
</a>
</g>
</g>
<!-- Node4 -->
<g id="Node000004" class="node">
<title>Node4</title>
<g id="a_Node000004"><a xlink:href="_neon_workloads_8hpp.html" target="_top" xlink:title=" ">
<polygon fill="white" stroke="#666666" points="494.25,-97 348.5,-97 348.5,-66.5 494.25,-66.5 494.25,-97"/>
<text xml:space="preserve" text-anchor="start" x="356.5" y="-83.5" font-family="Helvetica,sans-Serif" font-size="10.00">src/backends/neon/workloads</text>
<text xml:space="preserve" text-anchor="middle" x="421.38" y="-72.25" font-family="Helvetica,sans-Serif" font-size="10.00">/NeonWorkloads.hpp</text>
</a>
</g>
</g>
<!-- Node1&#45;&gt;Node4 -->
<g id="edge3_Node000001_Node000004" class="edge">
<title>Node1&#45;&gt;Node4</title>
<g id="a_edge3_Node000001_Node000004"><a xlink:title=" ">
<path fill="none" stroke="#63b8ff" d="M298.27,-128.65C324.88,-118.73 357.15,-106.7 381.97,-97.44"/>
<polygon fill="#63b8ff" stroke="#63b8ff" points="297.2,-125.31 289.05,-132.09 299.64,-131.87 297.2,-125.31"/>
</a>
</g>
</g>
<!-- Node5 -->
<g id="Node000005" class="node">
<title>Node5</title>
<g id="a_Node000005"><a xlink:href="_neon_workload_factory_8cpp.html" target="_top" xlink:title=" ">
<polygon fill="white" stroke="#666666" points="504,-30.5 338.75,-30.5 338.75,0 504,0 504,-30.5"/>
<text xml:space="preserve" text-anchor="start" x="346.75" y="-17" font-family="Helvetica,sans-Serif" font-size="10.00">src/backends/neon/NeonWorkload</text>
<text xml:space="preserve" text-anchor="middle" x="421.38" y="-5.75" font-family="Helvetica,sans-Serif" font-size="10.00">Factory.cpp</text>
</a>
</g>
</g>
<!-- Node4&#45;&gt;Node5 -->
<g id="edge4_Node000004_Node000005" class="edge">
<title>Node4&#45;&gt;Node5</title>
<g id="a_edge4_Node000004_Node000005"><a xlink:title=" ">
<path fill="none" stroke="#63b8ff" d="M421.38,-54.81C421.38,-46.64 421.38,-37.91 421.38,-30.83"/>
<polygon fill="#63b8ff" stroke="#63b8ff" points="417.88,-54.6 421.38,-64.6 424.88,-54.6 417.88,-54.6"/>
</a>
</g>
</g>
</g>
</svg>
