<?xml version="1.0" encoding="UTF-8" standalone="no"?>
<!DOCTYPE svg PUBLIC "-//W3C//DTD SVG 1.1//EN"
 "http://www.w3.org/Graphics/SVG/1.1/DTD/svg11.dtd">
<!-- Generated by graphviz version 14.0.2 (20251019.1705)
 -->
<!-- Title: src/armnn/Network.hpp Pages: 1 -->
<svg width="657pt" height="349pt"
 viewBox="0.00 0.00 657.00 349.00" xmlns="http://www.w3.org/2000/svg" xmlns:xlink="http://www.w3.org/1999/xlink">
<g id="graph0" class="graph" transform="scale(1 1) rotate(0) translate(4 344.5)">
<title>src/armnn/Network.hpp</title>
<!-- Node1 -->
<g id="Node000001" class="node">
<title>Node1</title>
<g id="a_Node000001"><a xlink:title=" ">
<polygon fill="#999999" stroke="#666666" points="440.75,-340.5 322.75,-340.5 322.75,-321.25 440.75,-321.25 440.75,-340.5"/>
<text xml:space="preserve" text-anchor="middle" x="381.75" y="-327" font-family="Helvetica,sans-Serif" font-size="10.00">src/armnn/Network.hpp</text>
</a>
</g>
</g>
<!-- Node2 -->
<g id="Node000002" class="node">
<title>Node2</title>
<g id="a_Node000002"><a xlink:href="_loaded_network_8hpp.html" target="_top" xlink:title=" ">
<polygon fill="white" stroke="#666666" points="301.5,-279.62 152,-279.62 152,-260.38 301.5,-260.38 301.5,-279.62"/>
<text xml:space="preserve" text-anchor="middle" x="226.75" y="-266.12" font-family="Helvetica,sans-Serif" font-size="10.00">src/armnn/LoadedNetwork.hpp</text>
</a>
</g>
</g>
<!-- Node1&#45;&gt;Node2 -->
<g id="edge1_Node000001_Node000002" class="edge">
<title>Node1&#45;&gt;Node2</title>
<g id="a_edge1_Node000001_Node000002"><a xlink:title=" ">
<path fill="none" stroke="#63b8ff" d="M347.27,-316.78C317.91,-305.63 276.49,-289.9 250.66,-280.08"/>
<polygon fill="#63b8ff" stroke="#63b8ff" points="345.86,-319.99 356.46,-320.27 348.35,-313.44 345.86,-319.99"/>
</a>
</g>
</g>
<!-- Node9 -->
<g id="Node000009" class="node">
<title>Node9</title>
<g id="a_Node000009"><a xlink:href="_create_workload_8hpp.html" target="_top" xlink:title=" ">
<polygon fill="white" stroke="#666666" points="397.5,-97 290,-97 290,-66.5 397.5,-66.5 397.5,-97"/>
<text xml:space="preserve" text-anchor="start" x="298" y="-83.5" font-family="Helvetica,sans-Serif" font-size="10.00">src/armnnTestUtils</text>
<text xml:space="preserve" text-anchor="middle" x="343.75" y="-72.25" font-family="Helvetica,sans-Serif" font-size="10.00">/CreateWorkload.hpp</text>
</a>
</g>
</g>
<!-- Node1&#45;&gt;Node9 -->
<g id="edge11_Node000001_Node000009" class="edge">
<title>Node1&#45;&gt;Node9</title>
<g id="a_edge11_Node000001_Node000009"><a xlink:title=" ">
<path fill="none" stroke="#63b8ff" d="M369.36,-311.1C364.9,-303.4 360.34,-294.21 357.75,-285.25 338.09,-217.2 340.67,-131.17 342.69,-97.35"/>
<polygon fill="#63b8ff" stroke="#63b8ff" points="366.33,-312.86 374.57,-319.52 372.28,-309.17 366.33,-312.86"/>
</a>
</g>
</g>
<!-- Node11 -->
<g id="Node000011" class="node">
<title>Node11</title>
<g id="a_Node000011"><a xlink:href="_network_8cpp.html" target="_top" xlink:title=" ">
<polygon fill="white" stroke="#666666" points="484.75,-279.62 366.75,-279.62 366.75,-260.38 484.75,-260.38 484.75,-279.62"/>
<text xml:space="preserve" text-anchor="middle" x="425.75" y="-266.12" font-family="Helvetica,sans-Serif" font-size="10.00">src/armnn/Network.cpp</text>
</a>
</g>
</g>
<!-- Node1&#45;&gt;Node11 -->
<g id="edge10_Node000001_Node000011" class="edge">
<title>Node1&#45;&gt;Node11</title>
<g id="a_edge10_Node000001_Node000011"><a xlink:title=" ">
<path fill="none" stroke="#63b8ff" d="M395.29,-311.76C403.15,-301.24 412.72,-288.44 419,-280.03"/>
<polygon fill="#63b8ff" stroke="#63b8ff" points="392.52,-309.62 389.34,-319.72 398.13,-313.81 392.52,-309.62"/>
</a>
</g>
</g>
<!-- Node12 -->
<g id="Node000012" class="node">
<title>Node12</title>
<g id="a_Node000012"><a xlink:href="_parser_prototxt_fixture_8hpp.html" target="_top" xlink:title=" ">
<polygon fill="white" stroke="#666666" points="648.62,-285.25 502.88,-285.25 502.88,-254.75 648.62,-254.75 648.62,-285.25"/>
<text xml:space="preserve" text-anchor="start" x="510.88" y="-271.75" font-family="Helvetica,sans-Serif" font-size="10.00">src/armnnUtils/ParserPrototxt</text>
<text xml:space="preserve" text-anchor="middle" x="575.75" y="-260.5" font-family="Helvetica,sans-Serif" font-size="10.00">Fixture.hpp</text>
</a>
</g>
</g>
<!-- Node1&#45;&gt;Node12 -->
<g id="edge12_Node000001_Node000012" class="edge">
<title>Node1&#45;&gt;Node12</title>
<g id="a_edge12_Node000001_Node000012"><a xlink:title=" ">
<path fill="none" stroke="#63b8ff" d="M422.35,-317.55C452.94,-308.27 494.99,-295.51 527.33,-285.69"/>
<polygon fill="#63b8ff" stroke="#63b8ff" points="421.64,-314.11 413.09,-320.37 423.67,-320.81 421.64,-314.11"/>
</a>
</g>
</g>
<!-- Node3 -->
<g id="Node000003" class="node">
<title>Node3</title>
<g id="a_Node000003"><a xlink:href="_loaded_network_8cpp.html" target="_top" xlink:title=" ">
<polygon fill="white" stroke="#666666" points="149.5,-218.75 0,-218.75 0,-199.5 149.5,-199.5 149.5,-218.75"/>
<text xml:space="preserve" text-anchor="middle" x="74.75" y="-205.25" font-family="Helvetica,sans-Serif" font-size="10.00">src/armnn/LoadedNetwork.cpp</text>
</a>
</g>
</g>
<!-- Node2&#45;&gt;Node3 -->
<g id="edge2_Node000002_Node000003" class="edge">
<title>Node2&#45;&gt;Node3</title>
<g id="a_edge2_Node000002_Node000003"><a xlink:title=" ">
<path fill="none" stroke="#63b8ff" d="M192.93,-255.9C164.14,-244.75 123.53,-229.02 98.19,-219.21"/>
<polygon fill="#63b8ff" stroke="#63b8ff" points="191.33,-259.03 201.92,-259.38 193.86,-252.51 191.33,-259.03"/>
</a>
</g>
</g>
<!-- Node4 -->
<g id="Node000004" class="node">
<title>Node4</title>
<g id="a_Node000004"><a xlink:href="_runtime_8hpp.html" target="_top" xlink:title=" ">
<polygon fill="white" stroke="#666666" points="285.75,-218.75 167.75,-218.75 167.75,-199.5 285.75,-199.5 285.75,-218.75"/>
<text xml:space="preserve" text-anchor="middle" x="226.75" y="-205.25" font-family="Helvetica,sans-Serif" font-size="10.00">src/armnn/Runtime.hpp</text>
</a>
</g>
</g>
<!-- Node2&#45;&gt;Node4 -->
<g id="edge3_Node000002_Node000004" class="edge">
<title>Node2&#45;&gt;Node4</title>
<g id="a_edge3_Node000002_Node000004"><a xlink:title=" ">
<path fill="none" stroke="#63b8ff" d="M226.75,-248.57C226.75,-238.54 226.75,-226.96 226.75,-219.15"/>
<polygon fill="#63b8ff" stroke="#63b8ff" points="223.25,-248.54 226.75,-258.54 230.25,-248.54 223.25,-248.54"/>
</a>
</g>
</g>
<!-- Node5 -->
<g id="Node000005" class="node">
<title>Node5</title>
<g id="a_Node000005"><a xlink:href="_runtime_8cpp.html" target="_top" xlink:title=" ">
<polygon fill="white" stroke="#666666" points="159.75,-157.88 41.75,-157.88 41.75,-138.62 159.75,-138.62 159.75,-157.88"/>
<text xml:space="preserve" text-anchor="middle" x="100.75" y="-144.38" font-family="Helvetica,sans-Serif" font-size="10.00">src/armnn/Runtime.cpp</text>
</a>
</g>
</g>
<!-- Node4&#45;&gt;Node5 -->
<g id="edge4_Node000004_Node000005" class="edge">
<title>Node4&#45;&gt;Node5</title>
<g id="a_edge4_Node000004_Node000005"><a xlink:title=" ">
<path fill="none" stroke="#63b8ff" d="M197.1,-194.27C173.27,-183.13 140.5,-167.82 119.98,-158.23"/>
<polygon fill="#63b8ff" stroke="#63b8ff" points="195.43,-197.35 205.97,-198.41 198.39,-191.01 195.43,-197.35"/>
</a>
</g>
</g>
<!-- Node6 -->
<g id="Node000006" class="node">
<title>Node6</title>
<g id="a_Node000006"><a xlink:href="_test_utils_8hpp.html" target="_top" xlink:title=" ">
<polygon fill="white" stroke="#666666" points="276,-163.5 177.5,-163.5 177.5,-133 276,-133 276,-163.5"/>
<text xml:space="preserve" text-anchor="start" x="185.5" y="-150" font-family="Helvetica,sans-Serif" font-size="10.00">src/armnnTestUtils</text>
<text xml:space="preserve" text-anchor="middle" x="226.75" y="-138.75" font-family="Helvetica,sans-Serif" font-size="10.00">/TestUtils.hpp</text>
</a>
</g>
</g>
<!-- Node4&#45;&gt;Node6 -->
<g id="edge5_Node000004_Node000006" class="edge">
<title>Node4&#45;&gt;Node6</title>
<g id="a_edge5_Node000004_Node000006"><a xlink:title=" ">
<path fill="none" stroke="#63b8ff" d="M226.75,-187.92C226.75,-179.99 226.75,-171.06 226.75,-163.78"/>
<polygon fill="#63b8ff" stroke="#63b8ff" points="223.25,-187.67 226.75,-197.67 230.25,-187.67 223.25,-187.67"/>
</a>
</g>
</g>
<!-- Node7 -->
<g id="Node000007" class="node">
<title>Node7</title>
<g id="a_Node000007"><a xlink:href="_common_test_utils_8hpp.html" target="_top" xlink:title=" ">
<polygon fill="white" stroke="#666666" points="155,-97 38.5,-97 38.5,-66.5 155,-66.5 155,-97"/>
<text xml:space="preserve" text-anchor="start" x="46.5" y="-83.5" font-family="Helvetica,sans-Serif" font-size="10.00">src/armnnTestUtils</text>
<text xml:space="preserve" text-anchor="middle" x="96.75" y="-72.25" font-family="Helvetica,sans-Serif" font-size="10.00">/CommonTestUtils.hpp</text>
</a>
</g>
</g>
<!-- Node6&#45;&gt;Node7 -->
<g id="edge6_Node000006_Node000007" class="edge">
<title>Node6&#45;&gt;Node7</title>
<g id="a_edge6_Node000006_Node000007"><a xlink:title=" ">
<path fill="none" stroke="#63b8ff" d="M187.07,-127.56C167.43,-117.82 144.14,-106.26 126.13,-97.33"/>
<polygon fill="#63b8ff" stroke="#63b8ff" points="185.38,-130.63 195.9,-131.94 188.49,-124.36 185.38,-130.63"/>
</a>
</g>
</g>
<!-- Node6&#45;&gt;Node9 -->
<g id="edge8_Node000006_Node000009" class="edge">
<title>Node6&#45;&gt;Node9</title>
<g id="a_edge8_Node000006_Node000009"><a xlink:title=" ">
<path fill="none" stroke="#63b8ff" d="M263.2,-127.16C280.71,-117.5 301.32,-106.14 317.31,-97.33"/>
<polygon fill="#63b8ff" stroke="#63b8ff" points="261.69,-123.99 254.62,-131.88 265.07,-130.12 261.69,-123.99"/>
</a>
</g>
</g>
<!-- Node10 -->
<g id="Node000010" class="node">
<title>Node10</title>
<g id="a_Node000010"><a xlink:href="_test_utils_8cpp.html" target="_top" xlink:title=" ">
<polygon fill="white" stroke="#666666" points="272,-97 173.5,-97 173.5,-66.5 272,-66.5 272,-97"/>
<text xml:space="preserve" text-anchor="start" x="181.5" y="-83.5" font-family="Helvetica,sans-Serif" font-size="10.00">src/armnnTestUtils</text>
<text xml:space="preserve" text-anchor="middle" x="222.75" y="-72.25" font-family="Helvetica,sans-Serif" font-size="10.00">/TestUtils.cpp</text>
</a>
</g>
</g>
<!-- Node6&#45;&gt;Node10 -->
<g id="edge9_Node000006_Node000010" class="edge">
<title>Node6&#45;&gt;Node10</title>
<g id="a_edge9_Node000006_Node000010"><a xlink:title=" ">
<path fill="none" stroke="#63b8ff" d="M225.14,-121.31C224.63,-113.14 224.09,-104.41 223.65,-97.33"/>
<polygon fill="#63b8ff" stroke="#63b8ff" points="221.64,-121.34 225.75,-131.1 228.62,-120.91 221.64,-121.34"/>
</a>
</g>
</g>
<!-- Node8 -->
<g id="Node000008" class="node">
<title>Node8</title>
<g id="a_Node000008"><a xlink:href="_common_test_utils_8cpp.html" target="_top" xlink:title=" ">
<polygon fill="white" stroke="#666666" points="155,-30.5 38.5,-30.5 38.5,0 155,0 155,-30.5"/>
<text xml:space="preserve" text-anchor="start" x="46.5" y="-17" font-family="Helvetica,sans-Serif" font-size="10.00">src/armnnTestUtils</text>
<text xml:space="preserve" text-anchor="middle" x="96.75" y="-5.75" font-family="Helvetica,sans-Serif" font-size="10.00">/CommonTestUtils.cpp</text>
</a>
</g>
</g>
<!-- Node7&#45;&gt;Node8 -->
<g id="edge7_Node000007_Node000008" class="edge">
<title>Node7&#45;&gt;Node8</title>
<g id="a_edge7_Node000007_Node000008"><a xlink:title=" ">
<path fill="none" stroke="#63b8ff" d="M96.75,-54.81C96.75,-46.64 96.75,-37.91 96.75,-30.83"/>
<polygon fill="#63b8ff" stroke="#63b8ff" points="93.25,-54.6 96.75,-64.6 100.25,-54.6 93.25,-54.6"/>
</a>
</g>
</g>
</g>
</svg>
