<?xml version="1.0" encoding="UTF-8" standalone="no"?>
<!DOCTYPE svg PUBLIC "-//W3C//DTD SVG 1.1//EN"
 "http://www.w3.org/Graphics/SVG/1.1/DTD/svg11.dtd">
<!-- Generated by graphviz version 14.0.2 (20251019.1705)
 -->
<!-- Title: src/backends/tosaCommon/operatorMappings/Pooling2DOperator.hpp Pages: 1 -->
<svg width="730pt" height="249pt"
 viewBox="0.00 0.00 730.00 249.00" xmlns="http://www.w3.org/2000/svg" xmlns:xlink="http://www.w3.org/1999/xlink">
<g id="graph0" class="graph" transform="scale(1 1) rotate(0) translate(4 245.25)">
<title>src/backends/tosaCommon/operatorMappings/Pooling2DOperator.hpp</title>
<!-- Node1 -->
<g id="Node000001" class="node">
<title>Node1</title>
<g id="a_Node000001"><a xlink:title=" ">
<polygon fill="#999999" stroke="#666666" points="393.75,-241.25 194,-241.25 194,-210.75 393.75,-210.75 393.75,-241.25"/>
<text xml:space="preserve" text-anchor="start" x="202" y="-227.75" font-family="Helvetica,sans-Serif" font-size="10.00">src/backends/tosaCommon</text>
<text xml:space="preserve" text-anchor="middle" x="293.88" y="-216.5" font-family="Helvetica,sans-Serif" font-size="10.00">/operatorMappings/Pooling2DOperator.hpp</text>
</a>
</g>
</g>
<!-- Node2 -->
<g id="Node000002" class="node">
<title>Node2</title>
<g id="a_Node000002"><a xlink:href="_avg_pool2_d_ignore_value_operator_8cpp.html" target="_top" xlink:title=" ">
<polygon fill="white" stroke="#666666" points="175.75,-174.75 0,-174.75 0,-133 175.75,-133 175.75,-174.75"/>
<text xml:space="preserve" text-anchor="start" x="8" y="-161.25" font-family="Helvetica,sans-Serif" font-size="10.00">src/backends/tosaCommon</text>
<text xml:space="preserve" text-anchor="start" x="8" y="-150" font-family="Helvetica,sans-Serif" font-size="10.00">/operatorMappings/AvgPool2DIgnore</text>
<text xml:space="preserve" text-anchor="middle" x="87.88" y="-138.75" font-family="Helvetica,sans-Serif" font-size="10.00">ValueOperator.cpp</text>
</a>
</g>
</g>
<!-- Node1&#45;&gt;Node2 -->
<g id="edge1_Node000001_Node000002" class="edge">
<title>Node1&#45;&gt;Node2</title>
<g id="a_edge1_Node000001_Node000002"><a xlink:title=" ">
<path fill="none" stroke="#63b8ff" d="M240.13,-206.71C211.69,-197.02 176.68,-185.11 147.41,-175.14"/>
<polygon fill="#63b8ff" stroke="#63b8ff" points="238.66,-209.9 249.26,-209.81 240.92,-203.28 238.66,-209.9"/>
</a>
</g>
</g>
<!-- Node3 -->
<g id="Node000003" class="node">
<title>Node3</title>
<g id="a_Node000003"><a xlink:href="_pooling2_d_operator_8cpp.html" target="_top" xlink:title=" ">
<polygon fill="white" stroke="#666666" points="393.75,-169.12 194,-169.12 194,-138.62 393.75,-138.62 393.75,-169.12"/>
<text xml:space="preserve" text-anchor="start" x="202" y="-155.62" font-family="Helvetica,sans-Serif" font-size="10.00">src/backends/tosaCommon</text>
<text xml:space="preserve" text-anchor="middle" x="293.88" y="-144.38" font-family="Helvetica,sans-Serif" font-size="10.00">/operatorMappings/Pooling2DOperator.cpp</text>
</a>
</g>
</g>
<!-- Node1&#45;&gt;Node3 -->
<g id="edge2_Node000001_Node000003" class="edge">
<title>Node1&#45;&gt;Node3</title>
<g id="a_edge2_Node000001_Node000003"><a xlink:title=" ">
<path fill="none" stroke="#63b8ff" d="M293.88,-199.02C293.88,-189.01 293.88,-177.94 293.88,-169.39"/>
<polygon fill="#63b8ff" stroke="#63b8ff" points="290.38,-198.96 293.88,-208.96 297.38,-198.96 290.38,-198.96"/>
</a>
</g>
</g>
<!-- Node4 -->
<g id="Node000004" class="node">
<title>Node4</title>
<g id="a_Node000004"><a xlink:href="_tosa_common_operators_8hpp.html" target="_top" xlink:title=" ">
<polygon fill="white" stroke="#666666" points="571.88,-174.75 411.88,-174.75 411.88,-133 571.88,-133 571.88,-174.75"/>
<text xml:space="preserve" text-anchor="start" x="419.88" y="-161.25" font-family="Helvetica,sans-Serif" font-size="10.00">src/backends/tosaCommon</text>
<text xml:space="preserve" text-anchor="start" x="419.88" y="-150" font-family="Helvetica,sans-Serif" font-size="10.00">/operatorMappings/TosaCommon</text>
<text xml:space="preserve" text-anchor="middle" x="491.88" y="-138.75" font-family="Helvetica,sans-Serif" font-size="10.00">Operators.hpp</text>
</a>
</g>
</g>
<!-- Node1&#45;&gt;Node4 -->
<g id="edge3_Node000001_Node000004" class="edge">
<title>Node1&#45;&gt;Node4</title>
<g id="a_edge3_Node000001_Node000004"><a xlink:title=" ">
<path fill="none" stroke="#63b8ff" d="M345.89,-206.58C373.17,-196.92 406.64,-185.06 434.65,-175.14"/>
<polygon fill="#63b8ff" stroke="#63b8ff" points="345.07,-203.16 336.81,-209.79 347.4,-209.75 345.07,-203.16"/>
</a>
</g>
</g>
<!-- Node5 -->
<g id="Node000005" class="node">
<title>Node5</title>
<g id="a_Node000005"><a xlink:href="_tosa_mappings_8hpp.html" target="_top" xlink:title=" ">
<polygon fill="white" stroke="#666666" points="559.88,-97 423.88,-97 423.88,-66.5 559.88,-66.5 559.88,-97"/>
<text xml:space="preserve" text-anchor="start" x="431.88" y="-83.5" font-family="Helvetica,sans-Serif" font-size="10.00">src/backends/tosaCommon</text>
<text xml:space="preserve" text-anchor="middle" x="491.88" y="-72.25" font-family="Helvetica,sans-Serif" font-size="10.00">/TosaMappings.hpp</text>
</a>
</g>
</g>
<!-- Node4&#45;&gt;Node5 -->
<g id="edge4_Node000004_Node000005" class="edge">
<title>Node4&#45;&gt;Node5</title>
<g id="a_edge4_Node000004_Node000005"><a xlink:title=" ">
<path fill="none" stroke="#63b8ff" d="M491.88,-121.13C491.88,-112.77 491.88,-104.15 491.88,-97.2"/>
<polygon fill="#63b8ff" stroke="#63b8ff" points="488.38,-121.08 491.88,-131.08 495.38,-121.08 488.38,-121.08"/>
</a>
</g>
</g>
<!-- Node6 -->
<g id="Node000006" class="node">
<title>Node6</title>
<g id="a_Node000006"><a xlink:href="_tosa_mappings_8cpp.html" target="_top" xlink:title=" ">
<polygon fill="white" stroke="#666666" points="402.88,-30.5 266.88,-30.5 266.88,0 402.88,0 402.88,-30.5"/>
<text xml:space="preserve" text-anchor="start" x="274.88" y="-17" font-family="Helvetica,sans-Serif" font-size="10.00">src/backends/tosaCommon</text>
<text xml:space="preserve" text-anchor="middle" x="334.88" y="-5.75" font-family="Helvetica,sans-Serif" font-size="10.00">/TosaMappings.cpp</text>
</a>
</g>
</g>
<!-- Node5&#45;&gt;Node6 -->
<g id="edge5_Node000005_Node000006" class="edge">
<title>Node5&#45;&gt;Node6</title>
<g id="a_edge5_Node000005_Node000006"><a xlink:title=" ">
<path fill="none" stroke="#63b8ff" d="M445.62,-61.75C421.67,-51.91 392.86,-40.07 370.63,-30.94"/>
<polygon fill="#63b8ff" stroke="#63b8ff" points="444.27,-64.98 454.85,-65.54 446.93,-58.5 444.27,-64.98"/>
</a>
</g>
</g>
<!-- Node7 -->
<g id="Node000007" class="node">
<title>Node7</title>
<g id="a_Node000007"><a xlink:href="_tosa_ref_backend_8cpp.html" target="_top" xlink:title=" ">
<polygon fill="white" stroke="#666666" points="562.5,-30.5 421.25,-30.5 421.25,0 562.5,0 562.5,-30.5"/>
<text xml:space="preserve" text-anchor="start" x="429.25" y="-17" font-family="Helvetica,sans-Serif" font-size="10.00">src/backends/tosaReference</text>
<text xml:space="preserve" text-anchor="middle" x="491.88" y="-5.75" font-family="Helvetica,sans-Serif" font-size="10.00">/TosaRefBackend.cpp</text>
</a>
</g>
</g>
<!-- Node5&#45;&gt;Node7 -->
<g id="edge6_Node000005_Node000007" class="edge">
<title>Node5&#45;&gt;Node7</title>
<g id="a_edge6_Node000005_Node000007"><a xlink:title=" ">
<path fill="none" stroke="#63b8ff" d="M491.88,-54.81C491.88,-46.64 491.88,-37.91 491.88,-30.83"/>
<polygon fill="#63b8ff" stroke="#63b8ff" points="488.38,-54.6 491.88,-64.6 495.38,-54.6 488.38,-54.6"/>
</a>
</g>
</g>
<!-- Node8 -->
<g id="Node000008" class="node">
<title>Node8</title>
<g id="a_Node000008"><a xlink:href="_tosa_ref_layer_support_8cpp.html" target="_top" xlink:title=" ">
<polygon fill="white" stroke="#666666" points="721.5,-30.5 580.25,-30.5 580.25,0 721.5,0 721.5,-30.5"/>
<text xml:space="preserve" text-anchor="start" x="588.25" y="-17" font-family="Helvetica,sans-Serif" font-size="10.00">src/backends/tosaReference</text>
<text xml:space="preserve" text-anchor="middle" x="650.88" y="-5.75" font-family="Helvetica,sans-Serif" font-size="10.00">/TosaRefLayerSupport.cpp</text>
</a>
</g>
</g>
<!-- Node5&#45;&gt;Node8 -->
<g id="edge7_Node000005_Node000008" class="edge">
<title>Node5&#45;&gt;Node8</title>
<g id="a_edge7_Node000005_Node000008"><a xlink:title=" ">
<path fill="none" stroke="#63b8ff" d="M538.39,-61.88C562.71,-52.01 592.05,-40.11 614.66,-30.94"/>
<polygon fill="#63b8ff" stroke="#63b8ff" points="537.31,-58.54 529.36,-65.54 539.94,-65.03 537.31,-58.54"/>
</a>
</g>
</g>
</g>
</svg>
