<?xml version="1.0" encoding="UTF-8" standalone="no"?>
<!DOCTYPE svg PUBLIC "-//W3C//DTD SVG 1.1//EN"
 "http://www.w3.org/Graphics/SVG/1.1/DTD/svg11.dtd">
<!-- Generated by graphviz version 14.0.2 (20251019.1705)
 -->
<!-- Title: src/backends/reference/workloads/RefConstantWorkload.hpp Pages: 1 -->
<svg width="354pt" height="172pt"
 viewBox="0.00 0.00 354.00 172.00" xmlns="http://www.w3.org/2000/svg" xmlns:xlink="http://www.w3.org/1999/xlink">
<g id="graph0" class="graph" transform="scale(1 1) rotate(0) translate(4 167.5)">
<title>src/backends/reference/workloads/RefConstantWorkload.hpp</title>
<!-- Node1 -->
<g id="Node000001" class="node">
<title>Node1</title>
<g id="a_Node000001"><a xlink:title=" ">
<polygon fill="#999999" stroke="#666666" points="272,-163.5 91,-163.5 91,-133 272,-133 272,-163.5"/>
<text xml:space="preserve" text-anchor="start" x="99" y="-150" font-family="Helvetica,sans-Serif" font-size="10.00">src/backends/reference</text>
<text xml:space="preserve" text-anchor="middle" x="181.5" y="-138.75" font-family="Helvetica,sans-Serif" font-size="10.00">/workloads/RefConstantWorkload.hpp</text>
</a>
</g>
</g>
<!-- Node2 -->
<g id="Node000002" class="node">
<title>Node2</title>
<g id="a_Node000002"><a xlink:href="_ref_constant_workload_8cpp.html" target="_top" xlink:title=" ">
<polygon fill="white" stroke="#666666" points="181,-97 0,-97 0,-66.5 181,-66.5 181,-97"/>
<text xml:space="preserve" text-anchor="start" x="8" y="-83.5" font-family="Helvetica,sans-Serif" font-size="10.00">src/backends/reference</text>
<text xml:space="preserve" text-anchor="middle" x="90.5" y="-72.25" font-family="Helvetica,sans-Serif" font-size="10.00">/workloads/RefConstantWorkload.cpp</text>
</a>
</g>
</g>
<!-- Node1&#45;&gt;Node2 -->
<g id="edge1_Node000001_Node000002" class="edge">
<title>Node1&#45;&gt;Node2</title>
<g id="a_edge1_Node000001_Node000002"><a xlink:title=" ">
<path fill="none" stroke="#63b8ff" d="M151.61,-126.07C138.34,-116.66 123.04,-105.81 111.07,-97.33"/>
<polygon fill="#63b8ff" stroke="#63b8ff" points="149.43,-128.81 159.62,-131.74 153.48,-123.1 149.43,-128.81"/>
</a>
</g>
</g>
<!-- Node3 -->
<g id="Node000003" class="node">
<title>Node3</title>
<g id="a_Node000003"><a xlink:href="_ref_workloads_8hpp.html" target="_top" xlink:title=" ">
<polygon fill="white" stroke="#666666" points="345.75,-97 199.25,-97 199.25,-66.5 345.75,-66.5 345.75,-97"/>
<text xml:space="preserve" text-anchor="start" x="207.25" y="-83.5" font-family="Helvetica,sans-Serif" font-size="10.00">src/backends/reference</text>
<text xml:space="preserve" text-anchor="middle" x="272.5" y="-72.25" font-family="Helvetica,sans-Serif" font-size="10.00">/workloads/RefWorkloads.hpp</text>
</a>
</g>
</g>
<!-- Node1&#45;&gt;Node3 -->
<g id="edge2_Node000001_Node000003" class="edge">
<title>Node1&#45;&gt;Node3</title>
<g id="a_edge2_Node000001_Node000003"><a xlink:title=" ">
<path fill="none" stroke="#63b8ff" d="M211.39,-126.07C224.66,-116.66 239.96,-105.81 251.93,-97.33"/>
<polygon fill="#63b8ff" stroke="#63b8ff" points="209.52,-123.1 203.38,-131.74 213.57,-128.81 209.52,-123.1"/>
</a>
</g>
</g>
<!-- Node4 -->
<g id="Node000004" class="node">
<title>Node4</title>
<g id="a_Node000004"><a xlink:href="_ref_workload_factory_8cpp.html" target="_top" xlink:title=" ">
<polygon fill="white" stroke="#666666" points="335.25,-30.5 209.75,-30.5 209.75,0 335.25,0 335.25,-30.5"/>
<text xml:space="preserve" text-anchor="start" x="217.75" y="-17" font-family="Helvetica,sans-Serif" font-size="10.00">src/backends/reference</text>
<text xml:space="preserve" text-anchor="middle" x="272.5" y="-5.75" font-family="Helvetica,sans-Serif" font-size="10.00">/RefWorkloadFactory.cpp</text>
</a>
</g>
</g>
<!-- Node3&#45;&gt;Node4 -->
<g id="edge3_Node000003_Node000004" class="edge">
<title>Node3&#45;&gt;Node4</title>
<g id="a_edge3_Node000003_Node000004"><a xlink:title=" ">
<path fill="none" stroke="#63b8ff" d="M272.5,-54.81C272.5,-46.64 272.5,-37.91 272.5,-30.83"/>
<polygon fill="#63b8ff" stroke="#63b8ff" points="269,-54.6 272.5,-64.6 276,-54.6 269,-54.6"/>
</a>
</g>
</g>
</g>
</svg>
