<?xml version="1.0" encoding="UTF-8" standalone="no"?>
<!DOCTYPE svg PUBLIC "-//W3C//DTD SVG 1.1//EN"
 "http://www.w3.org/Graphics/SVG/1.1/DTD/svg11.dtd">
<!-- Generated by graphviz version 14.0.2 (20251019.1705)
 -->
<!-- Title: src/backends/reference/workloads/Slice.cpp Pages: 1 -->
<svg width="1398pt" height="492pt"
 viewBox="0.00 0.00 1398.00 492.00" xmlns="http://www.w3.org/2000/svg" xmlns:xlink="http://www.w3.org/1999/xlink">
<g id="graph0" class="graph" transform="scale(1 1) rotate(0) translate(4 487.75)">
<title>src/backends/reference/workloads/Slice.cpp</title>
<!-- Node1 -->
<g id="Node000001" class="node">
<title>Node1</title>
<g id="a_Node000001"><a xlink:title=" ">
<polygon fill="#999999" stroke="#666666" points="565.62,-483.75 447.62,-483.75 447.62,-453.25 565.62,-453.25 565.62,-483.75"/>
<text xml:space="preserve" text-anchor="start" x="455.62" y="-470.25" font-family="Helvetica,sans-Serif" font-size="10.00">src/backends/reference</text>
<text xml:space="preserve" text-anchor="middle" x="506.62" y="-459" font-family="Helvetica,sans-Serif" font-size="10.00">/workloads/Slice.cpp</text>
</a>
</g>
</g>
<!-- Node2 -->
<g id="Node000002" class="node">
<title>Node2</title>
<g id="a_Node000002"><a xlink:href="_slice_8hpp.html" target="_top" xlink:title=" ">
<polygon fill="white" stroke="#666666" points="534.88,-417.25 478.38,-417.25 478.38,-398 534.88,-398 534.88,-417.25"/>
<text xml:space="preserve" text-anchor="middle" x="506.62" y="-403.75" font-family="Helvetica,sans-Serif" font-size="10.00">Slice.hpp</text>
</a>
</g>
</g>
<!-- Node1&#45;&gt;Node2 -->
<g id="edge1_Node000001_Node000002" class="edge">
<title>Node1&#45;&gt;Node2</title>
<g id="a_edge1_Node000001_Node000002"><a xlink:title=" ">
<path fill="none" stroke="#63b8ff" d="M506.62,-452.95C506.62,-445.71 506.62,-436.84 506.62,-428.94"/>
<polygon fill="#63b8ff" stroke="#63b8ff" points="510.13,-429.21 506.63,-419.21 503.13,-429.21 510.13,-429.21"/>
</a>
</g>
</g>
<!-- Node33 -->
<g id="Node000033" class="node">
<title>Node33</title>
<g id="a_Node000033"><a xlink:href="_assert_8hpp.html" target="_top" xlink:title=" ">
<polygon fill="white" stroke="#666666" points="63.25,-240.25 0,-240.25 0,-221 63.25,-221 63.25,-240.25"/>
<text xml:space="preserve" text-anchor="middle" x="31.62" y="-226.75" font-family="Helvetica,sans-Serif" font-size="10.00">Assert.hpp</text>
</a>
</g>
</g>
<!-- Node1&#45;&gt;Node33 -->
<g id="edge74_Node000001_Node000033" class="edge">
<title>Node1&#45;&gt;Node33</title>
<g id="a_edge74_Node000001_Node000033"><a xlink:title=" ">
<path fill="none" stroke="#63b8ff" d="M447.46,-463.32C351.08,-453.29 160.26,-419.54 53.62,-306.75 39.49,-291.8 34.38,-268.25 32.56,-251.51"/>
<polygon fill="#63b8ff" stroke="#63b8ff" points="36.07,-251.51 31.83,-241.8 29.09,-252.03 36.07,-251.51"/>
</a>
</g>
</g>
<!-- Node43 -->
<g id="Node000043" class="node">
<title>Node43</title>
<g id="a_Node000043"><a xlink:href="_ignore_unused_8hpp.html" target="_top" xlink:title=" ">
<polygon fill="white" stroke="#666666" points="704.5,-417.25 552.75,-417.25 552.75,-398 704.5,-398 704.5,-417.25"/>
<text xml:space="preserve" text-anchor="middle" x="628.62" y="-403.75" font-family="Helvetica,sans-Serif" font-size="10.00">armnn/utility/IgnoreUnused.hpp</text>
</a>
</g>
</g>
<!-- Node1&#45;&gt;Node43 -->
<g id="edge75_Node000001_Node000043" class="edge">
<title>Node1&#45;&gt;Node43</title>
<g id="a_edge75_Node000001_Node000043"><a xlink:title=" ">
<path fill="none" stroke="#63b8ff" d="M537.1,-452.8C556.21,-443.57 580.72,-431.75 599.56,-422.65"/>
<polygon fill="#63b8ff" stroke="#63b8ff" points="601.07,-425.81 608.55,-418.31 598.02,-419.51 601.07,-425.81"/>
</a>
</g>
</g>
<!-- Node3 -->
<g id="Node000003" class="node">
<title>Node3</title>
<g id="a_Node000003"><a xlink:href="_descriptors_8hpp.html" target="_top" xlink:title=" ">
<polygon fill="white" stroke="#666666" points="1105.12,-240.25 990.12,-240.25 990.12,-221 1105.12,-221 1105.12,-240.25"/>
<text xml:space="preserve" text-anchor="middle" x="1047.62" y="-226.75" font-family="Helvetica,sans-Serif" font-size="10.00">armnn/Descriptors.hpp</text>
</a>
</g>
</g>
<!-- Node2&#45;&gt;Node3 -->
<g id="edge2_Node000002_Node000003" class="edge">
<title>Node2&#45;&gt;Node3</title>
<g id="a_edge2_Node000002_Node000003"><a xlink:title=" ">
<path fill="none" stroke="#63b8ff" d="M535.29,-399.86C538.11,-399.22 540.92,-398.59 543.62,-398 740.41,-354.85 815.85,-412.01 987.62,-306.75 1010.02,-293.03 1027.55,-267.79 1037.74,-250.38"/>
<polygon fill="#63b8ff" stroke="#63b8ff" points="1040.57,-252.49 1042.37,-242.05 1034.45,-249.09 1040.57,-252.49"/>
</a>
</g>
</g>
<!-- Node29 -->
<g id="Node000029" class="node">
<title>Node29</title>
<g id="a_Node000029"><a xlink:href="_base_iterator_8hpp.html" target="_top" xlink:title=" ">
<polygon fill="white" stroke="#666666" points="550.25,-362 463,-362 463,-342.75 550.25,-342.75 550.25,-362"/>
<text xml:space="preserve" text-anchor="middle" x="506.62" y="-348.5" font-family="Helvetica,sans-Serif" font-size="10.00">BaseIterator.hpp</text>
</a>
</g>
</g>
<!-- Node2&#45;&gt;Node29 -->
<g id="edge39_Node000002_Node000029" class="edge">
<title>Node2&#45;&gt;Node29</title>
<g id="a_edge39_Node000002_Node000029"><a xlink:title=" ">
<path fill="none" stroke="#63b8ff" d="M506.62,-397.83C506.62,-391.32 506.62,-382.17 506.62,-373.87"/>
<polygon fill="#63b8ff" stroke="#63b8ff" points="510.13,-373.87 506.63,-363.87 503.13,-373.87 510.13,-373.87"/>
</a>
</g>
</g>
<!-- Node4 -->
<g id="Node000004" class="node">
<title>Node4</title>
<g id="a_Node000004"><a xlink:href="_deprecated_8hpp.html" target="_top" xlink:title=" ">
<polygon fill="white" stroke="#666666" points="1029.12,-74.5 944.12,-74.5 944.12,-55.25 1029.12,-55.25 1029.12,-74.5"/>
<text xml:space="preserve" text-anchor="middle" x="986.62" y="-61" font-family="Helvetica,sans-Serif" font-size="10.00">Deprecated.hpp</text>
</a>
</g>
</g>
<!-- Node3&#45;&gt;Node4 -->
<g id="edge3_Node000003_Node000004" class="edge">
<title>Node3&#45;&gt;Node4</title>
<g id="a_edge3_Node000003_Node000004"><a xlink:title=" ">
<path fill="none" stroke="#63b8ff" d="M1049.28,-220.64C1052.65,-199.91 1058.46,-147.66 1039.62,-110.5 1033.65,-98.71 1023.04,-88.82 1012.87,-81.37"/>
<polygon fill="#63b8ff" stroke="#63b8ff" points="1014.93,-78.54 1004.68,-75.84 1011.01,-84.34 1014.93,-78.54"/>
</a>
</g>
</g>
<!-- Node5 -->
<g id="Node000005" class="node">
<title>Node5</title>
<g id="a_Node000005"><a xlink:href="_descriptors_fwd_8hpp.html" target="_top" xlink:title=" ">
<polygon fill="white" stroke="#666666" points="1297.5,-185 1193.75,-185 1193.75,-165.75 1297.5,-165.75 1297.5,-185"/>
<text xml:space="preserve" text-anchor="middle" x="1245.62" y="-171.5" font-family="Helvetica,sans-Serif" font-size="10.00">DescriptorsFwd.hpp</text>
</a>
</g>
</g>
<!-- Node3&#45;&gt;Node5 -->
<g id="edge4_Node000003_Node000005" class="edge">
<title>Node3&#45;&gt;Node5</title>
<g id="a_edge4_Node000003_Node000005"><a xlink:title=" ">
<path fill="none" stroke="#63b8ff" d="M1081.21,-220.59C1114.21,-211.72 1164.75,-198.12 1201.09,-188.35"/>
<polygon fill="#63b8ff" stroke="#63b8ff" points="1201.66,-191.82 1210.41,-185.85 1199.84,-185.06 1201.66,-191.82"/>
</a>
</g>
</g>
<!-- Node6 -->
<g id="Node000006" class="node">
<title>Node6</title>
<g id="a_Node000006"><a xlink:href="_tensor_8hpp.html" target="_top" xlink:title=" ">
<polygon fill="white" stroke="#666666" points="851.25,-185 788,-185 788,-165.75 851.25,-165.75 851.25,-185"/>
<text xml:space="preserve" text-anchor="middle" x="819.62" y="-171.5" font-family="Helvetica,sans-Serif" font-size="10.00">Tensor.hpp</text>
</a>
</g>
</g>
<!-- Node3&#45;&gt;Node6 -->
<g id="edge5_Node000003_Node000006" class="edge">
<title>Node3&#45;&gt;Node6</title>
<g id="a_edge5_Node000003_Node000006"><a xlink:title=" ">
<path fill="none" stroke="#63b8ff" d="M1008.69,-220.53C968.03,-211.04 904.43,-196.18 862.4,-186.36"/>
<polygon fill="#63b8ff" stroke="#63b8ff" points="863.42,-183.01 852.89,-184.14 861.83,-189.83 863.42,-183.01"/>
</a>
</g>
</g>
<!-- Node7 -->
<g id="Node000007" class="node">
<title>Node7</title>
<g id="a_Node000007"><a xlink:href="_exceptions_8hpp.html" target="_top" xlink:title=" ">
<polygon fill="white" stroke="#666666" points="730.38,-74.5 646.88,-74.5 646.88,-55.25 730.38,-55.25 730.38,-74.5"/>
<text xml:space="preserve" text-anchor="middle" x="688.62" y="-61" font-family="Helvetica,sans-Serif" font-size="10.00">Exceptions.hpp</text>
</a>
</g>
</g>
<!-- Node3&#45;&gt;Node7 -->
<g id="edge34_Node000003_Node000007" class="edge">
<title>Node3&#45;&gt;Node7</title>
<g id="a_edge34_Node000003_Node000007"><a xlink:title=" ">
<path fill="none" stroke="#63b8ff" d="M1047.52,-220.71C1046.73,-198.21 1041.3,-138.93 1006.62,-110.5 962.67,-74.47 814.92,-82.51 741.71,-74.52"/>
<polygon fill="#63b8ff" stroke="#63b8ff" points="742.5,-71.09 732.13,-73.29 741.6,-78.04 742.5,-71.09"/>
</a>
</g>
</g>
<!-- Node14 -->
<g id="Node000014" class="node">
<title>Node14</title>
<g id="a_Node000014"><a xlink:href="_types_8hpp.html" target="_top" xlink:title=" ">
<polygon fill="white" stroke="#666666" points="735.12,-129.75 674.12,-129.75 674.12,-110.5 735.12,-110.5 735.12,-129.75"/>
<text xml:space="preserve" text-anchor="middle" x="704.62" y="-116.25" font-family="Helvetica,sans-Serif" font-size="10.00">Types.hpp</text>
</a>
</g>
</g>
<!-- Node3&#45;&gt;Node14 -->
<g id="edge33_Node000003_Node000014" class="edge">
<title>Node3&#45;&gt;Node14</title>
<g id="a_edge33_Node000003_Node000014"><a xlink:title=" ">
<path fill="none" stroke="#63b8ff" d="M989.88,-223.75C922.36,-216.23 815.17,-202.13 778.62,-185 754.95,-173.91 732.98,-153.04 719.23,-138.17"/>
<polygon fill="#63b8ff" stroke="#63b8ff" points="722.06,-136.1 712.79,-130.97 716.84,-140.76 722.06,-136.1"/>
</a>
</g>
</g>
<!-- Node24 -->
<g id="Node000024" class="node">
<title>Node24</title>
<g id="a_Node000024"><a xlink:title=" ">
<polygon fill="#e0e0e0" stroke="#999999" points="1133.12,-19.25 1090.12,-19.25 1090.12,0 1133.12,0 1133.12,-19.25"/>
<text xml:space="preserve" text-anchor="middle" x="1111.62" y="-5.75" font-family="Helvetica,sans-Serif" font-size="10.00">vector</text>
</a>
</g>
</g>
<!-- Node3&#45;&gt;Node24 -->
<g id="edge38_Node000003_Node000024" class="edge">
<title>Node3&#45;&gt;Node24</title>
<g id="a_edge38_Node000003_Node000024"><a xlink:title=" ">
<path fill="none" stroke="#63b8ff" d="M1093.67,-220.58C1113.5,-214.16 1134.81,-203.29 1146.62,-185 1178.68,-135.39 1143.29,-62.55 1123.35,-28.9"/>
<polygon fill="#63b8ff" stroke="#63b8ff" points="1126.53,-27.41 1118.31,-20.72 1120.57,-31.08 1126.53,-27.41"/>
</a>
</g>
</g>
<!-- Node26 -->
<g id="Node000026" class="node">
<title>Node26</title>
<g id="a_Node000026"><a xlink:title=" ">
<polygon fill="#e0e0e0" stroke="#999999" points="997.25,-129.75 958,-129.75 958,-110.5 997.25,-110.5 997.25,-129.75"/>
<text xml:space="preserve" text-anchor="middle" x="977.62" y="-116.25" font-family="Helvetica,sans-Serif" font-size="10.00">utility</text>
</a>
</g>
</g>
<!-- Node3&#45;&gt;Node26 -->
<g id="edge37_Node000003_Node000026" class="edge">
<title>Node3&#45;&gt;Node26</title>
<g id="a_edge37_Node000003_Node000026"><a xlink:title=" ">
<path fill="none" stroke="#63b8ff" d="M1039.65,-220.78C1031.98,-212.04 1020.3,-198.12 1011.62,-185 1002.09,-170.57 992.98,-153.19 986.59,-140.2"/>
<polygon fill="#63b8ff" stroke="#63b8ff" points="989.88,-138.97 982.39,-131.47 983.57,-142 989.88,-138.97"/>
</a>
</g>
</g>
<!-- Node27 -->
<g id="Node000027" class="node">
<title>Node27</title>
<g id="a_Node000027"><a xlink:title=" ">
<polygon fill="#e0e0e0" stroke="#999999" points="1361.25,-185 1316,-185 1316,-165.75 1361.25,-165.75 1361.25,-185"/>
<text xml:space="preserve" text-anchor="middle" x="1338.62" y="-171.5" font-family="Helvetica,sans-Serif" font-size="10.00">cstdint</text>
</a>
</g>
</g>
<!-- Node3&#45;&gt;Node27 -->
<g id="edge35_Node000003_Node000027" class="edge">
<title>Node3&#45;&gt;Node27</title>
<g id="a_edge35_Node000003_Node000027"><a xlink:title=" ">
<path fill="none" stroke="#63b8ff" d="M1105.53,-221.22C1155.75,-213.58 1230.58,-201.34 1304.69,-185.25"/>
<polygon fill="#63b8ff" stroke="#63b8ff" points="1305.12,-188.74 1314.14,-183.18 1303.62,-181.9 1305.12,-188.74"/>
</a>
</g>
</g>
<!-- Node28 -->
<g id="Node000028" class="node">
<title>Node28</title>
<g id="a_Node000028"><a xlink:title=" ">
<polygon fill="#e0e0e0" stroke="#999999" points="1137.62,-185 1091.62,-185 1091.62,-165.75 1137.62,-165.75 1137.62,-185"/>
<text xml:space="preserve" text-anchor="middle" x="1114.62" y="-171.5" font-family="Helvetica,sans-Serif" font-size="10.00">iterator</text>
</a>
</g>
</g>
<!-- Node3&#45;&gt;Node28 -->
<g id="edge36_Node000003_Node000028" class="edge">
<title>Node3&#45;&gt;Node28</title>
<g id="a_edge36_Node000003_Node000028"><a xlink:title=" ">
<path fill="none" stroke="#63b8ff" d="M1058.99,-220.59C1068.67,-212.9 1082.82,-201.65 1094.43,-192.43"/>
<polygon fill="#63b8ff" stroke="#63b8ff" points="1096.59,-195.18 1102.24,-186.22 1092.24,-189.7 1096.59,-195.18"/>
</a>
</g>
</g>
<!-- Node6&#45;&gt;Node7 -->
<g id="edge6_Node000006_Node000007" class="edge">
<title>Node6&#45;&gt;Node7</title>
<g id="a_edge6_Node000006_Node000007"><a xlink:title=" ">
<path fill="none" stroke="#63b8ff" d="M809.52,-165.59C795.2,-153.18 768.12,-129.86 744.62,-110.5 733.02,-100.94 719.88,-90.45 709.24,-82.04"/>
<polygon fill="#63b8ff" stroke="#63b8ff" points="711.51,-79.37 701.49,-75.93 707.18,-84.87 711.51,-79.37"/>
</a>
</g>
</g>
<!-- Node11 -->
<g id="Node000011" class="node">
<title>Node11</title>
<g id="a_Node000011"><a xlink:href="_optional_8hpp.html" target="_top" xlink:title=" ">
<polygon fill="white" stroke="#666666" points="542,-129.75 471.25,-129.75 471.25,-110.5 542,-110.5 542,-129.75"/>
<text xml:space="preserve" text-anchor="middle" x="506.62" y="-116.25" font-family="Helvetica,sans-Serif" font-size="10.00">Optional.hpp</text>
</a>
</g>
</g>
<!-- Node6&#45;&gt;Node11 -->
<g id="edge10_Node000006_Node000011" class="edge">
<title>Node6&#45;&gt;Node11</title>
<g id="a_edge10_Node000006_Node000011"><a xlink:title=" ">
<path fill="none" stroke="#63b8ff" d="M787.6,-168.93C732.04,-159.47 617.58,-140 553.21,-129.05"/>
<polygon fill="#63b8ff" stroke="#63b8ff" points="554.12,-125.66 543.68,-127.43 552.95,-132.56 554.12,-125.66"/>
</a>
</g>
</g>
<!-- Node6&#45;&gt;Node14 -->
<g id="edge14_Node000006_Node000014" class="edge">
<title>Node6&#45;&gt;Node14</title>
<g id="a_edge14_Node000006_Node000014"><a xlink:title=" ">
<path fill="none" stroke="#63b8ff" d="M800.12,-165.34C782.11,-157 755.1,-144.5 734.4,-134.91"/>
<polygon fill="#63b8ff" stroke="#63b8ff" points="736.15,-131.86 725.6,-130.84 733.21,-138.22 736.15,-131.86"/>
</a>
</g>
</g>
<!-- Node15 -->
<g id="Node000015" class="node">
<title>Node15</title>
<g id="a_Node000015"><a xlink:title=" ">
<polygon fill="#e0e0e0" stroke="#999999" points="926.5,-74.5 888.75,-74.5 888.75,-55.25 926.5,-55.25 926.5,-74.5"/>
<text xml:space="preserve" text-anchor="middle" x="907.62" y="-61" font-family="Helvetica,sans-Serif" font-size="10.00">array</text>
</a>
</g>
</g>
<!-- Node6&#45;&gt;Node15 -->
<g id="edge29_Node000006_Node000015" class="edge">
<title>Node6&#45;&gt;Node15</title>
<g id="a_edge29_Node000006_Node000015"><a xlink:title=" ">
<path fill="none" stroke="#63b8ff" d="M833.02,-165.27C844.53,-156.98 861.04,-143.9 872.62,-129.75 883.78,-116.13 893.15,-98.43 899.38,-85.12"/>
<polygon fill="#63b8ff" stroke="#63b8ff" points="902.51,-86.7 903.4,-76.15 896.12,-83.85 902.51,-86.7"/>
</a>
</g>
</g>
<!-- Node17 -->
<g id="Node000017" class="node">
<title>Node17</title>
<g id="a_Node000017"><a xlink:title=" ">
<polygon fill="#e0e0e0" stroke="#999999" points="529.75,-74.5 481.5,-74.5 481.5,-55.25 529.75,-55.25 529.75,-74.5"/>
<text xml:space="preserve" text-anchor="middle" x="505.62" y="-61" font-family="Helvetica,sans-Serif" font-size="10.00">stdint.h</text>
</a>
</g>
</g>
<!-- Node6&#45;&gt;Node17 -->
<g id="edge28_Node000006_Node000017" class="edge">
<title>Node6&#45;&gt;Node17</title>
<g id="a_edge28_Node000006_Node000017"><a xlink:title=" ">
<path fill="none" stroke="#63b8ff" d="M787.78,-166.13C756.44,-157.78 707.35,-144.09 665.62,-129.75 620.21,-114.15 568.82,-92.99 536.82,-79.38"/>
<polygon fill="#63b8ff" stroke="#63b8ff" points="538.31,-76.21 527.74,-75.5 535.56,-82.65 538.31,-76.21"/>
</a>
</g>
</g>
<!-- Node6&#45;&gt;Node24 -->
<g id="edge31_Node000006_Node000024" class="edge">
<title>Node6&#45;&gt;Node24</title>
<g id="a_edge31_Node000006_Node000024"><a xlink:title=" ">
<path fill="none" stroke="#63b8ff" d="M836.94,-165.25C861.51,-152.44 908.01,-128.64 948.62,-110.5 987.96,-92.93 1001.89,-97.01 1038.62,-74.5 1060.27,-61.24 1081.73,-41.45 1095.72,-27.42"/>
<polygon fill="#63b8ff" stroke="#63b8ff" points="1097.88,-30.23 1102.35,-20.62 1092.86,-25.34 1097.88,-30.23"/>
</a>
</g>
</g>
<!-- Node25 -->
<g id="Node000025" class="node">
<title>Node25</title>
<g id="a_Node000025"><a xlink:title=" ">
<polygon fill="#e0e0e0" stroke="#999999" points="863.75,-129.75 791.5,-129.75 791.5,-110.5 863.75,-110.5 863.75,-129.75"/>
<text xml:space="preserve" text-anchor="middle" x="827.62" y="-116.25" font-family="Helvetica,sans-Serif" font-size="10.00">initializer_list</text>
</a>
</g>
</g>
<!-- Node6&#45;&gt;Node25 -->
<g id="edge30_Node000006_Node000025" class="edge">
<title>Node6&#45;&gt;Node25</title>
<g id="a_edge30_Node000006_Node000025"><a xlink:title=" ">
<path fill="none" stroke="#63b8ff" d="M820.95,-165.58C821.94,-158.99 823.33,-149.71 824.59,-141.32"/>
<polygon fill="#63b8ff" stroke="#63b8ff" points="828.03,-142.01 826.05,-131.61 821.1,-140.97 828.03,-142.01"/>
</a>
</g>
</g>
<!-- Node6&#45;&gt;Node26 -->
<g id="edge32_Node000006_Node000026" class="edge">
<title>Node6&#45;&gt;Node26</title>
<g id="a_edge32_Node000006_Node000026"><a xlink:title=" ">
<path fill="none" stroke="#63b8ff" d="M846.43,-165.34C874.25,-155.96 917.72,-141.32 946.91,-131.48"/>
<polygon fill="#63b8ff" stroke="#63b8ff" points="947.92,-134.83 956.28,-128.32 945.68,-128.2 947.92,-134.83"/>
</a>
</g>
</g>
<!-- Node8 -->
<g id="Node000008" class="node">
<title>Node8</title>
<g id="a_Node000008"><a xlink:title=" ">
<polygon fill="#e0e0e0" stroke="#999999" points="736.25,-19.25 685,-19.25 685,0 736.25,0 736.25,-19.25"/>
<text xml:space="preserve" text-anchor="middle" x="710.62" y="-5.75" font-family="Helvetica,sans-Serif" font-size="10.00">sstream</text>
</a>
</g>
</g>
<!-- Node7&#45;&gt;Node8 -->
<g id="edge7_Node000007_Node000008" class="edge">
<title>Node7&#45;&gt;Node8</title>
<g id="a_edge7_Node000007_Node000008"><a xlink:title=" ">
<path fill="none" stroke="#63b8ff" d="M692.26,-55.08C695.04,-48.34 699,-38.77 702.52,-30.24"/>
<polygon fill="#63b8ff" stroke="#63b8ff" points="705.75,-31.59 706.34,-21.01 699.28,-28.91 705.75,-31.59"/>
</a>
</g>
</g>
<!-- Node9 -->
<g id="Node000009" class="node">
<title>Node9</title>
<g id="a_Node000009"><a xlink:title=" ">
<polygon fill="#e0e0e0" stroke="#999999" points="813,-19.25 754.25,-19.25 754.25,0 813,0 813,-19.25"/>
<text xml:space="preserve" text-anchor="middle" x="783.62" y="-5.75" font-family="Helvetica,sans-Serif" font-size="10.00">stdexcept</text>
</a>
</g>
</g>
<!-- Node7&#45;&gt;Node9 -->
<g id="edge8_Node000007_Node000009" class="edge">
<title>Node7&#45;&gt;Node9</title>
<g id="a_edge8_Node000007_Node000009"><a xlink:title=" ">
<path fill="none" stroke="#63b8ff" d="M704.74,-54.84C719.21,-46.73 740.7,-34.68 757.61,-25.21"/>
<polygon fill="#63b8ff" stroke="#63b8ff" points="759.1,-28.39 766.11,-20.44 755.68,-22.28 759.1,-28.39"/>
</a>
</g>
</g>
<!-- Node10 -->
<g id="Node000010" class="node">
<title>Node10</title>
<g id="a_Node000010"><a xlink:title=" ">
<polygon fill="#e0e0e0" stroke="#999999" points="666.62,-19.25 626.62,-19.25 626.62,0 666.62,0 666.62,-19.25"/>
<text xml:space="preserve" text-anchor="middle" x="646.62" y="-5.75" font-family="Helvetica,sans-Serif" font-size="10.00">string</text>
</a>
</g>
</g>
<!-- Node7&#45;&gt;Node10 -->
<g id="edge9_Node000007_Node000010" class="edge">
<title>Node7&#45;&gt;Node10</title>
<g id="a_edge9_Node000007_Node000010"><a xlink:title=" ">
<path fill="none" stroke="#63b8ff" d="M681.69,-55.08C676.01,-47.88 667.79,-37.46 660.73,-28.51"/>
<polygon fill="#63b8ff" stroke="#63b8ff" points="663.59,-26.48 654.65,-20.8 658.09,-30.82 663.59,-26.48"/>
</a>
</g>
</g>
<!-- Node11&#45;&gt;Node7 -->
<g id="edge11_Node000011_Node000007" class="edge">
<title>Node11&#45;&gt;Node7</title>
<g id="a_edge11_Node000011_Node000007"><a xlink:title=" ">
<path fill="none" stroke="#63b8ff" d="M537.5,-110.09C567.57,-101.29 613.49,-87.86 646.82,-78.11"/>
<polygon fill="#63b8ff" stroke="#63b8ff" points="647.53,-81.54 656.15,-75.38 645.57,-74.83 647.53,-81.54"/>
</a>
</g>
</g>
<!-- Node12 -->
<g id="Node000012" class="node">
<title>Node12</title>
<g id="a_Node000012"><a xlink:title=" ">
<polygon fill="#e0e0e0" stroke="#999999" points="463.25,-74.5 418,-74.5 418,-55.25 463.25,-55.25 463.25,-74.5"/>
<text xml:space="preserve" text-anchor="middle" x="440.62" y="-61" font-family="Helvetica,sans-Serif" font-size="10.00">cstring</text>
</a>
</g>
</g>
<!-- Node11&#45;&gt;Node12 -->
<g id="edge12_Node000011_Node000012" class="edge">
<title>Node11&#45;&gt;Node12</title>
<g id="a_edge12_Node000011_Node000012"><a xlink:title=" ">
<path fill="none" stroke="#63b8ff" d="M495.43,-110.09C485.89,-102.4 471.95,-91.15 460.52,-81.93"/>
<polygon fill="#63b8ff" stroke="#63b8ff" points="462.81,-79.28 452.83,-75.73 458.42,-84.73 462.81,-79.28"/>
</a>
</g>
</g>
<!-- Node13 -->
<g id="Node000013" class="node">
<title>Node13</title>
<g id="a_Node000013"><a xlink:title=" ">
<polygon fill="#e0e0e0" stroke="#999999" points="174.5,-74.5 112.75,-74.5 112.75,-55.25 174.5,-55.25 174.5,-74.5"/>
<text xml:space="preserve" text-anchor="middle" x="143.62" y="-61" font-family="Helvetica,sans-Serif" font-size="10.00">type_traits</text>
</a>
</g>
</g>
<!-- Node11&#45;&gt;Node13 -->
<g id="edge13_Node000011_Node000013" class="edge">
<title>Node11&#45;&gt;Node13</title>
<g id="a_edge13_Node000011_Node000013"><a xlink:title=" ">
<path fill="none" stroke="#63b8ff" d="M471.12,-115.1C413.48,-108.39 295.75,-93.87 185.88,-74.78"/>
<polygon fill="#63b8ff" stroke="#63b8ff" points="186.53,-71.34 176.08,-73.05 185.32,-78.23 186.53,-71.34"/>
</a>
</g>
</g>
<!-- Node14&#45;&gt;Node4 -->
<g id="edge27_Node000014_Node000004" class="edge">
<title>Node14&#45;&gt;Node4</title>
<g id="a_edge27_Node000014_Node000004"><a xlink:title=" ">
<path fill="none" stroke="#63b8ff" d="M735.61,-113.27C782.96,-104.33 873.97,-87.15 932.42,-76.11"/>
<polygon fill="#63b8ff" stroke="#63b8ff" points="932.99,-79.57 942.16,-74.27 931.69,-72.69 932.99,-79.57"/>
</a>
</g>
</g>
<!-- Node14&#45;&gt;Node7 -->
<g id="edge26_Node000014_Node000007" class="edge">
<title>Node14&#45;&gt;Node7</title>
<g id="a_edge26_Node000014_Node000007"><a xlink:title=" ">
<path fill="none" stroke="#63b8ff" d="M701.98,-110.33C699.98,-103.67 697.15,-94.24 694.61,-85.78"/>
<polygon fill="#63b8ff" stroke="#63b8ff" points="697.99,-84.88 691.76,-76.31 691.29,-86.89 697.99,-84.88"/>
</a>
</g>
</g>
<!-- Node14&#45;&gt;Node15 -->
<g id="edge15_Node000014_Node000015" class="edge">
<title>Node14&#45;&gt;Node15</title>
<g id="a_edge15_Node000014_Node000015"><a xlink:title=" ">
<path fill="none" stroke="#63b8ff" d="M735.41,-111.76C768.27,-103.79 822.1,-90.44 877.32,-75.04"/>
<polygon fill="#63b8ff" stroke="#63b8ff" points="878.24,-78.42 886.92,-72.35 876.35,-71.68 878.24,-78.42"/>
</a>
</g>
</g>
<!-- Node16 -->
<g id="Node000016" class="node">
<title>Node16</title>
<g id="a_Node000016"><a xlink:title=" ">
<polygon fill="#e0e0e0" stroke="#999999" points="806.62,-74.5 748.62,-74.5 748.62,-55.25 806.62,-55.25 806.62,-74.5"/>
<text xml:space="preserve" text-anchor="middle" x="777.62" y="-61" font-family="Helvetica,sans-Serif" font-size="10.00">functional</text>
</a>
</g>
</g>
<!-- Node14&#45;&gt;Node16 -->
<g id="edge16_Node000014_Node000016" class="edge">
<title>Node14&#45;&gt;Node16</title>
<g id="a_edge16_Node000014_Node000016"><a xlink:title=" ">
<path fill="none" stroke="#63b8ff" d="M717.01,-110.09C727.77,-102.24 743.6,-90.7 756.38,-81.37"/>
<polygon fill="#63b8ff" stroke="#63b8ff" points="758.19,-84.39 764.2,-75.67 754.06,-78.73 758.19,-84.39"/>
</a>
</g>
</g>
<!-- Node14&#45;&gt;Node17 -->
<g id="edge17_Node000014_Node000017" class="edge">
<title>Node14&#45;&gt;Node17</title>
<g id="a_edge17_Node000014_Node000017"><a xlink:title=" ">
<path fill="none" stroke="#63b8ff" d="M673.97,-110.92C638.1,-101.32 578.83,-85.46 541.03,-75.35"/>
<polygon fill="#63b8ff" stroke="#63b8ff" points="542.07,-72 531.5,-72.8 540.26,-78.77 542.07,-72"/>
</a>
</g>
</g>
<!-- Node18 -->
<g id="Node000018" class="node">
<title>Node18</title>
<g id="a_Node000018"><a xlink:title=" ">
<polygon fill="#e0e0e0" stroke="#999999" points="870.25,-74.5 825,-74.5 825,-55.25 870.25,-55.25 870.25,-74.5"/>
<text xml:space="preserve" text-anchor="middle" x="847.62" y="-61" font-family="Helvetica,sans-Serif" font-size="10.00">chrono</text>
</a>
</g>
</g>
<!-- Node14&#45;&gt;Node18 -->
<g id="edge18_Node000014_Node000018" class="edge">
<title>Node14&#45;&gt;Node18</title>
<g id="a_edge18_Node000014_Node000018"><a xlink:title=" ">
<path fill="none" stroke="#63b8ff" d="M728.88,-110.09C752.31,-101.37 787.99,-88.08 814.12,-78.35"/>
<polygon fill="#63b8ff" stroke="#63b8ff" points="815.1,-81.72 823.25,-74.95 812.66,-75.16 815.1,-81.72"/>
</a>
</g>
</g>
<!-- Node19 -->
<g id="Node000019" class="node">
<title>Node19</title>
<g id="a_Node000019"><a xlink:href="_backend_id_8hpp.html" target="_top" xlink:title=" ">
<polygon fill="white" stroke="#666666" points="629.25,-74.5 548,-74.5 548,-55.25 629.25,-55.25 629.25,-74.5"/>
<text xml:space="preserve" text-anchor="middle" x="588.62" y="-61" font-family="Helvetica,sans-Serif" font-size="10.00">BackendId.hpp</text>
</a>
</g>
</g>
<!-- Node14&#45;&gt;Node19 -->
<g id="edge19_Node000014_Node000019" class="edge">
<title>Node14&#45;&gt;Node19</title>
<g id="a_edge19_Node000014_Node000019"><a xlink:title=" ">
<path fill="none" stroke="#63b8ff" d="M684.95,-110.09C666.78,-101.75 639.54,-89.25 618.66,-79.66"/>
<polygon fill="#63b8ff" stroke="#63b8ff" points="620.32,-76.58 609.77,-75.58 617.4,-82.94 620.32,-76.58"/>
</a>
</g>
</g>
<!-- Node19&#45;&gt;Node10 -->
<g id="edge23_Node000019_Node000010" class="edge">
<title>Node19&#45;&gt;Node10</title>
<g id="a_edge23_Node000019_Node000010"><a xlink:title=" ">
<path fill="none" stroke="#63b8ff" d="M598.46,-54.84C606.68,-47.3 618.61,-36.35 628.54,-27.23"/>
<polygon fill="#63b8ff" stroke="#63b8ff" points="630.82,-29.89 635.82,-20.55 626.08,-24.73 630.82,-29.89"/>
</a>
</g>
</g>
<!-- Node20 -->
<g id="Node000020" class="node">
<title>Node20</title>
<g id="a_Node000020"><a xlink:title=" ">
<polygon fill="#e0e0e0" stroke="#999999" points="513.25,-19.25 462,-19.25 462,0 513.25,0 513.25,-19.25"/>
<text xml:space="preserve" text-anchor="middle" x="487.62" y="-5.75" font-family="Helvetica,sans-Serif" font-size="10.00">memory</text>
</a>
</g>
</g>
<!-- Node19&#45;&gt;Node20 -->
<g id="edge20_Node000019_Node000020" class="edge">
<title>Node19&#45;&gt;Node20</title>
<g id="a_edge20_Node000019_Node000020"><a xlink:title=" ">
<path fill="none" stroke="#63b8ff" d="M571.49,-54.84C555.97,-46.66 532.82,-34.46 514.78,-24.94"/>
<polygon fill="#63b8ff" stroke="#63b8ff" points="516.66,-21.98 506.18,-20.41 513.39,-28.17 516.66,-21.98"/>
</a>
</g>
</g>
<!-- Node21 -->
<g id="Node000021" class="node">
<title>Node21</title>
<g id="a_Node000021"><a xlink:title=" ">
<polygon fill="#e0e0e0" stroke="#999999" points="377.25,-19.25 326,-19.25 326,0 377.25,0 377.25,-19.25"/>
<text xml:space="preserve" text-anchor="middle" x="351.62" y="-5.75" font-family="Helvetica,sans-Serif" font-size="10.00">ostream</text>
</a>
</g>
</g>
<!-- Node19&#45;&gt;Node21 -->
<g id="edge21_Node000019_Node000021" class="edge">
<title>Node19&#45;&gt;Node21</title>
<g id="a_edge21_Node000019_Node000021"><a xlink:title=" ">
<path fill="none" stroke="#63b8ff" d="M548.15,-54.78C503.47,-44.74 432.13,-28.71 388.8,-18.98"/>
<polygon fill="#63b8ff" stroke="#63b8ff" points="389.64,-15.58 379.11,-16.8 388.1,-22.41 389.64,-15.58"/>
</a>
</g>
</g>
<!-- Node22 -->
<g id="Node000022" class="node">
<title>Node22</title>
<g id="a_Node000022"><a xlink:title=" ">
<polygon fill="#e0e0e0" stroke="#999999" points="434.38,-19.25 404.88,-19.25 404.88,0 434.38,0 434.38,-19.25"/>
<text xml:space="preserve" text-anchor="middle" x="419.62" y="-5.75" font-family="Helvetica,sans-Serif" font-size="10.00">set</text>
</a>
</g>
</g>
<!-- Node19&#45;&gt;Node22 -->
<g id="edge22_Node000019_Node000022" class="edge">
<title>Node19&#45;&gt;Node22</title>
<g id="a_edge22_Node000019_Node000022"><a xlink:title=" ">
<path fill="none" stroke="#63b8ff" d="M559.96,-54.84C527.89,-44.74 476.41,-28.52 445.52,-18.78"/>
<polygon fill="#63b8ff" stroke="#63b8ff" points="446.8,-15.52 436.21,-15.85 444.7,-22.2 446.8,-15.52"/>
</a>
</g>
</g>
<!-- Node23 -->
<g id="Node000023" class="node">
<title>Node23</title>
<g id="a_Node000023"><a xlink:title=" ">
<polygon fill="#e0e0e0" stroke="#999999" points="608.38,-19.25 530.88,-19.25 530.88,0 608.38,0 608.38,-19.25"/>
<text xml:space="preserve" text-anchor="middle" x="569.62" y="-5.75" font-family="Helvetica,sans-Serif" font-size="10.00">unordered_set</text>
</a>
</g>
</g>
<!-- Node19&#45;&gt;Node23 -->
<g id="edge24_Node000019_Node000023" class="edge">
<title>Node19&#45;&gt;Node23</title>
<g id="a_edge24_Node000019_Node000023"><a xlink:title=" ">
<path fill="none" stroke="#63b8ff" d="M585.49,-55.08C583.08,-48.34 579.67,-38.77 576.62,-30.24"/>
<polygon fill="#63b8ff" stroke="#63b8ff" points="580,-29.28 573.34,-21.03 573.4,-31.63 580,-29.28"/>
</a>
</g>
</g>
<!-- Node19&#45;&gt;Node24 -->
<g id="edge25_Node000019_Node000024" class="edge">
<title>Node19&#45;&gt;Node24</title>
<g id="a_edge25_Node000019_Node000024"><a xlink:title=" ">
<path fill="none" stroke="#63b8ff" d="M629.49,-56.43C632.24,-56.01 634.97,-55.61 637.62,-55.25 802.46,-33.02 1001.04,-18.16 1078.46,-12.83"/>
<polygon fill="#63b8ff" stroke="#63b8ff" points="1078.57,-16.33 1088.31,-12.15 1078.1,-9.34 1078.57,-16.33"/>
</a>
</g>
</g>
<!-- Node30 -->
<g id="Node000030" class="node">
<title>Node30</title>
<g id="a_Node000030"><a xlink:href="_types_utils_8hpp.html" target="_top" xlink:title=" ">
<polygon fill="white" stroke="#666666" points="562.25,-240.25 451,-240.25 451,-221 562.25,-221 562.25,-240.25"/>
<text xml:space="preserve" text-anchor="middle" x="506.62" y="-226.75" font-family="Helvetica,sans-Serif" font-size="10.00">armnn/TypesUtils.hpp</text>
</a>
</g>
</g>
<!-- Node29&#45;&gt;Node30 -->
<g id="edge40_Node000029_Node000030" class="edge">
<title>Node29&#45;&gt;Node30</title>
<g id="a_edge40_Node000029_Node000030"><a xlink:title=" ">
<path fill="none" stroke="#63b8ff" d="M506.62,-342.37C506.62,-323.3 506.62,-278.41 506.62,-252.01"/>
<polygon fill="#63b8ff" stroke="#63b8ff" points="510.13,-252.24 506.63,-242.24 503.13,-252.24 510.13,-252.24"/>
</a>
</g>
</g>
<!-- Node32 -->
<g id="Node000032" class="node">
<title>Node32</title>
<g id="a_Node000032"><a xlink:href="_numeric_cast_8hpp.html" target="_top" xlink:title=" ">
<polygon fill="white" stroke="#666666" points="211,-301.12 62.25,-301.12 62.25,-281.88 211,-281.88 211,-301.12"/>
<text xml:space="preserve" text-anchor="middle" x="136.62" y="-287.62" font-family="Helvetica,sans-Serif" font-size="10.00">armnn/utility/NumericCast.hpp</text>
</a>
</g>
</g>
<!-- Node29&#45;&gt;Node32 -->
<g id="edge50_Node000029_Node000032" class="edge">
<title>Node29&#45;&gt;Node32</title>
<g id="a_edge50_Node000029_Node000032"><a xlink:title=" ">
<path fill="none" stroke="#63b8ff" d="M462.73,-344.39C399,-334.25 280.28,-315.36 205.02,-303.38"/>
<polygon fill="#63b8ff" stroke="#63b8ff" points="205.71,-299.95 195.28,-301.83 204.61,-306.86 205.71,-299.95"/>
</a>
</g>
</g>
<!-- Node36 -->
<g id="Node000036" class="node">
<title>Node36</title>
<g id="a_Node000036"><a xlink:href="_floating_point_converter_8hpp.html" target="_top" xlink:title=" ">
<polygon fill="white" stroke="#666666" points="978.25,-306.75 855,-306.75 855,-276.25 978.25,-276.25 978.25,-306.75"/>
<text xml:space="preserve" text-anchor="start" x="863" y="-293.25" font-family="Helvetica,sans-Serif" font-size="10.00">armnnUtils/FloatingPoint</text>
<text xml:space="preserve" text-anchor="middle" x="916.62" y="-282" font-family="Helvetica,sans-Serif" font-size="10.00">Converter.hpp</text>
</a>
</g>
</g>
<!-- Node29&#45;&gt;Node36 -->
<g id="edge55_Node000029_Node000036" class="edge">
<title>Node29&#45;&gt;Node36</title>
<g id="a_edge55_Node000029_Node000036"><a xlink:title=" ">
<path fill="none" stroke="#63b8ff" d="M550.49,-345.37C611.69,-336.96 726.16,-321.08 823.62,-306.75 830.04,-305.81 836.71,-304.81 843.39,-303.81"/>
<polygon fill="#63b8ff" stroke="#63b8ff" points="843.75,-307.29 853.11,-302.34 842.7,-300.37 843.75,-307.29"/>
</a>
</g>
</g>
<!-- Node38 -->
<g id="Node000038" class="node">
<title>Node38</title>
<g id="a_Node000038"><a xlink:href="_tensor_utils_8hpp.html" target="_top" xlink:title=" ">
<polygon fill="white" stroke="#666666" points="796.88,-301.12 662.38,-301.12 662.38,-281.88 796.88,-281.88 796.88,-301.12"/>
<text xml:space="preserve" text-anchor="middle" x="729.62" y="-287.62" font-family="Helvetica,sans-Serif" font-size="10.00">armnnUtils/TensorUtils.hpp</text>
</a>
</g>
</g>
<!-- Node29&#45;&gt;Node38 -->
<g id="edge57_Node000029_Node000038" class="edge">
<title>Node29&#45;&gt;Node38</title>
<g id="a_edge57_Node000029_Node000038"><a xlink:title=" ">
<path fill="none" stroke="#63b8ff" d="M540.98,-342.3C579.37,-332.17 641.68,-315.72 684.1,-304.52"/>
<polygon fill="#63b8ff" stroke="#63b8ff" points="684.99,-307.9 693.77,-301.97 683.21,-301.14 684.99,-307.9"/>
</a>
</g>
</g>
<!-- Node39 -->
<g id="Node000039" class="node">
<title>Node39</title>
<g id="a_Node000039"><a xlink:href="_resolve_type_8hpp.html" target="_top" xlink:title=" ">
<polygon fill="white" stroke="#666666" points="287.5,-185 195.75,-185 195.75,-165.75 287.5,-165.75 287.5,-185"/>
<text xml:space="preserve" text-anchor="middle" x="241.62" y="-171.5" font-family="Helvetica,sans-Serif" font-size="10.00">ResolveType.hpp</text>
</a>
</g>
</g>
<!-- Node29&#45;&gt;Node39 -->
<g id="edge64_Node000029_Node000039" class="edge">
<title>Node29&#45;&gt;Node39</title>
<g id="a_edge64_Node000029_Node000039"><a xlink:title=" ">
<path fill="none" stroke="#63b8ff" d="M493.12,-342.46C450.51,-314.32 318.58,-227.19 264.8,-191.68"/>
<polygon fill="#63b8ff" stroke="#63b8ff" points="266.96,-188.91 256.68,-186.32 263.1,-194.75 266.96,-188.91"/>
</a>
</g>
</g>
<!-- Node30&#45;&gt;Node6 -->
<g id="edge43_Node000030_Node000006" class="edge">
<title>Node30&#45;&gt;Node6</title>
<g id="a_edge43_Node000030_Node000006"><a xlink:title=" ">
<path fill="none" stroke="#63b8ff" d="M560.08,-220.53C621.33,-210.11 720.5,-193.24 776.87,-183.65"/>
<polygon fill="#63b8ff" stroke="#63b8ff" points="777.12,-187.16 786.39,-182.03 775.95,-180.26 777.12,-187.16"/>
</a>
</g>
</g>
<!-- Node30&#45;&gt;Node7 -->
<g id="edge42_Node000030_Node000007" class="edge">
<title>Node30&#45;&gt;Node7</title>
<g id="a_edge42_Node000030_Node000007"><a xlink:title=" ">
<path fill="none" stroke="#63b8ff" d="M516.67,-220.59C546.07,-194.13 632.28,-116.57 670.28,-82.38"/>
<polygon fill="#63b8ff" stroke="#63b8ff" points="672.62,-84.99 677.71,-75.7 667.93,-79.78 672.62,-84.99"/>
</a>
</g>
</g>
<!-- Node30&#45;&gt;Node13 -->
<g id="edge49_Node000030_Node000013" class="edge">
<title>Node30&#45;&gt;Node13</title>
<g id="a_edge49_Node000030_Node000013"><a xlink:title=" ">
<path fill="none" stroke="#63b8ff" d="M450.81,-228.62C370.09,-226.07 226.11,-217.02 186.62,-185 156.4,-160.49 147.42,-112.94 144.75,-85.91"/>
<polygon fill="#63b8ff" stroke="#63b8ff" points="148.27,-86.01 144.01,-76.3 141.29,-86.54 148.27,-86.01"/>
</a>
</g>
</g>
<!-- Node30&#45;&gt;Node14 -->
<g id="edge44_Node000030_Node000014" class="edge">
<title>Node30&#45;&gt;Node14</title>
<g id="a_edge44_Node000030_Node000014"><a xlink:title=" ">
<path fill="none" stroke="#63b8ff" d="M562.61,-222.54C593.45,-216.48 631.15,-205.35 659.62,-185 675.65,-173.55 687.97,-154.54 695.64,-140.23"/>
<polygon fill="#63b8ff" stroke="#63b8ff" points="698.74,-141.86 700.09,-131.35 692.48,-138.72 698.74,-141.86"/>
</a>
</g>
</g>
<!-- Node30&#45;&gt;Node17 -->
<g id="edge45_Node000030_Node000017" class="edge">
<title>Node30&#45;&gt;Node17</title>
<g id="a_edge45_Node000030_Node000017"><a xlink:title=" ">
<path fill="none" stroke="#63b8ff" d="M498.61,-220.59C481.9,-200.6 446.21,-151.19 462.62,-110.5 467.06,-99.51 475.64,-89.71 483.98,-82.12"/>
<polygon fill="#63b8ff" stroke="#63b8ff" points="486.14,-84.87 491.56,-75.77 481.65,-79.51 486.14,-84.87"/>
</a>
</g>
</g>
<!-- Node30&#45;&gt;Node19 -->
<g id="edge41_Node000030_Node000019" class="edge">
<title>Node30&#45;&gt;Node19</title>
<g id="a_edge41_Node000030_Node000019"><a xlink:title=" ">
<path fill="none" stroke="#63b8ff" d="M511.03,-220.82C523.88,-195.17 561.49,-120.05 579.2,-84.69"/>
<polygon fill="#63b8ff" stroke="#63b8ff" points="582.17,-86.58 583.52,-76.08 575.91,-83.45 582.17,-86.58"/>
</a>
</g>
</g>
<!-- Node30&#45;&gt;Node21 -->
<g id="edge47_Node000030_Node000021" class="edge">
<title>Node30&#45;&gt;Node21</title>
<g id="a_edge47_Node000030_Node000021"><a xlink:title=" ">
<path fill="none" stroke="#63b8ff" d="M450.83,-228.23C366.58,-225.15 211.9,-215.42 166.62,-185 119.7,-153.47 118.11,-129.15 103.62,-74.5 101.43,-66.23 98.14,-61.81 103.62,-55.25 130.05,-23.64 251.85,-14.39 314.37,-11.7"/>
<polygon fill="#63b8ff" stroke="#63b8ff" points="314.31,-15.21 324.16,-11.32 314.04,-8.22 314.31,-15.21"/>
</a>
</g>
</g>
<!-- Node30&#45;&gt;Node22 -->
<g id="edge48_Node000030_Node000022" class="edge">
<title>Node30&#45;&gt;Node22</title>
<g id="a_edge48_Node000030_Node000022"><a xlink:title=" ">
<path fill="none" stroke="#63b8ff" d="M495.56,-220.59C485.74,-212.15 471.45,-198.81 461.62,-185 430.05,-140.62 420.7,-127.61 408.62,-74.5 405.26,-59.7 408.49,-42.76 412.31,-30.05"/>
<polygon fill="#63b8ff" stroke="#63b8ff" points="415.55,-31.39 415.46,-20.79 408.92,-29.13 415.55,-31.39"/>
</a>
</g>
</g>
<!-- Node31 -->
<g id="Node000031" class="node">
<title>Node31</title>
<g id="a_Node000031"><a xlink:title=" ">
<polygon fill="#e0e0e0" stroke="#999999" points="323.12,-74.5 280.12,-74.5 280.12,-55.25 323.12,-55.25 323.12,-74.5"/>
<text xml:space="preserve" text-anchor="middle" x="301.62" y="-61" font-family="Helvetica,sans-Serif" font-size="10.00">cmath</text>
</a>
</g>
</g>
<!-- Node30&#45;&gt;Node31 -->
<g id="edge46_Node000030_Node000031" class="edge">
<title>Node30&#45;&gt;Node31</title>
<g id="a_edge46_Node000030_Node000031"><a xlink:title=" ">
<path fill="none" stroke="#63b8ff" d="M450.92,-221.25C399.65,-210.19 326.83,-185.15 294.62,-129.75 286.9,-116.46 289.52,-98.97 293.59,-85.65"/>
<polygon fill="#63b8ff" stroke="#63b8ff" points="296.87,-86.85 296.96,-76.26 290.29,-84.48 296.87,-86.85"/>
</a>
</g>
</g>
<!-- Node32&#45;&gt;Node13 -->
<g id="edge53_Node000032_Node000013" class="edge">
<title>Node32&#45;&gt;Node13</title>
<g id="a_edge53_Node000032_Node000013"><a xlink:title=" ">
<path fill="none" stroke="#63b8ff" d="M130.2,-281.4C123.8,-271.73 114.39,-255.71 110.62,-240.25 97,-184.26 120.9,-117.01 134.76,-84.83"/>
<polygon fill="#63b8ff" stroke="#63b8ff" points="137.81,-86.59 138.71,-76.03 131.42,-83.73 137.81,-86.59"/>
</a>
</g>
</g>
<!-- Node32&#45;&gt;Node33 -->
<g id="edge51_Node000032_Node000033" class="edge">
<title>Node32&#45;&gt;Node33</title>
<g id="a_edge51_Node000032_Node000033"><a xlink:title=" ">
<path fill="none" stroke="#63b8ff" d="M120.68,-281.56C103.95,-272.18 77.39,-257.29 57.62,-246.2"/>
<polygon fill="#63b8ff" stroke="#63b8ff" points="59.48,-243.23 49.04,-241.39 56.05,-249.33 59.48,-243.23"/>
</a>
</g>
</g>
<!-- Node35 -->
<g id="Node000035" class="node">
<title>Node35</title>
<g id="a_Node000035"><a xlink:title=" ">
<polygon fill="#e0e0e0" stroke="#999999" points="159.25,-240.25 120,-240.25 120,-221 159.25,-221 159.25,-240.25"/>
<text xml:space="preserve" text-anchor="middle" x="139.62" y="-226.75" font-family="Helvetica,sans-Serif" font-size="10.00">limits</text>
</a>
</g>
</g>
<!-- Node32&#45;&gt;Node35 -->
<g id="edge54_Node000032_Node000035" class="edge">
<title>Node32&#45;&gt;Node35</title>
<g id="a_edge54_Node000032_Node000035"><a xlink:title=" ">
<path fill="none" stroke="#63b8ff" d="M137.08,-281.56C137.48,-273.69 138.08,-261.95 138.6,-251.82"/>
<polygon fill="#63b8ff" stroke="#63b8ff" points="142.07,-252.33 139.09,-242.16 135.08,-251.97 142.07,-252.33"/>
</a>
</g>
</g>
<!-- Node34 -->
<g id="Node000034" class="node">
<title>Node34</title>
<g id="a_Node000034"><a xlink:title=" ">
<polygon fill="#e0e0e0" stroke="#999999" points="55.75,-185 7.5,-185 7.5,-165.75 55.75,-165.75 55.75,-185"/>
<text xml:space="preserve" text-anchor="middle" x="31.62" y="-171.5" font-family="Helvetica,sans-Serif" font-size="10.00">cassert</text>
</a>
</g>
</g>
<!-- Node33&#45;&gt;Node34 -->
<g id="edge52_Node000033_Node000034" class="edge">
<title>Node33&#45;&gt;Node34</title>
<g id="a_edge52_Node000033_Node000034"><a xlink:title=" ">
<path fill="none" stroke="#63b8ff" d="M31.62,-220.83C31.62,-214.32 31.62,-205.17 31.62,-196.87"/>
<polygon fill="#63b8ff" stroke="#63b8ff" points="35.13,-196.87 31.63,-186.87 28.13,-196.87 35.13,-196.87"/>
</a>
</g>
</g>
<!-- Node37 -->
<g id="Node000037" class="node">
<title>Node37</title>
<g id="a_Node000037"><a xlink:title=" ">
<polygon fill="#e0e0e0" stroke="#999999" points="955.75,-240.25 907.5,-240.25 907.5,-221 955.75,-221 955.75,-240.25"/>
<text xml:space="preserve" text-anchor="middle" x="931.62" y="-226.75" font-family="Helvetica,sans-Serif" font-size="10.00">cstddef</text>
</a>
</g>
</g>
<!-- Node36&#45;&gt;Node37 -->
<g id="edge56_Node000036_Node000037" class="edge">
<title>Node36&#45;&gt;Node37</title>
<g id="a_edge56_Node000036_Node000037"><a xlink:title=" ">
<path fill="none" stroke="#63b8ff" d="M920.33,-275.95C922.2,-268.62 924.49,-259.62 926.52,-251.66"/>
<polygon fill="#63b8ff" stroke="#63b8ff" points="929.86,-252.72 928.94,-242.17 923.08,-250.99 929.86,-252.72"/>
</a>
</g>
</g>
<!-- Node38&#45;&gt;Node6 -->
<g id="edge59_Node000038_Node000006" class="edge">
<title>Node38&#45;&gt;Node6</title>
<g id="a_edge59_Node000038_Node000006"><a xlink:title=" ">
<path fill="none" stroke="#63b8ff" d="M736.69,-281.54C751.54,-262.71 786.24,-218.71 805.72,-194"/>
<polygon fill="#63b8ff" stroke="#63b8ff" points="808.21,-196.5 811.66,-186.48 802.72,-192.16 808.21,-196.5"/>
</a>
</g>
</g>
<!-- Node38&#45;&gt;Node14 -->
<g id="edge60_Node000038_Node000014" class="edge">
<title>Node38&#45;&gt;Node14</title>
<g id="a_edge60_Node000038_Node000014"><a xlink:title=" ">
<path fill="none" stroke="#63b8ff" d="M728.28,-281.39C724.38,-254.96 712.99,-177.79 707.56,-141.03"/>
<polygon fill="#63b8ff" stroke="#63b8ff" points="711.06,-140.75 706.14,-131.36 704.13,-141.77 711.06,-140.75"/>
</a>
</g>
</g>
<!-- Node38&#45;&gt;Node24 -->
<g id="edge63_Node000038_Node000024" class="edge">
<title>Node38&#45;&gt;Node24</title>
<g id="a_edge63_Node000038_Node000024"><a xlink:title=" ">
<path fill="none" stroke="#63b8ff" d="M797.02,-282.01C899.05,-269.12 1084.11,-245.52 1114.62,-240.25 1238.27,-218.88 1389.62,-301.85 1389.62,-176.38 1389.62,-176.38 1389.62,-176.38 1389.62,-119.12 1389.62,-67 1217.85,-29.78 1144.35,-16.24"/>
<polygon fill="#63b8ff" stroke="#63b8ff" points="1145.39,-12.87 1134.93,-14.54 1144.15,-19.76 1145.39,-12.87"/>
</a>
</g>
</g>
<!-- Node38&#45;&gt;Node26 -->
<g id="edge62_Node000038_Node000026" class="edge">
<title>Node38&#45;&gt;Node26</title>
<g id="a_edge62_Node000038_Node000026"><a xlink:title=" ">
<path fill="none" stroke="#63b8ff" d="M742.96,-281.39C783.34,-253.82 904.61,-170.99 955.14,-136.48"/>
<polygon fill="#63b8ff" stroke="#63b8ff" points="956.99,-139.45 963.28,-130.92 953.04,-133.67 956.99,-139.45"/>
</a>
</g>
</g>
<!-- Node38&#45;&gt;Node30 -->
<g id="edge58_Node000038_Node000030" class="edge">
<title>Node38&#45;&gt;Node30</title>
<g id="a_edge58_Node000038_Node000030"><a xlink:title=" ">
<path fill="none" stroke="#63b8ff" d="M695.27,-281.43C656.88,-271.3 594.57,-254.84 552.15,-243.64"/>
<polygon fill="#63b8ff" stroke="#63b8ff" points="553.04,-240.26 542.48,-241.09 551.26,-247.03 553.04,-240.26"/>
</a>
</g>
</g>
<!-- Node38&#45;&gt;Node38 -->
<g id="edge61_Node000038_Node000038" class="edge">
<title>Node38&#45;&gt;Node38</title>
<g id="a_edge61_Node000038_Node000038"><a xlink:title=" ">
<path fill="none" stroke="#63b8ff" d="M763.76,-301.57C789.22,-305.08 814.88,-301.73 814.88,-291.5 814.88,-282.79 796.27,-279.07 775.03,-280.32"/>
<polygon fill="#63b8ff" stroke="#63b8ff" points="774.88,-276.82 765.27,-281.29 775.57,-283.79 774.88,-276.82"/>
</a>
</g>
</g>
<!-- Node39&#45;&gt;Node14 -->
<g id="edge65_Node000039_Node000014" class="edge">
<title>Node39&#45;&gt;Node14</title>
<g id="a_edge65_Node000039_Node000014"><a xlink:title=" ">
<path fill="none" stroke="#63b8ff" d="M287.71,-169.07C377.81,-158.71 576.03,-135.91 662.69,-125.95"/>
<polygon fill="#63b8ff" stroke="#63b8ff" points="662.87,-129.45 672.41,-124.83 662.07,-122.5 662.87,-129.45"/>
</a>
</g>
</g>
<!-- Node40 -->
<g id="Node000040" class="node">
<title>Node40</title>
<g id="a_Node000040"><a xlink:href="_b_float16_8hpp.html" target="_top" xlink:title=" ">
<polygon fill="white" stroke="#666666" points="377.5,-129.75 303.75,-129.75 303.75,-110.5 377.5,-110.5 377.5,-129.75"/>
<text xml:space="preserve" text-anchor="middle" x="340.62" y="-116.25" font-family="Helvetica,sans-Serif" font-size="10.00">BFloat16.hpp</text>
</a>
</g>
</g>
<!-- Node39&#45;&gt;Node40 -->
<g id="edge66_Node000039_Node000040" class="edge">
<title>Node39&#45;&gt;Node40</title>
<g id="a_edge66_Node000039_Node000040"><a xlink:title=" ">
<path fill="none" stroke="#63b8ff" d="M258.42,-165.34C273.64,-157.16 296.32,-144.96 314.01,-135.44"/>
<polygon fill="#63b8ff" stroke="#63b8ff" points="315.27,-138.74 322.42,-130.92 311.95,-132.57 315.27,-138.74"/>
</a>
</g>
</g>
<!-- Node41 -->
<g id="Node000041" class="node">
<title>Node41</title>
<g id="a_Node000041"><a xlink:href="_half_8hpp.html" target="_top" xlink:title=" ">
<polygon fill="white" stroke="#666666" points="248,-129.75 195.25,-129.75 195.25,-110.5 248,-110.5 248,-129.75"/>
<text xml:space="preserve" text-anchor="middle" x="221.62" y="-116.25" font-family="Helvetica,sans-Serif" font-size="10.00">Half.hpp</text>
</a>
</g>
</g>
<!-- Node39&#45;&gt;Node41 -->
<g id="edge71_Node000039_Node000041" class="edge">
<title>Node39&#45;&gt;Node41</title>
<g id="a_edge71_Node000039_Node000041"><a xlink:title=" ">
<path fill="none" stroke="#63b8ff" d="M238.32,-165.58C235.79,-158.84 232.2,-149.27 228.99,-140.74"/>
<polygon fill="#63b8ff" stroke="#63b8ff" points="232.32,-139.66 225.53,-131.53 225.77,-142.12 232.32,-139.66"/>
</a>
</g>
</g>
<!-- Node40&#45;&gt;Node12 -->
<g id="edge69_Node000040_Node000012" class="edge">
<title>Node40&#45;&gt;Node12</title>
<g id="a_edge69_Node000040_Node000012"><a xlink:title=" ">
<path fill="none" stroke="#63b8ff" d="M357.59,-110.09C372.89,-101.94 395.66,-89.82 413.49,-80.33"/>
<polygon fill="#63b8ff" stroke="#63b8ff" points="415.06,-83.45 422.24,-75.66 411.77,-77.27 415.06,-83.45"/>
</a>
</g>
</g>
<!-- Node40&#45;&gt;Node17 -->
<g id="edge70_Node000040_Node000017" class="edge">
<title>Node40&#45;&gt;Node17</title>
<g id="a_edge70_Node000040_Node000017"><a xlink:title=" ">
<path fill="none" stroke="#63b8ff" d="M368.62,-110.09C396.7,-101.03 440.05,-87.04 470.44,-77.23"/>
<polygon fill="#63b8ff" stroke="#63b8ff" points="471.12,-80.69 479.56,-74.29 468.97,-74.03 471.12,-80.69"/>
</a>
</g>
</g>
<!-- Node40&#45;&gt;Node21 -->
<g id="edge67_Node000040_Node000021" class="edge">
<title>Node40&#45;&gt;Node21</title>
<g id="a_edge67_Node000040_Node000021"><a xlink:title=" ">
<path fill="none" stroke="#63b8ff" d="M341.53,-110.25C343.27,-93 347.17,-54.58 349.58,-30.81"/>
<polygon fill="#63b8ff" stroke="#63b8ff" points="353.03,-31.43 350.56,-21.13 346.07,-30.73 353.03,-31.43"/>
</a>
</g>
</g>
<!-- Node40&#45;&gt;Node31 -->
<g id="edge68_Node000040_Node000031" class="edge">
<title>Node40&#45;&gt;Node31</title>
<g id="a_edge68_Node000040_Node000031"><a xlink:title=" ">
<path fill="none" stroke="#63b8ff" d="M334.18,-110.33C328.97,-103.21 321.44,-92.93 314.93,-84.05"/>
<polygon fill="#63b8ff" stroke="#63b8ff" points="317.83,-82.08 309.1,-76.08 312.18,-86.22 317.83,-82.08"/>
</a>
</g>
</g>
<!-- Node41&#45;&gt;Node13 -->
<g id="edge72_Node000041_Node000013" class="edge">
<title>Node41&#45;&gt;Node13</title>
<g id="a_edge72_Node000041_Node000013"><a xlink:title=" ">
<path fill="none" stroke="#63b8ff" d="M208.39,-110.09C196.85,-102.21 179.86,-90.61 166.18,-81.27"/>
<polygon fill="#63b8ff" stroke="#63b8ff" points="168.4,-78.55 158.17,-75.81 164.46,-84.33 168.4,-78.55"/>
</a>
</g>
</g>
<!-- Node42 -->
<g id="Node000042" class="node">
<title>Node42</title>
<g id="a_Node000042"><a xlink:title=" ">
<polygon fill="#e0e0e0" stroke="#999999" points="262.25,-74.5 193,-74.5 193,-55.25 262.25,-55.25 262.25,-74.5"/>
<text xml:space="preserve" text-anchor="middle" x="227.62" y="-61" font-family="Helvetica,sans-Serif" font-size="10.00">half/half.hpp</text>
</a>
</g>
</g>
<!-- Node41&#45;&gt;Node42 -->
<g id="edge73_Node000041_Node000042" class="edge">
<title>Node41&#45;&gt;Node42</title>
<g id="a_edge73_Node000041_Node000042"><a xlink:title=" ">
<path fill="none" stroke="#63b8ff" d="M222.62,-110.33C223.36,-103.74 224.4,-94.46 225.35,-86.07"/>
<polygon fill="#63b8ff" stroke="#63b8ff" points="228.8,-86.69 226.44,-76.36 221.85,-85.91 228.8,-86.69"/>
</a>
</g>
</g>
</g>
</svg>
