<?xml version="1.0" encoding="UTF-8" standalone="no"?>
<!DOCTYPE svg PUBLIC "-//W3C//DTD SVG 1.1//EN"
 "http://www.w3.org/Graphics/SVG/1.1/DTD/svg11.dtd">
<!-- Generated by graphviz version 14.0.2 (20251019.1705)
 -->
<!-- Title: src/backends/backendsCommon/memoryOptimizerStrategyLibrary/strategies/StrategyValidator.cpp Pages: 1 -->
<svg width="615pt" height="337pt"
 viewBox="0.00 0.00 615.00 337.00" xmlns="http://www.w3.org/2000/svg" xmlns:xlink="http://www.w3.org/1999/xlink">
<g id="graph0" class="graph" transform="scale(1 1) rotate(0) translate(4 333.25)">
<title>src/backends/backendsCommon/memoryOptimizerStrategyLibrary/strategies/StrategyValidator.cpp</title>
<!-- Node1 -->
<g id="Node000001" class="node">
<title>Node1</title>
<g id="a_Node000001"><a xlink:title=" ">
<polygon fill="#999999" stroke="#666666" points="331,-329.25 168.75,-329.25 168.75,-287.5 331,-287.5 331,-329.25"/>
<text xml:space="preserve" text-anchor="start" x="176.75" y="-315.75" font-family="Helvetica,sans-Serif" font-size="10.00">src/backends/backendsCommon</text>
<text xml:space="preserve" text-anchor="start" x="176.75" y="-304.5" font-family="Helvetica,sans-Serif" font-size="10.00">/memoryOptimizerStrategyLibrary</text>
<text xml:space="preserve" text-anchor="middle" x="249.88" y="-293.25" font-family="Helvetica,sans-Serif" font-size="10.00">/strategies/StrategyValidator.cpp</text>
</a>
</g>
</g>
<!-- Node2 -->
<g id="Node000002" class="node">
<title>Node2</title>
<g id="a_Node000002"><a xlink:title=" ">
<polygon fill="#e0e0e0" stroke="#999999" points="205.25,-251.5 122.5,-251.5 122.5,-232.25 205.25,-232.25 205.25,-251.5"/>
<text xml:space="preserve" text-anchor="middle" x="163.88" y="-238" font-family="Helvetica,sans-Serif" font-size="10.00">unordered_map</text>
</a>
</g>
</g>
<!-- Node1&#45;&gt;Node2 -->
<g id="edge1_Node000001_Node000002" class="edge">
<title>Node1&#45;&gt;Node2</title>
<g id="a_edge1_Node000001_Node000002"><a xlink:title=" ">
<path fill="none" stroke="#63b8ff" d="M223.14,-287.32C210.81,-278.08 196.39,-267.26 184.86,-258.62"/>
<polygon fill="#63b8ff" stroke="#63b8ff" points="187.28,-256.05 177.18,-252.85 183.08,-261.65 187.28,-256.05"/>
</a>
</g>
</g>
<!-- Node3 -->
<g id="Node000003" class="node">
<title>Node3</title>
<g id="a_Node000003"><a xlink:title=" ">
<polygon fill="#e0e0e0" stroke="#999999" points="276.62,-251.5 223.12,-251.5 223.12,-232.25 276.62,-232.25 276.62,-251.5"/>
<text xml:space="preserve" text-anchor="middle" x="249.88" y="-238" font-family="Helvetica,sans-Serif" font-size="10.00">iostream</text>
</a>
</g>
</g>
<!-- Node1&#45;&gt;Node3 -->
<g id="edge2_Node000001_Node000003" class="edge">
<title>Node1&#45;&gt;Node3</title>
<g id="a_edge2_Node000001_Node000003"><a xlink:title=" ">
<path fill="none" stroke="#63b8ff" d="M249.88,-287.32C249.88,-279.65 249.88,-270.89 249.88,-263.2"/>
<polygon fill="#63b8ff" stroke="#63b8ff" points="253.38,-263.46 249.88,-253.46 246.38,-263.46 253.38,-263.46"/>
</a>
</g>
</g>
<!-- Node4 -->
<g id="Node000004" class="node">
<title>Node4</title>
<g id="a_Node000004"><a xlink:href="_strategy_validator_8hpp.html" target="_top" xlink:title=" ">
<polygon fill="white" stroke="#666666" points="403,-251.5 294.75,-251.5 294.75,-232.25 403,-232.25 403,-251.5"/>
<text xml:space="preserve" text-anchor="middle" x="348.88" y="-238" font-family="Helvetica,sans-Serif" font-size="10.00">StrategyValidator.hpp</text>
</a>
</g>
</g>
<!-- Node1&#45;&gt;Node4 -->
<g id="edge3_Node000001_Node000004" class="edge">
<title>Node1&#45;&gt;Node4</title>
<g id="a_edge3_Node000001_Node000004"><a xlink:title=" ">
<path fill="none" stroke="#63b8ff" d="M280.93,-287.14C295.39,-277.72 312.3,-266.71 325.63,-258.02"/>
<polygon fill="#63b8ff" stroke="#63b8ff" points="327.3,-261.11 333.76,-252.72 323.47,-255.25 327.3,-261.11"/>
</a>
</g>
</g>
<!-- Node5 -->
<g id="Node000005" class="node">
<title>Node5</title>
<g id="a_Node000005"><a xlink:href="_types_8hpp.html" target="_top" xlink:title=" ">
<polygon fill="white" stroke="#666666" points="280.38,-129.75 189.38,-129.75 189.38,-110.5 280.38,-110.5 280.38,-129.75"/>
<text xml:space="preserve" text-anchor="middle" x="234.88" y="-116.25" font-family="Helvetica,sans-Serif" font-size="10.00">armnn/Types.hpp</text>
</a>
</g>
</g>
<!-- Node4&#45;&gt;Node5 -->
<g id="edge4_Node000004_Node000005" class="edge">
<title>Node4&#45;&gt;Node5</title>
<g id="a_edge4_Node000004_Node000005"><a xlink:title=" ">
<path fill="none" stroke="#63b8ff" d="M312.04,-231.9C292.1,-225.22 268.6,-214.1 253.88,-196.25 241.05,-180.7 236.73,-157.62 235.35,-141.15"/>
<polygon fill="#63b8ff" stroke="#63b8ff" points="238.87,-141.4 234.86,-131.59 231.88,-141.76 238.87,-141.4"/>
</a>
</g>
</g>
<!-- Node17 -->
<g id="Node000017" class="node">
<title>Node17</title>
<g id="a_Node000017"><a xlink:href="_exceptions_8hpp.html" target="_top" xlink:title=" ">
<polygon fill="white" stroke="#666666" points="546.62,-74.5 463.12,-74.5 463.12,-55.25 546.62,-55.25 546.62,-74.5"/>
<text xml:space="preserve" text-anchor="middle" x="504.88" y="-61" font-family="Helvetica,sans-Serif" font-size="10.00">Exceptions.hpp</text>
</a>
</g>
</g>
<!-- Node4&#45;&gt;Node17 -->
<g id="edge21_Node000004_Node000017" class="edge">
<title>Node4&#45;&gt;Node17</title>
<g id="a_edge21_Node000004_Node000017"><a xlink:title=" ">
<path fill="none" stroke="#63b8ff" d="M381.28,-231.9C401.4,-224.95 426.62,-213.53 443.88,-196.25 475.42,-164.66 492.64,-113.67 500.17,-85.74"/>
<polygon fill="#63b8ff" stroke="#63b8ff" points="503.54,-86.7 502.59,-76.15 496.75,-84.99 503.54,-86.7"/>
</a>
</g>
</g>
<!-- Node21 -->
<g id="Node000021" class="node">
<title>Node21</title>
<g id="a_Node000021"><a xlink:href="_i_memory_optimizer_strategy_8hpp.html" target="_top" xlink:title=" ">
<polygon fill="white" stroke="#666666" points="434.5,-196.25 263.25,-196.25 263.25,-165.75 434.5,-165.75 434.5,-196.25"/>
<text xml:space="preserve" text-anchor="start" x="271.25" y="-182.75" font-family="Helvetica,sans-Serif" font-size="10.00">armnn/backends/IMemoryOptimizer</text>
<text xml:space="preserve" text-anchor="middle" x="348.88" y="-171.5" font-family="Helvetica,sans-Serif" font-size="10.00">Strategy.hpp</text>
</a>
</g>
</g>
<!-- Node4&#45;&gt;Node21 -->
<g id="edge22_Node000004_Node000021" class="edge">
<title>Node4&#45;&gt;Node21</title>
<g id="a_edge22_Node000004_Node000021"><a xlink:title=" ">
<path fill="none" stroke="#63b8ff" d="M348.88,-231.93C348.88,-225.48 348.88,-216.41 348.88,-207.76"/>
<polygon fill="#63b8ff" stroke="#63b8ff" points="352.38,-208.05 348.88,-198.05 345.38,-208.05 352.38,-208.05"/>
</a>
</g>
</g>
<!-- Node6 -->
<g id="Node000006" class="node">
<title>Node6</title>
<g id="a_Node000006"><a xlink:title=" ">
<polygon fill="#e0e0e0" stroke="#999999" points="37.75,-74.5 0,-74.5 0,-55.25 37.75,-55.25 37.75,-74.5"/>
<text xml:space="preserve" text-anchor="middle" x="18.88" y="-61" font-family="Helvetica,sans-Serif" font-size="10.00">array</text>
</a>
</g>
</g>
<!-- Node5&#45;&gt;Node6 -->
<g id="edge5_Node000005_Node000006" class="edge">
<title>Node5&#45;&gt;Node6</title>
<g id="a_edge5_Node000005_Node000006"><a xlink:title=" ">
<path fill="none" stroke="#63b8ff" d="M193.23,-110.07C157.39,-102.09 104.07,-89.78 49.11,-74.97"/>
<polygon fill="#63b8ff" stroke="#63b8ff" points="50.13,-71.63 39.57,-72.38 48.3,-78.38 50.13,-71.63"/>
</a>
</g>
</g>
<!-- Node7 -->
<g id="Node000007" class="node">
<title>Node7</title>
<g id="a_Node000007"><a xlink:title=" ">
<polygon fill="#e0e0e0" stroke="#999999" points="113.88,-74.5 55.88,-74.5 55.88,-55.25 113.88,-55.25 113.88,-74.5"/>
<text xml:space="preserve" text-anchor="middle" x="84.88" y="-61" font-family="Helvetica,sans-Serif" font-size="10.00">functional</text>
</a>
</g>
</g>
<!-- Node5&#45;&gt;Node7 -->
<g id="edge6_Node000005_Node000007" class="edge">
<title>Node5&#45;&gt;Node7</title>
<g id="a_edge6_Node000005_Node000007"><a xlink:title=" ">
<path fill="none" stroke="#63b8ff" d="M209.43,-110.09C185.19,-101.49 148.44,-88.44 121.14,-78.75"/>
<polygon fill="#63b8ff" stroke="#63b8ff" points="122.47,-75.51 111.87,-75.46 120.12,-82.1 122.47,-75.51"/>
</a>
</g>
</g>
<!-- Node8 -->
<g id="Node000008" class="node">
<title>Node8</title>
<g id="a_Node000008"><a xlink:title=" ">
<polygon fill="#e0e0e0" stroke="#999999" points="180,-74.5 131.75,-74.5 131.75,-55.25 180,-55.25 180,-74.5"/>
<text xml:space="preserve" text-anchor="middle" x="155.88" y="-61" font-family="Helvetica,sans-Serif" font-size="10.00">stdint.h</text>
</a>
</g>
</g>
<!-- Node5&#45;&gt;Node8 -->
<g id="edge7_Node000005_Node000008" class="edge">
<title>Node5&#45;&gt;Node8</title>
<g id="a_edge7_Node000005_Node000008"><a xlink:title=" ">
<path fill="none" stroke="#63b8ff" d="M221.47,-110.09C209.78,-102.21 192.57,-90.61 178.71,-81.27"/>
<polygon fill="#63b8ff" stroke="#63b8ff" points="180.85,-78.49 170.6,-75.8 176.93,-84.29 180.85,-78.49"/>
</a>
</g>
</g>
<!-- Node9 -->
<g id="Node000009" class="node">
<title>Node9</title>
<g id="a_Node000009"><a xlink:title=" ">
<polygon fill="#e0e0e0" stroke="#999999" points="243.5,-74.5 198.25,-74.5 198.25,-55.25 243.5,-55.25 243.5,-74.5"/>
<text xml:space="preserve" text-anchor="middle" x="220.88" y="-61" font-family="Helvetica,sans-Serif" font-size="10.00">chrono</text>
</a>
</g>
</g>
<!-- Node5&#45;&gt;Node9 -->
<g id="edge8_Node000005_Node000009" class="edge">
<title>Node5&#45;&gt;Node9</title>
<g id="a_edge8_Node000005_Node000009"><a xlink:title=" ">
<path fill="none" stroke="#63b8ff" d="M232.56,-110.33C230.81,-103.67 228.33,-94.24 226.11,-85.78"/>
<polygon fill="#63b8ff" stroke="#63b8ff" points="229.55,-85.1 223.62,-76.32 222.78,-86.88 229.55,-85.1"/>
</a>
</g>
</g>
<!-- Node10 -->
<g id="Node000010" class="node">
<title>Node10</title>
<g id="a_Node000010"><a xlink:href="_backend_id_8hpp.html" target="_top" xlink:title=" ">
<polygon fill="white" stroke="#666666" points="342.5,-74.5 261.25,-74.5 261.25,-55.25 342.5,-55.25 342.5,-74.5"/>
<text xml:space="preserve" text-anchor="middle" x="301.88" y="-61" font-family="Helvetica,sans-Serif" font-size="10.00">BackendId.hpp</text>
</a>
</g>
</g>
<!-- Node5&#45;&gt;Node10 -->
<g id="edge9_Node000005_Node000010" class="edge">
<title>Node5&#45;&gt;Node10</title>
<g id="a_edge9_Node000005_Node000010"><a xlink:title=" ">
<path fill="none" stroke="#63b8ff" d="M246.24,-110.09C255.92,-102.4 270.07,-91.15 281.68,-81.93"/>
<polygon fill="#63b8ff" stroke="#63b8ff" points="283.84,-84.68 289.49,-75.72 279.49,-79.2 283.84,-84.68"/>
</a>
</g>
</g>
<!-- Node5&#45;&gt;Node17 -->
<g id="edge16_Node000005_Node000017" class="edge">
<title>Node5&#45;&gt;Node17</title>
<g id="a_edge16_Node000005_Node000017"><a xlink:title=" ">
<path fill="none" stroke="#63b8ff" d="M280.68,-110.09C327.99,-100.76 401.78,-86.21 451.65,-76.37"/>
<polygon fill="#63b8ff" stroke="#63b8ff" points="452.23,-79.82 461.37,-74.46 450.88,-72.96 452.23,-79.82"/>
</a>
</g>
</g>
<!-- Node20 -->
<g id="Node000020" class="node">
<title>Node20</title>
<g id="a_Node000020"><a xlink:href="_deprecated_8hpp.html" target="_top" xlink:title=" ">
<polygon fill="white" stroke="#666666" points="445.38,-74.5 360.38,-74.5 360.38,-55.25 445.38,-55.25 445.38,-74.5"/>
<text xml:space="preserve" text-anchor="middle" x="402.88" y="-61" font-family="Helvetica,sans-Serif" font-size="10.00">Deprecated.hpp</text>
</a>
</g>
</g>
<!-- Node5&#45;&gt;Node20 -->
<g id="edge20_Node000005_Node000020" class="edge">
<title>Node5&#45;&gt;Node20</title>
<g id="a_edge20_Node000005_Node000020"><a xlink:title=" ">
<path fill="none" stroke="#63b8ff" d="M263.37,-110.09C290.89,-101.37 332.78,-88.09 363.48,-78.36"/>
<polygon fill="#63b8ff" stroke="#63b8ff" points="364.32,-81.77 372.79,-75.41 362.2,-75.09 364.32,-81.77"/>
</a>
</g>
</g>
<!-- Node11 -->
<g id="Node000011" class="node">
<title>Node11</title>
<g id="a_Node000011"><a xlink:title=" ">
<polygon fill="#e0e0e0" stroke="#999999" points="129.5,-19.25 78.25,-19.25 78.25,0 129.5,0 129.5,-19.25"/>
<text xml:space="preserve" text-anchor="middle" x="103.88" y="-5.75" font-family="Helvetica,sans-Serif" font-size="10.00">memory</text>
</a>
</g>
</g>
<!-- Node10&#45;&gt;Node11 -->
<g id="edge10_Node000010_Node000011" class="edge">
<title>Node10&#45;&gt;Node11</title>
<g id="a_edge10_Node000010_Node000011"><a xlink:title=" ">
<path fill="none" stroke="#63b8ff" d="M268.29,-54.84C232.79,-45.3 176.99,-30.29 140.41,-20.45"/>
<polygon fill="#63b8ff" stroke="#63b8ff" points="141.75,-17.19 131.19,-17.97 139.93,-23.95 141.75,-17.19"/>
</a>
</g>
</g>
<!-- Node12 -->
<g id="Node000012" class="node">
<title>Node12</title>
<g id="a_Node000012"><a xlink:title=" ">
<polygon fill="#e0e0e0" stroke="#999999" points="198.5,-19.25 147.25,-19.25 147.25,0 198.5,0 198.5,-19.25"/>
<text xml:space="preserve" text-anchor="middle" x="172.88" y="-5.75" font-family="Helvetica,sans-Serif" font-size="10.00">ostream</text>
</a>
</g>
</g>
<!-- Node10&#45;&gt;Node12 -->
<g id="edge11_Node000010_Node000012" class="edge">
<title>Node10&#45;&gt;Node12</title>
<g id="a_edge11_Node000010_Node000012"><a xlink:title=" ">
<path fill="none" stroke="#63b8ff" d="M279.99,-54.84C259.51,-46.39 228.66,-33.65 205.32,-24.02"/>
<polygon fill="#63b8ff" stroke="#63b8ff" points="206.84,-20.86 196.26,-20.28 204.17,-27.33 206.84,-20.86"/>
</a>
</g>
</g>
<!-- Node13 -->
<g id="Node000013" class="node">
<title>Node13</title>
<g id="a_Node000013"><a xlink:title=" ">
<polygon fill="#e0e0e0" stroke="#999999" points="245.62,-19.25 216.12,-19.25 216.12,0 245.62,0 245.62,-19.25"/>
<text xml:space="preserve" text-anchor="middle" x="230.88" y="-5.75" font-family="Helvetica,sans-Serif" font-size="10.00">set</text>
</a>
</g>
</g>
<!-- Node10&#45;&gt;Node13 -->
<g id="edge12_Node000010_Node000013" class="edge">
<title>Node10&#45;&gt;Node13</title>
<g id="a_edge12_Node000010_Node000013"><a xlink:title=" ">
<path fill="none" stroke="#63b8ff" d="M289.83,-54.84C279.47,-47.07 264.27,-35.67 251.91,-26.4"/>
<polygon fill="#63b8ff" stroke="#63b8ff" points="254.05,-23.63 243.95,-20.43 249.85,-29.23 254.05,-23.63"/>
</a>
</g>
</g>
<!-- Node14 -->
<g id="Node000014" class="node">
<title>Node14</title>
<g id="a_Node000014"><a xlink:title=" ">
<polygon fill="#e0e0e0" stroke="#999999" points="460.88,-19.25 420.88,-19.25 420.88,0 460.88,0 460.88,-19.25"/>
<text xml:space="preserve" text-anchor="middle" x="440.88" y="-5.75" font-family="Helvetica,sans-Serif" font-size="10.00">string</text>
</a>
</g>
</g>
<!-- Node10&#45;&gt;Node14 -->
<g id="edge13_Node000010_Node000014" class="edge">
<title>Node10&#45;&gt;Node14</title>
<g id="a_edge13_Node000010_Node000014"><a xlink:title=" ">
<path fill="none" stroke="#63b8ff" d="M325.45,-54.84C348.8,-45.9 384.66,-32.16 410.2,-22.37"/>
<polygon fill="#63b8ff" stroke="#63b8ff" points="411.3,-25.7 419.38,-18.86 408.79,-19.17 411.3,-25.7"/>
</a>
</g>
</g>
<!-- Node15 -->
<g id="Node000015" class="node">
<title>Node15</title>
<g id="a_Node000015"><a xlink:title=" ">
<polygon fill="#e0e0e0" stroke="#999999" points="341.62,-19.25 264.12,-19.25 264.12,0 341.62,0 341.62,-19.25"/>
<text xml:space="preserve" text-anchor="middle" x="302.88" y="-5.75" font-family="Helvetica,sans-Serif" font-size="10.00">unordered_set</text>
</a>
</g>
</g>
<!-- Node10&#45;&gt;Node15 -->
<g id="edge14_Node000010_Node000015" class="edge">
<title>Node10&#45;&gt;Node15</title>
<g id="a_edge14_Node000010_Node000015"><a xlink:title=" ">
<path fill="none" stroke="#63b8ff" d="M302.04,-55.08C302.16,-48.57 302.33,-39.42 302.49,-31.12"/>
<polygon fill="#63b8ff" stroke="#63b8ff" points="305.99,-31.19 302.68,-21.12 298.99,-31.05 305.99,-31.19"/>
</a>
</g>
</g>
<!-- Node16 -->
<g id="Node000016" class="node">
<title>Node16</title>
<g id="a_Node000016"><a xlink:title=" ">
<polygon fill="#e0e0e0" stroke="#999999" points="402.38,-19.25 359.38,-19.25 359.38,0 402.38,0 402.38,-19.25"/>
<text xml:space="preserve" text-anchor="middle" x="380.88" y="-5.75" font-family="Helvetica,sans-Serif" font-size="10.00">vector</text>
</a>
</g>
</g>
<!-- Node10&#45;&gt;Node16 -->
<g id="edge15_Node000010_Node000016" class="edge">
<title>Node10&#45;&gt;Node16</title>
<g id="a_edge15_Node000010_Node000016"><a xlink:title=" ">
<path fill="none" stroke="#63b8ff" d="M315.28,-54.84C326.97,-46.96 344.18,-35.36 358.04,-26.02"/>
<polygon fill="#63b8ff" stroke="#63b8ff" points="359.82,-29.04 366.15,-20.55 355.9,-23.24 359.82,-29.04"/>
</a>
</g>
</g>
<!-- Node17&#45;&gt;Node14 -->
<g id="edge19_Node000017_Node000014" class="edge">
<title>Node17&#45;&gt;Node14</title>
<g id="a_edge19_Node000017_Node000014"><a xlink:title=" ">
<path fill="none" stroke="#63b8ff" d="M494.02,-54.84C484.77,-47.15 471.25,-35.9 460.17,-26.68"/>
<polygon fill="#63b8ff" stroke="#63b8ff" points="462.66,-24.2 452.73,-20.49 458.18,-29.58 462.66,-24.2"/>
</a>
</g>
</g>
<!-- Node18 -->
<g id="Node000018" class="node">
<title>Node18</title>
<g id="a_Node000018"><a xlink:title=" ">
<polygon fill="#e0e0e0" stroke="#999999" points="530.5,-19.25 479.25,-19.25 479.25,0 530.5,0 530.5,-19.25"/>
<text xml:space="preserve" text-anchor="middle" x="504.88" y="-5.75" font-family="Helvetica,sans-Serif" font-size="10.00">sstream</text>
</a>
</g>
</g>
<!-- Node17&#45;&gt;Node18 -->
<g id="edge17_Node000017_Node000018" class="edge">
<title>Node17&#45;&gt;Node18</title>
<g id="a_edge17_Node000017_Node000018"><a xlink:title=" ">
<path fill="none" stroke="#63b8ff" d="M504.88,-55.08C504.88,-48.57 504.88,-39.42 504.88,-31.12"/>
<polygon fill="#63b8ff" stroke="#63b8ff" points="508.38,-31.12 504.88,-21.12 501.38,-31.12 508.38,-31.12"/>
</a>
</g>
</g>
<!-- Node19 -->
<g id="Node000019" class="node">
<title>Node19</title>
<g id="a_Node000019"><a xlink:title=" ">
<polygon fill="#e0e0e0" stroke="#999999" points="607.25,-19.25 548.5,-19.25 548.5,0 607.25,0 607.25,-19.25"/>
<text xml:space="preserve" text-anchor="middle" x="577.88" y="-5.75" font-family="Helvetica,sans-Serif" font-size="10.00">stdexcept</text>
</a>
</g>
</g>
<!-- Node17&#45;&gt;Node19 -->
<g id="edge18_Node000017_Node000019" class="edge">
<title>Node17&#45;&gt;Node19</title>
<g id="a_edge18_Node000017_Node000019"><a xlink:title=" ">
<path fill="none" stroke="#63b8ff" d="M517.26,-54.84C528.02,-46.99 543.85,-35.45 556.63,-26.12"/>
<polygon fill="#63b8ff" stroke="#63b8ff" points="558.44,-29.14 564.45,-20.42 554.31,-23.48 558.44,-29.14"/>
</a>
</g>
</g>
<!-- Node21&#45;&gt;Node5 -->
<g id="edge23_Node000021_Node000005" class="edge">
<title>Node21&#45;&gt;Node5</title>
<g id="a_edge23_Node000021_Node000005"><a xlink:title=" ">
<path fill="none" stroke="#63b8ff" d="M320.4,-165.3C302.71,-156.16 280.07,-144.47 262.53,-135.41"/>
<polygon fill="#63b8ff" stroke="#63b8ff" points="264.19,-132.33 253.7,-130.85 260.98,-138.55 264.19,-132.33"/>
</a>
</g>
</g>
</g>
</svg>
