<?xml version="1.0" encoding="UTF-8" standalone="no"?>
<!DOCTYPE svg PUBLIC "-//W3C//DTD SVG 1.1//EN"
 "http://www.w3.org/Graphics/SVG/1.1/DTD/svg11.dtd">
<!-- Generated by graphviz version 14.0.2 (20251019.1705)
 -->
<!-- Title: src/backends/reference/workloads/StridedSlice.cpp Pages: 1 -->
<svg width="969pt" height="370pt"
 viewBox="0.00 0.00 969.00 370.00" xmlns="http://www.w3.org/2000/svg" xmlns:xlink="http://www.w3.org/1999/xlink">
<g id="graph0" class="graph" transform="scale(1 1) rotate(0) translate(4 366)">
<title>src/backends/reference/workloads/StridedSlice.cpp</title>
<!-- Node1 -->
<g id="Node000001" class="node">
<title>Node1</title>
<g id="a_Node000001"><a xlink:title=" ">
<polygon fill="#999999" stroke="#666666" points="839.66,-362 702.16,-362 702.16,-331.5 839.66,-331.5 839.66,-362"/>
<text xml:space="preserve" text-anchor="start" x="710.16" y="-348.5" font-family="Helvetica,sans-Serif" font-size="10.00">src/backends/reference</text>
<text xml:space="preserve" text-anchor="middle" x="770.91" y="-337.25" font-family="Helvetica,sans-Serif" font-size="10.00">/workloads/StridedSlice.cpp</text>
</a>
</g>
</g>
<!-- Node2 -->
<g id="Node000002" class="node">
<title>Node2</title>
<g id="a_Node000002"><a xlink:href="_strided_slice_8hpp.html" target="_top" xlink:title=" ">
<polygon fill="white" stroke="#666666" points="484.53,-295.5 397.28,-295.5 397.28,-276.25 484.53,-276.25 484.53,-295.5"/>
<text xml:space="preserve" text-anchor="middle" x="440.91" y="-282" font-family="Helvetica,sans-Serif" font-size="10.00">StridedSlice.hpp</text>
</a>
</g>
</g>
<!-- Node1&#45;&gt;Node2 -->
<g id="edge1_Node000001_Node000002" class="edge">
<title>Node1&#45;&gt;Node2</title>
<g id="a_edge1_Node000001_Node000002"><a xlink:title=" ">
<path fill="none" stroke="#63b8ff" d="M701.73,-333.41C640.55,-322.49 552.48,-306.78 495.97,-296.7"/>
<polygon fill="#63b8ff" stroke="#63b8ff" points="496.71,-293.28 486.25,-294.96 495.48,-300.17 496.71,-293.28"/>
</a>
</g>
</g>
<!-- Node12 -->
<g id="Node000012" class="node">
<title>Node12</title>
<g id="a_Node000012"><a xlink:title=" ">
<polygon fill="#e0e0e0" stroke="#999999" points="760.53,-74.5 715.28,-74.5 715.28,-55.25 760.53,-55.25 760.53,-74.5"/>
<text xml:space="preserve" text-anchor="middle" x="737.91" y="-61" font-family="Helvetica,sans-Serif" font-size="10.00">cstring</text>
</a>
</g>
</g>
<!-- Node1&#45;&gt;Node12 -->
<g id="edge45_Node000001_Node000012" class="edge">
<title>Node1&#45;&gt;Node12</title>
<g id="a_edge45_Node000001_Node000012"><a xlink:title=" ">
<path fill="none" stroke="#63b8ff" d="M770.91,-331.34C770.91,-309.69 770.91,-267.49 770.91,-231.62 770.91,-231.62 770.91,-231.62 770.91,-174.38 770.91,-141.98 757.28,-106.41 747.54,-85.12"/>
<polygon fill="#63b8ff" stroke="#63b8ff" points="750.76,-83.76 743.29,-76.25 744.45,-86.78 750.76,-83.76"/>
</a>
</g>
</g>
<!-- Node29 -->
<g id="Node000029" class="node">
<title>Node29</title>
<g id="a_Node000029"><a xlink:href="_numeric_cast_8hpp.html" target="_top" xlink:title=" ">
<polygon fill="white" stroke="#666666" points="947.28,-295.5 798.53,-295.5 798.53,-276.25 947.28,-276.25 947.28,-295.5"/>
<text xml:space="preserve" text-anchor="middle" x="872.91" y="-282" font-family="Helvetica,sans-Serif" font-size="10.00">armnn/utility/NumericCast.hpp</text>
</a>
</g>
</g>
<!-- Node1&#45;&gt;Node29 -->
<g id="edge40_Node000001_Node000029" class="edge">
<title>Node1&#45;&gt;Node29</title>
<g id="a_edge40_Node000001_Node000029"><a xlink:title=" ">
<path fill="none" stroke="#63b8ff" d="M796.38,-331.05C812.07,-321.99 832.09,-310.44 847.72,-301.41"/>
<polygon fill="#63b8ff" stroke="#63b8ff" points="849.04,-304.69 855.95,-296.66 845.54,-298.63 849.04,-304.69"/>
</a>
</g>
</g>
<!-- Node3 -->
<g id="Node000003" class="node">
<title>Node3</title>
<g id="a_Node000003"><a xlink:href="_descriptors_8hpp.html" target="_top" xlink:title=" ">
<polygon fill="white" stroke="#666666" points="354.41,-240.25 239.41,-240.25 239.41,-221 354.41,-221 354.41,-240.25"/>
<text xml:space="preserve" text-anchor="middle" x="296.91" y="-226.75" font-family="Helvetica,sans-Serif" font-size="10.00">armnn/Descriptors.hpp</text>
</a>
</g>
</g>
<!-- Node2&#45;&gt;Node3 -->
<g id="edge2_Node000002_Node000003" class="edge">
<title>Node2&#45;&gt;Node3</title>
<g id="a_edge2_Node000002_Node000003"><a xlink:title=" ">
<path fill="none" stroke="#63b8ff" d="M416.48,-275.84C393.31,-267.27 358.24,-254.31 332.07,-244.63"/>
<polygon fill="#63b8ff" stroke="#63b8ff" points="333.47,-241.41 322.87,-241.23 331.04,-247.98 333.47,-241.41"/>
</a>
</g>
</g>
<!-- Node6 -->
<g id="Node000006" class="node">
<title>Node6</title>
<g id="a_Node000006"><a xlink:href="_tensor_8hpp.html" target="_top" xlink:title=" ">
<polygon fill="white" stroke="#666666" points="472.53,-185 409.28,-185 409.28,-165.75 472.53,-165.75 472.53,-185"/>
<text xml:space="preserve" text-anchor="middle" x="440.91" y="-171.5" font-family="Helvetica,sans-Serif" font-size="10.00">Tensor.hpp</text>
</a>
</g>
</g>
<!-- Node2&#45;&gt;Node6 -->
<g id="edge39_Node000002_Node000006" class="edge">
<title>Node2&#45;&gt;Node6</title>
<g id="a_edge39_Node000002_Node000006"><a xlink:title=" ">
<path fill="none" stroke="#63b8ff" d="M440.91,-276C440.91,-258.75 440.91,-220.33 440.91,-196.56"/>
<polygon fill="#63b8ff" stroke="#63b8ff" points="444.41,-196.89 440.91,-186.89 437.41,-196.89 444.41,-196.89"/>
</a>
</g>
</g>
<!-- Node4 -->
<g id="Node000004" class="node">
<title>Node4</title>
<g id="a_Node000004"><a xlink:href="_deprecated_8hpp.html" target="_top" xlink:title=" ">
<polygon fill="white" stroke="#666666" points="194.41,-74.5 109.41,-74.5 109.41,-55.25 194.41,-55.25 194.41,-74.5"/>
<text xml:space="preserve" text-anchor="middle" x="151.91" y="-61" font-family="Helvetica,sans-Serif" font-size="10.00">Deprecated.hpp</text>
</a>
</g>
</g>
<!-- Node3&#45;&gt;Node4 -->
<g id="edge3_Node000003_Node000004" class="edge">
<title>Node3&#45;&gt;Node4</title>
<g id="a_edge3_Node000003_Node000004"><a xlink:title=" ">
<path fill="none" stroke="#63b8ff" d="M289.11,-220.82C266.1,-194.83 198.15,-118.09 167.37,-83.34"/>
<polygon fill="#63b8ff" stroke="#63b8ff" points="169.99,-81.02 160.75,-75.86 164.75,-85.66 169.99,-81.02"/>
</a>
</g>
</g>
<!-- Node5 -->
<g id="Node000005" class="node">
<title>Node5</title>
<g id="a_Node000005"><a xlink:href="_descriptors_fwd_8hpp.html" target="_top" xlink:title=" ">
<polygon fill="white" stroke="#666666" points="211.78,-185 108.03,-185 108.03,-165.75 211.78,-165.75 211.78,-185"/>
<text xml:space="preserve" text-anchor="middle" x="159.91" y="-171.5" font-family="Helvetica,sans-Serif" font-size="10.00">DescriptorsFwd.hpp</text>
</a>
</g>
</g>
<!-- Node3&#45;&gt;Node5 -->
<g id="edge4_Node000003_Node000005" class="edge">
<title>Node3&#45;&gt;Node5</title>
<g id="a_edge4_Node000003_Node000005"><a xlink:title=" ">
<path fill="none" stroke="#63b8ff" d="M273.67,-220.59C251.72,-212.06 218.56,-199.17 193.69,-189.51"/>
<polygon fill="#63b8ff" stroke="#63b8ff" points="195.26,-186.36 184.67,-186 192.72,-192.89 195.26,-186.36"/>
</a>
</g>
</g>
<!-- Node3&#45;&gt;Node6 -->
<g id="edge5_Node000003_Node000006" class="edge">
<title>Node3&#45;&gt;Node6</title>
<g id="a_edge5_Node000003_Node000006"><a xlink:title=" ">
<path fill="none" stroke="#63b8ff" d="M321.33,-220.59C344.5,-212.02 379.57,-199.06 405.75,-189.38"/>
<polygon fill="#63b8ff" stroke="#63b8ff" points="406.77,-192.73 414.94,-185.98 404.35,-186.16 406.77,-192.73"/>
</a>
</g>
</g>
<!-- Node7 -->
<g id="Node000007" class="node">
<title>Node7</title>
<g id="a_Node000007"><a xlink:href="_exceptions_8hpp.html" target="_top" xlink:title=" ">
<polygon fill="white" stroke="#666666" points="696.66,-74.5 613.16,-74.5 613.16,-55.25 696.66,-55.25 696.66,-74.5"/>
<text xml:space="preserve" text-anchor="middle" x="654.91" y="-61" font-family="Helvetica,sans-Serif" font-size="10.00">Exceptions.hpp</text>
</a>
</g>
</g>
<!-- Node3&#45;&gt;Node7 -->
<g id="edge34_Node000003_Node000007" class="edge">
<title>Node3&#45;&gt;Node7</title>
<g id="a_edge34_Node000003_Node000007"><a xlink:title=" ">
<path fill="none" stroke="#63b8ff" d="M354.62,-221.89C419.51,-210.78 525.38,-185.19 598.91,-129.75 616.15,-116.75 631.99,-97.72 642.39,-83.81"/>
<polygon fill="#63b8ff" stroke="#63b8ff" points="645.04,-86.13 648.06,-75.98 639.36,-82.03 645.04,-86.13"/>
</a>
</g>
</g>
<!-- Node14 -->
<g id="Node000014" class="node">
<title>Node14</title>
<g id="a_Node000014"><a xlink:href="_types_8hpp.html" target="_top" xlink:title=" ">
<polygon fill="white" stroke="#666666" points="412.41,-129.75 351.41,-129.75 351.41,-110.5 412.41,-110.5 412.41,-129.75"/>
<text xml:space="preserve" text-anchor="middle" x="381.91" y="-116.25" font-family="Helvetica,sans-Serif" font-size="10.00">Types.hpp</text>
</a>
</g>
</g>
<!-- Node3&#45;&gt;Node14 -->
<g id="edge33_Node000003_Node000014" class="edge">
<title>Node3&#45;&gt;Node14</title>
<g id="a_edge33_Node000003_Node000014"><a xlink:title=" ">
<path fill="none" stroke="#63b8ff" d="M301.13,-220.88C307.51,-208.1 320.41,-183.9 334.91,-165.75 343.04,-155.57 353.43,-145.47 362.37,-137.46"/>
<polygon fill="#63b8ff" stroke="#63b8ff" points="364.61,-140.15 369.87,-130.95 360.02,-134.86 364.61,-140.15"/>
</a>
</g>
</g>
<!-- Node24 -->
<g id="Node000024" class="node">
<title>Node24</title>
<g id="a_Node000024"><a xlink:title=" ">
<polygon fill="#e0e0e0" stroke="#999999" points="244.41,-19.25 201.41,-19.25 201.41,0 244.41,0 244.41,-19.25"/>
<text xml:space="preserve" text-anchor="middle" x="222.91" y="-5.75" font-family="Helvetica,sans-Serif" font-size="10.00">vector</text>
</a>
</g>
</g>
<!-- Node3&#45;&gt;Node24 -->
<g id="edge38_Node000003_Node000024" class="edge">
<title>Node3&#45;&gt;Node24</title>
<g id="a_edge38_Node000003_Node000024"><a xlink:title=" ">
<path fill="none" stroke="#63b8ff" d="M239.06,-228.16C169.98,-225.04 60.5,-215.32 34.91,-185 -0.2,-143.41 -42.88,-173.95 99.91,-55.25 125.93,-33.62 163.31,-22.05 190.02,-16.16"/>
<polygon fill="#63b8ff" stroke="#63b8ff" points="190.53,-19.63 199.63,-14.21 189.13,-12.77 190.53,-19.63"/>
</a>
</g>
</g>
<!-- Node26 -->
<g id="Node000026" class="node">
<title>Node26</title>
<g id="a_Node000026"><a xlink:title=" ">
<polygon fill="#e0e0e0" stroke="#999999" points="294.53,-129.75 255.28,-129.75 255.28,-110.5 294.53,-110.5 294.53,-129.75"/>
<text xml:space="preserve" text-anchor="middle" x="274.91" y="-116.25" font-family="Helvetica,sans-Serif" font-size="10.00">utility</text>
</a>
</g>
</g>
<!-- Node3&#45;&gt;Node26 -->
<g id="edge37_Node000003_Node000026" class="edge">
<title>Node3&#45;&gt;Node26</title>
<g id="a_edge37_Node000003_Node000026"><a xlink:title=" ">
<path fill="none" stroke="#63b8ff" d="M295.11,-220.75C291.61,-203.5 283.82,-165.08 279,-141.31"/>
<polygon fill="#63b8ff" stroke="#63b8ff" points="282.45,-140.72 277.03,-131.61 275.59,-142.11 282.45,-140.72"/>
</a>
</g>
</g>
<!-- Node27 -->
<g id="Node000027" class="node">
<title>Node27</title>
<g id="a_Node000027"><a xlink:title=" ">
<polygon fill="#e0e0e0" stroke="#999999" points="389.53,-185 344.28,-185 344.28,-165.75 389.53,-165.75 389.53,-185"/>
<text xml:space="preserve" text-anchor="middle" x="366.91" y="-171.5" font-family="Helvetica,sans-Serif" font-size="10.00">cstdint</text>
</a>
</g>
</g>
<!-- Node3&#45;&gt;Node27 -->
<g id="edge35_Node000003_Node000027" class="edge">
<title>Node3&#45;&gt;Node27</title>
<g id="a_edge35_Node000003_Node000027"><a xlink:title=" ">
<path fill="none" stroke="#63b8ff" d="M308.78,-220.59C319,-212.82 333.98,-201.42 346.17,-192.15"/>
<polygon fill="#63b8ff" stroke="#63b8ff" points="348.16,-195.03 354,-186.19 343.93,-189.46 348.16,-195.03"/>
</a>
</g>
</g>
<!-- Node28 -->
<g id="Node000028" class="node">
<title>Node28</title>
<g id="a_Node000028"><a xlink:title=" ">
<polygon fill="#e0e0e0" stroke="#999999" points="89.91,-185 43.91,-185 43.91,-165.75 89.91,-165.75 89.91,-185"/>
<text xml:space="preserve" text-anchor="middle" x="66.91" y="-171.5" font-family="Helvetica,sans-Serif" font-size="10.00">iterator</text>
</a>
</g>
</g>
<!-- Node3&#45;&gt;Node28 -->
<g id="edge36_Node000003_Node000028" class="edge">
<title>Node3&#45;&gt;Node28</title>
<g id="a_edge36_Node000003_Node000028"><a xlink:title=" ">
<path fill="none" stroke="#63b8ff" d="M254.3,-220.56C216.48,-212.39 159.44,-199.79 101.18,-185.49"/>
<polygon fill="#63b8ff" stroke="#63b8ff" points="102.31,-182.16 91.77,-183.16 100.64,-188.96 102.31,-182.16"/>
</a>
</g>
</g>
<!-- Node6&#45;&gt;Node7 -->
<g id="edge6_Node000006_Node000007" class="edge">
<title>Node6&#45;&gt;Node7</title>
<g id="a_edge6_Node000006_Node000007"><a xlink:title=" ">
<path fill="none" stroke="#63b8ff" d="M472.8,-166.34C499.63,-158.89 538.52,-146.44 569.91,-129.75 594.7,-116.56 620.05,-96.49 636.53,-82.37"/>
<polygon fill="#63b8ff" stroke="#63b8ff" points="638.78,-85.06 644,-75.84 634.17,-79.79 638.78,-85.06"/>
</a>
</g>
</g>
<!-- Node11 -->
<g id="Node000011" class="node">
<title>Node11</title>
<g id="a_Node000011"><a xlink:href="_optional_8hpp.html" target="_top" xlink:title=" ">
<polygon fill="white" stroke="#666666" points="743.28,-129.75 672.53,-129.75 672.53,-110.5 743.28,-110.5 743.28,-129.75"/>
<text xml:space="preserve" text-anchor="middle" x="707.91" y="-116.25" font-family="Helvetica,sans-Serif" font-size="10.00">Optional.hpp</text>
</a>
</g>
</g>
<!-- Node6&#45;&gt;Node11 -->
<g id="edge10_Node000006_Node000011" class="edge">
<title>Node6&#45;&gt;Node11</title>
<g id="a_edge10_Node000006_Node000011"><a xlink:title=" ">
<path fill="none" stroke="#63b8ff" d="M472.85,-168C519.63,-158.67 607.07,-141.24 661.11,-130.46"/>
<polygon fill="#63b8ff" stroke="#63b8ff" points="661.5,-133.95 670.62,-128.56 660.13,-127.08 661.5,-133.95"/>
</a>
</g>
</g>
<!-- Node6&#45;&gt;Node14 -->
<g id="edge14_Node000006_Node000014" class="edge">
<title>Node6&#45;&gt;Node14</title>
<g id="a_edge14_Node000006_Node000014"><a xlink:title=" ">
<path fill="none" stroke="#63b8ff" d="M430.9,-165.34C422.54,-157.8 410.41,-146.85 400.31,-137.73"/>
<polygon fill="#63b8ff" stroke="#63b8ff" points="402.66,-135.14 392.89,-131.04 397.97,-140.34 402.66,-135.14"/>
</a>
</g>
</g>
<!-- Node15 -->
<g id="Node000015" class="node">
<title>Node15</title>
<g id="a_Node000015"><a xlink:title=" ">
<polygon fill="#e0e0e0" stroke="#999999" points="528.78,-74.5 491.03,-74.5 491.03,-55.25 528.78,-55.25 528.78,-74.5"/>
<text xml:space="preserve" text-anchor="middle" x="509.91" y="-61" font-family="Helvetica,sans-Serif" font-size="10.00">array</text>
</a>
</g>
</g>
<!-- Node6&#45;&gt;Node15 -->
<g id="edge29_Node000006_Node000015" class="edge">
<title>Node6&#45;&gt;Node15</title>
<g id="a_edge29_Node000006_Node000015"><a xlink:title=" ">
<path fill="none" stroke="#63b8ff" d="M441.99,-165.48C443.89,-152.52 448.75,-128.08 459.91,-110.5 466.92,-99.45 477.43,-89.49 487,-81.8"/>
<polygon fill="#63b8ff" stroke="#63b8ff" points="489.03,-84.65 494.89,-75.83 484.81,-79.07 489.03,-84.65"/>
</a>
</g>
</g>
<!-- Node17 -->
<g id="Node000017" class="node">
<title>Node17</title>
<g id="a_Node000017"><a xlink:title=" ">
<polygon fill="#e0e0e0" stroke="#999999" points="595.03,-74.5 546.78,-74.5 546.78,-55.25 595.03,-55.25 595.03,-74.5"/>
<text xml:space="preserve" text-anchor="middle" x="570.91" y="-61" font-family="Helvetica,sans-Serif" font-size="10.00">stdint.h</text>
</a>
</g>
</g>
<!-- Node6&#45;&gt;Node17 -->
<g id="edge28_Node000006_Node000017" class="edge">
<title>Node6&#45;&gt;Node17</title>
<g id="a_edge28_Node000006_Node000017"><a xlink:title=" ">
<path fill="none" stroke="#63b8ff" d="M472.72,-168.84C496.97,-163.04 529.56,-151.6 549.91,-129.75 560.99,-117.85 566.23,-99.98 568.71,-86.16"/>
<polygon fill="#63b8ff" stroke="#63b8ff" points="572.15,-86.79 570.08,-76.4 565.22,-85.82 572.15,-86.79"/>
</a>
</g>
</g>
<!-- Node6&#45;&gt;Node24 -->
<g id="edge31_Node000006_Node000024" class="edge">
<title>Node6&#45;&gt;Node24</title>
<g id="a_edge31_Node000006_Node000024"><a xlink:title=" ">
<path fill="none" stroke="#63b8ff" d="M420.05,-165.41C400.07,-156.69 369.16,-142.88 342.91,-129.75 331.47,-124.03 249.95,-84.45 241.91,-74.5 231.77,-61.96 227.04,-44.15 224.84,-30.52"/>
<polygon fill="#63b8ff" stroke="#63b8ff" points="228.35,-30.43 223.62,-20.95 221.41,-31.31 228.35,-30.43"/>
</a>
</g>
</g>
<!-- Node25 -->
<g id="Node000025" class="node">
<title>Node25</title>
<g id="a_Node000025"><a xlink:title=" ">
<polygon fill="#e0e0e0" stroke="#999999" points="541.03,-129.75 468.78,-129.75 468.78,-110.5 541.03,-110.5 541.03,-129.75"/>
<text xml:space="preserve" text-anchor="middle" x="504.91" y="-116.25" font-family="Helvetica,sans-Serif" font-size="10.00">initializer_list</text>
</a>
</g>
</g>
<!-- Node6&#45;&gt;Node25 -->
<g id="edge30_Node000006_Node000025" class="edge">
<title>Node6&#45;&gt;Node25</title>
<g id="a_edge30_Node000006_Node000025"><a xlink:title=" ">
<path fill="none" stroke="#63b8ff" d="M451.76,-165.34C461.01,-157.65 474.53,-146.4 485.62,-137.18"/>
<polygon fill="#63b8ff" stroke="#63b8ff" points="487.6,-140.08 493.05,-130.99 483.12,-134.7 487.6,-140.08"/>
</a>
</g>
</g>
<!-- Node6&#45;&gt;Node26 -->
<g id="edge32_Node000006_Node000026" class="edge">
<title>Node6&#45;&gt;Node26</title>
<g id="a_edge32_Node000006_Node000026"><a xlink:title=" ">
<path fill="none" stroke="#63b8ff" d="M412.75,-165.34C383.06,-155.82 336.42,-140.86 305.75,-131.02"/>
<polygon fill="#63b8ff" stroke="#63b8ff" points="306.88,-127.71 296.29,-127.98 304.74,-134.37 306.88,-127.71"/>
</a>
</g>
</g>
<!-- Node8 -->
<g id="Node000008" class="node">
<title>Node8</title>
<g id="a_Node000008"><a xlink:title=" ">
<polygon fill="#e0e0e0" stroke="#999999" points="678.53,-19.25 627.28,-19.25 627.28,0 678.53,0 678.53,-19.25"/>
<text xml:space="preserve" text-anchor="middle" x="652.91" y="-5.75" font-family="Helvetica,sans-Serif" font-size="10.00">sstream</text>
</a>
</g>
</g>
<!-- Node7&#45;&gt;Node8 -->
<g id="edge7_Node000007_Node000008" class="edge">
<title>Node7&#45;&gt;Node8</title>
<g id="a_edge7_Node000007_Node000008"><a xlink:title=" ">
<path fill="none" stroke="#63b8ff" d="M654.58,-55.08C654.33,-48.49 653.98,-39.21 653.67,-30.82"/>
<polygon fill="#63b8ff" stroke="#63b8ff" points="657.17,-30.98 653.3,-21.12 650.18,-31.25 657.17,-30.98"/>
</a>
</g>
</g>
<!-- Node9 -->
<g id="Node000009" class="node">
<title>Node9</title>
<g id="a_Node000009"><a xlink:title=" ">
<polygon fill="#e0e0e0" stroke="#999999" points="755.28,-19.25 696.53,-19.25 696.53,0 755.28,0 755.28,-19.25"/>
<text xml:space="preserve" text-anchor="middle" x="725.91" y="-5.75" font-family="Helvetica,sans-Serif" font-size="10.00">stdexcept</text>
</a>
</g>
</g>
<!-- Node7&#45;&gt;Node9 -->
<g id="edge8_Node000007_Node000009" class="edge">
<title>Node7&#45;&gt;Node9</title>
<g id="a_edge8_Node000007_Node000009"><a xlink:title=" ">
<path fill="none" stroke="#63b8ff" d="M666.95,-54.84C677.32,-47.07 692.51,-35.67 704.88,-26.4"/>
<polygon fill="#63b8ff" stroke="#63b8ff" points="706.93,-29.23 712.83,-20.43 702.73,-23.63 706.93,-29.23"/>
</a>
</g>
</g>
<!-- Node10 -->
<g id="Node000010" class="node">
<title>Node10</title>
<g id="a_Node000010"><a xlink:title=" ">
<polygon fill="#e0e0e0" stroke="#999999" points="606.91,-19.25 566.91,-19.25 566.91,0 606.91,0 606.91,-19.25"/>
<text xml:space="preserve" text-anchor="middle" x="586.91" y="-5.75" font-family="Helvetica,sans-Serif" font-size="10.00">string</text>
</a>
</g>
</g>
<!-- Node7&#45;&gt;Node10 -->
<g id="edge9_Node000007_Node000010" class="edge">
<title>Node7&#45;&gt;Node10</title>
<g id="a_edge9_Node000007_Node000010"><a xlink:title=" ">
<path fill="none" stroke="#63b8ff" d="M643.37,-54.84C633.45,-47.07 618.89,-35.67 607.05,-26.4"/>
<polygon fill="#63b8ff" stroke="#63b8ff" points="609.49,-23.87 599.46,-20.46 605.18,-29.38 609.49,-23.87"/>
</a>
</g>
</g>
<!-- Node11&#45;&gt;Node7 -->
<g id="edge11_Node000011_Node000007" class="edge">
<title>Node11&#45;&gt;Node7</title>
<g id="a_edge11_Node000011_Node000007"><a xlink:title=" ">
<path fill="none" stroke="#63b8ff" d="M699.16,-110.33C691.76,-102.9 680.95,-92.04 671.86,-82.91"/>
<polygon fill="#63b8ff" stroke="#63b8ff" points="674.45,-80.55 664.92,-75.93 669.49,-85.49 674.45,-80.55"/>
</a>
</g>
</g>
<!-- Node11&#45;&gt;Node12 -->
<g id="edge12_Node000011_Node000012" class="edge">
<title>Node11&#45;&gt;Node12</title>
<g id="a_edge12_Node000011_Node000012"><a xlink:title=" ">
<path fill="none" stroke="#63b8ff" d="M712.86,-110.33C716.79,-103.36 722.42,-93.37 727.35,-84.62"/>
<polygon fill="#63b8ff" stroke="#63b8ff" points="730.24,-86.61 732.1,-76.18 724.14,-83.17 730.24,-86.61"/>
</a>
</g>
</g>
<!-- Node13 -->
<g id="Node000013" class="node">
<title>Node13</title>
<g id="a_Node000013"><a xlink:title=" ">
<polygon fill="#e0e0e0" stroke="#999999" points="840.78,-74.5 779.03,-74.5 779.03,-55.25 840.78,-55.25 840.78,-74.5"/>
<text xml:space="preserve" text-anchor="middle" x="809.91" y="-61" font-family="Helvetica,sans-Serif" font-size="10.00">type_traits</text>
</a>
</g>
</g>
<!-- Node11&#45;&gt;Node13 -->
<g id="edge13_Node000011_Node000013" class="edge">
<title>Node11&#45;&gt;Node13</title>
<g id="a_edge13_Node000011_Node000013"><a xlink:title=" ">
<path fill="none" stroke="#63b8ff" d="M725.21,-110.09C740.89,-101.91 764.26,-89.71 782.48,-80.19"/>
<polygon fill="#63b8ff" stroke="#63b8ff" points="783.93,-83.38 791.18,-75.65 780.69,-77.18 783.93,-83.38"/>
</a>
</g>
</g>
<!-- Node14&#45;&gt;Node4 -->
<g id="edge27_Node000014_Node000004" class="edge">
<title>Node14&#45;&gt;Node4</title>
<g id="a_edge27_Node000014_Node000004"><a xlink:title=" ">
<path fill="none" stroke="#63b8ff" d="M351.37,-112.05C313.29,-103.24 247.68,-88.05 202.16,-77.51"/>
<polygon fill="#63b8ff" stroke="#63b8ff" points="203.05,-74.12 192.52,-75.28 201.48,-80.94 203.05,-74.12"/>
</a>
</g>
</g>
<!-- Node14&#45;&gt;Node7 -->
<g id="edge26_Node000014_Node000007" class="edge">
<title>Node14&#45;&gt;Node7</title>
<g id="a_edge26_Node000014_Node000007"><a xlink:title=" ">
<path fill="none" stroke="#63b8ff" d="M412.69,-113.12C458.61,-104.16 545.67,-87.18 601.94,-76.21"/>
<polygon fill="#63b8ff" stroke="#63b8ff" points="602.48,-79.67 611.62,-74.32 601.14,-72.8 602.48,-79.67"/>
</a>
</g>
</g>
<!-- Node14&#45;&gt;Node15 -->
<g id="edge15_Node000014_Node000015" class="edge">
<title>Node14&#45;&gt;Node15</title>
<g id="a_edge15_Node000014_Node000015"><a xlink:title=" ">
<path fill="none" stroke="#63b8ff" d="M403.62,-110.09C424.68,-101.33 456.79,-87.97 480.21,-78.23"/>
<polygon fill="#63b8ff" stroke="#63b8ff" points="481.32,-81.56 489.21,-74.49 478.63,-75.1 481.32,-81.56"/>
</a>
</g>
</g>
<!-- Node16 -->
<g id="Node000016" class="node">
<title>Node16</title>
<g id="a_Node000016"><a xlink:title=" ">
<polygon fill="#e0e0e0" stroke="#999999" points="372.91,-74.5 314.91,-74.5 314.91,-55.25 372.91,-55.25 372.91,-74.5"/>
<text xml:space="preserve" text-anchor="middle" x="343.91" y="-61" font-family="Helvetica,sans-Serif" font-size="10.00">functional</text>
</a>
</g>
</g>
<!-- Node14&#45;&gt;Node16 -->
<g id="edge16_Node000014_Node000016" class="edge">
<title>Node14&#45;&gt;Node16</title>
<g id="a_edge16_Node000014_Node000016"><a xlink:title=" ">
<path fill="none" stroke="#63b8ff" d="M375.63,-110.33C370.55,-103.21 363.21,-92.93 356.88,-84.05"/>
<polygon fill="#63b8ff" stroke="#63b8ff" points="359.86,-82.2 351.2,-76.09 354.16,-86.26 359.86,-82.2"/>
</a>
</g>
</g>
<!-- Node14&#45;&gt;Node17 -->
<g id="edge17_Node000014_Node000017" class="edge">
<title>Node14&#45;&gt;Node17</title>
<g id="a_edge17_Node000014_Node000017"><a xlink:title=" ">
<path fill="none" stroke="#63b8ff" d="M412.69,-110.45C446.39,-100.96 500.31,-85.76 535.67,-75.8"/>
<polygon fill="#63b8ff" stroke="#63b8ff" points="536.32,-79.26 545,-73.18 534.42,-72.52 536.32,-79.26"/>
</a>
</g>
</g>
<!-- Node18 -->
<g id="Node000018" class="node">
<title>Node18</title>
<g id="a_Node000018"><a xlink:title=" ">
<polygon fill="#e0e0e0" stroke="#999999" points="296.53,-74.5 251.28,-74.5 251.28,-55.25 296.53,-55.25 296.53,-74.5"/>
<text xml:space="preserve" text-anchor="middle" x="273.91" y="-61" font-family="Helvetica,sans-Serif" font-size="10.00">chrono</text>
</a>
</g>
</g>
<!-- Node14&#45;&gt;Node18 -->
<g id="edge18_Node000014_Node000018" class="edge">
<title>Node14&#45;&gt;Node18</title>
<g id="a_edge18_Node000014_Node000018"><a xlink:title=" ">
<path fill="none" stroke="#63b8ff" d="M363.59,-110.09C346.83,-101.83 321.78,-89.48 302.41,-79.93"/>
<polygon fill="#63b8ff" stroke="#63b8ff" points="304.19,-76.9 293.68,-75.62 301.1,-83.18 304.19,-76.9"/>
</a>
</g>
</g>
<!-- Node19 -->
<g id="Node000019" class="node">
<title>Node19</title>
<g id="a_Node000019"><a xlink:href="_backend_id_8hpp.html" target="_top" xlink:title=" ">
<polygon fill="white" stroke="#666666" points="472.53,-74.5 391.28,-74.5 391.28,-55.25 472.53,-55.25 472.53,-74.5"/>
<text xml:space="preserve" text-anchor="middle" x="431.91" y="-61" font-family="Helvetica,sans-Serif" font-size="10.00">BackendId.hpp</text>
</a>
</g>
</g>
<!-- Node14&#45;&gt;Node19 -->
<g id="edge19_Node000014_Node000019" class="edge">
<title>Node14&#45;&gt;Node19</title>
<g id="a_edge19_Node000014_Node000019"><a xlink:title=" ">
<path fill="none" stroke="#63b8ff" d="M390.16,-110.33C397.07,-102.98 407.13,-92.26 415.65,-83.19"/>
<polygon fill="#63b8ff" stroke="#63b8ff" points="418.14,-85.65 422.44,-75.96 413.04,-80.86 418.14,-85.65"/>
</a>
</g>
</g>
<!-- Node19&#45;&gt;Node10 -->
<g id="edge23_Node000019_Node000010" class="edge">
<title>Node19&#45;&gt;Node10</title>
<g id="a_edge23_Node000019_Node000010"><a xlink:title=" ">
<path fill="none" stroke="#63b8ff" d="M458.2,-54.84C485.19,-45.57 527.19,-31.14 555.81,-21.31"/>
<polygon fill="#63b8ff" stroke="#63b8ff" points="556.69,-24.71 565.01,-18.15 554.41,-18.09 556.69,-24.71"/>
</a>
</g>
</g>
<!-- Node20 -->
<g id="Node000020" class="node">
<title>Node20</title>
<g id="a_Node000020"><a xlink:title=" ">
<polygon fill="#e0e0e0" stroke="#999999" points="331.53,-19.25 280.28,-19.25 280.28,0 331.53,0 331.53,-19.25"/>
<text xml:space="preserve" text-anchor="middle" x="305.91" y="-5.75" font-family="Helvetica,sans-Serif" font-size="10.00">memory</text>
</a>
</g>
</g>
<!-- Node19&#45;&gt;Node20 -->
<g id="edge20_Node000019_Node000020" class="edge">
<title>Node19&#45;&gt;Node20</title>
<g id="a_edge20_Node000019_Node000020"><a xlink:title=" ">
<path fill="none" stroke="#63b8ff" d="M410.53,-54.84C390.62,-46.43 360.67,-33.77 337.91,-24.15"/>
<polygon fill="#63b8ff" stroke="#63b8ff" points="339.35,-20.96 328.78,-20.29 336.63,-27.41 339.35,-20.96"/>
</a>
</g>
</g>
<!-- Node21 -->
<g id="Node000021" class="node">
<title>Node21</title>
<g id="a_Node000021"><a xlink:title=" ">
<polygon fill="#e0e0e0" stroke="#999999" points="400.53,-19.25 349.28,-19.25 349.28,0 400.53,0 400.53,-19.25"/>
<text xml:space="preserve" text-anchor="middle" x="374.91" y="-5.75" font-family="Helvetica,sans-Serif" font-size="10.00">ostream</text>
</a>
</g>
</g>
<!-- Node19&#45;&gt;Node21 -->
<g id="edge21_Node000019_Node000021" class="edge">
<title>Node19&#45;&gt;Node21</title>
<g id="a_edge21_Node000019_Node000021"><a xlink:title=" ">
<path fill="none" stroke="#63b8ff" d="M422.24,-54.84C414.16,-47.3 402.44,-36.35 392.68,-27.23"/>
<polygon fill="#63b8ff" stroke="#63b8ff" points="395.24,-24.83 385.54,-20.56 390.46,-29.94 395.24,-24.83"/>
</a>
</g>
</g>
<!-- Node22 -->
<g id="Node000022" class="node">
<title>Node22</title>
<g id="a_Node000022"><a xlink:title=" ">
<polygon fill="#e0e0e0" stroke="#999999" points="447.66,-19.25 418.16,-19.25 418.16,0 447.66,0 447.66,-19.25"/>
<text xml:space="preserve" text-anchor="middle" x="432.91" y="-5.75" font-family="Helvetica,sans-Serif" font-size="10.00">set</text>
</a>
</g>
</g>
<!-- Node19&#45;&gt;Node22 -->
<g id="edge22_Node000019_Node000022" class="edge">
<title>Node19&#45;&gt;Node22</title>
<g id="a_edge22_Node000019_Node000022"><a xlink:title=" ">
<path fill="none" stroke="#63b8ff" d="M432.07,-55.08C432.19,-48.57 432.37,-39.42 432.52,-31.12"/>
<polygon fill="#63b8ff" stroke="#63b8ff" points="436.02,-31.19 432.71,-21.12 429.02,-31.05 436.02,-31.19"/>
</a>
</g>
</g>
<!-- Node23 -->
<g id="Node000023" class="node">
<title>Node23</title>
<g id="a_Node000023"><a xlink:title=" ">
<polygon fill="#e0e0e0" stroke="#999999" points="543.66,-19.25 466.16,-19.25 466.16,0 543.66,0 543.66,-19.25"/>
<text xml:space="preserve" text-anchor="middle" x="504.91" y="-5.75" font-family="Helvetica,sans-Serif" font-size="10.00">unordered_set</text>
</a>
</g>
</g>
<!-- Node19&#45;&gt;Node23 -->
<g id="edge24_Node000019_Node000023" class="edge">
<title>Node19&#45;&gt;Node23</title>
<g id="a_edge24_Node000019_Node000023"><a xlink:title=" ">
<path fill="none" stroke="#63b8ff" d="M444.29,-54.84C455.05,-46.99 470.88,-35.45 483.66,-26.12"/>
<polygon fill="#63b8ff" stroke="#63b8ff" points="485.47,-29.14 491.48,-20.42 481.34,-23.48 485.47,-29.14"/>
</a>
</g>
</g>
<!-- Node19&#45;&gt;Node24 -->
<g id="edge25_Node000019_Node000024" class="edge">
<title>Node19&#45;&gt;Node24</title>
<g id="a_edge25_Node000019_Node000024"><a xlink:title=" ">
<path fill="none" stroke="#63b8ff" d="M396.45,-54.84C357.09,-44.81 294.05,-28.75 255.76,-19"/>
<polygon fill="#63b8ff" stroke="#63b8ff" points="256.75,-15.64 246.2,-16.56 255.02,-22.42 256.75,-15.64"/>
</a>
</g>
</g>
<!-- Node29&#45;&gt;Node13 -->
<g id="edge43_Node000029_Node000013" class="edge">
<title>Node29&#45;&gt;Node13</title>
<g id="a_edge43_Node000029_Node000013"><a xlink:title=" ">
<path fill="none" stroke="#63b8ff" d="M861.14,-276.02C851.28,-267.88 837.76,-254.9 830.91,-240.25 806.84,-188.8 806.68,-119.9 808.38,-86.19"/>
<polygon fill="#63b8ff" stroke="#63b8ff" points="811.87,-86.45 809,-76.25 804.88,-86.01 811.87,-86.45"/>
</a>
</g>
</g>
<!-- Node30 -->
<g id="Node000030" class="node">
<title>Node30</title>
<g id="a_Node000030"><a xlink:href="_assert_8hpp.html" target="_top" xlink:title=" ">
<polygon fill="white" stroke="#666666" points="903.53,-240.25 840.28,-240.25 840.28,-221 903.53,-221 903.53,-240.25"/>
<text xml:space="preserve" text-anchor="middle" x="871.91" y="-226.75" font-family="Helvetica,sans-Serif" font-size="10.00">Assert.hpp</text>
</a>
</g>
</g>
<!-- Node29&#45;&gt;Node30 -->
<g id="edge41_Node000029_Node000030" class="edge">
<title>Node29&#45;&gt;Node30</title>
<g id="a_edge41_Node000029_Node000030"><a xlink:title=" ">
<path fill="none" stroke="#63b8ff" d="M872.74,-276.08C872.62,-269.57 872.45,-260.42 872.29,-252.12"/>
<polygon fill="#63b8ff" stroke="#63b8ff" points="875.79,-252.05 872.1,-242.12 868.79,-252.19 875.79,-252.05"/>
</a>
</g>
</g>
<!-- Node32 -->
<g id="Node000032" class="node">
<title>Node32</title>
<g id="a_Node000032"><a xlink:title=" ">
<polygon fill="#e0e0e0" stroke="#999999" points="960.53,-240.25 921.28,-240.25 921.28,-221 960.53,-221 960.53,-240.25"/>
<text xml:space="preserve" text-anchor="middle" x="940.91" y="-226.75" font-family="Helvetica,sans-Serif" font-size="10.00">limits</text>
</a>
</g>
</g>
<!-- Node29&#45;&gt;Node32 -->
<g id="edge44_Node000029_Node000032" class="edge">
<title>Node29&#45;&gt;Node32</title>
<g id="a_edge44_Node000029_Node000032"><a xlink:title=" ">
<path fill="none" stroke="#63b8ff" d="M884.44,-275.84C894.37,-268.07 908.92,-256.67 920.76,-247.4"/>
<polygon fill="#63b8ff" stroke="#63b8ff" points="922.64,-250.38 928.35,-241.46 918.32,-244.87 922.64,-250.38"/>
</a>
</g>
</g>
<!-- Node31 -->
<g id="Node000031" class="node">
<title>Node31</title>
<g id="a_Node000031"><a xlink:title=" ">
<polygon fill="#e0e0e0" stroke="#999999" points="896.03,-185 847.78,-185 847.78,-165.75 896.03,-165.75 896.03,-185"/>
<text xml:space="preserve" text-anchor="middle" x="871.91" y="-171.5" font-family="Helvetica,sans-Serif" font-size="10.00">cassert</text>
</a>
</g>
</g>
<!-- Node30&#45;&gt;Node31 -->
<g id="edge42_Node000030_Node000031" class="edge">
<title>Node30&#45;&gt;Node31</title>
<g id="a_edge42_Node000030_Node000031"><a xlink:title=" ">
<path fill="none" stroke="#63b8ff" d="M871.91,-220.83C871.91,-214.32 871.91,-205.17 871.91,-196.87"/>
<polygon fill="#63b8ff" stroke="#63b8ff" points="875.41,-196.87 871.91,-186.87 868.41,-196.87 875.41,-196.87"/>
</a>
</g>
</g>
</g>
</svg>
