<?xml version="1.0" encoding="UTF-8" standalone="no"?>
<!DOCTYPE svg PUBLIC "-//W3C//DTD SVG 1.1//EN"
 "http://www.w3.org/Graphics/SVG/1.1/DTD/svg11.dtd">
<!-- Generated by graphviz version 14.0.2 (20251019.1705)
 -->
<!-- Title: include/armnn/backends/SubgraphView.hpp Pages: 1 -->
<svg width="364pt" height="94pt"
 viewBox="0.00 0.00 364.00 94.00" xmlns="http://www.w3.org/2000/svg" xmlns:xlink="http://www.w3.org/1999/xlink">
<g id="graph0" class="graph" transform="scale(1 1) rotate(0) translate(4 89.75)">
<title>include/armnn/backends/SubgraphView.hpp</title>
<!-- Node1 -->
<g id="Node000001" class="node">
<title>Node1</title>
<g id="a_Node000001"><a xlink:title=" ">
<polygon fill="#999999" stroke="#666666" points="269.38,-85.75 147.62,-85.75 147.62,-55.25 269.38,-55.25 269.38,-85.75"/>
<text xml:space="preserve" text-anchor="start" x="155.62" y="-72.25" font-family="Helvetica,sans-Serif" font-size="10.00">include/armnn/backends</text>
<text xml:space="preserve" text-anchor="middle" x="208.5" y="-61" font-family="Helvetica,sans-Serif" font-size="10.00">/SubgraphView.hpp</text>
</a>
</g>
</g>
<!-- Node2 -->
<g id="Node000002" class="node">
<title>Node2</title>
<g id="a_Node000002"><a xlink:href="_deprecated_8hpp.html" target="_top" xlink:title=" ">
<polygon fill="white" stroke="#666666" points="115,-19.25 0,-19.25 0,0 115,0 115,-19.25"/>
<text xml:space="preserve" text-anchor="middle" x="57.5" y="-5.75" font-family="Helvetica,sans-Serif" font-size="10.00">armnn/Deprecated.hpp</text>
</a>
</g>
</g>
<!-- Node1&#45;&gt;Node2 -->
<g id="edge1_Node000001_Node000002" class="edge">
<title>Node1&#45;&gt;Node2</title>
<g id="a_edge1_Node000001_Node000002"><a xlink:title=" ">
<path fill="none" stroke="#63b8ff" d="M170.79,-54.8C146.35,-45.27 114.81,-32.97 91.21,-23.77"/>
<polygon fill="#63b8ff" stroke="#63b8ff" points="92.66,-20.58 82.07,-20.2 90.11,-27.1 92.66,-20.58"/>
</a>
</g>
</g>
<!-- Node3 -->
<g id="Node000003" class="node">
<title>Node3</title>
<g id="a_Node000003"><a xlink:title=" ">
<polygon fill="#e0e0e0" stroke="#999999" points="176,-19.25 133,-19.25 133,0 176,0 176,-19.25"/>
<text xml:space="preserve" text-anchor="middle" x="154.5" y="-5.75" font-family="Helvetica,sans-Serif" font-size="10.00">vector</text>
</a>
</g>
</g>
<!-- Node1&#45;&gt;Node3 -->
<g id="edge2_Node000001_Node000003" class="edge">
<title>Node1&#45;&gt;Node3</title>
<g id="a_edge2_Node000001_Node000003"><a xlink:title=" ">
<path fill="none" stroke="#63b8ff" d="M195.15,-54.95C187.72,-46.84 178.42,-36.7 170.59,-28.16"/>
<polygon fill="#63b8ff" stroke="#63b8ff" points="173.19,-25.82 163.85,-20.82 168.03,-30.55 173.19,-25.82"/>
</a>
</g>
</g>
<!-- Node4 -->
<g id="Node000004" class="node">
<title>Node4</title>
<g id="a_Node000004"><a xlink:title=" ">
<polygon fill="#e0e0e0" stroke="#999999" points="222.9,-19.25 194.1,-19.25 194.1,0 222.9,0 222.9,-19.25"/>
<text xml:space="preserve" text-anchor="middle" x="208.5" y="-5.75" font-family="Helvetica,sans-Serif" font-size="10.00">list</text>
</a>
</g>
</g>
<!-- Node1&#45;&gt;Node4 -->
<g id="edge3_Node000001_Node000004" class="edge">
<title>Node1&#45;&gt;Node4</title>
<g id="a_edge3_Node000001_Node000004"><a xlink:title=" ">
<path fill="none" stroke="#63b8ff" d="M208.5,-54.95C208.5,-47.71 208.5,-38.84 208.5,-30.94"/>
<polygon fill="#63b8ff" stroke="#63b8ff" points="212,-31.21 208.5,-21.21 205,-31.21 212,-31.21"/>
</a>
</g>
</g>
<!-- Node5 -->
<g id="Node000005" class="node">
<title>Node5</title>
<g id="a_Node000005"><a xlink:title=" ">
<polygon fill="#e0e0e0" stroke="#999999" points="286.5,-19.25 240.5,-19.25 240.5,0 286.5,0 286.5,-19.25"/>
<text xml:space="preserve" text-anchor="middle" x="263.5" y="-5.75" font-family="Helvetica,sans-Serif" font-size="10.00">iterator</text>
</a>
</g>
</g>
<!-- Node1&#45;&gt;Node5 -->
<g id="edge4_Node000001_Node000005" class="edge">
<title>Node1&#45;&gt;Node5</title>
<g id="a_edge4_Node000001_Node000005"><a xlink:title=" ">
<path fill="none" stroke="#63b8ff" d="M222.1,-54.95C229.74,-46.76 239.34,-36.48 247.37,-27.89"/>
<polygon fill="#63b8ff" stroke="#63b8ff" points="249.72,-30.5 253.99,-20.81 244.6,-25.73 249.72,-30.5"/>
</a>
</g>
</g>
<!-- Node6 -->
<g id="Node000006" class="node">
<title>Node6</title>
<g id="a_Node000006"><a xlink:title=" ">
<polygon fill="#e0e0e0" stroke="#999999" points="356.12,-19.25 304.88,-19.25 304.88,0 356.12,0 356.12,-19.25"/>
<text xml:space="preserve" text-anchor="middle" x="330.5" y="-5.75" font-family="Helvetica,sans-Serif" font-size="10.00">memory</text>
</a>
</g>
</g>
<!-- Node1&#45;&gt;Node6 -->
<g id="edge5_Node000001_Node000006" class="edge">
<title>Node1&#45;&gt;Node6</title>
<g id="a_edge5_Node000001_Node000006"><a xlink:title=" ">
<path fill="none" stroke="#63b8ff" d="M238.97,-54.8C258.09,-45.57 282.59,-33.75 301.43,-24.65"/>
<polygon fill="#63b8ff" stroke="#63b8ff" points="302.94,-27.81 310.43,-20.31 299.9,-21.51 302.94,-27.81"/>
</a>
</g>
</g>
</g>
</svg>
