<?xml version="1.0" encoding="UTF-8" standalone="no"?>
<!DOCTYPE svg PUBLIC "-//W3C//DTD SVG 1.1//EN"
 "http://www.w3.org/Graphics/SVG/1.1/DTD/svg11.dtd">
<!-- Generated by graphviz version 14.0.2 (20251019.1705)
 -->
<!-- Title: src/armnn/SubgraphViewSelector.hpp Pages: 1 -->
<svg width="732pt" height="160pt"
 viewBox="0.00 0.00 732.00 160.00" xmlns="http://www.w3.org/2000/svg" xmlns:xlink="http://www.w3.org/1999/xlink">
<g id="graph0" class="graph" transform="scale(1 1) rotate(0) translate(4 156.25)">
<title>src/armnn/SubgraphViewSelector.hpp</title>
<!-- Node1 -->
<g id="Node000001" class="node">
<title>Node1</title>
<g id="a_Node000001"><a xlink:title=" ">
<polygon fill="#999999" stroke="#666666" points="471.75,-152.25 292.25,-152.25 292.25,-133 471.75,-133 471.75,-152.25"/>
<text xml:space="preserve" text-anchor="middle" x="382" y="-138.75" font-family="Helvetica,sans-Serif" font-size="10.00">src/armnn/SubgraphViewSelector.hpp</text>
</a>
</g>
</g>
<!-- Node2 -->
<g id="Node000002" class="node">
<title>Node2</title>
<g id="a_Node000002"><a xlink:href="_network_8cpp.html" target="_top" xlink:title=" ">
<polygon fill="white" stroke="#666666" points="118,-91.38 0,-91.38 0,-72.12 118,-72.12 118,-91.38"/>
<text xml:space="preserve" text-anchor="middle" x="59" y="-77.88" font-family="Helvetica,sans-Serif" font-size="10.00">src/armnn/Network.cpp</text>
</a>
</g>
</g>
<!-- Node1&#45;&gt;Node2 -->
<g id="edge1_Node000001_Node000002" class="edge">
<title>Node1&#45;&gt;Node2</title>
<g id="a_edge1_Node000001_Node000002"><a xlink:title=" ">
<path fill="none" stroke="#63b8ff" d="M315.88,-130.68C264.34,-121.99 191.01,-109.3 127,-97 118.71,-95.41 109.87,-93.62 101.4,-91.86"/>
<polygon fill="#63b8ff" stroke="#63b8ff" points="315.25,-134.12 325.69,-132.32 316.41,-127.22 315.25,-134.12"/>
</a>
</g>
</g>
<!-- Node3 -->
<g id="Node000003" class="node">
<title>Node3</title>
<g id="a_Node000003"><a xlink:href="_network_utils_8cpp.html" target="_top" xlink:title=" ">
<polygon fill="white" stroke="#666666" points="274.12,-91.38 135.88,-91.38 135.88,-72.12 274.12,-72.12 274.12,-91.38"/>
<text xml:space="preserve" text-anchor="middle" x="205" y="-77.88" font-family="Helvetica,sans-Serif" font-size="10.00">src/armnn/NetworkUtils.cpp</text>
</a>
</g>
</g>
<!-- Node1&#45;&gt;Node3 -->
<g id="edge2_Node000001_Node000003" class="edge">
<title>Node1&#45;&gt;Node3</title>
<g id="a_edge2_Node000001_Node000003"><a xlink:title=" ">
<path fill="none" stroke="#63b8ff" d="M343.94,-128.97C310.35,-117.79 262.2,-101.77 232.3,-91.83"/>
<polygon fill="#63b8ff" stroke="#63b8ff" points="342.7,-132.24 353.3,-132.08 344.91,-125.6 342.7,-132.24"/>
</a>
</g>
</g>
<!-- Node4 -->
<g id="Node000004" class="node">
<title>Node4</title>
<g id="a_Node000004"><a xlink:href="_subgraph_view_selector_8cpp.html" target="_top" xlink:title=" ">
<polygon fill="white" stroke="#666666" points="471.75,-91.38 292.25,-91.38 292.25,-72.12 471.75,-72.12 471.75,-91.38"/>
<text xml:space="preserve" text-anchor="middle" x="382" y="-77.88" font-family="Helvetica,sans-Serif" font-size="10.00">src/armnn/SubgraphViewSelector.cpp</text>
</a>
</g>
</g>
<!-- Node1&#45;&gt;Node4 -->
<g id="edge3_Node000001_Node000004" class="edge">
<title>Node1&#45;&gt;Node4</title>
<g id="a_edge3_Node000001_Node000004"><a xlink:title=" ">
<path fill="none" stroke="#63b8ff" d="M382,-121.2C382,-111.17 382,-99.58 382,-91.78"/>
<polygon fill="#63b8ff" stroke="#63b8ff" points="378.5,-121.17 382,-131.17 385.5,-121.17 378.5,-121.17"/>
</a>
</g>
</g>
<!-- Node5 -->
<g id="Node000005" class="node">
<title>Node5</title>
<g id="a_Node000005"><a xlink:href="_common_test_utils_8hpp.html" target="_top" xlink:title=" ">
<polygon fill="white" stroke="#666666" points="606.25,-97 489.75,-97 489.75,-66.5 606.25,-66.5 606.25,-97"/>
<text xml:space="preserve" text-anchor="start" x="497.75" y="-83.5" font-family="Helvetica,sans-Serif" font-size="10.00">src/armnnTestUtils</text>
<text xml:space="preserve" text-anchor="middle" x="548" y="-72.25" font-family="Helvetica,sans-Serif" font-size="10.00">/CommonTestUtils.hpp</text>
</a>
</g>
</g>
<!-- Node1&#45;&gt;Node5 -->
<g id="edge4_Node000001_Node000005" class="edge">
<title>Node1&#45;&gt;Node5</title>
<g id="a_edge4_Node000001_Node000005"><a xlink:title=" ">
<path fill="none" stroke="#63b8ff" d="M418.13,-128.81C444.17,-119.57 479.38,-107.09 506.57,-97.44"/>
<polygon fill="#63b8ff" stroke="#63b8ff" points="417.26,-125.41 409,-132.05 419.59,-132 417.26,-125.41"/>
</a>
</g>
</g>
<!-- Node7 -->
<g id="Node000007" class="node">
<title>Node7</title>
<g id="a_Node000007"><a xlink:href="_mock_backend_8cpp.html" target="_top" xlink:title=" ">
<polygon fill="white" stroke="#666666" points="724,-97 624,-97 624,-66.5 724,-66.5 724,-97"/>
<text xml:space="preserve" text-anchor="start" x="632" y="-83.5" font-family="Helvetica,sans-Serif" font-size="10.00">src/armnnTestUtils</text>
<text xml:space="preserve" text-anchor="middle" x="674" y="-72.25" font-family="Helvetica,sans-Serif" font-size="10.00">/MockBackend.cpp</text>
</a>
</g>
</g>
<!-- Node1&#45;&gt;Node7 -->
<g id="edge6_Node000001_Node000007" class="edge">
<title>Node1&#45;&gt;Node7</title>
<g id="a_edge6_Node000001_Node000007"><a xlink:title=" ">
<path fill="none" stroke="#63b8ff" d="M444.28,-130.53C491.3,-121.95 557.36,-109.47 615,-97 617.78,-96.4 620.63,-95.76 623.51,-95.11"/>
<polygon fill="#63b8ff" stroke="#63b8ff" points="443.75,-127.07 434.54,-132.3 445,-133.96 443.75,-127.07"/>
</a>
</g>
</g>
<!-- Node6 -->
<g id="Node000006" class="node">
<title>Node6</title>
<g id="a_Node000006"><a xlink:href="_common_test_utils_8cpp.html" target="_top" xlink:title=" ">
<polygon fill="white" stroke="#666666" points="606.25,-30.5 489.75,-30.5 489.75,0 606.25,0 606.25,-30.5"/>
<text xml:space="preserve" text-anchor="start" x="497.75" y="-17" font-family="Helvetica,sans-Serif" font-size="10.00">src/armnnTestUtils</text>
<text xml:space="preserve" text-anchor="middle" x="548" y="-5.75" font-family="Helvetica,sans-Serif" font-size="10.00">/CommonTestUtils.cpp</text>
</a>
</g>
</g>
<!-- Node5&#45;&gt;Node6 -->
<g id="edge5_Node000005_Node000006" class="edge">
<title>Node5&#45;&gt;Node6</title>
<g id="a_edge5_Node000005_Node000006"><a xlink:title=" ">
<path fill="none" stroke="#63b8ff" d="M548,-54.81C548,-46.64 548,-37.91 548,-30.83"/>
<polygon fill="#63b8ff" stroke="#63b8ff" points="544.5,-54.6 548,-64.6 551.5,-54.6 544.5,-54.6"/>
</a>
</g>
</g>
</g>
</svg>
