<?xml version="1.0" encoding="UTF-8" standalone="no"?>
<!DOCTYPE svg PUBLIC "-//W3C//DTD SVG 1.1//EN"
 "http://www.w3.org/Graphics/SVG/1.1/DTD/svg11.dtd">
<!-- Generated by graphviz version 14.0.2 (20251019.1705)
 -->
<!-- Title: src/backends/backendsCommon/TensorHandle.cpp Pages: 1 -->
<svg width="1027pt" height="370pt"
 viewBox="0.00 0.00 1027.00 370.00" xmlns="http://www.w3.org/2000/svg" xmlns:xlink="http://www.w3.org/1999/xlink">
<g id="graph0" class="graph" transform="scale(1 1) rotate(0) translate(4 366)">
<title>src/backends/backendsCommon/TensorHandle.cpp</title>
<!-- Node1 -->
<g id="Node000001" class="node">
<title>Node1</title>
<g id="a_Node000001"><a xlink:title=" ">
<polygon fill="#999999" stroke="#666666" points="972.25,-362 813,-362 813,-331.5 972.25,-331.5 972.25,-362"/>
<text xml:space="preserve" text-anchor="start" x="821" y="-348.5" font-family="Helvetica,sans-Serif" font-size="10.00">src/backends/backendsCommon</text>
<text xml:space="preserve" text-anchor="middle" x="892.62" y="-337.25" font-family="Helvetica,sans-Serif" font-size="10.00">/TensorHandle.cpp</text>
</a>
</g>
</g>
<!-- Node2 -->
<g id="Node000002" class="node">
<title>Node2</title>
<g id="a_Node000002"><a xlink:href="_exceptions_8hpp.html" target="_top" xlink:title=" ">
<polygon fill="white" stroke="#666666" points="722.38,-74.5 608.88,-74.5 608.88,-55.25 722.38,-55.25 722.38,-74.5"/>
<text xml:space="preserve" text-anchor="middle" x="665.62" y="-61" font-family="Helvetica,sans-Serif" font-size="10.00">armnn/Exceptions.hpp</text>
</a>
</g>
</g>
<!-- Node1&#45;&gt;Node2 -->
<g id="edge1_Node000001_Node000002" class="edge">
<title>Node1&#45;&gt;Node2</title>
<g id="a_edge1_Node000001_Node000002"><a xlink:title=" ">
<path fill="none" stroke="#63b8ff" d="M906.96,-331.39C938.16,-298.43 1006.02,-216.29 961.62,-165.75 879.69,-72.48 779.14,-210.24 684.62,-129.75 672.09,-119.07 667.62,-100.53 666.12,-86.16"/>
<polygon fill="#63b8ff" stroke="#63b8ff" points="669.63,-86.2 665.53,-76.43 662.64,-86.62 669.63,-86.2"/>
</a>
</g>
</g>
<!-- Node6 -->
<g id="Node000006" class="node">
<title>Node6</title>
<g id="a_Node000006"><a xlink:href="_ignore_unused_8hpp.html" target="_top" xlink:title=" ">
<polygon fill="white" stroke="#666666" points="886.5,-185 734.75,-185 734.75,-165.75 886.5,-165.75 886.5,-185"/>
<text xml:space="preserve" text-anchor="middle" x="810.62" y="-171.5" font-family="Helvetica,sans-Serif" font-size="10.00">armnn/utility/IgnoreUnused.hpp</text>
</a>
</g>
</g>
<!-- Node1&#45;&gt;Node6 -->
<g id="edge5_Node000001_Node000006" class="edge">
<title>Node1&#45;&gt;Node6</title>
<g id="a_edge5_Node000001_Node000006"><a xlink:title=" ">
<path fill="none" stroke="#63b8ff" d="M880.38,-331.05C864.78,-311.55 838.1,-275.47 823.62,-240.25 817.88,-226.28 814.59,-209.51 812.76,-196.66"/>
<polygon fill="#63b8ff" stroke="#63b8ff" points="816.25,-196.36 811.56,-186.86 809.3,-197.22 816.25,-196.36"/>
</a>
</g>
</g>
<!-- Node7 -->
<g id="Node000007" class="node">
<title>Node7</title>
<g id="a_Node000007"><a xlink:href="_tensor_handle_8hpp.html" target="_top" xlink:title=" ">
<polygon fill="white" stroke="#666666" points="648.5,-295.5 478.75,-295.5 478.75,-276.25 648.5,-276.25 648.5,-295.5"/>
<text xml:space="preserve" text-anchor="middle" x="563.62" y="-282" font-family="Helvetica,sans-Serif" font-size="10.00">armnn/backends/TensorHandle.hpp</text>
</a>
</g>
</g>
<!-- Node1&#45;&gt;Node7 -->
<g id="edge6_Node000001_Node000007" class="edge">
<title>Node1&#45;&gt;Node7</title>
<g id="a_edge6_Node000001_Node000007"><a xlink:title=" ">
<path fill="none" stroke="#63b8ff" d="M812.56,-331.42C754.97,-321.12 678.44,-307.42 625.51,-297.95"/>
<polygon fill="#63b8ff" stroke="#63b8ff" points="626.2,-294.52 615.74,-296.2 624.97,-301.41 626.2,-294.52"/>
</a>
</g>
</g>
<!-- Node25 -->
<g id="Node000025" class="node">
<title>Node25</title>
<g id="a_Node000025"><a xlink:title=" ">
<polygon fill="#e0e0e0" stroke="#999999" points="964.25,-74.5 919,-74.5 919,-55.25 964.25,-55.25 964.25,-74.5"/>
<text xml:space="preserve" text-anchor="middle" x="941.62" y="-61" font-family="Helvetica,sans-Serif" font-size="10.00">cstring</text>
</a>
</g>
</g>
<!-- Node1&#45;&gt;Node25 -->
<g id="edge52_Node000001_Node000025" class="edge">
<title>Node1&#45;&gt;Node25</title>
<g id="a_edge52_Node000001_Node000025"><a xlink:title=" ">
<path fill="none" stroke="#63b8ff" d="M940.08,-331.06C959.16,-323.13 980.04,-311.59 994.62,-295.5 1014.99,-273.03 1018.62,-261.95 1018.62,-231.62 1018.62,-231.62 1018.62,-231.62 1018.62,-174.38 1018.62,-135.6 985.51,-101.02 962.72,-81.81"/>
<polygon fill="#63b8ff" stroke="#63b8ff" points="965.15,-79.28 955.17,-75.73 960.76,-84.73 965.15,-79.28"/>
</a>
</g>
</g>
<!-- Node3 -->
<g id="Node000003" class="node">
<title>Node3</title>
<g id="a_Node000003"><a xlink:title=" ">
<polygon fill="#e0e0e0" stroke="#999999" points="727.25,-19.25 676,-19.25 676,0 727.25,0 727.25,-19.25"/>
<text xml:space="preserve" text-anchor="middle" x="701.62" y="-5.75" font-family="Helvetica,sans-Serif" font-size="10.00">sstream</text>
</a>
</g>
</g>
<!-- Node2&#45;&gt;Node3 -->
<g id="edge2_Node000002_Node000003" class="edge">
<title>Node2&#45;&gt;Node3</title>
<g id="a_edge2_Node000002_Node000003"><a xlink:title=" ">
<path fill="none" stroke="#63b8ff" d="M671.57,-55.08C676.34,-48.03 683.19,-37.9 689.15,-29.08"/>
<polygon fill="#63b8ff" stroke="#63b8ff" points="692,-31.11 694.7,-20.86 686.2,-27.19 692,-31.11"/>
</a>
</g>
</g>
<!-- Node4 -->
<g id="Node000004" class="node">
<title>Node4</title>
<g id="a_Node000004"><a xlink:title=" ">
<polygon fill="#e0e0e0" stroke="#999999" points="658,-19.25 599.25,-19.25 599.25,0 658,0 658,-19.25"/>
<text xml:space="preserve" text-anchor="middle" x="628.62" y="-5.75" font-family="Helvetica,sans-Serif" font-size="10.00">stdexcept</text>
</a>
</g>
</g>
<!-- Node2&#45;&gt;Node4 -->
<g id="edge3_Node000002_Node000004" class="edge">
<title>Node2&#45;&gt;Node4</title>
<g id="a_edge3_Node000002_Node000004"><a xlink:title=" ">
<path fill="none" stroke="#63b8ff" d="M659.52,-55.08C654.56,-47.96 647.42,-37.68 641.25,-28.8"/>
<polygon fill="#63b8ff" stroke="#63b8ff" points="644.31,-27.07 635.73,-20.85 638.56,-31.06 644.31,-27.07"/>
</a>
</g>
</g>
<!-- Node5 -->
<g id="Node000005" class="node">
<title>Node5</title>
<g id="a_Node000005"><a xlink:title=" ">
<polygon fill="#e0e0e0" stroke="#999999" points="502.62,-19.25 462.62,-19.25 462.62,0 502.62,0 502.62,-19.25"/>
<text xml:space="preserve" text-anchor="middle" x="482.62" y="-5.75" font-family="Helvetica,sans-Serif" font-size="10.00">string</text>
</a>
</g>
</g>
<!-- Node2&#45;&gt;Node5 -->
<g id="edge4_Node000002_Node000005" class="edge">
<title>Node2&#45;&gt;Node5</title>
<g id="a_edge4_Node000002_Node000005"><a xlink:title=" ">
<path fill="none" stroke="#63b8ff" d="M634.58,-54.84C601.01,-45.07 547.79,-29.59 514.07,-19.78"/>
<polygon fill="#63b8ff" stroke="#63b8ff" points="515.05,-16.42 504.47,-16.98 513.1,-23.14 515.05,-16.42"/>
</a>
</g>
</g>
<!-- Node8 -->
<g id="Node000008" class="node">
<title>Node8</title>
<g id="a_Node000008"><a xlink:href="_i_tensor_handle_8hpp.html" target="_top" xlink:title=" ">
<polygon fill="white" stroke="#666666" points="659.5,-240.25 561.75,-240.25 561.75,-221 659.5,-221 659.5,-240.25"/>
<text xml:space="preserve" text-anchor="middle" x="610.62" y="-226.75" font-family="Helvetica,sans-Serif" font-size="10.00">ITensorHandle.hpp</text>
</a>
</g>
</g>
<!-- Node7&#45;&gt;Node8 -->
<g id="edge7_Node000007_Node000008" class="edge">
<title>Node7&#45;&gt;Node8</title>
<g id="a_edge7_Node000007_Node000008"><a xlink:title=" ">
<path fill="none" stroke="#63b8ff" d="M571.39,-276.08C577.81,-268.8 587.14,-258.23 595.09,-249.23"/>
<polygon fill="#63b8ff" stroke="#63b8ff" points="597.7,-251.56 601.69,-241.74 592.45,-246.93 597.7,-251.56"/>
</a>
</g>
</g>
<!-- Node28 -->
<g id="Node000028" class="node">
<title>Node28</title>
<g id="a_Node000028"><a xlink:href="_types_utils_8hpp.html" target="_top" xlink:title=" ">
<polygon fill="white" stroke="#666666" points="283.25,-240.25 172,-240.25 172,-221 283.25,-221 283.25,-240.25"/>
<text xml:space="preserve" text-anchor="middle" x="227.62" y="-226.75" font-family="Helvetica,sans-Serif" font-size="10.00">armnn/TypesUtils.hpp</text>
</a>
</g>
</g>
<!-- Node7&#45;&gt;Node28 -->
<g id="edge37_Node000007_Node000028" class="edge">
<title>Node7&#45;&gt;Node28</title>
<g id="a_edge37_Node000007_Node000028"><a xlink:title=" ">
<path fill="none" stroke="#63b8ff" d="M506.25,-275.78C447.66,-266.5 356.78,-252.09 294.86,-242.28"/>
<polygon fill="#63b8ff" stroke="#63b8ff" points="295.57,-238.85 285.14,-240.74 294.47,-245.76 295.57,-238.85"/>
</a>
</g>
</g>
<!-- Node30 -->
<g id="Node000030" class="node">
<title>Node30</title>
<g id="a_Node000030"><a xlink:href="_assert_8hpp.html" target="_top" xlink:title=" ">
<polygon fill="white" stroke="#666666" points="952.38,-240.25 832.88,-240.25 832.88,-221 952.38,-221 952.38,-240.25"/>
<text xml:space="preserve" text-anchor="middle" x="892.62" y="-226.75" font-family="Helvetica,sans-Serif" font-size="10.00">armnn/utility/Assert.hpp</text>
</a>
</g>
</g>
<!-- Node7&#45;&gt;Node30 -->
<g id="edge47_Node000007_Node000030" class="edge">
<title>Node7&#45;&gt;Node30</title>
<g id="a_edge47_Node000007_Node000030"><a xlink:title=" ">
<path fill="none" stroke="#63b8ff" d="M619.81,-275.78C676.62,-266.59 764.46,-252.37 825.04,-242.56"/>
<polygon fill="#63b8ff" stroke="#63b8ff" points="825.59,-246.02 834.9,-240.97 824.47,-239.11 825.59,-246.02"/>
</a>
</g>
</g>
<!-- Node32 -->
<g id="Node000032" class="node">
<title>Node32</title>
<g id="a_Node000032"><a xlink:href="_compatible_types_8hpp.html" target="_top" xlink:title=" ">
<polygon fill="white" stroke="#666666" points="467,-240.25 306.25,-240.25 306.25,-221 467,-221 467,-240.25"/>
<text xml:space="preserve" text-anchor="middle" x="386.62" y="-226.75" font-family="Helvetica,sans-Serif" font-size="10.00">armnnUtils/CompatibleTypes.hpp</text>
</a>
</g>
</g>
<!-- Node7&#45;&gt;Node32 -->
<g id="edge49_Node000007_Node000032" class="edge">
<title>Node7&#45;&gt;Node32</title>
<g id="a_edge49_Node000007_Node000032"><a xlink:title=" ">
<path fill="none" stroke="#63b8ff" d="M533.6,-275.84C504.48,-267.08 460.09,-253.73 427.71,-243.98"/>
<polygon fill="#63b8ff" stroke="#63b8ff" points="428.83,-240.67 418.25,-241.14 426.81,-247.37 428.83,-240.67"/>
</a>
</g>
</g>
<!-- Node33 -->
<g id="Node000033" class="node">
<title>Node33</title>
<g id="a_Node000033"><a xlink:title=" ">
<polygon fill="#e0e0e0" stroke="#999999" points="543.5,-240.25 487.75,-240.25 487.75,-221 543.5,-221 543.5,-240.25"/>
<text xml:space="preserve" text-anchor="middle" x="515.62" y="-226.75" font-family="Helvetica,sans-Serif" font-size="10.00">algorithm</text>
</a>
</g>
</g>
<!-- Node7&#45;&gt;Node33 -->
<g id="edge51_Node000007_Node000033" class="edge">
<title>Node7&#45;&gt;Node33</title>
<g id="a_edge51_Node000007_Node000033"><a xlink:title=" ">
<path fill="none" stroke="#63b8ff" d="M555.7,-276.08C549.07,-268.73 539.41,-258.01 531.24,-248.94"/>
<polygon fill="#63b8ff" stroke="#63b8ff" points="534.03,-246.82 524.74,-241.73 528.83,-251.5 534.03,-246.82"/>
</a>
</g>
</g>
<!-- Node8&#45;&gt;Node6 -->
<g id="edge24_Node000008_Node000006" class="edge">
<title>Node8&#45;&gt;Node6</title>
<g id="a_edge24_Node000008_Node000006"><a xlink:title=" ">
<path fill="none" stroke="#63b8ff" d="M644.55,-220.59C677.88,-211.72 728.94,-198.12 765.64,-188.35"/>
<polygon fill="#63b8ff" stroke="#63b8ff" points="766.31,-191.8 775.07,-185.84 764.5,-185.03 766.31,-191.8"/>
</a>
</g>
</g>
<!-- Node9 -->
<g id="Node000009" class="node">
<title>Node9</title>
<g id="a_Node000009"><a xlink:href="_memory_sources_8hpp.html" target="_top" xlink:title=" ">
<polygon fill="white" stroke="#666666" points="678.62,-185 542.62,-185 542.62,-165.75 678.62,-165.75 678.62,-185"/>
<text xml:space="preserve" text-anchor="middle" x="610.62" y="-171.5" font-family="Helvetica,sans-Serif" font-size="10.00">armnn/MemorySources.hpp</text>
</a>
</g>
</g>
<!-- Node8&#45;&gt;Node9 -->
<g id="edge8_Node000008_Node000009" class="edge">
<title>Node8&#45;&gt;Node9</title>
<g id="a_edge8_Node000008_Node000009"><a xlink:title=" ">
<path fill="none" stroke="#63b8ff" d="M610.62,-220.83C610.62,-214.32 610.62,-205.17 610.62,-196.87"/>
<polygon fill="#63b8ff" stroke="#63b8ff" points="614.13,-196.87 610.63,-186.87 607.13,-196.87 614.13,-196.87"/>
</a>
</g>
</g>
<!-- Node23 -->
<g id="Node000023" class="node">
<title>Node23</title>
<g id="a_Node000023"><a xlink:href="_tensor_8hpp.html" target="_top" xlink:title=" ">
<polygon fill="white" stroke="#666666" points="524.25,-185 431,-185 431,-165.75 524.25,-165.75 524.25,-185"/>
<text xml:space="preserve" text-anchor="middle" x="477.62" y="-171.5" font-family="Helvetica,sans-Serif" font-size="10.00">armnn/Tensor.hpp</text>
</a>
</g>
</g>
<!-- Node8&#45;&gt;Node23 -->
<g id="edge25_Node000008_Node000023" class="edge">
<title>Node8&#45;&gt;Node23</title>
<g id="a_edge25_Node000008_Node000023"><a xlink:title=" ">
<path fill="none" stroke="#63b8ff" d="M588.06,-220.59C566.85,-212.1 534.85,-199.29 510.75,-189.64"/>
<polygon fill="#63b8ff" stroke="#63b8ff" points="512.29,-186.48 501.7,-186.02 509.69,-192.98 512.29,-186.48"/>
</a>
</g>
</g>
<!-- Node10 -->
<g id="Node000010" class="node">
<title>Node10</title>
<g id="a_Node000010"><a xlink:href="_types_8hpp.html" target="_top" xlink:title=" ">
<polygon fill="white" stroke="#666666" points="413.12,-129.75 322.12,-129.75 322.12,-110.5 413.12,-110.5 413.12,-129.75"/>
<text xml:space="preserve" text-anchor="middle" x="367.62" y="-116.25" font-family="Helvetica,sans-Serif" font-size="10.00">armnn/Types.hpp</text>
</a>
</g>
</g>
<!-- Node9&#45;&gt;Node10 -->
<g id="edge9_Node000009_Node000010" class="edge">
<title>Node9&#45;&gt;Node10</title>
<g id="a_edge9_Node000009_Node000010"><a xlink:title=" ">
<path fill="none" stroke="#63b8ff" d="M569.13,-165.28C527.98,-156.26 464.79,-142.42 420.16,-132.64"/>
<polygon fill="#63b8ff" stroke="#63b8ff" points="420.95,-129.23 410.43,-130.5 419.45,-136.06 420.95,-129.23"/>
</a>
</g>
</g>
<!-- Node22 -->
<g id="Node000022" class="node">
<title>Node22</title>
<g id="a_Node000022"><a xlink:title=" ">
<polygon fill="#e0e0e0" stroke="#999999" points="822.5,-74.5 760.75,-74.5 760.75,-55.25 822.5,-55.25 822.5,-74.5"/>
<text xml:space="preserve" text-anchor="middle" x="791.62" y="-61" font-family="Helvetica,sans-Serif" font-size="10.00">type_traits</text>
</a>
</g>
</g>
<!-- Node9&#45;&gt;Node22 -->
<g id="edge23_Node000009_Node000022" class="edge">
<title>Node9&#45;&gt;Node22</title>
<g id="a_edge23_Node000009_Node000022"><a xlink:title=" ">
<path fill="none" stroke="#63b8ff" d="M664.56,-165.32C705.47,-157.41 757.21,-144.86 772.62,-129.75 784.27,-118.34 788.85,-100.15 790.62,-86.09"/>
<polygon fill="#63b8ff" stroke="#63b8ff" points="794.1,-86.42 791.44,-76.16 787.13,-85.84 794.1,-86.42"/>
</a>
</g>
</g>
<!-- Node10&#45;&gt;Node2 -->
<g id="edge21_Node000010_Node000002" class="edge">
<title>Node10&#45;&gt;Node2</title>
<g id="a_edge21_Node000010_Node000002"><a xlink:title=" ">
<path fill="none" stroke="#63b8ff" d="M413.53,-110.92C464.4,-101.83 546.7,-87.13 603.34,-77"/>
<polygon fill="#63b8ff" stroke="#63b8ff" points="603.95,-80.45 613.18,-75.25 602.72,-73.56 603.95,-80.45"/>
</a>
</g>
</g>
<!-- Node11 -->
<g id="Node000011" class="node">
<title>Node11</title>
<g id="a_Node000011"><a xlink:title=" ">
<polygon fill="#e0e0e0" stroke="#999999" points="348.5,-74.5 310.75,-74.5 310.75,-55.25 348.5,-55.25 348.5,-74.5"/>
<text xml:space="preserve" text-anchor="middle" x="329.62" y="-61" font-family="Helvetica,sans-Serif" font-size="10.00">array</text>
</a>
</g>
</g>
<!-- Node10&#45;&gt;Node11 -->
<g id="edge10_Node000010_Node000011" class="edge">
<title>Node10&#45;&gt;Node11</title>
<g id="a_edge10_Node000010_Node000011"><a xlink:title=" ">
<path fill="none" stroke="#63b8ff" d="M361.35,-110.33C356.27,-103.21 348.93,-92.93 342.59,-84.05"/>
<polygon fill="#63b8ff" stroke="#63b8ff" points="345.57,-82.2 336.92,-76.09 339.88,-86.26 345.57,-82.2"/>
</a>
</g>
</g>
<!-- Node12 -->
<g id="Node000012" class="node">
<title>Node12</title>
<g id="a_Node000012"><a xlink:title=" ">
<polygon fill="#e0e0e0" stroke="#999999" points="527.62,-74.5 469.62,-74.5 469.62,-55.25 527.62,-55.25 527.62,-74.5"/>
<text xml:space="preserve" text-anchor="middle" x="498.62" y="-61" font-family="Helvetica,sans-Serif" font-size="10.00">functional</text>
</a>
</g>
</g>
<!-- Node10&#45;&gt;Node12 -->
<g id="edge11_Node000010_Node000012" class="edge">
<title>Node10&#45;&gt;Node12</title>
<g id="a_edge11_Node000010_Node000012"><a xlink:title=" ">
<path fill="none" stroke="#63b8ff" d="M389.85,-110.09C410.64,-101.64 441.97,-88.9 465.68,-79.27"/>
<polygon fill="#63b8ff" stroke="#63b8ff" points="466.95,-82.53 474.89,-75.52 464.31,-76.05 466.95,-82.53"/>
</a>
</g>
</g>
<!-- Node13 -->
<g id="Node000013" class="node">
<title>Node13</title>
<g id="a_Node000013"><a xlink:title=" ">
<polygon fill="#e0e0e0" stroke="#999999" points="292.75,-74.5 244.5,-74.5 244.5,-55.25 292.75,-55.25 292.75,-74.5"/>
<text xml:space="preserve" text-anchor="middle" x="268.62" y="-61" font-family="Helvetica,sans-Serif" font-size="10.00">stdint.h</text>
</a>
</g>
</g>
<!-- Node10&#45;&gt;Node13 -->
<g id="edge12_Node000010_Node000013" class="edge">
<title>Node10&#45;&gt;Node13</title>
<g id="a_edge12_Node000010_Node000013"><a xlink:title=" ">
<path fill="none" stroke="#63b8ff" d="M350.83,-110.09C335.61,-101.91 312.93,-89.71 295.24,-80.19"/>
<polygon fill="#63b8ff" stroke="#63b8ff" points="297.3,-77.32 286.83,-75.67 293.98,-83.49 297.3,-77.32"/>
</a>
</g>
</g>
<!-- Node14 -->
<g id="Node000014" class="node">
<title>Node14</title>
<g id="a_Node000014"><a xlink:title=" ">
<polygon fill="#e0e0e0" stroke="#999999" points="591.25,-74.5 546,-74.5 546,-55.25 591.25,-55.25 591.25,-74.5"/>
<text xml:space="preserve" text-anchor="middle" x="568.62" y="-61" font-family="Helvetica,sans-Serif" font-size="10.00">chrono</text>
</a>
</g>
</g>
<!-- Node10&#45;&gt;Node14 -->
<g id="edge13_Node000010_Node000014" class="edge">
<title>Node10&#45;&gt;Node14</title>
<g id="a_edge13_Node000010_Node000014"><a xlink:title=" ">
<path fill="none" stroke="#63b8ff" d="M402.27,-110.03C434.17,-101.65 483.11,-88.76 534.55,-75.04"/>
<polygon fill="#63b8ff" stroke="#63b8ff" points="535.33,-78.46 544.09,-72.5 533.53,-71.69 535.33,-78.46"/>
</a>
</g>
</g>
<!-- Node15 -->
<g id="Node000015" class="node">
<title>Node15</title>
<g id="a_Node000015"><a xlink:href="_backend_id_8hpp.html" target="_top" xlink:title=" ">
<polygon fill="white" stroke="#666666" points="226.25,-74.5 145,-74.5 145,-55.25 226.25,-55.25 226.25,-74.5"/>
<text xml:space="preserve" text-anchor="middle" x="185.62" y="-61" font-family="Helvetica,sans-Serif" font-size="10.00">BackendId.hpp</text>
</a>
</g>
</g>
<!-- Node10&#45;&gt;Node15 -->
<g id="edge14_Node000010_Node000015" class="edge">
<title>Node10&#45;&gt;Node15</title>
<g id="a_edge14_Node000010_Node000015"><a xlink:title=" ">
<path fill="none" stroke="#63b8ff" d="M336.75,-110.09C306.68,-101.29 260.76,-87.86 227.43,-78.11"/>
<polygon fill="#63b8ff" stroke="#63b8ff" points="228.68,-74.83 218.1,-75.38 226.72,-81.54 228.68,-74.83"/>
</a>
</g>
</g>
<!-- Node21 -->
<g id="Node000021" class="node">
<title>Node21</title>
<g id="a_Node000021"><a xlink:href="_deprecated_8hpp.html" target="_top" xlink:title=" ">
<polygon fill="white" stroke="#666666" points="451.12,-74.5 366.12,-74.5 366.12,-55.25 451.12,-55.25 451.12,-74.5"/>
<text xml:space="preserve" text-anchor="middle" x="408.62" y="-61" font-family="Helvetica,sans-Serif" font-size="10.00">Deprecated.hpp</text>
</a>
</g>
</g>
<!-- Node10&#45;&gt;Node21 -->
<g id="edge22_Node000010_Node000021" class="edge">
<title>Node10&#45;&gt;Node21</title>
<g id="a_edge22_Node000010_Node000021"><a xlink:title=" ">
<path fill="none" stroke="#63b8ff" d="M374.4,-110.33C379.94,-103.13 387.97,-92.71 394.85,-83.76"/>
<polygon fill="#63b8ff" stroke="#63b8ff" points="397.46,-86.12 400.78,-76.06 391.91,-81.85 397.46,-86.12"/>
</a>
</g>
</g>
<!-- Node15&#45;&gt;Node5 -->
<g id="edge18_Node000015_Node000005" class="edge">
<title>Node15&#45;&gt;Node5</title>
<g id="a_edge18_Node000015_Node000005"><a xlink:title=" ">
<path fill="none" stroke="#63b8ff" d="M226.61,-56.53C286.53,-45.78 396.77,-26.02 450.92,-16.31"/>
<polygon fill="#63b8ff" stroke="#63b8ff" points="451.48,-19.76 460.71,-14.55 450.25,-12.87 451.48,-19.76"/>
</a>
</g>
</g>
<!-- Node16 -->
<g id="Node000016" class="node">
<title>Node16</title>
<g id="a_Node000016"><a xlink:title=" ">
<polygon fill="#e0e0e0" stroke="#999999" points="323.25,-19.25 272,-19.25 272,0 323.25,0 323.25,-19.25"/>
<text xml:space="preserve" text-anchor="middle" x="297.62" y="-5.75" font-family="Helvetica,sans-Serif" font-size="10.00">memory</text>
</a>
</g>
</g>
<!-- Node15&#45;&gt;Node16 -->
<g id="edge15_Node000015_Node000016" class="edge">
<title>Node15&#45;&gt;Node16</title>
<g id="a_edge15_Node000015_Node000016"><a xlink:title=" ">
<path fill="none" stroke="#63b8ff" d="M204.62,-54.84C222.08,-46.54 248.22,-34.11 268.35,-24.54"/>
<polygon fill="#63b8ff" stroke="#63b8ff" points="269.64,-27.81 277.17,-20.35 266.63,-21.49 269.64,-27.81"/>
</a>
</g>
</g>
<!-- Node17 -->
<g id="Node000017" class="node">
<title>Node17</title>
<g id="a_Node000017"><a xlink:title=" ">
<polygon fill="#e0e0e0" stroke="#999999" points="51.25,-19.25 0,-19.25 0,0 51.25,0 51.25,-19.25"/>
<text xml:space="preserve" text-anchor="middle" x="25.62" y="-5.75" font-family="Helvetica,sans-Serif" font-size="10.00">ostream</text>
</a>
</g>
</g>
<!-- Node15&#45;&gt;Node17 -->
<g id="edge16_Node000015_Node000017" class="edge">
<title>Node15&#45;&gt;Node17</title>
<g id="a_edge16_Node000015_Node000017"><a xlink:title=" ">
<path fill="none" stroke="#63b8ff" d="M158.48,-54.84C132,-46.03 91.52,-32.56 62.21,-22.8"/>
<polygon fill="#63b8ff" stroke="#63b8ff" points="63.6,-19.58 53.01,-19.74 61.39,-26.22 63.6,-19.58"/>
</a>
</g>
</g>
<!-- Node18 -->
<g id="Node000018" class="node">
<title>Node18</title>
<g id="a_Node000018"><a xlink:title=" ">
<polygon fill="#e0e0e0" stroke="#999999" points="98.38,-19.25 68.88,-19.25 68.88,0 98.38,0 98.38,-19.25"/>
<text xml:space="preserve" text-anchor="middle" x="83.62" y="-5.75" font-family="Helvetica,sans-Serif" font-size="10.00">set</text>
</a>
</g>
</g>
<!-- Node15&#45;&gt;Node18 -->
<g id="edge17_Node000015_Node000018" class="edge">
<title>Node15&#45;&gt;Node18</title>
<g id="a_edge17_Node000015_Node000018"><a xlink:title=" ">
<path fill="none" stroke="#63b8ff" d="M168.32,-54.84C151.98,-46.31 127.28,-33.41 108.76,-23.75"/>
<polygon fill="#63b8ff" stroke="#63b8ff" points="110.51,-20.71 100.02,-19.19 107.27,-26.92 110.51,-20.71"/>
</a>
</g>
</g>
<!-- Node19 -->
<g id="Node000019" class="node">
<title>Node19</title>
<g id="a_Node000019"><a xlink:title=" ">
<polygon fill="#e0e0e0" stroke="#999999" points="254.38,-19.25 176.88,-19.25 176.88,0 254.38,0 254.38,-19.25"/>
<text xml:space="preserve" text-anchor="middle" x="215.62" y="-5.75" font-family="Helvetica,sans-Serif" font-size="10.00">unordered_set</text>
</a>
</g>
</g>
<!-- Node15&#45;&gt;Node19 -->
<g id="edge19_Node000015_Node000019" class="edge">
<title>Node15&#45;&gt;Node19</title>
<g id="a_edge19_Node000015_Node000019"><a xlink:title=" ">
<path fill="none" stroke="#63b8ff" d="M190.58,-55.08C194.51,-48.11 200.14,-38.12 205.06,-29.37"/>
<polygon fill="#63b8ff" stroke="#63b8ff" points="207.96,-31.36 209.82,-20.93 201.86,-27.92 207.96,-31.36"/>
</a>
</g>
</g>
<!-- Node20 -->
<g id="Node000020" class="node">
<title>Node20</title>
<g id="a_Node000020"><a xlink:title=" ">
<polygon fill="#e0e0e0" stroke="#999999" points="159.12,-19.25 116.12,-19.25 116.12,0 159.12,0 159.12,-19.25"/>
<text xml:space="preserve" text-anchor="middle" x="137.62" y="-5.75" font-family="Helvetica,sans-Serif" font-size="10.00">vector</text>
</a>
</g>
</g>
<!-- Node15&#45;&gt;Node20 -->
<g id="edge20_Node000015_Node000020" class="edge">
<title>Node15&#45;&gt;Node20</title>
<g id="a_edge20_Node000015_Node000020"><a xlink:title=" ">
<path fill="none" stroke="#63b8ff" d="M177.7,-55.08C171.07,-47.73 161.41,-37.01 153.24,-27.94"/>
<polygon fill="#63b8ff" stroke="#63b8ff" points="156.03,-25.82 146.74,-20.73 150.83,-30.5 156.03,-25.82"/>
</a>
</g>
</g>
<!-- Node23&#45;&gt;Node2 -->
<g id="edge26_Node000023_Node000002" class="edge">
<title>Node23&#45;&gt;Node2</title>
<g id="a_edge26_Node000023_Node000002"><a xlink:title=" ">
<path fill="none" stroke="#63b8ff" d="M477.97,-165.56C479,-151.8 483.01,-125.25 498.62,-110.5 513.3,-96.63 558.67,-85.02 598.42,-77.12"/>
<polygon fill="#63b8ff" stroke="#63b8ff" points="599.08,-80.55 608.24,-75.22 597.76,-73.68 599.08,-80.55"/>
</a>
</g>
</g>
<!-- Node23&#45;&gt;Node10 -->
<g id="edge31_Node000023_Node000010" class="edge">
<title>Node23&#45;&gt;Node10</title>
<g id="a_edge31_Node000023_Node000010"><a xlink:title=" ">
<path fill="none" stroke="#63b8ff" d="M458.96,-165.34C441.9,-157.08 416.38,-144.73 396.65,-135.18"/>
<polygon fill="#63b8ff" stroke="#63b8ff" points="398.26,-132.07 387.74,-130.86 395.21,-138.37 398.26,-132.07"/>
</a>
</g>
</g>
<!-- Node23&#45;&gt;Node11 -->
<g id="edge33_Node000023_Node000011" class="edge">
<title>Node23&#45;&gt;Node11</title>
<g id="a_edge33_Node000023_Node000011"><a xlink:title=" ">
<path fill="none" stroke="#63b8ff" d="M430.56,-167.97C387.31,-161.01 327.82,-148.33 313.62,-129.75 303.66,-116.71 309.91,-98.2 317.32,-84.46"/>
<polygon fill="#63b8ff" stroke="#63b8ff" points="320.28,-86.33 322.44,-75.95 314.28,-82.71 320.28,-86.33"/>
</a>
</g>
</g>
<!-- Node23&#45;&gt;Node13 -->
<g id="edge32_Node000023_Node000013" class="edge">
<title>Node23&#45;&gt;Node13</title>
<g id="a_edge32_Node000023_Node000013"><a xlink:title=" ">
<path fill="none" stroke="#63b8ff" d="M430.67,-172.18C393.16,-168.26 341.03,-157.71 304.62,-129.75 290.11,-118.6 280.55,-99.83 274.95,-85.52"/>
<polygon fill="#63b8ff" stroke="#63b8ff" points="278.3,-84.49 271.66,-76.23 271.7,-86.83 278.3,-84.49"/>
</a>
</g>
</g>
<!-- Node23&#45;&gt;Node20 -->
<g id="edge35_Node000023_Node000020" class="edge">
<title>Node23&#45;&gt;Node20</title>
<g id="a_edge35_Node000023_Node000020"><a xlink:title=" ">
<path fill="none" stroke="#63b8ff" d="M430.54,-167.92C344.93,-155.07 169.48,-123.28 135.62,-74.5 126.81,-61.8 128.18,-44 131.27,-30.42"/>
<polygon fill="#63b8ff" stroke="#63b8ff" points="134.62,-31.42 133.93,-20.85 127.88,-29.55 134.62,-31.42"/>
</a>
</g>
</g>
<!-- Node24 -->
<g id="Node000024" class="node">
<title>Node24</title>
<g id="a_Node000024"><a xlink:href="_optional_8hpp.html" target="_top" xlink:title=" ">
<polygon fill="white" stroke="#666666" points="764,-129.75 693.25,-129.75 693.25,-110.5 764,-110.5 764,-129.75"/>
<text xml:space="preserve" text-anchor="middle" x="728.62" y="-116.25" font-family="Helvetica,sans-Serif" font-size="10.00">Optional.hpp</text>
</a>
</g>
</g>
<!-- Node23&#45;&gt;Node24 -->
<g id="edge27_Node000023_Node000024" class="edge">
<title>Node23&#45;&gt;Node24</title>
<g id="a_edge27_Node000023_Node000024"><a xlink:title=" ">
<path fill="none" stroke="#63b8ff" d="M520.49,-165.28C565.28,-155.78 635.35,-140.91 681.62,-131.1"/>
<polygon fill="#63b8ff" stroke="#63b8ff" points="682.31,-134.53 691.37,-129.03 680.86,-127.68 682.31,-134.53"/>
</a>
</g>
</g>
<!-- Node26 -->
<g id="Node000026" class="node">
<title>Node26</title>
<g id="a_Node000026"><a xlink:title=" ">
<polygon fill="#e0e0e0" stroke="#999999" points="579.75,-129.75 507.5,-129.75 507.5,-110.5 579.75,-110.5 579.75,-129.75"/>
<text xml:space="preserve" text-anchor="middle" x="543.62" y="-116.25" font-family="Helvetica,sans-Serif" font-size="10.00">initializer_list</text>
</a>
</g>
</g>
<!-- Node23&#45;&gt;Node26 -->
<g id="edge34_Node000023_Node000026" class="edge">
<title>Node23&#45;&gt;Node26</title>
<g id="a_edge34_Node000023_Node000026"><a xlink:title=" ">
<path fill="none" stroke="#63b8ff" d="M488.82,-165.34C498.36,-157.65 512.3,-146.4 523.73,-137.18"/>
<polygon fill="#63b8ff" stroke="#63b8ff" points="525.83,-139.98 531.42,-130.98 521.44,-134.53 525.83,-139.98"/>
</a>
</g>
</g>
<!-- Node27 -->
<g id="Node000027" class="node">
<title>Node27</title>
<g id="a_Node000027"><a xlink:title=" ">
<polygon fill="#e0e0e0" stroke="#999999" points="637.25,-129.75 598,-129.75 598,-110.5 637.25,-110.5 637.25,-129.75"/>
<text xml:space="preserve" text-anchor="middle" x="617.62" y="-116.25" font-family="Helvetica,sans-Serif" font-size="10.00">utility</text>
</a>
</g>
</g>
<!-- Node23&#45;&gt;Node27 -->
<g id="edge36_Node000023_Node000027" class="edge">
<title>Node23&#45;&gt;Node27</title>
<g id="a_edge36_Node000023_Node000027"><a xlink:title=" ">
<path fill="none" stroke="#63b8ff" d="M501.37,-165.34C525.02,-156.35 561.42,-142.5 587.18,-132.71"/>
<polygon fill="#63b8ff" stroke="#63b8ff" points="588.32,-136.01 596.43,-129.19 585.83,-129.47 588.32,-136.01"/>
</a>
</g>
</g>
<!-- Node24&#45;&gt;Node2 -->
<g id="edge28_Node000024_Node000002" class="edge">
<title>Node24&#45;&gt;Node2</title>
<g id="a_edge28_Node000024_Node000002"><a xlink:title=" ">
<path fill="none" stroke="#63b8ff" d="M717.94,-110.09C708.92,-102.47 695.79,-91.37 684.94,-82.2"/>
<polygon fill="#63b8ff" stroke="#63b8ff" points="687.21,-79.53 677.31,-75.75 682.69,-84.88 687.21,-79.53"/>
</a>
</g>
</g>
<!-- Node24&#45;&gt;Node22 -->
<g id="edge30_Node000024_Node000022" class="edge">
<title>Node24&#45;&gt;Node22</title>
<g id="a_edge30_Node000024_Node000022"><a xlink:title=" ">
<path fill="none" stroke="#63b8ff" d="M739.31,-110.09C748.33,-102.47 761.46,-91.37 772.31,-82.2"/>
<polygon fill="#63b8ff" stroke="#63b8ff" points="774.56,-84.88 779.94,-75.75 770.04,-79.53 774.56,-84.88"/>
</a>
</g>
</g>
<!-- Node24&#45;&gt;Node25 -->
<g id="edge29_Node000024_Node000025" class="edge">
<title>Node24&#45;&gt;Node25</title>
<g id="a_edge29_Node000024_Node000025"><a xlink:title=" ">
<path fill="none" stroke="#63b8ff" d="M764.28,-110.21C804.18,-100.24 868.37,-84.19 907.6,-74.38"/>
<polygon fill="#63b8ff" stroke="#63b8ff" points="908.36,-77.8 917.21,-71.98 906.66,-71.01 908.36,-77.8"/>
</a>
</g>
</g>
<!-- Node28&#45;&gt;Node2 -->
<g id="edge39_Node000028_Node000002" class="edge">
<title>Node28&#45;&gt;Node2</title>
<g id="a_edge39_Node000028_Node000002"><a xlink:title=" ">
<path fill="none" stroke="#63b8ff" d="M243.86,-220.65C283.53,-199.03 389.05,-143.4 482.62,-110.5 523.02,-96.3 569.98,-84.95 606.21,-77.25"/>
<polygon fill="#63b8ff" stroke="#63b8ff" points="606.53,-80.76 615.61,-75.29 605.1,-73.9 606.53,-80.76"/>
</a>
</g>
</g>
<!-- Node28&#45;&gt;Node10 -->
<g id="edge41_Node000028_Node000010" class="edge">
<title>Node28&#45;&gt;Node10</title>
<g id="a_edge41_Node000028_Node000010"><a xlink:title=" ">
<path fill="none" stroke="#63b8ff" d="M239.08,-220.75C262.77,-202.39 317.41,-160.04 347.26,-136.91"/>
<polygon fill="#63b8ff" stroke="#63b8ff" points="349.05,-139.95 354.81,-131.05 344.77,-134.41 349.05,-139.95"/>
</a>
</g>
</g>
<!-- Node28&#45;&gt;Node13 -->
<g id="edge42_Node000028_Node000013" class="edge">
<title>Node28&#45;&gt;Node13</title>
<g id="a_edge42_Node000028_Node000013"><a xlink:title=" ">
<path fill="none" stroke="#63b8ff" d="M229.83,-220.82C236.2,-195.39 254.73,-121.35 263.68,-85.62"/>
<polygon fill="#63b8ff" stroke="#63b8ff" points="267.01,-86.74 266.04,-76.19 260.22,-85.04 267.01,-86.74"/>
</a>
</g>
</g>
<!-- Node28&#45;&gt;Node15 -->
<g id="edge38_Node000028_Node000015" class="edge">
<title>Node28&#45;&gt;Node15</title>
<g id="a_edge38_Node000028_Node000015"><a xlink:title=" ">
<path fill="none" stroke="#63b8ff" d="M194.96,-220.58C177.33,-213.85 157.08,-202.69 146.62,-185 127.07,-151.9 153.08,-107.76 171.07,-83.57"/>
<polygon fill="#63b8ff" stroke="#63b8ff" points="173.6,-86.03 176.99,-75.99 168.08,-81.72 173.6,-86.03"/>
</a>
</g>
</g>
<!-- Node28&#45;&gt;Node17 -->
<g id="edge44_Node000028_Node000017" class="edge">
<title>Node28&#45;&gt;Node17</title>
<g id="a_edge44_Node000028_Node000017"><a xlink:title=" ">
<path fill="none" stroke="#63b8ff" d="M188.6,-220.52C166.33,-213.73 139.06,-202.53 119.62,-185 70.97,-141.1 42.67,-65.95 31.38,-30.39"/>
<polygon fill="#63b8ff" stroke="#63b8ff" points="34.79,-29.57 28.53,-21.03 28.09,-31.61 34.79,-29.57"/>
</a>
</g>
</g>
<!-- Node28&#45;&gt;Node18 -->
<g id="edge45_Node000028_Node000018" class="edge">
<title>Node28&#45;&gt;Node18</title>
<g id="a_edge45_Node000028_Node000018"><a xlink:title=" ">
<path fill="none" stroke="#63b8ff" d="M194.41,-220.65C175.04,-213.83 151.56,-202.56 136.62,-185 97.73,-139.28 87.38,-65.57 84.62,-30.45"/>
<polygon fill="#63b8ff" stroke="#63b8ff" points="88.14,-30.65 84.01,-20.9 81.16,-31.1 88.14,-30.65"/>
</a>
</g>
</g>
<!-- Node28&#45;&gt;Node22 -->
<g id="edge46_Node000028_Node000022" class="edge">
<title>Node28&#45;&gt;Node22</title>
<g id="a_edge46_Node000028_Node000022"><a xlink:title=" ">
<path fill="none" stroke="#63b8ff" d="M283.39,-222.6C288.2,-222.04 293,-221.5 297.62,-221 470.69,-202.35 520.73,-234.48 687.62,-185 689.2,-184.53 791.77,-131.16 792.62,-129.75 800.53,-116.67 799.63,-99.16 797.12,-85.78"/>
<polygon fill="#63b8ff" stroke="#63b8ff" points="800.6,-85.31 794.91,-76.38 793.79,-86.91 800.6,-85.31"/>
</a>
</g>
</g>
<!-- Node28&#45;&gt;Node23 -->
<g id="edge40_Node000028_Node000023" class="edge">
<title>Node28&#45;&gt;Node23</title>
<g id="a_edge40_Node000028_Node000023"><a xlink:title=" ">
<path fill="none" stroke="#63b8ff" d="M270.32,-220.53C312.74,-211.49 377.94,-197.61 423.87,-187.82"/>
<polygon fill="#63b8ff" stroke="#63b8ff" points="424.58,-191.25 433.63,-185.75 423.12,-184.41 424.58,-191.25"/>
</a>
</g>
</g>
<!-- Node29 -->
<g id="Node000029" class="node">
<title>Node29</title>
<g id="a_Node000029"><a xlink:title=" ">
<polygon fill="#e0e0e0" stroke="#999999" points="198.12,-185 155.12,-185 155.12,-165.75 198.12,-165.75 198.12,-185"/>
<text xml:space="preserve" text-anchor="middle" x="176.62" y="-171.5" font-family="Helvetica,sans-Serif" font-size="10.00">cmath</text>
</a>
</g>
</g>
<!-- Node28&#45;&gt;Node29 -->
<g id="edge43_Node000028_Node000029" class="edge">
<title>Node28&#45;&gt;Node29</title>
<g id="a_edge43_Node000028_Node000029"><a xlink:title=" ">
<path fill="none" stroke="#63b8ff" d="M219.2,-220.83C212.09,-213.4 201.68,-202.54 192.94,-193.41"/>
<polygon fill="#63b8ff" stroke="#63b8ff" points="195.72,-191.25 186.28,-186.45 190.67,-196.1 195.72,-191.25"/>
</a>
</g>
</g>
<!-- Node31 -->
<g id="Node000031" class="node">
<title>Node31</title>
<g id="a_Node000031"><a xlink:title=" ">
<polygon fill="#e0e0e0" stroke="#999999" points="952.75,-185 904.5,-185 904.5,-165.75 952.75,-165.75 952.75,-185"/>
<text xml:space="preserve" text-anchor="middle" x="928.62" y="-171.5" font-family="Helvetica,sans-Serif" font-size="10.00">cassert</text>
</a>
</g>
</g>
<!-- Node30&#45;&gt;Node31 -->
<g id="edge48_Node000030_Node000031" class="edge">
<title>Node30&#45;&gt;Node31</title>
<g id="a_edge48_Node000030_Node000031"><a xlink:title=" ">
<path fill="none" stroke="#63b8ff" d="M898.57,-220.83C903.34,-213.78 910.19,-203.65 916.15,-194.83"/>
<polygon fill="#63b8ff" stroke="#63b8ff" points="919,-196.86 921.7,-186.61 913.2,-192.94 919,-196.86"/>
</a>
</g>
</g>
<!-- Node32&#45;&gt;Node10 -->
<g id="edge50_Node000032_Node000010" class="edge">
<title>Node32&#45;&gt;Node10</title>
<g id="a_edge50_Node000032_Node000010"><a xlink:title=" ">
<path fill="none" stroke="#63b8ff" d="M385.07,-220.75C382.05,-203.5 375.32,-165.08 371.16,-141.31"/>
<polygon fill="#63b8ff" stroke="#63b8ff" points="374.63,-140.86 369.46,-131.62 367.74,-142.07 374.63,-140.86"/>
</a>
</g>
</g>
</g>
</svg>
