<?xml version="1.0" encoding="UTF-8" standalone="no"?>
<!DOCTYPE svg PUBLIC "-//W3C//DTD SVG 1.1//EN"
 "http://www.w3.org/Graphics/SVG/1.1/DTD/svg11.dtd">
<!-- Generated by graphviz version 14.0.2 (20251019.1705)
 -->
<!-- Title: src/armnnUtils/TensorUtils.cpp Pages: 1 -->
<svg width="1452pt" height="359pt"
 viewBox="0.00 0.00 1452.00 359.00" xmlns="http://www.w3.org/2000/svg" xmlns:xlink="http://www.w3.org/1999/xlink">
<g id="graph0" class="graph" transform="scale(1 1) rotate(0) translate(4 354.75)">
<title>src/armnnUtils/TensorUtils.cpp</title>
<!-- Node1 -->
<g id="Node000001" class="node">
<title>Node1</title>
<g id="a_Node000001"><a xlink:title=" ">
<polygon fill="#999999" stroke="#666666" points="1210.12,-350.75 1059.12,-350.75 1059.12,-331.5 1210.12,-331.5 1210.12,-350.75"/>
<text xml:space="preserve" text-anchor="middle" x="1134.62" y="-337.25" font-family="Helvetica,sans-Serif" font-size="10.00">src/armnnUtils/TensorUtils.cpp</text>
</a>
</g>
</g>
<!-- Node2 -->
<g id="Node000002" class="node">
<title>Node2</title>
<g id="a_Node000002"><a xlink:href="_tensor_utils_8hpp.html" target="_top" xlink:title=" ">
<polygon fill="white" stroke="#666666" points="684.88,-295.5 550.38,-295.5 550.38,-276.25 684.88,-276.25 684.88,-295.5"/>
<text xml:space="preserve" text-anchor="middle" x="617.62" y="-282" font-family="Helvetica,sans-Serif" font-size="10.00">armnnUtils/TensorUtils.hpp</text>
</a>
</g>
</g>
<!-- Node1&#45;&gt;Node2 -->
<g id="edge1_Node000001_Node000002" class="edge">
<title>Node1&#45;&gt;Node2</title>
<g id="a_edge1_Node000001_Node000002"><a xlink:title=" ">
<path fill="none" stroke="#63b8ff" d="M1058.9,-332.32C962.04,-322.35 795.1,-305.15 696.67,-295.02"/>
<polygon fill="#63b8ff" stroke="#63b8ff" points="697.13,-291.55 686.82,-294 696.41,-298.51 697.13,-291.55"/>
</a>
</g>
</g>
<!-- Node11 -->
<g id="Node000011" class="node">
<title>Node11</title>
<g id="a_Node000011"><a xlink:href="_exceptions_8hpp.html" target="_top" xlink:title=" ">
<polygon fill="white" stroke="#666666" points="775.38,-74.5 661.88,-74.5 661.88,-55.25 775.38,-55.25 775.38,-74.5"/>
<text xml:space="preserve" text-anchor="middle" x="718.62" y="-61" font-family="Helvetica,sans-Serif" font-size="10.00">armnn/Exceptions.hpp</text>
</a>
</g>
</g>
<!-- Node1&#45;&gt;Node11 -->
<g id="edge44_Node000001_Node000011" class="edge">
<title>Node1&#45;&gt;Node11</title>
<g id="a_edge44_Node000001_Node000011"><a xlink:title=" ">
<path fill="none" stroke="#63b8ff" d="M1111.74,-331.11C1078.52,-316.86 1017.24,-285.95 983.62,-240.25 968.48,-219.66 974.18,-209.71 967.62,-185 958.89,-152.08 974.26,-134.02 949.62,-110.5 937.82,-99.22 850.64,-84.62 786.85,-75.25"/>
<polygon fill="#63b8ff" stroke="#63b8ff" points="787.53,-71.81 777.13,-73.84 786.53,-78.74 787.53,-71.81"/>
</a>
</g>
</g>
<!-- Node27 -->
<g id="Node000027" class="node">
<title>Node27</title>
<g id="a_Node000027"><a xlink:href="_i_tensor_handle_8hpp.html" target="_top" xlink:title=" ">
<polygon fill="white" stroke="#666666" points="1165,-240.25 992.25,-240.25 992.25,-221 1165,-221 1165,-240.25"/>
<text xml:space="preserve" text-anchor="middle" x="1078.62" y="-226.75" font-family="Helvetica,sans-Serif" font-size="10.00">armnn/backends/ITensorHandle.hpp</text>
</a>
</g>
</g>
<!-- Node1&#45;&gt;Node27 -->
<g id="edge45_Node000001_Node000027" class="edge">
<title>Node1&#45;&gt;Node27</title>
<g id="a_edge45_Node000001_Node000027"><a xlink:title=" ">
<path fill="none" stroke="#63b8ff" d="M1130.04,-331.25C1121.02,-313.76 1100.76,-274.52 1088.54,-250.84"/>
<polygon fill="#63b8ff" stroke="#63b8ff" points="1091.66,-249.25 1083.97,-241.97 1085.44,-252.46 1091.66,-249.25"/>
</a>
</g>
</g>
<!-- Node30 -->
<g id="Node000030" class="node">
<title>Node30</title>
<g id="a_Node000030"><a xlink:href="_assert_8hpp.html" target="_top" xlink:title=" ">
<polygon fill="white" stroke="#666666" points="1333.38,-240.25 1213.88,-240.25 1213.88,-221 1333.38,-221 1333.38,-240.25"/>
<text xml:space="preserve" text-anchor="middle" x="1273.62" y="-226.75" font-family="Helvetica,sans-Serif" font-size="10.00">armnn/utility/Assert.hpp</text>
</a>
</g>
</g>
<!-- Node1&#45;&gt;Node30 -->
<g id="edge51_Node000001_Node000030" class="edge">
<title>Node1&#45;&gt;Node30</title>
<g id="a_edge51_Node000001_Node000030"><a xlink:title=" ">
<path fill="none" stroke="#63b8ff" d="M1140.69,-331.39C1150.18,-318.2 1169.62,-292.96 1190.62,-276.25 1206.17,-263.88 1225.63,-253.21 1241.81,-245.4"/>
<polygon fill="#63b8ff" stroke="#63b8ff" points="1242.94,-248.74 1250.52,-241.34 1239.98,-242.4 1242.94,-248.74"/>
</a>
</g>
</g>
<!-- Node32 -->
<g id="Node000032" class="node">
<title>Node32</title>
<g id="a_Node000032"><a xlink:href="_numeric_cast_8hpp.html" target="_top" xlink:title=" ">
<polygon fill="white" stroke="#666666" points="1348,-295.5 1199.25,-295.5 1199.25,-276.25 1348,-276.25 1348,-295.5"/>
<text xml:space="preserve" text-anchor="middle" x="1273.62" y="-282" font-family="Helvetica,sans-Serif" font-size="10.00">armnn/utility/NumericCast.hpp</text>
</a>
</g>
</g>
<!-- Node1&#45;&gt;Node32 -->
<g id="edge53_Node000001_Node000032" class="edge">
<title>Node1&#45;&gt;Node32</title>
<g id="a_edge53_Node000001_Node000032"><a xlink:title=" ">
<path fill="none" stroke="#63b8ff" d="M1158.2,-331.09C1180.47,-322.56 1214.12,-309.67 1239.35,-300.01"/>
<polygon fill="#63b8ff" stroke="#63b8ff" points="1240.43,-303.34 1248.52,-296.49 1237.93,-296.8 1240.43,-303.34"/>
</a>
</g>
</g>
<!-- Node34 -->
<g id="Node000034" class="node">
<title>Node34</title>
<g id="a_Node000034"><a xlink:title=" ">
<polygon fill="#e0e0e0" stroke="#999999" points="1435.25,-295.5 1366,-295.5 1366,-276.25 1435.25,-276.25 1435.25,-295.5"/>
<text xml:space="preserve" text-anchor="middle" x="1400.62" y="-282" font-family="Helvetica,sans-Serif" font-size="10.00">fmt/format.h</text>
</a>
</g>
</g>
<!-- Node1&#45;&gt;Node34 -->
<g id="edge57_Node000001_Node000034" class="edge">
<title>Node1&#45;&gt;Node34</title>
<g id="a_edge57_Node000001_Node000034"><a xlink:title=" ">
<path fill="none" stroke="#63b8ff" d="M1180.05,-331.03C1228.68,-321.3 1305.43,-305.93 1354.37,-296.13"/>
<polygon fill="#63b8ff" stroke="#63b8ff" points="1354.98,-299.58 1364.1,-294.19 1353.6,-292.72 1354.98,-299.58"/>
</a>
</g>
</g>
<!-- Node2&#45;&gt;Node2 -->
<g id="edge41_Node000002_Node000002" class="edge">
<title>Node2&#45;&gt;Node2</title>
<g id="a_edge41_Node000002_Node000002"><a xlink:title=" ">
<path fill="none" stroke="#63b8ff" d="M662.36,-295.98C683.88,-297.23 702.88,-293.86 702.88,-285.88 702.88,-279.32 690.09,-275.88 673.62,-275.54"/>
<polygon fill="#63b8ff" stroke="#63b8ff" points="673.8,-272.04 663.87,-275.74 673.94,-279.04 673.8,-272.04"/>
</a>
</g>
</g>
<!-- Node3 -->
<g id="Node000003" class="node">
<title>Node3</title>
<g id="a_Node000003"><a xlink:href="_types_utils_8hpp.html" target="_top" xlink:title=" ">
<polygon fill="white" stroke="#666666" points="543.25,-240.25 432,-240.25 432,-221 543.25,-221 543.25,-240.25"/>
<text xml:space="preserve" text-anchor="middle" x="487.62" y="-226.75" font-family="Helvetica,sans-Serif" font-size="10.00">armnn/TypesUtils.hpp</text>
</a>
</g>
</g>
<!-- Node2&#45;&gt;Node3 -->
<g id="edge2_Node000002_Node000003" class="edge">
<title>Node2&#45;&gt;Node3</title>
<g id="a_edge2_Node000002_Node000003"><a xlink:title=" ">
<path fill="none" stroke="#63b8ff" d="M595.57,-275.84C574.94,-267.39 543.84,-254.65 520.32,-245.02"/>
<polygon fill="#63b8ff" stroke="#63b8ff" points="521.77,-241.83 511.19,-241.28 519.11,-248.31 521.77,-241.83"/>
</a>
</g>
</g>
<!-- Node10 -->
<g id="Node000010" class="node">
<title>Node10</title>
<g id="a_Node000010"><a xlink:title=" ">
<polygon fill="#e0e0e0" stroke="#999999" points="323.12,-19.25 280.12,-19.25 280.12,0 323.12,0 323.12,-19.25"/>
<text xml:space="preserve" text-anchor="middle" x="301.62" y="-5.75" font-family="Helvetica,sans-Serif" font-size="10.00">vector</text>
</a>
</g>
</g>
<!-- Node2&#45;&gt;Node10 -->
<g id="edge43_Node000002_Node000010" class="edge">
<title>Node2&#45;&gt;Node10</title>
<g id="a_edge43_Node000002_Node000010"><a xlink:title=" ">
<path fill="none" stroke="#63b8ff" d="M549.95,-279.79C439.24,-269.58 231.62,-241.72 231.62,-176.38 231.62,-176.38 231.62,-176.38 231.62,-119.12 231.62,-89.51 234.63,-80.18 250.62,-55.25 257.85,-43.99 268.71,-33.94 278.56,-26.23"/>
<polygon fill="#63b8ff" stroke="#63b8ff" points="280.35,-29.26 286.32,-20.5 276.2,-23.63 280.35,-29.26"/>
</a>
</g>
</g>
<!-- Node14 -->
<g id="Node000014" class="node">
<title>Node14</title>
<g id="a_Node000014"><a xlink:href="_tensor_8hpp.html" target="_top" xlink:title=" ">
<polygon fill="white" stroke="#666666" points="739.25,-185 646,-185 646,-165.75 739.25,-165.75 739.25,-185"/>
<text xml:space="preserve" text-anchor="middle" x="692.62" y="-171.5" font-family="Helvetica,sans-Serif" font-size="10.00">armnn/Tensor.hpp</text>
</a>
</g>
</g>
<!-- Node2&#45;&gt;Node14 -->
<g id="edge39_Node000002_Node000014" class="edge">
<title>Node2&#45;&gt;Node14</title>
<g id="a_edge39_Node000002_Node000014"><a xlink:title=" ">
<path fill="none" stroke="#63b8ff" d="M623.76,-276C636.01,-258.27 663.72,-218.19 680.01,-194.63"/>
<polygon fill="#63b8ff" stroke="#63b8ff" points="682.73,-196.84 685.54,-186.62 676.98,-192.86 682.73,-196.84"/>
</a>
</g>
</g>
<!-- Node18 -->
<g id="Node000018" class="node">
<title>Node18</title>
<g id="a_Node000018"><a xlink:href="_types_8hpp.html" target="_top" xlink:title=" ">
<polygon fill="white" stroke="#666666" points="513.12,-129.75 452.12,-129.75 452.12,-110.5 513.12,-110.5 513.12,-129.75"/>
<text xml:space="preserve" text-anchor="middle" x="482.62" y="-116.25" font-family="Helvetica,sans-Serif" font-size="10.00">Types.hpp</text>
</a>
</g>
</g>
<!-- Node2&#45;&gt;Node18 -->
<g id="edge40_Node000002_Node000018" class="edge">
<title>Node2&#45;&gt;Node18</title>
<g id="a_edge40_Node000002_Node000018"><a xlink:title=" ">
<path fill="none" stroke="#63b8ff" d="M615.38,-276.06C609.58,-254.77 592.31,-199.85 560.62,-165.75 548.37,-152.56 531.32,-142.2 516.28,-134.79"/>
<polygon fill="#63b8ff" stroke="#63b8ff" points="518.2,-131.82 507.65,-130.78 515.24,-138.17 518.2,-131.82"/>
</a>
</g>
</g>
<!-- Node25 -->
<g id="Node000025" class="node">
<title>Node25</title>
<g id="a_Node000025"><a xlink:title=" ">
<polygon fill="#e0e0e0" stroke="#999999" points="940.25,-129.75 901,-129.75 901,-110.5 940.25,-110.5 940.25,-129.75"/>
<text xml:space="preserve" text-anchor="middle" x="920.62" y="-116.25" font-family="Helvetica,sans-Serif" font-size="10.00">utility</text>
</a>
</g>
</g>
<!-- Node2&#45;&gt;Node25 -->
<g id="edge42_Node000002_Node000025" class="edge">
<title>Node2&#45;&gt;Node25</title>
<g id="a_edge42_Node000002_Node000025"><a xlink:title=" ">
<path fill="none" stroke="#63b8ff" d="M675.5,-275.8C734.57,-263.93 825.97,-238.05 886.62,-185 900.22,-173.11 909.27,-154.43 914.59,-140.34"/>
<polygon fill="#63b8ff" stroke="#63b8ff" points="917.77,-141.86 917.71,-131.26 911.15,-139.58 917.77,-141.86"/>
</a>
</g>
</g>
<!-- Node4 -->
<g id="Node000004" class="node">
<title>Node4</title>
<g id="a_Node000004"><a xlink:href="_backend_id_8hpp.html" target="_top" xlink:title=" ">
<polygon fill="white" stroke="#666666" points="203.25,-74.5 92,-74.5 92,-55.25 203.25,-55.25 203.25,-74.5"/>
<text xml:space="preserve" text-anchor="middle" x="147.62" y="-61" font-family="Helvetica,sans-Serif" font-size="10.00">armnn/BackendId.hpp</text>
</a>
</g>
</g>
<!-- Node3&#45;&gt;Node4 -->
<g id="edge3_Node000003_Node000004" class="edge">
<title>Node3&#45;&gt;Node4</title>
<g id="a_edge3_Node000003_Node000004"><a xlink:title=" ">
<path fill="none" stroke="#63b8ff" d="M470.99,-220.55C454.75,-211.64 429.37,-197.59 407.62,-185 351.99,-152.78 342.09,-137.25 283.62,-110.5 254.56,-97.2 220.37,-86 193.54,-78.15"/>
<polygon fill="#63b8ff" stroke="#63b8ff" points="194.56,-74.8 183.98,-75.41 192.63,-81.53 194.56,-74.8"/>
</a>
</g>
</g>
<!-- Node6 -->
<g id="Node000006" class="node">
<title>Node6</title>
<g id="a_Node000006"><a xlink:title=" ">
<polygon fill="#e0e0e0" stroke="#999999" points="51.25,-19.25 0,-19.25 0,0 51.25,0 51.25,-19.25"/>
<text xml:space="preserve" text-anchor="middle" x="25.62" y="-5.75" font-family="Helvetica,sans-Serif" font-size="10.00">ostream</text>
</a>
</g>
</g>
<!-- Node3&#45;&gt;Node6 -->
<g id="edge36_Node000003_Node000006" class="edge">
<title>Node3&#45;&gt;Node6</title>
<g id="a_edge36_Node000003_Node000006"><a xlink:title=" ">
<path fill="none" stroke="#63b8ff" d="M431.73,-228.79C370.51,-226.18 270.41,-216.84 190.62,-185 114.52,-154.63 58,-68.07 35.86,-29.53"/>
<polygon fill="#63b8ff" stroke="#63b8ff" points="39,-27.97 31.07,-20.94 32.89,-31.38 39,-27.97"/>
</a>
</g>
</g>
<!-- Node7 -->
<g id="Node000007" class="node">
<title>Node7</title>
<g id="a_Node000007"><a xlink:title=" ">
<polygon fill="#e0e0e0" stroke="#999999" points="98.38,-19.25 68.88,-19.25 68.88,0 98.38,0 98.38,-19.25"/>
<text xml:space="preserve" text-anchor="middle" x="83.62" y="-5.75" font-family="Helvetica,sans-Serif" font-size="10.00">set</text>
</a>
</g>
</g>
<!-- Node3&#45;&gt;Node7 -->
<g id="edge37_Node000003_Node000007" class="edge">
<title>Node3&#45;&gt;Node7</title>
<g id="a_edge37_Node000003_Node000007"><a xlink:title=" ">
<path fill="none" stroke="#63b8ff" d="M431.51,-227.08C340.3,-219.57 162.1,-190.04 82.62,-74.5 73.87,-61.77 74.94,-43.97 77.74,-30.4"/>
<polygon fill="#63b8ff" stroke="#63b8ff" points="81.09,-31.4 80.18,-20.85 74.31,-29.67 81.09,-31.4"/>
</a>
</g>
</g>
<!-- Node3&#45;&gt;Node11 -->
<g id="edge10_Node000003_Node000011" class="edge">
<title>Node3&#45;&gt;Node11</title>
<g id="a_edge10_Node000003_Node000011"><a xlink:title=" ">
<path fill="none" stroke="#63b8ff" d="M503.28,-220.65C518.26,-211.93 541.34,-198.12 560.62,-185 611.66,-150.28 668.9,-105.61 698.48,-82.06"/>
<polygon fill="#63b8ff" stroke="#63b8ff" points="700.6,-84.86 706.22,-75.88 696.23,-79.39 700.6,-84.86"/>
</a>
</g>
</g>
<!-- Node3&#45;&gt;Node14 -->
<g id="edge14_Node000003_Node000014" class="edge">
<title>Node3&#45;&gt;Node14</title>
<g id="a_edge14_Node000003_Node000014"><a xlink:title=" ">
<path fill="none" stroke="#63b8ff" d="M522.4,-220.59C556.71,-211.68 609.35,-198.01 647,-188.23"/>
<polygon fill="#63b8ff" stroke="#63b8ff" points="647.42,-191.73 656.21,-185.83 645.66,-184.96 647.42,-191.73"/>
</a>
</g>
</g>
<!-- Node17 -->
<g id="Node000017" class="node">
<title>Node17</title>
<g id="a_Node000017"><a xlink:title=" ">
<polygon fill="#e0e0e0" stroke="#999999" points="978.5,-74.5 916.75,-74.5 916.75,-55.25 978.5,-55.25 978.5,-74.5"/>
<text xml:space="preserve" text-anchor="middle" x="947.62" y="-61" font-family="Helvetica,sans-Serif" font-size="10.00">type_traits</text>
</a>
</g>
</g>
<!-- Node3&#45;&gt;Node17 -->
<g id="edge38_Node000003_Node000017" class="edge">
<title>Node3&#45;&gt;Node17</title>
<g id="a_edge38_Node000003_Node000017"><a xlink:title=" ">
<path fill="none" stroke="#63b8ff" d="M543.61,-225.19C597.33,-219.74 680.16,-208.21 748.62,-185 798.57,-168.07 808.41,-156.89 853.62,-129.75 879.29,-114.34 907.56,-94.76 926.32,-81.36"/>
<polygon fill="#63b8ff" stroke="#63b8ff" points="928.14,-84.37 934.22,-75.69 924.06,-78.68 928.14,-84.37"/>
</a>
</g>
</g>
<!-- Node3&#45;&gt;Node18 -->
<g id="edge33_Node000003_Node000018" class="edge">
<title>Node3&#45;&gt;Node18</title>
<g id="a_edge33_Node000003_Node000018"><a xlink:title=" ">
<path fill="none" stroke="#63b8ff" d="M487.22,-220.75C486.42,-203.5 484.65,-165.08 483.56,-141.31"/>
<polygon fill="#63b8ff" stroke="#63b8ff" points="487.07,-141.47 483.11,-131.64 480.07,-141.79 487.07,-141.47"/>
</a>
</g>
</g>
<!-- Node21 -->
<g id="Node000021" class="node">
<title>Node21</title>
<g id="a_Node000021"><a xlink:title=" ">
<polygon fill="#e0e0e0" stroke="#999999" points="307.75,-74.5 259.5,-74.5 259.5,-55.25 307.75,-55.25 307.75,-74.5"/>
<text xml:space="preserve" text-anchor="middle" x="283.62" y="-61" font-family="Helvetica,sans-Serif" font-size="10.00">stdint.h</text>
</a>
</g>
</g>
<!-- Node3&#45;&gt;Node21 -->
<g id="edge34_Node000003_Node000021" class="edge">
<title>Node3&#45;&gt;Node21</title>
<g id="a_edge34_Node000003_Node000021"><a xlink:title=" ">
<path fill="none" stroke="#63b8ff" d="M476.37,-220.59C443.28,-194.03 346.01,-115.95 303.68,-81.98"/>
<polygon fill="#63b8ff" stroke="#63b8ff" points="306.02,-79.36 296.03,-75.83 301.64,-84.82 306.02,-79.36"/>
</a>
</g>
</g>
<!-- Node26 -->
<g id="Node000026" class="node">
<title>Node26</title>
<g id="a_Node000026"><a xlink:title=" ">
<polygon fill="#e0e0e0" stroke="#999999" points="551.12,-185 508.12,-185 508.12,-165.75 551.12,-165.75 551.12,-185"/>
<text xml:space="preserve" text-anchor="middle" x="529.62" y="-171.5" font-family="Helvetica,sans-Serif" font-size="10.00">cmath</text>
</a>
</g>
</g>
<!-- Node3&#45;&gt;Node26 -->
<g id="edge35_Node000003_Node000026" class="edge">
<title>Node3&#45;&gt;Node26</title>
<g id="a_edge35_Node000003_Node000026"><a xlink:title=" ">
<path fill="none" stroke="#63b8ff" d="M494.56,-220.83C500.24,-213.63 508.46,-203.21 515.52,-194.26"/>
<polygon fill="#63b8ff" stroke="#63b8ff" points="518.16,-196.57 521.6,-186.55 512.66,-192.23 518.16,-196.57"/>
</a>
</g>
</g>
<!-- Node5 -->
<g id="Node000005" class="node">
<title>Node5</title>
<g id="a_Node000005"><a xlink:title=" ">
<polygon fill="#e0e0e0" stroke="#999999" points="167.25,-19.25 116,-19.25 116,0 167.25,0 167.25,-19.25"/>
<text xml:space="preserve" text-anchor="middle" x="141.62" y="-5.75" font-family="Helvetica,sans-Serif" font-size="10.00">memory</text>
</a>
</g>
</g>
<!-- Node4&#45;&gt;Node5 -->
<g id="edge4_Node000004_Node000005" class="edge">
<title>Node4&#45;&gt;Node5</title>
<g id="a_edge4_Node000004_Node000005"><a xlink:title=" ">
<path fill="none" stroke="#63b8ff" d="M146.63,-55.08C145.89,-48.49 144.85,-39.21 143.9,-30.82"/>
<polygon fill="#63b8ff" stroke="#63b8ff" points="147.4,-30.66 142.81,-21.11 140.45,-31.44 147.4,-30.66"/>
</a>
</g>
</g>
<!-- Node4&#45;&gt;Node6 -->
<g id="edge5_Node000004_Node000006" class="edge">
<title>Node4&#45;&gt;Node6</title>
<g id="a_edge5_Node000004_Node000006"><a xlink:title=" ">
<path fill="none" stroke="#63b8ff" d="M126.93,-54.84C107.74,-46.47 78.91,-33.88 56.91,-24.28"/>
<polygon fill="#63b8ff" stroke="#63b8ff" points="58.37,-21.1 47.81,-20.31 55.57,-27.52 58.37,-21.1"/>
</a>
</g>
</g>
<!-- Node4&#45;&gt;Node7 -->
<g id="edge6_Node000004_Node000007" class="edge">
<title>Node4&#45;&gt;Node7</title>
<g id="a_edge6_Node000004_Node000007"><a xlink:title=" ">
<path fill="none" stroke="#63b8ff" d="M136.77,-54.84C127.52,-47.15 114,-35.9 102.92,-26.68"/>
<polygon fill="#63b8ff" stroke="#63b8ff" points="105.41,-24.2 95.48,-20.49 100.93,-29.58 105.41,-24.2"/>
</a>
</g>
</g>
<!-- Node8 -->
<g id="Node000008" class="node">
<title>Node8</title>
<g id="a_Node000008"><a xlink:title=" ">
<polygon fill="#e0e0e0" stroke="#999999" points="527.62,-19.25 487.62,-19.25 487.62,0 527.62,0 527.62,-19.25"/>
<text xml:space="preserve" text-anchor="middle" x="507.62" y="-5.75" font-family="Helvetica,sans-Serif" font-size="10.00">string</text>
</a>
</g>
</g>
<!-- Node4&#45;&gt;Node8 -->
<g id="edge7_Node000004_Node000008" class="edge">
<title>Node4&#45;&gt;Node8</title>
<g id="a_edge7_Node000004_Node000008"><a xlink:title=" ">
<path fill="none" stroke="#63b8ff" d="M203.48,-55.61C280.13,-44.27 415.35,-24.27 476.29,-15.26"/>
<polygon fill="#63b8ff" stroke="#63b8ff" points="476.57,-18.76 485.95,-13.83 475.55,-11.83 476.57,-18.76"/>
</a>
</g>
</g>
<!-- Node9 -->
<g id="Node000009" class="node">
<title>Node9</title>
<g id="a_Node000009"><a xlink:title=" ">
<polygon fill="#e0e0e0" stroke="#999999" points="262.38,-19.25 184.88,-19.25 184.88,0 262.38,0 262.38,-19.25"/>
<text xml:space="preserve" text-anchor="middle" x="223.62" y="-5.75" font-family="Helvetica,sans-Serif" font-size="10.00">unordered_set</text>
</a>
</g>
</g>
<!-- Node4&#45;&gt;Node9 -->
<g id="edge8_Node000004_Node000009" class="edge">
<title>Node4&#45;&gt;Node9</title>
<g id="a_edge8_Node000004_Node000009"><a xlink:title=" ">
<path fill="none" stroke="#63b8ff" d="M160.52,-54.84C171.65,-47.04 188,-35.59 201.26,-26.29"/>
<polygon fill="#63b8ff" stroke="#63b8ff" points="203.25,-29.18 209.43,-20.57 199.23,-23.44 203.25,-29.18"/>
</a>
</g>
</g>
<!-- Node4&#45;&gt;Node10 -->
<g id="edge9_Node000004_Node000010" class="edge">
<title>Node4&#45;&gt;Node10</title>
<g id="a_edge9_Node000004_Node000010"><a xlink:title=" ">
<path fill="none" stroke="#63b8ff" d="M173.75,-54.84C200.11,-45.73 240.88,-31.63 269.27,-21.81"/>
<polygon fill="#63b8ff" stroke="#63b8ff" points="270.12,-25.22 278.43,-18.64 267.84,-18.61 270.12,-25.22"/>
</a>
</g>
</g>
<!-- Node11&#45;&gt;Node8 -->
<g id="edge13_Node000011_Node000008" class="edge">
<title>Node11&#45;&gt;Node8</title>
<g id="a_edge13_Node000011_Node000008"><a xlink:title=" ">
<path fill="none" stroke="#63b8ff" d="M682.83,-54.84C642.45,-44.65 577.4,-28.23 538.95,-18.53"/>
<polygon fill="#63b8ff" stroke="#63b8ff" points="539.95,-15.17 529.4,-16.12 538.24,-21.96 539.95,-15.17"/>
</a>
</g>
</g>
<!-- Node12 -->
<g id="Node000012" class="node">
<title>Node12</title>
<g id="a_Node000012"><a xlink:title=" ">
<polygon fill="#e0e0e0" stroke="#999999" points="707.25,-19.25 656,-19.25 656,0 707.25,0 707.25,-19.25"/>
<text xml:space="preserve" text-anchor="middle" x="681.62" y="-5.75" font-family="Helvetica,sans-Serif" font-size="10.00">sstream</text>
</a>
</g>
</g>
<!-- Node11&#45;&gt;Node12 -->
<g id="edge11_Node000011_Node000012" class="edge">
<title>Node11&#45;&gt;Node12</title>
<g id="a_edge11_Node000011_Node000012"><a xlink:title=" ">
<path fill="none" stroke="#63b8ff" d="M712.52,-55.08C707.56,-47.96 700.42,-37.68 694.25,-28.8"/>
<polygon fill="#63b8ff" stroke="#63b8ff" points="697.31,-27.07 688.73,-20.85 691.56,-31.06 697.31,-27.07"/>
</a>
</g>
</g>
<!-- Node13 -->
<g id="Node000013" class="node">
<title>Node13</title>
<g id="a_Node000013"><a xlink:title=" ">
<polygon fill="#e0e0e0" stroke="#999999" points="784,-19.25 725.25,-19.25 725.25,0 784,0 784,-19.25"/>
<text xml:space="preserve" text-anchor="middle" x="754.62" y="-5.75" font-family="Helvetica,sans-Serif" font-size="10.00">stdexcept</text>
</a>
</g>
</g>
<!-- Node11&#45;&gt;Node13 -->
<g id="edge12_Node000011_Node000013" class="edge">
<title>Node11&#45;&gt;Node13</title>
<g id="a_edge12_Node000011_Node000013"><a xlink:title=" ">
<path fill="none" stroke="#63b8ff" d="M724.57,-55.08C729.34,-48.03 736.19,-37.9 742.15,-29.08"/>
<polygon fill="#63b8ff" stroke="#63b8ff" points="745,-31.11 747.7,-20.86 739.2,-27.19 745,-31.11"/>
</a>
</g>
</g>
<!-- Node14&#45;&gt;Node10 -->
<g id="edge31_Node000014_Node000010" class="edge">
<title>Node14&#45;&gt;Node10</title>
<g id="a_edge31_Node000014_Node000010"><a xlink:title=" ">
<path fill="none" stroke="#63b8ff" d="M687.26,-165.28C671.48,-138.64 625.63,-62.25 614.62,-55.25 568.65,-26.02 405.76,-15.29 334.93,-11.94"/>
<polygon fill="#63b8ff" stroke="#63b8ff" points="335.26,-8.45 325.11,-11.5 334.95,-15.45 335.26,-8.45"/>
</a>
</g>
</g>
<!-- Node14&#45;&gt;Node11 -->
<g id="edge15_Node000014_Node000011" class="edge">
<title>Node14&#45;&gt;Node11</title>
<g id="a_edge15_Node000014_Node000011"><a xlink:title=" ">
<path fill="none" stroke="#63b8ff" d="M686.46,-165.48C678.59,-152.94 666.84,-129.47 674.62,-110.5 679.22,-99.29 688.14,-89.39 696.75,-81.78"/>
<polygon fill="#63b8ff" stroke="#63b8ff" points="698.71,-84.71 704.25,-75.68 694.29,-79.28 698.71,-84.71"/>
</a>
</g>
</g>
<!-- Node15 -->
<g id="Node000015" class="node">
<title>Node15</title>
<g id="a_Node000015"><a xlink:href="_optional_8hpp.html" target="_top" xlink:title=" ">
<polygon fill="white" stroke="#666666" points="754,-129.75 683.25,-129.75 683.25,-110.5 754,-110.5 754,-129.75"/>
<text xml:space="preserve" text-anchor="middle" x="718.62" y="-116.25" font-family="Helvetica,sans-Serif" font-size="10.00">Optional.hpp</text>
</a>
</g>
</g>
<!-- Node14&#45;&gt;Node15 -->
<g id="edge16_Node000014_Node000015" class="edge">
<title>Node14&#45;&gt;Node15</title>
<g id="a_edge16_Node000014_Node000015"><a xlink:title=" ">
<path fill="none" stroke="#63b8ff" d="M696.92,-165.58C700.25,-158.76 704.99,-149.06 709.19,-140.45"/>
<polygon fill="#63b8ff" stroke="#63b8ff" points="712.33,-141.99 713.57,-131.47 706.04,-138.92 712.33,-141.99"/>
</a>
</g>
</g>
<!-- Node14&#45;&gt;Node18 -->
<g id="edge20_Node000014_Node000018" class="edge">
<title>Node14&#45;&gt;Node18</title>
<g id="a_edge20_Node000014_Node000018"><a xlink:title=" ">
<path fill="none" stroke="#63b8ff" d="M657,-165.34C620.26,-156.02 563,-141.5 524.2,-131.67"/>
<polygon fill="#63b8ff" stroke="#63b8ff" points="525.31,-128.34 514.76,-129.27 523.59,-135.12 525.31,-128.34"/>
</a>
</g>
</g>
<!-- Node19 -->
<g id="Node000019" class="node">
<title>Node19</title>
<g id="a_Node000019"><a xlink:title=" ">
<polygon fill="#e0e0e0" stroke="#999999" points="605.5,-74.5 567.75,-74.5 567.75,-55.25 605.5,-55.25 605.5,-74.5"/>
<text xml:space="preserve" text-anchor="middle" x="586.62" y="-61" font-family="Helvetica,sans-Serif" font-size="10.00">array</text>
</a>
</g>
</g>
<!-- Node14&#45;&gt;Node19 -->
<g id="edge29_Node000014_Node000019" class="edge">
<title>Node14&#45;&gt;Node19</title>
<g id="a_edge29_Node000014_Node000019"><a xlink:title=" ">
<path fill="none" stroke="#63b8ff" d="M645.61,-170.99C617.42,-166.25 583.66,-155.21 565.62,-129.75 555.94,-116.09 563.7,-97.68 572.4,-84.14"/>
<polygon fill="#63b8ff" stroke="#63b8ff" points="575.16,-86.3 578.08,-76.12 569.45,-82.26 575.16,-86.3"/>
</a>
</g>
</g>
<!-- Node14&#45;&gt;Node21 -->
<g id="edge28_Node000014_Node000021" class="edge">
<title>Node14&#45;&gt;Node21</title>
<g id="a_edge28_Node000014_Node000021"><a xlink:title=" ">
<path fill="none" stroke="#63b8ff" d="M645.63,-168.84C595.08,-162.22 512.66,-149.5 443.62,-129.75 396.55,-116.29 344.26,-93.92 312.67,-79.55"/>
<polygon fill="#63b8ff" stroke="#63b8ff" points="314.32,-76.46 303.77,-75.46 311.4,-82.81 314.32,-76.46"/>
</a>
</g>
</g>
<!-- Node24 -->
<g id="Node000024" class="node">
<title>Node24</title>
<g id="a_Node000024"><a xlink:title=" ">
<polygon fill="#e0e0e0" stroke="#999999" points="844.75,-129.75 772.5,-129.75 772.5,-110.5 844.75,-110.5 844.75,-129.75"/>
<text xml:space="preserve" text-anchor="middle" x="808.62" y="-116.25" font-family="Helvetica,sans-Serif" font-size="10.00">initializer_list</text>
</a>
</g>
</g>
<!-- Node14&#45;&gt;Node24 -->
<g id="edge30_Node000014_Node000024" class="edge">
<title>Node14&#45;&gt;Node24</title>
<g id="a_edge30_Node000014_Node000024"><a xlink:title=" ">
<path fill="none" stroke="#63b8ff" d="M712.3,-165.34C730.47,-157 757.71,-144.5 778.59,-134.91"/>
<polygon fill="#63b8ff" stroke="#63b8ff" points="779.85,-138.19 787.48,-130.83 776.93,-131.83 779.85,-138.19"/>
</a>
</g>
</g>
<!-- Node14&#45;&gt;Node25 -->
<g id="edge32_Node000014_Node000025" class="edge">
<title>Node14&#45;&gt;Node25</title>
<g id="a_edge32_Node000014_Node000025"><a xlink:title=" ">
<path fill="none" stroke="#63b8ff" d="M731.56,-165.28C776.13,-154.87 848.25,-138.03 889.33,-128.43"/>
<polygon fill="#63b8ff" stroke="#63b8ff" points="890.12,-131.84 899.06,-126.16 888.53,-125.03 890.12,-131.84"/>
</a>
</g>
</g>
<!-- Node15&#45;&gt;Node11 -->
<g id="edge17_Node000015_Node000011" class="edge">
<title>Node15&#45;&gt;Node11</title>
<g id="a_edge17_Node000015_Node000011"><a xlink:title=" ">
<path fill="none" stroke="#63b8ff" d="M718.62,-110.33C718.62,-103.82 718.62,-94.67 718.62,-86.37"/>
<polygon fill="#63b8ff" stroke="#63b8ff" points="722.13,-86.37 718.63,-76.37 715.13,-86.37 722.13,-86.37"/>
</a>
</g>
</g>
<!-- Node16 -->
<g id="Node000016" class="node">
<title>Node16</title>
<g id="a_Node000016"><a xlink:title=" ">
<polygon fill="#e0e0e0" stroke="#999999" points="838.25,-74.5 793,-74.5 793,-55.25 838.25,-55.25 838.25,-74.5"/>
<text xml:space="preserve" text-anchor="middle" x="815.62" y="-61" font-family="Helvetica,sans-Serif" font-size="10.00">cstring</text>
</a>
</g>
</g>
<!-- Node15&#45;&gt;Node16 -->
<g id="edge18_Node000015_Node000016" class="edge">
<title>Node15&#45;&gt;Node16</title>
<g id="a_edge18_Node000015_Node000016"><a xlink:title=" ">
<path fill="none" stroke="#63b8ff" d="M735.08,-110.09C749.85,-101.98 771.8,-89.93 789.06,-80.46"/>
<polygon fill="#63b8ff" stroke="#63b8ff" points="790.68,-83.56 797.76,-75.68 787.31,-77.43 790.68,-83.56"/>
</a>
</g>
</g>
<!-- Node15&#45;&gt;Node17 -->
<g id="edge19_Node000015_Node000017" class="edge">
<title>Node15&#45;&gt;Node17</title>
<g id="a_edge19_Node000015_Node000017"><a xlink:title=" ">
<path fill="none" stroke="#63b8ff" d="M754.41,-110.8C795.28,-101.3 862.11,-85.76 905.47,-75.68"/>
<polygon fill="#63b8ff" stroke="#63b8ff" points="906.08,-79.13 915.03,-73.45 904.5,-72.31 906.08,-79.13"/>
</a>
</g>
</g>
<!-- Node18&#45;&gt;Node4 -->
<g id="edge25_Node000018_Node000004" class="edge">
<title>Node18&#45;&gt;Node4</title>
<g id="a_edge25_Node000018_Node000004"><a xlink:title=" ">
<path fill="none" stroke="#63b8ff" d="M451.71,-114.21C398.13,-105.69 286.85,-88 214.79,-76.55"/>
<polygon fill="#63b8ff" stroke="#63b8ff" points="215.5,-73.12 205.07,-75.01 214.4,-80.03 215.5,-73.12"/>
</a>
</g>
</g>
<!-- Node18&#45;&gt;Node11 -->
<g id="edge26_Node000018_Node000011" class="edge">
<title>Node18&#45;&gt;Node11</title>
<g id="a_edge26_Node000018_Node000011"><a xlink:title=" ">
<path fill="none" stroke="#63b8ff" d="M513.48,-112.16C552.49,-103.36 620.22,-88.08 667.13,-77.49"/>
<polygon fill="#63b8ff" stroke="#63b8ff" points="667.82,-80.93 676.81,-75.31 666.28,-74.1 667.82,-80.93"/>
</a>
</g>
</g>
<!-- Node18&#45;&gt;Node19 -->
<g id="edge21_Node000018_Node000019" class="edge">
<title>Node18&#45;&gt;Node19</title>
<g id="a_edge21_Node000018_Node000019"><a xlink:title=" ">
<path fill="none" stroke="#63b8ff" d="M500.27,-110.09C516.25,-101.91 540.08,-89.71 558.66,-80.19"/>
<polygon fill="#63b8ff" stroke="#63b8ff" points="560.24,-83.32 567.55,-75.64 557.05,-77.08 560.24,-83.32"/>
</a>
</g>
</g>
<!-- Node20 -->
<g id="Node000020" class="node">
<title>Node20</title>
<g id="a_Node000020"><a xlink:title=" ">
<polygon fill="#e0e0e0" stroke="#999999" points="383.62,-74.5 325.62,-74.5 325.62,-55.25 383.62,-55.25 383.62,-74.5"/>
<text xml:space="preserve" text-anchor="middle" x="354.62" y="-61" font-family="Helvetica,sans-Serif" font-size="10.00">functional</text>
</a>
</g>
</g>
<!-- Node18&#45;&gt;Node20 -->
<g id="edge22_Node000018_Node000020" class="edge">
<title>Node18&#45;&gt;Node20</title>
<g id="a_edge22_Node000018_Node000020"><a xlink:title=" ">
<path fill="none" stroke="#63b8ff" d="M460.91,-110.09C440.59,-101.64 409.98,-88.9 386.82,-79.27"/>
<polygon fill="#63b8ff" stroke="#63b8ff" points="388.42,-76.14 377.84,-75.53 385.73,-82.61 388.42,-76.14"/>
</a>
</g>
</g>
<!-- Node18&#45;&gt;Node21 -->
<g id="edge23_Node000018_Node000021" class="edge">
<title>Node18&#45;&gt;Node21</title>
<g id="a_edge23_Node000018_Node000021"><a xlink:title=" ">
<path fill="none" stroke="#63b8ff" d="M451.97,-110.92C416.1,-101.32 356.83,-85.46 319.03,-75.35"/>
<polygon fill="#63b8ff" stroke="#63b8ff" points="320.07,-72 309.5,-72.8 318.26,-78.77 320.07,-72"/>
</a>
</g>
</g>
<!-- Node22 -->
<g id="Node000022" class="node">
<title>Node22</title>
<g id="a_Node000022"><a xlink:title=" ">
<polygon fill="#e0e0e0" stroke="#999999" points="447.25,-74.5 402,-74.5 402,-55.25 447.25,-55.25 447.25,-74.5"/>
<text xml:space="preserve" text-anchor="middle" x="424.62" y="-61" font-family="Helvetica,sans-Serif" font-size="10.00">chrono</text>
</a>
</g>
</g>
<!-- Node18&#45;&gt;Node22 -->
<g id="edge24_Node000018_Node000022" class="edge">
<title>Node18&#45;&gt;Node22</title>
<g id="a_edge24_Node000018_Node000022"><a xlink:title=" ">
<path fill="none" stroke="#63b8ff" d="M472.79,-110.09C464.57,-102.55 452.64,-91.6 442.71,-82.48"/>
<polygon fill="#63b8ff" stroke="#63b8ff" points="445.17,-79.98 435.43,-75.8 440.43,-85.14 445.17,-79.98"/>
</a>
</g>
</g>
<!-- Node23 -->
<g id="Node000023" class="node">
<title>Node23</title>
<g id="a_Node000023"><a xlink:href="_deprecated_8hpp.html" target="_top" xlink:title=" ">
<polygon fill="white" stroke="#666666" points="550.12,-74.5 465.12,-74.5 465.12,-55.25 550.12,-55.25 550.12,-74.5"/>
<text xml:space="preserve" text-anchor="middle" x="507.62" y="-61" font-family="Helvetica,sans-Serif" font-size="10.00">Deprecated.hpp</text>
</a>
</g>
</g>
<!-- Node18&#45;&gt;Node23 -->
<g id="edge27_Node000018_Node000023" class="edge">
<title>Node18&#45;&gt;Node23</title>
<g id="a_edge27_Node000018_Node000023"><a xlink:title=" ">
<path fill="none" stroke="#63b8ff" d="M486.75,-110.33C489.95,-103.51 494.51,-93.81 498.55,-85.2"/>
<polygon fill="#63b8ff" stroke="#63b8ff" points="501.68,-86.77 502.76,-76.23 495.35,-83.79 501.68,-86.77"/>
</a>
</g>
</g>
<!-- Node27&#45;&gt;Node14 -->
<g id="edge50_Node000027_Node000014" class="edge">
<title>Node27&#45;&gt;Node14</title>
<g id="a_edge50_Node000027_Node000014"><a xlink:title=" ">
<path fill="none" stroke="#63b8ff" d="M1012.71,-220.53C939.18,-210.39 821.34,-194.13 751.01,-184.43"/>
<polygon fill="#63b8ff" stroke="#63b8ff" points="751.61,-180.98 741.23,-183.08 750.65,-187.91 751.61,-180.98"/>
</a>
</g>
</g>
<!-- Node28 -->
<g id="Node000028" class="node">
<title>Node28</title>
<g id="a_Node000028"><a xlink:href="_memory_sources_8hpp.html" target="_top" xlink:title=" ">
<polygon fill="white" stroke="#666666" points="1112.62,-185 976.62,-185 976.62,-165.75 1112.62,-165.75 1112.62,-185"/>
<text xml:space="preserve" text-anchor="middle" x="1044.62" y="-171.5" font-family="Helvetica,sans-Serif" font-size="10.00">armnn/MemorySources.hpp</text>
</a>
</g>
</g>
<!-- Node27&#45;&gt;Node28 -->
<g id="edge46_Node000027_Node000028" class="edge">
<title>Node27&#45;&gt;Node28</title>
<g id="a_edge46_Node000027_Node000028"><a xlink:title=" ">
<path fill="none" stroke="#63b8ff" d="M1073.01,-220.83C1068.51,-213.78 1062.04,-203.65 1056.41,-194.83"/>
<polygon fill="#63b8ff" stroke="#63b8ff" points="1059.51,-193.18 1051.18,-186.63 1053.61,-196.95 1059.51,-193.18"/>
</a>
</g>
</g>
<!-- Node29 -->
<g id="Node000029" class="node">
<title>Node29</title>
<g id="a_Node000029"><a xlink:href="_ignore_unused_8hpp.html" target="_top" xlink:title=" ">
<polygon fill="white" stroke="#666666" points="1282.5,-185 1130.75,-185 1130.75,-165.75 1282.5,-165.75 1282.5,-185"/>
<text xml:space="preserve" text-anchor="middle" x="1206.62" y="-171.5" font-family="Helvetica,sans-Serif" font-size="10.00">armnn/utility/IgnoreUnused.hpp</text>
</a>
</g>
</g>
<!-- Node27&#45;&gt;Node29 -->
<g id="edge49_Node000027_Node000029" class="edge">
<title>Node27&#45;&gt;Node29</title>
<g id="a_edge49_Node000027_Node000029"><a xlink:title=" ">
<path fill="none" stroke="#63b8ff" d="M1100.34,-220.59C1120.66,-212.14 1151.27,-199.4 1174.43,-189.77"/>
<polygon fill="#63b8ff" stroke="#63b8ff" points="1175.52,-193.11 1183.41,-186.03 1172.83,-186.64 1175.52,-193.11"/>
</a>
</g>
</g>
<!-- Node28&#45;&gt;Node17 -->
<g id="edge48_Node000028_Node000017" class="edge">
<title>Node28&#45;&gt;Node17</title>
<g id="a_edge48_Node000028_Node000017"><a xlink:title=" ">
<path fill="none" stroke="#63b8ff" d="M1036.69,-165.5C1020.63,-147.53 984.04,-106.61 963.1,-83.19"/>
<polygon fill="#63b8ff" stroke="#63b8ff" points="965.96,-81.13 956.68,-76.01 960.74,-85.79 965.96,-81.13"/>
</a>
</g>
</g>
<!-- Node28&#45;&gt;Node18 -->
<g id="edge47_Node000028_Node000018" class="edge">
<title>Node28&#45;&gt;Node18</title>
<g id="a_edge47_Node000028_Node000018"><a xlink:title=" ">
<path fill="none" stroke="#63b8ff" d="M976.27,-167.9C858.61,-156.75 621.16,-134.25 524.75,-125.12"/>
<polygon fill="#63b8ff" stroke="#63b8ff" points="525.23,-121.65 514.94,-124.19 524.57,-128.62 525.23,-121.65"/>
</a>
</g>
</g>
<!-- Node31 -->
<g id="Node000031" class="node">
<title>Node31</title>
<g id="a_Node000031"><a xlink:title=" ">
<polygon fill="#e0e0e0" stroke="#999999" points="1348.75,-185 1300.5,-185 1300.5,-165.75 1348.75,-165.75 1348.75,-185"/>
<text xml:space="preserve" text-anchor="middle" x="1324.62" y="-171.5" font-family="Helvetica,sans-Serif" font-size="10.00">cassert</text>
</a>
</g>
</g>
<!-- Node30&#45;&gt;Node31 -->
<g id="edge52_Node000030_Node000031" class="edge">
<title>Node30&#45;&gt;Node31</title>
<g id="a_edge52_Node000030_Node000031"><a xlink:title=" ">
<path fill="none" stroke="#63b8ff" d="M1282.05,-220.83C1289.16,-213.4 1299.57,-202.54 1308.31,-193.41"/>
<polygon fill="#63b8ff" stroke="#63b8ff" points="1310.58,-196.1 1314.97,-186.45 1305.53,-191.25 1310.58,-196.1"/>
</a>
</g>
</g>
<!-- Node32&#45;&gt;Node17 -->
<g id="edge55_Node000032_Node000017" class="edge">
<title>Node32&#45;&gt;Node17</title>
<g id="a_edge55_Node000032_Node000017"><a xlink:title=" ">
<path fill="none" stroke="#63b8ff" d="M1295.7,-275.78C1311.03,-268.38 1330.76,-256.49 1342.62,-240.25 1362.55,-212.98 1378.49,-192.31 1357.62,-165.75 1312.17,-107.89 1085.62,-79.34 990.15,-69.73"/>
<polygon fill="#63b8ff" stroke="#63b8ff" points="990.71,-66.26 980.42,-68.77 990.03,-73.23 990.71,-66.26"/>
</a>
</g>
</g>
<!-- Node32&#45;&gt;Node30 -->
<g id="edge54_Node000032_Node000030" class="edge">
<title>Node32&#45;&gt;Node30</title>
<g id="a_edge54_Node000032_Node000030"><a xlink:title=" ">
<path fill="none" stroke="#63b8ff" d="M1273.62,-276.08C1273.62,-269.57 1273.62,-260.42 1273.62,-252.12"/>
<polygon fill="#63b8ff" stroke="#63b8ff" points="1277.13,-252.12 1273.63,-242.12 1270.13,-252.12 1277.13,-252.12"/>
</a>
</g>
</g>
<!-- Node33 -->
<g id="Node000033" class="node">
<title>Node33</title>
<g id="a_Node000033"><a xlink:title=" ">
<polygon fill="#e0e0e0" stroke="#999999" points="1444.25,-240.25 1405,-240.25 1405,-221 1444.25,-221 1444.25,-240.25"/>
<text xml:space="preserve" text-anchor="middle" x="1424.62" y="-226.75" font-family="Helvetica,sans-Serif" font-size="10.00">limits</text>
</a>
</g>
</g>
<!-- Node32&#45;&gt;Node33 -->
<g id="edge56_Node000032_Node000033" class="edge">
<title>Node32&#45;&gt;Node33</title>
<g id="a_edge56_Node000032_Node000033"><a xlink:title=" ">
<path fill="none" stroke="#63b8ff" d="M1299.24,-275.84C1325.42,-266.61 1366.08,-252.27 1393.96,-242.44"/>
<polygon fill="#63b8ff" stroke="#63b8ff" points="1394.99,-245.79 1403.26,-239.16 1392.66,-239.19 1394.99,-245.79"/>
</a>
</g>
</g>
</g>
</svg>
