<?xml version="1.0" encoding="UTF-8" standalone="no"?>
<!DOCTYPE svg PUBLIC "-//W3C//DTD SVG 1.1//EN"
 "http://www.w3.org/Graphics/SVG/1.1/DTD/svg11.dtd">
<!-- Generated by graphviz version 14.0.2 (20251019.1705)
 -->
<!-- Title: src/backends/tosaCommon/operatorMappings/TosaRescaleOperatorUtils.hpp Pages: 1 -->
<svg width="2580pt" height="128pt"
 viewBox="0.00 0.00 2580.00 128.00" xmlns="http://www.w3.org/2000/svg" xmlns:xlink="http://www.w3.org/1999/xlink">
<g id="graph0" class="graph" transform="scale(1 1) rotate(0) translate(4 123.5)">
<title>src/backends/tosaCommon/operatorMappings/TosaRescaleOperatorUtils.hpp</title>
<!-- Node1 -->
<g id="Node000001" class="node">
<title>Node1</title>
<g id="a_Node000001"><a xlink:title=" ">
<polygon fill="#999999" stroke="#666666" points="1324.62,-119.5 1168.38,-119.5 1168.38,-77.75 1324.62,-77.75 1324.62,-119.5"/>
<text xml:space="preserve" text-anchor="start" x="1176.38" y="-106" font-family="Helvetica,sans-Serif" font-size="10.00">src/backends/tosaCommon</text>
<text xml:space="preserve" text-anchor="start" x="1176.38" y="-94.75" font-family="Helvetica,sans-Serif" font-size="10.00">/operatorMappings/TosaRescale</text>
<text xml:space="preserve" text-anchor="middle" x="1246.5" y="-83.5" font-family="Helvetica,sans-Serif" font-size="10.00">OperatorUtils.hpp</text>
</a>
</g>
</g>
<!-- Node2 -->
<g id="Node000002" class="node">
<title>Node2</title>
<g id="a_Node000002"><a xlink:href="_batch_mat_mul_operator_8cpp.html" target="_top" xlink:title=" ">
<polygon fill="white" stroke="#666666" points="157,-41.75 0,-41.75 0,0 157,0 157,-41.75"/>
<text xml:space="preserve" text-anchor="start" x="8" y="-28.25" font-family="Helvetica,sans-Serif" font-size="10.00">src/backends/tosaCommon</text>
<text xml:space="preserve" text-anchor="start" x="8" y="-17" font-family="Helvetica,sans-Serif" font-size="10.00">/operatorMappings/BatchMatMul</text>
<text xml:space="preserve" text-anchor="middle" x="78.5" y="-5.75" font-family="Helvetica,sans-Serif" font-size="10.00">Operator.cpp</text>
</a>
</g>
</g>
<!-- Node1&#45;&gt;Node2 -->
<g id="edge1_Node000001_Node000002" class="edge">
<title>Node1&#45;&gt;Node2</title>
<g id="a_edge1_Node000001_Node000002"><a xlink:title=" ">
<path fill="none" stroke="#63b8ff" d="M1156.81,-98.13C971.1,-98.05 531.31,-92.01 166.5,-41.75 163.4,-41.32 160.24,-40.84 157.06,-40.32"/>
<polygon fill="#63b8ff" stroke="#63b8ff" points="1156.63,-101.63 1166.63,-98.13 1156.63,-94.63 1156.63,-101.63"/>
</a>
</g>
</g>
<!-- Node3 -->
<g id="Node000003" class="node">
<title>Node3</title>
<g id="a_Node000003"><a xlink:href="_conv2d_operator_8cpp.html" target="_top" xlink:title=" ">
<polygon fill="white" stroke="#666666" points="363.75,-36.12 175.25,-36.12 175.25,-5.62 363.75,-5.62 363.75,-36.12"/>
<text xml:space="preserve" text-anchor="start" x="183.25" y="-22.62" font-family="Helvetica,sans-Serif" font-size="10.00">src/backends/tosaCommon</text>
<text xml:space="preserve" text-anchor="middle" x="269.5" y="-11.38" font-family="Helvetica,sans-Serif" font-size="10.00">/operatorMappings/Conv2dOperator.cpp</text>
</a>
</g>
</g>
<!-- Node1&#45;&gt;Node3 -->
<g id="edge2_Node000001_Node000003" class="edge">
<title>Node1&#45;&gt;Node3</title>
<g id="a_edge2_Node000001_Node000003"><a xlink:title=" ">
<path fill="none" stroke="#63b8ff" d="M1156.83,-95.58C998.26,-91.14 658.2,-77.92 373.5,-41.75 362.65,-40.37 351.23,-38.56 340.08,-36.59"/>
<polygon fill="#63b8ff" stroke="#63b8ff" points="1156.33,-99.07 1166.42,-95.84 1156.52,-92.07 1156.33,-99.07"/>
</a>
</g>
</g>
<!-- Node4 -->
<g id="Node000004" class="node">
<title>Node4</title>
<g id="a_Node000004"><a xlink:href="_conv3d_operator_8cpp.html" target="_top" xlink:title=" ">
<polygon fill="white" stroke="#666666" points="570.75,-36.12 382.25,-36.12 382.25,-5.62 570.75,-5.62 570.75,-36.12"/>
<text xml:space="preserve" text-anchor="start" x="390.25" y="-22.62" font-family="Helvetica,sans-Serif" font-size="10.00">src/backends/tosaCommon</text>
<text xml:space="preserve" text-anchor="middle" x="476.5" y="-11.38" font-family="Helvetica,sans-Serif" font-size="10.00">/operatorMappings/Conv3dOperator.cpp</text>
</a>
</g>
</g>
<!-- Node1&#45;&gt;Node4 -->
<g id="edge3_Node000001_Node000004" class="edge">
<title>Node1&#45;&gt;Node4</title>
<g id="a_edge3_Node000001_Node000004"><a xlink:title=" ">
<path fill="none" stroke="#63b8ff" d="M1156.59,-93.16C1028.16,-86.08 784.96,-70.1 579.5,-41.75 569.13,-40.32 558.22,-38.53 547.53,-36.61"/>
<polygon fill="#63b8ff" stroke="#63b8ff" points="1156.22,-96.64 1166.39,-93.69 1156.6,-89.65 1156.22,-96.64"/>
</a>
</g>
</g>
<!-- Node5 -->
<g id="Node000005" class="node">
<title>Node5</title>
<g id="a_Node000005"><a xlink:href="_depthwise_conv2d_operator_8cpp.html" target="_top" xlink:title=" ">
<polygon fill="white" stroke="#666666" points="768.25,-41.75 588.75,-41.75 588.75,0 768.25,0 768.25,-41.75"/>
<text xml:space="preserve" text-anchor="start" x="596.75" y="-28.25" font-family="Helvetica,sans-Serif" font-size="10.00">src/backends/tosaCommon</text>
<text xml:space="preserve" text-anchor="start" x="596.75" y="-17" font-family="Helvetica,sans-Serif" font-size="10.00">/operatorMappings/DepthwiseConv2d</text>
<text xml:space="preserve" text-anchor="middle" x="678.5" y="-5.75" font-family="Helvetica,sans-Serif" font-size="10.00">Operator.cpp</text>
</a>
</g>
</g>
<!-- Node1&#45;&gt;Node5 -->
<g id="edge4_Node000001_Node000005" class="edge">
<title>Node1&#45;&gt;Node5</title>
<g id="a_edge4_Node000001_Node000005"><a xlink:title=" ">
<path fill="none" stroke="#63b8ff" d="M1156.99,-89.1C1062.4,-79.59 909,-62.75 777.5,-41.75 774.56,-41.28 771.57,-40.78 768.55,-40.27"/>
<polygon fill="#63b8ff" stroke="#63b8ff" points="1156.43,-92.56 1166.72,-90.07 1157.12,-85.6 1156.43,-92.56"/>
</a>
</g>
</g>
<!-- Node6 -->
<g id="Node000006" class="node">
<title>Node6</title>
<g id="a_Node000006"><a xlink:href="_elementwise_binary_operator_8cpp.html" target="_top" xlink:title=" ">
<polygon fill="white" stroke="#666666" points="942.25,-41.75 786.75,-41.75 786.75,0 942.25,0 942.25,-41.75"/>
<text xml:space="preserve" text-anchor="start" x="794.75" y="-28.25" font-family="Helvetica,sans-Serif" font-size="10.00">src/backends/tosaCommon</text>
<text xml:space="preserve" text-anchor="start" x="794.75" y="-17" font-family="Helvetica,sans-Serif" font-size="10.00">/operatorMappings/Elementwise</text>
<text xml:space="preserve" text-anchor="middle" x="864.5" y="-5.75" font-family="Helvetica,sans-Serif" font-size="10.00">BinaryOperator.cpp</text>
</a>
</g>
</g>
<!-- Node1&#45;&gt;Node6 -->
<g id="edge5_Node000001_Node000006" class="edge">
<title>Node1&#45;&gt;Node6</title>
<g id="a_edge5_Node000001_Node000006"><a xlink:title=" ">
<path fill="none" stroke="#63b8ff" d="M1157.01,-81.57C1098.43,-70.85 1020.29,-56.12 951.5,-41.75 948.62,-41.15 945.69,-40.53 942.72,-39.89"/>
<polygon fill="#63b8ff" stroke="#63b8ff" points="1156.13,-84.97 1166.59,-83.32 1157.38,-78.08 1156.13,-84.97"/>
</a>
</g>
</g>
<!-- Node7 -->
<g id="Node000007" class="node">
<title>Node7</title>
<g id="a_Node000007"><a xlink:href="_fully_connected_operator_8cpp.html" target="_top" xlink:title=" ">
<polygon fill="white" stroke="#666666" points="1128.25,-41.75 960.75,-41.75 960.75,0 1128.25,0 1128.25,-41.75"/>
<text xml:space="preserve" text-anchor="start" x="968.75" y="-28.25" font-family="Helvetica,sans-Serif" font-size="10.00">src/backends/tosaCommon</text>
<text xml:space="preserve" text-anchor="start" x="968.75" y="-17" font-family="Helvetica,sans-Serif" font-size="10.00">/operatorMappings/FullyConnected</text>
<text xml:space="preserve" text-anchor="middle" x="1044.5" y="-5.75" font-family="Helvetica,sans-Serif" font-size="10.00">Operator.cpp</text>
</a>
</g>
</g>
<!-- Node1&#45;&gt;Node7 -->
<g id="edge6_Node000001_Node000007" class="edge">
<title>Node1&#45;&gt;Node7</title>
<g id="a_edge6_Node000001_Node000007"><a xlink:title=" ">
<path fill="none" stroke="#63b8ff" d="M1181.93,-73.41C1155.13,-63.36 1124.39,-51.83 1098.78,-42.23"/>
<polygon fill="#63b8ff" stroke="#63b8ff" points="1180.36,-76.56 1190.95,-76.79 1182.82,-70.01 1180.36,-76.56"/>
</a>
</g>
</g>
<!-- Node8 -->
<g id="Node000008" class="node">
<title>Node8</title>
<g id="a_Node000008"><a xlink:href="_leaky_relu_operator_8cpp.html" target="_top" xlink:title=" ">
<polygon fill="white" stroke="#666666" points="1347.12,-36.12 1145.88,-36.12 1145.88,-5.62 1347.12,-5.62 1347.12,-36.12"/>
<text xml:space="preserve" text-anchor="start" x="1153.88" y="-22.62" font-family="Helvetica,sans-Serif" font-size="10.00">src/backends/tosaCommon</text>
<text xml:space="preserve" text-anchor="middle" x="1246.5" y="-11.38" font-family="Helvetica,sans-Serif" font-size="10.00">/operatorMappings/LeakyReluOperator.cpp</text>
</a>
</g>
</g>
<!-- Node1&#45;&gt;Node8 -->
<g id="edge7_Node000001_Node000008" class="edge">
<title>Node1&#45;&gt;Node8</title>
<g id="a_edge7_Node000001_Node000008"><a xlink:title=" ">
<path fill="none" stroke="#63b8ff" d="M1246.5,-66.06C1246.5,-55.69 1246.5,-44.67 1246.5,-36.23"/>
<polygon fill="#63b8ff" stroke="#63b8ff" points="1243,-65.81 1246.5,-75.81 1250,-65.81 1243,-65.81"/>
</a>
</g>
</g>
<!-- Node9 -->
<g id="Node000009" class="node">
<title>Node9</title>
<g id="a_Node000009"><a xlink:href="_p_relu_operator_8cpp.html" target="_top" xlink:title=" ">
<polygon fill="white" stroke="#666666" points="1547.38,-36.12 1365.62,-36.12 1365.62,-5.62 1547.38,-5.62 1547.38,-36.12"/>
<text xml:space="preserve" text-anchor="start" x="1373.62" y="-22.62" font-family="Helvetica,sans-Serif" font-size="10.00">src/backends/tosaCommon</text>
<text xml:space="preserve" text-anchor="middle" x="1456.5" y="-11.38" font-family="Helvetica,sans-Serif" font-size="10.00">/operatorMappings/PReluOperator.cpp</text>
</a>
</g>
</g>
<!-- Node1&#45;&gt;Node9 -->
<g id="edge8_Node000001_Node000009" class="edge">
<title>Node1&#45;&gt;Node9</title>
<g id="a_edge8_Node000001_Node000009"><a xlink:title=" ">
<path fill="none" stroke="#63b8ff" d="M1313.46,-73.47C1347.08,-61.35 1386.71,-47.05 1415.72,-36.58"/>
<polygon fill="#63b8ff" stroke="#63b8ff" points="1312.42,-70.13 1304.2,-76.81 1314.79,-76.71 1312.42,-70.13"/>
</a>
</g>
</g>
<!-- Node10 -->
<g id="Node000010" class="node">
<title>Node10</title>
<g id="a_Node000010"><a xlink:href="_quantize_operator_8cpp.html" target="_top" xlink:title=" ">
<polygon fill="white" stroke="#666666" points="1759.38,-36.12 1565.62,-36.12 1565.62,-5.62 1759.38,-5.62 1759.38,-36.12"/>
<text xml:space="preserve" text-anchor="start" x="1573.62" y="-22.62" font-family="Helvetica,sans-Serif" font-size="10.00">src/backends/tosaCommon</text>
<text xml:space="preserve" text-anchor="middle" x="1662.5" y="-11.38" font-family="Helvetica,sans-Serif" font-size="10.00">/operatorMappings/QuantizeOperator.cpp</text>
</a>
</g>
</g>
<!-- Node1&#45;&gt;Node10 -->
<g id="edge9_Node000001_Node000010" class="edge">
<title>Node1&#45;&gt;Node10</title>
<g id="a_edge9_Node000001_Node000010"><a xlink:title=" ">
<path fill="none" stroke="#63b8ff" d="M1336.18,-81.63C1398.1,-70.55 1482.32,-55.39 1556.5,-41.75 1565.52,-40.09 1574.98,-38.34 1584.36,-36.59"/>
<polygon fill="#63b8ff" stroke="#63b8ff" points="1335.6,-78.18 1326.37,-83.39 1336.83,-85.07 1335.6,-78.18"/>
</a>
</g>
</g>
<!-- Node11 -->
<g id="Node000011" class="node">
<title>Node11</title>
<g id="a_Node000011"><a xlink:href="_reduce_operator_8cpp.html" target="_top" xlink:title=" ">
<polygon fill="white" stroke="#666666" points="1965.75,-36.12 1777.25,-36.12 1777.25,-5.62 1965.75,-5.62 1965.75,-36.12"/>
<text xml:space="preserve" text-anchor="start" x="1785.25" y="-22.62" font-family="Helvetica,sans-Serif" font-size="10.00">src/backends/tosaCommon</text>
<text xml:space="preserve" text-anchor="middle" x="1871.5" y="-11.38" font-family="Helvetica,sans-Serif" font-size="10.00">/operatorMappings/ReduceOperator.cpp</text>
</a>
</g>
</g>
<!-- Node1&#45;&gt;Node11 -->
<g id="edge10_Node000001_Node000011" class="edge">
<title>Node1&#45;&gt;Node11</title>
<g id="a_edge10_Node000001_Node000011"><a xlink:title=" ">
<path fill="none" stroke="#63b8ff" d="M1336.44,-90.31C1440.7,-81.29 1617.54,-64.35 1768.5,-41.75 1778.5,-40.25 1789,-38.47 1799.32,-36.6"/>
<polygon fill="#63b8ff" stroke="#63b8ff" points="1336.2,-86.82 1326.54,-91.16 1336.8,-93.79 1336.2,-86.82"/>
</a>
</g>
</g>
<!-- Node12 -->
<g id="Node000012" class="node">
<title>Node12</title>
<g id="a_Node000012"><a xlink:href="_relu_operator_8cpp.html" target="_top" xlink:title=" ">
<polygon fill="white" stroke="#666666" points="2159,-36.12 1984,-36.12 1984,-5.62 2159,-5.62 2159,-36.12"/>
<text xml:space="preserve" text-anchor="start" x="1992" y="-22.62" font-family="Helvetica,sans-Serif" font-size="10.00">src/backends/tosaCommon</text>
<text xml:space="preserve" text-anchor="middle" x="2071.5" y="-11.38" font-family="Helvetica,sans-Serif" font-size="10.00">/operatorMappings/ReluOperator.cpp</text>
</a>
</g>
</g>
<!-- Node1&#45;&gt;Node12 -->
<g id="edge11_Node000001_Node000012" class="edge">
<title>Node1&#45;&gt;Node12</title>
<g id="a_edge11_Node000001_Node000012"><a xlink:title=" ">
<path fill="none" stroke="#63b8ff" d="M1336.26,-94.36C1474.07,-88.54 1745.87,-73.82 1974.5,-41.75 1984.46,-40.35 1994.93,-38.56 2005.16,-36.62"/>
<polygon fill="#63b8ff" stroke="#63b8ff" points="1336.31,-90.86 1326.47,-94.77 1336.6,-97.85 1336.31,-90.86"/>
</a>
</g>
</g>
<!-- Node13 -->
<g id="Node000013" class="node">
<title>Node13</title>
<g id="a_Node000013"><a xlink:href="_resize_operator_8cpp.html" target="_top" xlink:title=" ">
<polygon fill="white" stroke="#666666" points="2362.25,-36.12 2176.75,-36.12 2176.75,-5.62 2362.25,-5.62 2362.25,-36.12"/>
<text xml:space="preserve" text-anchor="start" x="2184.75" y="-22.62" font-family="Helvetica,sans-Serif" font-size="10.00">src/backends/tosaCommon</text>
<text xml:space="preserve" text-anchor="middle" x="2269.5" y="-11.38" font-family="Helvetica,sans-Serif" font-size="10.00">/operatorMappings/ResizeOperator.cpp</text>
</a>
</g>
</g>
<!-- Node1&#45;&gt;Node13 -->
<g id="edge12_Node000001_Node000013" class="edge">
<title>Node1&#45;&gt;Node13</title>
<g id="a_edge12_Node000001_Node000013"><a xlink:title=" ">
<path fill="none" stroke="#63b8ff" d="M1335.91,-96.17C1501.04,-92.62 1864.71,-80.67 2168.5,-41.75 2179.14,-40.39 2190.33,-38.57 2201.25,-36.59"/>
<polygon fill="#63b8ff" stroke="#63b8ff" points="1336.28,-92.67 1326.36,-96.37 1336.43,-99.66 1336.28,-92.67"/>
</a>
</g>
</g>
<!-- Node14 -->
<g id="Node000014" class="node">
<title>Node14</title>
<g id="a_Node000014"><a xlink:href="_softmax_operator_8cpp.html" target="_top" xlink:title=" ">
<polygon fill="white" stroke="#666666" points="2572.25,-36.12 2380.75,-36.12 2380.75,-5.62 2572.25,-5.62 2572.25,-36.12"/>
<text xml:space="preserve" text-anchor="start" x="2388.75" y="-22.62" font-family="Helvetica,sans-Serif" font-size="10.00">src/backends/tosaCommon</text>
<text xml:space="preserve" text-anchor="middle" x="2476.5" y="-11.38" font-family="Helvetica,sans-Serif" font-size="10.00">/operatorMappings/SoftmaxOperator.cpp</text>
</a>
</g>
</g>
<!-- Node1&#45;&gt;Node14 -->
<g id="edge13_Node000001_Node000014" class="edge">
<title>Node1&#45;&gt;Node14</title>
<g id="a_edge13_Node000001_Node000014"><a xlink:title=" ">
<path fill="none" stroke="#63b8ff" d="M1336.26,-97.35C1527.37,-95.83 1988.29,-87.32 2371.5,-41.75 2382.74,-40.41 2394.58,-38.59 2406.11,-36.58"/>
<polygon fill="#63b8ff" stroke="#63b8ff" points="1336.38,-93.84 1326.41,-97.42 1336.43,-100.84 1336.38,-93.84"/>
</a>
</g>
</g>
</g>
</svg>
