<?xml version="1.0" encoding="UTF-8" standalone="no"?>
<!DOCTYPE svg PUBLIC "-//W3C//DTD SVG 1.1//EN"
 "http://www.w3.org/Graphics/SVG/1.1/DTD/svg11.dtd">
<!-- Generated by graphviz version 14.0.2 (20251019.1705)
 -->
<!-- Title: src/backends/tosaReference/workloads/TosaRefPreCompiledWorkload.hpp Pages: 1 -->
<svg width="412pt" height="172pt"
 viewBox="0.00 0.00 412.00 172.00" xmlns="http://www.w3.org/2000/svg" xmlns:xlink="http://www.w3.org/1999/xlink">
<g id="graph0" class="graph" transform="scale(1 1) rotate(0) translate(4 167.5)">
<title>src/backends/tosaReference/workloads/TosaRefPreCompiledWorkload.hpp</title>
<!-- Node1 -->
<g id="Node000001" class="node">
<title>Node1</title>
<g id="a_Node000001"><a xlink:title=" ">
<polygon fill="#999999" stroke="#666666" points="323.5,-163.5 105,-163.5 105,-133 323.5,-133 323.5,-163.5"/>
<text xml:space="preserve" text-anchor="start" x="113" y="-150" font-family="Helvetica,sans-Serif" font-size="10.00">src/backends/tosaReference</text>
<text xml:space="preserve" text-anchor="middle" x="214.25" y="-138.75" font-family="Helvetica,sans-Serif" font-size="10.00">/workloads/TosaRefPreCompiledWorkload.hpp</text>
</a>
</g>
</g>
<!-- Node2 -->
<g id="Node000002" class="node">
<title>Node2</title>
<g id="a_Node000002"><a xlink:href="_tosa_ref_pre_compiled_workload_8cpp.html" target="_top" xlink:title=" ">
<polygon fill="white" stroke="#666666" points="218.5,-97 0,-97 0,-66.5 218.5,-66.5 218.5,-97"/>
<text xml:space="preserve" text-anchor="start" x="8" y="-83.5" font-family="Helvetica,sans-Serif" font-size="10.00">src/backends/tosaReference</text>
<text xml:space="preserve" text-anchor="middle" x="109.25" y="-72.25" font-family="Helvetica,sans-Serif" font-size="10.00">/workloads/TosaRefPreCompiledWorkload.cpp</text>
</a>
</g>
</g>
<!-- Node1&#45;&gt;Node2 -->
<g id="edge1_Node000001_Node000002" class="edge">
<title>Node1&#45;&gt;Node2</title>
<g id="a_edge1_Node000001_Node000002"><a xlink:title=" ">
<path fill="none" stroke="#63b8ff" d="M180.66,-126.61C165.13,-117.08 147.06,-105.98 132.98,-97.33"/>
<polygon fill="#63b8ff" stroke="#63b8ff" points="178.78,-129.57 189.13,-131.82 182.45,-123.61 178.78,-129.57"/>
</a>
</g>
</g>
<!-- Node3 -->
<g id="Node000003" class="node">
<title>Node3</title>
<g id="a_Node000003"><a xlink:href="_tosa_ref_workloads_8hpp.html" target="_top" xlink:title=" ">
<polygon fill="white" stroke="#666666" points="404,-97 236.5,-97 236.5,-66.5 404,-66.5 404,-97"/>
<text xml:space="preserve" text-anchor="start" x="244.5" y="-83.5" font-family="Helvetica,sans-Serif" font-size="10.00">src/backends/tosaReference</text>
<text xml:space="preserve" text-anchor="middle" x="320.25" y="-72.25" font-family="Helvetica,sans-Serif" font-size="10.00">/workloads/TosaRefWorkloads.hpp</text>
</a>
</g>
</g>
<!-- Node1&#45;&gt;Node3 -->
<g id="edge2_Node000001_Node000003" class="edge">
<title>Node1&#45;&gt;Node3</title>
<g id="a_edge2_Node000001_Node000003"><a xlink:title=" ">
<path fill="none" stroke="#63b8ff" d="M247.72,-126.89C263.49,-117.29 281.94,-106.06 296.29,-97.33"/>
<polygon fill="#63b8ff" stroke="#63b8ff" points="246.32,-123.64 239.6,-131.83 249.96,-129.62 246.32,-123.64"/>
</a>
</g>
</g>
<!-- Node4 -->
<g id="Node000004" class="node">
<title>Node4</title>
<g id="a_Node000004"><a xlink:href="_tosa_ref_workload_factory_8cpp.html" target="_top" xlink:title=" ">
<polygon fill="white" stroke="#666666" points="393.5,-30.5 247,-30.5 247,0 393.5,0 393.5,-30.5"/>
<text xml:space="preserve" text-anchor="start" x="255" y="-17" font-family="Helvetica,sans-Serif" font-size="10.00">src/backends/tosaReference</text>
<text xml:space="preserve" text-anchor="middle" x="320.25" y="-5.75" font-family="Helvetica,sans-Serif" font-size="10.00">/TosaRefWorkloadFactory.cpp</text>
</a>
</g>
</g>
<!-- Node3&#45;&gt;Node4 -->
<g id="edge3_Node000003_Node000004" class="edge">
<title>Node3&#45;&gt;Node4</title>
<g id="a_edge3_Node000003_Node000004"><a xlink:title=" ">
<path fill="none" stroke="#63b8ff" d="M320.25,-54.81C320.25,-46.64 320.25,-37.91 320.25,-30.83"/>
<polygon fill="#63b8ff" stroke="#63b8ff" points="316.75,-54.6 320.25,-64.6 323.75,-54.6 316.75,-54.6"/>
</a>
</g>
</g>
</g>
</svg>
