<?xml version="1.0" encoding="UTF-8" standalone="no"?>
<!DOCTYPE svg PUBLIC "-//W3C//DTD SVG 1.1//EN"
 "http://www.w3.org/Graphics/SVG/1.1/DTD/svg11.dtd">
<!-- Generated by graphviz version 14.0.2 (20251019.1705)
 -->
<!-- Title: src/backends/backendsCommon/UnmapWorkload.hpp Pages: 1 -->
<svg width="350pt" height="105pt"
 viewBox="0.00 0.00 350.00 105.00" xmlns="http://www.w3.org/2000/svg" xmlns:xlink="http://www.w3.org/1999/xlink">
<g id="graph0" class="graph" transform="scale(1 1) rotate(0) translate(4 101)">
<title>src/backends/backendsCommon/UnmapWorkload.hpp</title>
<!-- Node1 -->
<g id="Node000001" class="node">
<title>Node1</title>
<g id="a_Node000001"><a xlink:title=" ">
<polygon fill="#999999" stroke="#666666" points="252.25,-97 93,-97 93,-66.5 252.25,-66.5 252.25,-97"/>
<text xml:space="preserve" text-anchor="start" x="101" y="-83.5" font-family="Helvetica,sans-Serif" font-size="10.00">src/backends/backendsCommon</text>
<text xml:space="preserve" text-anchor="middle" x="172.62" y="-72.25" font-family="Helvetica,sans-Serif" font-size="10.00">/UnmapWorkload.hpp</text>
</a>
</g>
</g>
<!-- Node2 -->
<g id="Node000002" class="node">
<title>Node2</title>
<g id="a_Node000002"><a xlink:href="_unmap_layer_8cpp.html" target="_top" xlink:title=" ">
<polygon fill="white" stroke="#666666" points="165.25,-24.88 0,-24.88 0,-5.63 165.25,-5.63 165.25,-24.88"/>
<text xml:space="preserve" text-anchor="middle" x="82.62" y="-11.38" font-family="Helvetica,sans-Serif" font-size="10.00">src/armnn/layers/UnmapLayer.cpp</text>
</a>
</g>
</g>
<!-- Node1&#45;&gt;Node2 -->
<g id="edge1_Node000001_Node000002" class="edge">
<title>Node1&#45;&gt;Node2</title>
<g id="a_edge1_Node000001_Node000002"><a xlink:title=" ">
<path fill="none" stroke="#63b8ff" d="M143.07,-59.57C126.83,-47.93 107.54,-34.11 95.2,-25.26"/>
<polygon fill="#63b8ff" stroke="#63b8ff" points="140.81,-62.25 150.97,-65.23 144.88,-56.56 140.81,-62.25"/>
</a>
</g>
</g>
<!-- Node3 -->
<g id="Node000003" class="node">
<title>Node3</title>
<g id="a_Node000003"><a xlink:href="_unmap_workload_8cpp.html" target="_top" xlink:title=" ">
<polygon fill="white" stroke="#666666" points="342.25,-30.5 183,-30.5 183,0 342.25,0 342.25,-30.5"/>
<text xml:space="preserve" text-anchor="start" x="191" y="-17" font-family="Helvetica,sans-Serif" font-size="10.00">src/backends/backendsCommon</text>
<text xml:space="preserve" text-anchor="middle" x="262.62" y="-5.75" font-family="Helvetica,sans-Serif" font-size="10.00">/UnmapWorkload.cpp</text>
</a>
</g>
</g>
<!-- Node1&#45;&gt;Node3 -->
<g id="edge2_Node000001_Node000003" class="edge">
<title>Node1&#45;&gt;Node3</title>
<g id="a_edge2_Node000001_Node000003"><a xlink:title=" ">
<path fill="none" stroke="#63b8ff" d="M202.18,-59.57C215.32,-50.16 230.45,-39.31 242.28,-30.83"/>
<polygon fill="#63b8ff" stroke="#63b8ff" points="200.37,-56.56 194.28,-65.23 204.44,-62.25 200.37,-56.56"/>
</a>
</g>
</g>
</g>
</svg>
