<?xml version="1.0" encoding="UTF-8" standalone="no"?>
<!DOCTYPE svg PUBLIC "-//W3C//DTD SVG 1.1//EN"
 "http://www.w3.org/Graphics/SVG/1.1/DTD/svg11.dtd">
<!-- Generated by graphviz version 14.0.2 (20251019.1705)
 -->
<!-- Title: include/armnn/backends/WorkloadData.hpp Pages: 1 -->
<svg width="1565pt" height="381pt"
 viewBox="0.00 0.00 1565.00 381.00" xmlns="http://www.w3.org/2000/svg" xmlns:xlink="http://www.w3.org/1999/xlink">
<g id="graph0" class="graph" transform="scale(1 1) rotate(0) translate(4 377.25)">
<title>include/armnn/backends/WorkloadData.hpp</title>
<!-- Node1 -->
<g id="Node000001" class="node">
<title>Node1</title>
<g id="a_Node000001"><a xlink:title=" ">
<polygon fill="#999999" stroke="#666666" points="1024.5,-373.25 902.75,-373.25 902.75,-342.75 1024.5,-342.75 1024.5,-373.25"/>
<text xml:space="preserve" text-anchor="start" x="910.75" y="-359.75" font-family="Helvetica,sans-Serif" font-size="10.00">include/armnn/backends</text>
<text xml:space="preserve" text-anchor="middle" x="963.62" y="-348.5" font-family="Helvetica,sans-Serif" font-size="10.00">/WorkloadData.hpp</text>
</a>
</g>
</g>
<!-- Node2 -->
<g id="Node000002" class="node">
<title>Node2</title>
<g id="a_Node000002"><a xlink:href="_tensor_handle_8hpp.html" target="_top" xlink:title=" ">
<polygon fill="white" stroke="#666666" points="620,-301.12 525.25,-301.12 525.25,-281.88 620,-281.88 620,-301.12"/>
<text xml:space="preserve" text-anchor="middle" x="572.62" y="-287.62" font-family="Helvetica,sans-Serif" font-size="10.00">TensorHandle.hpp</text>
</a>
</g>
</g>
<!-- Node1&#45;&gt;Node2 -->
<g id="edge1_Node000001_Node000002" class="edge">
<title>Node1&#45;&gt;Node2</title>
<g id="a_edge1_Node000001_Node000002"><a xlink:title=" ">
<path fill="none" stroke="#63b8ff" d="M902.53,-346.92C828.52,-334.71 704.71,-314.29 631.65,-302.24"/>
<polygon fill="#63b8ff" stroke="#63b8ff" points="632.3,-298.8 621.87,-300.62 631.16,-305.7 632.3,-298.8"/>
</a>
</g>
</g>
<!-- Node5 -->
<g id="Node000005" class="node">
<title>Node5</title>
<g id="a_Node000005"><a xlink:href="_types_8hpp.html" target="_top" xlink:title=" ">
<polygon fill="white" stroke="#666666" points="547.12,-129.75 456.12,-129.75 456.12,-110.5 547.12,-110.5 547.12,-129.75"/>
<text xml:space="preserve" text-anchor="middle" x="501.62" y="-116.25" font-family="Helvetica,sans-Serif" font-size="10.00">armnn/Types.hpp</text>
</a>
</g>
</g>
<!-- Node1&#45;&gt;Node5 -->
<g id="edge62_Node000001_Node000005" class="edge">
<title>Node1&#45;&gt;Node5</title>
<g id="a_edge62_Node000001_Node000005"><a xlink:title=" ">
<path fill="none" stroke="#63b8ff" d="M949.89,-342.32C911.42,-301.55 802.45,-188.43 756.62,-165.75 722.66,-148.94 622.8,-134.92 558.59,-127.3"/>
<polygon fill="#63b8ff" stroke="#63b8ff" points="559.28,-123.85 548.94,-126.17 558.47,-130.81 559.28,-123.85"/>
</a>
</g>
</g>
<!-- Node17 -->
<g id="Node000017" class="node">
<title>Node17</title>
<g id="a_Node000017"><a xlink:href="_exceptions_8hpp.html" target="_top" xlink:title=" ">
<polygon fill="white" stroke="#666666" points="799.38,-74.5 715.88,-74.5 715.88,-55.25 799.38,-55.25 799.38,-74.5"/>
<text xml:space="preserve" text-anchor="middle" x="757.62" y="-61" font-family="Helvetica,sans-Serif" font-size="10.00">Exceptions.hpp</text>
</a>
</g>
</g>
<!-- Node1&#45;&gt;Node17 -->
<g id="edge61_Node000001_Node000017" class="edge">
<title>Node1&#45;&gt;Node17</title>
<g id="a_edge61_Node000001_Node000017"><a xlink:title=" ">
<path fill="none" stroke="#63b8ff" d="M965.45,-342.65C968.99,-309.54 974.06,-226.01 944.62,-165.75 919.63,-114.57 856.53,-88.77 810.52,-76.37"/>
<polygon fill="#63b8ff" stroke="#63b8ff" points="811.54,-73.02 800.98,-73.94 809.81,-79.8 811.54,-73.02"/>
</a>
</g>
</g>
<!-- Node20 -->
<g id="Node000020" class="node">
<title>Node20</title>
<g id="a_Node000020"><a xlink:href="_deprecated_8hpp.html" target="_top" xlink:title=" ">
<polygon fill="white" stroke="#666666" points="1191.12,-74.5 1106.12,-74.5 1106.12,-55.25 1191.12,-55.25 1191.12,-74.5"/>
<text xml:space="preserve" text-anchor="middle" x="1148.62" y="-61" font-family="Helvetica,sans-Serif" font-size="10.00">Deprecated.hpp</text>
</a>
</g>
</g>
<!-- Node1&#45;&gt;Node20 -->
<g id="edge50_Node000001_Node000020" class="edge">
<title>Node1&#45;&gt;Node20</title>
<g id="a_edge50_Node000001_Node000020"><a xlink:title=" ">
<path fill="none" stroke="#63b8ff" d="M1024.81,-352.39C1145.71,-341.61 1403.62,-309.47 1403.62,-231.62 1403.62,-231.62 1403.62,-231.62 1403.62,-174.38 1403.62,-87.77 1277.54,-69.31 1202.69,-65.99"/>
<polygon fill="#63b8ff" stroke="#63b8ff" points="1203.23,-62.5 1193.11,-65.64 1202.97,-69.5 1203.23,-62.5"/>
</a>
</g>
</g>
<!-- Node23 -->
<g id="Node000023" class="node">
<title>Node23</title>
<g id="a_Node000023"><a xlink:href="_tensor_8hpp.html" target="_top" xlink:title=" ">
<polygon fill="white" stroke="#666666" points="935.25,-185 842,-185 842,-165.75 935.25,-165.75 935.25,-185"/>
<text xml:space="preserve" text-anchor="middle" x="888.62" y="-171.5" font-family="Helvetica,sans-Serif" font-size="10.00">armnn/Tensor.hpp</text>
</a>
</g>
</g>
<!-- Node1&#45;&gt;Node23 -->
<g id="edge63_Node000001_Node000023" class="edge">
<title>Node1&#45;&gt;Node23</title>
<g id="a_edge63_Node000001_Node000023"><a xlink:title=" ">
<path fill="none" stroke="#63b8ff" d="M957.61,-342.52C944.19,-310.19 911.76,-232.1 896.64,-195.68"/>
<polygon fill="#63b8ff" stroke="#63b8ff" points="900.03,-194.72 892.97,-186.83 893.57,-197.41 900.03,-194.72"/>
</a>
</g>
</g>
<!-- Node34 -->
<g id="Node000034" class="node">
<title>Node34</title>
<g id="a_Node000034"><a xlink:href="_descriptors_8hpp.html" target="_top" xlink:title=" ">
<polygon fill="white" stroke="#666666" points="1121.12,-240.25 1006.12,-240.25 1006.12,-221 1121.12,-221 1121.12,-240.25"/>
<text xml:space="preserve" text-anchor="middle" x="1063.62" y="-226.75" font-family="Helvetica,sans-Serif" font-size="10.00">armnn/Descriptors.hpp</text>
</a>
</g>
</g>
<!-- Node1&#45;&gt;Node34 -->
<g id="edge51_Node000001_Node000034" class="edge">
<title>Node1&#45;&gt;Node34</title>
<g id="a_edge51_Node000001_Node000034"><a xlink:title=" ">
<path fill="none" stroke="#63b8ff" d="M975.1,-342.62C993.48,-319.56 1029.51,-274.39 1049.47,-249.37"/>
<polygon fill="#63b8ff" stroke="#63b8ff" points="1052.05,-251.75 1055.55,-241.75 1046.58,-247.39 1052.05,-251.75"/>
</a>
</g>
</g>
<!-- Node38 -->
<g id="Node000038" class="node">
<title>Node38</title>
<g id="a_Node000038"><a xlink:title=" ">
<polygon fill="#e0e0e0" stroke="#999999" points="1557.38,-306.75 1431.88,-306.75 1431.88,-276.25 1557.38,-276.25 1557.38,-306.75"/>
<text xml:space="preserve" text-anchor="start" x="1439.88" y="-293.25" font-family="Helvetica,sans-Serif" font-size="10.00">common/include/Profiling</text>
<text xml:space="preserve" text-anchor="middle" x="1494.62" y="-282" font-family="Helvetica,sans-Serif" font-size="10.00">Guid.hpp</text>
</a>
</g>
</g>
<!-- Node1&#45;&gt;Node38 -->
<g id="edge64_Node000001_Node000038" class="edge">
<title>Node1&#45;&gt;Node38</title>
<g id="a_edge64_Node000001_Node000038"><a xlink:title=" ">
<path fill="none" stroke="#63b8ff" d="M1024.76,-351.66C1112.11,-343.7 1277.59,-327.43 1417.62,-306.75 1418.63,-306.6 1419.63,-306.45 1420.65,-306.3"/>
<polygon fill="#63b8ff" stroke="#63b8ff" points="1420.84,-309.81 1430.16,-304.78 1419.73,-302.9 1420.84,-309.81"/>
</a>
</g>
</g>
<!-- Node3 -->
<g id="Node000003" class="node">
<title>Node3</title>
<g id="a_Node000003"><a xlink:href="_i_tensor_handle_8hpp.html" target="_top" xlink:title=" ">
<polygon fill="white" stroke="#666666" points="411.5,-240.25 313.75,-240.25 313.75,-221 411.5,-221 411.5,-240.25"/>
<text xml:space="preserve" text-anchor="middle" x="362.62" y="-226.75" font-family="Helvetica,sans-Serif" font-size="10.00">ITensorHandle.hpp</text>
</a>
</g>
</g>
<!-- Node2&#45;&gt;Node3 -->
<g id="edge2_Node000002_Node000003" class="edge">
<title>Node2&#45;&gt;Node3</title>
<g id="a_edge2_Node000002_Node000003"><a xlink:title=" ">
<path fill="none" stroke="#63b8ff" d="M540.27,-281.43C504.28,-271.34 445.94,-254.98 406.01,-243.79"/>
<polygon fill="#63b8ff" stroke="#63b8ff" points="407.04,-240.44 396.47,-241.11 405.16,-247.18 407.04,-240.44"/>
</a>
</g>
</g>
<!-- Node28 -->
<g id="Node000028" class="node">
<title>Node28</title>
<g id="a_Node000028"><a xlink:href="_types_utils_8hpp.html" target="_top" xlink:title=" ">
<polygon fill="white" stroke="#666666" points="270.25,-240.25 159,-240.25 159,-221 270.25,-221 270.25,-240.25"/>
<text xml:space="preserve" text-anchor="middle" x="214.62" y="-226.75" font-family="Helvetica,sans-Serif" font-size="10.00">armnn/TypesUtils.hpp</text>
</a>
</g>
</g>
<!-- Node2&#45;&gt;Node28 -->
<g id="edge35_Node000002_Node000028" class="edge">
<title>Node2&#45;&gt;Node28</title>
<g id="a_edge35_Node000002_Node000028"><a xlink:title=" ">
<path fill="none" stroke="#63b8ff" d="M525.09,-282.68C462.44,-272.38 351.91,-254.2 281.03,-242.55"/>
<polygon fill="#63b8ff" stroke="#63b8ff" points="281.94,-239.15 271.5,-240.98 280.8,-246.06 281.94,-239.15"/>
</a>
</g>
</g>
<!-- Node30 -->
<g id="Node000030" class="node">
<title>Node30</title>
<g id="a_Node000030"><a xlink:href="_assert_8hpp.html" target="_top" xlink:title=" ">
<polygon fill="white" stroke="#666666" points="801.38,-240.25 681.88,-240.25 681.88,-221 801.38,-221 801.38,-240.25"/>
<text xml:space="preserve" text-anchor="middle" x="741.62" y="-226.75" font-family="Helvetica,sans-Serif" font-size="10.00">armnn/utility/Assert.hpp</text>
</a>
</g>
</g>
<!-- Node2&#45;&gt;Node30 -->
<g id="edge45_Node000002_Node000030" class="edge">
<title>Node2&#45;&gt;Node30</title>
<g id="a_edge45_Node000002_Node000030"><a xlink:title=" ">
<path fill="none" stroke="#63b8ff" d="M598.66,-281.43C627.07,-271.53 672.77,-255.61 704.84,-244.44"/>
<polygon fill="#63b8ff" stroke="#63b8ff" points="705.84,-247.8 714.13,-241.2 703.54,-241.19 705.84,-247.8"/>
</a>
</g>
</g>
<!-- Node32 -->
<g id="Node000032" class="node">
<title>Node32</title>
<g id="a_Node000032"><a xlink:href="_compatible_types_8hpp.html" target="_top" xlink:title=" ">
<polygon fill="white" stroke="#666666" points="590,-240.25 429.25,-240.25 429.25,-221 590,-221 590,-240.25"/>
<text xml:space="preserve" text-anchor="middle" x="509.62" y="-226.75" font-family="Helvetica,sans-Serif" font-size="10.00">armnnUtils/CompatibleTypes.hpp</text>
</a>
</g>
</g>
<!-- Node2&#45;&gt;Node32 -->
<g id="edge47_Node000002_Node000032" class="edge">
<title>Node2&#45;&gt;Node32</title>
<g id="a_edge47_Node000002_Node000032"><a xlink:title=" ">
<path fill="none" stroke="#63b8ff" d="M563.06,-281.56C553.62,-272.74 538.97,-259.05 527.4,-248.23"/>
<polygon fill="#63b8ff" stroke="#63b8ff" points="530.09,-245.96 520.39,-241.68 525.31,-251.07 530.09,-245.96"/>
</a>
</g>
</g>
<!-- Node33 -->
<g id="Node000033" class="node">
<title>Node33</title>
<g id="a_Node000033"><a xlink:title=" ">
<polygon fill="#e0e0e0" stroke="#999999" points="663.5,-240.25 607.75,-240.25 607.75,-221 663.5,-221 663.5,-240.25"/>
<text xml:space="preserve" text-anchor="middle" x="635.62" y="-226.75" font-family="Helvetica,sans-Serif" font-size="10.00">algorithm</text>
</a>
</g>
</g>
<!-- Node2&#45;&gt;Node33 -->
<g id="edge49_Node000002_Node000033" class="edge">
<title>Node2&#45;&gt;Node33</title>
<g id="a_edge49_Node000002_Node000033"><a xlink:title=" ">
<path fill="none" stroke="#63b8ff" d="M582.19,-281.56C591.63,-272.74 606.28,-259.05 617.85,-248.23"/>
<polygon fill="#63b8ff" stroke="#63b8ff" points="619.94,-251.07 624.86,-241.68 615.16,-245.96 619.94,-251.07"/>
</a>
</g>
</g>
<!-- Node4 -->
<g id="Node000004" class="node">
<title>Node4</title>
<g id="a_Node000004"><a xlink:href="_memory_sources_8hpp.html" target="_top" xlink:title=" ">
<polygon fill="white" stroke="#666666" points="435.62,-185 299.62,-185 299.62,-165.75 435.62,-165.75 435.62,-185"/>
<text xml:space="preserve" text-anchor="middle" x="367.62" y="-171.5" font-family="Helvetica,sans-Serif" font-size="10.00">armnn/MemorySources.hpp</text>
</a>
</g>
</g>
<!-- Node3&#45;&gt;Node4 -->
<g id="edge3_Node000003_Node000004" class="edge">
<title>Node3&#45;&gt;Node4</title>
<g id="a_edge3_Node000003_Node000004"><a xlink:title=" ">
<path fill="none" stroke="#63b8ff" d="M363.45,-220.83C364.07,-214.24 364.94,-204.96 365.73,-196.57"/>
<polygon fill="#63b8ff" stroke="#63b8ff" points="369.19,-197.15 366.64,-186.87 362.22,-196.5 369.19,-197.15"/>
</a>
</g>
</g>
<!-- Node22 -->
<g id="Node000022" class="node">
<title>Node22</title>
<g id="a_Node000022"><a xlink:href="_ignore_unused_8hpp.html" target="_top" xlink:title=" ">
<polygon fill="white" stroke="#666666" points="643.5,-185 491.75,-185 491.75,-165.75 643.5,-165.75 643.5,-185"/>
<text xml:space="preserve" text-anchor="middle" x="567.62" y="-171.5" font-family="Helvetica,sans-Serif" font-size="10.00">armnn/utility/IgnoreUnused.hpp</text>
</a>
</g>
</g>
<!-- Node3&#45;&gt;Node22 -->
<g id="edge22_Node000003_Node000022" class="edge">
<title>Node3&#45;&gt;Node22</title>
<g id="a_edge22_Node000003_Node000022"><a xlink:title=" ">
<path fill="none" stroke="#63b8ff" d="M397.4,-220.59C431.71,-211.68 484.35,-198.01 522,-188.23"/>
<polygon fill="#63b8ff" stroke="#63b8ff" points="522.42,-191.73 531.21,-185.83 520.66,-184.96 522.42,-191.73"/>
</a>
</g>
</g>
<!-- Node3&#45;&gt;Node23 -->
<g id="edge23_Node000003_Node000023" class="edge">
<title>Node3&#45;&gt;Node23</title>
<g id="a_edge23_Node000003_Node000023"><a xlink:title=" ">
<path fill="none" stroke="#63b8ff" d="M411.96,-222.11C414.89,-221.72 417.8,-221.35 420.62,-221 567.75,-203.06 741.64,-188.12 830.29,-180.95"/>
<polygon fill="#63b8ff" stroke="#63b8ff" points="830.51,-184.44 840.2,-180.15 829.95,-177.46 830.51,-184.44"/>
</a>
</g>
</g>
<!-- Node4&#45;&gt;Node5 -->
<g id="edge4_Node000004_Node000005" class="edge">
<title>Node4&#45;&gt;Node5</title>
<g id="a_edge4_Node000004_Node000005"><a xlink:title=" ">
<path fill="none" stroke="#63b8ff" d="M390.36,-165.34C411.72,-156.85 443.97,-144.04 468.25,-134.39"/>
<polygon fill="#63b8ff" stroke="#63b8ff" points="469.38,-137.71 477.38,-130.76 466.79,-131.2 469.38,-137.71"/>
</a>
</g>
</g>
<!-- Node21 -->
<g id="Node000021" class="node">
<title>Node21</title>
<g id="a_Node000021"><a xlink:title=" ">
<polygon fill="#e0e0e0" stroke="#999999" points="371.5,-74.5 309.75,-74.5 309.75,-55.25 371.5,-55.25 371.5,-74.5"/>
<text xml:space="preserve" text-anchor="middle" x="340.62" y="-61" font-family="Helvetica,sans-Serif" font-size="10.00">type_traits</text>
</a>
</g>
</g>
<!-- Node4&#45;&gt;Node21 -->
<g id="edge21_Node000004_Node000021" class="edge">
<title>Node4&#45;&gt;Node21</title>
<g id="a_edge21_Node000004_Node000021"><a xlink:title=" ">
<path fill="none" stroke="#63b8ff" d="M365.42,-165.5C361.1,-148.17 351.48,-109.48 345.57,-85.74"/>
<polygon fill="#63b8ff" stroke="#63b8ff" points="349.04,-85.2 343.23,-76.35 342.25,-86.89 349.04,-85.2"/>
</a>
</g>
</g>
<!-- Node6 -->
<g id="Node000006" class="node">
<title>Node6</title>
<g id="a_Node000006"><a xlink:title=" ">
<polygon fill="#e0e0e0" stroke="#999999" points="633.5,-74.5 595.75,-74.5 595.75,-55.25 633.5,-55.25 633.5,-74.5"/>
<text xml:space="preserve" text-anchor="middle" x="614.62" y="-61" font-family="Helvetica,sans-Serif" font-size="10.00">array</text>
</a>
</g>
</g>
<!-- Node5&#45;&gt;Node6 -->
<g id="edge5_Node000005_Node000006" class="edge">
<title>Node5&#45;&gt;Node6</title>
<g id="a_edge5_Node000005_Node000006"><a xlink:title=" ">
<path fill="none" stroke="#63b8ff" d="M520.79,-110.09C538.41,-101.79 564.78,-89.36 585.09,-79.79"/>
<polygon fill="#63b8ff" stroke="#63b8ff" points="586.44,-83.03 593.99,-75.6 583.45,-76.69 586.44,-83.03"/>
</a>
</g>
</g>
<!-- Node7 -->
<g id="Node000007" class="node">
<title>Node7</title>
<g id="a_Node000007"><a xlink:title=" ">
<polygon fill="#e0e0e0" stroke="#999999" points="447.62,-74.5 389.62,-74.5 389.62,-55.25 447.62,-55.25 447.62,-74.5"/>
<text xml:space="preserve" text-anchor="middle" x="418.62" y="-61" font-family="Helvetica,sans-Serif" font-size="10.00">functional</text>
</a>
</g>
</g>
<!-- Node5&#45;&gt;Node7 -->
<g id="edge6_Node000005_Node000007" class="edge">
<title>Node5&#45;&gt;Node7</title>
<g id="a_edge6_Node000005_Node000007"><a xlink:title=" ">
<path fill="none" stroke="#63b8ff" d="M487.55,-110.09C475.14,-102.14 456.83,-90.39 442.2,-81"/>
<polygon fill="#63b8ff" stroke="#63b8ff" points="444.35,-78.22 434.05,-75.77 440.57,-84.12 444.35,-78.22"/>
</a>
</g>
</g>
<!-- Node8 -->
<g id="Node000008" class="node">
<title>Node8</title>
<g id="a_Node000008"><a xlink:title=" ">
<polygon fill="#e0e0e0" stroke="#999999" points="577.75,-74.5 529.5,-74.5 529.5,-55.25 577.75,-55.25 577.75,-74.5"/>
<text xml:space="preserve" text-anchor="middle" x="553.62" y="-61" font-family="Helvetica,sans-Serif" font-size="10.00">stdint.h</text>
</a>
</g>
</g>
<!-- Node5&#45;&gt;Node8 -->
<g id="edge7_Node000005_Node000008" class="edge">
<title>Node5&#45;&gt;Node8</title>
<g id="a_edge7_Node000005_Node000008"><a xlink:title=" ">
<path fill="none" stroke="#63b8ff" d="M510.21,-110.33C517.47,-102.9 528.08,-92.04 536.99,-82.91"/>
<polygon fill="#63b8ff" stroke="#63b8ff" points="539.31,-85.54 543.79,-75.94 534.3,-80.65 539.31,-85.54"/>
</a>
</g>
</g>
<!-- Node9 -->
<g id="Node000009" class="node">
<title>Node9</title>
<g id="a_Node000009"><a xlink:title=" ">
<polygon fill="#e0e0e0" stroke="#999999" points="511.25,-74.5 466,-74.5 466,-55.25 511.25,-55.25 511.25,-74.5"/>
<text xml:space="preserve" text-anchor="middle" x="488.62" y="-61" font-family="Helvetica,sans-Serif" font-size="10.00">chrono</text>
</a>
</g>
</g>
<!-- Node5&#45;&gt;Node9 -->
<g id="edge8_Node000005_Node000009" class="edge">
<title>Node5&#45;&gt;Node9</title>
<g id="a_edge8_Node000005_Node000009"><a xlink:title=" ">
<path fill="none" stroke="#63b8ff" d="M499.48,-110.33C497.85,-103.67 495.55,-94.24 493.48,-85.78"/>
<polygon fill="#63b8ff" stroke="#63b8ff" points="496.95,-85.21 491.18,-76.33 490.15,-86.87 496.95,-85.21"/>
</a>
</g>
</g>
<!-- Node10 -->
<g id="Node000010" class="node">
<title>Node10</title>
<g id="a_Node000010"><a xlink:href="_backend_id_8hpp.html" target="_top" xlink:title=" ">
<polygon fill="white" stroke="#666666" points="276.25,-74.5 195,-74.5 195,-55.25 276.25,-55.25 276.25,-74.5"/>
<text xml:space="preserve" text-anchor="middle" x="235.62" y="-61" font-family="Helvetica,sans-Serif" font-size="10.00">BackendId.hpp</text>
</a>
</g>
</g>
<!-- Node5&#45;&gt;Node10 -->
<g id="edge9_Node000005_Node000010" class="edge">
<title>Node5&#45;&gt;Node10</title>
<g id="a_edge9_Node000005_Node000010"><a xlink:title=" ">
<path fill="none" stroke="#63b8ff" d="M456.2,-110.03C409.4,-100.66 336.54,-86.08 287.5,-76.26"/>
<polygon fill="#63b8ff" stroke="#63b8ff" points="288.47,-72.89 277.98,-74.35 287.1,-79.75 288.47,-72.89"/>
</a>
</g>
</g>
<!-- Node5&#45;&gt;Node17 -->
<g id="edge16_Node000005_Node000017" class="edge">
<title>Node5&#45;&gt;Node17</title>
<g id="a_edge16_Node000005_Node000017"><a xlink:title=" ">
<path fill="none" stroke="#63b8ff" d="M545.34,-110.03C589.41,-100.87 657.46,-86.71 704.58,-76.91"/>
<polygon fill="#63b8ff" stroke="#63b8ff" points="705.23,-80.35 714.31,-74.89 703.8,-73.5 705.23,-80.35"/>
</a>
</g>
</g>
<!-- Node5&#45;&gt;Node20 -->
<g id="edge20_Node000005_Node000020" class="edge">
<title>Node5&#45;&gt;Node20</title>
<g id="a_edge20_Node000005_Node000020"><a xlink:title=" ">
<path fill="none" stroke="#63b8ff" d="M547.38,-115.36C663.63,-105.79 969.94,-80.58 1094.65,-70.32"/>
<polygon fill="#63b8ff" stroke="#63b8ff" points="1094.59,-73.83 1104.27,-69.53 1094.02,-66.86 1094.59,-73.83"/>
</a>
</g>
</g>
<!-- Node11 -->
<g id="Node000011" class="node">
<title>Node11</title>
<g id="a_Node000011"><a xlink:title=" ">
<polygon fill="#e0e0e0" stroke="#999999" points="254.25,-19.25 203,-19.25 203,0 254.25,0 254.25,-19.25"/>
<text xml:space="preserve" text-anchor="middle" x="228.62" y="-5.75" font-family="Helvetica,sans-Serif" font-size="10.00">memory</text>
</a>
</g>
</g>
<!-- Node10&#45;&gt;Node11 -->
<g id="edge10_Node000010_Node000011" class="edge">
<title>Node10&#45;&gt;Node11</title>
<g id="a_edge10_Node000010_Node000011"><a xlink:title=" ">
<path fill="none" stroke="#63b8ff" d="M234.47,-55.08C233.6,-48.49 232.38,-39.21 231.28,-30.82"/>
<polygon fill="#63b8ff" stroke="#63b8ff" points="234.78,-30.57 230,-21.11 227.84,-31.48 234.78,-30.57"/>
</a>
</g>
</g>
<!-- Node12 -->
<g id="Node000012" class="node">
<title>Node12</title>
<g id="a_Node000012"><a xlink:title=" ">
<polygon fill="#e0e0e0" stroke="#999999" points="51.25,-19.25 0,-19.25 0,0 51.25,0 51.25,-19.25"/>
<text xml:space="preserve" text-anchor="middle" x="25.62" y="-5.75" font-family="Helvetica,sans-Serif" font-size="10.00">ostream</text>
</a>
</g>
</g>
<!-- Node10&#45;&gt;Node12 -->
<g id="edge11_Node000010_Node000012" class="edge">
<title>Node10&#45;&gt;Node12</title>
<g id="a_edge11_Node000010_Node000012"><a xlink:title=" ">
<path fill="none" stroke="#63b8ff" d="M200,-54.84C161.66,-45.12 100.98,-29.73 62.25,-19.91"/>
<polygon fill="#63b8ff" stroke="#63b8ff" points="63.49,-16.62 52.93,-17.55 61.77,-23.4 63.49,-16.62"/>
</a>
</g>
</g>
<!-- Node13 -->
<g id="Node000013" class="node">
<title>Node13</title>
<g id="a_Node000013"><a xlink:title=" ">
<polygon fill="#e0e0e0" stroke="#999999" points="156.38,-19.25 126.88,-19.25 126.88,0 156.38,0 156.38,-19.25"/>
<text xml:space="preserve" text-anchor="middle" x="141.62" y="-5.75" font-family="Helvetica,sans-Serif" font-size="10.00">set</text>
</a>
</g>
</g>
<!-- Node10&#45;&gt;Node13 -->
<g id="edge12_Node000010_Node000013" class="edge">
<title>Node10&#45;&gt;Node13</title>
<g id="a_edge12_Node000010_Node000013"><a xlink:title=" ">
<path fill="none" stroke="#63b8ff" d="M219.68,-54.84C205.1,-46.59 183.32,-34.24 166.46,-24.7"/>
<polygon fill="#63b8ff" stroke="#63b8ff" points="168.46,-21.8 158.03,-19.92 165.01,-27.89 168.46,-21.8"/>
</a>
</g>
</g>
<!-- Node14 -->
<g id="Node000014" class="node">
<title>Node14</title>
<g id="a_Node000014"><a xlink:title=" ">
<polygon fill="#e0e0e0" stroke="#999999" points="571.62,-19.25 531.62,-19.25 531.62,0 571.62,0 571.62,-19.25"/>
<text xml:space="preserve" text-anchor="middle" x="551.62" y="-5.75" font-family="Helvetica,sans-Serif" font-size="10.00">string</text>
</a>
</g>
</g>
<!-- Node10&#45;&gt;Node14 -->
<g id="edge13_Node000010_Node000014" class="edge">
<title>Node10&#45;&gt;Node14</title>
<g id="a_edge13_Node000010_Node000014"><a xlink:title=" ">
<path fill="none" stroke="#63b8ff" d="M276.61,-56.97C340.53,-46.2 462.59,-25.63 520.13,-15.93"/>
<polygon fill="#63b8ff" stroke="#63b8ff" points="520.61,-19.4 529.89,-14.29 519.45,-12.5 520.61,-19.4"/>
</a>
</g>
</g>
<!-- Node15 -->
<g id="Node000015" class="node">
<title>Node15</title>
<g id="a_Node000015"><a xlink:title=" ">
<polygon fill="#e0e0e0" stroke="#999999" points="349.38,-19.25 271.88,-19.25 271.88,0 349.38,0 349.38,-19.25"/>
<text xml:space="preserve" text-anchor="middle" x="310.62" y="-5.75" font-family="Helvetica,sans-Serif" font-size="10.00">unordered_set</text>
</a>
</g>
</g>
<!-- Node10&#45;&gt;Node15 -->
<g id="edge14_Node000010_Node000015" class="edge">
<title>Node10&#45;&gt;Node15</title>
<g id="a_edge14_Node000010_Node000015"><a xlink:title=" ">
<path fill="none" stroke="#63b8ff" d="M248.35,-54.84C259.34,-47.04 275.47,-35.59 288.56,-26.29"/>
<polygon fill="#63b8ff" stroke="#63b8ff" points="290.48,-29.22 296.61,-20.58 286.43,-23.51 290.48,-29.22"/>
</a>
</g>
</g>
<!-- Node16 -->
<g id="Node000016" class="node">
<title>Node16</title>
<g id="a_Node000016"><a xlink:title=" ">
<polygon fill="#e0e0e0" stroke="#999999" points="965.12,-19.25 922.12,-19.25 922.12,0 965.12,0 965.12,-19.25"/>
<text xml:space="preserve" text-anchor="middle" x="943.62" y="-5.75" font-family="Helvetica,sans-Serif" font-size="10.00">vector</text>
</a>
</g>
</g>
<!-- Node10&#45;&gt;Node16 -->
<g id="edge15_Node000010_Node000016" class="edge">
<title>Node10&#45;&gt;Node16</title>
<g id="a_edge15_Node000010_Node000016"><a xlink:title=" ">
<path fill="none" stroke="#63b8ff" d="M276.49,-58.04C284.48,-57.02 292.81,-56.03 300.62,-55.25 535.99,-31.68 595.7,-36.33 831.62,-19.25 858.17,-17.33 888.24,-15 910.54,-13.25"/>
<polygon fill="#63b8ff" stroke="#63b8ff" points="910.54,-16.76 920.23,-12.49 909.99,-9.79 910.54,-16.76"/>
</a>
</g>
</g>
<!-- Node17&#45;&gt;Node14 -->
<g id="edge19_Node000017_Node000014" class="edge">
<title>Node17&#45;&gt;Node14</title>
<g id="a_edge19_Node000017_Node000014"><a xlink:title=" ">
<path fill="none" stroke="#63b8ff" d="M722.68,-54.84C683.46,-44.7 620.42,-28.41 582.81,-18.68"/>
<polygon fill="#63b8ff" stroke="#63b8ff" points="584.03,-15.39 573.47,-16.27 582.28,-22.16 584.03,-15.39"/>
</a>
</g>
</g>
<!-- Node18 -->
<g id="Node000018" class="node">
<title>Node18</title>
<g id="a_Node000018"><a xlink:title=" ">
<polygon fill="#e0e0e0" stroke="#999999" points="746.25,-19.25 695,-19.25 695,0 746.25,0 746.25,-19.25"/>
<text xml:space="preserve" text-anchor="middle" x="720.62" y="-5.75" font-family="Helvetica,sans-Serif" font-size="10.00">sstream</text>
</a>
</g>
</g>
<!-- Node17&#45;&gt;Node18 -->
<g id="edge17_Node000017_Node000018" class="edge">
<title>Node17&#45;&gt;Node18</title>
<g id="a_edge17_Node000017_Node000018"><a xlink:title=" ">
<path fill="none" stroke="#63b8ff" d="M751.52,-55.08C746.56,-47.96 739.42,-37.68 733.25,-28.8"/>
<polygon fill="#63b8ff" stroke="#63b8ff" points="736.31,-27.07 727.73,-20.85 730.56,-31.06 736.31,-27.07"/>
</a>
</g>
</g>
<!-- Node19 -->
<g id="Node000019" class="node">
<title>Node19</title>
<g id="a_Node000019"><a xlink:title=" ">
<polygon fill="#e0e0e0" stroke="#999999" points="823,-19.25 764.25,-19.25 764.25,0 823,0 823,-19.25"/>
<text xml:space="preserve" text-anchor="middle" x="793.62" y="-5.75" font-family="Helvetica,sans-Serif" font-size="10.00">stdexcept</text>
</a>
</g>
</g>
<!-- Node17&#45;&gt;Node19 -->
<g id="edge18_Node000017_Node000019" class="edge">
<title>Node17&#45;&gt;Node19</title>
<g id="a_edge18_Node000017_Node000019"><a xlink:title=" ">
<path fill="none" stroke="#63b8ff" d="M763.57,-55.08C768.34,-48.03 775.19,-37.9 781.15,-29.08"/>
<polygon fill="#63b8ff" stroke="#63b8ff" points="784,-31.11 786.7,-20.86 778.2,-27.19 784,-31.11"/>
</a>
</g>
</g>
<!-- Node23&#45;&gt;Node5 -->
<g id="edge29_Node000023_Node000005" class="edge">
<title>Node23&#45;&gt;Node5</title>
<g id="a_edge29_Node000023_Node000005"><a xlink:title=" ">
<path fill="none" stroke="#63b8ff" d="M841.67,-167.71C836.93,-167.04 832.18,-166.38 827.62,-165.75 709.45,-149.4 679.78,-146.24 561.62,-129.75 560.62,-129.61 559.61,-129.47 558.59,-129.33"/>
<polygon fill="#63b8ff" stroke="#63b8ff" points="559.37,-125.9 548.98,-127.97 558.39,-132.83 559.37,-125.9"/>
</a>
</g>
</g>
<!-- Node23&#45;&gt;Node6 -->
<g id="edge31_Node000023_Node000006" class="edge">
<title>Node23&#45;&gt;Node6</title>
<g id="a_edge31_Node000023_Node000006"><a xlink:title=" ">
<path fill="none" stroke="#63b8ff" d="M841.68,-167.51C769.91,-156.82 640.35,-136.72 632.62,-129.75 620.45,-118.76 616.25,-100.25 614.92,-85.98"/>
<polygon fill="#63b8ff" stroke="#63b8ff" points="618.43,-86.14 614.44,-76.33 611.44,-86.49 618.43,-86.14"/>
</a>
</g>
</g>
<!-- Node23&#45;&gt;Node8 -->
<g id="edge30_Node000023_Node000008" class="edge">
<title>Node23&#45;&gt;Node8</title>
<g id="a_edge30_Node000023_Node000008"><a xlink:title=" ">
<path fill="none" stroke="#63b8ff" d="M841.56,-167.43C766.36,-156.22 626.53,-134.88 616.62,-129.75 595.72,-118.93 577.54,-98.63 566.16,-83.81"/>
<polygon fill="#63b8ff" stroke="#63b8ff" points="569.04,-81.82 560.3,-75.83 563.39,-85.96 569.04,-81.82"/>
</a>
</g>
</g>
<!-- Node23&#45;&gt;Node16 -->
<g id="edge33_Node000023_Node000016" class="edge">
<title>Node23&#45;&gt;Node16</title>
<g id="a_edge33_Node000023_Node000016"><a xlink:title=" ">
<path fill="none" stroke="#63b8ff" d="M891.58,-165.57C900.12,-140.14 924.99,-66.1 936.99,-30.37"/>
<polygon fill="#63b8ff" stroke="#63b8ff" points="940.31,-31.5 940.17,-20.91 933.67,-29.27 940.31,-31.5"/>
</a>
</g>
</g>
<!-- Node23&#45;&gt;Node17 -->
<g id="edge24_Node000023_Node000017" class="edge">
<title>Node23&#45;&gt;Node17</title>
<g id="a_edge24_Node000023_Node000017"><a xlink:title=" ">
<path fill="none" stroke="#63b8ff" d="M859.99,-165.32C840.45,-158.07 814.89,-146.34 796.62,-129.75 782.95,-117.33 772.43,-99 765.79,-85.16"/>
<polygon fill="#63b8ff" stroke="#63b8ff" points="769.05,-83.88 761.75,-76.2 762.66,-86.75 769.05,-83.88"/>
</a>
</g>
</g>
<!-- Node24 -->
<g id="Node000024" class="node">
<title>Node24</title>
<g id="a_Node000024"><a xlink:href="_optional_8hpp.html" target="_top" xlink:title=" ">
<polygon fill="white" stroke="#666666" points="712,-129.75 641.25,-129.75 641.25,-110.5 712,-110.5 712,-129.75"/>
<text xml:space="preserve" text-anchor="middle" x="676.62" y="-116.25" font-family="Helvetica,sans-Serif" font-size="10.00">Optional.hpp</text>
</a>
</g>
</g>
<!-- Node23&#45;&gt;Node24 -->
<g id="edge25_Node000023_Node000024" class="edge">
<title>Node23&#45;&gt;Node24</title>
<g id="a_edge25_Node000023_Node000024"><a xlink:title=" ">
<path fill="none" stroke="#63b8ff" d="M852.66,-165.34C817.07,-156.4 762.42,-142.67 723.46,-132.89"/>
<polygon fill="#63b8ff" stroke="#63b8ff" points="724.43,-129.52 713.88,-130.48 722.72,-136.31 724.43,-129.52"/>
</a>
</g>
</g>
<!-- Node26 -->
<g id="Node000026" class="node">
<title>Node26</title>
<g id="a_Node000026"><a xlink:title=" ">
<polygon fill="#e0e0e0" stroke="#999999" points="877.75,-129.75 805.5,-129.75 805.5,-110.5 877.75,-110.5 877.75,-129.75"/>
<text xml:space="preserve" text-anchor="middle" x="841.62" y="-116.25" font-family="Helvetica,sans-Serif" font-size="10.00">initializer_list</text>
</a>
</g>
</g>
<!-- Node23&#45;&gt;Node26 -->
<g id="edge32_Node000023_Node000026" class="edge">
<title>Node23&#45;&gt;Node26</title>
<g id="a_edge32_Node000023_Node000026"><a xlink:title=" ">
<path fill="none" stroke="#63b8ff" d="M880.86,-165.58C874.44,-158.3 865.11,-147.73 857.16,-138.73"/>
<polygon fill="#63b8ff" stroke="#63b8ff" points="859.8,-136.43 850.56,-131.24 854.55,-141.06 859.8,-136.43"/>
</a>
</g>
</g>
<!-- Node27 -->
<g id="Node000027" class="node">
<title>Node27</title>
<g id="a_Node000027"><a xlink:title=" ">
<polygon fill="#e0e0e0" stroke="#999999" points="1011.25,-129.75 972,-129.75 972,-110.5 1011.25,-110.5 1011.25,-129.75"/>
<text xml:space="preserve" text-anchor="middle" x="991.62" y="-116.25" font-family="Helvetica,sans-Serif" font-size="10.00">utility</text>
</a>
</g>
</g>
<!-- Node23&#45;&gt;Node27 -->
<g id="edge34_Node000023_Node000027" class="edge">
<title>Node23&#45;&gt;Node27</title>
<g id="a_edge34_Node000023_Node000027"><a xlink:title=" ">
<path fill="none" stroke="#63b8ff" d="M906.1,-165.34C921.93,-157.16 945.53,-144.96 963.93,-135.44"/>
<polygon fill="#63b8ff" stroke="#63b8ff" points="965.45,-138.6 972.72,-130.9 962.23,-132.38 965.45,-138.6"/>
</a>
</g>
</g>
<!-- Node24&#45;&gt;Node17 -->
<g id="edge26_Node000024_Node000017" class="edge">
<title>Node24&#45;&gt;Node17</title>
<g id="a_edge26_Node000024_Node000017"><a xlink:title=" ">
<path fill="none" stroke="#63b8ff" d="M690.37,-110.09C702.35,-102.21 720,-90.61 734.21,-81.27"/>
<polygon fill="#63b8ff" stroke="#63b8ff" points="736.12,-84.2 742.55,-75.78 732.27,-78.35 736.12,-84.2"/>
</a>
</g>
</g>
<!-- Node24&#45;&gt;Node21 -->
<g id="edge28_Node000024_Node000021" class="edge">
<title>Node24&#45;&gt;Node21</title>
<g id="a_edge28_Node000024_Node000021"><a xlink:title=" ">
<path fill="none" stroke="#63b8ff" d="M640.97,-114.48C587.25,-107.34 482.13,-92.73 382.75,-74.79"/>
<polygon fill="#63b8ff" stroke="#63b8ff" points="383.55,-71.37 373.08,-73.03 382.3,-78.26 383.55,-71.37"/>
</a>
</g>
</g>
<!-- Node25 -->
<g id="Node000025" class="node">
<title>Node25</title>
<g id="a_Node000025"><a xlink:title=" ">
<polygon fill="#e0e0e0" stroke="#999999" points="698.25,-74.5 653,-74.5 653,-55.25 698.25,-55.25 698.25,-74.5"/>
<text xml:space="preserve" text-anchor="middle" x="675.62" y="-61" font-family="Helvetica,sans-Serif" font-size="10.00">cstring</text>
</a>
</g>
</g>
<!-- Node24&#45;&gt;Node25 -->
<g id="edge27_Node000024_Node000025" class="edge">
<title>Node24&#45;&gt;Node25</title>
<g id="a_edge27_Node000024_Node000025"><a xlink:title=" ">
<path fill="none" stroke="#63b8ff" d="M676.46,-110.33C676.34,-103.82 676.17,-94.67 676.01,-86.37"/>
<polygon fill="#63b8ff" stroke="#63b8ff" points="679.51,-86.3 675.82,-76.37 672.51,-86.44 679.51,-86.3"/>
</a>
</g>
</g>
<!-- Node28&#45;&gt;Node5 -->
<g id="edge39_Node000028_Node000005" class="edge">
<title>Node28&#45;&gt;Node5</title>
<g id="a_edge39_Node000028_Node000005"><a xlink:title=" ">
<path fill="none" stroke="#63b8ff" d="M222.51,-220.61C235.33,-206.57 262.12,-179.65 290.62,-165.75 339.44,-141.95 400.67,-130.79 444.58,-125.59"/>
<polygon fill="#63b8ff" stroke="#63b8ff" points="444.86,-129.08 454.41,-124.5 444.08,-122.13 444.86,-129.08"/>
</a>
</g>
</g>
<!-- Node28&#45;&gt;Node8 -->
<g id="edge40_Node000028_Node000008" class="edge">
<title>Node28&#45;&gt;Node8</title>
<g id="a_edge40_Node000028_Node000008"><a xlink:title=" ">
<path fill="none" stroke="#63b8ff" d="M218.13,-220.85C224.05,-207.13 237.28,-180.66 256.62,-165.75 277.99,-149.28 444.49,-98.39 518.44,-76.29"/>
<polygon fill="#63b8ff" stroke="#63b8ff" points="519.03,-79.77 527.61,-73.56 517.03,-73.06 519.03,-79.77"/>
</a>
</g>
</g>
<!-- Node28&#45;&gt;Node10 -->
<g id="edge36_Node000028_Node000010" class="edge">
<title>Node28&#45;&gt;Node10</title>
<g id="a_edge36_Node000028_Node000010"><a xlink:title=" ">
<path fill="none" stroke="#63b8ff" d="M205.3,-220.73C197.27,-212.38 186.27,-199.09 181.62,-185 171.26,-153.55 167.52,-140.46 181.62,-110.5 187.34,-98.37 198.14,-88.41 208.6,-81"/>
<polygon fill="#63b8ff" stroke="#63b8ff" points="210.2,-84.14 216.68,-75.75 206.38,-78.27 210.2,-84.14"/>
</a>
</g>
</g>
<!-- Node28&#45;&gt;Node12 -->
<g id="edge42_Node000028_Node000012" class="edge">
<title>Node28&#45;&gt;Node12</title>
<g id="a_edge42_Node000028_Node000012"><a xlink:title=" ">
<path fill="none" stroke="#63b8ff" d="M158.71,-222.6C113.19,-215.64 54.03,-203.35 38.62,-185 1.43,-140.7 12.4,-65.75 20.44,-30.31"/>
<polygon fill="#63b8ff" stroke="#63b8ff" points="23.74,-31.56 22.72,-21.01 16.94,-29.89 23.74,-31.56"/>
</a>
</g>
</g>
<!-- Node28&#45;&gt;Node13 -->
<g id="edge43_Node000028_Node000013" class="edge">
<title>Node28&#45;&gt;Node13</title>
<g id="a_edge43_Node000028_Node000013"><a xlink:title=" ">
<path fill="none" stroke="#63b8ff" d="M202.76,-220.74C192.79,-212.59 179.01,-199.59 171.62,-185 145.78,-133.95 141.66,-64.87 141.34,-31.02"/>
<polygon fill="#63b8ff" stroke="#63b8ff" points="144.84,-31.06 141.36,-21.05 137.84,-31.04 144.84,-31.06"/>
</a>
</g>
</g>
<!-- Node28&#45;&gt;Node17 -->
<g id="edge37_Node000028_Node000017" class="edge">
<title>Node28&#45;&gt;Node17</title>
<g id="a_edge37_Node000028_Node000017"><a xlink:title=" ">
<path fill="none" stroke="#63b8ff" d="M270.58,-223.19C317.87,-216.71 386.91,-204.79 444.62,-185 462.53,-178.86 464.59,-171.52 482.62,-165.75 584.52,-133.16 632.21,-189.97 720.62,-129.75 736.17,-119.16 746.05,-99.72 751.66,-85.06"/>
<polygon fill="#63b8ff" stroke="#63b8ff" points="754.82,-86.61 754.77,-76.01 748.2,-84.33 754.82,-86.61"/>
</a>
</g>
</g>
<!-- Node28&#45;&gt;Node21 -->
<g id="edge44_Node000028_Node000021" class="edge">
<title>Node28&#45;&gt;Node21</title>
<g id="a_edge44_Node000028_Node000021"><a xlink:title=" ">
<path fill="none" stroke="#63b8ff" d="M212,-220.79C206.23,-199.47 194.88,-144.46 219.62,-110.5 229.28,-97.24 267.52,-84.55 298.46,-76.11"/>
<polygon fill="#63b8ff" stroke="#63b8ff" points="299.22,-79.53 307.99,-73.59 297.43,-72.76 299.22,-79.53"/>
</a>
</g>
</g>
<!-- Node28&#45;&gt;Node23 -->
<g id="edge38_Node000028_Node000023" class="edge">
<title>Node28&#45;&gt;Node23</title>
<g id="a_edge38_Node000028_Node000023"><a xlink:title=" ">
<path fill="none" stroke="#63b8ff" d="M270.3,-224.12C281.65,-223.05 293.52,-221.96 304.62,-221 496.99,-204.43 725.28,-187.89 830.38,-180.45"/>
<polygon fill="#63b8ff" stroke="#63b8ff" points="830.43,-183.96 840.16,-179.76 829.94,-176.97 830.43,-183.96"/>
</a>
</g>
</g>
<!-- Node29 -->
<g id="Node000029" class="node">
<title>Node29</title>
<g id="a_Node000029"><a xlink:title=" ">
<polygon fill="#e0e0e0" stroke="#999999" points="91.12,-185 48.12,-185 48.12,-165.75 91.12,-165.75 91.12,-185"/>
<text xml:space="preserve" text-anchor="middle" x="69.62" y="-171.5" font-family="Helvetica,sans-Serif" font-size="10.00">cmath</text>
</a>
</g>
</g>
<!-- Node28&#45;&gt;Node29 -->
<g id="edge41_Node000028_Node000029" class="edge">
<title>Node28&#45;&gt;Node29</title>
<g id="a_edge41_Node000028_Node000029"><a xlink:title=" ">
<path fill="none" stroke="#63b8ff" d="M190.03,-220.59C165.85,-211.71 128.8,-198.11 102.19,-188.33"/>
<polygon fill="#63b8ff" stroke="#63b8ff" points="103.51,-185.09 92.91,-184.93 101.09,-191.66 103.51,-185.09"/>
</a>
</g>
</g>
<!-- Node31 -->
<g id="Node000031" class="node">
<title>Node31</title>
<g id="a_Node000031"><a xlink:title=" ">
<polygon fill="#e0e0e0" stroke="#999999" points="747.75,-185 699.5,-185 699.5,-165.75 747.75,-165.75 747.75,-185"/>
<text xml:space="preserve" text-anchor="middle" x="723.62" y="-171.5" font-family="Helvetica,sans-Serif" font-size="10.00">cassert</text>
</a>
</g>
</g>
<!-- Node30&#45;&gt;Node31 -->
<g id="edge46_Node000030_Node000031" class="edge">
<title>Node30&#45;&gt;Node31</title>
<g id="a_edge46_Node000030_Node000031"><a xlink:title=" ">
<path fill="none" stroke="#63b8ff" d="M738.65,-220.83C736.37,-214.09 733.14,-204.52 730.26,-195.99"/>
<polygon fill="#63b8ff" stroke="#63b8ff" points="733.66,-195.15 727.15,-186.79 727.03,-197.39 733.66,-195.15"/>
</a>
</g>
</g>
<!-- Node32&#45;&gt;Node5 -->
<g id="edge48_Node000032_Node000005" class="edge">
<title>Node32&#45;&gt;Node5</title>
<g id="a_edge48_Node000032_Node000005"><a xlink:title=" ">
<path fill="none" stroke="#63b8ff" d="M587.08,-220.58C631.78,-212.02 675.09,-195.81 652.62,-165.75 641.05,-150.25 596.12,-138.25 558.25,-130.62"/>
<polygon fill="#63b8ff" stroke="#63b8ff" points="559.26,-127.25 548.77,-128.77 557.92,-134.12 559.26,-127.25"/>
</a>
</g>
</g>
<!-- Node34&#45;&gt;Node5 -->
<g id="edge55_Node000034_Node000005" class="edge">
<title>Node34&#45;&gt;Node5</title>
<g id="a_edge55_Node000034_Node000005"><a xlink:title=" ">
<path fill="none" stroke="#63b8ff" d="M1005.75,-222.22C958.47,-215.27 890.27,-203.2 832.62,-185 812.66,-178.69 809.71,-171.68 789.62,-165.75 747.42,-153.28 629.61,-137.15 558.42,-128.1"/>
<polygon fill="#63b8ff" stroke="#63b8ff" points="559.27,-124.68 548.91,-126.9 558.39,-131.62 559.27,-124.68"/>
</a>
</g>
</g>
<!-- Node34&#45;&gt;Node16 -->
<g id="edge60_Node000034_Node000016" class="edge">
<title>Node34&#45;&gt;Node16</title>
<g id="a_edge60_Node000034_Node000016"><a xlink:title=" ">
<path fill="none" stroke="#63b8ff" d="M1064.62,-220.86C1065.8,-208.46 1067.19,-185.16 1063.62,-165.75 1058.88,-139.91 1056.85,-132.59 1042.62,-110.5 1020.86,-76.71 986.15,-45.07 964.14,-26.79"/>
<polygon fill="#63b8ff" stroke="#63b8ff" points="966.43,-24.14 956.46,-20.55 962.01,-29.58 966.43,-24.14"/>
</a>
</g>
</g>
<!-- Node34&#45;&gt;Node17 -->
<g id="edge56_Node000034_Node000017" class="edge">
<title>Node34&#45;&gt;Node17</title>
<g id="a_edge56_Node000034_Node000017"><a xlink:title=" ">
<path fill="none" stroke="#63b8ff" d="M1063.3,-220.77C1061.98,-198.41 1055.21,-139.41 1020.62,-110.5 989.6,-84.56 878.5,-73.25 811.02,-68.67"/>
<polygon fill="#63b8ff" stroke="#63b8ff" points="811.49,-65.2 801.28,-68.04 811.04,-72.18 811.49,-65.2"/>
</a>
</g>
</g>
<!-- Node34&#45;&gt;Node20 -->
<g id="edge52_Node000034_Node000020" class="edge">
<title>Node34&#45;&gt;Node20</title>
<g id="a_edge52_Node000034_Node000020"><a xlink:title=" ">
<path fill="none" stroke="#63b8ff" d="M1069.73,-220.58C1075.62,-211.69 1084.65,-197.66 1091.62,-185 1110.55,-150.64 1129.64,-109 1140.22,-85.15"/>
<polygon fill="#63b8ff" stroke="#63b8ff" points="1143.38,-86.66 1144.2,-76.1 1136.97,-83.84 1143.38,-86.66"/>
</a>
</g>
</g>
<!-- Node34&#45;&gt;Node23 -->
<g id="edge54_Node000034_Node000023" class="edge">
<title>Node34&#45;&gt;Node23</title>
<g id="a_edge54_Node000034_Node000023"><a xlink:title=" ">
<path fill="none" stroke="#63b8ff" d="M1033.94,-220.59C1005.15,-211.83 961.26,-198.48 929.24,-188.73"/>
<polygon fill="#63b8ff" stroke="#63b8ff" points="930.49,-185.46 919.9,-185.89 928.45,-192.15 930.49,-185.46"/>
</a>
</g>
</g>
<!-- Node34&#45;&gt;Node27 -->
<g id="edge59_Node000034_Node000027" class="edge">
<title>Node34&#45;&gt;Node27</title>
<g id="a_edge59_Node000034_Node000027"><a xlink:title=" ">
<path fill="none" stroke="#63b8ff" d="M1054.85,-220.53C1046.71,-211.83 1034.55,-198.13 1025.62,-185 1015.9,-170.7 1006.8,-153.31 1000.47,-140.28"/>
<polygon fill="#63b8ff" stroke="#63b8ff" points="1003.76,-139.06 996.32,-131.52 997.43,-142.05 1003.76,-139.06"/>
</a>
</g>
</g>
<!-- Node35 -->
<g id="Node000035" class="node">
<title>Node35</title>
<g id="a_Node000035"><a xlink:href="_descriptors_fwd_8hpp.html" target="_top" xlink:title=" ">
<polygon fill="white" stroke="#666666" points="1247.5,-185 1143.75,-185 1143.75,-165.75 1247.5,-165.75 1247.5,-185"/>
<text xml:space="preserve" text-anchor="middle" x="1195.62" y="-171.5" font-family="Helvetica,sans-Serif" font-size="10.00">DescriptorsFwd.hpp</text>
</a>
</g>
</g>
<!-- Node34&#45;&gt;Node35 -->
<g id="edge53_Node000034_Node000035" class="edge">
<title>Node34&#45;&gt;Node35</title>
<g id="a_edge53_Node000034_Node000035"><a xlink:title=" ">
<path fill="none" stroke="#63b8ff" d="M1086.02,-220.59C1107.07,-212.1 1138.83,-199.29 1162.75,-189.64"/>
<polygon fill="#63b8ff" stroke="#63b8ff" points="1163.76,-193.01 1171.72,-186.02 1161.14,-186.51 1163.76,-193.01"/>
</a>
</g>
</g>
<!-- Node36 -->
<g id="Node000036" class="node">
<title>Node36</title>
<g id="a_Node000036"><a xlink:title=" ">
<polygon fill="#e0e0e0" stroke="#999999" points="1311.25,-185 1266,-185 1266,-165.75 1311.25,-165.75 1311.25,-185"/>
<text xml:space="preserve" text-anchor="middle" x="1288.62" y="-171.5" font-family="Helvetica,sans-Serif" font-size="10.00">cstdint</text>
</a>
</g>
</g>
<!-- Node34&#45;&gt;Node36 -->
<g id="edge57_Node000034_Node000036" class="edge">
<title>Node34&#45;&gt;Node36</title>
<g id="a_edge57_Node000034_Node000036"><a xlink:title=" ">
<path fill="none" stroke="#63b8ff" d="M1104.77,-220.56C1141.54,-212.36 1197.17,-199.72 1254.48,-185.47"/>
<polygon fill="#63b8ff" stroke="#63b8ff" points="1255.26,-188.88 1264.11,-183.06 1253.56,-182.09 1255.26,-188.88"/>
</a>
</g>
</g>
<!-- Node37 -->
<g id="Node000037" class="node">
<title>Node37</title>
<g id="a_Node000037"><a xlink:title=" ">
<polygon fill="#e0e0e0" stroke="#999999" points="1375.62,-185 1329.62,-185 1329.62,-165.75 1375.62,-165.75 1375.62,-185"/>
<text xml:space="preserve" text-anchor="middle" x="1352.62" y="-171.5" font-family="Helvetica,sans-Serif" font-size="10.00">iterator</text>
</a>
</g>
</g>
<!-- Node34&#45;&gt;Node37 -->
<g id="edge58_Node000034_Node000037" class="edge">
<title>Node34&#45;&gt;Node37</title>
<g id="a_edge58_Node000034_Node000037"><a xlink:title=" ">
<path fill="none" stroke="#63b8ff" d="M1121.59,-221.11C1171.32,-213.45 1245.11,-201.27 1318.05,-185.41"/>
<polygon fill="#63b8ff" stroke="#63b8ff" points="1318.78,-188.83 1327.79,-183.26 1317.27,-181.99 1318.78,-188.83"/>
</a>
</g>
</g>
</g>
</svg>
