<?xml version="1.0" encoding="UTF-8" standalone="no"?>
<!DOCTYPE svg PUBLIC "-//W3C//DTD SVG 1.1//EN"
 "http://www.w3.org/Graphics/SVG/1.1/DTD/svg11.dtd">
<!-- Generated by graphviz version 14.0.2 (20251019.1705)
 -->
<!-- Title: src/backends/backendsCommon/WorkloadUtils.hpp Pages: 1 -->
<svg width="5190pt" height="183pt"
 viewBox="0.00 0.00 5190.00 183.00" xmlns="http://www.w3.org/2000/svg" xmlns:xlink="http://www.w3.org/1999/xlink">
<g id="graph0" class="graph" transform="scale(1 1) rotate(0) translate(4 178.75)">
<title>src/backends/backendsCommon/WorkloadUtils.hpp</title>
<!-- Node1 -->
<g id="Node000001" class="node">
<title>Node1</title>
<g id="a_Node000001"><a xlink:title=" ">
<polygon fill="#999999" stroke="#666666" points="2690.25,-174.75 2531,-174.75 2531,-144.25 2690.25,-144.25 2690.25,-174.75"/>
<text xml:space="preserve" text-anchor="start" x="2539" y="-161.25" font-family="Helvetica,sans-Serif" font-size="10.00">src/backends/backendsCommon</text>
<text xml:space="preserve" text-anchor="middle" x="2610.62" y="-150" font-family="Helvetica,sans-Serif" font-size="10.00">/WorkloadUtils.hpp</text>
</a>
</g>
</g>
<!-- Node2 -->
<g id="Node000002" class="node">
<title>Node2</title>
<g id="a_Node000002"><a xlink:href="_splitter_layer_8cpp.html" target="_top" xlink:title=" ">
<polygon fill="white" stroke="#666666" points="381.88,-102.62 259.38,-102.62 259.38,-72.12 381.88,-72.12 381.88,-102.62"/>
<text xml:space="preserve" text-anchor="start" x="267.38" y="-89.12" font-family="Helvetica,sans-Serif" font-size="10.00">src/armnn/layers/Splitter</text>
<text xml:space="preserve" text-anchor="middle" x="320.62" y="-77.88" font-family="Helvetica,sans-Serif" font-size="10.00">Layer.cpp</text>
</a>
</g>
</g>
<!-- Node1&#45;&gt;Node2 -->
<g id="edge1_Node000001_Node000002" class="edge">
<title>Node1&#45;&gt;Node2</title>
<g id="a_edge1_Node000001_Node000002"><a xlink:title=" ">
<path fill="none" stroke="#63b8ff" d="M2519.35,-157.8C2128.11,-154.62 603.02,-140.27 390.62,-108.25 382.63,-107.04 374.26,-105.2 366.2,-103.11"/>
<polygon fill="#63b8ff" stroke="#63b8ff" points="2519.05,-161.3 2529.08,-157.88 2519.11,-154.3 2519.05,-161.3"/>
</a>
</g>
</g>
<!-- Node3 -->
<g id="Node000003" class="node">
<title>Node3</title>
<g id="a_Node000003"><a xlink:href="_mem_copy_workload_8cpp.html" target="_top" xlink:title=" ">
<polygon fill="white" stroke="#666666" points="559.25,-102.62 400,-102.62 400,-72.12 559.25,-72.12 559.25,-102.62"/>
<text xml:space="preserve" text-anchor="start" x="408" y="-89.12" font-family="Helvetica,sans-Serif" font-size="10.00">src/backends/backendsCommon</text>
<text xml:space="preserve" text-anchor="middle" x="479.62" y="-77.88" font-family="Helvetica,sans-Serif" font-size="10.00">/MemCopyWorkload.cpp</text>
</a>
</g>
</g>
<!-- Node1&#45;&gt;Node3 -->
<g id="edge2_Node000001_Node000003" class="edge">
<title>Node1&#45;&gt;Node3</title>
<g id="a_edge2_Node000001_Node000003"><a xlink:title=" ">
<path fill="none" stroke="#63b8ff" d="M2519.15,-158.65C2174.33,-158.84 953.19,-156.06 567.62,-108.25 557.68,-107.02 547.2,-105.16 537.09,-103.06"/>
<polygon fill="#63b8ff" stroke="#63b8ff" points="2519.05,-162.15 2529.05,-158.64 2519.04,-155.15 2519.05,-162.15"/>
</a>
</g>
</g>
<!-- Node4 -->
<g id="Node000004" class="node">
<title>Node4</title>
<g id="a_Node000004"><a xlink:href="_mem_import_workload_8hpp.html" target="_top" xlink:title=" ">
<polygon fill="white" stroke="#666666" points="736.25,-102.62 577,-102.62 577,-72.12 736.25,-72.12 736.25,-102.62"/>
<text xml:space="preserve" text-anchor="start" x="585" y="-89.12" font-family="Helvetica,sans-Serif" font-size="10.00">src/backends/backendsCommon</text>
<text xml:space="preserve" text-anchor="middle" x="656.62" y="-77.88" font-family="Helvetica,sans-Serif" font-size="10.00">/MemImportWorkload.hpp</text>
</a>
</g>
</g>
<!-- Node1&#45;&gt;Node4 -->
<g id="edge3_Node000001_Node000004" class="edge">
<title>Node1&#45;&gt;Node4</title>
<g id="a_edge3_Node000001_Node000004"><a xlink:title=" ">
<path fill="none" stroke="#63b8ff" d="M2519.53,-158.4C2194.71,-157.68 1094,-151.98 744.62,-108.25 734.68,-107 724.21,-105.14 714.09,-103.04"/>
<polygon fill="#63b8ff" stroke="#63b8ff" points="2519.24,-161.9 2529.24,-158.42 2519.25,-154.9 2519.24,-161.9"/>
</a>
</g>
</g>
<!-- Node11 -->
<g id="Node000011" class="node">
<title>Node11</title>
<g id="a_Node000011"><a xlink:href="_mem_sync_workload_8hpp.html" target="_top" xlink:title=" ">
<polygon fill="white" stroke="#666666" points="913.25,-102.62 754,-102.62 754,-72.12 913.25,-72.12 913.25,-102.62"/>
<text xml:space="preserve" text-anchor="start" x="762" y="-89.12" font-family="Helvetica,sans-Serif" font-size="10.00">src/backends/backendsCommon</text>
<text xml:space="preserve" text-anchor="middle" x="833.62" y="-77.88" font-family="Helvetica,sans-Serif" font-size="10.00">/MemSyncWorkload.hpp</text>
</a>
</g>
</g>
<!-- Node1&#45;&gt;Node11 -->
<g id="edge10_Node000001_Node000011" class="edge">
<title>Node1&#45;&gt;Node11</title>
<g id="a_edge10_Node000001_Node000011"><a xlink:title=" ">
<path fill="none" stroke="#63b8ff" d="M2519.33,-158.1C2214.71,-156.39 1234.74,-147.89 921.62,-108.25 911.84,-107.01 901.54,-105.18 891.57,-103.12"/>
<polygon fill="#63b8ff" stroke="#63b8ff" points="2519.22,-161.6 2529.23,-158.15 2519.25,-154.6 2519.22,-161.6"/>
</a>
</g>
</g>
<!-- Node14 -->
<g id="Node000014" class="node">
<title>Node14</title>
<g id="a_Node000014"><a xlink:href="_workload_utils_8cpp.html" target="_top" xlink:title=" ">
<polygon fill="white" stroke="#666666" points="1090.25,-102.62 931,-102.62 931,-72.12 1090.25,-72.12 1090.25,-102.62"/>
<text xml:space="preserve" text-anchor="start" x="939" y="-89.12" font-family="Helvetica,sans-Serif" font-size="10.00">src/backends/backendsCommon</text>
<text xml:space="preserve" text-anchor="middle" x="1010.62" y="-77.88" font-family="Helvetica,sans-Serif" font-size="10.00">/WorkloadUtils.cpp</text>
</a>
</g>
</g>
<!-- Node1&#45;&gt;Node14 -->
<g id="edge13_Node000001_Node000014" class="edge">
<title>Node1&#45;&gt;Node14</title>
<g id="a_edge13_Node000001_Node000014"><a xlink:title=" ">
<path fill="none" stroke="#63b8ff" d="M2519.24,-157.69C2236.2,-154.85 1376.5,-143.46 1099.62,-108.25 1089.73,-106.99 1079.32,-105.15 1069.24,-103.09"/>
<polygon fill="#63b8ff" stroke="#63b8ff" points="2519.13,-161.19 2529.16,-157.79 2519.2,-154.19 2519.13,-161.19"/>
</a>
</g>
</g>
<!-- Node15 -->
<g id="Node000015" class="node">
<title>Node15</title>
<g id="a_Node000015"><a xlink:href="_cl_layer_support_8cpp.html" target="_top" xlink:title=" ">
<polygon fill="white" stroke="#666666" points="1282.75,-97 1108.5,-97 1108.5,-77.75 1282.75,-77.75 1282.75,-97"/>
<text xml:space="preserve" text-anchor="middle" x="1195.62" y="-83.5" font-family="Helvetica,sans-Serif" font-size="10.00">src/backends/cl/ClLayerSupport.cpp</text>
</a>
</g>
</g>
<!-- Node1&#45;&gt;Node15 -->
<g id="edge14_Node000001_Node000015" class="edge">
<title>Node1&#45;&gt;Node15</title>
<g id="a_edge14_Node000001_Node000015"><a xlink:title=" ">
<path fill="none" stroke="#63b8ff" d="M2519.5,-157C2261.61,-152.44 1529.92,-137.25 1291.62,-108.25 1271.86,-105.84 1250.11,-101.49 1232.31,-97.46"/>
<polygon fill="#63b8ff" stroke="#63b8ff" points="2519.11,-160.49 2529.17,-157.17 2519.24,-153.49 2519.11,-160.49"/>
</a>
</g>
</g>
<!-- Node16 -->
<g id="Node000016" class="node">
<title>Node16</title>
<g id="a_Node000016"><a xlink:href="_cl_batch_mat_mul_workload_8cpp.html" target="_top" xlink:title=" ">
<polygon fill="white" stroke="#666666" points="1446.5,-102.62 1300.75,-102.62 1300.75,-72.12 1446.5,-72.12 1446.5,-102.62"/>
<text xml:space="preserve" text-anchor="start" x="1308.75" y="-89.12" font-family="Helvetica,sans-Serif" font-size="10.00">src/backends/cl/workloads</text>
<text xml:space="preserve" text-anchor="middle" x="1373.62" y="-77.88" font-family="Helvetica,sans-Serif" font-size="10.00">/ClBatchMatMulWorkload.cpp</text>
</a>
</g>
</g>
<!-- Node1&#45;&gt;Node16 -->
<g id="edge15_Node000001_Node000016" class="edge">
<title>Node1&#45;&gt;Node16</title>
<g id="a_edge15_Node000001_Node000016"><a xlink:title=" ">
<path fill="none" stroke="#63b8ff" d="M2519.51,-156.82C2284.22,-152.13 1660.44,-137.25 1455.62,-108.25 1446.63,-106.98 1437.19,-105.15 1428.03,-103.12"/>
<polygon fill="#63b8ff" stroke="#63b8ff" points="2519.17,-160.32 2529.24,-157.02 2519.31,-153.32 2519.17,-160.32"/>
</a>
</g>
</g>
<!-- Node17 -->
<g id="Node000017" class="node">
<title>Node17</title>
<g id="a_Node000017"><a xlink:href="_cl_depthwise_convolution_workload_8cpp.html" target="_top" xlink:title=" ">
<polygon fill="white" stroke="#666666" points="1650.75,-102.62 1464.5,-102.62 1464.5,-72.12 1650.75,-72.12 1650.75,-102.62"/>
<text xml:space="preserve" text-anchor="start" x="1472.5" y="-89.12" font-family="Helvetica,sans-Serif" font-size="10.00">src/backends/cl/workloads</text>
<text xml:space="preserve" text-anchor="middle" x="1557.62" y="-77.88" font-family="Helvetica,sans-Serif" font-size="10.00">/ClDepthwiseConvolutionWorkload.cpp</text>
</a>
</g>
</g>
<!-- Node1&#45;&gt;Node17 -->
<g id="edge16_Node000001_Node000017" class="edge">
<title>Node1&#45;&gt;Node17</title>
<g id="a_edge16_Node000001_Node000017"><a xlink:title=" ">
<path fill="none" stroke="#63b8ff" d="M2519.39,-157.91C2349.55,-155.87 1973.62,-146.95 1659.62,-108.25 1648.79,-106.91 1637.38,-105.1 1626.27,-103.11"/>
<polygon fill="#63b8ff" stroke="#63b8ff" points="2519.21,-161.41 2529.25,-158.02 2519.29,-154.41 2519.21,-161.41"/>
</a>
</g>
</g>
<!-- Node18 -->
<g id="Node000018" class="node">
<title>Node18</title>
<g id="a_Node000018"><a xlink:href="_cl_floor_div_workload_8cpp.html" target="_top" xlink:title=" ">
<polygon fill="white" stroke="#666666" points="1800.75,-102.62 1668.5,-102.62 1668.5,-72.12 1800.75,-72.12 1800.75,-102.62"/>
<text xml:space="preserve" text-anchor="start" x="1676.5" y="-89.12" font-family="Helvetica,sans-Serif" font-size="10.00">src/backends/cl/workloads</text>
<text xml:space="preserve" text-anchor="middle" x="1734.62" y="-77.88" font-family="Helvetica,sans-Serif" font-size="10.00">/ClFloorDivWorkload.cpp</text>
</a>
</g>
</g>
<!-- Node1&#45;&gt;Node18 -->
<g id="edge17_Node000001_Node000018" class="edge">
<title>Node1&#45;&gt;Node18</title>
<g id="a_edge17_Node000001_Node000018"><a xlink:title=" ">
<path fill="none" stroke="#63b8ff" d="M2519.4,-158.58C2370.05,-157.42 2064.48,-149.6 1809.62,-108.25 1801.51,-106.93 1793.01,-105.12 1784.76,-103.11"/>
<polygon fill="#63b8ff" stroke="#63b8ff" points="2519.21,-162.08 2529.24,-158.65 2519.26,-155.08 2519.21,-162.08"/>
</a>
</g>
</g>
<!-- Node19 -->
<g id="Node000019" class="node">
<title>Node19</title>
<g id="a_Node000019"><a xlink:href="_cl_gather_nd_workload_8cpp.html" target="_top" xlink:title=" ">
<polygon fill="white" stroke="#666666" points="1950.75,-102.62 1818.5,-102.62 1818.5,-72.12 1950.75,-72.12 1950.75,-102.62"/>
<text xml:space="preserve" text-anchor="start" x="1826.5" y="-89.12" font-family="Helvetica,sans-Serif" font-size="10.00">src/backends/cl/workloads</text>
<text xml:space="preserve" text-anchor="middle" x="1884.62" y="-77.88" font-family="Helvetica,sans-Serif" font-size="10.00">/ClGatherNdWorkload.cpp</text>
</a>
</g>
</g>
<!-- Node1&#45;&gt;Node19 -->
<g id="edge18_Node000001_Node000019" class="edge">
<title>Node1&#45;&gt;Node19</title>
<g id="a_edge18_Node000001_Node000019"><a xlink:title=" ">
<path fill="none" stroke="#63b8ff" d="M2519.38,-156.58C2393.05,-152.75 2158.09,-141.43 1960.62,-108.25 1952.56,-106.89 1944.09,-105.08 1935.87,-103.1"/>
<polygon fill="#63b8ff" stroke="#63b8ff" points="2518.91,-160.06 2529.01,-156.86 2519.11,-153.07 2518.91,-160.06"/>
</a>
</g>
</g>
<!-- Node20 -->
<g id="Node000020" class="node">
<title>Node20</title>
<g id="a_Node000020"><a xlink:href="_cl_reverse_v2_workload_8cpp.html" target="_top" xlink:title=" ">
<polygon fill="white" stroke="#666666" points="2106,-102.62 1969.25,-102.62 1969.25,-72.12 2106,-72.12 2106,-102.62"/>
<text xml:space="preserve" text-anchor="start" x="1977.25" y="-89.12" font-family="Helvetica,sans-Serif" font-size="10.00">src/backends/cl/workloads</text>
<text xml:space="preserve" text-anchor="middle" x="2037.62" y="-77.88" font-family="Helvetica,sans-Serif" font-size="10.00">/ClReverseV2Workload.cpp</text>
</a>
</g>
</g>
<!-- Node1&#45;&gt;Node20 -->
<g id="edge19_Node000001_Node000020" class="edge">
<title>Node1&#45;&gt;Node20</title>
<g id="a_edge19_Node000001_Node000020"><a xlink:title=" ">
<path fill="none" stroke="#63b8ff" d="M2519.59,-153.32C2419.86,-146.7 2255.47,-133.02 2115.62,-108.25 2107.64,-106.84 2099.28,-105.04 2091.11,-103.11"/>
<polygon fill="#63b8ff" stroke="#63b8ff" points="2519.11,-156.8 2529.31,-153.95 2519.56,-149.81 2519.11,-156.8"/>
</a>
</g>
</g>
<!-- Node21 -->
<g id="Node000021" class="node">
<title>Node21</title>
<g id="a_Node000021"><a xlink:href="_cl_splitter_workload_8cpp.html" target="_top" xlink:title=" ">
<polygon fill="white" stroke="#666666" points="2256.75,-102.62 2124.5,-102.62 2124.5,-72.12 2256.75,-72.12 2256.75,-102.62"/>
<text xml:space="preserve" text-anchor="start" x="2132.5" y="-89.12" font-family="Helvetica,sans-Serif" font-size="10.00">src/backends/cl/workloads</text>
<text xml:space="preserve" text-anchor="middle" x="2190.62" y="-77.88" font-family="Helvetica,sans-Serif" font-size="10.00">/ClSplitterWorkload.cpp</text>
</a>
</g>
</g>
<!-- Node1&#45;&gt;Node21 -->
<g id="edge20_Node000001_Node000021" class="edge">
<title>Node1&#45;&gt;Node21</title>
<g id="a_edge20_Node000001_Node000021"><a xlink:title=" ">
<path fill="none" stroke="#63b8ff" d="M2519.31,-148.09C2449.48,-139.44 2351.01,-125.72 2265.62,-108.25 2258.23,-106.74 2250.49,-104.94 2242.9,-103.04"/>
<polygon fill="#63b8ff" stroke="#63b8ff" points="2518.84,-151.56 2529.2,-149.31 2519.7,-144.61 2518.84,-151.56"/>
</a>
</g>
</g>
<!-- Node22 -->
<g id="Node000022" class="node">
<title>Node22</title>
<g id="a_Node000022"><a xlink:href="_cl_strided_slice_workload_8cpp.html" target="_top" xlink:title=" ">
<polygon fill="white" stroke="#666666" points="2414.88,-102.62 2274.38,-102.62 2274.38,-72.12 2414.88,-72.12 2414.88,-102.62"/>
<text xml:space="preserve" text-anchor="start" x="2282.38" y="-89.12" font-family="Helvetica,sans-Serif" font-size="10.00">src/backends/cl/workloads</text>
<text xml:space="preserve" text-anchor="middle" x="2344.62" y="-77.88" font-family="Helvetica,sans-Serif" font-size="10.00">/ClStridedSliceWorkload.cpp</text>
</a>
</g>
</g>
<!-- Node1&#45;&gt;Node22 -->
<g id="edge21_Node000001_Node000022" class="edge">
<title>Node1&#45;&gt;Node22</title>
<g id="a_edge21_Node000001_Node000022"><a xlink:title=" ">
<path fill="none" stroke="#63b8ff" d="M2543.9,-140.91C2499.61,-129.23 2442.15,-114.08 2400.31,-103.06"/>
<polygon fill="#63b8ff" stroke="#63b8ff" points="2542.84,-144.25 2553.4,-143.41 2544.62,-137.48 2542.84,-144.25"/>
</a>
</g>
</g>
<!-- Node23 -->
<g id="Node000023" class="node">
<title>Node23</title>
<g id="a_Node000023"><a xlink:href="_cl_unidirectional_sequence_lstm_float_workload_8cpp.html" target="_top" xlink:title=" ">
<polygon fill="white" stroke="#666666" points="2608.12,-108.25 2433.12,-108.25 2433.12,-66.5 2608.12,-66.5 2608.12,-108.25"/>
<text xml:space="preserve" text-anchor="start" x="2441.12" y="-94.75" font-family="Helvetica,sans-Serif" font-size="10.00">src/backends/cl/workloads</text>
<text xml:space="preserve" text-anchor="start" x="2441.12" y="-83.5" font-family="Helvetica,sans-Serif" font-size="10.00">/ClUnidirectionalSequenceLstmFloat</text>
<text xml:space="preserve" text-anchor="middle" x="2520.62" y="-72.25" font-family="Helvetica,sans-Serif" font-size="10.00">Workload.cpp</text>
</a>
</g>
</g>
<!-- Node1&#45;&gt;Node23 -->
<g id="edge22_Node000001_Node000023" class="edge">
<title>Node1&#45;&gt;Node23</title>
<g id="a_edge22_Node000001_Node000023"><a xlink:title=" ">
<path fill="none" stroke="#63b8ff" d="M2583.16,-137.1C2571.59,-128.08 2558.18,-117.64 2546.76,-108.74"/>
<polygon fill="#63b8ff" stroke="#63b8ff" points="2580.74,-139.65 2590.78,-143.04 2585.05,-134.13 2580.74,-139.65"/>
</a>
</g>
</g>
<!-- Node24 -->
<g id="Node000024" class="node">
<title>Node24</title>
<g id="a_Node000024"><a xlink:href="_neon_layer_support_8cpp.html" target="_top" xlink:title=" ">
<polygon fill="white" stroke="#666666" points="2775,-102.62 2626.25,-102.62 2626.25,-72.12 2775,-72.12 2775,-102.62"/>
<text xml:space="preserve" text-anchor="start" x="2634.25" y="-89.12" font-family="Helvetica,sans-Serif" font-size="10.00">src/backends/neon/NeonLayer</text>
<text xml:space="preserve" text-anchor="middle" x="2700.62" y="-77.88" font-family="Helvetica,sans-Serif" font-size="10.00">Support.cpp</text>
</a>
</g>
</g>
<!-- Node1&#45;&gt;Node24 -->
<g id="edge23_Node000001_Node000024" class="edge">
<title>Node1&#45;&gt;Node24</title>
<g id="a_edge23_Node000001_Node000024"><a xlink:title=" ">
<path fill="none" stroke="#63b8ff" d="M2638.14,-137.06C2652.36,-125.98 2669.34,-112.75 2682,-102.89"/>
<polygon fill="#63b8ff" stroke="#63b8ff" points="2636.2,-134.13 2630.47,-143.04 2640.51,-139.65 2636.2,-134.13"/>
</a>
</g>
</g>
<!-- Node25 -->
<g id="Node000025" class="node">
<title>Node25</title>
<g id="a_Node000025"><a xlink:href="_neon_batch_mat_mul_workload_8cpp.html" target="_top" xlink:title=" ">
<polygon fill="white" stroke="#666666" points="2952.25,-102.62 2793,-102.62 2793,-72.12 2952.25,-72.12 2952.25,-102.62"/>
<text xml:space="preserve" text-anchor="start" x="2801" y="-89.12" font-family="Helvetica,sans-Serif" font-size="10.00">src/backends/neon/workloads</text>
<text xml:space="preserve" text-anchor="middle" x="2872.62" y="-77.88" font-family="Helvetica,sans-Serif" font-size="10.00">/NeonBatchMatMulWorkload.cpp</text>
</a>
</g>
</g>
<!-- Node1&#45;&gt;Node25 -->
<g id="edge24_Node000001_Node000025" class="edge">
<title>Node1&#45;&gt;Node25</title>
<g id="a_edge24_Node000001_Node000025"><a xlink:title=" ">
<path fill="none" stroke="#63b8ff" d="M2676.62,-140.84C2720.21,-129.17 2776.66,-114.06 2817.77,-103.06"/>
<polygon fill="#63b8ff" stroke="#63b8ff" points="2675.77,-137.44 2667.01,-143.41 2677.58,-144.2 2675.77,-137.44"/>
</a>
</g>
</g>
<!-- Node26 -->
<g id="Node000026" class="node">
<title>Node26</title>
<g id="a_Node000026"><a xlink:href="_neon_convert_fp16_to_fp32_workload_8cpp.html" target="_top" xlink:title=" ">
<polygon fill="white" stroke="#666666" points="3160.62,-102.62 2970.62,-102.62 2970.62,-72.12 3160.62,-72.12 3160.62,-102.62"/>
<text xml:space="preserve" text-anchor="start" x="2978.62" y="-89.12" font-family="Helvetica,sans-Serif" font-size="10.00">src/backends/neon/workloads</text>
<text xml:space="preserve" text-anchor="middle" x="3065.62" y="-77.88" font-family="Helvetica,sans-Serif" font-size="10.00">/NeonConvertFp16ToFp32Workload.cpp</text>
</a>
</g>
</g>
<!-- Node1&#45;&gt;Node26 -->
<g id="edge25_Node000001_Node000026" class="edge">
<title>Node1&#45;&gt;Node26</title>
<g id="a_edge25_Node000001_Node000026"><a xlink:title=" ">
<path fill="none" stroke="#63b8ff" d="M2701.72,-146.64C2772.68,-137.12 2873.59,-122.96 2961.62,-108.25 2971.05,-106.68 2980.94,-104.92 2990.72,-103.12"/>
<polygon fill="#63b8ff" stroke="#63b8ff" points="2701.55,-143.14 2692.1,-147.93 2702.47,-150.07 2701.55,-143.14"/>
</a>
</g>
</g>
<!-- Node27 -->
<g id="Node000027" class="node">
<title>Node27</title>
<g id="a_Node000027"><a xlink:href="_neon_convert_fp32_to_fp16_workload_8cpp.html" target="_top" xlink:title=" ">
<polygon fill="white" stroke="#666666" points="3368.62,-102.62 3178.62,-102.62 3178.62,-72.12 3368.62,-72.12 3368.62,-102.62"/>
<text xml:space="preserve" text-anchor="start" x="3186.62" y="-89.12" font-family="Helvetica,sans-Serif" font-size="10.00">src/backends/neon/workloads</text>
<text xml:space="preserve" text-anchor="middle" x="3273.62" y="-77.88" font-family="Helvetica,sans-Serif" font-size="10.00">/NeonConvertFp32ToFp16Workload.cpp</text>
</a>
</g>
</g>
<!-- Node1&#45;&gt;Node27 -->
<g id="edge26_Node000001_Node000027" class="edge">
<title>Node1&#45;&gt;Node27</title>
<g id="a_edge26_Node000001_Node000027"><a xlink:title=" ">
<path fill="none" stroke="#63b8ff" d="M2701.99,-153.08C2812.94,-145.85 3005.6,-131.24 3169.62,-108.25 3180,-106.8 3190.91,-105 3201.61,-103.1"/>
<polygon fill="#63b8ff" stroke="#63b8ff" points="2701.78,-149.58 2692.03,-153.72 2702.23,-156.57 2701.78,-149.58"/>
</a>
</g>
</g>
<!-- Node28 -->
<g id="Node000028" class="node">
<title>Node28</title>
<g id="a_Node000028"><a xlink:href="_neon_depthwise_convolution_workload_8cpp.html" target="_top" xlink:title=" ">
<polygon fill="white" stroke="#666666" points="3586.5,-102.62 3386.75,-102.62 3386.75,-72.12 3586.5,-72.12 3586.5,-102.62"/>
<text xml:space="preserve" text-anchor="start" x="3394.75" y="-89.12" font-family="Helvetica,sans-Serif" font-size="10.00">src/backends/neon/workloads</text>
<text xml:space="preserve" text-anchor="middle" x="3486.62" y="-77.88" font-family="Helvetica,sans-Serif" font-size="10.00">/NeonDepthwiseConvolutionWorkload.cpp</text>
</a>
</g>
</g>
<!-- Node1&#45;&gt;Node28 -->
<g id="edge27_Node000001_Node000028" class="edge">
<title>Node1&#45;&gt;Node28</title>
<g id="a_edge27_Node000001_Node000028"><a xlink:title=" ">
<path fill="none" stroke="#63b8ff" d="M2702.07,-155.91C2846.18,-151.06 3134.72,-138.25 3377.62,-108.25 3388.89,-106.86 3400.75,-105.05 3412.34,-103.1"/>
<polygon fill="#63b8ff" stroke="#63b8ff" points="2702.08,-152.4 2692.2,-156.23 2702.31,-159.4 2702.08,-152.4"/>
</a>
</g>
</g>
<!-- Node29 -->
<g id="Node000029" class="node">
<title>Node29</title>
<g id="a_Node000029"><a xlink:href="_neon_floor_div_workload_8cpp.html" target="_top" xlink:title=" ">
<polygon fill="white" stroke="#666666" points="3750.5,-102.62 3604.75,-102.62 3604.75,-72.12 3750.5,-72.12 3750.5,-102.62"/>
<text xml:space="preserve" text-anchor="start" x="3612.75" y="-89.12" font-family="Helvetica,sans-Serif" font-size="10.00">src/backends/neon/workloads</text>
<text xml:space="preserve" text-anchor="middle" x="3677.62" y="-77.88" font-family="Helvetica,sans-Serif" font-size="10.00">/NeonFloorDivWorkload.cpp</text>
</a>
</g>
</g>
<!-- Node1&#45;&gt;Node29 -->
<g id="edge28_Node000001_Node000029" class="edge">
<title>Node1&#45;&gt;Node29</title>
<g id="a_edge28_Node000001_Node000029"><a xlink:title=" ">
<path fill="none" stroke="#63b8ff" d="M2701.82,-156.03C2911.85,-149.98 3424.77,-133.09 3595.62,-108.25 3604.61,-106.94 3614.06,-105.1 3623.21,-103.07"/>
<polygon fill="#63b8ff" stroke="#63b8ff" points="2701.94,-152.52 2692.05,-156.31 2702.15,-159.52 2701.94,-152.52"/>
</a>
</g>
</g>
<!-- Node30 -->
<g id="Node000030" class="node">
<title>Node30</title>
<g id="a_Node000030"><a xlink:href="_neon_gather_nd_workload_8cpp.html" target="_top" xlink:title=" ">
<polygon fill="white" stroke="#666666" points="3914.5,-102.62 3768.75,-102.62 3768.75,-72.12 3914.5,-72.12 3914.5,-102.62"/>
<text xml:space="preserve" text-anchor="start" x="3776.75" y="-89.12" font-family="Helvetica,sans-Serif" font-size="10.00">src/backends/neon/workloads</text>
<text xml:space="preserve" text-anchor="middle" x="3841.62" y="-77.88" font-family="Helvetica,sans-Serif" font-size="10.00">/NeonGatherNdWorkload.cpp</text>
</a>
</g>
</g>
<!-- Node1&#45;&gt;Node30 -->
<g id="edge29_Node000001_Node000030" class="edge">
<title>Node1&#45;&gt;Node30</title>
<g id="a_edge29_Node000001_Node000030"><a xlink:title=" ">
<path fill="none" stroke="#63b8ff" d="M2701.69,-156.8C2936.07,-152.06 3556,-137.1 3759.62,-108.25 3768.62,-106.98 3778.06,-105.15 3787.22,-103.12"/>
<polygon fill="#63b8ff" stroke="#63b8ff" points="2701.93,-153.29 2692,-156.99 2702.07,-160.29 2701.93,-153.29"/>
</a>
</g>
</g>
<!-- Node31 -->
<g id="Node000031" class="node">
<title>Node31</title>
<g id="a_Node000031"><a xlink:href="_neon_reverse_v2_workload_8cpp.html" target="_top" xlink:title=" ">
<polygon fill="white" stroke="#666666" points="4082.75,-102.62 3932.5,-102.62 3932.5,-72.12 4082.75,-72.12 4082.75,-102.62"/>
<text xml:space="preserve" text-anchor="start" x="3940.5" y="-89.12" font-family="Helvetica,sans-Serif" font-size="10.00">src/backends/neon/workloads</text>
<text xml:space="preserve" text-anchor="middle" x="4007.62" y="-77.88" font-family="Helvetica,sans-Serif" font-size="10.00">/NeonReverseV2Workload.cpp</text>
</a>
</g>
</g>
<!-- Node1&#45;&gt;Node31 -->
<g id="edge30_Node000001_Node000031" class="edge">
<title>Node1&#45;&gt;Node31</title>
<g id="a_edge30_Node000001_Node000031"><a xlink:title=" ">
<path fill="none" stroke="#63b8ff" d="M2701.83,-157.31C2959.06,-153.6 3686.98,-140.46 3923.62,-108.25 3932.98,-106.98 3942.82,-105.13 3952.33,-103.06"/>
<polygon fill="#63b8ff" stroke="#63b8ff" points="2702.13,-153.81 2692.18,-157.45 2702.23,-160.81 2702.13,-153.81"/>
</a>
</g>
</g>
<!-- Node32 -->
<g id="Node000032" class="node">
<title>Node32</title>
<g id="a_Node000032"><a xlink:href="_neon_splitter_workload_8cpp.html" target="_top" xlink:title=" ">
<polygon fill="white" stroke="#666666" points="4246.5,-102.62 4100.75,-102.62 4100.75,-72.12 4246.5,-72.12 4246.5,-102.62"/>
<text xml:space="preserve" text-anchor="start" x="4108.75" y="-89.12" font-family="Helvetica,sans-Serif" font-size="10.00">src/backends/neon/workloads</text>
<text xml:space="preserve" text-anchor="middle" x="4173.62" y="-77.88" font-family="Helvetica,sans-Serif" font-size="10.00">/NeonSplitterWorkload.cpp</text>
</a>
</g>
</g>
<!-- Node1&#45;&gt;Node32 -->
<g id="edge31_Node000001_Node000032" class="edge">
<title>Node1&#45;&gt;Node32</title>
<g id="a_edge31_Node000001_Node000032"><a xlink:title=" ">
<path fill="none" stroke="#63b8ff" d="M2701.68,-157.84C2980.66,-155.44 3821.04,-145.24 4091.62,-108.25 4100.77,-107 4110.38,-105.16 4119.67,-103.1"/>
<polygon fill="#63b8ff" stroke="#63b8ff" points="2701.89,-154.34 2691.92,-157.92 2701.95,-161.34 2701.89,-154.34"/>
</a>
</g>
</g>
<!-- Node33 -->
<g id="Node000033" class="node">
<title>Node33</title>
<g id="a_Node000033"><a xlink:href="_neon_strided_slice_workload_8cpp.html" target="_top" xlink:title=" ">
<polygon fill="white" stroke="#666666" points="4418.62,-102.62 4264.62,-102.62 4264.62,-72.12 4418.62,-72.12 4418.62,-102.62"/>
<text xml:space="preserve" text-anchor="start" x="4272.62" y="-89.12" font-family="Helvetica,sans-Serif" font-size="10.00">src/backends/neon/workloads</text>
<text xml:space="preserve" text-anchor="middle" x="4341.62" y="-77.88" font-family="Helvetica,sans-Serif" font-size="10.00">/NeonStridedSliceWorkload.cpp</text>
</a>
</g>
</g>
<!-- Node1&#45;&gt;Node33 -->
<g id="edge32_Node000001_Node000033" class="edge">
<title>Node1&#45;&gt;Node33</title>
<g id="a_edge32_Node000001_Node000033"><a xlink:title=" ">
<path fill="none" stroke="#63b8ff" d="M2701.86,-158.07C3001.18,-156.3 3951.56,-147.64 4255.62,-108.25 4265.2,-107.01 4275.27,-105.18 4285.01,-103.12"/>
<polygon fill="#63b8ff" stroke="#63b8ff" points="2702.13,-154.57 2692.15,-158.13 2702.17,-161.57 2702.13,-154.57"/>
</a>
</g>
</g>
<!-- Node34 -->
<g id="Node000034" class="node">
<title>Node34</title>
<g id="a_Node000034"><a xlink:href="_neon_unidirectional_sequence_lstm_float_workload_8cpp.html" target="_top" xlink:title=" ">
<polygon fill="white" stroke="#666666" points="4603,-108.25 4436.25,-108.25 4436.25,-66.5 4603,-66.5 4603,-108.25"/>
<text xml:space="preserve" text-anchor="start" x="4444.25" y="-94.75" font-family="Helvetica,sans-Serif" font-size="10.00">src/backends/neon/workloads</text>
<text xml:space="preserve" text-anchor="start" x="4444.25" y="-83.5" font-family="Helvetica,sans-Serif" font-size="10.00">/NeonUnidirectionalSequenceLstm</text>
<text xml:space="preserve" text-anchor="middle" x="4519.62" y="-72.25" font-family="Helvetica,sans-Serif" font-size="10.00">FloatWorkload.cpp</text>
</a>
</g>
</g>
<!-- Node1&#45;&gt;Node34 -->
<g id="edge33_Node000001_Node000034" class="edge">
<title>Node1&#45;&gt;Node34</title>
<g id="a_edge33_Node000001_Node000034"><a xlink:title=" ">
<path fill="none" stroke="#63b8ff" d="M2701.75,-158.21C3021.04,-156.85 4088.1,-149.26 4427.62,-108.25 4430.38,-107.92 4433.18,-107.54 4436,-107.13"/>
<polygon fill="#63b8ff" stroke="#63b8ff" points="2702.21,-154.71 2692.23,-158.25 2702.24,-161.71 2702.21,-154.71"/>
</a>
</g>
</g>
<!-- Node35 -->
<g id="Node000035" class="node">
<title>Node35</title>
<g id="a_Node000035"><a xlink:href="_neon_unidirectional_sequence_lstm_workload_8cpp.html" target="_top" xlink:title=" ">
<polygon fill="white" stroke="#666666" points="4788,-108.25 4621.25,-108.25 4621.25,-66.5 4788,-66.5 4788,-108.25"/>
<text xml:space="preserve" text-anchor="start" x="4629.25" y="-94.75" font-family="Helvetica,sans-Serif" font-size="10.00">src/backends/neon/workloads</text>
<text xml:space="preserve" text-anchor="start" x="4629.25" y="-83.5" font-family="Helvetica,sans-Serif" font-size="10.00">/NeonUnidirectionalSequenceLstm</text>
<text xml:space="preserve" text-anchor="middle" x="4704.62" y="-72.25" font-family="Helvetica,sans-Serif" font-size="10.00">Workload.cpp</text>
</a>
</g>
</g>
<!-- Node1&#45;&gt;Node35 -->
<g id="edge34_Node000001_Node000035" class="edge">
<title>Node1&#45;&gt;Node35</title>
<g id="a_edge34_Node000001_Node000035"><a xlink:title=" ">
<path fill="none" stroke="#63b8ff" d="M2702.18,-158.45C3042.51,-157.94 4234.46,-152.9 4611.62,-108.25 4614.66,-107.89 4617.74,-107.48 4620.84,-107.03"/>
<polygon fill="#63b8ff" stroke="#63b8ff" points="2702.18,-154.95 2692.19,-158.47 2702.19,-161.95 2702.18,-154.95"/>
</a>
</g>
</g>
<!-- Node36 -->
<g id="Node000036" class="node">
<title>Node36</title>
<g id="a_Node000036"><a xlink:href="_ref_gather_nd_workload_8cpp.html" target="_top" xlink:title=" ">
<polygon fill="white" stroke="#666666" points="4989.25,-102.62 4806,-102.62 4806,-72.12 4989.25,-72.12 4989.25,-102.62"/>
<text xml:space="preserve" text-anchor="start" x="4814" y="-89.12" font-family="Helvetica,sans-Serif" font-size="10.00">src/backends/reference</text>
<text xml:space="preserve" text-anchor="middle" x="4897.62" y="-77.88" font-family="Helvetica,sans-Serif" font-size="10.00">/workloads/RefGatherNdWorkload.cpp</text>
</a>
</g>
</g>
<!-- Node1&#45;&gt;Node36 -->
<g id="edge35_Node000001_Node000036" class="edge">
<title>Node1&#45;&gt;Node36</title>
<g id="a_edge35_Node000001_Node000036"><a xlink:title=" ">
<path fill="none" stroke="#63b8ff" d="M2702.07,-158.49C3061.92,-158.11 4380.95,-153.59 4796.62,-108.25 4807.91,-107.02 4819.81,-105.18 4831.32,-103.1"/>
<polygon fill="#63b8ff" stroke="#63b8ff" points="2702.2,-154.99 2692.21,-158.5 2702.21,-161.99 2702.2,-154.99"/>
</a>
</g>
</g>
<!-- Node37 -->
<g id="Node000037" class="node">
<title>Node37</title>
<g id="a_Node000037"><a xlink:href="_split_operator_8cpp.html" target="_top" xlink:title=" ">
<polygon fill="white" stroke="#666666" points="5181.75,-102.62 5007.5,-102.62 5007.5,-72.12 5181.75,-72.12 5181.75,-102.62"/>
<text xml:space="preserve" text-anchor="start" x="5015.5" y="-89.12" font-family="Helvetica,sans-Serif" font-size="10.00">src/backends/tosaCommon</text>
<text xml:space="preserve" text-anchor="middle" x="5094.62" y="-77.88" font-family="Helvetica,sans-Serif" font-size="10.00">/operatorMappings/SplitOperator.cpp</text>
</a>
</g>
</g>
<!-- Node1&#45;&gt;Node37 -->
<g id="edge36_Node000001_Node000037" class="edge">
<title>Node1&#45;&gt;Node37</title>
<g id="a_edge36_Node000001_Node000037"><a xlink:title=" ">
<path fill="none" stroke="#63b8ff" d="M2702.17,-158.81C3082.79,-159.78 4541.48,-159.94 4998.62,-108.25 5009.45,-107.03 5020.86,-105.17 5031.89,-103.08"/>
<polygon fill="#63b8ff" stroke="#63b8ff" points="2702.21,-155.31 2692.21,-158.79 2702.2,-162.31 2702.21,-155.31"/>
</a>
</g>
</g>
<!-- Node5 -->
<g id="Node000005" class="node">
<title>Node5</title>
<g id="a_Node000005"><a xlink:href="_mem_import_layer_8cpp.html" target="_top" xlink:title=" ">
<polygon fill="white" stroke="#666666" points="141.25,-30.5 0,-30.5 0,0 141.25,0 141.25,-30.5"/>
<text xml:space="preserve" text-anchor="start" x="8" y="-17" font-family="Helvetica,sans-Serif" font-size="10.00">src/armnn/layers/MemImport</text>
<text xml:space="preserve" text-anchor="middle" x="70.62" y="-5.75" font-family="Helvetica,sans-Serif" font-size="10.00">Layer.cpp</text>
</a>
</g>
</g>
<!-- Node4&#45;&gt;Node5 -->
<g id="edge4_Node000004_Node000005" class="edge">
<title>Node4&#45;&gt;Node5</title>
<g id="a_edge4_Node000004_Node000005"><a xlink:title=" ">
<path fill="none" stroke="#63b8ff" d="M585.68,-69.48C579.93,-68.38 574.19,-67.36 568.62,-66.5 383.93,-37.85 334.91,-55.12 149.62,-30.5 147,-30.15 144.33,-29.78 141.63,-29.38"/>
<polygon fill="#63b8ff" stroke="#63b8ff" points="584.74,-72.86 595.23,-71.4 586.12,-66 584.74,-72.86"/>
</a>
</g>
</g>
<!-- Node6 -->
<g id="Node000006" class="node">
<title>Node6</title>
<g id="a_Node000006"><a xlink:href="_mem_import_workload_8cpp.html" target="_top" xlink:title=" ">
<polygon fill="white" stroke="#666666" points="318.25,-30.5 159,-30.5 159,0 318.25,0 318.25,-30.5"/>
<text xml:space="preserve" text-anchor="start" x="167" y="-17" font-family="Helvetica,sans-Serif" font-size="10.00">src/backends/backendsCommon</text>
<text xml:space="preserve" text-anchor="middle" x="238.62" y="-5.75" font-family="Helvetica,sans-Serif" font-size="10.00">/MemImportWorkload.cpp</text>
</a>
</g>
</g>
<!-- Node4&#45;&gt;Node6 -->
<g id="edge5_Node000004_Node000006" class="edge">
<title>Node4&#45;&gt;Node6</title>
<g id="a_edge5_Node000004_Node000006"><a xlink:title=" ">
<path fill="none" stroke="#63b8ff" d="M583.35,-69.4C578.37,-68.38 573.43,-67.4 568.62,-66.5 462.18,-46.56 434.65,-47.06 327.62,-30.5 324.69,-30.05 321.69,-29.58 318.67,-29.11"/>
<polygon fill="#63b8ff" stroke="#63b8ff" points="582.26,-72.74 592.77,-71.38 583.7,-65.89 582.26,-72.74"/>
</a>
</g>
</g>
<!-- Node7 -->
<g id="Node000007" class="node">
<title>Node7</title>
<g id="a_Node000007"><a xlink:href="_cl_workload_factory_8cpp.html" target="_top" xlink:title=" ">
<polygon fill="white" stroke="#666666" points="474.75,-30.5 336.5,-30.5 336.5,0 474.75,0 474.75,-30.5"/>
<text xml:space="preserve" text-anchor="start" x="344.5" y="-17" font-family="Helvetica,sans-Serif" font-size="10.00">src/backends/cl/ClWorkload</text>
<text xml:space="preserve" text-anchor="middle" x="405.62" y="-5.75" font-family="Helvetica,sans-Serif" font-size="10.00">Factory.cpp</text>
</a>
</g>
</g>
<!-- Node4&#45;&gt;Node7 -->
<g id="edge6_Node000004_Node000007" class="edge">
<title>Node4&#45;&gt;Node7</title>
<g id="a_edge6_Node000004_Node000007"><a xlink:title=" ">
<path fill="none" stroke="#63b8ff" d="M593.13,-68.64C551.41,-56.98 497.48,-41.91 458.17,-30.93"/>
<polygon fill="#63b8ff" stroke="#63b8ff" points="591.98,-71.95 602.55,-71.27 593.86,-65.21 591.98,-71.95"/>
</a>
</g>
</g>
<!-- Node8 -->
<g id="Node000008" class="node">
<title>Node8</title>
<g id="a_Node000008"><a xlink:href="_neon_workload_factory_8cpp.html" target="_top" xlink:title=" ">
<polygon fill="white" stroke="#666666" points="658.25,-30.5 493,-30.5 493,0 658.25,0 658.25,-30.5"/>
<text xml:space="preserve" text-anchor="start" x="501" y="-17" font-family="Helvetica,sans-Serif" font-size="10.00">src/backends/neon/NeonWorkload</text>
<text xml:space="preserve" text-anchor="middle" x="575.62" y="-5.75" font-family="Helvetica,sans-Serif" font-size="10.00">Factory.cpp</text>
</a>
</g>
</g>
<!-- Node4&#45;&gt;Node8 -->
<g id="edge7_Node000004_Node000008" class="edge">
<title>Node4&#45;&gt;Node8</title>
<g id="a_edge7_Node000004_Node000008"><a xlink:title=" ">
<path fill="none" stroke="#63b8ff" d="M631.49,-64.62C618.77,-53.6 603.68,-40.54 592.39,-30.76"/>
<polygon fill="#63b8ff" stroke="#63b8ff" points="628.85,-66.96 638.7,-70.85 633.43,-61.66 628.85,-66.96"/>
</a>
</g>
</g>
<!-- Node9 -->
<g id="Node000009" class="node">
<title>Node9</title>
<g id="a_Node000009"><a xlink:href="_ref_workload_factory_8cpp.html" target="_top" xlink:title=" ">
<polygon fill="white" stroke="#666666" points="801.38,-30.5 675.88,-30.5 675.88,0 801.38,0 801.38,-30.5"/>
<text xml:space="preserve" text-anchor="start" x="683.88" y="-17" font-family="Helvetica,sans-Serif" font-size="10.00">src/backends/reference</text>
<text xml:space="preserve" text-anchor="middle" x="738.62" y="-5.75" font-family="Helvetica,sans-Serif" font-size="10.00">/RefWorkloadFactory.cpp</text>
</a>
</g>
</g>
<!-- Node4&#45;&gt;Node9 -->
<g id="edge8_Node000004_Node000009" class="edge">
<title>Node4&#45;&gt;Node9</title>
<g id="a_edge8_Node000004_Node000009"><a xlink:title=" ">
<path fill="none" stroke="#63b8ff" d="M682.07,-64.62C694.95,-53.6 710.23,-40.54 721.66,-30.76"/>
<polygon fill="#63b8ff" stroke="#63b8ff" points="680.09,-61.7 674.77,-70.86 684.64,-67.02 680.09,-61.7"/>
</a>
</g>
</g>
<!-- Node10 -->
<g id="Node000010" class="node">
<title>Node10</title>
<g id="a_Node000010"><a xlink:href="_tosa_ref_workload_factory_8cpp.html" target="_top" xlink:title=" ">
<polygon fill="white" stroke="#666666" points="965.88,-30.5 819.38,-30.5 819.38,0 965.88,0 965.88,-30.5"/>
<text xml:space="preserve" text-anchor="start" x="827.38" y="-17" font-family="Helvetica,sans-Serif" font-size="10.00">src/backends/tosaReference</text>
<text xml:space="preserve" text-anchor="middle" x="892.62" y="-5.75" font-family="Helvetica,sans-Serif" font-size="10.00">/TosaRefWorkloadFactory.cpp</text>
</a>
</g>
</g>
<!-- Node4&#45;&gt;Node10 -->
<g id="edge9_Node000004_Node000010" class="edge">
<title>Node4&#45;&gt;Node10</title>
<g id="a_edge9_Node000004_Node000010"><a xlink:title=" ">
<path fill="none" stroke="#63b8ff" d="M717.07,-68.41C756.2,-56.79 806.49,-41.84 843.22,-30.93"/>
<polygon fill="#63b8ff" stroke="#63b8ff" points="716.14,-65.04 707.55,-71.24 718.13,-71.75 716.14,-65.04"/>
</a>
</g>
</g>
<!-- Node12 -->
<g id="Node000012" class="node">
<title>Node12</title>
<g id="a_Node000012"><a xlink:href="_loaded_network_8cpp.html" target="_top" xlink:title=" ">
<polygon fill="white" stroke="#666666" points="1133.38,-24.88 983.88,-24.88 983.88,-5.63 1133.38,-5.63 1133.38,-24.88"/>
<text xml:space="preserve" text-anchor="middle" x="1058.62" y="-11.38" font-family="Helvetica,sans-Serif" font-size="10.00">src/armnn/LoadedNetwork.cpp</text>
</a>
</g>
</g>
<!-- Node11&#45;&gt;Node12 -->
<g id="edge11_Node000011_Node000012" class="edge">
<title>Node11&#45;&gt;Node12</title>
<g id="a_edge11_Node000011_Node000012"><a xlink:title=" ">
<path fill="none" stroke="#63b8ff" d="M891.67,-68.29C935.78,-54.54 994.62,-36.2 1029.38,-25.36"/>
<polygon fill="#63b8ff" stroke="#63b8ff" points="890.74,-64.91 882.24,-71.22 892.83,-71.59 890.74,-64.91"/>
</a>
</g>
</g>
<!-- Node13 -->
<g id="Node000013" class="node">
<title>Node13</title>
<g id="a_Node000013"><a xlink:href="_mem_sync_workload_8cpp.html" target="_top" xlink:title=" ">
<polygon fill="white" stroke="#666666" points="1310.25,-30.5 1151,-30.5 1151,0 1310.25,0 1310.25,-30.5"/>
<text xml:space="preserve" text-anchor="start" x="1159" y="-17" font-family="Helvetica,sans-Serif" font-size="10.00">src/backends/backendsCommon</text>
<text xml:space="preserve" text-anchor="middle" x="1230.62" y="-5.75" font-family="Helvetica,sans-Serif" font-size="10.00">/MemSyncWorkload.cpp</text>
</a>
</g>
</g>
<!-- Node11&#45;&gt;Node13 -->
<g id="edge12_Node000011_Node000013" class="edge">
<title>Node11&#45;&gt;Node13</title>
<g id="a_edge12_Node000011_Node000013"><a xlink:title=" ">
<path fill="none" stroke="#63b8ff" d="M907.59,-69.33C912.33,-68.34 917.04,-67.39 921.62,-66.5 924.46,-65.95 1060.19,-43.91 1150.8,-29.2"/>
<polygon fill="#63b8ff" stroke="#63b8ff" points="907.03,-65.87 897.98,-71.37 908.49,-72.72 907.03,-65.87"/>
</a>
</g>
</g>
</g>
</svg>
