<?xml version="1.0" encoding="UTF-8" standalone="no"?>
<!DOCTYPE svg PUBLIC "-//W3C//DTD SVG 1.1//EN"
 "http://www.w3.org/Graphics/SVG/1.1/DTD/svg11.dtd">
<!-- Generated by graphviz version 14.0.2 (20251019.1705)
 -->
<!-- Title: Float16Encoder Pages: 1 -->
<svg width="298pt" height="296pt"
 viewBox="0.00 0.00 298.00 296.00" xmlns="http://www.w3.org/2000/svg" xmlns:xlink="http://www.w3.org/1999/xlink">
<g id="graph0" class="graph" transform="scale(1 1) rotate(0) translate(4 292)">
<title>Float16Encoder</title>
<!-- Node1 -->
<g id="Node000001" class="node">
<title>Node1</title>
<g id="a_Node000001"><a xlink:title=" ">
<polygon fill="#999999" stroke="#666666" points="170.75,-19.25 86.5,-19.25 86.5,0 170.75,0 170.75,-19.25"/>
<text xml:space="preserve" text-anchor="middle" x="128.62" y="-5.75" font-family="Helvetica,sans-Serif" font-size="10.00">Float16Encoder</text>
</a>
</g>
</g>
<!-- Node2 -->
<g id="Node000002" class="node">
<title>Node2</title>
<g id="a_Node000002"><a xlink:href="classarmnn_1_1_typed_iterator.html" target="_top" xlink:title=" ">
<polygon fill="white" stroke="#666666" points="180.12,-86.75 77.12,-86.75 77.12,-56.25 180.12,-56.25 180.12,-86.75"/>
<text xml:space="preserve" text-anchor="start" x="85.12" y="-73.25" font-family="Helvetica,sans-Serif" font-size="10.00">TypedIterator&lt; Half,</text>
<text xml:space="preserve" text-anchor="middle" x="128.62" y="-62" font-family="Helvetica,sans-Serif" font-size="10.00"> Encoder&lt; float &gt; &gt;</text>
</a>
</g>
</g>
<!-- Node2&#45;&gt;Node1 -->
<g id="edge1_Node000001_Node000002" class="edge">
<title>Node2&#45;&gt;Node1</title>
<g id="a_edge1_Node000001_Node000002"><a xlink:title=" ">
<path fill="none" stroke="#63b8ff" d="M128.62,-44.77C128.62,-35.79 128.62,-26.29 128.62,-19.6"/>
<polygon fill="#63b8ff" stroke="#63b8ff" points="125.13,-44.49 128.63,-54.49 132.13,-44.49 125.13,-44.49"/>
</a>
</g>
</g>
<!-- Node3 -->
<g id="Node000003" class="node">
<title>Node3</title>
<g id="a_Node000003"><a xlink:href="classarmnn_1_1_encoder.html" target="_top" xlink:title=" ">
<polygon fill="white" stroke="#666666" points="112,-159.25 23.25,-159.25 23.25,-140 112,-140 112,-159.25"/>
<text xml:space="preserve" text-anchor="middle" x="67.62" y="-145.75" font-family="Helvetica,sans-Serif" font-size="10.00">Encoder&lt; float &gt;</text>
</a>
</g>
</g>
<!-- Node3&#45;&gt;Node2 -->
<g id="edge2_Node000002_Node000003" class="edge">
<title>Node3&#45;&gt;Node2</title>
<g id="a_edge2_Node000002_Node000003"><a xlink:title=" ">
<path fill="none" stroke="#63b8ff" d="M81.87,-130.85C92.56,-117.51 107.03,-99.45 117.02,-86.98"/>
<polygon fill="#63b8ff" stroke="#63b8ff" points="79.33,-128.42 75.81,-138.41 84.79,-132.8 79.33,-128.42"/>
</a>
</g>
</g>
<!-- Node4 -->
<g id="Node000004" class="node">
<title>Node4</title>
<g id="a_Node000004"><a xlink:href="classarmnn_1_1_base_iterator.html" target="_top" xlink:title=" ">
<polygon fill="white" stroke="#666666" points="69.25,-288 0,-288 0,-268.75 69.25,-268.75 69.25,-288"/>
<text xml:space="preserve" text-anchor="middle" x="34.62" y="-274.5" font-family="Helvetica,sans-Serif" font-size="10.00">BaseIterator</text>
</a>
</g>
</g>
<!-- Node4&#45;&gt;Node3 -->
<g id="edge3_Node000003_Node000004" class="edge">
<title>Node4&#45;&gt;Node3</title>
<g id="a_edge3_Node000003_Node000004"><a xlink:title=" ">
<path fill="none" stroke="#63b8ff" d="M35.3,-257.09C36.1,-244.16 37.84,-227.14 41.62,-212.5 46.69,-192.87 56.88,-171.34 62.89,-159.56"/>
<polygon fill="#63b8ff" stroke="#63b8ff" points="31.81,-256.75 34.85,-266.9 38.81,-257.08 31.81,-256.75"/>
</a>
</g>
</g>
<!-- Node5 -->
<g id="Node000005" class="node">
<title>Node5</title>
<g id="a_Node000005"><a xlink:href="classarmnn_1_1_encoder.html" target="_top" xlink:title=" ">
<polygon fill="white" stroke="#666666" points="144.62,-231.75 50.62,-231.75 50.62,-212.5 144.62,-212.5 144.62,-231.75"/>
<text xml:space="preserve" text-anchor="middle" x="97.62" y="-218.25" font-family="Helvetica,sans-Serif" font-size="10.00">Encoder&lt; IType &gt;</text>
</a>
</g>
</g>
<!-- Node4&#45;&gt;Node5 -->
<g id="edge5_Node000005_Node000004" class="edge">
<title>Node4&#45;&gt;Node5</title>
<g id="a_edge5_Node000005_Node000004"><a xlink:title=" ">
<path fill="none" stroke="#63b8ff" d="M53.62,-261.02C64.73,-251.46 78.3,-239.76 87.42,-231.92"/>
<polygon fill="#63b8ff" stroke="#63b8ff" points="51.47,-258.25 46.18,-267.43 56.04,-263.56 51.47,-258.25"/>
</a>
</g>
</g>
<!-- Node5&#45;&gt;Node3 -->
<g id="edge4_Node000003_Node000005" class="edge">
<title>Node5&#45;&gt;Node3</title>
<g id="a_edge4_Node000003_Node000005"><a xlink:title=" ">
<path fill="none" stroke="orange" stroke-dasharray="5,2" d="M89.44,-201.88C83.59,-188.15 76,-170.31 71.49,-159.7"/>
<polygon fill="orange" stroke="orange" points="86.1,-202.97 93.23,-210.8 92.54,-200.23 86.1,-202.97"/>
</a>
</g>
<text xml:space="preserve" text-anchor="start" x="89.19" y="-182" font-family="Helvetica,sans-Serif" font-size="10.00" fill="grey">&lt; float &gt;</text>
</g>
<!-- Node6 -->
<g id="Node000006" class="node">
<title>Node6</title>
<g id="a_Node000006"><a xlink:href="classarmnn_1_1_typed_iterator.html" target="_top" xlink:title=" ">
<polygon fill="white" stroke="#666666" points="253.62,-159.25 129.62,-159.25 129.62,-140 253.62,-140 253.62,-159.25"/>
<text xml:space="preserve" text-anchor="middle" x="191.62" y="-145.75" font-family="Helvetica,sans-Serif" font-size="10.00">TypedIterator&lt; T, Base &gt;</text>
</a>
</g>
</g>
<!-- Node6&#45;&gt;Node2 -->
<g id="edge6_Node000002_Node000006" class="edge">
<title>Node6&#45;&gt;Node2</title>
<g id="a_edge6_Node000002_Node000006"><a xlink:title=" ">
<path fill="none" stroke="orange" stroke-dasharray="5,2" d="M176.92,-130.85C165.87,-117.51 150.93,-99.45 140.61,-86.98"/>
<polygon fill="orange" stroke="orange" points="174.11,-132.96 183.19,-138.43 179.51,-128.49 174.11,-132.96"/>
</a>
</g>
<text xml:space="preserve" text-anchor="start" x="172.45" y="-109.5" font-family="Helvetica,sans-Serif" font-size="10.00" fill="grey">&lt; Half, Encoder&lt; float &gt; &gt;</text>
</g>
<!-- Node7 -->
<g id="Node000007" class="node">
<title>Node7</title>
<g id="a_Node000007"><a xlink:title=" ">
<polygon fill="white" stroke="#666666" points="210.88,-231.75 172.38,-231.75 172.38,-212.5 210.88,-212.5 210.88,-231.75"/>
<text xml:space="preserve" text-anchor="middle" x="191.62" y="-218.25" font-family="Helvetica,sans-Serif" font-size="10.00">Base</text>
</a>
</g>
</g>
<!-- Node7&#45;&gt;Node6 -->
<g id="edge7_Node000006_Node000007" class="edge">
<title>Node7&#45;&gt;Node6</title>
<g id="a_edge7_Node000006_Node000007"><a xlink:title=" ">
<path fill="none" stroke="#63b8ff" d="M191.62,-201.05C191.62,-187.44 191.62,-170.1 191.62,-159.7"/>
<polygon fill="#63b8ff" stroke="#63b8ff" points="188.13,-200.68 191.63,-210.68 195.13,-200.68 188.13,-200.68"/>
</a>
</g>
</g>
</g>
</svg>
