<?xml version="1.0" encoding="UTF-8" standalone="no"?>
<!DOCTYPE svg PUBLIC "-//W3C//DTD SVG 1.1//EN"
 "http://www.w3.org/Graphics/SVG/1.1/DTD/svg11.dtd">
<!-- Generated by graphviz version 14.0.2 (20251019.1705)
 -->
<!-- Title: TosaRefPreCompiledWorkload Pages: 1 -->
<svg width="508pt" height="375pt"
 viewBox="0.00 0.00 508.00 375.00" xmlns="http://www.w3.org/2000/svg" xmlns:xlink="http://www.w3.org/1999/xlink">
<g id="graph0" class="graph" transform="scale(1 1) rotate(0) translate(4 370.75)">
<title>TosaRefPreCompiledWorkload</title>
<!-- Node1 -->
<g id="Node000001" class="node">
<title>Node1</title>
<g id="a_Node000001"><a xlink:title=" ">
<polygon fill="#999999" stroke="#666666" points="187.5,-19.25 38,-19.25 38,0 187.5,0 187.5,-19.25"/>
<text xml:space="preserve" text-anchor="middle" x="112.75" y="-5.75" font-family="Helvetica,sans-Serif" font-size="10.00">TosaRefPreCompiledWorkload</text>
</a>
</g>
</g>
<!-- Node2 -->
<g id="Node000002" class="node">
<title>Node2</title>
<g id="a_Node000002"><a xlink:href="classarmnn_1_1_base_workload.html" target="_top" xlink:title=" ">
<polygon fill="white" stroke="#666666" points="184.88,-86.75 40.62,-86.75 40.62,-56.25 184.88,-56.25 184.88,-86.75"/>
<text xml:space="preserve" text-anchor="start" x="48.62" y="-73.25" font-family="Helvetica,sans-Serif" font-size="10.00">BaseWorkload&lt; PreCompiled</text>
<text xml:space="preserve" text-anchor="middle" x="112.75" y="-62" font-family="Helvetica,sans-Serif" font-size="10.00">QueueDescriptor &gt;</text>
</a>
</g>
</g>
<!-- Node2&#45;&gt;Node1 -->
<g id="edge1_Node000001_Node000002" class="edge">
<title>Node2&#45;&gt;Node1</title>
<g id="a_edge1_Node000001_Node000002"><a xlink:title=" ">
<path fill="none" stroke="#63b8ff" d="M112.75,-44.77C112.75,-35.79 112.75,-26.29 112.75,-19.6"/>
<polygon fill="#63b8ff" stroke="#63b8ff" points="109.25,-44.49 112.75,-54.49 116.25,-44.49 109.25,-44.49"/>
</a>
</g>
</g>
<!-- Node3 -->
<g id="Node000003" class="node">
<title>Node3</title>
<g id="a_Node000003"><a xlink:href="classarmnn_1_1_i_workload.html" target="_top" xlink:title="Workload interface to enqueue a layer computation.">
<polygon fill="white" stroke="#666666" points="59.5,-221.12 0,-221.12 0,-201.88 59.5,-201.88 59.5,-221.12"/>
<text xml:space="preserve" text-anchor="middle" x="29.75" y="-207.62" font-family="Helvetica,sans-Serif" font-size="10.00">IWorkload</text>
</a>
</g>
</g>
<!-- Node3&#45;&gt;Node2 -->
<g id="edge2_Node000002_Node000003" class="edge">
<title>Node3&#45;&gt;Node2</title>
<g id="a_edge2_Node000002_Node000003"><a xlink:title=" ">
<path fill="none" stroke="#63b8ff" d="M21.17,-191.3C15.91,-176.52 11.6,-155.99 19.75,-140 32.07,-115.83 57.55,-98.29 78.73,-87.16"/>
<polygon fill="#63b8ff" stroke="#63b8ff" points="17.82,-192.35 24.8,-200.31 24.31,-189.73 17.82,-192.35"/>
</a>
</g>
</g>
<!-- Node10 -->
<g id="Node000010" class="node">
<title>Node10</title>
<g id="a_Node000010"><a xlink:href="classarmnn_1_1_base_workload.html" target="_top" xlink:title=" ">
<polygon fill="white" stroke="#666666" points="199,-159.25 28.5,-159.25 28.5,-140 199,-140 199,-159.25"/>
<text xml:space="preserve" text-anchor="middle" x="113.75" y="-145.75" font-family="Helvetica,sans-Serif" font-size="10.00">BaseWorkload&lt; QueueDescriptor &gt;</text>
</a>
</g>
</g>
<!-- Node3&#45;&gt;Node10 -->
<g id="edge11_Node000010_Node000003" class="edge">
<title>Node3&#45;&gt;Node10</title>
<g id="a_edge11_Node000010_Node000003"><a xlink:title=" ">
<path fill="none" stroke="#63b8ff" d="M51.56,-194.95C67.32,-183.72 88.06,-168.94 101.15,-159.61"/>
<polygon fill="#63b8ff" stroke="#63b8ff" points="49.85,-191.87 43.74,-200.53 53.91,-197.57 49.85,-191.87"/>
</a>
</g>
</g>
<!-- Node4 -->
<g id="Node000004" class="node">
<title>Node4</title>
<g id="a_Node000004"><a xlink:href="structarmnn_1_1_pre_compiled_queue_descriptor.html" target="_top" xlink:title=" ">
<polygon fill="white" stroke="#666666" points="362.62,-159.25 216.88,-159.25 216.88,-140 362.62,-140 362.62,-159.25"/>
<text xml:space="preserve" text-anchor="middle" x="289.75" y="-145.75" font-family="Helvetica,sans-Serif" font-size="10.00">PreCompiledQueueDescriptor</text>
</a>
</g>
</g>
<!-- Node4&#45;&gt;Node2 -->
<g id="edge3_Node000002_Node000004" class="edge">
<title>Node4&#45;&gt;Node2</title>
<g id="a_edge3_Node000002_Node000004"><a xlink:title=" ">
<path fill="none" stroke="#9a32cd" stroke-dasharray="5,2" d="M284.19,-128.91C280.79,-120.27 275.55,-110.75 267.75,-104.75 254.51,-94.57 218.93,-86.79 185.19,-81.42"/>
<polygon fill="#9a32cd" stroke="#9a32cd" points="280.83,-129.89 287.29,-138.29 287.48,-127.7 280.83,-129.89"/>
</a>
</g>
<text xml:space="preserve" text-anchor="start" x="283.74" y="-109.5" font-family="Helvetica,sans-Serif" font-size="10.00" fill="grey">m_Data</text>
</g>
<!-- Node5 -->
<g id="Node000005" class="node">
<title>Node5</title>
<g id="a_Node000005"><a xlink:href="structarmnn_1_1_queue_descriptor_with_parameters.html" target="_top" xlink:title=" ">
<polygon fill="white" stroke="#666666" points="368.75,-226.75 208.75,-226.75 208.75,-196.25 368.75,-196.25 368.75,-226.75"/>
<text xml:space="preserve" text-anchor="start" x="216.75" y="-213.25" font-family="Helvetica,sans-Serif" font-size="10.00">QueueDescriptorWithParameters</text>
<text xml:space="preserve" text-anchor="middle" x="288.75" y="-202" font-family="Helvetica,sans-Serif" font-size="10.00">&lt; PreCompiledDescriptor &gt;</text>
</a>
</g>
</g>
<!-- Node5&#45;&gt;Node4 -->
<g id="edge4_Node000004_Node000005" class="edge">
<title>Node5&#45;&gt;Node4</title>
<g id="a_edge4_Node000004_Node000005"><a xlink:title=" ">
<path fill="none" stroke="#63b8ff" d="M289.18,-184.77C289.33,-175.79 289.49,-166.29 289.6,-159.6"/>
<polygon fill="#63b8ff" stroke="#63b8ff" points="285.68,-184.44 289.02,-194.49 292.68,-184.55 285.68,-184.44"/>
</a>
</g>
</g>
<!-- Node6 -->
<g id="Node000006" class="node">
<title>Node6</title>
<g id="a_Node000006"><a xlink:href="structarmnn_1_1_queue_descriptor.html" target="_top" xlink:title=" ">
<polygon fill="white" stroke="#666666" points="221.5,-366.75 132,-366.75 132,-347.5 221.5,-347.5 221.5,-366.75"/>
<text xml:space="preserve" text-anchor="middle" x="176.75" y="-353.25" font-family="Helvetica,sans-Serif" font-size="10.00">QueueDescriptor</text>
</a>
</g>
</g>
<!-- Node6&#45;&gt;Node5 -->
<g id="edge5_Node000005_Node000006" class="edge">
<title>Node6&#45;&gt;Node5</title>
<g id="a_edge5_Node000005_Node000006"><a xlink:title=" ">
<path fill="none" stroke="#63b8ff" d="M178.01,-335.95C179.86,-319.65 184.44,-296.75 195.75,-280 211.49,-256.68 238.1,-238.58 258.84,-227.01"/>
<polygon fill="#63b8ff" stroke="#63b8ff" points="174.52,-335.59 177.16,-345.85 181.5,-336.19 174.52,-335.59"/>
</a>
</g>
</g>
<!-- Node9 -->
<g id="Node000009" class="node">
<title>Node9</title>
<g id="a_Node000009"><a xlink:href="structarmnn_1_1_queue_descriptor_with_parameters.html" target="_top" xlink:title=" ">
<polygon fill="white" stroke="#666666" points="364.75,-310.5 204.75,-310.5 204.75,-280 364.75,-280 364.75,-310.5"/>
<text xml:space="preserve" text-anchor="start" x="212.75" y="-297" font-family="Helvetica,sans-Serif" font-size="10.00">QueueDescriptorWithParameters</text>
<text xml:space="preserve" text-anchor="middle" x="284.75" y="-285.75" font-family="Helvetica,sans-Serif" font-size="10.00">&lt; LayerDescriptor &gt;</text>
</a>
</g>
</g>
<!-- Node6&#45;&gt;Node9 -->
<g id="edge9_Node000009_Node000006" class="edge">
<title>Node6&#45;&gt;Node9</title>
<g id="a_edge9_Node000009_Node000006"><a xlink:title=" ">
<path fill="none" stroke="#63b8ff" d="M202.92,-341.62C219.78,-332.27 241.63,-320.15 258.51,-310.8"/>
<polygon fill="#63b8ff" stroke="#63b8ff" points="201.53,-338.39 194.48,-346.3 204.92,-344.51 201.53,-338.39"/>
</a>
</g>
</g>
<!-- Node6&#45;&gt;Node10 -->
<g id="edge12_Node000010_Node000006" class="edge">
<title>Node6&#45;&gt;Node10</title>
<g id="a_edge12_Node000010_Node000006"><a xlink:title=" ">
<path fill="none" stroke="#9a32cd" stroke-dasharray="5,2" d="M170.64,-336.19C157.29,-292.66 125.97,-190.49 116.51,-159.62"/>
<polygon fill="#9a32cd" stroke="#9a32cd" points="167.24,-337.05 173.52,-345.58 173.93,-335 167.24,-337.05"/>
</a>
</g>
<text xml:space="preserve" text-anchor="start" x="150.79" y="-249.5" font-family="Helvetica,sans-Serif" font-size="10.00" fill="grey">m_Data</text>
</g>
<!-- Node7 -->
<g id="Node000007" class="node">
<title>Node7</title>
<g id="a_Node000007"><a xlink:href="structarmnn_1_1_pre_compiled_descriptor.html" target="_top" xlink:title="A PreCompiledDescriptor for the PreCompiledLayer.">
<polygon fill="white" stroke="#666666" points="500.38,-304.88 383.12,-304.88 383.12,-285.62 500.38,-285.62 500.38,-304.88"/>
<text xml:space="preserve" text-anchor="middle" x="441.75" y="-291.38" font-family="Helvetica,sans-Serif" font-size="10.00">PreCompiledDescriptor</text>
</a>
</g>
</g>
<!-- Node7&#45;&gt;Node5 -->
<g id="edge6_Node000005_Node000007" class="edge">
<title>Node7&#45;&gt;Node5</title>
<g id="a_edge6_Node000005_Node000007"><a xlink:title=" ">
<path fill="none" stroke="#9a32cd" stroke-dasharray="5,2" d="M435.92,-274.88C431.84,-264.52 425.38,-252.35 415.75,-244.75 402.27,-234.11 385.69,-226.94 369.02,-222.12"/>
<polygon fill="#9a32cd" stroke="#9a32cd" points="432.5,-275.72 439.05,-284.06 439.13,-273.46 432.5,-275.72"/>
</a>
</g>
<text xml:space="preserve" text-anchor="start" x="432.22" y="-249.5" font-family="Helvetica,sans-Serif" font-size="10.00" fill="grey">m_Parameters</text>
</g>
<!-- Node8 -->
<g id="Node000008" class="node">
<title>Node8</title>
<g id="a_Node000008"><a xlink:href="structarmnn_1_1_base_descriptor.html" target="_top" xlink:title="Base class for all descriptors.">
<polygon fill="white" stroke="#666666" points="483.5,-366.75 400,-366.75 400,-347.5 483.5,-347.5 483.5,-366.75"/>
<text xml:space="preserve" text-anchor="middle" x="441.75" y="-353.25" font-family="Helvetica,sans-Serif" font-size="10.00">BaseDescriptor</text>
</a>
</g>
</g>
<!-- Node8&#45;&gt;Node7 -->
<g id="edge7_Node000007_Node000008" class="edge">
<title>Node8&#45;&gt;Node7</title>
<g id="a_edge7_Node000007_Node000008"><a xlink:title=" ">
<path fill="none" stroke="#63b8ff" d="M441.75,-335.55C441.75,-325.13 441.75,-313.03 441.75,-305.04"/>
<polygon fill="#63b8ff" stroke="#63b8ff" points="438.25,-335.52 441.75,-345.52 445.25,-335.52 438.25,-335.52"/>
</a>
</g>
</g>
<!-- Node9&#45;&gt;Node5 -->
<g id="edge8_Node000005_Node000009" class="edge">
<title>Node9&#45;&gt;Node5</title>
<g id="a_edge8_Node000005_Node000009"><a xlink:title=" ">
<path fill="none" stroke="orange" stroke-dasharray="5,2" d="M286.01,-268.47C286.68,-254.78 287.48,-238.46 288.04,-226.99"/>
<polygon fill="orange" stroke="orange" points="282.53,-267.96 285.54,-278.12 289.52,-268.31 282.53,-267.96"/>
</a>
</g>
<text xml:space="preserve" text-anchor="start" x="290.11" y="-249.5" font-family="Helvetica,sans-Serif" font-size="10.00" fill="grey">&lt; PreCompiledDescriptor &gt;</text>
</g>
<!-- Node10&#45;&gt;Node2 -->
<g id="edge10_Node000002_Node000010" class="edge">
<title>Node10&#45;&gt;Node2</title>
<g id="a_edge10_Node000002_Node000010"><a xlink:title=" ">
<path fill="none" stroke="orange" stroke-dasharray="5,2" d="M113.49,-128.47C113.31,-115.42 113.09,-98.73 112.94,-86.98"/>
<polygon fill="orange" stroke="orange" points="109.98,-128.13 113.61,-138.08 116.98,-128.03 109.98,-128.13"/>
</a>
</g>
<text xml:space="preserve" text-anchor="start" x="116.4" y="-109.5" font-family="Helvetica,sans-Serif" font-size="10.00" fill="grey">&lt; PreCompiledQueueDescriptor &gt;</text>
</g>
</g>
</svg>
