<?xml version="1.0" encoding="UTF-8" standalone="no"?>
<!DOCTYPE svg PUBLIC "-//W3C//DTD SVG 1.1//EN"
 "http://www.w3.org/Graphics/SVG/1.1/DTD/svg11.dtd">
<!-- Generated by graphviz version 14.0.2 (20251019.1705)
 -->
<!-- Title: ElementwiseUnaryLayer Pages: 1 -->
<svg width="280pt" height="291pt"
 viewBox="0.00 0.00 280.00 291.00" xmlns="http://www.w3.org/2000/svg" xmlns:xlink="http://www.w3.org/1999/xlink">
<g id="graph0" class="graph" transform="scale(1 1) rotate(0) translate(4 287)">
<title>ElementwiseUnaryLayer</title>
<!-- Node1 -->
<g id="Node000001" class="node">
<title>Node1</title>
<g id="a_Node000001"><a xlink:title="This layer represents a elementwiseUnary operation.">
<polygon fill="#999999" stroke="#666666" points="142,-19.25 19.5,-19.25 19.5,0 142,0 142,-19.25"/>
<text xml:space="preserve" text-anchor="middle" x="80.75" y="-5.75" font-family="Helvetica,sans-Serif" font-size="10.00">ElementwiseUnaryLayer</text>
</a>
</g>
</g>
<!-- Node2 -->
<g id="Node000002" class="node">
<title>Node2</title>
<g id="a_Node000002"><a xlink:href="classarmnn_1_1_layer_with_parameters.html" target="_top" xlink:title=" ">
<polygon fill="white" stroke="#666666" points="161.5,-86.75 0,-86.75 0,-56.25 161.5,-56.25 161.5,-86.75"/>
<text xml:space="preserve" text-anchor="start" x="8" y="-73.25" font-family="Helvetica,sans-Serif" font-size="10.00">LayerWithParameters</text>
<text xml:space="preserve" text-anchor="middle" x="80.75" y="-62" font-family="Helvetica,sans-Serif" font-size="10.00">&lt; ElementwiseUnaryDescriptor &gt;</text>
</a>
</g>
</g>
<!-- Node2&#45;&gt;Node1 -->
<g id="edge1_Node000001_Node000002" class="edge">
<title>Node2&#45;&gt;Node1</title>
<g id="a_edge1_Node000001_Node000002"><a xlink:title=" ">
<path fill="none" stroke="#63b8ff" d="M80.75,-44.77C80.75,-35.79 80.75,-26.29 80.75,-19.6"/>
<polygon fill="#63b8ff" stroke="#63b8ff" points="77.25,-44.49 80.75,-54.49 84.25,-44.49 77.25,-44.49"/>
</a>
</g>
</g>
<!-- Node3 -->
<g id="Node000003" class="node">
<title>Node3</title>
<g id="a_Node000003"><a xlink:href="classarmnn_1_1_layer.html" target="_top" xlink:title=" ">
<polygon fill="white" stroke="#666666" points="96.75,-226.75 56.75,-226.75 56.75,-207.5 96.75,-207.5 96.75,-226.75"/>
<text xml:space="preserve" text-anchor="middle" x="76.75" y="-213.25" font-family="Helvetica,sans-Serif" font-size="10.00">Layer</text>
</a>
</g>
</g>
<!-- Node3&#45;&gt;Node2 -->
<g id="edge2_Node000002_Node000003" class="edge">
<title>Node3&#45;&gt;Node2</title>
<g id="a_edge2_Node000002_Node000003"><a xlink:title=" ">
<path fill="none" stroke="#63b8ff" d="M77.32,-195.84C78.14,-166.37 79.64,-112.46 80.35,-86.8"/>
<polygon fill="#63b8ff" stroke="#63b8ff" points="73.82,-195.53 77.04,-205.63 80.82,-195.73 73.82,-195.53"/>
</a>
</g>
</g>
<!-- Node5 -->
<g id="Node000005" class="node">
<title>Node5</title>
<g id="a_Node000005"><a xlink:href="classarmnn_1_1_layer_with_parameters.html" target="_top" xlink:title=" ">
<polygon fill="white" stroke="#666666" points="203,-170.5 92.5,-170.5 92.5,-140 203,-140 203,-170.5"/>
<text xml:space="preserve" text-anchor="start" x="100.5" y="-157" font-family="Helvetica,sans-Serif" font-size="10.00">LayerWithParameters</text>
<text xml:space="preserve" text-anchor="middle" x="147.75" y="-145.75" font-family="Helvetica,sans-Serif" font-size="10.00">&lt; Parameters &gt;</text>
</a>
</g>
</g>
<!-- Node3&#45;&gt;Node5 -->
<g id="edge5_Node000005_Node000003" class="edge">
<title>Node3&#45;&gt;Node5</title>
<g id="a_edge5_Node000005_Node000003"><a xlink:title=" ">
<path fill="none" stroke="#63b8ff" d="M96.19,-199.73C106.92,-190.68 120.14,-179.54 130.5,-170.8"/>
<polygon fill="#63b8ff" stroke="#63b8ff" points="94.08,-196.93 88.69,-206.06 98.59,-202.28 94.08,-196.93"/>
</a>
</g>
</g>
<!-- Node4 -->
<g id="Node000004" class="node">
<title>Node4</title>
<g id="a_Node000004"><a xlink:href="classarmnn_1_1_i_connectable_layer.html" target="_top" xlink:title="Interface for a layer that is connectable to other layers via InputSlots and OutputSlots.">
<polygon fill="white" stroke="#666666" points="125.62,-283 27.88,-283 27.88,-263.75 125.62,-263.75 125.62,-283"/>
<text xml:space="preserve" text-anchor="middle" x="76.75" y="-269.5" font-family="Helvetica,sans-Serif" font-size="10.00">IConnectableLayer</text>
</a>
</g>
</g>
<!-- Node4&#45;&gt;Node3 -->
<g id="edge3_Node000003_Node000004" class="edge">
<title>Node4&#45;&gt;Node3</title>
<g id="a_edge3_Node000003_Node000004"><a xlink:title=" ">
<path fill="none" stroke="#63b8ff" d="M76.75,-252.19C76.75,-243.48 76.75,-233.74 76.75,-226.92"/>
<polygon fill="#63b8ff" stroke="#63b8ff" points="73.25,-251.9 76.75,-261.9 80.25,-251.9 73.25,-251.9"/>
</a>
</g>
</g>
<!-- Node5&#45;&gt;Node2 -->
<g id="edge4_Node000002_Node000005" class="edge">
<title>Node5&#45;&gt;Node2</title>
<g id="a_edge4_Node000002_Node000005"><a xlink:title=" ">
<path fill="none" stroke="orange" stroke-dasharray="5,2" d="M128.64,-130.93C117.04,-116.78 102.6,-99.16 92.62,-86.99"/>
<polygon fill="orange" stroke="orange" points="125.77,-132.95 134.81,-138.46 131.18,-128.51 125.77,-132.95"/>
</a>
</g>
<text xml:space="preserve" text-anchor="start" x="123.25" y="-109.5" font-family="Helvetica,sans-Serif" font-size="10.00" fill="grey">&lt; ElementwiseUnaryDescriptor &gt;</text>
</g>
</g>
</svg>
