<?xml version="1.0" encoding="UTF-8" standalone="no"?>
<!DOCTYPE svg PUBLIC "-//W3C//DTD SVG 1.1//EN"
 "http://www.w3.org/Graphics/SVG/1.1/DTD/svg11.dtd">
<!-- Generated by graphviz version 14.0.2 (20251019.1705)
 -->
<!-- Title: PerAxisIterator&lt; T, Base &gt; Pages: 1 -->
<svg width="644pt" height="221pt"
 viewBox="0.00 0.00 644.00 221.00" xmlns="http://www.w3.org/2000/svg" xmlns:xlink="http://www.w3.org/1999/xlink">
<g id="graph0" class="graph" transform="scale(1 1) rotate(0) translate(4 217.28)">
<title>PerAxisIterator&lt; T, Base &gt;</title>
<!-- Node1 -->
<g id="Node000001" class="node">
<title>Node1</title>
<g id="a_Node000001"><a xlink:title="PerAxisIterator for per&#45;axis quantization.">
<polygon fill="#999999" stroke="#666666" points="173.25,-114.5 75.5,-114.5 75.5,-84 173.25,-84 173.25,-114.5"/>
<text xml:space="preserve" text-anchor="start" x="83.5" y="-101" font-family="Helvetica,sans-Serif" font-size="10.00">PerAxisIterator&lt; T,</text>
<text xml:space="preserve" text-anchor="middle" x="124.38" y="-89.75" font-family="Helvetica,sans-Serif" font-size="10.00"> Base &gt;</text>
</a>
</g>
</g>
<!-- Node3 -->
<g id="Node000003" class="node">
<title>Node3</title>
<g id="a_Node000003"><a xlink:href="classarmnn_1_1_per_axis_iterator.html" target="_top" xlink:title=" ">
<polygon fill="white" stroke="#666666" points="447.62,-198.5 335.62,-198.5 335.62,-168 447.62,-168 447.62,-198.5"/>
<text xml:space="preserve" text-anchor="start" x="343.62" y="-185" font-family="Helvetica,sans-Serif" font-size="10.00">PerAxisIterator&lt; int16</text>
<text xml:space="preserve" text-anchor="middle" x="391.62" y="-173.75" font-family="Helvetica,sans-Serif" font-size="10.00">_t, Encoder&lt; float &gt; &gt;</text>
</a>
</g>
</g>
<!-- Node1&#45;&gt;Node3 -->
<g id="edge2_Node000001_Node000003" class="edge">
<title>Node1&#45;&gt;Node3</title>
<g id="a_edge2_Node000001_Node000003"><a xlink:title=" ">
<path fill="none" stroke="orange" stroke-dasharray="5,2" d="M147.13,-122.73C159.04,-134.1 174.72,-146.87 191.25,-154.25 237.08,-174.72 294.18,-181.35 335.51,-183.23"/>
<polygon fill="orange" stroke="orange" points="149.79,-120.44 140.24,-115.86 144.85,-125.39 149.79,-120.44"/>
</a>
</g>
<text xml:space="preserve" text-anchor="start" x="208.12" y="-200.78" font-family="Helvetica,sans-Serif" font-size="10.00" fill="grey">&lt; int16_t, Encoder</text>
<text xml:space="preserve" text-anchor="start" x="208.12" y="-185.53" font-family="Helvetica,sans-Serif" font-size="10.00" fill="grey">  &lt; float &gt; &gt;</text>
</g>
<!-- Node5 -->
<g id="Node000005" class="node">
<title>Node5</title>
<g id="a_Node000005"><a xlink:href="classarmnn_1_1_per_axis_iterator.html" target="_top" xlink:title=" ">
<polygon fill="white" stroke="#666666" points="457.38,-142.5 325.88,-142.5 325.88,-112 457.38,-112 457.38,-142.5"/>
<text xml:space="preserve" text-anchor="start" x="333.88" y="-129" font-family="Helvetica,sans-Serif" font-size="10.00">PerAxisIterator&lt; const</text>
<text xml:space="preserve" text-anchor="middle" x="391.62" y="-117.75" font-family="Helvetica,sans-Serif" font-size="10.00"> int8_t, Decoder&lt; float &gt; &gt;</text>
</a>
</g>
</g>
<!-- Node1&#45;&gt;Node5 -->
<g id="edge4_Node000001_Node000005" class="edge">
<title>Node1&#45;&gt;Node5</title>
<g id="a_edge4_Node000001_Node000005"><a xlink:title=" ">
<path fill="none" stroke="orange" stroke-dasharray="5,2" d="M185.11,-105.56C226.91,-109.97 282.72,-115.86 325.63,-120.39"/>
<polygon fill="orange" stroke="orange" points="185.53,-102.08 175.22,-104.51 184.8,-109.04 185.53,-102.08"/>
</a>
</g>
<text xml:space="preserve" text-anchor="start" x="196.88" y="-138.19" font-family="Helvetica,sans-Serif" font-size="10.00" fill="grey">&lt; const int8_t, Decoder</text>
<text xml:space="preserve" text-anchor="start" x="196.88" y="-122.94" font-family="Helvetica,sans-Serif" font-size="10.00" fill="grey">  &lt; float &gt; &gt;</text>
</g>
<!-- Node7 -->
<g id="Node000007" class="node">
<title>Node7</title>
<g id="a_Node000007"><a xlink:href="classarmnn_1_1_per_axis_iterator.html" target="_top" xlink:title=" ">
<polygon fill="white" stroke="#666666" points="447.62,-86.5 335.62,-86.5 335.62,-56 447.62,-56 447.62,-86.5"/>
<text xml:space="preserve" text-anchor="start" x="343.62" y="-73" font-family="Helvetica,sans-Serif" font-size="10.00">PerAxisIterator&lt; int8</text>
<text xml:space="preserve" text-anchor="middle" x="391.62" y="-61.75" font-family="Helvetica,sans-Serif" font-size="10.00">_t, Encoder&lt; float &gt; &gt;</text>
</a>
</g>
</g>
<!-- Node1&#45;&gt;Node7 -->
<g id="edge6_Node000001_Node000007" class="edge">
<title>Node1&#45;&gt;Node7</title>
<g id="a_edge6_Node000001_Node000007"><a xlink:title=" ">
<path fill="none" stroke="orange" stroke-dasharray="5,2" d="M165.03,-79.02C173.48,-75.6 182.5,-72.56 191.25,-70.75 239.21,-60.82 295.07,-62.02 335.43,-65.08"/>
<polygon fill="orange" stroke="orange" points="163.86,-75.72 156.09,-82.91 166.65,-82.14 163.86,-75.72"/>
</a>
</g>
<text xml:space="preserve" text-anchor="start" x="207.75" y="-90.75" font-family="Helvetica,sans-Serif" font-size="10.00" fill="grey">&lt; int8_t, Encoder&lt;</text>
<text xml:space="preserve" text-anchor="start" x="207.75" y="-75.5" font-family="Helvetica,sans-Serif" font-size="10.00" fill="grey">   float &gt; &gt;</text>
</g>
<!-- Node9 -->
<g id="Node000009" class="node">
<title>Node9</title>
<g id="a_Node000009"><a xlink:href="classarmnn_1_1_per_axis_iterator.html" target="_top" xlink:title=" ">
<polygon fill="white" stroke="#666666" points="460,-30.5 323.25,-30.5 323.25,0 460,0 460,-30.5"/>
<text xml:space="preserve" text-anchor="start" x="331.25" y="-17" font-family="Helvetica,sans-Serif" font-size="10.00">PerAxisIterator&lt; const</text>
<text xml:space="preserve" text-anchor="middle" x="391.62" y="-5.75" font-family="Helvetica,sans-Serif" font-size="10.00"> int32_t, Decoder&lt; float &gt; &gt;</text>
</a>
</g>
</g>
<!-- Node1&#45;&gt;Node9 -->
<g id="edge8_Node000001_Node000009" class="edge">
<title>Node1&#45;&gt;Node9</title>
<g id="a_edge8_Node000001_Node000009"><a xlink:title=" ">
<path fill="none" stroke="orange" stroke-dasharray="5,2" d="M140.35,-74.56C151.97,-57.86 169.7,-37.04 191.25,-26.75 231.92,-7.33 282.7,-4.67 322.83,-6.75"/>
<polygon fill="orange" stroke="orange" points="137.67,-72.27 135.07,-82.54 143.51,-76.13 137.67,-72.27"/>
</a>
</g>
<text xml:space="preserve" text-anchor="start" x="194.25" y="-46.75" font-family="Helvetica,sans-Serif" font-size="10.00" fill="grey">&lt; const int32_t, Decoder</text>
<text xml:space="preserve" text-anchor="start" x="194.25" y="-31.5" font-family="Helvetica,sans-Serif" font-size="10.00" fill="grey">  &lt; float &gt; &gt;</text>
</g>
<!-- Node2 -->
<g id="Node000002" class="node">
<title>Node2</title>
<g id="a_Node000002"><a xlink:title=" ">
<polygon fill="white" stroke="#666666" points="38.5,-108.88 0,-108.88 0,-89.62 38.5,-89.62 38.5,-108.88"/>
<text xml:space="preserve" text-anchor="middle" x="19.25" y="-95.38" font-family="Helvetica,sans-Serif" font-size="10.00">Base</text>
</a>
</g>
</g>
<!-- Node2&#45;&gt;Node1 -->
<g id="edge1_Node000001_Node000002" class="edge">
<title>Node2&#45;&gt;Node1</title>
<g id="a_edge1_Node000001_Node000002"><a xlink:title=" ">
<path fill="none" stroke="#63b8ff" d="M50.13,-99.25C57.92,-99.25 66.52,-99.25 75,-99.25"/>
<polygon fill="#63b8ff" stroke="#63b8ff" points="50.2,-95.75 40.2,-99.25 50.2,-102.75 50.2,-95.75"/>
</a>
</g>
</g>
<!-- Node4 -->
<g id="Node000004" class="node">
<title>Node4</title>
<g id="a_Node000004"><a xlink:href="classarmnn_1_1_q_symm16_per_axis_encoder.html" target="_top" xlink:title=" ">
<polygon fill="white" stroke="#666666" points="633,-192.88 500,-192.88 500,-173.62 633,-173.62 633,-192.88"/>
<text xml:space="preserve" text-anchor="middle" x="566.5" y="-179.38" font-family="Helvetica,sans-Serif" font-size="10.00">QSymm16PerAxisEncoder</text>
</a>
</g>
</g>
<!-- Node3&#45;&gt;Node4 -->
<g id="edge3_Node000003_Node000004" class="edge">
<title>Node3&#45;&gt;Node4</title>
<g id="a_edge3_Node000003_Node000004"><a xlink:title=" ">
<path fill="none" stroke="#63b8ff" d="M459.25,-183.25C472.52,-183.25 486.44,-183.25 499.67,-183.25"/>
<polygon fill="#63b8ff" stroke="#63b8ff" points="459.31,-179.75 449.31,-183.25 459.31,-186.75 459.31,-179.75"/>
</a>
</g>
</g>
<!-- Node6 -->
<g id="Node000006" class="node">
<title>Node6</title>
<g id="a_Node000006"><a xlink:href="classarmnn_1_1_q_symm8_per_axis_decoder.html" target="_top" xlink:title=" ">
<polygon fill="white" stroke="#666666" points="630.75,-136.88 502.25,-136.88 502.25,-117.62 630.75,-117.62 630.75,-136.88"/>
<text xml:space="preserve" text-anchor="middle" x="566.5" y="-123.38" font-family="Helvetica,sans-Serif" font-size="10.00">QSymm8PerAxisDecoder</text>
</a>
</g>
</g>
<!-- Node5&#45;&gt;Node6 -->
<g id="edge5_Node000005_Node000006" class="edge">
<title>Node5&#45;&gt;Node6</title>
<g id="a_edge5_Node000005_Node000006"><a xlink:title=" ">
<path fill="none" stroke="#63b8ff" d="M468.9,-127.25C479.95,-127.25 491.23,-127.25 501.99,-127.25"/>
<polygon fill="#63b8ff" stroke="#63b8ff" points="469,-123.75 459,-127.25 469,-130.75 469,-123.75"/>
</a>
</g>
</g>
<!-- Node8 -->
<g id="Node000008" class="node">
<title>Node8</title>
<g id="a_Node000008"><a xlink:href="classarmnn_1_1_q_symm8_per_axis_encoder.html" target="_top" xlink:title=" ">
<polygon fill="white" stroke="#666666" points="630.38,-80.88 502.62,-80.88 502.62,-61.62 630.38,-61.62 630.38,-80.88"/>
<text xml:space="preserve" text-anchor="middle" x="566.5" y="-67.38" font-family="Helvetica,sans-Serif" font-size="10.00">QSymm8PerAxisEncoder</text>
</a>
</g>
</g>
<!-- Node7&#45;&gt;Node8 -->
<g id="edge7_Node000007_Node000008" class="edge">
<title>Node7&#45;&gt;Node8</title>
<g id="a_edge7_Node000007_Node000008"><a xlink:title=" ">
<path fill="none" stroke="#63b8ff" d="M458.97,-71.25C473.14,-71.25 488.07,-71.25 502.13,-71.25"/>
<polygon fill="#63b8ff" stroke="#63b8ff" points="459.31,-67.75 449.31,-71.25 459.31,-74.75 459.31,-67.75"/>
</a>
</g>
</g>
<!-- Node10 -->
<g id="Node000010" class="node">
<title>Node10</title>
<g id="a_Node000010"><a xlink:href="classarmnn_1_1_scaled_int32_per_axis_decoder.html" target="_top" xlink:title=" ">
<polygon fill="white" stroke="#666666" points="636,-24.88 497,-24.88 497,-5.62 636,-5.62 636,-24.88"/>
<text xml:space="preserve" text-anchor="middle" x="566.5" y="-11.38" font-family="Helvetica,sans-Serif" font-size="10.00">ScaledInt32PerAxisDecoder</text>
</a>
</g>
</g>
<!-- Node9&#45;&gt;Node10 -->
<g id="edge9_Node000009_Node000010" class="edge">
<title>Node9&#45;&gt;Node10</title>
<g id="a_edge9_Node000009_Node000010"><a xlink:title=" ">
<path fill="none" stroke="#63b8ff" d="M471.74,-15.25C480.09,-15.25 488.52,-15.25 496.73,-15.25"/>
<polygon fill="#63b8ff" stroke="#63b8ff" points="471.97,-11.75 461.97,-15.25 471.97,-18.75 471.97,-11.75"/>
</a>
</g>
</g>
</g>
</svg>
