<?xml version="1.0" encoding="UTF-8" standalone="no"?>
<!DOCTYPE svg PUBLIC "-//W3C//DTD SVG 1.1//EN"
 "http://www.w3.org/Graphics/SVG/1.1/DTD/svg11.dtd">
<!-- Generated by graphviz version 14.0.2 (20251019.1705)
 -->
<!-- Title: ClMaximumWorkload Pages: 1 -->
<svg width="1192pt" height="174pt"
 viewBox="0.00 0.00 1192.00 174.00" xmlns="http://www.w3.org/2000/svg" xmlns:xlink="http://www.w3.org/1999/xlink">
<g id="graph0" class="graph" transform="scale(1 1) rotate(0) translate(4 170.14)">
<title>ClMaximumWorkload</title>
<!-- Node1 -->
<g id="Node000001" class="node">
<title>Node1</title>
<g id="a_Node000001"><a xlink:title=" ">
<polygon fill="#999999" stroke="#666666" points="1184.25,-54.25 1075.25,-54.25 1075.25,-35 1184.25,-35 1184.25,-54.25"/>
<text xml:space="preserve" text-anchor="middle" x="1129.75" y="-40.75" font-family="Helvetica,sans-Serif" font-size="10.00">ClMaximumWorkload</text>
</a>
</g>
</g>
<!-- Node2 -->
<g id="Node000002" class="node">
<title>Node2</title>
<g id="a_Node000002"><a xlink:href="classarmnn_1_1_cl_base_workload.html" target="_top" xlink:title=" ">
<polygon fill="white" stroke="#666666" points="1038.25,-59.88 869.25,-59.88 869.25,-29.38 1038.25,-29.38 1038.25,-59.88"/>
<text xml:space="preserve" text-anchor="start" x="877.25" y="-46.38" font-family="Helvetica,sans-Serif" font-size="10.00">ClBaseWorkload&lt; MaximumQueue</text>
<text xml:space="preserve" text-anchor="middle" x="953.75" y="-35.12" font-family="Helvetica,sans-Serif" font-size="10.00">Descriptor &gt;</text>
</a>
</g>
</g>
<!-- Node2&#45;&gt;Node1 -->
<g id="edge1_Node000001_Node000002" class="edge">
<title>Node2&#45;&gt;Node1</title>
<g id="a_edge1_Node000001_Node000002"><a xlink:title=" ">
<path fill="none" stroke="#63b8ff" d="M1049.97,-44.62C1058.52,-44.62 1066.96,-44.62 1074.96,-44.62"/>
<polygon fill="#63b8ff" stroke="#63b8ff" points="1050.21,-41.13 1040.21,-44.63 1050.21,-48.13 1050.21,-41.13"/>
</a>
</g>
</g>
<!-- Node3 -->
<g id="Node000003" class="node">
<title>Node3</title>
<g id="a_Node000003"><a xlink:href="classarmnn_1_1_base_workload.html" target="_top" xlink:title=" ">
<polygon fill="white" stroke="#666666" points="682.5,-85.88 523.25,-85.88 523.25,-55.38 682.5,-55.38 682.5,-85.88"/>
<text xml:space="preserve" text-anchor="start" x="531.25" y="-72.38" font-family="Helvetica,sans-Serif" font-size="10.00">BaseWorkload&lt; MaximumQueue</text>
<text xml:space="preserve" text-anchor="middle" x="602.88" y="-61.12" font-family="Helvetica,sans-Serif" font-size="10.00">Descriptor &gt;</text>
</a>
</g>
</g>
<!-- Node3&#45;&gt;Node2 -->
<g id="edge2_Node000002_Node000003" class="edge">
<title>Node3&#45;&gt;Node2</title>
<g id="a_edge2_Node000002_Node000003"><a xlink:title=" ">
<path fill="none" stroke="#63b8ff" d="M693.89,-63.92C747.85,-59.9 816,-54.82 868.83,-50.88"/>
<polygon fill="#63b8ff" stroke="#63b8ff" points="693.83,-60.41 684.11,-64.65 694.35,-67.39 693.83,-60.41"/>
</a>
</g>
</g>
<!-- Node4 -->
<g id="Node000004" class="node">
<title>Node4</title>
<g id="a_Node000004"><a xlink:href="classarmnn_1_1_i_workload.html" target="_top" xlink:title="Workload interface to enqueue a layer computation.">
<polygon fill="white" stroke="#666666" points="74.5,-57.25 15,-57.25 15,-38 74.5,-38 74.5,-57.25"/>
<text xml:space="preserve" text-anchor="middle" x="44.75" y="-43.75" font-family="Helvetica,sans-Serif" font-size="10.00">IWorkload</text>
</a>
</g>
</g>
<!-- Node4&#45;&gt;Node3 -->
<g id="edge3_Node000003_Node000004" class="edge">
<title>Node4&#45;&gt;Node3</title>
<g id="a_edge3_Node000003_Node000004"><a xlink:title=" ">
<path fill="none" stroke="#63b8ff" d="M86.12,-49.29C177.69,-53.08 402.52,-62.38 522.85,-67.36"/>
<polygon fill="#63b8ff" stroke="#63b8ff" points="86.52,-45.81 76.38,-48.89 86.23,-52.8 86.52,-45.81"/>
</a>
</g>
</g>
<!-- Node7 -->
<g id="Node000007" class="node">
<title>Node7</title>
<g id="a_Node000007"><a xlink:href="classarmnn_1_1_base_workload.html" target="_top" xlink:title=" ">
<polygon fill="white" stroke="#666666" points="336.5,-95.25 166,-95.25 166,-76 336.5,-76 336.5,-95.25"/>
<text xml:space="preserve" text-anchor="middle" x="251.25" y="-81.75" font-family="Helvetica,sans-Serif" font-size="10.00">BaseWorkload&lt; QueueDescriptor &gt;</text>
</a>
</g>
</g>
<!-- Node4&#45;&gt;Node7 -->
<g id="edge7_Node000007_Node000004" class="edge">
<title>Node4&#45;&gt;Node7</title>
<g id="a_edge7_Node000007_Node000004"><a xlink:title=" ">
<path fill="none" stroke="#63b8ff" d="M85.57,-55.02C116.98,-60.86 161.12,-69.06 195.8,-75.51"/>
<polygon fill="#63b8ff" stroke="#63b8ff" points="86.58,-51.65 76.1,-53.27 85.3,-58.53 86.58,-51.65"/>
</a>
</g>
</g>
<!-- Node9 -->
<g id="Node000009" class="node">
<title>Node9</title>
<g id="a_Node000009"><a xlink:href="classarmnn_1_1_base_workload.html" target="_top" xlink:title=" ">
<polygon fill="white" stroke="#666666" points="336.5,-19.25 166,-19.25 166,0 336.5,0 336.5,-19.25"/>
<text xml:space="preserve" text-anchor="middle" x="251.25" y="-5.75" font-family="Helvetica,sans-Serif" font-size="10.00">BaseWorkload&lt; QueueDescriptor &gt;</text>
</a>
</g>
</g>
<!-- Node4&#45;&gt;Node9 -->
<g id="edge11_Node000009_Node000004" class="edge">
<title>Node4&#45;&gt;Node9</title>
<g id="a_edge11_Node000009_Node000004"><a xlink:title=" ">
<path fill="none" stroke="#63b8ff" d="M85.88,-38.18C93.07,-36.59 100.49,-35.01 107.5,-33.62 132.9,-28.62 160.96,-23.75 185.44,-19.73"/>
<polygon fill="#63b8ff" stroke="#63b8ff" points="85.35,-34.71 76.37,-40.33 86.89,-41.54 85.35,-34.71"/>
</a>
</g>
</g>
<!-- Node5 -->
<g id="Node000005" class="node">
<title>Node5</title>
<g id="a_Node000005"><a xlink:href="structarmnn_1_1_maximum_queue_descriptor.html" target="_top" xlink:title=" ">
<polygon fill="white" stroke="#666666" points="317.38,-159.25 185.12,-159.25 185.12,-140 317.38,-140 317.38,-159.25"/>
<text xml:space="preserve" text-anchor="middle" x="251.25" y="-145.75" font-family="Helvetica,sans-Serif" font-size="10.00">MaximumQueueDescriptor</text>
</a>
</g>
</g>
<!-- Node5&#45;&gt;Node3 -->
<g id="edge4_Node000003_Node000005" class="edge">
<title>Node5&#45;&gt;Node3</title>
<g id="a_edge4_Node000003_Node000005"><a xlink:title=" ">
<path fill="none" stroke="#9a32cd" stroke-dasharray="5,2" d="M316.99,-137.39C365.97,-127.87 434.81,-113.9 494.75,-99.62 511.62,-95.61 529.87,-90.83 546.44,-86.32"/>
<polygon fill="#9a32cd" stroke="#9a32cd" points="316.55,-133.91 307.4,-139.25 317.88,-140.78 316.55,-133.91"/>
</a>
</g>
<text xml:space="preserve" text-anchor="start" x="407.38" y="-134.24" font-family="Helvetica,sans-Serif" font-size="10.00" fill="grey">m_Data</text>
</g>
<!-- Node6 -->
<g id="Node000006" class="node">
<title>Node6</title>
<g id="a_Node000006"><a xlink:href="structarmnn_1_1_queue_descriptor.html" target="_top" xlink:title=" ">
<polygon fill="white" stroke="#666666" points="89.5,-155.25 0,-155.25 0,-136 89.5,-136 89.5,-155.25"/>
<text xml:space="preserve" text-anchor="middle" x="44.75" y="-141.75" font-family="Helvetica,sans-Serif" font-size="10.00">QueueDescriptor</text>
</a>
</g>
</g>
<!-- Node6&#45;&gt;Node5 -->
<g id="edge5_Node000005_Node000006" class="edge">
<title>Node6&#45;&gt;Node5</title>
<g id="a_edge5_Node000005_Node000006"><a xlink:title=" ">
<path fill="none" stroke="#63b8ff" d="M84.89,-158.84C92.32,-160.83 100.09,-162.57 107.5,-163.62 139.67,-168.22 176.14,-164.49 204.16,-159.73"/>
<polygon fill="#63b8ff" stroke="#63b8ff" points="86,-155.51 75.42,-156.1 84.06,-162.24 86,-155.51"/>
</a>
</g>
</g>
<!-- Node6&#45;&gt;Node7 -->
<g id="edge8_Node000007_Node000006" class="edge">
<title>Node6&#45;&gt;Node7</title>
<g id="a_edge8_Node000007_Node000006"><a xlink:title=" ">
<path fill="none" stroke="#9a32cd" stroke-dasharray="5,2" d="M100.82,-135.29C116.2,-132 132.85,-128.04 148,-123.62 175.27,-115.67 205.69,-103.99 226.2,-95.68"/>
<polygon fill="#9a32cd" stroke="#9a32cd" points="100.44,-131.8 91.37,-137.27 101.87,-138.65 100.44,-131.8"/>
</a>
</g>
<text xml:space="preserve" text-anchor="start" x="110.5" y="-138.25" font-family="Helvetica,sans-Serif" font-size="10.00" fill="grey">m_Data</text>
</g>
<!-- Node6&#45;&gt;Node9 -->
<g id="edge12_Node000009_Node000006" class="edge">
<title>Node6&#45;&gt;Node9</title>
<g id="a_edge12_Node000009_Node000006"><a xlink:title=" ">
<path fill="none" stroke="#9a32cd" stroke-dasharray="5,2" d="M69.2,-128.91C80.68,-120.8 94.75,-110.98 107.5,-102.38 153.07,-71.63 207.78,-36.6 234.29,-19.74"/>
<polygon fill="#9a32cd" stroke="#9a32cd" points="67.25,-126.01 61.11,-134.65 71.3,-131.72 67.25,-126.01"/>
</a>
</g>
<text xml:space="preserve" text-anchor="start" x="110.5" y="-107.12" font-family="Helvetica,sans-Serif" font-size="10.00" fill="grey">m_Data</text>
</g>
<!-- Node7&#45;&gt;Node3 -->
<g id="edge6_Node000003_Node000007" class="edge">
<title>Node7&#45;&gt;Node3</title>
<g id="a_edge6_Node000003_Node000007"><a xlink:title=" ">
<path fill="none" stroke="orange" stroke-dasharray="5,2" d="M348.38,-81.5C403.21,-79.15 471.1,-76.24 522.81,-74.02"/>
<polygon fill="orange" stroke="orange" points="348.24,-78 338.4,-81.93 348.54,-85 348.24,-78"/>
</a>
</g>
<text xml:space="preserve" text-anchor="start" x="357.5" y="-85.94" font-family="Helvetica,sans-Serif" font-size="10.00" fill="grey">&lt; MaximumQueueDescriptor &gt;</text>
</g>
<!-- Node8 -->
<g id="Node000008" class="node">
<title>Node8</title>
<g id="a_Node000008"><a xlink:href="classarmnn_1_1_cl_base_workload.html" target="_top" xlink:title=" ">
<polygon fill="white" stroke="#666666" points="693,-33.25 512.75,-33.25 512.75,-14 693,-14 693,-33.25"/>
<text xml:space="preserve" text-anchor="middle" x="602.88" y="-19.75" font-family="Helvetica,sans-Serif" font-size="10.00">ClBaseWorkload&lt; QueueDescriptor &gt;</text>
</a>
</g>
</g>
<!-- Node8&#45;&gt;Node2 -->
<g id="edge9_Node000002_Node000008" class="edge">
<title>Node8&#45;&gt;Node2</title>
<g id="a_edge9_Node000002_Node000008"><a xlink:title=" ">
<path fill="none" stroke="orange" stroke-dasharray="5,2" d="M704.52,-25.25C749.47,-26.48 803.06,-28.62 851.25,-32.38 857,-32.82 862.93,-33.35 868.89,-33.94"/>
<polygon fill="orange" stroke="orange" points="704.89,-21.76 694.8,-25 704.71,-28.76 704.89,-21.76"/>
</a>
</g>
<text xml:space="preserve" text-anchor="start" x="714" y="-37.12" font-family="Helvetica,sans-Serif" font-size="10.00" fill="grey">&lt; MaximumQueueDescriptor &gt;</text>
</g>
<!-- Node9&#45;&gt;Node8 -->
<g id="edge10_Node000008_Node000009" class="edge">
<title>Node9&#45;&gt;Node8</title>
<g id="a_edge10_Node000008_Node000009"><a xlink:title=" ">
<path fill="none" stroke="#63b8ff" d="M348.31,-13.47C399.59,-15.53 462.3,-18.04 512.53,-20.05"/>
<polygon fill="#63b8ff" stroke="#63b8ff" points="348.53,-9.98 338.4,-13.07 348.25,-16.97 348.53,-9.98"/>
</a>
</g>
</g>
</g>
</svg>
