<?xml version="1.0" encoding="UTF-8" standalone="no"?>
<!DOCTYPE svg PUBLIC "-//W3C//DTD SVG 1.1//EN"
 "http://www.w3.org/Graphics/SVG/1.1/DTD/svg11.dtd">
<!-- Generated by graphviz version 14.0.2 (20251019.1705)
 -->
<!-- Title: NeonSliceWorkload Pages: 1 -->
<svg width="1593pt" height="239pt"
 viewBox="0.00 0.00 1593.00 239.00" xmlns="http://www.w3.org/2000/svg" xmlns:xlink="http://www.w3.org/1999/xlink">
<g id="graph0" class="graph" transform="scale(1 1) rotate(0) translate(4 235.25)">
<title>NeonSliceWorkload</title>
<!-- Node1 -->
<g id="Node000001" class="node">
<title>Node1</title>
<g id="a_Node000001"><a xlink:title=" ">
<polygon fill="#999999" stroke="#666666" points="1585,-54.25 1483.5,-54.25 1483.5,-35 1585,-35 1585,-54.25"/>
<text xml:space="preserve" text-anchor="middle" x="1534.25" y="-40.75" font-family="Helvetica,sans-Serif" font-size="10.00">NeonSliceWorkload</text>
</a>
</g>
</g>
<!-- Node2 -->
<g id="Node000002" class="node">
<title>Node2</title>
<g id="a_Node000002"><a xlink:href="classarmnn_1_1_neon_base_workload.html" target="_top" xlink:title=" ">
<polygon fill="white" stroke="#666666" points="1446.5,-59.88 1285,-59.88 1285,-29.38 1446.5,-29.38 1446.5,-59.88"/>
<text xml:space="preserve" text-anchor="start" x="1293" y="-46.38" font-family="Helvetica,sans-Serif" font-size="10.00">NeonBaseWorkload&lt; SliceQueue</text>
<text xml:space="preserve" text-anchor="middle" x="1365.75" y="-35.12" font-family="Helvetica,sans-Serif" font-size="10.00">Descriptor &gt;</text>
</a>
</g>
</g>
<!-- Node2&#45;&gt;Node1 -->
<g id="edge1_Node000001_Node000002" class="edge">
<title>Node2&#45;&gt;Node1</title>
<g id="a_edge1_Node000001_Node000002"><a xlink:title=" ">
<path fill="none" stroke="#63b8ff" d="M1458.03,-44.62C1466.7,-44.62 1475.26,-44.62 1483.32,-44.62"/>
<polygon fill="#63b8ff" stroke="#63b8ff" points="1458.1,-41.13 1448.1,-44.63 1458.1,-48.13 1458.1,-41.13"/>
</a>
</g>
</g>
<!-- Node3 -->
<g id="Node000003" class="node">
<title>Node3</title>
<g id="a_Node000003"><a xlink:href="classarmnn_1_1_base_workload.html" target="_top" xlink:title=" ">
<polygon fill="white" stroke="#666666" points="1102,-85.88 963.75,-85.88 963.75,-55.38 1102,-55.38 1102,-85.88"/>
<text xml:space="preserve" text-anchor="start" x="971.75" y="-72.38" font-family="Helvetica,sans-Serif" font-size="10.00">BaseWorkload&lt; SliceQueue</text>
<text xml:space="preserve" text-anchor="middle" x="1032.88" y="-61.12" font-family="Helvetica,sans-Serif" font-size="10.00">Descriptor &gt;</text>
</a>
</g>
</g>
<!-- Node3&#45;&gt;Node2 -->
<g id="edge2_Node000002_Node000003" class="edge">
<title>Node3&#45;&gt;Node2</title>
<g id="a_edge2_Node000002_Node000003"><a xlink:title=" ">
<path fill="none" stroke="#63b8ff" d="M1113.9,-64.34C1165.68,-60.27 1232.83,-54.99 1284.63,-50.92"/>
<polygon fill="#63b8ff" stroke="#63b8ff" points="1113.64,-60.85 1103.94,-65.12 1114.18,-67.82 1113.64,-60.85"/>
</a>
</g>
</g>
<!-- Node4 -->
<g id="Node000004" class="node">
<title>Node4</title>
<g id="a_Node000004"><a xlink:href="classarmnn_1_1_i_workload.html" target="_top" xlink:title="Workload interface to enqueue a layer computation.">
<polygon fill="white" stroke="#666666" points="523,-57.25 463.5,-57.25 463.5,-38 523,-38 523,-57.25"/>
<text xml:space="preserve" text-anchor="middle" x="493.25" y="-43.75" font-family="Helvetica,sans-Serif" font-size="10.00">IWorkload</text>
</a>
</g>
</g>
<!-- Node4&#45;&gt;Node3 -->
<g id="edge3_Node000003_Node000004" class="edge">
<title>Node4&#45;&gt;Node3</title>
<g id="a_edge3_Node000003_Node000004"><a xlink:title=" ">
<path fill="none" stroke="#63b8ff" d="M534.65,-49.35C626.14,-53.27 849.95,-62.84 963.46,-67.7"/>
<polygon fill="#63b8ff" stroke="#63b8ff" points="534.81,-45.86 524.67,-48.93 534.51,-52.85 534.81,-45.86"/>
</a>
</g>
</g>
<!-- Node11 -->
<g id="Node000011" class="node">
<title>Node11</title>
<g id="a_Node000011"><a xlink:href="classarmnn_1_1_base_workload.html" target="_top" xlink:title=" ">
<polygon fill="white" stroke="#666666" points="780.75,-95.25 610.25,-95.25 610.25,-76 780.75,-76 780.75,-95.25"/>
<text xml:space="preserve" text-anchor="middle" x="695.5" y="-81.75" font-family="Helvetica,sans-Serif" font-size="10.00">BaseWorkload&lt; QueueDescriptor &gt;</text>
</a>
</g>
</g>
<!-- Node4&#45;&gt;Node11 -->
<g id="edge12_Node000011_Node000004" class="edge">
<title>Node4&#45;&gt;Node11</title>
<g id="a_edge12_Node000011_Node000004"><a xlink:title=" ">
<path fill="none" stroke="#63b8ff" d="M534.51,-55.26C565.19,-61.09 607.74,-69.16 641.24,-75.52"/>
<polygon fill="#63b8ff" stroke="#63b8ff" points="535.33,-51.86 524.86,-53.43 534.03,-58.74 535.33,-51.86"/>
</a>
</g>
</g>
<!-- Node13 -->
<g id="Node000013" class="node">
<title>Node13</title>
<g id="a_Node000013"><a xlink:href="classarmnn_1_1_base_workload.html" target="_top" xlink:title=" ">
<polygon fill="white" stroke="#666666" points="780.75,-19.25 610.25,-19.25 610.25,0 780.75,0 780.75,-19.25"/>
<text xml:space="preserve" text-anchor="middle" x="695.5" y="-5.75" font-family="Helvetica,sans-Serif" font-size="10.00">BaseWorkload&lt; QueueDescriptor &gt;</text>
</a>
</g>
</g>
<!-- Node4&#45;&gt;Node13 -->
<g id="edge16_Node000013_Node000004" class="edge">
<title>Node4&#45;&gt;Node13</title>
<g id="a_edge16_Node000013_Node000004"><a xlink:title=" ">
<path fill="none" stroke="#63b8ff" d="M534.51,-39.99C565.19,-34.16 607.74,-26.09 641.24,-19.73"/>
<polygon fill="#63b8ff" stroke="#63b8ff" points="534.03,-36.51 524.86,-41.82 535.33,-43.39 534.03,-36.51"/>
</a>
</g>
</g>
<!-- Node5 -->
<g id="Node000005" class="node">
<title>Node5</title>
<g id="a_Node000005"><a xlink:href="structarmnn_1_1_slice_queue_descriptor.html" target="_top" xlink:title=" ">
<polygon fill="white" stroke="#666666" points="751.12,-162.25 639.88,-162.25 639.88,-143 751.12,-143 751.12,-162.25"/>
<text xml:space="preserve" text-anchor="middle" x="695.5" y="-148.75" font-family="Helvetica,sans-Serif" font-size="10.00">SliceQueueDescriptor</text>
</a>
</g>
</g>
<!-- Node5&#45;&gt;Node3 -->
<g id="edge4_Node000003_Node000005" class="edge">
<title>Node5&#45;&gt;Node3</title>
<g id="a_edge4_Node000003_Node000005"><a xlink:title=" ">
<path fill="none" stroke="#9a32cd" stroke-dasharray="5,2" d="M750.37,-139.97C795.25,-129.36 860.85,-113.74 918,-99.62 935.13,-95.39 953.69,-90.71 970.75,-86.37"/>
<polygon fill="#9a32cd" stroke="#9a32cd" points="749.82,-136.5 740.89,-142.2 751.43,-143.31 749.82,-136.5"/>
</a>
</g>
<text xml:space="preserve" text-anchor="start" x="841.12" y="-132.15" font-family="Helvetica,sans-Serif" font-size="10.00" fill="grey">m_Data</text>
</g>
<!-- Node6 -->
<g id="Node000006" class="node">
<title>Node6</title>
<g id="a_Node000006"><a xlink:href="structarmnn_1_1_queue_descriptor_with_parameters.html" target="_top" xlink:title=" ">
<polygon fill="white" stroke="#666666" points="573.25,-183.88 413.25,-183.88 413.25,-153.38 573.25,-153.38 573.25,-183.88"/>
<text xml:space="preserve" text-anchor="start" x="421.25" y="-170.38" font-family="Helvetica,sans-Serif" font-size="10.00">QueueDescriptorWithParameters</text>
<text xml:space="preserve" text-anchor="middle" x="493.25" y="-159.12" font-family="Helvetica,sans-Serif" font-size="10.00">&lt; SliceDescriptor &gt;</text>
</a>
</g>
</g>
<!-- Node6&#45;&gt;Node5 -->
<g id="edge5_Node000005_Node000006" class="edge">
<title>Node6&#45;&gt;Node5</title>
<g id="a_edge5_Node000005_Node000006"><a xlink:title=" ">
<path fill="none" stroke="#63b8ff" d="M585.16,-161.36C603.71,-159.88 622.69,-158.36 639.52,-157.02"/>
<polygon fill="#63b8ff" stroke="#63b8ff" points="584.88,-157.87 575.19,-162.16 585.44,-164.85 584.88,-157.87"/>
</a>
</g>
</g>
<!-- Node7 -->
<g id="Node000007" class="node">
<title>Node7</title>
<g id="a_Node000007"><a xlink:href="structarmnn_1_1_queue_descriptor.html" target="_top" xlink:title=" ">
<polygon fill="white" stroke="#666666" points="89.5,-120.25 0,-120.25 0,-101 89.5,-101 89.5,-120.25"/>
<text xml:space="preserve" text-anchor="middle" x="44.75" y="-106.75" font-family="Helvetica,sans-Serif" font-size="10.00">QueueDescriptor</text>
</a>
</g>
</g>
<!-- Node7&#45;&gt;Node6 -->
<g id="edge6_Node000006_Node000007" class="edge">
<title>Node7&#45;&gt;Node6</title>
<g id="a_edge6_Node000006_Node000007"><a xlink:title=" ">
<path fill="none" stroke="#63b8ff" d="M65.01,-128.11C80.42,-140.87 103.21,-157.2 126.5,-164.62 221.48,-194.92 337.53,-189.56 413.08,-180.89"/>
<polygon fill="#63b8ff" stroke="#63b8ff" points="67.45,-125.59 57.59,-121.72 62.88,-130.89 67.45,-125.59"/>
</a>
</g>
</g>
<!-- Node10 -->
<g id="Node000010" class="node">
<title>Node10</title>
<g id="a_Node000010"><a xlink:href="structarmnn_1_1_queue_descriptor_with_parameters.html" target="_top" xlink:title=" ">
<polygon fill="white" stroke="#666666" points="286.5,-155.88 126.5,-155.88 126.5,-125.38 286.5,-125.38 286.5,-155.88"/>
<text xml:space="preserve" text-anchor="start" x="134.5" y="-142.38" font-family="Helvetica,sans-Serif" font-size="10.00">QueueDescriptorWithParameters</text>
<text xml:space="preserve" text-anchor="middle" x="206.5" y="-131.12" font-family="Helvetica,sans-Serif" font-size="10.00">&lt; LayerDescriptor &gt;</text>
</a>
</g>
</g>
<!-- Node7&#45;&gt;Node10 -->
<g id="edge10_Node000010_Node000007" class="edge">
<title>Node7&#45;&gt;Node10</title>
<g id="a_edge10_Node000010_Node000007"><a xlink:title=" ">
<path fill="none" stroke="#63b8ff" d="M100.98,-121C109.08,-122.52 117.55,-124.11 126.01,-125.7"/>
<polygon fill="#63b8ff" stroke="#63b8ff" points="101.79,-117.59 91.31,-119.18 100.5,-124.47 101.79,-117.59"/>
</a>
</g>
</g>
<!-- Node7&#45;&gt;Node11 -->
<g id="edge13_Node000011_Node000007" class="edge">
<title>Node7&#45;&gt;Node11</title>
<g id="a_edge13_Node000011_Node000007"><a xlink:title=" ">
<path fill="none" stroke="#9a32cd" stroke-dasharray="5,2" d="M101,-108.5C214.6,-104.12 474.97,-94.08 609.92,-88.88"/>
<polygon fill="#9a32cd" stroke="#9a32cd" points="101.2,-104.99 91.34,-108.87 101.47,-111.98 101.2,-104.99"/>
</a>
</g>
<text xml:space="preserve" text-anchor="start" x="332.62" y="-105.38" font-family="Helvetica,sans-Serif" font-size="10.00" fill="grey">m_Data</text>
</g>
<!-- Node7&#45;&gt;Node13 -->
<g id="edge17_Node000013_Node000007" class="edge">
<title>Node7&#45;&gt;Node13</title>
<g id="a_edge17_Node000013_Node000007"><a xlink:title=" ">
<path fill="none" stroke="#9a32cd" stroke-dasharray="5,2" d="M93.19,-97.6C162.8,-79.06 296.96,-45.43 413.25,-28.62 478.88,-19.14 553.83,-14.37 609.84,-11.99"/>
<polygon fill="#9a32cd" stroke="#9a32cd" points="92.4,-94.19 83.64,-100.16 94.21,-100.96 92.4,-94.19"/>
</a>
</g>
<text xml:space="preserve" text-anchor="start" x="332.62" y="-52.27" font-family="Helvetica,sans-Serif" font-size="10.00" fill="grey">m_Data</text>
</g>
<!-- Node8 -->
<g id="Node000008" class="node">
<title>Node8</title>
<g id="a_Node000008"><a xlink:href="structarmnn_1_1_slice_descriptor.html" target="_top" xlink:title="A SliceDescriptor for the SliceLayer.">
<polygon fill="white" stroke="#666666" points="247.88,-231.25 165.12,-231.25 165.12,-212 247.88,-212 247.88,-231.25"/>
<text xml:space="preserve" text-anchor="middle" x="206.5" y="-217.75" font-family="Helvetica,sans-Serif" font-size="10.00">SliceDescriptor</text>
</a>
</g>
</g>
<!-- Node8&#45;&gt;Node6 -->
<g id="edge7_Node000006_Node000008" class="edge">
<title>Node8&#45;&gt;Node6</title>
<g id="a_edge7_Node000006_Node000008"><a xlink:title=" ">
<path fill="none" stroke="#9a32cd" stroke-dasharray="5,2" d="M259.35,-216.82C297.25,-212.79 349.75,-206.17 395.25,-196.62 411.03,-193.32 428,-188.77 443.26,-184.3"/>
<polygon fill="#9a32cd" stroke="#9a32cd" points="259.17,-213.31 249.59,-217.82 259.89,-220.28 259.17,-213.31"/>
</a>
</g>
<text xml:space="preserve" text-anchor="start" x="318" y="-215.76" font-family="Helvetica,sans-Serif" font-size="10.00" fill="grey">m_Parameters</text>
</g>
<!-- Node9 -->
<g id="Node000009" class="node">
<title>Node9</title>
<g id="a_Node000009"><a xlink:href="structarmnn_1_1_base_descriptor.html" target="_top" xlink:title="Base class for all descriptors.">
<polygon fill="white" stroke="#666666" points="86.5,-231.25 3,-231.25 3,-212 86.5,-212 86.5,-231.25"/>
<text xml:space="preserve" text-anchor="middle" x="44.75" y="-217.75" font-family="Helvetica,sans-Serif" font-size="10.00">BaseDescriptor</text>
</a>
</g>
</g>
<!-- Node9&#45;&gt;Node8 -->
<g id="edge8_Node000008_Node000009" class="edge">
<title>Node9&#45;&gt;Node8</title>
<g id="a_edge8_Node000008_Node000009"><a xlink:title=" ">
<path fill="none" stroke="#63b8ff" d="M98.22,-221.62C119.85,-221.62 144.54,-221.62 164.78,-221.62"/>
<polygon fill="#63b8ff" stroke="#63b8ff" points="98.4,-218.13 88.4,-221.63 98.4,-225.13 98.4,-218.13"/>
</a>
</g>
</g>
<!-- Node10&#45;&gt;Node6 -->
<g id="edge9_Node000006_Node000010" class="edge">
<title>Node10&#45;&gt;Node6</title>
<g id="a_edge9_Node000006_Node000010"><a xlink:title=" ">
<path fill="none" stroke="orange" stroke-dasharray="5,2" d="M297.89,-144.38C328.83,-146.17 363.61,-148.74 395.25,-152.38 401.02,-153.04 406.96,-153.81 412.94,-154.65"/>
<polygon fill="orange" stroke="orange" points="298.37,-140.91 288.19,-143.84 297.98,-147.89 298.37,-140.91"/>
</a>
</g>
<text xml:space="preserve" text-anchor="start" x="307.5" y="-157.12" font-family="Helvetica,sans-Serif" font-size="10.00" fill="grey">&lt; SliceDescriptor &gt;</text>
</g>
<!-- Node11&#45;&gt;Node3 -->
<g id="edge11_Node000003_Node000011" class="edge">
<title>Node11&#45;&gt;Node3</title>
<g id="a_edge11_Node000003_Node000011"><a xlink:title=" ">
<path fill="none" stroke="orange" stroke-dasharray="5,2" d="M792.57,-81.33C847.12,-78.89 914.12,-75.89 963.34,-73.69"/>
<polygon fill="orange" stroke="orange" points="792.47,-77.83 782.64,-81.77 792.79,-84.82 792.47,-77.83"/>
</a>
</g>
<text xml:space="preserve" text-anchor="start" x="801.75" y="-85.52" font-family="Helvetica,sans-Serif" font-size="10.00" fill="grey">&lt; SliceQueueDescriptor &gt;</text>
</g>
<!-- Node12 -->
<g id="Node000012" class="node">
<title>Node12</title>
<g id="a_Node000012"><a xlink:href="classarmnn_1_1_neon_base_workload.html" target="_top" xlink:title=" ">
<polygon fill="white" stroke="#666666" points="1129.75,-33.25 936,-33.25 936,-14 1129.75,-14 1129.75,-33.25"/>
<text xml:space="preserve" text-anchor="middle" x="1032.88" y="-19.75" font-family="Helvetica,sans-Serif" font-size="10.00">NeonBaseWorkload&lt; QueueDescriptor &gt;</text>
</a>
</g>
</g>
<!-- Node12&#45;&gt;Node2 -->
<g id="edge14_Node000002_Node000012" class="edge">
<title>Node12&#45;&gt;Node2</title>
<g id="a_edge14_Node000002_Node000012"><a xlink:title=" ">
<path fill="none" stroke="orange" stroke-dasharray="5,2" d="M1141.38,-25.7C1180.92,-26.98 1226.04,-29.05 1267,-32.38 1272.71,-32.84 1278.6,-33.39 1284.53,-34"/>
<polygon fill="orange" stroke="orange" points="1141.73,-22.21 1131.63,-25.4 1141.51,-29.21 1141.73,-22.21"/>
</a>
</g>
<text xml:space="preserve" text-anchor="start" x="1150.75" y="-37.12" font-family="Helvetica,sans-Serif" font-size="10.00" fill="grey">&lt; SliceQueueDescriptor &gt;</text>
</g>
<!-- Node13&#45;&gt;Node12 -->
<g id="edge15_Node000012_Node000013" class="edge">
<title>Node13&#45;&gt;Node12</title>
<g id="a_edge15_Node000012_Node000013"><a xlink:title=" ">
<path fill="none" stroke="#63b8ff" d="M792.36,-13.63C837.3,-15.5 890.73,-17.73 935.71,-19.61"/>
<polygon fill="#63b8ff" stroke="#63b8ff" points="792.78,-10.14 782.64,-13.22 792.49,-17.14 792.78,-10.14"/>
</a>
</g>
</g>
</g>
</svg>
