<?xml version="1.0" encoding="UTF-8" standalone="no"?>
<!DOCTYPE svg PUBLIC "-//W3C//DTD SVG 1.1//EN"
 "http://www.w3.org/Graphics/SVG/1.1/DTD/svg11.dtd">
<!-- Generated by graphviz version 14.0.2 (20251019.1705)
 -->
<!-- Title: IGraphObservable Pages: 1 -->
<svg width="715pt" height="93pt"
 viewBox="0.00 0.00 715.00 93.00" xmlns="http://www.w3.org/2000/svg" xmlns:xlink="http://www.w3.org/1999/xlink">
<g id="graph0" class="graph" transform="scale(1 1) rotate(0) translate(4 89.08)">
<title>IGraphObservable</title>
<!-- Node1 -->
<g id="Node000001" class="node">
<title>Node1</title>
<g id="a_Node000001"><a xlink:title=" ">
<polygon fill="#999999" stroke="#666666" points="94.75,-52.88 0,-52.88 0,-33.62 94.75,-33.62 94.75,-52.88"/>
<text xml:space="preserve" text-anchor="middle" x="47.38" y="-39.38" font-family="Helvetica,sans-Serif" font-size="10.00">IGraphObservable</text>
</a>
</g>
</g>
<!-- Node2 -->
<g id="Node000002" class="node">
<title>Node2</title>
<g id="a_Node000002"><a xlink:href="classarmnn_1_1_graph_observable.html" target="_top" xlink:title=" ">
<polygon fill="white" stroke="#666666" points="518.5,-82.88 378,-82.88 378,-63.62 518.5,-63.62 518.5,-82.88"/>
<text xml:space="preserve" text-anchor="middle" x="448.25" y="-69.38" font-family="Helvetica,sans-Serif" font-size="10.00">GraphObservable&lt; Layer * &gt;</text>
</a>
</g>
</g>
<!-- Node1&#45;&gt;Node2 -->
<g id="edge1_Node000001_Node000002" class="edge">
<title>Node1&#45;&gt;Node2</title>
<g id="a_edge1_Node000001_Node000002"><a xlink:title=" ">
<path fill="none" stroke="#63b8ff" d="M89.01,-56.6C102.48,-60.58 117.64,-64.59 131.75,-67.25 231.65,-86.12 258.47,-87.47 360,-82.25 365.78,-81.95 371.76,-81.55 377.77,-81.07"/>
<polygon fill="#63b8ff" stroke="#63b8ff" points="90.18,-53.3 79.6,-53.73 88.14,-59.99 90.18,-53.3"/>
</a>
</g>
</g>
<!-- Node4 -->
<g id="Node000004" class="node">
<title>Node4</title>
<g id="a_Node000004"><a xlink:href="classarmnn_1_1_graph_observable.html" target="_top" xlink:title=" ">
<polygon fill="white" stroke="#666666" points="505.38,-30.5 391.12,-30.5 391.12,0 505.38,0 505.38,-30.5"/>
<text xml:space="preserve" text-anchor="start" x="399.12" y="-17" font-family="Helvetica,sans-Serif" font-size="10.00">GraphObservable&lt; std</text>
<text xml:space="preserve" text-anchor="middle" x="448.25" y="-5.75" font-family="Helvetica,sans-Serif" font-size="10.00">::string &gt;</text>
</a>
</g>
</g>
<!-- Node1&#45;&gt;Node4 -->
<g id="edge3_Node000001_Node000004" class="edge">
<title>Node1&#45;&gt;Node4</title>
<g id="a_edge3_Node000001_Node000004"><a xlink:title=" ">
<path fill="none" stroke="#63b8ff" d="M87.18,-29.85C101.07,-25.65 116.95,-21.53 131.75,-19.25 221.49,-5.45 327.28,-7.84 390.72,-11.25"/>
<polygon fill="#63b8ff" stroke="#63b8ff" points="86.46,-26.41 77.97,-32.75 88.56,-33.09 86.46,-26.41"/>
</a>
</g>
</g>
<!-- Node6 -->
<g id="Node000006" class="node">
<title>Node6</title>
<g id="a_Node000006"><a xlink:href="classarmnn_1_1_graph_observable.html" target="_top" xlink:title=" ">
<polygon fill="white" stroke="#666666" points="274.5,-58.5 131.75,-58.5 131.75,-28 274.5,-28 274.5,-58.5"/>
<text xml:space="preserve" text-anchor="start" x="139.75" y="-45" font-family="Helvetica,sans-Serif" font-size="10.00">GraphObservable&lt; Observed</text>
<text xml:space="preserve" text-anchor="middle" x="203.12" y="-33.75" font-family="Helvetica,sans-Serif" font-size="10.00">Type &gt;</text>
</a>
</g>
</g>
<!-- Node1&#45;&gt;Node6 -->
<g id="edge5_Node000001_Node000006" class="edge">
<title>Node1&#45;&gt;Node6</title>
<g id="a_edge5_Node000001_Node000006"><a xlink:title=" ">
<path fill="none" stroke="#63b8ff" d="M106.25,-43.25C114.44,-43.25 122.94,-43.25 131.33,-43.25"/>
<polygon fill="#63b8ff" stroke="#63b8ff" points="106.44,-39.75 96.44,-43.25 106.44,-46.75 106.44,-39.75"/>
</a>
</g>
</g>
<!-- Node3 -->
<g id="Node000003" class="node">
<title>Node3</title>
<g id="a_Node000003"><a xlink:href="classarmnn_1_1_added_layer_observable.html" target="_top" xlink:title=" ">
<polygon fill="white" stroke="#666666" points="690,-82.88 572.75,-82.88 572.75,-63.62 690,-63.62 690,-82.88"/>
<text xml:space="preserve" text-anchor="middle" x="631.38" y="-69.38" font-family="Helvetica,sans-Serif" font-size="10.00">AddedLayerObservable</text>
</a>
</g>
</g>
<!-- Node2&#45;&gt;Node3 -->
<g id="edge2_Node000002_Node000003" class="edge">
<title>Node2&#45;&gt;Node3</title>
<g id="a_edge2_Node000002_Node000003"><a xlink:title=" ">
<path fill="none" stroke="#63b8ff" d="M530.12,-73.25C544.41,-73.25 559.03,-73.25 572.52,-73.25"/>
<polygon fill="#63b8ff" stroke="#63b8ff" points="530.27,-69.75 520.27,-73.25 530.27,-76.75 530.27,-69.75"/>
</a>
</g>
</g>
<!-- Node5 -->
<g id="Node000005" class="node">
<title>Node5</title>
<g id="a_Node000005"><a xlink:href="classarmnn_1_1_erased_layer_names_observable.html" target="_top" xlink:title=" ">
<polygon fill="white" stroke="#666666" points="707.25,-24.88 555.5,-24.88 555.5,-5.62 707.25,-5.62 707.25,-24.88"/>
<text xml:space="preserve" text-anchor="middle" x="631.38" y="-11.38" font-family="Helvetica,sans-Serif" font-size="10.00">ErasedLayerNamesObservable</text>
</a>
</g>
</g>
<!-- Node4&#45;&gt;Node5 -->
<g id="edge4_Node000004_Node000005" class="edge">
<title>Node4&#45;&gt;Node5</title>
<g id="a_edge4_Node000004_Node000005"><a xlink:title=" ">
<path fill="none" stroke="#63b8ff" d="M516.83,-15.25C529.31,-15.25 542.42,-15.25 555.12,-15.25"/>
<polygon fill="#63b8ff" stroke="#63b8ff" points="517.08,-11.75 507.08,-15.25 517.08,-18.75 517.08,-11.75"/>
</a>
</g>
</g>
<!-- Node6&#45;&gt;Node2 -->
<g id="edge6_Node000006_Node000002" class="edge">
<title>Node6&#45;&gt;Node2</title>
<g id="a_edge6_Node000006_Node000002"><a xlink:title=" ">
<path fill="none" stroke="orange" stroke-dasharray="5,2" d="M285.99,-53.35C315.75,-57.02 349.09,-61.14 377.69,-64.67"/>
<polygon fill="orange" stroke="orange" points="286.63,-49.9 276.28,-52.15 285.77,-56.85 286.63,-49.9"/>
</a>
</g>
<text xml:space="preserve" text-anchor="start" x="301.88" y="-66.57" font-family="Helvetica,sans-Serif" font-size="10.00" fill="grey">&lt; Layer * &gt;</text>
</g>
<!-- Node6&#45;&gt;Node4 -->
<g id="edge7_Node000006_Node000004" class="edge">
<title>Node6&#45;&gt;Node4</title>
<g id="a_edge7_Node000006_Node000004"><a xlink:title=" ">
<path fill="none" stroke="orange" stroke-dasharray="5,2" d="M286.24,-25.89C288.35,-25.57 290.44,-25.28 292.5,-25 324.92,-20.65 361.42,-18.24 390.83,-16.9"/>
<polygon fill="orange" stroke="orange" points="285.69,-22.43 276.38,-27.48 286.81,-29.34 285.69,-22.43"/>
</a>
</g>
<text xml:space="preserve" text-anchor="start" x="295.5" y="-29.75" font-family="Helvetica,sans-Serif" font-size="10.00" fill="grey">&lt; std::string &gt;</text>
</g>
</g>
</svg>
