<?xml version="1.0" encoding="UTF-8" standalone="no"?>
<!DOCTYPE svg PUBLIC "-//W3C//DTD SVG 1.1//EN"
 "http://www.w3.org/Graphics/SVG/1.1/DTD/svg11.dtd">
<!-- Generated by graphviz version 14.0.2 (20251019.1705)
 -->
<!-- Title: BatchMatMulLayer Pages: 1 -->
<svg width="313pt" height="291pt"
 viewBox="0.00 0.00 313.00 291.00" xmlns="http://www.w3.org/2000/svg" xmlns:xlink="http://www.w3.org/1999/xlink">
<g id="graph0" class="graph" transform="scale(1 1) rotate(0) translate(4 287)">
<title>BatchMatMulLayer</title>
<!-- Node1 -->
<g id="Node000001" class="node">
<title>Node1</title>
<g id="a_Node000001"><a xlink:title=" ">
<polygon fill="#999999" stroke="#666666" points="144.75,-19.25 47,-19.25 47,0 144.75,0 144.75,-19.25"/>
<text xml:space="preserve" text-anchor="middle" x="95.88" y="-5.75" font-family="Helvetica,sans-Serif" font-size="10.00">BatchMatMulLayer</text>
</a>
</g>
</g>
<!-- Node2 -->
<g id="Node000002" class="node">
<title>Node2</title>
<g id="a_Node000002"><a xlink:href="classarmnn_1_1_layer_with_parameters.html" target="_top" xlink:title=" ">
<polygon fill="white" stroke="#666666" points="164.25,-86.75 27.5,-86.75 27.5,-56.25 164.25,-56.25 164.25,-86.75"/>
<text xml:space="preserve" text-anchor="start" x="35.5" y="-73.25" font-family="Helvetica,sans-Serif" font-size="10.00">LayerWithParameters</text>
<text xml:space="preserve" text-anchor="middle" x="95.88" y="-62" font-family="Helvetica,sans-Serif" font-size="10.00">&lt; BatchMatMulDescriptor &gt;</text>
</a>
</g>
</g>
<!-- Node2&#45;&gt;Node1 -->
<g id="edge1_Node000001_Node000002" class="edge">
<title>Node2&#45;&gt;Node1</title>
<g id="a_edge1_Node000001_Node000002"><a xlink:title=" ">
<path fill="none" stroke="#63b8ff" d="M95.88,-44.77C95.88,-35.79 95.88,-26.29 95.88,-19.6"/>
<polygon fill="#63b8ff" stroke="#63b8ff" points="92.38,-44.49 95.88,-54.49 99.38,-44.49 92.38,-44.49"/>
</a>
</g>
</g>
<!-- Node3 -->
<g id="Node000003" class="node">
<title>Node3</title>
<g id="a_Node000003"><a xlink:href="classarmnn_1_1_layer.html" target="_top" xlink:title=" ">
<polygon fill="white" stroke="#666666" points="68.88,-226.75 28.88,-226.75 28.88,-207.5 68.88,-207.5 68.88,-226.75"/>
<text xml:space="preserve" text-anchor="middle" x="48.88" y="-213.25" font-family="Helvetica,sans-Serif" font-size="10.00">Layer</text>
</a>
</g>
</g>
<!-- Node3&#45;&gt;Node2 -->
<g id="edge2_Node000002_Node000003" class="edge">
<title>Node3&#45;&gt;Node2</title>
<g id="a_edge2_Node000002_Node000003"><a xlink:title=" ">
<path fill="none" stroke="#63b8ff" d="M42.18,-196.41C37.92,-180.7 34.34,-158.37 40.88,-140 48.37,-118.92 65.59,-99.66 78.77,-87.15"/>
<polygon fill="#63b8ff" stroke="#63b8ff" points="38.82,-197.41 45.1,-205.94 45.51,-195.35 38.82,-197.41"/>
</a>
</g>
</g>
<!-- Node7 -->
<g id="Node000007" class="node">
<title>Node7</title>
<g id="a_Node000007"><a xlink:href="classarmnn_1_1_layer_with_parameters.html" target="_top" xlink:title=" ">
<polygon fill="white" stroke="#666666" points="160.12,-170.5 49.62,-170.5 49.62,-140 160.12,-140 160.12,-170.5"/>
<text xml:space="preserve" text-anchor="start" x="57.62" y="-157" font-family="Helvetica,sans-Serif" font-size="10.00">LayerWithParameters</text>
<text xml:space="preserve" text-anchor="middle" x="104.88" y="-145.75" font-family="Helvetica,sans-Serif" font-size="10.00">&lt; Parameters &gt;</text>
</a>
</g>
</g>
<!-- Node3&#45;&gt;Node7 -->
<g id="edge7_Node000007_Node000003" class="edge">
<title>Node3&#45;&gt;Node7</title>
<g id="a_edge7_Node000007_Node000003"><a xlink:title=" ">
<path fill="none" stroke="#63b8ff" d="M65.04,-198.84C73.42,-189.88 83.54,-179.06 91.48,-170.57"/>
<polygon fill="#63b8ff" stroke="#63b8ff" points="62.69,-196.23 58.41,-205.93 67.8,-201.01 62.69,-196.23"/>
</a>
</g>
</g>
<!-- Node4 -->
<g id="Node000004" class="node">
<title>Node4</title>
<g id="a_Node000004"><a xlink:href="classarmnn_1_1_i_connectable_layer.html" target="_top" xlink:title="Interface for a layer that is connectable to other layers via InputSlots and OutputSlots.">
<polygon fill="white" stroke="#666666" points="97.75,-283 0,-283 0,-263.75 97.75,-263.75 97.75,-283"/>
<text xml:space="preserve" text-anchor="middle" x="48.88" y="-269.5" font-family="Helvetica,sans-Serif" font-size="10.00">IConnectableLayer</text>
</a>
</g>
</g>
<!-- Node4&#45;&gt;Node3 -->
<g id="edge3_Node000003_Node000004" class="edge">
<title>Node4&#45;&gt;Node3</title>
<g id="a_edge3_Node000003_Node000004"><a xlink:title=" ">
<path fill="none" stroke="#63b8ff" d="M48.88,-252.19C48.88,-243.48 48.88,-233.74 48.88,-226.92"/>
<polygon fill="#63b8ff" stroke="#63b8ff" points="45.38,-251.9 48.88,-261.9 52.38,-251.9 45.38,-251.9"/>
</a>
</g>
</g>
<!-- Node5 -->
<g id="Node000005" class="node">
<title>Node5</title>
<g id="a_Node000005"><a xlink:href="structarmnn_1_1_batch_mat_mul_descriptor.html" target="_top" xlink:title="A BatchMatMulDescriptor for the BatchMatMul operator.">
<polygon fill="white" stroke="#666666" points="305.25,-164.88 186.5,-164.88 186.5,-145.62 305.25,-145.62 305.25,-164.88"/>
<text xml:space="preserve" text-anchor="middle" x="245.88" y="-151.38" font-family="Helvetica,sans-Serif" font-size="10.00">BatchMatMulDescriptor</text>
</a>
</g>
</g>
<!-- Node5&#45;&gt;Node2 -->
<g id="edge4_Node000002_Node000005" class="edge">
<title>Node5&#45;&gt;Node2</title>
<g id="a_edge4_Node000002_Node000005"><a xlink:title=" ">
<path fill="none" stroke="#9a32cd" stroke-dasharray="5,2" d="M241.56,-134.59C238.33,-124.31 232.87,-112.32 223.88,-104.75 207.31,-90.8 185.53,-82.76 164.65,-78.16"/>
<polygon fill="#9a32cd" stroke="#9a32cd" points="238.11,-135.25 244.02,-144.05 244.89,-133.49 238.11,-135.25"/>
</a>
</g>
<text xml:space="preserve" text-anchor="start" x="239.1" y="-109.5" font-family="Helvetica,sans-Serif" font-size="10.00" fill="grey">m_Param</text>
</g>
<!-- Node6 -->
<g id="Node000006" class="node">
<title>Node6</title>
<g id="a_Node000006"><a xlink:href="structarmnn_1_1_base_descriptor.html" target="_top" xlink:title="Base class for all descriptors.">
<polygon fill="white" stroke="#666666" points="287.62,-226.75 204.12,-226.75 204.12,-207.5 287.62,-207.5 287.62,-226.75"/>
<text xml:space="preserve" text-anchor="middle" x="245.88" y="-213.25" font-family="Helvetica,sans-Serif" font-size="10.00">BaseDescriptor</text>
</a>
</g>
</g>
<!-- Node6&#45;&gt;Node5 -->
<g id="edge5_Node000005_Node000006" class="edge">
<title>Node6&#45;&gt;Node5</title>
<g id="a_edge5_Node000005_Node000006"><a xlink:title=" ">
<path fill="none" stroke="#63b8ff" d="M245.88,-195.55C245.88,-185.13 245.88,-173.03 245.88,-165.04"/>
<polygon fill="#63b8ff" stroke="#63b8ff" points="242.38,-195.52 245.88,-205.52 249.38,-195.52 242.38,-195.52"/>
</a>
</g>
</g>
<!-- Node7&#45;&gt;Node2 -->
<g id="edge6_Node000002_Node000007" class="edge">
<title>Node7&#45;&gt;Node2</title>
<g id="a_edge6_Node000002_Node000007"><a xlink:title=" ">
<path fill="none" stroke="orange" stroke-dasharray="5,2" d="M98.16,-128.4C97.75,-126.25 97.4,-124.09 97.12,-122 95.58,-110.24 95.34,-96.77 95.44,-86.86"/>
<polygon fill="orange" stroke="orange" points="94.74,-129.13 100.34,-138.12 101.57,-127.6 94.74,-129.13"/>
</a>
</g>
<text xml:space="preserve" text-anchor="start" x="100.12" y="-109.5" font-family="Helvetica,sans-Serif" font-size="10.00" fill="grey">&lt; BatchMatMulDescriptor &gt;</text>
</g>
</g>
</svg>
