<?xml version="1.0" encoding="UTF-8" standalone="no"?>
<!DOCTYPE svg PUBLIC "-//W3C//DTD SVG 1.1//EN"
 "http://www.w3.org/Graphics/SVG/1.1/DTD/svg11.dtd">
<!-- Generated by graphviz version 14.0.2 (20251019.1705)
 -->
<!-- Title: InstanceNormalizationLayer Pages: 1 -->
<svg width="302pt" height="291pt"
 viewBox="0.00 0.00 302.00 291.00" xmlns="http://www.w3.org/2000/svg" xmlns:xlink="http://www.w3.org/1999/xlink">
<g id="graph0" class="graph" transform="scale(1 1) rotate(0) translate(4 287)">
<title>InstanceNormalizationLayer</title>
<!-- Node1 -->
<g id="Node000001" class="node">
<title>Node1</title>
<g id="a_Node000001"><a xlink:title="This layer represents an instance normalization operation.">
<polygon fill="#999999" stroke="#666666" points="157,-19.25 19.5,-19.25 19.5,0 157,0 157,-19.25"/>
<text xml:space="preserve" text-anchor="middle" x="88.25" y="-5.75" font-family="Helvetica,sans-Serif" font-size="10.00">InstanceNormalizationLayer</text>
</a>
</g>
</g>
<!-- Node2 -->
<g id="Node000002" class="node">
<title>Node2</title>
<g id="a_Node000002"><a xlink:href="classarmnn_1_1_layer_with_parameters.html" target="_top" xlink:title=" ">
<polygon fill="white" stroke="#666666" points="176.5,-86.75 0,-86.75 0,-56.25 176.5,-56.25 176.5,-86.75"/>
<text xml:space="preserve" text-anchor="start" x="8" y="-73.25" font-family="Helvetica,sans-Serif" font-size="10.00">LayerWithParameters</text>
<text xml:space="preserve" text-anchor="middle" x="88.25" y="-62" font-family="Helvetica,sans-Serif" font-size="10.00">&lt; InstanceNormalizationDescriptor &gt;</text>
</a>
</g>
</g>
<!-- Node2&#45;&gt;Node1 -->
<g id="edge1_Node000001_Node000002" class="edge">
<title>Node2&#45;&gt;Node1</title>
<g id="a_edge1_Node000001_Node000002"><a xlink:title=" ">
<path fill="none" stroke="#63b8ff" d="M88.25,-44.77C88.25,-35.79 88.25,-26.29 88.25,-19.6"/>
<polygon fill="#63b8ff" stroke="#63b8ff" points="84.75,-44.49 88.25,-54.49 91.75,-44.49 84.75,-44.49"/>
</a>
</g>
</g>
<!-- Node3 -->
<g id="Node000003" class="node">
<title>Node3</title>
<g id="a_Node000003"><a xlink:href="classarmnn_1_1_layer.html" target="_top" xlink:title=" ">
<polygon fill="white" stroke="#666666" points="104.25,-226.75 64.25,-226.75 64.25,-207.5 104.25,-207.5 104.25,-226.75"/>
<text xml:space="preserve" text-anchor="middle" x="84.25" y="-213.25" font-family="Helvetica,sans-Serif" font-size="10.00">Layer</text>
</a>
</g>
</g>
<!-- Node3&#45;&gt;Node2 -->
<g id="edge2_Node000002_Node000003" class="edge">
<title>Node3&#45;&gt;Node2</title>
<g id="a_edge2_Node000002_Node000003"><a xlink:title=" ">
<path fill="none" stroke="#63b8ff" d="M84.82,-195.84C85.64,-166.37 87.14,-112.46 87.85,-86.8"/>
<polygon fill="#63b8ff" stroke="#63b8ff" points="81.32,-195.53 84.54,-205.63 88.32,-195.73 81.32,-195.53"/>
</a>
</g>
</g>
<!-- Node5 -->
<g id="Node000005" class="node">
<title>Node5</title>
<g id="a_Node000005"><a xlink:href="classarmnn_1_1_layer_with_parameters.html" target="_top" xlink:title=" ">
<polygon fill="white" stroke="#666666" points="210.5,-170.5 100,-170.5 100,-140 210.5,-140 210.5,-170.5"/>
<text xml:space="preserve" text-anchor="start" x="108" y="-157" font-family="Helvetica,sans-Serif" font-size="10.00">LayerWithParameters</text>
<text xml:space="preserve" text-anchor="middle" x="155.25" y="-145.75" font-family="Helvetica,sans-Serif" font-size="10.00">&lt; Parameters &gt;</text>
</a>
</g>
</g>
<!-- Node3&#45;&gt;Node5 -->
<g id="edge5_Node000005_Node000003" class="edge">
<title>Node3&#45;&gt;Node5</title>
<g id="a_edge5_Node000005_Node000003"><a xlink:title=" ">
<path fill="none" stroke="#63b8ff" d="M103.69,-199.73C114.42,-190.68 127.64,-179.54 138,-170.8"/>
<polygon fill="#63b8ff" stroke="#63b8ff" points="101.58,-196.93 96.19,-206.06 106.09,-202.28 101.58,-196.93"/>
</a>
</g>
</g>
<!-- Node4 -->
<g id="Node000004" class="node">
<title>Node4</title>
<g id="a_Node000004"><a xlink:href="classarmnn_1_1_i_connectable_layer.html" target="_top" xlink:title="Interface for a layer that is connectable to other layers via InputSlots and OutputSlots.">
<polygon fill="white" stroke="#666666" points="133.12,-283 35.38,-283 35.38,-263.75 133.12,-263.75 133.12,-283"/>
<text xml:space="preserve" text-anchor="middle" x="84.25" y="-269.5" font-family="Helvetica,sans-Serif" font-size="10.00">IConnectableLayer</text>
</a>
</g>
</g>
<!-- Node4&#45;&gt;Node3 -->
<g id="edge3_Node000003_Node000004" class="edge">
<title>Node4&#45;&gt;Node3</title>
<g id="a_edge3_Node000003_Node000004"><a xlink:title=" ">
<path fill="none" stroke="#63b8ff" d="M84.25,-252.19C84.25,-243.48 84.25,-233.74 84.25,-226.92"/>
<polygon fill="#63b8ff" stroke="#63b8ff" points="80.75,-251.9 84.25,-261.9 87.75,-251.9 80.75,-251.9"/>
</a>
</g>
</g>
<!-- Node5&#45;&gt;Node2 -->
<g id="edge4_Node000002_Node000005" class="edge">
<title>Node5&#45;&gt;Node2</title>
<g id="a_edge4_Node000002_Node000005"><a xlink:title=" ">
<path fill="none" stroke="orange" stroke-dasharray="5,2" d="M136.14,-130.93C124.54,-116.78 110.1,-99.16 100.12,-86.99"/>
<polygon fill="orange" stroke="orange" points="133.27,-132.95 142.31,-138.46 138.68,-128.51 133.27,-132.95"/>
</a>
</g>
<text xml:space="preserve" text-anchor="start" x="130.75" y="-109.5" font-family="Helvetica,sans-Serif" font-size="10.00" fill="grey">&lt; InstanceNormalizationDescriptor &gt;</text>
</g>
</g>
</svg>
