<?xml version="1.0" encoding="UTF-8" standalone="no"?>
<!DOCTYPE svg PUBLIC "-//W3C//DTD SVG 1.1//EN"
 "http://www.w3.org/Graphics/SVG/1.1/DTD/svg11.dtd">
<!-- Generated by graphviz version 14.0.2 (20251019.1705)
 -->
<!-- Title: BroadcastToLayer Pages: 1 -->
<svg width="238pt" height="291pt"
 viewBox="0.00 0.00 238.00 291.00" xmlns="http://www.w3.org/2000/svg" xmlns:xlink="http://www.w3.org/1999/xlink">
<g id="graph0" class="graph" transform="scale(1 1) rotate(0) translate(4 287)">
<title>BroadcastToLayer</title>
<!-- Node1 -->
<g id="Node000001" class="node">
<title>Node1</title>
<g id="a_Node000001"><a xlink:title=" ">
<polygon fill="#999999" stroke="#666666" points="114.25,-19.25 19.5,-19.25 19.5,0 114.25,0 114.25,-19.25"/>
<text xml:space="preserve" text-anchor="middle" x="66.88" y="-5.75" font-family="Helvetica,sans-Serif" font-size="10.00">BroadcastToLayer</text>
</a>
</g>
</g>
<!-- Node2 -->
<g id="Node000002" class="node">
<title>Node2</title>
<g id="a_Node000002"><a xlink:href="classarmnn_1_1_layer_with_parameters.html" target="_top" xlink:title=" ">
<polygon fill="white" stroke="#666666" points="133.75,-86.75 0,-86.75 0,-56.25 133.75,-56.25 133.75,-86.75"/>
<text xml:space="preserve" text-anchor="start" x="8" y="-73.25" font-family="Helvetica,sans-Serif" font-size="10.00">LayerWithParameters</text>
<text xml:space="preserve" text-anchor="middle" x="66.88" y="-62" font-family="Helvetica,sans-Serif" font-size="10.00">&lt; BroadcastToDescriptor &gt;</text>
</a>
</g>
</g>
<!-- Node2&#45;&gt;Node1 -->
<g id="edge1_Node000001_Node000002" class="edge">
<title>Node2&#45;&gt;Node1</title>
<g id="a_edge1_Node000001_Node000002"><a xlink:title=" ">
<path fill="none" stroke="#63b8ff" d="M66.88,-44.77C66.88,-35.79 66.88,-26.29 66.88,-19.6"/>
<polygon fill="#63b8ff" stroke="#63b8ff" points="63.38,-44.49 66.88,-54.49 70.38,-44.49 63.38,-44.49"/>
</a>
</g>
</g>
<!-- Node3 -->
<g id="Node000003" class="node">
<title>Node3</title>
<g id="a_Node000003"><a xlink:href="classarmnn_1_1_layer.html" target="_top" xlink:title=" ">
<polygon fill="white" stroke="#666666" points="82.88,-226.75 42.88,-226.75 42.88,-207.5 82.88,-207.5 82.88,-226.75"/>
<text xml:space="preserve" text-anchor="middle" x="62.88" y="-213.25" font-family="Helvetica,sans-Serif" font-size="10.00">Layer</text>
</a>
</g>
</g>
<!-- Node3&#45;&gt;Node2 -->
<g id="edge2_Node000002_Node000003" class="edge">
<title>Node3&#45;&gt;Node2</title>
<g id="a_edge2_Node000002_Node000003"><a xlink:title=" ">
<path fill="none" stroke="#63b8ff" d="M63.44,-195.84C64.26,-166.37 65.76,-112.46 66.48,-86.8"/>
<polygon fill="#63b8ff" stroke="#63b8ff" points="59.95,-195.53 63.17,-205.63 66.94,-195.73 59.95,-195.53"/>
</a>
</g>
</g>
<!-- Node5 -->
<g id="Node000005" class="node">
<title>Node5</title>
<g id="a_Node000005"><a xlink:href="classarmnn_1_1_layer_with_parameters.html" target="_top" xlink:title=" ">
<polygon fill="white" stroke="#666666" points="189.12,-170.5 78.62,-170.5 78.62,-140 189.12,-140 189.12,-170.5"/>
<text xml:space="preserve" text-anchor="start" x="86.62" y="-157" font-family="Helvetica,sans-Serif" font-size="10.00">LayerWithParameters</text>
<text xml:space="preserve" text-anchor="middle" x="133.88" y="-145.75" font-family="Helvetica,sans-Serif" font-size="10.00">&lt; Parameters &gt;</text>
</a>
</g>
</g>
<!-- Node3&#45;&gt;Node5 -->
<g id="edge5_Node000005_Node000003" class="edge">
<title>Node3&#45;&gt;Node5</title>
<g id="a_edge5_Node000005_Node000003"><a xlink:title=" ">
<path fill="none" stroke="#63b8ff" d="M82.32,-199.73C93.05,-190.68 106.26,-179.54 116.62,-170.8"/>
<polygon fill="#63b8ff" stroke="#63b8ff" points="80.2,-196.93 74.82,-206.06 84.72,-202.28 80.2,-196.93"/>
</a>
</g>
</g>
<!-- Node4 -->
<g id="Node000004" class="node">
<title>Node4</title>
<g id="a_Node000004"><a xlink:href="classarmnn_1_1_i_connectable_layer.html" target="_top" xlink:title="Interface for a layer that is connectable to other layers via InputSlots and OutputSlots.">
<polygon fill="white" stroke="#666666" points="111.75,-283 14,-283 14,-263.75 111.75,-263.75 111.75,-283"/>
<text xml:space="preserve" text-anchor="middle" x="62.88" y="-269.5" font-family="Helvetica,sans-Serif" font-size="10.00">IConnectableLayer</text>
</a>
</g>
</g>
<!-- Node4&#45;&gt;Node3 -->
<g id="edge3_Node000003_Node000004" class="edge">
<title>Node4&#45;&gt;Node3</title>
<g id="a_edge3_Node000003_Node000004"><a xlink:title=" ">
<path fill="none" stroke="#63b8ff" d="M62.88,-252.19C62.88,-243.48 62.88,-233.74 62.88,-226.92"/>
<polygon fill="#63b8ff" stroke="#63b8ff" points="59.38,-251.9 62.88,-261.9 66.38,-251.9 59.38,-251.9"/>
</a>
</g>
</g>
<!-- Node5&#45;&gt;Node2 -->
<g id="edge4_Node000002_Node000005" class="edge">
<title>Node5&#45;&gt;Node2</title>
<g id="a_edge4_Node000002_Node000005"><a xlink:title=" ">
<path fill="none" stroke="orange" stroke-dasharray="5,2" d="M114.76,-130.93C103.16,-116.78 88.72,-99.16 78.75,-86.99"/>
<polygon fill="orange" stroke="orange" points="111.89,-132.95 120.94,-138.46 117.31,-128.51 111.89,-132.95"/>
</a>
</g>
<text xml:space="preserve" text-anchor="start" x="109.38" y="-109.5" font-family="Helvetica,sans-Serif" font-size="10.00" fill="grey">&lt; BroadcastToDescriptor &gt;</text>
</g>
</g>
</svg>
