<?xml version="1.0" encoding="UTF-8" standalone="no"?>
<!DOCTYPE svg PUBLIC "-//W3C//DTD SVG 1.1//EN"
 "http://www.w3.org/Graphics/SVG/1.1/DTD/svg11.dtd">
<!-- Generated by graphviz version 14.0.2 (20251019.1705)
 -->
<!-- Title: NeonFillWorkload Pages: 1 -->
<svg width="404pt" height="296pt"
 viewBox="0.00 0.00 404.00 296.00" xmlns="http://www.w3.org/2000/svg" xmlns:xlink="http://www.w3.org/1999/xlink">
<g id="graph0" class="graph" transform="scale(1 1) rotate(0) translate(4 292)">
<title>NeonFillWorkload</title>
<!-- Node1 -->
<g id="Node000001" class="node">
<title>Node1</title>
<g id="a_Node000001"><a xlink:title=" ">
<polygon fill="#999999" stroke="#666666" points="240.88,-19.25 148.38,-19.25 148.38,0 240.88,0 240.88,-19.25"/>
<text xml:space="preserve" text-anchor="middle" x="194.62" y="-5.75" font-family="Helvetica,sans-Serif" font-size="10.00">NeonFillWorkload</text>
</a>
</g>
</g>
<!-- Node2 -->
<g id="Node000002" class="node">
<title>Node2</title>
<g id="a_Node000002"><a xlink:href="classarmnn_1_1_neon_base_workload.html" target="_top" xlink:title=" ">
<polygon fill="white" stroke="#666666" points="270.88,-86.75 118.38,-86.75 118.38,-56.25 270.88,-56.25 270.88,-86.75"/>
<text xml:space="preserve" text-anchor="start" x="126.38" y="-73.25" font-family="Helvetica,sans-Serif" font-size="10.00">NeonBaseWorkload&lt; FillQueue</text>
<text xml:space="preserve" text-anchor="middle" x="194.62" y="-62" font-family="Helvetica,sans-Serif" font-size="10.00">Descriptor &gt;</text>
</a>
</g>
</g>
<!-- Node2&#45;&gt;Node1 -->
<g id="edge1_Node000001_Node000002" class="edge">
<title>Node2&#45;&gt;Node1</title>
<g id="a_edge1_Node000001_Node000002"><a xlink:title=" ">
<path fill="none" stroke="#63b8ff" d="M194.62,-44.77C194.62,-35.79 194.62,-26.29 194.62,-19.6"/>
<polygon fill="#63b8ff" stroke="#63b8ff" points="191.13,-44.49 194.63,-54.49 198.13,-44.49 191.13,-44.49"/>
</a>
</g>
</g>
<!-- Node3 -->
<g id="Node000003" class="node">
<title>Node3</title>
<g id="a_Node000003"><a xlink:href="classarmnn_1_1_base_workload.html" target="_top" xlink:title=" ">
<polygon fill="white" stroke="#666666" points="183.25,-159.25 0,-159.25 0,-140 183.25,-140 183.25,-159.25"/>
<text xml:space="preserve" text-anchor="middle" x="91.62" y="-145.75" font-family="Helvetica,sans-Serif" font-size="10.00">BaseWorkload&lt; FillQueueDescriptor &gt;</text>
</a>
</g>
</g>
<!-- Node3&#45;&gt;Node2 -->
<g id="edge2_Node000002_Node000003" class="edge">
<title>Node3&#45;&gt;Node2</title>
<g id="a_edge2_Node000002_Node000003"><a xlink:title=" ">
<path fill="none" stroke="#63b8ff" d="M113.09,-132.76C131.34,-119.27 157.34,-100.06 175.03,-86.98"/>
<polygon fill="#63b8ff" stroke="#63b8ff" points="111.02,-129.94 105.06,-138.69 115.18,-135.56 111.02,-129.94"/>
</a>
</g>
</g>
<!-- Node4 -->
<g id="Node000004" class="node">
<title>Node4</title>
<g id="a_Node000004"><a xlink:href="classarmnn_1_1_i_workload.html" target="_top" xlink:title="Workload interface to enqueue a layer computation.">
<polygon fill="white" stroke="#666666" points="139.38,-288 79.88,-288 79.88,-268.75 139.38,-268.75 139.38,-288"/>
<text xml:space="preserve" text-anchor="middle" x="109.62" y="-274.5" font-family="Helvetica,sans-Serif" font-size="10.00">IWorkload</text>
</a>
</g>
</g>
<!-- Node4&#45;&gt;Node3 -->
<g id="edge3_Node000003_Node000004" class="edge">
<title>Node4&#45;&gt;Node3</title>
<g id="a_edge3_Node000003_Node000004"><a xlink:title=" ">
<path fill="none" stroke="#63b8ff" d="M68.87,-268.34C49.19,-261.71 27.35,-250.47 15.62,-231.75 -3.02,-201.98 43.26,-173.54 71.57,-159.58"/>
<polygon fill="#63b8ff" stroke="#63b8ff" points="67.77,-271.67 78.36,-271.22 69.8,-264.97 67.77,-271.67"/>
</a>
</g>
</g>
<!-- Node5 -->
<g id="Node000005" class="node">
<title>Node5</title>
<g id="a_Node000005"><a xlink:href="classarmnn_1_1_base_workload.html" target="_top" xlink:title=" ">
<polygon fill="white" stroke="#666666" points="194.88,-231.75 24.38,-231.75 24.38,-212.5 194.88,-212.5 194.88,-231.75"/>
<text xml:space="preserve" text-anchor="middle" x="109.62" y="-218.25" font-family="Helvetica,sans-Serif" font-size="10.00">BaseWorkload&lt; QueueDescriptor &gt;</text>
</a>
</g>
</g>
<!-- Node4&#45;&gt;Node5 -->
<g id="edge5_Node000005_Node000004" class="edge">
<title>Node4&#45;&gt;Node5</title>
<g id="a_edge5_Node000005_Node000004"><a xlink:title=" ">
<path fill="none" stroke="#63b8ff" d="M109.62,-257.19C109.62,-248.48 109.62,-238.74 109.62,-231.92"/>
<polygon fill="#63b8ff" stroke="#63b8ff" points="106.13,-256.9 109.63,-266.9 113.13,-256.9 106.13,-256.9"/>
</a>
</g>
</g>
<!-- Node7 -->
<g id="Node000007" class="node">
<title>Node7</title>
<g id="a_Node000007"><a xlink:href="classarmnn_1_1_base_workload.html" target="_top" xlink:title=" ">
<polygon fill="white" stroke="#666666" points="383.88,-231.75 213.38,-231.75 213.38,-212.5 383.88,-212.5 383.88,-231.75"/>
<text xml:space="preserve" text-anchor="middle" x="298.62" y="-218.25" font-family="Helvetica,sans-Serif" font-size="10.00">BaseWorkload&lt; QueueDescriptor &gt;</text>
</a>
</g>
</g>
<!-- Node4&#45;&gt;Node7 -->
<g id="edge8_Node000007_Node000004" class="edge">
<title>Node4&#45;&gt;Node7</title>
<g id="a_edge8_Node000007_Node000004"><a xlink:title=" ">
<path fill="none" stroke="#63b8ff" d="M150.36,-265.68C185.28,-255.66 234.9,-241.42 266.93,-232.22"/>
<polygon fill="#63b8ff" stroke="#63b8ff" points="149.67,-262.24 141.03,-268.36 151.6,-268.97 149.67,-262.24"/>
</a>
</g>
</g>
<!-- Node5&#45;&gt;Node3 -->
<g id="edge4_Node000003_Node000005" class="edge">
<title>Node5&#45;&gt;Node3</title>
<g id="a_edge4_Node000003_Node000005"><a xlink:title=" ">
<path fill="none" stroke="orange" stroke-dasharray="5,2" d="M104.5,-201.05C101.02,-187.44 96.6,-170.1 93.94,-159.7"/>
<polygon fill="orange" stroke="orange" points="101.11,-201.91 106.97,-210.73 107.89,-200.17 101.11,-201.91"/>
</a>
</g>
<text xml:space="preserve" text-anchor="start" x="105.77" y="-182" font-family="Helvetica,sans-Serif" font-size="10.00" fill="grey">&lt; FillQueueDescriptor &gt;</text>
</g>
<!-- Node6 -->
<g id="Node000006" class="node">
<title>Node6</title>
<g id="a_Node000006"><a xlink:href="classarmnn_1_1_neon_base_workload.html" target="_top" xlink:title=" ">
<polygon fill="white" stroke="#666666" points="395.5,-159.25 201.75,-159.25 201.75,-140 395.5,-140 395.5,-159.25"/>
<text xml:space="preserve" text-anchor="middle" x="298.62" y="-145.75" font-family="Helvetica,sans-Serif" font-size="10.00">NeonBaseWorkload&lt; QueueDescriptor &gt;</text>
</a>
</g>
</g>
<!-- Node6&#45;&gt;Node2 -->
<g id="edge6_Node000002_Node000006" class="edge">
<title>Node6&#45;&gt;Node2</title>
<g id="a_edge6_Node000002_Node000006"><a xlink:title=" ">
<path fill="none" stroke="orange" stroke-dasharray="5,2" d="M277.21,-132.95C258.77,-119.45 232.36,-100.12 214.41,-86.98"/>
<polygon fill="orange" stroke="orange" points="274.93,-135.62 285.07,-138.7 279.06,-129.97 274.93,-135.62"/>
</a>
</g>
<text xml:space="preserve" text-anchor="start" x="265.02" y="-109.5" font-family="Helvetica,sans-Serif" font-size="10.00" fill="grey">&lt; FillQueueDescriptor &gt;</text>
</g>
<!-- Node7&#45;&gt;Node6 -->
<g id="edge7_Node000006_Node000007" class="edge">
<title>Node7&#45;&gt;Node6</title>
<g id="a_edge7_Node000006_Node000007"><a xlink:title=" ">
<path fill="none" stroke="#63b8ff" d="M298.62,-201.05C298.62,-187.44 298.62,-170.1 298.62,-159.7"/>
<polygon fill="#63b8ff" stroke="#63b8ff" points="295.13,-200.68 298.63,-210.68 302.13,-200.68 295.13,-200.68"/>
</a>
</g>
</g>
</g>
</svg>
