<?xml version="1.0" encoding="UTF-8" standalone="no"?>
<!DOCTYPE svg PUBLIC "-//W3C//DTD SVG 1.1//EN"
 "http://www.w3.org/Graphics/SVG/1.1/DTD/svg11.dtd">
<!-- Generated by graphviz version 14.0.2 (20251019.1705)
 -->
<!-- Title: RefFillWorkload Pages: 1 -->
<svg width="396pt" height="296pt"
 viewBox="0.00 0.00 396.00 296.00" xmlns="http://www.w3.org/2000/svg" xmlns:xlink="http://www.w3.org/1999/xlink">
<g id="graph0" class="graph" transform="scale(1 1) rotate(0) translate(4 292)">
<title>RefFillWorkload</title>
<!-- Node1 -->
<g id="Node000001" class="node">
<title>Node1</title>
<g id="a_Node000001"><a xlink:title=" ">
<polygon fill="#999999" stroke="#666666" points="235.12,-19.25 150.12,-19.25 150.12,0 235.12,0 235.12,-19.25"/>
<text xml:space="preserve" text-anchor="middle" x="192.62" y="-5.75" font-family="Helvetica,sans-Serif" font-size="10.00">RefFillWorkload</text>
</a>
</g>
</g>
<!-- Node2 -->
<g id="Node000002" class="node">
<title>Node2</title>
<g id="a_Node000002"><a xlink:href="classarmnn_1_1_ref_base_workload.html" target="_top" xlink:title=" ">
<polygon fill="white" stroke="#666666" points="265.12,-86.75 120.12,-86.75 120.12,-56.25 265.12,-56.25 265.12,-86.75"/>
<text xml:space="preserve" text-anchor="start" x="128.12" y="-73.25" font-family="Helvetica,sans-Serif" font-size="10.00">RefBaseWorkload&lt; FillQueue</text>
<text xml:space="preserve" text-anchor="middle" x="192.62" y="-62" font-family="Helvetica,sans-Serif" font-size="10.00">Descriptor &gt;</text>
</a>
</g>
</g>
<!-- Node2&#45;&gt;Node1 -->
<g id="edge1_Node000001_Node000002" class="edge">
<title>Node2&#45;&gt;Node1</title>
<g id="a_edge1_Node000001_Node000002"><a xlink:title=" ">
<path fill="none" stroke="#63b8ff" d="M192.62,-44.77C192.62,-35.79 192.62,-26.29 192.62,-19.6"/>
<polygon fill="#63b8ff" stroke="#63b8ff" points="189.13,-44.49 192.63,-54.49 196.13,-44.49 189.13,-44.49"/>
</a>
</g>
</g>
<!-- Node3 -->
<g id="Node000003" class="node">
<title>Node3</title>
<g id="a_Node000003"><a xlink:href="classarmnn_1_1_base_workload.html" target="_top" xlink:title=" ">
<polygon fill="white" stroke="#666666" points="183.25,-159.25 0,-159.25 0,-140 183.25,-140 183.25,-159.25"/>
<text xml:space="preserve" text-anchor="middle" x="91.62" y="-145.75" font-family="Helvetica,sans-Serif" font-size="10.00">BaseWorkload&lt; FillQueueDescriptor &gt;</text>
</a>
</g>
</g>
<!-- Node3&#45;&gt;Node2 -->
<g id="edge2_Node000002_Node000003" class="edge">
<title>Node3&#45;&gt;Node2</title>
<g id="a_edge2_Node000002_Node000003"><a xlink:title=" ">
<path fill="none" stroke="#63b8ff" d="M112.67,-132.76C130.57,-119.27 156.06,-100.06 173.41,-86.98"/>
<polygon fill="#63b8ff" stroke="#63b8ff" points="110.7,-129.87 104.82,-138.68 114.91,-135.46 110.7,-129.87"/>
</a>
</g>
</g>
<!-- Node4 -->
<g id="Node000004" class="node">
<title>Node4</title>
<g id="a_Node000004"><a xlink:href="classarmnn_1_1_i_workload.html" target="_top" xlink:title="Workload interface to enqueue a layer computation.">
<polygon fill="white" stroke="#666666" points="135.38,-288 75.88,-288 75.88,-268.75 135.38,-268.75 135.38,-288"/>
<text xml:space="preserve" text-anchor="middle" x="105.62" y="-274.5" font-family="Helvetica,sans-Serif" font-size="10.00">IWorkload</text>
</a>
</g>
</g>
<!-- Node4&#45;&gt;Node3 -->
<g id="edge3_Node000003_Node000004" class="edge">
<title>Node4&#45;&gt;Node3</title>
<g id="a_edge3_Node000003_Node000004"><a xlink:title=" ">
<path fill="none" stroke="#63b8ff" d="M64.87,-268.34C45.19,-261.71 23.35,-250.47 11.62,-231.75 -7.38,-201.41 40.48,-173.42 70.16,-159.62"/>
<polygon fill="#63b8ff" stroke="#63b8ff" points="63.77,-271.67 74.36,-271.22 65.8,-264.97 63.77,-271.67"/>
</a>
</g>
</g>
<!-- Node5 -->
<g id="Node000005" class="node">
<title>Node5</title>
<g id="a_Node000005"><a xlink:href="classarmnn_1_1_base_workload.html" target="_top" xlink:title=" ">
<polygon fill="white" stroke="#666666" points="190.88,-231.75 20.38,-231.75 20.38,-212.5 190.88,-212.5 190.88,-231.75"/>
<text xml:space="preserve" text-anchor="middle" x="105.62" y="-218.25" font-family="Helvetica,sans-Serif" font-size="10.00">BaseWorkload&lt; QueueDescriptor &gt;</text>
</a>
</g>
</g>
<!-- Node4&#45;&gt;Node5 -->
<g id="edge5_Node000005_Node000004" class="edge">
<title>Node4&#45;&gt;Node5</title>
<g id="a_edge5_Node000005_Node000004"><a xlink:title=" ">
<path fill="none" stroke="#63b8ff" d="M105.62,-257.19C105.62,-248.48 105.62,-238.74 105.62,-231.92"/>
<polygon fill="#63b8ff" stroke="#63b8ff" points="102.13,-256.9 105.63,-266.9 109.13,-256.9 102.13,-256.9"/>
</a>
</g>
</g>
<!-- Node7 -->
<g id="Node000007" class="node">
<title>Node7</title>
<g id="a_Node000007"><a xlink:href="classarmnn_1_1_base_workload.html" target="_top" xlink:title=" ">
<polygon fill="white" stroke="#666666" points="379.88,-231.75 209.38,-231.75 209.38,-212.5 379.88,-212.5 379.88,-231.75"/>
<text xml:space="preserve" text-anchor="middle" x="294.62" y="-218.25" font-family="Helvetica,sans-Serif" font-size="10.00">BaseWorkload&lt; QueueDescriptor &gt;</text>
</a>
</g>
</g>
<!-- Node4&#45;&gt;Node7 -->
<g id="edge8_Node000007_Node000004" class="edge">
<title>Node4&#45;&gt;Node7</title>
<g id="a_edge8_Node000007_Node000004"><a xlink:title=" ">
<path fill="none" stroke="#63b8ff" d="M146.36,-265.68C181.28,-255.66 230.9,-241.42 262.93,-232.22"/>
<polygon fill="#63b8ff" stroke="#63b8ff" points="145.67,-262.24 137.03,-268.36 147.6,-268.97 145.67,-262.24"/>
</a>
</g>
</g>
<!-- Node5&#45;&gt;Node3 -->
<g id="edge4_Node000003_Node000005" class="edge">
<title>Node5&#45;&gt;Node3</title>
<g id="a_edge4_Node000003_Node000005"><a xlink:title=" ">
<path fill="none" stroke="orange" stroke-dasharray="5,2" d="M101.64,-201.05C98.94,-187.44 95.49,-170.1 93.43,-159.7"/>
<polygon fill="orange" stroke="orange" points="98.18,-201.58 103.56,-210.71 105.04,-200.22 98.18,-201.58"/>
</a>
</g>
<text xml:space="preserve" text-anchor="start" x="103.29" y="-182" font-family="Helvetica,sans-Serif" font-size="10.00" fill="grey">&lt; FillQueueDescriptor &gt;</text>
</g>
<!-- Node6 -->
<g id="Node000006" class="node">
<title>Node6</title>
<g id="a_Node000006"><a xlink:href="classarmnn_1_1_ref_base_workload.html" target="_top" xlink:title=" ">
<polygon fill="white" stroke="#666666" points="387.75,-159.25 201.5,-159.25 201.5,-140 387.75,-140 387.75,-159.25"/>
<text xml:space="preserve" text-anchor="middle" x="294.62" y="-145.75" font-family="Helvetica,sans-Serif" font-size="10.00">RefBaseWorkload&lt; QueueDescriptor &gt;</text>
</a>
</g>
</g>
<!-- Node6&#45;&gt;Node2 -->
<g id="edge6_Node000002_Node000006" class="edge">
<title>Node6&#45;&gt;Node2</title>
<g id="a_edge6_Node000002_Node000006"><a xlink:title=" ">
<path fill="none" stroke="orange" stroke-dasharray="5,2" d="M273.37,-132.76C255.29,-119.27 229.55,-100.06 212.03,-86.98"/>
<polygon fill="orange" stroke="orange" points="271.2,-135.51 281.31,-138.69 275.39,-129.9 271.2,-135.51"/>
</a>
</g>
<text xml:space="preserve" text-anchor="start" x="261.72" y="-109.5" font-family="Helvetica,sans-Serif" font-size="10.00" fill="grey">&lt; FillQueueDescriptor &gt;</text>
</g>
<!-- Node7&#45;&gt;Node6 -->
<g id="edge7_Node000006_Node000007" class="edge">
<title>Node7&#45;&gt;Node6</title>
<g id="a_edge7_Node000006_Node000007"><a xlink:title=" ">
<path fill="none" stroke="#63b8ff" d="M294.62,-201.05C294.62,-187.44 294.62,-170.1 294.62,-159.7"/>
<polygon fill="#63b8ff" stroke="#63b8ff" points="291.13,-200.68 294.63,-210.68 298.13,-200.68 291.13,-200.68"/>
</a>
</g>
</g>
</g>
</svg>
