<?xml version="1.0" encoding="UTF-8" standalone="no"?>
<!DOCTYPE svg PUBLIC "-//W3C//DTD SVG 1.1//EN"
 "http://www.w3.org/Graphics/SVG/1.1/DTD/svg11.dtd">
<!-- Generated by graphviz version 14.0.2 (20251019.1705)
 -->
<!-- Title: ClInstanceNormalizationWorkload Pages: 1 -->
<svg width="1174pt" height="95pt"
 viewBox="0.00 0.00 1174.00 95.00" xmlns="http://www.w3.org/2000/svg" xmlns:xlink="http://www.w3.org/1999/xlink">
<g id="graph0" class="graph" transform="scale(1 1) rotate(0) translate(4 91.24)">
<title>ClInstanceNormalizationWorkload</title>
<!-- Node1 -->
<g id="Node000001" class="node">
<title>Node1</title>
<g id="a_Node000001"><a xlink:title=" ">
<polygon fill="#999999" stroke="#666666" points="1165.75,-43.25 1002,-43.25 1002,-24 1165.75,-24 1165.75,-43.25"/>
<text xml:space="preserve" text-anchor="middle" x="1083.88" y="-29.75" font-family="Helvetica,sans-Serif" font-size="10.00">ClInstanceNormalizationWorkload</text>
</a>
</g>
</g>
<!-- Node2 -->
<g id="Node000002" class="node">
<title>Node2</title>
<g id="a_Node000002"><a xlink:href="classarmnn_1_1_cl_base_workload.html" target="_top" xlink:title=" ">
<polygon fill="white" stroke="#666666" points="965,-48.88 806.5,-48.88 806.5,-18.38 965,-18.38 965,-48.88"/>
<text xml:space="preserve" text-anchor="start" x="814.5" y="-35.38" font-family="Helvetica,sans-Serif" font-size="10.00">ClBaseWorkload&lt; Instance</text>
<text xml:space="preserve" text-anchor="middle" x="885.75" y="-24.12" font-family="Helvetica,sans-Serif" font-size="10.00">NormalizationQueueDescriptor &gt;</text>
</a>
</g>
</g>
<!-- Node2&#45;&gt;Node1 -->
<g id="edge1_Node000001_Node000002" class="edge">
<title>Node2&#45;&gt;Node1</title>
<g id="a_edge1_Node000001_Node000002"><a xlink:title=" ">
<path fill="none" stroke="#63b8ff" d="M976.68,-33.62C985,-33.62 993.41,-33.62 1001.65,-33.62"/>
<polygon fill="#63b8ff" stroke="#63b8ff" points="976.91,-30.13 966.91,-33.63 976.9,-37.13 976.91,-30.13"/>
</a>
</g>
</g>
<!-- Node3 -->
<g id="Node000003" class="node">
<title>Node3</title>
<g id="a_Node000003"><a xlink:href="classarmnn_1_1_base_workload.html" target="_top" xlink:title=" ">
<polygon fill="white" stroke="#666666" points="629.5,-72.88 444,-72.88 444,-42.38 629.5,-42.38 629.5,-72.88"/>
<text xml:space="preserve" text-anchor="start" x="452" y="-59.38" font-family="Helvetica,sans-Serif" font-size="10.00">BaseWorkload&lt; InstanceNormalization</text>
<text xml:space="preserve" text-anchor="middle" x="536.75" y="-48.12" font-family="Helvetica,sans-Serif" font-size="10.00">QueueDescriptor &gt;</text>
</a>
</g>
</g>
<!-- Node3&#45;&gt;Node2 -->
<g id="edge2_Node000002_Node000003" class="edge">
<title>Node3&#45;&gt;Node2</title>
<g id="a_edge2_Node000002_Node000003"><a xlink:title=" ">
<path fill="none" stroke="#63b8ff" d="M641.14,-52.96C686.4,-50.64 740.12,-47.49 788.5,-43.62 794.28,-43.16 800.25,-42.65 806.25,-42.09"/>
<polygon fill="#63b8ff" stroke="#63b8ff" points="641.14,-49.46 631.33,-53.46 641.5,-56.45 641.14,-49.46"/>
</a>
</g>
</g>
<!-- Node4 -->
<g id="Node000004" class="node">
<title>Node4</title>
<g id="a_Node000004"><a xlink:href="classarmnn_1_1_i_workload.html" target="_top" xlink:title="Workload interface to enqueue a layer computation.">
<polygon fill="white" stroke="#666666" points="59.5,-56.25 0,-56.25 0,-37 59.5,-37 59.5,-56.25"/>
<text xml:space="preserve" text-anchor="middle" x="29.75" y="-42.75" font-family="Helvetica,sans-Serif" font-size="10.00">IWorkload</text>
</a>
</g>
</g>
<!-- Node4&#45;&gt;Node3 -->
<g id="edge3_Node000003_Node000004" class="edge">
<title>Node4&#45;&gt;Node3</title>
<g id="a_edge3_Node000003_Node000004"><a xlink:title=" ">
<path fill="none" stroke="#63b8ff" d="M70.92,-59.86C79.29,-62.15 88.12,-64.25 96.5,-65.62 241.11,-89.42 280.1,-92.46 426,-78.62 438.36,-77.45 451.4,-75.55 464.01,-73.37"/>
<polygon fill="#63b8ff" stroke="#63b8ff" points="71.9,-56.5 61.32,-57.07 69.94,-63.22 71.9,-56.5"/>
</a>
</g>
</g>
<!-- Node5 -->
<g id="Node000005" class="node">
<title>Node5</title>
<g id="a_Node000005"><a xlink:href="classarmnn_1_1_base_workload.html" target="_top" xlink:title=" ">
<polygon fill="white" stroke="#666666" points="267,-56.25 96.5,-56.25 96.5,-37 267,-37 267,-56.25"/>
<text xml:space="preserve" text-anchor="middle" x="181.75" y="-42.75" font-family="Helvetica,sans-Serif" font-size="10.00">BaseWorkload&lt; QueueDescriptor &gt;</text>
</a>
</g>
</g>
<!-- Node4&#45;&gt;Node5 -->
<g id="edge5_Node000005_Node000004" class="edge">
<title>Node4&#45;&gt;Node5</title>
<g id="a_edge5_Node000005_Node000004"><a xlink:title=" ">
<path fill="none" stroke="#63b8ff" d="M71.02,-46.62C78.87,-46.62 87.36,-46.62 96.04,-46.62"/>
<polygon fill="#63b8ff" stroke="#63b8ff" points="71.19,-43.13 61.19,-46.63 71.19,-50.13 71.19,-43.13"/>
</a>
</g>
</g>
<!-- Node7 -->
<g id="Node000007" class="node">
<title>Node7</title>
<g id="a_Node000007"><a xlink:href="classarmnn_1_1_base_workload.html" target="_top" xlink:title=" ">
<polygon fill="white" stroke="#666666" points="267,-19.25 96.5,-19.25 96.5,0 267,0 267,-19.25"/>
<text xml:space="preserve" text-anchor="middle" x="181.75" y="-5.75" font-family="Helvetica,sans-Serif" font-size="10.00">BaseWorkload&lt; QueueDescriptor &gt;</text>
</a>
</g>
</g>
<!-- Node4&#45;&gt;Node7 -->
<g id="edge8_Node000007_Node000004" class="edge">
<title>Node4&#45;&gt;Node7</title>
<g id="a_edge8_Node000007_Node000004"><a xlink:title=" ">
<path fill="none" stroke="#63b8ff" d="M70.61,-34.62C79.12,-32.19 88.09,-29.74 96.5,-27.62 107.53,-24.86 119.43,-22.15 130.72,-19.7"/>
<polygon fill="#63b8ff" stroke="#63b8ff" points="69.84,-31.19 61.21,-37.34 71.79,-37.92 69.84,-31.19"/>
</a>
</g>
</g>
<!-- Node5&#45;&gt;Node3 -->
<g id="edge4_Node000003_Node000005" class="edge">
<title>Node5&#45;&gt;Node3</title>
<g id="a_edge4_Node000003_Node000005"><a xlink:title=" ">
<path fill="none" stroke="orange" stroke-dasharray="5,2" d="M278.72,-46.14C280.83,-46.14 282.93,-46.13 285,-46.12 347.67,-45.97 363.42,-42.86 426,-46.12 431.74,-46.42 437.64,-46.81 443.59,-47.26"/>
<polygon fill="orange" stroke="orange" points="278.78,-42.64 268.8,-46.17 278.81,-49.64 278.78,-42.64"/>
</a>
</g>
<text xml:space="preserve" text-anchor="start" x="288" y="-66.12" font-family="Helvetica,sans-Serif" font-size="10.00" fill="grey">&lt; InstanceNormalizationQueue</text>
<text xml:space="preserve" text-anchor="start" x="288" y="-50.88" font-family="Helvetica,sans-Serif" font-size="10.00" fill="grey">  Descriptor &gt;</text>
</g>
<!-- Node6 -->
<g id="Node000006" class="node">
<title>Node6</title>
<g id="a_Node000006"><a xlink:href="classarmnn_1_1_cl_base_workload.html" target="_top" xlink:title=" ">
<polygon fill="white" stroke="#666666" points="626.88,-19.25 446.62,-19.25 446.62,0 626.88,0 626.88,-19.25"/>
<text xml:space="preserve" text-anchor="middle" x="536.75" y="-5.75" font-family="Helvetica,sans-Serif" font-size="10.00">ClBaseWorkload&lt; QueueDescriptor &gt;</text>
</a>
</g>
</g>
<!-- Node6&#45;&gt;Node2 -->
<g id="edge6_Node000002_Node000006" class="edge">
<title>Node6&#45;&gt;Node2</title>
<g id="a_edge6_Node000002_Node000006"><a xlink:title=" ">
<path fill="none" stroke="orange" stroke-dasharray="5,2" d="M638.67,-2.02C684.58,-0.25 739.48,-0.5 788.5,-7.12 804.82,-9.33 822.28,-13.55 837.79,-17.98"/>
<polygon fill="orange" stroke="orange" points="638.56,1.48 628.72,-2.44 638.86,-5.51 638.56,1.48"/>
</a>
</g>
<text xml:space="preserve" text-anchor="start" x="650.5" y="-27.12" font-family="Helvetica,sans-Serif" font-size="10.00" fill="grey">&lt; InstanceNormalizationQueue</text>
<text xml:space="preserve" text-anchor="start" x="650.5" y="-11.88" font-family="Helvetica,sans-Serif" font-size="10.00" fill="grey">  Descriptor &gt;</text>
</g>
<!-- Node7&#45;&gt;Node6 -->
<g id="edge7_Node000006_Node000007" class="edge">
<title>Node7&#45;&gt;Node6</title>
<g id="a_edge7_Node000006_Node000007"><a xlink:title=" ">
<path fill="none" stroke="#63b8ff" d="M278.6,-9.62C330.86,-9.62 395.13,-9.62 446.34,-9.62"/>
<polygon fill="#63b8ff" stroke="#63b8ff" points="278.82,-6.13 268.82,-9.63 278.82,-13.13 278.82,-6.13"/>
</a>
</g>
</g>
</g>
</svg>
