<?xml version="1.0" encoding="UTF-8" standalone="no"?>
<!DOCTYPE svg PUBLIC "-//W3C//DTD SVG 1.1//EN"
 "http://www.w3.org/Graphics/SVG/1.1/DTD/svg11.dtd">
<!-- Generated by graphviz version 14.0.2 (20251019.1705)
 -->
<!-- Title: TosaRefBaseWorkload&lt; QueueDescriptor &gt; Pages: 1 -->
<svg width="185pt" height="167pt"
 viewBox="0.00 0.00 185.00 167.00" xmlns="http://www.w3.org/2000/svg" xmlns:xlink="http://www.w3.org/1999/xlink">
<g id="graph0" class="graph" transform="scale(1 1) rotate(0) translate(4 163.25)">
<title>TosaRefBaseWorkload&lt; QueueDescriptor &gt;</title>
<!-- Node1 -->
<g id="Node000001" class="node">
<title>Node1</title>
<g id="a_Node000001"><a xlink:title=" ">
<polygon fill="#999999" stroke="#666666" points="143.12,-30.5 27.38,-30.5 27.38,0 143.12,0 143.12,-30.5"/>
<text xml:space="preserve" text-anchor="start" x="35.38" y="-17" font-family="Helvetica,sans-Serif" font-size="10.00">TosaRefBaseWorkload</text>
<text xml:space="preserve" text-anchor="middle" x="85.25" y="-5.75" font-family="Helvetica,sans-Serif" font-size="10.00">&lt; QueueDescriptor &gt;</text>
</a>
</g>
</g>
<!-- Node2 -->
<g id="Node000002" class="node">
<title>Node2</title>
<g id="a_Node000002"><a xlink:href="classarmnn_1_1_base_workload.html" target="_top" xlink:title=" ">
<polygon fill="white" stroke="#666666" points="170.5,-86.75 0,-86.75 0,-67.5 170.5,-67.5 170.5,-86.75"/>
<text xml:space="preserve" text-anchor="middle" x="85.25" y="-73.25" font-family="Helvetica,sans-Serif" font-size="10.00">BaseWorkload&lt; QueueDescriptor &gt;</text>
</a>
</g>
</g>
<!-- Node2&#45;&gt;Node1 -->
<g id="edge1_Node000001_Node000002" class="edge">
<title>Node2&#45;&gt;Node1</title>
<g id="a_edge1_Node000001_Node000002"><a xlink:title=" ">
<path fill="none" stroke="#63b8ff" d="M85.25,-55.69C85.25,-47.43 85.25,-38.09 85.25,-30.57"/>
<polygon fill="#63b8ff" stroke="#63b8ff" points="81.75,-55.52 85.25,-65.52 88.75,-55.52 81.75,-55.52"/>
</a>
</g>
</g>
<!-- Node3 -->
<g id="Node000003" class="node">
<title>Node3</title>
<g id="a_Node000003"><a xlink:href="classarmnn_1_1_i_workload.html" target="_top" xlink:title="Workload interface to enqueue a layer computation.">
<polygon fill="white" stroke="#666666" points="69,-159.25 9.5,-159.25 9.5,-140 69,-140 69,-159.25"/>
<text xml:space="preserve" text-anchor="middle" x="39.25" y="-145.75" font-family="Helvetica,sans-Serif" font-size="10.00">IWorkload</text>
</a>
</g>
</g>
<!-- Node3&#45;&gt;Node2 -->
<g id="edge2_Node000002_Node000003" class="edge">
<title>Node3&#45;&gt;Node2</title>
<g id="a_edge2_Node000002_Node000003"><a xlink:title=" ">
<path fill="none" stroke="#63b8ff" d="M51.27,-130.2C60.3,-116.37 72.27,-98.02 79.33,-87.2"/>
<polygon fill="#63b8ff" stroke="#63b8ff" points="48.44,-128.14 45.9,-138.43 54.3,-131.97 48.44,-128.14"/>
</a>
</g>
</g>
<!-- Node4 -->
<g id="Node000004" class="node">
<title>Node4</title>
<g id="a_Node000004"><a xlink:href="structarmnn_1_1_queue_descriptor.html" target="_top" xlink:title=" ">
<polygon fill="white" stroke="#666666" points="177,-159.25 87.5,-159.25 87.5,-140 177,-140 177,-159.25"/>
<text xml:space="preserve" text-anchor="middle" x="132.25" y="-145.75" font-family="Helvetica,sans-Serif" font-size="10.00">QueueDescriptor</text>
</a>
</g>
</g>
<!-- Node4&#45;&gt;Node2 -->
<g id="edge3_Node000002_Node000004" class="edge">
<title>Node4&#45;&gt;Node2</title>
<g id="a_edge3_Node000002_Node000004"><a xlink:title=" ">
<path fill="none" stroke="#9a32cd" stroke-dasharray="5,2" d="M119.97,-130.2C110.74,-116.37 98.51,-98.02 91.3,-87.2"/>
<polygon fill="#9a32cd" stroke="#9a32cd" points="117,-132.06 125.46,-138.44 122.82,-128.17 117,-132.06"/>
</a>
</g>
<text xml:space="preserve" text-anchor="start" x="117.34" y="-109.5" font-family="Helvetica,sans-Serif" font-size="10.00" fill="grey">m_Data</text>
</g>
</g>
</svg>
