<?xml version="1.0" encoding="UTF-8" standalone="no"?>
<!DOCTYPE svg PUBLIC "-//W3C//DTD SVG 1.1//EN"
 "http://www.w3.org/Graphics/SVG/1.1/DTD/svg11.dtd">
<!-- Generated by graphviz version 14.0.2 (20251019.1705)
 -->
<!-- Title: RefFloorWorkload Pages: 1 -->
<svg width="1126pt" height="174pt"
 viewBox="0.00 0.00 1126.00 174.00" xmlns="http://www.w3.org/2000/svg" xmlns:xlink="http://www.w3.org/1999/xlink">
<g id="graph0" class="graph" transform="scale(1 1) rotate(0) translate(4 170.14)">
<title>RefFloorWorkload</title>
<!-- Node1 -->
<g id="Node000001" class="node">
<title>Node1</title>
<g id="a_Node000001"><a xlink:title=" ">
<polygon fill="#999999" stroke="#666666" points="1118.25,-54.25 1024.25,-54.25 1024.25,-35 1118.25,-35 1118.25,-54.25"/>
<text xml:space="preserve" text-anchor="middle" x="1071.25" y="-40.75" font-family="Helvetica,sans-Serif" font-size="10.00">RefFloorWorkload</text>
</a>
</g>
</g>
<!-- Node2 -->
<g id="Node000002" class="node">
<title>Node2</title>
<g id="a_Node000002"><a xlink:href="classarmnn_1_1_ref_base_workload.html" target="_top" xlink:title=" ">
<polygon fill="white" stroke="#666666" points="987.25,-59.88 833.25,-59.88 833.25,-29.38 987.25,-29.38 987.25,-59.88"/>
<text xml:space="preserve" text-anchor="start" x="841.25" y="-46.38" font-family="Helvetica,sans-Serif" font-size="10.00">RefBaseWorkload&lt; FloorQueue</text>
<text xml:space="preserve" text-anchor="middle" x="910.25" y="-35.12" font-family="Helvetica,sans-Serif" font-size="10.00">Descriptor &gt;</text>
</a>
</g>
</g>
<!-- Node2&#45;&gt;Node1 -->
<g id="edge1_Node000001_Node000002" class="edge">
<title>Node2&#45;&gt;Node1</title>
<g id="a_edge1_Node000001_Node000002"><a xlink:title=" ">
<path fill="none" stroke="#63b8ff" d="M998.85,-44.62C1007.46,-44.62 1015.94,-44.62 1023.89,-44.62"/>
<polygon fill="#63b8ff" stroke="#63b8ff" points="999,-41.13 989,-44.63 999,-48.13 999,-41.13"/>
</a>
</g>
</g>
<!-- Node3 -->
<g id="Node000003" class="node">
<title>Node3</title>
<g id="a_Node000003"><a xlink:href="classarmnn_1_1_base_workload.html" target="_top" xlink:title=" ">
<polygon fill="white" stroke="#666666" points="654,-85.88 515.75,-85.88 515.75,-55.38 654,-55.38 654,-85.88"/>
<text xml:space="preserve" text-anchor="start" x="523.75" y="-72.38" font-family="Helvetica,sans-Serif" font-size="10.00">BaseWorkload&lt; FloorQueue</text>
<text xml:space="preserve" text-anchor="middle" x="584.88" y="-61.12" font-family="Helvetica,sans-Serif" font-size="10.00">Descriptor &gt;</text>
</a>
</g>
</g>
<!-- Node3&#45;&gt;Node2 -->
<g id="edge2_Node000002_Node000003" class="edge">
<title>Node3&#45;&gt;Node2</title>
<g id="a_edge2_Node000002_Node000003"><a xlink:title=" ">
<path fill="none" stroke="#63b8ff" d="M665.76,-64.2C716.77,-60.1 782.53,-54.81 832.85,-50.77"/>
<polygon fill="#63b8ff" stroke="#63b8ff" points="665.65,-60.7 655.96,-64.99 666.21,-67.68 665.65,-60.7"/>
</a>
</g>
</g>
<!-- Node4 -->
<g id="Node000004" class="node">
<title>Node4</title>
<g id="a_Node000004"><a xlink:href="classarmnn_1_1_i_workload.html" target="_top" xlink:title="Workload interface to enqueue a layer computation.">
<polygon fill="white" stroke="#666666" points="74.5,-57.25 15,-57.25 15,-38 74.5,-38 74.5,-57.25"/>
<text xml:space="preserve" text-anchor="middle" x="44.75" y="-43.75" font-family="Helvetica,sans-Serif" font-size="10.00">IWorkload</text>
</a>
</g>
</g>
<!-- Node4&#45;&gt;Node3 -->
<g id="edge3_Node000003_Node000004" class="edge">
<title>Node4&#45;&gt;Node3</title>
<g id="a_edge3_Node000003_Node000004"><a xlink:title=" ">
<path fill="none" stroke="#63b8ff" d="M85.91,-49.34C177.3,-53.25 401.66,-62.84 515.4,-67.7"/>
<polygon fill="#63b8ff" stroke="#63b8ff" points="86.33,-45.86 76.19,-48.93 86.04,-52.85 86.33,-45.86"/>
</a>
</g>
</g>
<!-- Node7 -->
<g id="Node000007" class="node">
<title>Node7</title>
<g id="a_Node000007"><a xlink:href="classarmnn_1_1_base_workload.html" target="_top" xlink:title=" ">
<polygon fill="white" stroke="#666666" points="336.5,-95.25 166,-95.25 166,-76 336.5,-76 336.5,-95.25"/>
<text xml:space="preserve" text-anchor="middle" x="251.25" y="-81.75" font-family="Helvetica,sans-Serif" font-size="10.00">BaseWorkload&lt; QueueDescriptor &gt;</text>
</a>
</g>
</g>
<!-- Node4&#45;&gt;Node7 -->
<g id="edge7_Node000007_Node000004" class="edge">
<title>Node4&#45;&gt;Node7</title>
<g id="a_edge7_Node000007_Node000004"><a xlink:title=" ">
<path fill="none" stroke="#63b8ff" d="M85.57,-55.02C116.98,-60.86 161.12,-69.06 195.8,-75.51"/>
<polygon fill="#63b8ff" stroke="#63b8ff" points="86.58,-51.65 76.1,-53.27 85.3,-58.53 86.58,-51.65"/>
</a>
</g>
</g>
<!-- Node9 -->
<g id="Node000009" class="node">
<title>Node9</title>
<g id="a_Node000009"><a xlink:href="classarmnn_1_1_base_workload.html" target="_top" xlink:title=" ">
<polygon fill="white" stroke="#666666" points="336.5,-19.25 166,-19.25 166,0 336.5,0 336.5,-19.25"/>
<text xml:space="preserve" text-anchor="middle" x="251.25" y="-5.75" font-family="Helvetica,sans-Serif" font-size="10.00">BaseWorkload&lt; QueueDescriptor &gt;</text>
</a>
</g>
</g>
<!-- Node4&#45;&gt;Node9 -->
<g id="edge11_Node000009_Node000004" class="edge">
<title>Node4&#45;&gt;Node9</title>
<g id="a_edge11_Node000009_Node000004"><a xlink:title=" ">
<path fill="none" stroke="#63b8ff" d="M85.88,-38.18C93.07,-36.59 100.49,-35.01 107.5,-33.62 132.9,-28.62 160.96,-23.75 185.44,-19.73"/>
<polygon fill="#63b8ff" stroke="#63b8ff" points="85.35,-34.71 76.37,-40.33 86.89,-41.54 85.35,-34.71"/>
</a>
</g>
</g>
<!-- Node5 -->
<g id="Node000005" class="node">
<title>Node5</title>
<g id="a_Node000005"><a xlink:href="structarmnn_1_1_floor_queue_descriptor.html" target="_top" xlink:title=" ">
<polygon fill="white" stroke="#666666" points="306.88,-159.25 195.62,-159.25 195.62,-140 306.88,-140 306.88,-159.25"/>
<text xml:space="preserve" text-anchor="middle" x="251.25" y="-145.75" font-family="Helvetica,sans-Serif" font-size="10.00">FloorQueueDescriptor</text>
</a>
</g>
</g>
<!-- Node5&#45;&gt;Node3 -->
<g id="edge4_Node000003_Node000005" class="edge">
<title>Node5&#45;&gt;Node3</title>
<g id="a_edge4_Node000003_Node000005"><a xlink:title=" ">
<path fill="none" stroke="#9a32cd" stroke-dasharray="5,2" d="M310.28,-137.12C355.04,-127.32 418.44,-113.15 473.75,-99.62 490.65,-95.49 508.94,-90.78 525.68,-86.36"/>
<polygon fill="#9a32cd" stroke="#9a32cd" points="309.53,-133.7 300.51,-139.25 311.03,-140.53 309.53,-133.7"/>
</a>
</g>
<text xml:space="preserve" text-anchor="start" x="396.88" y="-131.05" font-family="Helvetica,sans-Serif" font-size="10.00" fill="grey">m_Data</text>
</g>
<!-- Node6 -->
<g id="Node000006" class="node">
<title>Node6</title>
<g id="a_Node000006"><a xlink:href="structarmnn_1_1_queue_descriptor.html" target="_top" xlink:title=" ">
<polygon fill="white" stroke="#666666" points="89.5,-155.25 0,-155.25 0,-136 89.5,-136 89.5,-155.25"/>
<text xml:space="preserve" text-anchor="middle" x="44.75" y="-141.75" font-family="Helvetica,sans-Serif" font-size="10.00">QueueDescriptor</text>
</a>
</g>
</g>
<!-- Node6&#45;&gt;Node5 -->
<g id="edge5_Node000005_Node000006" class="edge">
<title>Node6&#45;&gt;Node5</title>
<g id="a_edge5_Node000005_Node000006"><a xlink:title=" ">
<path fill="none" stroke="#63b8ff" d="M84.89,-158.84C92.32,-160.83 100.09,-162.57 107.5,-163.62 139.67,-168.22 176.14,-164.49 204.16,-159.73"/>
<polygon fill="#63b8ff" stroke="#63b8ff" points="86,-155.51 75.42,-156.1 84.06,-162.24 86,-155.51"/>
</a>
</g>
</g>
<!-- Node6&#45;&gt;Node7 -->
<g id="edge8_Node000007_Node000006" class="edge">
<title>Node6&#45;&gt;Node7</title>
<g id="a_edge8_Node000007_Node000006"><a xlink:title=" ">
<path fill="none" stroke="#9a32cd" stroke-dasharray="5,2" d="M100.82,-135.29C116.2,-132 132.85,-128.04 148,-123.62 175.27,-115.67 205.69,-103.99 226.2,-95.68"/>
<polygon fill="#9a32cd" stroke="#9a32cd" points="100.44,-131.8 91.37,-137.27 101.87,-138.65 100.44,-131.8"/>
</a>
</g>
<text xml:space="preserve" text-anchor="start" x="110.5" y="-138.25" font-family="Helvetica,sans-Serif" font-size="10.00" fill="grey">m_Data</text>
</g>
<!-- Node6&#45;&gt;Node9 -->
<g id="edge12_Node000009_Node000006" class="edge">
<title>Node6&#45;&gt;Node9</title>
<g id="a_edge12_Node000009_Node000006"><a xlink:title=" ">
<path fill="none" stroke="#9a32cd" stroke-dasharray="5,2" d="M69.2,-128.91C80.68,-120.8 94.75,-110.98 107.5,-102.38 153.07,-71.63 207.78,-36.6 234.29,-19.74"/>
<polygon fill="#9a32cd" stroke="#9a32cd" points="67.25,-126.01 61.11,-134.65 71.3,-131.72 67.25,-126.01"/>
</a>
</g>
<text xml:space="preserve" text-anchor="start" x="110.5" y="-107.12" font-family="Helvetica,sans-Serif" font-size="10.00" fill="grey">m_Data</text>
</g>
<!-- Node7&#45;&gt;Node3 -->
<g id="edge6_Node000003_Node000007" class="edge">
<title>Node7&#45;&gt;Node3</title>
<g id="a_edge6_Node000003_Node000007"><a xlink:title=" ">
<path fill="none" stroke="orange" stroke-dasharray="5,2" d="M348.02,-81.29C401.55,-78.87 467.02,-75.91 515.38,-73.72"/>
<polygon fill="orange" stroke="orange" points="348.13,-77.78 338.3,-81.73 348.45,-84.78 348.13,-77.78"/>
</a>
</g>
<text xml:space="preserve" text-anchor="start" x="357.5" y="-85.52" font-family="Helvetica,sans-Serif" font-size="10.00" fill="grey">&lt; FloorQueueDescriptor &gt;</text>
</g>
<!-- Node8 -->
<g id="Node000008" class="node">
<title>Node8</title>
<g id="a_Node000008"><a xlink:href="classarmnn_1_1_ref_base_workload.html" target="_top" xlink:title=" ">
<polygon fill="white" stroke="#666666" points="678,-33.25 491.75,-33.25 491.75,-14 678,-14 678,-33.25"/>
<text xml:space="preserve" text-anchor="middle" x="584.88" y="-19.75" font-family="Helvetica,sans-Serif" font-size="10.00">RefBaseWorkload&lt; QueueDescriptor &gt;</text>
</a>
</g>
</g>
<!-- Node8&#45;&gt;Node2 -->
<g id="edge9_Node000002_Node000008" class="edge">
<title>Node8&#45;&gt;Node2</title>
<g id="a_edge9_Node000002_Node000008"><a xlink:title=" ">
<path fill="none" stroke="orange" stroke-dasharray="5,2" d="M689.82,-25.58C729.16,-26.85 774.32,-28.93 815.25,-32.38 820.99,-32.86 826.92,-33.44 832.87,-34.08"/>
<polygon fill="orange" stroke="orange" points="689.96,-22.08 679.86,-25.27 689.75,-29.08 689.96,-22.08"/>
</a>
</g>
<text xml:space="preserve" text-anchor="start" x="699" y="-37.12" font-family="Helvetica,sans-Serif" font-size="10.00" fill="grey">&lt; FloorQueueDescriptor &gt;</text>
</g>
<!-- Node9&#45;&gt;Node8 -->
<g id="edge10_Node000008_Node000009" class="edge">
<title>Node9&#45;&gt;Node8</title>
<g id="a_edge10_Node000008_Node000009"><a xlink:title=" ">
<path fill="none" stroke="#63b8ff" d="M348.06,-13.67C393.13,-15.57 446.67,-17.83 491.32,-19.72"/>
<polygon fill="#63b8ff" stroke="#63b8ff" points="348.44,-10.18 338.3,-13.26 348.15,-17.18 348.44,-10.18"/>
</a>
</g>
</g>
</g>
</svg>
