<?xml version="1.0" encoding="UTF-8" standalone="no"?>
<!DOCTYPE svg PUBLIC "-//W3C//DTD SVG 1.1//EN"
 "http://www.w3.org/Graphics/SVG/1.1/DTD/svg11.dtd">
<!-- Generated by graphviz version 14.0.2 (20251019.1705)
 -->
<!-- Title: OptimizeForTypeImpl&lt; BaseType, Wrapped &gt; Pages: 1 -->
<svg width="152pt" height="94pt"
 viewBox="0.00 0.00 152.00 94.00" xmlns="http://www.w3.org/2000/svg" xmlns:xlink="http://www.w3.org/1999/xlink">
<g id="graph0" class="graph" transform="scale(1 1) rotate(0) translate(4 89.75)">
<title>OptimizeForTypeImpl&lt; BaseType, Wrapped &gt;</title>
<!-- Node1 -->
<g id="Node000001" class="node">
<title>Node1</title>
<g id="a_Node000001"><a xlink:title="Wrapper Optimization base class that calls Wrapped::Run() for every layer of type BaseType.">
<polygon fill="#999999" stroke="#666666" points="136.25,-30.5 14.5,-30.5 14.5,0 136.25,0 136.25,-30.5"/>
<text xml:space="preserve" text-anchor="start" x="22.5" y="-17" font-family="Helvetica,sans-Serif" font-size="10.00">OptimizeForTypeImpl</text>
<text xml:space="preserve" text-anchor="middle" x="75.38" y="-5.75" font-family="Helvetica,sans-Serif" font-size="10.00">&lt; BaseType, Wrapped &gt;</text>
</a>
</g>
</g>
<!-- Node2 -->
<g id="Node000002" class="node">
<title>Node2</title>
<g id="a_Node000002"><a xlink:href="classarmnn_1_1_optimization.html" target="_top" xlink:title=" ">
<polygon fill="white" stroke="#666666" points="70.75,-85.75 0,-85.75 0,-66.5 70.75,-66.5 70.75,-85.75"/>
<text xml:space="preserve" text-anchor="middle" x="35.38" y="-72.25" font-family="Helvetica,sans-Serif" font-size="10.00">Optimization</text>
</a>
</g>
</g>
<!-- Node2&#45;&gt;Node1 -->
<g id="edge1_Node000001_Node000002" class="edge">
<title>Node2&#45;&gt;Node1</title>
<g id="a_edge1_Node000001_Node000002"><a xlink:title=" ">
<path fill="none" stroke="#63b8ff" d="M47.77,-56.88C53.47,-48.48 60.15,-38.66 65.5,-30.78"/>
<polygon fill="#63b8ff" stroke="#63b8ff" points="45.03,-54.69 42.3,-64.93 50.82,-58.63 45.03,-54.69"/>
</a>
</g>
</g>
<!-- Node3 -->
<g id="Node000003" class="node">
<title>Node3</title>
<g id="a_Node000003"><a xlink:title=" ">
<polygon fill="white" stroke="#666666" points="143.5,-85.75 89.25,-85.75 89.25,-66.5 143.5,-66.5 143.5,-85.75"/>
<text xml:space="preserve" text-anchor="middle" x="116.38" y="-72.25" font-family="Helvetica,sans-Serif" font-size="10.00">Wrapped</text>
</a>
</g>
</g>
<!-- Node3&#45;&gt;Node1 -->
<g id="edge2_Node000001_Node000003" class="edge">
<title>Node3&#45;&gt;Node1</title>
<g id="a_edge2_Node000001_Node000003"><a xlink:title=" ">
<path fill="none" stroke="#63b8ff" d="M103.67,-56.88C97.82,-48.48 90.98,-38.66 85.5,-30.78"/>
<polygon fill="#63b8ff" stroke="#63b8ff" points="100.7,-58.74 109.28,-64.94 106.44,-54.73 100.7,-58.74"/>
</a>
</g>
</g>
</g>
</svg>
