<?xml version="1.0" encoding="UTF-8" standalone="no"?>
<!DOCTYPE svg PUBLIC "-//W3C//DTD SVG 1.1//EN"
 "http://www.w3.org/Graphics/SVG/1.1/DTD/svg11.dtd">
<!-- Generated by graphviz version 14.0.2 (20251019.1705)
 -->
<!-- Title: RefLstmWorkload Pages: 1 -->
<svg width="404pt" height="296pt"
 viewBox="0.00 0.00 404.00 296.00" xmlns="http://www.w3.org/2000/svg" xmlns:xlink="http://www.w3.org/1999/xlink">
<g id="graph0" class="graph" transform="scale(1 1) rotate(0) translate(4 292)">
<title>RefLstmWorkload</title>
<!-- Node1 -->
<g id="Node000001" class="node">
<title>Node1</title>
<g id="a_Node000001"><a xlink:title=" ">
<polygon fill="#999999" stroke="#666666" points="246.12,-19.25 152.12,-19.25 152.12,0 246.12,0 246.12,-19.25"/>
<text xml:space="preserve" text-anchor="middle" x="199.12" y="-5.75" font-family="Helvetica,sans-Serif" font-size="10.00">RefLstmWorkload</text>
</a>
</g>
</g>
<!-- Node2 -->
<g id="Node000002" class="node">
<title>Node2</title>
<g id="a_Node000002"><a xlink:href="classarmnn_1_1_ref_base_workload.html" target="_top" xlink:title=" ">
<polygon fill="white" stroke="#666666" points="276.12,-86.75 122.12,-86.75 122.12,-56.25 276.12,-56.25 276.12,-86.75"/>
<text xml:space="preserve" text-anchor="start" x="130.12" y="-73.25" font-family="Helvetica,sans-Serif" font-size="10.00">RefBaseWorkload&lt; LstmQueue</text>
<text xml:space="preserve" text-anchor="middle" x="199.12" y="-62" font-family="Helvetica,sans-Serif" font-size="10.00">Descriptor &gt;</text>
</a>
</g>
</g>
<!-- Node2&#45;&gt;Node1 -->
<g id="edge1_Node000001_Node000002" class="edge">
<title>Node2&#45;&gt;Node1</title>
<g id="a_edge1_Node000001_Node000002"><a xlink:title=" ">
<path fill="none" stroke="#63b8ff" d="M199.12,-44.77C199.12,-35.79 199.12,-26.29 199.12,-19.6"/>
<polygon fill="#63b8ff" stroke="#63b8ff" points="195.63,-44.49 199.13,-54.49 202.63,-44.49 195.63,-44.49"/>
</a>
</g>
</g>
<!-- Node3 -->
<g id="Node000003" class="node">
<title>Node3</title>
<g id="a_Node000003"><a xlink:href="classarmnn_1_1_base_workload.html" target="_top" xlink:title=" ">
<polygon fill="white" stroke="#666666" points="192.25,-159.25 0,-159.25 0,-140 192.25,-140 192.25,-159.25"/>
<text xml:space="preserve" text-anchor="middle" x="96.12" y="-145.75" font-family="Helvetica,sans-Serif" font-size="10.00">BaseWorkload&lt; LstmQueueDescriptor &gt;</text>
</a>
</g>
</g>
<!-- Node3&#45;&gt;Node2 -->
<g id="edge2_Node000002_Node000003" class="edge">
<title>Node3&#45;&gt;Node2</title>
<g id="a_edge2_Node000002_Node000003"><a xlink:title=" ">
<path fill="none" stroke="#63b8ff" d="M117.59,-132.76C135.84,-119.27 161.84,-100.06 179.53,-86.98"/>
<polygon fill="#63b8ff" stroke="#63b8ff" points="115.52,-129.94 109.56,-138.69 119.68,-135.56 115.52,-129.94"/>
</a>
</g>
</g>
<!-- Node4 -->
<g id="Node000004" class="node">
<title>Node4</title>
<g id="a_Node000004"><a xlink:href="classarmnn_1_1_i_workload.html" target="_top" xlink:title="Workload interface to enqueue a layer computation.">
<polygon fill="white" stroke="#666666" points="143.88,-288 84.38,-288 84.38,-268.75 143.88,-268.75 143.88,-288"/>
<text xml:space="preserve" text-anchor="middle" x="114.12" y="-274.5" font-family="Helvetica,sans-Serif" font-size="10.00">IWorkload</text>
</a>
</g>
</g>
<!-- Node4&#45;&gt;Node3 -->
<g id="edge3_Node000003_Node000004" class="edge">
<title>Node4&#45;&gt;Node3</title>
<g id="a_edge3_Node000003_Node000004"><a xlink:title=" ">
<path fill="none" stroke="#63b8ff" d="M73.37,-268.34C53.69,-261.71 31.85,-250.47 20.12,-231.75 1.48,-201.98 47.76,-173.54 76.07,-159.58"/>
<polygon fill="#63b8ff" stroke="#63b8ff" points="72.27,-271.67 82.86,-271.22 74.3,-264.97 72.27,-271.67"/>
</a>
</g>
</g>
<!-- Node5 -->
<g id="Node000005" class="node">
<title>Node5</title>
<g id="a_Node000005"><a xlink:href="classarmnn_1_1_base_workload.html" target="_top" xlink:title=" ">
<polygon fill="white" stroke="#666666" points="199.38,-231.75 28.88,-231.75 28.88,-212.5 199.38,-212.5 199.38,-231.75"/>
<text xml:space="preserve" text-anchor="middle" x="114.12" y="-218.25" font-family="Helvetica,sans-Serif" font-size="10.00">BaseWorkload&lt; QueueDescriptor &gt;</text>
</a>
</g>
</g>
<!-- Node4&#45;&gt;Node5 -->
<g id="edge5_Node000005_Node000004" class="edge">
<title>Node4&#45;&gt;Node5</title>
<g id="a_edge5_Node000005_Node000004"><a xlink:title=" ">
<path fill="none" stroke="#63b8ff" d="M114.12,-257.19C114.12,-248.48 114.12,-238.74 114.12,-231.92"/>
<polygon fill="#63b8ff" stroke="#63b8ff" points="110.63,-256.9 114.13,-266.9 117.63,-256.9 110.63,-256.9"/>
</a>
</g>
</g>
<!-- Node7 -->
<g id="Node000007" class="node">
<title>Node7</title>
<g id="a_Node000007"><a xlink:href="classarmnn_1_1_base_workload.html" target="_top" xlink:title=" ">
<polygon fill="white" stroke="#666666" points="388.38,-231.75 217.88,-231.75 217.88,-212.5 388.38,-212.5 388.38,-231.75"/>
<text xml:space="preserve" text-anchor="middle" x="303.12" y="-218.25" font-family="Helvetica,sans-Serif" font-size="10.00">BaseWorkload&lt; QueueDescriptor &gt;</text>
</a>
</g>
</g>
<!-- Node4&#45;&gt;Node7 -->
<g id="edge8_Node000007_Node000004" class="edge">
<title>Node4&#45;&gt;Node7</title>
<g id="a_edge8_Node000007_Node000004"><a xlink:title=" ">
<path fill="none" stroke="#63b8ff" d="M154.86,-265.68C189.78,-255.66 239.4,-241.42 271.43,-232.22"/>
<polygon fill="#63b8ff" stroke="#63b8ff" points="154.17,-262.24 145.53,-268.36 156.1,-268.97 154.17,-262.24"/>
</a>
</g>
</g>
<!-- Node5&#45;&gt;Node3 -->
<g id="edge4_Node000003_Node000005" class="edge">
<title>Node5&#45;&gt;Node3</title>
<g id="a_edge4_Node000003_Node000005"><a xlink:title=" ">
<path fill="none" stroke="orange" stroke-dasharray="5,2" d="M109,-201.05C105.52,-187.44 101.1,-170.1 98.44,-159.7"/>
<polygon fill="orange" stroke="orange" points="105.61,-201.91 111.47,-210.73 112.39,-200.17 105.61,-201.91"/>
</a>
</g>
<text xml:space="preserve" text-anchor="start" x="110.27" y="-182" font-family="Helvetica,sans-Serif" font-size="10.00" fill="grey">&lt; LstmQueueDescriptor &gt;</text>
</g>
<!-- Node6 -->
<g id="Node000006" class="node">
<title>Node6</title>
<g id="a_Node000006"><a xlink:href="classarmnn_1_1_ref_base_workload.html" target="_top" xlink:title=" ">
<polygon fill="white" stroke="#666666" points="396.25,-159.25 210,-159.25 210,-140 396.25,-140 396.25,-159.25"/>
<text xml:space="preserve" text-anchor="middle" x="303.12" y="-145.75" font-family="Helvetica,sans-Serif" font-size="10.00">RefBaseWorkload&lt; QueueDescriptor &gt;</text>
</a>
</g>
</g>
<!-- Node6&#45;&gt;Node2 -->
<g id="edge6_Node000002_Node000006" class="edge">
<title>Node6&#45;&gt;Node2</title>
<g id="a_edge6_Node000002_Node000006"><a xlink:title=" ">
<path fill="none" stroke="orange" stroke-dasharray="5,2" d="M281.71,-132.95C263.27,-119.45 236.86,-100.12 218.91,-86.98"/>
<polygon fill="orange" stroke="orange" points="279.43,-135.62 289.57,-138.7 283.56,-129.97 279.43,-135.62"/>
</a>
</g>
<text xml:space="preserve" text-anchor="start" x="269.52" y="-109.5" font-family="Helvetica,sans-Serif" font-size="10.00" fill="grey">&lt; LstmQueueDescriptor &gt;</text>
</g>
<!-- Node7&#45;&gt;Node6 -->
<g id="edge7_Node000006_Node000007" class="edge">
<title>Node7&#45;&gt;Node6</title>
<g id="a_edge7_Node000006_Node000007"><a xlink:title=" ">
<path fill="none" stroke="#63b8ff" d="M303.12,-201.05C303.12,-187.44 303.12,-170.1 303.12,-159.7"/>
<polygon fill="#63b8ff" stroke="#63b8ff" points="299.63,-200.68 303.13,-210.68 306.63,-200.68 299.63,-200.68"/>
</a>
</g>
</g>
</g>
</svg>
