<?xml version="1.0" encoding="UTF-8" standalone="no"?>
<!DOCTYPE svg PUBLIC "-//W3C//DTD SVG 1.1//EN"
 "http://www.w3.org/Graphics/SVG/1.1/DTD/svg11.dtd">
<!-- Generated by graphviz version 14.0.2 (20251019.1705)
 -->
<!-- Title: RefPermuteWorkload&lt; DataType &gt; Pages: 1 -->
<svg width="1377pt" height="285pt"
 viewBox="0.00 0.00 1377.00 285.00" xmlns="http://www.w3.org/2000/svg" xmlns:xlink="http://www.w3.org/1999/xlink">
<g id="graph0" class="graph" transform="scale(1 1) rotate(0) translate(4 280.56)">
<title>RefPermuteWorkload&lt; DataType &gt;</title>
<!-- Node1 -->
<g id="Node000001" class="node">
<title>Node1</title>
<g id="a_Node000001"><a xlink:title=" ">
<polygon fill="#999999" stroke="#666666" points="1071.25,-152.5 962.25,-152.5 962.25,-122 1071.25,-122 1071.25,-152.5"/>
<text xml:space="preserve" text-anchor="start" x="970.25" y="-139" font-family="Helvetica,sans-Serif" font-size="10.00">RefPermuteWorkload</text>
<text xml:space="preserve" text-anchor="middle" x="1016.75" y="-127.75" font-family="Helvetica,sans-Serif" font-size="10.00">&lt; DataType &gt;</text>
</a>
</g>
</g>
<!-- Node8 -->
<g id="Node000008" class="node">
<title>Node8</title>
<g id="a_Node000008"><a xlink:href="classarmnn_1_1_ref_permute_workload.html" target="_top" xlink:title=" ">
<polygon fill="white" stroke="#666666" points="1361.75,-275.5 1240.75,-275.5 1240.75,-245 1361.75,-245 1361.75,-275.5"/>
<text xml:space="preserve" text-anchor="start" x="1248.75" y="-262" font-family="Helvetica,sans-Serif" font-size="10.00">RefPermuteWorkload</text>
<text xml:space="preserve" text-anchor="middle" x="1301.25" y="-250.75" font-family="Helvetica,sans-Serif" font-size="10.00">&lt; DataType::BFloat16 &gt;</text>
</a>
</g>
</g>
<!-- Node1&#45;&gt;Node8 -->
<g id="edge9_Node000001_Node000008" class="edge">
<title>Node1&#45;&gt;Node8</title>
<g id="a_edge9_Node000001_Node000008"><a xlink:title=" ">
<path fill="none" stroke="orange" stroke-dasharray="5,2" d="M1031.57,-162.47C1043.96,-182.54 1064.05,-209.62 1089.25,-224.25 1135.37,-251.02 1196.08,-259.09 1240.54,-261.01"/>
<polygon fill="orange" stroke="orange" points="1034.68,-160.84 1026.58,-154.01 1028.65,-164.4 1034.68,-160.84"/>
</a>
</g>
<text xml:space="preserve" text-anchor="start" x="1099.75" y="-264.06" font-family="Helvetica,sans-Serif" font-size="10.00" fill="grey">&lt; DataType::BFloat16 &gt;</text>
</g>
<!-- Node9 -->
<g id="Node000009" class="node">
<title>Node9</title>
<g id="a_Node000009"><a xlink:href="classarmnn_1_1_ref_permute_workload.html" target="_top" xlink:title=" ">
<polygon fill="white" stroke="#666666" points="1358.38,-226.5 1244.12,-226.5 1244.12,-196 1358.38,-196 1358.38,-226.5"/>
<text xml:space="preserve" text-anchor="start" x="1252.12" y="-213" font-family="Helvetica,sans-Serif" font-size="10.00">RefPermuteWorkload</text>
<text xml:space="preserve" text-anchor="middle" x="1301.25" y="-201.75" font-family="Helvetica,sans-Serif" font-size="10.00">&lt; DataType::Float16 &gt;</text>
</a>
</g>
</g>
<!-- Node1&#45;&gt;Node9 -->
<g id="edge10_Node000001_Node000009" class="edge">
<title>Node1&#45;&gt;Node9</title>
<g id="a_edge10_Node000001_Node000009"><a xlink:title=" ">
<path fill="none" stroke="orange" stroke-dasharray="5,2" d="M1052.32,-158.48C1063.73,-164.7 1076.72,-170.98 1089.25,-175.25 1140.07,-192.59 1200.75,-201.82 1243.96,-206.58"/>
<polygon fill="orange" stroke="orange" points="1054.09,-155.46 1043.66,-153.59 1050.64,-161.55 1054.09,-155.46"/>
</a>
</g>
<text xml:space="preserve" text-anchor="start" x="1103.12" y="-207.49" font-family="Helvetica,sans-Serif" font-size="10.00" fill="grey">&lt; DataType::Float16 &gt;</text>
</g>
<!-- Node10 -->
<g id="Node000010" class="node">
<title>Node10</title>
<g id="a_Node000010"><a xlink:href="classarmnn_1_1_ref_permute_workload.html" target="_top" xlink:title=" ">
<polygon fill="white" stroke="#666666" points="1358.38,-177.5 1244.12,-177.5 1244.12,-147 1358.38,-147 1358.38,-177.5"/>
<text xml:space="preserve" text-anchor="start" x="1252.12" y="-164" font-family="Helvetica,sans-Serif" font-size="10.00">RefPermuteWorkload</text>
<text xml:space="preserve" text-anchor="middle" x="1301.25" y="-152.75" font-family="Helvetica,sans-Serif" font-size="10.00">&lt; DataType::Float32 &gt;</text>
</a>
</g>
</g>
<!-- Node1&#45;&gt;Node10 -->
<g id="edge11_Node000001_Node000010" class="edge">
<title>Node1&#45;&gt;Node10</title>
<g id="a_edge11_Node000001_Node000010"><a xlink:title=" ">
<path fill="none" stroke="orange" stroke-dasharray="5,2" d="M1082.9,-143.02C1131.53,-147.32 1197.32,-153.14 1243.74,-157.25"/>
<polygon fill="orange" stroke="orange" points="1083.33,-139.54 1073.06,-142.14 1082.71,-146.51 1083.33,-139.54"/>
</a>
</g>
<text xml:space="preserve" text-anchor="start" x="1103.12" y="-158.91" font-family="Helvetica,sans-Serif" font-size="10.00" fill="grey">&lt; DataType::Float32 &gt;</text>
</g>
<!-- Node11 -->
<g id="Node000011" class="node">
<title>Node11</title>
<g id="a_Node000011"><a xlink:href="classarmnn_1_1_ref_permute_workload.html" target="_top" xlink:title=" ">
<polygon fill="white" stroke="#666666" points="1368.88,-128.5 1233.62,-128.5 1233.62,-98 1368.88,-98 1368.88,-128.5"/>
<text xml:space="preserve" text-anchor="start" x="1241.62" y="-115" font-family="Helvetica,sans-Serif" font-size="10.00">RefPermuteWorkload</text>
<text xml:space="preserve" text-anchor="middle" x="1301.25" y="-103.75" font-family="Helvetica,sans-Serif" font-size="10.00">&lt; DataType::QAsymmS8 &gt;</text>
</a>
</g>
</g>
<!-- Node1&#45;&gt;Node11 -->
<g id="edge12_Node000001_Node000011" class="edge">
<title>Node1&#45;&gt;Node11</title>
<g id="a_edge12_Node000001_Node000011"><a xlink:title=" ">
<path fill="none" stroke="orange" stroke-dasharray="5,2" d="M1082.66,-123.88C1084.88,-123.56 1087.08,-123.26 1089.25,-123 1137.3,-117.14 1191.9,-114.73 1233.51,-113.77"/>
<polygon fill="orange" stroke="orange" points="1082.31,-120.39 1072.98,-125.4 1083.41,-127.3 1082.31,-120.39"/>
</a>
</g>
<text xml:space="preserve" text-anchor="start" x="1092.62" y="-127.75" font-family="Helvetica,sans-Serif" font-size="10.00" fill="grey">&lt; DataType::QAsymmS8 &gt;</text>
</g>
<!-- Node12 -->
<g id="Node000012" class="node">
<title>Node12</title>
<g id="a_Node000012"><a xlink:href="classarmnn_1_1_ref_permute_workload.html" target="_top" xlink:title=" ">
<polygon fill="white" stroke="#666666" points="1369.25,-79.5 1233.25,-79.5 1233.25,-49 1369.25,-49 1369.25,-79.5"/>
<text xml:space="preserve" text-anchor="start" x="1241.25" y="-66" font-family="Helvetica,sans-Serif" font-size="10.00">RefPermuteWorkload</text>
<text xml:space="preserve" text-anchor="middle" x="1301.25" y="-54.75" font-family="Helvetica,sans-Serif" font-size="10.00">&lt; DataType::QAsymmU8 &gt;</text>
</a>
</g>
</g>
<!-- Node1&#45;&gt;Node12 -->
<g id="edge13_Node000001_Node000012" class="edge">
<title>Node1&#45;&gt;Node12</title>
<g id="a_edge13_Node000001_Node000012"><a xlink:title=" ">
<path fill="none" stroke="orange" stroke-dasharray="5,2" d="M1047.17,-115.17C1059.56,-106.93 1074.51,-98.3 1089.25,-93 1135.53,-76.38 1190.67,-69.27 1232.98,-66.27"/>
<polygon fill="orange" stroke="orange" points="1045.32,-112.19 1039.08,-120.76 1049.3,-117.95 1045.32,-112.19"/>
</a>
</g>
<text xml:space="preserve" text-anchor="start" x="1092.25" y="-97.75" font-family="Helvetica,sans-Serif" font-size="10.00" fill="grey">&lt; DataType::QAsymmU8 &gt;</text>
</g>
<!-- Node13 -->
<g id="Node000013" class="node">
<title>Node13</title>
<g id="a_Node000013"><a xlink:href="classarmnn_1_1_ref_permute_workload.html" target="_top" xlink:title=" ">
<polygon fill="white" stroke="#666666" points="1368.88,-30.5 1233.62,-30.5 1233.62,0 1368.88,0 1368.88,-30.5"/>
<text xml:space="preserve" text-anchor="start" x="1241.62" y="-17" font-family="Helvetica,sans-Serif" font-size="10.00">RefPermuteWorkload</text>
<text xml:space="preserve" text-anchor="middle" x="1301.25" y="-5.75" font-family="Helvetica,sans-Serif" font-size="10.00">&lt; DataType::QSymmS16 &gt;</text>
</a>
</g>
</g>
<!-- Node1&#45;&gt;Node13 -->
<g id="edge14_Node000001_Node000013" class="edge">
<title>Node1&#45;&gt;Node13</title>
<g id="a_edge14_Node000001_Node000013"><a xlink:title=" ">
<path fill="none" stroke="orange" stroke-dasharray="5,2" d="M1030.69,-111.97C1042.84,-90.97 1063.06,-62.17 1089.25,-47 1132.84,-21.75 1189.67,-14.36 1233.36,-12.99"/>
<polygon fill="orange" stroke="orange" points="1027.74,-110.07 1025.96,-120.51 1033.86,-113.46 1027.74,-110.07"/>
</a>
</g>
<text xml:space="preserve" text-anchor="start" x="1092.62" y="-51.75" font-family="Helvetica,sans-Serif" font-size="10.00" fill="grey">&lt; DataType::QSymmS16 &gt;</text>
</g>
<!-- Node2 -->
<g id="Node000002" class="node">
<title>Node2</title>
<g id="a_Node000002"><a xlink:href="classarmnn_1_1_typed_workload.html" target="_top" xlink:title=" ">
<polygon fill="white" stroke="#666666" points="925.25,-152.5 768.25,-152.5 768.25,-122 925.25,-122 925.25,-152.5"/>
<text xml:space="preserve" text-anchor="start" x="776.25" y="-139" font-family="Helvetica,sans-Serif" font-size="10.00">TypedWorkload&lt; PermuteQueue</text>
<text xml:space="preserve" text-anchor="middle" x="846.75" y="-127.75" font-family="Helvetica,sans-Serif" font-size="10.00">Descriptor, DataType &gt;</text>
</a>
</g>
</g>
<!-- Node2&#45;&gt;Node1 -->
<g id="edge1_Node000001_Node000002" class="edge">
<title>Node2&#45;&gt;Node1</title>
<g id="a_edge1_Node000001_Node000002"><a xlink:title=" ">
<path fill="none" stroke="#63b8ff" d="M936.69,-137.25C945.31,-137.25 953.86,-137.25 961.97,-137.25"/>
<polygon fill="#63b8ff" stroke="#63b8ff" points="936.87,-133.75 926.87,-137.25 936.87,-140.75 936.87,-133.75"/>
</a>
</g>
</g>
<!-- Node3 -->
<g id="Node000003" class="node">
<title>Node3</title>
<g id="a_Node000003"><a xlink:href="classarmnn_1_1_base_workload.html" target="_top" xlink:title=" ">
<polygon fill="white" stroke="#666666" points="597.62,-177.5 444.38,-177.5 444.38,-147 597.62,-147 597.62,-177.5"/>
<text xml:space="preserve" text-anchor="start" x="452.38" y="-164" font-family="Helvetica,sans-Serif" font-size="10.00">BaseWorkload&lt; PermuteQueue</text>
<text xml:space="preserve" text-anchor="middle" x="521" y="-152.75" font-family="Helvetica,sans-Serif" font-size="10.00">Descriptor &gt;</text>
</a>
</g>
</g>
<!-- Node3&#45;&gt;Node2 -->
<g id="edge2_Node000002_Node000003" class="edge">
<title>Node3&#45;&gt;Node2</title>
<g id="a_edge2_Node000002_Node000003"><a xlink:title=" ">
<path fill="none" stroke="#63b8ff" d="M609.33,-157.31C651.88,-154.69 703.76,-151.21 750.25,-147.25 755.98,-146.76 761.9,-146.22 767.86,-145.66"/>
<polygon fill="#63b8ff" stroke="#63b8ff" points="609.16,-153.81 599.39,-157.91 609.58,-160.8 609.16,-153.81"/>
</a>
</g>
</g>
<!-- Node4 -->
<g id="Node000004" class="node">
<title>Node4</title>
<g id="a_Node000004"><a xlink:href="classarmnn_1_1_i_workload.html" target="_top" xlink:title="Workload interface to enqueue a layer computation.">
<polygon fill="white" stroke="#666666" points="59.5,-159.88 0,-159.88 0,-140.62 59.5,-140.62 59.5,-159.88"/>
<text xml:space="preserve" text-anchor="middle" x="29.75" y="-146.38" font-family="Helvetica,sans-Serif" font-size="10.00">IWorkload</text>
</a>
</g>
</g>
<!-- Node4&#45;&gt;Node3 -->
<g id="edge3_Node000003_Node000004" class="edge">
<title>Node4&#45;&gt;Node3</title>
<g id="a_edge3_Node000003_Node000004"><a xlink:title=" ">
<path fill="none" stroke="#63b8ff" d="M70.1,-163.55C78.7,-165.91 87.83,-168.01 96.5,-169.25 238.52,-189.54 276.04,-182.75 419.25,-174.25 427.25,-173.78 435.59,-173.09 443.89,-172.28"/>
<polygon fill="#63b8ff" stroke="#63b8ff" points="71.21,-160.23 60.63,-160.77 69.24,-166.94 71.21,-160.23"/>
</a>
</g>
</g>
<!-- Node5 -->
<g id="Node000005" class="node">
<title>Node5</title>
<g id="a_Node000005"><a xlink:href="classarmnn_1_1_base_workload.html" target="_top" xlink:title=" ">
<polygon fill="white" stroke="#666666" points="267,-159.88 96.5,-159.88 96.5,-140.62 267,-140.62 267,-159.88"/>
<text xml:space="preserve" text-anchor="middle" x="181.75" y="-146.38" font-family="Helvetica,sans-Serif" font-size="10.00">BaseWorkload&lt; QueueDescriptor &gt;</text>
</a>
</g>
</g>
<!-- Node4&#45;&gt;Node5 -->
<g id="edge5_Node000005_Node000004" class="edge">
<title>Node4&#45;&gt;Node5</title>
<g id="a_edge5_Node000005_Node000004"><a xlink:title=" ">
<path fill="none" stroke="#63b8ff" d="M71.02,-150.25C78.87,-150.25 87.36,-150.25 96.04,-150.25"/>
<polygon fill="#63b8ff" stroke="#63b8ff" points="71.19,-146.75 61.19,-150.25 71.19,-153.75 71.19,-146.75"/>
</a>
</g>
</g>
<!-- Node7 -->
<g id="Node000007" class="node">
<title>Node7</title>
<g id="a_Node000007"><a xlink:href="classarmnn_1_1_base_workload.html" target="_top" xlink:title=" ">
<polygon fill="white" stroke="#666666" points="267,-122.88 96.5,-122.88 96.5,-103.62 267,-103.62 267,-122.88"/>
<text xml:space="preserve" text-anchor="middle" x="181.75" y="-109.38" font-family="Helvetica,sans-Serif" font-size="10.00">BaseWorkload&lt; QueueDescriptor &gt;</text>
</a>
</g>
</g>
<!-- Node4&#45;&gt;Node7 -->
<g id="edge8_Node000007_Node000004" class="edge">
<title>Node4&#45;&gt;Node7</title>
<g id="a_edge8_Node000007_Node000004"><a xlink:title=" ">
<path fill="none" stroke="#63b8ff" d="M70.61,-138.24C79.12,-135.81 88.09,-133.36 96.5,-131.25 107.53,-128.48 119.43,-125.77 130.72,-123.33"/>
<polygon fill="#63b8ff" stroke="#63b8ff" points="69.84,-134.82 61.21,-140.97 71.79,-141.54 69.84,-134.82"/>
</a>
</g>
</g>
<!-- Node5&#45;&gt;Node3 -->
<g id="edge4_Node000003_Node000005" class="edge">
<title>Node5&#45;&gt;Node3</title>
<g id="a_edge4_Node000003_Node000005"><a xlink:title=" ">
<path fill="none" stroke="orange" stroke-dasharray="5,2" d="M278.64,-152.47C321.65,-153.6 373,-155.14 419.25,-157 427.3,-157.32 435.71,-157.7 444.09,-158.1"/>
<polygon fill="orange" stroke="orange" points="278.92,-148.98 268.84,-152.22 278.74,-155.98 278.92,-148.98"/>
</a>
</g>
<text xml:space="preserve" text-anchor="start" x="288" y="-161.75" font-family="Helvetica,sans-Serif" font-size="10.00" fill="grey">&lt; PermuteQueueDescriptor &gt;</text>
</g>
<!-- Node6 -->
<g id="Node000006" class="node">
<title>Node6</title>
<g id="a_Node000006"><a xlink:href="classarmnn_1_1_typed_workload.html" target="_top" xlink:title=" ">
<polygon fill="white" stroke="#666666" points="604.75,-128.5 437.25,-128.5 437.25,-98 604.75,-98 604.75,-128.5"/>
<text xml:space="preserve" text-anchor="start" x="445.25" y="-115" font-family="Helvetica,sans-Serif" font-size="10.00">TypedWorkload&lt; QueueDescriptor,</text>
<text xml:space="preserve" text-anchor="middle" x="521" y="-103.75" font-family="Helvetica,sans-Serif" font-size="10.00"> DataTypes &gt;</text>
</a>
</g>
</g>
<!-- Node6&#45;&gt;Node2 -->
<g id="edge6_Node000002_Node000006" class="edge">
<title>Node6&#45;&gt;Node2</title>
<g id="a_edge6_Node000002_Node000006"><a xlink:title=" ">
<path fill="none" stroke="orange" stroke-dasharray="5,2" d="M616.63,-109.12C657.81,-108.55 706.55,-109.53 750.25,-114.75 762.68,-116.24 775.85,-118.72 788.3,-121.51"/>
<polygon fill="orange" stroke="orange" points="616.67,-105.62 606.73,-109.3 616.79,-112.62 616.67,-105.62"/>
</a>
</g>
<text xml:space="preserve" text-anchor="start" x="625.75" y="-134.75" font-family="Helvetica,sans-Serif" font-size="10.00" fill="grey">&lt; PermuteQueueDescriptor,</text>
<text xml:space="preserve" text-anchor="start" x="625.75" y="-119.5" font-family="Helvetica,sans-Serif" font-size="10.00" fill="grey">   DataType &gt;</text>
</g>
<!-- Node7&#45;&gt;Node6 -->
<g id="edge7_Node000006_Node000007" class="edge">
<title>Node7&#45;&gt;Node6</title>
<g id="a_edge7_Node000006_Node000007"><a xlink:title=" ">
<path fill="none" stroke="#63b8ff" d="M278.86,-113.25C328.68,-113.25 388.94,-113.25 436.76,-113.25"/>
<polygon fill="#63b8ff" stroke="#63b8ff" points="278.93,-109.75 268.93,-113.25 278.93,-116.75 278.93,-109.75"/>
</a>
</g>
</g>
</g>
</svg>
