<?xml version="1.0" encoding="UTF-8" standalone="no"?>
<!DOCTYPE svg PUBLIC "-//W3C//DTD SVG 1.1//EN"
 "http://www.w3.org/Graphics/SVG/1.1/DTD/svg11.dtd">
<!-- Generated by graphviz version 14.0.2 (20251019.1705)
 -->
<!-- Title: RefElementwiseBinaryWorkload Pages: 1 -->
<svg width="1724pt" height="240pt"
 viewBox="0.00 0.00 1724.00 240.00" xmlns="http://www.w3.org/2000/svg" xmlns:xlink="http://www.w3.org/1999/xlink">
<g id="graph0" class="graph" transform="scale(1 1) rotate(0) translate(4 235.93)">
<title>RefElementwiseBinaryWorkload</title>
<!-- Node1 -->
<g id="Node000001" class="node">
<title>Node1</title>
<g id="a_Node000001"><a xlink:title=" ">
<polygon fill="#999999" stroke="#666666" points="1715.5,-57.25 1559.25,-57.25 1559.25,-38 1715.5,-38 1715.5,-57.25"/>
<text xml:space="preserve" text-anchor="middle" x="1637.38" y="-43.75" font-family="Helvetica,sans-Serif" font-size="10.00">RefElementwiseBinaryWorkload</text>
</a>
</g>
</g>
<!-- Node2 -->
<g id="Node000002" class="node">
<title>Node2</title>
<g id="a_Node000002"><a xlink:href="classarmnn_1_1_ref_base_workload.html" target="_top" xlink:title=" ">
<polygon fill="white" stroke="#666666" points="1522.25,-62.88 1362.25,-62.88 1362.25,-32.38 1522.25,-32.38 1522.25,-62.88"/>
<text xml:space="preserve" text-anchor="start" x="1370.25" y="-49.38" font-family="Helvetica,sans-Serif" font-size="10.00">RefBaseWorkload&lt; Elementwise</text>
<text xml:space="preserve" text-anchor="middle" x="1442.25" y="-38.12" font-family="Helvetica,sans-Serif" font-size="10.00">BinaryQueueDescriptor &gt;</text>
</a>
</g>
</g>
<!-- Node2&#45;&gt;Node1 -->
<g id="edge1_Node000001_Node000002" class="edge">
<title>Node2&#45;&gt;Node1</title>
<g id="a_edge1_Node000001_Node000002"><a xlink:title=" ">
<path fill="none" stroke="#63b8ff" d="M1533.94,-47.62C1542.27,-47.62 1550.66,-47.62 1558.85,-47.62"/>
<polygon fill="#63b8ff" stroke="#63b8ff" points="1534.15,-44.13 1524.15,-47.63 1534.15,-51.13 1534.15,-44.13"/>
</a>
</g>
</g>
<!-- Node3 -->
<g id="Node000003" class="node">
<title>Node3</title>
<g id="a_Node000003"><a xlink:href="classarmnn_1_1_base_workload.html" target="_top" xlink:title=" ">
<polygon fill="white" stroke="#666666" points="1177.75,-92.88 1033.5,-92.88 1033.5,-62.38 1177.75,-62.38 1177.75,-92.88"/>
<text xml:space="preserve" text-anchor="start" x="1041.5" y="-79.38" font-family="Helvetica,sans-Serif" font-size="10.00">BaseWorkload&lt; Elementwise</text>
<text xml:space="preserve" text-anchor="middle" x="1105.62" y="-68.12" font-family="Helvetica,sans-Serif" font-size="10.00">BinaryQueueDescriptor &gt;</text>
</a>
</g>
</g>
<!-- Node3&#45;&gt;Node2 -->
<g id="edge2_Node000002_Node000003" class="edge">
<title>Node3&#45;&gt;Node2</title>
<g id="a_edge2_Node000002_Node000003"><a xlink:title=" ">
<path fill="none" stroke="#63b8ff" d="M1189.51,-71.67C1235.19,-68.22 1292.89,-63.59 1344.25,-58.62 1349.99,-58.07 1355.91,-57.47 1361.87,-56.84"/>
<polygon fill="#63b8ff" stroke="#63b8ff" points="1189.39,-68.17 1179.68,-72.41 1189.91,-75.15 1189.39,-68.17"/>
</a>
</g>
</g>
<!-- Node4 -->
<g id="Node000004" class="node">
<title>Node4</title>
<g id="a_Node000004"><a xlink:href="classarmnn_1_1_i_workload.html" target="_top" xlink:title="Workload interface to enqueue a layer computation.">
<polygon fill="white" stroke="#666666" points="586.75,-57.25 527.25,-57.25 527.25,-38 586.75,-38 586.75,-57.25"/>
<text xml:space="preserve" text-anchor="middle" x="557" y="-43.75" font-family="Helvetica,sans-Serif" font-size="10.00">IWorkload</text>
</a>
</g>
</g>
<!-- Node4&#45;&gt;Node3 -->
<g id="edge3_Node000003_Node000004" class="edge">
<title>Node4&#45;&gt;Node3</title>
<g id="a_edge3_Node000003_Node000004"><a xlink:title=" ">
<path fill="none" stroke="#63b8ff" d="M598.32,-49.84C690.42,-54.89 917.26,-67.34 1033.48,-73.72"/>
<polygon fill="#63b8ff" stroke="#63b8ff" points="598.69,-46.35 588.51,-49.3 598.31,-53.34 598.69,-46.35"/>
</a>
</g>
</g>
<!-- Node11 -->
<g id="Node000011" class="node">
<title>Node11</title>
<g id="a_Node000011"><a xlink:href="classarmnn_1_1_base_workload.html" target="_top" xlink:title=" ">
<polygon fill="white" stroke="#666666" points="847.5,-95.25 677,-95.25 677,-76 847.5,-76 847.5,-95.25"/>
<text xml:space="preserve" text-anchor="middle" x="762.25" y="-81.75" font-family="Helvetica,sans-Serif" font-size="10.00">BaseWorkload&lt; QueueDescriptor &gt;</text>
</a>
</g>
</g>
<!-- Node4&#45;&gt;Node11 -->
<g id="edge12_Node000011_Node000004" class="edge">
<title>Node4&#45;&gt;Node11</title>
<g id="a_edge12_Node000011_Node000004"><a xlink:title=" ">
<path fill="none" stroke="#63b8ff" d="M598.03,-55.11C629.29,-60.95 673.03,-69.13 707.36,-75.55"/>
<polygon fill="#63b8ff" stroke="#63b8ff" points="599.08,-51.75 588.61,-53.35 597.79,-58.63 599.08,-51.75"/>
</a>
</g>
</g>
<!-- Node13 -->
<g id="Node000013" class="node">
<title>Node13</title>
<g id="a_Node000013"><a xlink:href="classarmnn_1_1_base_workload.html" target="_top" xlink:title=" ">
<polygon fill="white" stroke="#666666" points="847.5,-19.25 677,-19.25 677,0 847.5,0 847.5,-19.25"/>
<text xml:space="preserve" text-anchor="middle" x="762.25" y="-5.75" font-family="Helvetica,sans-Serif" font-size="10.00">BaseWorkload&lt; QueueDescriptor &gt;</text>
</a>
</g>
</g>
<!-- Node4&#45;&gt;Node13 -->
<g id="edge16_Node000013_Node000004" class="edge">
<title>Node4&#45;&gt;Node13</title>
<g id="a_edge16_Node000013_Node000004"><a xlink:title=" ">
<path fill="none" stroke="#63b8ff" d="M598.03,-40.14C629.29,-34.3 673.03,-26.12 707.36,-19.7"/>
<polygon fill="#63b8ff" stroke="#63b8ff" points="597.79,-36.62 588.61,-41.9 599.08,-43.5 597.79,-36.62"/>
</a>
</g>
</g>
<!-- Node5 -->
<g id="Node000005" class="node">
<title>Node5</title>
<g id="a_Node000005"><a xlink:href="structarmnn_1_1_elementwise_binary_queue_descriptor.html" target="_top" xlink:title=" ">
<polygon fill="white" stroke="#666666" points="849,-173.25 675.5,-173.25 675.5,-154 849,-154 849,-173.25"/>
<text xml:space="preserve" text-anchor="middle" x="762.25" y="-159.75" font-family="Helvetica,sans-Serif" font-size="10.00">ElementwiseBinaryQueueDescriptor</text>
</a>
</g>
</g>
<!-- Node5&#45;&gt;Node3 -->
<g id="edge4_Node000003_Node000005" class="edge">
<title>Node5&#45;&gt;Node3</title>
<g id="a_edge4_Node000003_Node000005"><a xlink:title=" ">
<path fill="none" stroke="#9a32cd" stroke-dasharray="5,2" d="M844.92,-151.7C889.56,-144.28 945.57,-133.49 994.5,-119.62 1019.6,-112.51 1047.02,-102.06 1068.21,-93.37"/>
<polygon fill="#9a32cd" stroke="#9a32cd" points="844.62,-148.2 835.32,-153.27 845.75,-155.11 844.62,-148.2"/>
</a>
</g>
<text xml:space="preserve" text-anchor="start" x="913.5" y="-152.19" font-family="Helvetica,sans-Serif" font-size="10.00" fill="grey">m_Data</text>
</g>
<!-- Node6 -->
<g id="Node000006" class="node">
<title>Node6</title>
<g id="a_Node000006"><a xlink:href="structarmnn_1_1_queue_descriptor_with_parameters.html" target="_top" xlink:title=" ">
<polygon fill="white" stroke="#666666" points="638.5,-187.88 475.5,-187.88 475.5,-157.38 638.5,-157.38 638.5,-187.88"/>
<text xml:space="preserve" text-anchor="start" x="483.5" y="-174.38" font-family="Helvetica,sans-Serif" font-size="10.00">QueueDescriptorWithParameters</text>
<text xml:space="preserve" text-anchor="middle" x="557" y="-163.12" font-family="Helvetica,sans-Serif" font-size="10.00">&lt; ElementwiseBinaryDescriptor &gt;</text>
</a>
</g>
</g>
<!-- Node6&#45;&gt;Node5 -->
<g id="edge5_Node000005_Node000006" class="edge">
<title>Node6&#45;&gt;Node5</title>
<g id="a_edge5_Node000005_Node000006"><a xlink:title=" ">
<path fill="none" stroke="#63b8ff" d="M650.22,-168.54C658.56,-168.17 666.99,-167.8 675.28,-167.43"/>
<polygon fill="#63b8ff" stroke="#63b8ff" points="650.26,-165.04 640.43,-168.98 650.57,-172.03 650.26,-165.04"/>
</a>
</g>
</g>
<!-- Node7 -->
<g id="Node000007" class="node">
<title>Node7</title>
<g id="a_Node000007"><a xlink:href="structarmnn_1_1_queue_descriptor.html" target="_top" xlink:title=" ">
<polygon fill="white" stroke="#666666" points="89.5,-120.25 0,-120.25 0,-101 89.5,-101 89.5,-120.25"/>
<text xml:space="preserve" text-anchor="middle" x="44.75" y="-106.75" font-family="Helvetica,sans-Serif" font-size="10.00">QueueDescriptor</text>
</a>
</g>
</g>
<!-- Node7&#45;&gt;Node6 -->
<g id="edge6_Node000006_Node000007" class="edge">
<title>Node7&#45;&gt;Node6</title>
<g id="a_edge6_Node000006_Node000007"><a xlink:title=" ">
<path fill="none" stroke="#63b8ff" d="M65.01,-128.11C80.42,-140.87 103.21,-157.2 126.5,-164.62 243.2,-201.85 386.96,-194.6 475.01,-184.62"/>
<polygon fill="#63b8ff" stroke="#63b8ff" points="67.45,-125.59 57.59,-121.72 62.88,-130.89 67.45,-125.59"/>
</a>
</g>
</g>
<!-- Node10 -->
<g id="Node000010" class="node">
<title>Node10</title>
<g id="a_Node000010"><a xlink:href="structarmnn_1_1_queue_descriptor_with_parameters.html" target="_top" xlink:title=" ">
<polygon fill="white" stroke="#666666" points="286.5,-155.88 126.5,-155.88 126.5,-125.38 286.5,-125.38 286.5,-155.88"/>
<text xml:space="preserve" text-anchor="start" x="134.5" y="-142.38" font-family="Helvetica,sans-Serif" font-size="10.00">QueueDescriptorWithParameters</text>
<text xml:space="preserve" text-anchor="middle" x="206.5" y="-131.12" font-family="Helvetica,sans-Serif" font-size="10.00">&lt; LayerDescriptor &gt;</text>
</a>
</g>
</g>
<!-- Node7&#45;&gt;Node10 -->
<g id="edge10_Node000010_Node000007" class="edge">
<title>Node7&#45;&gt;Node10</title>
<g id="a_edge10_Node000010_Node000007"><a xlink:title=" ">
<path fill="none" stroke="#63b8ff" d="M100.98,-121C109.08,-122.52 117.55,-124.11 126.01,-125.7"/>
<polygon fill="#63b8ff" stroke="#63b8ff" points="101.79,-117.59 91.31,-119.18 100.5,-124.47 101.79,-117.59"/>
</a>
</g>
</g>
<!-- Node7&#45;&gt;Node11 -->
<g id="edge13_Node000011_Node000007" class="edge">
<title>Node7&#45;&gt;Node11</title>
<g id="a_edge13_Node000011_Node000007"><a xlink:title=" ">
<path fill="none" stroke="#9a32cd" stroke-dasharray="5,2" d="M101.47,-108.68C226.16,-104.32 528.35,-93.76 676.51,-88.59"/>
<polygon fill="#9a32cd" stroke="#9a32cd" points="101.35,-105.18 91.48,-109.03 101.6,-112.18 101.35,-105.18"/>
</a>
</g>
<text xml:space="preserve" text-anchor="start" x="363.75" y="-106.33" font-family="Helvetica,sans-Serif" font-size="10.00" fill="grey">m_Data</text>
</g>
<!-- Node7&#45;&gt;Node13 -->
<g id="edge17_Node000013_Node000007" class="edge">
<title>Node7&#45;&gt;Node13</title>
<g id="a_edge17_Node000013_Node000007"><a xlink:title=" ">
<path fill="none" stroke="#9a32cd" stroke-dasharray="5,2" d="M100.02,-98.06C181.21,-79.76 339.33,-46.08 475.5,-28.62 542.82,-20 619.59,-15.17 676.59,-12.54"/>
<polygon fill="#9a32cd" stroke="#9a32cd" points="99.54,-94.58 90.56,-100.2 101.09,-101.41 99.54,-94.58"/>
</a>
</g>
<text xml:space="preserve" text-anchor="start" x="363.75" y="-60.32" font-family="Helvetica,sans-Serif" font-size="10.00" fill="grey">m_Data</text>
</g>
<!-- Node8 -->
<g id="Node000008" class="node">
<title>Node8</title>
<g id="a_Node000008"><a xlink:href="structarmnn_1_1_elementwise_binary_descriptor.html" target="_top" xlink:title="A ElementwiseBinaryDescriptor for the ElementwiseBinaryLayer.">
<polygon fill="white" stroke="#666666" points="279,-231.25 134,-231.25 134,-212 279,-212 279,-231.25"/>
<text xml:space="preserve" text-anchor="middle" x="206.5" y="-217.75" font-family="Helvetica,sans-Serif" font-size="10.00">ElementwiseBinaryDescriptor</text>
</a>
</g>
</g>
<!-- Node8&#45;&gt;Node6 -->
<g id="edge7_Node000006_Node000008" class="edge">
<title>Node8&#45;&gt;Node6</title>
<g id="a_edge7_Node000006_Node000008"><a xlink:title=" ">
<path fill="none" stroke="#9a32cd" stroke-dasharray="5,2" d="M290.71,-216.22C339.52,-212.33 402.27,-206.07 457.5,-196.62 470.51,-194.4 484.35,-191.42 497.42,-188.32"/>
<polygon fill="#9a32cd" stroke="#9a32cd" points="290.45,-212.73 280.76,-217 291,-219.71 290.45,-212.73"/>
</a>
</g>
<text xml:space="preserve" text-anchor="start" x="349.12" y="-219.43" font-family="Helvetica,sans-Serif" font-size="10.00" fill="grey">m_Parameters</text>
</g>
<!-- Node9 -->
<g id="Node000009" class="node">
<title>Node9</title>
<g id="a_Node000009"><a xlink:href="structarmnn_1_1_base_descriptor.html" target="_top" xlink:title="Base class for all descriptors.">
<polygon fill="white" stroke="#666666" points="86.5,-231.25 3,-231.25 3,-212 86.5,-212 86.5,-231.25"/>
<text xml:space="preserve" text-anchor="middle" x="44.75" y="-217.75" font-family="Helvetica,sans-Serif" font-size="10.00">BaseDescriptor</text>
</a>
</g>
</g>
<!-- Node9&#45;&gt;Node8 -->
<g id="edge8_Node000008_Node000009" class="edge">
<title>Node9&#45;&gt;Node8</title>
<g id="a_edge8_Node000008_Node000009"><a xlink:title=" ">
<path fill="none" stroke="#63b8ff" d="M98.29,-221.62C109.56,-221.62 121.65,-221.62 133.51,-221.62"/>
<polygon fill="#63b8ff" stroke="#63b8ff" points="98.4,-218.13 88.4,-221.63 98.4,-225.13 98.4,-218.13"/>
</a>
</g>
</g>
<!-- Node10&#45;&gt;Node6 -->
<g id="edge9_Node000006_Node000010" class="edge">
<title>Node10&#45;&gt;Node6</title>
<g id="a_edge9_Node000006_Node000010"><a xlink:title=" ">
<path fill="none" stroke="orange" stroke-dasharray="5,2" d="M298.08,-141.49C345.69,-142.8 404.92,-145.77 457.5,-152.38 466.85,-153.55 476.64,-155.13 486.27,-156.89"/>
<polygon fill="orange" stroke="orange" points="298.47,-138 288.38,-141.24 298.29,-144.99 298.47,-138"/>
</a>
</g>
<text xml:space="preserve" text-anchor="start" x="307.5" y="-157.12" font-family="Helvetica,sans-Serif" font-size="10.00" fill="grey">&lt; ElementwiseBinaryDescriptor &gt;</text>
</g>
<!-- Node11&#45;&gt;Node3 -->
<g id="edge11_Node000003_Node000011" class="edge">
<title>Node11&#45;&gt;Node3</title>
<g id="a_edge11_Node000003_Node000011"><a xlink:title=" ">
<path fill="none" stroke="orange" stroke-dasharray="5,2" d="M858.86,-83.38C914.1,-82.09 982.45,-80.49 1033.03,-79.3"/>
<polygon fill="orange" stroke="orange" points="859.06,-79.88 849.15,-83.61 859.23,-86.88 859.06,-79.88"/>
</a>
</g>
<text xml:space="preserve" text-anchor="start" x="870" y="-103.04" font-family="Helvetica,sans-Serif" font-size="10.00" fill="grey">&lt; ElementwiseBinaryQueue</text>
<text xml:space="preserve" text-anchor="start" x="870" y="-87.79" font-family="Helvetica,sans-Serif" font-size="10.00" fill="grey">  Descriptor &gt;</text>
</g>
<!-- Node12 -->
<g id="Node000012" class="node">
<title>Node12</title>
<g id="a_Node000012"><a xlink:href="classarmnn_1_1_ref_base_workload.html" target="_top" xlink:title=" ">
<polygon fill="white" stroke="#666666" points="1198.75,-31.25 1012.5,-31.25 1012.5,-12 1198.75,-12 1198.75,-31.25"/>
<text xml:space="preserve" text-anchor="middle" x="1105.62" y="-17.75" font-family="Helvetica,sans-Serif" font-size="10.00">RefBaseWorkload&lt; QueueDescriptor &gt;</text>
</a>
</g>
</g>
<!-- Node12&#45;&gt;Node2 -->
<g id="edge14_Node000002_Node000012" class="edge">
<title>Node12&#45;&gt;Node2</title>
<g id="a_edge14_Node000002_Node000012"><a xlink:title=" ">
<path fill="none" stroke="orange" stroke-dasharray="5,2" d="M1210.46,-19.12C1252.17,-19.28 1300.62,-20.93 1344.25,-26.12 1355.55,-27.47 1367.48,-29.55 1378.95,-31.9"/>
<polygon fill="orange" stroke="orange" points="1210.69,-15.62 1200.68,-19.11 1210.68,-22.62 1210.69,-15.62"/>
</a>
</g>
<text xml:space="preserve" text-anchor="start" x="1219.75" y="-46.12" font-family="Helvetica,sans-Serif" font-size="10.00" fill="grey">&lt; ElementwiseBinaryQueue</text>
<text xml:space="preserve" text-anchor="start" x="1219.75" y="-30.88" font-family="Helvetica,sans-Serif" font-size="10.00" fill="grey">  Descriptor &gt;</text>
</g>
<!-- Node13&#45;&gt;Node12 -->
<g id="edge15_Node000012_Node000013" class="edge">
<title>Node13&#45;&gt;Node12</title>
<g id="a_edge15_Node000012_Node000013"><a xlink:title=" ">
<path fill="none" stroke="#63b8ff" d="M858.97,-12.99C906.92,-14.68 964.73,-16.71 1012.22,-18.38"/>
<polygon fill="#63b8ff" stroke="#63b8ff" points="859.26,-9.5 849.15,-12.64 859.02,-16.49 859.26,-9.5"/>
</a>
</g>
</g>
</g>
</svg>
