<?xml version="1.0" encoding="UTF-8" standalone="no"?>
<!DOCTYPE svg PUBLIC "-//W3C//DTD SVG 1.1//EN"
 "http://www.w3.org/Graphics/SVG/1.1/DTD/svg11.dtd">
<!-- Generated by graphviz version 14.0.2 (20251019.1705)
 -->
<!-- Title: RefGatherWorkload Pages: 1 -->
<svg width="1608pt" height="239pt"
 viewBox="0.00 0.00 1608.00 239.00" xmlns="http://www.w3.org/2000/svg" xmlns:xlink="http://www.w3.org/1999/xlink">
<g id="graph0" class="graph" transform="scale(1 1) rotate(0) translate(4 235.25)">
<title>RefGatherWorkload</title>
<!-- Node1 -->
<g id="Node000001" class="node">
<title>Node1</title>
<g id="a_Node000001"><a xlink:title=" ">
<polygon fill="#999999" stroke="#666666" points="1600,-54.25 1498.5,-54.25 1498.5,-35 1600,-35 1600,-54.25"/>
<text xml:space="preserve" text-anchor="middle" x="1549.25" y="-40.75" font-family="Helvetica,sans-Serif" font-size="10.00">RefGatherWorkload</text>
</a>
</g>
</g>
<!-- Node2 -->
<g id="Node000002" class="node">
<title>Node2</title>
<g id="a_Node000002"><a xlink:href="classarmnn_1_1_ref_base_workload.html" target="_top" xlink:title=" ">
<polygon fill="white" stroke="#666666" points="1461.5,-59.88 1300,-59.88 1300,-29.38 1461.5,-29.38 1461.5,-59.88"/>
<text xml:space="preserve" text-anchor="start" x="1308" y="-46.38" font-family="Helvetica,sans-Serif" font-size="10.00">RefBaseWorkload&lt; GatherQueue</text>
<text xml:space="preserve" text-anchor="middle" x="1380.75" y="-35.12" font-family="Helvetica,sans-Serif" font-size="10.00">Descriptor &gt;</text>
</a>
</g>
</g>
<!-- Node2&#45;&gt;Node1 -->
<g id="edge1_Node000001_Node000002" class="edge">
<title>Node2&#45;&gt;Node1</title>
<g id="a_edge1_Node000001_Node000002"><a xlink:title=" ">
<path fill="none" stroke="#63b8ff" d="M1473.03,-44.62C1481.7,-44.62 1490.26,-44.62 1498.32,-44.62"/>
<polygon fill="#63b8ff" stroke="#63b8ff" points="1473.1,-41.13 1463.1,-44.63 1473.1,-48.13 1473.1,-41.13"/>
</a>
</g>
</g>
<!-- Node3 -->
<g id="Node000003" class="node">
<title>Node3</title>
<g id="a_Node000003"><a xlink:href="classarmnn_1_1_base_workload.html" target="_top" xlink:title=" ">
<polygon fill="white" stroke="#666666" points="1117,-85.88 971.25,-85.88 971.25,-55.38 1117,-55.38 1117,-85.88"/>
<text xml:space="preserve" text-anchor="start" x="979.25" y="-72.38" font-family="Helvetica,sans-Serif" font-size="10.00">BaseWorkload&lt; GatherQueue</text>
<text xml:space="preserve" text-anchor="middle" x="1044.12" y="-61.12" font-family="Helvetica,sans-Serif" font-size="10.00">Descriptor &gt;</text>
</a>
</g>
</g>
<!-- Node3&#45;&gt;Node2 -->
<g id="edge2_Node000002_Node000003" class="edge">
<title>Node3&#45;&gt;Node2</title>
<g id="a_edge2_Node000002_Node000003"><a xlink:title=" ">
<path fill="none" stroke="#63b8ff" d="M1128.6,-64.14C1180.96,-60.07 1248.09,-54.85 1299.77,-50.84"/>
<polygon fill="#63b8ff" stroke="#63b8ff" points="1128.53,-60.63 1118.83,-64.9 1129.07,-67.61 1128.53,-60.63"/>
</a>
</g>
</g>
<!-- Node4 -->
<g id="Node000004" class="node">
<title>Node4</title>
<g id="a_Node000004"><a xlink:href="classarmnn_1_1_i_workload.html" target="_top" xlink:title="Workload interface to enqueue a layer computation.">
<polygon fill="white" stroke="#666666" points="530.5,-57.25 471,-57.25 471,-38 530.5,-38 530.5,-57.25"/>
<text xml:space="preserve" text-anchor="middle" x="500.75" y="-43.75" font-family="Helvetica,sans-Serif" font-size="10.00">IWorkload</text>
</a>
</g>
</g>
<!-- Node4&#45;&gt;Node3 -->
<g id="edge3_Node000003_Node000004" class="edge">
<title>Node4&#45;&gt;Node3</title>
<g id="a_edge3_Node000003_Node000004"><a xlink:title=" ">
<path fill="none" stroke="#63b8ff" d="M542.32,-49.35C633.48,-53.22 855.54,-62.66 970.89,-67.56"/>
<polygon fill="#63b8ff" stroke="#63b8ff" points="542.51,-45.85 532.37,-48.93 542.21,-52.85 542.51,-45.85"/>
</a>
</g>
</g>
<!-- Node11 -->
<g id="Node000011" class="node">
<title>Node11</title>
<g id="a_Node000011"><a xlink:href="classarmnn_1_1_base_workload.html" target="_top" xlink:title=" ">
<polygon fill="white" stroke="#666666" points="788.25,-95.25 617.75,-95.25 617.75,-76 788.25,-76 788.25,-95.25"/>
<text xml:space="preserve" text-anchor="middle" x="703" y="-81.75" font-family="Helvetica,sans-Serif" font-size="10.00">BaseWorkload&lt; QueueDescriptor &gt;</text>
</a>
</g>
</g>
<!-- Node4&#45;&gt;Node11 -->
<g id="edge12_Node000011_Node000004" class="edge">
<title>Node4&#45;&gt;Node11</title>
<g id="a_edge12_Node000011_Node000004"><a xlink:title=" ">
<path fill="none" stroke="#63b8ff" d="M542.01,-55.26C572.69,-61.09 615.24,-69.16 648.74,-75.52"/>
<polygon fill="#63b8ff" stroke="#63b8ff" points="542.83,-51.86 532.36,-53.43 541.53,-58.74 542.83,-51.86"/>
</a>
</g>
</g>
<!-- Node13 -->
<g id="Node000013" class="node">
<title>Node13</title>
<g id="a_Node000013"><a xlink:href="classarmnn_1_1_base_workload.html" target="_top" xlink:title=" ">
<polygon fill="white" stroke="#666666" points="788.25,-19.25 617.75,-19.25 617.75,0 788.25,0 788.25,-19.25"/>
<text xml:space="preserve" text-anchor="middle" x="703" y="-5.75" font-family="Helvetica,sans-Serif" font-size="10.00">BaseWorkload&lt; QueueDescriptor &gt;</text>
</a>
</g>
</g>
<!-- Node4&#45;&gt;Node13 -->
<g id="edge16_Node000013_Node000004" class="edge">
<title>Node4&#45;&gt;Node13</title>
<g id="a_edge16_Node000013_Node000004"><a xlink:title=" ">
<path fill="none" stroke="#63b8ff" d="M542.01,-39.99C572.69,-34.16 615.24,-26.09 648.74,-19.73"/>
<polygon fill="#63b8ff" stroke="#63b8ff" points="541.53,-36.51 532.36,-41.82 542.83,-43.39 541.53,-36.51"/>
</a>
</g>
</g>
<!-- Node5 -->
<g id="Node000005" class="node">
<title>Node5</title>
<g id="a_Node000005"><a xlink:href="structarmnn_1_1_gather_queue_descriptor.html" target="_top" xlink:title=" ">
<polygon fill="white" stroke="#666666" points="762.38,-162.25 643.62,-162.25 643.62,-143 762.38,-143 762.38,-162.25"/>
<text xml:space="preserve" text-anchor="middle" x="703" y="-148.75" font-family="Helvetica,sans-Serif" font-size="10.00">GatherQueueDescriptor</text>
</a>
</g>
</g>
<!-- Node5&#45;&gt;Node3 -->
<g id="edge4_Node000003_Node000005" class="edge">
<title>Node5&#45;&gt;Node3</title>
<g id="a_edge4_Node000003_Node000005"><a xlink:title=" ">
<path fill="none" stroke="#9a32cd" stroke-dasharray="5,2" d="M760.32,-140.09C806.74,-129.63 874.26,-114.15 933,-99.62 949.89,-95.45 968.18,-90.72 984.91,-86.3"/>
<polygon fill="#9a32cd" stroke="#9a32cd" points="759.75,-136.63 750.76,-142.23 761.29,-143.46 759.75,-136.63"/>
</a>
</g>
<text xml:space="preserve" text-anchor="start" x="852.38" y="-133.87" font-family="Helvetica,sans-Serif" font-size="10.00" fill="grey">m_Data</text>
</g>
<!-- Node6 -->
<g id="Node000006" class="node">
<title>Node6</title>
<g id="a_Node000006"><a xlink:href="structarmnn_1_1_queue_descriptor_with_parameters.html" target="_top" xlink:title=" ">
<polygon fill="white" stroke="#666666" points="580.75,-183.88 420.75,-183.88 420.75,-153.38 580.75,-153.38 580.75,-183.88"/>
<text xml:space="preserve" text-anchor="start" x="428.75" y="-170.38" font-family="Helvetica,sans-Serif" font-size="10.00">QueueDescriptorWithParameters</text>
<text xml:space="preserve" text-anchor="middle" x="500.75" y="-159.12" font-family="Helvetica,sans-Serif" font-size="10.00">&lt; GatherDescriptor &gt;</text>
</a>
</g>
</g>
<!-- Node6&#45;&gt;Node5 -->
<g id="edge5_Node000005_Node000006" class="edge">
<title>Node6&#45;&gt;Node5</title>
<g id="a_edge5_Node000005_Node000006"><a xlink:title=" ">
<path fill="none" stroke="#63b8ff" d="M592.46,-161.38C609.75,-160 627.41,-158.58 643.37,-157.31"/>
<polygon fill="#63b8ff" stroke="#63b8ff" points="592.38,-157.87 582.69,-162.16 592.94,-164.85 592.38,-157.87"/>
</a>
</g>
</g>
<!-- Node7 -->
<g id="Node000007" class="node">
<title>Node7</title>
<g id="a_Node000007"><a xlink:href="structarmnn_1_1_queue_descriptor.html" target="_top" xlink:title=" ">
<polygon fill="white" stroke="#666666" points="89.5,-120.25 0,-120.25 0,-101 89.5,-101 89.5,-120.25"/>
<text xml:space="preserve" text-anchor="middle" x="44.75" y="-106.75" font-family="Helvetica,sans-Serif" font-size="10.00">QueueDescriptor</text>
</a>
</g>
</g>
<!-- Node7&#45;&gt;Node6 -->
<g id="edge6_Node000006_Node000007" class="edge">
<title>Node7&#45;&gt;Node6</title>
<g id="a_edge6_Node000006_Node000007"><a xlink:title=" ">
<path fill="none" stroke="#63b8ff" d="M65.01,-128.11C80.42,-140.87 103.21,-157.2 126.5,-164.62 224.05,-195.74 343.36,-189.97 420.42,-180.99"/>
<polygon fill="#63b8ff" stroke="#63b8ff" points="67.45,-125.59 57.59,-121.72 62.88,-130.89 67.45,-125.59"/>
</a>
</g>
</g>
<!-- Node10 -->
<g id="Node000010" class="node">
<title>Node10</title>
<g id="a_Node000010"><a xlink:href="structarmnn_1_1_queue_descriptor_with_parameters.html" target="_top" xlink:title=" ">
<polygon fill="white" stroke="#666666" points="286.5,-155.88 126.5,-155.88 126.5,-125.38 286.5,-125.38 286.5,-155.88"/>
<text xml:space="preserve" text-anchor="start" x="134.5" y="-142.38" font-family="Helvetica,sans-Serif" font-size="10.00">QueueDescriptorWithParameters</text>
<text xml:space="preserve" text-anchor="middle" x="206.5" y="-131.12" font-family="Helvetica,sans-Serif" font-size="10.00">&lt; LayerDescriptor &gt;</text>
</a>
</g>
</g>
<!-- Node7&#45;&gt;Node10 -->
<g id="edge10_Node000010_Node000007" class="edge">
<title>Node7&#45;&gt;Node10</title>
<g id="a_edge10_Node000010_Node000007"><a xlink:title=" ">
<path fill="none" stroke="#63b8ff" d="M100.98,-121C109.08,-122.52 117.55,-124.11 126.01,-125.7"/>
<polygon fill="#63b8ff" stroke="#63b8ff" points="101.79,-117.59 91.31,-119.18 100.5,-124.47 101.79,-117.59"/>
</a>
</g>
</g>
<!-- Node7&#45;&gt;Node11 -->
<g id="edge13_Node000011_Node000007" class="edge">
<title>Node7&#45;&gt;Node11</title>
<g id="a_edge13_Node000011_Node000007"><a xlink:title=" ">
<path fill="none" stroke="#9a32cd" stroke-dasharray="5,2" d="M101.12,-108.52C216.02,-104.14 480.95,-94.05 617.4,-88.85"/>
<polygon fill="#9a32cd" stroke="#9a32cd" points="101.2,-105.01 91.34,-108.89 101.47,-112 101.2,-105.01"/>
</a>
</g>
<text xml:space="preserve" text-anchor="start" x="336.38" y="-105.45" font-family="Helvetica,sans-Serif" font-size="10.00" fill="grey">m_Data</text>
</g>
<!-- Node7&#45;&gt;Node13 -->
<g id="edge17_Node000013_Node000007" class="edge">
<title>Node7&#45;&gt;Node13</title>
<g id="a_edge17_Node000013_Node000007"><a xlink:title=" ">
<path fill="none" stroke="#9a32cd" stroke-dasharray="5,2" d="M94.02,-97.67C165.03,-79.15 302.07,-45.51 420.75,-28.62 486.4,-19.28 561.35,-14.51 617.36,-12.08"/>
<polygon fill="#9a32cd" stroke="#9a32cd" points="93.46,-94.2 84.67,-100.12 95.23,-100.97 93.46,-94.2"/>
</a>
</g>
<text xml:space="preserve" text-anchor="start" x="336.38" y="-53.51" font-family="Helvetica,sans-Serif" font-size="10.00" fill="grey">m_Data</text>
</g>
<!-- Node8 -->
<g id="Node000008" class="node">
<title>Node8</title>
<g id="a_Node000008"><a xlink:href="structarmnn_1_1_gather_descriptor.html" target="_top" xlink:title="A GatherDescriptor for the GatherLayer.">
<polygon fill="white" stroke="#666666" points="251.62,-231.25 161.38,-231.25 161.38,-212 251.62,-212 251.62,-231.25"/>
<text xml:space="preserve" text-anchor="middle" x="206.5" y="-217.75" font-family="Helvetica,sans-Serif" font-size="10.00">GatherDescriptor</text>
</a>
</g>
</g>
<!-- Node8&#45;&gt;Node6 -->
<g id="edge7_Node000006_Node000008" class="edge">
<title>Node8&#45;&gt;Node6</title>
<g id="a_edge7_Node000006_Node000008"><a xlink:title=" ">
<path fill="none" stroke="#9a32cd" stroke-dasharray="5,2" d="M263.46,-216.76C302.7,-212.8 356.25,-206.25 402.75,-196.62 418.54,-193.36 435.51,-188.82 450.77,-184.35"/>
<polygon fill="#9a32cd" stroke="#9a32cd" points="263.14,-213.28 253.53,-217.74 263.82,-220.25 263.14,-213.28"/>
</a>
</g>
<text xml:space="preserve" text-anchor="start" x="321.75" y="-216.61" font-family="Helvetica,sans-Serif" font-size="10.00" fill="grey">m_Parameters</text>
</g>
<!-- Node9 -->
<g id="Node000009" class="node">
<title>Node9</title>
<g id="a_Node000009"><a xlink:href="structarmnn_1_1_base_descriptor.html" target="_top" xlink:title="Base class for all descriptors.">
<polygon fill="white" stroke="#666666" points="86.5,-231.25 3,-231.25 3,-212 86.5,-212 86.5,-231.25"/>
<text xml:space="preserve" text-anchor="middle" x="44.75" y="-217.75" font-family="Helvetica,sans-Serif" font-size="10.00">BaseDescriptor</text>
</a>
</g>
</g>
<!-- Node9&#45;&gt;Node8 -->
<g id="edge8_Node000008_Node000009" class="edge">
<title>Node9&#45;&gt;Node8</title>
<g id="a_edge8_Node000008_Node000009"><a xlink:title=" ">
<path fill="none" stroke="#63b8ff" d="M98.2,-221.62C118.56,-221.62 141.62,-221.62 161.14,-221.62"/>
<polygon fill="#63b8ff" stroke="#63b8ff" points="98.4,-218.13 88.4,-221.63 98.4,-225.13 98.4,-218.13"/>
</a>
</g>
</g>
<!-- Node10&#45;&gt;Node6 -->
<g id="edge9_Node000006_Node000010" class="edge">
<title>Node10&#45;&gt;Node6</title>
<g id="a_edge9_Node000006_Node000010"><a xlink:title=" ">
<path fill="none" stroke="orange" stroke-dasharray="5,2" d="M298.43,-144.1C331.36,-145.88 368.79,-148.52 402.75,-152.38 408.52,-153.03 414.47,-153.8 420.44,-154.64"/>
<polygon fill="orange" stroke="orange" points="298.67,-140.6 288.5,-143.58 298.3,-147.59 298.67,-140.6"/>
</a>
</g>
<text xml:space="preserve" text-anchor="start" x="307.5" y="-157.12" font-family="Helvetica,sans-Serif" font-size="10.00" fill="grey">&lt; GatherDescriptor &gt;</text>
</g>
<!-- Node11&#45;&gt;Node3 -->
<g id="edge11_Node000003_Node000011" class="edge">
<title>Node11&#45;&gt;Node3</title>
<g id="a_edge11_Node000003_Node000011"><a xlink:title=" ">
<path fill="none" stroke="orange" stroke-dasharray="5,2" d="M800.09,-81.37C854.39,-78.97 921.16,-76.02 970.97,-73.82"/>
<polygon fill="orange" stroke="orange" points="800.05,-77.87 790.21,-81.81 800.36,-84.87 800.05,-77.87"/>
</a>
</g>
<text xml:space="preserve" text-anchor="start" x="809.25" y="-85.52" font-family="Helvetica,sans-Serif" font-size="10.00" fill="grey">&lt; GatherQueueDescriptor &gt;</text>
</g>
<!-- Node12 -->
<g id="Node000012" class="node">
<title>Node12</title>
<g id="a_Node000012"><a xlink:href="classarmnn_1_1_ref_base_workload.html" target="_top" xlink:title=" ">
<polygon fill="white" stroke="#666666" points="1137.25,-33.25 951,-33.25 951,-14 1137.25,-14 1137.25,-33.25"/>
<text xml:space="preserve" text-anchor="middle" x="1044.12" y="-19.75" font-family="Helvetica,sans-Serif" font-size="10.00">RefBaseWorkload&lt; QueueDescriptor &gt;</text>
</a>
</g>
</g>
<!-- Node12&#45;&gt;Node2 -->
<g id="edge14_Node000002_Node000012" class="edge">
<title>Node12&#45;&gt;Node2</title>
<g id="a_edge14_Node000002_Node000012"><a xlink:title=" ">
<path fill="none" stroke="orange" stroke-dasharray="5,2" d="M1148.98,-25.49C1190.41,-26.75 1238.51,-28.85 1282,-32.38 1287.71,-32.84 1293.6,-33.39 1299.53,-34"/>
<polygon fill="orange" stroke="orange" points="1149.09,-21.99 1138.99,-25.2 1148.89,-28.99 1149.09,-21.99"/>
</a>
</g>
<text xml:space="preserve" text-anchor="start" x="1158.25" y="-37.12" font-family="Helvetica,sans-Serif" font-size="10.00" fill="grey">&lt; GatherQueueDescriptor &gt;</text>
</g>
<!-- Node13&#45;&gt;Node12 -->
<g id="edge15_Node000012_Node000013" class="edge">
<title>Node13&#45;&gt;Node12</title>
<g id="a_edge15_Node000012_Node000013"><a xlink:title=" ">
<path fill="none" stroke="#63b8ff" d="M800.17,-13.6C847.34,-15.54 903.9,-17.88 950.57,-19.8"/>
<polygon fill="#63b8ff" stroke="#63b8ff" points="800.35,-10.1 790.21,-13.18 800.06,-17.09 800.35,-10.1"/>
</a>
</g>
</g>
</g>
</svg>
