<?xml version="1.0" encoding="UTF-8" standalone="no"?>
<!DOCTYPE svg PUBLIC "-//W3C//DTD SVG 1.1//EN"
 "http://www.w3.org/Graphics/SVG/1.1/DTD/svg11.dtd">
<!-- Generated by graphviz version 14.0.2 (20251019.1705)
 -->
<!-- Title: OptionalReferenceSwitch&lt; true, T &gt; Pages: 1 -->
<svg width="236pt" height="179pt"
 viewBox="0.00 0.00 236.00 179.00" xmlns="http://www.w3.org/2000/svg" xmlns:xlink="http://www.w3.org/1999/xlink">
<g id="graph0" class="graph" transform="scale(1 1) rotate(0) translate(4 174.5)">
<title>OptionalReferenceSwitch&lt; true, T &gt;</title>
<!-- Node1 -->
<g id="Node000001" class="node">
<title>Node1</title>
<g id="a_Node000001"><a xlink:title="This is the special case for reference types.">
<polygon fill="#999999" stroke="#666666" points="127,-30.5 0,-30.5 0,0 127,0 127,-30.5"/>
<text xml:space="preserve" text-anchor="start" x="8" y="-17" font-family="Helvetica,sans-Serif" font-size="10.00">OptionalReferenceSwitch</text>
<text xml:space="preserve" text-anchor="middle" x="63.5" y="-5.75" font-family="Helvetica,sans-Serif" font-size="10.00">&lt; true, T &gt;</text>
</a>
</g>
</g>
<!-- Node2 -->
<g id="Node000002" class="node">
<title>Node2</title>
<g id="a_Node000002"><a xlink:href="classarmnn_1_1_optional_base.html" target="_top" xlink:title="OptionalBase is the common functionality between reference and non&#45;reference optional types.">
<polygon fill="white" stroke="#666666" points="100.75,-170.5 26.25,-170.5 26.25,-151.25 100.75,-151.25 100.75,-170.5"/>
<text xml:space="preserve" text-anchor="middle" x="63.5" y="-157" font-family="Helvetica,sans-Serif" font-size="10.00">OptionalBase</text>
</a>
</g>
</g>
<!-- Node2&#45;&gt;Node1 -->
<g id="edge1_Node000001_Node000002" class="edge">
<title>Node2&#45;&gt;Node1</title>
<g id="a_edge1_Node000001_Node000002"><a xlink:title=" ">
<path fill="none" stroke="#63b8ff" d="M58.63,-139.59C55.93,-110.12 56.14,-56.21 59.26,-30.55"/>
<polygon fill="#63b8ff" stroke="#63b8ff" points="55.14,-139.89 59.83,-149.39 62.08,-139.04 55.14,-139.89"/>
</a>
</g>
</g>
<!-- Node2&#45;&gt;Node1 -->
<g id="edge2_Node000001_Node000002" class="edge">
<title>Node2&#45;&gt;Node1</title>
<g id="a_edge2_Node000001_Node000002"><a xlink:title=" ">
<path fill="none" stroke="#63b8ff" d="M68.37,-139.59C71.07,-110.12 70.86,-56.21 67.74,-30.55"/>
<polygon fill="#63b8ff" stroke="#63b8ff" points="64.92,-139.04 67.17,-149.39 71.86,-139.89 64.92,-139.04"/>
</a>
</g>
</g>
<!-- Node3 -->
<g id="Node000003" class="node">
<title>Node3</title>
<g id="a_Node000003"><a xlink:href="classarmnn_1_1_optional_reference_switch.html" target="_top" xlink:title="The default implementation is the non&#45;reference case.">
<polygon fill="white" stroke="#666666" points="228,-114.25 101,-114.25 101,-83.75 228,-83.75 228,-114.25"/>
<text xml:space="preserve" text-anchor="start" x="109" y="-100.75" font-family="Helvetica,sans-Serif" font-size="10.00">OptionalReferenceSwitch</text>
<text xml:space="preserve" text-anchor="middle" x="164.5" y="-89.5" font-family="Helvetica,sans-Serif" font-size="10.00">&lt; IsReference, T &gt;</text>
</a>
</g>
</g>
<!-- Node2&#45;&gt;Node3 -->
<g id="edge4_Node000003_Node000002" class="edge">
<title>Node2&#45;&gt;Node3</title>
<g id="a_edge4_Node000003_Node000002"><a xlink:title=" ">
<path fill="none" stroke="#63b8ff" d="M88.42,-145.1C104.13,-135.79 124.33,-123.82 139.96,-114.55"/>
<polygon fill="#63b8ff" stroke="#63b8ff" points="86.96,-141.9 80.14,-150.01 90.53,-147.92 86.96,-141.9"/>
</a>
</g>
</g>
<!-- Node3&#45;&gt;Node1 -->
<g id="edge3_Node000001_Node000003" class="edge">
<title>Node3&#45;&gt;Node1</title>
<g id="a_edge3_Node000001_Node000003"><a xlink:title=" ">
<path fill="none" stroke="orange" stroke-dasharray="5,2" d="M137.66,-76.28C119.87,-61.88 97.01,-43.37 81.4,-30.74"/>
<polygon fill="orange" stroke="orange" points="135.29,-78.86 145.27,-82.43 139.7,-73.42 135.29,-78.86"/>
</a>
</g>
<text xml:space="preserve" text-anchor="start" x="126.05" y="-53.25" font-family="Helvetica,sans-Serif" font-size="10.00" fill="grey">&lt; true, T &gt;</text>
</g>
</g>
</svg>
