<?xml version="1.0" encoding="UTF-8" standalone="no"?>
<!DOCTYPE svg PUBLIC "-//W3C//DTD SVG 1.1//EN"
 "http://www.w3.org/Graphics/SVG/1.1/DTD/svg11.dtd">
<!-- Generated by graphviz version 14.0.2 (20251019.1705)
 -->
<!-- Title: ClMeanWorkload Pages: 1 -->
<svg width="400pt" height="296pt"
 viewBox="0.00 0.00 400.00 296.00" xmlns="http://www.w3.org/2000/svg" xmlns:xlink="http://www.w3.org/1999/xlink">
<g id="graph0" class="graph" transform="scale(1 1) rotate(0) translate(4 292)">
<title>ClMeanWorkload</title>
<!-- Node1 -->
<g id="Node000001" class="node">
<title>Node1</title>
<g id="a_Node000001"><a xlink:title=" ">
<polygon fill="#999999" stroke="#666666" points="244.38,-19.25 154.12,-19.25 154.12,0 244.38,0 244.38,-19.25"/>
<text xml:space="preserve" text-anchor="middle" x="199.25" y="-5.75" font-family="Helvetica,sans-Serif" font-size="10.00">ClMeanWorkload</text>
</a>
</g>
</g>
<!-- Node2 -->
<g id="Node000002" class="node">
<title>Node2</title>
<g id="a_Node000002"><a xlink:href="classarmnn_1_1_cl_base_workload.html" target="_top" xlink:title=" ">
<polygon fill="white" stroke="#666666" points="274.38,-86.75 124.12,-86.75 124.12,-56.25 274.38,-56.25 274.38,-86.75"/>
<text xml:space="preserve" text-anchor="start" x="132.12" y="-73.25" font-family="Helvetica,sans-Serif" font-size="10.00">ClBaseWorkload&lt; MeanQueue</text>
<text xml:space="preserve" text-anchor="middle" x="199.25" y="-62" font-family="Helvetica,sans-Serif" font-size="10.00">Descriptor &gt;</text>
</a>
</g>
</g>
<!-- Node2&#45;&gt;Node1 -->
<g id="edge1_Node000001_Node000002" class="edge">
<title>Node2&#45;&gt;Node1</title>
<g id="a_edge1_Node000001_Node000002"><a xlink:title=" ">
<path fill="none" stroke="#63b8ff" d="M199.25,-44.77C199.25,-35.79 199.25,-26.29 199.25,-19.6"/>
<polygon fill="#63b8ff" stroke="#63b8ff" points="195.75,-44.49 199.25,-54.49 202.75,-44.49 195.75,-44.49"/>
</a>
</g>
</g>
<!-- Node3 -->
<g id="Node000003" class="node">
<title>Node3</title>
<g id="a_Node000003"><a xlink:href="classarmnn_1_1_base_workload.html" target="_top" xlink:title=" ">
<polygon fill="white" stroke="#666666" points="194.5,-159.25 0,-159.25 0,-140 194.5,-140 194.5,-159.25"/>
<text xml:space="preserve" text-anchor="middle" x="97.25" y="-145.75" font-family="Helvetica,sans-Serif" font-size="10.00">BaseWorkload&lt; MeanQueueDescriptor &gt;</text>
</a>
</g>
</g>
<!-- Node3&#45;&gt;Node2 -->
<g id="edge2_Node000002_Node000003" class="edge">
<title>Node3&#45;&gt;Node2</title>
<g id="a_edge2_Node000002_Node000003"><a xlink:title=" ">
<path fill="none" stroke="#63b8ff" d="M118.5,-132.76C136.58,-119.27 162.32,-100.06 179.85,-86.98"/>
<polygon fill="#63b8ff" stroke="#63b8ff" points="116.48,-129.9 110.56,-138.69 120.67,-135.51 116.48,-129.9"/>
</a>
</g>
</g>
<!-- Node4 -->
<g id="Node000004" class="node">
<title>Node4</title>
<g id="a_Node000004"><a xlink:href="classarmnn_1_1_i_workload.html" target="_top" xlink:title="Workload interface to enqueue a layer computation.">
<polygon fill="white" stroke="#666666" points="143,-288 83.5,-288 83.5,-268.75 143,-268.75 143,-288"/>
<text xml:space="preserve" text-anchor="middle" x="113.25" y="-274.5" font-family="Helvetica,sans-Serif" font-size="10.00">IWorkload</text>
</a>
</g>
</g>
<!-- Node4&#45;&gt;Node3 -->
<g id="edge3_Node000003_Node000004" class="edge">
<title>Node4&#45;&gt;Node3</title>
<g id="a_edge3_Node000003_Node000004"><a xlink:title=" ">
<path fill="none" stroke="#63b8ff" d="M72.49,-268.34C52.81,-261.71 30.97,-250.47 19.25,-231.75 0.48,-201.78 47.24,-173.63 76.26,-159.72"/>
<polygon fill="#63b8ff" stroke="#63b8ff" points="71.4,-271.67 81.98,-271.22 73.43,-264.97 71.4,-271.67"/>
</a>
</g>
</g>
<!-- Node5 -->
<g id="Node000005" class="node">
<title>Node5</title>
<g id="a_Node000005"><a xlink:href="classarmnn_1_1_base_workload.html" target="_top" xlink:title=" ">
<polygon fill="white" stroke="#666666" points="198.5,-231.75 28,-231.75 28,-212.5 198.5,-212.5 198.5,-231.75"/>
<text xml:space="preserve" text-anchor="middle" x="113.25" y="-218.25" font-family="Helvetica,sans-Serif" font-size="10.00">BaseWorkload&lt; QueueDescriptor &gt;</text>
</a>
</g>
</g>
<!-- Node4&#45;&gt;Node5 -->
<g id="edge5_Node000005_Node000004" class="edge">
<title>Node4&#45;&gt;Node5</title>
<g id="a_edge5_Node000005_Node000004"><a xlink:title=" ">
<path fill="none" stroke="#63b8ff" d="M113.25,-257.19C113.25,-248.48 113.25,-238.74 113.25,-231.92"/>
<polygon fill="#63b8ff" stroke="#63b8ff" points="109.75,-256.9 113.25,-266.9 116.75,-256.9 109.75,-256.9"/>
</a>
</g>
</g>
<!-- Node7 -->
<g id="Node000007" class="node">
<title>Node7</title>
<g id="a_Node000007"><a xlink:href="classarmnn_1_1_base_workload.html" target="_top" xlink:title=" ">
<polygon fill="white" stroke="#666666" points="387.5,-231.75 217,-231.75 217,-212.5 387.5,-212.5 387.5,-231.75"/>
<text xml:space="preserve" text-anchor="middle" x="302.25" y="-218.25" font-family="Helvetica,sans-Serif" font-size="10.00">BaseWorkload&lt; QueueDescriptor &gt;</text>
</a>
</g>
</g>
<!-- Node4&#45;&gt;Node7 -->
<g id="edge8_Node000007_Node000004" class="edge">
<title>Node4&#45;&gt;Node7</title>
<g id="a_edge8_Node000007_Node000004"><a xlink:title=" ">
<path fill="none" stroke="#63b8ff" d="M153.98,-265.68C188.91,-255.66 238.52,-241.42 270.55,-232.22"/>
<polygon fill="#63b8ff" stroke="#63b8ff" points="153.3,-262.24 144.65,-268.36 155.23,-268.97 153.3,-262.24"/>
</a>
</g>
</g>
<!-- Node5&#45;&gt;Node3 -->
<g id="edge4_Node000003_Node000005" class="edge">
<title>Node5&#45;&gt;Node3</title>
<g id="a_edge4_Node000003_Node000005"><a xlink:title=" ">
<path fill="none" stroke="orange" stroke-dasharray="5,2" d="M108.69,-201.05C105.61,-187.44 101.67,-170.1 99.31,-159.7"/>
<polygon fill="orange" stroke="orange" points="105.26,-201.74 110.89,-210.72 112.09,-200.19 105.26,-201.74"/>
</a>
</g>
<text xml:space="preserve" text-anchor="start" x="110.15" y="-182" font-family="Helvetica,sans-Serif" font-size="10.00" fill="grey">&lt; MeanQueueDescriptor &gt;</text>
</g>
<!-- Node6 -->
<g id="Node000006" class="node">
<title>Node6</title>
<g id="a_Node000006"><a xlink:href="classarmnn_1_1_cl_base_workload.html" target="_top" xlink:title=" ">
<polygon fill="white" stroke="#666666" points="392.38,-159.25 212.12,-159.25 212.12,-140 392.38,-140 392.38,-159.25"/>
<text xml:space="preserve" text-anchor="middle" x="302.25" y="-145.75" font-family="Helvetica,sans-Serif" font-size="10.00">ClBaseWorkload&lt; QueueDescriptor &gt;</text>
</a>
</g>
</g>
<!-- Node6&#45;&gt;Node2 -->
<g id="edge6_Node000002_Node000006" class="edge">
<title>Node6&#45;&gt;Node2</title>
<g id="a_edge6_Node000002_Node000006"><a xlink:title=" ">
<path fill="none" stroke="orange" stroke-dasharray="5,2" d="M280.79,-132.76C262.53,-119.27 236.54,-100.06 218.84,-86.98"/>
<polygon fill="orange" stroke="orange" points="278.69,-135.56 288.81,-138.69 282.85,-129.94 278.69,-135.56"/>
</a>
</g>
<text xml:space="preserve" text-anchor="start" x="268.99" y="-109.5" font-family="Helvetica,sans-Serif" font-size="10.00" fill="grey">&lt; MeanQueueDescriptor &gt;</text>
</g>
<!-- Node7&#45;&gt;Node6 -->
<g id="edge7_Node000006_Node000007" class="edge">
<title>Node7&#45;&gt;Node6</title>
<g id="a_edge7_Node000006_Node000007"><a xlink:title=" ">
<path fill="none" stroke="#63b8ff" d="M302.25,-201.05C302.25,-187.44 302.25,-170.1 302.25,-159.7"/>
<polygon fill="#63b8ff" stroke="#63b8ff" points="298.75,-200.68 302.25,-210.68 305.75,-200.68 298.75,-200.68"/>
</a>
</g>
</g>
</g>
</svg>
