<?xml version="1.0" encoding="UTF-8" standalone="no"?>
<!DOCTYPE svg PUBLIC "-//W3C//DTD SVG 1.1//EN"
 "http://www.w3.org/Graphics/SVG/1.1/DTD/svg11.dtd">
<!-- Generated by graphviz version 14.0.2 (20251019.1705)
 -->
<!-- Title: Int32ToInt32tEncoder Pages: 1 -->
<svg width="268pt" height="311pt"
 viewBox="0.00 0.00 268.00 311.00" xmlns="http://www.w3.org/2000/svg" xmlns:xlink="http://www.w3.org/1999/xlink">
<g id="graph0" class="graph" transform="scale(1 1) rotate(0) translate(4 307.25)">
<title>Int32ToInt32tEncoder</title>
<!-- Node1 -->
<g id="Node000001" class="node">
<title>Node1</title>
<g id="a_Node000001"><a xlink:title=" ">
<polygon fill="#999999" stroke="#666666" points="182.12,-19.25 73.12,-19.25 73.12,0 182.12,0 182.12,-19.25"/>
<text xml:space="preserve" text-anchor="middle" x="127.62" y="-5.75" font-family="Helvetica,sans-Serif" font-size="10.00">Int32ToInt32tEncoder</text>
</a>
</g>
</g>
<!-- Node2 -->
<g id="Node000002" class="node">
<title>Node2</title>
<g id="a_Node000002"><a xlink:href="classarmnn_1_1_typed_iterator.html" target="_top" xlink:title=" ">
<polygon fill="white" stroke="#666666" points="188.88,-86.75 66.38,-86.75 66.38,-56.25 188.88,-56.25 188.88,-86.75"/>
<text xml:space="preserve" text-anchor="start" x="74.38" y="-73.25" font-family="Helvetica,sans-Serif" font-size="10.00">TypedIterator&lt; int32</text>
<text xml:space="preserve" text-anchor="middle" x="127.62" y="-62" font-family="Helvetica,sans-Serif" font-size="10.00">_t, Encoder&lt; int32_t &gt; &gt;</text>
</a>
</g>
</g>
<!-- Node2&#45;&gt;Node1 -->
<g id="edge1_Node000001_Node000002" class="edge">
<title>Node2&#45;&gt;Node1</title>
<g id="a_edge1_Node000001_Node000002"><a xlink:title=" ">
<path fill="none" stroke="#63b8ff" d="M127.62,-44.77C127.62,-35.79 127.62,-26.29 127.62,-19.6"/>
<polygon fill="#63b8ff" stroke="#63b8ff" points="124.13,-44.49 127.63,-54.49 131.13,-44.49 124.13,-44.49"/>
</a>
</g>
</g>
<!-- Node3 -->
<g id="Node000003" class="node">
<title>Node3</title>
<g id="a_Node000003"><a xlink:href="classarmnn_1_1_encoder.html" target="_top" xlink:title=" ">
<polygon fill="white" stroke="#666666" points="113.25,-174.5 14,-174.5 14,-155.25 113.25,-155.25 113.25,-174.5"/>
<text xml:space="preserve" text-anchor="middle" x="63.62" y="-161" font-family="Helvetica,sans-Serif" font-size="10.00">Encoder&lt; int32_t &gt;</text>
</a>
</g>
</g>
<!-- Node3&#45;&gt;Node2 -->
<g id="edge2_Node000002_Node000003" class="edge">
<title>Node3&#45;&gt;Node2</title>
<g id="a_edge2_Node000002_Node000003"><a xlink:title=" ">
<path fill="none" stroke="#63b8ff" d="M76.34,-145.72C88.43,-128.46 106.38,-102.84 117.52,-86.93"/>
<polygon fill="#63b8ff" stroke="#63b8ff" points="73.73,-143.34 70.86,-153.54 79.47,-147.36 73.73,-143.34"/>
</a>
</g>
</g>
<!-- Node4 -->
<g id="Node000004" class="node">
<title>Node4</title>
<g id="a_Node000004"><a xlink:href="classarmnn_1_1_base_iterator.html" target="_top" xlink:title=" ">
<polygon fill="white" stroke="#666666" points="69.25,-303.25 0,-303.25 0,-284 69.25,-284 69.25,-303.25"/>
<text xml:space="preserve" text-anchor="middle" x="34.62" y="-289.75" font-family="Helvetica,sans-Serif" font-size="10.00">BaseIterator</text>
</a>
</g>
</g>
<!-- Node4&#45;&gt;Node3 -->
<g id="edge3_Node000003_Node000004" class="edge">
<title>Node4&#45;&gt;Node3</title>
<g id="a_edge3_Node000003_Node000004"><a xlink:title=" ">
<path fill="none" stroke="#63b8ff" d="M35.59,-272.4C36.5,-259.5 38.26,-242.49 41.62,-227.75 46.04,-208.41 54.62,-186.78 59.66,-174.9"/>
<polygon fill="#63b8ff" stroke="#63b8ff" points="32.1,-272 35.02,-282.19 39.09,-272.41 32.1,-272"/>
</a>
</g>
</g>
<!-- Node5 -->
<g id="Node000005" class="node">
<title>Node5</title>
<g id="a_Node000005"><a xlink:href="classarmnn_1_1_encoder.html" target="_top" xlink:title=" ">
<polygon fill="white" stroke="#666666" points="144.62,-247 50.62,-247 50.62,-227.75 144.62,-227.75 144.62,-247"/>
<text xml:space="preserve" text-anchor="middle" x="97.62" y="-233.5" font-family="Helvetica,sans-Serif" font-size="10.00">Encoder&lt; IType &gt;</text>
</a>
</g>
</g>
<!-- Node4&#45;&gt;Node5 -->
<g id="edge5_Node000005_Node000004" class="edge">
<title>Node4&#45;&gt;Node5</title>
<g id="a_edge5_Node000005_Node000004"><a xlink:title=" ">
<path fill="none" stroke="#63b8ff" d="M53.62,-276.27C64.73,-266.71 78.3,-255.01 87.42,-247.17"/>
<polygon fill="#63b8ff" stroke="#63b8ff" points="51.47,-273.5 46.18,-282.68 56.04,-278.81 51.47,-273.5"/>
</a>
</g>
</g>
<!-- Node5&#45;&gt;Node3 -->
<g id="edge4_Node000003_Node000005" class="edge">
<title>Node5&#45;&gt;Node3</title>
<g id="a_edge4_Node000003_Node000005"><a xlink:title=" ">
<path fill="none" stroke="orange" stroke-dasharray="5,2" d="M88.34,-217.13C81.72,-203.4 73.12,-185.56 68,-174.95"/>
<polygon fill="orange" stroke="orange" points="85.16,-218.6 92.66,-226.08 91.47,-215.56 85.16,-218.6"/>
</a>
</g>
<text xml:space="preserve" text-anchor="start" x="87.67" y="-197.25" font-family="Helvetica,sans-Serif" font-size="10.00" fill="grey">&lt; int32_t &gt;</text>
</g>
<!-- Node6 -->
<g id="Node000006" class="node">
<title>Node6</title>
<g id="a_Node000006"><a xlink:href="classarmnn_1_1_typed_iterator.html" target="_top" xlink:title=" ">
<polygon fill="white" stroke="#666666" points="255.62,-174.5 131.62,-174.5 131.62,-155.25 255.62,-155.25 255.62,-174.5"/>
<text xml:space="preserve" text-anchor="middle" x="193.62" y="-161" font-family="Helvetica,sans-Serif" font-size="10.00">TypedIterator&lt; T, Base &gt;</text>
</a>
</g>
</g>
<!-- Node6&#45;&gt;Node2 -->
<g id="edge6_Node000002_Node000006" class="edge">
<title>Node6&#45;&gt;Node2</title>
<g id="a_edge6_Node000002_Node000006"><a xlink:title=" ">
<path fill="none" stroke="orange" stroke-dasharray="5,2" d="M180.51,-145.72C168.04,-128.46 149.54,-102.84 138.05,-86.93"/>
<polygon fill="orange" stroke="orange" points="177.48,-147.5 186.17,-153.55 183.15,-143.4 177.48,-147.5"/>
</a>
</g>
<text xml:space="preserve" text-anchor="start" x="177.12" y="-124.75" font-family="Helvetica,sans-Serif" font-size="10.00" fill="grey">&lt; int32_t, Encoder</text>
<text xml:space="preserve" text-anchor="start" x="177.12" y="-109.5" font-family="Helvetica,sans-Serif" font-size="10.00" fill="grey">  &lt; int32_t &gt; &gt;</text>
</g>
<!-- Node7 -->
<g id="Node000007" class="node">
<title>Node7</title>
<g id="a_Node000007"><a xlink:title=" ">
<polygon fill="white" stroke="#666666" points="212.88,-247 174.38,-247 174.38,-227.75 212.88,-227.75 212.88,-247"/>
<text xml:space="preserve" text-anchor="middle" x="193.62" y="-233.5" font-family="Helvetica,sans-Serif" font-size="10.00">Base</text>
</a>
</g>
</g>
<!-- Node7&#45;&gt;Node6 -->
<g id="edge7_Node000006_Node000007" class="edge">
<title>Node7&#45;&gt;Node6</title>
<g id="a_edge7_Node000006_Node000007"><a xlink:title=" ">
<path fill="none" stroke="#63b8ff" d="M193.62,-216.3C193.62,-202.69 193.62,-185.35 193.62,-174.95"/>
<polygon fill="#63b8ff" stroke="#63b8ff" points="190.13,-215.93 193.63,-225.93 197.13,-215.93 190.13,-215.93"/>
</a>
</g>
</g>
</g>
</svg>
