<?xml version="1.0" encoding="UTF-8" standalone="no"?>
<!DOCTYPE svg PUBLIC "-//W3C//DTD SVG 1.1//EN"
 "http://www.w3.org/Graphics/SVG/1.1/DTD/svg11.dtd">
<!-- Generated by graphviz version 14.0.2 (20251019.1705)
 -->
<!-- Title: RefElementwiseUnaryWorkload Pages: 1 -->
<svg width="1245pt" height="90pt"
 viewBox="0.00 0.00 1245.00 90.00" xmlns="http://www.w3.org/2000/svg" xmlns:xlink="http://www.w3.org/1999/xlink">
<g id="graph0" class="graph" transform="scale(1 1) rotate(0) translate(4 85.79)">
<title>RefElementwiseUnaryWorkload</title>
<!-- Node1 -->
<g id="Node000001" class="node">
<title>Node1</title>
<g id="a_Node000001"><a xlink:title=" ">
<polygon fill="#999999" stroke="#666666" points="1237,-41.25 1082.25,-41.25 1082.25,-22 1237,-22 1237,-41.25"/>
<text xml:space="preserve" text-anchor="middle" x="1159.62" y="-27.75" font-family="Helvetica,sans-Serif" font-size="10.00">RefElementwiseUnaryWorkload</text>
</a>
</g>
</g>
<!-- Node2 -->
<g id="Node000002" class="node">
<title>Node2</title>
<g id="a_Node000002"><a xlink:href="classarmnn_1_1_ref_base_workload.html" target="_top" xlink:title=" ">
<polygon fill="white" stroke="#666666" points="1045.25,-46.88 885.25,-46.88 885.25,-16.38 1045.25,-16.38 1045.25,-46.88"/>
<text xml:space="preserve" text-anchor="start" x="893.25" y="-33.38" font-family="Helvetica,sans-Serif" font-size="10.00">RefBaseWorkload&lt; Elementwise</text>
<text xml:space="preserve" text-anchor="middle" x="965.25" y="-22.12" font-family="Helvetica,sans-Serif" font-size="10.00">UnaryQueueDescriptor &gt;</text>
</a>
</g>
</g>
<!-- Node2&#45;&gt;Node1 -->
<g id="edge1_Node000001_Node000002" class="edge">
<title>Node2&#45;&gt;Node1</title>
<g id="a_edge1_Node000001_Node000002"><a xlink:title=" ">
<path fill="none" stroke="#63b8ff" d="M1056.94,-31.62C1065.3,-31.62 1073.71,-31.62 1081.93,-31.62"/>
<polygon fill="#63b8ff" stroke="#63b8ff" points="1057.12,-28.13 1047.12,-31.63 1057.12,-35.13 1057.12,-28.13"/>
</a>
</g>
</g>
<!-- Node3 -->
<g id="Node000003" class="node">
<title>Node3</title>
<g id="a_Node000003"><a xlink:href="classarmnn_1_1_base_workload.html" target="_top" xlink:title=" ">
<polygon fill="white" stroke="#666666" points="648.25,-67.88 504,-67.88 504,-37.38 648.25,-37.38 648.25,-67.88"/>
<text xml:space="preserve" text-anchor="start" x="512" y="-54.38" font-family="Helvetica,sans-Serif" font-size="10.00">BaseWorkload&lt; Elementwise</text>
<text xml:space="preserve" text-anchor="middle" x="576.12" y="-43.12" font-family="Helvetica,sans-Serif" font-size="10.00">UnaryQueueDescriptor &gt;</text>
</a>
</g>
</g>
<!-- Node3&#45;&gt;Node2 -->
<g id="edge2_Node000002_Node000003" class="edge">
<title>Node3&#45;&gt;Node2</title>
<g id="a_edge2_Node000002_Node000003"><a xlink:title=" ">
<path fill="none" stroke="#63b8ff" d="M659.85,-48.14C726.38,-44.53 819.25,-39.49 884.87,-35.93"/>
<polygon fill="#63b8ff" stroke="#63b8ff" points="659.89,-44.63 650.09,-48.67 660.27,-51.62 659.89,-44.63"/>
</a>
</g>
</g>
<!-- Node4 -->
<g id="Node000004" class="node">
<title>Node4</title>
<g id="a_Node000004"><a xlink:href="classarmnn_1_1_i_workload.html" target="_top" xlink:title="Workload interface to enqueue a layer computation.">
<polygon fill="white" stroke="#666666" points="59.5,-56.25 0,-56.25 0,-37 59.5,-37 59.5,-56.25"/>
<text xml:space="preserve" text-anchor="middle" x="29.75" y="-42.75" font-family="Helvetica,sans-Serif" font-size="10.00">IWorkload</text>
</a>
</g>
</g>
<!-- Node4&#45;&gt;Node3 -->
<g id="edge3_Node000003_Node000004" class="edge">
<title>Node4&#45;&gt;Node3</title>
<g id="a_edge3_Node000003_Node000004"><a xlink:title=" ">
<path fill="none" stroke="#63b8ff" d="M70.1,-59.92C78.7,-62.29 87.83,-64.39 96.5,-65.62 258.65,-88.79 301.74,-83.88 465,-70.62 477.55,-69.61 490.83,-67.94 503.65,-66.03"/>
<polygon fill="#63b8ff" stroke="#63b8ff" points="71.21,-56.6 60.63,-57.14 69.24,-63.32 71.21,-56.6"/>
</a>
</g>
</g>
<!-- Node5 -->
<g id="Node000005" class="node">
<title>Node5</title>
<g id="a_Node000005"><a xlink:href="classarmnn_1_1_base_workload.html" target="_top" xlink:title=" ">
<polygon fill="white" stroke="#666666" points="267,-56.25 96.5,-56.25 96.5,-37 267,-37 267,-56.25"/>
<text xml:space="preserve" text-anchor="middle" x="181.75" y="-42.75" font-family="Helvetica,sans-Serif" font-size="10.00">BaseWorkload&lt; QueueDescriptor &gt;</text>
</a>
</g>
</g>
<!-- Node4&#45;&gt;Node5 -->
<g id="edge5_Node000005_Node000004" class="edge">
<title>Node4&#45;&gt;Node5</title>
<g id="a_edge5_Node000005_Node000004"><a xlink:title=" ">
<path fill="none" stroke="#63b8ff" d="M71.02,-46.62C78.87,-46.62 87.36,-46.62 96.04,-46.62"/>
<polygon fill="#63b8ff" stroke="#63b8ff" points="71.19,-43.13 61.19,-46.63 71.19,-50.13 71.19,-43.13"/>
</a>
</g>
</g>
<!-- Node7 -->
<g id="Node000007" class="node">
<title>Node7</title>
<g id="a_Node000007"><a xlink:href="classarmnn_1_1_base_workload.html" target="_top" xlink:title=" ">
<polygon fill="white" stroke="#666666" points="267,-19.25 96.5,-19.25 96.5,0 267,0 267,-19.25"/>
<text xml:space="preserve" text-anchor="middle" x="181.75" y="-5.75" font-family="Helvetica,sans-Serif" font-size="10.00">BaseWorkload&lt; QueueDescriptor &gt;</text>
</a>
</g>
</g>
<!-- Node4&#45;&gt;Node7 -->
<g id="edge8_Node000007_Node000004" class="edge">
<title>Node4&#45;&gt;Node7</title>
<g id="a_edge8_Node000007_Node000004"><a xlink:title=" ">
<path fill="none" stroke="#63b8ff" d="M70.61,-34.62C79.12,-32.19 88.09,-29.74 96.5,-27.62 107.53,-24.86 119.43,-22.15 130.72,-19.7"/>
<polygon fill="#63b8ff" stroke="#63b8ff" points="69.84,-31.19 61.21,-37.34 71.79,-37.92 69.84,-31.19"/>
</a>
</g>
</g>
<!-- Node5&#45;&gt;Node3 -->
<g id="edge4_Node000003_Node000005" class="edge">
<title>Node5&#45;&gt;Node3</title>
<g id="a_edge4_Node000003_Node000005"><a xlink:title=" ">
<path fill="none" stroke="orange" stroke-dasharray="5,2" d="M278.79,-48.09C348.3,-49.16 440.73,-50.57 503.76,-51.53"/>
<polygon fill="orange" stroke="orange" points="278.97,-44.6 268.92,-47.94 278.87,-51.6 278.97,-44.6"/>
</a>
</g>
<text xml:space="preserve" text-anchor="start" x="288" y="-55.6" font-family="Helvetica,sans-Serif" font-size="10.00" fill="grey">&lt; ElementwiseUnaryQueueDescriptor &gt;</text>
</g>
<!-- Node6 -->
<g id="Node000006" class="node">
<title>Node6</title>
<g id="a_Node000006"><a xlink:href="classarmnn_1_1_ref_base_workload.html" target="_top" xlink:title=" ">
<polygon fill="white" stroke="#666666" points="669.25,-19.25 483,-19.25 483,0 669.25,0 669.25,-19.25"/>
<text xml:space="preserve" text-anchor="middle" x="576.12" y="-5.75" font-family="Helvetica,sans-Serif" font-size="10.00">RefBaseWorkload&lt; QueueDescriptor &gt;</text>
</a>
</g>
</g>
<!-- Node6&#45;&gt;Node2 -->
<g id="edge6_Node000002_Node000006" class="edge">
<title>Node6&#45;&gt;Node2</title>
<g id="a_edge6_Node000002_Node000006"><a xlink:title=" ">
<path fill="none" stroke="orange" stroke-dasharray="5,2" d="M680.99,-8.71C736.38,-9.06 805.63,-10.84 867.25,-16.38 873.02,-16.89 878.97,-17.54 884.95,-18.28"/>
<polygon fill="orange" stroke="orange" points="681.27,-5.21 671.26,-8.66 681.24,-12.21 681.27,-5.21"/>
</a>
</g>
<text xml:space="preserve" text-anchor="start" x="690.25" y="-21.12" font-family="Helvetica,sans-Serif" font-size="10.00" fill="grey">&lt; ElementwiseUnaryQueueDescriptor &gt;</text>
</g>
<!-- Node7&#45;&gt;Node6 -->
<g id="edge7_Node000006_Node000007" class="edge">
<title>Node7&#45;&gt;Node6</title>
<g id="a_edge7_Node000006_Node000007"><a xlink:title=" ">
<path fill="none" stroke="#63b8ff" d="M278.79,-9.62C340.91,-9.62 421.35,-9.62 482.74,-9.62"/>
<polygon fill="#63b8ff" stroke="#63b8ff" points="278.92,-6.13 268.92,-9.63 278.92,-13.13 278.92,-6.13"/>
</a>
</g>
</g>
</g>
</svg>
