<?xml version="1.0" encoding="UTF-8" standalone="no"?>
<!DOCTYPE svg PUBLIC "-//W3C//DTD SVG 1.1//EN"
 "http://www.w3.org/Graphics/SVG/1.1/DTD/svg11.dtd">
<!-- Generated by graphviz version 14.0.2 (20251019.1705)
 -->
<!-- Title: NeonElementwiseBinaryWorkload Pages: 1 -->
<svg width="1746pt" height="240pt"
 viewBox="0.00 0.00 1746.00 240.00" xmlns="http://www.w3.org/2000/svg" xmlns:xlink="http://www.w3.org/1999/xlink">
<g id="graph0" class="graph" transform="scale(1 1) rotate(0) translate(4 235.93)">
<title>NeonElementwiseBinaryWorkload</title>
<!-- Node1 -->
<g id="Node000001" class="node">
<title>Node1</title>
<g id="a_Node000001"><a xlink:title=" ">
<polygon fill="#999999" stroke="#666666" points="1738,-57.25 1574.25,-57.25 1574.25,-38 1738,-38 1738,-57.25"/>
<text xml:space="preserve" text-anchor="middle" x="1656.12" y="-43.75" font-family="Helvetica,sans-Serif" font-size="10.00">NeonElementwiseBinaryWorkload</text>
</a>
</g>
</g>
<!-- Node2 -->
<g id="Node000002" class="node">
<title>Node2</title>
<g id="a_Node000002"><a xlink:href="classarmnn_1_1_neon_base_workload.html" target="_top" xlink:title=" ">
<polygon fill="white" stroke="#666666" points="1537.25,-62.88 1369.75,-62.88 1369.75,-32.38 1537.25,-32.38 1537.25,-62.88"/>
<text xml:space="preserve" text-anchor="start" x="1377.75" y="-49.38" font-family="Helvetica,sans-Serif" font-size="10.00">NeonBaseWorkload&lt; Elementwise</text>
<text xml:space="preserve" text-anchor="middle" x="1453.5" y="-38.12" font-family="Helvetica,sans-Serif" font-size="10.00">BinaryQueueDescriptor &gt;</text>
</a>
</g>
</g>
<!-- Node2&#45;&gt;Node1 -->
<g id="edge1_Node000001_Node000002" class="edge">
<title>Node2&#45;&gt;Node1</title>
<g id="a_edge1_Node000001_Node000002"><a xlink:title=" ">
<path fill="none" stroke="#63b8ff" d="M1548.85,-47.62C1557.17,-47.62 1565.55,-47.62 1573.75,-47.62"/>
<polygon fill="#63b8ff" stroke="#63b8ff" points="1549.06,-44.13 1539.06,-47.63 1549.06,-51.13 1549.06,-44.13"/>
</a>
</g>
</g>
<!-- Node3 -->
<g id="Node000003" class="node">
<title>Node3</title>
<g id="a_Node000003"><a xlink:href="classarmnn_1_1_base_workload.html" target="_top" xlink:title=" ">
<polygon fill="white" stroke="#666666" points="1181.5,-92.88 1037.25,-92.88 1037.25,-62.38 1181.5,-62.38 1181.5,-92.88"/>
<text xml:space="preserve" text-anchor="start" x="1045.25" y="-79.38" font-family="Helvetica,sans-Serif" font-size="10.00">BaseWorkload&lt; Elementwise</text>
<text xml:space="preserve" text-anchor="middle" x="1109.38" y="-68.12" font-family="Helvetica,sans-Serif" font-size="10.00">BinaryQueueDescriptor &gt;</text>
</a>
</g>
</g>
<!-- Node3&#45;&gt;Node2 -->
<g id="edge2_Node000002_Node000003" class="edge">
<title>Node3&#45;&gt;Node2</title>
<g id="a_edge2_Node000002_Node000003"><a xlink:title=" ">
<path fill="none" stroke="#63b8ff" d="M1193.24,-71.72C1239.84,-68.25 1299.07,-63.57 1351.75,-58.62 1357.53,-58.08 1363.5,-57.5 1369.5,-56.89"/>
<polygon fill="#63b8ff" stroke="#63b8ff" points="1193.2,-68.22 1183.49,-72.45 1193.72,-75.2 1193.2,-68.22"/>
</a>
</g>
</g>
<!-- Node4 -->
<g id="Node000004" class="node">
<title>Node4</title>
<g id="a_Node000004"><a xlink:href="classarmnn_1_1_i_workload.html" target="_top" xlink:title="Workload interface to enqueue a layer computation.">
<polygon fill="white" stroke="#666666" points="586.75,-57.25 527.25,-57.25 527.25,-38 586.75,-38 586.75,-57.25"/>
<text xml:space="preserve" text-anchor="middle" x="557" y="-43.75" font-family="Helvetica,sans-Serif" font-size="10.00">IWorkload</text>
</a>
</g>
</g>
<!-- Node4&#45;&gt;Node3 -->
<g id="edge3_Node000003_Node000004" class="edge">
<title>Node4&#45;&gt;Node3</title>
<g id="a_edge3_Node000003_Node000004"><a xlink:title=" ">
<path fill="none" stroke="#63b8ff" d="M598.61,-49.84C691.49,-54.9 920.37,-67.38 1037.23,-73.75"/>
<polygon fill="#63b8ff" stroke="#63b8ff" points="598.89,-46.35 588.71,-49.3 598.51,-53.34 598.89,-46.35"/>
</a>
</g>
</g>
<!-- Node11 -->
<g id="Node000011" class="node">
<title>Node11</title>
<g id="a_Node000011"><a xlink:href="classarmnn_1_1_base_workload.html" target="_top" xlink:title=" ">
<polygon fill="white" stroke="#666666" points="847.5,-95.25 677,-95.25 677,-76 847.5,-76 847.5,-95.25"/>
<text xml:space="preserve" text-anchor="middle" x="762.25" y="-81.75" font-family="Helvetica,sans-Serif" font-size="10.00">BaseWorkload&lt; QueueDescriptor &gt;</text>
</a>
</g>
</g>
<!-- Node4&#45;&gt;Node11 -->
<g id="edge12_Node000011_Node000004" class="edge">
<title>Node4&#45;&gt;Node11</title>
<g id="a_edge12_Node000011_Node000004"><a xlink:title=" ">
<path fill="none" stroke="#63b8ff" d="M598.03,-55.11C629.29,-60.95 673.03,-69.13 707.36,-75.55"/>
<polygon fill="#63b8ff" stroke="#63b8ff" points="599.08,-51.75 588.61,-53.35 597.79,-58.63 599.08,-51.75"/>
</a>
</g>
</g>
<!-- Node13 -->
<g id="Node000013" class="node">
<title>Node13</title>
<g id="a_Node000013"><a xlink:href="classarmnn_1_1_base_workload.html" target="_top" xlink:title=" ">
<polygon fill="white" stroke="#666666" points="847.5,-19.25 677,-19.25 677,0 847.5,0 847.5,-19.25"/>
<text xml:space="preserve" text-anchor="middle" x="762.25" y="-5.75" font-family="Helvetica,sans-Serif" font-size="10.00">BaseWorkload&lt; QueueDescriptor &gt;</text>
</a>
</g>
</g>
<!-- Node4&#45;&gt;Node13 -->
<g id="edge16_Node000013_Node000004" class="edge">
<title>Node4&#45;&gt;Node13</title>
<g id="a_edge16_Node000013_Node000004"><a xlink:title=" ">
<path fill="none" stroke="#63b8ff" d="M598.03,-40.14C629.29,-34.3 673.03,-26.12 707.36,-19.7"/>
<polygon fill="#63b8ff" stroke="#63b8ff" points="597.79,-36.62 588.61,-41.9 599.08,-43.5 597.79,-36.62"/>
</a>
</g>
</g>
<!-- Node5 -->
<g id="Node000005" class="node">
<title>Node5</title>
<g id="a_Node000005"><a xlink:href="structarmnn_1_1_elementwise_binary_queue_descriptor.html" target="_top" xlink:title=" ">
<polygon fill="white" stroke="#666666" points="849,-173.25 675.5,-173.25 675.5,-154 849,-154 849,-173.25"/>
<text xml:space="preserve" text-anchor="middle" x="762.25" y="-159.75" font-family="Helvetica,sans-Serif" font-size="10.00">ElementwiseBinaryQueueDescriptor</text>
</a>
</g>
</g>
<!-- Node5&#45;&gt;Node3 -->
<g id="edge4_Node000003_Node000005" class="edge">
<title>Node5&#45;&gt;Node3</title>
<g id="a_edge4_Node000003_Node000005"><a xlink:title=" ">
<path fill="none" stroke="#9a32cd" stroke-dasharray="5,2" d="M843.62,-151.69C888.44,-144.2 945.04,-133.35 994.5,-119.62 1020.39,-112.44 1048.74,-101.99 1070.67,-93.32"/>
<polygon fill="#9a32cd" stroke="#9a32cd" points="843.28,-148.2 833.98,-153.28 844.42,-155.11 843.28,-148.2"/>
</a>
</g>
<text xml:space="preserve" text-anchor="start" x="913.5" y="-151.95" font-family="Helvetica,sans-Serif" font-size="10.00" fill="grey">m_Data</text>
</g>
<!-- Node6 -->
<g id="Node000006" class="node">
<title>Node6</title>
<g id="a_Node000006"><a xlink:href="structarmnn_1_1_queue_descriptor_with_parameters.html" target="_top" xlink:title=" ">
<polygon fill="white" stroke="#666666" points="638.5,-187.88 475.5,-187.88 475.5,-157.38 638.5,-157.38 638.5,-187.88"/>
<text xml:space="preserve" text-anchor="start" x="483.5" y="-174.38" font-family="Helvetica,sans-Serif" font-size="10.00">QueueDescriptorWithParameters</text>
<text xml:space="preserve" text-anchor="middle" x="557" y="-163.12" font-family="Helvetica,sans-Serif" font-size="10.00">&lt; ElementwiseBinaryDescriptor &gt;</text>
</a>
</g>
</g>
<!-- Node6&#45;&gt;Node5 -->
<g id="edge5_Node000005_Node000006" class="edge">
<title>Node6&#45;&gt;Node5</title>
<g id="a_edge5_Node000005_Node000006"><a xlink:title=" ">
<path fill="none" stroke="#63b8ff" d="M650.22,-168.54C658.56,-168.17 666.99,-167.8 675.28,-167.43"/>
<polygon fill="#63b8ff" stroke="#63b8ff" points="650.26,-165.04 640.43,-168.98 650.57,-172.03 650.26,-165.04"/>
</a>
</g>
</g>
<!-- Node7 -->
<g id="Node000007" class="node">
<title>Node7</title>
<g id="a_Node000007"><a xlink:href="structarmnn_1_1_queue_descriptor.html" target="_top" xlink:title=" ">
<polygon fill="white" stroke="#666666" points="89.5,-120.25 0,-120.25 0,-101 89.5,-101 89.5,-120.25"/>
<text xml:space="preserve" text-anchor="middle" x="44.75" y="-106.75" font-family="Helvetica,sans-Serif" font-size="10.00">QueueDescriptor</text>
</a>
</g>
</g>
<!-- Node7&#45;&gt;Node6 -->
<g id="edge6_Node000006_Node000007" class="edge">
<title>Node7&#45;&gt;Node6</title>
<g id="a_edge6_Node000006_Node000007"><a xlink:title=" ">
<path fill="none" stroke="#63b8ff" d="M65.01,-128.11C80.42,-140.87 103.21,-157.2 126.5,-164.62 243.2,-201.85 386.96,-194.6 475.01,-184.62"/>
<polygon fill="#63b8ff" stroke="#63b8ff" points="67.45,-125.59 57.59,-121.72 62.88,-130.89 67.45,-125.59"/>
</a>
</g>
</g>
<!-- Node10 -->
<g id="Node000010" class="node">
<title>Node10</title>
<g id="a_Node000010"><a xlink:href="structarmnn_1_1_queue_descriptor_with_parameters.html" target="_top" xlink:title=" ">
<polygon fill="white" stroke="#666666" points="286.5,-155.88 126.5,-155.88 126.5,-125.38 286.5,-125.38 286.5,-155.88"/>
<text xml:space="preserve" text-anchor="start" x="134.5" y="-142.38" font-family="Helvetica,sans-Serif" font-size="10.00">QueueDescriptorWithParameters</text>
<text xml:space="preserve" text-anchor="middle" x="206.5" y="-131.12" font-family="Helvetica,sans-Serif" font-size="10.00">&lt; LayerDescriptor &gt;</text>
</a>
</g>
</g>
<!-- Node7&#45;&gt;Node10 -->
<g id="edge10_Node000010_Node000007" class="edge">
<title>Node7&#45;&gt;Node10</title>
<g id="a_edge10_Node000010_Node000007"><a xlink:title=" ">
<path fill="none" stroke="#63b8ff" d="M100.98,-121C109.08,-122.52 117.55,-124.11 126.01,-125.7"/>
<polygon fill="#63b8ff" stroke="#63b8ff" points="101.79,-117.59 91.31,-119.18 100.5,-124.47 101.79,-117.59"/>
</a>
</g>
</g>
<!-- Node7&#45;&gt;Node11 -->
<g id="edge13_Node000011_Node000007" class="edge">
<title>Node7&#45;&gt;Node11</title>
<g id="a_edge13_Node000011_Node000007"><a xlink:title=" ">
<path fill="none" stroke="#9a32cd" stroke-dasharray="5,2" d="M101.47,-108.68C226.16,-104.32 528.35,-93.76 676.51,-88.59"/>
<polygon fill="#9a32cd" stroke="#9a32cd" points="101.35,-105.18 91.48,-109.03 101.6,-112.18 101.35,-105.18"/>
</a>
</g>
<text xml:space="preserve" text-anchor="start" x="363.75" y="-106.33" font-family="Helvetica,sans-Serif" font-size="10.00" fill="grey">m_Data</text>
</g>
<!-- Node7&#45;&gt;Node13 -->
<g id="edge17_Node000013_Node000007" class="edge">
<title>Node7&#45;&gt;Node13</title>
<g id="a_edge17_Node000013_Node000007"><a xlink:title=" ">
<path fill="none" stroke="#9a32cd" stroke-dasharray="5,2" d="M100.02,-98.06C181.21,-79.76 339.33,-46.08 475.5,-28.62 542.82,-20 619.59,-15.17 676.59,-12.54"/>
<polygon fill="#9a32cd" stroke="#9a32cd" points="99.54,-94.58 90.56,-100.2 101.09,-101.41 99.54,-94.58"/>
</a>
</g>
<text xml:space="preserve" text-anchor="start" x="363.75" y="-60.32" font-family="Helvetica,sans-Serif" font-size="10.00" fill="grey">m_Data</text>
</g>
<!-- Node8 -->
<g id="Node000008" class="node">
<title>Node8</title>
<g id="a_Node000008"><a xlink:href="structarmnn_1_1_elementwise_binary_descriptor.html" target="_top" xlink:title="A ElementwiseBinaryDescriptor for the ElementwiseBinaryLayer.">
<polygon fill="white" stroke="#666666" points="279,-231.25 134,-231.25 134,-212 279,-212 279,-231.25"/>
<text xml:space="preserve" text-anchor="middle" x="206.5" y="-217.75" font-family="Helvetica,sans-Serif" font-size="10.00">ElementwiseBinaryDescriptor</text>
</a>
</g>
</g>
<!-- Node8&#45;&gt;Node6 -->
<g id="edge7_Node000006_Node000008" class="edge">
<title>Node8&#45;&gt;Node6</title>
<g id="a_edge7_Node000006_Node000008"><a xlink:title=" ">
<path fill="none" stroke="#9a32cd" stroke-dasharray="5,2" d="M290.71,-216.22C339.52,-212.33 402.27,-206.07 457.5,-196.62 470.51,-194.4 484.35,-191.42 497.42,-188.32"/>
<polygon fill="#9a32cd" stroke="#9a32cd" points="290.45,-212.73 280.76,-217 291,-219.71 290.45,-212.73"/>
</a>
</g>
<text xml:space="preserve" text-anchor="start" x="349.12" y="-219.43" font-family="Helvetica,sans-Serif" font-size="10.00" fill="grey">m_Parameters</text>
</g>
<!-- Node9 -->
<g id="Node000009" class="node">
<title>Node9</title>
<g id="a_Node000009"><a xlink:href="structarmnn_1_1_base_descriptor.html" target="_top" xlink:title="Base class for all descriptors.">
<polygon fill="white" stroke="#666666" points="86.5,-231.25 3,-231.25 3,-212 86.5,-212 86.5,-231.25"/>
<text xml:space="preserve" text-anchor="middle" x="44.75" y="-217.75" font-family="Helvetica,sans-Serif" font-size="10.00">BaseDescriptor</text>
</a>
</g>
</g>
<!-- Node9&#45;&gt;Node8 -->
<g id="edge8_Node000008_Node000009" class="edge">
<title>Node9&#45;&gt;Node8</title>
<g id="a_edge8_Node000008_Node000009"><a xlink:title=" ">
<path fill="none" stroke="#63b8ff" d="M98.29,-221.62C109.56,-221.62 121.65,-221.62 133.51,-221.62"/>
<polygon fill="#63b8ff" stroke="#63b8ff" points="98.4,-218.13 88.4,-221.63 98.4,-225.13 98.4,-218.13"/>
</a>
</g>
</g>
<!-- Node10&#45;&gt;Node6 -->
<g id="edge9_Node000006_Node000010" class="edge">
<title>Node10&#45;&gt;Node6</title>
<g id="a_edge9_Node000006_Node000010"><a xlink:title=" ">
<path fill="none" stroke="orange" stroke-dasharray="5,2" d="M298.08,-141.49C345.69,-142.8 404.92,-145.77 457.5,-152.38 466.85,-153.55 476.64,-155.13 486.27,-156.89"/>
<polygon fill="orange" stroke="orange" points="298.47,-138 288.38,-141.24 298.29,-144.99 298.47,-138"/>
</a>
</g>
<text xml:space="preserve" text-anchor="start" x="307.5" y="-157.12" font-family="Helvetica,sans-Serif" font-size="10.00" fill="grey">&lt; ElementwiseBinaryDescriptor &gt;</text>
</g>
<!-- Node11&#45;&gt;Node3 -->
<g id="edge11_Node000003_Node000011" class="edge">
<title>Node11&#45;&gt;Node3</title>
<g id="a_edge11_Node000003_Node000011"><a xlink:title=" ">
<path fill="none" stroke="orange" stroke-dasharray="5,2" d="M859.1,-83.4C915.37,-82.1 985.31,-80.48 1036.77,-79.28"/>
<polygon fill="orange" stroke="orange" points="859.11,-79.9 849.19,-83.63 859.27,-86.9 859.11,-79.9"/>
</a>
</g>
<text xml:space="preserve" text-anchor="start" x="870" y="-103.04" font-family="Helvetica,sans-Serif" font-size="10.00" fill="grey">&lt; ElementwiseBinaryQueue</text>
<text xml:space="preserve" text-anchor="start" x="870" y="-87.79" font-family="Helvetica,sans-Serif" font-size="10.00" fill="grey">  Descriptor &gt;</text>
</g>
<!-- Node12 -->
<g id="Node000012" class="node">
<title>Node12</title>
<g id="a_Node000012"><a xlink:href="classarmnn_1_1_neon_base_workload.html" target="_top" xlink:title=" ">
<polygon fill="white" stroke="#666666" points="1206.25,-31.25 1012.5,-31.25 1012.5,-12 1206.25,-12 1206.25,-31.25"/>
<text xml:space="preserve" text-anchor="middle" x="1109.38" y="-17.75" font-family="Helvetica,sans-Serif" font-size="10.00">NeonBaseWorkload&lt; QueueDescriptor &gt;</text>
</a>
</g>
</g>
<!-- Node12&#45;&gt;Node2 -->
<g id="edge14_Node000002_Node000012" class="edge">
<title>Node12&#45;&gt;Node2</title>
<g id="a_edge14_Node000002_Node000012"><a xlink:title=" ">
<path fill="none" stroke="orange" stroke-dasharray="5,2" d="M1218.02,-19.23C1259.89,-19.45 1308.17,-21.12 1351.75,-26.12 1363.48,-27.47 1375.85,-29.55 1387.77,-31.9"/>
<polygon fill="orange" stroke="orange" points="1218.2,-15.73 1208.19,-19.21 1218.18,-22.73 1218.2,-15.73"/>
</a>
</g>
<text xml:space="preserve" text-anchor="start" x="1227.25" y="-46.12" font-family="Helvetica,sans-Serif" font-size="10.00" fill="grey">&lt; ElementwiseBinaryQueue</text>
<text xml:space="preserve" text-anchor="start" x="1227.25" y="-30.88" font-family="Helvetica,sans-Serif" font-size="10.00" fill="grey">  Descriptor &gt;</text>
</g>
<!-- Node13&#45;&gt;Node12 -->
<g id="edge15_Node000012_Node000013" class="edge">
<title>Node13&#45;&gt;Node12</title>
<g id="a_edge15_Node000012_Node000013"><a xlink:title=" ">
<path fill="none" stroke="#63b8ff" d="M858.95,-12.95C906.66,-14.61 964.22,-16.61 1012.01,-18.27"/>
<polygon fill="#63b8ff" stroke="#63b8ff" points="859.31,-9.46 849.19,-12.61 859.06,-16.46 859.31,-9.46"/>
</a>
</g>
</g>
</g>
</svg>
