<?xml version="1.0" encoding="UTF-8" standalone="no"?>
<!DOCTYPE svg PUBLIC "-//W3C//DTD SVG 1.1//EN"
 "http://www.w3.org/Graphics/SVG/1.1/DTD/svg11.dtd">
<!-- Generated by graphviz version 14.0.2 (20251019.1705)
 -->
<!-- Title: ElementwiseBinaryLayer Pages: 1 -->
<svg width="282pt" height="291pt"
 viewBox="0.00 0.00 282.00 291.00" xmlns="http://www.w3.org/2000/svg" xmlns:xlink="http://www.w3.org/1999/xlink">
<g id="graph0" class="graph" transform="scale(1 1) rotate(0) translate(4 287)">
<title>ElementwiseBinaryLayer</title>
<!-- Node1 -->
<g id="Node000001" class="node">
<title>Node1</title>
<g id="a_Node000001"><a xlink:title="This layer represents a elementwiseBinary operation.">
<polygon fill="#999999" stroke="#666666" points="143.5,-19.25 19.5,-19.25 19.5,0 143.5,0 143.5,-19.25"/>
<text xml:space="preserve" text-anchor="middle" x="81.5" y="-5.75" font-family="Helvetica,sans-Serif" font-size="10.00">ElementwiseBinaryLayer</text>
</a>
</g>
</g>
<!-- Node2 -->
<g id="Node000002" class="node">
<title>Node2</title>
<g id="a_Node000002"><a xlink:href="classarmnn_1_1_layer_with_parameters.html" target="_top" xlink:title=" ">
<polygon fill="white" stroke="#666666" points="163,-86.75 0,-86.75 0,-56.25 163,-56.25 163,-86.75"/>
<text xml:space="preserve" text-anchor="start" x="8" y="-73.25" font-family="Helvetica,sans-Serif" font-size="10.00">LayerWithParameters</text>
<text xml:space="preserve" text-anchor="middle" x="81.5" y="-62" font-family="Helvetica,sans-Serif" font-size="10.00">&lt; ElementwiseBinaryDescriptor &gt;</text>
</a>
</g>
</g>
<!-- Node2&#45;&gt;Node1 -->
<g id="edge1_Node000001_Node000002" class="edge">
<title>Node2&#45;&gt;Node1</title>
<g id="a_edge1_Node000001_Node000002"><a xlink:title=" ">
<path fill="none" stroke="#63b8ff" d="M81.5,-44.77C81.5,-35.79 81.5,-26.29 81.5,-19.6"/>
<polygon fill="#63b8ff" stroke="#63b8ff" points="78,-44.49 81.5,-54.49 85,-44.49 78,-44.49"/>
</a>
</g>
</g>
<!-- Node3 -->
<g id="Node000003" class="node">
<title>Node3</title>
<g id="a_Node000003"><a xlink:href="classarmnn_1_1_layer.html" target="_top" xlink:title=" ">
<polygon fill="white" stroke="#666666" points="97.5,-226.75 57.5,-226.75 57.5,-207.5 97.5,-207.5 97.5,-226.75"/>
<text xml:space="preserve" text-anchor="middle" x="77.5" y="-213.25" font-family="Helvetica,sans-Serif" font-size="10.00">Layer</text>
</a>
</g>
</g>
<!-- Node3&#45;&gt;Node2 -->
<g id="edge2_Node000002_Node000003" class="edge">
<title>Node3&#45;&gt;Node2</title>
<g id="a_edge2_Node000002_Node000003"><a xlink:title=" ">
<path fill="none" stroke="#63b8ff" d="M78.07,-195.84C78.89,-166.37 80.39,-112.46 81.1,-86.8"/>
<polygon fill="#63b8ff" stroke="#63b8ff" points="74.57,-195.53 77.79,-205.63 81.57,-195.73 74.57,-195.53"/>
</a>
</g>
</g>
<!-- Node5 -->
<g id="Node000005" class="node">
<title>Node5</title>
<g id="a_Node000005"><a xlink:href="classarmnn_1_1_layer_with_parameters.html" target="_top" xlink:title=" ">
<polygon fill="white" stroke="#666666" points="203.75,-170.5 93.25,-170.5 93.25,-140 203.75,-140 203.75,-170.5"/>
<text xml:space="preserve" text-anchor="start" x="101.25" y="-157" font-family="Helvetica,sans-Serif" font-size="10.00">LayerWithParameters</text>
<text xml:space="preserve" text-anchor="middle" x="148.5" y="-145.75" font-family="Helvetica,sans-Serif" font-size="10.00">&lt; Parameters &gt;</text>
</a>
</g>
</g>
<!-- Node3&#45;&gt;Node5 -->
<g id="edge5_Node000005_Node000003" class="edge">
<title>Node3&#45;&gt;Node5</title>
<g id="a_edge5_Node000005_Node000003"><a xlink:title=" ">
<path fill="none" stroke="#63b8ff" d="M96.94,-199.73C107.67,-190.68 120.89,-179.54 131.25,-170.8"/>
<polygon fill="#63b8ff" stroke="#63b8ff" points="94.83,-196.93 89.44,-206.06 99.34,-202.28 94.83,-196.93"/>
</a>
</g>
</g>
<!-- Node4 -->
<g id="Node000004" class="node">
<title>Node4</title>
<g id="a_Node000004"><a xlink:href="classarmnn_1_1_i_connectable_layer.html" target="_top" xlink:title="Interface for a layer that is connectable to other layers via InputSlots and OutputSlots.">
<polygon fill="white" stroke="#666666" points="126.38,-283 28.62,-283 28.62,-263.75 126.38,-263.75 126.38,-283"/>
<text xml:space="preserve" text-anchor="middle" x="77.5" y="-269.5" font-family="Helvetica,sans-Serif" font-size="10.00">IConnectableLayer</text>
</a>
</g>
</g>
<!-- Node4&#45;&gt;Node3 -->
<g id="edge3_Node000003_Node000004" class="edge">
<title>Node4&#45;&gt;Node3</title>
<g id="a_edge3_Node000003_Node000004"><a xlink:title=" ">
<path fill="none" stroke="#63b8ff" d="M77.5,-252.19C77.5,-243.48 77.5,-233.74 77.5,-226.92"/>
<polygon fill="#63b8ff" stroke="#63b8ff" points="74,-251.9 77.5,-261.9 81,-251.9 74,-251.9"/>
</a>
</g>
</g>
<!-- Node5&#45;&gt;Node2 -->
<g id="edge4_Node000002_Node000005" class="edge">
<title>Node5&#45;&gt;Node2</title>
<g id="a_edge4_Node000002_Node000005"><a xlink:title=" ">
<path fill="none" stroke="orange" stroke-dasharray="5,2" d="M129.39,-130.93C117.79,-116.78 103.35,-99.16 93.37,-86.99"/>
<polygon fill="orange" stroke="orange" points="126.52,-132.95 135.56,-138.46 131.93,-128.51 126.52,-132.95"/>
</a>
</g>
<text xml:space="preserve" text-anchor="start" x="124" y="-109.5" font-family="Helvetica,sans-Serif" font-size="10.00" fill="grey">&lt; ElementwiseBinaryDescriptor &gt;</text>
</g>
</g>
</svg>
