<?xml version="1.0" encoding="UTF-8" standalone="no"?>
<!DOCTYPE svg PUBLIC "-//W3C//DTD SVG 1.1//EN"
 "http://www.w3.org/Graphics/SVG/1.1/DTD/svg11.dtd">
<!-- Generated by graphviz version 14.0.2 (20251019.1705)
 -->
<!-- Title: ConvertConstants&lt; Converter, Predicate &gt; Pages: 1 -->
<svg width="533pt" height="103pt"
 viewBox="0.00 0.00 533.00 103.00" xmlns="http://www.w3.org/2000/svg" xmlns:xlink="http://www.w3.org/1999/xlink">
<g id="graph0" class="graph" transform="scale(1 1) rotate(0) translate(4 98.69)">
<title>ConvertConstants&lt; Converter, Predicate &gt;</title>
<!-- Node1 -->
<g id="Node000001" class="node">
<title>Node1</title>
<g id="a_Node000001"><a xlink:title=" ">
<polygon fill="#999999" stroke="#666666" points="257.25,-58.5 107.75,-58.5 107.75,-28 257.25,-28 257.25,-58.5"/>
<text xml:space="preserve" text-anchor="start" x="115.75" y="-45" font-family="Helvetica,sans-Serif" font-size="10.00">ConvertConstants&lt; Converter,</text>
<text xml:space="preserve" text-anchor="middle" x="182.5" y="-33.75" font-family="Helvetica,sans-Serif" font-size="10.00"> Predicate &gt;</text>
</a>
</g>
</g>
<!-- Node3 -->
<g id="Node000003" class="node">
<title>Node3</title>
<g id="a_Node000003"><a xlink:href="classarmnn_1_1optimizations_1_1_convert_constants.html" target="_top" xlink:title=" ">
<polygon fill="white" stroke="#666666" points="524.5,-86.5 386.25,-86.5 386.25,-56 524.5,-56 524.5,-86.5"/>
<text xml:space="preserve" text-anchor="start" x="394.25" y="-73" font-family="Helvetica,sans-Serif" font-size="10.00">ConvertConstants&lt; Float16</text>
<text xml:space="preserve" text-anchor="middle" x="455.38" y="-61.75" font-family="Helvetica,sans-Serif" font-size="10.00">ToFloat32, IsFloat32Layer &gt;</text>
</a>
</g>
</g>
<!-- Node1&#45;&gt;Node3 -->
<g id="edge2_Node000001_Node000003" class="edge">
<title>Node1&#45;&gt;Node3</title>
<g id="a_edge2_Node000001_Node000003"><a xlink:title=" ">
<path fill="none" stroke="orange" stroke-dasharray="5,2" d="M268.53,-52.04C306.38,-55.95 350.35,-60.5 386.02,-64.18"/>
<polygon fill="orange" stroke="orange" points="269.33,-48.6 259.02,-51.06 268.61,-55.57 269.33,-48.6"/>
</a>
</g>
<text xml:space="preserve" text-anchor="start" x="278.25" y="-82.19" font-family="Helvetica,sans-Serif" font-size="10.00" fill="grey">&lt; Float16ToFloat32,</text>
<text xml:space="preserve" text-anchor="start" x="278.25" y="-66.94" font-family="Helvetica,sans-Serif" font-size="10.00" fill="grey">   IsFloat32Layer &gt;</text>
</g>
<!-- Node4 -->
<g id="Node000004" class="node">
<title>Node4</title>
<g id="a_Node000004"><a xlink:href="classarmnn_1_1optimizations_1_1_convert_constants.html" target="_top" xlink:title=" ">
<polygon fill="white" stroke="#666666" points="524.5,-30.5 386.25,-30.5 386.25,0 524.5,0 524.5,-30.5"/>
<text xml:space="preserve" text-anchor="start" x="394.25" y="-17" font-family="Helvetica,sans-Serif" font-size="10.00">ConvertConstants&lt; Float32</text>
<text xml:space="preserve" text-anchor="middle" x="455.38" y="-5.75" font-family="Helvetica,sans-Serif" font-size="10.00">ToFloat16, IsFloat16Layer &gt;</text>
</a>
</g>
</g>
<!-- Node1&#45;&gt;Node4 -->
<g id="edge3_Node000001_Node000004" class="edge">
<title>Node1&#45;&gt;Node4</title>
<g id="a_edge3_Node000001_Node000004"><a xlink:title=" ">
<path fill="none" stroke="orange" stroke-dasharray="5,2" d="M239.63,-24.43C251.28,-21.26 263.56,-18.45 275.25,-16.75 311.56,-11.46 352.46,-10.72 385.99,-11.47"/>
<polygon fill="orange" stroke="orange" points="238.81,-21.02 230.15,-27.13 240.73,-27.75 238.81,-21.02"/>
</a>
</g>
<text xml:space="preserve" text-anchor="start" x="278.25" y="-36.75" font-family="Helvetica,sans-Serif" font-size="10.00" fill="grey">&lt; Float32ToFloat16,</text>
<text xml:space="preserve" text-anchor="start" x="278.25" y="-21.5" font-family="Helvetica,sans-Serif" font-size="10.00" fill="grey">   IsFloat16Layer &gt;</text>
</g>
<!-- Node2 -->
<g id="Node000002" class="node">
<title>Node2</title>
<g id="a_Node000002"><a xlink:href="classarmnn_1_1_optimization.html" target="_top" xlink:title=" ">
<polygon fill="white" stroke="#666666" points="70.75,-52.88 0,-52.88 0,-33.62 70.75,-33.62 70.75,-52.88"/>
<text xml:space="preserve" text-anchor="middle" x="35.38" y="-39.38" font-family="Helvetica,sans-Serif" font-size="10.00">Optimization</text>
</a>
</g>
</g>
<!-- Node2&#45;&gt;Node1 -->
<g id="edge1_Node000001_Node000002" class="edge">
<title>Node2&#45;&gt;Node1</title>
<g id="a_edge1_Node000001_Node000002"><a xlink:title=" ">
<path fill="none" stroke="#63b8ff" d="M82.41,-43.25C90.39,-43.25 98.86,-43.25 107.36,-43.25"/>
<polygon fill="#63b8ff" stroke="#63b8ff" points="82.65,-39.75 72.65,-43.25 82.65,-46.75 82.65,-39.75"/>
</a>
</g>
</g>
</g>
</svg>
