<?xml version="1.0" encoding="UTF-8" standalone="no"?>
<!DOCTYPE svg PUBLIC "-//W3C//DTD SVG 1.1//EN"
 "http://www.w3.org/Graphics/SVG/1.1/DTD/svg11.dtd">
<!-- Generated by graphviz version 14.0.2 (20251019.1705)
 -->
<!-- Title: PadLayer Pages: 1 -->
<svg width="267pt" height="291pt"
 viewBox="0.00 0.00 267.00 291.00" xmlns="http://www.w3.org/2000/svg" xmlns:xlink="http://www.w3.org/1999/xlink">
<g id="graph0" class="graph" transform="scale(1 1) rotate(0) translate(4 287)">
<title>PadLayer</title>
<!-- Node1 -->
<g id="Node000001" class="node">
<title>Node1</title>
<g id="a_Node000001"><a xlink:title="This layer represents a pad operation.">
<polygon fill="#999999" stroke="#666666" points="133.5,-19.25 76.25,-19.25 76.25,0 133.5,0 133.5,-19.25"/>
<text xml:space="preserve" text-anchor="middle" x="104.88" y="-5.75" font-family="Helvetica,sans-Serif" font-size="10.00">PadLayer</text>
</a>
</g>
</g>
<!-- Node2 -->
<g id="Node000002" class="node">
<title>Node2</title>
<g id="a_Node000002"><a xlink:href="classarmnn_1_1_layer_with_parameters.html" target="_top" xlink:title=" ">
<polygon fill="white" stroke="#666666" points="160.12,-86.75 49.62,-86.75 49.62,-56.25 160.12,-56.25 160.12,-86.75"/>
<text xml:space="preserve" text-anchor="start" x="57.62" y="-73.25" font-family="Helvetica,sans-Serif" font-size="10.00">LayerWithParameters</text>
<text xml:space="preserve" text-anchor="middle" x="104.88" y="-62" font-family="Helvetica,sans-Serif" font-size="10.00">&lt; PadDescriptor &gt;</text>
</a>
</g>
</g>
<!-- Node2&#45;&gt;Node1 -->
<g id="edge1_Node000001_Node000002" class="edge">
<title>Node2&#45;&gt;Node1</title>
<g id="a_edge1_Node000001_Node000002"><a xlink:title=" ">
<path fill="none" stroke="#63b8ff" d="M104.88,-44.77C104.88,-35.79 104.88,-26.29 104.88,-19.6"/>
<polygon fill="#63b8ff" stroke="#63b8ff" points="101.38,-44.49 104.88,-54.49 108.38,-44.49 101.38,-44.49"/>
</a>
</g>
</g>
<!-- Node3 -->
<g id="Node000003" class="node">
<title>Node3</title>
<g id="a_Node000003"><a xlink:href="classarmnn_1_1_layer.html" target="_top" xlink:title=" ">
<polygon fill="white" stroke="#666666" points="68.88,-226.75 28.88,-226.75 28.88,-207.5 68.88,-207.5 68.88,-226.75"/>
<text xml:space="preserve" text-anchor="middle" x="48.88" y="-213.25" font-family="Helvetica,sans-Serif" font-size="10.00">Layer</text>
</a>
</g>
</g>
<!-- Node3&#45;&gt;Node2 -->
<g id="edge2_Node000002_Node000003" class="edge">
<title>Node3&#45;&gt;Node2</title>
<g id="a_edge2_Node000002_Node000003"><a xlink:title=" ">
<path fill="none" stroke="#63b8ff" d="M41.94,-196.74C37.41,-180.92 33.58,-158.3 40.88,-140 49.61,-118.1 69.2,-99.22 84.42,-87.05"/>
<polygon fill="#63b8ff" stroke="#63b8ff" points="38.48,-197.43 44.89,-205.87 45.14,-195.28 38.48,-197.43"/>
</a>
</g>
</g>
<!-- Node7 -->
<g id="Node000007" class="node">
<title>Node7</title>
<g id="a_Node000007"><a xlink:href="classarmnn_1_1_layer_with_parameters.html" target="_top" xlink:title=" ">
<polygon fill="white" stroke="#666666" points="160.12,-170.5 49.62,-170.5 49.62,-140 160.12,-140 160.12,-170.5"/>
<text xml:space="preserve" text-anchor="start" x="57.62" y="-157" font-family="Helvetica,sans-Serif" font-size="10.00">LayerWithParameters</text>
<text xml:space="preserve" text-anchor="middle" x="104.88" y="-145.75" font-family="Helvetica,sans-Serif" font-size="10.00">&lt; Parameters &gt;</text>
</a>
</g>
</g>
<!-- Node3&#45;&gt;Node7 -->
<g id="edge7_Node000007_Node000003" class="edge">
<title>Node3&#45;&gt;Node7</title>
<g id="a_edge7_Node000007_Node000003"><a xlink:title=" ">
<path fill="none" stroke="#63b8ff" d="M65.04,-198.84C73.42,-189.88 83.54,-179.06 91.48,-170.57"/>
<polygon fill="#63b8ff" stroke="#63b8ff" points="62.69,-196.23 58.41,-205.93 67.8,-201.01 62.69,-196.23"/>
</a>
</g>
</g>
<!-- Node4 -->
<g id="Node000004" class="node">
<title>Node4</title>
<g id="a_Node000004"><a xlink:href="classarmnn_1_1_i_connectable_layer.html" target="_top" xlink:title="Interface for a layer that is connectable to other layers via InputSlots and OutputSlots.">
<polygon fill="white" stroke="#666666" points="97.75,-283 0,-283 0,-263.75 97.75,-263.75 97.75,-283"/>
<text xml:space="preserve" text-anchor="middle" x="48.88" y="-269.5" font-family="Helvetica,sans-Serif" font-size="10.00">IConnectableLayer</text>
</a>
</g>
</g>
<!-- Node4&#45;&gt;Node3 -->
<g id="edge3_Node000003_Node000004" class="edge">
<title>Node4&#45;&gt;Node3</title>
<g id="a_edge3_Node000003_Node000004"><a xlink:title=" ">
<path fill="none" stroke="#63b8ff" d="M48.88,-252.19C48.88,-243.48 48.88,-233.74 48.88,-226.92"/>
<polygon fill="#63b8ff" stroke="#63b8ff" points="45.38,-251.9 48.88,-261.9 52.38,-251.9 45.38,-251.9"/>
</a>
</g>
</g>
<!-- Node5 -->
<g id="Node000005" class="node">
<title>Node5</title>
<g id="a_Node000005"><a xlink:href="structarmnn_1_1_pad_descriptor.html" target="_top" xlink:title="A PadDescriptor for the PadLayer.">
<polygon fill="white" stroke="#666666" points="256,-164.88 177.75,-164.88 177.75,-145.62 256,-145.62 256,-164.88"/>
<text xml:space="preserve" text-anchor="middle" x="216.88" y="-151.38" font-family="Helvetica,sans-Serif" font-size="10.00">PadDescriptor</text>
</a>
</g>
</g>
<!-- Node5&#45;&gt;Node2 -->
<g id="edge4_Node000002_Node000005" class="edge">
<title>Node5&#45;&gt;Node2</title>
<g id="a_edge4_Node000002_Node000005"><a xlink:title=" ">
<path fill="none" stroke="#9a32cd" stroke-dasharray="5,2" d="M211.28,-134.58C207.53,-124.48 201.63,-112.67 192.88,-104.75 183.7,-96.45 172.22,-90.24 160.61,-85.61"/>
<polygon fill="#9a32cd" stroke="#9a32cd" points="207.88,-135.44 214.29,-143.88 214.54,-133.29 207.88,-135.44"/>
</a>
</g>
<text xml:space="preserve" text-anchor="start" x="208.36" y="-109.5" font-family="Helvetica,sans-Serif" font-size="10.00" fill="grey">m_Param</text>
</g>
<!-- Node6 -->
<g id="Node000006" class="node">
<title>Node6</title>
<g id="a_Node000006"><a xlink:href="structarmnn_1_1_base_descriptor.html" target="_top" xlink:title="Base class for all descriptors.">
<polygon fill="white" stroke="#666666" points="258.62,-226.75 175.12,-226.75 175.12,-207.5 258.62,-207.5 258.62,-226.75"/>
<text xml:space="preserve" text-anchor="middle" x="216.88" y="-213.25" font-family="Helvetica,sans-Serif" font-size="10.00">BaseDescriptor</text>
</a>
</g>
</g>
<!-- Node6&#45;&gt;Node5 -->
<g id="edge5_Node000005_Node000006" class="edge">
<title>Node6&#45;&gt;Node5</title>
<g id="a_edge5_Node000005_Node000006"><a xlink:title=" ">
<path fill="none" stroke="#63b8ff" d="M216.88,-195.55C216.88,-185.13 216.88,-173.03 216.88,-165.04"/>
<polygon fill="#63b8ff" stroke="#63b8ff" points="213.38,-195.52 216.88,-205.52 220.38,-195.52 213.38,-195.52"/>
</a>
</g>
</g>
<!-- Node7&#45;&gt;Node2 -->
<g id="edge6_Node000002_Node000007" class="edge">
<title>Node7&#45;&gt;Node2</title>
<g id="a_edge6_Node000002_Node000007"><a xlink:title=" ">
<path fill="none" stroke="orange" stroke-dasharray="5,2" d="M104.88,-128.47C104.88,-114.78 104.88,-98.46 104.88,-86.99"/>
<polygon fill="orange" stroke="orange" points="101.38,-128.12 104.88,-138.12 108.38,-128.12 101.38,-128.12"/>
</a>
</g>
<text xml:space="preserve" text-anchor="start" x="107.88" y="-109.5" font-family="Helvetica,sans-Serif" font-size="10.00" fill="grey">&lt; PadDescriptor &gt;</text>
</g>
</g>
</svg>
