<?xml version="1.0" encoding="UTF-8" standalone="no"?>
<!DOCTYPE svg PUBLIC "-//W3C//DTD SVG 1.1//EN"
 "http://www.w3.org/Graphics/SVG/1.1/DTD/svg11.dtd">
<!-- Generated by graphviz version 14.0.2 (20251019.1705)
 -->
<!-- Title: L2NormalizationLayer Pages: 1 -->
<svg width="330pt" height="291pt"
 viewBox="0.00 0.00 330.00 291.00" xmlns="http://www.w3.org/2000/svg" xmlns:xlink="http://www.w3.org/1999/xlink">
<g id="graph0" class="graph" transform="scale(1 1) rotate(0) translate(4 287)">
<title>L2NormalizationLayer</title>
<!-- Node1 -->
<g id="Node000001" class="node">
<title>Node1</title>
<g id="a_Node000001"><a xlink:title="This layer represents a L2 normalization operation.">
<polygon fill="#999999" stroke="#666666" points="148.12,-19.25 37.62,-19.25 37.62,0 148.12,0 148.12,-19.25"/>
<text xml:space="preserve" text-anchor="middle" x="92.88" y="-5.75" font-family="Helvetica,sans-Serif" font-size="10.00">L2NormalizationLayer</text>
</a>
</g>
</g>
<!-- Node2 -->
<g id="Node000002" class="node">
<title>Node2</title>
<g id="a_Node000002"><a xlink:href="classarmnn_1_1_layer_with_parameters.html" target="_top" xlink:title=" ">
<polygon fill="white" stroke="#666666" points="167.62,-86.75 18.12,-86.75 18.12,-56.25 167.62,-56.25 167.62,-86.75"/>
<text xml:space="preserve" text-anchor="start" x="26.12" y="-73.25" font-family="Helvetica,sans-Serif" font-size="10.00">LayerWithParameters</text>
<text xml:space="preserve" text-anchor="middle" x="92.88" y="-62" font-family="Helvetica,sans-Serif" font-size="10.00">&lt; L2NormalizationDescriptor &gt;</text>
</a>
</g>
</g>
<!-- Node2&#45;&gt;Node1 -->
<g id="edge1_Node000001_Node000002" class="edge">
<title>Node2&#45;&gt;Node1</title>
<g id="a_edge1_Node000001_Node000002"><a xlink:title=" ">
<path fill="none" stroke="#63b8ff" d="M92.88,-44.77C92.88,-35.79 92.88,-26.29 92.88,-19.6"/>
<polygon fill="#63b8ff" stroke="#63b8ff" points="89.38,-44.49 92.88,-54.49 96.38,-44.49 89.38,-44.49"/>
</a>
</g>
</g>
<!-- Node3 -->
<g id="Node000003" class="node">
<title>Node3</title>
<g id="a_Node000003"><a xlink:href="classarmnn_1_1_layer.html" target="_top" xlink:title=" ">
<polygon fill="white" stroke="#666666" points="68.88,-226.75 28.88,-226.75 28.88,-207.5 68.88,-207.5 68.88,-226.75"/>
<text xml:space="preserve" text-anchor="middle" x="48.88" y="-213.25" font-family="Helvetica,sans-Serif" font-size="10.00">Layer</text>
</a>
</g>
</g>
<!-- Node3&#45;&gt;Node2 -->
<g id="edge2_Node000002_Node000003" class="edge">
<title>Node3&#45;&gt;Node2</title>
<g id="a_edge2_Node000002_Node000003"><a xlink:title=" ">
<path fill="none" stroke="#63b8ff" d="M42.31,-196.46C38.14,-180.78 34.59,-158.46 40.88,-140 47.98,-119.14 64.43,-99.69 76.94,-87.08"/>
<polygon fill="#63b8ff" stroke="#63b8ff" points="38.94,-197.4 45.18,-205.96 45.64,-195.38 38.94,-197.4"/>
</a>
</g>
</g>
<!-- Node7 -->
<g id="Node000007" class="node">
<title>Node7</title>
<g id="a_Node000007"><a xlink:href="classarmnn_1_1_layer_with_parameters.html" target="_top" xlink:title=" ">
<polygon fill="white" stroke="#666666" points="160.12,-170.5 49.62,-170.5 49.62,-140 160.12,-140 160.12,-170.5"/>
<text xml:space="preserve" text-anchor="start" x="57.62" y="-157" font-family="Helvetica,sans-Serif" font-size="10.00">LayerWithParameters</text>
<text xml:space="preserve" text-anchor="middle" x="104.88" y="-145.75" font-family="Helvetica,sans-Serif" font-size="10.00">&lt; Parameters &gt;</text>
</a>
</g>
</g>
<!-- Node3&#45;&gt;Node7 -->
<g id="edge7_Node000007_Node000003" class="edge">
<title>Node3&#45;&gt;Node7</title>
<g id="a_edge7_Node000007_Node000003"><a xlink:title=" ">
<path fill="none" stroke="#63b8ff" d="M65.04,-198.84C73.42,-189.88 83.54,-179.06 91.48,-170.57"/>
<polygon fill="#63b8ff" stroke="#63b8ff" points="62.69,-196.23 58.41,-205.93 67.8,-201.01 62.69,-196.23"/>
</a>
</g>
</g>
<!-- Node4 -->
<g id="Node000004" class="node">
<title>Node4</title>
<g id="a_Node000004"><a xlink:href="classarmnn_1_1_i_connectable_layer.html" target="_top" xlink:title="Interface for a layer that is connectable to other layers via InputSlots and OutputSlots.">
<polygon fill="white" stroke="#666666" points="97.75,-283 0,-283 0,-263.75 97.75,-263.75 97.75,-283"/>
<text xml:space="preserve" text-anchor="middle" x="48.88" y="-269.5" font-family="Helvetica,sans-Serif" font-size="10.00">IConnectableLayer</text>
</a>
</g>
</g>
<!-- Node4&#45;&gt;Node3 -->
<g id="edge3_Node000003_Node000004" class="edge">
<title>Node4&#45;&gt;Node3</title>
<g id="a_edge3_Node000003_Node000004"><a xlink:title=" ">
<path fill="none" stroke="#63b8ff" d="M48.88,-252.19C48.88,-243.48 48.88,-233.74 48.88,-226.92"/>
<polygon fill="#63b8ff" stroke="#63b8ff" points="45.38,-251.9 48.88,-261.9 52.38,-251.9 45.38,-251.9"/>
</a>
</g>
</g>
<!-- Node5 -->
<g id="Node000005" class="node">
<title>Node5</title>
<g id="a_Node000005"><a xlink:href="structarmnn_1_1_l2_normalization_descriptor.html" target="_top" xlink:title="A L2NormalizationDescriptor for the L2NormalizationLayer.">
<polygon fill="white" stroke="#666666" points="321.62,-164.88 190.12,-164.88 190.12,-145.62 321.62,-145.62 321.62,-164.88"/>
<text xml:space="preserve" text-anchor="middle" x="255.88" y="-151.38" font-family="Helvetica,sans-Serif" font-size="10.00">L2NormalizationDescriptor</text>
</a>
</g>
</g>
<!-- Node5&#45;&gt;Node2 -->
<g id="edge4_Node000002_Node000005" class="edge">
<title>Node5&#45;&gt;Node2</title>
<g id="a_edge4_Node000002_Node000005"><a xlink:title=" ">
<path fill="none" stroke="#9a32cd" stroke-dasharray="5,2" d="M251.62,-134.51C248.41,-124.21 242.96,-112.22 233.88,-104.75 215.36,-89.51 191.04,-81.15 167.82,-76.66"/>
<polygon fill="#9a32cd" stroke="#9a32cd" points="248.18,-135.19 254.06,-144 254.96,-133.45 248.18,-135.19"/>
</a>
</g>
<text xml:space="preserve" text-anchor="start" x="249.18" y="-109.5" font-family="Helvetica,sans-Serif" font-size="10.00" fill="grey">m_Param</text>
</g>
<!-- Node6 -->
<g id="Node000006" class="node">
<title>Node6</title>
<g id="a_Node000006"><a xlink:href="structarmnn_1_1_base_descriptor.html" target="_top" xlink:title="Base class for all descriptors.">
<polygon fill="white" stroke="#666666" points="297.62,-226.75 214.12,-226.75 214.12,-207.5 297.62,-207.5 297.62,-226.75"/>
<text xml:space="preserve" text-anchor="middle" x="255.88" y="-213.25" font-family="Helvetica,sans-Serif" font-size="10.00">BaseDescriptor</text>
</a>
</g>
</g>
<!-- Node6&#45;&gt;Node5 -->
<g id="edge5_Node000005_Node000006" class="edge">
<title>Node6&#45;&gt;Node5</title>
<g id="a_edge5_Node000005_Node000006"><a xlink:title=" ">
<path fill="none" stroke="#63b8ff" d="M255.88,-195.55C255.88,-185.13 255.88,-173.03 255.88,-165.04"/>
<polygon fill="#63b8ff" stroke="#63b8ff" points="252.38,-195.52 255.88,-205.52 259.38,-195.52 252.38,-195.52"/>
</a>
</g>
</g>
<!-- Node7&#45;&gt;Node2 -->
<g id="edge6_Node000002_Node000007" class="edge">
<title>Node7&#45;&gt;Node2</title>
<g id="a_edge6_Node000002_Node000007"><a xlink:title=" ">
<path fill="none" stroke="orange" stroke-dasharray="5,2" d="M95.85,-128.76C95.27,-126.49 94.76,-124.22 94.38,-122 92.34,-110.31 92.06,-96.84 92.24,-86.91"/>
<polygon fill="orange" stroke="orange" points="92.48,-129.7 98.73,-138.25 99.17,-127.67 92.48,-129.7"/>
</a>
</g>
<text xml:space="preserve" text-anchor="start" x="97.38" y="-109.5" font-family="Helvetica,sans-Serif" font-size="10.00" fill="grey">&lt; L2NormalizationDescriptor &gt;</text>
</g>
</g>
</svg>
