<?xml version="1.0" encoding="UTF-8" standalone="no"?>
<!DOCTYPE svg PUBLIC "-//W3C//DTD SVG 1.1//EN"
 "http://www.w3.org/Graphics/SVG/1.1/DTD/svg11.dtd">
<!-- Generated by graphviz version 14.0.2 (20251019.1705)
 -->
<!-- Title: NeonLogicalNotWorkload Pages: 1 -->
<svg width="1809pt" height="241pt"
 viewBox="0.00 0.00 1809.00 241.00" xmlns="http://www.w3.org/2000/svg" xmlns:xlink="http://www.w3.org/1999/xlink">
<g id="graph0" class="graph" transform="scale(1 1) rotate(0) translate(4 236.8)">
<title>NeonLogicalNotWorkload</title>
<!-- Node1 -->
<g id="Node000001" class="node">
<title>Node1</title>
<g id="a_Node000001"><a xlink:title=" ">
<polygon fill="#999999" stroke="#666666" points="1801,-54.25 1674.75,-54.25 1674.75,-35 1801,-35 1801,-54.25"/>
<text xml:space="preserve" text-anchor="middle" x="1737.88" y="-40.75" font-family="Helvetica,sans-Serif" font-size="10.00">NeonLogicalNotWorkload</text>
</a>
</g>
</g>
<!-- Node2 -->
<g id="Node000002" class="node">
<title>Node2</title>
<g id="a_Node000002"><a xlink:href="classarmnn_1_1_neon_base_workload.html" target="_top" xlink:title=" ">
<polygon fill="white" stroke="#666666" points="1637.75,-59.88 1470.25,-59.88 1470.25,-29.38 1637.75,-29.38 1637.75,-59.88"/>
<text xml:space="preserve" text-anchor="start" x="1478.25" y="-46.38" font-family="Helvetica,sans-Serif" font-size="10.00">NeonBaseWorkload&lt; Elementwise</text>
<text xml:space="preserve" text-anchor="middle" x="1554" y="-35.12" font-family="Helvetica,sans-Serif" font-size="10.00">UnaryQueueDescriptor &gt;</text>
</a>
</g>
</g>
<!-- Node2&#45;&gt;Node1 -->
<g id="edge1_Node000001_Node000002" class="edge">
<title>Node2&#45;&gt;Node1</title>
<g id="a_edge1_Node000001_Node000002"><a xlink:title=" ">
<path fill="none" stroke="#63b8ff" d="M1649.65,-44.62C1658.03,-44.62 1666.37,-44.62 1674.38,-44.62"/>
<polygon fill="#63b8ff" stroke="#63b8ff" points="1649.73,-41.13 1639.73,-44.63 1649.73,-48.13 1649.73,-41.13"/>
</a>
</g>
</g>
<!-- Node3 -->
<g id="Node000003" class="node">
<title>Node3</title>
<g id="a_Node000003"><a xlink:href="classarmnn_1_1_base_workload.html" target="_top" xlink:title=" ">
<polygon fill="white" stroke="#666666" points="1229.5,-85.88 1085.25,-85.88 1085.25,-55.38 1229.5,-55.38 1229.5,-85.88"/>
<text xml:space="preserve" text-anchor="start" x="1093.25" y="-72.38" font-family="Helvetica,sans-Serif" font-size="10.00">BaseWorkload&lt; Elementwise</text>
<text xml:space="preserve" text-anchor="middle" x="1157.38" y="-61.12" font-family="Helvetica,sans-Serif" font-size="10.00">UnaryQueueDescriptor &gt;</text>
</a>
</g>
</g>
<!-- Node3&#45;&gt;Node2 -->
<g id="edge2_Node000002_Node000003" class="edge">
<title>Node3&#45;&gt;Node2</title>
<g id="a_edge2_Node000002_Node000003"><a xlink:title=" ">
<path fill="none" stroke="#63b8ff" d="M1241.21,-65.17C1308.35,-60.74 1402.52,-54.54 1469.76,-50.11"/>
<polygon fill="#63b8ff" stroke="#63b8ff" points="1241.1,-61.67 1231.35,-65.82 1241.56,-68.65 1241.1,-61.67"/>
</a>
</g>
</g>
<!-- Node4 -->
<g id="Node000004" class="node">
<title>Node4</title>
<g id="a_Node000004"><a xlink:href="classarmnn_1_1_i_workload.html" target="_top" xlink:title="Workload interface to enqueue a layer computation.">
<polygon fill="white" stroke="#666666" points="584.5,-57.25 525,-57.25 525,-38 584.5,-38 584.5,-57.25"/>
<text xml:space="preserve" text-anchor="middle" x="554.75" y="-43.75" font-family="Helvetica,sans-Serif" font-size="10.00">IWorkload</text>
</a>
</g>
</g>
<!-- Node4&#45;&gt;Node3 -->
<g id="edge3_Node000003_Node000004" class="edge">
<title>Node4&#45;&gt;Node3</title>
<g id="a_edge3_Node000003_Node000004"><a xlink:title=" ">
<path fill="none" stroke="#63b8ff" d="M596.13,-49.17C696.42,-53.01 957.87,-63.02 1084.96,-67.89"/>
<polygon fill="#63b8ff" stroke="#63b8ff" points="596.36,-45.68 586.23,-48.79 596.09,-52.67 596.36,-45.68"/>
</a>
</g>
</g>
<!-- Node11 -->
<g id="Node000011" class="node">
<title>Node11</title>
<g id="a_Node000011"><a xlink:href="classarmnn_1_1_base_workload.html" target="_top" xlink:title=" ">
<polygon fill="white" stroke="#666666" points="843.75,-95.25 673.25,-95.25 673.25,-76 843.75,-76 843.75,-95.25"/>
<text xml:space="preserve" text-anchor="middle" x="758.5" y="-81.75" font-family="Helvetica,sans-Serif" font-size="10.00">BaseWorkload&lt; QueueDescriptor &gt;</text>
</a>
</g>
</g>
<!-- Node4&#45;&gt;Node11 -->
<g id="edge12_Node000011_Node000004" class="edge">
<title>Node4&#45;&gt;Node11</title>
<g id="a_edge12_Node000011_Node000004"><a xlink:title=" ">
<path fill="none" stroke="#63b8ff" d="M595.9,-55.19C626.89,-61.03 670.08,-69.16 704.01,-75.55"/>
<polygon fill="#63b8ff" stroke="#63b8ff" points="596.62,-51.76 586.14,-53.35 595.32,-58.64 596.62,-51.76"/>
</a>
</g>
</g>
<!-- Node13 -->
<g id="Node000013" class="node">
<title>Node13</title>
<g id="a_Node000013"><a xlink:href="classarmnn_1_1_base_workload.html" target="_top" xlink:title=" ">
<polygon fill="white" stroke="#666666" points="843.75,-19.25 673.25,-19.25 673.25,0 843.75,0 843.75,-19.25"/>
<text xml:space="preserve" text-anchor="middle" x="758.5" y="-5.75" font-family="Helvetica,sans-Serif" font-size="10.00">BaseWorkload&lt; QueueDescriptor &gt;</text>
</a>
</g>
</g>
<!-- Node4&#45;&gt;Node13 -->
<g id="edge16_Node000013_Node000004" class="edge">
<title>Node4&#45;&gt;Node13</title>
<g id="a_edge16_Node000013_Node000004"><a xlink:title=" ">
<path fill="none" stroke="#63b8ff" d="M595.9,-40.06C626.89,-34.22 670.08,-26.09 704.01,-19.7"/>
<polygon fill="#63b8ff" stroke="#63b8ff" points="595.32,-36.61 586.14,-41.9 596.62,-43.49 595.32,-36.61"/>
</a>
</g>
</g>
<!-- Node5 -->
<g id="Node000005" class="node">
<title>Node5</title>
<g id="a_Node000005"><a xlink:href="structarmnn_1_1_elementwise_unary_queue_descriptor.html" target="_top" xlink:title=" ">
<polygon fill="white" stroke="#666666" points="844.5,-162.25 672.5,-162.25 672.5,-143 844.5,-143 844.5,-162.25"/>
<text xml:space="preserve" text-anchor="middle" x="758.5" y="-148.75" font-family="Helvetica,sans-Serif" font-size="10.00">ElementwiseUnaryQueueDescriptor</text>
</a>
</g>
</g>
<!-- Node5&#45;&gt;Node3 -->
<g id="edge4_Node000003_Node000005" class="edge">
<title>Node5&#45;&gt;Node3</title>
<g id="a_edge4_Node000003_Node000005"><a xlink:title=" ">
<path fill="none" stroke="#9a32cd" stroke-dasharray="5,2" d="M830.76,-140.59C888.14,-130.58 970.77,-115.46 1042.5,-99.62 1060.53,-95.65 1080.04,-90.86 1097.74,-86.33"/>
<polygon fill="#9a32cd" stroke="#9a32cd" points="830.37,-137.1 821.12,-142.26 831.57,-144 830.37,-137.1"/>
</a>
</g>
<text xml:space="preserve" text-anchor="start" x="935.25" y="-138.8" font-family="Helvetica,sans-Serif" font-size="10.00" fill="grey">m_Data</text>
</g>
<!-- Node6 -->
<g id="Node000006" class="node">
<title>Node6</title>
<g id="a_Node000006"><a xlink:href="structarmnn_1_1_queue_descriptor_with_parameters.html" target="_top" xlink:title=" ">
<polygon fill="white" stroke="#666666" points="635.5,-183.88 474,-183.88 474,-153.38 635.5,-153.38 635.5,-183.88"/>
<text xml:space="preserve" text-anchor="start" x="482" y="-170.38" font-family="Helvetica,sans-Serif" font-size="10.00">QueueDescriptorWithParameters</text>
<text xml:space="preserve" text-anchor="middle" x="554.75" y="-159.12" font-family="Helvetica,sans-Serif" font-size="10.00">&lt; ElementwiseUnaryDescriptor &gt;</text>
</a>
</g>
</g>
<!-- Node6&#45;&gt;Node5 -->
<g id="edge5_Node000005_Node000006" class="edge">
<title>Node6&#45;&gt;Node5</title>
<g id="a_edge5_Node000005_Node000006"><a xlink:title=" ">
<path fill="none" stroke="#63b8ff" d="M647.12,-161.38C655.49,-160.72 663.95,-160.04 672.27,-159.38"/>
<polygon fill="#63b8ff" stroke="#63b8ff" points="646.98,-157.88 637.29,-162.16 647.53,-164.86 646.98,-157.88"/>
</a>
</g>
</g>
<!-- Node7 -->
<g id="Node000007" class="node">
<title>Node7</title>
<g id="a_Node000007"><a xlink:href="structarmnn_1_1_queue_descriptor.html" target="_top" xlink:title=" ">
<polygon fill="white" stroke="#666666" points="89.5,-120.25 0,-120.25 0,-101 89.5,-101 89.5,-120.25"/>
<text xml:space="preserve" text-anchor="middle" x="44.75" y="-106.75" font-family="Helvetica,sans-Serif" font-size="10.00">QueueDescriptor</text>
</a>
</g>
</g>
<!-- Node7&#45;&gt;Node6 -->
<g id="edge6_Node000006_Node000007" class="edge">
<title>Node7&#45;&gt;Node6</title>
<g id="a_edge6_Node000006_Node000007"><a xlink:title=" ">
<path fill="none" stroke="#63b8ff" d="M65.01,-128.11C80.42,-140.87 103.21,-157.2 126.5,-164.62 242.75,-201.7 386.02,-192.78 473.58,-181.67"/>
<polygon fill="#63b8ff" stroke="#63b8ff" points="67.45,-125.59 57.59,-121.72 62.88,-130.89 67.45,-125.59"/>
</a>
</g>
</g>
<!-- Node10 -->
<g id="Node000010" class="node">
<title>Node10</title>
<g id="a_Node000010"><a xlink:href="structarmnn_1_1_queue_descriptor_with_parameters.html" target="_top" xlink:title=" ">
<polygon fill="white" stroke="#666666" points="286.5,-155.88 126.5,-155.88 126.5,-125.38 286.5,-125.38 286.5,-155.88"/>
<text xml:space="preserve" text-anchor="start" x="134.5" y="-142.38" font-family="Helvetica,sans-Serif" font-size="10.00">QueueDescriptorWithParameters</text>
<text xml:space="preserve" text-anchor="middle" x="206.5" y="-131.12" font-family="Helvetica,sans-Serif" font-size="10.00">&lt; LayerDescriptor &gt;</text>
</a>
</g>
</g>
<!-- Node7&#45;&gt;Node10 -->
<g id="edge10_Node000010_Node000007" class="edge">
<title>Node7&#45;&gt;Node10</title>
<g id="a_edge10_Node000010_Node000007"><a xlink:title=" ">
<path fill="none" stroke="#63b8ff" d="M100.98,-121C109.08,-122.52 117.55,-124.11 126.01,-125.7"/>
<polygon fill="#63b8ff" stroke="#63b8ff" points="101.79,-117.59 91.31,-119.18 100.5,-124.47 101.79,-117.59"/>
</a>
</g>
</g>
<!-- Node7&#45;&gt;Node11 -->
<g id="edge13_Node000011_Node000007" class="edge">
<title>Node7&#45;&gt;Node11</title>
<g id="a_edge13_Node000011_Node000007"><a xlink:title=" ">
<path fill="none" stroke="#9a32cd" stroke-dasharray="5,2" d="M101.17,-108.68C225.12,-104.32 525.41,-93.78 672.9,-88.6"/>
<polygon fill="#9a32cd" stroke="#9a32cd" points="101.12,-105.18 91.25,-109.03 101.37,-112.17 101.12,-105.18"/>
</a>
</g>
<text xml:space="preserve" text-anchor="start" x="363" y="-106.23" font-family="Helvetica,sans-Serif" font-size="10.00" fill="grey">m_Data</text>
</g>
<!-- Node7&#45;&gt;Node13 -->
<g id="edge17_Node000013_Node000007" class="edge">
<title>Node7&#45;&gt;Node13</title>
<g id="a_edge17_Node000013_Node000007"><a xlink:title=" ">
<path fill="none" stroke="#9a32cd" stroke-dasharray="5,2" d="M99.83,-98.06C180.73,-79.77 338.29,-46.1 474,-28.62 540.54,-20.06 616.39,-15.23 672.88,-12.59"/>
<polygon fill="#9a32cd" stroke="#9a32cd" points="99.38,-94.58 90.41,-100.2 100.94,-101.4 99.38,-94.58"/>
</a>
</g>
<text xml:space="preserve" text-anchor="start" x="363" y="-60.54" font-family="Helvetica,sans-Serif" font-size="10.00" fill="grey">m_Data</text>
</g>
<!-- Node8 -->
<g id="Node000008" class="node">
<title>Node8</title>
<g id="a_Node000008"><a xlink:href="structarmnn_1_1_elementwise_unary_descriptor.html" target="_top" xlink:title="A ElementwiseUnaryDescriptor for the ElementwiseUnaryLayer.">
<polygon fill="white" stroke="#666666" points="278.25,-231.25 134.75,-231.25 134.75,-212 278.25,-212 278.25,-231.25"/>
<text xml:space="preserve" text-anchor="middle" x="206.5" y="-217.75" font-family="Helvetica,sans-Serif" font-size="10.00">ElementwiseUnaryDescriptor</text>
</a>
</g>
</g>
<!-- Node8&#45;&gt;Node6 -->
<g id="edge7_Node000006_Node000008" class="edge">
<title>Node8&#45;&gt;Node6</title>
<g id="a_edge7_Node000006_Node000008"><a xlink:title=" ">
<path fill="none" stroke="#9a32cd" stroke-dasharray="5,2" d="M290.09,-217.03C338.71,-213.4 401.2,-207.14 456,-196.62 472.3,-193.5 489.8,-188.89 505.44,-184.31"/>
<polygon fill="#9a32cd" stroke="#9a32cd" points="289.91,-213.53 280.19,-217.74 290.42,-220.51 289.91,-213.53"/>
</a>
</g>
<text xml:space="preserve" text-anchor="start" x="348.38" y="-220.3" font-family="Helvetica,sans-Serif" font-size="10.00" fill="grey">m_Parameters</text>
</g>
<!-- Node9 -->
<g id="Node000009" class="node">
<title>Node9</title>
<g id="a_Node000009"><a xlink:href="structarmnn_1_1_base_descriptor.html" target="_top" xlink:title="Base class for all descriptors.">
<polygon fill="white" stroke="#666666" points="86.5,-231.25 3,-231.25 3,-212 86.5,-212 86.5,-231.25"/>
<text xml:space="preserve" text-anchor="middle" x="44.75" y="-217.75" font-family="Helvetica,sans-Serif" font-size="10.00">BaseDescriptor</text>
</a>
</g>
</g>
<!-- Node9&#45;&gt;Node8 -->
<g id="edge8_Node000008_Node000009" class="edge">
<title>Node9&#45;&gt;Node8</title>
<g id="a_edge8_Node000008_Node000009"><a xlink:title=" ">
<path fill="none" stroke="#63b8ff" d="M98.15,-221.62C109.76,-221.62 122.24,-221.62 134.44,-221.62"/>
<polygon fill="#63b8ff" stroke="#63b8ff" points="98.4,-218.13 88.4,-221.63 98.4,-225.13 98.4,-218.13"/>
</a>
</g>
</g>
<!-- Node10&#45;&gt;Node6 -->
<g id="edge9_Node000006_Node000010" class="edge">
<title>Node10&#45;&gt;Node6</title>
<g id="a_edge9_Node000006_Node000010"><a xlink:title=" ">
<path fill="none" stroke="orange" stroke-dasharray="5,2" d="M298.28,-142.36C345.43,-143.91 403.92,-146.83 456,-152.38 461.73,-152.98 467.64,-153.71 473.57,-154.52"/>
<polygon fill="orange" stroke="orange" points="298.48,-138.86 288.37,-142.05 298.26,-145.86 298.48,-138.86"/>
</a>
</g>
<text xml:space="preserve" text-anchor="start" x="307.5" y="-157.12" font-family="Helvetica,sans-Serif" font-size="10.00" fill="grey">&lt; ElementwiseUnaryDescriptor &gt;</text>
</g>
<!-- Node11&#45;&gt;Node3 -->
<g id="edge11_Node000003_Node000011" class="edge">
<title>Node11&#45;&gt;Node3</title>
<g id="a_edge11_Node000003_Node000011"><a xlink:title=" ">
<path fill="none" stroke="orange" stroke-dasharray="5,2" d="M855.28,-82C925.97,-79.33 1020.63,-75.76 1084.8,-73.33"/>
<polygon fill="orange" stroke="orange" points="855.53,-78.49 845.67,-82.37 855.79,-85.49 855.53,-78.49"/>
</a>
</g>
<text xml:space="preserve" text-anchor="start" x="865.5" y="-86.35" font-family="Helvetica,sans-Serif" font-size="10.00" fill="grey">&lt; ElementwiseUnaryQueueDescriptor &gt;</text>
</g>
<!-- Node12 -->
<g id="Node000012" class="node">
<title>Node12</title>
<g id="a_Node000012"><a xlink:href="classarmnn_1_1_neon_base_workload.html" target="_top" xlink:title=" ">
<polygon fill="white" stroke="#666666" points="1254.25,-33.25 1060.5,-33.25 1060.5,-14 1254.25,-14 1254.25,-33.25"/>
<text xml:space="preserve" text-anchor="middle" x="1157.38" y="-19.75" font-family="Helvetica,sans-Serif" font-size="10.00">NeonBaseWorkload&lt; QueueDescriptor &gt;</text>
</a>
</g>
</g>
<!-- Node12&#45;&gt;Node2 -->
<g id="edge14_Node000002_Node000012" class="edge">
<title>Node12&#45;&gt;Node2</title>
<g id="a_edge14_Node000002_Node000012"><a xlink:title=" ">
<path fill="none" stroke="orange" stroke-dasharray="5,2" d="M1265.76,-24.47C1321.47,-25.51 1390.59,-27.72 1452.25,-32.38 1457.96,-32.81 1463.84,-33.33 1469.77,-33.9"/>
<polygon fill="orange" stroke="orange" points="1266.02,-20.98 1255.96,-24.3 1265.9,-27.98 1266.02,-20.98"/>
</a>
</g>
<text xml:space="preserve" text-anchor="start" x="1275.25" y="-37.12" font-family="Helvetica,sans-Serif" font-size="10.00" fill="grey">&lt; ElementwiseUnaryQueueDescriptor &gt;</text>
</g>
<!-- Node13&#45;&gt;Node12 -->
<g id="edge15_Node000012_Node000013" class="edge">
<title>Node13&#45;&gt;Node12</title>
<g id="a_edge15_Node000012_Node000013"><a xlink:title=" ">
<path fill="none" stroke="#63b8ff" d="M855.53,-13.01C917.66,-15.2 998.23,-18.05 1060.35,-20.24"/>
<polygon fill="#63b8ff" stroke="#63b8ff" points="855.78,-9.52 845.67,-12.66 855.54,-16.51 855.78,-9.52"/>
</a>
</g>
</g>
</g>
</svg>
