<?xml version="1.0" encoding="UTF-8" standalone="no"?>
<!DOCTYPE svg PUBLIC "-//W3C//DTD SVG 1.1//EN"
 "http://www.w3.org/Graphics/SVG/1.1/DTD/svg11.dtd">
<!-- Generated by graphviz version 14.0.2 (20251019.1705)
 -->
<!-- Title: NeonBatchMatMulWorkload Pages: 1 -->
<svg width="1729pt" height="239pt"
 viewBox="0.00 0.00 1729.00 239.00" xmlns="http://www.w3.org/2000/svg" xmlns:xlink="http://www.w3.org/1999/xlink">
<g id="graph0" class="graph" transform="scale(1 1) rotate(0) translate(4 235.25)">
<title>NeonBatchMatMulWorkload</title>
<!-- Node1 -->
<g id="Node000001" class="node">
<title>Node1</title>
<g id="a_Node000001"><a xlink:title=" ">
<polygon fill="#999999" stroke="#666666" points="1720.75,-54.25 1583.25,-54.25 1583.25,-35 1720.75,-35 1720.75,-54.25"/>
<text xml:space="preserve" text-anchor="middle" x="1652" y="-40.75" font-family="Helvetica,sans-Serif" font-size="10.00">NeonBatchMatMulWorkload</text>
</a>
</g>
</g>
<!-- Node2 -->
<g id="Node000002" class="node">
<title>Node2</title>
<g id="a_Node000002"><a xlink:href="classarmnn_1_1_neon_base_workload.html" target="_top" xlink:title=" ">
<polygon fill="white" stroke="#666666" points="1546.25,-59.88 1393,-59.88 1393,-29.38 1546.25,-29.38 1546.25,-59.88"/>
<text xml:space="preserve" text-anchor="start" x="1401" y="-46.38" font-family="Helvetica,sans-Serif" font-size="10.00">NeonBaseWorkload&lt; BatchMat</text>
<text xml:space="preserve" text-anchor="middle" x="1469.62" y="-35.12" font-family="Helvetica,sans-Serif" font-size="10.00">MulQueueDescriptor &gt;</text>
</a>
</g>
</g>
<!-- Node2&#45;&gt;Node1 -->
<g id="edge1_Node000001_Node000002" class="edge">
<title>Node2&#45;&gt;Node1</title>
<g id="a_edge1_Node000001_Node000002"><a xlink:title=" ">
<path fill="none" stroke="#63b8ff" d="M1557.95,-44.62C1566.32,-44.62 1574.71,-44.62 1582.86,-44.62"/>
<polygon fill="#63b8ff" stroke="#63b8ff" points="1558.11,-41.13 1548.11,-44.63 1558.11,-48.13 1558.11,-41.13"/>
</a>
</g>
</g>
<!-- Node3 -->
<g id="Node000003" class="node">
<title>Node3</title>
<g id="a_Node000003"><a xlink:href="classarmnn_1_1_base_workload.html" target="_top" xlink:title=" ">
<polygon fill="white" stroke="#666666" points="1177.75,-85.88 1032,-85.88 1032,-55.38 1177.75,-55.38 1177.75,-85.88"/>
<text xml:space="preserve" text-anchor="start" x="1040" y="-72.38" font-family="Helvetica,sans-Serif" font-size="10.00">BaseWorkload&lt; BatchMatMul</text>
<text xml:space="preserve" text-anchor="middle" x="1104.88" y="-61.12" font-family="Helvetica,sans-Serif" font-size="10.00">QueueDescriptor &gt;</text>
</a>
</g>
</g>
<!-- Node3&#45;&gt;Node2 -->
<g id="edge2_Node000002_Node000003" class="edge">
<title>Node3&#45;&gt;Node2</title>
<g id="a_edge2_Node000002_Node000003"><a xlink:title=" ">
<path fill="none" stroke="#63b8ff" d="M1189.16,-64.66C1250.44,-60.26 1333.1,-54.34 1392.6,-50.07"/>
<polygon fill="#63b8ff" stroke="#63b8ff" points="1189.21,-61.14 1179.49,-65.35 1189.71,-68.12 1189.21,-61.14"/>
</a>
</g>
</g>
<!-- Node4 -->
<g id="Node000004" class="node">
<title>Node4</title>
<g id="a_Node000004"><a xlink:href="classarmnn_1_1_i_workload.html" target="_top" xlink:title="Workload interface to enqueue a layer computation.">
<polygon fill="white" stroke="#666666" points="559,-57.25 499.5,-57.25 499.5,-38 559,-38 559,-57.25"/>
<text xml:space="preserve" text-anchor="middle" x="529.25" y="-43.75" font-family="Helvetica,sans-Serif" font-size="10.00">IWorkload</text>
</a>
</g>
</g>
<!-- Node4&#45;&gt;Node3 -->
<g id="edge3_Node000003_Node000004" class="edge">
<title>Node4&#45;&gt;Node3</title>
<g id="a_edge3_Node000003_Node000004"><a xlink:title=" ">
<path fill="none" stroke="#63b8ff" d="M570.72,-49.25C666.76,-53.1 909.52,-62.83 1031.53,-67.72"/>
<polygon fill="#63b8ff" stroke="#63b8ff" points="571.13,-45.76 561,-48.86 570.85,-52.76 571.13,-45.76"/>
</a>
</g>
</g>
<!-- Node11 -->
<g id="Node000011" class="node">
<title>Node11</title>
<g id="a_Node000011"><a xlink:href="classarmnn_1_1_base_workload.html" target="_top" xlink:title=" ">
<polygon fill="white" stroke="#666666" points="816.75,-95.25 646.25,-95.25 646.25,-76 816.75,-76 816.75,-95.25"/>
<text xml:space="preserve" text-anchor="middle" x="731.5" y="-81.75" font-family="Helvetica,sans-Serif" font-size="10.00">BaseWorkload&lt; QueueDescriptor &gt;</text>
</a>
</g>
</g>
<!-- Node4&#45;&gt;Node11 -->
<g id="edge12_Node000011_Node000004" class="edge">
<title>Node4&#45;&gt;Node11</title>
<g id="a_edge12_Node000011_Node000004"><a xlink:title=" ">
<path fill="none" stroke="#63b8ff" d="M570.51,-55.26C601.19,-61.09 643.74,-69.16 677.24,-75.52"/>
<polygon fill="#63b8ff" stroke="#63b8ff" points="571.33,-51.86 560.86,-53.43 570.03,-58.74 571.33,-51.86"/>
</a>
</g>
</g>
<!-- Node13 -->
<g id="Node000013" class="node">
<title>Node13</title>
<g id="a_Node000013"><a xlink:href="classarmnn_1_1_base_workload.html" target="_top" xlink:title=" ">
<polygon fill="white" stroke="#666666" points="816.75,-19.25 646.25,-19.25 646.25,0 816.75,0 816.75,-19.25"/>
<text xml:space="preserve" text-anchor="middle" x="731.5" y="-5.75" font-family="Helvetica,sans-Serif" font-size="10.00">BaseWorkload&lt; QueueDescriptor &gt;</text>
</a>
</g>
</g>
<!-- Node4&#45;&gt;Node13 -->
<g id="edge16_Node000013_Node000004" class="edge">
<title>Node4&#45;&gt;Node13</title>
<g id="a_edge16_Node000013_Node000004"><a xlink:title=" ">
<path fill="none" stroke="#63b8ff" d="M570.51,-39.99C601.19,-34.16 643.74,-26.09 677.24,-19.73"/>
<polygon fill="#63b8ff" stroke="#63b8ff" points="570.03,-36.51 560.86,-41.82 571.33,-43.39 570.03,-36.51"/>
</a>
</g>
</g>
<!-- Node5 -->
<g id="Node000005" class="node">
<title>Node5</title>
<g id="a_Node000005"><a xlink:href="structarmnn_1_1_batch_mat_mul_queue_descriptor.html" target="_top" xlink:title=" ">
<polygon fill="white" stroke="#666666" points="805.12,-162.25 657.88,-162.25 657.88,-143 805.12,-143 805.12,-162.25"/>
<text xml:space="preserve" text-anchor="middle" x="731.5" y="-148.75" font-family="Helvetica,sans-Serif" font-size="10.00">BatchMatMulQueueDescriptor</text>
</a>
</g>
</g>
<!-- Node5&#45;&gt;Node3 -->
<g id="edge4_Node000003_Node000005" class="edge">
<title>Node5&#45;&gt;Node3</title>
<g id="a_edge4_Node000003_Node000005"><a xlink:title=" ">
<path fill="none" stroke="#9a32cd" stroke-dasharray="5,2" d="M796.03,-140.4C848.26,-130.15 924.11,-114.79 990,-99.62 1007.69,-95.55 1026.85,-90.81 1044.31,-86.35"/>
<polygon fill="#9a32cd" stroke="#9a32cd" points="795.56,-136.93 786.42,-142.28 796.9,-143.8 795.56,-136.93"/>
</a>
</g>
<text xml:space="preserve" text-anchor="start" x="895.12" y="-136.97" font-family="Helvetica,sans-Serif" font-size="10.00" fill="grey">m_Data</text>
</g>
<!-- Node6 -->
<g id="Node000006" class="node">
<title>Node6</title>
<g id="a_Node000006"><a xlink:href="structarmnn_1_1_queue_descriptor_with_parameters.html" target="_top" xlink:title=" ">
<polygon fill="white" stroke="#666666" points="609.25,-183.88 449.25,-183.88 449.25,-153.38 609.25,-153.38 609.25,-183.88"/>
<text xml:space="preserve" text-anchor="start" x="457.25" y="-170.38" font-family="Helvetica,sans-Serif" font-size="10.00">QueueDescriptorWithParameters</text>
<text xml:space="preserve" text-anchor="middle" x="529.25" y="-159.12" font-family="Helvetica,sans-Serif" font-size="10.00">&lt; BatchMatMulDescriptor &gt;</text>
</a>
</g>
</g>
<!-- Node6&#45;&gt;Node5 -->
<g id="edge5_Node000005_Node000006" class="edge">
<title>Node6&#45;&gt;Node5</title>
<g id="a_edge5_Node000005_Node000006"><a xlink:title=" ">
<path fill="none" stroke="#63b8ff" d="M620.91,-161.38C633.22,-160.4 645.73,-159.4 657.67,-158.44"/>
<polygon fill="#63b8ff" stroke="#63b8ff" points="620.88,-157.87 611.19,-162.16 621.44,-164.85 620.88,-157.87"/>
</a>
</g>
</g>
<!-- Node7 -->
<g id="Node000007" class="node">
<title>Node7</title>
<g id="a_Node000007"><a xlink:href="structarmnn_1_1_queue_descriptor.html" target="_top" xlink:title=" ">
<polygon fill="white" stroke="#666666" points="89.5,-120.25 0,-120.25 0,-101 89.5,-101 89.5,-120.25"/>
<text xml:space="preserve" text-anchor="middle" x="44.75" y="-106.75" font-family="Helvetica,sans-Serif" font-size="10.00">QueueDescriptor</text>
</a>
</g>
</g>
<!-- Node7&#45;&gt;Node6 -->
<g id="edge6_Node000006_Node000007" class="edge">
<title>Node7&#45;&gt;Node6</title>
<g id="a_edge6_Node000006_Node000007"><a xlink:title=" ">
<path fill="none" stroke="#63b8ff" d="M65.01,-128.11C80.42,-140.87 103.21,-157.2 126.5,-164.62 234.15,-198.96 366.44,-191.44 449.07,-181.29"/>
<polygon fill="#63b8ff" stroke="#63b8ff" points="67.45,-125.59 57.59,-121.72 62.88,-130.89 67.45,-125.59"/>
</a>
</g>
</g>
<!-- Node10 -->
<g id="Node000010" class="node">
<title>Node10</title>
<g id="a_Node000010"><a xlink:href="structarmnn_1_1_queue_descriptor_with_parameters.html" target="_top" xlink:title=" ">
<polygon fill="white" stroke="#666666" points="286.5,-155.88 126.5,-155.88 126.5,-125.38 286.5,-125.38 286.5,-155.88"/>
<text xml:space="preserve" text-anchor="start" x="134.5" y="-142.38" font-family="Helvetica,sans-Serif" font-size="10.00">QueueDescriptorWithParameters</text>
<text xml:space="preserve" text-anchor="middle" x="206.5" y="-131.12" font-family="Helvetica,sans-Serif" font-size="10.00">&lt; LayerDescriptor &gt;</text>
</a>
</g>
</g>
<!-- Node7&#45;&gt;Node10 -->
<g id="edge10_Node000010_Node000007" class="edge">
<title>Node7&#45;&gt;Node10</title>
<g id="a_edge10_Node000010_Node000007"><a xlink:title=" ">
<path fill="none" stroke="#63b8ff" d="M100.98,-121C109.08,-122.52 117.55,-124.11 126.01,-125.7"/>
<polygon fill="#63b8ff" stroke="#63b8ff" points="101.79,-117.59 91.31,-119.18 100.5,-124.47 101.79,-117.59"/>
</a>
</g>
</g>
<!-- Node7&#45;&gt;Node11 -->
<g id="edge13_Node000011_Node000007" class="edge">
<title>Node7&#45;&gt;Node11</title>
<g id="a_edge13_Node000011_Node000007"><a xlink:title=" ">
<path fill="none" stroke="#9a32cd" stroke-dasharray="5,2" d="M101.29,-108.6C220.98,-104.23 503.88,-93.9 645.97,-88.71"/>
<polygon fill="#9a32cd" stroke="#9a32cd" points="101.27,-105.1 91.4,-108.96 101.52,-112.09 101.27,-105.1"/>
</a>
</g>
<text xml:space="preserve" text-anchor="start" x="350.62" y="-105.88" font-family="Helvetica,sans-Serif" font-size="10.00" fill="grey">m_Data</text>
</g>
<!-- Node7&#45;&gt;Node13 -->
<g id="edge17_Node000013_Node000007" class="edge">
<title>Node7&#45;&gt;Node13</title>
<g id="a_edge17_Node000013_Node000007"><a xlink:title=" ">
<path fill="none" stroke="#9a32cd" stroke-dasharray="5,2" d="M97.29,-97.85C173.65,-79.46 321.56,-45.84 449.25,-28.62 514.97,-19.77 589.91,-14.96 645.9,-12.4"/>
<polygon fill="#9a32cd" stroke="#9a32cd" points="96.48,-94.45 87.58,-100.21 98.12,-101.25 96.48,-94.45"/>
</a>
</g>
<text xml:space="preserve" text-anchor="start" x="350.62" y="-57.32" font-family="Helvetica,sans-Serif" font-size="10.00" fill="grey">m_Data</text>
</g>
<!-- Node8 -->
<g id="Node000008" class="node">
<title>Node8</title>
<g id="a_Node000008"><a xlink:href="structarmnn_1_1_batch_mat_mul_descriptor.html" target="_top" xlink:title="A BatchMatMulDescriptor for the BatchMatMul operator.">
<polygon fill="white" stroke="#666666" points="265.88,-231.25 147.12,-231.25 147.12,-212 265.88,-212 265.88,-231.25"/>
<text xml:space="preserve" text-anchor="middle" x="206.5" y="-217.75" font-family="Helvetica,sans-Serif" font-size="10.00">BatchMatMulDescriptor</text>
</a>
</g>
</g>
<!-- Node8&#45;&gt;Node6 -->
<g id="edge7_Node000006_Node000008" class="edge">
<title>Node8&#45;&gt;Node6</title>
<g id="a_edge7_Node000006_Node000008"><a xlink:title=" ">
<path fill="none" stroke="#9a32cd" stroke-dasharray="5,2" d="M277.58,-216.87C321.92,-213.1 380.29,-206.75 431.25,-196.62 447.24,-193.45 464.41,-188.88 479.8,-184.36"/>
<polygon fill="#9a32cd" stroke="#9a32cd" points="277.52,-213.36 267.84,-217.67 278.1,-220.34 277.52,-213.36"/>
</a>
</g>
<text xml:space="preserve" text-anchor="start" x="336" y="-218.6" font-family="Helvetica,sans-Serif" font-size="10.00" fill="grey">m_Parameters</text>
</g>
<!-- Node9 -->
<g id="Node000009" class="node">
<title>Node9</title>
<g id="a_Node000009"><a xlink:href="structarmnn_1_1_base_descriptor.html" target="_top" xlink:title="Base class for all descriptors.">
<polygon fill="white" stroke="#666666" points="86.5,-231.25 3,-231.25 3,-212 86.5,-212 86.5,-231.25"/>
<text xml:space="preserve" text-anchor="middle" x="44.75" y="-217.75" font-family="Helvetica,sans-Serif" font-size="10.00">BaseDescriptor</text>
</a>
</g>
</g>
<!-- Node9&#45;&gt;Node8 -->
<g id="edge8_Node000008_Node000009" class="edge">
<title>Node9&#45;&gt;Node8</title>
<g id="a_edge8_Node000008_Node000009"><a xlink:title=" ">
<path fill="none" stroke="#63b8ff" d="M98.38,-221.62C113.86,-221.62 130.9,-221.62 146.74,-221.62"/>
<polygon fill="#63b8ff" stroke="#63b8ff" points="98.4,-218.13 88.4,-221.63 98.4,-225.13 98.4,-218.13"/>
</a>
</g>
</g>
<!-- Node10&#45;&gt;Node6 -->
<g id="edge9_Node000006_Node000010" class="edge">
<title>Node10&#45;&gt;Node6</title>
<g id="a_edge9_Node000006_Node000010"><a xlink:title=" ">
<path fill="none" stroke="orange" stroke-dasharray="5,2" d="M298.17,-143.05C338.94,-144.74 387.6,-147.59 431.25,-152.38 437.02,-153.01 442.97,-153.76 448.95,-154.59"/>
<polygon fill="orange" stroke="orange" points="298.54,-139.56 288.41,-142.66 298.26,-146.55 298.54,-139.56"/>
</a>
</g>
<text xml:space="preserve" text-anchor="start" x="307.5" y="-157.12" font-family="Helvetica,sans-Serif" font-size="10.00" fill="grey">&lt; BatchMatMulDescriptor &gt;</text>
</g>
<!-- Node11&#45;&gt;Node3 -->
<g id="edge11_Node000003_Node000011" class="edge">
<title>Node11&#45;&gt;Node3</title>
<g id="a_edge11_Node000003_Node000011"><a xlink:title=" ">
<path fill="none" stroke="orange" stroke-dasharray="5,2" d="M828.46,-81.75C891.91,-79.19 973.77,-75.88 1031.7,-73.54"/>
<polygon fill="orange" stroke="orange" points="828.6,-78.24 818.75,-82.14 828.88,-85.23 828.6,-78.24"/>
</a>
</g>
<text xml:space="preserve" text-anchor="start" x="837.75" y="-85.94" font-family="Helvetica,sans-Serif" font-size="10.00" fill="grey">&lt; BatchMatMulQueueDescriptor &gt;</text>
</g>
<!-- Node12 -->
<g id="Node000012" class="node">
<title>Node12</title>
<g id="a_Node000012"><a xlink:href="classarmnn_1_1_neon_base_workload.html" target="_top" xlink:title=" ">
<polygon fill="white" stroke="#666666" points="1201.75,-33.25 1008,-33.25 1008,-14 1201.75,-14 1201.75,-33.25"/>
<text xml:space="preserve" text-anchor="middle" x="1104.88" y="-19.75" font-family="Helvetica,sans-Serif" font-size="10.00">NeonBaseWorkload&lt; QueueDescriptor &gt;</text>
</a>
</g>
</g>
<!-- Node12&#45;&gt;Node2 -->
<g id="edge14_Node000002_Node000012" class="edge">
<title>Node12&#45;&gt;Node2</title>
<g id="a_edge14_Node000002_Node000012"><a xlink:title=" ">
<path fill="none" stroke="orange" stroke-dasharray="5,2" d="M1213.55,-24.72C1262.83,-25.84 1321.94,-28.05 1375,-32.38 1380.72,-32.84 1386.62,-33.41 1392.56,-34.04"/>
<polygon fill="orange" stroke="orange" points="1213.81,-21.23 1203.74,-24.51 1213.66,-28.23 1213.81,-21.23"/>
</a>
</g>
<text xml:space="preserve" text-anchor="start" x="1222.75" y="-37.12" font-family="Helvetica,sans-Serif" font-size="10.00" fill="grey">&lt; BatchMatMulQueueDescriptor &gt;</text>
</g>
<!-- Node13&#45;&gt;Node12 -->
<g id="edge15_Node000012_Node000013" class="edge">
<title>Node13&#45;&gt;Node12</title>
<g id="a_edge15_Node000012_Node000013"><a xlink:title=" ">
<path fill="none" stroke="#63b8ff" d="M828.42,-13.24C883.54,-15.32 952.56,-17.92 1007.72,-20"/>
<polygon fill="#63b8ff" stroke="#63b8ff" points="828.87,-9.76 818.75,-12.88 828.61,-16.75 828.87,-9.76"/>
</a>
</g>
</g>
</g>
</svg>
