<?xml version="1.0" encoding="UTF-8" standalone="no"?>
<!DOCTYPE svg PUBLIC "-//W3C//DTD SVG 1.1//EN"
 "http://www.w3.org/Graphics/SVG/1.1/DTD/svg11.dtd">
<!-- Generated by graphviz version 14.0.2 (20251019.1705)
 -->
<!-- Title: NeonUnidirectionalSequenceLstmWorkload Pages: 1 -->
<svg width="1126pt" height="94pt"
 viewBox="0.00 0.00 1126.00 94.00" xmlns="http://www.w3.org/2000/svg" xmlns:xlink="http://www.w3.org/1999/xlink">
<g id="graph0" class="graph" transform="scale(1 1) rotate(0) translate(4 90.09)">
<title>NeonUnidirectionalSequenceLstmWorkload</title>
<!-- Node1 -->
<g id="Node000001" class="node">
<title>Node1</title>
<g id="a_Node000001"><a xlink:title=" ">
<polygon fill="#999999" stroke="#666666" points="1117.75,-48.88 975.75,-48.88 975.75,-18.38 1117.75,-18.38 1117.75,-48.88"/>
<text xml:space="preserve" text-anchor="start" x="983.75" y="-35.38" font-family="Helvetica,sans-Serif" font-size="10.00">NeonUnidirectionalSequence</text>
<text xml:space="preserve" text-anchor="middle" x="1046.75" y="-24.12" font-family="Helvetica,sans-Serif" font-size="10.00">LstmWorkload</text>
</a>
</g>
</g>
<!-- Node2 -->
<g id="Node000002" class="node">
<title>Node2</title>
<g id="a_Node000002"><a xlink:href="classarmnn_1_1_neon_base_workload.html" target="_top" xlink:title=" ">
<polygon fill="white" stroke="#666666" points="938.75,-48.88 768.25,-48.88 768.25,-18.38 938.75,-18.38 938.75,-48.88"/>
<text xml:space="preserve" text-anchor="start" x="776.25" y="-35.38" font-family="Helvetica,sans-Serif" font-size="10.00">NeonBaseWorkload&lt; Unidirectional</text>
<text xml:space="preserve" text-anchor="middle" x="853.5" y="-24.12" font-family="Helvetica,sans-Serif" font-size="10.00">SequenceLstmQueueDescriptor &gt;</text>
</a>
</g>
</g>
<!-- Node2&#45;&gt;Node1 -->
<g id="edge1_Node000001_Node000002" class="edge">
<title>Node2&#45;&gt;Node1</title>
<g id="a_edge1_Node000001_Node000002"><a xlink:title=" ">
<path fill="none" stroke="#63b8ff" d="M950.6,-33.62C958.96,-33.62 967.31,-33.62 975.41,-33.62"/>
<polygon fill="#63b8ff" stroke="#63b8ff" points="950.73,-30.13 940.73,-33.63 950.73,-37.13 950.73,-30.13"/>
</a>
</g>
</g>
<!-- Node3 -->
<g id="Node000003" class="node">
<title>Node3</title>
<g id="a_Node000003"><a xlink:href="classarmnn_1_1_base_workload.html" target="_top" xlink:title=" ">
<polygon fill="white" stroke="#666666" points="599.5,-72.88 435.75,-72.88 435.75,-42.38 599.5,-42.38 599.5,-72.88"/>
<text xml:space="preserve" text-anchor="start" x="443.75" y="-59.38" font-family="Helvetica,sans-Serif" font-size="10.00">BaseWorkload&lt; Unidirectional</text>
<text xml:space="preserve" text-anchor="middle" x="517.62" y="-48.12" font-family="Helvetica,sans-Serif" font-size="10.00">SequenceLstmQueueDescriptor &gt;</text>
</a>
</g>
</g>
<!-- Node3&#45;&gt;Node2 -->
<g id="edge2_Node000002_Node000003" class="edge">
<title>Node3&#45;&gt;Node2</title>
<g id="a_edge2_Node000002_Node000003"><a xlink:title=" ">
<path fill="none" stroke="#63b8ff" d="M611.31,-52.81C653.69,-50.41 704.54,-47.24 750.25,-43.62 756.03,-43.17 761.99,-42.67 767.99,-42.14"/>
<polygon fill="#63b8ff" stroke="#63b8ff" points="611.18,-49.31 601.39,-53.37 611.57,-56.3 611.18,-49.31"/>
</a>
</g>
</g>
<!-- Node4 -->
<g id="Node000004" class="node">
<title>Node4</title>
<g id="a_Node000004"><a xlink:href="classarmnn_1_1_i_workload.html" target="_top" xlink:title="Workload interface to enqueue a layer computation.">
<polygon fill="white" stroke="#666666" points="59.5,-56.25 0,-56.25 0,-37 59.5,-37 59.5,-56.25"/>
<text xml:space="preserve" text-anchor="middle" x="29.75" y="-42.75" font-family="Helvetica,sans-Serif" font-size="10.00">IWorkload</text>
</a>
</g>
</g>
<!-- Node4&#45;&gt;Node3 -->
<g id="edge3_Node000003_Node000004" class="edge">
<title>Node4&#45;&gt;Node3</title>
<g id="a_edge3_Node000003_Node000004"><a xlink:title=" ">
<path fill="none" stroke="#63b8ff" d="M70.92,-59.86C79.29,-62.15 88.12,-64.25 96.5,-65.62 230.93,-87.75 267.08,-91.03 402.75,-78.62 415.56,-77.45 429.09,-75.56 442.16,-73.37"/>
<polygon fill="#63b8ff" stroke="#63b8ff" points="71.9,-56.5 61.32,-57.07 69.94,-63.22 71.9,-56.5"/>
</a>
</g>
</g>
<!-- Node5 -->
<g id="Node000005" class="node">
<title>Node5</title>
<g id="a_Node000005"><a xlink:href="classarmnn_1_1_base_workload.html" target="_top" xlink:title=" ">
<polygon fill="white" stroke="#666666" points="267,-56.25 96.5,-56.25 96.5,-37 267,-37 267,-56.25"/>
<text xml:space="preserve" text-anchor="middle" x="181.75" y="-42.75" font-family="Helvetica,sans-Serif" font-size="10.00">BaseWorkload&lt; QueueDescriptor &gt;</text>
</a>
</g>
</g>
<!-- Node4&#45;&gt;Node5 -->
<g id="edge5_Node000005_Node000004" class="edge">
<title>Node4&#45;&gt;Node5</title>
<g id="a_edge5_Node000005_Node000004"><a xlink:title=" ">
<path fill="none" stroke="#63b8ff" d="M71.02,-46.62C78.87,-46.62 87.36,-46.62 96.04,-46.62"/>
<polygon fill="#63b8ff" stroke="#63b8ff" points="71.19,-43.13 61.19,-46.63 71.19,-50.13 71.19,-43.13"/>
</a>
</g>
</g>
<!-- Node7 -->
<g id="Node000007" class="node">
<title>Node7</title>
<g id="a_Node000007"><a xlink:href="classarmnn_1_1_base_workload.html" target="_top" xlink:title=" ">
<polygon fill="white" stroke="#666666" points="267,-19.25 96.5,-19.25 96.5,0 267,0 267,-19.25"/>
<text xml:space="preserve" text-anchor="middle" x="181.75" y="-5.75" font-family="Helvetica,sans-Serif" font-size="10.00">BaseWorkload&lt; QueueDescriptor &gt;</text>
</a>
</g>
</g>
<!-- Node4&#45;&gt;Node7 -->
<g id="edge8_Node000007_Node000004" class="edge">
<title>Node4&#45;&gt;Node7</title>
<g id="a_edge8_Node000007_Node000004"><a xlink:title=" ">
<path fill="none" stroke="#63b8ff" d="M70.61,-34.62C79.12,-32.19 88.09,-29.74 96.5,-27.62 107.53,-24.86 119.43,-22.15 130.72,-19.7"/>
<polygon fill="#63b8ff" stroke="#63b8ff" points="69.84,-31.19 61.21,-37.34 71.79,-37.92 69.84,-31.19"/>
</a>
</g>
</g>
<!-- Node5&#45;&gt;Node3 -->
<g id="edge4_Node000003_Node000005" class="edge">
<title>Node5&#45;&gt;Node3</title>
<g id="a_edge4_Node000003_Node000005"><a xlink:title=" ">
<path fill="none" stroke="orange" stroke-dasharray="5,2" d="M278.72,-46.14C280.83,-46.14 282.93,-46.13 285,-46.12 337.33,-46 350.48,-43.49 402.75,-46.12 413.37,-46.66 424.52,-47.47 435.52,-48.43"/>
<polygon fill="orange" stroke="orange" points="278.78,-42.64 268.8,-46.17 278.81,-49.64 278.78,-42.64"/>
</a>
</g>
<text xml:space="preserve" text-anchor="start" x="288" y="-66.12" font-family="Helvetica,sans-Serif" font-size="10.00" fill="grey">&lt; UnidirectionalSequence</text>
<text xml:space="preserve" text-anchor="start" x="288" y="-50.88" font-family="Helvetica,sans-Serif" font-size="10.00" fill="grey">  LstmQueueDescriptor &gt;</text>
</g>
<!-- Node6 -->
<g id="Node000006" class="node">
<title>Node6</title>
<g id="a_Node000006"><a xlink:href="classarmnn_1_1_neon_base_workload.html" target="_top" xlink:title=" ">
<polygon fill="white" stroke="#666666" points="614.5,-19.25 420.75,-19.25 420.75,0 614.5,0 614.5,-19.25"/>
<text xml:space="preserve" text-anchor="middle" x="517.62" y="-5.75" font-family="Helvetica,sans-Serif" font-size="10.00">NeonBaseWorkload&lt; QueueDescriptor &gt;</text>
</a>
</g>
</g>
<!-- Node6&#45;&gt;Node2 -->
<g id="edge6_Node000002_Node000006" class="edge">
<title>Node6&#45;&gt;Node2</title>
<g id="a_edge6_Node000002_Node000006"><a xlink:title=" ">
<path fill="none" stroke="orange" stroke-dasharray="5,2" d="M626.19,-2.34C665.38,-1.29 709.95,-1.99 750.25,-7.12 767.44,-9.32 785.87,-13.5 802.29,-17.91"/>
<polygon fill="orange" stroke="orange" points="626.16,1.16 616.27,-2.65 626.37,-5.83 626.16,1.16"/>
</a>
</g>
<text xml:space="preserve" text-anchor="start" x="635.5" y="-27.12" font-family="Helvetica,sans-Serif" font-size="10.00" fill="grey">&lt; UnidirectionalSequence</text>
<text xml:space="preserve" text-anchor="start" x="635.5" y="-11.88" font-family="Helvetica,sans-Serif" font-size="10.00" fill="grey">  LstmQueueDescriptor &gt;</text>
</g>
<!-- Node7&#45;&gt;Node6 -->
<g id="edge7_Node000006_Node000007" class="edge">
<title>Node7&#45;&gt;Node6</title>
<g id="a_edge7_Node000006_Node000007"><a xlink:title=" ">
<path fill="none" stroke="#63b8ff" d="M278.85,-9.62C323.33,-9.62 376.04,-9.62 420.52,-9.62"/>
<polygon fill="#63b8ff" stroke="#63b8ff" points="278.95,-6.13 268.95,-9.63 278.95,-13.13 278.95,-6.13"/>
</a>
</g>
</g>
</g>
</svg>
