<?xml version="1.0" encoding="UTF-8" standalone="no"?>
<!DOCTYPE svg PUBLIC "-//W3C//DTD SVG 1.1//EN"
 "http://www.w3.org/Graphics/SVG/1.1/DTD/svg11.dtd">
<!-- Generated by graphviz version 14.0.2 (20251019.1705)
 -->
<!-- Title: Graphical Class Hierarchy Pages: 1 -->
<svg width="261pt" height="64pt"
 viewBox="0.00 0.00 261.00 64.00" xmlns="http://www.w3.org/2000/svg" xmlns:xlink="http://www.w3.org/1999/xlink">
<g id="graph0" class="graph" transform="scale(1 1) rotate(0) translate(4 60.25)">
<title>Graphical Class Hierarchy</title>
<!-- Node0 -->
<g id="Node000000" class="node">
<title>Node0</title>
<g id="a_Node000000"><a xlink:href="classarmnn_1_1_i_strategy.html" target="_top" xlink:title=" ">
<polygon fill="white" stroke="#666666" points="55.75,-37.25 0,-37.25 0,-18 55.75,-18 55.75,-37.25"/>
<text xml:space="preserve" text-anchor="middle" x="27.88" y="-23.75" font-family="Helvetica,sans-Serif" font-size="10.00">IStrategy</text>
</a>
</g>
</g>
<!-- Node1 -->
<g id="Node000001" class="node">
<title>Node1</title>
<g id="a_Node000001"><a xlink:href="classarmnn_1_1_strategy_base.html" target="_top" xlink:title="Strategy base class with empty implementations.">
<polygon fill="white" stroke="#666666" points="253.25,-56.25 91.75,-56.25 91.75,-37 253.25,-37 253.25,-56.25"/>
<text xml:space="preserve" text-anchor="middle" x="172.5" y="-42.75" font-family="Helvetica,sans-Serif" font-size="10.00">StrategyBase&lt; DefaultStrategy &gt;</text>
</a>
</g>
</g>
<!-- Node0&#45;&gt;Node1 -->
<g id="edge332_Node000000_Node000001" class="edge">
<title>Node0&#45;&gt;Node1</title>
<g id="a_edge332_Node000000_Node000001"><a xlink:title=" ">
<path fill="none" stroke="#63b8ff" d="M67.16,-32.73C76.06,-33.91 85.84,-35.21 95.74,-36.53"/>
<polygon fill="#63b8ff" stroke="#63b8ff" points="67.91,-29.29 57.54,-31.44 66.99,-36.23 67.91,-29.29"/>
</a>
</g>
</g>
<!-- Node2 -->
<g id="Node000002" class="node">
<title>Node2</title>
<g id="a_Node000002"><a xlink:href="classarmnn_serializer_1_1_serializer_strategy.html" target="_top" xlink:title=" ">
<polygon fill="white" stroke="#666666" points="219.12,-19.25 125.88,-19.25 125.88,0 219.12,0 219.12,-19.25"/>
<text xml:space="preserve" text-anchor="middle" x="172.5" y="-5.75" font-family="Helvetica,sans-Serif" font-size="10.00">SerializerStrategy</text>
</a>
</g>
</g>
<!-- Node0&#45;&gt;Node2 -->
<g id="edge333_Node000000_Node000002" class="edge">
<title>Node0&#45;&gt;Node2</title>
<g id="a_edge333_Node000000_Node000002"><a xlink:title=" ">
<path fill="none" stroke="#63b8ff" d="M67.27,-22.78C85.25,-20.51 106.81,-17.79 125.64,-15.41"/>
<polygon fill="#63b8ff" stroke="#63b8ff" points="67.02,-19.28 57.54,-24.01 67.9,-26.23 67.02,-19.28"/>
</a>
</g>
</g>
</g>
</svg>
