<?xml version="1.0" encoding="UTF-8" standalone="no"?>
<!DOCTYPE svg PUBLIC "-//W3C//DTD SVG 1.1//EN"
 "http://www.w3.org/Graphics/SVG/1.1/DTD/svg11.dtd">
<!-- Generated by graphviz version 14.0.2 (20251019.1705)
 -->
<!-- Title: Graphical Class Hierarchy Pages: 1 -->
<svg width="313pt" height="174pt"
 viewBox="0.00 0.00 313.00 174.00" xmlns="http://www.w3.org/2000/svg" xmlns:xlink="http://www.w3.org/1999/xlink">
<g id="graph0" class="graph" transform="scale(1 1) rotate(0) translate(4 169.88)">
<title>Graphical Class Hierarchy</title>
<!-- Node0 -->
<g id="Node000000" class="node">
<title>Node0</title>
<g id="a_Node000000"><a xlink:title=" ">
<polygon fill="#e0e0e0" stroke="#999999" points="61,-68.25 0,-68.25 0,-49 61,-49 61,-68.25"/>
<text xml:space="preserve" text-anchor="middle" x="30.5" y="-54.75" font-family="Helvetica,sans-Serif" font-size="10.00">false_type</text>
</a>
</g>
</g>
<!-- Node1 -->
<g id="Node000001" class="node">
<title>Node1</title>
<g id="a_Node000001"><a xlink:href="structarmnn_1_1_fold_pad_constraints_1_1_is_valid_pair_3_01_convolution2d_layer_00_01_convolution2d_descriptor_01_4.html" target="_top" xlink:title=" ">
<polygon fill="white" stroke="#666666" points="281.75,-165.88 120.25,-165.88 120.25,-135.38 281.75,-135.38 281.75,-165.88"/>
<text xml:space="preserve" text-anchor="start" x="128.25" y="-152.38" font-family="Helvetica,sans-Serif" font-size="10.00">IsValidPair&lt; Convolution2d</text>
<text xml:space="preserve" text-anchor="middle" x="201" y="-141.12" font-family="Helvetica,sans-Serif" font-size="10.00">Layer, Convolution2dDescriptor &gt;</text>
</a>
</g>
</g>
<!-- Node0&#45;&gt;Node1 -->
<g id="edge141_Node000000_Node000001" class="edge">
<title>Node0&#45;&gt;Node1</title>
<g id="a_edge141_Node000000_Node000001"><a xlink:title=" ">
<path fill="none" stroke="#63b8ff" d="M53.55,-75.78C56.12,-78.01 58.66,-80.32 61,-82.62 78.75,-100.12 75.83,-112.47 97,-125.62 104.03,-130 111.78,-133.6 119.76,-136.58"/>
<polygon fill="#63b8ff" stroke="#63b8ff" points="55.99,-73.26 46.05,-69.59 51.54,-78.65 55.99,-73.26"/>
</a>
</g>
</g>
<!-- Node3 -->
<g id="Node000003" class="node">
<title>Node3</title>
<g id="a_Node000003"><a xlink:href="structarmnn_1_1_fold_pad_constraints_1_1_is_valid_pair_3_01_depthwise_convolution2d_layer_00_01_ab29f6ddde6982af57e107f1e84dc771.html" target="_top" xlink:title=" ">
<polygon fill="white" stroke="#666666" points="305,-116.88 97,-116.88 97,-86.38 305,-86.38 305,-116.88"/>
<text xml:space="preserve" text-anchor="start" x="105" y="-103.38" font-family="Helvetica,sans-Serif" font-size="10.00">IsValidPair&lt; DepthwiseConvolution2d</text>
<text xml:space="preserve" text-anchor="middle" x="201" y="-92.12" font-family="Helvetica,sans-Serif" font-size="10.00">Layer, DepthwiseConvolution2dDescriptor &gt;</text>
</a>
</g>
</g>
<!-- Node0&#45;&gt;Node3 -->
<g id="edge142_Node000000_Node000003" class="edge">
<title>Node0&#45;&gt;Node3</title>
<g id="a_edge142_Node000000_Node000003"><a xlink:title=" ">
<path fill="none" stroke="#63b8ff" d="M72.29,-70.04C80.46,-72.27 88.99,-74.55 97,-76.62 108.94,-79.71 121.68,-82.9 133.99,-85.92"/>
<polygon fill="#63b8ff" stroke="#63b8ff" points="73.48,-66.74 62.91,-67.46 71.62,-73.48 73.48,-66.74"/>
</a>
</g>
</g>
<!-- Node4 -->
<g id="Node000004" class="node">
<title>Node4</title>
<g id="a_Node000004"><a xlink:href="structarmnn_1_1_fold_pad_constraints_1_1_is_valid_pair_3_01_pooling2d_layer_00_01_pooling2d_descriptor_01_4.html" target="_top" xlink:title=" ">
<polygon fill="white" stroke="#666666" points="271.25,-67.88 130.75,-67.88 130.75,-37.38 271.25,-37.38 271.25,-67.88"/>
<text xml:space="preserve" text-anchor="start" x="138.75" y="-54.38" font-family="Helvetica,sans-Serif" font-size="10.00">IsValidPair&lt; Pooling2dLayer,</text>
<text xml:space="preserve" text-anchor="middle" x="201" y="-43.12" font-family="Helvetica,sans-Serif" font-size="10.00"> Pooling2dDescriptor &gt;</text>
</a>
</g>
</g>
<!-- Node0&#45;&gt;Node4 -->
<g id="edge143_Node000000_Node000004" class="edge">
<title>Node0&#45;&gt;Node4</title>
<g id="a_edge143_Node000000_Node000004"><a xlink:title=" ">
<path fill="none" stroke="#63b8ff" d="M72.67,-57.16C90.03,-56.54 110.73,-55.8 130.34,-55.11"/>
<polygon fill="#63b8ff" stroke="#63b8ff" points="72.62,-53.66 62.75,-57.51 72.87,-60.65 72.62,-53.66"/>
</a>
</g>
</g>
<!-- Node5 -->
<g id="Node000005" class="node">
<title>Node5</title>
<g id="a_Node000005"><a xlink:href="structarmnn_1_1_fold_pad_constraints_1_1_is_valid_pair.html" target="_top" xlink:title=" ">
<polygon fill="white" stroke="#666666" points="250.62,-19.25 151.38,-19.25 151.38,0 250.62,0 250.62,-19.25"/>
<text xml:space="preserve" text-anchor="middle" x="201" y="-5.75" font-family="Helvetica,sans-Serif" font-size="10.00">IsValidPair&lt; L, D &gt;</text>
</a>
</g>
</g>
<!-- Node0&#45;&gt;Node5 -->
<g id="edge144_Node000000_Node000005" class="edge">
<title>Node0&#45;&gt;Node5</title>
<g id="a_edge144_Node000000_Node000005"><a xlink:title=" ">
<path fill="none" stroke="#63b8ff" d="M60.29,-43.57C71.51,-38.21 84.62,-32.54 97,-28.62 114.25,-23.18 133.65,-19.09 150.93,-16.14"/>
<polygon fill="#63b8ff" stroke="#63b8ff" points="58.98,-40.31 51.57,-47.88 62.08,-46.59 58.98,-40.31"/>
</a>
</g>
</g>
<!-- Node2 -->
<g id="Node000002" class="node">
<title>Node2</title>
<g id="a_Node000002"><a xlink:title=" ">
<polygon fill="#e0e0e0" stroke="#999999" points="58.75,-111.25 2.25,-111.25 2.25,-92 58.75,-92 58.75,-111.25"/>
<text xml:space="preserve" text-anchor="middle" x="30.5" y="-97.75" font-family="Helvetica,sans-Serif" font-size="10.00">true_type</text>
</a>
</g>
</g>
<!-- Node2&#45;&gt;Node1 -->
<g id="edge145_Node000002_Node000001" class="edge">
<title>Node2&#45;&gt;Node1</title>
<g id="a_edge145_Node000002_Node000001"><a xlink:title=" ">
<path fill="none" stroke="#63b8ff" d="M67.5,-115.65C77.02,-119.12 87.34,-122.69 97,-125.62 107.74,-128.88 119.21,-132.01 130.45,-134.88"/>
<polygon fill="#63b8ff" stroke="#63b8ff" points="68.79,-112.39 58.2,-112.18 66.35,-118.95 68.79,-112.39"/>
</a>
</g>
</g>
<!-- Node2&#45;&gt;Node3 -->
<g id="edge146_Node000002_Node000003" class="edge">
<title>Node2&#45;&gt;Node3</title>
<g id="a_edge146_Node000002_Node000003"><a xlink:title=" ">
<path fill="none" stroke="#63b8ff" d="M70.29,-101.62C78.48,-101.62 87.48,-101.62 96.8,-101.62"/>
<polygon fill="#63b8ff" stroke="#63b8ff" points="70.46,-98.13 60.46,-101.63 70.46,-105.13 70.46,-98.13"/>
</a>
</g>
</g>
<!-- Node2&#45;&gt;Node4 -->
<g id="edge147_Node000002_Node000004" class="edge">
<title>Node2&#45;&gt;Node4</title>
<g id="a_edge147_Node000002_Node000004"><a xlink:title=" ">
<path fill="none" stroke="#63b8ff" d="M67.5,-87.6C77.02,-84.13 87.34,-80.56 97,-77.62 107.74,-74.37 119.21,-71.24 130.45,-68.37"/>
<polygon fill="#63b8ff" stroke="#63b8ff" points="66.35,-84.3 58.2,-91.07 68.79,-90.86 66.35,-84.3"/>
</a>
</g>
</g>
</g>
</svg>
