<?xml version="1.0" encoding="UTF-8" standalone="no"?>
<!DOCTYPE svg PUBLIC "-//W3C//DTD SVG 1.1//EN"
 "http://www.w3.org/Graphics/SVG/1.1/DTD/svg11.dtd">
<!-- Generated by graphviz version 14.0.2 (20251019.1705)
 -->
<!-- Title: Pooling2dQueueDescriptor Pages: 1 -->
<svg width="772pt" height="100pt"
 viewBox="0.00 0.00 772.00 100.00" xmlns="http://www.w3.org/2000/svg" xmlns:xlink="http://www.w3.org/1999/xlink">
<g id="graph0" class="graph" transform="scale(1 1) rotate(0) translate(4 96.25)">
<title>Pooling2dQueueDescriptor</title>
<!-- Node1 -->
<g id="Node000001" class="node">
<title>Node1</title>
<g id="a_Node000001"><a xlink:title=" ">
<polygon fill="#999999" stroke="#666666" points="763.5,-62.25 631.25,-62.25 631.25,-43 763.5,-43 763.5,-62.25"/>
<text xml:space="preserve" text-anchor="middle" x="697.38" y="-48.75" font-family="Helvetica,sans-Serif" font-size="10.00">Pooling2dQueueDescriptor</text>
</a>
</g>
</g>
<!-- Node2 -->
<g id="Node000002" class="node">
<title>Node2</title>
<g id="a_Node000002"><a xlink:href="structarmnn_1_1_queue_descriptor_with_parameters.html" target="_top" xlink:title=" ">
<polygon fill="white" stroke="#666666" points="594.25,-67.88 434.25,-67.88 434.25,-37.38 594.25,-37.38 594.25,-67.88"/>
<text xml:space="preserve" text-anchor="start" x="442.25" y="-54.38" font-family="Helvetica,sans-Serif" font-size="10.00">QueueDescriptorWithParameters</text>
<text xml:space="preserve" text-anchor="middle" x="514.25" y="-43.12" font-family="Helvetica,sans-Serif" font-size="10.00">&lt; Pooling2dDescriptor &gt;</text>
</a>
</g>
</g>
<!-- Node2&#45;&gt;Node1 -->
<g id="edge1_Node000001_Node000002" class="edge">
<title>Node2&#45;&gt;Node1</title>
<g id="a_edge1_Node000001_Node000002"><a xlink:title=" ">
<path fill="none" stroke="#63b8ff" d="M606.06,-52.62C614.42,-52.62 622.77,-52.62 630.84,-52.62"/>
<polygon fill="#63b8ff" stroke="#63b8ff" points="606.21,-49.13 596.21,-52.63 606.21,-56.13 606.21,-49.13"/>
</a>
</g>
</g>
<!-- Node3 -->
<g id="Node000003" class="node">
<title>Node3</title>
<g id="a_Node000003"><a xlink:href="structarmnn_1_1_queue_descriptor.html" target="_top" xlink:title=" ">
<polygon fill="white" stroke="#666666" points="89.5,-92.25 0,-92.25 0,-73 89.5,-73 89.5,-92.25"/>
<text xml:space="preserve" text-anchor="middle" x="44.75" y="-78.75" font-family="Helvetica,sans-Serif" font-size="10.00">QueueDescriptor</text>
</a>
</g>
</g>
<!-- Node3&#45;&gt;Node2 -->
<g id="edge2_Node000002_Node000003" class="edge">
<title>Node3&#45;&gt;Node2</title>
<g id="a_edge2_Node000002_Node000003"><a xlink:title=" ">
<path fill="none" stroke="#63b8ff" d="M101,-84.55C173.61,-86.34 304.98,-87 416.25,-73.62 426.86,-72.35 438.02,-70.46 448.84,-68.33"/>
<polygon fill="#63b8ff" stroke="#63b8ff" points="101.46,-81.06 91.37,-84.3 101.28,-88.06 101.46,-81.06"/>
</a>
</g>
</g>
<!-- Node6 -->
<g id="Node000006" class="node">
<title>Node6</title>
<g id="a_Node000006"><a xlink:href="structarmnn_1_1_queue_descriptor_with_parameters.html" target="_top" xlink:title=" ">
<polygon fill="white" stroke="#666666" points="286.5,-67.88 126.5,-67.88 126.5,-37.38 286.5,-37.38 286.5,-67.88"/>
<text xml:space="preserve" text-anchor="start" x="134.5" y="-54.38" font-family="Helvetica,sans-Serif" font-size="10.00">QueueDescriptorWithParameters</text>
<text xml:space="preserve" text-anchor="middle" x="206.5" y="-43.12" font-family="Helvetica,sans-Serif" font-size="10.00">&lt; LayerDescriptor &gt;</text>
</a>
</g>
</g>
<!-- Node3&#45;&gt;Node6 -->
<g id="edge6_Node000006_Node000003" class="edge">
<title>Node3&#45;&gt;Node6</title>
<g id="a_edge6_Node000006_Node000003"><a xlink:title=" ">
<path fill="none" stroke="#63b8ff" d="M100.98,-72.25C109.08,-70.73 117.55,-69.14 126.01,-67.55"/>
<polygon fill="#63b8ff" stroke="#63b8ff" points="100.5,-68.78 91.31,-74.07 101.79,-75.66 100.5,-68.78"/>
</a>
</g>
</g>
<!-- Node4 -->
<g id="Node000004" class="node">
<title>Node4</title>
<g id="a_Node000004"><a xlink:href="structarmnn_1_1_pooling2d_descriptor.html" target="_top" xlink:title="A Pooling2dDescriptor for the Pooling2dLayer.">
<polygon fill="white" stroke="#666666" points="258.38,-19.25 154.62,-19.25 154.62,0 258.38,0 258.38,-19.25"/>
<text xml:space="preserve" text-anchor="middle" x="206.5" y="-5.75" font-family="Helvetica,sans-Serif" font-size="10.00">Pooling2dDescriptor</text>
</a>
</g>
</g>
<!-- Node4&#45;&gt;Node2 -->
<g id="edge3_Node000002_Node000004" class="edge">
<title>Node4&#45;&gt;Node2</title>
<g id="a_edge3_Node000002_Node000004"><a xlink:title=" ">
<path fill="none" stroke="#9a32cd" stroke-dasharray="5,2" d="M270.09,-14.31C311.68,-17.87 367.42,-23.51 416.25,-31.38 425.95,-32.94 436.14,-34.86 446.12,-36.9"/>
<polygon fill="#9a32cd" stroke="#9a32cd" points="270.52,-10.83 260.26,-13.48 269.94,-17.81 270.52,-10.83"/>
</a>
</g>
<text xml:space="preserve" text-anchor="start" x="328.5" y="-36.12" font-family="Helvetica,sans-Serif" font-size="10.00" fill="grey">m_Parameters</text>
</g>
<!-- Node5 -->
<g id="Node000005" class="node">
<title>Node5</title>
<g id="a_Node000005"><a xlink:href="structarmnn_1_1_base_descriptor.html" target="_top" xlink:title="Base class for all descriptors.">
<polygon fill="white" stroke="#666666" points="86.5,-19.25 3,-19.25 3,0 86.5,0 86.5,-19.25"/>
<text xml:space="preserve" text-anchor="middle" x="44.75" y="-5.75" font-family="Helvetica,sans-Serif" font-size="10.00">BaseDescriptor</text>
</a>
</g>
</g>
<!-- Node5&#45;&gt;Node4 -->
<g id="edge4_Node000004_Node000005" class="edge">
<title>Node5&#45;&gt;Node4</title>
<g id="a_edge4_Node000004_Node000005"><a xlink:title=" ">
<path fill="none" stroke="#63b8ff" d="M98.34,-9.62C116.3,-9.62 136.35,-9.62 154.2,-9.62"/>
<polygon fill="#63b8ff" stroke="#63b8ff" points="98.4,-6.13 88.4,-9.63 98.4,-13.13 98.4,-6.13"/>
</a>
</g>
</g>
<!-- Node6&#45;&gt;Node2 -->
<g id="edge5_Node000002_Node000006" class="edge">
<title>Node6&#45;&gt;Node2</title>
<g id="a_edge5_Node000002_Node000006"><a xlink:title=" ">
<path fill="none" stroke="orange" stroke-dasharray="5,2" d="M298,-52.62C341.15,-52.62 392.3,-52.62 433.92,-52.62"/>
<polygon fill="orange" stroke="orange" points="298.15,-49.13 288.15,-52.63 298.15,-56.13 298.15,-49.13"/>
</a>
</g>
<text xml:space="preserve" text-anchor="start" x="307.5" y="-57.38" font-family="Helvetica,sans-Serif" font-size="10.00" fill="grey">&lt; Pooling2dDescriptor &gt;</text>
</g>
</g>
</svg>
