<?xml version="1.0" encoding="UTF-8" standalone="no"?>
<!DOCTYPE svg PUBLIC "-//W3C//DTD SVG 1.1//EN"
 "http://www.w3.org/Graphics/SVG/1.1/DTD/svg11.dtd">
<!-- Generated by graphviz version 14.0.2 (20251019.1705)
 -->
<!-- Title: TransposeQueueDescriptor Pages: 1 -->
<svg width="864pt" height="113pt"
 viewBox="0.00 0.00 864.00 113.00" xmlns="http://www.w3.org/2000/svg" xmlns:xlink="http://www.w3.org/1999/xlink">
<g id="graph0" class="graph" transform="scale(1 1) rotate(0) translate(4 109.15)">
<title>TransposeQueueDescriptor</title>
<!-- Node1 -->
<g id="Node000001" class="node">
<title>Node1</title>
<g id="a_Node000001"><a xlink:title=" ">
<polygon fill="#999999" stroke="#666666" points="855.5,-81.25 720.25,-81.25 720.25,-62 855.5,-62 855.5,-81.25"/>
<text xml:space="preserve" text-anchor="middle" x="787.88" y="-67.75" font-family="Helvetica,sans-Serif" font-size="10.00">TransposeQueueDescriptor</text>
</a>
</g>
</g>
<!-- Node2 -->
<g id="Node000002" class="node">
<title>Node2</title>
<g id="a_Node000002"><a xlink:href="structarmnn_1_1_queue_descriptor_with_parameters.html" target="_top" xlink:title=" ">
<polygon fill="white" stroke="#666666" points="683.25,-86.88 523.25,-86.88 523.25,-56.38 683.25,-56.38 683.25,-86.88"/>
<text xml:space="preserve" text-anchor="start" x="531.25" y="-73.38" font-family="Helvetica,sans-Serif" font-size="10.00">QueueDescriptorWithParameters</text>
<text xml:space="preserve" text-anchor="middle" x="603.25" y="-62.12" font-family="Helvetica,sans-Serif" font-size="10.00">&lt; TransposeDescriptor &gt;</text>
</a>
</g>
</g>
<!-- Node2&#45;&gt;Node1 -->
<g id="edge1_Node000001_Node000002" class="edge">
<title>Node2&#45;&gt;Node1</title>
<g id="a_edge1_Node000001_Node000002"><a xlink:title=" ">
<path fill="none" stroke="#63b8ff" d="M694.98,-71.62C703.39,-71.62 711.8,-71.62 719.93,-71.62"/>
<polygon fill="#63b8ff" stroke="#63b8ff" points="695.07,-68.13 685.07,-71.63 695.07,-75.13 695.07,-68.13"/>
</a>
</g>
</g>
<!-- Node3 -->
<g id="Node000003" class="node">
<title>Node3</title>
<g id="a_Node000003"><a xlink:href="structarmnn_1_1_queue_descriptor.html" target="_top" xlink:title=" ">
<polygon fill="white" stroke="#666666" points="93.25,-99.25 3.75,-99.25 3.75,-80 93.25,-80 93.25,-99.25"/>
<text xml:space="preserve" text-anchor="middle" x="48.5" y="-85.75" font-family="Helvetica,sans-Serif" font-size="10.00">QueueDescriptor</text>
</a>
</g>
</g>
<!-- Node3&#45;&gt;Node2 -->
<g id="edge2_Node000002_Node000003" class="edge">
<title>Node3&#45;&gt;Node2</title>
<g id="a_edge2_Node000002_Node000003"><a xlink:title=" ">
<path fill="none" stroke="#63b8ff" d="M104.67,-95.04C108.16,-95.27 111.63,-95.47 115,-95.62 288.27,-103.54 333,-113.03 505.25,-92.62 515.86,-91.37 527.02,-89.49 537.84,-87.36"/>
<polygon fill="#63b8ff" stroke="#63b8ff" points="105.24,-91.58 95.01,-94.32 104.73,-98.56 105.24,-91.58"/>
</a>
</g>
</g>
<!-- Node7 -->
<g id="Node000007" class="node">
<title>Node7</title>
<g id="a_Node000007"><a xlink:href="structarmnn_1_1_queue_descriptor_with_parameters.html" target="_top" xlink:title=" ">
<polygon fill="white" stroke="#666666" points="372.5,-86.88 212.5,-86.88 212.5,-56.38 372.5,-56.38 372.5,-86.88"/>
<text xml:space="preserve" text-anchor="start" x="220.5" y="-73.38" font-family="Helvetica,sans-Serif" font-size="10.00">QueueDescriptorWithParameters</text>
<text xml:space="preserve" text-anchor="middle" x="292.5" y="-62.12" font-family="Helvetica,sans-Serif" font-size="10.00">&lt; LayerDescriptor &gt;</text>
</a>
</g>
</g>
<!-- Node3&#45;&gt;Node7 -->
<g id="edge7_Node000007_Node000003" class="edge">
<title>Node3&#45;&gt;Node7</title>
<g id="a_edge7_Node000007_Node000003"><a xlink:title=" ">
<path fill="none" stroke="#63b8ff" d="M104.92,-85.5C136.77,-83.13 177.31,-80.12 212.46,-77.5"/>
<polygon fill="#63b8ff" stroke="#63b8ff" points="104.83,-82 95.11,-86.23 105.35,-88.98 104.83,-82"/>
</a>
</g>
</g>
<!-- Node4 -->
<g id="Node000004" class="node">
<title>Node4</title>
<g id="a_Node000004"><a xlink:href="structarmnn_1_1_transpose_descriptor.html" target="_top" xlink:title="A TransposeDescriptor for the TransposeLayer.">
<polygon fill="white" stroke="#666666" points="345.88,-38.25 239.12,-38.25 239.12,-19 345.88,-19 345.88,-38.25"/>
<text xml:space="preserve" text-anchor="middle" x="292.5" y="-24.75" font-family="Helvetica,sans-Serif" font-size="10.00">TransposeDescriptor</text>
</a>
</g>
</g>
<!-- Node4&#45;&gt;Node2 -->
<g id="edge3_Node000002_Node000004" class="edge">
<title>Node4&#45;&gt;Node2</title>
<g id="a_edge3_Node000002_Node000004"><a xlink:title=" ">
<path fill="none" stroke="#9a32cd" stroke-dasharray="5,2" d="M357.58,-33.31C399.7,-36.85 455.95,-42.47 505.25,-50.38 514.95,-51.93 525.14,-53.85 535.12,-55.89"/>
<polygon fill="#9a32cd" stroke="#9a32cd" points="358.13,-29.84 347.87,-32.51 357.55,-36.82 358.13,-29.84"/>
</a>
</g>
<text xml:space="preserve" text-anchor="start" x="416" y="-55.12" font-family="Helvetica,sans-Serif" font-size="10.00" fill="grey">m_Parameters</text>
</g>
<!-- Node5 -->
<g id="Node000005" class="node">
<title>Node5</title>
<g id="a_Node000005"><a xlink:href="structarmnn_1_1_base_descriptor.html" target="_top" xlink:title="Base class for all descriptors.">
<polygon fill="white" stroke="#666666" points="90.25,-56.25 6.75,-56.25 6.75,-37 90.25,-37 90.25,-56.25"/>
<text xml:space="preserve" text-anchor="middle" x="48.5" y="-42.75" font-family="Helvetica,sans-Serif" font-size="10.00">BaseDescriptor</text>
</a>
</g>
</g>
<!-- Node5&#45;&gt;Node4 -->
<g id="edge4_Node000004_Node000005" class="edge">
<title>Node5&#45;&gt;Node4</title>
<g id="a_edge4_Node000004_Node000005"><a xlink:title=" ">
<path fill="none" stroke="#63b8ff" d="M101.81,-42.73C142.32,-39.72 198.2,-35.56 238.81,-32.54"/>
<polygon fill="#63b8ff" stroke="#63b8ff" points="101.77,-39.23 92.06,-43.46 102.29,-46.21 101.77,-39.23"/>
</a>
</g>
</g>
<!-- Node6 -->
<g id="Node000006" class="node">
<title>Node6</title>
<g id="a_Node000006"><a xlink:href="classarmnn_1_1_permutation_vector.html" target="_top" xlink:title=" ">
<polygon fill="white" stroke="#666666" points="97,-19.25 0,-19.25 0,0 97,0 97,-19.25"/>
<text xml:space="preserve" text-anchor="middle" x="48.5" y="-5.75" font-family="Helvetica,sans-Serif" font-size="10.00">PermutationVector</text>
</a>
</g>
</g>
<!-- Node6&#45;&gt;Node4 -->
<g id="edge5_Node000004_Node000006" class="edge">
<title>Node6&#45;&gt;Node4</title>
<g id="a_edge5_Node000004_Node000006"><a xlink:title=" ">
<path fill="none" stroke="#9a32cd" stroke-dasharray="5,2" d="M108.59,-10.05C134.93,-10.63 166.31,-11.85 194.5,-14.38 208.91,-15.67 224.44,-17.67 238.77,-19.77"/>
<polygon fill="#9a32cd" stroke="#9a32cd" points="108.84,-6.55 98.77,-9.86 108.7,-13.55 108.84,-6.55"/>
</a>
</g>
<text xml:space="preserve" text-anchor="start" x="118" y="-19.12" font-family="Helvetica,sans-Serif" font-size="10.00" fill="grey">m_DimMappings</text>
</g>
<!-- Node7&#45;&gt;Node2 -->
<g id="edge6_Node000002_Node000007" class="edge">
<title>Node7&#45;&gt;Node2</title>
<g id="a_edge6_Node000002_Node000007"><a xlink:title=" ">
<path fill="none" stroke="orange" stroke-dasharray="5,2" d="M383.9,-71.62C427.91,-71.62 480.35,-71.62 522.81,-71.62"/>
<polygon fill="orange" stroke="orange" points="384.12,-68.13 374.12,-71.63 384.12,-75.13 384.12,-68.13"/>
</a>
</g>
<text xml:space="preserve" text-anchor="start" x="393.5" y="-76.38" font-family="Helvetica,sans-Serif" font-size="10.00" fill="grey">&lt; TransposeDescriptor &gt;</text>
</g>
</g>
</svg>
