<?xml version="1.0" encoding="UTF-8" standalone="no"?>
<!DOCTYPE svg PUBLIC "-//W3C//DTD SVG 1.1//EN"
 "http://www.w3.org/Graphics/SVG/1.1/DTD/svg11.dtd">
<!-- Generated by graphviz version 14.0.2 (20251019.1705)
 -->
<!-- Title: Convolution2dQueueDescriptor Pages: 1 -->
<svg width="811pt" height="100pt"
 viewBox="0.00 0.00 811.00 100.00" xmlns="http://www.w3.org/2000/svg" xmlns:xlink="http://www.w3.org/1999/xlink">
<g id="graph0" class="graph" transform="scale(1 1) rotate(0) translate(4 96.25)">
<title>Convolution2dQueueDescriptor</title>
<!-- Node1 -->
<g id="Node000001" class="node">
<title>Node1</title>
<g id="a_Node000001"><a xlink:title=" ">
<polygon fill="#999999" stroke="#666666" points="802.5,-62.25 650.75,-62.25 650.75,-43 802.5,-43 802.5,-62.25"/>
<text xml:space="preserve" text-anchor="middle" x="726.62" y="-48.75" font-family="Helvetica,sans-Serif" font-size="10.00">Convolution2dQueueDescriptor</text>
</a>
</g>
</g>
<!-- Node2 -->
<g id="Node000002" class="node">
<title>Node2</title>
<g id="a_Node000002"><a xlink:href="structarmnn_1_1_queue_descriptor_with_parameters.html" target="_top" xlink:title=" ">
<polygon fill="white" stroke="#666666" points="613.75,-67.88 453.75,-67.88 453.75,-37.38 613.75,-37.38 613.75,-67.88"/>
<text xml:space="preserve" text-anchor="start" x="461.75" y="-54.38" font-family="Helvetica,sans-Serif" font-size="10.00">QueueDescriptorWithParameters</text>
<text xml:space="preserve" text-anchor="middle" x="533.75" y="-43.12" font-family="Helvetica,sans-Serif" font-size="10.00">&lt; Convolution2dDescriptor &gt;</text>
</a>
</g>
</g>
<!-- Node2&#45;&gt;Node1 -->
<g id="edge1_Node000001_Node000002" class="edge">
<title>Node2&#45;&gt;Node1</title>
<g id="a_edge1_Node000001_Node000002"><a xlink:title=" ">
<path fill="none" stroke="#63b8ff" d="M625.35,-52.62C633.69,-52.62 642.08,-52.62 650.26,-52.62"/>
<polygon fill="#63b8ff" stroke="#63b8ff" points="625.55,-49.13 615.55,-52.63 625.55,-56.13 625.55,-49.13"/>
</a>
</g>
</g>
<!-- Node3 -->
<g id="Node000003" class="node">
<title>Node3</title>
<g id="a_Node000003"><a xlink:href="structarmnn_1_1_queue_descriptor.html" target="_top" xlink:title=" ">
<polygon fill="white" stroke="#666666" points="89.5,-92.25 0,-92.25 0,-73 89.5,-73 89.5,-92.25"/>
<text xml:space="preserve" text-anchor="middle" x="44.75" y="-78.75" font-family="Helvetica,sans-Serif" font-size="10.00">QueueDescriptor</text>
</a>
</g>
</g>
<!-- Node3&#45;&gt;Node2 -->
<g id="edge2_Node000002_Node000003" class="edge">
<title>Node3&#45;&gt;Node2</title>
<g id="a_edge2_Node000002_Node000003"><a xlink:title=" ">
<path fill="none" stroke="#63b8ff" d="M100.96,-84.66C176.74,-86.7 317.09,-87.79 435.75,-73.62 446.36,-72.36 457.52,-70.47 468.34,-68.34"/>
<polygon fill="#63b8ff" stroke="#63b8ff" points="101.42,-81.17 91.32,-84.39 101.22,-88.17 101.42,-81.17"/>
</a>
</g>
</g>
<!-- Node6 -->
<g id="Node000006" class="node">
<title>Node6</title>
<g id="a_Node000006"><a xlink:href="structarmnn_1_1_queue_descriptor_with_parameters.html" target="_top" xlink:title=" ">
<polygon fill="white" stroke="#666666" points="286.5,-67.88 126.5,-67.88 126.5,-37.38 286.5,-37.38 286.5,-67.88"/>
<text xml:space="preserve" text-anchor="start" x="134.5" y="-54.38" font-family="Helvetica,sans-Serif" font-size="10.00">QueueDescriptorWithParameters</text>
<text xml:space="preserve" text-anchor="middle" x="206.5" y="-43.12" font-family="Helvetica,sans-Serif" font-size="10.00">&lt; LayerDescriptor &gt;</text>
</a>
</g>
</g>
<!-- Node3&#45;&gt;Node6 -->
<g id="edge6_Node000006_Node000003" class="edge">
<title>Node3&#45;&gt;Node6</title>
<g id="a_edge6_Node000006_Node000003"><a xlink:title=" ">
<path fill="none" stroke="#63b8ff" d="M100.98,-72.25C109.08,-70.73 117.55,-69.14 126.01,-67.55"/>
<polygon fill="#63b8ff" stroke="#63b8ff" points="100.5,-68.78 91.31,-74.07 101.79,-75.66 100.5,-68.78"/>
</a>
</g>
</g>
<!-- Node4 -->
<g id="Node000004" class="node">
<title>Node4</title>
<g id="a_Node000004"><a xlink:href="structarmnn_1_1_convolution2d_descriptor.html" target="_top" xlink:title="A Convolution2dDescriptor for the Convolution2dLayer.">
<polygon fill="white" stroke="#666666" points="268.12,-19.25 144.88,-19.25 144.88,0 268.12,0 268.12,-19.25"/>
<text xml:space="preserve" text-anchor="middle" x="206.5" y="-5.75" font-family="Helvetica,sans-Serif" font-size="10.00">Convolution2dDescriptor</text>
</a>
</g>
</g>
<!-- Node4&#45;&gt;Node2 -->
<g id="edge3_Node000002_Node000004" class="edge">
<title>Node4&#45;&gt;Node2</title>
<g id="a_edge3_Node000002_Node000004"><a xlink:title=" ">
<path fill="none" stroke="#9a32cd" stroke-dasharray="5,2" d="M279.73,-14.27C324.77,-17.72 383.83,-23.25 435.75,-31.38 445.54,-32.91 455.83,-34.83 465.9,-36.88"/>
<polygon fill="#9a32cd" stroke="#9a32cd" points="280.04,-10.78 269.81,-13.53 279.52,-17.76 280.04,-10.78"/>
</a>
</g>
<text xml:space="preserve" text-anchor="start" x="338.25" y="-36.12" font-family="Helvetica,sans-Serif" font-size="10.00" fill="grey">m_Parameters</text>
</g>
<!-- Node5 -->
<g id="Node000005" class="node">
<title>Node5</title>
<g id="a_Node000005"><a xlink:href="structarmnn_1_1_base_descriptor.html" target="_top" xlink:title="Base class for all descriptors.">
<polygon fill="white" stroke="#666666" points="86.5,-19.25 3,-19.25 3,0 86.5,0 86.5,-19.25"/>
<text xml:space="preserve" text-anchor="middle" x="44.75" y="-5.75" font-family="Helvetica,sans-Serif" font-size="10.00">BaseDescriptor</text>
</a>
</g>
</g>
<!-- Node5&#45;&gt;Node4 -->
<g id="edge4_Node000004_Node000005" class="edge">
<title>Node5&#45;&gt;Node4</title>
<g id="a_edge4_Node000004_Node000005"><a xlink:title=" ">
<path fill="none" stroke="#63b8ff" d="M98.4,-9.62C113.19,-9.62 129.39,-9.62 144.61,-9.62"/>
<polygon fill="#63b8ff" stroke="#63b8ff" points="98.4,-6.13 88.4,-9.63 98.4,-13.13 98.4,-6.13"/>
</a>
</g>
</g>
<!-- Node6&#45;&gt;Node2 -->
<g id="edge5_Node000002_Node000006" class="edge">
<title>Node6&#45;&gt;Node2</title>
<g id="a_edge5_Node000002_Node000006"><a xlink:title=" ">
<path fill="none" stroke="orange" stroke-dasharray="5,2" d="M297.86,-52.62C346.72,-52.62 406.5,-52.62 453.53,-52.62"/>
<polygon fill="orange" stroke="orange" points="298.16,-49.13 288.16,-52.63 298.16,-56.13 298.16,-49.13"/>
</a>
</g>
<text xml:space="preserve" text-anchor="start" x="307.5" y="-57.38" font-family="Helvetica,sans-Serif" font-size="10.00" fill="grey">&lt; Convolution2dDescriptor &gt;</text>
</g>
</g>
</svg>
