<?xml version="1.0" encoding="UTF-8" standalone="no"?>
<!DOCTYPE svg PUBLIC "-//W3C//DTD SVG 1.1//EN"
 "http://www.w3.org/Graphics/SVG/1.1/DTD/svg11.dtd">
<!-- Generated by graphviz version 14.0.2 (20251019.1705)
 -->
<!-- Title: ReduceQueueDescriptor Pages: 1 -->
<svg width="321pt" height="235pt"
 viewBox="0.00 0.00 321.00 235.00" xmlns="http://www.w3.org/2000/svg" xmlns:xlink="http://www.w3.org/1999/xlink">
<g id="graph0" class="graph" transform="scale(1 1) rotate(0) translate(4 230.75)">
<title>ReduceQueueDescriptor</title>
<!-- Node1 -->
<g id="Node000001" class="node">
<title>Node1</title>
<g id="a_Node000001"><a xlink:title=" ">
<polygon fill="#999999" stroke="#666666" points="180.38,-19.25 57.12,-19.25 57.12,0 180.38,0 180.38,-19.25"/>
<text xml:space="preserve" text-anchor="middle" x="118.75" y="-5.75" font-family="Helvetica,sans-Serif" font-size="10.00">ReduceQueueDescriptor</text>
</a>
</g>
</g>
<!-- Node2 -->
<g id="Node000002" class="node">
<title>Node2</title>
<g id="a_Node000002"><a xlink:href="structarmnn_1_1_queue_descriptor_with_parameters.html" target="_top" xlink:title=" ">
<polygon fill="white" stroke="#666666" points="198.75,-86.75 38.75,-86.75 38.75,-56.25 198.75,-56.25 198.75,-86.75"/>
<text xml:space="preserve" text-anchor="start" x="46.75" y="-73.25" font-family="Helvetica,sans-Serif" font-size="10.00">QueueDescriptorWithParameters</text>
<text xml:space="preserve" text-anchor="middle" x="118.75" y="-62" font-family="Helvetica,sans-Serif" font-size="10.00">&lt; ReduceDescriptor &gt;</text>
</a>
</g>
</g>
<!-- Node2&#45;&gt;Node1 -->
<g id="edge1_Node000001_Node000002" class="edge">
<title>Node2&#45;&gt;Node1</title>
<g id="a_edge1_Node000001_Node000002"><a xlink:title=" ">
<path fill="none" stroke="#63b8ff" d="M118.75,-44.77C118.75,-35.79 118.75,-26.29 118.75,-19.6"/>
<polygon fill="#63b8ff" stroke="#63b8ff" points="115.25,-44.49 118.75,-54.49 122.25,-44.49 115.25,-44.49"/>
</a>
</g>
</g>
<!-- Node3 -->
<g id="Node000003" class="node">
<title>Node3</title>
<g id="a_Node000003"><a xlink:href="structarmnn_1_1_queue_descriptor.html" target="_top" xlink:title=" ">
<polygon fill="white" stroke="#666666" points="89.5,-226.75 0,-226.75 0,-207.5 89.5,-207.5 89.5,-226.75"/>
<text xml:space="preserve" text-anchor="middle" x="44.75" y="-213.25" font-family="Helvetica,sans-Serif" font-size="10.00">QueueDescriptor</text>
</a>
</g>
</g>
<!-- Node3&#45;&gt;Node2 -->
<g id="edge2_Node000002_Node000003" class="edge">
<title>Node3&#45;&gt;Node2</title>
<g id="a_edge2_Node000002_Node000003"><a xlink:title=" ">
<path fill="none" stroke="#63b8ff" d="M34.5,-196.98C27.43,-181.02 20.78,-158.06 29.75,-140 41.65,-116.03 66.59,-98.29 87.04,-87.03"/>
<polygon fill="#63b8ff" stroke="#63b8ff" points="31.29,-198.4 38.83,-205.84 37.58,-195.32 31.29,-198.4"/>
</a>
</g>
</g>
<!-- Node6 -->
<g id="Node000006" class="node">
<title>Node6</title>
<g id="a_Node000006"><a xlink:href="structarmnn_1_1_queue_descriptor_with_parameters.html" target="_top" xlink:title=" ">
<polygon fill="white" stroke="#666666" points="198.75,-170.5 38.75,-170.5 38.75,-140 198.75,-140 198.75,-170.5"/>
<text xml:space="preserve" text-anchor="start" x="46.75" y="-157" font-family="Helvetica,sans-Serif" font-size="10.00">QueueDescriptorWithParameters</text>
<text xml:space="preserve" text-anchor="middle" x="118.75" y="-145.75" font-family="Helvetica,sans-Serif" font-size="10.00">&lt; LayerDescriptor &gt;</text>
</a>
</g>
</g>
<!-- Node3&#45;&gt;Node6 -->
<g id="edge6_Node000006_Node000003" class="edge">
<title>Node3&#45;&gt;Node6</title>
<g id="a_edge6_Node000006_Node000003"><a xlink:title=" ">
<path fill="none" stroke="#63b8ff" d="M64.68,-200C75.92,-190.9 89.86,-179.63 100.77,-170.8"/>
<polygon fill="#63b8ff" stroke="#63b8ff" points="62.74,-197.07 57.17,-206.08 67.14,-202.51 62.74,-197.07"/>
</a>
</g>
</g>
<!-- Node4 -->
<g id="Node000004" class="node">
<title>Node4</title>
<g id="a_Node000004"><a xlink:href="structarmnn_1_1_reduce_descriptor.html" target="_top" xlink:title="A ReduceDescriptor for the REDUCE operators.">
<polygon fill="white" stroke="#666666" points="311.12,-164.88 216.38,-164.88 216.38,-145.62 311.12,-145.62 311.12,-164.88"/>
<text xml:space="preserve" text-anchor="middle" x="263.75" y="-151.38" font-family="Helvetica,sans-Serif" font-size="10.00">ReduceDescriptor</text>
</a>
</g>
</g>
<!-- Node4&#45;&gt;Node2 -->
<g id="edge3_Node000002_Node000004" class="edge">
<title>Node4&#45;&gt;Node2</title>
<g id="a_edge3_Node000002_Node000004"><a xlink:title=" ">
<path fill="none" stroke="#9a32cd" stroke-dasharray="5,2" d="M253.25,-135.33C246.61,-124.94 237.13,-112.61 225.75,-104.75 215.05,-97.36 202.63,-91.63 190.11,-87.2"/>
<polygon fill="#9a32cd" stroke="#9a32cd" points="250.22,-137.07 258.34,-143.88 256.24,-133.49 250.22,-137.07"/>
</a>
</g>
<text xml:space="preserve" text-anchor="start" x="245.96" y="-109.5" font-family="Helvetica,sans-Serif" font-size="10.00" fill="grey">m_Parameters</text>
</g>
<!-- Node5 -->
<g id="Node000005" class="node">
<title>Node5</title>
<g id="a_Node000005"><a xlink:href="structarmnn_1_1_base_descriptor.html" target="_top" xlink:title="Base class for all descriptors.">
<polygon fill="white" stroke="#666666" points="305.5,-226.75 222,-226.75 222,-207.5 305.5,-207.5 305.5,-226.75"/>
<text xml:space="preserve" text-anchor="middle" x="263.75" y="-213.25" font-family="Helvetica,sans-Serif" font-size="10.00">BaseDescriptor</text>
</a>
</g>
</g>
<!-- Node5&#45;&gt;Node4 -->
<g id="edge4_Node000004_Node000005" class="edge">
<title>Node5&#45;&gt;Node4</title>
<g id="a_edge4_Node000004_Node000005"><a xlink:title=" ">
<path fill="none" stroke="#63b8ff" d="M263.75,-195.55C263.75,-185.13 263.75,-173.03 263.75,-165.04"/>
<polygon fill="#63b8ff" stroke="#63b8ff" points="260.25,-195.52 263.75,-205.52 267.25,-195.52 260.25,-195.52"/>
</a>
</g>
</g>
<!-- Node6&#45;&gt;Node2 -->
<g id="edge5_Node000002_Node000006" class="edge">
<title>Node6&#45;&gt;Node2</title>
<g id="a_edge5_Node000002_Node000006"><a xlink:title=" ">
<path fill="none" stroke="orange" stroke-dasharray="5,2" d="M118.75,-128.47C118.75,-114.78 118.75,-98.46 118.75,-86.99"/>
<polygon fill="orange" stroke="orange" points="115.25,-128.12 118.75,-138.12 122.25,-128.12 115.25,-128.12"/>
</a>
</g>
<text xml:space="preserve" text-anchor="start" x="121.75" y="-109.5" font-family="Helvetica,sans-Serif" font-size="10.00" fill="grey">&lt; ReduceDescriptor &gt;</text>
</g>
</g>
</svg>
