<?xml version="1.0" encoding="UTF-8" standalone="no"?>
<!DOCTYPE svg PUBLIC "-//W3C//DTD SVG 1.1//EN"
 "http://www.w3.org/Graphics/SVG/1.1/DTD/svg11.dtd">
<!-- Generated by graphviz version 14.0.2 (20251019.1705)
 -->
<!-- Title: InstanceNormalizationQueueDescriptor Pages: 1 -->
<svg width="317pt" height="246pt"
 viewBox="0.00 0.00 317.00 246.00" xmlns="http://www.w3.org/2000/svg" xmlns:xlink="http://www.w3.org/1999/xlink">
<g id="graph0" class="graph" transform="scale(1 1) rotate(0) translate(4 242)">
<title>InstanceNormalizationQueueDescriptor</title>
<!-- Node1 -->
<g id="Node000001" class="node">
<title>Node1</title>
<g id="a_Node000001"><a xlink:title=" ">
<polygon fill="#999999" stroke="#666666" points="159.25,-30.5 17.25,-30.5 17.25,0 159.25,0 159.25,-30.5"/>
<text xml:space="preserve" text-anchor="start" x="25.25" y="-17" font-family="Helvetica,sans-Serif" font-size="10.00">InstanceNormalizationQueue</text>
<text xml:space="preserve" text-anchor="middle" x="88.25" y="-5.75" font-family="Helvetica,sans-Serif" font-size="10.00">Descriptor</text>
</a>
</g>
</g>
<!-- Node2 -->
<g id="Node000002" class="node">
<title>Node2</title>
<g id="a_Node000002"><a xlink:href="structarmnn_1_1_queue_descriptor_with_parameters.html" target="_top" xlink:title=" ">
<polygon fill="white" stroke="#666666" points="176.5,-98 0,-98 0,-67.5 176.5,-67.5 176.5,-98"/>
<text xml:space="preserve" text-anchor="start" x="8" y="-84.5" font-family="Helvetica,sans-Serif" font-size="10.00">QueueDescriptorWithParameters</text>
<text xml:space="preserve" text-anchor="middle" x="88.25" y="-73.25" font-family="Helvetica,sans-Serif" font-size="10.00">&lt; InstanceNormalizationDescriptor &gt;</text>
</a>
</g>
</g>
<!-- Node2&#45;&gt;Node1 -->
<g id="edge1_Node000001_Node000002" class="edge">
<title>Node2&#45;&gt;Node1</title>
<g id="a_edge1_Node000001_Node000002"><a xlink:title=" ">
<path fill="none" stroke="#63b8ff" d="M88.25,-55.84C88.25,-47.3 88.25,-38.12 88.25,-30.75"/>
<polygon fill="#63b8ff" stroke="#63b8ff" points="84.75,-55.7 88.25,-65.7 91.75,-55.7 84.75,-55.7"/>
</a>
</g>
</g>
<!-- Node3 -->
<g id="Node000003" class="node">
<title>Node3</title>
<g id="a_Node000003"><a xlink:href="structarmnn_1_1_queue_descriptor.html" target="_top" xlink:title=" ">
<polygon fill="white" stroke="#666666" points="129,-238 39.5,-238 39.5,-218.75 129,-218.75 129,-238"/>
<text xml:space="preserve" text-anchor="middle" x="84.25" y="-224.5" font-family="Helvetica,sans-Serif" font-size="10.00">QueueDescriptor</text>
</a>
</g>
</g>
<!-- Node3&#45;&gt;Node2 -->
<g id="edge2_Node000002_Node000003" class="edge">
<title>Node3&#45;&gt;Node2</title>
<g id="a_edge2_Node000002_Node000003"><a xlink:title=" ">
<path fill="none" stroke="#63b8ff" d="M84.82,-207.09C85.64,-177.62 87.14,-123.71 87.85,-98.05"/>
<polygon fill="#63b8ff" stroke="#63b8ff" points="81.32,-206.78 84.54,-216.88 88.32,-206.98 81.32,-206.78"/>
</a>
</g>
</g>
<!-- Node4 -->
<g id="Node000004" class="node">
<title>Node4</title>
<g id="a_Node000004"><a xlink:href="structarmnn_1_1_queue_descriptor_with_parameters.html" target="_top" xlink:title=" ">
<polygon fill="white" stroke="#666666" points="260.25,-181.75 100.25,-181.75 100.25,-151.25 260.25,-151.25 260.25,-181.75"/>
<text xml:space="preserve" text-anchor="start" x="108.25" y="-168.25" font-family="Helvetica,sans-Serif" font-size="10.00">QueueDescriptorWithParameters</text>
<text xml:space="preserve" text-anchor="middle" x="180.25" y="-157" font-family="Helvetica,sans-Serif" font-size="10.00">&lt; LayerDescriptor &gt;</text>
</a>
</g>
</g>
<!-- Node3&#45;&gt;Node4 -->
<g id="edge4_Node000004_Node000003" class="edge">
<title>Node3&#45;&gt;Node4</title>
<g id="a_edge4_Node000004_Node000003"><a xlink:title=" ">
<path fill="none" stroke="#63b8ff" d="M108.37,-212.33C123.23,-203.06 142.21,-191.23 156.92,-182.05"/>
<polygon fill="#63b8ff" stroke="#63b8ff" points="106.75,-209.22 100.11,-217.48 110.45,-215.16 106.75,-209.22"/>
</a>
</g>
</g>
<!-- Node4&#45;&gt;Node2 -->
<g id="edge3_Node000002_Node000004" class="edge">
<title>Node4&#45;&gt;Node2</title>
<g id="a_edge3_Node000002_Node000004"><a xlink:title=" ">
<path fill="none" stroke="orange" stroke-dasharray="5,2" d="M155.36,-143.38C139.21,-129.04 118.64,-110.76 104.56,-98.24"/>
<polygon fill="orange" stroke="orange" points="152.87,-145.85 162.67,-149.88 157.52,-140.62 152.87,-145.85"/>
</a>
</g>
<text xml:space="preserve" text-anchor="start" x="145.49" y="-120.75" font-family="Helvetica,sans-Serif" font-size="10.00" fill="grey">&lt; InstanceNormalizationDescriptor &gt;</text>
</g>
</g>
</svg>
