<?xml version="1.0" encoding="UTF-8" standalone="no"?>
<!DOCTYPE svg PUBLIC "-//W3C//DTD SVG 1.1//EN"
 "http://www.w3.org/Graphics/SVG/1.1/DTD/svg11.dtd">
<!-- Generated by graphviz version 14.0.2 (20251019.1705)
 -->
<!-- Title: ClRankWorkload Pages: 1 -->
<svg width="400pt" height="296pt"
 viewBox="0.00 0.00 400.00 296.00" xmlns="http://www.w3.org/2000/svg" xmlns:xlink="http://www.w3.org/1999/xlink">
<g id="graph0" class="graph" transform="scale(1 1) rotate(0) translate(4 292)">
<title>ClRankWorkload</title>
<!-- Node1 -->
<g id="Node000001" class="node">
<title>Node1</title>
<g id="a_Node000001"><a xlink:title=" ">
<polygon fill="#999999" stroke="#666666" points="243.62,-19.25 154.12,-19.25 154.12,0 243.62,0 243.62,-19.25"/>
<text xml:space="preserve" text-anchor="middle" x="198.88" y="-5.75" font-family="Helvetica,sans-Serif" font-size="10.00">ClRankWorkload</text>
</a>
</g>
</g>
<!-- Node2 -->
<g id="Node000002" class="node">
<title>Node2</title>
<g id="a_Node000002"><a xlink:href="classarmnn_1_1_cl_base_workload.html" target="_top" xlink:title=" ">
<polygon fill="white" stroke="#666666" points="273.62,-86.75 124.12,-86.75 124.12,-56.25 273.62,-56.25 273.62,-86.75"/>
<text xml:space="preserve" text-anchor="start" x="132.12" y="-73.25" font-family="Helvetica,sans-Serif" font-size="10.00">ClBaseWorkload&lt; RankQueue</text>
<text xml:space="preserve" text-anchor="middle" x="198.88" y="-62" font-family="Helvetica,sans-Serif" font-size="10.00">Descriptor &gt;</text>
</a>
</g>
</g>
<!-- Node2&#45;&gt;Node1 -->
<g id="edge1_Node000001_Node000002" class="edge">
<title>Node2&#45;&gt;Node1</title>
<g id="a_edge1_Node000001_Node000002"><a xlink:title=" ">
<path fill="none" stroke="#63b8ff" d="M198.88,-44.77C198.88,-35.79 198.88,-26.29 198.88,-19.6"/>
<polygon fill="#63b8ff" stroke="#63b8ff" points="195.38,-44.49 198.88,-54.49 202.38,-44.49 195.38,-44.49"/>
</a>
</g>
</g>
<!-- Node3 -->
<g id="Node000003" class="node">
<title>Node3</title>
<g id="a_Node000003"><a xlink:href="classarmnn_1_1_base_workload.html" target="_top" xlink:title=" ">
<polygon fill="white" stroke="#666666" points="193.75,-159.25 0,-159.25 0,-140 193.75,-140 193.75,-159.25"/>
<text xml:space="preserve" text-anchor="middle" x="96.88" y="-145.75" font-family="Helvetica,sans-Serif" font-size="10.00">BaseWorkload&lt; RankQueueDescriptor &gt;</text>
</a>
</g>
</g>
<!-- Node3&#45;&gt;Node2 -->
<g id="edge2_Node000002_Node000003" class="edge">
<title>Node3&#45;&gt;Node2</title>
<g id="a_edge2_Node000002_Node000003"><a xlink:title=" ">
<path fill="none" stroke="#63b8ff" d="M118.13,-132.76C136.21,-119.27 161.95,-100.06 179.47,-86.98"/>
<polygon fill="#63b8ff" stroke="#63b8ff" points="116.11,-129.9 110.19,-138.69 120.3,-135.51 116.11,-129.9"/>
</a>
</g>
</g>
<!-- Node4 -->
<g id="Node000004" class="node">
<title>Node4</title>
<g id="a_Node000004"><a xlink:href="classarmnn_1_1_i_workload.html" target="_top" xlink:title="Workload interface to enqueue a layer computation.">
<polygon fill="white" stroke="#666666" points="142.62,-288 83.12,-288 83.12,-268.75 142.62,-268.75 142.62,-288"/>
<text xml:space="preserve" text-anchor="middle" x="112.88" y="-274.5" font-family="Helvetica,sans-Serif" font-size="10.00">IWorkload</text>
</a>
</g>
</g>
<!-- Node4&#45;&gt;Node3 -->
<g id="edge3_Node000003_Node000004" class="edge">
<title>Node4&#45;&gt;Node3</title>
<g id="a_edge3_Node000003_Node000004"><a xlink:title=" ">
<path fill="none" stroke="#63b8ff" d="M72.12,-268.34C52.44,-261.71 30.6,-250.47 18.88,-231.75 0.11,-201.78 46.87,-173.63 75.88,-159.72"/>
<polygon fill="#63b8ff" stroke="#63b8ff" points="71.02,-271.67 81.61,-271.22 73.05,-264.97 71.02,-271.67"/>
</a>
</g>
</g>
<!-- Node5 -->
<g id="Node000005" class="node">
<title>Node5</title>
<g id="a_Node000005"><a xlink:href="classarmnn_1_1_base_workload.html" target="_top" xlink:title=" ">
<polygon fill="white" stroke="#666666" points="198.12,-231.75 27.62,-231.75 27.62,-212.5 198.12,-212.5 198.12,-231.75"/>
<text xml:space="preserve" text-anchor="middle" x="112.88" y="-218.25" font-family="Helvetica,sans-Serif" font-size="10.00">BaseWorkload&lt; QueueDescriptor &gt;</text>
</a>
</g>
</g>
<!-- Node4&#45;&gt;Node5 -->
<g id="edge5_Node000005_Node000004" class="edge">
<title>Node4&#45;&gt;Node5</title>
<g id="a_edge5_Node000005_Node000004"><a xlink:title=" ">
<path fill="none" stroke="#63b8ff" d="M112.88,-257.19C112.88,-248.48 112.88,-238.74 112.88,-231.92"/>
<polygon fill="#63b8ff" stroke="#63b8ff" points="109.38,-256.9 112.88,-266.9 116.38,-256.9 109.38,-256.9"/>
</a>
</g>
</g>
<!-- Node7 -->
<g id="Node000007" class="node">
<title>Node7</title>
<g id="a_Node000007"><a xlink:href="classarmnn_1_1_base_workload.html" target="_top" xlink:title=" ">
<polygon fill="white" stroke="#666666" points="387.12,-231.75 216.62,-231.75 216.62,-212.5 387.12,-212.5 387.12,-231.75"/>
<text xml:space="preserve" text-anchor="middle" x="301.88" y="-218.25" font-family="Helvetica,sans-Serif" font-size="10.00">BaseWorkload&lt; QueueDescriptor &gt;</text>
</a>
</g>
</g>
<!-- Node4&#45;&gt;Node7 -->
<g id="edge8_Node000007_Node000004" class="edge">
<title>Node4&#45;&gt;Node7</title>
<g id="a_edge8_Node000007_Node000004"><a xlink:title=" ">
<path fill="none" stroke="#63b8ff" d="M153.61,-265.68C188.53,-255.66 238.15,-241.42 270.18,-232.22"/>
<polygon fill="#63b8ff" stroke="#63b8ff" points="152.92,-262.24 144.28,-268.36 154.85,-268.97 152.92,-262.24"/>
</a>
</g>
</g>
<!-- Node5&#45;&gt;Node3 -->
<g id="edge4_Node000003_Node000005" class="edge">
<title>Node5&#45;&gt;Node3</title>
<g id="a_edge4_Node000003_Node000005"><a xlink:title=" ">
<path fill="none" stroke="orange" stroke-dasharray="5,2" d="M108.32,-201.05C105.23,-187.44 101.29,-170.1 98.94,-159.7"/>
<polygon fill="orange" stroke="orange" points="104.89,-201.74 110.51,-210.72 111.71,-200.19 104.89,-201.74"/>
</a>
</g>
<text xml:space="preserve" text-anchor="start" x="109.78" y="-182" font-family="Helvetica,sans-Serif" font-size="10.00" fill="grey">&lt; RankQueueDescriptor &gt;</text>
</g>
<!-- Node6 -->
<g id="Node000006" class="node">
<title>Node6</title>
<g id="a_Node000006"><a xlink:href="classarmnn_1_1_cl_base_workload.html" target="_top" xlink:title=" ">
<polygon fill="white" stroke="#666666" points="392,-159.25 211.75,-159.25 211.75,-140 392,-140 392,-159.25"/>
<text xml:space="preserve" text-anchor="middle" x="301.88" y="-145.75" font-family="Helvetica,sans-Serif" font-size="10.00">ClBaseWorkload&lt; QueueDescriptor &gt;</text>
</a>
</g>
</g>
<!-- Node6&#45;&gt;Node2 -->
<g id="edge6_Node000002_Node000006" class="edge">
<title>Node6&#45;&gt;Node2</title>
<g id="a_edge6_Node000002_Node000006"><a xlink:title=" ">
<path fill="none" stroke="orange" stroke-dasharray="5,2" d="M280.41,-132.76C262.16,-119.27 236.16,-100.06 218.47,-86.98"/>
<polygon fill="orange" stroke="orange" points="278.32,-135.56 288.44,-138.69 282.48,-129.94 278.32,-135.56"/>
</a>
</g>
<text xml:space="preserve" text-anchor="start" x="268.62" y="-109.5" font-family="Helvetica,sans-Serif" font-size="10.00" fill="grey">&lt; RankQueueDescriptor &gt;</text>
</g>
<!-- Node7&#45;&gt;Node6 -->
<g id="edge7_Node000006_Node000007" class="edge">
<title>Node7&#45;&gt;Node6</title>
<g id="a_edge7_Node000006_Node000007"><a xlink:title=" ">
<path fill="none" stroke="#63b8ff" d="M301.88,-201.05C301.88,-187.44 301.88,-170.1 301.88,-159.7"/>
<polygon fill="#63b8ff" stroke="#63b8ff" points="298.38,-200.68 301.88,-210.68 305.38,-200.68 298.38,-200.68"/>
</a>
</g>
</g>
</g>
</svg>
