<?xml version="1.0" encoding="UTF-8" standalone="no"?>
<!DOCTYPE svg PUBLIC "-//W3C//DTD SVG 1.1//EN"
 "http://www.w3.org/Graphics/SVG/1.1/DTD/svg11.dtd">
<!-- Generated by graphviz version 14.0.2 (20251019.1705)
 -->
<!-- Title: SpaceToBatchNdQueueDescriptor Pages: 1 -->
<svg width="839pt" height="100pt"
 viewBox="0.00 0.00 839.00 100.00" xmlns="http://www.w3.org/2000/svg" xmlns:xlink="http://www.w3.org/1999/xlink">
<g id="graph0" class="graph" transform="scale(1 1) rotate(0) translate(4 96.25)">
<title>SpaceToBatchNdQueueDescriptor</title>
<!-- Node1 -->
<g id="Node000001" class="node">
<title>Node1</title>
<g id="a_Node000001"><a xlink:title=" ">
<polygon fill="#999999" stroke="#666666" points="831,-62.25 665,-62.25 665,-43 831,-43 831,-62.25"/>
<text xml:space="preserve" text-anchor="middle" x="748" y="-48.75" font-family="Helvetica,sans-Serif" font-size="10.00">SpaceToBatchNdQueueDescriptor</text>
</a>
</g>
</g>
<!-- Node2 -->
<g id="Node000002" class="node">
<title>Node2</title>
<g id="a_Node000002"><a xlink:href="structarmnn_1_1_queue_descriptor_with_parameters.html" target="_top" xlink:title=" ">
<polygon fill="white" stroke="#666666" points="628,-67.88 468,-67.88 468,-37.38 628,-37.38 628,-67.88"/>
<text xml:space="preserve" text-anchor="start" x="476" y="-54.38" font-family="Helvetica,sans-Serif" font-size="10.00">QueueDescriptorWithParameters</text>
<text xml:space="preserve" text-anchor="middle" x="548" y="-43.12" font-family="Helvetica,sans-Serif" font-size="10.00">&lt; SpaceToBatchNdDescriptor &gt;</text>
</a>
</g>
</g>
<!-- Node2&#45;&gt;Node1 -->
<g id="edge1_Node000001_Node000002" class="edge">
<title>Node2&#45;&gt;Node1</title>
<g id="a_edge1_Node000001_Node000002"><a xlink:title=" ">
<path fill="none" stroke="#63b8ff" d="M639.68,-52.62C648.01,-52.62 656.43,-52.62 664.68,-52.62"/>
<polygon fill="#63b8ff" stroke="#63b8ff" points="639.91,-49.13 629.91,-52.63 639.91,-56.13 639.91,-49.13"/>
</a>
</g>
</g>
<!-- Node3 -->
<g id="Node000003" class="node">
<title>Node3</title>
<g id="a_Node000003"><a xlink:href="structarmnn_1_1_queue_descriptor.html" target="_top" xlink:title=" ">
<polygon fill="white" stroke="#666666" points="89.5,-92.25 0,-92.25 0,-73 89.5,-73 89.5,-92.25"/>
<text xml:space="preserve" text-anchor="middle" x="44.75" y="-78.75" font-family="Helvetica,sans-Serif" font-size="10.00">QueueDescriptor</text>
</a>
</g>
</g>
<!-- Node3&#45;&gt;Node2 -->
<g id="edge2_Node000002_Node000003" class="edge">
<title>Node3&#45;&gt;Node2</title>
<g id="a_edge2_Node000002_Node000003"><a xlink:title=" ">
<path fill="none" stroke="#63b8ff" d="M101.39,-84.75C179.56,-86.97 326.18,-88.34 450,-73.62 460.61,-72.36 471.77,-70.48 482.59,-68.35"/>
<polygon fill="#63b8ff" stroke="#63b8ff" points="101.52,-81.25 91.42,-84.45 101.31,-88.25 101.52,-81.25"/>
</a>
</g>
</g>
<!-- Node6 -->
<g id="Node000006" class="node">
<title>Node6</title>
<g id="a_Node000006"><a xlink:href="structarmnn_1_1_queue_descriptor_with_parameters.html" target="_top" xlink:title=" ">
<polygon fill="white" stroke="#666666" points="286.5,-67.88 126.5,-67.88 126.5,-37.38 286.5,-37.38 286.5,-67.88"/>
<text xml:space="preserve" text-anchor="start" x="134.5" y="-54.38" font-family="Helvetica,sans-Serif" font-size="10.00">QueueDescriptorWithParameters</text>
<text xml:space="preserve" text-anchor="middle" x="206.5" y="-43.12" font-family="Helvetica,sans-Serif" font-size="10.00">&lt; LayerDescriptor &gt;</text>
</a>
</g>
</g>
<!-- Node3&#45;&gt;Node6 -->
<g id="edge6_Node000006_Node000003" class="edge">
<title>Node3&#45;&gt;Node6</title>
<g id="a_edge6_Node000006_Node000003"><a xlink:title=" ">
<path fill="none" stroke="#63b8ff" d="M100.98,-72.25C109.08,-70.73 117.55,-69.14 126.01,-67.55"/>
<polygon fill="#63b8ff" stroke="#63b8ff" points="100.5,-68.78 91.31,-74.07 101.79,-75.66 100.5,-68.78"/>
</a>
</g>
</g>
<!-- Node4 -->
<g id="Node000004" class="node">
<title>Node4</title>
<g id="a_Node000004"><a xlink:href="structarmnn_1_1_space_to_batch_nd_descriptor.html" target="_top" xlink:title="A SpaceToBatchNdDescriptor for the SpaceToBatchNdLayer.">
<polygon fill="white" stroke="#666666" points="275.25,-19.25 137.75,-19.25 137.75,0 275.25,0 275.25,-19.25"/>
<text xml:space="preserve" text-anchor="middle" x="206.5" y="-5.75" font-family="Helvetica,sans-Serif" font-size="10.00">SpaceToBatchNdDescriptor</text>
</a>
</g>
</g>
<!-- Node4&#45;&gt;Node2 -->
<g id="edge3_Node000002_Node000004" class="edge">
<title>Node4&#45;&gt;Node2</title>
<g id="a_edge3_Node000002_Node000004"><a xlink:title=" ">
<path fill="none" stroke="#9a32cd" stroke-dasharray="5,2" d="M287.17,-14.23C334.63,-17.6 395.97,-23.07 450,-31.38 459.88,-32.89 470.27,-34.82 480.42,-36.88"/>
<polygon fill="#9a32cd" stroke="#9a32cd" points="287.45,-10.74 277.23,-13.54 286.97,-17.72 287.45,-10.74"/>
</a>
</g>
<text xml:space="preserve" text-anchor="start" x="345.38" y="-36.12" font-family="Helvetica,sans-Serif" font-size="10.00" fill="grey">m_Parameters</text>
</g>
<!-- Node5 -->
<g id="Node000005" class="node">
<title>Node5</title>
<g id="a_Node000005"><a xlink:href="structarmnn_1_1_base_descriptor.html" target="_top" xlink:title="Base class for all descriptors.">
<polygon fill="white" stroke="#666666" points="86.5,-19.25 3,-19.25 3,0 86.5,0 86.5,-19.25"/>
<text xml:space="preserve" text-anchor="middle" x="44.75" y="-5.75" font-family="Helvetica,sans-Serif" font-size="10.00">BaseDescriptor</text>
</a>
</g>
</g>
<!-- Node5&#45;&gt;Node4 -->
<g id="edge4_Node000004_Node000005" class="edge">
<title>Node5&#45;&gt;Node4</title>
<g id="a_edge4_Node000004_Node000005"><a xlink:title=" ">
<path fill="none" stroke="#63b8ff" d="M98.12,-9.62C110.72,-9.62 124.35,-9.62 137.54,-9.62"/>
<polygon fill="#63b8ff" stroke="#63b8ff" points="98.4,-6.13 88.4,-9.63 98.4,-13.13 98.4,-6.13"/>
</a>
</g>
</g>
<!-- Node6&#45;&gt;Node2 -->
<g id="edge5_Node000002_Node000006" class="edge">
<title>Node6&#45;&gt;Node2</title>
<g id="a_edge5_Node000002_Node000006"><a xlink:title=" ">
<path fill="none" stroke="orange" stroke-dasharray="5,2" d="M298.08,-52.62C350.91,-52.62 416.93,-52.62 467.71,-52.62"/>
<polygon fill="orange" stroke="orange" points="298.18,-49.13 288.18,-52.63 298.18,-56.13 298.18,-49.13"/>
</a>
</g>
<text xml:space="preserve" text-anchor="start" x="307.5" y="-57.38" font-family="Helvetica,sans-Serif" font-size="10.00" fill="grey">&lt; SpaceToBatchNdDescriptor &gt;</text>
</g>
</g>
</svg>
