<?xml version="1.0" encoding="UTF-8" standalone="no"?>
<!DOCTYPE svg PUBLIC "-//W3C//DTD SVG 1.1//EN"
 "http://www.w3.org/Graphics/SVG/1.1/DTD/svg11.dtd">
<!-- Generated by graphviz version 2.43.0 (0)
 -->
<!-- Title: src/armnn/BackendSettings.hpp Pages: 1 -->
<svg width="916pt" height="263pt"
 viewBox="0.00 0.00 916.00 263.00" xmlns="http://www.w3.org/2000/svg" xmlns:xlink="http://www.w3.org/1999/xlink">
<g id="graph0" class="graph" transform="scale(1 1) rotate(0) translate(4 259)">
<title>src/armnn/BackendSettings.hpp</title>
<polygon fill="white" stroke="transparent" points="-4,4 -4,-259 912,-259 912,4 -4,4"/>
<!-- Node1 -->
<g id="node1" class="node">
<title>Node1</title>
<g id="a_node1"><a xlink:title=" ">
<polygon fill="#bfbfbf" stroke="black" points="297,-235.5 297,-254.5 467,-254.5 467,-235.5 297,-235.5"/>
<text text-anchor="middle" x="382" y="-242.5" font-family="Helvetica,sans-Serif" font-size="10.00">src/armnn/BackendSettings.hpp</text>
</a>
</g>
</g>
<!-- Node2 -->
<g id="node2" class="node">
<title>Node2</title>
<g id="a_node2"><a xlink:href="_device_spec_8hpp.html" target="_top" xlink:title=" ">
<polygon fill="white" stroke="black" points="482.5,-179.5 482.5,-198.5 577.5,-198.5 577.5,-179.5 482.5,-179.5"/>
<text text-anchor="middle" x="530" y="-186.5" font-family="Helvetica,sans-Serif" font-size="10.00">DeviceSpec.hpp</text>
</a>
</g>
</g>
<!-- Node1&#45;&gt;Node2 -->
<g id="edge1" class="edge">
<title>Node1&#45;&gt;Node2</title>
<path fill="none" stroke="midnightblue" d="M405.45,-235.44C430.13,-226.44 469.19,-212.19 496.98,-202.05"/>
<polygon fill="midnightblue" stroke="midnightblue" points="498.46,-205.23 506.66,-198.52 496.06,-198.66 498.46,-205.23"/>
</g>
<!-- Node8 -->
<g id="node8" class="node">
<title>Node8</title>
<g id="a_node8"><a xlink:href="_backend_id_8hpp.html" target="_top" xlink:title=" ">
<polygon fill="white" stroke="black" points="410,-56.5 410,-75.5 498,-75.5 498,-56.5 410,-56.5"/>
<text text-anchor="middle" x="454" y="-63.5" font-family="Helvetica,sans-Serif" font-size="10.00">BackendId.hpp</text>
</a>
</g>
</g>
<!-- Node1&#45;&gt;Node8 -->
<g id="edge21" class="edge">
<title>Node1&#45;&gt;Node8</title>
<path fill="none" stroke="midnightblue" d="M385.47,-235.46C396.56,-208.19 431.31,-122.78 446.62,-85.13"/>
<polygon fill="midnightblue" stroke="midnightblue" points="449.87,-86.45 450.39,-75.87 443.38,-83.81 449.87,-86.45"/>
</g>
<!-- Node14 -->
<g id="node14" class="node">
<title>Node14</title>
<g id="a_node14"><a xlink:title=" ">
<polygon fill="white" stroke="#bfbfbf" points="366.5,-0.5 366.5,-19.5 413.5,-19.5 413.5,-0.5 366.5,-0.5"/>
<text text-anchor="middle" x="390" y="-7.5" font-family="Helvetica,sans-Serif" font-size="10.00">vector</text>
</a>
</g>
</g>
<!-- Node1&#45;&gt;Node14 -->
<g id="edge28" class="edge">
<title>Node1&#45;&gt;Node14</title>
<path fill="none" stroke="midnightblue" d="M382.29,-235.43C383.45,-201.75 387.7,-77.99 389.34,-30.1"/>
<polygon fill="midnightblue" stroke="midnightblue" points="392.85,-30.01 389.69,-19.9 385.85,-29.77 392.85,-30.01"/>
</g>
<!-- Node19 -->
<g id="node19" class="node">
<title>Node19</title>
<g id="a_node19"><a xlink:href="_polymorphic_downcast_8hpp.html" target="_top" xlink:title=" ">
<polygon fill="white" stroke="black" points="160.5,-112.5 160.5,-142.5 303.5,-142.5 303.5,-112.5 160.5,-112.5"/>
<text text-anchor="start" x="168.5" y="-130.5" font-family="Helvetica,sans-Serif" font-size="10.00">armnn/utility/Polymorphic</text>
<text text-anchor="middle" x="232" y="-119.5" font-family="Helvetica,sans-Serif" font-size="10.00">Downcast.hpp</text>
</a>
</g>
</g>
<!-- Node1&#45;&gt;Node19 -->
<g id="edge22" class="edge">
<title>Node1&#45;&gt;Node19</title>
<path fill="none" stroke="midnightblue" d="M370.73,-235.32C347.08,-217.11 291.77,-174.52 258.57,-148.96"/>
<polygon fill="midnightblue" stroke="midnightblue" points="260.3,-145.87 250.24,-142.55 256.03,-151.42 260.3,-145.87"/>
</g>
<!-- Node3 -->
<g id="node3" class="node">
<title>Node3</title>
<g id="a_node3"><a xlink:href="_types_8hpp.html" target="_top" xlink:title=" ">
<polygon fill="white" stroke="black" points="527,-118 527,-137 627,-137 627,-118 527,-118"/>
<text text-anchor="middle" x="577" y="-125" font-family="Helvetica,sans-Serif" font-size="10.00">armnn/Types.hpp</text>
</a>
</g>
</g>
<!-- Node2&#45;&gt;Node3 -->
<g id="edge2" class="edge">
<title>Node2&#45;&gt;Node3</title>
<path fill="none" stroke="midnightblue" d="M536.73,-179.48C543.78,-170.55 555.03,-156.31 563.85,-145.14"/>
<polygon fill="midnightblue" stroke="midnightblue" points="566.83,-147.03 570.28,-137.01 561.33,-142.69 566.83,-147.03"/>
</g>
<!-- Node11 -->
<g id="node11" class="node">
<title>Node11</title>
<g id="a_node11"><a xlink:title=" ">
<polygon fill="white" stroke="#bfbfbf" points="755,-0.5 755,-19.5 787,-19.5 787,-0.5 755,-0.5"/>
<text text-anchor="middle" x="771" y="-7.5" font-family="Helvetica,sans-Serif" font-size="10.00">set</text>
</a>
</g>
</g>
<!-- Node2&#45;&gt;Node11 -->
<g id="edge19" class="edge">
<title>Node2&#45;&gt;Node11</title>
<path fill="none" stroke="midnightblue" d="M577.67,-180.77C668.97,-165.85 862.92,-128.58 902,-76 931.02,-36.95 843.19,-19.94 797.18,-13.86"/>
<polygon fill="midnightblue" stroke="midnightblue" points="797.36,-10.35 787.01,-12.6 796.5,-17.3 797.36,-10.35"/>
</g>
<!-- Node2&#45;&gt;Node14 -->
<g id="edge20" class="edge">
<title>Node2&#45;&gt;Node14</title>
<path fill="none" stroke="midnightblue" d="M514.2,-179.3C486.29,-163.03 428.59,-125.13 401,-76 393.03,-61.81 390.52,-43.33 389.86,-29.71"/>
<polygon fill="midnightblue" stroke="midnightblue" points="393.36,-29.53 389.67,-19.6 386.36,-29.67 393.36,-29.53"/>
</g>
<!-- Node4 -->
<g id="node4" class="node">
<title>Node4</title>
<g id="a_node4"><a xlink:title=" ">
<polygon fill="white" stroke="#bfbfbf" points="767,-56.5 767,-75.5 809,-75.5 809,-56.5 767,-56.5"/>
<text text-anchor="middle" x="788" y="-63.5" font-family="Helvetica,sans-Serif" font-size="10.00">array</text>
</a>
</g>
</g>
<!-- Node3&#45;&gt;Node4 -->
<g id="edge3" class="edge">
<title>Node3&#45;&gt;Node4</title>
<path fill="none" stroke="midnightblue" d="M608.44,-117.93C642.68,-108.55 699.29,-92.91 757.06,-76.24"/>
<polygon fill="midnightblue" stroke="midnightblue" points="758.08,-79.58 766.71,-73.44 756.13,-72.86 758.08,-79.58"/>
</g>
<!-- Node5 -->
<g id="node5" class="node">
<title>Node5</title>
<g id="a_node5"><a xlink:title=" ">
<polygon fill="white" stroke="#bfbfbf" points="827.5,-56.5 827.5,-75.5 892.5,-75.5 892.5,-56.5 827.5,-56.5"/>
<text text-anchor="middle" x="860" y="-63.5" font-family="Helvetica,sans-Serif" font-size="10.00">functional</text>
</a>
</g>
</g>
<!-- Node3&#45;&gt;Node5 -->
<g id="edge4" class="edge">
<title>Node3&#45;&gt;Node5</title>
<path fill="none" stroke="midnightblue" d="M617.95,-117.98C663.94,-108.39 741.09,-92.28 817.63,-76.07"/>
<polygon fill="midnightblue" stroke="midnightblue" points="818.39,-79.49 827.44,-73.99 816.94,-72.64 818.39,-79.49"/>
</g>
<!-- Node6 -->
<g id="node6" class="node">
<title>Node6</title>
<g id="a_node6"><a xlink:title=" ">
<polygon fill="white" stroke="#bfbfbf" points="515.5,-56.5 515.5,-75.5 568.5,-75.5 568.5,-56.5 515.5,-56.5"/>
<text text-anchor="middle" x="542" y="-63.5" font-family="Helvetica,sans-Serif" font-size="10.00">stdint.h</text>
</a>
</g>
</g>
<!-- Node3&#45;&gt;Node6 -->
<g id="edge5" class="edge">
<title>Node3&#45;&gt;Node6</title>
<path fill="none" stroke="midnightblue" d="M571.99,-117.98C566.84,-109.23 558.69,-95.37 552.18,-84.31"/>
<polygon fill="midnightblue" stroke="midnightblue" points="555.09,-82.35 547.01,-75.51 549.06,-85.9 555.09,-82.35"/>
</g>
<!-- Node7 -->
<g id="node7" class="node">
<title>Node7</title>
<g id="a_node7"><a xlink:title=" ">
<polygon fill="white" stroke="#bfbfbf" points="587,-56.5 587,-75.5 637,-75.5 637,-56.5 587,-56.5"/>
<text text-anchor="middle" x="612" y="-63.5" font-family="Helvetica,sans-Serif" font-size="10.00">chrono</text>
</a>
</g>
</g>
<!-- Node3&#45;&gt;Node7 -->
<g id="edge6" class="edge">
<title>Node3&#45;&gt;Node7</title>
<path fill="none" stroke="midnightblue" d="M582.01,-117.98C587.16,-109.23 595.31,-95.37 601.82,-84.31"/>
<polygon fill="midnightblue" stroke="midnightblue" points="604.94,-85.9 606.99,-75.51 598.91,-82.35 604.94,-85.9"/>
</g>
<!-- Node3&#45;&gt;Node8 -->
<g id="edge7" class="edge">
<title>Node3&#45;&gt;Node8</title>
<path fill="none" stroke="midnightblue" d="M559.38,-117.98C538.83,-108.03 504.64,-91.49 480.79,-79.96"/>
<polygon fill="midnightblue" stroke="midnightblue" points="482.12,-76.71 471.59,-75.51 479.07,-83.01 482.12,-76.71"/>
</g>
<!-- Node15 -->
<g id="node15" class="node">
<title>Node15</title>
<g id="a_node15"><a xlink:href="_exceptions_8hpp.html" target="_top" xlink:title=" ">
<polygon fill="white" stroke="black" points="186.5,-56.5 186.5,-75.5 277.5,-75.5 277.5,-56.5 186.5,-56.5"/>
<text text-anchor="middle" x="232" y="-63.5" font-family="Helvetica,sans-Serif" font-size="10.00">Exceptions.hpp</text>
</a>
</g>
</g>
<!-- Node3&#45;&gt;Node15 -->
<g id="edge14" class="edge">
<title>Node3&#45;&gt;Node15</title>
<path fill="none" stroke="midnightblue" d="M527.57,-117.98C464.04,-107.02 354.03,-88.05 287.63,-76.59"/>
<polygon fill="midnightblue" stroke="midnightblue" points="288.21,-73.14 277.76,-74.89 287.02,-80.04 288.21,-73.14"/>
</g>
<!-- Node18 -->
<g id="node18" class="node">
<title>Node18</title>
<g id="a_node18"><a xlink:href="_deprecated_8hpp.html" target="_top" xlink:title=" ">
<polygon fill="white" stroke="black" points="655,-56.5 655,-75.5 749,-75.5 749,-56.5 655,-56.5"/>
<text text-anchor="middle" x="702" y="-63.5" font-family="Helvetica,sans-Serif" font-size="10.00">Deprecated.hpp</text>
</a>
</g>
</g>
<!-- Node3&#45;&gt;Node18 -->
<g id="edge18" class="edge">
<title>Node3&#45;&gt;Node18</title>
<path fill="none" stroke="midnightblue" d="M594.91,-117.98C615.89,-107.99 650.85,-91.35 675.09,-79.81"/>
<polygon fill="midnightblue" stroke="midnightblue" points="676.6,-82.97 684.12,-75.51 673.59,-76.65 676.6,-82.97"/>
</g>
<!-- Node9 -->
<g id="node9" class="node">
<title>Node9</title>
<g id="a_node9"><a xlink:title=" ">
<polygon fill="white" stroke="#bfbfbf" points="290,-0.5 290,-19.5 348,-19.5 348,-0.5 290,-0.5"/>
<text text-anchor="middle" x="319" y="-7.5" font-family="Helvetica,sans-Serif" font-size="10.00">memory</text>
</a>
</g>
</g>
<!-- Node8&#45;&gt;Node9 -->
<g id="edge8" class="edge">
<title>Node8&#45;&gt;Node9</title>
<path fill="none" stroke="midnightblue" d="M432.61,-56.44C410.29,-47.52 375.1,-33.44 349.79,-23.32"/>
<polygon fill="midnightblue" stroke="midnightblue" points="350.88,-19.98 340.29,-19.52 348.28,-26.48 350.88,-19.98"/>
</g>
<!-- Node10 -->
<g id="node10" class="node">
<title>Node10</title>
<g id="a_node10"><a xlink:title=" ">
<polygon fill="white" stroke="#bfbfbf" points="536.5,-0.5 536.5,-19.5 593.5,-19.5 593.5,-0.5 536.5,-0.5"/>
<text text-anchor="middle" x="565" y="-7.5" font-family="Helvetica,sans-Serif" font-size="10.00">ostream</text>
</a>
</g>
</g>
<!-- Node8&#45;&gt;Node10 -->
<g id="edge9" class="edge">
<title>Node8&#45;&gt;Node10</title>
<path fill="none" stroke="midnightblue" d="M471.83,-56.32C489.72,-47.62 517.48,-34.12 538.05,-24.11"/>
<polygon fill="midnightblue" stroke="midnightblue" points="539.75,-27.18 547.21,-19.65 536.69,-20.88 539.75,-27.18"/>
</g>
<!-- Node8&#45;&gt;Node11 -->
<g id="edge10" class="edge">
<title>Node8&#45;&gt;Node11</title>
<path fill="none" stroke="midnightblue" d="M498.08,-57.49C565.08,-46.08 690.51,-24.71 744.82,-15.46"/>
<polygon fill="midnightblue" stroke="midnightblue" points="745.72,-18.86 754.99,-13.73 744.54,-11.96 745.72,-18.86"/>
</g>
<!-- Node12 -->
<g id="node12" class="node">
<title>Node12</title>
<g id="a_node12"><a xlink:title=" ">
<polygon fill="white" stroke="#bfbfbf" points="228,-0.5 228,-19.5 272,-19.5 272,-0.5 228,-0.5"/>
<text text-anchor="middle" x="250" y="-7.5" font-family="Helvetica,sans-Serif" font-size="10.00">string</text>
</a>
</g>
</g>
<!-- Node8&#45;&gt;Node12 -->
<g id="edge11" class="edge">
<title>Node8&#45;&gt;Node12</title>
<path fill="none" stroke="midnightblue" d="M420.11,-56.48C387.16,-48.14 335.45,-34.87 281.98,-20.22"/>
<polygon fill="midnightblue" stroke="midnightblue" points="282.9,-16.84 272.33,-17.56 281.04,-23.59 282.9,-16.84"/>
</g>
<!-- Node13 -->
<g id="node13" class="node">
<title>Node13</title>
<g id="a_node13"><a xlink:title=" ">
<polygon fill="white" stroke="#bfbfbf" points="432,-0.5 432,-19.5 518,-19.5 518,-0.5 432,-0.5"/>
<text text-anchor="middle" x="475" y="-7.5" font-family="Helvetica,sans-Serif" font-size="10.00">unordered_set</text>
</a>
</g>
</g>
<!-- Node8&#45;&gt;Node13 -->
<g id="edge12" class="edge">
<title>Node8&#45;&gt;Node13</title>
<path fill="none" stroke="midnightblue" d="M457.47,-56.08C460.31,-48.77 464.43,-38.18 467.96,-29.1"/>
<polygon fill="midnightblue" stroke="midnightblue" points="471.23,-30.34 471.6,-19.75 464.71,-27.8 471.23,-30.34"/>
</g>
<!-- Node8&#45;&gt;Node14 -->
<g id="edge13" class="edge">
<title>Node8&#45;&gt;Node14</title>
<path fill="none" stroke="midnightblue" d="M443.72,-56.32C434.16,-48.26 419.72,-36.08 408.22,-26.37"/>
<polygon fill="midnightblue" stroke="midnightblue" points="410.37,-23.61 400.47,-19.83 405.86,-28.96 410.37,-23.61"/>
</g>
<!-- Node15&#45;&gt;Node12 -->
<g id="edge17" class="edge">
<title>Node15&#45;&gt;Node12</title>
<path fill="none" stroke="midnightblue" d="M234.97,-56.08C237.38,-48.85 240.86,-38.41 243.87,-29.4"/>
<polygon fill="midnightblue" stroke="midnightblue" points="247.24,-30.34 247.08,-19.75 240.6,-28.13 247.24,-30.34"/>
</g>
<!-- Node16 -->
<g id="node16" class="node">
<title>Node16</title>
<g id="a_node16"><a xlink:title=" ">
<polygon fill="white" stroke="#bfbfbf" points="154,-0.5 154,-19.5 210,-19.5 210,-0.5 154,-0.5"/>
<text text-anchor="middle" x="182" y="-7.5" font-family="Helvetica,sans-Serif" font-size="10.00">sstream</text>
</a>
</g>
</g>
<!-- Node15&#45;&gt;Node16 -->
<g id="edge15" class="edge">
<title>Node15&#45;&gt;Node16</title>
<path fill="none" stroke="midnightblue" d="M223.74,-56.08C216.54,-48.3 205.89,-36.8 197.15,-27.37"/>
<polygon fill="midnightblue" stroke="midnightblue" points="199.47,-24.71 190.1,-19.75 194.33,-29.47 199.47,-24.71"/>
</g>
<!-- Node17 -->
<g id="node17" class="node">
<title>Node17</title>
<g id="a_node17"><a xlink:title=" ">
<polygon fill="white" stroke="#bfbfbf" points="70.5,-0.5 70.5,-19.5 135.5,-19.5 135.5,-0.5 70.5,-0.5"/>
<text text-anchor="middle" x="103" y="-7.5" font-family="Helvetica,sans-Serif" font-size="10.00">stdexcept</text>
</a>
</g>
</g>
<!-- Node15&#45;&gt;Node17 -->
<g id="edge16" class="edge">
<title>Node15&#45;&gt;Node17</title>
<path fill="none" stroke="midnightblue" d="M211.56,-56.44C190.33,-47.56 156.9,-33.56 132.75,-23.45"/>
<polygon fill="midnightblue" stroke="midnightblue" points="133.92,-20.15 123.34,-19.52 131.22,-26.61 133.92,-20.15"/>
</g>
<!-- Node19&#45;&gt;Node9 -->
<g id="edge26" class="edge">
<title>Node19&#45;&gt;Node9</title>
<path fill="none" stroke="midnightblue" d="M250.06,-112.39C261.36,-102.94 275.67,-89.75 286,-76 296.92,-61.47 305.97,-42.79 311.82,-29.18"/>
<polygon fill="midnightblue" stroke="midnightblue" points="315.22,-30.12 315.79,-19.54 308.74,-27.45 315.22,-30.12"/>
</g>
<!-- Node19&#45;&gt;Node15 -->
<g id="edge25" class="edge">
<title>Node19&#45;&gt;Node15</title>
<path fill="none" stroke="midnightblue" d="M232,-112.4C232,-104.47 232,-94.46 232,-85.86"/>
<polygon fill="midnightblue" stroke="midnightblue" points="235.5,-85.66 232,-75.66 228.5,-85.66 235.5,-85.66"/>
</g>
<!-- Node20 -->
<g id="node20" class="node">
<title>Node20</title>
<g id="a_node20"><a xlink:href="_assert_8hpp.html" target="_top" xlink:title=" ">
<polygon fill="white" stroke="black" points="6,-56.5 6,-75.5 74,-75.5 74,-56.5 6,-56.5"/>
<text text-anchor="middle" x="40" y="-63.5" font-family="Helvetica,sans-Serif" font-size="10.00">Assert.hpp</text>
</a>
</g>
</g>
<!-- Node19&#45;&gt;Node20 -->
<g id="edge23" class="edge">
<title>Node19&#45;&gt;Node20</title>
<path fill="none" stroke="midnightblue" d="M186.5,-112.4C153.18,-102.07 108.51,-88.23 77.29,-78.56"/>
<polygon fill="midnightblue" stroke="midnightblue" points="78.25,-75.19 67.66,-75.57 76.17,-81.87 78.25,-75.19"/>
</g>
<!-- Node22 -->
<g id="node22" class="node">
<title>Node22</title>
<g id="a_node22"><a xlink:title=" ">
<polygon fill="white" stroke="#bfbfbf" points="99.5,-56.5 99.5,-75.5 168.5,-75.5 168.5,-56.5 99.5,-56.5"/>
<text text-anchor="middle" x="134" y="-63.5" font-family="Helvetica,sans-Serif" font-size="10.00">type_traits</text>
</a>
</g>
</g>
<!-- Node19&#45;&gt;Node22 -->
<g id="edge27" class="edge">
<title>Node19&#45;&gt;Node22</title>
<path fill="none" stroke="midnightblue" d="M208.78,-112.4C193.21,-102.95 172.8,-90.56 157.24,-81.11"/>
<polygon fill="midnightblue" stroke="midnightblue" points="158.62,-77.86 148.26,-75.66 154.99,-83.84 158.62,-77.86"/>
</g>
<!-- Node21 -->
<g id="node21" class="node">
<title>Node21</title>
<g id="a_node21"><a xlink:title=" ">
<polygon fill="white" stroke="#bfbfbf" points="0,-0.5 0,-19.5 52,-19.5 52,-0.5 0,-0.5"/>
<text text-anchor="middle" x="26" y="-7.5" font-family="Helvetica,sans-Serif" font-size="10.00">cassert</text>
</a>
</g>
</g>
<!-- Node20&#45;&gt;Node21 -->
<g id="edge24" class="edge">
<title>Node20&#45;&gt;Node21</title>
<path fill="none" stroke="midnightblue" d="M37.69,-56.08C35.83,-48.93 33.16,-38.64 30.85,-29.69"/>
<polygon fill="midnightblue" stroke="midnightblue" points="34.17,-28.55 28.27,-19.75 27.39,-30.31 34.17,-28.55"/>
</g>
</g>
</svg>
