<?xml version="1.0" encoding="UTF-8" standalone="no"?>
<!DOCTYPE svg PUBLIC "-//W3C//DTD SVG 1.1//EN"
 "http://www.w3.org/Graphics/SVG/1.1/DTD/svg11.dtd">
<!-- Generated by graphviz version 2.43.0 (0)
 -->
<!-- Title: src/backends/reference/workloads/BatchToSpaceNd.cpp Pages: 1 -->
<svg width="1586pt" height="554pt"
 viewBox="0.00 0.00 1586.00 554.00" xmlns="http://www.w3.org/2000/svg" xmlns:xlink="http://www.w3.org/1999/xlink">
<g id="graph0" class="graph" transform="scale(1 1) rotate(0) translate(4 550)">
<title>src/backends/reference/workloads/BatchToSpaceNd.cpp</title>
<polygon fill="white" stroke="transparent" points="-4,4 -4,-550 1582,-550 1582,4 -4,4"/>
<!-- Node1 -->
<g id="node1" class="node">
<title>Node1</title>
<g id="a_node1"><a xlink:title=" ">
<polygon fill="#bfbfbf" stroke="black" points="610,-515.5 610,-545.5 784,-545.5 784,-515.5 610,-515.5"/>
<text text-anchor="start" x="618" y="-533.5" font-family="Helvetica,sans-Serif" font-size="10.00">src/backends/reference</text>
<text text-anchor="middle" x="697" y="-522.5" font-family="Helvetica,sans-Serif" font-size="10.00">/workloads/BatchToSpaceNd.cpp</text>
</a>
</g>
</g>
<!-- Node2 -->
<g id="node2" class="node">
<title>Node2</title>
<g id="a_node2"><a xlink:href="_batch_to_space_nd_8hpp.html" target="_top" xlink:title=" ">
<polygon fill="white" stroke="black" points="593.5,-459.5 593.5,-478.5 712.5,-478.5 712.5,-459.5 593.5,-459.5"/>
<text text-anchor="middle" x="653" y="-466.5" font-family="Helvetica,sans-Serif" font-size="10.00">BatchToSpaceNd.hpp</text>
</a>
</g>
</g>
<!-- Node1&#45;&gt;Node2 -->
<g id="edge1" class="edge">
<title>Node1&#45;&gt;Node2</title>
<path fill="none" stroke="midnightblue" d="M686.57,-515.4C680.24,-506.84 672.13,-495.87 665.47,-486.86"/>
<polygon fill="midnightblue" stroke="midnightblue" points="668.16,-484.62 659.4,-478.66 662.53,-488.78 668.16,-484.62"/>
</g>
<!-- Node46 -->
<g id="node46" class="node">
<title>Node46</title>
<g id="a_node46"><a xlink:href="_data_layout_indexed_8hpp.html" target="_top" xlink:title=" ">
<polygon fill="white" stroke="black" points="720.5,-286 720.5,-305 909.5,-305 909.5,-286 720.5,-286"/>
<text text-anchor="middle" x="815" y="-293" font-family="Helvetica,sans-Serif" font-size="10.00">armnnUtils/DataLayoutIndexed.hpp</text>
</a>
</g>
</g>
<!-- Node1&#45;&gt;Node46 -->
<g id="edge85" class="edge">
<title>Node1&#45;&gt;Node46</title>
<path fill="none" stroke="midnightblue" d="M704.2,-515.28C724.72,-474.76 783.44,-358.81 806.01,-314.25"/>
<polygon fill="midnightblue" stroke="midnightblue" points="809.2,-315.7 810.59,-305.2 802.95,-312.54 809.2,-315.7"/>
</g>
<!-- Node3 -->
<g id="node3" class="node">
<title>Node3</title>
<g id="a_node3"><a xlink:href="_base_iterator_8hpp.html" target="_top" xlink:title=" ">
<polygon fill="white" stroke="black" points="506.5,-347.5 506.5,-366.5 603.5,-366.5 603.5,-347.5 506.5,-347.5"/>
<text text-anchor="middle" x="555" y="-354.5" font-family="Helvetica,sans-Serif" font-size="10.00">BaseIterator.hpp</text>
</a>
</g>
</g>
<!-- Node2&#45;&gt;Node3 -->
<g id="edge2" class="edge">
<title>Node2&#45;&gt;Node3</title>
<path fill="none" stroke="midnightblue" d="M652.52,-459.5C651.36,-446.13 647.41,-419.97 634,-403 622.57,-388.54 605.14,-377.91 589.55,-370.62"/>
<polygon fill="midnightblue" stroke="midnightblue" points="590.71,-367.31 580.15,-366.51 587.91,-373.73 590.71,-367.31"/>
</g>
<!-- Node40 -->
<g id="node40" class="node">
<title>Node40</title>
<g id="a_node40"><a xlink:href="_decoders_8hpp.html" target="_top" xlink:title=" ">
<polygon fill="white" stroke="black" points="441.5,-403.5 441.5,-422.5 524.5,-422.5 524.5,-403.5 441.5,-403.5"/>
<text text-anchor="middle" x="483" y="-410.5" font-family="Helvetica,sans-Serif" font-size="10.00">Decoders.hpp</text>
</a>
</g>
</g>
<!-- Node2&#45;&gt;Node40 -->
<g id="edge66" class="edge">
<title>Node2&#45;&gt;Node40</title>
<path fill="none" stroke="midnightblue" d="M626.06,-459.44C597.34,-450.32 551.67,-435.81 519.68,-425.65"/>
<polygon fill="midnightblue" stroke="midnightblue" points="520.4,-422.21 509.81,-422.52 518.28,-428.88 520.4,-422.21"/>
</g>
<!-- Node41 -->
<g id="node41" class="node">
<title>Node41</title>
<g id="a_node41"><a xlink:href="_encoders_8hpp.html" target="_top" xlink:title=" ">
<polygon fill="white" stroke="black" points="543,-403.5 543,-422.5 625,-422.5 625,-403.5 543,-403.5"/>
<text text-anchor="middle" x="584" y="-410.5" font-family="Helvetica,sans-Serif" font-size="10.00">Encoders.hpp</text>
</a>
</g>
</g>
<!-- Node2&#45;&gt;Node41 -->
<g id="edge71" class="edge">
<title>Node2&#45;&gt;Node41</title>
<path fill="none" stroke="midnightblue" d="M641.91,-459.32C631.51,-451.18 615.74,-438.84 603.28,-429.09"/>
<polygon fill="midnightblue" stroke="midnightblue" points="605.32,-426.24 595.29,-422.83 601.01,-431.75 605.32,-426.24"/>
</g>
<!-- Node42 -->
<g id="node42" class="node">
<title>Node42</title>
<g id="a_node42"><a xlink:href="_descriptors_8hpp.html" target="_top" xlink:title=" ">
<polygon fill="white" stroke="black" points="1147,-224.5 1147,-243.5 1275,-243.5 1275,-224.5 1147,-224.5"/>
<text text-anchor="middle" x="1211" y="-231.5" font-family="Helvetica,sans-Serif" font-size="10.00">armnn/Descriptors.hpp</text>
</a>
</g>
</g>
<!-- Node2&#45;&gt;Node42 -->
<g id="edge75" class="edge">
<title>Node2&#45;&gt;Node42</title>
<path fill="none" stroke="midnightblue" d="M688.02,-459.44C765.7,-439.69 957.19,-386.74 1104,-311 1137.66,-293.63 1172.73,-266.77 1193.18,-250.07"/>
<polygon fill="midnightblue" stroke="midnightblue" points="1195.53,-252.67 1201,-243.59 1191.07,-247.27 1195.53,-252.67"/>
</g>
<!-- Node4 -->
<g id="node4" class="node">
<title>Node4</title>
<g id="a_node4"><a xlink:href="_types_utils_8hpp.html" target="_top" xlink:title=" ">
<polygon fill="white" stroke="black" points="682,-224.5 682,-243.5 804,-243.5 804,-224.5 682,-224.5"/>
<text text-anchor="middle" x="743" y="-231.5" font-family="Helvetica,sans-Serif" font-size="10.00">armnn/TypesUtils.hpp</text>
</a>
</g>
</g>
<!-- Node3&#45;&gt;Node4 -->
<g id="edge3" class="edge">
<title>Node3&#45;&gt;Node4</title>
<path fill="none" stroke="midnightblue" d="M585.92,-347.5C609.62,-340.11 642.48,-327.92 668,-311 693,-294.43 716.36,-268.44 730.16,-251.57"/>
<polygon fill="midnightblue" stroke="midnightblue" points="732.96,-253.67 736.47,-243.67 727.49,-249.3 732.96,-253.67"/>
</g>
<!-- Node28 -->
<g id="node28" class="node">
<title>Node28</title>
<g id="a_node28"><a xlink:href="_assert_8hpp.html" target="_top" xlink:title=" ">
<polygon fill="white" stroke="black" points="126,-224.5 126,-243.5 260,-243.5 260,-224.5 126,-224.5"/>
<text text-anchor="middle" x="193" y="-231.5" font-family="Helvetica,sans-Serif" font-size="10.00">armnn/utility/Assert.hpp</text>
</a>
</g>
</g>
<!-- Node3&#45;&gt;Node28 -->
<g id="edge40" class="edge">
<title>Node3&#45;&gt;Node28</title>
<path fill="none" stroke="midnightblue" d="M506.27,-352.6C433.75,-346.88 301.49,-333.66 260,-311 234.99,-297.34 214.8,-270.54 203.35,-252.69"/>
<polygon fill="midnightblue" stroke="midnightblue" points="206.13,-250.53 197.91,-243.84 200.16,-254.19 206.13,-250.53"/>
</g>
<!-- Node30 -->
<g id="node30" class="node">
<title>Node30</title>
<g id="a_node30"><a xlink:href="_ignore_unused_8hpp.html" target="_top" xlink:title=" ">
<polygon fill="white" stroke="black" points="454.5,-286 454.5,-305 625.5,-305 625.5,-286 454.5,-286"/>
<text text-anchor="middle" x="540" y="-293" font-family="Helvetica,sans-Serif" font-size="10.00">armnn/utility/IgnoreUnused.hpp</text>
</a>
</g>
</g>
<!-- Node3&#45;&gt;Node30 -->
<g id="edge42" class="edge">
<title>Node3&#45;&gt;Node30</title>
<path fill="none" stroke="midnightblue" d="M552.85,-347.48C550.71,-338.99 547.36,-325.7 544.62,-314.82"/>
<polygon fill="midnightblue" stroke="midnightblue" points="547.98,-313.85 542.15,-305.01 541.2,-315.56 547.98,-313.85"/>
</g>
<!-- Node31 -->
<g id="node31" class="node">
<title>Node31</title>
<g id="a_node31"><a xlink:href="_numeric_cast_8hpp.html" target="_top" xlink:title=" ">
<polygon fill="white" stroke="black" points="269.5,-286 269.5,-305 436.5,-305 436.5,-286 269.5,-286"/>
<text text-anchor="middle" x="353" y="-293" font-family="Helvetica,sans-Serif" font-size="10.00">armnn/utility/NumericCast.hpp</text>
</a>
</g>
</g>
<!-- Node3&#45;&gt;Node31 -->
<g id="edge43" class="edge">
<title>Node3&#45;&gt;Node31</title>
<path fill="none" stroke="midnightblue" d="M526.06,-347.48C490.73,-337.07 430.87,-319.44 391.64,-307.88"/>
<polygon fill="midnightblue" stroke="midnightblue" points="392.47,-304.48 381.89,-305.01 390.49,-311.19 392.47,-304.48"/>
</g>
<!-- Node33 -->
<g id="node33" class="node">
<title>Node33</title>
<g id="a_node33"><a xlink:href="_floating_point_converter_8hpp.html" target="_top" xlink:title=" ">
<polygon fill="white" stroke="black" points="0,-280.5 0,-310.5 138,-310.5 138,-280.5 0,-280.5"/>
<text text-anchor="start" x="8" y="-298.5" font-family="Helvetica,sans-Serif" font-size="10.00">armnnUtils/FloatingPoint</text>
<text text-anchor="middle" x="69" y="-287.5" font-family="Helvetica,sans-Serif" font-size="10.00">Converter.hpp</text>
</a>
</g>
</g>
<!-- Node3&#45;&gt;Node33 -->
<g id="edge47" class="edge">
<title>Node3&#45;&gt;Node33</title>
<path fill="none" stroke="midnightblue" d="M506.18,-350.02C422.28,-339.75 250.02,-318.66 148.58,-306.24"/>
<polygon fill="midnightblue" stroke="midnightblue" points="148.74,-302.74 138.39,-304.99 147.89,-309.68 148.74,-302.74"/>
</g>
<!-- Node35 -->
<g id="node35" class="node">
<title>Node35</title>
<g id="a_node35"><a xlink:href="_tensor_utils_8hpp.html" target="_top" xlink:title=" ">
<polygon fill="white" stroke="black" points="927.5,-286 927.5,-305 1076.5,-305 1076.5,-286 927.5,-286"/>
<text text-anchor="middle" x="1002" y="-293" font-family="Helvetica,sans-Serif" font-size="10.00">armnnUtils/TensorUtils.hpp</text>
</a>
</g>
</g>
<!-- Node3&#45;&gt;Node35 -->
<g id="edge49" class="edge">
<title>Node3&#45;&gt;Node35</title>
<path fill="none" stroke="midnightblue" d="M603.68,-350.76C673.59,-343.07 806.42,-327.78 919,-311 927.62,-309.72 936.72,-308.24 945.62,-306.74"/>
<polygon fill="midnightblue" stroke="midnightblue" points="946.27,-310.18 955.53,-305.04 945.09,-303.28 946.27,-310.18"/>
</g>
<!-- Node36 -->
<g id="node36" class="node">
<title>Node36</title>
<g id="a_node36"><a xlink:href="_resolve_type_8hpp.html" target="_top" xlink:title=" ">
<polygon fill="white" stroke="black" points="473.5,-168.5 473.5,-187.5 572.5,-187.5 572.5,-168.5 473.5,-168.5"/>
<text text-anchor="middle" x="523" y="-175.5" font-family="Helvetica,sans-Serif" font-size="10.00">ResolveType.hpp</text>
</a>
</g>
</g>
<!-- Node3&#45;&gt;Node36 -->
<g id="edge56" class="edge">
<title>Node3&#45;&gt;Node36</title>
<path fill="none" stroke="midnightblue" d="M585.25,-347.49C603.13,-340.73 624.3,-329.29 635,-311 641.96,-299.11 640.6,-292.59 635,-280 617.3,-240.2 575.29,-209.47 548.06,-192.83"/>
<polygon fill="midnightblue" stroke="midnightblue" points="549.49,-189.62 539.1,-187.54 545.93,-195.64 549.49,-189.62"/>
</g>
<!-- Node5 -->
<g id="node5" class="node">
<title>Node5</title>
<g id="a_node5"><a xlink:href="_backend_id_8hpp.html" target="_top" xlink:title=" ">
<polygon fill="white" stroke="black" points="719,-56.5 719,-75.5 841,-75.5 841,-56.5 719,-56.5"/>
<text text-anchor="middle" x="780" y="-63.5" font-family="Helvetica,sans-Serif" font-size="10.00">armnn/BackendId.hpp</text>
</a>
</g>
</g>
<!-- Node4&#45;&gt;Node5 -->
<g id="edge4" class="edge">
<title>Node4&#45;&gt;Node5</title>
<path fill="none" stroke="midnightblue" d="M744.99,-224.08C750.81,-197.95 767.92,-121.21 775.86,-85.58"/>
<polygon fill="midnightblue" stroke="midnightblue" points="779.33,-86.09 778.09,-75.57 772.5,-84.57 779.33,-86.09"/>
</g>
<!-- Node7 -->
<g id="node7" class="node">
<title>Node7</title>
<g id="a_node7"><a xlink:title=" ">
<polygon fill="white" stroke="#bfbfbf" points="484.5,-0.5 484.5,-19.5 541.5,-19.5 541.5,-0.5 484.5,-0.5"/>
<text text-anchor="middle" x="513" y="-7.5" font-family="Helvetica,sans-Serif" font-size="10.00">ostream</text>
</a>
</g>
</g>
<!-- Node4&#45;&gt;Node7 -->
<g id="edge37" class="edge">
<title>Node4&#45;&gt;Node7</title>
<path fill="none" stroke="midnightblue" d="M681.75,-228.71C596.85,-222.13 448.16,-208.17 398,-188 320.15,-156.69 283.85,-150.9 246,-76 241.99,-68.07 240.26,-62.79 246,-56 274.74,-22.01 407.06,-13.68 473.99,-11.65"/>
<polygon fill="midnightblue" stroke="midnightblue" points="474.25,-15.15 484.15,-11.38 474.06,-8.15 474.25,-15.15"/>
</g>
<!-- Node8 -->
<g id="node8" class="node">
<title>Node8</title>
<g id="a_node8"><a xlink:title=" ">
<polygon fill="white" stroke="#bfbfbf" points="605,-0.5 605,-19.5 637,-19.5 637,-0.5 605,-0.5"/>
<text text-anchor="middle" x="621" y="-7.5" font-family="Helvetica,sans-Serif" font-size="10.00">set</text>
</a>
</g>
</g>
<!-- Node4&#45;&gt;Node8 -->
<g id="edge38" class="edge">
<title>Node4&#45;&gt;Node8</title>
<path fill="none" stroke="midnightblue" d="M720.08,-224.39C687.13,-210.62 627.64,-180.16 603,-132 594.04,-114.48 607.48,-58.91 615.59,-29.57"/>
<polygon fill="midnightblue" stroke="midnightblue" points="619.02,-30.32 618.38,-19.74 612.28,-28.41 619.02,-30.32"/>
</g>
<!-- Node12 -->
<g id="node12" class="node">
<title>Node12</title>
<g id="a_node12"><a xlink:href="_exceptions_8hpp.html" target="_top" xlink:title=" ">
<polygon fill="white" stroke="black" points="859.5,-56.5 859.5,-75.5 984.5,-75.5 984.5,-56.5 859.5,-56.5"/>
<text text-anchor="middle" x="922" y="-63.5" font-family="Helvetica,sans-Serif" font-size="10.00">armnn/Exceptions.hpp</text>
</a>
</g>
</g>
<!-- Node4&#45;&gt;Node12 -->
<g id="edge11" class="edge">
<title>Node4&#45;&gt;Node12</title>
<path fill="none" stroke="midnightblue" d="M752.62,-224.08C781.65,-197.15 868.61,-116.51 905.34,-82.45"/>
<polygon fill="midnightblue" stroke="midnightblue" points="907.81,-84.93 912.76,-75.57 903.05,-79.8 907.81,-84.93"/>
</g>
<!-- Node15 -->
<g id="node15" class="node">
<title>Node15</title>
<g id="a_node15"><a xlink:href="_tensor_8hpp.html" target="_top" xlink:title=" ">
<polygon fill="white" stroke="black" points="870.5,-168.5 870.5,-187.5 973.5,-187.5 973.5,-168.5 870.5,-168.5"/>
<text text-anchor="middle" x="922" y="-175.5" font-family="Helvetica,sans-Serif" font-size="10.00">armnn/Tensor.hpp</text>
</a>
</g>
</g>
<!-- Node4&#45;&gt;Node15 -->
<g id="edge15" class="edge">
<title>Node4&#45;&gt;Node15</title>
<path fill="none" stroke="midnightblue" d="M771.36,-224.44C801.74,-215.28 850.11,-200.69 883.82,-190.52"/>
<polygon fill="midnightblue" stroke="midnightblue" points="885.21,-193.76 893.77,-187.52 883.18,-187.05 885.21,-193.76"/>
</g>
<!-- Node18 -->
<g id="node18" class="node">
<title>Node18</title>
<g id="a_node18"><a xlink:title=" ">
<polygon fill="white" stroke="#bfbfbf" points="255.5,-56.5 255.5,-75.5 324.5,-75.5 324.5,-56.5 255.5,-56.5"/>
<text text-anchor="middle" x="290" y="-63.5" font-family="Helvetica,sans-Serif" font-size="10.00">type_traits</text>
</a>
</g>
</g>
<!-- Node4&#45;&gt;Node18 -->
<g id="edge39" class="edge">
<title>Node4&#45;&gt;Node18</title>
<path fill="none" stroke="midnightblue" d="M681.77,-230.08C621.21,-225.72 526.58,-214.86 449,-188 401.23,-171.46 389.62,-163.39 350,-132 331.86,-117.62 314.28,-97.65 302.89,-83.64"/>
<polygon fill="midnightblue" stroke="midnightblue" points="305.62,-81.45 296.65,-75.8 300.14,-85.81 305.62,-81.45"/>
</g>
<!-- Node19 -->
<g id="node19" class="node">
<title>Node19</title>
<g id="a_node19"><a xlink:href="_types_8hpp.html" target="_top" xlink:title=" ">
<polygon fill="white" stroke="black" points="1000.5,-112.5 1000.5,-131.5 1065.5,-131.5 1065.5,-112.5 1000.5,-112.5"/>
<text text-anchor="middle" x="1033" y="-119.5" font-family="Helvetica,sans-Serif" font-size="10.00">Types.hpp</text>
</a>
</g>
</g>
<!-- Node4&#45;&gt;Node19 -->
<g id="edge34" class="edge">
<title>Node4&#45;&gt;Node19</title>
<path fill="none" stroke="midnightblue" d="M756.05,-224.49C777.41,-210.87 821.53,-184.1 862,-168 885.17,-158.78 947.81,-143.14 990.48,-132.94"/>
<polygon fill="midnightblue" stroke="midnightblue" points="991.41,-136.32 1000.33,-130.6 989.79,-129.51 991.41,-136.32"/>
</g>
<!-- Node22 -->
<g id="node22" class="node">
<title>Node22</title>
<g id="a_node22"><a xlink:title=" ">
<polygon fill="white" stroke="#bfbfbf" points="647.5,-56.5 647.5,-75.5 700.5,-75.5 700.5,-56.5 647.5,-56.5"/>
<text text-anchor="middle" x="674" y="-63.5" font-family="Helvetica,sans-Serif" font-size="10.00">stdint.h</text>
</a>
</g>
</g>
<!-- Node4&#45;&gt;Node22 -->
<g id="edge35" class="edge">
<title>Node4&#45;&gt;Node22</title>
<path fill="none" stroke="midnightblue" d="M740.5,-224.28C734.58,-204.07 718.79,-152.68 700,-112 695.65,-102.58 689.96,-92.54 685.01,-84.34"/>
<polygon fill="midnightblue" stroke="midnightblue" points="687.91,-82.37 679.67,-75.71 681.96,-86.05 687.91,-82.37"/>
</g>
<!-- Node27 -->
<g id="node27" class="node">
<title>Node27</title>
<g id="a_node27"><a xlink:title=" ">
<polygon fill="white" stroke="#bfbfbf" points="437.5,-56.5 437.5,-75.5 484.5,-75.5 484.5,-56.5 437.5,-56.5"/>
<text text-anchor="middle" x="461" y="-63.5" font-family="Helvetica,sans-Serif" font-size="10.00">cmath</text>
</a>
</g>
</g>
<!-- Node4&#45;&gt;Node27 -->
<g id="edge36" class="edge">
<title>Node4&#45;&gt;Node27</title>
<path fill="none" stroke="midnightblue" d="M681.88,-231.92C608.5,-229.2 491.79,-219.83 464,-188 439.21,-159.61 447.69,-111.6 454.98,-85.4"/>
<polygon fill="midnightblue" stroke="midnightblue" points="458.39,-86.22 457.94,-75.63 451.69,-84.19 458.39,-86.22"/>
</g>
<!-- Node6 -->
<g id="node6" class="node">
<title>Node6</title>
<g id="a_node6"><a xlink:title=" ">
<polygon fill="white" stroke="#bfbfbf" points="657,-0.5 657,-19.5 715,-19.5 715,-0.5 657,-0.5"/>
<text text-anchor="middle" x="686" y="-7.5" font-family="Helvetica,sans-Serif" font-size="10.00">memory</text>
</a>
</g>
</g>
<!-- Node5&#45;&gt;Node6 -->
<g id="edge5" class="edge">
<title>Node5&#45;&gt;Node6</title>
<path fill="none" stroke="midnightblue" d="M764.9,-56.32C750.1,-47.82 727.31,-34.73 710.02,-24.8"/>
<polygon fill="midnightblue" stroke="midnightblue" points="711.48,-21.6 701.07,-19.65 707.99,-27.67 711.48,-21.6"/>
</g>
<!-- Node5&#45;&gt;Node7 -->
<g id="edge6" class="edge">
<title>Node5&#45;&gt;Node7</title>
<path fill="none" stroke="midnightblue" d="M737.69,-56.44C686.49,-46.09 601,-28.8 551.54,-18.8"/>
<polygon fill="midnightblue" stroke="midnightblue" points="552.06,-15.33 541.56,-16.78 550.67,-22.19 552.06,-15.33"/>
</g>
<!-- Node5&#45;&gt;Node8 -->
<g id="edge7" class="edge">
<title>Node5&#45;&gt;Node8</title>
<path fill="none" stroke="midnightblue" d="M754.81,-56.44C725.35,-46.44 676.85,-29.97 647.04,-19.84"/>
<polygon fill="midnightblue" stroke="midnightblue" points="647.93,-16.45 637.34,-16.55 645.68,-23.08 647.93,-16.45"/>
</g>
<!-- Node9 -->
<g id="node9" class="node">
<title>Node9</title>
<g id="a_node9"><a xlink:title=" ">
<polygon fill="white" stroke="#bfbfbf" points="837,-0.5 837,-19.5 881,-19.5 881,-0.5 837,-0.5"/>
<text text-anchor="middle" x="859" y="-7.5" font-family="Helvetica,sans-Serif" font-size="10.00">string</text>
</a>
</g>
</g>
<!-- Node5&#45;&gt;Node9 -->
<g id="edge8" class="edge">
<title>Node5&#45;&gt;Node9</title>
<path fill="none" stroke="midnightblue" d="M792.69,-56.32C804.9,-47.98 823.58,-35.21 838,-25.35"/>
<polygon fill="midnightblue" stroke="midnightblue" points="840.06,-28.19 846.34,-19.65 836.11,-22.41 840.06,-28.19"/>
</g>
<!-- Node10 -->
<g id="node10" class="node">
<title>Node10</title>
<g id="a_node10"><a xlink:title=" ">
<polygon fill="white" stroke="#bfbfbf" points="733,-0.5 733,-19.5 819,-19.5 819,-0.5 733,-0.5"/>
<text text-anchor="middle" x="776" y="-7.5" font-family="Helvetica,sans-Serif" font-size="10.00">unordered_set</text>
</a>
</g>
</g>
<!-- Node5&#45;&gt;Node10 -->
<g id="edge9" class="edge">
<title>Node5&#45;&gt;Node10</title>
<path fill="none" stroke="midnightblue" d="M779.34,-56.08C778.82,-49.01 778.06,-38.86 777.41,-29.99"/>
<polygon fill="midnightblue" stroke="midnightblue" points="780.88,-29.47 776.65,-19.75 773.9,-29.98 780.88,-29.47"/>
</g>
<!-- Node11 -->
<g id="node11" class="node">
<title>Node11</title>
<g id="a_node11"><a xlink:title=" ">
<polygon fill="white" stroke="#bfbfbf" points="1410.5,-0.5 1410.5,-19.5 1457.5,-19.5 1457.5,-0.5 1410.5,-0.5"/>
<text text-anchor="middle" x="1434" y="-7.5" font-family="Helvetica,sans-Serif" font-size="10.00">vector</text>
</a>
</g>
</g>
<!-- Node5&#45;&gt;Node11 -->
<g id="edge10" class="edge">
<title>Node5&#45;&gt;Node11</title>
<path fill="none" stroke="midnightblue" d="M841.17,-57.05C844.49,-56.68 847.79,-56.33 851,-56 1059.41,-34.76 1310.65,-18.52 1400.25,-13.02"/>
<polygon fill="midnightblue" stroke="midnightblue" points="1400.59,-16.51 1410.36,-12.41 1400.17,-9.52 1400.59,-16.51"/>
</g>
<!-- Node12&#45;&gt;Node9 -->
<g id="edge14" class="edge">
<title>Node12&#45;&gt;Node9</title>
<path fill="none" stroke="midnightblue" d="M911.88,-56.32C902.47,-48.26 888.26,-36.08 876.93,-26.37"/>
<polygon fill="midnightblue" stroke="midnightblue" points="879.18,-23.68 869.31,-19.83 874.62,-29 879.18,-23.68"/>
</g>
<!-- Node13 -->
<g id="node13" class="node">
<title>Node13</title>
<g id="a_node13"><a xlink:title=" ">
<polygon fill="white" stroke="#bfbfbf" points="983,-0.5 983,-19.5 1039,-19.5 1039,-0.5 983,-0.5"/>
<text text-anchor="middle" x="1011" y="-7.5" font-family="Helvetica,sans-Serif" font-size="10.00">sstream</text>
</a>
</g>
</g>
<!-- Node12&#45;&gt;Node13 -->
<g id="edge12" class="edge">
<title>Node12&#45;&gt;Node13</title>
<path fill="none" stroke="midnightblue" d="M936.3,-56.32C950.18,-47.9 971.49,-34.97 987.8,-25.07"/>
<polygon fill="midnightblue" stroke="midnightblue" points="990,-27.83 996.74,-19.65 986.37,-21.85 990,-27.83"/>
</g>
<!-- Node14 -->
<g id="node14" class="node">
<title>Node14</title>
<g id="a_node14"><a xlink:title=" ">
<polygon fill="white" stroke="#bfbfbf" points="899.5,-0.5 899.5,-19.5 964.5,-19.5 964.5,-0.5 899.5,-0.5"/>
<text text-anchor="middle" x="932" y="-7.5" font-family="Helvetica,sans-Serif" font-size="10.00">stdexcept</text>
</a>
</g>
</g>
<!-- Node12&#45;&gt;Node14 -->
<g id="edge13" class="edge">
<title>Node12&#45;&gt;Node14</title>
<path fill="none" stroke="midnightblue" d="M923.65,-56.08C924.98,-48.93 926.88,-38.64 928.54,-29.69"/>
<polygon fill="midnightblue" stroke="midnightblue" points="932,-30.22 930.38,-19.75 925.12,-28.95 932,-30.22"/>
</g>
<!-- Node15&#45;&gt;Node11 -->
<g id="edge32" class="edge">
<title>Node15&#45;&gt;Node11</title>
<path fill="none" stroke="midnightblue" d="M957.78,-168.43C1048.59,-146.59 1283.23,-89.61 1317,-76 1352.04,-61.87 1389.77,-39.47 1412.63,-25"/>
<polygon fill="midnightblue" stroke="midnightblue" points="1414.66,-27.86 1421.19,-19.52 1410.89,-21.97 1414.66,-27.86"/>
</g>
<!-- Node15&#45;&gt;Node12 -->
<g id="edge16" class="edge">
<title>Node15&#45;&gt;Node12</title>
<path fill="none" stroke="midnightblue" d="M913.52,-168.23C905.95,-159.75 895.4,-146.13 891,-132 885.63,-114.73 896.22,-96.23 906.45,-83.4"/>
<polygon fill="midnightblue" stroke="midnightblue" points="909.38,-85.36 913.28,-75.51 904.09,-80.78 909.38,-85.36"/>
</g>
<!-- Node16 -->
<g id="node16" class="node">
<title>Node16</title>
<g id="a_node16"><a xlink:href="_optional_8hpp.html" target="_top" xlink:title=" ">
<polygon fill="white" stroke="black" points="611.5,-112.5 611.5,-131.5 690.5,-131.5 690.5,-112.5 611.5,-112.5"/>
<text text-anchor="middle" x="651" y="-119.5" font-family="Helvetica,sans-Serif" font-size="10.00">Optional.hpp</text>
</a>
</g>
</g>
<!-- Node15&#45;&gt;Node16 -->
<g id="edge17" class="edge">
<title>Node15&#45;&gt;Node16</title>
<path fill="none" stroke="midnightblue" d="M879.06,-168.44C830.51,-158.77 751.58,-143.04 700.49,-132.86"/>
<polygon fill="midnightblue" stroke="midnightblue" points="701.15,-129.42 690.65,-130.9 699.78,-136.29 701.15,-129.42"/>
</g>
<!-- Node15&#45;&gt;Node19 -->
<g id="edge21" class="edge">
<title>Node15&#45;&gt;Node19</title>
<path fill="none" stroke="midnightblue" d="M939.83,-168.32C957.72,-159.62 985.48,-146.12 1006.05,-136.11"/>
<polygon fill="midnightblue" stroke="midnightblue" points="1007.75,-139.18 1015.21,-131.65 1004.69,-132.88 1007.75,-139.18"/>
</g>
<!-- Node20 -->
<g id="node20" class="node">
<title>Node20</title>
<g id="a_node20"><a xlink:title=" ">
<polygon fill="white" stroke="#bfbfbf" points="1154,-56.5 1154,-75.5 1196,-75.5 1196,-56.5 1154,-56.5"/>
<text text-anchor="middle" x="1175" y="-63.5" font-family="Helvetica,sans-Serif" font-size="10.00">array</text>
</a>
</g>
</g>
<!-- Node15&#45;&gt;Node20 -->
<g id="edge30" class="edge">
<title>Node15&#45;&gt;Node20</title>
<path fill="none" stroke="midnightblue" d="M962.45,-168.5C993.98,-161.07 1038.4,-148.84 1075,-132 1105.18,-118.12 1136.8,-96.11 1156.21,-81.61"/>
<polygon fill="midnightblue" stroke="midnightblue" points="1158.37,-84.36 1164.22,-75.53 1154.14,-78.79 1158.37,-84.36"/>
</g>
<!-- Node15&#45;&gt;Node22 -->
<g id="edge29" class="edge">
<title>Node15&#45;&gt;Node22</title>
<path fill="none" stroke="midnightblue" d="M902.54,-168.37C858.99,-149.05 753.49,-102.26 702.52,-79.65"/>
<polygon fill="midnightblue" stroke="midnightblue" points="703.93,-76.45 693.37,-75.59 701.09,-82.85 703.93,-76.45"/>
</g>
<!-- Node25 -->
<g id="node25" class="node">
<title>Node25</title>
<g id="a_node25"><a xlink:title=" ">
<polygon fill="white" stroke="#bfbfbf" points="899.5,-112.5 899.5,-131.5 982.5,-131.5 982.5,-112.5 899.5,-112.5"/>
<text text-anchor="middle" x="941" y="-119.5" font-family="Helvetica,sans-Serif" font-size="10.00">initializer_list</text>
</a>
</g>
</g>
<!-- Node15&#45;&gt;Node25 -->
<g id="edge31" class="edge">
<title>Node15&#45;&gt;Node25</title>
<path fill="none" stroke="midnightblue" d="M925.14,-168.08C927.68,-160.85 931.36,-150.41 934.53,-141.4"/>
<polygon fill="midnightblue" stroke="midnightblue" points="937.9,-142.35 937.92,-131.75 931.3,-140.02 937.9,-142.35"/>
</g>
<!-- Node26 -->
<g id="node26" class="node">
<title>Node26</title>
<g id="a_node26"><a xlink:title=" ">
<polygon fill="white" stroke="#bfbfbf" points="1198.5,-112.5 1198.5,-131.5 1243.5,-131.5 1243.5,-112.5 1198.5,-112.5"/>
<text text-anchor="middle" x="1221" y="-119.5" font-family="Helvetica,sans-Serif" font-size="10.00">utility</text>
</a>
</g>
</g>
<!-- Node15&#45;&gt;Node26 -->
<g id="edge33" class="edge">
<title>Node15&#45;&gt;Node26</title>
<path fill="none" stroke="midnightblue" d="M973.9,-169.16C1026.9,-160.9 1111.47,-147.03 1184,-132 1185.46,-131.7 1186.94,-131.38 1188.44,-131.05"/>
<polygon fill="midnightblue" stroke="midnightblue" points="1189.4,-134.42 1198.36,-128.77 1187.83,-127.6 1189.4,-134.42"/>
</g>
<!-- Node16&#45;&gt;Node12 -->
<g id="edge18" class="edge">
<title>Node16&#45;&gt;Node12</title>
<path fill="none" stroke="midnightblue" d="M690.7,-113.09C737.83,-103.7 816.64,-87.99 868.97,-77.57"/>
<polygon fill="midnightblue" stroke="midnightblue" points="869.94,-80.94 879.06,-75.56 868.57,-74.08 869.94,-80.94"/>
</g>
<!-- Node17 -->
<g id="node17" class="node">
<title>Node17</title>
<g id="a_node17"><a xlink:title=" ">
<polygon fill="white" stroke="#bfbfbf" points="541,-56.5 541,-75.5 591,-75.5 591,-56.5 541,-56.5"/>
<text text-anchor="middle" x="566" y="-63.5" font-family="Helvetica,sans-Serif" font-size="10.00">cstring</text>
</a>
</g>
</g>
<!-- Node16&#45;&gt;Node17 -->
<g id="edge19" class="edge">
<title>Node16&#45;&gt;Node17</title>
<path fill="none" stroke="midnightblue" d="M637.34,-112.32C624.08,-103.9 603.73,-90.97 588.15,-81.07"/>
<polygon fill="midnightblue" stroke="midnightblue" points="589.94,-78.06 579.62,-75.65 586.19,-83.97 589.94,-78.06"/>
</g>
<!-- Node16&#45;&gt;Node18 -->
<g id="edge20" class="edge">
<title>Node16&#45;&gt;Node18</title>
<path fill="none" stroke="midnightblue" d="M611.46,-116.25C553.07,-109.06 440.16,-94.44 334.86,-76.24"/>
<polygon fill="midnightblue" stroke="midnightblue" points="335.15,-72.74 324.7,-74.47 333.95,-79.63 335.15,-72.74"/>
</g>
<!-- Node19&#45;&gt;Node5 -->
<g id="edge26" class="edge">
<title>Node19&#45;&gt;Node5</title>
<path fill="none" stroke="midnightblue" d="M1000.33,-113.81C997.51,-113.19 994.71,-112.58 992,-112 936.84,-100.09 873.55,-86.69 830.59,-77.63"/>
<polygon fill="midnightblue" stroke="midnightblue" points="831.17,-74.18 820.66,-75.54 829.72,-81.03 831.17,-74.18"/>
</g>
<!-- Node19&#45;&gt;Node12 -->
<g id="edge27" class="edge">
<title>Node19&#45;&gt;Node12</title>
<path fill="none" stroke="midnightblue" d="M1015.17,-112.32C997.28,-103.62 969.52,-90.12 948.95,-80.11"/>
<polygon fill="midnightblue" stroke="midnightblue" points="950.31,-76.88 939.79,-75.65 947.25,-83.18 950.31,-76.88"/>
</g>
<!-- Node19&#45;&gt;Node20 -->
<g id="edge22" class="edge">
<title>Node19&#45;&gt;Node20</title>
<path fill="none" stroke="midnightblue" d="M1055.5,-112.44C1079.49,-103.32 1117.64,-88.81 1144.36,-78.65"/>
<polygon fill="midnightblue" stroke="midnightblue" points="1145.89,-81.81 1153.99,-74.99 1143.4,-75.27 1145.89,-81.81"/>
</g>
<!-- Node21 -->
<g id="node21" class="node">
<title>Node21</title>
<g id="a_node21"><a xlink:title=" ">
<polygon fill="white" stroke="#bfbfbf" points="1002.5,-56.5 1002.5,-75.5 1067.5,-75.5 1067.5,-56.5 1002.5,-56.5"/>
<text text-anchor="middle" x="1035" y="-63.5" font-family="Helvetica,sans-Serif" font-size="10.00">functional</text>
</a>
</g>
</g>
<!-- Node19&#45;&gt;Node21 -->
<g id="edge23" class="edge">
<title>Node19&#45;&gt;Node21</title>
<path fill="none" stroke="midnightblue" d="M1033.33,-112.08C1033.59,-105.01 1033.97,-94.86 1034.3,-85.99"/>
<polygon fill="midnightblue" stroke="midnightblue" points="1037.8,-85.87 1034.68,-75.75 1030.81,-85.61 1037.8,-85.87"/>
</g>
<!-- Node19&#45;&gt;Node22 -->
<g id="edge24" class="edge">
<title>Node19&#45;&gt;Node22</title>
<path fill="none" stroke="midnightblue" d="M1000.38,-113.56C997.55,-113 994.73,-112.47 992,-112 870.66,-90.98 835.92,-98.93 710.64,-75.9"/>
<polygon fill="midnightblue" stroke="midnightblue" points="711.13,-72.43 700.66,-74.04 709.85,-79.31 711.13,-72.43"/>
</g>
<!-- Node23 -->
<g id="node23" class="node">
<title>Node23</title>
<g id="a_node23"><a xlink:title=" ">
<polygon fill="white" stroke="#bfbfbf" points="1086,-56.5 1086,-75.5 1136,-75.5 1136,-56.5 1086,-56.5"/>
<text text-anchor="middle" x="1111" y="-63.5" font-family="Helvetica,sans-Serif" font-size="10.00">chrono</text>
</a>
</g>
</g>
<!-- Node19&#45;&gt;Node23 -->
<g id="edge25" class="edge">
<title>Node19&#45;&gt;Node23</title>
<path fill="none" stroke="midnightblue" d="M1045.53,-112.32C1057.59,-103.98 1076.03,-91.21 1090.27,-81.35"/>
<polygon fill="midnightblue" stroke="midnightblue" points="1092.27,-84.22 1098.5,-75.65 1088.28,-78.47 1092.27,-84.22"/>
</g>
<!-- Node24 -->
<g id="node24" class="node">
<title>Node24</title>
<g id="a_node24"><a xlink:href="_deprecated_8hpp.html" target="_top" xlink:title=" ">
<polygon fill="white" stroke="black" points="1214,-56.5 1214,-75.5 1308,-75.5 1308,-56.5 1214,-56.5"/>
<text text-anchor="middle" x="1261" y="-63.5" font-family="Helvetica,sans-Serif" font-size="10.00">Deprecated.hpp</text>
</a>
</g>
</g>
<!-- Node19&#45;&gt;Node24 -->
<g id="edge28" class="edge">
<title>Node19&#45;&gt;Node24</title>
<path fill="none" stroke="midnightblue" d="M1065.67,-113.26C1104.85,-103.98 1170.78,-88.37 1215.07,-77.88"/>
<polygon fill="midnightblue" stroke="midnightblue" points="1216.08,-81.23 1225.01,-75.52 1214.47,-74.42 1216.08,-81.23"/>
</g>
<!-- Node29 -->
<g id="node29" class="node">
<title>Node29</title>
<g id="a_node29"><a xlink:title=" ">
<polygon fill="white" stroke="#bfbfbf" points="167,-168.5 167,-187.5 219,-187.5 219,-168.5 167,-168.5"/>
<text text-anchor="middle" x="193" y="-175.5" font-family="Helvetica,sans-Serif" font-size="10.00">cassert</text>
</a>
</g>
</g>
<!-- Node28&#45;&gt;Node29 -->
<g id="edge41" class="edge">
<title>Node28&#45;&gt;Node29</title>
<path fill="none" stroke="midnightblue" d="M193,-224.08C193,-217.01 193,-206.86 193,-197.99"/>
<polygon fill="midnightblue" stroke="midnightblue" points="196.5,-197.75 193,-187.75 189.5,-197.75 196.5,-197.75"/>
</g>
<!-- Node31&#45;&gt;Node18 -->
<g id="edge45" class="edge">
<title>Node31&#45;&gt;Node18</title>
<path fill="none" stroke="midnightblue" d="M346.2,-285.73C339.05,-276.05 328.02,-259.76 322,-244 300.98,-188.94 293.56,-118.85 291.11,-85.83"/>
<polygon fill="midnightblue" stroke="midnightblue" points="294.6,-85.52 290.44,-75.78 287.62,-85.99 294.6,-85.52"/>
</g>
<!-- Node31&#45;&gt;Node28 -->
<g id="edge44" class="edge">
<title>Node31&#45;&gt;Node28</title>
<path fill="none" stroke="midnightblue" d="M330.08,-285.98C302.63,-275.77 256.48,-258.61 225.4,-247.05"/>
<polygon fill="midnightblue" stroke="midnightblue" points="226.47,-243.71 215.88,-243.51 224.03,-250.28 226.47,-243.71"/>
</g>
<!-- Node32 -->
<g id="node32" class="node">
<title>Node32</title>
<g id="a_node32"><a xlink:title=" ">
<polygon fill="white" stroke="#bfbfbf" points="331,-224.5 331,-243.5 375,-243.5 375,-224.5 331,-224.5"/>
<text text-anchor="middle" x="353" y="-231.5" font-family="Helvetica,sans-Serif" font-size="10.00">limits</text>
</a>
</g>
</g>
<!-- Node31&#45;&gt;Node32 -->
<g id="edge46" class="edge">
<title>Node31&#45;&gt;Node32</title>
<path fill="none" stroke="midnightblue" d="M353,-285.98C353,-277.58 353,-264.48 353,-253.66"/>
<polygon fill="midnightblue" stroke="midnightblue" points="356.5,-253.51 353,-243.51 349.5,-253.51 356.5,-253.51"/>
</g>
<!-- Node34 -->
<g id="node34" class="node">
<title>Node34</title>
<g id="a_node34"><a xlink:title=" ">
<polygon fill="white" stroke="#bfbfbf" points="42.5,-224.5 42.5,-243.5 95.5,-243.5 95.5,-224.5 42.5,-224.5"/>
<text text-anchor="middle" x="69" y="-231.5" font-family="Helvetica,sans-Serif" font-size="10.00">cstddef</text>
</a>
</g>
</g>
<!-- Node33&#45;&gt;Node34 -->
<g id="edge48" class="edge">
<title>Node33&#45;&gt;Node34</title>
<path fill="none" stroke="midnightblue" d="M69,-280.4C69,-272.47 69,-262.46 69,-253.86"/>
<polygon fill="midnightblue" stroke="midnightblue" points="72.5,-253.66 69,-243.66 65.5,-253.66 72.5,-253.66"/>
</g>
<!-- Node35&#45;&gt;Node4 -->
<g id="edge50" class="edge">
<title>Node35&#45;&gt;Node4</title>
<path fill="none" stroke="midnightblue" d="M964.89,-285.98C918.83,-275.39 840.23,-257.34 790,-245.8"/>
<polygon fill="midnightblue" stroke="midnightblue" points="790.57,-242.34 780.04,-243.51 789,-249.16 790.57,-242.34"/>
</g>
<!-- Node35&#45;&gt;Node11 -->
<g id="edge55" class="edge">
<title>Node35&#45;&gt;Node11</title>
<path fill="none" stroke="midnightblue" d="M1076.71,-294.95C1232.56,-293.88 1578,-280.1 1578,-179 1578,-179 1578,-179 1578,-121 1578,-65.66 1510.02,-34.44 1467.47,-20.32"/>
<polygon fill="midnightblue" stroke="midnightblue" points="1468.37,-16.93 1457.78,-17.25 1466.25,-23.6 1468.37,-16.93"/>
</g>
<!-- Node35&#45;&gt;Node15 -->
<g id="edge51" class="edge">
<title>Node35&#45;&gt;Node15</title>
<path fill="none" stroke="midnightblue" d="M995.99,-285.82C982.84,-266.84 951.33,-221.35 933.97,-196.29"/>
<polygon fill="midnightblue" stroke="midnightblue" points="936.65,-194.01 928.08,-187.78 930.9,-198 936.65,-194.01"/>
</g>
<!-- Node35&#45;&gt;Node19 -->
<g id="edge52" class="edge">
<title>Node35&#45;&gt;Node19</title>
<path fill="none" stroke="midnightblue" d="M1003.58,-285.76C1008.41,-259.04 1023.06,-178.02 1029.68,-141.36"/>
<polygon fill="midnightblue" stroke="midnightblue" points="1033.13,-141.98 1031.46,-131.52 1026.24,-140.74 1033.13,-141.98"/>
</g>
<!-- Node35&#45;&gt;Node26 -->
<g id="edge54" class="edge">
<title>Node35&#45;&gt;Node26</title>
<path fill="none" stroke="midnightblue" d="M1012.86,-286C1047.81,-258.62 1157.7,-172.57 1202.11,-137.79"/>
<polygon fill="midnightblue" stroke="midnightblue" points="1204.36,-140.48 1210.07,-131.56 1200.04,-134.97 1204.36,-140.48"/>
</g>
<!-- Node35&#45;&gt;Node35 -->
<g id="edge53" class="edge">
<title>Node35&#45;&gt;Node35</title>
<path fill="none" stroke="midnightblue" d="M1036.15,-305.03C1064.69,-309.11 1094.5,-305.93 1094.5,-295.5 1094.5,-286.29 1071.26,-282.74 1046.19,-284.83"/>
<polygon fill="midnightblue" stroke="midnightblue" points="1045.7,-281.37 1036.15,-285.97 1046.48,-288.32 1045.7,-281.37"/>
</g>
<!-- Node36&#45;&gt;Node19 -->
<g id="edge57" class="edge">
<title>Node36&#45;&gt;Node19</title>
<path fill="none" stroke="midnightblue" d="M572.54,-174.21C656.6,-169.06 832.67,-156.41 990.5,-132.07"/>
<polygon fill="midnightblue" stroke="midnightblue" points="991.05,-135.53 1000.39,-130.53 989.97,-128.61 991.05,-135.53"/>
</g>
<!-- Node37 -->
<g id="node37" class="node">
<title>Node37</title>
<g id="a_node37"><a xlink:href="_b_float16_8hpp.html" target="_top" xlink:title=" ">
<polygon fill="white" stroke="black" points="473.5,-112.5 473.5,-131.5 554.5,-131.5 554.5,-112.5 473.5,-112.5"/>
<text text-anchor="middle" x="514" y="-119.5" font-family="Helvetica,sans-Serif" font-size="10.00">BFloat16.hpp</text>
</a>
</g>
</g>
<!-- Node36&#45;&gt;Node37 -->
<g id="edge58" class="edge">
<title>Node36&#45;&gt;Node37</title>
<path fill="none" stroke="midnightblue" d="M521.51,-168.08C520.32,-160.93 518.61,-150.64 517.12,-141.69"/>
<polygon fill="midnightblue" stroke="midnightblue" points="520.55,-141.04 515.46,-131.75 513.65,-142.19 520.55,-141.04"/>
</g>
<!-- Node38 -->
<g id="node38" class="node">
<title>Node38</title>
<g id="a_node38"><a xlink:href="_half_8hpp.html" target="_top" xlink:title=" ">
<polygon fill="white" stroke="black" points="359.5,-112.5 359.5,-131.5 416.5,-131.5 416.5,-112.5 359.5,-112.5"/>
<text text-anchor="middle" x="388" y="-119.5" font-family="Helvetica,sans-Serif" font-size="10.00">Half.hpp</text>
</a>
</g>
</g>
<!-- Node36&#45;&gt;Node38 -->
<g id="edge63" class="edge">
<title>Node36&#45;&gt;Node38</title>
<path fill="none" stroke="midnightblue" d="M501.61,-168.44C479.29,-159.52 444.1,-145.44 418.79,-135.32"/>
<polygon fill="midnightblue" stroke="midnightblue" points="419.88,-131.98 409.29,-131.52 417.28,-138.48 419.88,-131.98"/>
</g>
<!-- Node37&#45;&gt;Node7 -->
<g id="edge59" class="edge">
<title>Node37&#45;&gt;Node7</title>
<path fill="none" stroke="midnightblue" d="M513.92,-112.37C513.76,-94.62 513.39,-53.67 513.17,-29.6"/>
<polygon fill="midnightblue" stroke="midnightblue" points="516.67,-29.56 513.08,-19.59 509.67,-29.62 516.67,-29.56"/>
</g>
<!-- Node37&#45;&gt;Node17 -->
<g id="edge61" class="edge">
<title>Node37&#45;&gt;Node17</title>
<path fill="none" stroke="midnightblue" d="M522.59,-112.08C530.16,-104.22 541.38,-92.57 550.51,-83.08"/>
<polygon fill="midnightblue" stroke="midnightblue" points="553.16,-85.38 557.57,-75.75 548.12,-80.53 553.16,-85.38"/>
</g>
<!-- Node37&#45;&gt;Node22 -->
<g id="edge62" class="edge">
<title>Node37&#45;&gt;Node22</title>
<path fill="none" stroke="midnightblue" d="M539.35,-112.44C566.27,-103.36 609,-88.94 639.09,-78.78"/>
<polygon fill="midnightblue" stroke="midnightblue" points="640.41,-82.03 648.77,-75.52 638.17,-75.4 640.41,-82.03"/>
</g>
<!-- Node37&#45;&gt;Node27 -->
<g id="edge60" class="edge">
<title>Node37&#45;&gt;Node27</title>
<path fill="none" stroke="midnightblue" d="M505.25,-112.08C497.53,-104.22 486.1,-92.57 476.78,-83.08"/>
<polygon fill="midnightblue" stroke="midnightblue" points="479.09,-80.44 469.59,-75.75 474.1,-85.34 479.09,-80.44"/>
</g>
<!-- Node38&#45;&gt;Node18 -->
<g id="edge64" class="edge">
<title>Node38&#45;&gt;Node18</title>
<path fill="none" stroke="midnightblue" d="M372.25,-112.32C356.68,-103.74 332.62,-90.49 314.54,-80.52"/>
<polygon fill="midnightblue" stroke="midnightblue" points="316.15,-77.42 305.71,-75.65 312.78,-83.55 316.15,-77.42"/>
</g>
<!-- Node39 -->
<g id="node39" class="node">
<title>Node39</title>
<g id="a_node39"><a xlink:title=" ">
<polygon fill="white" stroke="#bfbfbf" points="342.5,-56.5 342.5,-75.5 419.5,-75.5 419.5,-56.5 342.5,-56.5"/>
<text text-anchor="middle" x="381" y="-63.5" font-family="Helvetica,sans-Serif" font-size="10.00">half/half.hpp</text>
</a>
</g>
</g>
<!-- Node38&#45;&gt;Node39 -->
<g id="edge65" class="edge">
<title>Node38&#45;&gt;Node39</title>
<path fill="none" stroke="midnightblue" d="M386.84,-112.08C385.92,-104.93 384.58,-94.64 383.42,-85.69"/>
<polygon fill="midnightblue" stroke="midnightblue" points="386.89,-85.22 382.13,-75.75 379.95,-86.12 386.89,-85.22"/>
</g>
<!-- Node40&#45;&gt;Node3 -->
<g id="edge67" class="edge">
<title>Node40&#45;&gt;Node3</title>
<path fill="none" stroke="midnightblue" d="M494.57,-403.32C505.42,-395.18 521.88,-382.84 534.88,-373.09"/>
<polygon fill="midnightblue" stroke="midnightblue" points="537.32,-375.63 543.22,-366.83 533.12,-370.03 537.32,-375.63"/>
</g>
<!-- Node40&#45;&gt;Node28 -->
<g id="edge70" class="edge">
<title>Node40&#45;&gt;Node28</title>
<path fill="none" stroke="midnightblue" d="M441.25,-411.97C368.2,-410.94 221.88,-404.15 190,-367 162.72,-335.21 175.92,-281.54 185.7,-253.43"/>
<polygon fill="midnightblue" stroke="midnightblue" points="189.12,-254.29 189.32,-243.7 182.55,-251.86 189.12,-254.29"/>
</g>
<!-- Node40&#45;&gt;Node33 -->
<g id="edge68" class="edge">
<title>Node40&#45;&gt;Node33</title>
<path fill="none" stroke="midnightblue" d="M441.42,-409.27C364.45,-403.73 202.98,-389.74 152,-367 126.78,-355.75 103.31,-334.38 87.81,-318.1"/>
<polygon fill="midnightblue" stroke="midnightblue" points="90.23,-315.56 80.87,-310.59 85.09,-320.31 90.23,-315.56"/>
</g>
<!-- Node40&#45;&gt;Node35 -->
<g id="edge69" class="edge">
<title>Node40&#45;&gt;Node35</title>
<path fill="none" stroke="midnightblue" d="M516.33,-403.47C566.91,-390.62 666.17,-365.81 751,-347 818.13,-332.11 895.78,-316.78 946.72,-306.97"/>
<polygon fill="midnightblue" stroke="midnightblue" points="947.38,-310.41 956.54,-305.09 946.06,-303.54 947.38,-310.41"/>
</g>
<!-- Node41&#45;&gt;Node3 -->
<g id="edge72" class="edge">
<title>Node41&#45;&gt;Node3</title>
<path fill="none" stroke="midnightblue" d="M579.21,-403.08C575.24,-395.69 569.47,-384.95 564.57,-375.81"/>
<polygon fill="midnightblue" stroke="midnightblue" points="567.51,-373.91 559.7,-366.75 561.35,-377.22 567.51,-373.91"/>
</g>
<!-- Node41&#45;&gt;Node28 -->
<g id="edge74" class="edge">
<title>Node41&#45;&gt;Node28</title>
<path fill="none" stroke="midnightblue" d="M545.93,-403.48C457.78,-383.45 245.32,-333.41 221,-311 204.8,-296.07 197.94,-270.95 195.06,-253.7"/>
<polygon fill="midnightblue" stroke="midnightblue" points="198.51,-253.12 193.68,-243.69 191.58,-254.07 198.51,-253.12"/>
</g>
<!-- Node41&#45;&gt;Node35 -->
<g id="edge73" class="edge">
<title>Node41&#45;&gt;Node35</title>
<path fill="none" stroke="midnightblue" d="M615.08,-403.41C689.45,-382.86 877.71,-330.84 961.13,-307.79"/>
<polygon fill="midnightblue" stroke="midnightblue" points="962.3,-311.1 971,-305.06 960.43,-304.35 962.3,-311.1"/>
</g>
<!-- Node42&#45;&gt;Node11 -->
<g id="edge84" class="edge">
<title>Node42&#45;&gt;Node11</title>
<path fill="none" stroke="midnightblue" d="M1275.11,-233.14C1356.43,-231.8 1489.86,-223.98 1521,-188 1565.37,-136.73 1489.04,-58.87 1452.19,-26.23"/>
<polygon fill="midnightblue" stroke="midnightblue" points="1454.43,-23.54 1444.58,-19.64 1449.84,-28.83 1454.43,-23.54"/>
</g>
<!-- Node42&#45;&gt;Node12 -->
<g id="edge80" class="edge">
<title>Node42&#45;&gt;Node12</title>
<path fill="none" stroke="midnightblue" d="M1203.7,-224.25C1184.78,-202.12 1131.65,-143.43 1075,-112 1045.64,-95.71 1009.75,-84.75 980.12,-77.73"/>
<polygon fill="midnightblue" stroke="midnightblue" points="980.85,-74.31 970.33,-75.5 979.3,-81.14 980.85,-74.31"/>
</g>
<!-- Node42&#45;&gt;Node15 -->
<g id="edge78" class="edge">
<title>Node42&#45;&gt;Node15</title>
<path fill="none" stroke="midnightblue" d="M1165.21,-224.44C1114.26,-214.92 1031.97,-199.55 977.43,-189.36"/>
<polygon fill="midnightblue" stroke="midnightblue" points="978.05,-185.91 967.58,-187.52 976.77,-192.79 978.05,-185.91"/>
</g>
<!-- Node42&#45;&gt;Node19 -->
<g id="edge79" class="edge">
<title>Node42&#45;&gt;Node19</title>
<path fill="none" stroke="midnightblue" d="M1197.03,-224.37C1166.36,-205.41 1092.87,-160 1055.56,-136.94"/>
<polygon fill="midnightblue" stroke="midnightblue" points="1057.25,-133.87 1046.9,-131.59 1053.57,-139.83 1057.25,-133.87"/>
</g>
<!-- Node42&#45;&gt;Node24 -->
<g id="edge76" class="edge">
<title>Node42&#45;&gt;Node24</title>
<path fill="none" stroke="midnightblue" d="M1215.54,-224.36C1224.32,-207.26 1243.59,-167.62 1253,-132 1257.04,-116.7 1259.05,-98.81 1260.05,-85.68"/>
<polygon fill="midnightblue" stroke="midnightblue" points="1263.55,-85.75 1260.69,-75.55 1256.56,-85.31 1263.55,-85.75"/>
</g>
<!-- Node42&#45;&gt;Node26 -->
<g id="edge83" class="edge">
<title>Node42&#45;&gt;Node26</title>
<path fill="none" stroke="midnightblue" d="M1211.58,-224.16C1212.43,-211.65 1214.11,-188.06 1216,-168 1216.81,-159.38 1217.85,-149.85 1218.77,-141.79"/>
<polygon fill="midnightblue" stroke="midnightblue" points="1222.27,-141.96 1219.95,-131.62 1215.32,-141.15 1222.27,-141.96"/>
</g>
<!-- Node43 -->
<g id="node43" class="node">
<title>Node43</title>
<g id="a_node43"><a xlink:href="_descriptors_fwd_8hpp.html" target="_top" xlink:title=" ">
<polygon fill="white" stroke="black" points="1258.5,-168.5 1258.5,-187.5 1371.5,-187.5 1371.5,-168.5 1258.5,-168.5"/>
<text text-anchor="middle" x="1315" y="-175.5" font-family="Helvetica,sans-Serif" font-size="10.00">DescriptorsFwd.hpp</text>
</a>
</g>
</g>
<!-- Node42&#45;&gt;Node43 -->
<g id="edge77" class="edge">
<title>Node42&#45;&gt;Node43</title>
<path fill="none" stroke="midnightblue" d="M1227.71,-224.32C1244.31,-215.7 1270,-202.36 1289.22,-192.39"/>
<polygon fill="midnightblue" stroke="midnightblue" points="1291.07,-195.37 1298.33,-187.65 1287.84,-189.16 1291.07,-195.37"/>
</g>
<!-- Node44 -->
<g id="node44" class="node">
<title>Node44</title>
<g id="a_node44"><a xlink:title=" ">
<polygon fill="white" stroke="#bfbfbf" points="1390,-168.5 1390,-187.5 1440,-187.5 1440,-168.5 1390,-168.5"/>
<text text-anchor="middle" x="1415" y="-175.5" font-family="Helvetica,sans-Serif" font-size="10.00">cstdint</text>
</a>
</g>
</g>
<!-- Node42&#45;&gt;Node44 -->
<g id="edge81" class="edge">
<title>Node42&#45;&gt;Node44</title>
<path fill="none" stroke="midnightblue" d="M1243.32,-224.44C1280.66,-214.56 1341.85,-198.36 1380.2,-188.21"/>
<polygon fill="midnightblue" stroke="midnightblue" points="1381.13,-191.59 1389.9,-185.64 1379.34,-184.82 1381.13,-191.59"/>
</g>
<!-- Node45 -->
<g id="node45" class="node">
<title>Node45</title>
<g id="a_node45"><a xlink:title=" ">
<polygon fill="white" stroke="#bfbfbf" points="1458.5,-168.5 1458.5,-187.5 1511.5,-187.5 1511.5,-168.5 1458.5,-168.5"/>
<text text-anchor="middle" x="1485" y="-175.5" font-family="Helvetica,sans-Serif" font-size="10.00">iterator</text>
</a>
</g>
</g>
<!-- Node42&#45;&gt;Node45 -->
<g id="edge82" class="edge">
<title>Node42&#45;&gt;Node45</title>
<path fill="none" stroke="midnightblue" d="M1260.86,-224.44C1306.96,-216.33 1377.61,-203.42 1448.33,-188.04"/>
<polygon fill="midnightblue" stroke="midnightblue" points="1449.28,-191.42 1458.3,-185.86 1447.79,-184.58 1449.28,-191.42"/>
</g>
<!-- Node46&#45;&gt;Node15 -->
<g id="edge87" class="edge">
<title>Node46&#45;&gt;Node15</title>
<path fill="none" stroke="midnightblue" d="M823.04,-285.82C840.86,-266.59 883.89,-220.14 906.89,-195.31"/>
<polygon fill="midnightblue" stroke="midnightblue" points="909.64,-197.5 913.86,-187.78 904.5,-192.74 909.64,-197.5"/>
</g>
<!-- Node46&#45;&gt;Node19 -->
<g id="edge86" class="edge">
<title>Node46&#45;&gt;Node19</title>
<path fill="none" stroke="midnightblue" d="M832.57,-285.99C864.75,-269.87 934.29,-232.48 983,-188 998.55,-173.8 1012.82,-154.32 1022.1,-140.39"/>
<polygon fill="midnightblue" stroke="midnightblue" points="1025.18,-142.07 1027.68,-131.77 1019.3,-138.26 1025.18,-142.07"/>
</g>
<!-- Node46&#45;&gt;Node28 -->
<g id="edge88" class="edge">
<title>Node46&#45;&gt;Node28</title>
<path fill="none" stroke="midnightblue" d="M725.88,-285.98C603.77,-274.29 386.42,-253.5 270.64,-242.43"/>
<polygon fill="midnightblue" stroke="midnightblue" points="270.72,-238.92 260.44,-241.45 270.06,-245.89 270.72,-238.92"/>
</g>
</g>
</svg>
