<?xml version="1.0" encoding="UTF-8" standalone="no"?>
<!DOCTYPE svg PUBLIC "-//W3C//DTD SVG 1.1//EN"
 "http://www.w3.org/Graphics/SVG/1.1/DTD/svg11.dtd">
<!-- Generated by graphviz version 2.43.0 (0)
 -->
<!-- Title: src/backends/cl/workloads/ClConvolution2dWorkload.hpp Pages: 1 -->
<svg width="728pt" height="173pt"
 viewBox="0.00 0.00 728.00 173.00" xmlns="http://www.w3.org/2000/svg" xmlns:xlink="http://www.w3.org/1999/xlink">
<g id="graph0" class="graph" transform="scale(1 1) rotate(0) translate(4 169)">
<title>src/backends/cl/workloads/ClConvolution2dWorkload.hpp</title>
<polygon fill="white" stroke="transparent" points="-4,4 -4,-169 724,-169 724,4 -4,4"/>
<!-- Node1 -->
<g id="node1" class="node">
<title>Node1</title>
<g id="a_node1"><a xlink:title=" ">
<polygon fill="#bfbfbf" stroke="black" points="291,-134.5 291,-164.5 458,-164.5 458,-134.5 291,-134.5"/>
<text text-anchor="start" x="299" y="-152.5" font-family="Helvetica,sans-Serif" font-size="10.00">src/backends/cl/workloads</text>
<text text-anchor="middle" x="374.5" y="-141.5" font-family="Helvetica,sans-Serif" font-size="10.00">/ClConvolution2dWorkload.hpp</text>
</a>
</g>
</g>
<!-- Node2 -->
<g id="node2" class="node">
<title>Node2</title>
<g id="a_node2"><a xlink:href="_cl_backend_8cpp.html" target="_top" xlink:title=" ">
<polygon fill="white" stroke="black" points="0,-73 0,-92 165,-92 165,-73 0,-73"/>
<text text-anchor="middle" x="82.5" y="-80" font-family="Helvetica,sans-Serif" font-size="10.00">src/backends/cl/ClBackend.cpp</text>
</a>
</g>
</g>
<!-- Node1&#45;&gt;Node2 -->
<g id="edge1" class="edge">
<title>Node1&#45;&gt;Node2</title>
<path fill="none" stroke="midnightblue" d="M301.4,-132.23C244.07,-119.47 166.56,-102.21 120.81,-92.03"/>
<polygon fill="midnightblue" stroke="midnightblue" points="300.98,-135.72 311.5,-134.48 302.5,-128.89 300.98,-135.72"/>
</g>
<!-- Node3 -->
<g id="node3" class="node">
<title>Node3</title>
<g id="a_node3"><a xlink:href="_cl_layer_support_8cpp.html" target="_top" xlink:title=" ">
<polygon fill="white" stroke="black" points="183.5,-73 183.5,-92 371.5,-92 371.5,-73 183.5,-73"/>
<text text-anchor="middle" x="277.5" y="-80" font-family="Helvetica,sans-Serif" font-size="10.00">src/backends/cl/ClLayerSupport.cpp</text>
</a>
</g>
</g>
<!-- Node1&#45;&gt;Node3 -->
<g id="edge2" class="edge">
<title>Node1&#45;&gt;Node3</title>
<path fill="none" stroke="midnightblue" d="M344.86,-128.64C326.56,-116.37 304.01,-101.26 290.2,-92.01"/>
<polygon fill="midnightblue" stroke="midnightblue" points="343.2,-131.74 353.45,-134.4 347.09,-125.92 343.2,-131.74"/>
</g>
<!-- Node4 -->
<g id="node4" class="node">
<title>Node4</title>
<g id="a_node4"><a xlink:href="_cl_convolution2d_workload_8cpp.html" target="_top" xlink:title=" ">
<polygon fill="white" stroke="black" points="389.5,-67.5 389.5,-97.5 555.5,-97.5 555.5,-67.5 389.5,-67.5"/>
<text text-anchor="start" x="397.5" y="-85.5" font-family="Helvetica,sans-Serif" font-size="10.00">src/backends/cl/workloads</text>
<text text-anchor="middle" x="472.5" y="-74.5" font-family="Helvetica,sans-Serif" font-size="10.00">/ClConvolution2dWorkload.cpp</text>
</a>
</g>
</g>
<!-- Node1&#45;&gt;Node4 -->
<g id="edge3" class="edge">
<title>Node1&#45;&gt;Node4</title>
<path fill="none" stroke="midnightblue" d="M404.3,-128.73C419.47,-118.68 437.54,-106.68 451.28,-97.58"/>
<polygon fill="midnightblue" stroke="midnightblue" points="402.16,-125.95 395.76,-134.4 406.03,-131.79 402.16,-125.95"/>
</g>
<!-- Node5 -->
<g id="node5" class="node">
<title>Node5</title>
<g id="a_node5"><a xlink:href="_cl_workloads_8hpp.html" target="_top" xlink:title=" ">
<polygon fill="white" stroke="black" points="573.5,-67.5 573.5,-97.5 717.5,-97.5 717.5,-67.5 573.5,-67.5"/>
<text text-anchor="start" x="581.5" y="-85.5" font-family="Helvetica,sans-Serif" font-size="10.00">src/backends/cl/workloads</text>
<text text-anchor="middle" x="645.5" y="-74.5" font-family="Helvetica,sans-Serif" font-size="10.00">/ClWorkloads.hpp</text>
</a>
</g>
</g>
<!-- Node1&#45;&gt;Node5 -->
<g id="edge4" class="edge">
<title>Node1&#45;&gt;Node5</title>
<path fill="none" stroke="midnightblue" d="M442.8,-132.12C487.14,-121.48 544.34,-107.76 586.67,-97.61"/>
<polygon fill="midnightblue" stroke="midnightblue" points="441.88,-128.74 432.97,-134.48 443.51,-135.55 441.88,-128.74"/>
</g>
<!-- Node6 -->
<g id="node6" class="node">
<title>Node6</title>
<g id="a_node6"><a xlink:href="_cl_workload_factory_8cpp.html" target="_top" xlink:title=" ">
<polygon fill="white" stroke="black" points="571,-0.5 571,-30.5 720,-30.5 720,-0.5 571,-0.5"/>
<text text-anchor="start" x="579" y="-18.5" font-family="Helvetica,sans-Serif" font-size="10.00">src/backends/cl/ClWorkload</text>
<text text-anchor="middle" x="645.5" y="-7.5" font-family="Helvetica,sans-Serif" font-size="10.00">Factory.cpp</text>
</a>
</g>
</g>
<!-- Node5&#45;&gt;Node6 -->
<g id="edge5" class="edge">
<title>Node5&#45;&gt;Node6</title>
<path fill="none" stroke="midnightblue" d="M645.5,-57.11C645.5,-48.15 645.5,-38.32 645.5,-30.58"/>
<polygon fill="midnightblue" stroke="midnightblue" points="642,-57.4 645.5,-67.4 649,-57.4 642,-57.4"/>
</g>
</g>
</svg>
