<?xml version="1.0" encoding="UTF-8" standalone="no"?>
<!DOCTYPE svg PUBLIC "-//W3C//DTD SVG 1.1//EN"
 "http://www.w3.org/Graphics/SVG/1.1/DTD/svg11.dtd">
<!-- Generated by graphviz version 2.43.0 (0)
 -->
<!-- Title: src/backends/backendsCommon/memoryOptimizerStrategyLibrary/strategies/ConstantMemoryStrategy.cpp Pages: 1 -->
<svg width="644pt" height="341pt"
 viewBox="0.00 0.00 643.50 341.00" xmlns="http://www.w3.org/2000/svg" xmlns:xlink="http://www.w3.org/1999/xlink">
<g id="graph0" class="graph" transform="scale(1 1) rotate(0) translate(4 337)">
<title>src/backends/backendsCommon/memoryOptimizerStrategyLibrary/strategies/ConstantMemoryStrategy.cpp</title>
<polygon fill="white" stroke="transparent" points="-4,4 -4,-337 639.5,-337 639.5,4 -4,4"/>
<!-- Node1 -->
<g id="node1" class="node">
<title>Node1</title>
<g id="a_node1"><a xlink:title=" ">
<polygon fill="#bfbfbf" stroke="black" points="132.5,-291.5 132.5,-332.5 347.5,-332.5 347.5,-291.5 132.5,-291.5"/>
<text text-anchor="start" x="140.5" y="-320.5" font-family="Helvetica,sans-Serif" font-size="10.00">src/backends/backendsCommon</text>
<text text-anchor="start" x="140.5" y="-309.5" font-family="Helvetica,sans-Serif" font-size="10.00">/memoryOptimizerStrategyLibrary</text>
<text text-anchor="middle" x="240" y="-298.5" font-family="Helvetica,sans-Serif" font-size="10.00">/strategies/ConstantMemoryStrategy.cpp</text>
</a>
</g>
</g>
<!-- Node2 -->
<g id="node2" class="node">
<title>Node2</title>
<g id="a_node2"><a xlink:href="_constant_memory_strategy_8hpp.html" target="_top" xlink:title=" ">
<polygon fill="white" stroke="black" points="159.5,-235.5 159.5,-254.5 320.5,-254.5 320.5,-235.5 159.5,-235.5"/>
<text text-anchor="middle" x="240" y="-242.5" font-family="Helvetica,sans-Serif" font-size="10.00">ConstantMemoryStrategy.hpp</text>
</a>
</g>
</g>
<!-- Node1&#45;&gt;Node2 -->
<g id="edge1" class="edge">
<title>Node1&#45;&gt;Node2</title>
<path fill="none" stroke="midnightblue" d="M240,-291.5C240,-283.07 240,-273.24 240,-264.87"/>
<polygon fill="midnightblue" stroke="midnightblue" points="243.5,-264.65 240,-254.65 236.5,-264.65 243.5,-264.65"/>
</g>
<!-- Node3 -->
<g id="node3" class="node">
<title>Node3</title>
<g id="a_node3"><a xlink:href="_types_8hpp.html" target="_top" xlink:title=" ">
<polygon fill="white" stroke="black" points="190,-112.5 190,-131.5 290,-131.5 290,-112.5 190,-112.5"/>
<text text-anchor="middle" x="240" y="-119.5" font-family="Helvetica,sans-Serif" font-size="10.00">armnn/Types.hpp</text>
</a>
</g>
</g>
<!-- Node2&#45;&gt;Node3 -->
<g id="edge2" class="edge">
<title>Node2&#45;&gt;Node3</title>
<path fill="none" stroke="midnightblue" d="M227.5,-235.3C217.13,-227.25 203.11,-214.24 197,-199 191.87,-186.21 191.87,-180.79 197,-168 201.68,-156.33 210.99,-145.97 219.76,-138.14"/>
<polygon fill="midnightblue" stroke="midnightblue" points="222.05,-140.78 227.5,-131.7 217.58,-135.4 222.05,-140.78"/>
</g>
<!-- Node19 -->
<g id="node19" class="node">
<title>Node19</title>
<g id="a_node19"><a xlink:href="_i_memory_optimizer_strategy_8hpp.html" target="_top" xlink:title=" ">
<polygon fill="white" stroke="black" points="206.5,-168.5 206.5,-198.5 397.5,-198.5 397.5,-168.5 206.5,-168.5"/>
<text text-anchor="start" x="214.5" y="-186.5" font-family="Helvetica,sans-Serif" font-size="10.00">armnn/backends/IMemoryOptimizer</text>
<text text-anchor="middle" x="302" y="-175.5" font-family="Helvetica,sans-Serif" font-size="10.00">Strategy.hpp</text>
</a>
</g>
</g>
<!-- Node2&#45;&gt;Node19 -->
<g id="edge19" class="edge">
<title>Node2&#45;&gt;Node19</title>
<path fill="none" stroke="midnightblue" d="M248.88,-235.48C256.97,-227.72 269.24,-215.94 279.95,-205.66"/>
<polygon fill="midnightblue" stroke="midnightblue" points="282.6,-207.97 287.39,-198.52 277.75,-202.92 282.6,-207.97"/>
</g>
<!-- Node4 -->
<g id="node4" class="node">
<title>Node4</title>
<g id="a_node4"><a xlink:title=" ">
<polygon fill="white" stroke="#bfbfbf" points="0,-56.5 0,-75.5 42,-75.5 42,-56.5 0,-56.5"/>
<text text-anchor="middle" x="21" y="-63.5" font-family="Helvetica,sans-Serif" font-size="10.00">array</text>
</a>
</g>
</g>
<!-- Node3&#45;&gt;Node4 -->
<g id="edge3" class="edge">
<title>Node3&#45;&gt;Node4</title>
<path fill="none" stroke="midnightblue" d="M201.1,-112.43C164.87,-104.29 109.14,-91.39 52.16,-76.2"/>
<polygon fill="midnightblue" stroke="midnightblue" points="52.83,-72.76 42.26,-73.54 51.01,-79.52 52.83,-72.76"/>
</g>
<!-- Node5 -->
<g id="node5" class="node">
<title>Node5</title>
<g id="a_node5"><a xlink:title=" ">
<polygon fill="white" stroke="#bfbfbf" points="60.5,-56.5 60.5,-75.5 125.5,-75.5 125.5,-56.5 60.5,-56.5"/>
<text text-anchor="middle" x="93" y="-63.5" font-family="Helvetica,sans-Serif" font-size="10.00">functional</text>
</a>
</g>
</g>
<!-- Node3&#45;&gt;Node5 -->
<g id="edge4" class="edge">
<title>Node3&#45;&gt;Node5</title>
<path fill="none" stroke="midnightblue" d="M216.71,-112.44C192.19,-103.44 153.4,-89.19 125.8,-79.05"/>
<polygon fill="midnightblue" stroke="midnightblue" points="126.78,-75.68 116.18,-75.52 124.36,-82.25 126.78,-75.68"/>
</g>
<!-- Node6 -->
<g id="node6" class="node">
<title>Node6</title>
<g id="a_node6"><a xlink:title=" ">
<polygon fill="white" stroke="#bfbfbf" points="143.5,-56.5 143.5,-75.5 196.5,-75.5 196.5,-56.5 143.5,-56.5"/>
<text text-anchor="middle" x="170" y="-63.5" font-family="Helvetica,sans-Serif" font-size="10.00">stdint.h</text>
</a>
</g>
</g>
<!-- Node3&#45;&gt;Node6 -->
<g id="edge5" class="edge">
<title>Node3&#45;&gt;Node6</title>
<path fill="none" stroke="midnightblue" d="M228.75,-112.32C218.2,-104.18 202.2,-91.84 189.56,-82.09"/>
<polygon fill="midnightblue" stroke="midnightblue" points="191.51,-79.17 181.45,-75.83 187.23,-84.71 191.51,-79.17"/>
</g>
<!-- Node7 -->
<g id="node7" class="node">
<title>Node7</title>
<g id="a_node7"><a xlink:title=" ">
<polygon fill="white" stroke="#bfbfbf" points="215,-56.5 215,-75.5 265,-75.5 265,-56.5 215,-56.5"/>
<text text-anchor="middle" x="240" y="-63.5" font-family="Helvetica,sans-Serif" font-size="10.00">chrono</text>
</a>
</g>
</g>
<!-- Node3&#45;&gt;Node7 -->
<g id="edge6" class="edge">
<title>Node3&#45;&gt;Node7</title>
<path fill="none" stroke="midnightblue" d="M240,-112.08C240,-105.01 240,-94.86 240,-85.99"/>
<polygon fill="midnightblue" stroke="midnightblue" points="243.5,-85.75 240,-75.75 236.5,-85.75 243.5,-85.75"/>
</g>
<!-- Node8 -->
<g id="node8" class="node">
<title>Node8</title>
<g id="a_node8"><a xlink:href="_backend_id_8hpp.html" target="_top" xlink:title=" ">
<polygon fill="white" stroke="black" points="283,-56.5 283,-75.5 371,-75.5 371,-56.5 283,-56.5"/>
<text text-anchor="middle" x="327" y="-63.5" font-family="Helvetica,sans-Serif" font-size="10.00">BackendId.hpp</text>
</a>
</g>
</g>
<!-- Node3&#45;&gt;Node8 -->
<g id="edge7" class="edge">
<title>Node3&#45;&gt;Node8</title>
<path fill="none" stroke="midnightblue" d="M253.98,-112.32C267.55,-103.9 288.38,-90.97 304.32,-81.07"/>
<polygon fill="midnightblue" stroke="midnightblue" points="306.41,-83.9 313.06,-75.65 302.71,-77.95 306.41,-83.9"/>
</g>
<!-- Node15 -->
<g id="node15" class="node">
<title>Node15</title>
<g id="a_node15"><a xlink:href="_exceptions_8hpp.html" target="_top" xlink:title=" ">
<polygon fill="white" stroke="black" points="410.5,-56.5 410.5,-75.5 501.5,-75.5 501.5,-56.5 410.5,-56.5"/>
<text text-anchor="middle" x="456" y="-63.5" font-family="Helvetica,sans-Serif" font-size="10.00">Exceptions.hpp</text>
</a>
</g>
</g>
<!-- Node3&#45;&gt;Node15 -->
<g id="edge14" class="edge">
<title>Node3&#45;&gt;Node15</title>
<path fill="none" stroke="midnightblue" d="M274.23,-112.44C311.51,-103.12 371.27,-88.18 412.01,-78"/>
<polygon fill="midnightblue" stroke="midnightblue" points="413.08,-81.34 421.93,-75.52 411.38,-74.55 413.08,-81.34"/>
</g>
<!-- Node18 -->
<g id="node18" class="node">
<title>Node18</title>
<g id="a_node18"><a xlink:href="_deprecated_8hpp.html" target="_top" xlink:title=" ">
<polygon fill="white" stroke="black" points="520,-56.5 520,-75.5 614,-75.5 614,-56.5 520,-56.5"/>
<text text-anchor="middle" x="567" y="-63.5" font-family="Helvetica,sans-Serif" font-size="10.00">Deprecated.hpp</text>
</a>
</g>
</g>
<!-- Node3&#45;&gt;Node18 -->
<g id="edge18" class="edge">
<title>Node3&#45;&gt;Node18</title>
<path fill="none" stroke="midnightblue" d="M290.02,-112.74C349.25,-102.96 447.69,-86.7 509.87,-76.43"/>
<polygon fill="midnightblue" stroke="midnightblue" points="510.61,-79.86 519.9,-74.78 509.47,-72.95 510.61,-79.86"/>
</g>
<!-- Node9 -->
<g id="node9" class="node">
<title>Node9</title>
<g id="a_node9"><a xlink:title=" ">
<polygon fill="white" stroke="#bfbfbf" points="62,-0.5 62,-19.5 120,-19.5 120,-0.5 62,-0.5"/>
<text text-anchor="middle" x="91" y="-7.5" font-family="Helvetica,sans-Serif" font-size="10.00">memory</text>
</a>
</g>
</g>
<!-- Node8&#45;&gt;Node9 -->
<g id="edge8" class="edge">
<title>Node8&#45;&gt;Node9</title>
<path fill="none" stroke="midnightblue" d="M289.02,-56.48C251.17,-47.96 191.12,-34.38 129.88,-20.19"/>
<polygon fill="midnightblue" stroke="midnightblue" points="130.57,-16.76 120.04,-17.91 128.99,-23.58 130.57,-16.76"/>
</g>
<!-- Node10 -->
<g id="node10" class="node">
<title>Node10</title>
<g id="a_node10"><a xlink:title=" ">
<polygon fill="white" stroke="#bfbfbf" points="138.5,-0.5 138.5,-19.5 195.5,-19.5 195.5,-0.5 138.5,-0.5"/>
<text text-anchor="middle" x="167" y="-7.5" font-family="Helvetica,sans-Serif" font-size="10.00">ostream</text>
</a>
</g>
</g>
<!-- Node8&#45;&gt;Node10 -->
<g id="edge9" class="edge">
<title>Node8&#45;&gt;Node10</title>
<path fill="none" stroke="midnightblue" d="M301.65,-56.44C274.73,-47.36 232,-32.94 201.91,-22.78"/>
<polygon fill="midnightblue" stroke="midnightblue" points="202.83,-19.4 192.23,-19.52 200.59,-26.03 202.83,-19.4"/>
</g>
<!-- Node11 -->
<g id="node11" class="node">
<title>Node11</title>
<g id="a_node11"><a xlink:title=" ">
<polygon fill="white" stroke="#bfbfbf" points="214,-0.5 214,-19.5 246,-19.5 246,-0.5 214,-0.5"/>
<text text-anchor="middle" x="230" y="-7.5" font-family="Helvetica,sans-Serif" font-size="10.00">set</text>
</a>
</g>
</g>
<!-- Node8&#45;&gt;Node11 -->
<g id="edge10" class="edge">
<title>Node8&#45;&gt;Node11</title>
<path fill="none" stroke="midnightblue" d="M311.42,-56.32C296,-47.74 272.19,-34.49 254.29,-24.52"/>
<polygon fill="midnightblue" stroke="midnightblue" points="255.99,-21.46 245.55,-19.65 252.58,-27.58 255.99,-21.46"/>
</g>
<!-- Node12 -->
<g id="node12" class="node">
<title>Node12</title>
<g id="a_node12"><a xlink:title=" ">
<polygon fill="white" stroke="#bfbfbf" points="434,-0.5 434,-19.5 478,-19.5 478,-0.5 434,-0.5"/>
<text text-anchor="middle" x="456" y="-7.5" font-family="Helvetica,sans-Serif" font-size="10.00">string</text>
</a>
</g>
</g>
<!-- Node8&#45;&gt;Node12 -->
<g id="edge11" class="edge">
<title>Node8&#45;&gt;Node12</title>
<path fill="none" stroke="midnightblue" d="M347.44,-56.44C368.67,-47.56 402.1,-33.56 426.25,-23.45"/>
<polygon fill="midnightblue" stroke="midnightblue" points="427.78,-26.61 435.66,-19.52 425.08,-20.15 427.78,-26.61"/>
</g>
<!-- Node13 -->
<g id="node13" class="node">
<title>Node13</title>
<g id="a_node13"><a xlink:title=" ">
<polygon fill="white" stroke="#bfbfbf" points="264,-0.5 264,-19.5 350,-19.5 350,-0.5 264,-0.5"/>
<text text-anchor="middle" x="307" y="-7.5" font-family="Helvetica,sans-Serif" font-size="10.00">unordered_set</text>
</a>
</g>
</g>
<!-- Node8&#45;&gt;Node13 -->
<g id="edge12" class="edge">
<title>Node8&#45;&gt;Node13</title>
<path fill="none" stroke="midnightblue" d="M323.7,-56.08C321.02,-48.85 317.15,-38.41 313.81,-29.4"/>
<polygon fill="midnightblue" stroke="midnightblue" points="317,-27.91 310.24,-19.75 310.43,-30.34 317,-27.91"/>
</g>
<!-- Node14 -->
<g id="node14" class="node">
<title>Node14</title>
<g id="a_node14"><a xlink:title=" ">
<polygon fill="white" stroke="#bfbfbf" points="368.5,-0.5 368.5,-19.5 415.5,-19.5 415.5,-0.5 368.5,-0.5"/>
<text text-anchor="middle" x="392" y="-7.5" font-family="Helvetica,sans-Serif" font-size="10.00">vector</text>
</a>
</g>
</g>
<!-- Node8&#45;&gt;Node14 -->
<g id="edge13" class="edge">
<title>Node8&#45;&gt;Node14</title>
<path fill="none" stroke="midnightblue" d="M337.44,-56.32C347.15,-48.26 361.82,-36.08 373.5,-26.37"/>
<polygon fill="midnightblue" stroke="midnightblue" points="375.91,-28.92 381.37,-19.83 371.44,-23.53 375.91,-28.92"/>
</g>
<!-- Node15&#45;&gt;Node12 -->
<g id="edge17" class="edge">
<title>Node15&#45;&gt;Node12</title>
<path fill="none" stroke="midnightblue" d="M456,-56.08C456,-49.01 456,-38.86 456,-29.99"/>
<polygon fill="midnightblue" stroke="midnightblue" points="459.5,-29.75 456,-19.75 452.5,-29.75 459.5,-29.75"/>
</g>
<!-- Node16 -->
<g id="node16" class="node">
<title>Node16</title>
<g id="a_node16"><a xlink:title=" ">
<polygon fill="white" stroke="#bfbfbf" points="496,-0.5 496,-19.5 552,-19.5 552,-0.5 496,-0.5"/>
<text text-anchor="middle" x="524" y="-7.5" font-family="Helvetica,sans-Serif" font-size="10.00">sstream</text>
</a>
</g>
</g>
<!-- Node15&#45;&gt;Node16 -->
<g id="edge15" class="edge">
<title>Node15&#45;&gt;Node16</title>
<path fill="none" stroke="midnightblue" d="M466.93,-56.32C477.17,-48.18 492.72,-35.84 505,-26.09"/>
<polygon fill="midnightblue" stroke="midnightblue" points="507.22,-28.79 512.88,-19.83 502.87,-23.31 507.22,-28.79"/>
</g>
<!-- Node17 -->
<g id="node17" class="node">
<title>Node17</title>
<g id="a_node17"><a xlink:title=" ">
<polygon fill="white" stroke="#bfbfbf" points="570.5,-0.5 570.5,-19.5 635.5,-19.5 635.5,-0.5 570.5,-0.5"/>
<text text-anchor="middle" x="603" y="-7.5" font-family="Helvetica,sans-Serif" font-size="10.00">stdexcept</text>
</a>
</g>
</g>
<!-- Node15&#45;&gt;Node17 -->
<g id="edge16" class="edge">
<title>Node15&#45;&gt;Node17</title>
<path fill="none" stroke="midnightblue" d="M479.29,-56.44C503.81,-47.44 542.6,-33.19 570.2,-23.05"/>
<polygon fill="midnightblue" stroke="midnightblue" points="571.64,-26.25 579.82,-19.52 569.22,-19.68 571.64,-26.25"/>
</g>
<!-- Node19&#45;&gt;Node3 -->
<g id="edge20" class="edge">
<title>Node19&#45;&gt;Node3</title>
<path fill="none" stroke="midnightblue" d="M287.31,-168.4C278.02,-159.49 266,-147.95 256.4,-138.74"/>
<polygon fill="midnightblue" stroke="midnightblue" points="258.66,-136.06 249.02,-131.66 253.81,-141.11 258.66,-136.06"/>
</g>
</g>
</svg>
