<?xml version="1.0" encoding="UTF-8" standalone="no"?>
<!DOCTYPE svg PUBLIC "-//W3C//DTD SVG 1.1//EN"
 "http://www.w3.org/Graphics/SVG/1.1/DTD/svg11.dtd">
<!-- Generated by graphviz version 2.43.0 (0)
 -->
<!-- Title: src/backends/reference/workloads/Gather.hpp Pages: 1 -->
<svg width="1192pt" height="498pt"
 viewBox="0.00 0.00 1192.31 498.00" xmlns="http://www.w3.org/2000/svg" xmlns:xlink="http://www.w3.org/1999/xlink">
<g id="graph0" class="graph" transform="scale(1 1) rotate(0) translate(4 494)">
<title>src/backends/reference/workloads/Gather.hpp</title>
<polygon fill="white" stroke="transparent" points="-4,4 -4,-494 1188.31,-494 1188.31,4 -4,4"/>
<!-- Node1 -->
<g id="node1" class="node">
<title>Node1</title>
<g id="a_node1"><a xlink:title=" ">
<polygon fill="#bfbfbf" stroke="black" points="581.5,-459.5 581.5,-489.5 710.5,-489.5 710.5,-459.5 581.5,-459.5"/>
<text text-anchor="start" x="589.5" y="-477.5" font-family="Helvetica,sans-Serif" font-size="10.00">src/backends/reference</text>
<text text-anchor="middle" x="646" y="-466.5" font-family="Helvetica,sans-Serif" font-size="10.00">/workloads/Gather.hpp</text>
</a>
</g>
</g>
<!-- Node2 -->
<g id="node2" class="node">
<title>Node2</title>
<g id="a_node2"><a xlink:href="_tensor_8hpp.html" target="_top" xlink:title=" ">
<polygon fill="white" stroke="black" points="807.5,-168.5 807.5,-187.5 910.5,-187.5 910.5,-168.5 807.5,-168.5"/>
<text text-anchor="middle" x="859" y="-175.5" font-family="Helvetica,sans-Serif" font-size="10.00">armnn/Tensor.hpp</text>
</a>
</g>
</g>
<!-- Node1&#45;&gt;Node2 -->
<g id="edge1" class="edge">
<title>Node1&#45;&gt;Node2</title>
<path fill="none" stroke="midnightblue" d="M710.51,-473.05C853.19,-470.32 1183,-453.66 1183,-358 1183,-358 1183,-358 1183,-294.5 1183,-262.05 1188.25,-245.57 1164,-224 1129.03,-192.89 999.48,-183.28 920.91,-180.32"/>
<polygon fill="midnightblue" stroke="midnightblue" points="920.76,-176.81 910.65,-179.96 920.52,-183.81 920.76,-176.81"/>
</g>
<!-- Node24 -->
<g id="node24" class="node">
<title>Node24</title>
<g id="a_node24"><a xlink:href="_base_iterator_8hpp.html" target="_top" xlink:title=" ">
<polygon fill="white" stroke="black" points="502.5,-347.5 502.5,-366.5 599.5,-366.5 599.5,-347.5 502.5,-347.5"/>
<text text-anchor="middle" x="551" y="-354.5" font-family="Helvetica,sans-Serif" font-size="10.00">BaseIterator.hpp</text>
</a>
</g>
</g>
<!-- Node1&#45;&gt;Node24 -->
<g id="edge29" class="edge">
<title>Node1&#45;&gt;Node24</title>
<path fill="none" stroke="midnightblue" d="M635.79,-459.45C625.17,-445.02 607.92,-422.04 592,-403 583.78,-393.17 574.15,-382.55 566.29,-374.11"/>
<polygon fill="midnightblue" stroke="midnightblue" points="568.79,-371.66 559.4,-366.76 563.69,-376.45 568.79,-371.66"/>
</g>
<!-- Node39 -->
<g id="node39" class="node">
<title>Node39</title>
<g id="a_node39"><a xlink:href="_decoders_8hpp.html" target="_top" xlink:title=" ">
<polygon fill="white" stroke="black" points="639.5,-403.5 639.5,-422.5 722.5,-422.5 722.5,-403.5 639.5,-403.5"/>
<text text-anchor="middle" x="681" y="-410.5" font-family="Helvetica,sans-Serif" font-size="10.00">Decoders.hpp</text>
</a>
</g>
</g>
<!-- Node1&#45;&gt;Node39 -->
<g id="edge66" class="edge">
<title>Node1&#45;&gt;Node39</title>
<path fill="none" stroke="midnightblue" d="M654.29,-459.4C659.22,-451.02 665.51,-440.33 670.75,-431.42"/>
<polygon fill="midnightblue" stroke="midnightblue" points="673.85,-433.05 675.91,-422.66 667.82,-429.5 673.85,-433.05"/>
</g>
<!-- Node40 -->
<g id="node40" class="node">
<title>Node40</title>
<g id="a_node40"><a xlink:href="_encoders_8hpp.html" target="_top" xlink:title=" ">
<polygon fill="white" stroke="black" points="501,-403.5 501,-422.5 583,-422.5 583,-403.5 501,-403.5"/>
<text text-anchor="middle" x="542" y="-410.5" font-family="Helvetica,sans-Serif" font-size="10.00">Encoders.hpp</text>
</a>
</g>
</g>
<!-- Node1&#45;&gt;Node40 -->
<g id="edge71" class="edge">
<title>Node1&#45;&gt;Node40</title>
<path fill="none" stroke="midnightblue" d="M621.35,-459.4C604.68,-449.86 582.77,-437.32 566.19,-427.84"/>
<polygon fill="midnightblue" stroke="midnightblue" points="567.55,-424.59 557.13,-422.66 564.07,-430.66 567.55,-424.59"/>
</g>
<!-- Node3 -->
<g id="node3" class="node">
<title>Node3</title>
<g id="a_node3"><a xlink:href="_exceptions_8hpp.html" target="_top" xlink:title=" ">
<polygon fill="white" stroke="black" points="910.5,-56.5 910.5,-75.5 1001.5,-75.5 1001.5,-56.5 910.5,-56.5"/>
<text text-anchor="middle" x="956" y="-63.5" font-family="Helvetica,sans-Serif" font-size="10.00">Exceptions.hpp</text>
</a>
</g>
</g>
<!-- Node2&#45;&gt;Node3 -->
<g id="edge2" class="edge">
<title>Node2&#45;&gt;Node3</title>
<path fill="none" stroke="midnightblue" d="M857.81,-168.08C856.51,-154.62 855.99,-128.9 868,-112 878.89,-96.68 896.56,-86.24 913.22,-79.3"/>
<polygon fill="midnightblue" stroke="midnightblue" points="914.77,-82.45 922.86,-75.6 912.27,-75.91 914.77,-82.45"/>
</g>
<!-- Node7 -->
<g id="node7" class="node">
<title>Node7</title>
<g id="a_node7"><a xlink:href="_optional_8hpp.html" target="_top" xlink:title=" ">
<polygon fill="white" stroke="black" points="430.5,-112.5 430.5,-131.5 509.5,-131.5 509.5,-112.5 430.5,-112.5"/>
<text text-anchor="middle" x="470" y="-119.5" font-family="Helvetica,sans-Serif" font-size="10.00">Optional.hpp</text>
</a>
</g>
</g>
<!-- Node2&#45;&gt;Node7 -->
<g id="edge6" class="edge">
<title>Node2&#45;&gt;Node7</title>
<path fill="none" stroke="midnightblue" d="M807.34,-169.83C732.24,-159.4 593.8,-140.19 519.77,-129.91"/>
<polygon fill="midnightblue" stroke="midnightblue" points="520.15,-126.43 509.77,-128.52 519.19,-133.36 520.15,-126.43"/>
</g>
<!-- Node10 -->
<g id="node10" class="node">
<title>Node10</title>
<g id="a_node10"><a xlink:href="_types_8hpp.html" target="_top" xlink:title=" ">
<polygon fill="white" stroke="black" points="680.5,-112.5 680.5,-131.5 745.5,-131.5 745.5,-112.5 680.5,-112.5"/>
<text text-anchor="middle" x="713" y="-119.5" font-family="Helvetica,sans-Serif" font-size="10.00">Types.hpp</text>
</a>
</g>
</g>
<!-- Node2&#45;&gt;Node10 -->
<g id="edge10" class="edge">
<title>Node2&#45;&gt;Node10</title>
<path fill="none" stroke="midnightblue" d="M835.87,-168.44C811.52,-159.44 772.99,-145.19 745.58,-135.05"/>
<polygon fill="midnightblue" stroke="midnightblue" points="746.62,-131.7 736.03,-131.52 744.19,-138.27 746.62,-131.7"/>
</g>
<!-- Node11 -->
<g id="node11" class="node">
<title>Node11</title>
<g id="a_node11"><a xlink:title=" ">
<polygon fill="white" stroke="#bfbfbf" points="1020,-56.5 1020,-75.5 1062,-75.5 1062,-56.5 1020,-56.5"/>
<text text-anchor="middle" x="1041" y="-63.5" font-family="Helvetica,sans-Serif" font-size="10.00">array</text>
</a>
</g>
</g>
<!-- Node2&#45;&gt;Node11 -->
<g id="edge25" class="edge">
<title>Node2&#45;&gt;Node11</title>
<path fill="none" stroke="midnightblue" d="M887.41,-168.41C910.42,-160.76 943.15,-148.26 969,-132 990.93,-118.21 1012.5,-97.53 1026.22,-83.21"/>
<polygon fill="midnightblue" stroke="midnightblue" points="1029.06,-85.31 1033.34,-75.62 1023.95,-80.52 1029.06,-85.31"/>
</g>
<!-- Node13 -->
<g id="node13" class="node">
<title>Node13</title>
<g id="a_node13"><a xlink:title=" ">
<polygon fill="white" stroke="#bfbfbf" points="468.5,-56.5 468.5,-75.5 521.5,-75.5 521.5,-56.5 468.5,-56.5"/>
<text text-anchor="middle" x="495" y="-63.5" font-family="Helvetica,sans-Serif" font-size="10.00">stdint.h</text>
</a>
</g>
</g>
<!-- Node2&#45;&gt;Node13 -->
<g id="edge24" class="edge">
<title>Node2&#45;&gt;Node13</title>
<path fill="none" stroke="midnightblue" d="M817.18,-168.48C778.82,-160.32 720.62,-147.04 671,-132 618.94,-116.22 559.9,-93.36 525.14,-79.38"/>
<polygon fill="midnightblue" stroke="midnightblue" points="526.17,-76.02 515.59,-75.51 523.55,-82.51 526.17,-76.02"/>
</g>
<!-- Node20 -->
<g id="node20" class="node">
<title>Node20</title>
<g id="a_node20"><a xlink:title=" ">
<polygon fill="white" stroke="#bfbfbf" points="1066.5,-0.5 1066.5,-19.5 1113.5,-19.5 1113.5,-0.5 1066.5,-0.5"/>
<text text-anchor="middle" x="1090" y="-7.5" font-family="Helvetica,sans-Serif" font-size="10.00">vector</text>
</a>
</g>
</g>
<!-- Node2&#45;&gt;Node20 -->
<g id="edge27" class="edge">
<title>Node2&#45;&gt;Node20</title>
<path fill="none" stroke="midnightblue" d="M906.62,-168.48C956.46,-156.84 1032.69,-130.8 1071,-76 1080.58,-62.3 1085.38,-43.77 1087.75,-29.99"/>
<polygon fill="midnightblue" stroke="midnightblue" points="1091.27,-30.15 1089.23,-19.76 1084.34,-29.16 1091.27,-30.15"/>
</g>
<!-- Node22 -->
<g id="node22" class="node">
<title>Node22</title>
<g id="a_node22"><a xlink:title=" ">
<polygon fill="white" stroke="#bfbfbf" points="876.5,-112.5 876.5,-131.5 959.5,-131.5 959.5,-112.5 876.5,-112.5"/>
<text text-anchor="middle" x="918" y="-119.5" font-family="Helvetica,sans-Serif" font-size="10.00">initializer_list</text>
</a>
</g>
</g>
<!-- Node2&#45;&gt;Node22 -->
<g id="edge26" class="edge">
<title>Node2&#45;&gt;Node22</title>
<path fill="none" stroke="midnightblue" d="M868.48,-168.32C877.2,-160.34 890.34,-148.31 900.9,-138.65"/>
<polygon fill="midnightblue" stroke="midnightblue" points="903.33,-141.17 908.35,-131.83 898.61,-136 903.33,-141.17"/>
</g>
<!-- Node23 -->
<g id="node23" class="node">
<title>Node23</title>
<g id="a_node23"><a xlink:title=" ">
<polygon fill="white" stroke="#bfbfbf" points="1054.5,-112.5 1054.5,-131.5 1099.5,-131.5 1099.5,-112.5 1054.5,-112.5"/>
<text text-anchor="middle" x="1077" y="-119.5" font-family="Helvetica,sans-Serif" font-size="10.00">utility</text>
</a>
</g>
</g>
<!-- Node2&#45;&gt;Node23 -->
<g id="edge28" class="edge">
<title>Node2&#45;&gt;Node23</title>
<path fill="none" stroke="midnightblue" d="M893.54,-168.44C934.96,-158.18 1003.85,-141.12 1044.39,-131.08"/>
<polygon fill="midnightblue" stroke="midnightblue" points="1045.43,-134.43 1054.29,-128.62 1043.75,-127.63 1045.43,-134.43"/>
</g>
<!-- Node4 -->
<g id="node4" class="node">
<title>Node4</title>
<g id="a_node4"><a xlink:title=" ">
<polygon fill="white" stroke="#bfbfbf" points="879,-0.5 879,-19.5 935,-19.5 935,-0.5 879,-0.5"/>
<text text-anchor="middle" x="907" y="-7.5" font-family="Helvetica,sans-Serif" font-size="10.00">sstream</text>
</a>
</g>
</g>
<!-- Node3&#45;&gt;Node4 -->
<g id="edge3" class="edge">
<title>Node3&#45;&gt;Node4</title>
<path fill="none" stroke="midnightblue" d="M947.91,-56.08C940.84,-48.3 930.41,-36.8 921.85,-27.37"/>
<polygon fill="midnightblue" stroke="midnightblue" points="924.25,-24.8 914.94,-19.75 919.07,-29.51 924.25,-24.8"/>
</g>
<!-- Node5 -->
<g id="node5" class="node">
<title>Node5</title>
<g id="a_node5"><a xlink:title=" ">
<polygon fill="white" stroke="#bfbfbf" points="953.5,-0.5 953.5,-19.5 1018.5,-19.5 1018.5,-0.5 953.5,-0.5"/>
<text text-anchor="middle" x="986" y="-7.5" font-family="Helvetica,sans-Serif" font-size="10.00">stdexcept</text>
</a>
</g>
</g>
<!-- Node3&#45;&gt;Node5 -->
<g id="edge4" class="edge">
<title>Node3&#45;&gt;Node5</title>
<path fill="none" stroke="midnightblue" d="M960.95,-56.08C965.1,-48.61 971.15,-37.72 976.27,-28.52"/>
<polygon fill="midnightblue" stroke="midnightblue" points="979.34,-30.19 981.14,-19.75 973.22,-26.79 979.34,-30.19"/>
</g>
<!-- Node6 -->
<g id="node6" class="node">
<title>Node6</title>
<g id="a_node6"><a xlink:title=" ">
<polygon fill="white" stroke="#bfbfbf" points="747,-0.5 747,-19.5 791,-19.5 791,-0.5 747,-0.5"/>
<text text-anchor="middle" x="769" y="-7.5" font-family="Helvetica,sans-Serif" font-size="10.00">string</text>
</a>
</g>
</g>
<!-- Node3&#45;&gt;Node6 -->
<g id="edge5" class="edge">
<title>Node3&#45;&gt;Node6</title>
<path fill="none" stroke="midnightblue" d="M926.37,-56.44C892.16,-46.56 836.09,-30.37 800.93,-20.22"/>
<polygon fill="midnightblue" stroke="midnightblue" points="801.75,-16.81 791.17,-17.4 799.81,-23.54 801.75,-16.81"/>
</g>
<!-- Node7&#45;&gt;Node3 -->
<g id="edge7" class="edge">
<title>Node7&#45;&gt;Node3</title>
<path fill="none" stroke="midnightblue" d="M509.61,-117.64C583.93,-111.17 749.61,-95.95 900.07,-76.05"/>
<polygon fill="midnightblue" stroke="midnightblue" points="900.96,-79.46 910.41,-74.67 900.04,-72.52 900.96,-79.46"/>
</g>
<!-- Node8 -->
<g id="node8" class="node">
<title>Node8</title>
<g id="a_node8"><a xlink:title=" ">
<polygon fill="white" stroke="#bfbfbf" points="324,-56.5 324,-75.5 374,-75.5 374,-56.5 324,-56.5"/>
<text text-anchor="middle" x="349" y="-63.5" font-family="Helvetica,sans-Serif" font-size="10.00">cstring</text>
</a>
</g>
</g>
<!-- Node7&#45;&gt;Node8 -->
<g id="edge8" class="edge">
<title>Node7&#45;&gt;Node8</title>
<path fill="none" stroke="midnightblue" d="M450.83,-112.44C431.09,-103.64 400.11,-89.81 377.51,-79.72"/>
<polygon fill="midnightblue" stroke="midnightblue" points="378.64,-76.4 368.08,-75.52 375.79,-82.79 378.64,-76.4"/>
</g>
<!-- Node9 -->
<g id="node9" class="node">
<title>Node9</title>
<g id="a_node9"><a xlink:title=" ">
<polygon fill="white" stroke="#bfbfbf" points="236.5,-56.5 236.5,-75.5 305.5,-75.5 305.5,-56.5 236.5,-56.5"/>
<text text-anchor="middle" x="271" y="-63.5" font-family="Helvetica,sans-Serif" font-size="10.00">type_traits</text>
</a>
</g>
</g>
<!-- Node7&#45;&gt;Node9 -->
<g id="edge9" class="edge">
<title>Node7&#45;&gt;Node9</title>
<path fill="none" stroke="midnightblue" d="M438.47,-112.44C404.41,-103.2 349.99,-88.44 312.48,-78.26"/>
<polygon fill="midnightblue" stroke="midnightblue" points="312.95,-74.76 302.38,-75.52 311.12,-81.51 312.95,-74.76"/>
</g>
<!-- Node10&#45;&gt;Node3 -->
<g id="edge22" class="edge">
<title>Node10&#45;&gt;Node3</title>
<path fill="none" stroke="midnightblue" d="M745.52,-113.77C787.17,-104.52 859.72,-88.4 907.8,-77.71"/>
<polygon fill="midnightblue" stroke="midnightblue" points="908.67,-81.1 917.67,-75.52 907.15,-74.27 908.67,-81.1"/>
</g>
<!-- Node10&#45;&gt;Node11 -->
<g id="edge11" class="edge">
<title>Node10&#45;&gt;Node11</title>
<path fill="none" stroke="midnightblue" d="M745.91,-117.57C799.42,-111.67 908.68,-98.23 1010.01,-75.95"/>
<polygon fill="midnightblue" stroke="midnightblue" points="1010.8,-79.36 1019.79,-73.77 1009.27,-72.53 1010.8,-79.36"/>
</g>
<!-- Node12 -->
<g id="node12" class="node">
<title>Node12</title>
<g id="a_node12"><a xlink:title=" ">
<polygon fill="white" stroke="#bfbfbf" points="758.5,-56.5 758.5,-75.5 823.5,-75.5 823.5,-56.5 758.5,-56.5"/>
<text text-anchor="middle" x="791" y="-63.5" font-family="Helvetica,sans-Serif" font-size="10.00">functional</text>
</a>
</g>
</g>
<!-- Node10&#45;&gt;Node12 -->
<g id="edge12" class="edge">
<title>Node10&#45;&gt;Node12</title>
<path fill="none" stroke="midnightblue" d="M725.53,-112.32C737.59,-103.98 756.03,-91.21 770.27,-81.35"/>
<polygon fill="midnightblue" stroke="midnightblue" points="772.27,-84.22 778.5,-75.65 768.28,-78.47 772.27,-84.22"/>
</g>
<!-- Node10&#45;&gt;Node13 -->
<g id="edge13" class="edge">
<title>Node10&#45;&gt;Node13</title>
<path fill="none" stroke="midnightblue" d="M680.45,-112.98C645.95,-104.47 589.62,-90.56 531.46,-76.11"/>
<polygon fill="midnightblue" stroke="midnightblue" points="532.28,-72.71 521.73,-73.69 530.59,-79.5 532.28,-72.71"/>
</g>
<!-- Node14 -->
<g id="node14" class="node">
<title>Node14</title>
<g id="a_node14"><a xlink:title=" ">
<polygon fill="white" stroke="#bfbfbf" points="842,-56.5 842,-75.5 892,-75.5 892,-56.5 842,-56.5"/>
<text text-anchor="middle" x="867" y="-63.5" font-family="Helvetica,sans-Serif" font-size="10.00">chrono</text>
</a>
</g>
</g>
<!-- Node10&#45;&gt;Node14 -->
<g id="edge14" class="edge">
<title>Node10&#45;&gt;Node14</title>
<path fill="none" stroke="midnightblue" d="M737.4,-112.44C763.2,-103.4 804.08,-89.06 833.02,-78.92"/>
<polygon fill="midnightblue" stroke="midnightblue" points="834.43,-82.13 842.71,-75.52 832.12,-75.52 834.43,-82.13"/>
</g>
<!-- Node15 -->
<g id="node15" class="node">
<title>Node15</title>
<g id="a_node15"><a xlink:href="_backend_id_8hpp.html" target="_top" xlink:title=" ">
<polygon fill="white" stroke="black" points="540,-56.5 540,-75.5 628,-75.5 628,-56.5 540,-56.5"/>
<text text-anchor="middle" x="584" y="-63.5" font-family="Helvetica,sans-Serif" font-size="10.00">BackendId.hpp</text>
</a>
</g>
</g>
<!-- Node10&#45;&gt;Node15 -->
<g id="edge15" class="edge">
<title>Node10&#45;&gt;Node15</title>
<path fill="none" stroke="midnightblue" d="M692.56,-112.44C671.33,-103.56 637.9,-89.56 613.75,-79.45"/>
<polygon fill="midnightblue" stroke="midnightblue" points="614.92,-76.15 604.34,-75.52 612.22,-82.61 614.92,-76.15"/>
</g>
<!-- Node21 -->
<g id="node21" class="node">
<title>Node21</title>
<g id="a_node21"><a xlink:href="_deprecated_8hpp.html" target="_top" xlink:title=" ">
<polygon fill="white" stroke="black" points="646,-56.5 646,-75.5 740,-75.5 740,-56.5 646,-56.5"/>
<text text-anchor="middle" x="693" y="-63.5" font-family="Helvetica,sans-Serif" font-size="10.00">Deprecated.hpp</text>
</a>
</g>
</g>
<!-- Node10&#45;&gt;Node21 -->
<g id="edge23" class="edge">
<title>Node10&#45;&gt;Node21</title>
<path fill="none" stroke="midnightblue" d="M709.7,-112.08C707.02,-104.85 703.15,-94.41 699.81,-85.4"/>
<polygon fill="midnightblue" stroke="midnightblue" points="703,-83.91 696.24,-75.75 696.43,-86.34 703,-83.91"/>
</g>
<!-- Node15&#45;&gt;Node6 -->
<g id="edge19" class="edge">
<title>Node15&#45;&gt;Node6</title>
<path fill="none" stroke="midnightblue" d="M613.31,-56.44C647.07,-46.59 702.32,-30.46 737.12,-20.3"/>
<polygon fill="midnightblue" stroke="midnightblue" points="738.17,-23.64 746.79,-17.48 736.21,-16.92 738.17,-23.64"/>
</g>
<!-- Node16 -->
<g id="node16" class="node">
<title>Node16</title>
<g id="a_node16"><a xlink:title=" ">
<polygon fill="white" stroke="#bfbfbf" points="527,-0.5 527,-19.5 585,-19.5 585,-0.5 527,-0.5"/>
<text text-anchor="middle" x="556" y="-7.5" font-family="Helvetica,sans-Serif" font-size="10.00">memory</text>
</a>
</g>
</g>
<!-- Node15&#45;&gt;Node16 -->
<g id="edge16" class="edge">
<title>Node15&#45;&gt;Node16</title>
<path fill="none" stroke="midnightblue" d="M579.38,-56.08C575.54,-48.69 569.98,-37.95 565.24,-28.81"/>
<polygon fill="midnightblue" stroke="midnightblue" points="568.25,-27.02 560.54,-19.75 562.03,-30.24 568.25,-27.02"/>
</g>
<!-- Node17 -->
<g id="node17" class="node">
<title>Node17</title>
<g id="a_node17"><a xlink:title=" ">
<polygon fill="white" stroke="#bfbfbf" points="373.5,-0.5 373.5,-19.5 430.5,-19.5 430.5,-0.5 373.5,-0.5"/>
<text text-anchor="middle" x="402" y="-7.5" font-family="Helvetica,sans-Serif" font-size="10.00">ostream</text>
</a>
</g>
</g>
<!-- Node15&#45;&gt;Node17 -->
<g id="edge17" class="edge">
<title>Node15&#45;&gt;Node17</title>
<path fill="none" stroke="midnightblue" d="M555.16,-56.44C524.14,-47.24 474.67,-32.56 440.38,-22.39"/>
<polygon fill="midnightblue" stroke="midnightblue" points="441.29,-19.01 430.7,-19.52 439.29,-25.72 441.29,-19.01"/>
</g>
<!-- Node18 -->
<g id="node18" class="node">
<title>Node18</title>
<g id="a_node18"><a xlink:title=" ">
<polygon fill="white" stroke="#bfbfbf" points="463,-0.5 463,-19.5 495,-19.5 495,-0.5 463,-0.5"/>
<text text-anchor="middle" x="479" y="-7.5" font-family="Helvetica,sans-Serif" font-size="10.00">set</text>
</a>
</g>
</g>
<!-- Node15&#45;&gt;Node18 -->
<g id="edge18" class="edge">
<title>Node15&#45;&gt;Node18</title>
<path fill="none" stroke="midnightblue" d="M567.13,-56.32C550.09,-47.56 523.57,-33.92 504.07,-23.9"/>
<polygon fill="midnightblue" stroke="midnightblue" points="505.63,-20.76 495.14,-19.3 502.43,-26.99 505.63,-20.76"/>
</g>
<!-- Node19 -->
<g id="node19" class="node">
<title>Node19</title>
<g id="a_node19"><a xlink:title=" ">
<polygon fill="white" stroke="#bfbfbf" points="603,-0.5 603,-19.5 689,-19.5 689,-0.5 603,-0.5"/>
<text text-anchor="middle" x="646" y="-7.5" font-family="Helvetica,sans-Serif" font-size="10.00">unordered_set</text>
</a>
</g>
</g>
<!-- Node15&#45;&gt;Node19 -->
<g id="edge20" class="edge">
<title>Node15&#45;&gt;Node19</title>
<path fill="none" stroke="midnightblue" d="M593.96,-56.32C603.13,-48.34 616.94,-36.31 628.03,-26.65"/>
<polygon fill="midnightblue" stroke="midnightblue" points="630.62,-29.04 635.86,-19.83 626.02,-23.76 630.62,-29.04"/>
</g>
<!-- Node15&#45;&gt;Node20 -->
<g id="edge21" class="edge">
<title>Node15&#45;&gt;Node20</title>
<path fill="none" stroke="midnightblue" d="M628.21,-57.23C631.18,-56.79 634.13,-56.38 637,-56 810.04,-33.38 854.7,-40.54 1028,-20 1037.26,-18.9 1047.27,-17.53 1056.49,-16.19"/>
<polygon fill="midnightblue" stroke="midnightblue" points="1057.11,-19.64 1066.49,-14.71 1056.08,-12.71 1057.11,-19.64"/>
</g>
<!-- Node25 -->
<g id="node25" class="node">
<title>Node25</title>
<g id="a_node25"><a xlink:href="_types_utils_8hpp.html" target="_top" xlink:title=" ">
<polygon fill="white" stroke="black" points="515,-224.5 515,-243.5 637,-243.5 637,-224.5 515,-224.5"/>
<text text-anchor="middle" x="576" y="-231.5" font-family="Helvetica,sans-Serif" font-size="10.00">armnn/TypesUtils.hpp</text>
</a>
</g>
</g>
<!-- Node24&#45;&gt;Node25 -->
<g id="edge30" class="edge">
<title>Node24&#45;&gt;Node25</title>
<path fill="none" stroke="midnightblue" d="M552.8,-347.3C556.83,-327.76 566.69,-280.06 572.17,-253.55"/>
<polygon fill="midnightblue" stroke="midnightblue" points="575.62,-254.12 574.22,-243.62 568.77,-252.71 575.62,-254.12"/>
</g>
<!-- Node27 -->
<g id="node27" class="node">
<title>Node27</title>
<g id="a_node27"><a xlink:href="_assert_8hpp.html" target="_top" xlink:title=" ">
<polygon fill="white" stroke="black" points="0,-224.5 0,-243.5 134,-243.5 134,-224.5 0,-224.5"/>
<text text-anchor="middle" x="67" y="-231.5" font-family="Helvetica,sans-Serif" font-size="10.00">armnn/utility/Assert.hpp</text>
</a>
</g>
</g>
<!-- Node24&#45;&gt;Node27 -->
<g id="edge40" class="edge">
<title>Node24&#45;&gt;Node27</title>
<path fill="none" stroke="midnightblue" d="M502.47,-355.69C404.63,-354.3 187.62,-347.1 124,-311 100.87,-297.87 84.26,-271.13 75.14,-253.13"/>
<polygon fill="midnightblue" stroke="midnightblue" points="78.22,-251.45 70.74,-243.94 71.9,-254.48 78.22,-251.45"/>
</g>
<!-- Node29 -->
<g id="node29" class="node">
<title>Node29</title>
<g id="a_node29"><a xlink:href="_ignore_unused_8hpp.html" target="_top" xlink:title=" ">
<polygon fill="white" stroke="black" points="133.5,-286 133.5,-305 304.5,-305 304.5,-286 133.5,-286"/>
<text text-anchor="middle" x="219" y="-293" font-family="Helvetica,sans-Serif" font-size="10.00">armnn/utility/IgnoreUnused.hpp</text>
</a>
</g>
</g>
<!-- Node24&#45;&gt;Node29 -->
<g id="edge42" class="edge">
<title>Node24&#45;&gt;Node29</title>
<path fill="none" stroke="midnightblue" d="M503.43,-347.48C443.52,-336.74 340.68,-318.31 276.44,-306.79"/>
<polygon fill="midnightblue" stroke="midnightblue" points="276.94,-303.33 266.48,-305.01 275.7,-310.22 276.94,-303.33"/>
</g>
<!-- Node30 -->
<g id="node30" class="node">
<title>Node30</title>
<g id="a_node30"><a xlink:href="_numeric_cast_8hpp.html" target="_top" xlink:title=" ">
<polygon fill="white" stroke="black" points="360.5,-286 360.5,-305 527.5,-305 527.5,-286 360.5,-286"/>
<text text-anchor="middle" x="444" y="-293" font-family="Helvetica,sans-Serif" font-size="10.00">armnn/utility/NumericCast.hpp</text>
</a>
</g>
</g>
<!-- Node24&#45;&gt;Node30 -->
<g id="edge43" class="edge">
<title>Node24&#45;&gt;Node30</title>
<path fill="none" stroke="midnightblue" d="M535.67,-347.48C518.03,-337.67 488.84,-321.43 468.14,-309.92"/>
<polygon fill="midnightblue" stroke="midnightblue" points="469.74,-306.81 459.3,-305.01 466.34,-312.93 469.74,-306.81"/>
</g>
<!-- Node32 -->
<g id="node32" class="node">
<title>Node32</title>
<g id="a_node32"><a xlink:href="_floating_point_converter_8hpp.html" target="_top" xlink:title=" ">
<polygon fill="white" stroke="black" points="792,-280.5 792,-310.5 930,-310.5 930,-280.5 792,-280.5"/>
<text text-anchor="start" x="800" y="-298.5" font-family="Helvetica,sans-Serif" font-size="10.00">armnnUtils/FloatingPoint</text>
<text text-anchor="middle" x="861" y="-287.5" font-family="Helvetica,sans-Serif" font-size="10.00">Converter.hpp</text>
</a>
</g>
</g>
<!-- Node24&#45;&gt;Node32 -->
<g id="edge47" class="edge">
<title>Node24&#45;&gt;Node32</title>
<path fill="none" stroke="midnightblue" d="M595.42,-347.48C643.92,-338.16 722.58,-323.07 781.73,-311.71"/>
<polygon fill="midnightblue" stroke="midnightblue" points="782.63,-315.11 791.79,-309.78 781.31,-308.23 782.63,-315.11"/>
</g>
<!-- Node34 -->
<g id="node34" class="node">
<title>Node34</title>
<g id="a_node34"><a xlink:href="_tensor_utils_8hpp.html" target="_top" xlink:title=" ">
<polygon fill="white" stroke="black" points="606.5,-286 606.5,-305 755.5,-305 755.5,-286 606.5,-286"/>
<text text-anchor="middle" x="681" y="-293" font-family="Helvetica,sans-Serif" font-size="10.00">armnnUtils/TensorUtils.hpp</text>
</a>
</g>
</g>
<!-- Node24&#45;&gt;Node34 -->
<g id="edge49" class="edge">
<title>Node24&#45;&gt;Node34</title>
<path fill="none" stroke="midnightblue" d="M569.63,-347.48C591.44,-337.49 627.8,-320.85 653.02,-309.31"/>
<polygon fill="midnightblue" stroke="midnightblue" points="654.77,-312.35 662.41,-305.01 651.86,-305.99 654.77,-312.35"/>
</g>
<!-- Node35 -->
<g id="node35" class="node">
<title>Node35</title>
<g id="a_node35"><a xlink:href="_resolve_type_8hpp.html" target="_top" xlink:title=" ">
<polygon fill="white" stroke="black" points="198.5,-168.5 198.5,-187.5 297.5,-187.5 297.5,-168.5 198.5,-168.5"/>
<text text-anchor="middle" x="248" y="-175.5" font-family="Helvetica,sans-Serif" font-size="10.00">ResolveType.hpp</text>
</a>
</g>
</g>
<!-- Node24&#45;&gt;Node35 -->
<g id="edge56" class="edge">
<title>Node24&#45;&gt;Node35</title>
<path fill="none" stroke="midnightblue" d="M502.26,-354.16C459.45,-350.53 397,-340.14 351,-311 305.51,-282.18 271.92,-225.95 256.83,-197.07"/>
<polygon fill="midnightblue" stroke="midnightblue" points="259.76,-195.11 252.12,-187.77 253.52,-198.27 259.76,-195.11"/>
</g>
<!-- Node25&#45;&gt;Node2 -->
<g id="edge33" class="edge">
<title>Node25&#45;&gt;Node2</title>
<path fill="none" stroke="midnightblue" d="M620.84,-224.44C670.62,-214.94 750.98,-199.61 804.39,-189.42"/>
<polygon fill="midnightblue" stroke="midnightblue" points="805.2,-192.83 814.37,-187.52 803.89,-185.95 805.2,-192.83"/>
</g>
<!-- Node25&#45;&gt;Node3 -->
<g id="edge32" class="edge">
<title>Node25&#45;&gt;Node3</title>
<path fill="none" stroke="midnightblue" d="M595.63,-224.42C658.17,-197.1 852.99,-112 927.04,-79.65"/>
<polygon fill="midnightblue" stroke="midnightblue" points="928.5,-82.83 936.26,-75.62 925.69,-76.42 928.5,-82.83"/>
</g>
<!-- Node25&#45;&gt;Node9 -->
<g id="edge39" class="edge">
<title>Node25&#45;&gt;Node9</title>
<path fill="none" stroke="midnightblue" d="M514.83,-230.07C475.48,-225.52 424.98,-214.47 388,-188 355.51,-164.75 368.04,-140.45 340,-112 327.6,-99.42 311.11,-88.5 297.35,-80.58"/>
<polygon fill="midnightblue" stroke="midnightblue" points="298.8,-77.37 288.36,-75.58 295.4,-83.49 298.8,-77.37"/>
</g>
<!-- Node25&#45;&gt;Node10 -->
<g id="edge34" class="edge">
<title>Node25&#45;&gt;Node10</title>
<path fill="none" stroke="midnightblue" d="M586.75,-224.37C609.96,-205.73 665.01,-161.53 694.15,-138.13"/>
<polygon fill="midnightblue" stroke="midnightblue" points="696.69,-140.58 702.3,-131.59 692.31,-135.12 696.69,-140.58"/>
</g>
<!-- Node25&#45;&gt;Node13 -->
<g id="edge35" class="edge">
<title>Node25&#45;&gt;Node13</title>
<path fill="none" stroke="midnightblue" d="M576.26,-224.36C576.49,-203.44 574.69,-149.08 552,-112 544.26,-99.36 531.61,-88.83 520.19,-81.15"/>
<polygon fill="midnightblue" stroke="midnightblue" points="521.74,-77.99 511.41,-75.61 518,-83.91 521.74,-77.99"/>
</g>
<!-- Node25&#45;&gt;Node15 -->
<g id="edge31" class="edge">
<title>Node25&#45;&gt;Node15</title>
<path fill="none" stroke="midnightblue" d="M579.6,-224.22C583.06,-215.28 588.03,-200.94 590,-188 595.46,-152.08 590.82,-109.55 587.22,-85.68"/>
<polygon fill="midnightblue" stroke="midnightblue" points="590.64,-84.88 585.59,-75.57 583.73,-86 590.64,-84.88"/>
</g>
<!-- Node25&#45;&gt;Node17 -->
<g id="edge37" class="edge">
<title>Node25&#45;&gt;Node17</title>
<path fill="none" stroke="midnightblue" d="M551.44,-224.41C516.28,-210.75 452.42,-180.53 421,-132 400.66,-100.58 399.31,-55.15 400.45,-29.84"/>
<polygon fill="midnightblue" stroke="midnightblue" points="403.95,-29.95 401.09,-19.75 396.96,-29.51 403.95,-29.95"/>
</g>
<!-- Node25&#45;&gt;Node18 -->
<g id="edge38" class="edge">
<title>Node25&#45;&gt;Node18</title>
<path fill="none" stroke="midnightblue" d="M573.74,-224.41C567.78,-203.16 549.87,-147.26 518,-112 497.4,-89.21 474.04,-102.79 459,-76 450.55,-60.94 458.28,-41.88 466.46,-28.29"/>
<polygon fill="midnightblue" stroke="midnightblue" points="469.43,-30.16 472.01,-19.88 463.58,-26.31 469.43,-30.16"/>
</g>
<!-- Node26 -->
<g id="node26" class="node">
<title>Node26</title>
<g id="a_node26"><a xlink:title=" ">
<polygon fill="white" stroke="#bfbfbf" points="37.5,-56.5 37.5,-75.5 84.5,-75.5 84.5,-56.5 37.5,-56.5"/>
<text text-anchor="middle" x="61" y="-63.5" font-family="Helvetica,sans-Serif" font-size="10.00">cmath</text>
</a>
</g>
</g>
<!-- Node25&#45;&gt;Node26 -->
<g id="edge36" class="edge">
<title>Node25&#45;&gt;Node26</title>
<path fill="none" stroke="midnightblue" d="M515,-226.92C409.68,-216.29 203.56,-194.79 189,-188 137.46,-163.96 93.25,-110.99 72.92,-83.81"/>
<polygon fill="midnightblue" stroke="midnightblue" points="75.69,-81.67 66.97,-75.66 70.04,-85.8 75.69,-81.67"/>
</g>
<!-- Node28 -->
<g id="node28" class="node">
<title>Node28</title>
<g id="a_node28"><a xlink:title=" ">
<polygon fill="white" stroke="#bfbfbf" points="33,-168.5 33,-187.5 85,-187.5 85,-168.5 33,-168.5"/>
<text text-anchor="middle" x="59" y="-175.5" font-family="Helvetica,sans-Serif" font-size="10.00">cassert</text>
</a>
</g>
</g>
<!-- Node27&#45;&gt;Node28 -->
<g id="edge41" class="edge">
<title>Node27&#45;&gt;Node28</title>
<path fill="none" stroke="midnightblue" d="M65.68,-224.08C64.62,-216.93 63.09,-206.64 61.77,-197.69"/>
<polygon fill="midnightblue" stroke="midnightblue" points="65.22,-197.13 60.3,-187.75 58.3,-198.16 65.22,-197.13"/>
</g>
<!-- Node30&#45;&gt;Node9 -->
<g id="edge45" class="edge">
<title>Node30&#45;&gt;Node9</title>
<path fill="none" stroke="midnightblue" d="M437.43,-285.73C417.68,-259.36 357.01,-178.51 306,-112 298.76,-102.56 290.6,-92.06 283.98,-83.58"/>
<polygon fill="midnightblue" stroke="midnightblue" points="286.66,-81.32 277.74,-75.6 281.15,-85.63 286.66,-81.32"/>
</g>
<!-- Node30&#45;&gt;Node27 -->
<g id="edge44" class="edge">
<title>Node30&#45;&gt;Node27</title>
<path fill="none" stroke="midnightblue" d="M389.99,-285.98C321.54,-275.17 203.72,-256.58 130.88,-245.08"/>
<polygon fill="midnightblue" stroke="midnightblue" points="131.34,-241.61 120.91,-243.51 130.25,-248.53 131.34,-241.61"/>
</g>
<!-- Node31 -->
<g id="node31" class="node">
<title>Node31</title>
<g id="a_node31"><a xlink:title=" ">
<polygon fill="white" stroke="#bfbfbf" points="422,-224.5 422,-243.5 466,-243.5 466,-224.5 422,-224.5"/>
<text text-anchor="middle" x="444" y="-231.5" font-family="Helvetica,sans-Serif" font-size="10.00">limits</text>
</a>
</g>
</g>
<!-- Node30&#45;&gt;Node31 -->
<g id="edge46" class="edge">
<title>Node30&#45;&gt;Node31</title>
<path fill="none" stroke="midnightblue" d="M444,-285.98C444,-277.58 444,-264.48 444,-253.66"/>
<polygon fill="midnightblue" stroke="midnightblue" points="447.5,-253.51 444,-243.51 440.5,-253.51 447.5,-253.51"/>
</g>
<!-- Node33 -->
<g id="node33" class="node">
<title>Node33</title>
<g id="a_node33"><a xlink:title=" ">
<polygon fill="white" stroke="#bfbfbf" points="1101.5,-224.5 1101.5,-243.5 1154.5,-243.5 1154.5,-224.5 1101.5,-224.5"/>
<text text-anchor="middle" x="1128" y="-231.5" font-family="Helvetica,sans-Serif" font-size="10.00">cstddef</text>
</a>
</g>
</g>
<!-- Node32&#45;&gt;Node33 -->
<g id="edge48" class="edge">
<title>Node32&#45;&gt;Node33</title>
<path fill="none" stroke="midnightblue" d="M923.94,-280.47C976.07,-268.86 1048.34,-252.75 1091.42,-243.15"/>
<polygon fill="midnightblue" stroke="midnightblue" points="1092.45,-246.51 1101.45,-240.92 1090.93,-239.68 1092.45,-246.51"/>
</g>
<!-- Node34&#45;&gt;Node2 -->
<g id="edge51" class="edge">
<title>Node34&#45;&gt;Node2</title>
<path fill="none" stroke="midnightblue" d="M706.81,-285.85C730.42,-277.26 765.73,-262.69 793,-244 813.22,-230.15 832.75,-209.76 845.25,-195.52"/>
<polygon fill="midnightblue" stroke="midnightblue" points="848.22,-197.43 852.07,-187.56 842.9,-192.88 848.22,-197.43"/>
</g>
<!-- Node34&#45;&gt;Node10 -->
<g id="edge52" class="edge">
<title>Node34&#45;&gt;Node10</title>
<path fill="none" stroke="midnightblue" d="M682.63,-285.76C687.62,-259.04 702.73,-178.02 709.57,-141.36"/>
<polygon fill="midnightblue" stroke="midnightblue" points="713.02,-141.99 711.41,-131.52 706.14,-140.71 713.02,-141.99"/>
</g>
<!-- Node34&#45;&gt;Node20 -->
<g id="edge55" class="edge">
<title>Node34&#45;&gt;Node20</title>
<path fill="none" stroke="midnightblue" d="M719.54,-285.93C816.21,-263.55 1064.45,-200.33 1109,-132 1129.72,-100.22 1112.33,-53.96 1099.89,-28.85"/>
<polygon fill="midnightblue" stroke="midnightblue" points="1102.87,-27 1095.14,-19.76 1096.67,-30.25 1102.87,-27"/>
</g>
<!-- Node34&#45;&gt;Node23 -->
<g id="edge54" class="edge">
<title>Node34&#45;&gt;Node23</title>
<path fill="none" stroke="midnightblue" d="M705.99,-286C733.64,-276.42 779.4,-260.1 818,-244 904.6,-207.89 1004.54,-159.12 1050.89,-136.09"/>
<polygon fill="midnightblue" stroke="midnightblue" points="1052.56,-139.17 1059.95,-131.58 1049.43,-132.9 1052.56,-139.17"/>
</g>
<!-- Node34&#45;&gt;Node25 -->
<g id="edge50" class="edge">
<title>Node34&#45;&gt;Node25</title>
<path fill="none" stroke="midnightblue" d="M665.96,-285.98C648.72,-276.21 620.26,-260.08 599.97,-248.58"/>
<polygon fill="midnightblue" stroke="midnightblue" points="601.44,-245.39 591.02,-243.51 597.99,-251.48 601.44,-245.39"/>
</g>
<!-- Node34&#45;&gt;Node34 -->
<g id="edge53" class="edge">
<title>Node34&#45;&gt;Node34</title>
<path fill="none" stroke="midnightblue" d="M715.15,-305.03C743.69,-309.11 773.5,-305.93 773.5,-295.5 773.5,-286.29 750.26,-282.74 725.19,-284.83"/>
<polygon fill="midnightblue" stroke="midnightblue" points="724.7,-281.37 715.15,-285.97 725.48,-288.32 724.7,-281.37"/>
</g>
<!-- Node35&#45;&gt;Node10 -->
<g id="edge57" class="edge">
<title>Node35&#45;&gt;Node10</title>
<path fill="none" stroke="midnightblue" d="M297.76,-171.22C389.62,-160.55 584.28,-137.95 670.44,-127.94"/>
<polygon fill="midnightblue" stroke="midnightblue" points="670.87,-131.42 680.39,-126.79 670.06,-124.46 670.87,-131.42"/>
</g>
<!-- Node36 -->
<g id="node36" class="node">
<title>Node36</title>
<g id="a_node36"><a xlink:href="_b_float16_8hpp.html" target="_top" xlink:title=" ">
<polygon fill="white" stroke="black" points="216.5,-112.5 216.5,-131.5 297.5,-131.5 297.5,-112.5 216.5,-112.5"/>
<text text-anchor="middle" x="257" y="-119.5" font-family="Helvetica,sans-Serif" font-size="10.00">BFloat16.hpp</text>
</a>
</g>
</g>
<!-- Node35&#45;&gt;Node36 -->
<g id="edge58" class="edge">
<title>Node35&#45;&gt;Node36</title>
<path fill="none" stroke="midnightblue" d="M249.49,-168.08C250.68,-160.93 252.39,-150.64 253.88,-141.69"/>
<polygon fill="midnightblue" stroke="midnightblue" points="257.35,-142.19 255.54,-131.75 250.45,-141.04 257.35,-142.19"/>
</g>
<!-- Node37 -->
<g id="node37" class="node">
<title>Node37</title>
<g id="a_node37"><a xlink:href="_half_8hpp.html" target="_top" xlink:title=" ">
<polygon fill="white" stroke="black" points="141.5,-112.5 141.5,-131.5 198.5,-131.5 198.5,-112.5 141.5,-112.5"/>
<text text-anchor="middle" x="170" y="-119.5" font-family="Helvetica,sans-Serif" font-size="10.00">Half.hpp</text>
</a>
</g>
</g>
<!-- Node35&#45;&gt;Node37 -->
<g id="edge63" class="edge">
<title>Node35&#45;&gt;Node37</title>
<path fill="none" stroke="midnightblue" d="M235.47,-168.32C223.41,-159.98 204.97,-147.21 190.73,-137.35"/>
<polygon fill="midnightblue" stroke="midnightblue" points="192.72,-134.47 182.5,-131.65 188.73,-140.22 192.72,-134.47"/>
</g>
<!-- Node36&#45;&gt;Node8 -->
<g id="edge61" class="edge">
<title>Node36&#45;&gt;Node8</title>
<path fill="none" stroke="midnightblue" d="M271.78,-112.32C286.27,-103.82 308.57,-90.73 325.49,-80.8"/>
<polygon fill="midnightblue" stroke="midnightblue" points="327.4,-83.74 334.26,-75.65 323.86,-77.7 327.4,-83.74"/>
</g>
<!-- Node36&#45;&gt;Node13 -->
<g id="edge62" class="edge">
<title>Node36&#45;&gt;Node13</title>
<path fill="none" stroke="midnightblue" d="M294.71,-112.44C339.58,-102.26 413.99,-85.38 458.38,-75.31"/>
<polygon fill="midnightblue" stroke="midnightblue" points="459.2,-78.71 468.17,-73.09 457.65,-71.89 459.2,-78.71"/>
</g>
<!-- Node36&#45;&gt;Node17 -->
<g id="edge59" class="edge">
<title>Node36&#45;&gt;Node17</title>
<path fill="none" stroke="midnightblue" d="M247.45,-112.33C234.15,-99.19 213.14,-73.88 227,-56 243.53,-34.68 316.84,-21.7 363.17,-15.47"/>
<polygon fill="midnightblue" stroke="midnightblue" points="363.72,-18.93 373.19,-14.17 362.82,-11.99 363.72,-18.93"/>
</g>
<!-- Node36&#45;&gt;Node26 -->
<g id="edge60" class="edge">
<title>Node36&#45;&gt;Node26</title>
<path fill="none" stroke="midnightblue" d="M225.54,-112.43C194.52,-103.97 145.48,-90.55 94.61,-76.44"/>
<polygon fill="midnightblue" stroke="midnightblue" points="95.33,-73 84.76,-73.7 93.46,-79.75 95.33,-73"/>
</g>
<!-- Node37&#45;&gt;Node9 -->
<g id="edge64" class="edge">
<title>Node37&#45;&gt;Node9</title>
<path fill="none" stroke="midnightblue" d="M186.23,-112.32C202.35,-103.7 227.3,-90.36 245.96,-80.39"/>
<polygon fill="midnightblue" stroke="midnightblue" points="247.64,-83.46 254.81,-75.65 244.34,-77.28 247.64,-83.46"/>
</g>
<!-- Node38 -->
<g id="node38" class="node">
<title>Node38</title>
<g id="a_node38"><a xlink:title=" ">
<polygon fill="white" stroke="#bfbfbf" points="102.5,-56.5 102.5,-75.5 179.5,-75.5 179.5,-56.5 102.5,-56.5"/>
<text text-anchor="middle" x="141" y="-63.5" font-family="Helvetica,sans-Serif" font-size="10.00">half/half.hpp</text>
</a>
</g>
</g>
<!-- Node37&#45;&gt;Node38 -->
<g id="edge65" class="edge">
<title>Node37&#45;&gt;Node38</title>
<path fill="none" stroke="midnightblue" d="M165.21,-112.08C161.24,-104.69 155.47,-93.95 150.57,-84.81"/>
<polygon fill="midnightblue" stroke="midnightblue" points="153.51,-82.91 145.7,-75.75 147.35,-86.22 153.51,-82.91"/>
</g>
<!-- Node39&#45;&gt;Node24 -->
<g id="edge67" class="edge">
<title>Node39&#45;&gt;Node24</title>
<path fill="none" stroke="midnightblue" d="M660.4,-403.44C639.01,-394.56 605.32,-380.56 580.98,-370.45"/>
<polygon fill="midnightblue" stroke="midnightblue" points="582.08,-367.12 571.5,-366.52 579.39,-373.58 582.08,-367.12"/>
</g>
<!-- Node39&#45;&gt;Node27 -->
<g id="edge70" class="edge">
<title>Node39&#45;&gt;Node27</title>
<path fill="none" stroke="midnightblue" d="M639.11,-407.44C510.95,-393.13 130.31,-347.9 89,-311 72.86,-296.59 68.26,-271.14 67.1,-253.7"/>
<polygon fill="midnightblue" stroke="midnightblue" points="70.59,-253.45 66.75,-243.58 63.6,-253.7 70.59,-253.45"/>
</g>
<!-- Node39&#45;&gt;Node32 -->
<g id="edge68" class="edge">
<title>Node39&#45;&gt;Node32</title>
<path fill="none" stroke="midnightblue" d="M694.53,-403.32C723.26,-384.88 790.98,-341.43 830.63,-315.99"/>
<polygon fill="midnightblue" stroke="midnightblue" points="832.59,-318.89 839.11,-310.55 828.8,-313 832.59,-318.89"/>
</g>
<!-- Node39&#45;&gt;Node34 -->
<g id="edge69" class="edge">
<title>Node39&#45;&gt;Node34</title>
<path fill="none" stroke="midnightblue" d="M681,-403.32C681,-384.76 681,-340.84 681,-315.47"/>
<polygon fill="midnightblue" stroke="midnightblue" points="684.5,-315.28 681,-305.28 677.5,-315.28 684.5,-315.28"/>
</g>
<!-- Node40&#45;&gt;Node24 -->
<g id="edge72" class="edge">
<title>Node40&#45;&gt;Node24</title>
<path fill="none" stroke="midnightblue" d="M543.49,-403.08C544.68,-395.93 546.39,-385.64 547.88,-376.69"/>
<polygon fill="midnightblue" stroke="midnightblue" points="551.35,-377.19 549.54,-366.75 544.45,-376.04 551.35,-377.19"/>
</g>
<!-- Node40&#45;&gt;Node27 -->
<g id="edge74" class="edge">
<title>Node40&#45;&gt;Node27</title>
<path fill="none" stroke="midnightblue" d="M500.84,-411.32C388.48,-409.03 82.95,-399.83 53,-367 24.37,-335.61 44.24,-280.97 57.6,-252.85"/>
<polygon fill="midnightblue" stroke="midnightblue" points="60.79,-254.29 62.12,-243.78 54.53,-251.17 60.79,-254.29"/>
</g>
<!-- Node40&#45;&gt;Node34 -->
<g id="edge73" class="edge">
<title>Node40&#45;&gt;Node34</title>
<path fill="none" stroke="midnightblue" d="M556.14,-403.35C569.85,-394.73 591.01,-380.83 608,-367 629.21,-349.73 651.55,-327.48 665.84,-312.64"/>
<polygon fill="midnightblue" stroke="midnightblue" points="668.53,-314.89 672.89,-305.24 663.46,-310.06 668.53,-314.89"/>
</g>
</g>
</svg>
