<?xml version="1.0" encoding="UTF-8" standalone="no"?>
<!DOCTYPE svg PUBLIC "-//W3C//DTD SVG 1.1//EN"
 "http://www.w3.org/Graphics/SVG/1.1/DTD/svg11.dtd">
<!-- Generated by graphviz version 2.43.0 (0)
 -->
<!-- Title: src/backends/reference/workloads/SpaceToDepth.hpp Pages: 1 -->
<svg width="1568pt" height="498pt"
 viewBox="0.00 0.00 1567.50 498.00" xmlns="http://www.w3.org/2000/svg" xmlns:xlink="http://www.w3.org/1999/xlink">
<g id="graph0" class="graph" transform="scale(1 1) rotate(0) translate(4 494)">
<title>src/backends/reference/workloads/SpaceToDepth.hpp</title>
<polygon fill="white" stroke="transparent" points="-4,4 -4,-494 1563.5,-494 1563.5,4 -4,4"/>
<!-- Node1 -->
<g id="node1" class="node">
<title>Node1</title>
<g id="a_node1"><a xlink:title=" ">
<polygon fill="#bfbfbf" stroke="black" points="780.5,-459.5 780.5,-489.5 943.5,-489.5 943.5,-459.5 780.5,-459.5"/>
<text text-anchor="start" x="788.5" y="-477.5" font-family="Helvetica,sans-Serif" font-size="10.00">src/backends/reference</text>
<text text-anchor="middle" x="862" y="-466.5" font-family="Helvetica,sans-Serif" font-size="10.00">/workloads/SpaceToDepth.hpp</text>
</a>
</g>
</g>
<!-- Node2 -->
<g id="node2" class="node">
<title>Node2</title>
<g id="a_node2"><a xlink:href="_base_iterator_8hpp.html" target="_top" xlink:title=" ">
<polygon fill="white" stroke="black" points="643.5,-347.5 643.5,-366.5 740.5,-366.5 740.5,-347.5 643.5,-347.5"/>
<text text-anchor="middle" x="692" y="-354.5" font-family="Helvetica,sans-Serif" font-size="10.00">BaseIterator.hpp</text>
</a>
</g>
</g>
<!-- Node1&#45;&gt;Node2 -->
<g id="edge1" class="edge">
<title>Node1&#45;&gt;Node2</title>
<path fill="none" stroke="midnightblue" d="M841.15,-459.34C808.58,-437.2 745.93,-394.64 713.16,-372.38"/>
<polygon fill="midnightblue" stroke="midnightblue" points="715,-369.39 704.76,-366.67 711.06,-375.18 715,-369.39"/>
</g>
<!-- Node14 -->
<g id="node14" class="node">
<title>Node14</title>
<g id="a_node14"><a xlink:href="_tensor_8hpp.html" target="_top" xlink:title=" ">
<polygon fill="white" stroke="black" points="918.5,-168.5 918.5,-187.5 1021.5,-187.5 1021.5,-168.5 918.5,-168.5"/>
<text text-anchor="middle" x="970" y="-175.5" font-family="Helvetica,sans-Serif" font-size="10.00">armnn/Tensor.hpp</text>
</a>
</g>
</g>
<!-- Node1&#45;&gt;Node14 -->
<g id="edge84" class="edge">
<title>Node1&#45;&gt;Node14</title>
<path fill="none" stroke="midnightblue" d="M943.89,-463.49C1048.73,-448.33 1217,-415.12 1217,-358 1217,-358 1217,-358 1217,-294.5 1217,-262.05 1221.72,-246.15 1198,-224 1191.82,-218.22 1095.81,-200.69 1030.37,-189.29"/>
<polygon fill="midnightblue" stroke="midnightblue" points="1030.6,-185.78 1020.15,-187.52 1029.4,-192.68 1030.6,-185.78"/>
</g>
<!-- Node39 -->
<g id="node39" class="node">
<title>Node39</title>
<g id="a_node39"><a xlink:href="_decoders_8hpp.html" target="_top" xlink:title=" ">
<polygon fill="white" stroke="black" points="820.5,-403.5 820.5,-422.5 903.5,-422.5 903.5,-403.5 820.5,-403.5"/>
<text text-anchor="middle" x="862" y="-410.5" font-family="Helvetica,sans-Serif" font-size="10.00">Decoders.hpp</text>
</a>
</g>
</g>
<!-- Node1&#45;&gt;Node39 -->
<g id="edge65" class="edge">
<title>Node1&#45;&gt;Node39</title>
<path fill="none" stroke="midnightblue" d="M862,-459.4C862,-451.47 862,-441.46 862,-432.86"/>
<polygon fill="midnightblue" stroke="midnightblue" points="865.5,-432.66 862,-422.66 858.5,-432.66 865.5,-432.66"/>
</g>
<!-- Node40 -->
<g id="node40" class="node">
<title>Node40</title>
<g id="a_node40"><a xlink:href="_encoders_8hpp.html" target="_top" xlink:title=" ">
<polygon fill="white" stroke="black" points="653,-403.5 653,-422.5 735,-422.5 735,-403.5 653,-403.5"/>
<text text-anchor="middle" x="694" y="-410.5" font-family="Helvetica,sans-Serif" font-size="10.00">Encoders.hpp</text>
</a>
</g>
</g>
<!-- Node1&#45;&gt;Node40 -->
<g id="edge70" class="edge">
<title>Node1&#45;&gt;Node40</title>
<path fill="none" stroke="midnightblue" d="M822.19,-459.4C793.5,-449.24 755.19,-435.67 727.94,-426.02"/>
<polygon fill="midnightblue" stroke="midnightblue" points="729.04,-422.7 718.45,-422.66 726.7,-429.3 729.04,-422.7"/>
</g>
<!-- Node41 -->
<g id="node41" class="node">
<title>Node41</title>
<g id="a_node41"><a xlink:href="_descriptors_8hpp.html" target="_top" xlink:title=" ">
<polygon fill="white" stroke="black" points="1257,-224.5 1257,-243.5 1385,-243.5 1385,-224.5 1257,-224.5"/>
<text text-anchor="middle" x="1321" y="-231.5" font-family="Helvetica,sans-Serif" font-size="10.00">armnn/Descriptors.hpp</text>
</a>
</g>
</g>
<!-- Node1&#45;&gt;Node41 -->
<g id="edge74" class="edge">
<title>Node1&#45;&gt;Node41</title>
<path fill="none" stroke="midnightblue" d="M943.5,-471.22C1038.01,-467.06 1186.53,-455.43 1231,-423 1288.49,-381.07 1310.77,-292.62 1318,-253.86"/>
<polygon fill="midnightblue" stroke="midnightblue" points="1321.53,-253.99 1319.79,-243.54 1314.63,-252.8 1321.53,-253.99"/>
</g>
<!-- Node3 -->
<g id="node3" class="node">
<title>Node3</title>
<g id="a_node3"><a xlink:href="_types_utils_8hpp.html" target="_top" xlink:title=" ">
<polygon fill="white" stroke="black" points="720,-224.5 720,-243.5 842,-243.5 842,-224.5 720,-224.5"/>
<text text-anchor="middle" x="781" y="-231.5" font-family="Helvetica,sans-Serif" font-size="10.00">armnn/TypesUtils.hpp</text>
</a>
</g>
</g>
<!-- Node2&#45;&gt;Node3 -->
<g id="edge2" class="edge">
<title>Node2&#45;&gt;Node3</title>
<path fill="none" stroke="midnightblue" d="M698.4,-347.3C713.09,-327.33 749.43,-277.92 768.64,-251.8"/>
<polygon fill="midnightblue" stroke="midnightblue" points="771.55,-253.75 774.66,-243.62 765.91,-249.6 771.55,-253.75"/>
</g>
<!-- Node27 -->
<g id="node27" class="node">
<title>Node27</title>
<g id="a_node27"><a xlink:href="_assert_8hpp.html" target="_top" xlink:title=" ">
<polygon fill="white" stroke="black" points="359,-224.5 359,-243.5 493,-243.5 493,-224.5 359,-224.5"/>
<text text-anchor="middle" x="426" y="-231.5" font-family="Helvetica,sans-Serif" font-size="10.00">armnn/utility/Assert.hpp</text>
</a>
</g>
</g>
<!-- Node2&#45;&gt;Node27 -->
<g id="edge39" class="edge">
<title>Node2&#45;&gt;Node27</title>
<path fill="none" stroke="midnightblue" d="M688.09,-347.33C680.4,-331.29 661.67,-297.08 635,-280 595.88,-254.94 545.04,-243.63 503.3,-238.61"/>
<polygon fill="midnightblue" stroke="midnightblue" points="503.5,-235.11 493.18,-237.49 502.73,-242.07 503.5,-235.11"/>
</g>
<!-- Node29 -->
<g id="node29" class="node">
<title>Node29</title>
<g id="a_node29"><a xlink:href="_ignore_unused_8hpp.html" target="_top" xlink:title=" ">
<polygon fill="white" stroke="black" points="454.5,-286 454.5,-305 625.5,-305 625.5,-286 454.5,-286"/>
<text text-anchor="middle" x="540" y="-293" font-family="Helvetica,sans-Serif" font-size="10.00">armnn/utility/IgnoreUnused.hpp</text>
</a>
</g>
</g>
<!-- Node2&#45;&gt;Node29 -->
<g id="edge41" class="edge">
<title>Node2&#45;&gt;Node29</title>
<path fill="none" stroke="midnightblue" d="M670.22,-347.48C644.26,-337.31 600.69,-320.26 571.17,-308.7"/>
<polygon fill="midnightblue" stroke="midnightblue" points="572.33,-305.4 561.74,-305.01 569.77,-311.91 572.33,-305.4"/>
</g>
<!-- Node30 -->
<g id="node30" class="node">
<title>Node30</title>
<g id="a_node30"><a xlink:href="_numeric_cast_8hpp.html" target="_top" xlink:title=" ">
<polygon fill="white" stroke="black" points="112.5,-286 112.5,-305 279.5,-305 279.5,-286 112.5,-286"/>
<text text-anchor="middle" x="196" y="-293" font-family="Helvetica,sans-Serif" font-size="10.00">armnn/utility/NumericCast.hpp</text>
</a>
</g>
</g>
<!-- Node2&#45;&gt;Node30 -->
<g id="edge42" class="edge">
<title>Node2&#45;&gt;Node30</title>
<path fill="none" stroke="midnightblue" d="M643.08,-350.13C557.82,-339.9 381.16,-318.71 277.26,-306.25"/>
<polygon fill="midnightblue" stroke="midnightblue" points="277.47,-302.75 267.13,-305.03 276.64,-309.7 277.47,-302.75"/>
</g>
<!-- Node32 -->
<g id="node32" class="node">
<title>Node32</title>
<g id="a_node32"><a xlink:href="_floating_point_converter_8hpp.html" target="_top" xlink:title=" ">
<polygon fill="white" stroke="black" points="999,-280.5 999,-310.5 1137,-310.5 1137,-280.5 999,-280.5"/>
<text text-anchor="start" x="1007" y="-298.5" font-family="Helvetica,sans-Serif" font-size="10.00">armnnUtils/FloatingPoint</text>
<text text-anchor="middle" x="1068" y="-287.5" font-family="Helvetica,sans-Serif" font-size="10.00">Converter.hpp</text>
</a>
</g>
</g>
<!-- Node2&#45;&gt;Node32 -->
<g id="edge46" class="edge">
<title>Node2&#45;&gt;Node32</title>
<path fill="none" stroke="midnightblue" d="M740.6,-349.18C797.64,-341.06 895.32,-326.79 988.79,-311.17"/>
<polygon fill="midnightblue" stroke="midnightblue" points="989.42,-314.62 998.7,-309.51 988.26,-307.71 989.42,-314.62"/>
</g>
<!-- Node34 -->
<g id="node34" class="node">
<title>Node34</title>
<g id="a_node34"><a xlink:href="_tensor_utils_8hpp.html" target="_top" xlink:title=" ">
<polygon fill="white" stroke="black" points="813.5,-286 813.5,-305 962.5,-305 962.5,-286 813.5,-286"/>
<text text-anchor="middle" x="888" y="-293" font-family="Helvetica,sans-Serif" font-size="10.00">armnnUtils/TensorUtils.hpp</text>
</a>
</g>
</g>
<!-- Node2&#45;&gt;Node34 -->
<g id="edge48" class="edge">
<title>Node2&#45;&gt;Node34</title>
<path fill="none" stroke="midnightblue" d="M720.08,-347.48C754.29,-337.09 812.2,-319.51 850.27,-307.95"/>
<polygon fill="midnightblue" stroke="midnightblue" points="851.42,-311.26 859.97,-305.01 849.38,-304.56 851.42,-311.26"/>
</g>
<!-- Node35 -->
<g id="node35" class="node">
<title>Node35</title>
<g id="a_node35"><a xlink:href="_resolve_type_8hpp.html" target="_top" xlink:title=" ">
<polygon fill="white" stroke="black" points="336.5,-168.5 336.5,-187.5 435.5,-187.5 435.5,-168.5 336.5,-168.5"/>
<text text-anchor="middle" x="386" y="-175.5" font-family="Helvetica,sans-Serif" font-size="10.00">ResolveType.hpp</text>
</a>
</g>
</g>
<!-- Node2&#45;&gt;Node35 -->
<g id="edge55" class="edge">
<title>Node2&#45;&gt;Node35</title>
<path fill="none" stroke="midnightblue" d="M691.15,-347.21C689.19,-331.58 682.93,-298.85 664,-280 630.22,-246.38 499.27,-208.41 429.82,-190.08"/>
<polygon fill="midnightblue" stroke="midnightblue" points="430.6,-186.67 420.04,-187.52 428.83,-193.44 430.6,-186.67"/>
</g>
<!-- Node4 -->
<g id="node4" class="node">
<title>Node4</title>
<g id="a_node4"><a xlink:href="_backend_id_8hpp.html" target="_top" xlink:title=" ">
<polygon fill="white" stroke="black" points="672,-56.5 672,-75.5 794,-75.5 794,-56.5 672,-56.5"/>
<text text-anchor="middle" x="733" y="-63.5" font-family="Helvetica,sans-Serif" font-size="10.00">armnn/BackendId.hpp</text>
</a>
</g>
</g>
<!-- Node3&#45;&gt;Node4 -->
<g id="edge3" class="edge">
<title>Node3&#45;&gt;Node4</title>
<path fill="none" stroke="midnightblue" d="M778.42,-224.08C770.86,-197.95 748.68,-121.21 738.37,-85.58"/>
<polygon fill="midnightblue" stroke="midnightblue" points="741.62,-84.2 735.48,-75.57 734.89,-86.15 741.62,-84.2"/>
</g>
<!-- Node6 -->
<g id="node6" class="node">
<title>Node6</title>
<g id="a_node6"><a xlink:title=" ">
<polygon fill="white" stroke="#bfbfbf" points="475.5,-0.5 475.5,-19.5 532.5,-19.5 532.5,-0.5 475.5,-0.5"/>
<text text-anchor="middle" x="504" y="-7.5" font-family="Helvetica,sans-Serif" font-size="10.00">ostream</text>
</a>
</g>
</g>
<!-- Node3&#45;&gt;Node6 -->
<g id="edge36" class="edge">
<title>Node3&#45;&gt;Node6</title>
<path fill="none" stroke="midnightblue" d="M719.56,-230.28C598.82,-224.48 339.31,-209.65 305,-188 255.95,-157.04 253.45,-131.91 238,-76 235.63,-67.43 232.26,-62.79 238,-56 266.62,-22.13 398.45,-13.74 465.14,-11.67"/>
<polygon fill="midnightblue" stroke="midnightblue" points="465.36,-15.17 475.26,-11.39 465.16,-8.17 465.36,-15.17"/>
</g>
<!-- Node7 -->
<g id="node7" class="node">
<title>Node7</title>
<g id="a_node7"><a xlink:title=" ">
<polygon fill="white" stroke="#bfbfbf" points="294,-0.5 294,-19.5 326,-19.5 326,-0.5 294,-0.5"/>
<text text-anchor="middle" x="310" y="-7.5" font-family="Helvetica,sans-Serif" font-size="10.00">set</text>
</a>
</g>
</g>
<!-- Node3&#45;&gt;Node7 -->
<g id="edge37" class="edge">
<title>Node3&#45;&gt;Node7</title>
<path fill="none" stroke="midnightblue" d="M719.55,-230.71C592.92,-225.53 311.66,-211.51 275,-188 222.82,-154.54 198.71,-109.5 230,-56 241.61,-36.15 265.54,-24.38 284.22,-17.89"/>
<polygon fill="midnightblue" stroke="midnightblue" points="285.47,-21.17 293.95,-14.81 283.36,-14.49 285.47,-21.17"/>
</g>
<!-- Node11 -->
<g id="node11" class="node">
<title>Node11</title>
<g id="a_node11"><a xlink:href="_exceptions_8hpp.html" target="_top" xlink:title=" ">
<polygon fill="white" stroke="black" points="963.5,-56.5 963.5,-75.5 1088.5,-75.5 1088.5,-56.5 963.5,-56.5"/>
<text text-anchor="middle" x="1026" y="-63.5" font-family="Helvetica,sans-Serif" font-size="10.00">armnn/Exceptions.hpp</text>
</a>
</g>
</g>
<!-- Node3&#45;&gt;Node11 -->
<g id="edge10" class="edge">
<title>Node3&#45;&gt;Node11</title>
<path fill="none" stroke="midnightblue" d="M792.06,-224.37C818.42,-203.93 887.31,-151.34 948,-112 965.27,-100.8 985.41,-89.22 1000.9,-80.61"/>
<polygon fill="midnightblue" stroke="midnightblue" points="1002.81,-83.55 1009.87,-75.66 999.43,-77.42 1002.81,-83.55"/>
</g>
<!-- Node3&#45;&gt;Node14 -->
<g id="edge14" class="edge">
<title>Node3&#45;&gt;Node14</title>
<path fill="none" stroke="midnightblue" d="M810.95,-224.44C843.16,-215.24 894.53,-200.56 930.14,-190.39"/>
<polygon fill="midnightblue" stroke="midnightblue" points="931.54,-193.63 940.19,-187.52 929.62,-186.9 931.54,-193.63"/>
</g>
<!-- Node17 -->
<g id="node17" class="node">
<title>Node17</title>
<g id="a_node17"><a xlink:title=" ">
<polygon fill="white" stroke="#bfbfbf" points="246.5,-56.5 246.5,-75.5 315.5,-75.5 315.5,-56.5 246.5,-56.5"/>
<text text-anchor="middle" x="281" y="-63.5" font-family="Helvetica,sans-Serif" font-size="10.00">type_traits</text>
</a>
</g>
</g>
<!-- Node3&#45;&gt;Node17 -->
<g id="edge38" class="edge">
<title>Node3&#45;&gt;Node17</title>
<path fill="none" stroke="midnightblue" d="M719.98,-230.46C603.56,-225.11 358.56,-211.22 328,-188 295.5,-163.31 285.46,-112.99 282.37,-85.66"/>
<polygon fill="midnightblue" stroke="midnightblue" points="285.83,-85.13 281.42,-75.5 278.86,-85.78 285.83,-85.13"/>
</g>
<!-- Node18 -->
<g id="node18" class="node">
<title>Node18</title>
<g id="a_node18"><a xlink:href="_types_8hpp.html" target="_top" xlink:title=" ">
<polygon fill="white" stroke="black" points="804.5,-112.5 804.5,-131.5 869.5,-131.5 869.5,-112.5 804.5,-112.5"/>
<text text-anchor="middle" x="837" y="-119.5" font-family="Helvetica,sans-Serif" font-size="10.00">Types.hpp</text>
</a>
</g>
</g>
<!-- Node3&#45;&gt;Node18 -->
<g id="edge33" class="edge">
<title>Node3&#45;&gt;Node18</title>
<path fill="none" stroke="midnightblue" d="M785.39,-224.37C794.55,-206.38 815.85,-164.55 828.03,-140.63"/>
<polygon fill="midnightblue" stroke="midnightblue" points="831.21,-142.09 832.63,-131.59 824.97,-138.92 831.21,-142.09"/>
</g>
<!-- Node21 -->
<g id="node21" class="node">
<title>Node21</title>
<g id="a_node21"><a xlink:title=" ">
<polygon fill="white" stroke="#bfbfbf" points="600.5,-56.5 600.5,-75.5 653.5,-75.5 653.5,-56.5 600.5,-56.5"/>
<text text-anchor="middle" x="627" y="-63.5" font-family="Helvetica,sans-Serif" font-size="10.00">stdint.h</text>
</a>
</g>
</g>
<!-- Node3&#45;&gt;Node21 -->
<g id="edge34" class="edge">
<title>Node3&#45;&gt;Node21</title>
<path fill="none" stroke="midnightblue" d="M752.56,-224.46C714.84,-211.43 649.8,-182.59 622,-132 614.17,-117.76 616.7,-99.04 620.43,-85.35"/>
<polygon fill="midnightblue" stroke="midnightblue" points="623.82,-86.22 623.5,-75.63 617.15,-84.11 623.82,-86.22"/>
</g>
<!-- Node26 -->
<g id="node26" class="node">
<title>Node26</title>
<g id="a_node26"><a xlink:title=" ">
<polygon fill="white" stroke="#bfbfbf" points="428.5,-56.5 428.5,-75.5 475.5,-75.5 475.5,-56.5 428.5,-56.5"/>
<text text-anchor="middle" x="452" y="-63.5" font-family="Helvetica,sans-Serif" font-size="10.00">cmath</text>
</a>
</g>
</g>
<!-- Node3&#45;&gt;Node26 -->
<g id="edge35" class="edge">
<title>Node3&#45;&gt;Node26</title>
<path fill="none" stroke="midnightblue" d="M719.76,-226.16C654.38,-215.96 551.13,-191.13 484,-132 470.16,-119.81 461.68,-100.26 456.95,-85.78"/>
<polygon fill="midnightblue" stroke="midnightblue" points="460.23,-84.51 454.05,-75.9 453.51,-86.48 460.23,-84.51"/>
</g>
<!-- Node5 -->
<g id="node5" class="node">
<title>Node5</title>
<g id="a_node5"><a xlink:title=" ">
<polygon fill="white" stroke="#bfbfbf" points="722,-0.5 722,-19.5 780,-19.5 780,-0.5 722,-0.5"/>
<text text-anchor="middle" x="751" y="-7.5" font-family="Helvetica,sans-Serif" font-size="10.00">memory</text>
</a>
</g>
</g>
<!-- Node4&#45;&gt;Node5 -->
<g id="edge4" class="edge">
<title>Node4&#45;&gt;Node5</title>
<path fill="none" stroke="midnightblue" d="M735.97,-56.08C738.38,-48.85 741.86,-38.41 744.87,-29.4"/>
<polygon fill="midnightblue" stroke="midnightblue" points="748.24,-30.34 748.08,-19.75 741.6,-28.13 748.24,-30.34"/>
</g>
<!-- Node4&#45;&gt;Node6 -->
<g id="edge5" class="edge">
<title>Node4&#45;&gt;Node6</title>
<path fill="none" stroke="midnightblue" d="M696.71,-56.44C654.57,-46.5 585.33,-30.18 542.33,-20.04"/>
<polygon fill="midnightblue" stroke="midnightblue" points="543.06,-16.61 532.52,-17.73 541.45,-23.43 543.06,-16.61"/>
</g>
<!-- Node4&#45;&gt;Node7 -->
<g id="edge6" class="edge">
<title>Node4&#45;&gt;Node7</title>
<path fill="none" stroke="midnightblue" d="M671.92,-57.14C668.9,-56.76 665.92,-56.37 663,-56 540.95,-40.37 395.15,-21.83 336.43,-14.36"/>
<polygon fill="midnightblue" stroke="midnightblue" points="336.55,-10.85 326.19,-13.06 335.66,-17.79 336.55,-10.85"/>
</g>
<!-- Node8 -->
<g id="node8" class="node">
<title>Node8</title>
<g id="a_node8"><a xlink:title=" ">
<polygon fill="white" stroke="#bfbfbf" points="855,-0.5 855,-19.5 899,-19.5 899,-0.5 855,-0.5"/>
<text text-anchor="middle" x="877" y="-7.5" font-family="Helvetica,sans-Serif" font-size="10.00">string</text>
</a>
</g>
</g>
<!-- Node4&#45;&gt;Node8 -->
<g id="edge7" class="edge">
<title>Node4&#45;&gt;Node8</title>
<path fill="none" stroke="midnightblue" d="M755.82,-56.44C779.97,-47.39 818.28,-33.02 845.35,-22.87"/>
<polygon fill="midnightblue" stroke="midnightblue" points="846.63,-26.13 854.76,-19.34 844.17,-19.57 846.63,-26.13"/>
</g>
<!-- Node9 -->
<g id="node9" class="node">
<title>Node9</title>
<g id="a_node9"><a xlink:title=" ">
<polygon fill="white" stroke="#bfbfbf" points="618,-0.5 618,-19.5 704,-19.5 704,-0.5 618,-0.5"/>
<text text-anchor="middle" x="661" y="-7.5" font-family="Helvetica,sans-Serif" font-size="10.00">unordered_set</text>
</a>
</g>
</g>
<!-- Node4&#45;&gt;Node9 -->
<g id="edge8" class="edge">
<title>Node4&#45;&gt;Node9</title>
<path fill="none" stroke="midnightblue" d="M721.43,-56.32C710.58,-48.18 694.12,-35.84 681.12,-26.09"/>
<polygon fill="midnightblue" stroke="midnightblue" points="682.88,-23.03 672.78,-19.83 678.68,-28.63 682.88,-23.03"/>
</g>
<!-- Node10 -->
<g id="node10" class="node">
<title>Node10</title>
<g id="a_node10"><a xlink:title=" ">
<polygon fill="white" stroke="#bfbfbf" points="1172.5,-0.5 1172.5,-19.5 1219.5,-19.5 1219.5,-0.5 1172.5,-0.5"/>
<text text-anchor="middle" x="1196" y="-7.5" font-family="Helvetica,sans-Serif" font-size="10.00">vector</text>
</a>
</g>
</g>
<!-- Node4&#45;&gt;Node10 -->
<g id="edge9" class="edge">
<title>Node4&#45;&gt;Node10</title>
<path fill="none" stroke="midnightblue" d="M794.08,-57.1C797.09,-56.72 800.08,-56.35 803,-56 935.66,-39.88 1093.71,-22.27 1161.91,-14.74"/>
<polygon fill="midnightblue" stroke="midnightblue" points="1162.51,-18.2 1172.06,-13.62 1161.74,-11.24 1162.51,-18.2"/>
</g>
<!-- Node11&#45;&gt;Node8 -->
<g id="edge13" class="edge">
<title>Node11&#45;&gt;Node8</title>
<path fill="none" stroke="midnightblue" d="M1002.39,-56.44C977.1,-47.28 936.83,-32.68 908.78,-22.52"/>
<polygon fill="midnightblue" stroke="midnightblue" points="909.64,-19.11 899.04,-18.99 907.25,-25.69 909.64,-19.11"/>
</g>
<!-- Node12 -->
<g id="node12" class="node">
<title>Node12</title>
<g id="a_node12"><a xlink:title=" ">
<polygon fill="white" stroke="#bfbfbf" points="1037,-0.5 1037,-19.5 1093,-19.5 1093,-0.5 1037,-0.5"/>
<text text-anchor="middle" x="1065" y="-7.5" font-family="Helvetica,sans-Serif" font-size="10.00">sstream</text>
</a>
</g>
</g>
<!-- Node11&#45;&gt;Node12 -->
<g id="edge11" class="edge">
<title>Node11&#45;&gt;Node12</title>
<path fill="none" stroke="midnightblue" d="M1032.44,-56.08C1037.95,-48.46 1046.03,-37.26 1052.76,-27.94"/>
<polygon fill="midnightblue" stroke="midnightblue" points="1055.66,-29.91 1058.68,-19.75 1049.99,-25.81 1055.66,-29.91"/>
</g>
<!-- Node13 -->
<g id="node13" class="node">
<title>Node13</title>
<g id="a_node13"><a xlink:title=" ">
<polygon fill="white" stroke="#bfbfbf" points="953.5,-0.5 953.5,-19.5 1018.5,-19.5 1018.5,-0.5 953.5,-0.5"/>
<text text-anchor="middle" x="986" y="-7.5" font-family="Helvetica,sans-Serif" font-size="10.00">stdexcept</text>
</a>
</g>
</g>
<!-- Node11&#45;&gt;Node13 -->
<g id="edge12" class="edge">
<title>Node11&#45;&gt;Node13</title>
<path fill="none" stroke="midnightblue" d="M1019.39,-56.08C1013.74,-48.46 1005.46,-37.26 998.55,-27.94"/>
<polygon fill="midnightblue" stroke="midnightblue" points="1001.25,-25.7 992.48,-19.75 995.62,-29.87 1001.25,-25.7"/>
</g>
<!-- Node14&#45;&gt;Node10 -->
<g id="edge31" class="edge">
<title>Node14&#45;&gt;Node10</title>
<path fill="none" stroke="midnightblue" d="M999.14,-168.39C1039.92,-154.96 1113.93,-125.32 1158,-76 1170.63,-61.86 1181.15,-42.88 1187.89,-29.08"/>
<polygon fill="midnightblue" stroke="midnightblue" points="1191.21,-30.25 1192.28,-19.71 1184.87,-27.28 1191.21,-30.25"/>
</g>
<!-- Node14&#45;&gt;Node11 -->
<g id="edge15" class="edge">
<title>Node14&#45;&gt;Node11</title>
<path fill="none" stroke="midnightblue" d="M964.64,-168.47C957.26,-155.51 945.93,-130.44 956,-112 963.82,-97.68 978.36,-87.24 992.18,-80.04"/>
<polygon fill="midnightblue" stroke="midnightblue" points="994.02,-83.03 1001.53,-75.56 991,-76.72 994.02,-83.03"/>
</g>
<!-- Node15 -->
<g id="node15" class="node">
<title>Node15</title>
<g id="a_node15"><a xlink:href="_optional_8hpp.html" target="_top" xlink:title=" ">
<polygon fill="white" stroke="black" points="630.5,-112.5 630.5,-131.5 709.5,-131.5 709.5,-112.5 630.5,-112.5"/>
<text text-anchor="middle" x="670" y="-119.5" font-family="Helvetica,sans-Serif" font-size="10.00">Optional.hpp</text>
</a>
</g>
</g>
<!-- Node14&#45;&gt;Node15 -->
<g id="edge16" class="edge">
<title>Node14&#45;&gt;Node15</title>
<path fill="none" stroke="midnightblue" d="M922.46,-168.44C867.09,-158.48 776.04,-142.09 719.74,-131.95"/>
<polygon fill="midnightblue" stroke="midnightblue" points="720.11,-128.46 709.65,-130.14 718.87,-135.35 720.11,-128.46"/>
</g>
<!-- Node14&#45;&gt;Node18 -->
<g id="edge20" class="edge">
<title>Node14&#45;&gt;Node18</title>
<path fill="none" stroke="midnightblue" d="M948.93,-168.44C926.94,-159.52 892.27,-145.44 867.34,-135.32"/>
<polygon fill="midnightblue" stroke="midnightblue" points="868.56,-132.04 857.98,-131.52 865.92,-138.52 868.56,-132.04"/>
</g>
<!-- Node19 -->
<g id="node19" class="node">
<title>Node19</title>
<g id="a_node19"><a xlink:title=" ">
<polygon fill="white" stroke="#bfbfbf" points="1107,-56.5 1107,-75.5 1149,-75.5 1149,-56.5 1107,-56.5"/>
<text text-anchor="middle" x="1128" y="-63.5" font-family="Helvetica,sans-Serif" font-size="10.00">array</text>
</a>
</g>
</g>
<!-- Node14&#45;&gt;Node19 -->
<g id="edge29" class="edge">
<title>Node14&#45;&gt;Node19</title>
<path fill="none" stroke="midnightblue" d="M990.2,-168.4C1008.4,-160.23 1035.53,-146.99 1057,-132 1077.85,-117.45 1098.99,-97.24 1112.72,-83.23"/>
<polygon fill="midnightblue" stroke="midnightblue" points="1115.47,-85.42 1119.88,-75.79 1110.43,-80.56 1115.47,-85.42"/>
</g>
<!-- Node14&#45;&gt;Node21 -->
<g id="edge28" class="edge">
<title>Node14&#45;&gt;Node21</title>
<path fill="none" stroke="midnightblue" d="M931.97,-168.49C896.48,-160.23 842.2,-146.81 796,-132 746.35,-116.09 690.11,-93.51 656.65,-79.59"/>
<polygon fill="midnightblue" stroke="midnightblue" points="657.6,-76.19 647.03,-75.56 654.9,-82.65 657.6,-76.19"/>
</g>
<!-- Node24 -->
<g id="node24" class="node">
<title>Node24</title>
<g id="a_node24"><a xlink:title=" ">
<polygon fill="white" stroke="#bfbfbf" points="964.5,-112.5 964.5,-131.5 1047.5,-131.5 1047.5,-112.5 964.5,-112.5"/>
<text text-anchor="middle" x="1006" y="-119.5" font-family="Helvetica,sans-Serif" font-size="10.00">initializer_list</text>
</a>
</g>
</g>
<!-- Node14&#45;&gt;Node24 -->
<g id="edge30" class="edge">
<title>Node14&#45;&gt;Node24</title>
<path fill="none" stroke="midnightblue" d="M975.94,-168.08C980.98,-160.53 988.34,-149.49 994.51,-140.23"/>
<polygon fill="midnightblue" stroke="midnightblue" points="997.53,-142.01 1000.17,-131.75 991.71,-138.13 997.53,-142.01"/>
</g>
<!-- Node25 -->
<g id="node25" class="node">
<title>Node25</title>
<g id="a_node25"><a xlink:title=" ">
<polygon fill="white" stroke="#bfbfbf" points="1180.5,-112.5 1180.5,-131.5 1225.5,-131.5 1225.5,-112.5 1180.5,-112.5"/>
<text text-anchor="middle" x="1203" y="-119.5" font-family="Helvetica,sans-Serif" font-size="10.00">utility</text>
</a>
</g>
</g>
<!-- Node14&#45;&gt;Node25 -->
<g id="edge32" class="edge">
<title>Node14&#45;&gt;Node25</title>
<path fill="none" stroke="midnightblue" d="M1006.92,-168.44C1051.97,-158 1127.42,-140.52 1170.41,-130.55"/>
<polygon fill="midnightblue" stroke="midnightblue" points="1171.39,-133.92 1180.34,-128.25 1169.81,-127.1 1171.39,-133.92"/>
</g>
<!-- Node15&#45;&gt;Node11 -->
<g id="edge17" class="edge">
<title>Node15&#45;&gt;Node11</title>
<path fill="none" stroke="midnightblue" d="M709.8,-114.96C770.37,-105.78 886.36,-88.18 959.76,-77.05"/>
<polygon fill="midnightblue" stroke="midnightblue" points="960.47,-80.48 969.83,-75.52 959.42,-73.56 960.47,-80.48"/>
</g>
<!-- Node16 -->
<g id="node16" class="node">
<title>Node16</title>
<g id="a_node16"><a xlink:title=" ">
<polygon fill="white" stroke="#bfbfbf" points="532,-56.5 532,-75.5 582,-75.5 582,-56.5 532,-56.5"/>
<text text-anchor="middle" x="557" y="-63.5" font-family="Helvetica,sans-Serif" font-size="10.00">cstring</text>
</a>
</g>
</g>
<!-- Node15&#45;&gt;Node16 -->
<g id="edge18" class="edge">
<title>Node15&#45;&gt;Node16</title>
<path fill="none" stroke="midnightblue" d="M652.09,-112.44C633.75,-103.68 604.99,-89.94 583.91,-79.86"/>
<polygon fill="midnightblue" stroke="midnightblue" points="585.35,-76.67 574.82,-75.52 582.33,-82.99 585.35,-76.67"/>
</g>
<!-- Node15&#45;&gt;Node17 -->
<g id="edge19" class="edge">
<title>Node15&#45;&gt;Node17</title>
<path fill="none" stroke="midnightblue" d="M630.28,-116.76C567.77,-109.89 442.43,-95.27 325.72,-76.01"/>
<polygon fill="midnightblue" stroke="midnightblue" points="325.98,-72.5 315.54,-74.31 324.83,-79.41 325.98,-72.5"/>
</g>
<!-- Node18&#45;&gt;Node4 -->
<g id="edge25" class="edge">
<title>Node18&#45;&gt;Node4</title>
<path fill="none" stroke="midnightblue" d="M820.29,-112.32C803.69,-103.7 778,-90.36 758.78,-80.39"/>
<polygon fill="midnightblue" stroke="midnightblue" points="760.16,-77.16 749.67,-75.65 756.93,-83.37 760.16,-77.16"/>
</g>
<!-- Node18&#45;&gt;Node11 -->
<g id="edge26" class="edge">
<title>Node18&#45;&gt;Node11</title>
<path fill="none" stroke="midnightblue" d="M866.95,-112.44C899.16,-103.24 950.53,-88.56 986.14,-78.39"/>
<polygon fill="midnightblue" stroke="midnightblue" points="987.54,-81.63 996.19,-75.52 985.62,-74.9 987.54,-81.63"/>
</g>
<!-- Node18&#45;&gt;Node19 -->
<g id="edge21" class="edge">
<title>Node18&#45;&gt;Node19</title>
<path fill="none" stroke="midnightblue" d="M869.81,-116.64C917.73,-109.99 1009.8,-96.16 1097,-76"/>
<polygon fill="midnightblue" stroke="midnightblue" points="1097.84,-79.4 1106.78,-73.71 1096.25,-72.59 1097.84,-79.4"/>
</g>
<!-- Node20 -->
<g id="node20" class="node">
<title>Node20</title>
<g id="a_node20"><a xlink:title=" ">
<polygon fill="white" stroke="#bfbfbf" points="880.5,-56.5 880.5,-75.5 945.5,-75.5 945.5,-56.5 880.5,-56.5"/>
<text text-anchor="middle" x="913" y="-63.5" font-family="Helvetica,sans-Serif" font-size="10.00">functional</text>
</a>
</g>
</g>
<!-- Node18&#45;&gt;Node20 -->
<g id="edge22" class="edge">
<title>Node18&#45;&gt;Node20</title>
<path fill="none" stroke="midnightblue" d="M849.21,-112.32C860.78,-104.11 878.38,-91.6 892.16,-81.81"/>
<polygon fill="midnightblue" stroke="midnightblue" points="894.44,-84.48 900.57,-75.83 890.39,-78.77 894.44,-84.48"/>
</g>
<!-- Node18&#45;&gt;Node21 -->
<g id="edge23" class="edge">
<title>Node18&#45;&gt;Node21</title>
<path fill="none" stroke="midnightblue" d="M804.19,-112.56C765.98,-102.74 703.07,-86.56 663.4,-76.36"/>
<polygon fill="midnightblue" stroke="midnightblue" points="664.15,-72.94 653.6,-73.84 662.41,-79.72 664.15,-72.94"/>
</g>
<!-- Node22 -->
<g id="node22" class="node">
<title>Node22</title>
<g id="a_node22"><a xlink:title=" ">
<polygon fill="white" stroke="#bfbfbf" points="812,-56.5 812,-75.5 862,-75.5 862,-56.5 812,-56.5"/>
<text text-anchor="middle" x="837" y="-63.5" font-family="Helvetica,sans-Serif" font-size="10.00">chrono</text>
</a>
</g>
</g>
<!-- Node18&#45;&gt;Node22 -->
<g id="edge24" class="edge">
<title>Node18&#45;&gt;Node22</title>
<path fill="none" stroke="midnightblue" d="M837,-112.08C837,-105.01 837,-94.86 837,-85.99"/>
<polygon fill="midnightblue" stroke="midnightblue" points="840.5,-85.75 837,-75.75 833.5,-85.75 840.5,-85.75"/>
</g>
<!-- Node23 -->
<g id="node23" class="node">
<title>Node23</title>
<g id="a_node23"><a xlink:href="_deprecated_8hpp.html" target="_top" xlink:title=" ">
<polygon fill="white" stroke="black" points="1300,-56.5 1300,-75.5 1394,-75.5 1394,-56.5 1300,-56.5"/>
<text text-anchor="middle" x="1347" y="-63.5" font-family="Helvetica,sans-Serif" font-size="10.00">Deprecated.hpp</text>
</a>
</g>
</g>
<!-- Node18&#45;&gt;Node23 -->
<g id="edge27" class="edge">
<title>Node18&#45;&gt;Node23</title>
<path fill="none" stroke="midnightblue" d="M869.68,-117.54C954.55,-108.55 1182.8,-84.39 1289.96,-73.04"/>
<polygon fill="midnightblue" stroke="midnightblue" points="1290.37,-76.52 1299.95,-71.98 1289.63,-69.55 1290.37,-76.52"/>
</g>
<!-- Node28 -->
<g id="node28" class="node">
<title>Node28</title>
<g id="a_node28"><a xlink:title=" ">
<polygon fill="white" stroke="#bfbfbf" points="100,-168.5 100,-187.5 152,-187.5 152,-168.5 100,-168.5"/>
<text text-anchor="middle" x="126" y="-175.5" font-family="Helvetica,sans-Serif" font-size="10.00">cassert</text>
</a>
</g>
</g>
<!-- Node27&#45;&gt;Node28 -->
<g id="edge40" class="edge">
<title>Node27&#45;&gt;Node28</title>
<path fill="none" stroke="midnightblue" d="M372.08,-224.47C319.39,-215.95 236.99,-202.12 166,-188 164.74,-187.75 163.47,-187.49 162.18,-187.22"/>
<polygon fill="midnightblue" stroke="midnightblue" points="162.72,-183.76 152.21,-185.09 161.26,-190.61 162.72,-183.76"/>
</g>
<!-- Node30&#45;&gt;Node17 -->
<g id="edge44" class="edge">
<title>Node30&#45;&gt;Node17</title>
<path fill="none" stroke="midnightblue" d="M178.63,-285.87C141.82,-266.37 61.67,-216.81 91,-168 122.4,-115.76 190.95,-89.08 236.55,-76.6"/>
<polygon fill="midnightblue" stroke="midnightblue" points="237.68,-79.92 246.47,-74.01 235.91,-73.15 237.68,-79.92"/>
</g>
<!-- Node30&#45;&gt;Node27 -->
<g id="edge43" class="edge">
<title>Node30&#45;&gt;Node27</title>
<path fill="none" stroke="midnightblue" d="M228.95,-285.98C269.6,-275.46 338.79,-257.56 383.42,-246.01"/>
<polygon fill="midnightblue" stroke="midnightblue" points="384.3,-249.4 393.11,-243.51 382.55,-242.63 384.3,-249.4"/>
</g>
<!-- Node31 -->
<g id="node31" class="node">
<title>Node31</title>
<g id="a_node31"><a xlink:title=" ">
<polygon fill="white" stroke="#bfbfbf" points="0,-224.5 0,-243.5 44,-243.5 44,-224.5 0,-224.5"/>
<text text-anchor="middle" x="22" y="-231.5" font-family="Helvetica,sans-Serif" font-size="10.00">limits</text>
</a>
</g>
</g>
<!-- Node30&#45;&gt;Node31 -->
<g id="edge45" class="edge">
<title>Node30&#45;&gt;Node31</title>
<path fill="none" stroke="midnightblue" d="M171.07,-285.98C140.24,-275.43 87.72,-257.47 53.96,-245.93"/>
<polygon fill="midnightblue" stroke="midnightblue" points="54.72,-242.49 44.13,-242.57 52.46,-249.11 54.72,-242.49"/>
</g>
<!-- Node33 -->
<g id="node33" class="node">
<title>Node33</title>
<g id="a_node33"><a xlink:title=" ">
<polygon fill="white" stroke="#bfbfbf" points="1135.5,-224.5 1135.5,-243.5 1188.5,-243.5 1188.5,-224.5 1135.5,-224.5"/>
<text text-anchor="middle" x="1162" y="-231.5" font-family="Helvetica,sans-Serif" font-size="10.00">cstddef</text>
</a>
</g>
</g>
<!-- Node32&#45;&gt;Node33 -->
<g id="edge47" class="edge">
<title>Node32&#45;&gt;Node33</title>
<path fill="none" stroke="midnightblue" d="M1090.28,-280.4C1105.2,-270.95 1124.78,-258.56 1139.71,-249.11"/>
<polygon fill="midnightblue" stroke="midnightblue" points="1141.74,-251.96 1148.32,-243.66 1138,-246.05 1141.74,-251.96"/>
</g>
<!-- Node34&#45;&gt;Node3 -->
<g id="edge49" class="edge">
<title>Node34&#45;&gt;Node3</title>
<path fill="none" stroke="midnightblue" d="M872.67,-285.98C855.03,-276.17 825.84,-259.93 805.14,-248.42"/>
<polygon fill="midnightblue" stroke="midnightblue" points="806.74,-245.31 796.3,-243.51 803.34,-251.43 806.74,-245.31"/>
</g>
<!-- Node34&#45;&gt;Node10 -->
<g id="edge54" class="edge">
<title>Node34&#45;&gt;Node10</title>
<path fill="none" stroke="midnightblue" d="M907.91,-285.92C961.53,-261.7 1109.62,-187.23 1179,-76 1187.78,-61.93 1192.05,-43.44 1194.11,-29.77"/>
<polygon fill="midnightblue" stroke="midnightblue" points="1197.61,-29.99 1195.38,-19.64 1190.67,-29.13 1197.61,-29.99"/>
</g>
<!-- Node34&#45;&gt;Node14 -->
<g id="edge50" class="edge">
<title>Node34&#45;&gt;Node14</title>
<path fill="none" stroke="midnightblue" d="M894.16,-285.82C907.7,-266.76 940.22,-220.95 957.96,-195.96"/>
<polygon fill="midnightblue" stroke="midnightblue" points="960.83,-197.96 963.77,-187.78 955.12,-193.91 960.83,-197.96"/>
</g>
<!-- Node34&#45;&gt;Node18 -->
<g id="edge51" class="edge">
<title>Node34&#45;&gt;Node18</title>
<path fill="none" stroke="midnightblue" d="M885.4,-285.76C877.45,-259.04 853.36,-178.02 842.46,-141.36"/>
<polygon fill="midnightblue" stroke="midnightblue" points="845.74,-140.11 839.53,-131.52 839.03,-142.1 845.74,-140.11"/>
</g>
<!-- Node34&#45;&gt;Node25 -->
<g id="edge53" class="edge">
<title>Node34&#45;&gt;Node25</title>
<path fill="none" stroke="midnightblue" d="M939.19,-285.96C975.58,-278.46 1024.76,-265.33 1064,-244 1116,-215.74 1165.43,-165.14 1188.85,-139.24"/>
<polygon fill="midnightblue" stroke="midnightblue" points="1191.47,-141.56 1195.51,-131.76 1186.25,-136.9 1191.47,-141.56"/>
</g>
<!-- Node34&#45;&gt;Node34 -->
<g id="edge52" class="edge">
<title>Node34&#45;&gt;Node34</title>
<path fill="none" stroke="midnightblue" d="M922.15,-305.03C950.69,-309.11 980.5,-305.93 980.5,-295.5 980.5,-286.29 957.26,-282.74 932.19,-284.83"/>
<polygon fill="midnightblue" stroke="midnightblue" points="931.7,-281.37 922.15,-285.97 932.48,-288.32 931.7,-281.37"/>
</g>
<!-- Node35&#45;&gt;Node18 -->
<g id="edge56" class="edge">
<title>Node35&#45;&gt;Node18</title>
<path fill="none" stroke="midnightblue" d="M435.55,-171.07C524.74,-160.39 710.76,-138.11 794.52,-128.09"/>
<polygon fill="midnightblue" stroke="midnightblue" points="794.94,-131.56 804.45,-126.9 794.11,-124.61 794.94,-131.56"/>
</g>
<!-- Node36 -->
<g id="node36" class="node">
<title>Node36</title>
<g id="a_node36"><a xlink:href="_b_float16_8hpp.html" target="_top" xlink:title=" ">
<polygon fill="white" stroke="black" points="492.5,-112.5 492.5,-131.5 573.5,-131.5 573.5,-112.5 492.5,-112.5"/>
<text text-anchor="middle" x="533" y="-119.5" font-family="Helvetica,sans-Serif" font-size="10.00">BFloat16.hpp</text>
</a>
</g>
</g>
<!-- Node35&#45;&gt;Node36 -->
<g id="edge57" class="edge">
<title>Node35&#45;&gt;Node36</title>
<path fill="none" stroke="midnightblue" d="M409.29,-168.44C433.81,-159.44 472.6,-145.19 500.2,-135.05"/>
<polygon fill="midnightblue" stroke="midnightblue" points="501.64,-138.25 509.82,-131.52 499.22,-131.68 501.64,-138.25"/>
</g>
<!-- Node37 -->
<g id="node37" class="node">
<title>Node37</title>
<g id="a_node37"><a xlink:href="_half_8hpp.html" target="_top" xlink:title=" ">
<polygon fill="white" stroke="black" points="343.5,-112.5 343.5,-131.5 400.5,-131.5 400.5,-112.5 343.5,-112.5"/>
<text text-anchor="middle" x="372" y="-119.5" font-family="Helvetica,sans-Serif" font-size="10.00">Half.hpp</text>
</a>
</g>
</g>
<!-- Node35&#45;&gt;Node37 -->
<g id="edge62" class="edge">
<title>Node35&#45;&gt;Node37</title>
<path fill="none" stroke="midnightblue" d="M383.69,-168.08C381.83,-160.93 379.16,-150.64 376.85,-141.69"/>
<polygon fill="midnightblue" stroke="midnightblue" points="380.17,-140.55 374.27,-131.75 373.39,-142.31 380.17,-140.55"/>
</g>
<!-- Node36&#45;&gt;Node6 -->
<g id="edge58" class="edge">
<title>Node36&#45;&gt;Node6</title>
<path fill="none" stroke="midnightblue" d="M530.72,-112.37C526.02,-94.54 515.15,-53.3 508.82,-29.27"/>
<polygon fill="midnightblue" stroke="midnightblue" points="512.2,-28.37 506.27,-19.59 505.43,-30.15 512.2,-28.37"/>
</g>
<!-- Node36&#45;&gt;Node16 -->
<g id="edge60" class="edge">
<title>Node36&#45;&gt;Node16</title>
<path fill="none" stroke="midnightblue" d="M536.96,-112.08C540.21,-104.77 544.92,-94.18 548.95,-85.1"/>
<polygon fill="midnightblue" stroke="midnightblue" points="552.25,-86.31 553.11,-75.75 545.85,-83.47 552.25,-86.31"/>
</g>
<!-- Node36&#45;&gt;Node21 -->
<g id="edge61" class="edge">
<title>Node36&#45;&gt;Node21</title>
<path fill="none" stroke="midnightblue" d="M548.1,-112.32C562.9,-103.82 585.69,-90.73 602.98,-80.8"/>
<polygon fill="midnightblue" stroke="midnightblue" points="605.01,-83.67 611.93,-75.65 601.52,-77.6 605.01,-83.67"/>
</g>
<!-- Node36&#45;&gt;Node26 -->
<g id="edge59" class="edge">
<title>Node36&#45;&gt;Node26</title>
<path fill="none" stroke="midnightblue" d="M519.99,-112.32C507.47,-103.98 488.32,-91.21 473.53,-81.35"/>
<polygon fill="midnightblue" stroke="midnightblue" points="475.24,-78.29 464.98,-75.65 471.36,-84.11 475.24,-78.29"/>
</g>
<!-- Node37&#45;&gt;Node17 -->
<g id="edge63" class="edge">
<title>Node37&#45;&gt;Node17</title>
<path fill="none" stroke="midnightblue" d="M357.38,-112.32C343.05,-103.82 320.99,-90.73 304.25,-80.8"/>
<polygon fill="midnightblue" stroke="midnightblue" points="305.97,-77.75 295.58,-75.65 302.4,-83.77 305.97,-77.75"/>
</g>
<!-- Node38 -->
<g id="node38" class="node">
<title>Node38</title>
<g id="a_node38"><a xlink:title=" ">
<polygon fill="white" stroke="#bfbfbf" points="333.5,-56.5 333.5,-75.5 410.5,-75.5 410.5,-56.5 333.5,-56.5"/>
<text text-anchor="middle" x="372" y="-63.5" font-family="Helvetica,sans-Serif" font-size="10.00">half/half.hpp</text>
</a>
</g>
</g>
<!-- Node37&#45;&gt;Node38 -->
<g id="edge64" class="edge">
<title>Node37&#45;&gt;Node38</title>
<path fill="none" stroke="midnightblue" d="M372,-112.08C372,-105.01 372,-94.86 372,-85.99"/>
<polygon fill="midnightblue" stroke="midnightblue" points="375.5,-85.75 372,-75.75 368.5,-85.75 375.5,-85.75"/>
</g>
<!-- Node39&#45;&gt;Node2 -->
<g id="edge66" class="edge">
<title>Node39&#45;&gt;Node2</title>
<path fill="none" stroke="midnightblue" d="M835.06,-403.44C806.34,-394.32 760.67,-379.81 728.68,-369.65"/>
<polygon fill="midnightblue" stroke="midnightblue" points="729.4,-366.21 718.81,-366.52 727.28,-372.88 729.4,-366.21"/>
</g>
<!-- Node39&#45;&gt;Node27 -->
<g id="edge69" class="edge">
<title>Node39&#45;&gt;Node27</title>
<path fill="none" stroke="midnightblue" d="M852.12,-403.24C824.55,-379.32 743.56,-312.47 664,-280 612.57,-259.01 550.84,-247.7 503.14,-241.67"/>
<polygon fill="midnightblue" stroke="midnightblue" points="503.53,-238.19 493.18,-240.46 502.69,-245.14 503.53,-238.19"/>
</g>
<!-- Node39&#45;&gt;Node32 -->
<g id="edge67" class="edge">
<title>Node39&#45;&gt;Node32</title>
<path fill="none" stroke="midnightblue" d="M877.48,-403.32C910.57,-384.77 988.84,-340.88 1034.09,-315.51"/>
<polygon fill="midnightblue" stroke="midnightblue" points="1035.94,-318.49 1042.95,-310.55 1032.52,-312.38 1035.94,-318.49"/>
</g>
<!-- Node39&#45;&gt;Node34 -->
<g id="edge68" class="edge">
<title>Node39&#45;&gt;Node34</title>
<path fill="none" stroke="midnightblue" d="M863.95,-403.32C868.15,-384.67 878.11,-340.44 883.81,-315.13"/>
<polygon fill="midnightblue" stroke="midnightblue" points="887.24,-315.81 886.02,-305.28 880.41,-314.27 887.24,-315.81"/>
</g>
<!-- Node40&#45;&gt;Node2 -->
<g id="edge71" class="edge">
<title>Node40&#45;&gt;Node2</title>
<path fill="none" stroke="midnightblue" d="M693.67,-403.08C693.41,-396.01 693.03,-385.86 692.7,-376.99"/>
<polygon fill="midnightblue" stroke="midnightblue" points="696.19,-376.61 692.32,-366.75 689.2,-376.87 696.19,-376.61"/>
</g>
<!-- Node40&#45;&gt;Node27 -->
<g id="edge73" class="edge">
<title>Node40&#45;&gt;Node27</title>
<path fill="none" stroke="midnightblue" d="M652.77,-406.67C597.52,-397.3 500.15,-372.65 446,-311 432.1,-295.17 427.69,-270.8 426.38,-253.94"/>
<polygon fill="midnightblue" stroke="midnightblue" points="429.86,-253.49 425.89,-243.67 422.87,-253.82 429.86,-253.49"/>
</g>
<!-- Node40&#45;&gt;Node34 -->
<g id="edge72" class="edge">
<title>Node40&#45;&gt;Node34</title>
<path fill="none" stroke="midnightblue" d="M708.58,-403.32C742.02,-383.41 824.44,-334.34 864.87,-310.27"/>
<polygon fill="midnightblue" stroke="midnightblue" points="866.71,-313.25 873.51,-305.12 863.13,-307.23 866.71,-313.25"/>
</g>
<!-- Node41&#45;&gt;Node10 -->
<g id="edge83" class="edge">
<title>Node41&#45;&gt;Node10</title>
<path fill="none" stroke="midnightblue" d="M1380.68,-224.43C1402.43,-218.1 1424.88,-207.11 1438,-188 1472.36,-137.97 1448.59,-96.06 1403,-56 1377.54,-33.63 1281.45,-20.15 1229.62,-14.35"/>
<polygon fill="midnightblue" stroke="midnightblue" points="1229.9,-10.86 1219.58,-13.26 1229.14,-17.82 1229.9,-10.86"/>
</g>
<!-- Node41&#45;&gt;Node11 -->
<g id="edge79" class="edge">
<title>Node41&#45;&gt;Node11</title>
<path fill="none" stroke="midnightblue" d="M1256.76,-228.16C1229.74,-222.57 1200.74,-211.12 1184,-188 1158.65,-152.99 1231.14,-139.44 1235,-132 1239.09,-124.11 1240.58,-118.92 1235,-112 1225.93,-100.76 1150.62,-86.55 1092.98,-77.14"/>
<polygon fill="midnightblue" stroke="midnightblue" points="1093.23,-73.64 1082.8,-75.5 1092.12,-80.55 1093.23,-73.64"/>
</g>
<!-- Node41&#45;&gt;Node14 -->
<g id="edge77" class="edge">
<title>Node41&#45;&gt;Node14</title>
<path fill="none" stroke="midnightblue" d="M1265.38,-224.44C1201.8,-214.66 1098.02,-198.69 1031.91,-188.53"/>
<polygon fill="midnightblue" stroke="midnightblue" points="1032.06,-185.01 1021.64,-186.94 1030.99,-191.92 1032.06,-185.01"/>
</g>
<!-- Node41&#45;&gt;Node18 -->
<g id="edge78" class="edge">
<title>Node41&#45;&gt;Node18</title>
<path fill="none" stroke="midnightblue" d="M1283.42,-224.46C1194.79,-204.32 973.15,-153.94 879.66,-132.7"/>
<polygon fill="midnightblue" stroke="midnightblue" points="880.23,-129.23 869.7,-130.43 878.67,-136.06 880.23,-129.23"/>
</g>
<!-- Node41&#45;&gt;Node23 -->
<g id="edge75" class="edge">
<title>Node41&#45;&gt;Node23</title>
<path fill="none" stroke="midnightblue" d="M1365.7,-224.48C1386.23,-218.09 1408.7,-207.02 1421,-188 1445.46,-150.17 1397.17,-104.62 1367.62,-81.7"/>
<polygon fill="midnightblue" stroke="midnightblue" points="1369.6,-78.81 1359.5,-75.6 1365.39,-84.4 1369.6,-78.81"/>
</g>
<!-- Node41&#45;&gt;Node25 -->
<g id="edge82" class="edge">
<title>Node41&#45;&gt;Node25</title>
<path fill="none" stroke="midnightblue" d="M1322.8,-224.44C1325.11,-210.98 1327.46,-184.72 1315,-168 1296.4,-143.04 1261.68,-131.9 1235.81,-126.94"/>
<polygon fill="midnightblue" stroke="midnightblue" points="1236.13,-123.44 1225.68,-125.22 1234.96,-130.34 1236.13,-123.44"/>
</g>
<!-- Node42 -->
<g id="node42" class="node">
<title>Node42</title>
<g id="a_node42"><a xlink:href="_descriptors_fwd_8hpp.html" target="_top" xlink:title=" ">
<polygon fill="white" stroke="black" points="1192.5,-168.5 1192.5,-187.5 1305.5,-187.5 1305.5,-168.5 1192.5,-168.5"/>
<text text-anchor="middle" x="1249" y="-175.5" font-family="Helvetica,sans-Serif" font-size="10.00">DescriptorsFwd.hpp</text>
</a>
</g>
</g>
<!-- Node41&#45;&gt;Node42 -->
<g id="edge76" class="edge">
<title>Node41&#45;&gt;Node42</title>
<path fill="none" stroke="midnightblue" d="M1309.43,-224.32C1298.58,-216.18 1282.12,-203.84 1269.12,-194.09"/>
<polygon fill="midnightblue" stroke="midnightblue" points="1270.88,-191.03 1260.78,-187.83 1266.68,-196.63 1270.88,-191.03"/>
</g>
<!-- Node43 -->
<g id="node43" class="node">
<title>Node43</title>
<g id="a_node43"><a xlink:title=" ">
<polygon fill="white" stroke="#bfbfbf" points="1362,-168.5 1362,-187.5 1412,-187.5 1412,-168.5 1362,-168.5"/>
<text text-anchor="middle" x="1387" y="-175.5" font-family="Helvetica,sans-Serif" font-size="10.00">cstdint</text>
</a>
</g>
</g>
<!-- Node41&#45;&gt;Node43 -->
<g id="edge80" class="edge">
<title>Node41&#45;&gt;Node43</title>
<path fill="none" stroke="midnightblue" d="M1331.6,-224.32C1341.46,-216.26 1356.35,-204.08 1368.22,-194.37"/>
<polygon fill="midnightblue" stroke="midnightblue" points="1370.68,-196.88 1376.2,-187.83 1366.25,-191.46 1370.68,-196.88"/>
</g>
<!-- Node44 -->
<g id="node44" class="node">
<title>Node44</title>
<g id="a_node44"><a xlink:title=" ">
<polygon fill="white" stroke="#bfbfbf" points="1506.5,-168.5 1506.5,-187.5 1559.5,-187.5 1559.5,-168.5 1506.5,-168.5"/>
<text text-anchor="middle" x="1533" y="-175.5" font-family="Helvetica,sans-Serif" font-size="10.00">iterator</text>
</a>
</g>
</g>
<!-- Node41&#45;&gt;Node44 -->
<g id="edge81" class="edge">
<title>Node41&#45;&gt;Node44</title>
<path fill="none" stroke="midnightblue" d="M1354.59,-224.44C1393.26,-214.59 1456.55,-198.47 1496.43,-188.32"/>
<polygon fill="midnightblue" stroke="midnightblue" points="1497.45,-191.67 1506.28,-185.81 1495.72,-184.88 1497.45,-191.67"/>
</g>
</g>
</svg>
