<?xml version="1.0" encoding="UTF-8" standalone="no"?>
<!DOCTYPE svg PUBLIC "-//W3C//DTD SVG 1.1//EN"
 "http://www.w3.org/Graphics/SVG/1.1/DTD/svg11.dtd">
<!-- Generated by graphviz version 2.43.0 (0)
 -->
<!-- Title: include/armnn/backends/SubgraphView.hpp Pages: 1 -->
<svg width="400pt" height="95pt"
 viewBox="0.00 0.00 400.00 95.00" xmlns="http://www.w3.org/2000/svg" xmlns:xlink="http://www.w3.org/1999/xlink">
<g id="graph0" class="graph" transform="scale(1 1) rotate(0) translate(4 91)">
<title>include/armnn/backends/SubgraphView.hpp</title>
<polygon fill="white" stroke="transparent" points="-4,4 -4,-91 396,-91 396,4 -4,4"/>
<!-- Node1 -->
<g id="node1" class="node">
<title>Node1</title>
<g id="a_node1"><a xlink:title=" ">
<polygon fill="#bfbfbf" stroke="black" points="160.5,-56.5 160.5,-86.5 295.5,-86.5 295.5,-56.5 160.5,-56.5"/>
<text text-anchor="start" x="168.5" y="-74.5" font-family="Helvetica,sans-Serif" font-size="10.00">include/armnn/backends</text>
<text text-anchor="middle" x="228" y="-63.5" font-family="Helvetica,sans-Serif" font-size="10.00">/SubgraphView.hpp</text>
</a>
</g>
</g>
<!-- Node2 -->
<g id="node2" class="node">
<title>Node2</title>
<g id="a_node2"><a xlink:href="_deprecated_8hpp.html" target="_top" xlink:title=" ">
<polygon fill="white" stroke="black" points="0,-0.5 0,-19.5 128,-19.5 128,-0.5 0,-0.5"/>
<text text-anchor="middle" x="64" y="-7.5" font-family="Helvetica,sans-Serif" font-size="10.00">armnn/Deprecated.hpp</text>
</a>
</g>
</g>
<!-- Node1&#45;&gt;Node2 -->
<g id="edge1" class="edge">
<title>Node1&#45;&gt;Node2</title>
<path fill="none" stroke="midnightblue" d="M189.13,-56.4C161.25,-46.28 124.06,-32.79 97.49,-23.15"/>
<polygon fill="midnightblue" stroke="midnightblue" points="98.46,-19.78 87.86,-19.66 96.07,-26.36 98.46,-19.78"/>
</g>
<!-- Node3 -->
<g id="node3" class="node">
<title>Node3</title>
<g id="a_node3"><a xlink:title=" ">
<polygon fill="white" stroke="#bfbfbf" points="146.5,-0.5 146.5,-19.5 193.5,-19.5 193.5,-0.5 146.5,-0.5"/>
<text text-anchor="middle" x="170" y="-7.5" font-family="Helvetica,sans-Serif" font-size="10.00">vector</text>
</a>
</g>
</g>
<!-- Node1&#45;&gt;Node3 -->
<g id="edge2" class="edge">
<title>Node1&#45;&gt;Node3</title>
<path fill="none" stroke="midnightblue" d="M214.25,-56.4C205.65,-47.58 194.55,-36.18 185.61,-27.02"/>
<polygon fill="midnightblue" stroke="midnightblue" points="187.93,-24.38 178.44,-19.66 182.91,-29.26 187.93,-24.38"/>
</g>
<!-- Node4 -->
<g id="node4" class="node">
<title>Node4</title>
<g id="a_node4"><a xlink:title=" ">
<polygon fill="white" stroke="#bfbfbf" points="212,-0.5 212,-19.5 244,-19.5 244,-0.5 212,-0.5"/>
<text text-anchor="middle" x="228" y="-7.5" font-family="Helvetica,sans-Serif" font-size="10.00">list</text>
</a>
</g>
</g>
<!-- Node1&#45;&gt;Node4 -->
<g id="edge3" class="edge">
<title>Node1&#45;&gt;Node4</title>
<path fill="none" stroke="midnightblue" d="M228,-56.4C228,-48.47 228,-38.46 228,-29.86"/>
<polygon fill="midnightblue" stroke="midnightblue" points="231.5,-29.66 228,-19.66 224.5,-29.66 231.5,-29.66"/>
</g>
<!-- Node5 -->
<g id="node5" class="node">
<title>Node5</title>
<g id="a_node5"><a xlink:title=" ">
<polygon fill="white" stroke="#bfbfbf" points="262.5,-0.5 262.5,-19.5 315.5,-19.5 315.5,-0.5 262.5,-0.5"/>
<text text-anchor="middle" x="289" y="-7.5" font-family="Helvetica,sans-Serif" font-size="10.00">iterator</text>
</a>
</g>
</g>
<!-- Node1&#45;&gt;Node5 -->
<g id="edge4" class="edge">
<title>Node1&#45;&gt;Node5</title>
<path fill="none" stroke="midnightblue" d="M242.46,-56.4C251.59,-47.49 263.42,-35.95 272.86,-26.74"/>
<polygon fill="midnightblue" stroke="midnightblue" points="275.41,-29.15 280.12,-19.66 270.52,-24.13 275.41,-29.15"/>
</g>
<!-- Node6 -->
<g id="node6" class="node">
<title>Node6</title>
<g id="a_node6"><a xlink:title=" ">
<polygon fill="white" stroke="#bfbfbf" points="334,-0.5 334,-19.5 392,-19.5 392,-0.5 334,-0.5"/>
<text text-anchor="middle" x="363" y="-7.5" font-family="Helvetica,sans-Serif" font-size="10.00">memory</text>
</a>
</g>
</g>
<!-- Node1&#45;&gt;Node6 -->
<g id="edge5" class="edge">
<title>Node1&#45;&gt;Node6</title>
<path fill="none" stroke="midnightblue" d="M259.99,-56.4C282.44,-46.51 312.21,-33.38 333.98,-23.79"/>
<polygon fill="midnightblue" stroke="midnightblue" points="335.62,-26.89 343.36,-19.66 332.79,-20.49 335.62,-26.89"/>
</g>
</g>
</svg>
