<?xml version="1.0" encoding="UTF-8" standalone="no"?>
<!DOCTYPE svg PUBLIC "-//W3C//DTD SVG 1.1//EN"
 "http://www.w3.org/Graphics/SVG/1.1/DTD/svg11.dtd">
<!-- Generated by graphviz version 2.43.0 (0)
 -->
<!-- Title: RefDebugWorkload&lt; DataType &gt; Pages: 1 -->
<svg width="1285pt" height="163pt"
 viewBox="0.00 0.00 1285.00 163.00" xmlns="http://www.w3.org/2000/svg" xmlns:xlink="http://www.w3.org/1999/xlink">
<g id="graph0" class="graph" transform="scale(1 1) rotate(0) translate(4 159)">
<title>RefDebugWorkload&lt; DataType &gt;</title>
<polygon fill="white" stroke="transparent" points="-4,4 -4,-159 1281,-159 1281,4 -4,4"/>
<!-- Node1 -->
<g id="node1" class="node">
<title>Node1</title>
<g id="a_node1"><a xlink:title=" ">
<polygon fill="#bfbfbf" stroke="black" points="1098,-35.5 1098,-54.5 1277,-54.5 1277,-35.5 1098,-35.5"/>
<text text-anchor="middle" x="1187.5" y="-42.5" font-family="Helvetica,sans-Serif" font-size="10.00">RefDebugWorkload&lt; DataType &gt;</text>
</a>
</g>
</g>
<!-- Node2 -->
<g id="node2" class="node">
<title>Node2</title>
<g id="a_node2"><a xlink:href="classarmnn_1_1_typed_workload.html" target="_top" xlink:title=" ">
<polygon fill="white" stroke="black" points="896,-30 896,-60 1061,-60 1061,-30 896,-30"/>
<text text-anchor="start" x="904" y="-48" font-family="Helvetica,sans-Serif" font-size="10.00">TypedWorkload&lt; DebugQueue</text>
<text text-anchor="middle" x="978.5" y="-37" font-family="Helvetica,sans-Serif" font-size="10.00">Descriptor, DataType &gt;</text>
</a>
</g>
</g>
<!-- Node2&#45;&gt;Node1 -->
<g id="edge1" class="edge">
<title>Node2&#45;&gt;Node1</title>
<path fill="none" stroke="midnightblue" d="M1071.03,-45C1079.95,-45 1088.99,-45 1097.89,-45"/>
<polygon fill="midnightblue" stroke="midnightblue" points="1071.01,-41.5 1061.01,-45 1071.01,-48.5 1071.01,-41.5"/>
</g>
<!-- Node3 -->
<g id="node3" class="node">
<title>Node3</title>
<g id="a_node3"><a xlink:href="classarmnn_1_1_base_workload.html" target="_top" xlink:title=" ">
<polygon fill="white" stroke="black" points="555,-57 555,-87 716,-87 716,-57 555,-57"/>
<text text-anchor="start" x="563" y="-75" font-family="Helvetica,sans-Serif" font-size="10.00">BaseWorkload&lt; DebugQueue</text>
<text text-anchor="middle" x="635.5" y="-64" font-family="Helvetica,sans-Serif" font-size="10.00">Descriptor &gt;</text>
</a>
</g>
</g>
<!-- Node3&#45;&gt;Node2 -->
<g id="edge2" class="edge">
<title>Node3&#45;&gt;Node2</title>
<path fill="none" stroke="midnightblue" d="M726.3,-64.97C771.77,-61.4 827.82,-56.99 878,-53 883.79,-52.54 889.76,-52.06 895.78,-51.58"/>
<polygon fill="midnightblue" stroke="midnightblue" points="725.87,-61.49 716.18,-65.77 726.42,-68.47 725.87,-61.49"/>
</g>
<!-- Node4 -->
<g id="node4" class="node">
<title>Node4</title>
<g id="a_node4"><a xlink:href="classarmnn_1_1_i_workload.html" target="_top" xlink:title="Workload interface to enqueue a layer computation.">
<polygon fill="white" stroke="black" points="16.5,-38.5 16.5,-57.5 81.5,-57.5 81.5,-38.5 16.5,-38.5"/>
<text text-anchor="middle" x="49" y="-45.5" font-family="Helvetica,sans-Serif" font-size="10.00">IWorkload</text>
</a>
</g>
</g>
<!-- Node4&#45;&gt;Node3 -->
<g id="edge3" class="edge">
<title>Node4&#45;&gt;Node3</title>
<path fill="none" stroke="midnightblue" d="M92.12,-49.73C189.04,-53.71 429.13,-63.57 554.85,-68.73"/>
<polygon fill="midnightblue" stroke="midnightblue" points="91.98,-46.22 81.84,-49.31 91.69,-53.21 91.98,-46.22"/>
</g>
<!-- Node7 -->
<g id="node7" class="node">
<title>Node7</title>
<g id="a_node7"><a xlink:href="classarmnn_1_1_base_workload.html" target="_top" xlink:title=" ">
<polygon fill="white" stroke="black" points="176,-76.5 176,-95.5 367,-95.5 367,-76.5 176,-76.5"/>
<text text-anchor="middle" x="271.5" y="-83.5" font-family="Helvetica,sans-Serif" font-size="10.00">BaseWorkload&lt; QueueDescriptor &gt;</text>
</a>
</g>
</g>
<!-- Node4&#45;&gt;Node7 -->
<g id="edge7" class="edge">
<title>Node4&#45;&gt;Node7</title>
<path fill="none" stroke="midnightblue" d="M91.47,-55.15C126.41,-61.17 176.71,-69.84 215.1,-76.45"/>
<polygon fill="midnightblue" stroke="midnightblue" points="92.04,-51.69 81.59,-53.44 90.85,-58.59 92.04,-51.69"/>
</g>
<!-- Node9 -->
<g id="node9" class="node">
<title>Node9</title>
<g id="a_node9"><a xlink:href="classarmnn_1_1_base_workload.html" target="_top" xlink:title=" ">
<polygon fill="white" stroke="black" points="176,-0.5 176,-19.5 367,-19.5 367,-0.5 176,-0.5"/>
<text text-anchor="middle" x="271.5" y="-7.5" font-family="Helvetica,sans-Serif" font-size="10.00">BaseWorkload&lt; QueueDescriptor &gt;</text>
</a>
</g>
</g>
<!-- Node4&#45;&gt;Node9 -->
<g id="edge11" class="edge">
<title>Node4&#45;&gt;Node9</title>
<path fill="none" stroke="midnightblue" d="M91.76,-38.78C99.79,-37.11 108.14,-35.44 116,-34 144.7,-28.73 176.54,-23.65 203.82,-19.54"/>
<polygon fill="midnightblue" stroke="midnightblue" points="90.88,-35.39 81.82,-40.88 92.33,-42.24 90.88,-35.39"/>
</g>
<!-- Node5 -->
<g id="node5" class="node">
<title>Node5</title>
<g id="a_node5"><a xlink:href="structarmnn_1_1_debug_queue_descriptor.html" target="_top" xlink:title=" ">
<polygon fill="white" stroke="black" points="206.5,-135.5 206.5,-154.5 336.5,-154.5 336.5,-135.5 206.5,-135.5"/>
<text text-anchor="middle" x="271.5" y="-142.5" font-family="Helvetica,sans-Serif" font-size="10.00">DebugQueueDescriptor</text>
</a>
</g>
</g>
<!-- Node5&#45;&gt;Node3 -->
<g id="edge4" class="edge">
<title>Node5&#45;&gt;Node3</title>
<path fill="none" stroke="#9a32cd" stroke-dasharray="5,2" d="M333.01,-133.59C384,-123.88 458.85,-109.42 524,-96 537.75,-93.17 552.44,-90.05 566.47,-87.02"/>
<polygon fill="#9a32cd" stroke="#9a32cd" points="332.31,-130.16 323.14,-135.46 333.62,-137.03 332.31,-130.16"/>
<text text-anchor="middle" x="454.5" y="-126" font-family="Helvetica,sans-Serif" font-size="10.00"> m_Data</text>
</g>
<!-- Node6 -->
<g id="node6" class="node">
<title>Node6</title>
<g id="a_node6"><a xlink:href="structarmnn_1_1_queue_descriptor.html" target="_top" xlink:title=" ">
<polygon fill="white" stroke="black" points="0,-130.5 0,-149.5 98,-149.5 98,-130.5 0,-130.5"/>
<text text-anchor="middle" x="49" y="-137.5" font-family="Helvetica,sans-Serif" font-size="10.00">QueueDescriptor</text>
</a>
</g>
</g>
<!-- Node6&#45;&gt;Node5 -->
<g id="edge5" class="edge">
<title>Node6&#45;&gt;Node5</title>
<path fill="none" stroke="midnightblue" d="M106.56,-150.97C109.75,-151.37 112.91,-151.72 116,-152 145.55,-154.66 178.38,-153.72 206.14,-151.8"/>
<polygon fill="midnightblue" stroke="midnightblue" points="106.77,-147.46 96.37,-149.51 105.78,-154.39 106.77,-147.46"/>
</g>
<!-- Node6&#45;&gt;Node7 -->
<g id="edge8" class="edge">
<title>Node6&#45;&gt;Node7</title>
<path fill="none" stroke="#9a32cd" stroke-dasharray="5,2" d="M107.94,-129.04C124.19,-125.74 141.83,-121.94 158,-118 185.62,-111.27 216.68,-102.33 239.15,-95.61"/>
<polygon fill="#9a32cd" stroke="#9a32cd" points="107.14,-125.63 98.02,-131.03 108.52,-132.5 107.14,-125.63"/>
<text text-anchor="middle" x="137" y="-130" font-family="Helvetica,sans-Serif" font-size="10.00"> m_Data</text>
</g>
<!-- Node6&#45;&gt;Node9 -->
<g id="edge12" class="edge">
<title>Node6&#45;&gt;Node9</title>
<path fill="none" stroke="#9a32cd" stroke-dasharray="5,2" d="M74.88,-125.33C120.44,-98.47 216.09,-42.08 254.26,-19.57"/>
<polygon fill="#9a32cd" stroke="#9a32cd" points="73.05,-122.35 66.21,-130.44 76.61,-128.38 73.05,-122.35"/>
<text text-anchor="middle" x="137" y="-100" font-family="Helvetica,sans-Serif" font-size="10.00"> m_Data</text>
</g>
<!-- Node7&#45;&gt;Node3 -->
<g id="edge6" class="edge">
<title>Node7&#45;&gt;Node3</title>
<path fill="none" stroke="orange" stroke-dasharray="5,2" d="M377.2,-81.95C433.8,-79.76 502.59,-77.1 554.8,-75.08"/>
<polygon fill="orange" stroke="orange" points="377,-78.46 367.14,-82.34 377.27,-85.45 377,-78.46"/>
<text text-anchor="middle" x="454.5" y="-84" font-family="Helvetica,sans-Serif" font-size="10.00"> &lt; DebugQueueDescriptor &gt;</text>
</g>
<!-- Node8 -->
<g id="node8" class="node">
<title>Node8</title>
<g id="a_node8"><a xlink:href="classarmnn_1_1_typed_workload.html" target="_top" xlink:title=" ">
<polygon fill="white" stroke="black" points="542,-6 542,-36 729,-36 729,-6 542,-6"/>
<text text-anchor="start" x="550" y="-24" font-family="Helvetica,sans-Serif" font-size="10.00">TypedWorkload&lt; QueueDescriptor,</text>
<text text-anchor="middle" x="635.5" y="-13" font-family="Helvetica,sans-Serif" font-size="10.00"> DataTypes &gt;</text>
</a>
</g>
</g>
<!-- Node8&#45;&gt;Node2 -->
<g id="edge9" class="edge">
<title>Node8&#45;&gt;Node2</title>
<path fill="none" stroke="orange" stroke-dasharray="5,2" d="M739.41,-23.03C782.32,-24.46 832.64,-26.88 878,-31 883.82,-31.53 889.82,-32.16 895.85,-32.85"/>
<polygon fill="orange" stroke="orange" points="739.35,-19.53 729.24,-22.71 739.13,-26.52 739.35,-19.53"/>
<text text-anchor="start" x="747" y="-45" font-family="Helvetica,sans-Serif" font-size="10.00"> &lt; DebugQueueDescriptor,</text>
<text text-anchor="middle" x="812.5" y="-34" font-family="Helvetica,sans-Serif" font-size="10.00"> DataType &gt;</text>
</g>
<!-- Node9&#45;&gt;Node8 -->
<g id="edge10" class="edge">
<title>Node9&#45;&gt;Node8</title>
<path fill="none" stroke="midnightblue" d="M377.4,-13.19C429.44,-14.77 491.74,-16.66 541.98,-18.19"/>
<polygon fill="midnightblue" stroke="midnightblue" points="377.24,-9.68 367.14,-12.88 377.03,-16.68 377.24,-9.68"/>
</g>
</g>
</svg>
