<?xml version="1.0" encoding="UTF-8" standalone="no"?>
<!DOCTYPE svg PUBLIC "-//W3C//DTD SVG 1.1//EN"
 "http://www.w3.org/Graphics/SVG/1.1/DTD/svg11.dtd">
<!-- Generated by graphviz version 2.43.0 (0)
 -->
<!-- Title: RefSliceWorkload Pages: 1 -->
<svg width="1708pt" height="242pt"
 viewBox="0.00 0.00 1708.00 242.00" xmlns="http://www.w3.org/2000/svg" xmlns:xlink="http://www.w3.org/1999/xlink">
<g id="graph0" class="graph" transform="scale(1 1) rotate(0) translate(4 238)">
<title>RefSliceWorkload</title>
<polygon fill="white" stroke="transparent" points="-4,4 -4,-238 1704,-238 1704,4 -4,4"/>
<!-- Node1 -->
<g id="node1" class="node">
<title>Node1</title>
<g id="a_node1"><a xlink:title=" ">
<polygon fill="#bfbfbf" stroke="black" points="1598,-36.5 1598,-55.5 1700,-55.5 1700,-36.5 1598,-36.5"/>
<text text-anchor="middle" x="1649" y="-43.5" font-family="Helvetica,sans-Serif" font-size="10.00">RefSliceWorkload</text>
</a>
</g>
</g>
<!-- Node2 -->
<g id="node2" class="node">
<title>Node2</title>
<g id="a_node2"><a xlink:href="classarmnn_1_1_ref_base_workload.html" target="_top" xlink:title=" ">
<polygon fill="white" stroke="black" points="1392,-31 1392,-61 1561,-61 1561,-31 1392,-31"/>
<text text-anchor="start" x="1400" y="-49" font-family="Helvetica,sans-Serif" font-size="10.00">RefBaseWorkload&lt; SliceQueue</text>
<text text-anchor="middle" x="1476.5" y="-38" font-family="Helvetica,sans-Serif" font-size="10.00">Descriptor &gt;</text>
</a>
</g>
</g>
<!-- Node2&#45;&gt;Node1 -->
<g id="edge1" class="edge">
<title>Node2&#45;&gt;Node1</title>
<path fill="none" stroke="midnightblue" d="M1571.46,-46C1580.48,-46 1589.36,-46 1597.71,-46"/>
<polygon fill="midnightblue" stroke="midnightblue" points="1571.25,-42.5 1561.25,-46 1571.25,-49.5 1571.25,-42.5"/>
</g>
<!-- Node3 -->
<g id="node3" class="node">
<title>Node3</title>
<g id="a_node3"><a xlink:href="classarmnn_1_1_base_workload.html" target="_top" xlink:title=" ">
<polygon fill="white" stroke="black" points="1045.5,-56 1045.5,-86 1197.5,-86 1197.5,-56 1045.5,-56"/>
<text text-anchor="start" x="1053.5" y="-74" font-family="Helvetica,sans-Serif" font-size="10.00">BaseWorkload&lt; SliceQueue</text>
<text text-anchor="middle" x="1121.5" y="-63" font-family="Helvetica,sans-Serif" font-size="10.00">Descriptor &gt;</text>
</a>
</g>
</g>
<!-- Node3&#45;&gt;Node2 -->
<g id="edge2" class="edge">
<title>Node3&#45;&gt;Node2</title>
<path fill="none" stroke="midnightblue" d="M1208.02,-64.94C1263.9,-60.99 1336.51,-55.84 1391.98,-51.91"/>
<polygon fill="midnightblue" stroke="midnightblue" points="1207.52,-61.47 1197.79,-65.67 1208.02,-68.45 1207.52,-61.47"/>
</g>
<!-- Node4 -->
<g id="node4" class="node">
<title>Node4</title>
<g id="a_node4"><a xlink:href="classarmnn_1_1_i_workload.html" target="_top" xlink:title="Workload interface to enqueue a layer computation.">
<polygon fill="white" stroke="black" points="502.5,-38.5 502.5,-57.5 567.5,-57.5 567.5,-38.5 502.5,-38.5"/>
<text text-anchor="middle" x="535" y="-45.5" font-family="Helvetica,sans-Serif" font-size="10.00">IWorkload</text>
</a>
</g>
</g>
<!-- Node4&#45;&gt;Node3 -->
<g id="edge3" class="edge">
<title>Node4&#45;&gt;Node3</title>
<path fill="none" stroke="midnightblue" d="M577.95,-49.65C675.89,-53.5 920.74,-63.14 1045.25,-68.04"/>
<polygon fill="midnightblue" stroke="midnightblue" points="577.97,-46.15 567.84,-49.25 577.69,-53.14 577.97,-46.15"/>
</g>
<!-- Node11 -->
<g id="node11" class="node">
<title>Node11</title>
<g id="a_node11"><a xlink:href="classarmnn_1_1_base_workload.html" target="_top" xlink:title=" ">
<polygon fill="white" stroke="black" points="660,-76.5 660,-95.5 851,-95.5 851,-76.5 660,-76.5"/>
<text text-anchor="middle" x="755.5" y="-83.5" font-family="Helvetica,sans-Serif" font-size="10.00">BaseWorkload&lt; QueueDescriptor &gt;</text>
</a>
</g>
</g>
<!-- Node4&#45;&gt;Node11 -->
<g id="edge12" class="edge">
<title>Node4&#45;&gt;Node11</title>
<path fill="none" stroke="midnightblue" d="M578.02,-55.31C612.68,-61.34 662.11,-69.93 699.84,-76.49"/>
<polygon fill="midnightblue" stroke="midnightblue" points="578.22,-51.79 567.77,-53.53 577.02,-58.69 578.22,-51.79"/>
</g>
<!-- Node13 -->
<g id="node13" class="node">
<title>Node13</title>
<g id="a_node13"><a xlink:href="classarmnn_1_1_base_workload.html" target="_top" xlink:title=" ">
<polygon fill="white" stroke="black" points="660,-0.5 660,-19.5 851,-19.5 851,-0.5 660,-0.5"/>
<text text-anchor="middle" x="755.5" y="-7.5" font-family="Helvetica,sans-Serif" font-size="10.00">BaseWorkload&lt; QueueDescriptor &gt;</text>
</a>
</g>
</g>
<!-- Node4&#45;&gt;Node13 -->
<g id="edge16" class="edge">
<title>Node4&#45;&gt;Node13</title>
<path fill="none" stroke="midnightblue" d="M578.02,-40.69C612.68,-34.66 662.11,-26.07 699.84,-19.51"/>
<polygon fill="midnightblue" stroke="midnightblue" points="577.02,-37.31 567.77,-42.47 578.22,-44.21 577.02,-37.31"/>
</g>
<!-- Node5 -->
<g id="node5" class="node">
<title>Node5</title>
<g id="a_node5"><a xlink:href="structarmnn_1_1_slice_queue_descriptor.html" target="_top" xlink:title=" ">
<polygon fill="white" stroke="black" points="694.5,-145.5 694.5,-164.5 816.5,-164.5 816.5,-145.5 694.5,-145.5"/>
<text text-anchor="middle" x="755.5" y="-152.5" font-family="Helvetica,sans-Serif" font-size="10.00">SliceQueueDescriptor</text>
</a>
</g>
</g>
<!-- Node5&#45;&gt;Node3 -->
<g id="edge4" class="edge">
<title>Node5&#45;&gt;Node3</title>
<path fill="none" stroke="#9a32cd" stroke-dasharray="5,2" d="M807.9,-143.14C872.76,-128.17 984.38,-102.41 1055.21,-86.07"/>
<polygon fill="#9a32cd" stroke="#9a32cd" points="806.86,-139.79 797.9,-145.45 808.43,-146.61 806.86,-139.79"/>
<text text-anchor="middle" x="934.5" y="-130" font-family="Helvetica,sans-Serif" font-size="10.00"> m_Data</text>
</g>
<!-- Node6 -->
<g id="node6" class="node">
<title>Node6</title>
<g id="a_node6"><a xlink:href="structarmnn_1_1_queue_descriptor_with_parameters.html" target="_top" xlink:title=" ">
<polygon fill="white" stroke="black" points="447,-156 447,-186 623,-186 623,-156 447,-156"/>
<text text-anchor="start" x="455" y="-174" font-family="Helvetica,sans-Serif" font-size="10.00">QueueDescriptorWithParameters</text>
<text text-anchor="middle" x="535" y="-163" font-family="Helvetica,sans-Serif" font-size="10.00">&lt; SliceDescriptor &gt;</text>
</a>
</g>
</g>
<!-- Node6&#45;&gt;Node5 -->
<g id="edge5" class="edge">
<title>Node6&#45;&gt;Node5</title>
<path fill="none" stroke="midnightblue" d="M633.4,-163.87C654.1,-162.35 675.37,-160.79 694.2,-159.42"/>
<polygon fill="midnightblue" stroke="midnightblue" points="633.02,-160.39 623.3,-164.61 633.53,-167.37 633.02,-160.39"/>
</g>
<!-- Node7 -->
<g id="node7" class="node">
<title>Node7</title>
<g id="a_node7"><a xlink:href="structarmnn_1_1_queue_descriptor.html" target="_top" xlink:title=" ">
<polygon fill="white" stroke="black" points="0,-101.5 0,-120.5 98,-120.5 98,-101.5 0,-101.5"/>
<text text-anchor="middle" x="49" y="-108.5" font-family="Helvetica,sans-Serif" font-size="10.00">QueueDescriptor</text>
</a>
</g>
</g>
<!-- Node7&#45;&gt;Node6 -->
<g id="edge6" class="edge">
<title>Node7&#45;&gt;Node6</title>
<path fill="none" stroke="midnightblue" d="M67.86,-127.12C84.07,-140.62 109.3,-158.93 135,-167 238.44,-199.47 364.52,-193.73 446.91,-184.37"/>
<polygon fill="midnightblue" stroke="midnightblue" points="70.12,-124.44 60.25,-120.58 65.55,-129.75 70.12,-124.44"/>
</g>
<!-- Node10 -->
<g id="node10" class="node">
<title>Node10</title>
<g id="a_node10"><a xlink:href="structarmnn_1_1_queue_descriptor_with_parameters.html" target="_top" xlink:title=" ">
<polygon fill="white" stroke="black" points="135,-127 135,-157 311,-157 311,-127 135,-127"/>
<text text-anchor="start" x="143" y="-145" font-family="Helvetica,sans-Serif" font-size="10.00">QueueDescriptorWithParameters</text>
<text text-anchor="middle" x="223" y="-134" font-family="Helvetica,sans-Serif" font-size="10.00">&lt; LayerDescriptor &gt;</text>
</a>
</g>
</g>
<!-- Node7&#45;&gt;Node10 -->
<g id="edge10" class="edge">
<title>Node7&#45;&gt;Node10</title>
<path fill="none" stroke="midnightblue" d="M108.29,-121.51C118.02,-123.26 128.28,-125.11 138.49,-126.95"/>
<polygon fill="midnightblue" stroke="midnightblue" points="108.83,-118.05 98.37,-119.72 107.59,-124.94 108.83,-118.05"/>
</g>
<!-- Node7&#45;&gt;Node11 -->
<g id="edge13" class="edge">
<title>Node7&#45;&gt;Node11</title>
<path fill="none" stroke="#9a32cd" stroke-dasharray="5,2" d="M108.37,-108.93C230.03,-104.61 511.67,-94.62 659.7,-89.36"/>
<polygon fill="#9a32cd" stroke="#9a32cd" points="108.02,-105.44 98.15,-109.29 108.26,-112.43 108.02,-105.44"/>
<text text-anchor="middle" x="379" y="-104" font-family="Helvetica,sans-Serif" font-size="10.00"> m_Data</text>
</g>
<!-- Node7&#45;&gt;Node13 -->
<g id="edge17" class="edge">
<title>Node7&#45;&gt;Node13</title>
<path fill="none" stroke="#9a32cd" stroke-dasharray="5,2" d="M97.13,-99C171.11,-80.67 319.24,-46.05 447,-29 518.04,-19.52 598.96,-14.76 659.96,-12.37"/>
<polygon fill="#9a32cd" stroke="#9a32cd" points="96.05,-95.66 87.19,-101.47 97.74,-102.45 96.05,-95.66"/>
<text text-anchor="middle" x="379" y="-51" font-family="Helvetica,sans-Serif" font-size="10.00"> m_Data</text>
</g>
<!-- Node8 -->
<g id="node8" class="node">
<title>Node8</title>
<g id="a_node8"><a xlink:href="structarmnn_1_1_slice_descriptor.html" target="_top" xlink:title="A SliceDescriptor for the SliceLayer.">
<polygon fill="white" stroke="black" points="178,-214.5 178,-233.5 268,-233.5 268,-214.5 178,-214.5"/>
<text text-anchor="middle" x="223" y="-221.5" font-family="Helvetica,sans-Serif" font-size="10.00">SliceDescriptor</text>
</a>
</g>
</g>
<!-- Node8&#45;&gt;Node6 -->
<g id="edge7" class="edge">
<title>Node8&#45;&gt;Node6</title>
<path fill="none" stroke="#9a32cd" stroke-dasharray="5,2" d="M278.44,-219.44C319.93,-215.47 378.37,-208.79 429,-199 446.87,-195.54 466.19,-190.72 483.33,-186.04"/>
<polygon fill="#9a32cd" stroke="#9a32cd" points="277.9,-215.98 268.27,-220.4 278.55,-222.95 277.9,-215.98"/>
<text text-anchor="middle" x="379" y="-216" font-family="Helvetica,sans-Serif" font-size="10.00"> m_Parameters</text>
</g>
<!-- Node9 -->
<g id="node9" class="node">
<title>Node9</title>
<g id="a_node9"><a xlink:href="structarmnn_1_1_base_descriptor.html" target="_top" xlink:title="Base class for all descriptors.">
<polygon fill="white" stroke="black" points="3.5,-214.5 3.5,-233.5 94.5,-233.5 94.5,-214.5 3.5,-214.5"/>
<text text-anchor="middle" x="49" y="-221.5" font-family="Helvetica,sans-Serif" font-size="10.00">BaseDescriptor</text>
</a>
</g>
</g>
<!-- Node9&#45;&gt;Node8 -->
<g id="edge8" class="edge">
<title>Node9&#45;&gt;Node8</title>
<path fill="none" stroke="midnightblue" d="M104.93,-224C128.46,-224 155.57,-224 177.78,-224"/>
<polygon fill="midnightblue" stroke="midnightblue" points="104.74,-220.5 94.74,-224 104.74,-227.5 104.74,-220.5"/>
</g>
<!-- Node10&#45;&gt;Node6 -->
<g id="edge9" class="edge">
<title>Node10&#45;&gt;Node6</title>
<path fill="none" stroke="orange" stroke-dasharray="5,2" d="M321.01,-150.94C355.15,-154.1 393.78,-157.69 429,-161 434.83,-161.55 440.85,-162.12 446.91,-162.69"/>
<polygon fill="orange" stroke="orange" points="321.32,-147.45 311.04,-150.02 320.67,-154.42 321.32,-147.45"/>
<text text-anchor="middle" x="379" y="-164" font-family="Helvetica,sans-Serif" font-size="10.00"> &lt; SliceDescriptor &gt;</text>
</g>
<!-- Node11&#45;&gt;Node3 -->
<g id="edge11" class="edge">
<title>Node11&#45;&gt;Node3</title>
<path fill="none" stroke="orange" stroke-dasharray="5,2" d="M861.25,-81.68C920.03,-79.26 992.02,-76.29 1045.21,-74.1"/>
<polygon fill="orange" stroke="orange" points="861.03,-78.19 851.19,-82.1 861.32,-85.18 861.03,-78.19"/>
<text text-anchor="middle" x="934.5" y="-84" font-family="Helvetica,sans-Serif" font-size="10.00"> &lt; SliceQueueDescriptor &gt;</text>
</g>
<!-- Node12 -->
<g id="node12" class="node">
<title>Node12</title>
<g id="a_node12"><a xlink:href="classarmnn_1_1_ref_base_workload.html" target="_top" xlink:title=" ">
<polygon fill="white" stroke="black" points="1018,-14.5 1018,-33.5 1225,-33.5 1225,-14.5 1018,-14.5"/>
<text text-anchor="middle" x="1121.5" y="-21.5" font-family="Helvetica,sans-Serif" font-size="10.00">RefBaseWorkload&lt; QueueDescriptor &gt;</text>
</a>
</g>
</g>
<!-- Node12&#45;&gt;Node2 -->
<g id="edge14" class="edge">
<title>Node12&#45;&gt;Node2</title>
<path fill="none" stroke="orange" stroke-dasharray="5,2" d="M1235.04,-29.71C1278.47,-32.06 1328.56,-34.95 1374,-38 1379.82,-38.39 1385.83,-38.81 1391.87,-39.26"/>
<polygon fill="orange" stroke="orange" points="1235.19,-26.21 1225.01,-29.17 1234.81,-33.2 1235.19,-26.21"/>
<text text-anchor="middle" x="1308.5" y="-41" font-family="Helvetica,sans-Serif" font-size="10.00"> &lt; SliceQueueDescriptor &gt;</text>
</g>
<!-- Node13&#45;&gt;Node12 -->
<g id="edge15" class="edge">
<title>Node13&#45;&gt;Node12</title>
<path fill="none" stroke="midnightblue" d="M861.23,-14.03C910.48,-15.92 969.01,-18.17 1017.98,-20.06"/>
<polygon fill="midnightblue" stroke="midnightblue" points="861.31,-10.53 851.19,-13.64 861.04,-17.52 861.31,-10.53"/>
</g>
</g>
</svg>
