<?xml version="1.0" encoding="UTF-8" standalone="no"?>
<!DOCTYPE svg PUBLIC "-//W3C//DTD SVG 1.1//EN"
 "http://www.w3.org/Graphics/SVG/1.1/DTD/svg11.dtd">
<!-- Generated by graphviz version 2.43.0 (0)
 -->
<!-- Title: RefPreluWorkload Pages: 1 -->
<svg width="426pt" height="298pt"
 viewBox="0.00 0.00 425.69 298.00" xmlns="http://www.w3.org/2000/svg" xmlns:xlink="http://www.w3.org/1999/xlink">
<g id="graph0" class="graph" transform="scale(1 1) rotate(0) translate(4 294)">
<title>RefPreluWorkload</title>
<polygon fill="white" stroke="transparent" points="-4,4 -4,-294 421.69,-294 421.69,4 -4,4"/>
<!-- Node1 -->
<g id="node1" class="node">
<title>Node1</title>
<g id="a_node1"><a xlink:title=" ">
<polygon fill="#bfbfbf" stroke="black" points="157.19,-0.5 157.19,-19.5 261.19,-19.5 261.19,-0.5 157.19,-0.5"/>
<text text-anchor="middle" x="209.19" y="-7.5" font-family="Helvetica,sans-Serif" font-size="10.00">RefPreluWorkload</text>
</a>
</g>
</g>
<!-- Node2 -->
<g id="node2" class="node">
<title>Node2</title>
<g id="a_node2"><a xlink:href="classarmnn_1_1_ref_base_workload.html" target="_top" xlink:title=" ">
<polygon fill="white" stroke="black" points="124.19,-57.5 124.19,-87.5 294.19,-87.5 294.19,-57.5 124.19,-57.5"/>
<text text-anchor="start" x="132.19" y="-75.5" font-family="Helvetica,sans-Serif" font-size="10.00">RefBaseWorkload&lt; PreluQueue</text>
<text text-anchor="middle" x="209.19" y="-64.5" font-family="Helvetica,sans-Serif" font-size="10.00">Descriptor &gt;</text>
</a>
</g>
</g>
<!-- Node2&#45;&gt;Node1 -->
<g id="edge1" class="edge">
<title>Node2&#45;&gt;Node1</title>
<path fill="none" stroke="midnightblue" d="M209.19,-47.35C209.19,-37.51 209.19,-26.78 209.19,-19.54"/>
<polygon fill="midnightblue" stroke="midnightblue" points="205.69,-47.47 209.19,-57.47 212.69,-47.47 205.69,-47.47"/>
</g>
<!-- Node3 -->
<g id="node3" class="node">
<title>Node3</title>
<g id="a_node3"><a xlink:href="classarmnn_1_1_base_workload.html" target="_top" xlink:title=" ">
<polygon fill="white" stroke="black" points="33.19,-135.5 33.19,-165.5 187.19,-165.5 187.19,-135.5 33.19,-135.5"/>
<text text-anchor="start" x="41.19" y="-153.5" font-family="Helvetica,sans-Serif" font-size="10.00">BaseWorkload&lt; PreluQueue</text>
<text text-anchor="middle" x="110.19" y="-142.5" font-family="Helvetica,sans-Serif" font-size="10.00">Descriptor &gt;</text>
</a>
</g>
</g>
<!-- Node3&#45;&gt;Node2 -->
<g id="edge2" class="edge">
<title>Node3&#45;&gt;Node2</title>
<path fill="none" stroke="midnightblue" d="M136.75,-129.11C153.78,-116.04 175.47,-99.39 190.65,-87.73"/>
<polygon fill="midnightblue" stroke="midnightblue" points="134.61,-126.34 128.81,-135.2 138.88,-131.89 134.61,-126.34"/>
</g>
<!-- Node4 -->
<g id="node4" class="node">
<title>Node4</title>
<g id="a_node4"><a xlink:href="classarmnn_1_1_i_workload.html" target="_top" xlink:title="Workload interface to enqueue a layer computation.">
<polygon fill="white" stroke="black" points="77.69,-270.5 77.69,-289.5 142.69,-289.5 142.69,-270.5 77.69,-270.5"/>
<text text-anchor="middle" x="110.19" y="-277.5" font-family="Helvetica,sans-Serif" font-size="10.00">IWorkload</text>
</a>
</g>
</g>
<!-- Node4&#45;&gt;Node3 -->
<g id="edge3" class="edge">
<title>Node4&#45;&gt;Node3</title>
<path fill="none" stroke="midnightblue" d="M67.71,-271.87C45.04,-265.68 19.04,-254.19 5.19,-233 -14.38,-203.06 28.24,-179.5 64.92,-165.57"/>
<polygon fill="midnightblue" stroke="midnightblue" points="66.95,-275.29 77.5,-274.29 68.63,-268.5 66.95,-275.29"/>
</g>
<!-- Node5 -->
<g id="node5" class="node">
<title>Node5</title>
<g id="a_node5"><a xlink:href="classarmnn_1_1_base_workload.html" target="_top" xlink:title=" ">
<polygon fill="white" stroke="black" points="14.69,-213.5 14.69,-232.5 205.69,-232.5 205.69,-213.5 14.69,-213.5"/>
<text text-anchor="middle" x="110.19" y="-220.5" font-family="Helvetica,sans-Serif" font-size="10.00">BaseWorkload&lt; QueueDescriptor &gt;</text>
</a>
</g>
</g>
<!-- Node4&#45;&gt;Node5 -->
<g id="edge5" class="edge">
<title>Node4&#45;&gt;Node5</title>
<path fill="none" stroke="midnightblue" d="M110.19,-260.12C110.19,-250.82 110.19,-240.06 110.19,-232.71"/>
<polygon fill="midnightblue" stroke="midnightblue" points="106.69,-260.41 110.19,-270.41 113.69,-260.41 106.69,-260.41"/>
</g>
<!-- Node7 -->
<g id="node7" class="node">
<title>Node7</title>
<g id="a_node7"><a xlink:href="classarmnn_1_1_base_workload.html" target="_top" xlink:title=" ">
<polygon fill="white" stroke="black" points="223.69,-213.5 223.69,-232.5 414.69,-232.5 414.69,-213.5 223.69,-213.5"/>
<text text-anchor="middle" x="319.19" y="-220.5" font-family="Helvetica,sans-Serif" font-size="10.00">BaseWorkload&lt; QueueDescriptor &gt;</text>
</a>
</g>
</g>
<!-- Node4&#45;&gt;Node7 -->
<g id="edge8" class="edge">
<title>Node4&#45;&gt;Node7</title>
<path fill="none" stroke="midnightblue" d="M152.76,-267.8C192.43,-257.36 250.74,-242.01 286.77,-232.53"/>
<polygon fill="midnightblue" stroke="midnightblue" points="151.63,-264.48 142.85,-270.41 153.41,-271.25 151.63,-264.48"/>
</g>
<!-- Node5&#45;&gt;Node3 -->
<g id="edge4" class="edge">
<title>Node5&#45;&gt;Node3</title>
<path fill="none" stroke="orange" stroke-dasharray="5,2" d="M110.19,-203.24C110.19,-191.41 110.19,-176.38 110.19,-165.58"/>
<polygon fill="orange" stroke="orange" points="106.69,-203.36 110.19,-213.36 113.69,-203.36 106.69,-203.36"/>
<text text-anchor="middle" x="176.69" y="-187" font-family="Helvetica,sans-Serif" font-size="10.00"> &lt; PreluQueueDescriptor &gt;</text>
</g>
<!-- Node6 -->
<g id="node6" class="node">
<title>Node6</title>
<g id="a_node6"><a xlink:href="classarmnn_1_1_ref_base_workload.html" target="_top" xlink:title=" ">
<polygon fill="white" stroke="black" points="210.69,-141 210.69,-160 417.69,-160 417.69,-141 210.69,-141"/>
<text text-anchor="middle" x="314.19" y="-148" font-family="Helvetica,sans-Serif" font-size="10.00">RefBaseWorkload&lt; QueueDescriptor &gt;</text>
</a>
</g>
</g>
<!-- Node6&#45;&gt;Node2 -->
<g id="edge6" class="edge">
<title>Node6&#45;&gt;Node2</title>
<path fill="none" stroke="orange" stroke-dasharray="5,2" d="M293.94,-134.84C275.07,-121.19 247.14,-100.97 228.56,-87.52"/>
<polygon fill="orange" stroke="orange" points="291.99,-137.75 302.15,-140.78 296.1,-132.08 291.99,-137.75"/>
<text text-anchor="middle" x="333.69" y="-109" font-family="Helvetica,sans-Serif" font-size="10.00"> &lt; PreluQueueDescriptor &gt;</text>
</g>
<!-- Node7&#45;&gt;Node6 -->
<g id="edge7" class="edge">
<title>Node7&#45;&gt;Node6</title>
<path fill="none" stroke="midnightblue" d="M317.87,-203.36C316.88,-189.4 315.57,-170.93 314.81,-160.22"/>
<polygon fill="midnightblue" stroke="midnightblue" points="314.38,-203.63 318.58,-213.36 321.36,-203.13 314.38,-203.63"/>
</g>
</g>
</svg>
