<?xml version="1.0" encoding="UTF-8" standalone="no"?>
<!DOCTYPE svg PUBLIC "-//W3C//DTD SVG 1.1//EN"
 "http://www.w3.org/Graphics/SVG/1.1/DTD/svg11.dtd">
<!-- Generated by graphviz version 2.43.0 (0)
 -->
<!-- Title: NeonSoftmaxWorkload Pages: 1 -->
<svg width="1789pt" height="242pt"
 viewBox="0.00 0.00 1789.00 242.00" xmlns="http://www.w3.org/2000/svg" xmlns:xlink="http://www.w3.org/1999/xlink">
<g id="graph0" class="graph" transform="scale(1 1) rotate(0) translate(4 238)">
<title>NeonSoftmaxWorkload</title>
<polygon fill="white" stroke="transparent" points="-4,4 -4,-238 1785,-238 1785,4 -4,4"/>
<!-- Node1 -->
<g id="node1" class="node">
<title>Node1</title>
<g id="a_node1"><a xlink:title=" ">
<polygon fill="#bfbfbf" stroke="black" points="1653,-36.5 1653,-55.5 1781,-55.5 1781,-36.5 1653,-36.5"/>
<text text-anchor="middle" x="1717" y="-43.5" font-family="Helvetica,sans-Serif" font-size="10.00">NeonSoftmaxWorkload</text>
</a>
</g>
</g>
<!-- Node2 -->
<g id="node2" class="node">
<title>Node2</title>
<g id="a_node2"><a xlink:href="classarmnn_1_1_neon_base_workload.html" target="_top" xlink:title=" ">
<polygon fill="white" stroke="black" points="1452,-31 1452,-61 1616,-61 1616,-31 1452,-31"/>
<text text-anchor="start" x="1460" y="-49" font-family="Helvetica,sans-Serif" font-size="10.00">NeonBaseWorkload&lt; Softmax</text>
<text text-anchor="middle" x="1534" y="-38" font-family="Helvetica,sans-Serif" font-size="10.00">QueueDescriptor &gt;</text>
</a>
</g>
</g>
<!-- Node2&#45;&gt;Node1 -->
<g id="edge1" class="edge">
<title>Node2&#45;&gt;Node1</title>
<path fill="none" stroke="midnightblue" d="M1626.37,-46C1635.35,-46 1644.33,-46 1652.94,-46"/>
<polygon fill="midnightblue" stroke="midnightblue" points="1626.23,-42.5 1616.23,-46 1626.23,-49.5 1626.23,-42.5"/>
</g>
<!-- Node3 -->
<g id="node3" class="node">
<title>Node3</title>
<g id="a_node3"><a xlink:href="classarmnn_1_1_base_workload.html" target="_top" xlink:title=" ">
<polygon fill="white" stroke="black" points="1075,-56 1075,-86 1245,-86 1245,-56 1075,-56"/>
<text text-anchor="start" x="1083" y="-74" font-family="Helvetica,sans-Serif" font-size="10.00">BaseWorkload&lt; SoftmaxQueue</text>
<text text-anchor="middle" x="1160" y="-63" font-family="Helvetica,sans-Serif" font-size="10.00">Descriptor &gt;</text>
</a>
</g>
</g>
<!-- Node3&#45;&gt;Node2 -->
<g id="edge2" class="edge">
<title>Node3&#45;&gt;Node2</title>
<path fill="none" stroke="midnightblue" d="M1255.75,-64.63C1316.32,-60.56 1394.06,-55.34 1451.8,-51.46"/>
<polygon fill="midnightblue" stroke="midnightblue" points="1255.16,-61.16 1245.41,-65.33 1255.62,-68.15 1255.16,-61.16"/>
</g>
<!-- Node4 -->
<g id="node4" class="node">
<title>Node4</title>
<g id="a_node4"><a xlink:href="classarmnn_1_1_i_workload.html" target="_top" xlink:title="Workload interface to enqueue a layer computation.">
<polygon fill="white" stroke="black" points="519.5,-38.5 519.5,-57.5 584.5,-57.5 584.5,-38.5 519.5,-38.5"/>
<text text-anchor="middle" x="552" y="-45.5" font-family="Helvetica,sans-Serif" font-size="10.00">IWorkload</text>
</a>
</g>
</g>
<!-- Node4&#45;&gt;Node3 -->
<g id="edge3" class="edge">
<title>Node4&#45;&gt;Node3</title>
<path fill="none" stroke="midnightblue" d="M594.93,-49.59C693.84,-53.35 943.28,-62.81 1074.81,-67.8"/>
<polygon fill="midnightblue" stroke="midnightblue" points="594.85,-46.09 584.73,-49.2 594.59,-53.08 594.85,-46.09"/>
</g>
<!-- Node11 -->
<g id="node11" class="node">
<title>Node11</title>
<g id="a_node11"><a xlink:href="classarmnn_1_1_base_workload.html" target="_top" xlink:title=" ">
<polygon fill="white" stroke="black" points="677,-76.5 677,-95.5 868,-95.5 868,-76.5 677,-76.5"/>
<text text-anchor="middle" x="772.5" y="-83.5" font-family="Helvetica,sans-Serif" font-size="10.00">BaseWorkload&lt; QueueDescriptor &gt;</text>
</a>
</g>
</g>
<!-- Node4&#45;&gt;Node11 -->
<g id="edge12" class="edge">
<title>Node4&#45;&gt;Node11</title>
<path fill="none" stroke="midnightblue" d="M595.02,-55.31C629.68,-61.34 679.11,-69.93 716.84,-76.49"/>
<polygon fill="midnightblue" stroke="midnightblue" points="595.22,-51.79 584.77,-53.53 594.02,-58.69 595.22,-51.79"/>
</g>
<!-- Node13 -->
<g id="node13" class="node">
<title>Node13</title>
<g id="a_node13"><a xlink:href="classarmnn_1_1_base_workload.html" target="_top" xlink:title=" ">
<polygon fill="white" stroke="black" points="677,-0.5 677,-19.5 868,-19.5 868,-0.5 677,-0.5"/>
<text text-anchor="middle" x="772.5" y="-7.5" font-family="Helvetica,sans-Serif" font-size="10.00">BaseWorkload&lt; QueueDescriptor &gt;</text>
</a>
</g>
</g>
<!-- Node4&#45;&gt;Node13 -->
<g id="edge16" class="edge">
<title>Node4&#45;&gt;Node13</title>
<path fill="none" stroke="midnightblue" d="M595.02,-40.69C629.68,-34.66 679.11,-26.07 716.84,-19.51"/>
<polygon fill="midnightblue" stroke="midnightblue" points="594.02,-37.31 584.77,-42.47 595.22,-44.21 594.02,-37.31"/>
</g>
<!-- Node5 -->
<g id="node5" class="node">
<title>Node5</title>
<g id="a_node5"><a xlink:href="structarmnn_1_1_softmax_queue_descriptor.html" target="_top" xlink:title=" ">
<polygon fill="white" stroke="black" points="703,-145.5 703,-164.5 842,-164.5 842,-145.5 703,-145.5"/>
<text text-anchor="middle" x="772.5" y="-152.5" font-family="Helvetica,sans-Serif" font-size="10.00">SoftmaxQueueDescriptor</text>
</a>
</g>
</g>
<!-- Node5&#45;&gt;Node3 -->
<g id="edge4" class="edge">
<title>Node5&#45;&gt;Node3</title>
<path fill="none" stroke="#9a32cd" stroke-dasharray="5,2" d="M827.51,-143.23C896.14,-128.28 1014.68,-102.45 1089.85,-86.07"/>
<polygon fill="#9a32cd" stroke="#9a32cd" points="826.37,-139.9 817.35,-145.45 827.86,-146.74 826.37,-139.9"/>
<text text-anchor="middle" x="960" y="-133" font-family="Helvetica,sans-Serif" font-size="10.00"> m_Data</text>
</g>
<!-- Node6 -->
<g id="node6" class="node">
<title>Node6</title>
<g id="a_node6"><a xlink:href="structarmnn_1_1_queue_descriptor_with_parameters.html" target="_top" xlink:title=" ">
<polygon fill="white" stroke="black" points="464,-156 464,-186 640,-186 640,-156 464,-156"/>
<text text-anchor="start" x="472" y="-174" font-family="Helvetica,sans-Serif" font-size="10.00">QueueDescriptorWithParameters</text>
<text text-anchor="middle" x="552" y="-163" font-family="Helvetica,sans-Serif" font-size="10.00">&lt; SoftmaxDescriptor &gt;</text>
</a>
</g>
</g>
<!-- Node6&#45;&gt;Node5 -->
<g id="edge5" class="edge">
<title>Node6&#45;&gt;Node5</title>
<path fill="none" stroke="midnightblue" d="M650.61,-163.85C668.23,-162.56 686.26,-161.24 702.84,-160.03"/>
<polygon fill="midnightblue" stroke="midnightblue" points="650.02,-160.39 640.3,-164.61 650.53,-167.37 650.02,-160.39"/>
</g>
<!-- Node7 -->
<g id="node7" class="node">
<title>Node7</title>
<g id="a_node7"><a xlink:href="structarmnn_1_1_queue_descriptor.html" target="_top" xlink:title=" ">
<polygon fill="white" stroke="black" points="0,-101.5 0,-120.5 98,-120.5 98,-101.5 0,-101.5"/>
<text text-anchor="middle" x="49" y="-108.5" font-family="Helvetica,sans-Serif" font-size="10.00">QueueDescriptor</text>
</a>
</g>
</g>
<!-- Node7&#45;&gt;Node6 -->
<g id="edge6" class="edge">
<title>Node7&#45;&gt;Node6</title>
<path fill="none" stroke="midnightblue" d="M67.86,-127.12C84.07,-140.62 109.3,-158.93 135,-167 244.4,-201.34 378.09,-194.63 463.87,-184.57"/>
<polygon fill="midnightblue" stroke="midnightblue" points="70.12,-124.44 60.25,-120.58 65.55,-129.75 70.12,-124.44"/>
</g>
<!-- Node10 -->
<g id="node10" class="node">
<title>Node10</title>
<g id="a_node10"><a xlink:href="structarmnn_1_1_queue_descriptor_with_parameters.html" target="_top" xlink:title=" ">
<polygon fill="white" stroke="black" points="135,-127 135,-157 311,-157 311,-127 135,-127"/>
<text text-anchor="start" x="143" y="-145" font-family="Helvetica,sans-Serif" font-size="10.00">QueueDescriptorWithParameters</text>
<text text-anchor="middle" x="223" y="-134" font-family="Helvetica,sans-Serif" font-size="10.00">&lt; LayerDescriptor &gt;</text>
</a>
</g>
</g>
<!-- Node7&#45;&gt;Node10 -->
<g id="edge10" class="edge">
<title>Node7&#45;&gt;Node10</title>
<path fill="none" stroke="midnightblue" d="M108.29,-121.51C118.02,-123.26 128.28,-125.11 138.49,-126.95"/>
<polygon fill="midnightblue" stroke="midnightblue" points="108.83,-118.05 98.37,-119.72 107.59,-124.94 108.83,-118.05"/>
</g>
<!-- Node7&#45;&gt;Node11 -->
<g id="edge13" class="edge">
<title>Node7&#45;&gt;Node11</title>
<path fill="none" stroke="#9a32cd" stroke-dasharray="5,2" d="M108.27,-108.98C232.68,-104.67 525.29,-94.53 676.83,-89.28"/>
<polygon fill="#9a32cd" stroke="#9a32cd" points="108.05,-105.49 98.18,-109.33 108.29,-112.48 108.05,-105.49"/>
<text text-anchor="middle" x="387.5" y="-104" font-family="Helvetica,sans-Serif" font-size="10.00"> m_Data</text>
</g>
<!-- Node7&#45;&gt;Node13 -->
<g id="edge17" class="edge">
<title>Node7&#45;&gt;Node13</title>
<path fill="none" stroke="#9a32cd" stroke-dasharray="5,2" d="M99.01,-99.08C176.15,-80.81 330.82,-46.22 464,-29 535.08,-19.81 616,-15.03 676.98,-12.57"/>
<polygon fill="#9a32cd" stroke="#9a32cd" points="98.02,-95.71 89.1,-101.43 99.64,-102.52 98.02,-95.71"/>
<text text-anchor="middle" x="387.5" y="-54" font-family="Helvetica,sans-Serif" font-size="10.00"> m_Data</text>
</g>
<!-- Node8 -->
<g id="node8" class="node">
<title>Node8</title>
<g id="a_node8"><a xlink:href="structarmnn_1_1_softmax_descriptor.html" target="_top" xlink:title="A SoftmaxDescriptor for the SoftmaxLayer.">
<polygon fill="white" stroke="black" points="169.5,-214.5 169.5,-233.5 276.5,-233.5 276.5,-214.5 169.5,-214.5"/>
<text text-anchor="middle" x="223" y="-221.5" font-family="Helvetica,sans-Serif" font-size="10.00">SoftmaxDescriptor</text>
</a>
</g>
</g>
<!-- Node8&#45;&gt;Node6 -->
<g id="edge7" class="edge">
<title>Node8&#45;&gt;Node6</title>
<path fill="none" stroke="#9a32cd" stroke-dasharray="5,2" d="M286.93,-219.42C331.58,-215.56 392.78,-209.03 446,-199 463.98,-195.61 483.41,-190.77 500.61,-186.06"/>
<polygon fill="#9a32cd" stroke="#9a32cd" points="286.48,-215.94 276.81,-220.27 287.07,-222.92 286.48,-215.94"/>
<text text-anchor="middle" x="387.5" y="-218" font-family="Helvetica,sans-Serif" font-size="10.00"> m_Parameters</text>
</g>
<!-- Node9 -->
<g id="node9" class="node">
<title>Node9</title>
<g id="a_node9"><a xlink:href="structarmnn_1_1_base_descriptor.html" target="_top" xlink:title="Base class for all descriptors.">
<polygon fill="white" stroke="black" points="3.5,-214.5 3.5,-233.5 94.5,-233.5 94.5,-214.5 3.5,-214.5"/>
<text text-anchor="middle" x="49" y="-221.5" font-family="Helvetica,sans-Serif" font-size="10.00">BaseDescriptor</text>
</a>
</g>
</g>
<!-- Node9&#45;&gt;Node8 -->
<g id="edge8" class="edge">
<title>Node9&#45;&gt;Node8</title>
<path fill="none" stroke="midnightblue" d="M104.92,-224C125.51,-224 148.84,-224 169.23,-224"/>
<polygon fill="midnightblue" stroke="midnightblue" points="104.74,-220.5 94.74,-224 104.74,-227.5 104.74,-220.5"/>
</g>
<!-- Node10&#45;&gt;Node6 -->
<g id="edge9" class="edge">
<title>Node10&#45;&gt;Node6</title>
<path fill="none" stroke="orange" stroke-dasharray="5,2" d="M321.5,-150.14C360.26,-153.43 405.24,-157.32 446,-161 451.84,-161.53 457.85,-162.08 463.92,-162.64"/>
<polygon fill="orange" stroke="orange" points="321.53,-146.63 311.27,-149.27 320.93,-153.61 321.53,-146.63"/>
<text text-anchor="middle" x="387.5" y="-164" font-family="Helvetica,sans-Serif" font-size="10.00"> &lt; SoftmaxDescriptor &gt;</text>
</g>
<!-- Node11&#45;&gt;Node3 -->
<g id="edge11" class="edge">
<title>Node11&#45;&gt;Node3</title>
<path fill="none" stroke="orange" stroke-dasharray="5,2" d="M878.45,-81.92C940.12,-79.52 1017.05,-76.52 1074.74,-74.28"/>
<polygon fill="orange" stroke="orange" points="878.15,-78.43 868.3,-82.31 878.43,-85.42 878.15,-78.43"/>
<text text-anchor="middle" x="960" y="-84" font-family="Helvetica,sans-Serif" font-size="10.00"> &lt; SoftmaxQueueDescriptor &gt;</text>
</g>
<!-- Node12 -->
<g id="node12" class="node">
<title>Node12</title>
<g id="a_node12"><a xlink:href="classarmnn_1_1_neon_base_workload.html" target="_top" xlink:title=" ">
<polygon fill="white" stroke="black" points="1052,-14.5 1052,-33.5 1268,-33.5 1268,-14.5 1052,-14.5"/>
<text text-anchor="middle" x="1160" y="-21.5" font-family="Helvetica,sans-Serif" font-size="10.00">NeonBaseWorkload&lt; QueueDescriptor &gt;</text>
</a>
</g>
</g>
<!-- Node12&#45;&gt;Node2 -->
<g id="edge14" class="edge">
<title>Node12&#45;&gt;Node2</title>
<path fill="none" stroke="orange" stroke-dasharray="5,2" d="M1278.18,-29.25C1326.46,-31.61 1382.94,-34.63 1434,-38 1439.85,-38.39 1445.89,-38.81 1451.97,-39.26"/>
<polygon fill="orange" stroke="orange" points="1278.17,-25.75 1268.01,-28.76 1277.83,-32.74 1278.17,-25.75"/>
<text text-anchor="middle" x="1360" y="-41" font-family="Helvetica,sans-Serif" font-size="10.00"> &lt; SoftmaxQueueDescriptor &gt;</text>
</g>
<!-- Node13&#45;&gt;Node12 -->
<g id="edge15" class="edge">
<title>Node13&#45;&gt;Node12</title>
<path fill="none" stroke="midnightblue" d="M878.56,-13.82C932.4,-15.77 997.85,-18.15 1051.98,-20.11"/>
<polygon fill="midnightblue" stroke="midnightblue" points="878.42,-10.31 868.3,-13.44 878.16,-17.3 878.42,-10.31"/>
</g>
</g>
</svg>
