<?xml version="1.0" encoding="UTF-8" standalone="no"?>
<!DOCTYPE svg PUBLIC "-//W3C//DTD SVG 1.1//EN"
 "http://www.w3.org/Graphics/SVG/1.1/DTD/svg11.dtd">
<!-- Generated by graphviz version 2.43.0 (0)
 -->
<!-- Title: Pooling3dLayer Pages: 1 -->
<svg width="321pt" height="288pt"
 viewBox="0.00 0.00 321.00 288.00" xmlns="http://www.w3.org/2000/svg" xmlns:xlink="http://www.w3.org/1999/xlink">
<g id="graph0" class="graph" transform="scale(1 1) rotate(0) translate(4 284)">
<title>Pooling3dLayer</title>
<polygon fill="white" stroke="transparent" points="-4,4 -4,-284 317,-284 317,4 -4,4"/>
<!-- Node1 -->
<g id="node1" class="node">
<title>Node1</title>
<g id="a_node1"><a xlink:title="This layer represents a pooling 3d operation.">
<polygon fill="#bfbfbf" stroke="black" points="62.5,-0.5 62.5,-19.5 154.5,-19.5 154.5,-0.5 62.5,-0.5"/>
<text text-anchor="middle" x="108.5" y="-7.5" font-family="Helvetica,sans-Serif" font-size="10.00">Pooling3dLayer</text>
</a>
</g>
</g>
<!-- Node2 -->
<g id="node2" class="node">
<title>Node2</title>
<g id="a_node2"><a xlink:href="classarmnn_1_1_layer_with_parameters.html" target="_top" xlink:title=" ">
<polygon fill="white" stroke="black" points="40,-57.5 40,-87.5 177,-87.5 177,-57.5 40,-57.5"/>
<text text-anchor="start" x="48" y="-75.5" font-family="Helvetica,sans-Serif" font-size="10.00">LayerWithParameters</text>
<text text-anchor="middle" x="108.5" y="-64.5" font-family="Helvetica,sans-Serif" font-size="10.00">&lt; Pooling3dDescriptor &gt;</text>
</a>
</g>
</g>
<!-- Node2&#45;&gt;Node1 -->
<g id="edge1" class="edge">
<title>Node2&#45;&gt;Node1</title>
<path fill="none" stroke="midnightblue" d="M108.5,-47.35C108.5,-37.51 108.5,-26.78 108.5,-19.54"/>
<polygon fill="midnightblue" stroke="midnightblue" points="105,-47.47 108.5,-57.47 112,-47.47 105,-47.47"/>
</g>
<!-- Node3 -->
<g id="node3" class="node">
<title>Node3</title>
<g id="a_node3"><a xlink:href="classarmnn_1_1_layer.html" target="_top" xlink:title=" ">
<polygon fill="white" stroke="black" points="31.5,-203.5 31.5,-222.5 75.5,-222.5 75.5,-203.5 31.5,-203.5"/>
<text text-anchor="middle" x="53.5" y="-210.5" font-family="Helvetica,sans-Serif" font-size="10.00">Layer</text>
</a>
</g>
</g>
<!-- Node3&#45;&gt;Node2 -->
<g id="edge2" class="edge">
<title>Node3&#45;&gt;Node2</title>
<path fill="none" stroke="midnightblue" d="M45.78,-193.24C40.38,-177.17 35.44,-153.71 43.5,-135 52.1,-115.02 70.73,-98.5 85.85,-87.63"/>
<polygon fill="midnightblue" stroke="midnightblue" points="42.67,-194.9 49.44,-203.04 49.22,-192.45 42.67,-194.9"/>
</g>
<!-- Node7 -->
<g id="node7" class="node">
<title>Node7</title>
<g id="a_node7"><a xlink:href="classarmnn_1_1_layer_with_parameters.html" target="_top" xlink:title=" ">
<polygon fill="white" stroke="black" points="52.5,-135.5 52.5,-165.5 174.5,-165.5 174.5,-135.5 52.5,-135.5"/>
<text text-anchor="start" x="60.5" y="-153.5" font-family="Helvetica,sans-Serif" font-size="10.00">LayerWithParameters</text>
<text text-anchor="middle" x="113.5" y="-142.5" font-family="Helvetica,sans-Serif" font-size="10.00">&lt; Parameters &gt;</text>
</a>
</g>
</g>
<!-- Node3&#45;&gt;Node7 -->
<g id="edge7" class="edge">
<title>Node3&#45;&gt;Node7</title>
<path fill="none" stroke="midnightblue" d="M69.26,-196.11C78.6,-186.69 90.32,-174.87 99.36,-165.76"/>
<polygon fill="midnightblue" stroke="midnightblue" points="66.65,-193.77 62.1,-203.33 71.62,-198.7 66.65,-193.77"/>
</g>
<!-- Node4 -->
<g id="node4" class="node">
<title>Node4</title>
<g id="a_node4"><a xlink:href="classarmnn_1_1_i_connectable_layer.html" target="_top" xlink:title="Interface for a layer that is connectable to other layers via InputSlots and OutputSlots.">
<polygon fill="white" stroke="black" points="0,-260.5 0,-279.5 107,-279.5 107,-260.5 0,-260.5"/>
<text text-anchor="middle" x="53.5" y="-267.5" font-family="Helvetica,sans-Serif" font-size="10.00">IConnectableLayer</text>
</a>
</g>
</g>
<!-- Node4&#45;&gt;Node3 -->
<g id="edge3" class="edge">
<title>Node4&#45;&gt;Node3</title>
<path fill="none" stroke="midnightblue" d="M53.5,-250.12C53.5,-240.82 53.5,-230.06 53.5,-222.71"/>
<polygon fill="midnightblue" stroke="midnightblue" points="50,-250.41 53.5,-260.41 57,-250.41 50,-250.41"/>
</g>
<!-- Node5 -->
<g id="node5" class="node">
<title>Node5</title>
<g id="a_node5"><a xlink:href="structarmnn_1_1_pooling3d_descriptor.html" target="_top" xlink:title="A Pooling3dDescriptor for the Pooling3dLayer.">
<polygon fill="white" stroke="black" points="198,-141 198,-160 313,-160 313,-141 198,-141"/>
<text text-anchor="middle" x="255.5" y="-148" font-family="Helvetica,sans-Serif" font-size="10.00">Pooling3dDescriptor</text>
</a>
</g>
</g>
<!-- Node5&#45;&gt;Node2 -->
<g id="edge4" class="edge">
<title>Node5&#45;&gt;Node2</title>
<path fill="none" stroke="#9a32cd" stroke-dasharray="5,2" d="M250.23,-131.27C246.8,-122.45 241.46,-112.41 233.5,-106 217.53,-93.12 197,-85.3 177.22,-80.56"/>
<polygon fill="#9a32cd" stroke="#9a32cd" points="246.92,-132.41 253.41,-140.78 253.55,-130.18 246.92,-132.41"/>
<text text-anchor="middle" x="268" y="-109" font-family="Helvetica,sans-Serif" font-size="10.00"> m_Param</text>
</g>
<!-- Node6 -->
<g id="node6" class="node">
<title>Node6</title>
<g id="a_node6"><a xlink:href="structarmnn_1_1_base_descriptor.html" target="_top" xlink:title="Base class for all descriptors.">
<polygon fill="white" stroke="black" points="210,-203.5 210,-222.5 301,-222.5 301,-203.5 210,-203.5"/>
<text text-anchor="middle" x="255.5" y="-210.5" font-family="Helvetica,sans-Serif" font-size="10.00">BaseDescriptor</text>
</a>
</g>
</g>
<!-- Node6&#45;&gt;Node5 -->
<g id="edge5" class="edge">
<title>Node6&#45;&gt;Node5</title>
<path fill="none" stroke="midnightblue" d="M255.5,-193C255.5,-182 255.5,-168.68 255.5,-160.15"/>
<polygon fill="midnightblue" stroke="midnightblue" points="252,-193.33 255.5,-203.33 259,-193.33 252,-193.33"/>
</g>
<!-- Node7&#45;&gt;Node2 -->
<g id="edge6" class="edge">
<title>Node7&#45;&gt;Node2</title>
<path fill="none" stroke="orange" stroke-dasharray="5,2" d="M110.23,-125.1C109.94,-122.37 109.69,-119.63 109.5,-117 108.79,-107.21 108.54,-96.14 108.47,-87.62"/>
<polygon fill="orange" stroke="orange" points="106.79,-125.77 111.44,-135.29 113.74,-124.95 106.79,-125.77"/>
<text text-anchor="middle" x="171.5" y="-109" font-family="Helvetica,sans-Serif" font-size="10.00"> &lt; Pooling3dDescriptor &gt;</text>
</g>
</g>
</svg>
