<?xml version="1.0" encoding="UTF-8" standalone="no"?>
<!DOCTYPE svg PUBLIC "-//W3C//DTD SVG 1.1//EN"
 "http://www.w3.org/Graphics/SVG/1.1/DTD/svg11.dtd">
<!-- Generated by graphviz version 2.43.0 (0)
 -->
<!-- Title: NeonDetectionPostProcessWorkload Pages: 1 -->
<svg width="1964pt" height="280pt"
 viewBox="0.00 0.00 1964.00 280.00" xmlns="http://www.w3.org/2000/svg" xmlns:xlink="http://www.w3.org/1999/xlink">
<g id="graph0" class="graph" transform="scale(1 1) rotate(0) translate(4 276)">
<title>NeonDetectionPostProcessWorkload</title>
<polygon fill="white" stroke="transparent" points="-4,4 -4,-276 1960,-276 1960,4 -4,4"/>
<!-- Node1 -->
<g id="node1" class="node">
<title>Node1</title>
<g id="a_node1"><a xlink:title=" ">
<polygon fill="#bfbfbf" stroke="black" points="1808,-30 1808,-60 1956,-60 1956,-30 1808,-30"/>
<text text-anchor="start" x="1816" y="-48" font-family="Helvetica,sans-Serif" font-size="10.00">NeonDetectionPostProcess</text>
<text text-anchor="middle" x="1882" y="-37" font-family="Helvetica,sans-Serif" font-size="10.00">Workload</text>
</a>
</g>
</g>
<!-- Node2 -->
<g id="node2" class="node">
<title>Node2</title>
<g id="a_node2"><a xlink:href="classarmnn_1_1_neon_base_workload.html" target="_top" xlink:title=" ">
<polygon fill="white" stroke="black" points="1601,-30 1601,-60 1771,-60 1771,-30 1601,-30"/>
<text text-anchor="start" x="1609" y="-48" font-family="Helvetica,sans-Serif" font-size="10.00">NeonBaseWorkload&lt; Detection</text>
<text text-anchor="middle" x="1686" y="-37" font-family="Helvetica,sans-Serif" font-size="10.00">PostProcessQueueDescriptor &gt;</text>
</a>
</g>
</g>
<!-- Node2&#45;&gt;Node1 -->
<g id="edge1" class="edge">
<title>Node2&#45;&gt;Node1</title>
<path fill="none" stroke="midnightblue" d="M1781.27,-45C1790.18,-45 1799.12,-45 1807.78,-45"/>
<polygon fill="midnightblue" stroke="midnightblue" points="1781.24,-41.5 1771.24,-45 1781.24,-48.5 1781.24,-41.5"/>
</g>
<!-- Node3 -->
<g id="node3" class="node">
<title>Node3</title>
<g id="a_node3"><a xlink:href="classarmnn_1_1_base_workload.html" target="_top" xlink:title=" ">
<polygon fill="white" stroke="black" points="1222,-56 1222,-86 1388,-86 1388,-56 1222,-56"/>
<text text-anchor="start" x="1230" y="-74" font-family="Helvetica,sans-Serif" font-size="10.00">BaseWorkload&lt; DetectionPost</text>
<text text-anchor="middle" x="1305" y="-63" font-family="Helvetica,sans-Serif" font-size="10.00">ProcessQueueDescriptor &gt;</text>
</a>
</g>
</g>
<!-- Node3&#45;&gt;Node2 -->
<g id="edge2" class="edge">
<title>Node3&#45;&gt;Node2</title>
<path fill="none" stroke="midnightblue" d="M1398.33,-64.67C1452.19,-60.97 1521.44,-56.22 1583,-52 1588.84,-51.6 1594.88,-51.19 1600.95,-50.77"/>
<polygon fill="midnightblue" stroke="midnightblue" points="1397.85,-61.19 1388.12,-65.37 1398.33,-68.18 1397.85,-61.19"/>
</g>
<!-- Node4 -->
<g id="node4" class="node">
<title>Node4</title>
<g id="a_node4"><a xlink:href="classarmnn_1_1_i_workload.html" target="_top" xlink:title="Workload interface to enqueue a layer computation.">
<polygon fill="white" stroke="black" points="594,-38.5 594,-57.5 659,-57.5 659,-38.5 594,-38.5"/>
<text text-anchor="middle" x="626.5" y="-45.5" font-family="Helvetica,sans-Serif" font-size="10.00">IWorkload</text>
</a>
</g>
</g>
<!-- Node4&#45;&gt;Node3 -->
<g id="edge3" class="edge">
<title>Node4&#45;&gt;Node3</title>
<path fill="none" stroke="midnightblue" d="M669.23,-49.42C778.82,-53.14 1076.35,-63.26 1221.77,-68.2"/>
<polygon fill="midnightblue" stroke="midnightblue" points="669.33,-45.92 659.22,-49.08 669.1,-52.92 669.33,-45.92"/>
</g>
<!-- Node13 -->
<g id="node13" class="node">
<title>Node13</title>
<g id="a_node13"><a xlink:href="classarmnn_1_1_base_workload.html" target="_top" xlink:title=" ">
<polygon fill="white" stroke="black" points="818,-76.5 818,-95.5 1009,-95.5 1009,-76.5 818,-76.5"/>
<text text-anchor="middle" x="913.5" y="-83.5" font-family="Helvetica,sans-Serif" font-size="10.00">BaseWorkload&lt; QueueDescriptor &gt;</text>
</a>
</g>
</g>
<!-- Node4&#45;&gt;Node13 -->
<g id="edge14" class="edge">
<title>Node4&#45;&gt;Node13</title>
<path fill="none" stroke="midnightblue" d="M669.09,-53.55C714.15,-59.55 786.85,-69.25 841.09,-76.48"/>
<polygon fill="midnightblue" stroke="midnightblue" points="669.46,-50.06 659.09,-52.21 668.54,-57 669.46,-50.06"/>
</g>
<!-- Node15 -->
<g id="node15" class="node">
<title>Node15</title>
<g id="a_node15"><a xlink:href="classarmnn_1_1_base_workload.html" target="_top" xlink:title=" ">
<polygon fill="white" stroke="black" points="818,-0.5 818,-19.5 1009,-19.5 1009,-0.5 818,-0.5"/>
<text text-anchor="middle" x="913.5" y="-7.5" font-family="Helvetica,sans-Serif" font-size="10.00">BaseWorkload&lt; QueueDescriptor &gt;</text>
</a>
</g>
</g>
<!-- Node4&#45;&gt;Node15 -->
<g id="edge18" class="edge">
<title>Node4&#45;&gt;Node15</title>
<path fill="none" stroke="midnightblue" d="M669.09,-42.45C714.15,-36.45 786.85,-26.75 841.09,-19.52"/>
<polygon fill="midnightblue" stroke="midnightblue" points="668.54,-39 659.09,-43.79 669.46,-45.94 668.54,-39"/>
</g>
<!-- Node5 -->
<g id="node5" class="node">
<title>Node5</title>
<g id="a_node5"><a xlink:href="structarmnn_1_1_detection_post_process_queue_descriptor.html" target="_top" xlink:title=" ">
<polygon fill="white" stroke="black" points="836.5,-121 836.5,-151 990.5,-151 990.5,-121 836.5,-121"/>
<text text-anchor="start" x="844.5" y="-139" font-family="Helvetica,sans-Serif" font-size="10.00">DetectionPostProcessQueue</text>
<text text-anchor="middle" x="913.5" y="-128" font-family="Helvetica,sans-Serif" font-size="10.00">Descriptor</text>
</a>
</g>
</g>
<!-- Node5&#45;&gt;Node3 -->
<g id="edge4" class="edge">
<title>Node5&#45;&gt;Node3</title>
<path fill="none" stroke="#9a32cd" stroke-dasharray="5,2" d="M1000.77,-130.86C1052.76,-126.77 1120.09,-119.73 1179,-108 1206.41,-102.54 1236.47,-93.74 1260.24,-86.09"/>
<polygon fill="#9a32cd" stroke="#9a32cd" points="1000.29,-127.38 990.59,-131.64 1000.82,-134.36 1000.29,-127.38"/>
<text text-anchor="middle" x="1103" y="-131" font-family="Helvetica,sans-Serif" font-size="10.00"> m_Data</text>
</g>
<!-- Node6 -->
<g id="node6" class="node">
<title>Node6</title>
<g id="a_node6"><a xlink:href="structarmnn_1_1_queue_descriptor_with_parameters.html" target="_top" xlink:title=" ">
<polygon fill="white" stroke="black" points="529,-185 529,-215 724,-215 724,-185 529,-185"/>
<text text-anchor="start" x="537" y="-203" font-family="Helvetica,sans-Serif" font-size="10.00">QueueDescriptorWithParameters</text>
<text text-anchor="middle" x="626.5" y="-192" font-family="Helvetica,sans-Serif" font-size="10.00">&lt; DetectionPostProcessDescriptor &gt;</text>
</a>
</g>
</g>
<!-- Node6&#45;&gt;Node5 -->
<g id="edge5" class="edge">
<title>Node6&#45;&gt;Node5</title>
<path fill="none" stroke="midnightblue" d="M704.14,-182.79C748.28,-172.88 803.22,-160.54 845.61,-151.02"/>
<polygon fill="midnightblue" stroke="midnightblue" points="703.31,-179.39 694.32,-184.99 704.84,-186.22 703.31,-179.39"/>
</g>
<!-- Node7 -->
<g id="node7" class="node">
<title>Node7</title>
<g id="a_node7"><a xlink:href="structarmnn_1_1_queue_descriptor.html" target="_top" xlink:title=" ">
<polygon fill="white" stroke="black" points="0,-126.5 0,-145.5 98,-145.5 98,-126.5 0,-126.5"/>
<text text-anchor="middle" x="49" y="-133.5" font-family="Helvetica,sans-Serif" font-size="10.00">QueueDescriptor</text>
</a>
</g>
</g>
<!-- Node7&#45;&gt;Node6 -->
<g id="edge6" class="edge">
<title>Node7&#45;&gt;Node6</title>
<path fill="none" stroke="midnightblue" d="M97.78,-147.81C109.87,-150.49 122.86,-153.09 135,-155 270.8,-176.32 429.46,-188.61 528.72,-194.8"/>
<polygon fill="midnightblue" stroke="midnightblue" points="98.41,-144.36 87.88,-145.56 96.86,-151.19 98.41,-144.36"/>
</g>
<!-- Node10 -->
<g id="node10" class="node">
<title>Node10</title>
<g id="a_node10"><a xlink:href="structarmnn_1_1_queue_descriptor_with_parameters.html" target="_top" xlink:title=" ">
<polygon fill="white" stroke="black" points="135,-203 135,-233 311,-233 311,-203 135,-203"/>
<text text-anchor="start" x="143" y="-221" font-family="Helvetica,sans-Serif" font-size="10.00">QueueDescriptorWithParameters</text>
<text text-anchor="middle" x="223" y="-210" font-family="Helvetica,sans-Serif" font-size="10.00">&lt; LayerDescriptor &gt;</text>
</a>
</g>
</g>
<!-- Node7&#45;&gt;Node10 -->
<g id="edge10" class="edge">
<title>Node7&#45;&gt;Node10</title>
<path fill="none" stroke="midnightblue" d="M67.31,-152.77C79.91,-164.16 97.88,-178.76 116,-188 127.76,-193.99 140.88,-198.94 153.77,-202.96"/>
<polygon fill="midnightblue" stroke="midnightblue" points="69.57,-150.09 59.86,-145.85 64.8,-155.22 69.57,-150.09"/>
</g>
<!-- Node7&#45;&gt;Node13 -->
<g id="edge15" class="edge">
<title>Node7&#45;&gt;Node13</title>
<path fill="none" stroke="#9a32cd" stroke-dasharray="5,2" d="M95.95,-124.14C108.53,-121.33 122.22,-118.67 135,-117 379.63,-85.05 670.91,-82.91 817.79,-84.31"/>
<polygon fill="#9a32cd" stroke="#9a32cd" points="95.1,-120.75 86.14,-126.41 96.67,-127.57 95.1,-120.75"/>
<text text-anchor="middle" x="420" y="-100" font-family="Helvetica,sans-Serif" font-size="10.00"> m_Data</text>
</g>
<!-- Node7&#45;&gt;Node15 -->
<g id="edge19" class="edge">
<title>Node7&#45;&gt;Node15</title>
<path fill="none" stroke="#9a32cd" stroke-dasharray="5,2" d="M75.35,-121.42C91.85,-112.53 114.12,-101.64 135,-95 372.47,-19.53 668.98,-8.58 817.88,-8.43"/>
<polygon fill="#9a32cd" stroke="#9a32cd" points="73.42,-118.49 66.35,-126.38 76.8,-124.62 73.42,-118.49"/>
<text text-anchor="middle" x="420" y="-51" font-family="Helvetica,sans-Serif" font-size="10.00"> m_Data</text>
</g>
<!-- Node8 -->
<g id="node8" class="node">
<title>Node8</title>
<g id="a_node8"><a xlink:href="structarmnn_1_1_detection_post_process_descriptor.html" target="_top" xlink:title=" ">
<polygon fill="white" stroke="black" points="136.5,-252.5 136.5,-271.5 309.5,-271.5 309.5,-252.5 136.5,-252.5"/>
<text text-anchor="middle" x="223" y="-259.5" font-family="Helvetica,sans-Serif" font-size="10.00">DetectionPostProcessDescriptor</text>
</a>
</g>
</g>
<!-- Node8&#45;&gt;Node6 -->
<g id="edge7" class="edge">
<title>Node8&#45;&gt;Node6</title>
<path fill="none" stroke="#9a32cd" stroke-dasharray="5,2" d="M320.06,-253.57C376.02,-247.93 447.79,-239.43 511,-228 530.33,-224.5 551.27,-219.69 569.88,-215.04"/>
<polygon fill="#9a32cd" stroke="#9a32cd" points="319.41,-250.12 309.8,-254.59 320.1,-257.09 319.41,-250.12"/>
<text text-anchor="middle" x="420" y="-255" font-family="Helvetica,sans-Serif" font-size="10.00"> m_Parameters</text>
</g>
<!-- Node9 -->
<g id="node9" class="node">
<title>Node9</title>
<g id="a_node9"><a xlink:href="structarmnn_1_1_base_descriptor.html" target="_top" xlink:title="Base class for all descriptors.">
<polygon fill="white" stroke="black" points="3.5,-252.5 3.5,-271.5 94.5,-271.5 94.5,-252.5 3.5,-252.5"/>
<text text-anchor="middle" x="49" y="-259.5" font-family="Helvetica,sans-Serif" font-size="10.00">BaseDescriptor</text>
</a>
</g>
</g>
<!-- Node9&#45;&gt;Node8 -->
<g id="edge8" class="edge">
<title>Node9&#45;&gt;Node8</title>
<path fill="none" stroke="midnightblue" d="M104.97,-262C115.03,-262 125.75,-262 136.46,-262"/>
<polygon fill="midnightblue" stroke="midnightblue" points="104.74,-258.5 94.74,-262 104.74,-265.5 104.74,-258.5"/>
</g>
<!-- Node10&#45;&gt;Node6 -->
<g id="edge9" class="edge">
<title>Node10&#45;&gt;Node6</title>
<path fill="none" stroke="orange" stroke-dasharray="5,2" d="M321.45,-213.63C384.37,-210.81 465.91,-207.15 528.7,-204.34"/>
<polygon fill="orange" stroke="orange" points="320.95,-210.15 311.12,-214.09 321.27,-217.14 320.95,-210.15"/>
<text text-anchor="middle" x="420" y="-216" font-family="Helvetica,sans-Serif" font-size="10.00"> &lt; DetectionPostProcessDescriptor &gt;</text>
</g>
<!-- Node11 -->
<g id="node11" class="node">
<title>Node11</title>
<g id="a_node11"><a xlink:href="classarmnn_1_1_const_tensor_handle.html" target="_top" xlink:title=" ">
<polygon fill="white" stroke="black" points="571.5,-126.5 571.5,-145.5 681.5,-145.5 681.5,-126.5 571.5,-126.5"/>
<text text-anchor="middle" x="626.5" y="-133.5" font-family="Helvetica,sans-Serif" font-size="10.00">ConstTensorHandle</text>
</a>
</g>
</g>
<!-- Node11&#45;&gt;Node5 -->
<g id="edge11" class="edge">
<title>Node11&#45;&gt;Node5</title>
<path fill="none" stroke="#9a32cd" stroke-dasharray="5,2" d="M691.81,-136C734.69,-136 791.24,-136 836.36,-136"/>
<polygon fill="#9a32cd" stroke="#9a32cd" points="691.78,-132.5 681.78,-136 691.78,-139.5 691.78,-132.5"/>
<text text-anchor="middle" x="771" y="-139" font-family="Helvetica,sans-Serif" font-size="10.00"> m_Anchors</text>
</g>
<!-- Node12 -->
<g id="node12" class="node">
<title>Node12</title>
<g id="a_node12"><a xlink:href="classarmnn_1_1_i_tensor_handle.html" target="_top" xlink:title=" ">
<polygon fill="white" stroke="black" points="180,-126.5 180,-145.5 266,-145.5 266,-126.5 180,-126.5"/>
<text text-anchor="middle" x="223" y="-133.5" font-family="Helvetica,sans-Serif" font-size="10.00">ITensorHandle</text>
</a>
</g>
</g>
<!-- Node12&#45;&gt;Node11 -->
<g id="edge12" class="edge">
<title>Node12&#45;&gt;Node11</title>
<path fill="none" stroke="midnightblue" d="M276.56,-136C353.02,-136 494.22,-136 571.5,-136"/>
<polygon fill="midnightblue" stroke="midnightblue" points="276.21,-132.5 266.21,-136 276.21,-139.5 276.21,-132.5"/>
</g>
<!-- Node13&#45;&gt;Node3 -->
<g id="edge13" class="edge">
<title>Node13&#45;&gt;Node3</title>
<path fill="none" stroke="orange" stroke-dasharray="5,2" d="M1019.33,-81.96C1082.86,-79.52 1162.73,-76.44 1221.69,-74.17"/>
<polygon fill="orange" stroke="orange" points="1019.14,-78.47 1009.28,-82.35 1019.41,-85.46 1019.14,-78.47"/>
<text text-anchor="start" x="1027" y="-96" font-family="Helvetica,sans-Serif" font-size="10.00"> &lt; DetectionPostProcessQueue</text>
<text text-anchor="middle" x="1103" y="-85" font-family="Helvetica,sans-Serif" font-size="10.00">Descriptor &gt;</text>
</g>
<!-- Node14 -->
<g id="node14" class="node">
<title>Node14</title>
<g id="a_node14"><a xlink:href="classarmnn_1_1_neon_base_workload.html" target="_top" xlink:title=" ">
<polygon fill="white" stroke="black" points="1197,-14.5 1197,-33.5 1413,-33.5 1413,-14.5 1197,-14.5"/>
<text text-anchor="middle" x="1305" y="-21.5" font-family="Helvetica,sans-Serif" font-size="10.00">NeonBaseWorkload&lt; QueueDescriptor &gt;</text>
</a>
</g>
</g>
<!-- Node14&#45;&gt;Node2 -->
<g id="edge16" class="edge">
<title>Node14&#45;&gt;Node2</title>
<path fill="none" stroke="orange" stroke-dasharray="5,2" d="M1423.12,-23.32C1472.54,-23.86 1530.65,-25.6 1583,-30 1588.8,-30.49 1594.77,-31.09 1600.77,-31.78"/>
<polygon fill="orange" stroke="orange" points="1423.07,-19.82 1413.04,-23.22 1423.01,-26.82 1423.07,-19.82"/>
<text text-anchor="start" x="1431" y="-44" font-family="Helvetica,sans-Serif" font-size="10.00"> &lt; DetectionPostProcessQueue</text>
<text text-anchor="middle" x="1507" y="-33" font-family="Helvetica,sans-Serif" font-size="10.00">Descriptor &gt;</text>
</g>
<!-- Node15&#45;&gt;Node14 -->
<g id="edge17" class="edge">
<title>Node15&#45;&gt;Node14</title>
<path fill="none" stroke="midnightblue" d="M1019.39,-13.77C1074.32,-15.74 1141.46,-18.16 1196.74,-20.14"/>
<polygon fill="midnightblue" stroke="midnightblue" points="1019.4,-10.27 1009.28,-13.41 1019.15,-17.26 1019.4,-10.27"/>
</g>
</g>
</svg>
