<?xml version="1.0" encoding="UTF-8" standalone="no"?>
<!DOCTYPE svg PUBLIC "-//W3C//DTD SVG 1.1//EN"
 "http://www.w3.org/Graphics/SVG/1.1/DTD/svg11.dtd">
<!-- Generated by graphviz version 2.43.0 (0)
 -->
<!-- Title: RefConstantWorkload Pages: 1 -->
<svg width="1445pt" height="179pt"
 viewBox="0.00 0.00 1445.00 179.00" xmlns="http://www.w3.org/2000/svg" xmlns:xlink="http://www.w3.org/1999/xlink">
<g id="graph0" class="graph" transform="scale(1 1) rotate(0) translate(4 175)">
<title>RefConstantWorkload</title>
<polygon fill="white" stroke="transparent" points="-4,4 -4,-175 1441,-175 1441,4 -4,4"/>
<!-- Node1 -->
<g id="node1" class="node">
<title>Node1</title>
<g id="a_node1"><a xlink:title=" ">
<polygon fill="#bfbfbf" stroke="black" points="1315,-46.5 1315,-65.5 1437,-65.5 1437,-46.5 1315,-46.5"/>
<text text-anchor="middle" x="1376" y="-53.5" font-family="Helvetica,sans-Serif" font-size="10.00">RefConstantWorkload</text>
</a>
</g>
</g>
<!-- Node2 -->
<g id="node2" class="node">
<title>Node2</title>
<g id="a_node2"><a xlink:href="classarmnn_1_1_ref_base_workload.html" target="_top" xlink:title=" ">
<polygon fill="white" stroke="black" points="1120,-41 1120,-71 1278,-71 1278,-41 1120,-41"/>
<text text-anchor="start" x="1128" y="-59" font-family="Helvetica,sans-Serif" font-size="10.00">RefBaseWorkload&lt; Constant</text>
<text text-anchor="middle" x="1199" y="-48" font-family="Helvetica,sans-Serif" font-size="10.00">QueueDescriptor &gt;</text>
</a>
</g>
</g>
<!-- Node2&#45;&gt;Node1 -->
<g id="edge1" class="edge">
<title>Node2&#45;&gt;Node1</title>
<path fill="none" stroke="midnightblue" d="M1288.24,-56C1297.29,-56 1306.33,-56 1314.98,-56"/>
<polygon fill="midnightblue" stroke="midnightblue" points="1288.03,-52.5 1278.03,-56 1288.03,-59.5 1288.03,-52.5"/>
</g>
<!-- Node3 -->
<g id="node3" class="node">
<title>Node3</title>
<g id="a_node3"><a xlink:href="classarmnn_1_1_base_workload.html" target="_top" xlink:title=" ">
<polygon fill="white" stroke="black" points="743,-20 743,-50 916,-50 916,-20 743,-20"/>
<text text-anchor="start" x="751" y="-38" font-family="Helvetica,sans-Serif" font-size="10.00">BaseWorkload&lt; ConstantQueue</text>
<text text-anchor="middle" x="829.5" y="-27" font-family="Helvetica,sans-Serif" font-size="10.00">Descriptor &gt;</text>
</a>
</g>
</g>
<!-- Node3&#45;&gt;Node2 -->
<g id="edge2" class="edge">
<title>Node3&#45;&gt;Node2</title>
<path fill="none" stroke="midnightblue" d="M926.47,-40.48C986.63,-43.92 1063.21,-48.3 1119.7,-51.53"/>
<polygon fill="midnightblue" stroke="midnightblue" points="926.38,-36.97 916.2,-39.9 925.98,-43.96 926.38,-36.97"/>
</g>
<!-- Node4 -->
<g id="node4" class="node">
<title>Node4</title>
<g id="a_node4"><a xlink:href="classarmnn_1_1_i_workload.html" target="_top" xlink:title="Workload interface to enqueue a layer computation.">
<polygon fill="white" stroke="black" points="145.5,-0.5 145.5,-19.5 210.5,-19.5 210.5,-0.5 145.5,-0.5"/>
<text text-anchor="middle" x="178" y="-7.5" font-family="Helvetica,sans-Serif" font-size="10.00">IWorkload</text>
</a>
</g>
</g>
<!-- Node4&#45;&gt;Node3 -->
<g id="edge3" class="edge">
<title>Node4&#45;&gt;Node3</title>
<path fill="none" stroke="midnightblue" d="M220.73,-10.49C251.05,-10.86 293.07,-11.4 330,-12 422.89,-13.5 446.18,-12.07 539,-16 607.57,-18.9 685.15,-24.1 742.73,-28.32"/>
<polygon fill="midnightblue" stroke="midnightblue" points="220.57,-6.98 210.52,-10.36 220.48,-13.98 220.57,-6.98"/>
</g>
<!-- Node9 -->
<g id="node9" class="node">
<title>Node9</title>
<g id="a_node9"><a xlink:href="classarmnn_1_1_base_workload.html" target="_top" xlink:title=" ">
<polygon fill="white" stroke="black" points="348,-25.5 348,-44.5 539,-44.5 539,-25.5 348,-25.5"/>
<text text-anchor="middle" x="443.5" y="-32.5" font-family="Helvetica,sans-Serif" font-size="10.00">BaseWorkload&lt; QueueDescriptor &gt;</text>
</a>
</g>
</g>
<!-- Node4&#45;&gt;Node9 -->
<g id="edge9" class="edge">
<title>Node4&#45;&gt;Node9</title>
<path fill="none" stroke="midnightblue" d="M220.74,-13.81C251.06,-16.6 293.07,-20.48 330,-24 335.86,-24.56 341.89,-25.14 347.98,-25.72"/>
<polygon fill="midnightblue" stroke="midnightblue" points="220.81,-10.3 210.53,-12.88 220.17,-17.28 220.81,-10.3"/>
</g>
<!-- Node11 -->
<g id="node11" class="node">
<title>Node11</title>
<g id="a_node11"><a xlink:href="classarmnn_1_1_base_workload.html" target="_top" xlink:title=" ">
<polygon fill="white" stroke="black" points="348,-69.5 348,-88.5 539,-88.5 539,-69.5 348,-69.5"/>
<text text-anchor="middle" x="443.5" y="-76.5" font-family="Helvetica,sans-Serif" font-size="10.00">BaseWorkload&lt; QueueDescriptor &gt;</text>
</a>
</g>
</g>
<!-- Node4&#45;&gt;Node11 -->
<g id="edge13" class="edge">
<title>Node4&#45;&gt;Node11</title>
<path fill="none" stroke="midnightblue" d="M220.23,-20.8C271.19,-34.14 357.13,-56.65 405.87,-69.41"/>
<polygon fill="midnightblue" stroke="midnightblue" points="221.08,-17.4 210.52,-18.25 219.31,-24.17 221.08,-17.4"/>
</g>
<!-- Node5 -->
<g id="node5" class="node">
<title>Node5</title>
<g id="a_node5"><a xlink:href="structarmnn_1_1_constant_queue_descriptor.html" target="_top" xlink:title=" ">
<polygon fill="white" stroke="black" points="372.5,-118.5 372.5,-137.5 514.5,-137.5 514.5,-118.5 372.5,-118.5"/>
<text text-anchor="middle" x="443.5" y="-125.5" font-family="Helvetica,sans-Serif" font-size="10.00">ConstantQueueDescriptor</text>
</a>
</g>
</g>
<!-- Node5&#45;&gt;Node3 -->
<g id="edge4" class="edge">
<title>Node5&#45;&gt;Node3</title>
<path fill="none" stroke="#9a32cd" stroke-dasharray="5,2" d="M493.63,-116.1C563.24,-99.24 690.56,-68.41 766.56,-50"/>
<polygon fill="#9a32cd" stroke="#9a32cd" points="492.69,-112.73 483.79,-118.48 494.33,-119.53 492.69,-112.73"/>
<text text-anchor="middle" x="632.5" y="-103" font-family="Helvetica,sans-Serif" font-size="10.00"> m_Data</text>
</g>
<!-- Node6 -->
<g id="node6" class="node">
<title>Node6</title>
<g id="a_node6"><a xlink:href="structarmnn_1_1_queue_descriptor.html" target="_top" xlink:title=" ">
<polygon fill="white" stroke="black" points="129,-92.5 129,-111.5 227,-111.5 227,-92.5 129,-92.5"/>
<text text-anchor="middle" x="178" y="-99.5" font-family="Helvetica,sans-Serif" font-size="10.00">QueueDescriptor</text>
</a>
</g>
</g>
<!-- Node6&#45;&gt;Node5 -->
<g id="edge5" class="edge">
<title>Node6&#45;&gt;Node5</title>
<path fill="none" stroke="midnightblue" d="M237.21,-108.55C241.88,-109.05 246.52,-109.54 251,-110 291.19,-114.12 336.17,-118.37 372.44,-121.7"/>
<polygon fill="midnightblue" stroke="midnightblue" points="237.33,-105.05 227.01,-107.45 236.58,-112.01 237.33,-105.05"/>
</g>
<!-- Node6&#45;&gt;Node9 -->
<g id="edge10" class="edge">
<title>Node6&#45;&gt;Node9</title>
<path fill="none" stroke="#9a32cd" stroke-dasharray="5,2" d="M210.24,-88.52C222.75,-83.47 237.39,-78 251,-74 294.29,-61.27 344.29,-51.24 382.34,-44.54"/>
<polygon fill="#9a32cd" stroke="#9a32cd" points="208.64,-85.39 200.72,-92.44 211.3,-91.86 208.64,-85.39"/>
<text text-anchor="middle" x="290.5" y="-77" font-family="Helvetica,sans-Serif" font-size="10.00"> m_Data</text>
</g>
<!-- Node6&#45;&gt;Node11 -->
<g id="edge14" class="edge">
<title>Node6&#45;&gt;Node11</title>
<path fill="none" stroke="#9a32cd" stroke-dasharray="5,2" d="M237.24,-96.92C269.69,-94.08 310.89,-90.49 347.86,-87.26"/>
<polygon fill="#9a32cd" stroke="#9a32cd" points="236.68,-93.45 227.02,-97.81 237.29,-100.43 236.68,-93.45"/>
<text text-anchor="middle" x="290.5" y="-98" font-family="Helvetica,sans-Serif" font-size="10.00"> m_Data</text>
</g>
<!-- Node7 -->
<g id="node7" class="node">
<title>Node7</title>
<g id="a_node7"><a xlink:href="classarmnn_1_1_const_tensor_handle.html" target="_top" xlink:title=" ">
<polygon fill="white" stroke="black" points="123,-151.5 123,-170.5 233,-170.5 233,-151.5 123,-151.5"/>
<text text-anchor="middle" x="178" y="-158.5" font-family="Helvetica,sans-Serif" font-size="10.00">ConstTensorHandle</text>
</a>
</g>
</g>
<!-- Node7&#45;&gt;Node5 -->
<g id="edge6" class="edge">
<title>Node7&#45;&gt;Node5</title>
<path fill="none" stroke="#9a32cd" stroke-dasharray="5,2" d="M243.46,-152.93C282.48,-148.04 332.25,-141.81 372.26,-136.8"/>
<polygon fill="#9a32cd" stroke="#9a32cd" points="242.77,-149.49 233.28,-154.2 243.64,-156.43 242.77,-149.49"/>
<text text-anchor="middle" x="290.5" y="-154" font-family="Helvetica,sans-Serif" font-size="10.00"> m_LayerOutput</text>
</g>
<!-- Node8 -->
<g id="node8" class="node">
<title>Node8</title>
<g id="a_node8"><a xlink:href="classarmnn_1_1_i_tensor_handle.html" target="_top" xlink:title=" ">
<polygon fill="white" stroke="black" points="0,-151.5 0,-170.5 86,-170.5 86,-151.5 0,-151.5"/>
<text text-anchor="middle" x="43" y="-158.5" font-family="Helvetica,sans-Serif" font-size="10.00">ITensorHandle</text>
</a>
</g>
</g>
<!-- Node8&#45;&gt;Node7 -->
<g id="edge7" class="edge">
<title>Node8&#45;&gt;Node7</title>
<path fill="none" stroke="midnightblue" d="M96.21,-161C105.01,-161 114.16,-161 123,-161"/>
<polygon fill="midnightblue" stroke="midnightblue" points="96.08,-157.5 86.08,-161 96.08,-164.5 96.08,-157.5"/>
</g>
<!-- Node9&#45;&gt;Node3 -->
<g id="edge8" class="edge">
<title>Node9&#45;&gt;Node3</title>
<path fill="none" stroke="orange" stroke-dasharray="5,2" d="M549.43,-35C610.18,-35 685.7,-35 742.85,-35"/>
<polygon fill="orange" stroke="orange" points="549.42,-31.5 539.42,-35 549.42,-38.5 549.42,-31.5"/>
<text text-anchor="middle" x="632.5" y="-38" font-family="Helvetica,sans-Serif" font-size="10.00"> &lt; ConstantQueueDescriptor &gt;</text>
</g>
<!-- Node10 -->
<g id="node10" class="node">
<title>Node10</title>
<g id="a_node10"><a xlink:href="classarmnn_1_1_ref_base_workload.html" target="_top" xlink:title=" ">
<polygon fill="white" stroke="black" points="726,-69.5 726,-88.5 933,-88.5 933,-69.5 726,-69.5"/>
<text text-anchor="middle" x="829.5" y="-76.5" font-family="Helvetica,sans-Serif" font-size="10.00">RefBaseWorkload&lt; QueueDescriptor &gt;</text>
</a>
</g>
</g>
<!-- Node10&#45;&gt;Node2 -->
<g id="edge11" class="edge">
<title>Node10&#45;&gt;Node2</title>
<path fill="none" stroke="orange" stroke-dasharray="5,2" d="M943.54,-71.93C1000.72,-68.35 1068.68,-64.09 1119.98,-60.88"/>
<polygon fill="orange" stroke="orange" points="943.12,-68.44 933.36,-72.56 943.56,-75.43 943.12,-68.44"/>
<text text-anchor="middle" x="1026.5" y="-73" font-family="Helvetica,sans-Serif" font-size="10.00"> &lt; ConstantQueueDescriptor &gt;</text>
</g>
<!-- Node11&#45;&gt;Node10 -->
<g id="edge12" class="edge">
<title>Node11&#45;&gt;Node10</title>
<path fill="none" stroke="midnightblue" d="M549.53,-79C604.44,-79 671.38,-79 725.92,-79"/>
<polygon fill="midnightblue" stroke="midnightblue" points="549.42,-75.5 539.42,-79 549.42,-82.5 549.42,-75.5"/>
</g>
</g>
</svg>
