<?xml version="1.0" encoding="UTF-8" standalone="no"?>
<!DOCTYPE svg PUBLIC "-//W3C//DTD SVG 1.1//EN"
 "http://www.w3.org/Graphics/SVG/1.1/DTD/svg11.dtd">
<!-- Generated by graphviz version 2.43.0 (0)
 -->
<!-- Title: LogSink Pages: 1 -->
<svg width="406pt" height="84pt"
 viewBox="0.00 0.00 406.00 84.00" xmlns="http://www.w3.org/2000/svg" xmlns:xlink="http://www.w3.org/1999/xlink">
<g id="graph0" class="graph" transform="scale(1 1) rotate(0) translate(4 80)">
<title>LogSink</title>
<polygon fill="white" stroke="transparent" points="-4,4 -4,-80 402,-80 402,4 -4,4"/>
<!-- Node1 -->
<g id="node1" class="node">
<title>Node1</title>
<g id="a_node1"><a xlink:title=" ">
<polygon fill="#bfbfbf" stroke="black" points="165.5,-56.5 165.5,-75.5 220.5,-75.5 220.5,-56.5 165.5,-56.5"/>
<text text-anchor="middle" x="193" y="-63.5" font-family="Helvetica,sans-Serif" font-size="10.00">LogSink</text>
</a>
</g>
</g>
<!-- Node2 -->
<g id="node2" class="node">
<title>Node2</title>
<g id="a_node2"><a xlink:title=" ">
<polygon fill="white" stroke="#bfbfbf" points="0,-0.5 0,-19.5 102,-19.5 102,-0.5 0,-0.5"/>
<text text-anchor="middle" x="51" y="-7.5" font-family="Helvetica,sans-Serif" font-size="10.00">DebugOutputSink</text>
</a>
</g>
</g>
<!-- Node1&#45;&gt;Node2 -->
<g id="edge1" class="edge">
<title>Node1&#45;&gt;Node2</title>
<path fill="none" stroke="midnightblue" d="M160.84,-52.77C134.17,-42.63 96.93,-28.47 73.4,-19.52"/>
<polygon fill="midnightblue" stroke="midnightblue" points="159.91,-56.16 170.5,-56.44 162.4,-49.62 159.91,-56.16"/>
</g>
<!-- Node3 -->
<g id="node3" class="node">
<title>Node3</title>
<g id="a_node3"><a xlink:title=" ">
<polygon fill="white" stroke="#bfbfbf" points="120,-0.5 120,-19.5 266,-19.5 266,-0.5 120,-0.5"/>
<text text-anchor="middle" x="193" y="-7.5" font-family="Helvetica,sans-Serif" font-size="10.00">StandardOutputColourSink</text>
</a>
</g>
</g>
<!-- Node1&#45;&gt;Node3 -->
<g id="edge2" class="edge">
<title>Node1&#45;&gt;Node3</title>
<path fill="none" stroke="midnightblue" d="M193,-45.8C193,-36.91 193,-26.78 193,-19.75"/>
<polygon fill="midnightblue" stroke="midnightblue" points="189.5,-46.08 193,-56.08 196.5,-46.08 189.5,-46.08"/>
</g>
<!-- Node4 -->
<g id="node4" class="node">
<title>Node4</title>
<g id="a_node4"><a xlink:href="classarmnn_1_1_standard_output_sink.html" target="_top" xlink:title=" ">
<polygon fill="white" stroke="black" points="284,-0.5 284,-19.5 398,-19.5 398,-0.5 284,-0.5"/>
<text text-anchor="middle" x="341" y="-7.5" font-family="Helvetica,sans-Serif" font-size="10.00">StandardOutputSink</text>
</a>
</g>
</g>
<!-- Node1&#45;&gt;Node4 -->
<g id="edge3" class="edge">
<title>Node1&#45;&gt;Node4</title>
<path fill="none" stroke="midnightblue" d="M226.15,-52.91C253.97,-42.75 293.02,-28.51 317.66,-19.52"/>
<polygon fill="midnightblue" stroke="midnightblue" points="224.65,-49.73 216.45,-56.44 227.04,-56.3 224.65,-49.73"/>
</g>
</g>
</svg>
