<?xml version="1.0" encoding="UTF-8" standalone="no"?>
<!DOCTYPE svg PUBLIC "-//W3C//DTD SVG 1.1//EN"
 "http://www.w3.org/Graphics/SVG/1.1/DTD/svg11.dtd">
<!-- Generated by graphviz version 2.43.0 (0)
 -->
<!-- Title: src/armnnTestUtils Pages: 1 -->
<svg width="192pt" height="367pt"
 viewBox="0.00 0.00 192.14 367.00" xmlns="http://www.w3.org/2000/svg" xmlns:xlink="http://www.w3.org/1999/xlink">
<g id="graph0" class="graph" transform="scale(1 1) rotate(0) translate(4 363)">
<title>src/armnnTestUtils</title>
<polygon fill="white" stroke="transparent" points="-4,4 -4,-363 188.14,-363 188.14,4 -4,4"/>
<g id="clust1" class="cluster">
<title>clusterdir_68267d1309a1af8e8297ef4c3efbcdba</title>
<g id="a_clust1"><a xlink:href="dir_68267d1309a1af8e8297ef4c3efbcdba.html" target="_top" xlink:title="src">
<polygon fill="#ddddee" stroke="black" points="8,-280 8,-351 114,-351 114,-280 8,-280"/>
<text text-anchor="middle" x="61" y="-339" font-family="Helvetica,sans-Serif" font-size="10.00">src</text>
</a>
</g>
</g>
<!-- dir_f574f3650e467f7ec35d628d20229555 -->
<g id="node1" class="node">
<title>dir_f574f3650e467f7ec35d628d20229555</title>
<g id="a_node1"><a xlink:href="dir_f574f3650e467f7ec35d628d20229555.html" target="_top" xlink:title="armnnTestUtils">
<polygon fill="#eeeeff" stroke="black" points="106,-324 16,-324 16,-288 106,-288 106,-324"/>
<text text-anchor="middle" x="61" y="-303.5" font-family="Helvetica,sans-Serif" font-size="10.00">armnnTestUtils</text>
</a>
</g>
</g>
<!-- dir_5d9c764a006d252ff232a5efbbd99a46 -->
<g id="node2" class="node">
<title>dir_5d9c764a006d252ff232a5efbbd99a46</title>
<g id="a_node2"><a xlink:href="dir_5d9c764a006d252ff232a5efbbd99a46.html" target="_top" xlink:title="armnnUtils">
<polygon fill="none" stroke="black" points="179.5,-252 108.5,-252 108.5,-216 179.5,-216 179.5,-252"/>
<text text-anchor="middle" x="144" y="-231.5" font-family="Helvetica,sans-Serif" font-size="10.00">armnnUtils</text>
</a>
</g>
</g>
<!-- dir_f574f3650e467f7ec35d628d20229555&#45;&gt;dir_5d9c764a006d252ff232a5efbbd99a46 -->
<g id="edge11" class="edge">
<title>dir_f574f3650e467f7ec35d628d20229555&#45;&gt;dir_5d9c764a006d252ff232a5efbbd99a46</title>
<path fill="none" stroke="black" d="M81.52,-287.7C91.87,-278.97 104.59,-268.24 115.84,-258.75"/>
<polygon fill="black" stroke="black" points="118.33,-261.23 123.72,-252.1 113.82,-255.88 118.33,-261.23"/>
<g id="a_edge11&#45;headlabel"><a xlink:href="dir_000034_000036.html" target="_top" xlink:title="1">
<text text-anchor="middle" x="117.41" y="-263.21" font-family="Helvetica,sans-Serif" font-size="10.00">1</text>
</a>
</g>
</g>
<!-- dir_0f3cdec46afbc61a1ded8e1687c9c9a0 -->
<g id="node3" class="node">
<title>dir_0f3cdec46afbc61a1ded8e1687c9c9a0</title>
<g id="a_node3"><a xlink:href="dir_0f3cdec46afbc61a1ded8e1687c9c9a0.html" target="_top" xlink:title="backends">
<polygon fill="white" stroke="red" points="106,-108 44,-108 44,-72 106,-72 106,-108"/>
<text text-anchor="middle" x="75" y="-87.5" font-family="Helvetica,sans-Serif" font-size="10.00">backends</text>
</a>
</g>
</g>
<!-- dir_f574f3650e467f7ec35d628d20229555&#45;&gt;dir_0f3cdec46afbc61a1ded8e1687c9c9a0 -->
<g id="edge12" class="edge">
<title>dir_f574f3650e467f7ec35d628d20229555&#45;&gt;dir_0f3cdec46afbc61a1ded8e1687c9c9a0</title>
<path fill="none" stroke="black" d="M62.12,-287.85C64.54,-250.83 70.28,-163.18 73.21,-118.39"/>
<polygon fill="black" stroke="black" points="76.71,-118.44 73.87,-108.23 69.73,-117.98 76.71,-118.44"/>
<g id="a_edge12&#45;headlabel"><a xlink:href="dir_000034_000022.html" target="_top" xlink:title="3">
<text text-anchor="middle" x="79.31" y="-119.71" font-family="Helvetica,sans-Serif" font-size="10.00">3</text>
</a>
</g>
</g>
<!-- dir_e0a84d05c80a2ef4231141dcbbeac5c8 -->
<g id="node4" class="node">
<title>dir_e0a84d05c80a2ef4231141dcbbeac5c8</title>
<g id="a_node4"><a xlink:href="dir_e0a84d05c80a2ef4231141dcbbeac5c8.html" target="_top" xlink:title="armnn">
<polygon fill="white" stroke="red" points="162,-180 108,-180 108,-144 162,-144 162,-180"/>
<text text-anchor="middle" x="135" y="-159.5" font-family="Helvetica,sans-Serif" font-size="10.00">armnn</text>
</a>
</g>
</g>
<!-- dir_f574f3650e467f7ec35d628d20229555&#45;&gt;dir_e0a84d05c80a2ef4231141dcbbeac5c8 -->
<g id="edge13" class="edge">
<title>dir_f574f3650e467f7ec35d628d20229555&#45;&gt;dir_e0a84d05c80a2ef4231141dcbbeac5c8</title>
<path fill="none" stroke="black" d="M67.2,-287.81C74.05,-269.54 85.87,-240.03 99,-216 104.07,-206.73 110.33,-197.04 116.21,-188.52"/>
<polygon fill="black" stroke="black" points="119.22,-190.32 122.12,-180.13 113.5,-186.29 119.22,-190.32"/>
<g id="a_edge13&#45;headlabel"><a xlink:href="dir_000034_000028.html" target="_top" xlink:title="12">
<text text-anchor="middle" x="119.47" y="-192.39" font-family="Helvetica,sans-Serif" font-size="10.00">12</text>
</a>
</g>
</g>
<!-- dir_d44c64559bbebec7f509842c48db8b23 -->
<g id="node5" class="node">
<title>dir_d44c64559bbebec7f509842c48db8b23</title>
<g id="a_node5"><a xlink:href="dir_d44c64559bbebec7f509842c48db8b23.html" target="_top" xlink:title="include">
<polygon fill="white" stroke="red" points="170,-36 116,-36 116,0 170,0 170,-36"/>
<text text-anchor="middle" x="143" y="-15.5" font-family="Helvetica,sans-Serif" font-size="10.00">include</text>
</a>
</g>
</g>
<!-- dir_f574f3650e467f7ec35d628d20229555&#45;&gt;dir_d44c64559bbebec7f509842c48db8b23 -->
<g id="edge14" class="edge">
<title>dir_f574f3650e467f7ec35d628d20229555&#45;&gt;dir_d44c64559bbebec7f509842c48db8b23</title>
<path fill="none" stroke="black" d="M52.36,-287.89C33.05,-247.03 -8.59,-141.95 35,-72 50.44,-47.23 81.2,-33.71 105.96,-26.54"/>
<polygon fill="black" stroke="black" points="107.03,-29.87 115.8,-23.92 105.23,-23.11 107.03,-29.87"/>
<g id="a_edge14&#45;headlabel"><a xlink:href="dir_000034_000008.html" target="_top" xlink:title="21">
<text text-anchor="middle" x="104.29" y="-31.04" font-family="Helvetica,sans-Serif" font-size="10.00">21</text>
</a>
</g>
</g>
<!-- dir_5d9c764a006d252ff232a5efbbd99a46&#45;&gt;dir_e0a84d05c80a2ef4231141dcbbeac5c8 -->
<g id="edge1" class="edge">
<title>dir_5d9c764a006d252ff232a5efbbd99a46&#45;&gt;dir_e0a84d05c80a2ef4231141dcbbeac5c8</title>
<path fill="none" stroke="black" d="M135.86,-215.7C134.07,-207.98 132.65,-198.71 131.89,-190.11"/>
<polygon fill="black" stroke="black" points="135.38,-189.88 131.3,-180.1 128.4,-190.29 135.38,-189.88"/>
<g id="a_edge1&#45;headlabel"><a xlink:href="dir_000036_000028.html" target="_top" xlink:title="1">
<text text-anchor="middle" x="138.43" y="-190.8" font-family="Helvetica,sans-Serif" font-size="10.00">1</text>
</a>
</g>
</g>
<!-- dir_5d9c764a006d252ff232a5efbbd99a46&#45;&gt;dir_d44c64559bbebec7f509842c48db8b23 -->
<g id="edge2" class="edge">
<title>dir_5d9c764a006d252ff232a5efbbd99a46&#45;&gt;dir_d44c64559bbebec7f509842c48db8b23</title>
<path fill="none" stroke="black" d="M147.54,-215.67C152.37,-205.69 158.96,-192.65 162,-180 173.19,-133.4 157.42,-78.21 147.99,-46.04"/>
<polygon fill="black" stroke="black" points="151.24,-44.69 145.08,-36.07 144.52,-46.65 151.24,-44.69"/>
<g id="a_edge2&#45;headlabel"><a xlink:href="dir_000036_000008.html" target="_top" xlink:title="31">
<text text-anchor="middle" x="154.97" y="-44.84" font-family="Helvetica,sans-Serif" font-size="10.00">31</text>
</a>
</g>
</g>
<!-- dir_0f3cdec46afbc61a1ded8e1687c9c9a0&#45;&gt;dir_5d9c764a006d252ff232a5efbbd99a46 -->
<g id="edge3" class="edge">
<title>dir_0f3cdec46afbc61a1ded8e1687c9c9a0&#45;&gt;dir_5d9c764a006d252ff232a5efbbd99a46</title>
<path fill="none" stroke="black" d="M77.34,-108.22C80.38,-126.77 86.79,-156.77 99,-180 104.27,-190.04 111.74,-199.85 119.08,-208.25"/>
<polygon fill="black" stroke="black" points="116.67,-210.8 126,-215.83 121.84,-206.08 116.67,-210.8"/>
<g id="a_edge3&#45;headlabel"><a xlink:href="dir_000022_000036.html" target="_top" xlink:title="23">
<text text-anchor="middle" x="112.15" y="-207.56" font-family="Helvetica,sans-Serif" font-size="10.00">23</text>
</a>
</g>
</g>
<!-- dir_0f3cdec46afbc61a1ded8e1687c9c9a0&#45;&gt;dir_e0a84d05c80a2ef4231141dcbbeac5c8 -->
<g id="edge4" class="edge">
<title>dir_0f3cdec46afbc61a1ded8e1687c9c9a0&#45;&gt;dir_e0a84d05c80a2ef4231141dcbbeac5c8</title>
<path fill="none" stroke="black" d="M95.56,-108.1C103.52,-116.38 112.39,-126.49 119.78,-135.64"/>
<polygon fill="black" stroke="black" points="117.17,-137.98 126.08,-143.7 122.68,-133.66 117.17,-137.98"/>
<g id="a_edge4&#45;headlabel"><a xlink:href="dir_000022_000028.html" target="_top" xlink:title="94">
<text text-anchor="middle" x="112.71" y="-134.4" font-family="Helvetica,sans-Serif" font-size="10.00">94</text>
</a>
</g>
</g>
<!-- dir_0f3cdec46afbc61a1ded8e1687c9c9a0&#45;&gt;dir_d44c64559bbebec7f509842c48db8b23 -->
<g id="edge5" class="edge">
<title>dir_0f3cdec46afbc61a1ded8e1687c9c9a0&#45;&gt;dir_d44c64559bbebec7f509842c48db8b23</title>
<path fill="none" stroke="black" d="M91.81,-71.7C100.13,-63.14 110.31,-52.66 119.39,-43.3"/>
<polygon fill="black" stroke="black" points="121.93,-45.72 126.38,-36.1 116.91,-40.84 121.93,-45.72"/>
<g id="a_edge5&#45;headlabel"><a xlink:href="dir_000022_000008.html" target="_top" xlink:title="677">
<text text-anchor="middle" x="121.46" y="-47.77" font-family="Helvetica,sans-Serif" font-size="10.00">677</text>
</a>
</g>
</g>
<!-- dir_e0a84d05c80a2ef4231141dcbbeac5c8&#45;&gt;dir_5d9c764a006d252ff232a5efbbd99a46 -->
<g id="edge6" class="edge">
<title>dir_e0a84d05c80a2ef4231141dcbbeac5c8&#45;&gt;dir_5d9c764a006d252ff232a5efbbd99a46</title>
<path fill="none" stroke="black" d="M143.09,-180.1C144.89,-187.79 146.32,-197.05 147.09,-205.67"/>
<polygon fill="black" stroke="black" points="143.6,-205.92 147.69,-215.7 150.59,-205.51 143.6,-205.92"/>
<g id="a_edge6&#45;headlabel"><a xlink:href="dir_000028_000036.html" target="_top" xlink:title="6">
<text text-anchor="middle" x="140.55" y="-200.01" font-family="Helvetica,sans-Serif" font-size="10.00">6</text>
</a>
</g>
</g>
<!-- dir_e0a84d05c80a2ef4231141dcbbeac5c8&#45;&gt;dir_0f3cdec46afbc61a1ded8e1687c9c9a0 -->
<g id="edge7" class="edge">
<title>dir_e0a84d05c80a2ef4231141dcbbeac5c8&#45;&gt;dir_0f3cdec46afbc61a1ded8e1687c9c9a0</title>
<path fill="none" stroke="black" d="M114.25,-143.7C106.28,-135.39 97.41,-125.28 90.04,-116.14"/>
<polygon fill="black" stroke="black" points="92.68,-113.83 83.77,-108.1 87.16,-118.14 92.68,-113.83"/>
<g id="a_edge7&#45;headlabel"><a xlink:href="dir_000028_000022.html" target="_top" xlink:title="15">
<text text-anchor="middle" x="97.13" y="-112.42" font-family="Helvetica,sans-Serif" font-size="10.00">15</text>
</a>
</g>
</g>
<!-- dir_e0a84d05c80a2ef4231141dcbbeac5c8&#45;&gt;dir_d44c64559bbebec7f509842c48db8b23 -->
<g id="edge8" class="edge">
<title>dir_e0a84d05c80a2ef4231141dcbbeac5c8&#45;&gt;dir_d44c64559bbebec7f509842c48db8b23</title>
<path fill="none" stroke="black" d="M131.38,-143.87C130.19,-119.67 132.4,-75.21 136,-46.39"/>
<polygon fill="black" stroke="black" points="139.51,-46.58 137.44,-36.19 132.57,-45.6 139.51,-46.58"/>
<g id="a_edge8&#45;headlabel"><a xlink:href="dir_000028_000008.html" target="_top" xlink:title="434">
<text text-anchor="middle" x="141.81" y="-48.04" font-family="Helvetica,sans-Serif" font-size="10.00">434</text>
</a>
</g>
</g>
<!-- dir_d44c64559bbebec7f509842c48db8b23&#45;&gt;dir_5d9c764a006d252ff232a5efbbd99a46 -->
<g id="edge9" class="edge">
<title>dir_d44c64559bbebec7f509842c48db8b23&#45;&gt;dir_5d9c764a006d252ff232a5efbbd99a46</title>
<path fill="none" stroke="black" d="M155.95,-36.07C171.51,-65.62 192.45,-128.14 180,-180 177.77,-189.29 173.62,-198.79 168.81,-207.13"/>
<polygon fill="black" stroke="black" points="165.8,-205.35 163.39,-215.67 171.71,-209.1 165.8,-205.35"/>
<g id="a_edge9&#45;headlabel"><a xlink:href="dir_000008_000036.html" target="_top" xlink:title="2">
<text text-anchor="middle" x="165.33" y="-198.29" font-family="Helvetica,sans-Serif" font-size="10.00">2</text>
</a>
</g>
</g>
<!-- dir_d44c64559bbebec7f509842c48db8b23&#45;&gt;dir_e0a84d05c80a2ef4231141dcbbeac5c8 -->
<g id="edge10" class="edge">
<title>dir_d44c64559bbebec7f509842c48db8b23&#45;&gt;dir_e0a84d05c80a2ef4231141dcbbeac5c8</title>
<path fill="none" stroke="black" d="M146.62,-36.19C147.81,-60.42 145.59,-104.89 141.99,-133.68"/>
<polygon fill="black" stroke="black" points="138.49,-133.48 140.55,-143.87 145.42,-134.46 138.49,-133.48"/>
<g id="a_edge10&#45;headlabel"><a xlink:href="dir_000008_000028.html" target="_top" xlink:title="6">
<text text-anchor="middle" x="136.18" y="-127.02" font-family="Helvetica,sans-Serif" font-size="10.00">6</text>
</a>
</g>
</g>
</g>
</svg>
