<?xml version="1.0" encoding="UTF-8" standalone="no"?>
<!DOCTYPE svg PUBLIC "-//W3C//DTD SVG 1.1//EN"
 "http://www.w3.org/Graphics/SVG/1.1/DTD/svg11.dtd">
<!-- Generated by graphviz version 2.43.0 (0)
 -->
<!-- Title: src/armnn/Sme2ShapePolicy.hpp Pages: 1 -->
<svg width="330pt" height="84pt"
 viewBox="0.00 0.00 330.00 84.00" xmlns="http://www.w3.org/2000/svg" xmlns:xlink="http://www.w3.org/1999/xlink">
<g id="graph0" class="graph" transform="scale(1 1) rotate(0) translate(4 80)">
<title>src/armnn/Sme2ShapePolicy.hpp</title>
<polygon fill="white" stroke="transparent" points="-4,4 -4,-80 326,-80 326,4 -4,4"/>
<!-- Node1 -->
<g id="node1" class="node">
<title>Node1</title>
<g id="a_node1"><a xlink:title=" ">
<polygon fill="#bfbfbf" stroke="black" points="62.5,-56.5 62.5,-75.5 237.5,-75.5 237.5,-56.5 62.5,-56.5"/>
<text text-anchor="middle" x="150" y="-63.5" font-family="Helvetica,sans-Serif" font-size="10.00">src/armnn/Sme2ShapePolicy.hpp</text>
</a>
</g>
</g>
<!-- Node2 -->
<g id="node2" class="node">
<title>Node2</title>
<g id="a_node2"><a xlink:href="_network_8cpp.html" target="_top" xlink:title=" ">
<polygon fill="white" stroke="black" points="0,-0.5 0,-19.5 130,-19.5 130,-0.5 0,-0.5"/>
<text text-anchor="middle" x="65" y="-7.5" font-family="Helvetica,sans-Serif" font-size="10.00">src/armnn/Network.cpp</text>
</a>
</g>
</g>
<!-- Node1&#45;&gt;Node2 -->
<g id="edge1" class="edge">
<title>Node1&#45;&gt;Node2</title>
<path fill="none" stroke="midnightblue" d="M127.81,-50.9C112.22,-41 91.87,-28.07 78.62,-19.65"/>
<polygon fill="midnightblue" stroke="midnightblue" points="126.03,-53.92 136.34,-56.32 129.78,-48.01 126.03,-53.92"/>
</g>
<!-- Node3 -->
<g id="node3" class="node">
<title>Node3</title>
<g id="a_node3"><a xlink:href="_sme2_shape_policy_8cpp.html" target="_top" xlink:title=" ">
<polygon fill="white" stroke="black" points="148,-0.5 148,-19.5 322,-19.5 322,-0.5 148,-0.5"/>
<text text-anchor="middle" x="235" y="-7.5" font-family="Helvetica,sans-Serif" font-size="10.00">src/armnn/Sme2ShapePolicy.cpp</text>
</a>
</g>
</g>
<!-- Node1&#45;&gt;Node3 -->
<g id="edge2" class="edge">
<title>Node1&#45;&gt;Node3</title>
<path fill="none" stroke="midnightblue" d="M172.19,-50.9C187.78,-41 208.13,-28.07 221.38,-19.65"/>
<polygon fill="midnightblue" stroke="midnightblue" points="170.22,-48.01 163.66,-56.32 173.97,-53.92 170.22,-48.01"/>
</g>
</g>
</svg>
